<svg width="25" height="41" viewBox="0 0 25 41" fill="none" xmlns="http://www.w3.org/2000/svg">
<path d="M20.7919 0.536306C20.7506 0.577561 15.9239 6.6832 15.14 7.30202C13.2011 8.82843 8.58061 9.19972 7.46674 9.07595H7.38423L7.0542 10.0248L7.17796 10.0661C7.21922 10.0661 11.7984 11.0974 14.0674 12.4176C16.1714 13.6552 19.1417 16.7493 19.513 17.2031C19.7193 16.9555 19.9668 16.6667 20.2556 16.3367C19.4718 15.2641 17.5741 11.3449 17.9041 8.99344C18.0279 7.96209 20.9157 0.783832 20.9569 0.701324L21.2044 0L20.7919 0.536306Z" fill="#DA291C"/>
<path d="M19.5548 17.1615C19.266 17.4915 19.0185 17.739 18.8947 17.8628C16.997 19.348 12.6241 19.7605 11.3452 19.6367C11.2214 20.008 11.0976 20.3381 11.0151 20.6268C11.634 20.7919 15.7181 21.7407 17.8221 22.9371C20.0911 24.2572 23.3089 27.7226 23.3502 27.7638L23.4327 27.8463L24.1753 27.0213L24.134 26.9388C23.3914 25.9899 21.37 21.9057 21.7 19.4717C21.8238 18.4404 24.7116 11.2621 24.7528 11.1796L25.0004 10.5195L24.5878 11.0558C24.5466 11.0971 22.03 14.2737 20.3386 16.2951L19.5548 17.1615Z" fill="#DA291C"/>
<path d="M11.0149 20.5856C10.9324 20.8744 10.8911 21.0806 10.8499 21.2044C10.5199 23.5559 12.4176 27.4751 13.2014 28.5477C12.9126 28.8777 12.6651 29.1665 12.4588 29.414C12.0463 29.0015 9.11721 25.8661 7.01324 24.6285C4.74425 23.3084 0.165017 22.277 0.123763 22.277H0L0.330035 21.3282H0.412543C1.52641 21.4932 6.10564 21.0806 8.08585 19.5542C8.91094 18.9354 13.6964 12.8298 13.7377 12.7885L14.109 12.376L13.944 12.9123C13.9027 12.9535 12.2525 17.1615 11.3862 19.5955L11.0149 20.5856Z" fill="#DA291C"/>
<path d="M12.4583 29.4139C12.1695 29.744 11.922 29.9915 11.7983 30.1153C9.8593 31.6417 5.23881 32.013 4.12495 31.8892H4.04244L3.7124 32.8381L3.83617 32.8793C3.87742 32.8793 8.45665 33.9107 10.7256 35.2308C12.9946 36.5509 16.2125 40.0163 16.2537 40.0576L16.3362 40.1401L17.0788 39.315L17.0376 39.2325C16.295 38.2836 14.2735 34.1994 14.6035 31.7654C14.7273 30.7341 17.6151 23.5558 17.6564 23.4733L17.8214 22.937L17.4501 23.3496C17.4088 23.3908 14.8923 26.5674 13.2009 28.5889L12.4583 29.4139Z" fill="#DA291C"/>
</svg>
