<svg width="45" height="72" viewBox="0 0 45 72" fill="none" xmlns="http://www.w3.org/2000/svg">
<path d="M37.1852 0.959149C37.1114 1.03293 28.4791 11.9525 27.0772 13.0592C23.6095 15.7891 15.3461 16.4531 13.354 16.2317H13.2065L12.6162 17.9287L12.8376 18.0025C12.9113 18.0025 21.101 19.847 25.1589 22.208C28.9217 24.4214 34.2339 29.955 34.898 30.7665C35.2669 30.3239 35.7096 29.8074 36.226 29.2171C34.8242 27.2988 31.4303 20.2897 32.0205 16.0842C32.2419 14.2397 37.4065 1.40183 37.4803 1.25427L37.923 0L37.1852 0.959149Z" fill="#ECEEEF"/>
<path d="M34.9718 30.6927C34.4554 31.2829 34.0127 31.7256 33.7913 31.9469C30.3974 34.603 22.5767 35.3408 20.2895 35.1195C20.0681 35.7835 19.8468 36.3738 19.6992 36.8902C20.8059 37.1854 28.1102 38.8823 31.873 41.0219C35.931 43.3829 41.6859 49.5805 41.7596 49.6543L41.9072 49.8018L43.2353 48.3262L43.1615 48.1787C41.8334 46.4817 38.2182 39.1774 38.8084 34.8244C39.0298 32.9799 44.1944 20.142 44.2682 19.9945L44.7109 18.814L43.9731 19.7731C43.8993 19.8469 39.3987 25.528 36.3736 29.1433L34.9718 30.6927Z" fill="#1D428A"/>
<path d="M19.6994 36.8166C19.5519 37.3331 19.4781 37.702 19.4043 37.9233C18.8141 42.1288 22.208 49.138 23.6098 51.0563C23.0934 51.6465 22.6507 52.163 22.2818 52.6057C21.544 51.8679 16.3055 46.2606 12.5427 44.0471C8.48478 41.6862 0.295123 39.8416 0.221342 39.8416H0L0.590245 38.1447H0.737807C2.72988 38.4398 10.9195 37.702 14.461 34.9721C15.9366 33.8654 24.4952 22.9459 24.569 22.8721L25.233 22.1343L24.9379 23.0934C24.8641 23.1672 21.9129 30.6928 20.3635 35.0459L19.6994 36.8166Z" fill="#ECEEEF"/>
<path d="M22.2816 52.6055C21.7652 53.1958 21.3225 53.6385 21.1011 53.8598C17.6335 56.5897 9.37002 57.2537 7.37794 57.0324H7.23038L6.64014 58.7293L6.86148 58.8031C6.93526 58.8031 15.1249 60.6476 19.1829 63.0086C23.2408 65.3696 28.9957 71.5672 29.0695 71.641L29.217 71.7885L30.5451 70.3129L30.4713 70.1653C29.1432 68.4684 25.528 61.1641 26.1182 56.811C26.3396 54.9665 31.5042 42.1287 31.578 41.9811L31.8731 41.022L31.2091 41.7598C31.1353 41.8336 26.6347 47.5147 23.6097 51.1299L22.2816 52.6055Z" fill="#ECEEEF"/>
</svg>
