<svg class="sprite-icons" xmlns="http://www.w3.org/2000/svg">

	<symbol id="icon-star">
		<!-- width="34" height="32" viewBox="0 0 34 32" -->
		<g>
			<g>
				<path d="M17 25.723L27.506 32l-2.78-11.838L34 12.2l-12.225-1.039L17 0l-4.775 11.161L0 12.201l9.274 7.96L6.494 32z"/>
			</g>
		</g>
	</symbol>

	<symbol id="icon-search">
		<!-- width="21" height="21" viewBox="0 0 21 21" -->
		<circle cx="9.5" cy="9.5" r="8.5" stroke="black" fill="#fff" />
		<path d="M17 17L20 20" stroke="black"/>
	</symbol>

	<symbol id="icon-burger">
		<!-- width="22" height="19" viewBox="0 0 22 19" -->
		<path d="M0 1H22" />
		<path d="M0 9.5H22" />
		<path d="M0 18H22" />
	</symbol>

	<symbol id="icon-btn-search">
		<!-- width="30" height="30" viewBox="0 0 30 30" -->
		<circle cx="13.5263" cy="13.5263" r="12.5263" fill="transparent" stroke="white" stroke-width="2"/>
		<path d="M24.5789 24.579L28.9999 29" stroke="white" stroke-width="2"/>
	</symbol>

	<symbol id="icon--arrow-link">
		<!-- width="18" height="29" viewBox="0 0 18 29" -->
		<path d="M2 2L15 14.5L2 27" troke-width="4"/>
	</symbol>

	<symbol id="icon-job1">
		<!-- width="48" height="48" viewBox="0 0 48 48" -->
		<path d="M48 7.96875C48 5.64253 46.1075 3.75 43.7812 3.75H28.9613C28.3477 1.58803 26.3559 0 24 0C21.6442 0 19.6523 1.58803 19.0387 3.75H4.21875C1.89253 3.75 0 5.64253 0 7.96875C0 9.83681 1.22091 11.4242 2.90625 11.9774V36.0938C2.90625 36.8704 3.53587 37.5 4.3125 37.5H22.5938V39.8044C20.957 40.3849 19.7812 41.948 19.7812 43.7812C19.7812 46.1075 21.6738 48 24 48C26.3262 48 28.2188 46.1075 28.2188 43.7812C28.2188 41.948 27.043 40.3849 25.4062 39.8044V37.5H43.6875C44.4641 37.5 45.0938 36.8704 45.0938 36.0938V11.9774C46.7792 11.4242 48 9.83681 48 7.96875ZM24 45.1875C23.2246 45.1875 22.5938 44.5567 22.5938 43.7812C22.5938 43.0058 23.2246 42.375 24 42.375C24.7754 42.375 25.4062 43.0058 25.4062 43.7812C25.4062 44.5567 24.7754 45.1875 24 45.1875ZM42.2812 34.6875H5.71875V12.1875H42.2812V34.6875ZM43.7812 9.375H4.21875C3.44334 9.375 2.8125 8.74416 2.8125 7.96875C2.8125 7.19334 3.44334 6.5625 4.21875 6.5625H20.25C21.0266 6.5625 21.6562 5.93288 21.6562 5.15625C21.6562 3.86391 22.7077 2.8125 24 2.8125C25.2923 2.8125 26.3438 3.86391 26.3438 5.15625C26.3438 5.93288 26.9734 6.5625 27.75 6.5625H43.7812C44.5567 6.5625 45.1875 7.19334 45.1875 7.96875C45.1875 8.74416 44.5567 9.375 43.7812 9.375Z"/>
		<path d="M9.9375 31.875H15.5625C16.3391 31.875 16.9688 31.2454 16.9688 30.4688V24.8438C16.9688 24.0671 16.3391 23.4375 15.5625 23.4375H9.9375C9.16087 23.4375 8.53125 24.0671 8.53125 24.8438V30.4688C8.53125 31.2454 9.16087 31.875 9.9375 31.875ZM11.3438 26.25H14.1562V29.0625H11.3438V26.25Z"/>
		<path d="M21.1875 31.875H26.8125C27.5891 31.875 28.2188 31.2454 28.2188 30.4688V20.1562C28.2188 19.3796 27.5891 18.75 26.8125 18.75H21.1875C20.4109 18.75 19.7812 19.3796 19.7812 20.1562V30.4688C19.7812 31.2454 20.4109 31.875 21.1875 31.875ZM22.5938 21.5625H25.4062V29.0625H22.5938V21.5625Z"/>
		<path d="M32.4375 31.875H38.0625C38.8391 31.875 39.4688 31.2454 39.4688 30.4688V16.4062C39.4688 15.6296 38.8391 15 38.0625 15H32.4375C31.6609 15 31.0312 15.6296 31.0312 16.4062V30.4688C31.0312 31.2454 31.6609 31.875 32.4375 31.875ZM33.8438 17.8125H36.6562V29.0625H33.8438V17.8125Z"/>
	</symbol>

	<symbol id="icon-job2">
		<!-- width="48" height="48" viewBox="0 0 48 48" -->
		<path d="M42.8438 7.68755H42.5714C43.8009 4.32005 44.127 1.73349 44.1461 1.57477C44.1979 1.14662 44.0502 0.718365 43.7455 0.413022C43.441 0.107678 43.0131 -0.0408222 42.5847 0.00980277C42.1968 0.0557403 33.0187 1.20802 26.5253 7.68755H10.3125V3.4688C10.3125 2.69218 9.68287 2.06255 8.90625 2.06255H5.15625C2.31309 2.06255 0 4.37565 0 7.2188V35.3438C0 38.187 2.31309 40.5001 5.15625 40.5001H37.6875V46.5938C37.6875 47.3704 38.3171 48.0001 39.0938 48.0001H42.8438C45.6869 48.0001 48 45.687 48 42.8438V12.8438C48 10.0006 45.6869 7.68755 42.8438 7.68755ZM40.9821 3.17227C40.5454 5.04408 39.6539 8.02711 37.9553 11.0074L33.1935 11.9597C32.6849 12.0615 32.2736 12.4349 32.1233 12.9312C31.9731 13.4275 32.1082 13.9664 32.4749 14.3331L34.1282 15.9863C31.1694 18.8043 27.57 20.4539 24.7504 21.3947L30.4862 15.6589C31.0354 15.1098 31.0354 14.2194 30.4862 13.6702C29.9372 13.121 29.0467 13.121 28.4975 13.6702L22.7618 19.4058C23.7384 16.4786 25.4786 12.7115 28.4974 9.69268C32.6079 5.58212 38.1082 3.84033 40.9821 3.17227ZM2.8125 7.2188C2.8125 5.92646 3.86391 4.87505 5.15625 4.87505H7.5V30.1876H5.15625C4.31287 30.1876 3.516 30.3911 2.8125 30.7516V7.2188ZM5.15625 37.6876C3.86391 37.6876 2.8125 36.6361 2.8125 35.3438C2.8125 34.0515 3.86391 33.0001 5.15625 33.0001H8.90625C9.68287 33.0001 10.3125 32.3704 10.3125 31.5938V10.5001H24.1267C20.33 15.7163 19.162 21.5505 18.8859 23.2816L15.2392 26.9284C14.69 27.4776 14.69 28.368 15.2392 28.9171C15.5137 29.1917 15.8736 29.3291 16.2335 29.3291C16.5933 29.3291 16.9533 29.1917 17.2278 28.9171L20.8747 25.2704C22.9254 24.9434 30.7345 23.3654 36.4522 17.6478C36.6412 17.4588 36.808 17.2736 36.9695 17.0944C37.0238 17.0341 37.0782 16.9737 37.1332 16.9136C37.6406 16.3584 37.6214 15.5022 37.0896 14.9703L36.3217 14.2023L39.125 13.6417C39.5123 13.5643 39.8493 13.3275 40.0533 12.9892C40.5568 12.1546 41.0003 11.3188 41.3913 10.5001H42.8438C44.1361 10.5001 45.1875 11.5515 45.1875 12.8438V38.2533C44.4837 37.8925 43.6875 37.6876 42.8438 37.6876H39.0938H5.15625ZM42.8438 45.1876H40.5V40.5001H42.8438C44.1361 40.5001 45.1875 41.5515 45.1875 42.8438C45.1875 44.1361 44.1361 45.1876 42.8438 45.1876Z" />
	</symbol>

	<symbol id="icon-job3">
		<!-- width="48" height="48" viewBox="0 0 48 48" -->
		<path d="M46.5938 0.093689H29.625C27.3274 0.093689 25.2838 1.20163 24 2.91106C22.7162 1.20163 20.6726 0.093689 18.375 0.093689H1.40625C0.629625 0.093689 0 0.723314 0 1.49994V40.8749C0 41.6516 0.629625 42.2812 1.40625 42.2812H17.11C17.7635 45.4865 20.6045 47.9062 24 47.9062C27.3955 47.9062 30.2365 45.4865 30.89 42.2812H33.8438V46.4999C33.8438 47.0687 34.1863 47.5814 34.7119 47.7991C35.2373 48.0168 35.8422 47.8965 36.2444 47.4943L38.0625 45.6762L39.8807 47.4943C40.1497 47.7634 40.5094 47.9063 40.8753 47.9063C41.0565 47.9063 41.2392 47.8713 41.4131 47.7992C41.9386 47.5815 42.2812 47.0688 42.2812 46.5V42.2813H46.5938C47.3704 42.2813 48 41.6517 48 40.875V1.50003C48 0.723314 47.3704 0.093689 46.5938 0.093689ZM29.625 2.90619H45.1875V28.2187H29.625C28.0435 28.2187 26.5822 28.7437 25.4062 29.6282V7.12494C25.4062 4.79872 27.2988 2.90619 29.625 2.90619ZM29.625 33.8437C28.0433 33.8437 26.5823 34.369 25.4062 35.2538V35.2499C25.4062 32.9237 27.2988 31.0312 29.625 31.0312H45.1875V33.8437H29.625ZM2.8125 31.0312H18.375C20.7012 31.0312 22.5938 32.9237 22.5938 35.2499V35.2538C21.4177 34.369 19.9567 33.8437 18.375 33.8437H2.8125V31.0312ZM2.8125 2.90619H18.375C20.7012 2.90619 22.5938 4.79872 22.5938 7.12494V29.6282C21.4178 28.7436 19.9565 28.2187 18.375 28.2187H2.8125V2.90619ZM29.625 39.4687C28.8484 39.4687 28.2188 40.0983 28.2188 40.8749C28.2188 43.2012 26.3262 45.0937 24 45.0937C21.6738 45.0937 19.7812 43.2012 19.7812 40.8749C19.7812 40.0983 19.1516 39.4687 18.375 39.4687H2.8125V36.6562H18.375C20.7012 36.6562 22.5938 38.5487 22.5938 40.8749C22.5938 41.6516 23.2234 42.2812 24 42.2812C24.7766 42.2812 25.4062 41.6516 25.4062 40.8749C25.4062 38.5487 27.2988 36.6562 29.625 36.6562H33.8438V39.4687H29.625ZM39.0568 42.6931C38.5077 42.144 37.6173 42.144 37.0681 42.6931L36.6562 43.1051V36.6563H39.4688V43.1051L39.0568 42.6931ZM42.2812 39.4687V36.6562H45.1875V39.4687H42.2812Z" />
		<path d="M7.03125 8.53119H18.375C19.1516 8.53119 19.7812 7.90156 19.7812 7.12494C19.7812 6.34831 19.1516 5.71869 18.375 5.71869H7.03125C6.25462 5.71869 5.625 6.34831 5.625 7.12494C5.625 7.90156 6.25462 8.53119 7.03125 8.53119Z" />
		<path d="M7.03125 14.1562H18.375C19.1516 14.1562 19.7812 13.5266 19.7812 12.7499C19.7812 11.9733 19.1516 11.3437 18.375 11.3437H7.03125C6.25462 11.3437 5.625 11.9733 5.625 12.7499C5.625 13.5266 6.25462 14.1562 7.03125 14.1562Z"/>
		<path d="M7.03125 19.7812H18.375C19.1516 19.7812 19.7812 19.1516 19.7812 18.3749C19.7812 17.5983 19.1516 16.9687 18.375 16.9687H7.03125C6.25462 16.9687 5.625 17.5983 5.625 18.3749C5.625 19.1516 6.25462 19.7812 7.03125 19.7812Z"/>
		<path d="M19.7812 23.9999C19.7812 23.2233 19.1516 22.5937 18.375 22.5937H7.03125C6.25462 22.5937 5.625 23.2233 5.625 23.9999C5.625 24.7766 6.25462 25.4062 7.03125 25.4062H18.375C19.1516 25.4062 19.7812 24.7767 19.7812 23.9999Z" />
		<path d="M29.625 8.53119H40.9688C41.7454 8.53119 42.375 7.90156 42.375 7.12494C42.375 6.34831 41.7454 5.71869 40.9688 5.71869H29.625C28.8484 5.71869 28.2188 6.34831 28.2188 7.12494C28.2188 7.90156 28.8484 8.53119 29.625 8.53119Z" />
		<path d="M29.625 14.1562H40.9688C41.7454 14.1562 42.375 13.5266 42.375 12.7499C42.375 11.9733 41.7454 11.3437 40.9688 11.3437H29.625C28.8484 11.3437 28.2188 11.9733 28.2188 12.7499C28.2188 13.5266 28.8484 14.1562 29.625 14.1562Z" />
		<path d="M29.625 19.7812H40.9688C41.7454 19.7812 42.375 19.1516 42.375 18.3749C42.375 17.5983 41.7454 16.9687 40.9688 16.9687H29.625C28.8484 16.9687 28.2188 17.5983 28.2188 18.3749C28.2188 19.1516 28.8484 19.7812 29.625 19.7812Z" />
		<path d="M29.625 25.4062H40.9688C41.7454 25.4062 42.375 24.7766 42.375 23.9999C42.375 23.2233 41.7454 22.5937 40.9688 22.5937H29.625C28.8484 22.5937 28.2188 23.2233 28.2188 23.9999C28.2188 24.7766 28.8484 25.4062 29.625 25.4062Z" />
	</symbol>

	<symbol id="icon-job4">
		<!-- width="51" height="51" viewBox="0 0 51 51" -->
		<path d="M46.9162 32.8718C46.9162 30.4666 45.2024 28.4542 42.9317 27.9914V22.6118C42.9317 22.1217 42.6915 21.6629 42.2886 21.3837C41.8858 21.1045 41.3716 21.0405 40.9129 21.2128L38.0611 22.2822C36.1884 20.3353 33.9121 18.8689 31.4176 17.9687C33.8689 16.1524 35.4609 13.2394 35.4609 9.96115C35.4609 4.46847 30.9924 0 25.4997 0C20.007 0 15.5386 4.46847 15.5386 9.96115C15.5386 13.2394 17.1306 16.1524 19.5818 17.9687C17.0872 18.869 14.811 20.3354 12.9383 22.2822L10.0865 21.2128C9.62773 21.0405 9.11353 21.1045 8.7108 21.3837C8.30797 21.6629 8.06771 22.1217 8.06771 22.6118V27.9914C5.79707 28.4542 4.08325 30.4665 4.08325 32.8718C4.08325 35.2771 5.79707 37.2894 8.06771 37.7522V43.5302C8.06771 44.1531 8.4541 44.7106 9.03723 44.9293L24.9751 50.906C25.3112 51.0313 25.6882 51.0313 26.0243 50.906L41.9621 44.9293C42.5452 44.7106 42.9316 44.1531 42.9316 43.5302V37.7522C45.2024 37.2894 46.9162 35.277 46.9162 32.8718ZM18.5269 9.96115C18.5269 6.11635 21.6549 2.98835 25.4997 2.98835C29.3445 2.98835 32.4725 6.11635 32.4725 9.96115C32.4725 13.806 29.3445 16.934 25.4997 16.934C21.6549 16.934 18.5269 13.806 18.5269 9.96115ZM25.4997 19.9223C29.0004 19.9223 32.3439 21.1875 34.9528 23.4479L25.4997 26.9927L16.0467 23.4479C18.6556 21.1875 21.9992 19.9223 25.4997 19.9223ZM7.0716 32.8718C7.0716 31.7733 7.96531 30.8796 9.06383 30.8796H10.0599V34.864H9.06383C7.96531 34.864 7.0716 33.9703 7.0716 32.8718ZM11.0561 37.8023C12.1913 37.5709 13.0483 36.5647 13.0483 35.3621V30.3815C13.0483 29.1789 12.1913 28.1727 11.0561 27.9413V24.7679L24.0056 29.624V47.3509L11.0561 42.4949V37.8023ZM26.9939 47.3508V29.624L39.9434 24.7679V27.9413C38.8081 28.1727 37.9512 29.1789 37.9512 30.3815V35.3621C37.9512 36.5647 38.8081 37.5709 39.9434 37.8023V42.4948L26.9939 47.3508ZM41.9356 34.864H40.9395V30.8796H41.9356C43.0341 30.8796 43.9279 31.7733 43.9279 32.8718C43.9279 33.9703 43.0342 34.864 41.9356 34.864Z" />
	</symbol>

	<symbol id="icon-vk">
		<!-- width="15" height="9" viewBox="0 0 15 9" -->
		<path d="M12.4473 5.16086C12.2048 4.84586 12.2742 4.70571 12.4473 4.42414C12.4504 4.42093 14.4524 1.57564 14.6586 0.610714L14.6599 0.610071C14.7624 0.258428 14.6599 0 14.1642 0H12.5242C12.1067 0 11.9142 0.221786 11.811 0.469929C11.811 0.469929 10.976 2.52579 9.79471 3.85843C9.41345 4.2435 9.2372 4.36693 9.02906 4.36693C8.92656 4.36693 8.76718 4.2435 8.76718 3.89186V0.610071C8.76718 0.188357 8.6503 0 8.30466 0H5.72582C5.46394 0 5.30831 0.196714 5.30831 0.379929C5.30831 0.779786 5.89895 0.871714 5.96021 1.99671V4.43764C5.96021 4.9725 5.86583 5.07086 5.65645 5.07086C5.09893 5.07086 3.74575 3.00664 2.94385 0.644143C2.78197 0.185786 2.62384 0.000642811 2.2032 0.000642811H0.562519C0.0943782 0.000642811 0 0.222428 0 0.470571C0 0.909 0.557519 3.08893 2.59259 5.96893C3.94889 7.93479 5.85895 9 7.59651 9C8.64092 9 8.76843 8.76343 8.76843 8.3565C8.76843 6.47807 8.67405 6.30064 9.19719 6.30064C9.4397 6.30064 9.85722 6.42407 10.8322 7.37229C11.9467 8.49664 12.1298 9 12.7536 9H14.3936C14.8611 9 15.098 8.76343 14.9618 8.29671C14.6499 7.31507 12.5423 5.29586 12.4473 5.16086Z" />
	</symbol>

	<symbol id="icon-more">
		<!-- width="41" height="8" viewBox="0 0 41 8" -->
		<path d="M40.3536 4.35356C40.5488 4.15829 40.5488 3.84171 40.3536 3.64645L37.1716 0.464469C36.9763 0.269207 36.6597 0.269207 36.4645 0.464469C36.2692 0.659731 36.2692 0.976314 36.4645 1.17158L39.2929 4L36.4645 6.82843C36.2692 7.02369 36.2692 7.34027 36.4645 7.53554C36.6597 7.7308 36.9763 7.7308 37.1716 7.53554L40.3536 4.35356ZM-4.37114e-08 4.5L40 4.5L40 3.5L4.37114e-08 3.5L-4.37114e-08 4.5Z"/>
	</symbol>

	<symbol id="icon-facebook">
		<!-- width="13" height="13" viewBox="0 0 13 13" -->
		<path d="M11.0957 0H1.9043C0.854355 0 0 0.854355 0 1.9043V11.0957C0 12.1456 0.854355 13 1.9043 13H5.73828V8.4043H4.21484V6.11914H5.73828V4.57031C5.73828 3.3102 6.76333 2.28516 8.02344 2.28516H10.334V4.57031H8.02344V6.11914H10.334L9.95312 8.4043H8.02344V13H11.0957C12.1456 13 13 12.1456 13 11.0957V1.9043C13 0.854355 12.1456 0 11.0957 0Z" />
	</symbol>

	<symbol id="icon-inst">
		<!-- width="13" height="14" viewBox="0 0 13 14" -->
		<path d="M12.967 3.82278C12.9365 3.1319 12.8248 2.65693 12.6647 2.24537C12.4996 1.8085 12.2456 1.41737 11.9128 1.09222C11.5877 0.762016 11.194 0.505431 10.7622 0.342907C10.3482 0.182864 9.87574 0.0711413 9.18486 0.0406805C8.48883 0.00763999 8.26787 0 6.50253 0C4.7372 0 4.51623 0.00763999 3.82278 0.0381008C3.1319 0.0685616 2.65693 0.180383 2.24546 0.340327C1.8085 0.505431 1.41737 0.759436 1.09222 1.09222C0.762015 1.41737 0.50553 1.81108 0.342907 2.24289C0.182864 2.65693 0.0711413 3.12932 0.0406805 3.8202C0.00763999 4.51623 0 4.7372 0 6.50253C0 8.26787 0.00763999 8.48884 0.0381008 9.18229C0.0685615 9.87316 0.180383 10.3481 0.340426 10.7597C0.50553 11.1966 0.762015 11.5877 1.09222 11.9128C1.41737 12.2431 1.81108 12.4996 2.24288 12.6622C2.65693 12.8222 3.12932 12.9339 3.8203 12.9644C4.51365 12.9949 4.73471 13.0025 6.50005 13.0025C8.26538 13.0025 8.48635 12.9949 9.1798 12.9644C9.87068 12.9339 10.3456 12.8222 10.7571 12.6622C11.631 12.3243 12.3218 11.6334 12.6597 10.7597C12.8196 10.3457 12.9314 9.87316 12.9619 9.18229C12.9924 8.48884 13 8.26787 13 6.50253C13 4.7372 12.9974 4.51623 12.967 3.82278ZM11.7961 9.13149C11.7681 9.7665 11.6614 10.1094 11.5725 10.338C11.354 10.9045 10.9045 11.354 10.338 11.5725C10.1094 11.6614 9.76402 11.7681 9.13148 11.796C8.44567 11.8265 8.23998 11.8341 6.50511 11.8341C4.77024 11.8341 4.56197 11.8265 3.87864 11.796C3.24363 11.7681 2.90072 11.6614 2.67211 11.5725C2.39023 11.4683 2.13364 11.3032 1.92538 11.0873C1.70947 10.8765 1.54437 10.6225 1.44019 10.3406C1.35129 10.112 1.24462 9.7665 1.21674 9.13407C1.18618 8.44825 1.17864 8.24247 1.17864 6.50759C1.17864 4.77272 1.18618 4.56445 1.21674 3.88122C1.24462 3.24621 1.35129 2.9033 1.44019 2.6747C1.54437 2.39271 1.70947 2.13622 1.92796 1.92786C2.1387 1.71196 2.39271 1.54685 2.67469 1.44277C2.9033 1.35387 3.24878 1.24721 3.88122 1.21923C4.56703 1.18876 4.77282 1.18112 6.50759 1.18112C8.24504 1.18112 8.45073 1.18876 9.13406 1.21923C9.76908 1.24721 10.112 1.35387 10.3406 1.44277C10.6225 1.54685 10.8791 1.71196 11.0873 1.92786C11.3032 2.1387 11.4683 2.39271 11.5725 2.6747C11.6614 2.9033 11.7681 3.24869 11.7961 3.88122C11.8265 4.56703 11.8342 4.77272 11.8342 6.50759C11.8342 8.24247 11.8265 8.44567 11.7961 9.13149Z" />
		<path d="M6.5013 3.1626C4.65728 3.1626 3.16113 4.65865 3.16113 6.50277C3.16113 8.34688 4.65728 9.84293 6.5013 9.84293C8.34542 9.84293 9.84147 8.34688 9.84147 6.50277C9.84147 4.65865 8.34542 3.1626 6.5013 3.1626ZM6.5013 8.66945C5.305 8.66945 4.33462 7.69917 4.33462 6.50277C4.33462 5.30636 5.305 4.33608 6.5013 4.33608C7.69771 4.33608 8.66799 5.30636 8.66799 6.50277C8.66799 7.69917 7.69771 8.66945 6.5013 8.66945Z" />
		<path d="M10.7535 3.03027C10.7535 3.46088 10.4043 3.81004 9.97363 3.81004C9.54301 3.81004 9.19385 3.46088 9.19385 3.03027C9.19385 2.59955 9.54301 2.25049 9.97363 2.25049C10.4043 2.25049 10.7535 2.59955 10.7535 3.03027Z" />
	</symbol>

	<symbol id="icon-twitter">
		<!-- width="16" height="13" viewBox="0 0 16 13" -->
		<path d="M15.3846 1.47981C14.8125 1.73077 14.2029 1.89712 13.5673 1.97788C14.2212 1.5875 14.7202 0.974038 14.9548 0.234615C14.3452 0.598077 13.6721 0.854808 12.9548 0.998077C12.376 0.381731 11.551 0 10.651 0C8.90481 0 7.49904 1.41731 7.49904 3.15481C7.49904 3.40481 7.52019 3.64519 7.57211 3.87404C4.95 3.74615 2.62981 2.48942 1.07115 0.575C0.799038 1.04712 0.639423 1.5875 0.639423 2.16923C0.639423 3.26154 1.20192 4.22981 2.04038 4.79038C1.53365 4.78077 1.03654 4.63365 0.615385 4.40192C0.615385 4.41154 0.615385 4.42404 0.615385 4.43654C0.615385 5.96923 1.70865 7.24231 3.14231 7.53558C2.88558 7.60577 2.60577 7.63942 2.31538 7.63942C2.11346 7.63942 1.90962 7.62788 1.71827 7.58558C2.12692 8.83461 3.28654 9.75288 4.66538 9.78269C3.59231 10.6221 2.22981 11.1279 0.754808 11.1279C0.496154 11.1279 0.248077 11.1163 0 11.0846C1.39712 11.9856 3.05288 12.5 4.83846 12.5C10.6423 12.5 13.8154 7.69231 13.8154 3.525C13.8154 3.38558 13.8106 3.25096 13.8038 3.11731C14.4298 2.67308 14.9558 2.11827 15.3846 1.47981Z" />
	</symbol>

	<symbol id="icon-youtube">
		<!-- width="15" height="11" viewBox="0 0 15 11" -->
		<path d="M14.6909 1.72124C14.5181 1.04818 14.0114 0.517618 13.3689 0.336384C12.1951 0 7.49983 0 7.49983 0C7.49983 0 2.80472 0 1.63092 0.323631C1.00076 0.504672 0.481751 1.04828 0.3089 1.72124C0 2.95056 0 5.5 0 5.5C0 5.5 0 8.06229 0.3089 9.27876C0.481935 9.95172 0.988405 10.4823 1.63102 10.6635C2.81708 11 7.50001 11 7.50001 11C7.50001 11 12.1951 11 13.3689 10.6764C14.0115 10.4952 14.5181 9.96467 14.6911 9.29171C14.9999 8.06229 14.9999 5.51295 14.9999 5.51295C14.9999 5.51295 15.0123 2.95056 14.6909 1.72124ZM6.00496 7.85527V3.14473L9.90932 5.5L6.00496 7.85527Z" />
	</symbol>

	<symbol id="icon-close">
		<!-- width="23" height="23" viewBox="0 0 23 23"	 -->
		<path d="M1 1L22 22" stroke="white" stroke-width="2"/>
		<path d="M22 1L1 22" stroke="white" stroke-width="2"/>
	</symbol>

	<symbol id="icon-awards">
		<!-- width="16" height="14" viewBox="0 0 16 14" -->
		<path d="M1 8.05714H14L10.9667 4.71429L14 1H1V14"/>
	</symbol>
	
	<symbol id="icon-load">
		<!-- width="12" height="14" viewBox="0 0 12 14" -->
		<path d="M1 12.5V1H6L10.5 5.5V12.5H1Z" stroke-width="1.2"/>
		<path d="M6 1V5.5H10.5" stroke-width="1.2"/>
	</symbol>

</svg>