<svg width="23" height="20" viewBox="0 0 23 20" fill="none" xmlns="http://www.w3.org/2000/svg">
<path d="M8.045 2C9.64717 2 11.1837 2.63646 12.3166 3.76937C13.4495 4.90227 14.086 6.43883 14.086 8.041C14.086 9.64317 13.4495 11.1797 12.3166 12.3126C11.1837 13.4455 9.64717 14.082 8.045 14.082C7.25147 14.0824 6.46563 13.9265 5.73237 13.6231C4.9991 13.3198 4.33277 12.875 3.77143 12.3141C3.21009 11.7532 2.76473 11.0873 2.46078 10.3543C2.15684 9.62124 2.00026 8.83553 2 8.042C2.00053 6.4392 2.63768 4.90225 3.77131 3.76918C4.90494 2.63612 6.4422 1.99973 8.045 2V2Z" stroke="#445BA2" stroke-width="3" stroke-miterlimit="20"/>
<path d="M20.7461 18.235L14.1421 12.138" stroke="#445BA2"  stroke-width="3" stroke-miterlimit="20" stroke-linecap="round"/>
</svg>
