<svg class="sprite-icons" xmlns="http://www.w3.org/2000/svg">

    <symbol id="icon-search" fill="none" viewBox="0 0 23 20">
        <title>Search</title>
        <path d="M8.045 2C9.64717 2 11.1837 2.63646 12.3166 3.76937C13.4495 4.90227 14.086 6.43883 14.086 8.041C14.086 9.64317 13.4495 11.1797 12.3166 12.3126C11.1837 13.4455 9.64717 14.082 8.045 14.082C7.25147 14.0824 6.46563 13.9265 5.73237 13.6231C4.9991 13.3198 4.33277 12.875 3.77143 12.3141C3.21009 11.7532 2.76473 11.0873 2.46078 10.3543C2.15684 9.62124 2.00026 8.83553 2 8.042C2.00053 6.4392 2.63768 4.90225 3.77131 3.76918C4.90494 2.63612 6.4422 1.99973 8.045 2V2Z" stroke-width="3" stroke-miterlimit="20"/>
        <path d="M20.7461 18.235L14.1421 12.138" stroke-width="3" stroke-miterlimit="20" stroke-linecap="round"/>
    </symbol>

    <symbol id="icon-burger" viewBox="0 0 17 15">
        <title>Burger</title>
        <!-- width="17" height="15" -->
        <rect x="0.8" y="0.8" width="15.3999" height="1.55908" rx="0.779542" fill="#222222" stroke="#222222" stroke-width="0.4"/>
        <rect x="0.8" y="6.72041" width="15.3999" height="1.55908" rx="0.779542" fill="#222222" stroke="#222222" stroke-width="0.4"/>
        <rect x="0.8" y="12.6408" width="15.3999" height="1.55908" rx="0.779542" fill="#222222" stroke="#222222" stroke-width="0.4"/>
    </symbol>

    <symbol id="arrow-link" viewBox="0 0 37 22" fill="none">
        <title>Arrow Link</title>
        <!-- width="37" height="24" -->
        <path d="M9.56587e-07 11L35 11" stroke-width="2"/>
        <path d="M26 1L35 11.0006L26 21" stroke-width="2"/>
    </symbol>

    <symbol id="arrow-bottom" viewBox="0 0 42 59">
        <title>Arrow Bottom</title>
        <!-- width="42" height="59" -->
        <path d="M41.3683 39.7539C42.2106 38.9221 42.2106 37.6127 41.3683 36.7809C40.5545 35.9773 39.2001 35.9773 38.3882 36.7809L23.1236 51.8556L23.1236 2.11124C23.1236 0.951647 22.1903 -2.10055e-06 21.0161 -2.11455e-06C19.8419 -2.12855e-06 18.8783 0.951646 18.8783 2.11124L18.8783 51.8556L3.64211 36.7809C2.79987 35.9773 1.44357 35.9773 0.631678 36.7809C-0.21056 37.6127 -0.21056 38.9221 0.631678 39.7539L19.51 58.3973C20.3237 59.2009 21.6782 59.2009 22.49 58.3973L41.3683 39.7539Z"/>
    </symbol>

    <symbol id="icon-star" viewBox="0 0 16 15">
        <title>Star</title>
        <path d="M15.4829 5.27849L10.6864 4.59458L8.54222 0.329912C8.48365 0.213148 8.38731 0.118624 8.26829 0.061169C7.96981 -0.0833961 7.6071 0.0370749 7.45786 0.329912L5.3137 4.59458L0.517213 5.27849C0.384974 5.29702 0.26407 5.35818 0.171503 5.45085C0.0595945 5.5637 -0.0020722 5.71552 5.31712e-05 5.87295C0.00217854 6.03038 0.0679221 6.18055 0.182838 6.29044L3.65316 9.60988L2.83328 14.2971C2.81405 14.4062 2.82635 14.5183 2.86878 14.6208C2.91121 14.7234 2.98207 14.8122 3.07333 14.8772C3.16459 14.9422 3.27259 14.9809 3.38509 14.9887C3.4976 14.9966 3.6101 14.9734 3.70983 14.9217L8.00004 12.7088L12.2902 14.9217C12.4074 14.9829 12.5434 15.0033 12.6737 14.981C13.0024 14.9254 13.2235 14.6196 13.1668 14.2971L12.3469 9.60988L15.8172 6.29044C15.9117 6.19963 15.974 6.08101 15.9929 5.95127C16.0439 5.62693 15.8135 5.32668 15.4829 5.27849Z"/>
    </symbol>

    <symbol id="arrow-navigate" viewBox="0 0 25 48" fill="none">
        <title>Arrow Navigate</title>
        <!-- width="25" height="48" -->
            <path d="M23.7192 3.80295e-07C23.5508 -0.000130489 23.3839 0.0335168 23.2284 0.0988715C23.0728 0.164226 22.9317 0.260049 22.8129 0.380851L0.375778 23.0837C0.256692 23.204 0.1623 23.347 0.0977784 23.5042C0.033257 23.6616 6.90968e-07 23.8302 6.90968e-07 24.0004C6.90968e-07 24.1707 0.033257 24.3393 0.0977784 24.4967C0.1623 24.654 0.256692 24.7967 0.375778 24.9172L22.8129 47.62C22.9318 47.7405 23.0731 47.836 23.2286 47.9013C23.3841 47.9666 23.5508 48 23.7192 48C23.8875 48 24.054 47.9666 24.2095 47.9013C24.3649 47.836 24.5062 47.7405 24.6252 47.62C24.8652 47.3766 25 47.047 25 46.7033C25 46.3595 24.8652 46.0297 24.6252 45.7865L3.09404 24.0025L24.6252 2.21832C24.8652 1.97506 25 1.64544 25 1.30168C25 0.957923 24.8652 0.628182 24.6252 0.384909C24.5067 0.263468 24.3657 0.166885 24.2102 0.100839C24.0547 0.0347928 23.8878 0.00050769 23.7192 3.80295e-07Z"/>

    </symbol>

    <symbol id="arrow-pagination" viewBox="0 0 13 24" >
        <title>Close</title>
        <!-- width="13" height="24" -->
        <path d="M0.666041 1.90148e-07C0.753603 -6.52447e-05 0.840393 0.0167584 0.921257 0.0494357C1.00212 0.0821131 1.07554 0.130025 1.13729 0.190425L12.8046 11.5419C12.8665 11.602 12.9156 11.6735 12.9492 11.7521C12.9827 11.8308 13 11.9151 13 12.0002C13 12.0853 12.9827 12.1697 12.9492 12.2483C12.9156 12.327 12.8665 12.3983 12.8046 12.4586L1.13729 23.81C1.07545 23.8702 1.00198 23.918 0.921131 23.9506C0.840284 23.9833 0.753563 24 0.666041 24C0.578519 24 0.491924 23.9833 0.411077 23.9506C0.33023 23.918 0.256762 23.8702 0.19492 23.81C0.0700942 23.6883 0 23.5235 0 23.3516C0 23.1798 0.0700942 23.0149 0.19492 22.8933L11.3911 12.0012L0.19492 1.10916C0.0700942 0.987528 0 0.822718 0 0.65084C0 0.478962 0.0700942 0.314091 0.19492 0.192454C0.256528 0.131734 0.329833 0.0834426 0.410698 0.0504196C0.491561 0.0173964 0.578341 0.000253845 0.666041 1.90148e-07Z"/>
    </symbol>

    <symbol id="arrow-down" viewBox="0 0 35 20">
        <title>Arrow Down</title>
        <!-- width="35" height="20" -->
        <path d="M18.7492 19.4691L34.4833 3.13419C35.1722 2.41743 35.1722 1.25615 34.4833 0.537576C33.7944 -0.179189 32.6755 -0.179189 31.9866 0.537576L17.5009 15.5768L3.01513 0.539387C2.32624 -0.177378 1.2073 -0.177378 0.516668 0.539387C-0.172222 1.25615 -0.172222 2.41923 0.516668 3.136L16.2507 19.4709C16.9325 20.1767 18.069 20.1767 18.7492 19.4691Z"/>
    </symbol>

    <symbol id="close" viewBox="0 0 18 17" fill="none">
        <title>Close</title>
        <!-- width="18" height="17" -->
        <path d="M1.34424 1L16.9998 16.6365" stroke-linejoin="bevel"/>
        <path d="M1 16.6365L16.6556 1" stroke-linejoin="bevel"/>
    </symbol>

    <symbol id="close-bold" viewBox="0 0 11 11">
        <title>Close Bold</title>
        <!-- width="11" height="11" -->
        <path d="M0.292897 0.292897C-0.0976325 0.683417 -0.0976325 1.31659 0.292897 1.70711L3.82848 5.24262L0.292908 8.77822C-0.0976225 9.16872 -0.0976225 9.80192 0.292908 10.1924C0.683428 10.5829 1.3166 10.5829 1.70712 10.1924L5.24268 6.65682L8.77818 10.1924C9.16868 10.5829 9.80188 10.5829 10.1924 10.1924C10.5829 9.80182 10.5829 9.16872 10.1924 8.77822L6.65688 5.24262L10.1924 1.70711C10.5829 1.31659 10.5829 0.683417 10.1924 0.292897C9.80188 -0.0976225 9.16868 -0.0976225 8.77818 0.292897L5.24268 3.82842L1.70711 0.292897C1.31659 -0.0976325 0.683417 -0.0976325 0.292897 0.292897Z" />
    </symbol>

</svg>