<svg width="15" height="20" viewBox="0 0 15 20" fill="none" xmlns="http://www.w3.org/2000/svg">
<path d="M7.44409 0C6.18445 0.00132357 4.97676 0.502307 4.08606 1.39301C3.19536 2.2837 2.69438 3.49137 2.69305 4.75101V7.57599H2.17108C1.5944 7.57652 1.04144 7.80585 0.633667 8.21362C0.22589 8.6214 -0.0033767 9.17432 -0.00390625 9.75101V17.176C-0.0033767 17.7527 0.22589 18.3056 0.633667 18.7134C1.04144 19.1212 1.5944 19.3505 2.17108 19.351H12.5911C13.1678 19.3505 13.7208 19.1212 14.1288 18.7134C14.5367 18.3057 14.7663 17.7528 14.7671 17.176V9.75101C14.7663 9.17423 14.5367 8.62131 14.1288 8.21356C13.7208 7.80581 13.1678 7.57652 12.5911 7.57599H12.191V4.75101C12.1897 3.49206 11.6893 2.28499 10.7995 1.39441C9.90967 0.503825 8.70304 0.00238167 7.44409 0V0ZM3.40704 4.75101C3.40704 3.68033 3.83239 2.65348 4.58948 1.89639C5.34656 1.13931 6.37341 0.713989 7.44409 0.713989C8.51477 0.713989 9.54156 1.13931 10.2986 1.89639C11.0557 2.65348 11.4811 3.68033 11.4811 4.75101V7.57599H3.40704V4.75101ZM12.5951 8.29099C12.9823 8.29125 13.3536 8.44512 13.6275 8.71884C13.9014 8.99256 14.0556 9.36378 14.0561 9.75101V17.176C14.0556 17.5632 13.9014 17.9344 13.6275 18.2081C13.3536 18.4818 12.9823 18.6357 12.5951 18.636H2.17108C1.78394 18.6355 1.41276 18.4815 1.13892 18.2079C0.865069 17.9342 0.710877 17.5631 0.710083 17.176V9.75101C0.710877 9.36386 0.865069 8.99281 1.13892 8.71915C1.41276 8.44549 1.78394 8.29151 2.17108 8.29099H12.5951Z" fill="#00B6E9"/>
</svg>
