<svg width="14" height="19" viewBox="0 0 14 19" fill="none" xmlns="http://www.w3.org/2000/svg">
<g clip-path="url(#clip0)">
<path d="M6.97003 9.07324C2.47003 9.07324 0 10.9793 0 14.4413V18.0193H13.94V14.4423C13.94 10.9793 11.465 9.07324 6.97003 9.07324ZM13.189 17.2733H11.411V13.7433H10.66V17.2733H3.28003V13.7433H2.52802V17.2733H0.752014V14.4463C0.752014 10.6303 4.13303 9.82925 6.97003 9.82925C9.80703 9.82925 13.189 10.6293 13.189 14.4463V17.2733Z" fill="#00B6E9"/>
<path d="M6.96991 8.64001C9.09891 8.64001 10.6429 6.82301 10.6429 4.32001C10.6429 1.81701 9.09891 0 6.96991 0C4.80691 0 3.29688 1.77601 3.29688 4.32001C3.29688 6.86401 4.80691 8.64001 6.96991 8.64001ZM6.96991 0.751007C8.69091 0.751007 9.89087 2.21901 9.89087 4.32001C9.89087 6.42101 8.69091 7.88901 6.96991 7.88901C5.24891 7.88901 4.04785 6.42201 4.04785 4.32001C4.04785 2.21801 5.24991 0.751007 6.96991 0.751007Z" fill="#00B6E9"/>
</g>
<defs>
<clipPath id="clip0">
<rect width="13.94" height="18.019" fill="white"/>
</clipPath>
</defs>
</svg>
