<svg xmlns="http://www.w3.org/2000/svg" width="63.339" height="47.339" viewBox="0 0 63.339 47.339">
  <g id="Сгруппировать_13982" data-name="Сгруппировать 13982" transform="translate(1.486 1)">
    <path id="Контур_31433" data-name="Контур 31433" d="M339.146,148.564s-4.241.324-9.8.809-12.127,1.131-12.127,1.131A57.1,57.1,0,0,1,321.2,116l26.83,9.858s-4.755,6.684-8.883,22.705" transform="translate(-287.175 -116)" fill="none" stroke="#00b6e9" stroke-linecap="round" stroke-linejoin="round" stroke-width="2"/>
    <g id="Контур_27297" data-name="Контур 27297" transform="matrix(0.951, 0.309, -0.309, 0.951, 44.039, 7.84)" fill="#fff" stroke-linecap="round" stroke-linejoin="round">
      <path d="M 5.844718933105469 6.860946178436279 L 4.817608833312988 6.248046398162842 L 3.131729602813721 5.242040634155273 L 1.447928905487061 6.21510648727417 L 0.4254089295864105 6.806016445159912 L 0.7127789258956909 5.660526275634766 L 1.15335738658905 3.90433669090271 L -0.3222410678863525 2.660576343536377 L -1.2899010181427 1.844946384429932 L -0.02608106844127178 1.778946280479431 L 1.913826107978821 1.677640199661255 L 2.672638893127441 -0.1883536726236343 L 3.135808944702148 -1.327333688735962 L 3.598978996276855 -0.1883536726236343 L 4.357782363891602 1.677629470825195 L 6.297668933868408 1.778926372528076 L 7.56606912612915 1.845156311988831 L 6.592898845672607 2.661346435546875 L 5.11712646484375 3.899065256118774 L 5.559379100799561 5.699396133422852 L 5.844718933105469 6.860946178436279 Z" stroke="none"/>
      <path d="M 3.135808944702148 -3.814697265625e-06 L 2.257278919219971 2.160376310348511 L -9.5367431640625e-07 2.278266429901123 L 1.714288711547852 3.72321629524231 L 1.197749137878418 5.782196521759033 L 3.135788917541504 4.662206172943115 L 5.073819160461426 5.818676471710205 L 4.55729866027832 3.716016292572021 L 6.271598815917969 2.278246402740479 L 4.014328956604004 2.160376310348511 L 3.135808944702148 -3.814697265625e-06 M 3.135808944702148 -1.000003814697266 C 3.54262900352478 -1.000003814697266 3.908898830413818 -0.7535538673400879 4.062149047851563 -0.3767037391662598 L 4.701235294342041 1.194881916046143 L 6.32374906539917 1.279606342315674 C 6.734088897705078 1.301036357879639 7.089559078216553 1.571296215057373 7.219928741455078 1.960966348648071 C 7.350298881530762 2.35063624382019 7.229039192199707 2.780396223068237 6.914198875427246 3.044446229934692 L 5.676961898803711 4.082107543945313 L 6.044949054718018 5.580116271972656 C 6.141149044036865 5.971756458282471 5.992699146270752 6.382846355438232 5.668468952178955 6.622656345367432 C 5.492526531219482 6.752792358398438 5.283454895019531 6.818676948547363 5.073725700378418 6.818676948547363 C 4.896973609924316 6.818676948547363 4.71976900100708 6.771914958953857 4.561388969421387 6.677406311035156 L 3.127673625946045 5.821873188018799 L 1.698109149932861 6.648016452789307 C 1.542704105377197 6.737825393676758 1.369958400726318 6.782199859619141 1.197867393493652 6.782199859619141 C 0.9848804473876953 6.782199859619141 0.7728595733642578 6.714294910430908 0.5955190658569336 6.580516338348389 C 0.2748889923095703 6.338646411895752 0.1300787925720215 5.92841625213623 0.227808952331543 5.538866519927979 L 0.5924277305603027 4.085458755493164 L -0.6444811820983887 3.042886257171631 C -0.9583210945129395 2.778356313705444 -1.078650951385498 2.348906278610229 -0.9479413032531738 1.959826231002808 C -0.8172411918640137 1.570736408233643 -0.4620509147644043 1.301036357879639 -0.05216121673583984 1.279626369476318 L 1.570373058319092 1.194886684417725 L 2.209468841552734 -0.3767037391662598 C 2.362718820571899 -0.7535538673400879 2.728988885879517 -1.000003814697266 3.135808944702148 -1.000003814697266 Z" stroke="none" fill="#00b6e9"/>
    </g>
    <g id="Сгруппировать_13981" data-name="Сгруппировать 13981" transform="translate(31.51 13.084)">
      <path id="Контур_33770" data-name="Контур 33770" d="M0,0,20.64.016V.5H.239Z" transform="matrix(0.94, 0.342, -0.342, 0.94, 2.162, 0)" fill="#00b6e9"/>
      <path id="Контур_33769" data-name="Контур 33769" d="M0,0,20.271.017l.019.42L.284.463Z" transform="matrix(0.94, 0.342, -0.342, 0.94, 1.616, 3.19)" fill="#00b6e9"/>
      <path id="Контур_33772" data-name="Контур 33772" d="M0,0,18.722.009l.018.232L.262.256Z" transform="matrix(0.94, 0.342, -0.342, 0.94, 0.088, 11.594)" fill="#00b6e9"/>
      <path id="Контур_33771" data-name="Контур 33771" d="M0,0,18.986.02,19.1.529.266.548Z" transform="matrix(0.94, 0.342, -0.342, 0.94, 0.852, 7.01)" fill="#00b6e9"/>
    </g>
    <path id="Контур_31436" data-name="Контур 31436" d="M322.185,118.144,303,120.311s14.054,13.374,14.788,28.343" transform="translate(-289.442 -116.145)" fill="none" stroke="#00b6e9" stroke-linecap="round" stroke-linejoin="round" stroke-width="2"/>
    <path id="Контур_31437" data-name="Контур 31437" d="M310.02,125,294,131.161a28.08,28.08,0,0,1,25.878,16.02" transform="translate(-291.533 -114.674)" fill="none" stroke="#00b6e9" stroke-linecap="round" stroke-linejoin="round" stroke-width="2"/>
    <path id="Контур_31440" data-name="Контур 31440" d="M11.946,0,0,3.472s12.633,2.4,21.259,19.655" transform="translate(0 24.649) rotate(-30)" fill="none" stroke="#00b6e9" stroke-linecap="round" stroke-linejoin="round" stroke-width="2"/>
  </g>
</svg>
