<svg xmlns="http://www.w3.org/2000/svg" xmlns:xlink="http://www.w3.org/1999/xlink" width="35.777" height="33.895" viewBox="0 0 35.777 33.895">
  <defs>
    <clipPath id="clip-path">
      <rect id="Прямоугольник_2442" data-name="Прямоугольник 2442" width="35.777" height="33.895" fill="#00b6e9"/>
    </clipPath>
  </defs>
  <g id="NewGroup7-0" transform="translate(-245 -191.157)">
    <g id="Сгруппировать_13648" data-name="Сгруппировать 13648" transform="translate(245 191.157)">
      <g id="Сгруппировать_13647" data-name="Сгруппировать 13647" transform="translate(0 0)">
        <g id="Сгруппировать_13646" data-name="Сгруппировать 13646" clip-path="url(#clip-path)">
          <path id="Контур_45266" data-name="Контур 45266" d="M245.941,225.051h22.6a.941.941,0,0,0,.942-.94h0v-5.649a.941.941,0,0,0-.94-.942h0a.941.941,0,0,0-.941.941h0v4.707H246.883V193.04H267.6v4.708a.942.942,0,0,0,1.883.019c0-.006,0-.013,0-.019V192.1a.941.941,0,0,0-.94-.942h-22.6a.941.941,0,0,0-.942.94h0V224.11a.941.941,0,0,0,.941.941Z" transform="translate(-245 -191.157)" fill="#00b6e9"/>
        </g>
      </g>
      <path id="Контур_45267" data-name="Контур 45267" d="M361.5,273.064a.942.942,0,0,0-1.431,1.225l4.317,5.037H343.836a.942.942,0,0,0,0,1.883h20.55l-4.318,5.037a.942.942,0,1,0,1.431,1.225l5.649-6.591a.94.94,0,0,0,.226-.61v0a.94.94,0,0,0-.226-.61l-5.649-6.591Z" transform="translate(-331.597 -263.319)" fill="#00b6e9"/>
    </g>
  </g>
</svg>
