<svg xmlns="http://www.w3.org/2000/svg" width="39.298" height="41.952" viewBox="0 0 39.298 41.952">
  <g id="Сгруппировать_13635" data-name="Сгруппировать 13635" transform="translate(-306.738 -433)">
    <path id="Контур_45258" data-name="Контур 45258" d="M359.171,472.207s6.205,2.428,7.272,3.438c2.312,2.189,2.931,7.662,2.931,10.683a16.557,16.557,0,0,0,1.257,5.444" transform="translate(-25.908 -19.246)" fill="none" stroke="#00b6e9" stroke-linecap="round" stroke-linejoin="round" stroke-width="2"/>
    <path id="Контур_45259" data-name="Контур 45259" d="M354.384,477.718c-1.585-1.793-3.039-1.734-4.221-2.887-2.3-2.246-2.083-2.084-4.193-4.123-1.253-1.211-2.1-1.923-3.359-1.086-1.055.7-.943,1.61-.409,2.761.651,1.4,4.1,5.892,4.828,6.945a1.528,1.528,0,0,1,.269.761c.108,1.485.506,5.694,6.209,7.267" transform="translate(-17.161 -17.76)" fill="none" stroke="#00b6e9" stroke-linecap="round" stroke-linejoin="round" stroke-width="2"/>
    <path id="Контур_45260" data-name="Контур 45260" d="M354.131,509a4.394,4.394,0,0,1,2.139,2.48" transform="translate(-23.369 -37.78)" fill="none" stroke="#00b6e9" stroke-linecap="round" stroke-linejoin="round" stroke-width="2"/>
    <path id="Контур_45261" data-name="Контур 45261" d="M330.333,454.433V437.386A3.385,3.385,0,0,0,326.947,434H311.124a3.385,3.385,0,0,0-3.386,3.386V465.91a3.385,3.385,0,0,0,3.386,3.386h15.823a3.385,3.385,0,0,0,3.386-3.386v-2.129" fill="none" stroke="#00b6e9" stroke-linecap="round" stroke-linejoin="round" stroke-width="2"/>
    <rect id="Прямоугольник_2441" data-name="Прямоугольник 2441" width="3.017" height="13.239" rx="1.174" transform="translate(320.26 438.08)" fill="none" stroke="#00b6e9" stroke-linecap="round" stroke-linejoin="round" stroke-width="2"/>
    <line id="Линия_356" data-name="Линия 356" y2="9.325" transform="translate(320.26 455.891)" fill="none" stroke="#00b6e9" stroke-linecap="round" stroke-linejoin="round" stroke-width="2"/>
    <line id="Линия_357" data-name="Линия 357" y2="3.497" transform="translate(323.277 455.891)" fill="none" stroke="#00b6e9" stroke-linecap="round" stroke-linejoin="round" stroke-width="2"/>
  </g>
</svg>
