<svg xmlns="http://www.w3.org/2000/svg" xmlns:xlink="http://www.w3.org/1999/xlink" width="379" height="36" viewBox="0 0 379 36">
  <defs>
    <clipPath id="clip-path">
      <rect id="Прямоугольник_2423" data-name="Прямоугольник 2423" width="379" height="36" rx="4" transform="translate(44 423)" fill="#fff" stroke="#ccc" stroke-width="1"/>
    </clipPath>
  </defs>
  <g id="Группа_масок_52" data-name="Группа масок 52" transform="translate(-44 -423)" clip-path="url(#clip-path)">
    <g id="Сгруппировать_13626" data-name="Сгруппировать 13626">
      <g id="Прямоугольник_2418" data-name="Прямоугольник 2418" transform="translate(44 459)" fill="#fff" stroke="#ccc" stroke-width="1">
        <rect width="379" height="329" rx="4" stroke="none"/>
        <rect x="0.5" y="0.5" width="378" height="328" rx="3.5" fill="none"/>
      </g>
      <g id="Прямоугольник_1596" data-name="Прямоугольник 1596" transform="translate(44 423)" fill="#fff" stroke="#ccc" stroke-width="1">
        <rect width="379" height="36" rx="4" stroke="none"/>
        <rect x="0.5" y="0.5" width="378" height="35" rx="3.5" fill="none"/>
      </g>
      <text id="sw144af" transform="translate(54 447)" fill="#3b3b3b" font-size="16" font-family="Montserrat-Medium, Montserrat" font-weight="500"><tspan x="0" y="0">sw144af</tspan></text>
      <g id="Компонент_17_1" data-name="Компонент 17 – 1" transform="translate(45 460)" opacity="0">
        <path id="Прямоугольник_2419" data-name="Прямоугольник 2419" d="M3,0H374a3,3,0,0,1,3,3V73.5a0,0,0,0,1,0,0H0a0,0,0,0,1,0,0V3A3,3,0,0,1,3,0Z" fill="#ccc"/>
        <text id="Flat_1_Arundel_Court_41_Raymond_Road_London_SW19_4AF" data-name="Flat 1, Arundel Court, 41 Raymond Road,
London, SW19 4AF" transform="translate(9 29.965)" fill="#3b3b3b" font-size="16" font-family="Montserrat-Medium, Montserrat" font-weight="500"><tspan x="0" y="0">Flat 1, Arundel Court, 41 Raymond Road,</tspan><tspan x="0" y="24">London, SW19 4AF</tspan></text>
      </g>
      <g id="Компонент_18_1" data-name="Компонент 18 – 1" transform="translate(45 531.5)" opacity="0">
        <rect id="Прямоугольник_2420" data-name="Прямоугольник 2420" width="377" height="74" fill="#fff"/>
        <text id="Flat_2_Arundel_Court_41_Raymond_Road_London_SW19_4AF" data-name="Flat 2, Arundel Court, 41 Raymond Road,
London, SW19 4AF" transform="translate(9 30.5)" fill="#3b3b3b" font-size="16" font-family="Montserrat-Medium, Montserrat" font-weight="500"><tspan x="0" y="0">Flat 2, Arundel Court, 41 Raymond Road,</tspan><tspan x="0" y="24">London, SW19 4AF</tspan></text>
      </g>
      <g id="Компонент_19_1" data-name="Компонент 19 – 1" transform="translate(45 604.5)" opacity="0">
        <rect id="Прямоугольник_2421" data-name="Прямоугольник 2421" width="377" height="74" fill="#fff"/>
        <text id="Flat_3_Arundel_Court_41_Raymond_Road_London_SW19_4AF" data-name="Flat 3, Arundel Court, 41 Raymond Road,
London, SW19 4AF" transform="translate(9 30.5)" fill="#3b3b3b" font-size="16" font-family="Montserrat-Medium, Montserrat" font-weight="500"><tspan x="0" y="0">Flat 3, Arundel Court, 41 Raymond Road,</tspan><tspan x="0" y="24">London, SW19 4AF</tspan></text>
      </g>
      <g id="Компонент_20_1" data-name="Компонент 20 – 1" transform="translate(45 677.5)" opacity="0">
        <rect id="Прямоугольник_2422" data-name="Прямоугольник 2422" width="377" height="74" fill="#fff"/>
        <text id="Flat_4_Arundel_Court_41_Raymond_Road_London_SW19_4AF" data-name="Flat 4, Arundel Court, 41 Raymond Road,
London, SW19 4AF" transform="translate(9 30.5)" fill="#3b3b3b" font-size="16" font-family="Montserrat-Medium, Montserrat" font-weight="500"><tspan x="0" y="0">Flat 4, Arundel Court, 41 Raymond Road,</tspan><tspan x="0" y="24">London, SW19 4AF</tspan></text>
      </g>
      <text id="Flat_5_Arundel_Court_41_Raymond_Road_London_SW19_4AF" data-name="Flat 5, Arundel Court, 41 Raymond Road,
London, SW19 4AF" transform="translate(54 781)" fill="#3b3b3b" font-size="16" font-family="Montserrat-Medium, Montserrat" font-weight="500" opacity="0"><tspan x="0" y="0">Flat 5, Arundel Court, 41 Raymond Road,</tspan><tspan x="0" y="24">London, SW19 4AF</tspan></text>
      <g id="Прямоугольник_2417" data-name="Прямоугольник 2417" transform="translate(387 423)" fill="#fff" stroke="#ccc" stroke-width="1">
        <path d="M0,0H32a4,4,0,0,1,4,4V32a4,4,0,0,1-4,4H0a0,0,0,0,1,0,0V0A0,0,0,0,1,0,0Z" stroke="none"/>
        <path d="M1,.5H32A3.5,3.5,0,0,1,35.5,4V32A3.5,3.5,0,0,1,32,35.5H1A.5.5,0,0,1,.5,35V1A.5.5,0,0,1,1,.5Z" fill="none"/>
      </g>
      <path id="Контур_45239" data-name="Контур 45239" d="M1384.558,1299.855a5.558,5.558,0,1,0-2.026,8.161l3.631,5.146a.806.806,0,0,0,1.12.193h0a.806.806,0,0,0,.193-1.12l-3.631-5.146A5.559,5.559,0,0,0,1384.558,1299.855Zm-.756,5.56a4.477,4.477,0,1,1,.607-1.6A4.427,4.427,0,0,1,1383.8,1305.415Z" transform="translate(-975.645 -863.501)" fill="#4f4f4f" stroke="#ccc" stroke-width="1"/>
      <line id="Линия_346" data-name="Линия 346" x2="359" transform="translate(54.5 532)" fill="none" stroke="#ccc" stroke-width="1"/>
      <line id="Линия_347" data-name="Линия 347" x2="359" transform="translate(54.5 605)" fill="none" stroke="#ccc" stroke-width="1"/>
      <line id="Линия_348" data-name="Линия 348" x2="359" transform="translate(54.5 678)" fill="none" stroke="#ccc" stroke-width="1"/>
      <line id="Линия_349" data-name="Линия 349" x2="359" transform="translate(54.5 751)" fill="none" stroke="#ccc" stroke-width="1"/>
    </g>
  </g>
</svg>
