<svg width="41" height="40" viewBox="0 0 41 40" fill="none" xmlns="http://www.w3.org/2000/svg">
<path d="M22.5 20V26H20.5V10C20.5 4.4 16.1 0 10.5 0C4.9 0 0.5 4.4 0.5 10V34C0.5 37.4 3.1 40 6.5 40H14.5C17.9 40 20.5 37.4 20.5 34V30H22.5V36H40.5V20H22.5ZM10.5 4C13.9 4 16.5 6.6 16.5 10C16.5 13.4 13.9 16 10.5 16C7.1 16 4.5 13.4 4.5 10C4.5 6.6 7.1 4 10.5 4ZM14.5 36H6.5C5.3 36 4.5 35.2 4.5 34V18C6.1 19.2 8.3 20 10.5 20C12.7 20 14.9 19.2 16.5 18V34C16.5 35.2 15.7 36 14.5 36ZM36.5 32H26.5V24H36.5V32Z" fill="#F0F0F0"/>
</svg>
