<svg width="130" height="46" viewBox="0 0 130 46" fill="none" xmlns="http://www.w3.org/2000/svg">
<path fill-rule="evenodd" clip-rule="evenodd" d="M4.15515 8.35205H5.20847L4.74033 20.4891H1.05371L4.15515 8.35205Z" fill="#219653"/>
<path fill-rule="evenodd" clip-rule="evenodd" d="M7.60821 8.35205H8.66153L8.83708 20.4891H5.20898L7.60821 8.35205Z" fill="#219653"/>
<path fill-rule="evenodd" clip-rule="evenodd" d="M11.646 8.35205H12.6408L12.9919 20.4891H9.36377L11.646 8.35205Z" fill="#219653"/>
<path fill-rule="evenodd" clip-rule="evenodd" d="M15.3906 8.35205H16.3854L17.1462 20.4891H13.5181L15.3906 8.35205Z" fill="#219653"/>
<path fill-rule="evenodd" clip-rule="evenodd" d="M19.2528 8.35205H20.2476L21.301 20.4891H17.6729L19.2528 8.35205Z" fill="#219653"/>
<path fill-rule="evenodd" clip-rule="evenodd" d="M23.1154 8.35205H24.1102L25.4561 20.4891H21.7695L23.1154 8.35205Z" fill="#219653"/>
<path fill-rule="evenodd" clip-rule="evenodd" d="M27.2697 8.35205H28.2645L29.6104 20.4891H25.9238L27.2697 8.35205Z" fill="#219653"/>
<path fill-rule="evenodd" clip-rule="evenodd" d="M31.1319 8.35205H32.1267L33.7652 20.4891H30.0786L31.1319 8.35205Z" fill="#219653"/>
<path fill-rule="evenodd" clip-rule="evenodd" d="M34.9941 8.35205H36.0474L37.92 20.4891H34.2334L34.9941 8.35205Z" fill="#219653"/>
<path fill-rule="evenodd" clip-rule="evenodd" d="M38.7388 8.35205H39.7336L42.0743 20.4891H38.3877L38.7388 8.35205Z" fill="#219653"/>
<path fill-rule="evenodd" clip-rule="evenodd" d="M42.7766 8.35205H43.7714L46.2291 20.4891H42.5425L42.7766 8.35205Z" fill="#219653"/>
<path fill-rule="evenodd" clip-rule="evenodd" d="M46.2285 8.35205H47.2233L50.3248 20.4891H46.6967L46.2285 8.35205Z" fill="#219653"/>
<path fill-rule="evenodd" clip-rule="evenodd" d="M49.1549 5.1737L58.1081 0.781229C59.2199 0.261067 60.4488 0.839024 60.9755 1.99494C61.5021 3.15085 60.9169 4.53795 59.8051 5.05811L50.9104 9.45058C50.7934 9.50838 50.6763 9.56618 50.5593 9.56618C50.2082 9.79736 49.8571 9.91295 49.506 9.91295H2.16516C0.994801 9.91295 0 8.81483 0 7.54333C0 6.27182 0.994801 5.2315 2.16516 5.2315H49.0378C49.0964 5.1737 49.1549 5.1737 49.1549 5.1737Z" fill="#219653"/>
<path fill-rule="evenodd" clip-rule="evenodd" d="M92.8886 1.77673V4.17625C92.8886 4.84588 92.1307 5.40391 91.1397 5.40391H59.0184C58.0857 5.40391 57.2695 4.84588 57.2695 4.17625V1.77673C57.2695 1.1071 58.0857 0.549072 59.0184 0.549072H91.1397C92.0724 0.549072 92.8886 1.1071 92.8886 1.77673Z" fill="#219653"/>
<path d="M1 44.2C1 43.0954 1.89543 42.2 3 42.2H128C129.105 42.2 130 43.0954 130 44.2V45.2H1V44.2Z" fill="#219653"/>
<mask id="path-16-outside-1" maskUnits="userSpaceOnUse" x="51.1631" y="12.5728" width="79" height="25" fill="black">
<rect fill="white" x="51.1631" y="12.5728" width="79" height="25"/>
<path d="M63.4858 36.9051C61.9018 36.9051 60.4155 36.6138 59.0271 36.0312C57.6582 35.4292 56.4555 34.6039 55.4191 33.5553C54.4022 32.4872 53.6004 31.2444 53.0138 29.8268C52.4466 28.4091 52.1631 26.875 52.1631 25.2244C52.1631 23.5931 52.4466 22.0784 53.0138 20.6802C53.6004 19.2626 54.4022 18.0295 55.4191 16.9809C56.4555 15.9128 57.6582 15.0778 59.0271 14.4758C60.396 13.8738 61.8822 13.5728 63.4858 13.5728C64.9915 13.5728 66.2822 13.7669 67.3578 14.1553C68.4529 14.5437 69.548 15.1846 70.6431 16.0778C70.7995 16.1944 70.9169 16.3206 70.9951 16.4565C71.0929 16.573 71.1515 16.6993 71.1711 16.8352C71.2102 16.9517 71.2298 17.0974 71.2298 17.2721C71.2298 17.6411 71.0929 17.9518 70.8191 18.2043C70.5649 18.4373 70.252 18.5732 69.8804 18.6121C69.5089 18.6315 69.1471 18.5053 68.7951 18.2334C68.0715 17.612 67.3186 17.1362 66.5364 16.8061C65.7738 16.4759 64.7569 16.3109 63.4858 16.3109C62.332 16.3109 61.2466 16.5439 60.2298 17.01C59.2129 17.476 58.3133 18.1169 57.5311 18.9325C56.7684 19.7481 56.172 20.6997 55.7418 21.7871C55.3115 22.8552 55.0964 24.0009 55.0964 25.2244C55.0964 26.4672 55.3115 27.6324 55.7418 28.7199C56.172 29.7879 56.7684 30.7298 57.5311 31.5454C58.3133 32.361 59.2129 33.0018 60.2298 33.4679C61.2466 33.9145 62.332 34.1379 63.4858 34.1379C64.4831 34.1379 65.4218 33.9728 66.3018 33.6427C67.2013 33.2931 68.0618 32.8173 68.8831 32.2153C69.2351 31.9629 69.5773 31.8561 69.9098 31.8949C70.2618 31.9143 70.5551 32.0503 70.7898 32.3027C71.0244 32.5358 71.1418 32.8659 71.1418 33.2931C71.1418 33.4873 71.1026 33.6815 71.0244 33.8757C70.9462 34.0505 70.8289 34.2155 70.6724 34.3709C69.6164 35.2059 68.4822 35.837 67.2698 36.2643C66.0769 36.6915 64.8155 36.9051 63.4858 36.9051Z"/>
<path d="M77.9278 36.6138C77.0674 36.6138 76.3047 36.3808 75.6398 35.9147C74.9749 35.4487 74.4567 34.8175 74.0852 34.0213C73.7136 33.2057 73.5278 32.2736 73.5278 31.2249V15.3205C73.5278 14.8933 73.6647 14.5437 73.9385 14.2719C74.2123 14 74.5643 13.864 74.9945 13.864C75.4247 13.864 75.7767 14 76.0505 14.2719C76.3243 14.5437 76.4612 14.8933 76.4612 15.3205V31.2249C76.4612 31.9435 76.5981 32.5358 76.8718 33.0018C77.1456 33.4679 77.4976 33.7009 77.9278 33.7009H78.6612C79.0523 33.7009 79.3652 33.8369 79.5998 34.1087C79.8541 34.3806 79.9812 34.7301 79.9812 35.1574C79.9812 35.5846 79.7954 35.9341 79.4238 36.206C79.0523 36.4779 78.5732 36.6138 77.9865 36.6138H77.9278Z"/>
<path d="M87.9461 36.7303C86.323 36.7303 84.8759 36.3905 83.6048 35.7108C82.3532 35.0117 81.3656 34.0602 80.6421 32.8562C79.9381 31.6328 79.5861 30.2346 79.5861 28.6616C79.5861 27.0692 79.9185 25.671 80.5834 24.467C81.2679 23.2436 82.2065 22.292 83.3994 21.6124C84.5923 20.9133 85.9612 20.5637 87.5061 20.5637C89.0314 20.5637 90.3416 20.9036 91.4368 21.5832C92.5319 22.2435 93.363 23.1659 93.9301 24.3505C94.5168 25.5157 94.8101 26.8653 94.8101 28.3994C94.8101 28.7684 94.683 29.0791 94.4288 29.3316C94.1745 29.5646 93.8519 29.6811 93.4608 29.6811H81.6394V27.3508H93.3728L92.1701 28.1664C92.1505 27.1954 91.955 26.3313 91.5834 25.5739C91.2119 24.7971 90.6839 24.1854 89.9994 23.7388C89.315 23.2921 88.4839 23.0688 87.5061 23.0688C86.3914 23.0688 85.4332 23.3116 84.6314 23.797C83.8492 24.2825 83.2528 24.9525 82.8421 25.8069C82.4314 26.642 82.2261 27.5935 82.2261 28.6616C82.2261 29.7297 82.4705 30.6812 82.9594 31.5162C83.4483 32.3513 84.123 33.0115 84.9834 33.497C85.8439 33.9825 86.8314 34.2252 87.9461 34.2252C88.5523 34.2252 89.1683 34.1184 89.7941 33.9048C90.4394 33.6718 90.9576 33.4096 91.3488 33.1183C91.6421 32.9047 91.955 32.7979 92.2874 32.7979C92.6394 32.7785 92.9425 32.8756 93.1968 33.0892C93.5292 33.3805 93.7052 33.7009 93.7248 34.0505C93.7443 34.4 93.5879 34.701 93.2554 34.9535C92.5905 35.4778 91.7594 35.905 90.7621 36.2351C89.7843 36.5653 88.8456 36.7303 87.9461 36.7303Z"/>
<path d="M103.128 36.7303C101.7 36.7303 100.419 36.3808 99.2853 35.6817C98.151 34.9632 97.2515 34.0019 96.5866 32.7979C95.9413 31.5745 95.6186 30.1957 95.6186 28.6616C95.6186 27.1275 95.9706 25.7487 96.6746 24.5253C97.3981 23.3019 98.3661 22.3406 99.5786 21.6415C100.811 20.923 102.189 20.5637 103.715 20.5637C105.24 20.5637 106.609 20.923 107.821 21.6415C109.034 22.3406 109.992 23.3019 110.696 24.5253C111.419 25.7487 111.781 27.1275 111.781 28.6616H110.637C110.637 30.1957 110.305 31.5745 109.64 32.7979C108.995 34.0019 108.105 34.9632 106.971 35.6817C105.836 36.3808 104.555 36.7303 103.128 36.7303ZM103.715 34.1087C104.712 34.1087 105.602 33.8757 106.384 33.4096C107.166 32.9241 107.782 32.2736 108.232 31.458C108.682 30.6229 108.907 29.6908 108.907 28.6616C108.907 27.6129 108.682 26.6808 108.232 25.8652C107.782 25.0302 107.166 24.3796 106.384 23.9136C105.602 23.4281 104.712 23.1853 103.715 23.1853C102.737 23.1853 101.847 23.4281 101.045 23.9136C100.263 24.3796 99.6373 25.0302 99.1679 25.8652C98.7181 26.6808 98.4933 27.6129 98.4933 28.6616C98.4933 29.6908 98.7181 30.6229 99.1679 31.458C99.6373 32.2736 100.263 32.9241 101.045 33.4096C101.847 33.8757 102.737 34.1087 103.715 34.1087ZM110.285 36.6429C109.855 36.6429 109.493 36.507 109.2 36.2351C108.926 35.9438 108.789 35.5846 108.789 35.1574V30.7006L109.347 27.6129L111.781 28.6616V35.1574C111.781 35.5846 111.635 35.9438 111.341 36.2351C111.067 36.507 110.715 36.6429 110.285 36.6429Z"/>
<path d="M128.173 36.6429C127.743 36.6429 127.381 36.507 127.088 36.2351C126.814 35.9438 126.677 35.5846 126.677 35.1574V27.9916C126.677 26.8847 126.472 25.9817 126.061 25.2826C125.65 24.5835 125.093 24.0689 124.389 23.7388C123.704 23.3892 122.912 23.2145 122.013 23.2145C121.192 23.2145 120.448 23.3795 119.784 23.7097C119.119 24.0398 118.591 24.4864 118.2 25.0496C117.808 25.5933 117.613 26.2245 117.613 26.943H115.765C115.765 25.7196 116.058 24.6321 116.645 23.6805C117.251 22.7096 118.072 21.9425 119.109 21.3793C120.145 20.8162 121.309 20.5346 122.6 20.5346C123.949 20.5346 125.152 20.8259 126.208 21.4085C127.283 21.9716 128.124 22.8067 128.73 23.9136C129.356 25.0205 129.669 26.3798 129.669 27.9916V35.1574C129.669 35.5846 129.522 35.9438 129.229 36.2351C128.955 36.507 128.603 36.6429 128.173 36.6429ZM116.117 36.6429C115.687 36.6429 115.325 36.507 115.032 36.2351C114.758 35.9438 114.621 35.5846 114.621 35.1574V22.1658C114.621 21.7192 114.758 21.3599 115.032 21.088C115.325 20.8162 115.687 20.6802 116.117 20.6802C116.567 20.6802 116.928 20.8162 117.202 21.088C117.476 21.3599 117.613 21.7192 117.613 22.1658V35.1574C117.613 35.5846 117.476 35.9438 117.202 36.2351C116.928 36.507 116.567 36.6429 116.117 36.6429Z"/>
</mask>
<path d="M63.4858 36.9051C61.9018 36.9051 60.4155 36.6138 59.0271 36.0312C57.6582 35.4292 56.4555 34.6039 55.4191 33.5553C54.4022 32.4872 53.6004 31.2444 53.0138 29.8268C52.4466 28.4091 52.1631 26.875 52.1631 25.2244C52.1631 23.5931 52.4466 22.0784 53.0138 20.6802C53.6004 19.2626 54.4022 18.0295 55.4191 16.9809C56.4555 15.9128 57.6582 15.0778 59.0271 14.4758C60.396 13.8738 61.8822 13.5728 63.4858 13.5728C64.9915 13.5728 66.2822 13.7669 67.3578 14.1553C68.4529 14.5437 69.548 15.1846 70.6431 16.0778C70.7995 16.1944 70.9169 16.3206 70.9951 16.4565C71.0929 16.573 71.1515 16.6993 71.1711 16.8352C71.2102 16.9517 71.2298 17.0974 71.2298 17.2721C71.2298 17.6411 71.0929 17.9518 70.8191 18.2043C70.5649 18.4373 70.252 18.5732 69.8804 18.6121C69.5089 18.6315 69.1471 18.5053 68.7951 18.2334C68.0715 17.612 67.3186 17.1362 66.5364 16.8061C65.7738 16.4759 64.7569 16.3109 63.4858 16.3109C62.332 16.3109 61.2466 16.5439 60.2298 17.01C59.2129 17.476 58.3133 18.1169 57.5311 18.9325C56.7684 19.7481 56.172 20.6997 55.7418 21.7871C55.3115 22.8552 55.0964 24.0009 55.0964 25.2244C55.0964 26.4672 55.3115 27.6324 55.7418 28.7199C56.172 29.7879 56.7684 30.7298 57.5311 31.5454C58.3133 32.361 59.2129 33.0018 60.2298 33.4679C61.2466 33.9145 62.332 34.1379 63.4858 34.1379C64.4831 34.1379 65.4218 33.9728 66.3018 33.6427C67.2013 33.2931 68.0618 32.8173 68.8831 32.2153C69.2351 31.9629 69.5773 31.8561 69.9098 31.8949C70.2618 31.9143 70.5551 32.0503 70.7898 32.3027C71.0244 32.5358 71.1418 32.8659 71.1418 33.2931C71.1418 33.4873 71.1026 33.6815 71.0244 33.8757C70.9462 34.0505 70.8289 34.2155 70.6724 34.3709C69.6164 35.2059 68.4822 35.837 67.2698 36.2643C66.0769 36.6915 64.8155 36.9051 63.4858 36.9051Z" fill="#222222"/>
<path d="M77.9278 36.6138C77.0674 36.6138 76.3047 36.3808 75.6398 35.9147C74.9749 35.4487 74.4567 34.8175 74.0852 34.0213C73.7136 33.2057 73.5278 32.2736 73.5278 31.2249V15.3205C73.5278 14.8933 73.6647 14.5437 73.9385 14.2719C74.2123 14 74.5643 13.864 74.9945 13.864C75.4247 13.864 75.7767 14 76.0505 14.2719C76.3243 14.5437 76.4612 14.8933 76.4612 15.3205V31.2249C76.4612 31.9435 76.5981 32.5358 76.8718 33.0018C77.1456 33.4679 77.4976 33.7009 77.9278 33.7009H78.6612C79.0523 33.7009 79.3652 33.8369 79.5998 34.1087C79.8541 34.3806 79.9812 34.7301 79.9812 35.1574C79.9812 35.5846 79.7954 35.9341 79.4238 36.206C79.0523 36.4779 78.5732 36.6138 77.9865 36.6138H77.9278Z" fill="#222222"/>
<path d="M87.9461 36.7303C86.323 36.7303 84.8759 36.3905 83.6048 35.7108C82.3532 35.0117 81.3656 34.0602 80.6421 32.8562C79.9381 31.6328 79.5861 30.2346 79.5861 28.6616C79.5861 27.0692 79.9185 25.671 80.5834 24.467C81.2679 23.2436 82.2065 22.292 83.3994 21.6124C84.5923 20.9133 85.9612 20.5637 87.5061 20.5637C89.0314 20.5637 90.3416 20.9036 91.4368 21.5832C92.5319 22.2435 93.363 23.1659 93.9301 24.3505C94.5168 25.5157 94.8101 26.8653 94.8101 28.3994C94.8101 28.7684 94.683 29.0791 94.4288 29.3316C94.1745 29.5646 93.8519 29.6811 93.4608 29.6811H81.6394V27.3508H93.3728L92.1701 28.1664C92.1505 27.1954 91.955 26.3313 91.5834 25.5739C91.2119 24.7971 90.6839 24.1854 89.9994 23.7388C89.315 23.2921 88.4839 23.0688 87.5061 23.0688C86.3914 23.0688 85.4332 23.3116 84.6314 23.797C83.8492 24.2825 83.2528 24.9525 82.8421 25.8069C82.4314 26.642 82.2261 27.5935 82.2261 28.6616C82.2261 29.7297 82.4705 30.6812 82.9594 31.5162C83.4483 32.3513 84.123 33.0115 84.9834 33.497C85.8439 33.9825 86.8314 34.2252 87.9461 34.2252C88.5523 34.2252 89.1683 34.1184 89.7941 33.9048C90.4394 33.6718 90.9576 33.4096 91.3488 33.1183C91.6421 32.9047 91.955 32.7979 92.2874 32.7979C92.6394 32.7785 92.9425 32.8756 93.1968 33.0892C93.5292 33.3805 93.7052 33.7009 93.7248 34.0505C93.7443 34.4 93.5879 34.701 93.2554 34.9535C92.5905 35.4778 91.7594 35.905 90.7621 36.2351C89.7843 36.5653 88.8456 36.7303 87.9461 36.7303Z" fill="#222222"/>
<path d="M103.128 36.7303C101.7 36.7303 100.419 36.3808 99.2853 35.6817C98.151 34.9632 97.2515 34.0019 96.5866 32.7979C95.9413 31.5745 95.6186 30.1957 95.6186 28.6616C95.6186 27.1275 95.9706 25.7487 96.6746 24.5253C97.3981 23.3019 98.3661 22.3406 99.5786 21.6415C100.811 20.923 102.189 20.5637 103.715 20.5637C105.24 20.5637 106.609 20.923 107.821 21.6415C109.034 22.3406 109.992 23.3019 110.696 24.5253C111.419 25.7487 111.781 27.1275 111.781 28.6616H110.637C110.637 30.1957 110.305 31.5745 109.64 32.7979C108.995 34.0019 108.105 34.9632 106.971 35.6817C105.836 36.3808 104.555 36.7303 103.128 36.7303ZM103.715 34.1087C104.712 34.1087 105.602 33.8757 106.384 33.4096C107.166 32.9241 107.782 32.2736 108.232 31.458C108.682 30.6229 108.907 29.6908 108.907 28.6616C108.907 27.6129 108.682 26.6808 108.232 25.8652C107.782 25.0302 107.166 24.3796 106.384 23.9136C105.602 23.4281 104.712 23.1853 103.715 23.1853C102.737 23.1853 101.847 23.4281 101.045 23.9136C100.263 24.3796 99.6373 25.0302 99.1679 25.8652C98.7181 26.6808 98.4933 27.6129 98.4933 28.6616C98.4933 29.6908 98.7181 30.6229 99.1679 31.458C99.6373 32.2736 100.263 32.9241 101.045 33.4096C101.847 33.8757 102.737 34.1087 103.715 34.1087ZM110.285 36.6429C109.855 36.6429 109.493 36.507 109.2 36.2351C108.926 35.9438 108.789 35.5846 108.789 35.1574V30.7006L109.347 27.6129L111.781 28.6616V35.1574C111.781 35.5846 111.635 35.9438 111.341 36.2351C111.067 36.507 110.715 36.6429 110.285 36.6429Z" fill="#222222"/>
<path d="M128.173 36.6429C127.743 36.6429 127.381 36.507 127.088 36.2351C126.814 35.9438 126.677 35.5846 126.677 35.1574V27.9916C126.677 26.8847 126.472 25.9817 126.061 25.2826C125.65 24.5835 125.093 24.0689 124.389 23.7388C123.704 23.3892 122.912 23.2145 122.013 23.2145C121.192 23.2145 120.448 23.3795 119.784 23.7097C119.119 24.0398 118.591 24.4864 118.2 25.0496C117.808 25.5933 117.613 26.2245 117.613 26.943H115.765C115.765 25.7196 116.058 24.6321 116.645 23.6805C117.251 22.7096 118.072 21.9425 119.109 21.3793C120.145 20.8162 121.309 20.5346 122.6 20.5346C123.949 20.5346 125.152 20.8259 126.208 21.4085C127.283 21.9716 128.124 22.8067 128.73 23.9136C129.356 25.0205 129.669 26.3798 129.669 27.9916V35.1574C129.669 35.5846 129.522 35.9438 129.229 36.2351C128.955 36.507 128.603 36.6429 128.173 36.6429ZM116.117 36.6429C115.687 36.6429 115.325 36.507 115.032 36.2351C114.758 35.9438 114.621 35.5846 114.621 35.1574V22.1658C114.621 21.7192 114.758 21.3599 115.032 21.088C115.325 20.8162 115.687 20.6802 116.117 20.6802C116.567 20.6802 116.928 20.8162 117.202 21.088C117.476 21.3599 117.613 21.7192 117.613 22.1658V35.1574C117.613 35.5846 117.476 35.9438 117.202 36.2351C116.928 36.507 116.567 36.6429 116.117 36.6429Z" fill="#222222"/>
<path d="M59.0271 36.0312L58.9146 36.287L58.919 36.2888L59.0271 36.0312ZM55.4191 33.5553L55.2167 33.7479L55.2204 33.7517L55.4191 33.5553ZM53.0138 29.8268L52.7544 29.9305L52.7556 29.9336L53.0138 29.8268ZM53.0138 20.6802L52.7556 20.5734L52.7549 20.5752L53.0138 20.6802ZM55.4191 16.9809L55.2186 16.7863L55.2185 16.7864L55.4191 16.9809ZM59.0271 14.4758L58.9146 14.22V14.22L59.0271 14.4758ZM67.3578 14.1553L67.2629 14.4181L67.2644 14.4186L67.3578 14.1553ZM70.6431 16.0778L70.4663 16.2945L70.4762 16.3019L70.6431 16.0778ZM70.9951 16.4565L70.7529 16.5959L70.7652 16.6172L70.7811 16.6361L70.9951 16.4565ZM71.1711 16.8352L70.8946 16.875L70.8982 16.9001L70.9062 16.9241L71.1711 16.8352ZM70.8191 18.2043L71.0079 18.4102L71.0085 18.4096L70.8191 18.2043ZM69.8804 18.6121L69.895 18.8911L69.9022 18.8907L69.9095 18.8899L69.8804 18.6121ZM68.7951 18.2334L68.6131 18.4453L68.6186 18.4501L68.6243 18.4545L68.7951 18.2334ZM66.5364 16.8061L66.4254 17.0625L66.4278 17.0635L66.5364 16.8061ZM57.5311 18.9325L57.3294 18.7391L57.327 18.7417L57.5311 18.9325ZM55.7418 21.7871L56.0009 21.8915L56.0015 21.8899L55.7418 21.7871ZM55.7418 28.7199L55.482 28.8226L55.4826 28.8242L55.7418 28.7199ZM57.5311 31.5454L57.327 31.7362L57.3295 31.7387L57.5311 31.5454ZM60.2298 33.4679L60.1133 33.7219L60.1174 33.7237L60.2298 33.4679ZM66.3018 33.6427L66.3999 33.9042L66.4029 33.9031L66.3018 33.6427ZM68.8831 32.2153L68.7203 31.9883L68.7179 31.99L68.8831 32.2153ZM69.9098 31.8949L69.8773 32.1724L69.8858 32.1734L69.8944 32.1739L69.9098 31.8949ZM70.7898 32.3027L70.585 32.4931L70.5929 32.501L70.7898 32.3027ZM71.0244 33.8757L71.2796 33.9899L71.2836 33.9801L71.0244 33.8757ZM70.6724 34.3709L70.8457 34.59L70.8581 34.5802L70.8693 34.5691L70.6724 34.3709ZM67.2698 36.2643L67.1769 36.0008L67.1756 36.0013L67.2698 36.2643ZM75.6398 35.9147L75.4795 36.1435L75.6398 35.9147ZM74.0852 34.0213L73.8309 34.1372L73.832 34.1395L74.0852 34.0213ZM73.9385 14.2719L74.1354 14.4701V14.4701L73.9385 14.2719ZM76.8718 33.0018L77.1127 32.8603L76.8718 33.0018ZM79.5998 34.1087L79.3882 34.2914L79.3958 34.2995L79.5998 34.1087ZM79.4238 36.206L79.5888 36.4315L79.4238 36.206ZM83.6048 35.7108L83.4685 35.9548L83.473 35.9572L83.6048 35.7108ZM80.6421 32.8562L80.3999 32.9955L80.4026 33.0001L80.6421 32.8562ZM80.5834 24.467L80.3396 24.3306L80.3389 24.332L80.5834 24.467ZM83.3994 21.6124L83.5377 21.8551L83.5407 21.8534L83.3994 21.6124ZM91.4368 21.5832L91.2894 21.8206L91.2925 21.8225L91.4368 21.5832ZM93.9301 24.3505L93.6781 24.4712L93.6806 24.4761L93.9301 24.3505ZM94.4288 29.3316L94.6177 29.5377L94.6256 29.5298L94.4288 29.3316ZM81.6394 29.6811H81.3601V29.9605H81.6394V29.6811ZM81.6394 27.3508V27.0714H81.3601V27.3508H81.6394ZM93.3728 27.3508L93.5296 27.582L94.2824 27.0714H93.3728V27.3508ZM92.1701 28.1664L91.8908 28.172L91.9011 28.6863L92.3269 28.3976L92.1701 28.1664ZM91.5834 25.5739L91.3314 25.6945L91.3326 25.697L91.5834 25.5739ZM84.6314 23.797L84.4867 23.5581L84.4841 23.5597L84.6314 23.797ZM82.8421 25.8069L83.0928 25.9302L83.0939 25.928L82.8421 25.8069ZM82.9594 31.5162L82.7183 31.6574L82.9594 31.5162ZM84.9834 33.497L85.1207 33.2537L84.9834 33.497ZM89.7941 33.9048L89.8844 34.1692L89.889 34.1676L89.7941 33.9048ZM91.3488 33.1183L91.1843 32.8925L91.1819 32.8943L91.3488 33.1183ZM92.2874 32.7979V33.0773H92.2951L92.3028 33.0769L92.2874 32.7979ZM93.1968 33.0892L93.3809 32.879L93.3765 32.8753L93.1968 33.0892ZM93.7248 34.0505L94.0037 34.0349L93.7248 34.0505ZM93.2554 34.9535L93.0864 34.7309L93.0824 34.7341L93.2554 34.9535ZM90.7621 36.2351L90.6743 35.9699L90.6727 35.9705L90.7621 36.2351ZM99.2853 35.6817L99.1357 35.9177L99.1387 35.9195L99.2853 35.6817ZM96.5866 32.7979L96.3394 32.9283L96.342 32.933L96.5866 32.7979ZM96.6746 24.5253L96.4341 24.383L96.4324 24.3859L96.6746 24.5253ZM99.5786 21.6415L99.7181 21.8835L99.7193 21.8828L99.5786 21.6415ZM107.821 21.6415L107.679 21.8818L107.682 21.8835L107.821 21.6415ZM110.696 24.5253L110.454 24.6646L110.455 24.6675L110.696 24.5253ZM110.637 28.6616V28.3822H110.358V28.6616H110.637ZM109.64 32.7979L109.394 32.6645L109.394 32.6659L109.64 32.7979ZM106.971 35.6817L107.117 35.9195L107.12 35.9177L106.971 35.6817ZM106.384 33.4096L106.527 33.6497L106.531 33.647L106.384 33.4096ZM108.232 31.458L108.477 31.5929L108.478 31.5905L108.232 31.458ZM108.232 25.8652L107.986 25.9977L107.987 26.0001L108.232 25.8652ZM106.384 23.9136L106.237 24.151L106.241 24.1536L106.384 23.9136ZM101.045 23.9136L101.188 24.1536L101.19 24.1525L101.045 23.9136ZM99.1679 25.8652L98.9244 25.7283L98.9233 25.7303L99.1679 25.8652ZM99.1679 31.458L98.9219 31.5905L98.9258 31.5973L99.1679 31.458ZM101.045 33.4096L100.898 33.6471L100.905 33.6511L101.045 33.4096ZM109.2 36.2351L108.996 36.4265L109.003 36.4335L109.01 36.44L109.2 36.2351ZM108.789 30.7006L108.514 30.651L108.51 30.6756V30.7006H108.789ZM109.347 27.6129L109.457 27.3564L109.134 27.2173L109.072 27.5633L109.347 27.6129ZM111.341 36.2351L111.538 36.4334L111.341 36.2351ZM127.088 36.2351L126.884 36.4265L126.891 36.4335L126.898 36.44L127.088 36.2351ZM126.061 25.2826L125.82 25.4241L126.061 25.2826ZM124.389 23.7388L124.262 23.9877L124.27 23.9917L124.389 23.7388ZM119.784 23.7097L119.659 23.4594L119.784 23.7097ZM118.2 25.0496L118.426 25.2127L118.429 25.2089L118.2 25.0496ZM117.613 26.943V27.2223H117.892V26.943H117.613ZM115.765 26.943H115.485V27.2223H115.765V26.943ZM116.645 23.6805L116.408 23.5326L116.407 23.5339L116.645 23.6805ZM119.109 21.3793L119.242 21.6248L119.109 21.3793ZM126.208 21.4085L126.073 21.6531L126.078 21.656L126.208 21.4085ZM128.73 23.9136L128.485 24.0478L128.487 24.051L128.73 23.9136ZM129.229 36.2351L129.032 36.0369L129.229 36.2351ZM115.032 36.2351L114.828 36.4265L114.835 36.4335L114.842 36.44L115.032 36.2351ZM115.032 21.088L114.842 20.883L114.835 20.8898L115.032 21.088ZM117.202 36.2351L117.399 36.4335L117.406 36.4265L117.202 36.2351ZM63.4858 36.6257C61.9369 36.6257 60.4876 36.3411 59.1352 35.7736L58.919 36.2888C60.3434 36.8865 61.8666 37.1845 63.4858 37.1845V36.6257ZM59.1395 35.7755C57.8024 35.1875 56.6291 34.3821 55.6178 33.3589L55.2204 33.7517C56.2819 34.8257 57.514 35.671 58.9146 36.287L59.1395 35.7755ZM55.6214 33.3626C54.6292 32.3205 53.8459 31.107 53.2719 29.7199L52.7556 29.9336C53.3549 31.3817 54.1752 32.6539 55.2168 33.7479L55.6214 33.3626ZM53.2731 29.723C52.7203 28.341 52.4425 26.8424 52.4425 25.2244H51.8837C51.8837 26.9077 52.173 28.4773 52.7544 29.9305L53.2731 29.723ZM52.4425 25.2244C52.4425 23.6262 52.7201 22.1475 53.2726 20.7852L52.7549 20.5752C52.1732 22.0094 51.8837 23.5601 51.8837 25.2244H52.4425ZM53.2719 20.7871C53.8458 19.4004 54.6285 18.1974 55.6196 17.1753L55.2185 16.7864C54.1759 17.8616 53.3551 19.1249 52.7556 20.5734L53.2719 20.7871ZM55.6196 17.1754C56.6308 16.1333 57.8035 15.319 59.1395 14.7315L58.9146 14.22C57.5129 14.8365 56.2803 15.6922 55.2186 16.7863L55.6196 17.1754ZM59.1395 14.7315C60.4705 14.1462 61.9181 13.8521 63.4858 13.8521V13.2934C61.8463 13.2934 60.3215 13.6013 58.9146 14.22L59.1395 14.7315ZM63.4858 13.8521C64.9688 13.8521 66.2257 14.0436 67.2629 14.4181L67.4526 13.8926C66.3387 13.4903 65.0142 13.2934 63.4858 13.2934V13.8521ZM67.2644 14.4186C68.3235 14.7943 69.391 15.4171 70.4665 16.2943L70.8197 15.8614C69.7049 14.9521 68.5822 14.2932 67.4511 13.892L67.2644 14.4186ZM70.4762 16.3019C70.6093 16.401 70.6978 16.5 70.7529 16.5959L71.2372 16.3172C71.1359 16.1412 70.9898 15.9877 70.81 15.8538L70.4762 16.3019ZM70.7811 16.6361C70.8491 16.7172 70.8832 16.796 70.8946 16.875L71.4476 16.7954C71.4199 16.6025 71.3366 16.4289 71.2091 16.2769L70.7811 16.6361ZM70.9062 16.9241C70.9326 17.0027 70.9504 17.1159 70.9504 17.2721H71.5091C71.5091 17.0788 71.4878 16.9008 71.4359 16.7463L70.9062 16.9241ZM70.9504 17.2721C70.9504 17.5623 70.8467 17.7988 70.6297 17.9989L71.0085 18.4096C71.339 18.1049 71.5091 17.72 71.5091 17.2721H70.9504ZM70.6303 17.9983C70.424 18.1875 70.1686 18.3011 69.8514 18.3342L69.9095 18.8899C70.3353 18.8454 70.7057 18.6871 71.0079 18.4102L70.6303 17.9983ZM69.8658 18.3331C69.5735 18.3484 69.2758 18.2517 68.9659 18.0123L68.6243 18.4545C69.0184 18.7588 69.4442 18.9146 69.895 18.8911L69.8658 18.3331ZM68.9771 18.0215C68.2343 17.3835 67.457 16.8914 66.645 16.5487L66.4278 17.0635C67.1803 17.381 67.9088 17.8405 68.6131 18.4453L68.9771 18.0215ZM66.6474 16.5497C65.8362 16.1985 64.7768 16.0315 63.4858 16.0315V16.5902C64.7369 16.5902 65.7114 16.7534 66.4254 17.0625L66.6474 16.5497ZM63.4858 16.0315C62.2931 16.0315 61.1679 16.2727 60.1134 16.756L60.3461 17.2639C61.3254 16.8151 62.3709 16.5902 63.4858 16.5902V16.0315ZM60.1134 16.756C59.0642 17.2369 58.1358 17.8984 57.3295 18.7391L57.7327 19.1259C58.4908 18.3354 59.3616 17.7152 60.3461 17.2639L60.1134 16.756ZM57.327 18.7417C56.5393 19.5841 55.9245 20.5659 55.482 21.6844L56.0015 21.8899C56.4195 20.8334 56.9975 19.9121 57.7351 19.1233L57.327 18.7417ZM55.4826 21.6828C55.0382 22.786 54.8171 23.9674 54.8171 25.2244H55.3758C55.3758 24.0345 55.5848 22.9244 56.0009 21.8915L55.4826 21.6828ZM54.8171 25.2244C54.8171 26.5002 55.038 27.7004 55.482 28.8226L56.0015 28.6171C55.585 27.5643 55.3758 26.4343 55.3758 25.2244H54.8171ZM55.4826 28.8242C55.9253 29.9232 56.5401 30.8946 57.327 31.7362L57.7351 31.3546C56.9967 30.5649 56.4186 29.6526 56.0009 28.6155L55.4826 28.8242ZM57.3295 31.7387C58.1358 32.5795 59.0642 33.241 60.1134 33.7218L60.3461 33.2139C59.3616 32.7627 58.4908 32.1425 57.7327 31.352L57.3295 31.7387ZM60.1174 33.7237C61.1711 34.1865 62.2948 34.4172 63.4858 34.4172V33.8585C62.3691 33.8585 61.3222 33.6426 60.3421 33.2121L60.1174 33.7237ZM63.4858 34.4172C64.5145 34.4172 65.4866 34.2468 66.3999 33.9042L66.2036 33.3811C65.3569 33.6987 64.4516 33.8585 63.4858 33.8585V34.4172ZM66.4029 33.9031C67.3265 33.5442 68.2083 33.0563 69.0482 32.4407L68.7179 31.99C67.9152 32.5784 67.0761 33.042 66.2006 33.3823L66.4029 33.9031ZM69.0459 32.4424C69.3585 32.2182 69.6324 32.1438 69.8773 32.1724L69.9422 31.6174C69.5222 31.5684 69.1117 31.7076 68.7203 31.9883L69.0459 32.4424ZM69.8944 32.1739C70.176 32.1894 70.4009 32.2948 70.5851 32.4929L70.9944 32.1125C70.7092 31.8058 70.3475 31.6393 69.9251 31.616L69.8944 32.1739ZM70.5929 32.501C70.7606 32.6674 70.8624 32.9176 70.8624 33.2931H71.4211C71.4211 32.8142 71.2883 32.4041 70.9866 32.1045L70.5929 32.501ZM70.8624 33.2931C70.8624 33.4488 70.8312 33.6077 70.7653 33.7713L71.2836 33.9801C71.3741 33.7553 71.4211 33.5258 71.4211 33.2931H70.8624ZM70.7694 33.7616C70.7072 33.9006 70.6113 34.0379 70.4756 34.1727L70.8693 34.5691C71.0465 34.3932 71.1852 34.2003 71.2794 33.9898L70.7694 33.7616ZM70.4991 34.1518C69.4662 34.9686 68.3589 35.5843 67.1769 36.0008L67.3626 36.5278C68.6055 36.0898 69.7667 35.4433 70.8457 34.59L70.4991 34.1518ZM67.1756 36.0013C66.0144 36.4171 64.785 36.6257 63.4858 36.6257V37.1845C64.846 37.1845 66.1394 36.9659 67.3639 36.5273L67.1756 36.0013ZM77.9278 36.3345C77.1211 36.3345 76.4152 36.1171 75.8002 35.686L75.4795 36.1435C76.1942 36.6445 77.0136 36.8932 77.9278 36.8932V36.3345ZM75.8002 35.686C75.1787 35.2503 74.6909 34.6588 74.3383 33.9032L73.832 34.1395C74.2225 34.9763 74.7712 35.647 75.4795 36.1435L75.8002 35.686ZM74.3394 33.9055C73.987 33.1319 73.8072 32.2404 73.8072 31.2249H73.2485C73.2485 32.3068 73.4402 33.2795 73.8309 34.1371L74.3394 33.9055ZM73.8072 31.2249V15.3205H73.2485V31.2249H73.8072ZM73.8072 15.3205C73.8072 14.9589 73.9203 14.6836 74.1354 14.4701L73.7417 14.0736C73.4092 14.4038 73.2485 14.8276 73.2485 15.3205H73.8072ZM74.1354 14.4701C74.3506 14.2564 74.6288 14.1434 74.9945 14.1434V13.5847C74.4998 13.5847 74.074 13.7436 73.7417 14.0736L74.1354 14.4701ZM74.9945 14.1434C75.3602 14.1434 75.6384 14.2564 75.8537 14.4701L76.2474 14.0736C75.915 13.7436 75.4892 13.5847 74.9945 13.5847V14.1434ZM75.8537 14.4701C76.0687 14.6836 76.1818 14.9589 76.1818 15.3205H76.7405C76.7405 14.8276 76.5799 14.4038 76.2474 14.0736L75.8537 14.4701ZM76.1818 15.3205V31.2249H76.7405V15.3205H76.1818ZM76.1818 31.2249C76.1818 31.9773 76.325 32.6225 76.631 33.1433L77.1127 32.8603C76.8711 32.449 76.7405 31.9096 76.7405 31.2249H76.1818ZM76.631 33.1433C76.94 33.6694 77.3723 33.9803 77.9278 33.9803V33.4215C77.6229 33.4215 77.3512 33.2664 77.1127 32.8603L76.631 33.1433ZM77.9278 33.9803H78.6612V33.4215H77.9278V33.9803ZM78.6612 33.9803C78.9792 33.9803 79.2119 34.0868 79.3884 34.2913L79.8113 33.9262C79.5185 33.5869 79.1253 33.4215 78.6612 33.4215V33.9803ZM79.3958 34.2995C79.5944 34.512 79.7018 34.7897 79.7018 35.1574H80.2605C80.2605 34.6705 80.1137 34.2492 79.8039 33.9179L79.3958 34.2995ZM79.7018 35.1574C79.7018 35.4877 79.565 35.7565 79.2589 35.9806L79.5888 36.4315C80.0258 36.1117 80.2605 35.6815 80.2605 35.1574H79.7018ZM79.2589 35.9806C78.9469 36.2088 78.5302 36.3345 77.9865 36.3345V36.8932C78.6161 36.8932 79.1577 36.7469 79.5888 36.4315L79.2589 35.9806ZM77.9865 36.3345H77.9278V36.8932H77.9865V36.3345ZM87.9461 36.451C86.3631 36.451 84.9622 36.1199 83.7365 35.4645L83.473 35.9572C84.7895 36.6611 86.2829 37.0097 87.9461 37.0097V36.451ZM83.741 35.4669C82.5311 34.7911 81.5795 33.8736 80.8815 32.7123L80.4026 33.0001C81.1518 34.2467 82.1753 35.2324 83.4685 35.9547L83.741 35.4669ZM80.8842 32.7168C80.2073 31.5405 79.8655 30.1914 79.8655 28.6616H79.3067C79.3067 30.2777 79.6689 31.725 80.4 32.9955L80.8842 32.7168ZM79.8655 28.6616C79.8655 27.1089 80.1893 25.7586 80.828 24.6021L80.3389 24.332C79.6478 25.5834 79.3067 27.0295 79.3067 28.6616H79.8655ZM80.8272 24.6034C81.4874 23.4234 82.39 22.509 83.5377 21.8551L83.2611 21.3696C82.0231 22.075 81.0483 23.0638 80.3396 24.3306L80.8272 24.6034ZM83.5407 21.8534C84.6859 21.1823 86.0049 20.8431 87.5061 20.8431V20.2844C85.9175 20.2844 84.4988 20.6443 83.2582 21.3713L83.5407 21.8534ZM87.5061 20.8431C88.989 20.8431 90.2461 21.1731 91.2894 21.8206L91.5841 21.3459C90.4372 20.6341 89.0738 20.2844 87.5061 20.2844V20.8431ZM91.2925 21.8225C92.3396 22.4538 93.1339 23.3343 93.6781 24.4711L94.1821 24.2299C93.5921 22.9975 92.7242 22.0332 91.581 21.344L91.2925 21.8225ZM93.6806 24.4761C94.2444 25.596 94.5307 26.9013 94.5307 28.3994H95.0895C95.0895 26.8293 94.7891 25.4353 94.1796 24.2249L93.6806 24.4761ZM94.5307 28.3994C94.5307 28.6965 94.4316 28.9351 94.2319 29.1333L94.6256 29.5298C94.9344 29.2232 95.0895 28.8403 95.0895 28.3994H94.5307ZM94.24 29.1256C94.0443 29.305 93.792 29.4017 93.4608 29.4017V29.9605C93.9117 29.9605 94.3048 29.8242 94.6175 29.5375L94.24 29.1256ZM93.4608 29.4017H81.6394V29.9605H93.4608V29.4017ZM81.9188 29.6811V27.3508H81.3601V29.6811H81.9188ZM81.6394 27.6302H93.3728V27.0714H81.6394V27.6302ZM93.216 27.1196L92.0133 27.9352L92.3269 28.3976L93.5296 27.582L93.216 27.1196ZM92.4494 28.1608C92.4291 27.1552 92.2263 26.25 91.8342 25.4509L91.3326 25.697C91.6837 26.4126 91.8719 27.2357 91.8908 28.172L92.4494 28.1608ZM91.8354 25.4534C91.443 24.633 90.8818 23.981 90.1521 23.5048L89.8467 23.9727C90.486 24.3899 90.9807 24.9613 91.3314 25.6945L91.8354 25.4534ZM90.1521 23.5048C89.414 23.0232 88.5273 22.7895 87.5061 22.7895V23.3482C88.4404 23.3482 89.216 23.5611 89.8467 23.9727L90.1521 23.5048ZM87.5061 22.7895C86.3501 22.7895 85.3398 23.0415 84.4867 23.5581L84.7761 24.036C85.5266 23.5816 86.4327 23.3482 87.5061 23.3482V22.7895ZM84.4841 23.5597C83.6553 24.0741 83.0233 24.785 82.5903 25.6859L83.0939 25.928C83.4822 25.1199 84.0431 24.491 84.7787 24.0344L84.4841 23.5597ZM82.5914 25.6837C82.1593 26.5624 81.9467 27.5571 81.9467 28.6616H82.5055C82.5055 27.6299 82.7036 26.7216 83.0928 25.9302L82.5914 25.6837ZM81.9467 28.6616C81.9467 29.774 82.2018 30.7752 82.7183 31.6574L83.2005 31.3751C82.7392 30.5872 82.5055 29.6853 82.5055 28.6616H81.9467ZM82.7183 31.6574C83.2327 32.536 83.9436 33.2311 84.8461 33.7403L85.1207 33.2537C84.3023 32.792 83.6639 32.1666 83.2005 31.3751L82.7183 31.6574ZM84.8461 33.7403C85.7536 34.2523 86.7896 34.5046 87.9461 34.5046V33.9459C86.8732 33.9459 85.9341 33.7126 85.1207 33.2537L84.8461 33.7403ZM87.9461 34.5046C88.5857 34.5046 89.2321 34.3918 89.8843 34.1692L89.7038 33.6404C89.1045 33.845 88.5189 33.9459 87.9461 33.9459V34.5046ZM89.889 34.1676C90.5505 33.9287 91.0956 33.6552 91.5156 33.3424L91.1819 32.8943C90.8197 33.1641 90.3284 33.4149 89.6992 33.6421L89.889 34.1676ZM91.5132 33.3442C91.7634 33.162 92.0195 33.0773 92.2874 33.0773V32.5185C91.8904 32.5185 91.5208 32.6475 91.1843 32.8925L91.5132 33.3442ZM92.3028 33.0769C92.5887 33.0611 92.8208 33.1382 93.017 33.3031L93.3765 32.8753C93.0643 32.613 92.6902 32.4959 92.272 32.519L92.3028 33.0769ZM93.0126 33.2993C93.3043 33.5549 93.4315 33.81 93.4458 34.0661L94.0037 34.0349C93.9789 33.5919 93.7541 33.2061 93.3809 32.8791L93.0126 33.2993ZM93.4458 34.0661C93.4591 34.3041 93.3613 34.5223 93.0865 34.731L93.4244 35.176C93.8144 34.8798 94.0295 34.4959 94.0037 34.0349L93.4458 34.0661ZM93.0824 34.7341C92.4484 35.2341 91.6479 35.6476 90.6743 35.9699L90.8499 36.5004C91.8709 36.1624 92.7327 35.7215 93.4284 35.1728L93.0824 34.7341ZM90.6727 35.9705C89.7196 36.2923 88.8111 36.451 87.9461 36.451V37.0097C88.8801 37.0097 89.849 36.8383 90.8515 36.4998L90.6727 35.9705ZM103.128 36.451C101.748 36.451 100.519 36.1139 99.4318 35.4439L99.1387 35.9195C100.32 36.6477 101.652 37.0097 103.128 37.0097V36.451ZM99.4348 35.4457C98.3412 34.7529 97.4739 33.8268 96.8311 32.6629L96.342 32.933C97.029 34.177 97.9609 35.1734 99.1358 35.9177L99.4348 35.4457ZM96.8337 32.6676C96.2118 31.4886 95.898 30.1553 95.898 28.6616H95.3392C95.3392 30.2361 95.6707 31.6604 96.3395 32.9283L96.8337 32.6676ZM95.898 28.6616C95.898 27.172 96.2392 25.842 96.9167 24.6646L96.4324 24.3859C95.702 25.6554 95.3392 27.0829 95.3392 28.6616H95.898ZM96.915 24.6675C97.6145 23.4848 98.548 22.5582 99.7181 21.8835L99.439 21.3995C98.1842 22.123 97.1818 23.1189 96.4341 24.3831L96.915 24.6675ZM99.7193 21.8828C100.906 21.191 102.235 20.8431 103.715 20.8431V20.2844C102.143 20.2844 100.716 20.655 99.4378 21.4002L99.7193 21.8828ZM103.715 20.8431C105.194 20.8431 106.513 21.191 107.679 21.8818L107.964 21.4012C106.705 20.655 105.286 20.2844 103.715 20.2844V20.8431ZM107.682 21.8835C108.851 22.5578 109.774 23.4835 110.454 24.6646L110.938 24.3859C110.21 23.1202 109.216 22.1234 107.961 21.3995L107.682 21.8835ZM110.455 24.6675C111.152 25.8444 111.502 27.1734 111.502 28.6616H112.061C112.061 27.0815 111.687 25.6529 110.936 24.3831L110.455 24.6675ZM111.781 28.3822H110.637V28.941H111.781V28.3822ZM110.358 28.6616C110.358 30.154 110.035 31.4861 109.394 32.6645L109.885 32.9313C110.575 31.6629 110.917 30.2375 110.917 28.6616H110.358ZM109.394 32.6659C108.771 33.8283 107.914 34.7534 106.821 35.4457L107.12 35.9177C108.296 35.1729 109.218 34.1755 109.886 32.9299L109.394 32.6659ZM106.824 35.4439C105.737 36.1139 104.508 36.451 103.128 36.451V37.0097C104.603 37.0097 105.936 36.6477 107.117 35.9195L106.824 35.4439ZM103.715 34.3881C104.757 34.3881 105.697 34.1439 106.527 33.6496L106.241 33.1696C105.506 33.6075 104.667 33.8294 103.715 33.8294V34.3881ZM106.531 33.647C107.355 33.1359 108.004 32.4499 108.477 31.5929L107.987 31.3231C107.56 32.0973 106.978 32.7123 106.237 33.1723L106.531 33.647ZM108.478 31.5905C108.951 30.7113 109.186 29.733 109.186 28.6616H108.627C108.627 29.6486 108.412 30.5346 107.986 31.3255L108.478 31.5905ZM109.186 28.6616C109.186 27.5718 108.952 26.5922 108.477 25.7303L107.987 26.0001C108.412 26.7694 108.627 27.6541 108.627 28.6616H109.186ZM108.478 25.7327C108.005 24.8551 107.354 24.1666 106.527 23.6736L106.241 24.1536C106.978 24.5926 107.559 25.2052 107.986 25.9977L108.478 25.7327ZM106.531 23.6762C105.701 23.161 104.759 22.906 103.715 22.906V23.4647C104.664 23.4647 105.502 23.6952 106.237 24.1509L106.531 23.6762ZM103.715 22.906C102.688 22.906 101.748 23.1615 100.901 23.6746L101.19 24.1525C101.946 23.6946 102.786 23.4647 103.715 23.4647V22.906ZM100.902 23.6736C100.076 24.1659 99.4164 24.853 98.9244 25.7283L99.4115 26.0021C99.8582 25.2073 100.45 24.5933 101.188 24.1536L100.902 23.6736ZM98.9233 25.7303C98.448 26.5922 98.2139 27.5718 98.2139 28.6616H98.7726C98.7726 27.6541 98.9883 26.7694 99.4126 26.0001L98.9233 25.7303ZM98.2139 28.6616C98.2139 29.733 98.4484 30.7113 98.922 31.5905L99.4139 31.3255C98.9879 30.5346 98.7726 29.6486 98.7726 28.6616H98.2139ZM98.9258 31.5973C99.4176 32.452 100.076 33.1366 100.898 33.647L101.193 33.1723C100.45 32.7117 99.8569 32.0952 99.4101 31.3186L98.9258 31.5973ZM100.905 33.6511C101.752 34.1434 102.69 34.3881 103.715 34.3881V33.8294C102.783 33.8294 101.942 33.608 101.186 33.1681L100.905 33.6511ZM110.285 36.3636C109.92 36.3636 109.627 36.2504 109.39 36.0302L109.01 36.44C109.359 36.7636 109.79 36.9223 110.285 36.9223V36.3636ZM109.403 36.0438C109.182 35.8081 109.069 35.5189 109.069 35.1574H108.51C108.51 35.6503 108.67 36.0796 108.996 36.4265L109.403 36.0438ZM109.069 35.1574V30.7006H108.51V35.1574H109.069ZM109.064 30.7502L109.622 27.6626L109.072 27.5633L108.514 30.651L109.064 30.7502ZM109.236 27.8695L111.671 28.9182L111.892 28.405L109.457 27.3564L109.236 27.8695ZM111.502 28.6616V35.1574H112.061V28.6616H111.502ZM111.502 35.1574C111.502 35.5129 111.383 35.8 111.144 36.0369L111.538 36.4334C111.886 36.0877 112.061 35.6562 112.061 35.1574H111.502ZM111.144 36.0369C110.929 36.2506 110.651 36.3636 110.285 36.3636V36.9223C110.78 36.9223 111.206 36.7634 111.538 36.4334L111.144 36.0369ZM128.173 36.3636C127.807 36.3636 127.515 36.2504 127.277 36.0302L126.898 36.44C127.247 36.7636 127.678 36.9223 128.173 36.9223V36.3636ZM127.291 36.0438C127.07 35.8081 126.956 35.5189 126.956 35.1574H126.397C126.397 35.6503 126.558 36.0796 126.884 36.4265L127.291 36.0438ZM126.956 35.1574V27.9916H126.397V35.1574H126.956ZM126.956 27.9916C126.956 26.8524 126.745 25.896 126.302 25.1411L125.82 25.4241C126.198 26.0674 126.397 26.917 126.397 27.9916H126.956ZM126.302 25.1411C125.864 24.3956 125.265 23.841 124.507 23.4858L124.27 23.9917C124.921 24.2968 125.437 24.7715 125.82 25.4241L126.302 25.1411ZM124.516 23.49C123.786 23.1172 122.949 22.9351 122.013 22.9351V23.4938C122.876 23.4938 123.623 23.6613 124.262 23.9876L124.516 23.49ZM122.013 22.9351C121.153 22.9351 120.367 23.1082 119.659 23.4594L119.908 23.9599C120.53 23.6509 121.23 23.4938 122.013 23.4938V22.9351ZM119.659 23.4594C118.956 23.8087 118.39 24.2852 117.97 24.8902L118.429 25.2089C118.791 24.6876 119.281 24.2708 119.908 23.9599L119.659 23.4594ZM117.973 24.8865C117.545 25.4813 117.333 26.1704 117.333 26.943H117.892C117.892 26.2785 118.072 25.7054 118.426 25.2127L117.973 24.8865ZM117.613 26.6636H115.765V27.2223H117.613V26.6636ZM116.044 26.943C116.044 25.7663 116.326 24.7305 116.883 23.8271L116.407 23.5339C115.791 24.5337 115.485 25.6728 115.485 26.943H116.044ZM116.882 23.8285C117.462 22.8997 118.247 22.1657 119.242 21.6248L118.975 21.1339C117.898 21.7193 117.04 22.5194 116.408 23.5326L116.882 23.8285ZM119.242 21.6248C120.234 21.0859 121.351 20.814 122.6 20.814V20.2552C121.267 20.2552 120.057 20.5464 118.975 21.1339L119.242 21.6248ZM122.6 20.814C123.907 20.814 125.063 21.0959 126.073 21.6531L126.342 21.1639C125.24 20.5559 123.99 20.2552 122.6 20.2552V20.814ZM126.078 21.656C127.103 22.1925 127.904 22.9872 128.485 24.0478L128.975 23.7794C128.344 22.6262 127.463 21.7507 126.337 21.161L126.078 21.656ZM128.487 24.051C129.084 25.1062 129.389 26.4153 129.389 27.9916H129.948C129.948 26.3443 129.628 24.9347 128.973 23.7761L128.487 24.051ZM129.389 27.9916V35.1574H129.948V27.9916H129.389ZM129.389 35.1574C129.389 35.5129 129.271 35.8 129.032 36.0369L129.426 36.4334C129.774 36.0877 129.948 35.6562 129.948 35.1574H129.389ZM129.032 36.0369C128.817 36.2506 128.539 36.3636 128.173 36.3636V36.9223C128.668 36.9223 129.093 36.7634 129.426 36.4334L129.032 36.0369ZM116.117 36.3636C115.751 36.3636 115.459 36.2504 115.221 36.0302L114.842 36.44C115.191 36.7636 115.622 36.9223 116.117 36.9223V36.3636ZM115.235 36.0438C115.014 35.8081 114.9 35.5189 114.9 35.1574H114.341C114.341 35.6503 114.502 36.0796 114.828 36.4265L115.235 36.0438ZM114.9 35.1574V22.1658H114.341V35.1574H114.9ZM114.9 22.1658C114.9 21.7809 115.016 21.4974 115.228 21.2863L114.835 20.8898C114.5 21.2225 114.341 21.6575 114.341 22.1658H114.9ZM115.221 21.2929C115.459 21.0728 115.751 20.9596 116.117 20.9596V20.4009C115.622 20.4009 115.191 20.5596 114.842 20.8831L115.221 21.2929ZM116.117 20.9596C116.506 20.9596 116.793 21.075 117.005 21.2863L117.399 20.8898C117.064 20.5574 116.627 20.4009 116.117 20.4009V20.9596ZM117.005 21.2863C117.218 21.4974 117.333 21.7809 117.333 22.1658H117.892C117.892 21.6575 117.734 21.2225 117.399 20.8898L117.005 21.2863ZM117.333 22.1658V35.1574H117.892V22.1658H117.333ZM117.333 35.1574C117.333 35.5189 117.22 35.8081 116.999 36.0438L117.406 36.4265C117.732 36.0796 117.892 35.6503 117.892 35.1574H117.333ZM117.005 36.0369C116.793 36.2482 116.506 36.3636 116.117 36.3636V36.9223C116.627 36.9223 117.064 36.7658 117.399 36.4334L117.005 36.0369Z" fill="#222222" mask="url(#path-16-outside-1)"/>
<path d="M96.6587 12.2511L96.6586 12.2512L96.6629 12.2554C96.8367 12.428 97.0538 12.5142 97.3027 12.5142H102.471C102.72 12.5142 102.937 12.428 103.111 12.2554C103.283 12.0844 103.372 11.8736 103.372 11.6322C103.372 11.3984 103.282 11.1935 103.113 11.0247C102.94 10.8429 102.723 10.7501 102.471 10.7501H98.9481L101.889 7.43414L101.89 7.43371C102.09 7.20582 102.286 6.95052 102.475 6.66821C102.677 6.38105 102.842 6.0789 102.968 5.76188C103.106 5.43837 103.176 5.11527 103.176 4.79377C103.176 4.09674 103.042 3.48517 102.765 2.96517C102.499 2.44647 102.117 2.0425 101.622 1.7573C101.126 1.47134 100.545 1.33174 99.8868 1.33174C99.235 1.33174 98.6415 1.48181 98.1102 1.78466L98.1102 1.78466L98.109 1.78536C97.589 2.08738 97.1763 2.50224 96.8725 3.02738C96.5667 3.54696 96.4157 4.13742 96.4157 4.79377C96.4157 5.02845 96.5065 5.234 96.6768 5.40314C96.849 5.57409 97.0607 5.66192 97.3027 5.66192C97.5506 5.66192 97.7649 5.57625 97.9307 5.40104C98.0997 5.23229 98.1897 5.02748 98.1897 4.79377C98.1897 4.46001 98.2626 4.16063 98.4061 3.89214C98.5601 3.61192 98.7634 3.39431 99.016 3.23544L99.016 3.23544L99.0172 3.23466C99.2768 3.06832 99.5652 2.98482 99.8868 2.98482C100.223 2.98482 100.501 3.06146 100.729 3.20707L100.729 3.20712L100.733 3.20942C100.962 3.34751 101.139 3.54688 101.265 3.81411C101.392 4.08175 101.458 4.40654 101.458 4.79377C101.458 5.01635 101.39 5.26022 101.243 5.52775L101.243 5.52772L101.24 5.53163C101.099 5.80312 100.894 6.09707 100.621 6.41355L100.621 6.41368L96.6578 11.014C96.4942 11.1791 96.4157 11.3902 96.4157 11.6322C96.4157 11.8698 96.4972 12.0793 96.6587 12.2511ZM105.607 8.43368L108.595 4.5295V8.43368H105.607ZM103.231 9.25559L103.231 9.2556L103.232 9.26576C103.255 9.47183 103.342 9.65425 103.487 9.80947C103.648 9.98147 103.866 10.059 104.118 10.059H108.595V11.6322C108.595 11.8698 108.676 12.0793 108.837 12.2511C109 12.424 109.204 12.5142 109.44 12.5142C109.689 12.5142 109.904 12.4278 110.07 12.2511C110.231 12.0793 110.313 11.8698 110.313 11.6322V10.059H110.976C111.211 10.059 111.419 9.98567 111.593 9.83643L111.593 9.83652L111.598 9.83215C111.77 9.67274 111.863 9.47503 111.863 9.24635C111.863 8.97485 111.783 8.73891 111.575 8.6014C111.403 8.48701 111.2 8.43368 110.976 8.43368H110.313V2.22764C110.313 1.98675 110.24 1.77354 110.088 1.5996C109.931 1.4203 109.724 1.33174 109.482 1.33174C109.333 1.33174 109.192 1.36618 109.063 1.43605L109.063 1.43592L109.057 1.43958C108.944 1.50664 108.845 1.59489 108.759 1.70197L108.759 1.70194L108.756 1.70513L103.407 8.66836L103.407 8.66834L103.405 8.67101C103.278 8.84302 103.22 9.04034 103.231 9.25559Z" fill="#219653" stroke="#219653" stroke-width="0.349206"/>
<mask id="path-19-outside-2" maskUnits="userSpaceOnUse" x="0.396973" y="23.3933" width="50" height="13" fill="black">
<rect fill="white" x="0.396973" y="23.3933" width="50" height="13"/>
<path d="M2.12332 35.2265C1.91845 35.2265 1.74618 35.1572 1.6065 35.0185C1.46681 34.8798 1.39697 34.7087 1.39697 34.5052V25.1146C1.39697 24.9019 1.46681 24.7308 1.6065 24.6014C1.74618 24.4627 1.91845 24.3933 2.12332 24.3933C2.40269 24.3933 2.61687 24.5228 2.76586 24.7817L7.13793 33.4788H6.69094L10.9513 24.7817C11.1003 24.5228 11.3144 24.3933 11.5938 24.3933C11.7987 24.3933 11.9709 24.4627 12.1106 24.6014C12.2503 24.7308 12.3201 24.9019 12.3201 25.1146V34.5052C12.3201 34.7087 12.2457 34.8798 12.0967 35.0185C11.957 35.1572 11.7894 35.2265 11.5938 35.2265C11.3889 35.2265 11.2167 35.1572 11.077 35.0185C10.9373 34.8798 10.8675 34.7087 10.8675 34.5052V27.112L11.1468 27.0427L7.48713 34.4498C7.32883 34.6902 7.1193 34.8104 6.85856 34.8104C6.55126 34.8104 6.32777 34.6671 6.18808 34.3804L2.57031 27.1814L2.84967 27.112V34.5052C2.84967 34.7087 2.77983 34.8798 2.64015 35.0185C2.50047 35.1572 2.32819 35.2265 2.12332 35.2265Z"/>
<path d="M17.8156 35.282C17.1358 35.282 16.5258 35.1156 15.9857 34.7827C15.4456 34.4405 15.0173 33.9828 14.7006 33.4094C14.3933 32.8269 14.2397 32.1703 14.2397 31.4398C14.2397 30.7092 14.4073 30.0527 14.7425 29.4701C15.0871 28.8875 15.5481 28.4298 16.1254 28.0969C16.7121 27.7547 17.3686 27.5836 18.0949 27.5836C18.8213 27.5836 19.4731 27.7547 20.0505 28.0969C20.6278 28.4298 21.0841 28.8875 21.4194 29.4701C21.7639 30.0527 21.9362 30.7092 21.9362 31.4398H21.3914C21.3914 32.1703 21.2331 32.8269 20.9165 33.4094C20.6092 33.9828 20.1855 34.4405 19.6454 34.7827C19.1053 35.1156 18.4954 35.282 17.8156 35.282ZM18.0949 34.0336C18.5699 34.0336 18.9936 33.9227 19.366 33.7007C19.7385 33.4695 20.0319 33.1598 20.246 32.7714C20.4602 32.3737 20.5673 31.9299 20.5673 31.4398C20.5673 30.9404 20.4602 30.4965 20.246 30.1081C20.0319 29.7105 19.7385 29.4007 19.366 29.1788C18.9936 28.9476 18.5699 28.832 18.0949 28.832C17.6293 28.832 17.2056 28.9476 16.8238 29.1788C16.4513 29.4007 16.1533 29.7105 15.9299 30.1081C15.7157 30.4965 15.6086 30.9404 15.6086 31.4398C15.6086 31.9299 15.7157 32.3737 15.9299 32.7714C16.1533 33.1598 16.4513 33.4695 16.8238 33.7007C17.2056 33.9227 17.6293 34.0336 18.0949 34.0336ZM21.2238 35.2404C21.019 35.2404 20.8467 35.1757 20.707 35.0462C20.5766 34.9075 20.5114 34.7364 20.5114 34.533V32.4107L20.7768 30.9404L21.9362 31.4398V34.533C21.9362 34.7364 21.8664 34.9075 21.7267 35.0462C21.5963 35.1757 21.4287 35.2404 21.2238 35.2404Z"/>
<path d="M26.4871 35.282C25.8353 35.282 25.23 35.1849 24.6713 34.9907C24.1218 34.7873 23.6935 34.533 23.3862 34.2278C23.2465 34.0799 23.186 33.9134 23.2046 33.7285C23.2325 33.5343 23.3256 33.3771 23.4839 33.2569C23.6702 33.1089 23.8518 33.0488 24.0287 33.0765C24.215 33.095 24.3733 33.1736 24.5036 33.3123C24.6619 33.488 24.9134 33.6545 25.2579 33.8117C25.6118 33.9597 26.0029 34.0336 26.4313 34.0336C26.9714 34.0336 27.3811 33.9458 27.6605 33.7701C27.9491 33.5944 28.0981 33.3678 28.1074 33.0904C28.1168 32.813 27.9817 32.5726 27.7024 32.3691C27.4323 32.1657 26.9341 31.9992 26.2078 31.8698C25.2672 31.6848 24.5828 31.4074 24.1544 31.0375C23.7354 30.6676 23.5259 30.2145 23.5259 29.6781C23.5259 29.2065 23.6655 28.8181 23.9449 28.513C24.2243 28.1986 24.5828 27.9674 25.0205 27.8194C25.4581 27.6622 25.9144 27.5836 26.3893 27.5836C27.004 27.5836 27.5487 27.6807 28.0236 27.8749C28.4986 28.0691 28.8757 28.3373 29.1551 28.6794C29.2854 28.8274 29.346 28.9846 29.3366 29.1511C29.3273 29.3083 29.2482 29.4423 29.0992 29.5533C28.9502 29.655 28.7733 29.6874 28.5684 29.6504C28.3635 29.6134 28.1913 29.5302 28.0516 29.4007C27.8188 29.1788 27.5673 29.0262 27.2973 28.943C27.0272 28.8598 26.7153 28.8181 26.3614 28.8181C25.9517 28.8181 25.6025 28.8875 25.3138 29.0262C25.0344 29.1649 24.8947 29.3684 24.8947 29.6365C24.8947 29.803 24.9366 29.9556 25.0205 30.0943C25.1136 30.2237 25.2905 30.344 25.5513 30.4549C25.812 30.5566 26.1938 30.6584 26.6966 30.7601C27.3951 30.8988 27.9445 31.0745 28.3449 31.2872C28.7546 31.4999 29.048 31.7495 29.2249 32.0362C29.4018 32.3136 29.4903 32.6373 29.4903 33.0072C29.4903 33.4326 29.3739 33.8163 29.1411 34.1585C28.9176 34.5006 28.5824 34.7734 28.1354 34.9769C27.6977 35.1803 27.1483 35.282 26.4871 35.282Z"/>
<path d="M33.7222 35.2265C33.2566 35.2265 32.8376 35.1109 32.4651 34.8798C32.0926 34.6393 31.7993 34.3157 31.5851 33.9088C31.3709 33.5019 31.2638 33.0442 31.2638 32.5356V25.9191C31.2638 25.7157 31.329 25.5492 31.4594 25.4198C31.5898 25.2903 31.7574 25.2256 31.9622 25.2256C32.1671 25.2256 32.3347 25.2903 32.4651 25.4198C32.5955 25.5492 32.6607 25.7157 32.6607 25.9191V32.5356C32.6607 32.9055 32.7631 33.2152 32.968 33.4649C33.1728 33.7146 33.4243 33.8394 33.7222 33.8394H34.1972C34.3648 33.8394 34.5045 33.9042 34.6162 34.0336C34.7373 34.1631 34.7978 34.3295 34.7978 34.533C34.7978 34.7364 34.7186 34.9029 34.5603 35.0323C34.4113 35.1618 34.2158 35.2265 33.9737 35.2265H33.7222ZM30.6213 29.1094C30.4257 29.1094 30.2674 29.054 30.1464 28.943C30.0253 28.832 29.9648 28.6933 29.9648 28.5269C29.9648 28.3419 30.0253 28.194 30.1464 28.083C30.2674 27.972 30.4257 27.9165 30.6213 27.9165H33.848C34.0435 27.9165 34.2018 27.972 34.3229 28.083C34.4439 28.194 34.5045 28.3419 34.5045 28.5269C34.5045 28.6933 34.4439 28.832 34.3229 28.943C34.2018 29.054 34.0435 29.1094 33.848 29.1094H30.6213Z"/>
<path d="M39.7896 35.282C39.0167 35.282 38.3276 35.1202 37.7223 34.7965C37.1263 34.4636 36.6561 34.0105 36.3115 33.4372C35.9763 32.8546 35.8086 32.1888 35.8086 31.4398C35.8086 30.6815 35.9669 30.0157 36.2836 29.4423C36.6095 28.8598 37.0565 28.4066 37.6245 28.083C38.1926 27.7501 38.8444 27.5836 39.5801 27.5836C40.3064 27.5836 40.9303 27.7455 41.4518 28.0691C41.9733 28.3835 42.3691 28.8228 42.6391 29.3869C42.9185 29.9417 43.0582 30.5844 43.0582 31.3149C43.0582 31.4906 42.9976 31.6386 42.8766 31.7588C42.7555 31.8698 42.6019 31.9252 42.4156 31.9252H36.7864V30.8156H42.3737L41.801 31.204C41.7917 30.7416 41.6986 30.3301 41.5217 29.9694C41.3447 29.5995 41.0933 29.3083 40.7674 29.0956C40.4414 28.8829 40.0457 28.7765 39.5801 28.7765C39.0493 28.7765 38.593 28.8921 38.2112 29.1233C37.8387 29.3545 37.5547 29.6735 37.3591 30.0804C37.1636 30.478 37.0658 30.9312 37.0658 31.4398C37.0658 31.9484 37.1822 32.4015 37.415 32.7991C37.6478 33.1968 37.9691 33.5112 38.3788 33.7423C38.7885 33.9735 39.2588 34.0891 39.7896 34.0891C40.0783 34.0891 40.3716 34.0383 40.6696 33.9365C40.9769 33.8256 41.2237 33.7007 41.4099 33.562C41.5496 33.4603 41.6986 33.4094 41.8569 33.4094C42.0245 33.4002 42.1689 33.4464 42.2899 33.5481C42.4482 33.6869 42.532 33.8394 42.5413 34.0059C42.5507 34.1723 42.4762 34.3157 42.3179 34.4359C42.0012 34.6856 41.6055 34.889 41.1306 35.0462C40.6649 35.2034 40.218 35.282 39.7896 35.282Z"/>
<path d="M45.2106 30.4827C45.2106 29.9278 45.3456 29.4331 45.6157 28.9985C45.895 28.5546 46.2675 28.2032 46.7331 27.9443C47.1987 27.6854 47.7109 27.5559 48.2696 27.5559C48.8284 27.5559 49.2428 27.6484 49.5128 27.8333C49.7922 28.009 49.8993 28.2217 49.8341 28.4714C49.8061 28.6008 49.7503 28.7026 49.6665 28.7765C49.592 28.8413 49.5035 28.8829 49.4011 28.9014C49.2986 28.9199 49.1869 28.9152 49.0658 28.8875C48.4698 28.7673 47.9344 28.758 47.4595 28.8598C46.9846 28.9615 46.6074 29.1511 46.328 29.4285C46.058 29.7059 45.923 30.0573 45.923 30.4827H45.2106ZM45.2246 35.2265C45.0011 35.2265 44.8288 35.1711 44.7077 35.0601C44.5867 34.9399 44.5261 34.7642 44.5261 34.533V28.3327C44.5261 28.1107 44.5867 27.9397 44.7077 27.8194C44.8288 27.6992 45.0011 27.6391 45.2246 27.6391C45.4574 27.6391 45.6296 27.6992 45.7414 27.8194C45.8624 27.9304 45.923 28.1015 45.923 28.3327V34.533C45.923 34.7549 45.8624 34.926 45.7414 35.0462C45.6296 35.1664 45.4574 35.2265 45.2246 35.2265Z"/>
</mask>
<path d="M2.12332 35.2265C1.91845 35.2265 1.74618 35.1572 1.6065 35.0185C1.46681 34.8798 1.39697 34.7087 1.39697 34.5052V25.1146C1.39697 24.9019 1.46681 24.7308 1.6065 24.6014C1.74618 24.4627 1.91845 24.3933 2.12332 24.3933C2.40269 24.3933 2.61687 24.5228 2.76586 24.7817L7.13793 33.4788H6.69094L10.9513 24.7817C11.1003 24.5228 11.3144 24.3933 11.5938 24.3933C11.7987 24.3933 11.9709 24.4627 12.1106 24.6014C12.2503 24.7308 12.3201 24.9019 12.3201 25.1146V34.5052C12.3201 34.7087 12.2457 34.8798 12.0967 35.0185C11.957 35.1572 11.7894 35.2265 11.5938 35.2265C11.3889 35.2265 11.2167 35.1572 11.077 35.0185C10.9373 34.8798 10.8675 34.7087 10.8675 34.5052V27.112L11.1468 27.0427L7.48713 34.4498C7.32883 34.6902 7.1193 34.8104 6.85856 34.8104C6.55126 34.8104 6.32777 34.6671 6.18808 34.3804L2.57031 27.1814L2.84967 27.112V34.5052C2.84967 34.7087 2.77983 34.8798 2.64015 35.0185C2.50047 35.1572 2.32819 35.2265 2.12332 35.2265Z" fill="#219653"/>
<path d="M17.8156 35.282C17.1358 35.282 16.5258 35.1156 15.9857 34.7827C15.4456 34.4405 15.0173 33.9828 14.7006 33.4094C14.3933 32.8269 14.2397 32.1703 14.2397 31.4398C14.2397 30.7092 14.4073 30.0527 14.7425 29.4701C15.0871 28.8875 15.5481 28.4298 16.1254 28.0969C16.7121 27.7547 17.3686 27.5836 18.0949 27.5836C18.8213 27.5836 19.4731 27.7547 20.0505 28.0969C20.6278 28.4298 21.0841 28.8875 21.4194 29.4701C21.7639 30.0527 21.9362 30.7092 21.9362 31.4398H21.3914C21.3914 32.1703 21.2331 32.8269 20.9165 33.4094C20.6092 33.9828 20.1855 34.4405 19.6454 34.7827C19.1053 35.1156 18.4954 35.282 17.8156 35.282ZM18.0949 34.0336C18.5699 34.0336 18.9936 33.9227 19.366 33.7007C19.7385 33.4695 20.0319 33.1598 20.246 32.7714C20.4602 32.3737 20.5673 31.9299 20.5673 31.4398C20.5673 30.9404 20.4602 30.4965 20.246 30.1081C20.0319 29.7105 19.7385 29.4007 19.366 29.1788C18.9936 28.9476 18.5699 28.832 18.0949 28.832C17.6293 28.832 17.2056 28.9476 16.8238 29.1788C16.4513 29.4007 16.1533 29.7105 15.9299 30.1081C15.7157 30.4965 15.6086 30.9404 15.6086 31.4398C15.6086 31.9299 15.7157 32.3737 15.9299 32.7714C16.1533 33.1598 16.4513 33.4695 16.8238 33.7007C17.2056 33.9227 17.6293 34.0336 18.0949 34.0336ZM21.2238 35.2404C21.019 35.2404 20.8467 35.1757 20.707 35.0462C20.5766 34.9075 20.5114 34.7364 20.5114 34.533V32.4107L20.7768 30.9404L21.9362 31.4398V34.533C21.9362 34.7364 21.8664 34.9075 21.7267 35.0462C21.5963 35.1757 21.4287 35.2404 21.2238 35.2404Z" fill="#219653"/>
<path d="M26.4871 35.282C25.8353 35.282 25.23 35.1849 24.6713 34.9907C24.1218 34.7873 23.6935 34.533 23.3862 34.2278C23.2465 34.0799 23.186 33.9134 23.2046 33.7285C23.2325 33.5343 23.3256 33.3771 23.4839 33.2569C23.6702 33.1089 23.8518 33.0488 24.0287 33.0765C24.215 33.095 24.3733 33.1736 24.5036 33.3123C24.6619 33.488 24.9134 33.6545 25.2579 33.8117C25.6118 33.9597 26.0029 34.0336 26.4313 34.0336C26.9714 34.0336 27.3811 33.9458 27.6605 33.7701C27.9491 33.5944 28.0981 33.3678 28.1074 33.0904C28.1168 32.813 27.9817 32.5726 27.7024 32.3691C27.4323 32.1657 26.9341 31.9992 26.2078 31.8698C25.2672 31.6848 24.5828 31.4074 24.1544 31.0375C23.7354 30.6676 23.5259 30.2145 23.5259 29.6781C23.5259 29.2065 23.6655 28.8181 23.9449 28.513C24.2243 28.1986 24.5828 27.9674 25.0205 27.8194C25.4581 27.6622 25.9144 27.5836 26.3893 27.5836C27.004 27.5836 27.5487 27.6807 28.0236 27.8749C28.4986 28.0691 28.8757 28.3373 29.1551 28.6794C29.2854 28.8274 29.346 28.9846 29.3366 29.1511C29.3273 29.3083 29.2482 29.4423 29.0992 29.5533C28.9502 29.655 28.7733 29.6874 28.5684 29.6504C28.3635 29.6134 28.1913 29.5302 28.0516 29.4007C27.8188 29.1788 27.5673 29.0262 27.2973 28.943C27.0272 28.8598 26.7153 28.8181 26.3614 28.8181C25.9517 28.8181 25.6025 28.8875 25.3138 29.0262C25.0344 29.1649 24.8947 29.3684 24.8947 29.6365C24.8947 29.803 24.9366 29.9556 25.0205 30.0943C25.1136 30.2237 25.2905 30.344 25.5513 30.4549C25.812 30.5566 26.1938 30.6584 26.6966 30.7601C27.3951 30.8988 27.9445 31.0745 28.3449 31.2872C28.7546 31.4999 29.048 31.7495 29.2249 32.0362C29.4018 32.3136 29.4903 32.6373 29.4903 33.0072C29.4903 33.4326 29.3739 33.8163 29.1411 34.1585C28.9176 34.5006 28.5824 34.7734 28.1354 34.9769C27.6977 35.1803 27.1483 35.282 26.4871 35.282Z" fill="#219653"/>
<path d="M33.7222 35.2265C33.2566 35.2265 32.8376 35.1109 32.4651 34.8798C32.0926 34.6393 31.7993 34.3157 31.5851 33.9088C31.3709 33.5019 31.2638 33.0442 31.2638 32.5356V25.9191C31.2638 25.7157 31.329 25.5492 31.4594 25.4198C31.5898 25.2903 31.7574 25.2256 31.9622 25.2256C32.1671 25.2256 32.3347 25.2903 32.4651 25.4198C32.5955 25.5492 32.6607 25.7157 32.6607 25.9191V32.5356C32.6607 32.9055 32.7631 33.2152 32.968 33.4649C33.1728 33.7146 33.4243 33.8394 33.7222 33.8394H34.1972C34.3648 33.8394 34.5045 33.9042 34.6162 34.0336C34.7373 34.1631 34.7978 34.3295 34.7978 34.533C34.7978 34.7364 34.7186 34.9029 34.5603 35.0323C34.4113 35.1618 34.2158 35.2265 33.9737 35.2265H33.7222ZM30.6213 29.1094C30.4257 29.1094 30.2674 29.054 30.1464 28.943C30.0253 28.832 29.9648 28.6933 29.9648 28.5269C29.9648 28.3419 30.0253 28.194 30.1464 28.083C30.2674 27.972 30.4257 27.9165 30.6213 27.9165H33.848C34.0435 27.9165 34.2018 27.972 34.3229 28.083C34.4439 28.194 34.5045 28.3419 34.5045 28.5269C34.5045 28.6933 34.4439 28.832 34.3229 28.943C34.2018 29.054 34.0435 29.1094 33.848 29.1094H30.6213Z" fill="#219653"/>
<path d="M39.7896 35.282C39.0167 35.282 38.3276 35.1202 37.7223 34.7965C37.1263 34.4636 36.6561 34.0105 36.3115 33.4372C35.9763 32.8546 35.8086 32.1888 35.8086 31.4398C35.8086 30.6815 35.9669 30.0157 36.2836 29.4423C36.6095 28.8598 37.0565 28.4066 37.6245 28.083C38.1926 27.7501 38.8444 27.5836 39.5801 27.5836C40.3064 27.5836 40.9303 27.7455 41.4518 28.0691C41.9733 28.3835 42.3691 28.8228 42.6391 29.3869C42.9185 29.9417 43.0582 30.5844 43.0582 31.3149C43.0582 31.4906 42.9976 31.6386 42.8766 31.7588C42.7555 31.8698 42.6019 31.9252 42.4156 31.9252H36.7864V30.8156H42.3737L41.801 31.204C41.7917 30.7416 41.6986 30.3301 41.5217 29.9694C41.3447 29.5995 41.0933 29.3083 40.7674 29.0956C40.4414 28.8829 40.0457 28.7765 39.5801 28.7765C39.0493 28.7765 38.593 28.8921 38.2112 29.1233C37.8387 29.3545 37.5547 29.6735 37.3591 30.0804C37.1636 30.478 37.0658 30.9312 37.0658 31.4398C37.0658 31.9484 37.1822 32.4015 37.415 32.7991C37.6478 33.1968 37.9691 33.5112 38.3788 33.7423C38.7885 33.9735 39.2588 34.0891 39.7896 34.0891C40.0783 34.0891 40.3716 34.0383 40.6696 33.9365C40.9769 33.8256 41.2237 33.7007 41.4099 33.562C41.5496 33.4603 41.6986 33.4094 41.8569 33.4094C42.0245 33.4002 42.1689 33.4464 42.2899 33.5481C42.4482 33.6869 42.532 33.8394 42.5413 34.0059C42.5507 34.1723 42.4762 34.3157 42.3179 34.4359C42.0012 34.6856 41.6055 34.889 41.1306 35.0462C40.6649 35.2034 40.218 35.282 39.7896 35.282Z" fill="#219653"/>
<path d="M45.2106 30.4827C45.2106 29.9278 45.3456 29.4331 45.6157 28.9985C45.895 28.5546 46.2675 28.2032 46.7331 27.9443C47.1987 27.6854 47.7109 27.5559 48.2696 27.5559C48.8284 27.5559 49.2428 27.6484 49.5128 27.8333C49.7922 28.009 49.8993 28.2217 49.8341 28.4714C49.8061 28.6008 49.7503 28.7026 49.6665 28.7765C49.592 28.8413 49.5035 28.8829 49.4011 28.9014C49.2986 28.9199 49.1869 28.9152 49.0658 28.8875C48.4698 28.7673 47.9344 28.758 47.4595 28.8598C46.9846 28.9615 46.6074 29.1511 46.328 29.4285C46.058 29.7059 45.923 30.0573 45.923 30.4827H45.2106ZM45.2246 35.2265C45.0011 35.2265 44.8288 35.1711 44.7077 35.0601C44.5867 34.9399 44.5261 34.7642 44.5261 34.533V28.3327C44.5261 28.1107 44.5867 27.9397 44.7077 27.8194C44.8288 27.6992 45.0011 27.6391 45.2246 27.6391C45.4574 27.6391 45.6296 27.6992 45.7414 27.8194C45.8624 27.9304 45.923 28.1015 45.923 28.3327V34.533C45.923 34.7549 45.8624 34.926 45.7414 35.0462C45.6296 35.1664 45.4574 35.2265 45.2246 35.2265Z" fill="#219653"/>
<path d="M1.6065 35.0185L1.40965 35.2167H1.40965L1.6065 35.0185ZM1.6065 24.6014L1.79651 24.8064L1.80335 24.7996L1.6065 24.6014ZM2.76586 24.7817L3.01546 24.6562L3.01193 24.6492L3.008 24.6424L2.76586 24.7817ZM7.13793 33.4788V33.7582H7.59104L7.38753 33.3533L7.13793 33.4788ZM6.69094 33.4788L6.44006 33.3559L6.24301 33.7582H6.69094V33.4788ZM10.9513 24.7817L10.7091 24.6424L10.7045 24.6504L10.7004 24.6588L10.9513 24.7817ZM12.1106 24.6014L11.9137 24.7997L11.9207 24.8063L12.1106 24.6014ZM12.0967 35.0185L11.9062 34.8139L11.8998 34.8202L12.0967 35.0185ZM10.8675 27.112L10.8001 26.8409L10.5881 26.8935V27.112H10.8675ZM11.1468 27.0427L11.3973 27.1664L11.6641 26.6264L11.0795 26.7715L11.1468 27.0427ZM7.48713 34.4498L7.72046 34.6034L7.72995 34.589L7.73759 34.5735L7.48713 34.4498ZM6.18808 34.3804L6.43924 34.258L6.4377 34.255L6.18808 34.3804ZM2.57031 27.1814L2.50299 26.9102L2.16372 26.9945L2.32069 27.3068L2.57031 27.1814ZM2.84967 27.112H3.12904V26.7548L2.78236 26.8409L2.84967 27.112ZM15.9857 34.7827L15.8362 35.0187L15.8391 35.0205L15.9857 34.7827ZM14.7006 33.4094L14.4535 33.5398L14.4561 33.5445L14.7006 33.4094ZM14.7425 29.4701L14.5021 29.3279L14.5004 29.3307L14.7425 29.4701ZM16.1254 28.0969L16.265 28.3389L16.2661 28.3382L16.1254 28.0969ZM20.0505 28.0969L19.9081 28.3372L19.9109 28.3389L20.0505 28.0969ZM21.4194 29.4701L21.1772 29.6094L21.1789 29.6123L21.4194 29.4701ZM21.3914 31.4398V31.1604H21.1121V31.4398H21.3914ZM20.9165 33.4094L20.6711 33.276L20.6703 33.2775L20.9165 33.4094ZM19.6454 34.7827L19.792 35.0205L19.7949 35.0187L19.6454 34.7827ZM19.366 33.7007L19.5091 33.9408L19.5134 33.9381L19.366 33.7007ZM20.246 32.7714L20.4907 32.9063L20.492 32.9039L20.246 32.7714ZM20.246 30.1081L20.0001 30.2406L20.0014 30.2431L20.246 30.1081ZM19.366 29.1788L19.2187 29.4162L19.223 29.4188L19.366 29.1788ZM16.8238 29.1788L16.9668 29.4188L16.9685 29.4178L16.8238 29.1788ZM15.9299 30.1081L15.6863 29.9713L15.6852 29.9732L15.9299 30.1081ZM15.9299 32.7714L15.6838 32.9039L15.6877 32.9107L15.9299 32.7714ZM16.8238 33.7007L16.6764 33.9382L16.6834 33.9423L16.8238 33.7007ZM20.707 35.0462L20.5034 35.2375L20.51 35.2446L20.5171 35.2511L20.707 35.0462ZM20.5114 32.4107L20.2365 32.3611L20.2321 32.3857V32.4107H20.5114ZM20.7768 30.9404L20.8873 30.6838L20.5644 30.5447L20.5019 30.8908L20.7768 30.9404ZM21.7267 35.0462L21.9235 35.2444L21.7267 35.0462ZM24.6713 34.9907L24.5742 35.2528L24.5795 35.2546L24.6713 34.9907ZM23.3862 34.2278L23.1829 34.4197L23.1893 34.4261L23.3862 34.2278ZM23.2046 33.7285L22.9278 33.6887L22.9266 33.7005L23.2046 33.7285ZM23.4839 33.2569L23.6529 33.4794L23.6577 33.4756L23.4839 33.2569ZM24.0287 33.0765L23.9854 33.3525L23.9932 33.3538L24.0011 33.3545L24.0287 33.0765ZM24.5036 33.3123L24.7112 33.1253L24.7072 33.121L24.5036 33.3123ZM25.2579 33.8117L25.1419 34.066L25.1502 34.0694L25.2579 33.8117ZM27.6605 33.7701L27.5152 33.5314L27.5117 33.5336L27.6605 33.7701ZM28.1074 33.0904L28.3867 33.0998L28.1074 33.0904ZM27.7024 32.3691L27.5342 32.5923L27.5379 32.5949L27.7024 32.3691ZM26.2078 31.8698L26.1538 32.1439L26.1587 32.1448L26.2078 31.8698ZM24.1544 31.0375L23.9695 31.247L23.9718 31.2489L24.1544 31.0375ZM23.9449 28.513L24.151 28.7016L24.1537 28.6985L23.9449 28.513ZM25.0205 27.8194L25.1099 28.0841L25.1149 28.0824L25.0205 27.8194ZM28.0236 27.8749L28.1294 27.6163V27.6163L28.0236 27.8749ZM29.1551 28.6794L28.9385 28.8563L28.9455 28.8641L29.1551 28.6794ZM29.3366 29.1511L29.6155 29.1676L29.6156 29.1667L29.3366 29.1511ZM29.0992 29.5533L29.2568 29.7842L29.2661 29.7774L29.0992 29.5533ZM28.5684 29.6504L28.5188 29.9253L28.5684 29.6504ZM28.0516 29.4007L27.8588 29.603L27.8617 29.6056L28.0516 29.4007ZM27.2973 28.943L27.215 29.21V29.21L27.2973 28.943ZM25.3138 29.0262L25.1928 28.7744L25.1896 28.776L25.3138 29.0262ZM25.0205 30.0943L24.7813 30.2387L24.7871 30.2483L24.7937 30.2574L25.0205 30.0943ZM25.5513 30.4549L25.4418 30.7121L25.4497 30.7152L25.5513 30.4549ZM26.6966 30.7601L26.6413 31.0339L26.6422 31.0341L26.6966 30.7601ZM28.3449 31.2872L28.2138 31.5339L28.2162 31.5351L28.3449 31.2872ZM29.2249 32.0362L28.9871 32.183L28.9894 32.1864L29.2249 32.0362ZM29.1411 34.1585L28.9101 34.0013L28.9072 34.0057L29.1411 34.1585ZM28.1354 34.9769L28.0196 34.7226L28.0176 34.7235L28.1354 34.9769ZM32.4651 34.8798L32.3136 35.1145L32.3178 35.1171L32.4651 34.8798ZM31.5851 33.9088L31.3379 34.0389L31.5851 33.9088ZM32.4651 25.4198L32.662 25.2215L32.6619 25.2215L32.4651 25.4198ZM32.968 33.4649L33.1839 33.2877L32.968 33.4649ZM34.6162 34.0336L34.4046 34.2163L34.4122 34.2244L34.6162 34.0336ZM34.5603 35.0323L34.3834 34.816L34.3771 34.8215L34.5603 35.0323ZM30.1464 28.943L29.9576 29.1489H29.9576L30.1464 28.943ZM30.1464 28.083L29.9576 27.8771L29.9576 27.8771L30.1464 28.083ZM34.3229 28.083L34.5117 27.8771V27.8771L34.3229 28.083ZM34.3229 28.943L34.5117 29.1489L34.3229 28.943ZM37.7223 34.7965L37.586 35.0405L37.5906 35.0429L37.7223 34.7965ZM36.3115 33.4372L36.0693 33.5765L36.072 33.5811L36.3115 33.4372ZM36.2836 29.4423L36.0398 29.3059L36.039 29.3073L36.2836 29.4423ZM37.6245 28.083L37.7628 28.3257L37.7658 28.324L37.6245 28.083ZM41.4518 28.0691L41.3045 28.3065L41.3076 28.3084L41.4518 28.0691ZM42.6391 29.3869L42.3871 29.5075L42.3896 29.5125L42.6391 29.3869ZM42.8766 31.7588L43.0655 31.9649L43.0734 31.957L42.8766 31.7588ZM36.7864 31.9252H36.5071V32.2046H36.7864V31.9252ZM36.7864 30.8156V30.5362H36.5071V30.8156H36.7864ZM42.3737 30.8156L42.5305 31.0468L43.2834 30.5362H42.3737V30.8156ZM41.801 31.204L41.5217 31.2096L41.5321 31.7239L41.9578 31.4352L41.801 31.204ZM41.5217 29.9694L41.2696 30.09L41.2709 30.0925L41.5217 29.9694ZM38.2112 29.1233L38.0665 28.8843L38.0639 28.8859L38.2112 29.1233ZM37.3591 30.0804L37.6098 30.2037L37.6109 30.2014L37.3591 30.0804ZM37.415 32.7991L37.1739 32.9403L37.415 32.7991ZM38.3788 33.7423L38.5161 33.499L38.3788 33.7423ZM40.6696 33.9365L40.7599 34.201L40.7645 34.1993L40.6696 33.9365ZM41.4099 33.562L41.2454 33.3362L41.243 33.338L41.4099 33.562ZM41.8569 33.4094V33.6888H41.8646L41.8723 33.6884L41.8569 33.4094ZM42.2899 33.5481L42.4741 33.338L42.4696 33.3343L42.2899 33.5481ZM42.5413 34.0059L42.8203 33.9903L42.5413 34.0059ZM42.3179 34.4359L42.1489 34.2134L42.1449 34.2165L42.3179 34.4359ZM41.1306 35.0462L41.0428 34.781L41.0412 34.7815L41.1306 35.0462ZM45.2106 30.4827H44.9312V30.762H45.2106V30.4827ZM45.6157 28.9985L45.3792 28.8497L45.3784 28.851L45.6157 28.9985ZM46.7331 27.9443L46.5974 27.7001L46.7331 27.9443ZM49.5128 27.8333L49.3548 28.064L49.3641 28.0698L49.5128 27.8333ZM49.8341 28.4714L49.5635 28.4007L49.561 28.4124L49.8341 28.4714ZM49.6665 28.7765L49.8497 28.9874L49.8513 28.986L49.6665 28.7765ZM49.4011 28.9014L49.3514 28.6265L49.4011 28.9014ZM49.0658 28.8875L49.1283 28.6151L49.1211 28.6137L49.0658 28.8875ZM46.328 29.4285L46.1312 29.2302L46.1279 29.2336L46.328 29.4285ZM45.923 30.4827V30.762H46.2023V30.4827H45.923ZM44.7077 35.0601L44.5107 35.2585L44.519 35.266L44.7077 35.0601ZM44.7077 27.8194L44.9046 28.0177L44.7077 27.8194ZM45.7414 27.8194L45.5368 28.0096L45.5444 28.0178L45.5526 28.0254L45.7414 27.8194ZM45.7414 35.0462L45.5444 34.8478L45.5368 34.856L45.7414 35.0462ZM2.12332 34.9472C1.98886 34.9472 1.88837 34.9047 1.80335 34.8202L1.40965 35.2167C1.60399 35.4097 1.84805 35.5059 2.12332 35.5059V34.9472ZM1.80335 34.8202C1.71842 34.7359 1.67634 34.637 1.67634 34.5052H1.11761C1.11761 34.7803 1.21521 35.0236 1.40965 35.2167L1.80335 34.8202ZM1.67634 34.5052V25.1146H1.11761V34.5052H1.67634ZM1.67634 25.1146C1.67634 24.9696 1.72074 24.8764 1.7964 24.8063L1.41659 24.3965C1.21289 24.5853 1.11761 24.8342 1.11761 25.1146H1.67634ZM1.80335 24.7996C1.88837 24.7152 1.98886 24.6727 2.12332 24.6727V24.1139C1.84805 24.1139 1.60399 24.2102 1.40965 24.4031L1.80335 24.7996ZM2.12332 24.6727C2.29454 24.6727 2.42035 24.7414 2.52372 24.921L3.008 24.6424C2.81338 24.3042 2.51083 24.1139 2.12332 24.1139V24.6727ZM2.51626 24.9072L6.88832 33.6043L7.38753 33.3533L3.01546 24.6562L2.51626 24.9072ZM7.13793 33.1994H6.69094V33.7582H7.13793V33.1994ZM6.94182 33.6017L11.2021 24.9046L10.7004 24.6588L6.44006 33.3559L6.94182 33.6017ZM11.1934 24.921C11.2968 24.7414 11.4226 24.6727 11.5938 24.6727V24.1139C11.2063 24.1139 10.9037 24.3042 10.7091 24.6424L11.1934 24.921ZM11.5938 24.6727C11.7283 24.6727 11.8288 24.7152 11.9138 24.7996L12.3075 24.4031C12.1131 24.2102 11.8691 24.1139 11.5938 24.1139V24.6727ZM11.9207 24.8063C11.9964 24.8764 12.0408 24.9696 12.0408 25.1146H12.5995C12.5995 24.8342 12.5042 24.5853 12.3005 24.3965L11.9207 24.8063ZM12.0408 25.1146V34.5052H12.5995V25.1146H12.0408ZM12.0408 34.5052C12.0408 34.6311 11.9986 34.7281 11.9063 34.814L12.287 35.2229C12.4927 35.0314 12.5995 34.7863 12.5995 34.5052H12.0408ZM11.8998 34.8202C11.8121 34.9074 11.7151 34.9472 11.5938 34.9472V35.5059C11.8637 35.5059 12.1019 35.407 12.2935 35.2167L11.8998 34.8202ZM11.5938 34.9472C11.4593 34.9472 11.3588 34.9047 11.2738 34.8202L10.8801 35.2167C11.0745 35.4097 11.3185 35.5059 11.5938 35.5059V34.9472ZM11.2738 34.8202C11.1889 34.7359 11.1468 34.637 11.1468 34.5052H10.5881C10.5881 34.7803 10.6857 35.0236 10.8801 35.2167L11.2738 34.8202ZM11.1468 34.5052V27.112H10.5881V34.5052H11.1468ZM10.9348 27.3832L11.2141 27.3138L11.0795 26.7715L10.8001 26.8409L10.9348 27.3832ZM10.8964 26.9189L7.23667 34.326L7.73759 34.5735L11.3973 27.1664L10.8964 26.9189ZM7.2538 34.2961C7.14082 34.4677 7.01434 34.531 6.85856 34.531V35.0898C7.22427 35.0898 7.51683 34.9127 7.72046 34.6034L7.2538 34.2961ZM6.85856 34.531C6.74977 34.531 6.67129 34.5062 6.61128 34.4677C6.55065 34.4289 6.49115 34.3646 6.43922 34.258L5.93695 34.5028C6.02471 34.6829 6.14678 34.8336 6.30965 34.9381C6.47313 35.0429 6.66005 35.0898 6.85856 35.0898V34.531ZM6.4377 34.255L2.81992 27.0559L2.32069 27.3068L5.93847 34.5058L6.4377 34.255ZM2.63762 27.4525L2.91698 27.3832L2.78236 26.8409L2.50299 26.9102L2.63762 27.4525ZM2.57031 27.112V34.5052H3.12904V27.112H2.57031ZM2.57031 34.5052C2.57031 34.637 2.52822 34.7359 2.4433 34.8202L2.837 35.2167C3.03144 35.0236 3.12904 34.7803 3.12904 34.5052H2.57031ZM2.4433 34.8202C2.35828 34.9047 2.25778 34.9472 2.12332 34.9472V35.5059C2.3986 35.5059 2.64265 35.4097 2.837 35.2167L2.4433 34.8202ZM17.8156 35.0027C17.1837 35.0027 16.6252 34.8486 16.1323 34.5448L15.8391 35.0205C16.4265 35.3825 17.0879 35.5614 17.8156 35.5614V35.0027ZM16.1352 34.5467C15.6358 34.2303 15.2397 33.8077 14.9452 33.2744L14.4561 33.5445C14.7948 34.1579 15.2555 34.6508 15.8362 35.0187L16.1352 34.5467ZM14.9477 33.2791C14.6639 32.7409 14.5191 32.1299 14.5191 31.4398H13.9603C13.9603 32.2107 14.1228 32.9128 14.4535 33.5398L14.9477 33.2791ZM14.5191 31.4398C14.5191 30.7538 14.6759 30.146 14.9847 29.6094L14.5004 29.3307C14.1387 29.9594 13.9603 30.6647 13.9603 31.4398H14.5191ZM14.983 29.6123C15.3035 29.0704 15.7299 28.6474 16.265 28.3389L15.9859 27.8548C15.3662 28.2122 14.8707 28.7046 14.5021 29.3279L14.983 29.6123ZM16.2661 28.3382C16.8071 28.0227 17.4145 27.863 18.0949 27.863V27.3043C17.3227 27.3043 16.617 27.4867 15.9847 27.8555L16.2661 28.3382ZM18.0949 27.863C18.7754 27.863 19.3773 28.0227 19.9081 28.3372L20.1929 27.8565C19.5689 27.4867 18.8671 27.3043 18.0949 27.3043V27.863ZM19.9109 28.3389C20.4453 28.647 20.8663 29.0691 21.1772 29.6094L21.6615 29.3307C21.3019 28.7059 20.8104 28.2126 20.19 27.8548L19.9109 28.3389ZM21.1789 29.6123C21.496 30.1484 21.6568 30.7551 21.6568 31.4398H22.2156C22.2156 30.6633 22.0319 29.9569 21.6598 29.3279L21.1789 29.6123ZM21.9362 31.1604H21.3914V31.7191H21.9362V31.1604ZM21.1121 31.4398C21.1121 32.1285 20.9632 32.7385 20.6711 33.276L21.162 33.5428C21.503 32.9153 21.6708 32.2121 21.6708 31.4398H21.1121ZM20.6703 33.2775C20.3853 33.8091 19.9946 34.2307 19.4959 34.5467L19.7949 35.0187C20.3764 34.6503 20.8331 34.1564 21.1627 33.5414L20.6703 33.2775ZM19.4988 34.5448C19.006 34.8486 18.4474 35.0027 17.8156 35.0027V35.5614C18.5433 35.5614 19.2047 35.3825 19.792 35.0205L19.4988 34.5448ZM18.0949 34.313C18.6152 34.313 19.0892 34.1908 19.509 33.9407L19.223 33.4607C18.8979 33.6545 18.5245 33.7543 18.0949 33.7543V34.313ZM19.5134 33.9381C19.927 33.6814 20.2537 33.3361 20.4907 32.9063L20.0014 32.6365C19.8101 32.9834 19.55 33.2577 19.2187 33.4634L19.5134 33.9381ZM20.492 32.9039C20.7299 32.4621 20.8467 31.9721 20.8467 31.4398H20.2879C20.2879 31.8877 20.1905 32.2854 20.0001 32.6389L20.492 32.9039ZM20.8467 31.4398C20.8467 30.8993 20.7304 30.4079 20.4907 29.9732L20.0014 30.2431C20.1901 30.5851 20.2879 30.9816 20.2879 31.4398H20.8467ZM20.492 29.9757C20.2549 29.5355 19.9268 29.1877 19.509 28.9388L19.223 29.4188C19.5503 29.6138 19.8088 29.8855 20.0001 30.2406L20.492 29.9757ZM19.5134 28.9414C19.093 28.6805 18.6174 28.5527 18.0949 28.5527V29.1114C18.5223 29.1114 18.8941 29.2147 19.2187 29.4162L19.5134 28.9414ZM18.0949 28.5527C17.5806 28.5527 17.1065 28.681 16.6791 28.9398L16.9685 29.4178C17.3047 29.2142 17.678 29.1114 18.0949 29.1114V28.5527ZM16.6808 28.9388C16.2642 29.187 15.9324 29.5334 15.6863 29.9713L16.1734 30.245C16.3742 29.8877 16.6385 29.6144 16.9668 29.4188L16.6808 28.9388ZM15.6852 29.9732C15.4455 30.4079 15.3292 30.8993 15.3292 31.4398H15.8879C15.8879 30.9816 15.9858 30.5851 16.1745 30.2431L15.6852 29.9732ZM15.3292 31.4398C15.3292 31.9721 15.4459 32.4621 15.6839 32.9039L16.1758 32.6389C15.9854 32.2854 15.8879 31.8877 15.8879 31.4398H15.3292ZM15.6877 32.9107C15.9337 33.3382 16.2639 33.682 16.6765 33.9381L16.9711 33.4634C16.6388 33.2571 16.373 32.9813 16.172 32.632L15.6877 32.9107ZM16.6834 33.9423C17.1102 34.1903 17.5828 34.313 18.0949 34.313V33.7543C17.6759 33.7543 17.301 33.655 16.9642 33.4592L16.6834 33.9423ZM21.2238 34.961C21.0836 34.961 20.9808 34.9191 20.8969 34.8413L20.5171 35.2511C20.7125 35.4323 20.9544 35.5198 21.2238 35.5198V34.961ZM20.9106 34.8549C20.8324 34.7718 20.7908 34.6707 20.7908 34.533H20.2321C20.2321 34.8022 20.3208 35.0432 20.5034 35.2375L20.9106 34.8549ZM20.7908 34.533V32.4107H20.2321V34.533H20.7908ZM20.7864 32.4604L21.0518 30.99L20.5019 30.8908L20.2365 32.3611L20.7864 32.4604ZM20.6663 31.197L21.8257 31.6963L22.0467 31.1832L20.8873 30.6838L20.6663 31.197ZM21.6568 31.4398V34.533H22.2156V31.4398H21.6568ZM21.6568 34.533C21.6568 34.6648 21.6148 34.7637 21.5298 34.848L21.9235 35.2444C22.118 35.0514 22.2156 34.8081 22.2156 34.533H21.6568ZM21.5298 34.848C21.458 34.9193 21.3642 34.961 21.2238 34.961V35.5198C21.4932 35.5198 21.7346 35.4321 21.9235 35.2444L21.5298 34.848ZM26.4871 35.0027C25.8633 35.0027 25.2894 34.9098 24.763 34.7268L24.5795 35.2546C25.1706 35.46 25.8072 35.5614 26.4871 35.5614V35.0027ZM24.7683 34.7287C24.2438 34.5346 23.8538 34.2985 23.583 34.0296L23.1893 34.4261C23.5331 34.7674 23.9999 35.04 24.5742 35.2527L24.7683 34.7287ZM23.5893 34.036C23.4993 33.9407 23.4729 33.8525 23.4825 33.7565L22.9266 33.7005C22.8991 33.9743 22.9936 34.219 23.183 34.4196L23.5893 34.036ZM23.4811 33.7683C23.4984 33.6478 23.5522 33.5558 23.6529 33.4793L23.315 33.0344C23.0991 33.1983 22.9666 33.4208 22.9281 33.6887L23.4811 33.7683ZM23.6577 33.4756C23.8038 33.3595 23.9087 33.3405 23.9854 33.3525L24.072 32.8005C23.7948 32.7571 23.5365 32.8583 23.3102 33.0381L23.6577 33.4756ZM24.0011 33.3545C24.1189 33.3662 24.2151 33.4132 24.3001 33.5037L24.7072 33.121C24.5314 32.934 24.311 32.8238 24.0563 32.7985L24.0011 33.3545ZM24.2961 33.4993C24.4908 33.7154 24.7811 33.9012 25.142 34.0659L25.3739 33.5575C25.0456 33.4078 24.8331 33.2606 24.7112 33.1253L24.2961 33.4993ZM25.1502 34.0694C25.5419 34.2332 25.9702 34.313 26.4313 34.313V33.7543C26.0356 33.7543 25.6816 33.6861 25.3657 33.554L25.1502 34.0694ZM26.4313 34.313C26.9938 34.313 27.4652 34.2229 27.8092 34.0066L27.5117 33.5336C27.297 33.6687 26.9489 33.7543 26.4313 33.7543V34.313ZM27.8057 34.0087C28.1548 33.7963 28.3735 33.4926 28.3867 33.0998L27.8282 33.081C27.8228 33.2431 27.7435 33.3925 27.5152 33.5314L27.8057 34.0087ZM28.3867 33.0998C28.3998 32.7068 28.2003 32.3861 27.8668 32.1433L27.5379 32.5949C27.7632 32.759 27.8337 32.9192 27.8282 33.081L28.3867 33.0998ZM27.8705 32.146C27.5433 31.8995 26.9868 31.7249 26.2568 31.5947L26.1587 32.1448C26.8814 32.2736 27.3213 32.4318 27.5343 32.5923L27.8705 32.146ZM26.2617 31.5956C25.3397 31.4143 24.7113 31.1493 24.337 30.8261L23.9718 31.2489C24.4542 31.6655 25.1948 31.9553 26.1539 32.1439L26.2617 31.5956ZM24.3393 30.8281C23.9774 30.5087 23.8052 30.1306 23.8052 29.6781H23.2465C23.2465 30.2984 23.4933 30.8266 23.9695 31.2469L24.3393 30.8281ZM23.8052 29.6781C23.8052 29.2659 23.9254 28.948 24.151 28.7016L23.7388 28.3243C23.4057 28.6883 23.2465 29.1472 23.2465 29.6781H23.8052ZM24.1537 28.6985C24.3978 28.4239 24.7136 28.2181 25.1099 28.0841L24.931 27.5548C24.452 27.7167 24.0508 27.9732 23.7361 28.3274L24.1537 28.6985ZM25.1149 28.0824C25.5216 27.9363 25.9459 27.863 26.3893 27.863V27.3043C25.8829 27.3043 25.3946 27.3882 24.926 27.5565L25.1149 28.0824ZM26.3893 27.863C26.9747 27.863 27.4825 27.9555 27.9179 28.1335L28.1294 27.6163C27.6149 27.406 27.0332 27.3043 26.3893 27.3043V27.863ZM27.9179 28.1335C28.3567 28.3129 28.6932 28.5555 28.9387 28.8561L29.3715 28.5028C29.0582 28.1191 28.6404 27.8253 28.1294 27.6163L27.9179 28.1335ZM28.9455 28.8641C29.0368 28.9678 29.0622 29.0555 29.0577 29.1354L29.6156 29.1667C29.6297 28.9137 29.534 28.687 29.3647 28.4947L28.9455 28.8641ZM29.0578 29.1345C29.0542 29.1943 29.0283 29.2577 28.9323 29.3293L29.2661 29.7774C29.468 29.6269 29.6004 29.4222 29.6155 29.1676L29.0578 29.1345ZM28.9417 29.3226C28.8626 29.3765 28.7627 29.4016 28.618 29.3755L28.5188 29.9253C28.7838 29.9732 29.0378 29.9335 29.2567 29.784L28.9417 29.3226ZM28.618 29.3755C28.4606 29.3471 28.3384 29.2857 28.2415 29.1958L27.8617 29.6056C28.0441 29.7747 28.2665 29.8798 28.5188 29.9253L28.618 29.3755ZM28.2443 29.1985C27.9846 28.9509 27.6963 28.7736 27.3796 28.676L27.215 29.21C27.4383 29.2788 27.653 29.4067 27.8588 29.6029L28.2443 29.1985ZM27.3796 28.676C27.0771 28.5828 26.7365 28.5388 26.3614 28.5388V29.0975C26.6941 29.0975 26.9773 29.1367 27.215 29.21L27.3796 28.676ZM26.3614 28.5388C25.9211 28.5388 25.5282 28.6132 25.1928 28.7744L25.4348 29.278C25.6767 29.1618 25.9822 29.0975 26.3614 29.0975V28.5388ZM25.1896 28.776C25.0183 28.861 24.8722 28.9747 24.7692 29.1247C24.6646 29.277 24.6154 29.4511 24.6154 29.6365H25.1741C25.1741 29.5538 25.1947 29.4921 25.2298 29.441C25.2665 29.3875 25.3299 29.3301 25.438 29.2764L25.1896 28.776ZM24.6154 29.6365C24.6154 29.8525 24.6705 30.0552 24.7813 30.2387L25.2596 29.9498C25.2028 29.8559 25.1741 29.7535 25.1741 29.6365H24.6154ZM24.7937 30.2574C24.9317 30.4494 25.1657 30.5945 25.4419 30.712L25.6606 30.1979C25.4153 30.0934 25.2954 29.9981 25.2472 29.9311L24.7937 30.2574ZM25.4497 30.7152C25.733 30.8257 26.1333 30.9312 26.6413 31.0339L26.752 30.4863C26.2542 30.3856 25.891 30.2876 25.6528 30.1947L25.4497 30.7152ZM26.6422 31.0341C27.3273 31.1702 27.8472 31.3391 28.2139 31.5339L28.4759 31.0405C28.0418 30.8099 27.4628 30.6274 26.7511 30.4861L26.6422 31.0341ZM28.2162 31.5351C28.5971 31.7328 28.8448 31.9523 28.9872 32.1829L29.4626 31.8895C29.2511 31.5468 28.9122 31.2669 28.4736 31.0392L28.2162 31.5351ZM28.9894 32.1864C29.1342 32.4136 29.2109 32.6837 29.2109 33.0072H29.7697C29.7697 32.5909 29.6694 32.2137 29.4604 31.886L28.9894 32.1864ZM29.2109 33.0072C29.2109 33.3782 29.1105 33.7069 28.9101 34.0013L29.3721 34.3156C29.6373 33.9258 29.7697 33.487 29.7697 33.0072H29.2109ZM28.9072 34.0057C28.7181 34.2953 28.4282 34.5366 28.0196 34.7226L28.2511 35.2311C28.7365 35.0102 29.1171 34.706 29.375 34.3112L28.9072 34.0057ZM28.0176 34.7235C27.6278 34.9047 27.1218 35.0027 26.4871 35.0027V35.5614C27.1748 35.5614 27.7676 35.4559 28.2531 35.2302L28.0176 34.7235ZM33.7222 34.9472C33.3053 34.9472 32.9379 34.8444 32.6124 34.6424L32.3178 35.1171C32.7373 35.3775 33.2079 35.5059 33.7222 35.5059V34.9472ZM32.6166 34.645C32.286 34.4317 32.025 34.1447 31.8323 33.7787L31.3379 34.0389C31.5736 34.4867 31.8992 34.847 32.3136 35.1145L32.6166 34.645ZM31.8323 33.7787C31.6414 33.416 31.5432 33.0037 31.5432 32.5356H30.9845C30.9845 33.0846 31.1004 33.5878 31.3379 34.0389L31.8323 33.7787ZM31.5432 32.5356V25.9191H30.9845V32.5356H31.5432ZM31.5432 25.9191C31.5432 25.7813 31.5846 25.6891 31.6562 25.618L31.2625 25.2215C31.0734 25.4093 30.9845 25.65 30.9845 25.9191H31.5432ZM31.6562 25.618C31.728 25.5467 31.8219 25.5049 31.9622 25.5049V24.9462C31.6929 24.9462 31.4515 25.0339 31.2625 25.2215L31.6562 25.618ZM31.9622 25.5049C32.1026 25.5049 32.1964 25.5467 32.2683 25.618L32.6619 25.2215C32.473 25.0339 32.2316 24.9462 31.9622 24.9462V25.5049ZM32.2683 25.618C32.3399 25.6891 32.3813 25.7813 32.3813 25.9191H32.94C32.94 25.65 32.851 25.4093 32.662 25.2215L32.2683 25.618ZM32.3813 25.9191V32.5356H32.94V25.9191H32.3813ZM32.3813 32.5356C32.3813 32.9602 32.5003 33.3353 32.752 33.6421L33.1839 33.2877C33.0259 33.0952 32.94 32.8507 32.94 32.5356H32.3813ZM32.752 33.6421C33.0048 33.9503 33.3329 34.1188 33.7222 34.1188V33.5601C33.5156 33.5601 33.3408 33.4789 33.1839 33.2877L32.752 33.6421ZM33.7222 34.1188H34.1972V33.5601H33.7222V34.1188ZM34.1972 34.1188C34.2817 34.1188 34.3448 34.1468 34.4047 34.2162L34.8277 33.8511C34.6641 33.6616 34.4479 33.5601 34.1972 33.5601V34.1188ZM34.4122 34.2244C34.4777 34.2945 34.5184 34.3892 34.5184 34.533H35.0772C35.0772 34.2699 34.9969 34.0317 34.8203 33.8428L34.4122 34.2244ZM34.5184 34.533C34.5184 34.6521 34.4773 34.7394 34.3835 34.8161L34.7372 35.2486C34.96 35.0664 35.0772 34.8208 35.0772 34.533H34.5184ZM34.3771 34.8215C34.2898 34.8974 34.1643 34.9472 33.9737 34.9472V35.5059C34.2672 35.5059 34.5329 35.4263 34.7436 35.2432L34.3771 34.8215ZM33.9737 34.9472H33.7222V35.5059H33.9737V34.9472ZM30.6213 28.8301C30.4815 28.8301 30.3951 28.792 30.3351 28.7371L29.9576 29.1489C30.1397 29.3159 30.37 29.3888 30.6213 29.3888V28.8301ZM30.3351 28.7371C30.2727 28.6798 30.2442 28.6162 30.2442 28.5269H29.6854C29.6854 28.7704 29.7779 28.9842 29.9576 29.1489L30.3351 28.7371ZM30.2442 28.5269C30.2442 28.4093 30.2794 28.34 30.3351 28.2889L29.9576 27.8771C29.7712 28.0479 29.6854 28.2745 29.6854 28.5269H30.2442ZM30.3351 28.2889C30.3951 28.2339 30.4815 28.1959 30.6213 28.1959V27.6372C30.37 27.6372 30.1397 27.7101 29.9576 27.8771L30.3351 28.2889ZM30.6213 28.1959H33.848V27.6372H30.6213V28.1959ZM33.848 28.1959C33.9877 28.1959 34.0741 28.2339 34.1341 28.2889L34.5117 27.8771C34.3295 27.7101 34.0993 27.6372 33.848 27.6372V28.1959ZM34.1341 28.2889C34.1898 28.34 34.2251 28.4093 34.2251 28.5269H34.7838C34.7838 28.2745 34.698 28.0479 34.5117 27.8771L34.1341 28.2889ZM34.2251 28.5269C34.2251 28.6162 34.1966 28.6798 34.1341 28.7371L34.5117 29.1489C34.6913 28.9842 34.7838 28.7704 34.7838 28.5269H34.2251ZM34.1341 28.7371C34.0741 28.792 33.9877 28.8301 33.848 28.8301V29.3888C34.0993 29.3888 34.3295 29.3159 34.5117 29.1489L34.1341 28.7371ZM33.848 28.8301H30.6213V29.3888H33.848V28.8301ZM39.7896 35.0027C39.0568 35.0027 38.4139 34.8496 37.854 34.5502L37.5906 35.0429C38.2413 35.3908 38.9766 35.5614 39.7896 35.5614V35.0027ZM37.8585 34.5526C37.3042 34.243 36.8699 33.824 36.551 33.2933L36.072 33.5811C36.4422 34.1971 36.9485 34.6843 37.5861 35.0404L37.8585 34.5526ZM36.5536 33.2978C36.2455 32.7624 36.088 32.1456 36.088 31.4398H35.5293C35.5293 32.232 35.707 32.9468 36.0694 33.5765L36.5536 33.2978ZM36.088 31.4398C36.088 30.7212 36.2377 30.1033 36.5281 29.5774L36.039 29.3073C35.6962 29.9281 35.5293 30.6418 35.5293 31.4398H36.088ZM36.5274 29.5787C36.829 29.0396 37.2399 28.6236 37.7628 28.3257L37.4862 27.8403C36.873 28.1896 36.39 28.68 36.0398 29.3059L36.5274 29.5787ZM37.7658 28.324C38.2861 28.0191 38.8881 27.863 39.5801 27.863V27.3043C38.8007 27.3043 38.099 27.4811 37.4833 27.842L37.7658 28.324ZM39.5801 27.863C40.264 27.863 40.8348 28.015 41.3045 28.3065L41.5991 27.8318C41.0259 27.476 40.3488 27.3043 39.5801 27.3043V27.863ZM41.3076 28.3084C41.781 28.5938 42.14 28.9912 42.3871 29.5075L42.8911 29.2662C42.5982 28.6543 42.1656 28.1732 41.5961 27.8299L41.3076 28.3084ZM42.3896 29.5125C42.6462 30.0221 42.7788 30.6204 42.7788 31.3149H43.3375C43.3375 30.5484 43.1908 29.8613 42.8886 29.2612L42.3896 29.5125ZM42.7788 31.3149C42.7788 31.4187 42.7462 31.4945 42.6797 31.5606L43.0734 31.957C43.249 31.7826 43.3375 31.5626 43.3375 31.3149H42.7788ZM42.6878 31.5529C42.6252 31.6102 42.542 31.6459 42.4156 31.6459V32.2046C42.6617 32.2046 42.8858 32.1293 43.0654 31.9647L42.6878 31.5529ZM42.4156 31.6459H36.7864V32.2046H42.4156V31.6459ZM37.0658 31.9252V30.8156H36.5071V31.9252H37.0658ZM36.7864 31.0949H42.3737V30.5362H36.7864V31.0949ZM42.2169 30.5844L41.6442 30.9727L41.9578 31.4352L42.5305 31.0468L42.2169 30.5844ZM42.0803 31.1983C42.0703 30.7014 41.9699 30.2488 41.7725 29.8464L41.2709 30.0925C41.4273 30.4114 41.5131 30.7818 41.5217 31.2096L42.0803 31.1983ZM41.7737 29.8489C41.5759 29.4354 41.2912 29.1038 40.92 28.8616L40.6147 29.3295C40.8954 29.5127 41.1136 29.7637 41.2696 30.09L41.7737 29.8489ZM40.92 28.8616C40.5405 28.6139 40.0891 28.4972 39.5801 28.4972V29.0559C40.0023 29.0559 40.3424 29.1519 40.6147 29.3295L40.92 28.8616ZM39.5801 28.4972C39.008 28.4972 38.4996 28.6221 38.0665 28.8843L38.3559 29.3623C38.6864 29.1621 39.0906 29.0559 39.5801 29.0559V28.4972ZM38.0639 28.8859C37.6448 29.146 37.3252 29.5061 37.1073 29.9594L37.6109 30.2014C37.7842 29.841 38.0326 29.5629 38.3585 29.3607L38.0639 28.8859ZM37.1084 29.9571C36.8914 30.3984 36.7864 30.8947 36.7864 31.4398H37.3451C37.3451 30.9676 37.4357 30.5577 37.6098 30.2037L37.1084 29.9571ZM36.7864 31.4398C36.7864 31.9927 36.9135 32.4955 37.1739 32.9403L37.6561 32.658C37.4509 32.3075 37.3451 31.904 37.3451 31.4398H36.7864ZM37.1739 32.9403C37.4322 33.3815 37.7897 33.7307 38.2415 33.9857L38.5161 33.499C38.1484 33.2916 37.8634 33.012 37.6561 32.658L37.1739 32.9403ZM38.2415 33.9857C38.6983 34.2434 39.217 34.3685 39.7896 34.3685V33.8098C39.3006 33.8098 38.8788 33.7037 38.5161 33.499L38.2415 33.9857ZM39.7896 34.3685C40.1116 34.3685 40.4354 34.3117 40.7598 34.2009L40.5793 33.6722C40.3078 33.7649 40.0449 33.8098 39.7896 33.8098V34.3685ZM40.7645 34.1993C41.0879 34.0825 41.3617 33.9463 41.5768 33.7861L41.243 33.338C41.0857 33.4552 40.8659 33.5686 40.5747 33.6738L40.7645 34.1993ZM41.5744 33.7879C41.6709 33.7176 41.7631 33.6888 41.8569 33.6888V33.1301C41.634 33.1301 41.4283 33.203 41.2455 33.3362L41.5744 33.7879ZM41.8723 33.6884C41.9738 33.6828 42.0471 33.709 42.1102 33.762L42.4696 33.3343C42.2906 33.1838 42.0753 33.1176 41.8415 33.1305L41.8723 33.6884ZM42.1058 33.7583C42.2233 33.8612 42.2583 33.9485 42.2624 34.0215L42.8203 33.9903C42.8057 33.7304 42.6731 33.5125 42.474 33.338L42.1058 33.7583ZM42.2624 34.0215C42.2655 34.0765 42.2496 34.1369 42.1489 34.2134L42.4868 34.6584C42.7027 34.4944 42.8358 34.2682 42.8203 33.9903L42.2624 34.0215ZM42.1449 34.2165C41.8591 34.4419 41.494 34.6316 41.0428 34.781L41.2183 35.3114C41.717 35.1464 42.1434 34.9292 42.4908 34.6553L42.1449 34.2165ZM41.0412 34.7815C40.6002 34.9304 40.1835 35.0027 39.7896 35.0027V35.5614C40.2524 35.5614 40.7297 35.4764 41.2199 35.3109L41.0412 34.7815ZM45.49 30.4827C45.49 29.9754 45.6127 29.5326 45.853 29.1459L45.3784 28.851C45.0785 29.3336 44.9312 29.8803 44.9312 30.4827H45.49ZM45.8521 29.1473C46.106 28.7438 46.4436 28.4249 46.8689 28.1884L46.5974 27.7001C46.0914 27.9815 45.684 28.3654 45.3792 28.8497L45.8521 29.1473ZM46.8689 28.1884C47.2909 27.9537 47.756 27.8353 48.2696 27.8353V27.2765C47.6658 27.2765 47.1065 27.417 46.5974 27.7001L46.8689 28.1884ZM48.2696 27.8353C48.8076 27.8353 49.1539 27.9261 49.355 28.0638L49.6707 27.6028C49.3316 27.3706 48.8492 27.2765 48.2696 27.2765V27.8353ZM49.3641 28.0698C49.4766 28.1406 49.5297 28.2036 49.5531 28.2502C49.5735 28.2906 49.5808 28.3358 49.5638 28.4008L50.1044 28.5419C50.1526 28.3573 50.1389 28.1713 50.0522 27.999C49.9686 27.8329 49.8284 27.7018 49.6615 27.5968L49.3641 28.0698ZM49.561 28.4124C49.5433 28.4947 49.5129 28.5395 49.4816 28.5671L49.8513 28.986C49.9877 28.8656 50.069 28.707 50.1072 28.5303L49.561 28.4124ZM49.4832 28.5657C49.4488 28.5956 49.4072 28.6164 49.3514 28.6265L49.4507 29.1763C49.5998 29.1494 49.7351 29.087 49.8497 28.9874L49.4832 28.5657ZM49.3514 28.6265C49.2926 28.6371 49.2195 28.6361 49.1282 28.6152L49.0034 29.1598C49.1543 29.1944 49.3047 29.2027 49.4507 29.1763L49.3514 28.6265ZM49.1211 28.6137C48.4967 28.4877 47.9215 28.4751 47.401 28.5866L47.518 29.1329C47.9473 29.041 48.443 29.0469 49.0106 29.1614L49.1211 28.6137ZM47.401 28.5866C46.886 28.6969 46.4566 28.9072 46.1312 29.2302L46.5249 29.6267C46.7583 29.395 47.0831 29.2261 47.518 29.1329L47.401 28.5866ZM46.1279 29.2336C45.8018 29.5686 45.6436 29.9924 45.6436 30.4827H46.2023C46.2023 30.1222 46.3142 29.8432 46.5282 29.6233L46.1279 29.2336ZM45.923 30.2033H45.2106V30.762H45.923V30.2033ZM45.2246 34.9472C45.0454 34.9472 44.9499 34.9031 44.8965 34.8541L44.519 35.266C44.7077 35.439 44.9567 35.5059 45.2246 35.5059V34.9472ZM44.9046 34.8619C44.8529 34.8106 44.8055 34.7169 44.8055 34.533H44.2468C44.2468 34.8114 44.3204 35.0692 44.5109 35.2583L44.9046 34.8619ZM44.8055 34.533V28.3327H44.2468V34.533H44.8055ZM44.8055 28.3327C44.8055 28.1618 44.8509 28.071 44.9046 28.0177L44.5109 27.6212C44.3225 27.8083 44.2468 28.0597 44.2468 28.3327H44.8055ZM44.9046 28.0177C44.9586 27.964 45.0511 27.9185 45.2246 27.9185V27.3598C44.951 27.3598 44.699 27.4344 44.5109 27.6212L44.9046 28.0177ZM45.2246 27.9185C45.4129 27.9185 45.4969 27.9667 45.5368 28.0096L45.946 27.6292C45.7624 27.4317 45.5018 27.3598 45.2246 27.3598V27.9185ZM45.5526 28.0254C45.5955 28.0647 45.6436 28.147 45.6436 28.3327H46.2023C46.2023 28.056 46.1293 27.7961 45.9302 27.6135L45.5526 28.0254ZM45.6436 28.3327V34.533H46.2023V28.3327H45.6436ZM45.6436 34.533C45.6436 34.7039 45.5982 34.7947 45.5445 34.848L45.9382 35.2444C46.1266 35.0573 46.2023 34.806 46.2023 34.533H45.6436ZM45.5368 34.856C45.4969 34.8989 45.4129 34.9472 45.2246 34.9472V35.5059C45.5018 35.5059 45.7624 35.4339 45.946 35.2364L45.5368 34.856Z" fill="#219653" mask="url(#path-19-outside-2)"/>
</svg>
