<svg xmlns="http://www.w3.org/2000/svg" xmlns:xlink="http://www.w3.org/1999/xlink" width="1272.52" height="1815.566" viewBox="0 0 1272.52 1815.566">
  <defs>
    <clipPath id="clip-path">
      <path id="Path_45952" data-name="Path 45952" d="M0-454.121H1272.52V1361.445H0Z" transform="translate(0 454.121)" fill="rgba(0,0,0,0)"/>
    </clipPath>
  </defs>
  <g id="beanie-right" transform="translate(-789 -2415.803)">
    <g id="Group_57470" data-name="Group 57470" transform="translate(789 2415.803)" opacity="0.2">
      <g id="Group_57469" data-name="Group 57469" transform="translate(0 0)" clip-path="url(#clip-path)">
        <g id="Group_57468" data-name="Group 57468" transform="translate(0.002 -0.002)">
          <path id="Path_45951" data-name="Path 45951" d="M364.685,0q-17.647,0-34.878,1.407C163.456,15.02,58.5,94.916-.258,159.543-100.95,270.3-151.8,392.7-143.449,504.213c8.912,118.98,79.215,186,153.652,256.958,67.866,64.7,138.043,131.6,162.782,242.346,22.3,99.818-26.295,171.169-77.741,246.719-50.939,74.8-103.616,152.151-91.23,263.755,13.151,118.52,88.388,239.007,175,280.266,63.141,30.077,150.291,28.282,252.03-5.157,100.35-32.987,205.687-93.557,304.609-175.167,266.253-219.633,412.192-523.779,390.387-813.593-15.817-210.2-119.916-421.647-285.611-580.131C694.393,80.523,519.2,0,364.685,0" transform="translate(144.337 0)" fill="#e9e9ff"/>
        </g>
      </g>
    </g>
    <g id="Group_58616" data-name="Group 58616" transform="matrix(0.839, -0.545, 0.545, 0.839, 879.755, 3753.243)">
      <path id="Path_47296" data-name="Path 47296" d="M-11.547,238.492c9.422-8.379,18.548-22.33,25.82-32.978C76.614,113.7,170.712,59.3,267.39,23.917c14.564-5.327,30.166-10.236,43.01-20.093,11.742-9.154,13.29-23.3-3.791-21.817-13.883,1.294-28.393,8.375-41.6,13.942C160.508,40.894,44.449,105.363-8.772,218.685-11.7,224.926-14.87,232.778-11.547,238.492Z" fill="#fff"/>
    </g>
    <g id="Group_58618" data-name="Group 58618" transform="translate(860.91 3226.559) rotate(-95)">
      <path id="Path_47296-2" data-name="Path 47296" d="M4.457,218.334c9.7-7.084,18.685-19.305,25.876-28.614C91.934,109.432,190.947,65.589,294.146,39.38c15.546-3.945,32.258-7.439,45.6-15.658,12.186-7.645,12.866-20.538-5.709-20.288-15.091.285-30.452,5.845-44.5,10.1C178.469,48.016,56.159,99.683,6.072,200.32,3.317,205.862.412,212.869,4.457,218.334Z" fill="#fff"/>
    </g>
    <g id="Group_58619" data-name="Group 58619" transform="matrix(0.052, 0.999, -0.999, 0.052, 1936.984, 2720.922)">
      <path id="Path_47296-3" data-name="Path 47296" d="M3.45,218.185c9.743-7.119,18.786-19.37,26.024-28.7C91.485,108.992,190.763,64.772,294.146,38.158c15.574-4.006,32.313-7.566,45.7-15.834,12.229-7.69,12.968-20.578-5.619-20.253-15.1.346-30.5,5.965-44.576,10.274C178.358,47.261,55.733,99.395,5.15,200.175,2.368,205.725-.571,212.739,3.45,218.185Z" fill="#fff"/>
    </g>
  </g>
</svg>
