<svg xmlns="http://www.w3.org/2000/svg" xmlns:xlink="http://www.w3.org/1999/xlink" width="2628.716" height="2888.005" viewBox="0 0 2628.716 2888.005">
  <defs>
    <clipPath id="clip-path">
      <path id="Path_45952" data-name="Path 45952" d="M0,0,1128.585,99.911,1254.327,1323.8,125.742,1223.887Z" fill="#dddcfc"/>
    </clipPath>
  </defs>
  <g id="Group_61718" data-name="Group 61718" transform="translate(706.302 -231)">
    <g id="beanie-left" transform="matrix(0.999, -0.052, 0.052, 0.999, -270.336, 965.476)">
      <g id="Group_57473" data-name="Group 57473" transform="matrix(-0.438, -0.899, 0.899, -0.438, 59.201, 2159.587)" opacity="0.2">
        <g id="Group_57469" data-name="Group 57469" transform="translate(0 0)" clip-path="url(#clip-path)">
          <g id="Group_57468" data-name="Group 57468" transform="translate(0.002 -0.001)">
            <path id="Path_45951" data-name="Path 45951" d="M451.446,39.965q-15.651-1.386-30.836-1.79c-146.592-3.884-234.146,41.733-281.778,80.686C57.2,185.615,20.575,264.137,35.708,339.964c16.144,80.9,83.137,131.6,154.068,185.281,64.671,48.94,131.543,99.549,161.154,176.148,26.69,69.039-11.466,113.322-51.86,160.212-40,46.425-81.358,94.431-62.644,170.636,19.872,80.928,94.943,168.056,174.618,202.67,58.082,25.233,135.25,30.865,223.166,16.311,86.715-14.358,175.942-46.918,258.023-94.166,220.926-127.151,329.294-320.721,289.883-517.8-28.586-142.94-135.554-293.651-293.484-413.5C749.438,120.134,588.481,52.1,451.446,39.965" transform="translate(0 0)" fill="#dddcfc"/>
          </g>
        </g>
      </g>
      <g id="Group_58624" data-name="Group 58624" transform="matrix(0.616, 0.788, -0.788, 0.616, 424.291, 785.777)">
        <g id="Group_58455" data-name="Group 58455" transform="translate(8.197 67.953) rotate(-16)">
          <path id="Path_47296" data-name="Path 47296" d="M22.018,186.922c6.188-5.327,11.424-15.1,15.657-22.515,36.223-64,101.817-94.052,171.87-108.72,10.553-2.207,21.963-3.941,30.6-9.966,7.878-5.62,7.239-16.588-5.756-17.766-10.551-.887-20.835,2.714-30.313,5.3C129.227,54.4,47.983,89.4,21.591,171.648,20.14,176.178,18.711,181.949,22.018,186.922Z" transform="translate(0 0)" fill="#fff"/>
        </g>
      </g>
      <g id="Group_58625" data-name="Group 58625" transform="translate(-191.781 1648.031) rotate(-36)">
        <path id="Path_47296-2" data-name="Path 47296" d="M-19.315,186.6c7.548-6.964,15.116-18.263,21.126-26.9C53.355,85.235,127.443,38.529,202.66,6.54c11.33-4.816,23.434-9.354,33.654-17.627,9.349-7.674,11.153-18.781-1.926-16.85-10.634,1.639-22,7.821-32.311,12.764-81.595,39.8-172.859,95.365-218.4,186.194C-18.834,176.023-21.6,182.293-19.315,186.6Z" transform="translate(0 0)" fill="#fff"/>
      </g>
    </g>
    <g id="Group_60024" data-name="Group 60024" transform="translate(-586.313 1106.857) rotate(-71)" opacity="0.5">
      <path id="Path_47302" data-name="Path 47302" d="M8.518,15.872a5.2,5.2,0,0,0-1.465.293c-.586-1.465-1.318-2.783-1.9-4.247A9.008,9.008,0,0,0,6.907,7.524c0-2.05-.586-5.712-2.49-7.03C2.367-.971.316,1.08.463,3.277A9.11,9.11,0,0,0,1.781,7.085a45.264,45.264,0,0,1,2.05,4.687c-.879,1.025-1.9,2.05-2.636,3.076A7.8,7.8,0,0,0,.17,20.559,5.947,5.947,0,0,0,9.25,24.367c.146,0,.146-.146.293-.146.586,1.172,1.172,2.343,1.758,3.662.732,1.465,1.465,3.515-.146,4.833a3.082,3.082,0,0,1-3.662.146h.293a1.858,1.858,0,0,0,.879-.146,2.392,2.392,0,0,0,.879-3.222,2.223,2.223,0,0,0-3.515.586c-1.611,3.222,2.343,5.273,4.98,4.247,4.54-1.9,1.318-7.03-.146-9.959-.146-.146-.146-.439-.293-.586a5.3,5.3,0,0,0,1.758-4.54C11.887,17.191,10.422,15.726,8.518,15.872ZM3.538,8.7c-.586-1.318-1.172-2.49-1.758-3.808a3.84,3.84,0,0,1-.293-2.2,1.4,1.4,0,0,1,2.49-.732A10.124,10.124,0,0,1,5.442,5.62a6.591,6.591,0,0,1-.293,4.1c-.146.439-.439.732-.586,1.172A14.78,14.78,0,0,1,3.538,8.7ZM2.806,23.342C.023,20.852.9,16.9,3.1,14.408c.439-.439.732-.879,1.172-1.318.586,1.172,1.172,2.49,1.758,3.662a4.087,4.087,0,0,0-2.05,3.076A2.812,2.812,0,0,0,7.346,22.9c.732-.146.586-1.318-.146-1.172-1.318.293-2.05-.732-1.9-1.9a2.58,2.58,0,0,1,1.318-1.9c.732,1.465,1.318,2.929,2.05,4.394A7.132,7.132,0,0,1,9.1,23.342C7.2,24.514,4.564,24.807,2.806,23.342Zm8.2-3.662a4,4,0,0,1-1.172,2.783c-.879-1.758-1.611-3.369-2.343-5.126C9.25,16.9,11.008,17.483,11.008,19.68Z" transform="translate(99.166 918.868) rotate(-9)" fill="#a2a3f9" opacity="0.3"/>
      <path id="Path_47303" data-name="Path 47303" d="M28.955,4.6,16.213.647C15.774.5,15.188.207,14.748.061a.281.281,0,0,0-.439.146.143.143,0,0,1-.146.147,135.893,135.893,0,0,0-5.419,12.6c-1.9-1.172-3.954-2.343-6.151-1.9C.981,11.338-.63,12.8.249,14.414a4.709,4.709,0,0,0,3.076,2.2,5.747,5.747,0,0,0,2.05.439c1.9.439,3.369-1.465,3.955-3.076v-.146h0c1.172-2.783,2.05-5.712,3.515-8.2.146,0,.293,0,.293-.147,3.369,1.172,6.737,2.49,10.252,3.662.146.146.293.146.586.146.586.146,1.025.439,1.611.586A23.256,23.256,0,0,1,24.561,12.8c-.586,1.465-1.172,3.076-1.9,4.54-.293-.293-.439-.586-.732-.879a5.939,5.939,0,0,0-1.318-.732,9.563,9.563,0,0,0-3.515-.879,2.8,2.8,0,0,0-2.05,1.025,1.969,1.969,0,0,0-.879,1.025v.147a2.531,2.531,0,0,0-.147,1.465,3.348,3.348,0,0,0,1.025,1.465,5.114,5.114,0,0,0,3.515,1.172h1.025a3.786,3.786,0,0,0,3.076-2.49v-.586a26.734,26.734,0,0,0,2.05-4.687c.586-1.465,1.172-3.076,1.611-4.54.879-1.318,1.611-2.49,2.49-3.808C29.248,5.04,29.248,4.747,28.955,4.6ZM25.587,5.773Zm.293,3.369Z" transform="translate(345.358 919.788) rotate(-9)" fill="#a2a3f9" opacity="0.3"/>
      <path id="Path_47304" data-name="Path 47304" d="M18.192,7.057c-1.025-1.318-3.369-1.758-4.833-2.2-2.49-.879-4.833-1.9-6.151-4.247,0-.146,0-.146-.146-.293C6.915-.267,5.889.026,6.182.612c0,.146,0,.146.146.293v.146c.293.732.439,1.611.732,2.343v.146a17.713,17.713,0,0,1,.732,2.636l.439,1.758c1.318,4.687,2.49,9.374,3.662,13.914a10.106,10.106,0,0,0-9.666,1.9c-2.343,2.05-3.222,5.858-.732,8.2,2.343,2.2,6.444.879,8.641-.732,2.05-1.465,4.98-5.273,3.076-7.762-1.172-4.54-2.343-9.227-3.662-13.767a4.385,4.385,0,0,1,6.591,4.98c-.146.439.439.732.879.439C19.364,13.5,19.95,9.4,18.192,7.057Z" transform="matrix(0.927, 0.375, -0.375, 0.927, 214.069, 949.23)" fill="#a2a3f9" opacity="0.3"/>
      <g id="Group_58464" data-name="Group 58464" transform="translate(189.349 917.488) rotate(-9)" opacity="0.3">
        <path id="Path_47309" data-name="Path 47309" d="M2.343,19.013C21.53,9.2,42.767,2.17,64.3.12a10.1,10.1,0,0,1,5.126.439c5.566,2.636.293,8.055-3.222,9.374C55.8,13.887,44.964,10.958,34.126,11.4,21.823,11.69,10.838,15.645,0,20.771.879,20.185,1.611,19.6,2.343,19.013Z" transform="translate(0 0)" fill="#a2a3f9"/>
      </g>
      <g id="Group_58623" data-name="Group 58623" transform="translate(25.918 1074.446) rotate(-43)" opacity="0.3">
        <path id="Path_47309-2" data-name="Path 47309" d="M4.43,25.888C40.7,12.527,80.846,2.955,121.546.163c3.322-.2,6.645-.4,9.69.6,10.521,3.59.554,10.968-6.091,12.763C105.488,18.908,85,14.92,64.511,15.518,41.254,15.917,20.488,21.3,0,28.281,1.661,27.483,3.046,26.685,4.43,25.888Z" transform="translate(0 0)" fill="#a2a3f9"/>
      </g>
    </g>
    <g id="Group_59853" data-name="Group 59853" transform="translate(-83.75 -16.488)">
      <path id="Path_47302-2" data-name="Path 47302" d="M7.028,25.59a8.015,8.015,0,0,0,2.133-.4c.853,2,1.92,3.8,2.773,5.806A11.905,11.905,0,0,0,9.374,37c0,2.8.853,7.808,3.626,9.61,2.986,2,5.972-.8,5.759-3.8,0-1.8-1.066-3.6-1.92-5.206A59.985,59.985,0,0,1,13.853,31.2c1.28-1.4,2.773-2.8,3.839-4.2a10.114,10.114,0,0,0,1.493-7.808c-1.493-5.806-7.892-8.209-13.224-5.205-.213,0-.213.2-.427.2-.853-1.6-1.706-3.2-2.56-5.005-1.066-2-2.133-4.805.213-6.607,1.493-1,3.839-1.4,5.332-.2H8.094a2.864,2.864,0,0,0-1.28.2c-1.493.8-2.346,3-1.28,4.4,1.493,1.6,4.266.8,5.119-.8C13,1.765,7.241-1.038,3.4.363c-6.612,2.6-1.92,9.61.213,13.614.213.2.213.6.427.8-1.706,1.6-2.986,3.8-2.56,6.207C2.122,23.788,4.255,25.79,7.028,25.59Zm7.252,9.81c.853,1.8,1.706,3.4,2.56,5.205a4.958,4.958,0,0,1,.427,3,2.079,2.079,0,0,1-3.626,1c-1.067-1.2-1.706-3.4-2.133-5.005A8.493,8.493,0,0,1,11.933,34c.213-.6.64-1,.853-1.6A19.656,19.656,0,0,1,14.279,35.4Zm1.066-20.021c4.053,3.4,2.773,8.809-.427,12.213-.64.6-1.067,1.2-1.706,1.8-.853-1.6-1.706-3.4-2.56-5.005a5.584,5.584,0,0,0,2.986-4.2,4,4,0,0,0-4.906-4.2c-1.066.2-.853,1.8.213,1.6a2.2,2.2,0,0,1,2.773,2.6,3.538,3.538,0,0,1-1.92,2.6c-1.066-2-1.92-4-2.986-6.006a9.445,9.445,0,0,1-.64-1.4C8.947,13.778,12.786,13.377,15.346,15.379ZM3.4,20.385a5.309,5.309,0,0,1,1.706-3.8c1.28,2.4,2.346,4.6,3.413,7.007C5.961,24.188,3.4,23.388,3.4,20.385Z" transform="translate(1811.437 1452.107) rotate(-179)" fill="#a2a3f9" opacity="0.4"/>
      <path id="Path_47303-2" data-name="Path 47303" d="M31.027,5.019,17.373.705C16.9.545,16.275.226,15.8.066a.3.3,0,0,0-.471.16.156.156,0,0,1-.157.16c-2.2,4.473-4.081,9.107-5.807,13.74-2.04-1.278-4.238-2.556-6.592-2.077-1.726.32-3.453,1.917-2.511,3.675a5.05,5.05,0,0,0,3.3,2.4,6.066,6.066,0,0,0,2.2.479C7.8,19.078,9.369,17,10,15.244v-.16h0c1.256-3.036,2.2-6.231,3.767-8.947.157,0,.314,0,.314-.16,3.61,1.278,7.219,2.716,10.986,3.994.157.16.314.16.628.16.628.16,1.1.479,1.726.639a25.676,25.676,0,0,1-1.1,3.2c-.628,1.6-1.256,3.355-2.04,4.953-.314-.32-.471-.639-.785-.959a6.332,6.332,0,0,0-1.412-.8,10.1,10.1,0,0,0-3.767-.959,2.979,2.979,0,0,0-2.2,1.118,2.138,2.138,0,0,0-.942,1.118v.16a2.807,2.807,0,0,0-.157,1.6,3.654,3.654,0,0,0,1.1,1.6,5.418,5.418,0,0,0,3.767,1.278h1.1c1.412,0,2.668-1.278,3.3-2.716v-.639a29.436,29.436,0,0,0,2.2-5.113c.628-1.6,1.256-3.355,1.726-4.953.942-1.438,1.726-2.716,2.668-4.154C31.341,5.5,31.341,5.179,31.027,5.019ZM27.418,6.3Zm.314,3.675Z" transform="translate(1756.522 1569.007) rotate(28)" fill="#a2a3f9" opacity="0.4"/>
      <path id="Path_47304-2" data-name="Path 47304" d="M6.319,33.249c1.361,1.84,4.048,2.777,5.754,3.572,2.923,1.519,5.706,3.2,7.563,6.389.024.186.024.186.212.4.26.768,1.356.562.932-.23-.024-.186-.024-.186-.212-.4l-.024-.186c-.447-.977-.756-2.117-1.2-3.094l-.024-.186a31.1,31.1,0,0,1-1.251-3.466l-.78-2.3c-2.243-6.164-4.322-12.3-6.377-18.259,3.764,1.824,7.916,1.7,10.471-.851,2.277-2.224,2.63-6.916-.534-10.295-2.976-3.169-7.335-2.16-9.52-.47C9.28,5.4,6.639,9.759,9.173,13.229c2.055,5.954,4.134,12.095,6.353,18.073-3.4,2.244-8.805-2.373-8.174-7.39a.724.724,0,0,0-1.053-.7C3.95,24.877,3.972,29.989,6.319,33.249Z" transform="matrix(-0.966, -0.259, 0.259, -0.966, 1723.525, 1812.349)" fill="#a2a3f9" opacity="0.4"/>
      <g id="Group_58464-2" data-name="Group 58464" transform="translate(1759.846 1722.158) rotate(-79)" opacity="0.4">
        <path id="Path_47309-3" data-name="Path 47309" d="M2.343,2.4C21.53,15.817,42.767,25.427,64.3,28.23c1.758.2,3.515.4,5.126-.6,5.566-3.6.293-11.012-3.222-12.813-10.4-5.406-21.237-1.4-32.075-2C21.823,12.413,10.838,7.007,0,0,.879.8,1.611,1.6,2.343,2.4Z" transform="translate(0 0)" fill="#a2a3f9"/>
      </g>
    </g>
    <g id="Group_60725" data-name="Group 60725" transform="translate(0 -5)">
      <path id="Path_47302-3" data-name="Path 47302" d="M7.028,25.59a8.015,8.015,0,0,0,2.133-.4c.853,2,1.92,3.8,2.773,5.806A11.905,11.905,0,0,0,9.374,37c0,2.8.853,7.808,3.626,9.61,2.986,2,5.972-.8,5.759-3.8,0-1.8-1.066-3.6-1.92-5.206A59.985,59.985,0,0,1,13.853,31.2c1.28-1.4,2.773-2.8,3.839-4.2a10.114,10.114,0,0,0,1.493-7.808c-1.493-5.806-7.892-8.209-13.224-5.205-.213,0-.213.2-.427.2-.853-1.6-1.706-3.2-2.56-5.005-1.066-2-2.133-4.805.213-6.607,1.493-1,3.839-1.4,5.332-.2H8.094a2.864,2.864,0,0,0-1.28.2c-1.493.8-2.346,3-1.28,4.4,1.493,1.6,4.266.8,5.119-.8C13,1.765,7.241-1.038,3.4.363c-6.612,2.6-1.92,9.61.213,13.614.213.2.213.6.427.8-1.706,1.6-2.986,3.8-2.56,6.207C2.122,23.788,4.255,25.79,7.028,25.59Zm7.252,9.81c.853,1.8,1.706,3.4,2.56,5.205a4.958,4.958,0,0,1,.427,3,2.079,2.079,0,0,1-3.626,1c-1.067-1.2-1.706-3.4-2.133-5.005A8.493,8.493,0,0,1,11.933,34c.213-.6.64-1,.853-1.6A19.656,19.656,0,0,1,14.279,35.4Zm1.066-20.021c4.053,3.4,2.773,8.809-.427,12.213-.64.6-1.067,1.2-1.706,1.8-.853-1.6-1.706-3.4-2.56-5.005a5.584,5.584,0,0,0,2.986-4.2,4,4,0,0,0-4.906-4.2c-1.066.2-.853,1.8.213,1.6a2.2,2.2,0,0,1,2.773,2.6,3.538,3.538,0,0,1-1.92,2.6c-1.066-2-1.92-4-2.986-6.006a9.445,9.445,0,0,1-.64-1.4C8.947,13.778,12.786,13.377,15.346,15.379ZM3.4,20.385a5.309,5.309,0,0,1,1.706-3.8c1.28,2.4,2.346,4.6,3.413,7.007C5.961,24.188,3.4,23.388,3.4,20.385Z" transform="translate(1780.437 846.107) rotate(-179)" fill="#a2a3f9" opacity="0.2"/>
      <path id="Path_47303-3" data-name="Path 47303" d="M31.027,5.019,17.373.705C16.9.545,16.275.226,15.8.066a.3.3,0,0,0-.471.16.156.156,0,0,1-.157.16c-2.2,4.473-4.081,9.107-5.807,13.74-2.04-1.278-4.238-2.556-6.592-2.077-1.726.32-3.453,1.917-2.511,3.675a5.05,5.05,0,0,0,3.3,2.4,6.066,6.066,0,0,0,2.2.479C7.8,19.078,9.369,17,10,15.244v-.16h0c1.256-3.036,2.2-6.231,3.767-8.947.157,0,.314,0,.314-.16,3.61,1.278,7.219,2.716,10.986,3.994.157.16.314.16.628.16.628.16,1.1.479,1.726.639a25.676,25.676,0,0,1-1.1,3.2c-.628,1.6-1.256,3.355-2.04,4.953-.314-.32-.471-.639-.785-.959a6.332,6.332,0,0,0-1.412-.8,10.1,10.1,0,0,0-3.767-.959,2.979,2.979,0,0,0-2.2,1.118,2.138,2.138,0,0,0-.942,1.118v.16a2.807,2.807,0,0,0-.157,1.6,3.654,3.654,0,0,0,1.1,1.6,5.418,5.418,0,0,0,3.767,1.278h1.1c1.412,0,2.668-1.278,3.3-2.716v-.639a29.436,29.436,0,0,0,2.2-5.113c.628-1.6,1.256-3.355,1.726-4.953.942-1.438,1.726-2.716,2.668-4.154C31.341,5.5,31.341,5.179,31.027,5.019ZM27.418,6.3Zm.314,3.675Z" transform="translate(1789.157 941.688) rotate(-6)" fill="#a2a3f9" opacity="0.2"/>
      <path id="Path_47304-3" data-name="Path 47304" d="M6.319,33.249c1.361,1.84,4.048,2.777,5.754,3.572,2.923,1.519,5.706,3.2,7.563,6.389.024.186.024.186.212.4.26.768,1.356.562.932-.23-.024-.186-.024-.186-.212-.4l-.024-.186c-.447-.977-.756-2.117-1.2-3.094l-.024-.186a31.1,31.1,0,0,1-1.251-3.466l-.78-2.3c-2.243-6.164-4.322-12.3-6.377-18.259,3.764,1.824,7.916,1.7,10.471-.851,2.277-2.224,2.63-6.916-.534-10.295-2.976-3.169-7.335-2.16-9.52-.47C9.28,5.4,6.639,9.759,9.173,13.229c2.055,5.954,4.134,12.095,6.353,18.073-3.4,2.244-8.805-2.373-8.174-7.39a.724.724,0,0,0-1.053-.7C3.95,24.877,3.972,29.989,6.319,33.249Z" transform="matrix(-0.966, -0.259, 0.259, -0.966, 1706.525, 1204.349)" fill="#a2a3f9" opacity="0.2"/>
      <g id="Group_58464-3" data-name="Group 58464" transform="translate(1728.846 1116.158) rotate(-79)" opacity="0.2">
        <path id="Path_47309-4" data-name="Path 47309" d="M2.343,2.4C21.53,15.817,42.767,25.427,64.3,28.23c1.758.2,3.515.4,5.126-.6,5.566-3.6.293-11.012-3.222-12.813-10.4-5.406-21.237-1.4-32.075-2C21.823,12.413,10.838,7.007,0,0,.879.8,1.611,1.6,2.343,2.4Z" transform="translate(0 0)" fill="#a2a3f9"/>
      </g>
      <g id="Group_59852" data-name="Group 59852" transform="translate(426 356)" opacity="0.41">
        <path id="Path_48932" data-name="Path 48932" d="M6.05,11.274a3.7,3.7,0,0,0-1.04.208c-.416-1.04-.936-1.977-1.352-3.017A6.4,6.4,0,0,0,4.906,5.344c0-1.456-.416-4.057-1.769-4.994C1.681-.69.225.767.329,2.327a6.471,6.471,0,0,0,.936,2.7A32.152,32.152,0,0,1,2.721,8.361C2.1,9.09,1.369,9.818.849,10.546A5.539,5.539,0,0,0,.121,14.6a4.225,4.225,0,0,0,6.45,2.7c.1,0,.1-.1.208-.1.416.832.832,1.665,1.248,2.6.52,1.04,1.04,2.5-.1,3.433a2.189,2.189,0,0,1-2.6.1H5.53a1.319,1.319,0,0,0,.624-.1,1.7,1.7,0,0,0,.624-2.289,1.579,1.579,0,0,0-2.5.416c-1.144,2.289,1.665,3.745,3.537,3.017,3.225-1.352.936-4.994-.1-7.074-.1-.1-.1-.312-.208-.416a3.768,3.768,0,0,0,1.248-3.225A2.683,2.683,0,0,0,6.05,11.274Zm-3.537-5.1c-.416-.936-.832-1.769-1.248-2.7a2.728,2.728,0,0,1-.208-1.561,1,1,0,0,1,1.769-.52,7.191,7.191,0,0,1,1.04,2.6A4.681,4.681,0,0,1,3.658,6.9c-.1.312-.312.52-.416.832A10.5,10.5,0,0,1,2.513,6.177Zm-.52,10.4C.016,14.812.641,12,2.2,10.234c.312-.312.52-.624.832-.936.416.832.832,1.769,1.248,2.6a2.9,2.9,0,0,0-1.456,2.185,2,2,0,0,0,2.393,2.185c.52-.1.416-.936-.1-.832-.936.208-1.456-.52-1.352-1.352A1.833,1.833,0,0,1,4.7,12.731c.52,1.04.936,2.081,1.456,3.121a5.066,5.066,0,0,1,.312.728A3.912,3.912,0,0,1,1.993,16.58Zm5.826-2.6a2.842,2.842,0,0,1-.832,1.977c-.624-1.248-1.144-2.393-1.665-3.641C6.571,12,7.819,12.419,7.819,13.979Z" transform="translate(1285.041 389.437) rotate(-22)" fill="#a2a3f9" opacity="0.45"/>
        <path id="Path_48933" data-name="Path 48933" d="M20.567,3.268,11.516.459c-.312-.1-.728-.312-1.04-.416a.2.2,0,0,0-.312.1.1.1,0,0,1-.1.1A96.527,96.527,0,0,0,6.211,9.2C4.858,8.366,3.4,7.534,1.841,7.846.7,8.054-.448,9.094.177,10.238A3.345,3.345,0,0,0,2.361,11.8a4.082,4.082,0,0,0,1.456.312c1.352.312,2.393-1.04,2.809-2.185v-.1h0A49.055,49.055,0,0,1,9.123,4c.1,0,.208,0,.208-.1,2.393.832,4.786,1.769,7.282,2.6.1.1.208.1.416.1.416.1.728.312,1.144.416a16.519,16.519,0,0,1-.728,2.081c-.416,1.04-.832,2.185-1.352,3.225-.208-.208-.312-.416-.52-.624a4.218,4.218,0,0,0-.936-.52,6.793,6.793,0,0,0-2.5-.624,1.987,1.987,0,0,0-1.456.728,1.4,1.4,0,0,0-.624.728v.1a1.8,1.8,0,0,0-.1,1.04,2.378,2.378,0,0,0,.728,1.04,3.633,3.633,0,0,0,2.5.832h.728a2.689,2.689,0,0,0,2.185-1.769v-.416A18.99,18.99,0,0,0,17.55,9.51c.416-1.04.832-2.185,1.144-3.225.624-.936,1.144-1.769,1.769-2.7C20.775,3.58,20.775,3.372,20.567,3.268ZM18.174,4.1Zm.208,2.393Z" transform="translate(1212.799 409.605) rotate(-22)" fill="#a2a3f9" opacity="0.45"/>
        <path id="Path_48934" data-name="Path 48934" d="M12.922,5.012c-.728-.936-2.393-1.248-3.433-1.56C7.721,2.828,6.056,2.1,5.12.435c0-.1,0-.1-.1-.208-.1-.416-.832-.208-.624.208,0,.1,0,.1.1.208v.1c.208.52.312,1.144.52,1.665v.1a12.582,12.582,0,0,1,.52,1.873l.312,1.248c.936,3.329,1.769,6.658,2.6,9.883a7.178,7.178,0,0,0-6.866,1.352c-1.665,1.456-2.289,4.161-.52,5.826,1.665,1.56,4.577.624,6.138-.52,1.456-1.04,3.537-3.745,2.185-5.514-.832-3.225-1.665-6.554-2.6-9.779a3.115,3.115,0,0,1,4.682,3.537c-.1.312.312.52.624.312A4.322,4.322,0,0,0,12.922,5.012Z" transform="translate(1105.163 458.935) rotate(9)" fill="#a2a3f9" opacity="0.45"/>
        <path id="Path_48935" data-name="Path 48935" d="M1.665,13.505C15.293,6.535,30.378,1.541,45.671.085A7.175,7.175,0,0,1,49.312.4c3.953,1.873.208,5.722-2.289,6.658C39.637,9.864,31.938,7.783,24.24,8.1,15.5,8.3,7.7,11.113,0,14.754.624,14.338,1.144,13.921,1.665,13.505Z" transform="translate(1131.669 437.419) rotate(-22)" fill="#a2a3f9"/>
      </g>
    </g>
    <g id="Group_60023" data-name="Group 60023" transform="translate(-337 -7.318)">
      <path id="Path_47302-4" data-name="Path 47302" d="M7.028,25.59a8.015,8.015,0,0,0,2.133-.4c.853,2,1.92,3.8,2.773,5.806A11.905,11.905,0,0,0,9.374,37c0,2.8.853,7.808,3.626,9.61,2.986,2,5.972-.8,5.759-3.8,0-1.8-1.066-3.6-1.92-5.206A59.985,59.985,0,0,1,13.853,31.2c1.28-1.4,2.773-2.8,3.839-4.2a10.114,10.114,0,0,0,1.493-7.808c-1.493-5.806-7.892-8.209-13.224-5.205-.213,0-.213.2-.427.2-.853-1.6-1.706-3.2-2.56-5.005-1.066-2-2.133-4.805.213-6.607,1.493-1,3.839-1.4,5.332-.2H8.094a2.864,2.864,0,0,0-1.28.2c-1.493.8-2.346,3-1.28,4.4,1.493,1.6,4.266.8,5.119-.8C13,1.765,7.241-1.038,3.4.363c-6.612,2.6-1.92,9.61.213,13.614.213.2.213.6.427.8-1.706,1.6-2.986,3.8-2.56,6.207C2.122,23.788,4.255,25.79,7.028,25.59Zm7.252,9.81c.853,1.8,1.706,3.4,2.56,5.205a4.958,4.958,0,0,1,.427,3,2.079,2.079,0,0,1-3.626,1c-1.067-1.2-1.706-3.4-2.133-5.005A8.493,8.493,0,0,1,11.933,34c.213-.6.64-1,.853-1.6A19.656,19.656,0,0,1,14.279,35.4Zm1.066-20.021c4.053,3.4,2.773,8.809-.427,12.213-.64.6-1.067,1.2-1.706,1.8-.853-1.6-1.706-3.4-2.56-5.005a5.584,5.584,0,0,0,2.986-4.2,4,4,0,0,0-4.906-4.2c-1.066.2-.853,1.8.213,1.6a2.2,2.2,0,0,1,2.773,2.6,3.538,3.538,0,0,1-1.92,2.6c-1.066-2-1.92-4-2.986-6.006a9.445,9.445,0,0,1-.64-1.4C8.947,13.778,12.786,13.377,15.346,15.379ZM3.4,20.385a5.309,5.309,0,0,1,1.706-3.8c1.28,2.4,2.346,4.6,3.413,7.007C5.961,24.188,3.4,23.388,3.4,20.385Z" transform="matrix(-0.995, 0.105, -0.105, -0.995, 1803.724, 285.347)" fill="#a2a3f9" opacity="0.5"/>
      <path id="Path_47303-4" data-name="Path 47303" d="M31.027,5.019,17.373.705C16.9.545,16.275.226,15.8.066a.3.3,0,0,0-.471.16.156.156,0,0,1-.157.16c-2.2,4.473-4.081,9.107-5.807,13.74-2.04-1.278-4.238-2.556-6.592-2.077-1.726.32-3.453,1.917-2.511,3.675a5.05,5.05,0,0,0,3.3,2.4,6.066,6.066,0,0,0,2.2.479C7.8,19.078,9.369,17,10,15.244v-.16h0c1.256-3.036,2.2-6.231,3.767-8.947.157,0,.314,0,.314-.16,3.61,1.278,7.219,2.716,10.986,3.994.157.16.314.16.628.16.628.16,1.1.479,1.726.639a25.676,25.676,0,0,1-1.1,3.2c-.628,1.6-1.256,3.355-2.04,4.953-.314-.32-.471-.639-.785-.959a6.332,6.332,0,0,0-1.412-.8,10.1,10.1,0,0,0-3.767-.959,2.979,2.979,0,0,0-2.2,1.118,2.138,2.138,0,0,0-.942,1.118v.16a2.807,2.807,0,0,0-.157,1.6,3.654,3.654,0,0,0,1.1,1.6,5.418,5.418,0,0,0,3.767,1.278h1.1c1.412,0,2.668-1.278,3.3-2.716v-.639a29.436,29.436,0,0,0,2.2-5.113c.628-1.6,1.256-3.355,1.726-4.953.942-1.438,1.726-2.716,2.668-4.154C31.341,5.5,31.341,5.179,31.027,5.019ZM27.418,6.3Zm.314,3.675Z" transform="matrix(0.934, 0.358, -0.358, 0.934, 1762.465, 377.067)" fill="#a2a3f9" opacity="0.5"/>
      <path id="Path_47304-4" data-name="Path 47304" d="M6.319,33.249c1.361,1.84,4.048,2.777,5.754,3.572,2.923,1.519,5.706,3.2,7.563,6.389.024.186.024.186.212.4.26.768,1.356.562.932-.23-.024-.186-.024-.186-.212-.4l-.024-.186c-.447-.977-.756-2.117-1.2-3.094l-.024-.186a31.1,31.1,0,0,1-1.251-3.466l-.78-2.3c-2.243-6.164-4.322-12.3-6.377-18.259,3.764,1.824,7.916,1.7,10.471-.851,2.277-2.224,2.63-6.916-.534-10.295-2.976-3.169-7.335-2.16-9.52-.47C9.28,5.4,6.639,9.759,9.173,13.229c2.055,5.954,4.134,12.095,6.353,18.073-3.4,2.244-8.805-2.373-8.174-7.39a.724.724,0,0,0-1.053-.7C3.95,24.877,3.972,29.989,6.319,33.249Z" transform="translate(1777.147 623.224) rotate(-172)" fill="#a2a3f9" opacity="0.5"/>
      <g id="Group_58464-4" data-name="Group 58464" transform="translate(1784.428 528.672) rotate(-86)" opacity="0.5">
        <path id="Path_47309-5" data-name="Path 47309" d="M2.343,2.4C21.53,15.817,42.767,25.427,64.3,28.23c1.758.2,3.515.4,5.126-.6,5.566-3.6.293-11.012-3.222-12.813-10.4-5.406-21.237-1.4-32.075-2C21.823,12.413,10.838,7.007,0,0,.879.8,1.611,1.6,2.343,2.4Z" transform="translate(0 0)" fill="#a2a3f9"/>
      </g>
    </g>
    <path id="Path_52913" data-name="Path 52913" d="M-16848.354,18935.555s-371.68-314.648-49.609-704.512,995.17,40.959,1171.5-222.412c88.162-131.686,159.119-230.053,229.894-303.547,70.846-73.57,141.509-122.268,178.5-142.949" transform="translate(17240 -16391.555)" fill="none" stroke="#4160b9" stroke-width="2" opacity="0.15"/>
    <g id="Group_61177" data-name="Group 61177">
      <g id="Group_60700" data-name="Group 60700" transform="translate(-252.479 1580.307) rotate(-45)" opacity="0.58">
        <path id="Path_47302-5" data-name="Path 47302" d="M7.028,25.59a8.015,8.015,0,0,0,2.133-.4c.853,2,1.92,3.8,2.773,5.806A11.905,11.905,0,0,0,9.374,37c0,2.8.853,7.808,3.626,9.61,2.986,2,5.972-.8,5.759-3.8,0-1.8-1.066-3.6-1.92-5.206A59.985,59.985,0,0,1,13.853,31.2c1.28-1.4,2.773-2.8,3.839-4.2a10.114,10.114,0,0,0,1.493-7.808c-1.493-5.806-7.892-8.209-13.224-5.205-.213,0-.213.2-.427.2-.853-1.6-1.706-3.2-2.56-5.005-1.066-2-2.133-4.805.213-6.607,1.493-1,3.839-1.4,5.332-.2H8.094a2.864,2.864,0,0,0-1.28.2c-1.493.8-2.346,3-1.28,4.4,1.493,1.6,4.266.8,5.119-.8C13,1.765,7.241-1.038,3.4.363c-6.612,2.6-1.92,9.61.213,13.614.213.2.213.6.427.8-1.706,1.6-2.986,3.8-2.56,6.207C2.122,23.788,4.255,25.79,7.028,25.59Zm7.252,9.81c.853,1.8,1.706,3.4,2.56,5.205a4.958,4.958,0,0,1,.427,3,2.079,2.079,0,0,1-3.626,1c-1.067-1.2-1.706-3.4-2.133-5.005A8.493,8.493,0,0,1,11.933,34c.213-.6.64-1,.853-1.6A19.656,19.656,0,0,1,14.279,35.4Zm1.066-20.021c4.053,3.4,2.773,8.809-.427,12.213-.64.6-1.067,1.2-1.706,1.8-.853-1.6-1.706-3.4-2.56-5.005a5.584,5.584,0,0,0,2.986-4.2,4,4,0,0,0-4.906-4.2c-1.066.2-.853,1.8.213,1.6a2.2,2.2,0,0,1,2.773,2.6,3.538,3.538,0,0,1-1.92,2.6c-1.066-2-1.92-4-2.986-6.006a9.445,9.445,0,0,1-.64-1.4C8.947,13.778,12.786,13.377,15.346,15.379ZM3.4,20.385a5.309,5.309,0,0,1,1.706-3.8c1.28,2.4,2.346,4.6,3.413,7.007C5.961,24.188,3.4,23.388,3.4,20.385Z" transform="matrix(-0.995, 0.105, -0.105, -0.995, 1803.724, 285.347)" fill="#a2a3f9" opacity="0.5"/>
        <path id="Path_47303-5" data-name="Path 47303" d="M31.027,5.019,17.373.705C16.9.545,16.275.226,15.8.066a.3.3,0,0,0-.471.16.156.156,0,0,1-.157.16c-2.2,4.473-4.081,9.107-5.807,13.74-2.04-1.278-4.238-2.556-6.592-2.077-1.726.32-3.453,1.917-2.511,3.675a5.05,5.05,0,0,0,3.3,2.4,6.066,6.066,0,0,0,2.2.479C7.8,19.078,9.369,17,10,15.244v-.16h0c1.256-3.036,2.2-6.231,3.767-8.947.157,0,.314,0,.314-.16,3.61,1.278,7.219,2.716,10.986,3.994.157.16.314.16.628.16.628.16,1.1.479,1.726.639a25.676,25.676,0,0,1-1.1,3.2c-.628,1.6-1.256,3.355-2.04,4.953-.314-.32-.471-.639-.785-.959a6.332,6.332,0,0,0-1.412-.8,10.1,10.1,0,0,0-3.767-.959,2.979,2.979,0,0,0-2.2,1.118,2.138,2.138,0,0,0-.942,1.118v.16a2.807,2.807,0,0,0-.157,1.6,3.654,3.654,0,0,0,1.1,1.6,5.418,5.418,0,0,0,3.767,1.278h1.1c1.412,0,2.668-1.278,3.3-2.716v-.639a29.436,29.436,0,0,0,2.2-5.113c.628-1.6,1.256-3.355,1.726-4.953.942-1.438,1.726-2.716,2.668-4.154C31.341,5.5,31.341,5.179,31.027,5.019ZM27.418,6.3Zm.314,3.675Z" transform="matrix(0.934, 0.358, -0.358, 0.934, 1785.092, 369.996)" fill="#a2a3f9" opacity="0.5"/>
        <g id="Group_58464-5" data-name="Group 58464" transform="translate(1784.428 528.672) rotate(-86)" opacity="0.5">
          <path id="Path_47309-6" data-name="Path 47309" d="M2.343,2.4C21.53,15.817,42.767,25.427,64.3,28.23c1.758.2,3.515.4,5.126-.6,5.566-3.6.293-11.012-3.222-12.813-10.4-5.406-21.237-1.4-32.075-2C21.823,12.413,10.838,7.007,0,0,.879.8,1.611,1.6,2.343,2.4Z" transform="translate(0 0)" fill="#a2a3f9"/>
        </g>
      </g>
    </g>
  </g>
</svg>
