<svg width="1501" height="832" viewBox="0 0 1501 832" fill="none" xmlns="http://www.w3.org/2000/svg">
<mask id="mask0" mask-type="alpha" maskUnits="userSpaceOnUse" x="0" y="0" width="1501" height="832">
<rect width="1501" height="832" fill="#C4C4C4"/>
</mask>
<g mask="url(#mask0)">
<path opacity="0.15" d="M912.927 2.39198C861.634 6.45098 760.113 54.453 542.627 30.044C325.141 5.63496 1.22709 69.661 -1.00391 69.597L-0.197906 831.597H1501.59V69.597L1275.16 39.423C1275.16 39.423 1265.59 34.017 1148.04 25.906C1030.48 17.795 1042.78 -7.88502 912.927 2.39198Z" fill="#A2A3F9"/>
<path d="M37.3507 153.745C36.7385 152.888 35.2809 152.793 34.2485 152.39C32.7755 151.855 31.1576 151.327 30.38 149.889L30.3749 149.743C30.2147 149.309 29.6435 149.622 29.7986 149.91L29.8089 150.203C29.9691 150.636 30.1355 151.216 30.2957 151.65L30.3008 151.796C30.4662 152.376 30.6325 152.956 30.7928 153.39C30.8138 153.75 30.9262 154.099 31.1193 154.404C32.093 157.299 32.9228 160.2 33.7496 163.101C32.7278 162.811 31.6492 162.786 30.6151 163.027C29.5809 163.269 28.6252 163.769 27.8376 164.482C26.4262 165.85 25.9258 168.212 27.5756 169.621C29.0742 170.887 31.664 170.063 32.9358 168.992C34.2127 168.068 35.8749 165.666 34.6567 164.097C33.8238 161.195 33.0051 158.44 32.0315 155.544C32.4874 155.222 33.0318 155.048 33.5902 155.047C34.1486 155.046 34.6936 155.218 35.1507 155.538C35.6077 155.859 35.9545 156.313 36.1434 156.839C36.3323 157.364 36.3542 157.935 36.206 158.473C36.0714 158.771 36.5121 158.902 36.6519 158.751C38.2195 157.816 38.4139 155.172 37.3507 153.745Z" fill="#A2A3F9"/>
<path d="M291.146 172.518C296.351 171.602 301.409 170.691 306.625 170.067C310.973 169.621 316.528 170.451 318.155 175.374C322.386 188.262 293.325 189.142 286.633 189.231C275.289 189.192 264.159 187.095 253.3 184.254C239.361 180.791 225.241 176.308 212.908 168.833C224.926 175.587 239.603 175.215 253.405 174.729C261.976 174.428 270.869 174.991 279.42 174.103C283.356 173.806 287.272 173.277 291.146 172.518V172.518Z" fill="#A2A3F9"/>
<path d="M436.352 114.024C435.867 113.912 435.368 113.87 434.872 113.901C434.715 112.333 434.377 110.863 434.216 109.294C435.493 108.326 436.488 107.036 437.099 105.555C437.664 103.585 438.103 99.9025 436.646 98.1107C435.091 96.1385 432.572 97.5436 432.111 99.6959C431.883 101.037 431.957 102.411 432.327 103.72C432.646 105.396 432.871 107.089 433.001 108.791C431.881 109.534 430.618 110.235 429.643 111.02C428.16 112.367 427.25 114.231 427.101 116.229C427.019 117.193 427.174 118.162 427.553 119.053C427.933 119.943 428.525 120.726 429.277 121.335C430.03 121.943 430.92 122.358 431.87 122.542C432.82 122.726 433.801 122.675 434.726 122.392C434.866 122.432 434.906 122.292 435.046 122.332C435.284 123.619 435.523 124.907 435.721 126.336C436.019 127.946 436.158 130.119 434.259 130.942C433.655 131.197 432.985 131.25 432.348 131.094C431.711 130.937 431.142 130.58 430.725 130.074L431.004 130.154C431.285 130.259 431.587 130.294 431.883 130.255C432.49 130.104 433.011 129.719 433.334 129.183C433.656 128.648 433.752 128.007 433.602 127.4C433.431 127.102 433.191 126.848 432.904 126.658C432.616 126.469 432.289 126.35 431.947 126.311C431.605 126.271 431.258 126.313 430.935 126.431C430.612 126.55 430.322 126.743 430.087 126.995C427.668 129.648 430.88 132.709 433.677 132.449C438.532 131.871 436.863 126.056 436.263 122.836C436.163 122.654 436.244 122.374 436.144 122.192C436.905 121.825 437.567 121.281 438.074 120.606C438.582 119.931 438.922 119.144 439.064 118.312C439.205 116.222 438.21 114.408 436.352 114.024ZM433.607 105.614C433.405 104.183 433.166 102.896 432.968 101.467C432.856 100.719 432.967 99.9548 433.286 99.2692C433.388 99.012 433.564 98.7911 433.793 98.6349C434.021 98.4787 434.291 98.3942 434.568 98.3923C434.845 98.3905 435.116 98.4713 435.346 98.6244C435.577 98.7775 435.757 98.996 435.862 99.2518C436.25 100.523 436.386 101.857 436.262 103.18C436.216 104.584 435.725 105.937 434.86 107.043C434.599 107.425 434.24 107.626 433.98 108.008C433.791 107.221 433.666 106.421 433.607 105.614V105.614ZM428.9 119.491C426.926 116.33 428.85 112.773 431.625 110.983C432.164 110.682 432.564 110.34 433.104 110.039C433.337 111.326 433.537 112.754 433.775 114.04C433.153 114.191 432.576 114.486 432.09 114.901C431.604 115.317 431.222 115.841 430.977 116.432C430.806 116.842 430.734 117.286 430.768 117.729C430.802 118.172 430.941 118.6 431.172 118.979C431.404 119.358 431.722 119.677 432.1 119.91C432.479 120.142 432.907 120.281 433.35 120.316C434.089 120.377 434.27 119.211 433.53 119.15C432.192 119.068 431.774 117.881 432.23 116.793C432.391 116.427 432.636 116.103 432.945 115.849C433.254 115.594 433.618 115.415 434.009 115.327C434.307 116.936 434.465 118.506 434.762 120.12C434.836 120.484 434.883 120.854 434.9 121.226C432.629 121.786 430.172 121.382 428.9 119.491ZM437.73 118.232C437.434 119.231 436.759 120.075 435.85 120.584C435.487 118.65 435.23 116.9 435.012 115.009C436.81 115.071 438.287 116.259 437.726 118.231L437.73 118.232Z" fill="#A2A3F9"/>
<path d="M88.6442 178.491C100.851 188.435 115.181 195.441 130.526 198.967C139.218 200.927 148.072 202.084 156.975 202.423C170.767 203.029 179.01 196.162 165.059 189.502C152.549 183.489 138.838 181.423 124.521 179.753C106.276 177.682 86.19 176.315 73.7031 164.722C78.8081 169.67 83.5824 174.27 88.6442 178.491Z" fill="white"/>
<path d="M290.25 137.139C313.907 119.079 343.048 109.688 372.798 110.535C377.406 110.622 382.264 111.21 385.99 113.728C389.768 116.594 391.821 122.181 388.812 125.785C386.15 129.344 380.848 129.348 376.335 128.713C340.923 126.089 305.425 132.534 273.195 147.44L290.25 137.139Z" fill="#A2A3F9"/>
<path d="M732.915 105.382C732.437 105.519 731.981 105.726 731.561 105.994C730.664 104.697 729.658 103.574 728.76 102.278C729.409 100.811 729.655 99.197 729.474 97.603C729.013 95.6043 727.619 92.1656 725.478 91.3037C723.163 90.333 721.639 92.7879 722.277 94.8967C722.726 96.1802 723.455 97.3478 724.411 98.3149C725.501 99.6274 726.517 101 727.454 102.427C726.834 103.626 726.071 104.849 725.593 106.012C724.946 107.911 725.052 109.985 725.888 111.808C726.281 112.692 726.886 113.467 727.649 114.062C728.412 114.658 729.31 115.057 730.263 115.225C731.217 115.392 732.196 115.322 733.117 115.021C734.037 114.72 734.869 114.198 735.539 113.5C735.681 113.467 735.648 113.325 735.79 113.292C736.622 114.304 737.453 115.316 738.317 116.471C739.356 117.736 740.528 119.571 739.265 121.215C738.861 121.731 738.3 122.104 737.667 122.276C737.034 122.449 736.363 122.412 735.752 122.172L736.036 122.107C736.332 122.062 736.612 121.946 736.853 121.768C737.303 121.337 737.567 120.748 737.59 120.126C737.613 119.503 737.394 118.896 736.978 118.432C736.683 118.255 736.35 118.149 736.007 118.123C735.664 118.097 735.319 118.152 735.001 118.284C734.683 118.415 734.4 118.62 734.175 118.88C733.95 119.141 733.789 119.451 733.706 119.785C732.875 123.282 737.163 124.402 739.485 122.817C743.452 119.952 739.173 115.672 737.099 113.142C736.923 113.031 736.858 112.746 736.683 112.636C737.171 111.945 737.487 111.147 737.605 110.309C737.723 109.472 737.64 108.618 737.362 107.819C736.473 105.923 734.725 104.816 732.915 105.382ZM726.477 99.4989C725.612 98.34 724.78 97.3232 723.916 96.1731C723.458 95.5711 723.187 94.8483 723.136 94.094C723.101 93.8193 723.148 93.5404 723.272 93.2928C723.396 93.0453 723.592 92.8404 723.833 92.7044C724.074 92.5683 724.35 92.5073 724.626 92.5291C724.902 92.5509 725.165 92.6546 725.382 92.8269C726.335 93.7522 727.097 94.8549 727.626 96.0728C728.264 97.3249 728.489 98.7472 728.266 100.135C728.224 100.596 728.006 100.947 727.963 101.407C727.417 100.813 726.92 100.174 726.477 99.4989V99.4989ZM729.068 113.933C725.812 112.125 725.768 108.077 727.338 105.16C727.665 104.634 727.85 104.141 728.175 103.615C729.007 104.627 729.87 105.781 730.702 106.794C730.231 107.227 729.868 107.766 729.644 108.366C729.419 108.966 729.339 109.61 729.41 110.247C729.457 110.689 729.609 111.113 729.853 111.484C730.097 111.856 730.426 112.164 730.813 112.383C731.199 112.602 731.632 112.727 732.077 112.745C732.521 112.764 732.963 112.677 733.366 112.491C734.042 112.186 733.637 111.076 732.961 111.381C731.75 111.96 730.81 111.123 730.688 109.949C730.653 109.55 730.711 109.148 730.858 108.776C731.005 108.403 731.237 108.07 731.536 107.803C732.574 109.068 733.472 110.365 734.511 111.63C734.753 111.913 734.972 112.215 735.167 112.532C733.586 114.099 731.1 114.97 729.068 113.933ZM736.185 108.541C736.409 109.56 736.227 110.626 735.677 111.513C734.43 109.996 733.36 108.587 732.252 107.037C733.855 106.218 735.689 106.399 736.184 108.541L736.185 108.541Z" fill="#A2A3F9"/>
<path d="M689.245 97.6933L676.017 96.6726C675.557 96.6265 674.924 96.4725 674.466 96.4272C674.425 96.4087 674.38 96.4006 674.335 96.4035C674.29 96.4065 674.246 96.4204 674.207 96.444C674.169 96.4677 674.137 96.5003 674.114 96.5392C674.09 96.5781 674.077 96.6221 674.075 96.6672C674.08 96.6859 674.081 96.7052 674.078 96.7242C674.075 96.7432 674.068 96.7614 674.058 96.7777C674.048 96.7941 674.034 96.8082 674.019 96.8193C674.003 96.8303 673.985 96.8381 673.966 96.8422C672.938 101.293 672.133 105.793 671.557 110.325C669.448 109.607 667.199 108.923 665.171 109.838C663.676 110.482 662.445 112.268 663.661 113.642C664.108 114.112 664.647 114.483 665.244 114.734C665.841 114.984 666.483 115.109 667.131 115.099C667.821 115.218 668.528 115.209 669.215 115.071C671.158 115.076 672.147 112.895 672.35 111.194L672.317 111.051C672.824 108.078 673.016 105.028 673.872 102.274C674.013 102.241 674.156 102.208 674.123 102.066C677.649 102.459 681.208 102.995 684.875 103.356C685.051 103.466 685.192 103.434 685.476 103.368C686.076 103.381 686.567 103.568 687.168 103.581C687.125 104.615 687.014 105.645 686.835 106.664C686.597 108.222 686.394 109.923 686.015 111.513C685.665 111.293 685.457 111.04 685.108 110.82C684.647 110.619 684.163 110.478 683.667 110.399C682.482 110.144 681.259 110.119 680.065 110.325C679.686 110.429 679.334 110.612 679.031 110.863C678.729 111.114 678.483 111.427 678.311 111.78C677.97 112.093 677.75 112.516 677.691 112.974L677.724 113.117C677.642 113.611 677.707 114.119 677.912 114.577C678.237 115.088 678.694 115.503 679.235 115.776C680.369 116.352 681.678 116.481 682.902 116.136L683.899 115.907C684.549 115.663 685.119 115.243 685.546 114.695C685.972 114.146 686.238 113.49 686.314 112.8L686.248 112.514C686.216 112.372 686.216 112.372 686.183 112.228C686.652 110.588 686.964 108.908 687.114 107.208C687.352 105.651 687.555 103.95 687.655 102.424C688.202 100.94 688.65 99.6346 689.203 98.1539C689.628 98.0569 689.562 97.7713 689.245 97.6933Z" fill="#A2A3F9"/>
<path d="M575.168 114.446C595.866 112.248 616.524 110.511 636.448 103.681C639.785 102.614 643.165 101.085 644.808 97.8526C648.635 90.5093 638.12 87.6619 633.209 87.737C566.616 88.4458 503.207 106.167 457.638 156.47C486.119 125.273 535.502 118.593 575.168 114.446Z" fill="white"/>
<path d="M506.36 161.451C526.051 153.047 547.589 147.564 569.083 147.07C570.811 146.895 572.554 147.174 574.142 147.877C579.486 150.907 573.891 155.931 570.316 156.992C559.735 160.188 549.181 156.486 538.4 156.144C526.174 155.551 515.012 158.704 503.917 163.036C504.828 162.519 505.595 161.983 506.36 161.451Z" fill="#A2A3F9"/>
<path d="M776.351 153.745C775.739 152.888 774.281 152.793 773.249 152.39C771.775 151.855 770.158 151.327 769.38 149.889L769.375 149.743C769.215 149.309 768.644 149.622 768.799 149.91L768.809 150.203C768.969 150.636 769.135 151.216 769.296 151.65L769.301 151.796C769.466 152.376 769.633 152.956 769.793 153.39C769.814 153.75 769.926 154.099 770.119 154.404C771.093 157.299 771.923 160.2 772.75 163.101C771.728 162.811 770.649 162.786 769.615 163.027C768.581 163.269 767.625 163.769 766.838 164.482C765.426 165.85 764.926 168.212 766.576 169.621C768.074 170.887 770.664 170.063 771.936 168.992C773.213 168.068 774.875 165.666 773.657 164.097C772.824 161.195 772.005 158.44 771.031 155.544C771.487 155.222 772.032 155.048 772.59 155.047C773.149 155.046 773.694 155.218 774.151 155.538C774.608 155.859 774.954 156.313 775.143 156.839C775.332 157.364 775.354 157.935 775.206 158.473C775.071 158.771 775.512 158.902 775.652 158.751C777.219 157.816 777.414 155.172 776.351 153.745Z" fill="#A2A3F9"/>
<path d="M1030.15 172.518C1035.35 171.602 1040.41 170.691 1045.62 170.067C1049.97 169.621 1055.53 170.451 1057.16 175.374C1061.39 188.262 1032.32 189.142 1025.63 189.231C1014.29 189.192 1003.16 187.095 992.3 184.254C978.361 180.791 964.241 176.308 951.908 168.833C963.926 175.587 978.603 175.215 992.405 174.729C1000.98 174.428 1009.87 174.991 1018.42 174.103C1022.36 173.806 1026.27 173.277 1030.15 172.518V172.518Z" fill="#A2A3F9"/>
<path d="M1175.35 114.024C1174.87 113.912 1174.37 113.87 1173.87 113.901C1173.72 112.333 1173.38 110.863 1173.22 109.294C1174.49 108.326 1175.49 107.036 1176.1 105.555C1176.66 103.585 1177.1 99.9025 1175.65 98.1107C1174.09 96.1385 1171.57 97.5436 1171.11 99.6959C1170.88 101.037 1170.96 102.411 1171.33 103.72C1171.65 105.396 1171.87 107.089 1172 108.791C1170.88 109.534 1169.62 110.235 1168.64 111.02C1167.16 112.367 1166.25 114.231 1166.1 116.229C1166.02 117.193 1166.17 118.162 1166.55 119.053C1166.93 119.943 1167.52 120.726 1168.28 121.335C1169.03 121.943 1169.92 122.358 1170.87 122.542C1171.82 122.726 1172.8 122.675 1173.73 122.392C1173.87 122.432 1173.91 122.292 1174.05 122.332C1174.28 123.619 1174.52 124.907 1174.72 126.336C1175.02 127.946 1175.16 130.119 1173.26 130.942C1172.66 131.197 1171.98 131.25 1171.35 131.094C1170.71 130.937 1170.14 130.58 1169.72 130.074L1170 130.154C1170.28 130.259 1170.59 130.294 1170.88 130.255C1171.49 130.104 1172.01 129.719 1172.33 129.183C1172.66 128.648 1172.75 128.007 1172.6 127.4C1172.43 127.102 1172.19 126.848 1171.9 126.658C1171.62 126.469 1171.29 126.35 1170.95 126.311C1170.6 126.271 1170.26 126.313 1169.94 126.431C1169.61 126.55 1169.32 126.743 1169.09 126.995C1166.67 129.648 1169.88 132.709 1172.68 132.449C1177.53 131.871 1175.86 126.056 1175.26 122.836C1175.16 122.654 1175.24 122.374 1175.14 122.192C1175.9 121.825 1176.57 121.281 1177.07 120.606C1177.58 119.931 1177.92 119.144 1178.06 118.312C1178.21 116.222 1177.21 114.408 1175.35 114.024ZM1172.61 105.614C1172.4 104.183 1172.17 102.896 1171.97 101.467C1171.86 100.719 1171.97 99.9548 1172.29 99.2692C1172.39 99.012 1172.56 98.7911 1172.79 98.6349C1173.02 98.4787 1173.29 98.3942 1173.57 98.3923C1173.84 98.3905 1174.12 98.4713 1174.35 98.6244C1174.58 98.7775 1174.76 98.996 1174.86 99.2518C1175.25 100.523 1175.39 101.857 1175.26 103.18C1175.22 104.584 1174.73 105.937 1173.86 107.043C1173.6 107.425 1173.24 107.626 1172.98 108.008C1172.79 107.221 1172.67 106.421 1172.61 105.614V105.614ZM1167.9 119.491C1165.93 116.33 1167.85 112.773 1170.62 110.983C1171.16 110.682 1171.56 110.34 1172.1 110.039C1172.34 111.326 1172.54 112.754 1172.78 114.04C1172.15 114.191 1171.58 114.486 1171.09 114.901C1170.6 115.317 1170.22 115.841 1169.98 116.432C1169.81 116.842 1169.73 117.286 1169.77 117.729C1169.8 118.172 1169.94 118.6 1170.17 118.979C1170.4 119.358 1170.72 119.677 1171.1 119.91C1171.48 120.142 1171.91 120.281 1172.35 120.316C1173.09 120.377 1173.27 119.211 1172.53 119.15C1171.19 119.068 1170.77 117.881 1171.23 116.793C1171.39 116.427 1171.64 116.103 1171.95 115.849C1172.25 115.594 1172.62 115.415 1173.01 115.327C1173.31 116.936 1173.47 118.506 1173.76 120.12C1173.84 120.484 1173.88 120.854 1173.9 121.226C1171.63 121.786 1169.17 121.382 1167.9 119.491ZM1176.73 118.232C1176.43 119.231 1175.76 120.075 1174.85 120.584C1174.49 118.65 1174.23 116.9 1174.01 115.009C1175.81 115.071 1177.29 116.259 1176.73 118.231L1176.73 118.232Z" fill="#A2A3F9"/>
<path d="M827.644 178.491C839.851 188.435 854.181 195.441 869.526 198.967C878.218 200.927 887.072 202.084 895.975 202.423C909.767 203.029 918.01 196.162 904.059 189.502C891.549 183.489 877.838 181.423 863.521 179.753C845.276 177.682 825.19 176.315 812.703 164.722C817.808 169.67 822.582 174.27 827.644 178.491Z" fill="white"/>
<path d="M1029.25 137.139C1052.91 119.079 1082.05 109.688 1111.8 110.535C1116.41 110.622 1121.26 111.21 1124.99 113.728C1128.77 116.594 1130.82 122.181 1127.81 125.785C1125.15 129.344 1119.85 129.348 1115.34 128.713C1079.92 126.089 1044.43 132.534 1012.2 147.44L1029.25 137.139Z" fill="#A2A3F9"/>
<path d="M1471.92 105.382C1471.44 105.519 1470.98 105.726 1470.56 105.994C1469.66 104.697 1468.66 103.574 1467.76 102.278C1468.41 100.811 1468.66 99.197 1468.47 97.603C1468.01 95.6043 1466.62 92.1656 1464.48 91.3037C1462.16 90.333 1460.64 92.7879 1461.28 94.8967C1461.73 96.1802 1462.45 97.3478 1463.41 98.3149C1464.5 99.6274 1465.52 101 1466.45 102.427C1465.83 103.626 1465.07 104.849 1464.59 106.012C1463.95 107.911 1464.05 109.985 1464.89 111.808C1465.28 112.692 1465.89 113.467 1466.65 114.062C1467.41 114.658 1468.31 115.057 1469.26 115.225C1470.22 115.392 1471.2 115.322 1472.12 115.021C1473.04 114.72 1473.87 114.198 1474.54 113.5C1474.68 113.467 1474.65 113.325 1474.79 113.292C1475.62 114.304 1476.45 115.316 1477.32 116.471C1478.36 117.736 1479.53 119.571 1478.26 121.215C1477.86 121.731 1477.3 122.104 1476.67 122.276C1476.03 122.449 1475.36 122.412 1474.75 122.172L1475.04 122.107C1475.33 122.062 1475.61 121.946 1475.85 121.768C1476.3 121.337 1476.57 120.748 1476.59 120.126C1476.61 119.503 1476.39 118.896 1475.98 118.432C1475.68 118.255 1475.35 118.149 1475.01 118.123C1474.66 118.097 1474.32 118.152 1474 118.284C1473.68 118.415 1473.4 118.62 1473.17 118.88C1472.95 119.141 1472.79 119.451 1472.71 119.785C1471.88 123.282 1476.16 124.402 1478.49 122.817C1482.45 119.952 1478.17 115.672 1476.1 113.142C1475.92 113.031 1475.86 112.746 1475.68 112.636C1476.17 111.945 1476.49 111.147 1476.61 110.309C1476.72 109.472 1476.64 108.618 1476.36 107.819C1475.47 105.923 1473.73 104.816 1471.92 105.382ZM1465.48 99.4989C1464.61 98.34 1463.78 97.3232 1462.92 96.1731C1462.46 95.5711 1462.19 94.8483 1462.14 94.094C1462.1 93.8193 1462.15 93.5404 1462.27 93.2928C1462.4 93.0453 1462.59 92.8404 1462.83 92.7044C1463.07 92.5683 1463.35 92.5073 1463.63 92.5291C1463.9 92.5509 1464.17 92.6546 1464.38 92.8269C1465.33 93.7522 1466.1 94.8549 1466.63 96.0728C1467.26 97.3249 1467.49 98.7472 1467.27 100.135C1467.22 100.596 1467.01 100.947 1466.96 101.407C1466.42 100.813 1465.92 100.174 1465.48 99.4989V99.4989ZM1468.07 113.933C1464.81 112.125 1464.77 108.077 1466.34 105.16C1466.66 104.634 1466.85 104.141 1467.18 103.615C1468.01 104.627 1468.87 105.781 1469.7 106.794C1469.23 107.227 1468.87 107.766 1468.64 108.366C1468.42 108.966 1468.34 109.61 1468.41 110.247C1468.46 110.689 1468.61 111.113 1468.85 111.484C1469.1 111.856 1469.43 112.164 1469.81 112.383C1470.2 112.602 1470.63 112.727 1471.08 112.745C1471.52 112.764 1471.96 112.677 1472.37 112.491C1473.04 112.186 1472.64 111.076 1471.96 111.381C1470.75 111.96 1469.81 111.123 1469.69 109.949C1469.65 109.55 1469.71 109.148 1469.86 108.776C1470.01 108.403 1470.24 108.07 1470.54 107.803C1471.57 109.068 1472.47 110.365 1473.51 111.63C1473.75 111.913 1473.97 112.215 1474.17 112.532C1472.59 114.099 1470.1 114.97 1468.07 113.933ZM1475.19 108.541C1475.41 109.56 1475.23 110.626 1474.68 111.513C1473.43 109.996 1472.36 108.587 1471.25 107.037C1472.86 106.218 1474.69 106.399 1475.18 108.541L1475.19 108.541Z" fill="#A2A3F9"/>
<path d="M1428.25 97.6933L1415.02 96.6726C1414.56 96.6265 1413.92 96.4725 1413.47 96.4272C1413.43 96.4087 1413.38 96.4006 1413.33 96.4035C1413.29 96.4065 1413.25 96.4204 1413.21 96.444C1413.17 96.4677 1413.14 96.5003 1413.11 96.5392C1413.09 96.5781 1413.08 96.6221 1413.08 96.6672C1413.08 96.6859 1413.08 96.7052 1413.08 96.7242C1413.07 96.7432 1413.07 96.7614 1413.06 96.7777C1413.05 96.7941 1413.03 96.8082 1413.02 96.8193C1413 96.8303 1412.99 96.8381 1412.97 96.8422C1411.94 101.293 1411.13 105.793 1410.56 110.325C1408.45 109.607 1406.2 108.923 1404.17 109.838C1402.68 110.482 1401.45 112.268 1402.66 113.642C1403.11 114.112 1403.65 114.483 1404.24 114.734C1404.84 114.984 1405.48 115.109 1406.13 115.099C1406.82 115.218 1407.53 115.209 1408.21 115.071C1410.16 115.076 1411.15 112.895 1411.35 111.194L1411.32 111.051C1411.82 108.078 1412.02 105.028 1412.87 102.274C1413.01 102.241 1413.16 102.208 1413.12 102.066C1416.65 102.459 1420.21 102.995 1423.88 103.356C1424.05 103.466 1424.19 103.434 1424.48 103.368C1425.08 103.381 1425.57 103.568 1426.17 103.581C1426.13 104.615 1426.01 105.645 1425.83 106.664C1425.6 108.222 1425.39 109.923 1425.01 111.513C1424.67 111.293 1424.46 111.04 1424.11 110.82C1423.65 110.619 1423.16 110.478 1422.67 110.399C1421.48 110.144 1420.26 110.119 1419.07 110.325C1418.69 110.429 1418.33 110.612 1418.03 110.863C1417.73 111.114 1417.48 111.427 1417.31 111.78C1416.97 112.093 1416.75 112.516 1416.69 112.974L1416.72 113.117C1416.64 113.611 1416.71 114.119 1416.91 114.577C1417.24 115.088 1417.69 115.503 1418.23 115.776C1419.37 116.352 1420.68 116.481 1421.9 116.136L1422.9 115.907C1423.55 115.663 1424.12 115.243 1424.55 114.695C1424.97 114.146 1425.24 113.49 1425.31 112.8L1425.25 112.514C1425.22 112.372 1425.22 112.372 1425.18 112.228C1425.65 110.588 1425.96 108.908 1426.11 107.208C1426.35 105.651 1426.56 103.95 1426.65 102.424C1427.2 100.94 1427.65 99.6346 1428.2 98.1539C1428.63 98.0569 1428.56 97.7713 1428.25 97.6933Z" fill="#A2A3F9"/>
<path d="M1314.17 114.446C1334.87 112.248 1355.52 110.511 1375.45 103.681C1378.79 102.614 1382.17 101.085 1383.81 97.8526C1387.64 90.5093 1377.12 87.6619 1372.21 87.737C1305.62 88.4458 1242.21 106.167 1196.64 156.47C1225.12 125.273 1274.5 118.593 1314.17 114.446Z" fill="white"/>
<path d="M1245.36 161.451C1265.05 153.047 1286.59 147.564 1308.08 147.07C1309.81 146.895 1311.55 147.174 1313.14 147.877C1318.49 150.907 1312.89 155.931 1309.32 156.992C1298.73 160.188 1288.18 156.486 1277.4 156.144C1265.17 155.551 1254.01 158.704 1242.92 163.036C1243.83 162.519 1244.6 161.983 1245.36 161.451Z" fill="#A2A3F9"/>
</g>
</svg>
