<svg xmlns="http://www.w3.org/2000/svg" width="220" height="42.417" viewBox="0 0 220 42.417">
  <g id="Logo_-_White" data-name="Logo - White" transform="translate(110 21.208)">
    <g id="Logo_-_White-2" data-name="Logo - White" transform="translate(-110 -21.208)">
      <g id="Group_58718" data-name="Group 58718" transform="translate(0 0.394)">
        <path id="Path_47869" data-name="Path 47869" d="M14.768,42.287.081,42.314,0,.549,5.805.538l.068,36.2,8.885-.016Z" transform="translate(0 -0.38)" fill="#fff"/>
        <path id="Path_47870" data-name="Path 47870" d="M30.32,34.087l-7.464.014-1.4,8.176-5.807.011L23.507.448l6.1-.011,7.9,41.809-5.805.011Zm-6.7-4.964,5.984-.011-3-18.42Z" transform="translate(0.424 -0.383)" fill="#fff"/>
        <path id="Path_47871" data-name="Path 47871" d="M39.962.474,48.487.458c5.452-.01,9.187,2.708,9.2,8.1l.011,6.22c.006,3.377-1.114,5.215-3.184,6.108,2.194.884,3.5,2.541,3.507,6.273l.013,7.108c.01,5.391-3.718,7.945-9.228,7.956l-8.766.016Zm8.564,18.231c1.951,0,3.492-.48,3.492-3.62l-.01-5.391C52,6.673,50.579,6.023,48.268,6.028H45.72l.024,12.677Zm.094,18.009c2.073,0,3.671-.538,3.666-3.561l-.013-6.461c-.005-2.9-1.486-3.492-3.5-3.492l-3.021.006.026,13.506Z" transform="translate(1.082 -0.382)" fill="#fff"/>
        <path id="Path_47872" data-name="Path 47872" d="M78.1,5.973l-9.835.018.023,12.382,7.347-.013.009,5.094-7.347.013.025,13.147,9.835-.018.01,5.569-15.58.037L62.51.433,78.091.4Z" transform="translate(1.693 -0.384)" fill="#fff"/>
        <path id="Path_47873" data-name="Path 47873" d="M97.23,42.133l-14.687.028L82.462.4,88.267.384l.068,36.2,8.885-.016Z" transform="translate(2.233 -0.384)" fill="#fff"/>
      </g>
      <g id="Group_58719" data-name="Group 58719" transform="translate(106.861)">
        <path id="Path_47874" data-name="Path 47874" d="M106.782,39.533l11.374-.022v2.607l-14.039.027L104.044.382,118.083.355V2.963l-11.374.022.031,16.646,8.176-.015v2.43l-8.176.015Z" transform="translate(-104.044 0.01)" fill="#fff"/>
        <path id="Path_47875" data-name="Path 47875" d="M137.085,42.085l-11.969-33.8.064,33.827h-2.607L122.5.347h2.309L136.835,34.5,136.771.32h2.607l.078,41.765Z" transform="translate(-103.544 0.009)" fill="#fff"/>
        <path id="Path_47876" data-name="Path 47876" d="M147.94,33.779c.007,3.79,2.44,6.038,5.758,6.032s5.742-2.26,5.735-6.054l-.015-8-5.925.011V23.34l8.589-.016.019,10.367c.009,5.154-3.419,8.716-8.4,8.725-4.918.009-8.36-3.595-8.37-8.693L145.29,8.783C145.278,3.63,148.706.009,153.62,0c4.857-.009,8.36,3.595,8.428,8.752h-2.665c-.007-3.791-2.5-6.1-5.758-6.091-3.318.006-5.742,2.26-5.735,6.054Z" transform="translate(-102.927 0)" fill="#fff"/>
        <path id="Path_47877" data-name="Path 47877" d="M170.257.257l.078,41.765H167.67L167.592.262Z" transform="translate(-102.323 0.007)" fill="#fff"/>
        <path id="Path_47878" data-name="Path 47878" d="M191.641,41.983l-11.972-33.8.064,33.827h-2.607L177.048.245h2.309L191.387,34.4,191.323.218h2.607l.078,41.765Z" transform="translate(-102.067 0.006)" fill="#fff"/>
        <path id="Path_47879" data-name="Path 47879" d="M203.2,39.355l11.374-.023v2.607l-14.039.027L200.46.2,214.5.175V2.783L203.125,2.8l.031,16.646,8.176-.015v2.43l-8.176.015Z" transform="translate(-101.433 0.005)" fill="#fff"/>
      </g>
    </g>
  </g>
</svg>
