<svg width="36" height="29" viewBox="0 0 36 29" fill="none" xmlns="http://www.w3.org/2000/svg">
<path d="M35.0163 3.3773C33.6387 3.96983 32.2608 4.33987 30.8838 4.48851C32.4391 3.55535 33.4911 2.23706 34.0392 0.5337C32.6165 1.37783 31.0985 1.95534 29.4841 2.26655C28.062 0.755724 26.3145 0 24.2403 0C22.2557 0 20.5635 0.69977 19.1632 2.09962C17.7637 3.4994 17.0638 5.19155 17.0638 7.17631C17.0638 7.70946 17.123 8.25771 17.2416 8.82052C14.3086 8.67242 11.5573 7.93553 8.98721 6.60984C6.41724 5.284 4.23613 3.51761 2.44391 1.31067C1.79215 2.42134 1.46616 3.62874 1.46616 4.93217C1.46616 6.16159 1.75495 7.3023 2.33293 8.35398C2.91052 9.4055 3.68835 10.2571 4.66602 10.9089C3.51045 10.8644 2.4292 10.5607 1.42211 9.9978V10.0867C1.42211 11.8198 1.96647 13.3415 3.05504 14.6528C4.14376 15.9639 5.5177 16.7892 7.17654 17.1301C6.55436 17.2928 5.9247 17.3743 5.28789 17.3743C4.8731 17.3743 4.42127 17.3373 3.93255 17.2638C4.3917 18.7003 5.23606 19.8811 6.46533 20.8074C7.69483 21.7331 9.08721 22.2103 10.6426 22.2407C8.03569 24.2844 5.06587 25.3063 1.73308 25.3063C1.09604 25.3063 0.518524 25.2773 0 25.2177C3.33286 27.3652 7.00627 28.439 11.0205 28.439C13.5682 28.439 15.9604 28.0358 18.1964 27.2283C20.4334 26.4214 22.344 25.3398 23.9291 23.9843C25.5137 22.629 26.8805 21.07 28.0283 19.3074C29.1761 17.5447 30.0312 15.7044 30.5946 13.7863C31.1572 11.8678 31.4388 9.94628 31.4388 8.02036C31.4388 7.60557 31.4313 7.29467 31.4164 7.0872C32.824 6.06564 34.0238 4.82859 35.0163 3.3773Z" fill="white"/>
</svg>
