<svg width="30" height="28" viewBox="0 0 30 28" fill="none" xmlns="http://www.w3.org/2000/svg">
<path d="M7.06185 3.2664C7.06185 5.07727 5.69976 6.52886 3.50987 6.52886H3.46907C1.36078 6.53018 0 5.07596 0 3.2664C0 1.41211 1.40421 9.18263e-07 3.55067 9.18263e-07C5.69976 -0.00131512 7.02237 1.41211 7.06185 3.2664ZM0.36849 27.9987H6.64862V9.10961H0.36849V27.9987ZM22.062 8.66742C18.7312 8.66742 17.2401 10.4967 16.4018 11.7864V11.847H16.361C16.3768 11.8285 16.3912 11.8075 16.4018 11.7864V9.11092H10.123C10.2045 10.881 10.123 28 10.123 28H16.4018V17.4506C16.4018 16.8821 16.4399 16.3254 16.6084 15.9188C17.0637 14.7949 18.0981 13.6197 19.8274 13.6197C22.1028 13.6197 23.0122 15.3555 23.0122 17.8928V28H29.291V17.1703C29.2923 11.364 26.1918 8.66742 22.062 8.66742Z" fill="white"/>
</svg>
