<svg width="28" height="28" viewBox="0 0 28 28" fill="none" xmlns="http://www.w3.org/2000/svg">
<path d="M26.8335 13.9992C26.8335 12.2617 26.4962 10.5997 25.8218 9.01382C25.1474 7.4279 24.2359 6.06091 23.0875 4.91223C21.9391 3.76355 20.5718 2.85231 18.9859 2.17794C17.4 1.50357 15.7381 1.16621 14.0002 1.16621C13.1129 1.16621 12.2014 1.26389 11.2659 1.45825C10.0017 0.486362 8.57982 0 7.00026 0C5.068 0 3.41825 0.683651 2.05095 2.05064C0.683651 3.41763 0 5.06707 0 6.99963C0 8.57982 0.485737 10.0017 1.45825 11.265C1.26357 12.2014 1.16652 13.113 1.16652 13.9993C1.16652 15.7374 1.50389 17.3993 2.17831 18.9852C2.85267 20.5712 3.76422 21.9381 4.91259 23.0868C6.06096 24.2355 7.42827 25.1467 9.01418 25.8211C10.6001 26.4955 12.262 26.8329 13.9998 26.8329C14.8868 26.8329 15.7983 26.7352 16.7341 26.5408C17.9981 27.5126 19.4199 27.9991 20.9998 27.9991C22.9321 27.9991 24.5818 27.3154 25.9491 25.9484C27.3165 24.5811 28 22.9314 28 20.9995C28 19.4193 27.5139 17.998 26.5418 16.7335C26.7362 15.7986 26.8335 14.8871 26.8335 13.9992ZM20.7814 19.441C20.3803 20.1518 19.8425 20.7205 19.1681 21.1457C18.4937 21.5708 17.7491 21.8964 16.9349 22.1204C16.1204 22.3454 15.2698 22.4581 14.3828 22.4581C12.329 22.4581 10.5605 22.0601 9.07797 21.2638C7.59515 20.4678 6.85403 19.5106 6.85403 18.3925C6.85403 17.8458 7.00881 17.39 7.31906 17.0252C7.62894 16.6608 8.0873 16.4785 8.69528 16.4785C9.04767 16.4785 9.37575 16.5762 9.67958 16.7706C9.9831 16.965 10.2631 17.1986 10.5181 17.4721C10.7734 17.7456 11.0494 18.0191 11.3476 18.2924C11.6454 18.5659 12.0402 18.8002 12.5327 18.9946C13.0248 19.1889 13.5808 19.2859 14.2006 19.2859C14.9902 19.2859 15.6286 19.1315 16.1146 18.8216C16.6004 18.511 16.8439 18.1194 16.8439 17.6451C16.8439 17.1594 16.6493 16.7948 16.2604 16.5513C15.993 16.3819 15.3125 16.1632 14.2188 15.8954L11.5573 15.2389C10.828 15.0695 10.2021 14.8715 9.67963 14.6466C9.15687 14.4222 8.67077 14.1276 8.22138 13.7628C7.77168 13.3983 7.43145 12.9397 7.20068 12.3862C6.9696 11.8337 6.85439 11.1865 6.85439 10.4444C6.85439 9.55781 7.05768 8.77679 7.46498 8.10242C7.87192 7.428 8.41288 6.89883 9.0873 6.5165C9.76172 6.13351 10.4878 5.84782 11.2656 5.65924C12.0431 5.47129 12.8452 5.3771 13.6718 5.3771C14.8384 5.3771 15.9442 5.51656 16.9895 5.79583C18.0345 6.07572 18.8975 6.48584 19.5779 7.02623C20.2585 7.56751 20.5986 8.17205 20.5986 8.84068C20.5986 9.38743 20.4254 9.85533 20.0791 10.2441C19.7327 10.6328 19.2738 10.8272 18.7027 10.8272C18.3868 10.8272 18.0951 10.7544 17.828 10.6086C17.5605 10.4627 17.3176 10.2868 17.0987 10.0794C16.8801 9.87353 16.649 9.66926 16.4061 9.4691C16.1629 9.26837 15.8348 9.09533 15.4219 8.9492C15.0085 8.80334 14.5406 8.73059 14.0181 8.73059C12.2681 8.73059 11.3933 9.19911 11.3933 10.134C11.3933 10.3411 11.4389 10.5233 11.5299 10.6807C11.6212 10.8396 11.7214 10.967 11.8306 11.0637C11.94 11.1614 12.1223 11.258 12.3773 11.355C12.6326 11.4527 12.8448 11.5232 13.0153 11.5651C13.1854 11.6078 13.4529 11.671 13.8173 11.7566L15.7131 12.1938C16.3084 12.3275 16.8402 12.4673 17.3083 12.6132C17.776 12.7591 18.2774 12.9656 18.8123 13.2327C19.3469 13.5005 19.7905 13.798 20.1432 14.1264C20.4955 14.4538 20.7901 14.8703 21.0272 15.3747C21.2644 15.8796 21.3828 16.4356 21.3828 17.0429C21.3831 17.9314 21.1824 18.7302 20.7814 19.441Z" fill="white"/>
</svg>
