<svg width="29" height="29" viewBox="0 0 29 29" fill="none" xmlns="http://www.w3.org/2000/svg">
<path d="M16.153 17.8746C15.8551 17.475 15.5261 17.1038 15.1662 16.7612C14.8062 16.4183 14.4463 16.106 14.0865 15.825C13.7266 15.5439 13.3976 15.2737 13.0996 15.0149C12.8017 14.7564 12.5598 14.4863 12.3743 14.2052C12.1887 13.9241 12.0959 13.6374 12.0959 13.345C12.0959 12.9399 12.2253 12.5604 12.4839 12.2061C12.7426 11.8518 13.0575 11.5089 13.4286 11.1769C13.7996 10.845 14.1707 10.4825 14.5421 10.0888C14.9129 9.69496 15.2277 9.17497 15.4866 8.52811C15.745 7.88143 15.8744 7.14197 15.8744 6.30975C15.8744 5.31999 15.655 4.36953 15.2164 3.45866C14.7778 2.54761 14.1593 1.83888 13.3607 1.33283H15.638L17.9155 0H10.5435C9.49766 0 8.44591 0.112626 7.38903 0.337995C5.82592 0.686626 4.50999 1.48245 3.44146 2.72505C2.37311 3.96789 1.83882 5.3766 1.83882 6.95117C1.83882 8.6158 2.43788 9.99921 3.63551 11.1012C4.83321 12.2032 6.27004 12.7545 7.94584 12.7545C8.28324 12.7545 8.67684 12.7262 9.12675 12.6701C9.10424 12.76 9.06512 12.8809 9.00875 13.0327C8.95238 13.1845 8.90741 13.3057 8.87367 13.3955C8.83999 13.4854 8.8118 13.595 8.78946 13.7244C8.76689 13.8538 8.75572 13.9861 8.75572 14.1209C8.75572 14.8633 9.11535 15.7012 9.83536 16.6347C8.98062 16.6575 8.13729 16.7333 7.30483 16.8628C6.4726 16.9922 5.60108 17.1946 4.68997 17.4702C3.77898 17.7456 2.96354 18.145 2.24388 18.668C1.52405 19.1911 0.984263 19.8123 0.624345 20.5322C0.208174 21.3645 0 22.1236 0 22.8098C0 23.5632 0.16882 24.2465 0.506106 24.8596C0.843392 25.4723 1.27634 25.973 1.80502 26.3608C2.33358 26.749 2.94386 27.0748 3.63551 27.3395C4.3271 27.6036 5.0132 27.792 5.69356 27.9045C6.37404 28.0169 7.04601 28.0731 7.70965 28.0731C10.7237 28.0731 13.0857 27.3366 14.7951 25.8633C16.3697 24.4911 17.157 22.9052 17.157 21.1056C17.157 20.4642 17.0642 19.8657 16.8785 19.3087C16.6929 18.7514 16.4513 18.2738 16.153 17.8746ZM9.64946 11.7425C9.07587 11.7425 8.53047 11.5962 8.01302 11.3037C7.49557 11.0112 7.05694 10.6316 6.69709 10.1648C6.33735 9.69815 6.0224 9.17237 5.75241 8.58743C5.48255 8.00268 5.283 7.41792 5.15354 6.83293C5.02413 6.24824 4.95948 5.69143 4.95948 5.16275C4.95948 4.08312 5.24631 3.15523 5.81995 2.37914C6.39342 1.60305 7.20331 1.21501 8.24926 1.21501C8.99161 1.21501 9.66358 1.4454 10.2653 1.9066C10.867 2.36774 11.3394 2.95255 11.6825 3.6611C12.0254 4.36965 12.2898 5.10331 12.4753 5.86262C12.6609 6.62175 12.7537 7.33886 12.7537 8.01367C12.7537 9.13851 12.5091 10.0415 12.0199 10.7219C11.5305 11.4022 10.7405 11.7425 9.64946 11.7425ZM14.314 24.4114C14.005 24.9402 13.5861 25.3533 13.0574 25.6512C12.5287 25.9495 11.9637 26.1687 11.3619 26.3095C10.7602 26.4504 10.1276 26.5205 9.46392 26.5205C8.74408 26.5205 8.0298 26.436 7.32143 26.2674C6.61294 26.0989 5.93524 25.8427 5.28856 25.4998C4.64188 25.157 4.11887 24.6844 3.71966 24.0827C3.32039 23.4809 3.12078 22.7978 3.12078 22.0328C3.12078 21.3581 3.27252 20.7564 3.57625 20.2276C3.88009 19.6991 4.26813 19.2772 4.74044 18.9626C5.2128 18.6476 5.76382 18.3887 6.39372 18.1867C7.02362 17.9839 7.63089 17.8435 8.21564 17.7649C8.80034 17.686 9.39655 17.647 10.0038 17.647C10.3751 17.647 10.6564 17.6583 10.8475 17.6805C10.915 17.7258 11.0864 17.8435 11.362 18.0348C11.6377 18.2261 11.8231 18.3555 11.9188 18.423C12.0142 18.4902 12.1887 18.6196 12.4418 18.8108C12.6947 19.0021 12.8747 19.1453 12.9815 19.241C13.0881 19.3366 13.2428 19.48 13.4453 19.6711C13.6477 19.8623 13.7968 20.0281 13.8924 20.1687C13.9878 20.3092 14.1061 20.4807 14.2467 20.6829C14.3874 20.8858 14.4856 21.0797 14.5421 21.2653C14.5981 21.4509 14.6516 21.6533 14.702 21.8725C14.7525 22.0923 14.7778 22.3198 14.7778 22.5562C14.7781 23.2645 14.6234 23.8831 14.314 24.4114Z" fill="white"/>
<path d="M23.7535 4.31883V0H21.5939V4.31883H17.2749V6.47839H21.5939V10.7972H23.7535V6.47839H28.072V4.31883H23.7535Z" fill="white"/>
</svg>
