<svg xmlns="http://www.w3.org/2000/svg" width="176.03" height="30.869" viewBox="0 0 176.03 30.869">
  <g id="Сгруппировать_14058" data-name="Сгруппировать 14058" transform="translate(-16.275 -8.14)" opacity="0.5">
    <path id="Контур_26" data-name="Контур 26" d="M194.707,47.935v-6.43a3.822,3.822,0,0,0-4.038-4.081,3.974,3.974,0,0,0-3.6,1.826,3.768,3.768,0,0,0-3.391-1.826,3.4,3.4,0,0,0-3,1.526V37.665H178.44v10.27h2.255V42.247a2.4,2.4,0,0,1,2.512-2.726c1.526,0,2.233.964,2.233,2.7v5.71h2.242V42.247a2.419,2.419,0,0,1,2.512-2.726c1.483,0,2.255.964,2.255,2.7v5.71Zm33.362-10.262h-3.648V34.562h-2.255v3.112h-2.083v2.04h2.083V44.39c0,2.383.922,3.8,3.562,3.8a5.247,5.247,0,0,0,2.79-.793l-.643-1.912a4.124,4.124,0,0,1-1.976.579c-1.114,0-1.483-.686-1.483-1.715V39.714h3.648Zm19.045-.257a3.026,3.026,0,0,0-2.7,1.5V37.674H242.2V47.935h2.233V42.183c0-1.715.729-2.64,2.19-2.64a3.639,3.639,0,0,1,1.4.257l.686-2.1a4.771,4.771,0,0,0-1.59-.279Zm-28.792,1.072a7.673,7.673,0,0,0-4.188-1.072c-2.6,0-4.286,1.247-4.286,3.283,0,1.676,1.243,2.7,3.541,3.026l1.05.15c1.222.171,1.8.493,1.8,1.072,0,.793-.814,1.247-2.34,1.247a5.47,5.47,0,0,1-3.429-1.072l-1.016,1.736a7.4,7.4,0,0,0,4.445,1.333c2.962,0,4.681-1.4,4.681-3.348,0-1.8-1.355-2.748-3.583-3.069l-1.05-.15c-.964-.129-1.74-.321-1.74-1.007,0-.75.729-1.2,1.955-1.2a6.614,6.614,0,0,1,3.2.879Zm59.8-1.072a3.026,3.026,0,0,0-2.7,1.5V37.674H273.21V47.935h2.233V42.183c0-1.715.729-2.64,2.19-2.64a3.639,3.639,0,0,1,1.4.257l.686-2.1a4.771,4.771,0,0,0-1.59-.279ZM249.368,42.8a5.185,5.185,0,0,0,5.474,5.388,5.375,5.375,0,0,0,3.691-1.226l-1.072-1.8a4.51,4.51,0,0,1-2.683.922,3.052,3.052,0,0,1-3.091-3.283,3.067,3.067,0,0,1,3.091-3.283,4.509,4.509,0,0,1,2.683.922l1.072-1.8a5.375,5.375,0,0,0-3.691-1.226,5.185,5.185,0,0,0-5.474,5.388Zm20.909,0V37.661h-2.233v1.247a3.892,3.892,0,0,0-3.241-1.5,5.152,5.152,0,0,0-5.144,5.388A5.144,5.144,0,0,0,264.8,48.18a3.892,3.892,0,0,0,3.241-1.5v1.243h2.233Zm-8.307,0a3.106,3.106,0,1,1,3.112,3.283A3.075,3.075,0,0,1,261.97,42.8Zm-26.945-5.388c-3,0-5.109,2.19-5.109,5.388a5.061,5.061,0,0,0,5.259,5.388,6.237,6.237,0,0,0,4.209-1.44L238.292,45.1a4.891,4.891,0,0,1-3,1.072,2.847,2.847,0,0,1-3.069-2.512h7.621c.021-.279.043-.557.043-.857,0-3.2-2-5.388-4.874-5.388Zm-.043,2a2.546,2.546,0,0,1,2.6,2.49h-5.32a2.639,2.639,0,0,1,2.726-2.49Zm56,3.391V33.55h-2.233v5.367a3.892,3.892,0,0,0-3.241-1.5,5.152,5.152,0,0,0-5.144,5.388,5.144,5.144,0,0,0,5.144,5.388,3.892,3.892,0,0,0,3.241-1.5v1.243h2.233Zm2.61,4.184a.656.656,0,0,1,.257.051.673.673,0,0,1,.21.141.657.657,0,0,1,.141.206.639.639,0,0,1,0,.506.661.661,0,0,1-.141.206.686.686,0,0,1-.21.141.643.643,0,0,1-.257.051.664.664,0,0,1-.617-.4.643.643,0,0,1,0-.506.651.651,0,0,1,.351-.347.673.673,0,0,1,.274-.051Zm0,1.157a.485.485,0,0,0,.2-.039.519.519,0,0,0,.159-.107.508.508,0,0,0-.159-.827.493.493,0,0,0-.2-.039.506.506,0,1,0,.009,1.012Zm.039-.814a.274.274,0,0,1,.18.051.171.171,0,0,1,.064.141.163.163,0,0,1-.051.124.24.24,0,0,1-.141.06l.2.227h-.154l-.184-.227h-.06v.227h-.129v-.6Zm-.15.111v.163h.15a.146.146,0,0,0,.081,0,.075.075,0,0,0,0-.12.146.146,0,0,0-.081,0Zm-10.8-4.638a3.106,3.106,0,1,1,3.112,3.283A3.075,3.075,0,0,1,282.687,42.8Zm-75.4,0V37.661h-2.233v1.247a3.892,3.892,0,0,0-3.228-1.492,5.152,5.152,0,0,0-5.144,5.388,5.144,5.144,0,0,0,5.144,5.388,3.892,3.892,0,0,0,3.241-1.5v1.243H207.3Zm-8.307,0a3.106,3.106,0,1,1,3.112,3.283,3.075,3.075,0,0,1-3.112-3.283Z" transform="translate(-101.951 -19.169)" fill="#fff"/>
    <g id="_Group_" data-name="&lt;Group&gt;" transform="translate(16.275 8.14)">
      <rect id="Прямоугольник_1128" data-name="Прямоугольник 1128" width="13.502" height="24.266" transform="translate(18.215 3.296)" fill="#bebebe"/>
      <path id="_Path_" data-name="&lt;Path&gt;" d="M57.038,34.434A15.406,15.406,0,0,1,62.932,22.3a15.431,15.431,0,1,0,0,24.266,15.406,15.406,0,0,1-5.894-12.135Z" transform="translate(-37.965 -18.998)" fill="#a0a0a0"/>
      <path id="Контур_27" data-name="Контур 27" d="M121.179,34.426A15.431,15.431,0,0,1,96.21,46.557a15.431,15.431,0,0,0,0-24.266,15.431,15.431,0,0,1,24.969,12.135Z" transform="translate(-71.244 -18.991)" fill="#fff"/>
      <path id="Контур_28" data-name="Контур 28" d="M150.6,76.49v-.5h.2v-.1h-.5V76h.2v.5Zm.99,0v-.6h-.133l-.18.429-.18-.429h-.159v.6h.09v-.45l.167.39h.116l.167-.39v.454Z" transform="translate(-102.148 -51.5)" fill="#f79e1b"/>
    </g>
  </g>
</svg>
