<svg xmlns="http://www.w3.org/2000/svg" width="73.556" height="24.663" viewBox="0 0 73.556 24.663">
  <path id="Вычитание_1" data-name="Вычитание 1" d="M135.846,119.907c-2.893,0-5.506-.654-6.99-1.75l-.435-.326,2.142-5.2.717.422a10.217,10.217,0,0,0,5.042,1.342,4.205,4.205,0,0,0,1.972-.437,1.942,1.942,0,0,0,.692-.6,1.592,1.592,0,0,0,.269-.911c0-.75-.443-1.41-2.71-2.563-2.4-1.274-5.148-3.177-5.148-6.61,0-4.727,4.013-8.028,9.759-8.028a11.859,11.859,0,0,1,5.745,1.225l.535.29L145.41,102.1l-.724-.39a8.453,8.453,0,0,0-3.8-.917,4,4,0,0,0-2.218.537,1.4,1.4,0,0,0-.688,1.142,1.655,1.655,0,0,0,.793,1.227,16.351,16.351,0,0,0,2.185,1.343c3.3,1.708,4.911,3.857,4.911,6.572a7.952,7.952,0,0,1-.723,3.389,7.5,7.5,0,0,1-2.04,2.618,9.424,9.424,0,0,1-3.165,1.688A13.474,13.474,0,0,1,135.846,119.907Zm31.416-.34h-6.585l-.474-5.852h-5.491l-2.724,5.852h-6.793l11.849-23.959h7.366l2.853,23.959Zm-7.889-16.592c-.266.672-.524,1.275-.768,1.79l-1.811,3.872h3.082l-.38-4.1c-.027-.4-.065-.865-.105-1.353l-.018-.212Zm-34.237,16.591h-6.344l4.625-23.959h6.338Zm-24.14,0h0l-2.743-19.349,6.657,4.116-11.2-8.726h10.768l1.089,11.381c.12,1.182.228,2.429.351,4.045.563-1.314,1.206-2.726,1.966-4.315l5.334-11.112H120.3l-12.559,23.96Z" transform="translate(-93.706 -95.243)" fill="#fff" opacity="0.5"/>
</svg>
