<svg xmlns="http://www.w3.org/2000/svg" width="78.693" height="33.565" viewBox="0 0 78.693 33.565">
  <g id="Сгруппировать_14057" data-name="Сгруппировать 14057" transform="translate(-1079.307 -923.904)">
    <g id="Сгруппировать_14039" data-name="Сгруппировать 14039" transform="translate(1079.307 923.904)">
      <path id="Контур_45435" data-name="Контур 45435" d="M43.049,33.36a6.039,6.039,0,0,0,1.389-4.3,5.988,5.988,0,0,0-3.969,2.054,5.654,5.654,0,0,0-1.423,4.138,5,5,0,0,0,4-1.887" transform="translate(-28.176 -29.055)" fill="#879ab2"/>
      <path id="Контур_45436" data-name="Контур 45436" d="M38.68,38.978c-2.211-.132-4.091,1.255-5.147,1.255s-2.673-1.188-4.422-1.156a6.52,6.52,0,0,0-5.543,3.367c-2.376,4.095-.627,10.168,1.683,13.5,1.122,1.65,2.474,3.466,4.256,3.4,1.683-.066,2.343-1.09,4.389-1.09s2.639,1.09,4.421,1.057c1.848-.033,3-1.651,4.125-3.3a14.655,14.655,0,0,0,1.847-3.8,6,6,0,0,1-3.6-5.448,6.112,6.112,0,0,1,2.9-5.118,6.321,6.321,0,0,0-4.917-2.673" transform="translate(-22.435 -32.488)" fill="#879ab2"/>
    </g>
    <g id="Сгруппировать_14040" data-name="Сгруппировать 14040" transform="translate(1105.518 925.975)">
      <path id="Контур_45437" data-name="Контур 45437" d="M71.815,31.944a7.77,7.77,0,0,1,8.152,8.135,7.857,7.857,0,0,1-8.272,8.17H66.374V56.71H62.53V31.944h9.285ZM66.374,45.022h4.411c3.347,0,5.252-1.8,5.252-4.926s-1.9-4.908-5.235-4.908H66.374Z" transform="translate(-62.531 -31.944)" fill="#879ab2"/>
      <path id="Контур_45438" data-name="Контур 45438" d="M90.74,54.96c0-3.158,2.42-5.1,6.711-5.338l4.943-.292v-1.39c0-2.008-1.356-3.21-3.621-3.21-2.146,0-3.485,1.03-3.81,2.643h-3.5c.206-3.261,2.986-5.664,7.449-5.664,4.376,0,7.174,2.317,7.174,5.938V60.092h-3.553V57.123h-.085a6.451,6.451,0,0,1-5.7,3.278C93.212,60.4,90.74,58.2,90.74,54.96Zm11.654-1.63V51.905l-4.445.274c-2.214.155-3.467,1.133-3.467,2.678,0,1.579,1.3,2.609,3.3,2.609A4.328,4.328,0,0,0,102.393,53.33Z" transform="translate(-72.299 -35.325)" fill="#879ab2"/>
      <path id="Контур_45439" data-name="Контур 45439" d="M118.4,66.907v-3a6.861,6.861,0,0,0,1.2.069c1.716,0,2.643-.721,3.209-2.574,0-.034.326-1.1.326-1.116l-6.522-18.073h4.016L125.193,56.9h.068l4.566-14.692h3.913l-6.763,19c-1.544,4.377-3.329,5.784-7.07,5.784A14.337,14.337,0,0,1,118.4,66.907Z" transform="translate(-81.258 -35.498)" fill="#879ab2"/>
    </g>
  </g>
</svg>
