<svg xmlns="http://www.w3.org/2000/svg" width="17.304" height="15.097" viewBox="0 0 17.304 15.097">
  <g id="noun_cart_1234598" transform="translate(-9.545 -14.945)">
    <path id="Контур_7" data-name="Контур 7" d="M69.033,68.76a1.653,1.653,0,1,0,1.653,1.653A1.653,1.653,0,0,0,69.033,68.76Zm0,2.876a1.24,1.24,0,1,1,1.24-1.24A1.24,1.24,0,0,1,69.033,71.636Z" transform="translate(-45.588 -42.398)" fill="#00b6e9" stroke="#00b6e9" stroke-width="0.75"/>
    <path id="Контур_8" data-name="Контур 8" d="M13.342,16.113a1.033,1.033,0,0,0-1-.793H10.127a.207.207,0,0,0,0,.413h2.211a.62.62,0,0,1,.6.475l1.676,7a1.86,1.86,0,0,0,1.808,1.426h7.05a1.86,1.86,0,0,0,1.806-1.413l1.186-4.847a.207.207,0,0,0-.207-.256H13.821Zm12.67,2.415L24.879,23.12a1.446,1.446,0,0,1-1.4,1.1h-7.05a1.446,1.446,0,0,1-1.407-1.114l-1.1-4.577Z" fill="#00b6e9" stroke="#00b6e9" stroke-width="0.75"/>
    <path id="Контур_9" data-name="Контур 9" d="M31.17,70.373a1.653,1.653,0,1,0,1.653-1.653,1.653,1.653,0,0,0-1.653,1.653Zm2.876,0a1.24,1.24,0,1,1-1.24-1.24A1.24,1.24,0,0,1,34.046,70.373Z" transform="translate(-16.859 -42.367)" fill="#00b6e9" stroke="#00b6e9" stroke-width="0.75"/>
  </g>
</svg>
