<svg xmlns="http://www.w3.org/2000/svg" width="82.027" height="80.78" viewBox="0 0 82.027 80.78">
  <g id="Сгруппировать_13401" data-name="Сгруппировать 13401" transform="translate(-908.5 -1397.351)">
    <path id="Контур_33776" data-name="Контур 33776" d="M243.281,357.9l-4.887-50.978L162,314.127l4.479,51.135a5.757,5.757,0,0,0,6.28,5.181L238.1,364.18A5.757,5.757,0,0,0,243.281,357.9Z" transform="translate(747.219 1107.661)" fill="#00b6e9"/>
    <path id="Контур_33777" data-name="Контур 33777" d="M160.313,334.349v51.212a5.757,5.757,0,0,0,5.757,5.757h65.637a5.757,5.757,0,0,0,5.757-5.757V334.349Z" transform="translate(748.707 1083.524)" fill="#fff" stroke="#3b3b3b" stroke-width="1"/>
    <path id="Контур_33778" data-name="Контур 33778" d="M674.324,682.961h9.742a5.757,5.757,0,0,0,5.757-5.757V665.74Z" transform="translate(295.989 791.541)" fill="#dddada"/>
    <path id="Контур_33779" data-name="Контур 33779" d="M670.559,666.92a5.757,5.757,0,0,0-5.127,6.325l1.039,9.717,15.5-17.221Z" transform="translate(303.842 791.541)" fill="#efefef"/>
    <rect id="Прямоугольник_2193" data-name="Прямоугольник 2193" width="5.811" height="5.811" rx="2.905" transform="translate(960.088 1425.302)" fill="#ccc"/>
    <rect id="Прямоугольник_2194" data-name="Прямоугольник 2194" width="5.811" height="5.811" rx="2.905" transform="translate(968.454 1425.302)" fill="#a3a3a3"/>
    <rect id="Прямоугольник_2195" data-name="Прямоугольник 2195" width="5.811" height="5.811" rx="2.905" transform="translate(936.572 1425.302)" fill="#ccc"/>
    <rect id="Прямоугольник_2196" data-name="Прямоугольник 2196" width="5.811" height="5.811" rx="2.905" transform="translate(944.41 1425.302)" fill="#ccc"/>
    <rect id="Прямоугольник_2197" data-name="Прямоугольник 2197" width="5.811" height="5.811" rx="2.905" transform="translate(952.249 1425.302)" fill="#ccc"/>
    <rect id="Прямоугольник_2198" data-name="Прямоугольник 2198" width="5.811" height="5.811" rx="2.905" transform="translate(960.104 1433.668)" fill="#fec25f"/>
    <rect id="Прямоугольник_2199" data-name="Прямоугольник 2199" width="5.811" height="5.811" rx="2.905" transform="translate(968.47 1433.668)" fill="#a3a3a3"/>
    <rect id="Прямоугольник_2200" data-name="Прямоугольник 2200" width="5.811" height="5.811" rx="2.905" transform="translate(920.911 1433.668)" fill="#a3a3a3"/>
    <rect id="Прямоугольник_2201" data-name="Прямоугольник 2201" width="5.811" height="5.811" rx="2.905" transform="translate(928.749 1433.668)" fill="#ccc"/>
    <rect id="Прямоугольник_2202" data-name="Прямоугольник 2202" width="5.811" height="5.811" rx="2.905" transform="translate(936.588 1433.668)" fill="#ccc"/>
    <rect id="Прямоугольник_2203" data-name="Прямоугольник 2203" width="5.811" height="5.811" rx="2.905" transform="translate(944.426 1433.668)" fill="#ccc"/>
    <rect id="Прямоугольник_2204" data-name="Прямоугольник 2204" width="5.811" height="5.811" rx="2.905" transform="translate(952.265 1433.668)" fill="#ccc"/>
    <rect id="Прямоугольник_2205" data-name="Прямоугольник 2205" width="5.811" height="5.811" rx="2.905" transform="translate(960.104 1442.035)" fill="#fec25f"/>
    <rect id="Прямоугольник_2206" data-name="Прямоугольник 2206" width="5.811" height="5.811" rx="2.905" transform="translate(968.47 1442.035)" fill="#a3a3a3"/>
    <rect id="Прямоугольник_2207" data-name="Прямоугольник 2207" width="5.811" height="5.811" rx="2.905" transform="translate(920.911 1442.035)" fill="#a3a3a3"/>
    <rect id="Прямоугольник_2208" data-name="Прямоугольник 2208" width="5.811" height="5.811" rx="2.905" transform="translate(928.749 1442.035)" fill="#ccc"/>
    <rect id="Прямоугольник_2209" data-name="Прямоугольник 2209" width="5.811" height="5.811" rx="2.905" transform="translate(936.588 1442.035)" fill="#fec25f"/>
    <rect id="Прямоугольник_2210" data-name="Прямоугольник 2210" width="5.811" height="5.811" rx="2.905" transform="translate(944.426 1442.035)" fill="#ccc"/>
    <rect id="Прямоугольник_2211" data-name="Прямоугольник 2211" width="5.811" height="5.811" rx="2.905" transform="translate(952.265 1442.035)" fill="#ccc"/>
    <rect id="Прямоугольник_2212" data-name="Прямоугольник 2212" width="5.811" height="5.811" rx="2.905" transform="translate(960.104 1450.401)" fill="#fec25f"/>
    <rect id="Прямоугольник_2213" data-name="Прямоугольник 2213" width="5.811" height="5.811" rx="2.905" transform="translate(968.47 1450.401)" fill="#a3a3a3"/>
    <rect id="Прямоугольник_2214" data-name="Прямоугольник 2214" width="5.811" height="5.811" rx="2.905" transform="translate(920.911 1450.401)" fill="#a3a3a3"/>
    <rect id="Прямоугольник_2215" data-name="Прямоугольник 2215" width="5.811" height="5.811" rx="2.905" transform="translate(928.749 1450.401)" fill="#ccc"/>
    <rect id="Прямоугольник_2216" data-name="Прямоугольник 2216" width="5.811" height="5.811" rx="2.905" transform="translate(936.588 1450.401)" fill="#fec25f"/>
    <rect id="Прямоугольник_2217" data-name="Прямоугольник 2217" width="5.811" height="5.811" rx="2.905" transform="translate(944.426 1450.401)" fill="#ccc"/>
    <rect id="Прямоугольник_2218" data-name="Прямоугольник 2218" width="5.811" height="5.811" rx="2.905" transform="translate(952.265 1450.401)" fill="#ccc"/>
    <rect id="Прямоугольник_2219" data-name="Прямоугольник 2219" width="5.811" height="5.811" rx="2.905" transform="translate(920.911 1458.768)" fill="#a3a3a3"/>
    <rect id="Прямоугольник_2220" data-name="Прямоугольник 2220" width="5.811" height="5.811" rx="2.905" transform="translate(928.749 1458.768)" fill="#ccc"/>
    <rect id="Прямоугольник_2221" data-name="Прямоугольник 2221" width="5.811" height="5.811" rx="2.905" transform="translate(936.588 1458.768)" fill="#ccc"/>
    <rect id="Прямоугольник_2222" data-name="Прямоугольник 2222" width="5.811" height="5.811" rx="2.905" transform="translate(944.426 1458.768)" fill="#ccc"/>
    <rect id="Прямоугольник_2223" data-name="Прямоугольник 2223" width="5.811" height="5.811" rx="2.905" transform="translate(952.265 1458.768)" fill="#ccc"/>
    <path id="Контур_33780" data-name="Контур 33780" d="M231.7,203.572H165.779c-3.113,0-5.636,3.077-5.636,6.874v9.274h77.192v-9.274C237.335,206.649,234.811,203.572,231.7,203.572Z" transform="translate(748.857 1198.615)" fill="#e5a876" stroke="#3b3b3b" stroke-width="1"/>
    <circle id="Эллипс_199" data-name="Эллипс 199" cx="2.211" cy="2.211" r="2.211" transform="translate(919.101 1407.183) rotate(-22.386)" fill="#4f4f4f" opacity="0.42"/>
    <path id="Контур_33781" data-name="Контур 33781" d="M260.023,163.258a1.148,1.148,0,0,0-1.145,1.145v9.592a1.145,1.145,0,0,0,2.289,0V164.4A1.148,1.148,0,0,0,260.023,163.258Z" transform="translate(661.965 1234.093)" fill="#3b3b3b"/>
    <circle id="Эллипс_200" data-name="Эллипс 200" cx="2.211" cy="2.211" r="2.211" transform="translate(925.186 1407.161) rotate(-21.949)" fill="#4f4f4f" opacity="0.42"/>
    <path id="Контур_33782" data-name="Контур 33782" d="M310.682,163.258a1.148,1.148,0,0,0-1.145,1.145v9.592a1.145,1.145,0,1,0,2.289,0V164.4A1.148,1.148,0,0,0,310.682,163.258Z" transform="translate(617.382 1234.093)" fill="#3b3b3b"/>
    <circle id="Эллипс_201" data-name="Эллипс 201" cx="2.211" cy="2.211" r="2.211" transform="translate(964.622 1406.516) rotate(-8.266)" fill="#4f4f4f" opacity="0.42"/>
    <path id="Контур_33783" data-name="Контур 33783" d="M636.375,163.258a1.148,1.148,0,0,0-1.145,1.145v9.592a1.145,1.145,0,0,0,2.289,0V164.4A1.148,1.148,0,0,0,636.375,163.258Z" transform="translate(330.754 1234.093)" fill="#3b3b3b"/>
    <path id="Контур_33784" data-name="Контур 33784" d="M679.229,236.819a2.211,2.211,0,1,0,2.191,2.231A2.211,2.211,0,0,0,679.229,236.819Z" transform="translate(293.995 1169.355)" fill="#4f4f4f" opacity="0.42"/>
    <path id="Контур_33785" data-name="Контур 33785" d="M687.035,163.258a1.148,1.148,0,0,0-1.145,1.145v9.592a1.145,1.145,0,1,0,2.289,0V164.4A1.148,1.148,0,0,0,687.035,163.258Z" transform="translate(286.17 1234.093)" fill="#3b3b3b"/>
    <rect id="Прямоугольник_2224" data-name="Прямоугольник 2224" width="76.39" height="3.061" transform="translate(909.401 1416.075)" fill="#fecea2"/>
  </g>
</svg>
