<svg xmlns="http://www.w3.org/2000/svg" width="16" height="16.001" viewBox="0 0 16 16.001">
  <path id="Вычитание_30" data-name="Вычитание 30" d="M1250-4105a8.009,8.009,0,0,1-8-8,8.009,8.009,0,0,1,8-8,8.009,8.009,0,0,1,8,8A8.009,8.009,0,0,1,1250-4105Zm-2.642-4.463a.866.866,0,0,0-.914.806.866.866,0,0,0,.914.806h4.934a.866.866,0,0,0,.914-.806.866.866,0,0,0-.914-.806h-1.553v-4.27a.866.866,0,0,0-.914-.806h-2.467a.866.866,0,0,0-.914.806.866.866,0,0,0,.914.806h1.553v3.464Zm2.467-8.337a1.256,1.256,0,0,0-1.325,1.168,1.255,1.255,0,0,0,1.325,1.167,1.255,1.255,0,0,0,1.326-1.167A1.256,1.256,0,0,0,1249.824-4117.8Z" transform="translate(-1242 4121)" fill="#fff"/>
</svg>
