<svg xmlns="http://www.w3.org/2000/svg" width="101.834" height="102.156" viewBox="0 0 101.834 102.156">
  <g id="Сгруппировать_13471" data-name="Сгруппировать 13471" transform="translate(-150.578 -89.5)">
    <path id="Контур_36190" data-name="Контур 36190" d="M234.733,231.617a10.76,10.76,0,0,1,7.8-3.339h58.1a10.79,10.79,0,0,1,10.79,10.79v40.244a10.79,10.79,0,0,1-10.79,10.79h-55.6" transform="translate(-60.02 -99.447)" fill="none" stroke="#ccc" stroke-linecap="round" stroke-linejoin="round" stroke-width="2"/>
    <g id="Сгруппировать_13455" data-name="Сгруппировать 13455" transform="translate(186.702 90.5)">
      <path id="Контур_36191" data-name="Контур 36191" d="M343.335,154.5V141.032a14.975,14.975,0,1,0-29.951,0V154.5" transform="translate(-303.492 -116.164)" fill="none" stroke="#ccc" stroke-linecap="round" stroke-linejoin="round" stroke-width="2"/>
      <path id="Контур_36192" data-name="Контур 36192" d="M277.828,128.831V115.368a24.867,24.867,0,1,1,49.734,0v13.464" transform="translate(-277.828 -90.5)" fill="none" stroke="#ccc" stroke-linecap="round" stroke-linejoin="round" stroke-width="2"/>
    </g>
    <path id="Контур_36193" data-name="Контур 36193" d="M344.14,316.224a3.71,3.71,0,0,1-3.71-3.709v-8.749a.832.832,0,0,0-.389-.695,8.666,8.666,0,0,1-3.166-10.84,8.561,8.561,0,0,1,6-4.865,8.655,8.655,0,0,1,6.6,15.7.835.835,0,0,0-.39.7v8.748a3.709,3.709,0,0,1-3.709,3.709Z" transform="translate(-133.188 -141.952)" fill="#ccc"/>
    <path id="Контур_36194" data-name="Контур 36194" d="M171.727,266.373s-10.987,8.521-20.149,8.521v21.6a13.3,13.3,0,0,0,4.915,10.8c3.215,2.376,12.814,8.7,13.221,8.973l2.013,1.327,2.013-1.327c.407-.268,10.006-6.6,13.221-8.973a13.3,13.3,0,0,0,4.915-10.8v-21.6C182.714,274.893,171.727,266.373,171.727,266.373Z" transform="translate(0 -126.943)" fill="none" stroke="#ccc" stroke-linecap="round" stroke-linejoin="round" stroke-width="2"/>
    <path id="Контур_36195" data-name="Контур 36195" d="M194.433,343.132l6.709,6.709,10.967-10.967" transform="translate(-30.933 -179.274)" fill="none" stroke="#ccc" stroke-linecap="round" stroke-linejoin="round" stroke-width="2"/>
  </g>
</svg>
