<svg xmlns="http://www.w3.org/2000/svg" width="92.707" height="102.027" viewBox="0 0 92.707 102.027">
  <g id="Сгруппировать_13470" data-name="Сгруппировать 13470" transform="translate(-1095 -91)">
    <g id="Сгруппировать_13453" data-name="Сгруппировать 13453" transform="translate(1096 92)">
      <g id="Сгруппировать_13452" data-name="Сгруппировать 13452">
        <path id="Контур_36183" data-name="Контур 36183" d="M541.918,1788.13v-61.256a10.785,10.785,0,0,0-3.074-7.541l-8.648-8.841H462.934l-8.648,8.841a10.786,10.786,0,0,0-3.074,7.541v61.256" transform="translate(-451.212 -1698.193)" fill="none" stroke="#ccc" stroke-linecap="round" stroke-linejoin="round" stroke-width="2"/>
        <path id="Контур_36184" data-name="Контур 36184" d="M617.989,1869.434v10.089H599.925v-4.9" transform="translate(-527.283 -1779.496)" fill="none" stroke="#ccc" stroke-linecap="round" stroke-linejoin="round" stroke-width="2"/>
        <path id="Контур_36185" data-name="Контур 36185" d="M451.211,1869.434v10.089h18.064v-4.9" transform="translate(-451.211 -1779.496)" fill="none" stroke="#ccc" stroke-linecap="round" stroke-linejoin="round" stroke-width="2"/>
        <path id="Контур_36186" data-name="Контур 36186" d="M531.755,1787.824h10.819V1763.9H479.636v23.926h11.819" transform="translate(-465.751 -1725.512)" fill="none" stroke="#ccc" stroke-linecap="round" stroke-linejoin="round" stroke-width="2"/>
        <path id="Контур_36188" data-name="Контур 36188" d="M476,1697.612v-6.822a5.477,5.477,0,0,1,5.477-5.477H537.4a5.477,5.477,0,0,1,5.477,5.477v6.822" transform="translate(-463.89 -1685.313)" fill="none" stroke="#ccc" stroke-linecap="round" stroke-linejoin="round" stroke-width="2"/>
        <line id="Линия_337" data-name="Линия 337" x2="76.798" transform="translate(6.954 89.938)" fill="none" stroke="#ccc" stroke-linecap="round" stroke-linejoin="round" stroke-width="2"/>
        <rect id="Прямоугольник_2226" data-name="Прямоугольник 2226" width="53.168" height="4.609" transform="translate(18.769 43.271)" fill="#ccc"/>
        <path id="Вычитание_29" data-name="Вычитание 29" d="M39.382,22.437H1a1,1,0,0,1-1-1V0H1.5V20.442a.5.5,0,0,0,.5.5H38.387a.5.5,0,0,0,.5-.5V.005h1.5V21.437A1,1,0,0,1,39.382,22.437Z" transform="translate(25.42 53.834)" fill="#ccc"/>
        <rect id="Прямоугольник_2229" data-name="Прямоугольник 2229" width="31" height="2" transform="translate(30 58)" fill="#ccc"/>
        <rect id="Прямоугольник_2230" data-name="Прямоугольник 2230" width="31" height="1" transform="translate(30 54)" fill="#ccc"/>
      </g>
    </g>
    <path id="Контур_36189" data-name="Контур 36189" d="M4.211,0,5.39,2.9l3.031.158L6.119,4.99l.694,2.823L4.211,6.26l-2.6,1.5L2.3,5,0,3.059,3.031,2.9Z" transform="translate(1146.693 162.872) rotate(180)" fill="#ccc" stroke="#ccc" stroke-linecap="round" stroke-linejoin="round" stroke-width="1"/>
  </g>
</svg>
