<svg xmlns="http://www.w3.org/2000/svg" width="116.211" height="92.396" viewBox="0 0 116.211 92.396">
  <g id="Сгруппировать_13469" data-name="Сгруппировать 13469" transform="translate(17846.871 -252.659)">
    <g id="Сгруппировать_13458" data-name="Сгруппировать 13458" transform="translate(-17835.264 255.555)">
      <g id="Сгруппировать_33" data-name="Сгруппировать 33" transform="translate(0 0)">
        <g id="Сгруппировать_8" data-name="Сгруппировать 8" transform="translate(0 0)">
          <g id="Сгруппировать_11043" data-name="Сгруппировать 11043">
            <g id="Сгруппировать_11031" data-name="Сгруппировать 11031">
              <path id="Контур_29550" data-name="Контур 29550" d="M279.667,346.832c-7.967-10.083-36.892-9.187-36.892-9.187s-21.153-3.137-35.043,9.187c-7.5,6.656-11.525,19.89-11.485,37.06.113,19.7,22.392,30.006,46.528,30.006s46.416-10.308,46.528-30.006a52.97,52.97,0,0,0-4.01-21.516s0-.007,0-.011C283.274,353.694,287.432,356.66,279.667,346.832Z" transform="translate(-196.247 -337.288)" fill="none" stroke="#ccc" stroke-width="2"/>
              <path id="Контур_29552" data-name="Контур 29552" d="M302.893,411.579c-6.446-12.26-22.95-16.6-35.478-16.6s-29.031,4.344-35.478,16.6c-6.3,11.986-.928,26.422,13.388,26.42a128.682,128.682,0,0,0,14.411-1.928,39.978,39.978,0,0,1,15.358,0A128.684,128.684,0,0,0,289.505,438C303.821,438,309.195,423.565,302.893,411.579Z" transform="translate(-220.887 -380.124)" fill="none" stroke="#ccc" stroke-width="1"/>
              <path id="Контур_29555" data-name="Контур 29555" d="M252.614,387.966c-17.347,0-30.588,2.512-39.78,5.186a39.121,39.121,0,0,0-5.013,9.5c7.752-2.989,22.76-7.305,44.793-7.305,23.979,0,38.807,5.358,44.855,8.118-.415-1.2-.858-2.369-1.351-3.47,0,0,0-.007,0-.011a5.437,5.437,0,0,1,.832-4.794C288.782,392.016,274.145,387.966,252.614,387.966Z" transform="translate(-207.105 -374.904)" fill="#0f3464" stroke="#ccc" stroke-width="1"/>
              <g id="Сгруппировать_11027" data-name="Сгруппировать 11027" transform="translate(54.241 20.407) rotate(14)">
                <path id="Контур_29556" data-name="Контур 29556" d="M1.608,10.857,0,5.763A75.175,75.175,0,0,1,10.8,1.132,28.006,28.006,0,0,1,21.782.171l1.41,5.866a34.573,34.573,0,0,0-11.335.245A33.469,33.469,0,0,0,1.608,10.857Z" transform="translate(0 0)" fill="#ccc"/>
              </g>
              <path id="Контур_29558" data-name="Контур 29558" d="M352.809,374.659H333.028a2.72,2.72,0,0,0-2.456,2.922v8.328a2.72,2.72,0,0,0,2.456,2.922h19.781a2.72,2.72,0,0,0,2.457-2.922v-8.328A2.72,2.72,0,0,0,352.809,374.659Z" transform="translate(-296.29 -364.993)" fill="#0f3464" stroke="#ccc" stroke-width="1"/>
              <path id="Контур_29559" data-name="Контур 29559" d="M338.766,393.316a.544.544,0,0,1-.491-.583V384.4a.544.544,0,0,1,.491-.583h19.781a.543.543,0,0,1,.491.583v8.328a.543.543,0,0,1-.491.583Z" transform="translate(-302.028 -371.817)" fill="none" stroke="#ccc" stroke-width="1"/>
              <path id="Контур_29755" data-name="Контур 29755" d="M2.58,18.742V11.319H4.372l2.849,4.14v-4.14H9.168v7.423H7.488L4.528,14.48v4.262Zm7.924,0V11.319h1.97v5.687h3.439v1.736Z" transform="translate(37.394 1.655)" fill="#ccc"/>
              <g id="Сгруппировать_13459" data-name="Сгруппировать 13459" transform="translate(57.018 31.467)">
                <ellipse id="Эллипс_168" data-name="Эллипс 168" cx="6.324" cy="10.317" rx="6.324" ry="10.317" fill="none" stroke="#ccc" stroke-width="1"/>
                <path id="Контур_29673" data-name="Контур 29673" d="M1680.347,473.321c0,2.25-1.118,4.074-2.5,4.074s-2.5-1.824-2.5-4.074,1.118-4.074,2.5-4.074S1680.347,471.071,1680.347,473.321Z" transform="translate(-1672.047 -461.368)" fill="#ccc"/>
              </g>
              <g id="Сгруппировать_13460" data-name="Сгруппировать 13460" transform="translate(22.893 31.467)">
                <path id="Контур_29674" data-name="Контур 29674" d="M1538.309,471.392c0,5.7-2.831,10.317-6.324,10.317s-6.324-4.619-6.324-10.317,2.831-10.317,6.324-10.317S1538.309,465.694,1538.309,471.392Z" transform="translate(-1525.661 -461.075)" fill="none" stroke="#ccc" stroke-width="1"/>
                <path id="Контур_29675" data-name="Контур 29675" d="M1551.751,473.321c0,2.25-1.118,4.074-2.5,4.074s-2.5-1.824-2.5-4.074,1.118-4.074,2.5-4.074S1551.751,471.071,1551.751,473.321Z" transform="translate(-1541.922 -461.729)" fill="#cbcbcb"/>
              </g>
              <g id="Сгруппировать_13461" data-name="Сгруппировать 13461" transform="translate(42.357 30.942) rotate(166)">
                <path id="Контур_29556-2" data-name="Контур 29556" d="M1.608,0,0,5.094A75.182,75.182,0,0,0,10.8,9.725a28.008,28.008,0,0,0,10.979.961l1.41-5.866a34.576,34.576,0,0,1-11.335-.245A33.472,33.472,0,0,1,1.608,0Z" transform="translate(0 0)" fill="#ccc"/>
              </g>
            </g>
            <path id="Контур_36200" data-name="Контур 36200" d="M-1340.8,4879.16s-7.173.871-12.769.895a103.854,103.854,0,0,1-12.341-.895s6.869,4.691,12.974,4.457S-1340.8,4879.16-1340.8,4879.16Z" transform="translate(1400.926 -4816.324)" fill="#ccc"/>
          </g>
        </g>
      </g>
    </g>
    <g id="Сгруппировать_13463" data-name="Сгруппировать 13463" transform="translate(-17850.871 248.659)">
      <path id="Контур_36196" data-name="Контур 36196" d="M410.98,367.919c-1.206-24.357-23.972-32.038-48.628-32.038h0c-24.611,0-47.35,7.61-48.623,31.9-5.242,1.931-8.654.138-8.654,12.694,0,19.35,3.1,16.512,13.521,17.676a2.106,2.106,0,0,0,2.342-2.091V364.13a2.1,2.1,0,0,0-.995-1.784c1.979-17.683,24.429-20.724,42.409-20.724h0c17.923,0,40.339,2.956,42.391,20.559a2.1,2.1,0,0,0-1.32,1.95v31.935a2.106,2.106,0,0,0,2.342,2.091c10.42-1.164,13.521,1.673,13.521-17.676C419.286,368.2,416.025,369.922,410.98,367.919Z" transform="translate(-300.075 -330.882)" fill="#0f3464" stroke="#ccc" stroke-width="2"/>
      <g id="Сгруппировать_13462" data-name="Сгруппировать 13462" transform="translate(78.963 70.335)">
        <path id="Контур_36197" data-name="Контур 36197" d="M706.49,833.19a1.4,1.4,0,0,1,0-2.806c13.834,0,25.089-9.929,25.089-19.674a1.4,1.4,0,0,1,2.806,0c0,5.563-3.961,12.76-9.338,16.631A30.527,30.527,0,0,1,706.49,833.19Z" transform="translate(-705.087 -811.306)" fill="#0f3464" stroke="#ccc" stroke-width="2"/>
      </g>
      <rect id="Прямоугольник_2231" data-name="Прямоугольник 2231" width="14.856" height="9.161" rx="4.581" transform="translate(65.51 86.235)" fill="#ccc" stroke="#ccc" stroke-width="2"/>
      <path id="Прямоугольник_2232" data-name="Прямоугольник 2232" d="M0,0H6.19a0,0,0,0,1,0,0V0A2.146,2.146,0,0,1,4.044,2.146h-1.9A2.146,2.146,0,0,1,0,0V0A0,0,0,0,1,0,0Z" transform="translate(103.628 67.068)" fill="#ccc" stroke="#ccc" stroke-width="2"/>
    </g>
  </g>
</svg>
