<svg xmlns="http://www.w3.org/2000/svg" width="177.598" height="86.77" viewBox="0 0 177.598 86.77">
  <g id="Сгруппировать_13619" data-name="Сгруппировать 13619" transform="translate(-1381.24 -1273.906)">
    <g id="Сгруппировать_13616" data-name="Сгруппировать 13616" transform="translate(1393.82 1274.496)">
      <g id="Сгруппировать_13611" data-name="Сгруппировать 13611" transform="translate(0 12.193)">
        <path id="Контур_45217" data-name="Контур 45217" d="M111.224,143.63a2.166,2.166,0,0,1-1.056.283H94.832a2.166,2.166,0,0,1-1.056-.283c-8.993,7.329-21.069,23.932-21.069,34.458,0,9.76,2.947,15.905,9.348,21.213a10.577,10.577,0,0,0,6.748,2.447h27.4a10.576,10.576,0,0,0,6.747-2.447c6.4-5.307,9.348-11.453,9.348-21.213C132.293,167.562,120.217,150.959,111.224,143.63Z" transform="translate(-72.706 -128.591)" fill="none" stroke="#3b3b3b" stroke-linecap="round" stroke-linejoin="round" stroke-width="1"/>
        <path id="Контур_45218" data-name="Контур 45218" d="M111.224,143.63a2.166,2.166,0,0,1-1.056.283H94.832a2.166,2.166,0,0,1-1.056-.283c-8.993,7.329-21.069,23.932-21.069,34.458,0,9.76,2.947,15.905,9.348,21.213a10.577,10.577,0,0,0,6.748,2.447h27.4a10.576,10.576,0,0,0,6.747-2.447c6.4-5.307,9.348-11.453,9.348-21.213C132.293,167.562,120.217,150.959,111.224,143.63Z" transform="translate(-72.706 -128.591)" fill="#fecea2" stroke="#3b3b3b" stroke-linecap="round" stroke-linejoin="round" stroke-width="1"/>
        <path id="Контур_45219" data-name="Контур 45219" d="M110.543,139.152a2.191,2.191,0,0,1,.476.056l6.426-6.156a.852.852,0,0,0-.236-1.479l-2.193-1.053a3.818,3.818,0,0,0-2.437-.169l-2.971.951a2.944,2.944,0,0,1-2.319-.367l-3.345-2.407a1.954,1.954,0,0,0-2.133,0l-3.342,2.407a2.949,2.949,0,0,1-2.319.368l-2.976-.952a3.825,3.825,0,0,0-2.437.168l-2.2,1.054a.852.852,0,0,0-.236,1.479l6.425,6.155a2.191,2.191,0,0,1,.476-.056Z" transform="translate(-73.081 -128.212)" fill="#e5a876" stroke="#3b3b3b" stroke-linecap="round" stroke-linejoin="round" stroke-width="1"/>
        <path id="Контур_45220" data-name="Контур 45220" d="M110.67,143.81a2.219,2.219,0,0,0,2.191-2.191,2.207,2.207,0,0,0-2.191-2.191H95.334a2.184,2.184,0,0,0-1.056,4.1,2.165,2.165,0,0,0,1.056.283Z" transform="translate(-73.208 -128.488)" fill="#6e4022" stroke="#3b3b3b" stroke-linecap="round" stroke-linejoin="round" stroke-width="1"/>
      </g>
      <path id="Контур_45237" data-name="Контур 45237" d="M158.719,133.7a2.165,2.165,0,0,1-1.056.283H150V160.7a.836.836,0,0,0,1.085.8c1.023-.332,1.607-1.057,4.137-1.057a5.222,5.222,0,1,1,0,10.444c-2.531,0-3.115-.725-4.137-1.057a.836.836,0,0,0-1.085.8v21.145h13.689a10.572,10.572,0,0,0,6.743-2.446c6.4-5.3,9.342-11.445,9.342-21.2C179.774,157.616,167.706,141.024,158.719,133.7Z" transform="translate(-120.265 -106.428)" fill="#e5a876" stroke="#3b3b3b" stroke-linecap="round" stroke-linejoin="round" stroke-width="1"/>
      <g id="Сгруппировать_13614" data-name="Сгруппировать 13614" transform="translate(85.984 12.193)">
        <path id="Контур_45224" data-name="Контур 45224" d="M204.724,143.63a2.166,2.166,0,0,1-1.056.283H188.332a2.172,2.172,0,0,1-1.057-.283c-8.994,7.329-21.069,23.932-21.069,34.458,0,9.76,2.947,15.905,9.349,21.213a10.576,10.576,0,0,0,6.747,2.447h27.4a10.577,10.577,0,0,0,6.748-2.447c6.4-5.307,9.348-11.453,9.348-21.213C225.793,167.562,213.717,150.959,204.724,143.63Z" transform="translate(-166.205 -128.591)" fill="none" stroke="#3b3b3b" stroke-linecap="round" stroke-linejoin="round" stroke-width="1"/>
        <path id="Контур_45225" data-name="Контур 45225" d="M204.724,143.63a2.166,2.166,0,0,1-1.056.283H188.332a2.172,2.172,0,0,1-1.057-.283c-8.994,7.329-21.069,23.932-21.069,34.458,0,9.76,2.947,15.905,9.349,21.213a10.576,10.576,0,0,0,6.747,2.447h27.4a10.577,10.577,0,0,0,6.748-2.447c6.4-5.307,9.348-11.453,9.348-21.213C225.793,167.562,213.717,150.959,204.724,143.63Z" transform="translate(-166.205 -128.591)" fill="#fecea2" stroke="#3b3b3b" stroke-linecap="round" stroke-linejoin="round" stroke-width="1"/>
        <path id="Контур_45226" data-name="Контур 45226" d="M204.043,139.152a2.191,2.191,0,0,1,.476.056l6.426-6.156a.852.852,0,0,0-.236-1.479l-2.193-1.053a3.818,3.818,0,0,0-2.437-.169l-2.972.951a2.945,2.945,0,0,1-2.319-.367l-3.344-2.407a1.954,1.954,0,0,0-2.133,0l-3.342,2.407a2.949,2.949,0,0,1-2.319.368l-2.976-.952a3.824,3.824,0,0,0-2.437.168l-2.2,1.054a.851.851,0,0,0-.235,1.479l6.425,6.155a2.184,2.184,0,0,1,.476-.056Z" transform="translate(-166.58 -128.212)" fill="#e5a876" stroke="#3b3b3b" stroke-linecap="round" stroke-linejoin="round" stroke-width="1"/>
        <path id="Контур_45227" data-name="Контур 45227" d="M204.17,143.81a2.218,2.218,0,0,0,2.19-2.191,2.206,2.206,0,0,0-2.19-2.191H188.834a2.191,2.191,0,0,0,0,4.382Z" transform="translate(-166.707 -128.488)" fill="#9c7528" stroke="#3b3b3b" stroke-linecap="round" stroke-linejoin="round" stroke-width="1"/>
      </g>
      <path id="Контур_45230" data-name="Контур 45230" d="M150.391,175.885c1.194.387,1.876,1.234,4.83,1.234a6.1,6.1,0,1,0,0-12.193c-2.955,0-3.636.847-4.83,1.234a.976.976,0,0,1-1.266-.934v-31.2h-8.946a2.527,2.527,0,0,1-1.233-.331c-10.493,8.552-24.581,27.922-24.581,40.2,0,11.386,3.437,18.556,10.905,24.748a12.345,12.345,0,0,0,7.873,2.855h15.982V176.819A.976.976,0,0,1,150.391,175.885Z" transform="translate(-76.339 -116.154)" fill="#fecea2" stroke="#3b3b3b" stroke-linecap="round" stroke-linejoin="round" stroke-width="1"/>
      <path id="Контур_45231" data-name="Контур 45231" d="M160.179,133.7a2.527,2.527,0,0,1-1.233.331H150v31.2a.976.976,0,0,0,1.266.934c1.194-.387,1.876-1.234,4.83-1.234a6.1,6.1,0,0,1,0,12.193c-2.955,0-3.636-.847-4.83-1.234a.976.976,0,0,0-1.266.935V201.5h15.982a12.342,12.342,0,0,0,7.872-2.855c7.469-6.192,10.906-13.361,10.906-24.748C184.76,161.621,170.671,142.251,160.179,133.7Z" transform="translate(-77.214 -116.154)" fill="#e5a876" stroke="#3b3b3b" stroke-linecap="round" stroke-linejoin="round" stroke-width="1"/>
      <path id="Контур_45234" data-name="Контур 45234" d="M158.508,128.476a2.534,2.534,0,0,1,.555.065l7.5-7.182a.993.993,0,0,0-.275-1.725l-2.559-1.229a4.454,4.454,0,0,0-2.842-.2l-3.467,1.109a3.433,3.433,0,0,1-2.7-.428l-3.9-2.808a2.28,2.28,0,0,0-2.488,0l-3.9,2.808a3.438,3.438,0,0,1-2.7.429l-3.472-1.111a4.465,4.465,0,0,0-2.843.2l-2.563,1.23a.993.993,0,0,0-.275,1.725l7.5,7.181a2.549,2.549,0,0,1,.556-.065Z" transform="translate(-76.776 -115.712)" fill="#e5a876" stroke="#3b3b3b" stroke-linecap="round" stroke-linejoin="round" stroke-width="1"/>
      <path id="Контур_45235" data-name="Контур 45235" d="M158.656,133.909a2.589,2.589,0,0,0,2.556-2.556,2.578,2.578,0,0,0-2.556-2.557H140.765a2.556,2.556,0,0,0,0,5.112Z" transform="translate(-76.924 -116.034)" fill="#5d5d5d" stroke="#3b3b3b" stroke-linecap="round" stroke-linejoin="round" stroke-width="1"/>
      <path id="Контур_45236" data-name="Контур 45236" d="M158.719,133.7a2.165,2.165,0,0,1-1.056.283H150V160.7a.836.836,0,0,0,1.085.8c1.023-.332,1.607-1.057,4.137-1.057a5.222,5.222,0,1,1,0,10.444c-2.531,0-3.115-.725-4.137-1.057a.836.836,0,0,0-1.085.8v21.145h13.689a10.572,10.572,0,0,0,6.743-2.446c6.4-5.3,9.342-11.445,9.342-21.2C179.774,157.616,167.706,141.024,158.719,133.7Z" transform="translate(-34.163 -106.428)" fill="#e5a876" stroke="#3b3b3b" stroke-linecap="round" stroke-linejoin="round" stroke-width="1"/>
    </g>
    <g id="Сгруппировать_12119" data-name="Сгруппировать 12119" transform="translate(1520.024 1336.527)">
      <g id="funds-coin-money_bag" data-name="funds-coin-money bag" transform="translate(0 0)">
        <g id="Сгруппировать_12121" data-name="Сгруппировать 12121">
          <rect id="Прямоугольник_1667" data-name="Прямоугольник 1667" width="19.422" height="7.778" rx="0.5" transform="translate(19.422 23.649) rotate(180)" fill="#fec25f" stroke="#3b3b3b" stroke-linecap="round" stroke-linejoin="round" stroke-width="1"/>
          <rect id="Прямоугольник_1668" data-name="Прямоугольник 1668" width="19.422" height="7.778" rx="0.5" transform="translate(22.659 15.871) rotate(180)" fill="#fec25f" stroke="#3b3b3b" stroke-linecap="round" stroke-linejoin="round" stroke-width="1"/>
          <rect id="Прямоугольник_1669" data-name="Прямоугольник 1669" width="19.422" height="8.092" rx="0.5" transform="translate(21.04 8.092) rotate(180)" fill="#fec25f" stroke="#3b3b3b" stroke-linecap="round" stroke-linejoin="round" stroke-width="1"/>
        </g>
        <g id="Сгруппировать_13617" data-name="Сгруппировать 13617" transform="translate(15.655 8.092)">
          <rect id="Прямоугольник_1667-2" data-name="Прямоугольник 1667" width="19.422" height="7.778" rx="0.5" transform="translate(19.422 15.557) rotate(180)" fill="#fec25f" stroke="#3b3b3b" stroke-linecap="round" stroke-linejoin="round" stroke-width="1"/>
          <rect id="Прямоугольник_1668-2" data-name="Прямоугольник 1668" width="19.422" height="7.778" rx="0.5" transform="translate(22.659 7.778) rotate(180)" fill="#fec25f" stroke="#3b3b3b" stroke-linecap="round" stroke-linejoin="round" stroke-width="1"/>
        </g>
      </g>
    </g>
    <g id="Сгруппировать_13618" data-name="Сгруппировать 13618" transform="translate(1381.74 1336.527)">
      <g id="funds-coin-money_bag-2" data-name="funds-coin-money bag" transform="translate(0 0)">
        <g id="Сгруппировать_12121-2" data-name="Сгруппировать 12121">
          <rect id="Прямоугольник_1667-3" data-name="Прямоугольник 1667" width="19.422" height="7.778" rx="0.5" transform="translate(19.422 23.649) rotate(180)" fill="#fec25f" stroke="#3b3b3b" stroke-linecap="round" stroke-linejoin="round" stroke-width="1"/>
          <rect id="Прямоугольник_1668-3" data-name="Прямоугольник 1668" width="19.422" height="7.778" rx="0.5" transform="translate(20.049 15.871) rotate(180)" fill="#fec25f" stroke="#3b3b3b" stroke-linecap="round" stroke-linejoin="round" stroke-width="1"/>
          <rect id="Прямоугольник_1669-2" data-name="Прямоугольник 1669" width="19.422" height="8.092" rx="0.5" transform="translate(31.477 8.092) rotate(180)" fill="#fec25f" stroke="#3b3b3b" stroke-linecap="round" stroke-linejoin="round" stroke-width="1"/>
        </g>
        <g id="Сгруппировать_13617-2" data-name="Сгруппировать 13617" transform="translate(13.674 8.092)">
          <rect id="Прямоугольник_1667-4" data-name="Прямоугольник 1667" width="19.422" height="7.778" rx="0.5" transform="translate(22.708 15.557) rotate(180)" fill="#fec25f" stroke="#3b3b3b" stroke-linecap="round" stroke-linejoin="round" stroke-width="1"/>
          <rect id="Прямоугольник_1668-4" data-name="Прямоугольник 1668" width="19.422" height="7.778" rx="0.5" transform="translate(19.422 7.778) rotate(180)" fill="#fec25f" stroke="#3b3b3b" stroke-linecap="round" stroke-linejoin="round" stroke-width="1"/>
        </g>
      </g>
    </g>
  </g>
</svg>
