<svg xmlns="http://www.w3.org/2000/svg" width="51" height="99.716" viewBox="0 0 51 99.716">
  <g id="Сгруппировать_13550" data-name="Сгруппировать 13550" transform="translate(-432 -1401)">
    <g id="Сгруппировать_12282" data-name="Сгруппировать 12282" transform="translate(432 1401.434)">
      <g id="Прямоугольник_1691" data-name="Прямоугольник 1691" transform="translate(0 -0.434)" fill="#fff" stroke="#3b3b3b" stroke-width="1">
        <rect width="51" height="43" rx="3" stroke="none"/>
        <rect x="0.5" y="0.5" width="50" height="42" rx="2.5" fill="none"/>
      </g>
      <path id="Прямоугольник_1692" data-name="Прямоугольник 1692" d="M2,0H47a2,2,0,0,1,2,2V13a0,0,0,0,1,0,0H0a0,0,0,0,1,0,0V2A2,2,0,0,1,2,0Z" transform="translate(50 41.566) rotate(180)" fill="#f3f4f6"/>
      <g id="Прямоугольник_1693" data-name="Прямоугольник 1693" transform="translate(29 31.566)" fill="#fec25f" stroke="#3b3b3b" stroke-width="0.5">
        <rect width="18" height="7" rx="1" stroke="none"/>
        <rect x="0.25" y="0.25" width="17.5" height="6.5" rx="0.75" fill="none"/>
      </g>
      <path id="Прямоугольник_1694" data-name="Прямоугольник 1694" d="M2,0H47a2,2,0,0,1,2,2V13a0,0,0,0,1,0,0H0a0,0,0,0,1,0,0V2A2,2,0,0,1,2,0Z" transform="translate(1 0.566)" fill="#ffc9c9"/>
    </g>
    <g id="Сгруппировать_13548" data-name="Сгруппировать 13548" transform="translate(-17.458 4.124)">
      <path id="Контур_31994" data-name="Контур 31994" d="M1414.684,359.752a16.457,16.457,0,0,1-3.43-4.012c-1.508-2.492-1.93-5.5-3.142-6.06a4.474,4.474,0,0,0-2.521-.382,5.916,5.916,0,0,0-2.576,1.373h0a4.81,4.81,0,0,0-1.391,3.384,32.019,32.019,0,0,0,1.533,6.253h0c2.133,3.659,9.974,16.224,9.974,16.224a.76.76,0,0,0,.053.08l2.007,2.4c1.5,1.787,2.482,1.622,2.843,3.926l.323,2.093a1.859,1.859,0,0,0-.22.189c-.357.358,24.176.358,23.815,0a.849.849,0,0,0-.071-.068c.206-.71.969-.385,2.189-6.858S1446,360.245,1446,360.245c0-.31-.14,2.376,0,0s-.556-9.505-.556-9.505a2.974,2.974,0,0,0-.936-2.461,4.612,4.612,0,0,0-3.088-1.186,3.787,3.787,0,0,0-2.859.794c-.035.035-.071.073-.106.109V346.83a3.79,3.79,0,0,0-1.081-3.017,3.7,3.7,0,0,0-2.846-1.405,4.409,4.409,0,0,0-3.282,1.115v0c-.1.1-.2.211-.294.323-.138-1.056-.632-1.308-1.342-1.943-.856-.856-2.023-.867-3.326-.867s-2.512.011-3.369.869c-.088.088-.173.182-.255.276V329.911a4,4,0,0,0-.418-1.789,4.044,4.044,0,0,0-2.587-2.114h0a3.991,3.991,0,0,0-1.023-.131l-.056,0a4.03,4.03,0,0,0-2.8,1.181h0a4.031,4.031,0,0,0-1.144,2.323,3.735,3.735,0,0,0-.035.529l.092,29.841Z" transform="translate(-952.164 1103.433)" fill="#fecea2"/>
      <rect id="Прямоугольник_1695" data-name="Прямоугольник 1695" width="23.808" height="8.281" transform="translate(465.546 1488.311)" fill="#00b6e9"/>
      <path id="Объединение_46" data-name="Объединение 46" d="M6.75,35.412a3.252,3.252,0,0,1-.295-.163,1.4,1.4,0,0,1-.359-.276c-.041-.039-.079-.078-.113-.118a47.942,47.942,0,0,1-3.656-5.678A26.346,26.346,0,0,1,0,23.354H1.238l1.09,1.534,1.6,4.289L8.213,34.1l.41.108V17.179s.11-14.361.319-15.251S10.607,0,10.607,0s.324.052,0,.464a13.91,13.91,0,0,0-.844,4.057c-.051,1.107.1,14.939.17,16.472s.491,5.248.674,7.25.161,5.807-.214,6.448a2.872,2.872,0,0,1-2.3,1.031A3.032,3.032,0,0,1,6.75,35.412Zm24.956-10.1,0,.024A.18.18,0,0,1,31.706,25.315Zm-16.193.024V18.431l.61-2.5,1.756-.911h2.114s3.069.949,2.233.911a11.431,11.431,0,0,0-3.623.761,7.74,7.74,0,0,0-1.659,3.261,53.968,53.968,0,0,0-.821,5.385Zm15.929-2.208.724-1.271a9.678,9.678,0,0,1,2.818-.853,6.075,6.075,0,0,1,2.384.853,10.913,10.913,0,0,0-2.384.227,6.493,6.493,0,0,0-2.5,1.835c-.763.827-.785,1.286-.778,1.393Zm-7.267-4.98s1.569-1.485,2.008-1.761.446,0,2.41,0,2.214,1.437,2.214,1.437-.056.239-1.076,0a5.224,5.224,0,0,0-2.681.325c-.792.208-1.19,1.286-1.974,2.879a12.038,12.038,0,0,0-.9,3.938Z" transform="translate(454.384 1430.212)" fill="#e5a876"/>
      <g id="Сгруппировать_11009" data-name="Сгруппировать 11009" transform="translate(449.458 1429.31)">
        <g id="Сгруппировать_692" data-name="Сгруппировать 692" transform="translate(0 0)">
          <path id="Контур_18993" data-name="Контур 18993" d="M1449.814,359.928Z" transform="translate(-1437.177 -350.683)" stroke="#000" stroke-width="1"/>
          <path id="Контур_18994" data-name="Контур 18994" d="M1430.422,336.08h0v0Z" transform="translate(-1422.437 -332.555)" stroke="#000" stroke-width="1"/>
          <path id="Контур_18995" data-name="Контур 18995" d="M1418.617,326.992Zm22.8,64.178a.864.864,0,0,1-.255.617.874.874,0,0,1-.619.257h-21a.88.88,0,0,1-.878-.874v-4.546a.878.878,0,0,1,.878-.875h21a.88.88,0,0,1,.619.256.869.869,0,0,1,.255.619v4.546Zm-26.736-31.417a16.457,16.457,0,0,1-3.43-4.012c-1.508-2.492-1.93-5.5-3.142-6.06a4.474,4.474,0,0,0-2.521-.382,5.916,5.916,0,0,0-2.576,1.373h0a4.81,4.81,0,0,0-1.391,3.384,32.019,32.019,0,0,0,1.533,6.253h0c2.133,3.659,9.974,16.224,9.974,16.224a.76.76,0,0,0,.053.08l2.007,2.4c1.5,1.787,2.482,1.622,2.843,3.926l.323,2.093a1.859,1.859,0,0,0-.22.189,2,2,0,0,0-.584,1.407v4.546a1.992,1.992,0,0,0,1.993,1.989h21a1.992,1.992,0,0,0,1.989-1.989v-4.546a1.979,1.979,0,0,0-.584-1.407.849.849,0,0,0-.071-.068c.206-.71.969-.385,2.189-6.858S1446,360.245,1446,360.245c0-.31-1.115-.31-1.115,0h0s-1.061,14.317-1.895,18.046a32.726,32.726,0,0,1-2.075,6.206H1419.4l-.269-1.734h0c-.39-2.506-1.459-2.528-3.088-4.472l-1.975-2.358-9.946-16.181s.7,1.821,0,0a27.5,27.5,0,0,1-1.384-5.7,3.7,3.7,0,0,1,1.069-2.6,3.864,3.864,0,0,1,1.783-1.043,2.7,2.7,0,0,1,2.008.258c.941.562,1.2,3.007,2.835,5.64a27.457,27.457,0,0,0,4.251,5,.559.559,0,0,0,1.023-.311V329.911a2.752,2.752,0,0,1,.025-.38v0a2.915,2.915,0,0,1,2.857-2.534l.028,0h.007a2.883,2.883,0,0,1,.74.1,2.928,2.928,0,0,1,1.876,1.532h0a2.915,2.915,0,0,1,.3,1.293v14.177c-.011.126-.018.254-.018.382a.539.539,0,0,0,.018.131v7.791a.557.557,0,1,0,1.115,0v-8.267c.082-.861.464-.854,1.045-1.435h0c.655-.657,1.577-.54,2.579-.542a4.106,4.106,0,0,1,2.536.542c.751.521,1.062.78,1.062,1.779v2.159c0,.066-.007.133-.007.2a.247.247,0,0,0,.007.05v5.146a.558.558,0,1,0,1.116,0h0v-5.384a3.534,3.534,0,0,1,1.037-2.33h0a3.3,3.3,0,0,1,2.492-.789,2.605,2.605,0,0,1,2.056,1.079,2.687,2.687,0,0,1,.756,2.228v5.212a.557.557,0,1,0,1.115,0h0v-1.1a.547.547,0,0,0,.039-.2h0a2.907,2.907,0,0,1,.853-2.064c.531-.529,1.265-.466,2.073-.467a3.505,3.505,0,0,1,2.3.859,1.893,1.893,0,0,1,.61,1.672,33.54,33.54,0,0,1,.556,9.505c-.327,6.229.976,2.376,1.115,0s-.556-9.505-.556-9.505a2.974,2.974,0,0,0-.936-2.461,4.612,4.612,0,0,0-3.088-1.186,3.787,3.787,0,0,0-2.859.794c-.035.035-.071.073-.106.109V346.83a3.79,3.79,0,0,0-1.081-3.017,3.7,3.7,0,0,0-2.846-1.405,4.409,4.409,0,0,0-3.282,1.115v0c-.1.1-.2.211-.294.323-.138-1.056-.632-1.308-1.342-1.943-.856-.856-2.023-.867-3.326-.867s-2.512.011-3.369.869c-.088.088-.173.182-.255.276V329.911a4,4,0,0,0-.418-1.789,4.044,4.044,0,0,0-2.587-2.114h0a3.991,3.991,0,0,0-1.023-.131l-.056,0a4.03,4.03,0,0,0-2.8,1.181h0a4.031,4.031,0,0,0-1.144,2.323,3.735,3.735,0,0,0-.035.529l.092,29.841Z" transform="translate(-1401.622 -325.877)" fill="#3b3b3b"/>
        </g>
      </g>
    </g>
    <line id="Линия_338" data-name="Линия 338" x2="5.351" transform="translate(436.152 1435.755)" fill="none" stroke="#3b3b3b" stroke-width="1"/>
    <line id="Линия_339" data-name="Линия 339" x2="5.351" transform="translate(436.152 1438.048)" fill="none" stroke="#3b3b3b" stroke-width="1"/>
  </g>
</svg>
