<svg width="18" height="18" viewBox="0 0 18 18" fill="none" xmlns="http://www.w3.org/2000/svg">
<g clip-path="url(#clip0)">
<path d="M9.00054 3.68892e-05C7.63241 -0.00389224 6.28161 0.306103 5.05209 0.906168C3.82257 1.50623 2.7471 2.38037 1.90843 3.46132C1.79266 3.60979 1.74062 3.79817 1.76374 3.98502C1.78686 4.17187 1.88326 4.34188 2.03174 4.45765C2.18021 4.57342 2.36859 4.62547 2.55544 4.60235C2.74229 4.57922 2.9123 4.48282 3.02807 4.33435C4.18677 2.86815 5.85236 1.88881 7.69696 1.58913C9.54155 1.28945 11.4315 1.69113 12.9948 2.7151C14.5581 3.73908 15.6814 5.31116 16.1436 7.12187C16.6059 8.93258 16.3735 10.8507 15.4924 12.4987C14.6112 14.1467 13.1451 15.4052 11.3825 16.0263C9.62 16.6475 7.6888 16.5863 5.96908 15.855C4.24937 15.1236 2.86575 13.7749 2.09058 12.0745C1.31542 10.3741 1.20488 8.44504 1.78073 6.66719C1.80964 6.57857 1.82082 6.48512 1.81362 6.39217C1.80642 6.29923 1.78098 6.20862 1.73876 6.1255C1.69654 6.04239 1.63836 5.96841 1.56755 5.90778C1.49673 5.84715 1.41467 5.80106 1.32605 5.77215C1.23742 5.74323 1.14397 5.73206 1.05103 5.73926C0.958087 5.74646 0.867472 5.7719 0.784359 5.81412C0.701246 5.85634 0.627264 5.91451 0.566635 5.98533C0.506006 6.05614 0.459918 6.1382 0.431003 6.22683C-0.155194 8.03502 -0.154055 9.98236 0.434256 11.7899C1.02257 13.5974 2.16786 15.1723 3.70607 16.289C5.24428 17.4058 7.09647 18.007 8.99731 18.0066C10.8982 18.0063 12.7501 17.4043 14.2879 16.2869C15.8256 15.1695 16.9703 13.5941 17.5579 11.7864C18.1454 9.97865 18.1458 8.03131 17.5588 6.22335C16.9719 4.4154 15.8278 2.83959 14.2905 1.72168C12.7531 0.603762 10.9014 0.00110396 9.00054 3.68892e-05V3.68892e-05Z" fill="#00B6E9"/>
<path d="M7.08731 11.9569C6.90425 11.9641 6.73109 12.0419 6.60413 12.174C6.47716 12.306 6.40625 12.4821 6.40625 12.6653C6.40625 12.8485 6.47716 13.0246 6.60413 13.1567C6.73109 13.2888 6.90425 13.3666 7.08731 13.3738H10.9141C11.0095 13.3775 11.1046 13.362 11.1939 13.3281C11.2831 13.2942 11.3646 13.2426 11.4334 13.1764C11.5022 13.1103 11.5569 13.0309 11.5943 12.9431C11.6317 12.8553 11.651 12.7608 11.651 12.6653C11.651 12.5699 11.6317 12.4754 11.5943 12.3876C11.5569 12.2998 11.5022 12.2204 11.4334 12.1542C11.3646 12.0881 11.2831 12.0365 11.1939 12.0026C11.1046 11.9687 11.0095 11.9531 10.9141 11.9569H9.70859V8.20167C9.70859 8.01363 9.6339 7.8333 9.50093 7.70033C9.36797 7.56737 9.18764 7.49268 8.9996 7.49268H7.08731C6.90425 7.49989 6.73109 7.57769 6.60413 7.70976C6.47716 7.84183 6.40625 8.01792 6.40625 8.20112C6.40625 8.38432 6.47716 8.5604 6.60413 8.69247C6.73109 8.82454 6.90425 8.90234 7.08731 8.90956H8.29171V11.9569H7.08731Z" fill="#00B6E9"/>
<path d="M10.027 5.65228C10.0272 5.44908 9.96713 5.25038 9.8544 5.08132C9.74166 4.91226 9.58132 4.78044 9.39365 4.70253C9.20598 4.62462 8.99942 4.60412 8.8001 4.64363C8.60078 4.68314 8.41765 4.78087 8.27389 4.92448C8.13013 5.06809 8.0322 5.25111 7.99247 5.45039C7.95275 5.64966 7.97303 5.85625 8.05074 6.044C8.12845 6.23175 8.2601 6.39224 8.42904 6.50515C8.59798 6.61807 8.79661 6.67834 8.99981 6.67834C9.27195 6.67804 9.53288 6.56988 9.72541 6.37756C9.91795 6.18523 10.0264 5.92442 10.027 5.65228V5.65228Z" fill="#00B6E9"/>
</g>
<defs>
<clipPath id="clip0">
<rect width="18" height="18" fill="white"/>
</clipPath>
</defs>
</svg>
