<svg xmlns="http://www.w3.org/2000/svg" width="140.808" height="40.61" viewBox="0 0 140.808 40.61">
  <g id="Layer_2" data-name="Layer 2" opacity="0.504">
    <g id="Layer_1" data-name="Layer 1">
      <path id="Контур_30073" data-name="Контур 30073" d="M296.753,82.834a.463.463,0,0,1-.3.648l-2.7.8a.413.413,0,0,1-.6-.324,2.763,2.763,0,0,0-2.97-2.122c-2.545,0-3.394,1.5-3.394,3.519V90c0,2.022.848,3.519,3.394,3.519,2.1,0,3.194-.972,3.194-3.1v-.6h-2.794a.35.35,0,0,1-.375-.4v-2.57a.361.361,0,0,1,.375-.4h6.091a.35.35,0,0,1,.4.375v3.844c0,3.669-2.7,6.44-6.89,6.44-4.967,0-7.288-2.945-7.288-6.989V85.229c0-4.044,2.32-6.989,7.288-6.989,4.019,0,5.842,2.3,6.565,4.594Zm13.675,4.592v9.011a.354.354,0,0,1-.374.375h-2.747a.361.361,0,0,1-.4-.375V94.965a4.342,4.342,0,0,1-3.8,2.127,3.99,3.99,0,0,1-4.267-4.244c0-2.5,1.572-3.994,5.416-4.269a16.654,16.654,0,0,1,2.5-.025v-1a1.65,1.65,0,0,0-1.9-1.872,1.722,1.722,0,0,0-1.9,1.273c-.125.3-.225.349-.5.278l-2.745-.694c-.278-.075-.3-.225-.25-.425.375-1.972,2.247-3.419,5.542-3.419C308.481,82.684,310.428,84.33,310.428,87.426Zm-3.669,4.721v-1.3a15.722,15.722,0,0,0-2.2.075c-1.4.175-2.147.6-2.147,1.666,0,.972.648,1.5,1.722,1.5a2.657,2.657,0,0,0,2.622-1.939Zm13.582-9.463a3.482,3.482,0,0,1,3.419,2.5,4.823,4.823,0,0,1,4.019-2.5c2.422,0,3.8,1.922,3.8,4.792v8.961a.405.405,0,0,1-.45.375h-2.87a.405.405,0,0,1-.45-.375V88.124c0-1.25-.548-2-1.527-2-1.023,0-1.772.85-2.147,2.147v8.162a.349.349,0,0,1-.35.375h-3.1c-.224,0-.324-.15-.324-.375V88.124c0-1.25-.555-2-1.528-2-1.048,0-1.8.9-2.147,2.172v8.137a.342.342,0,0,1-.374.375h-3.036a.342.342,0,0,1-.375-.375v-13.1a.347.347,0,0,1,.375-.349h2.916a.346.346,0,0,1,.374.349v1.573a4.67,4.67,0,0,1,3.774-2.222Zm26.939.3c.075.324-.025.574-.324.648l-2.647.773a.423.423,0,0,1-.6-.325,2.684,2.684,0,0,0-2.87-2.245c-2.272,0-3,1.5-3,3.519V90c0,2.022.825,3.519,3,3.519a2.772,2.772,0,0,0,3-2.47.407.407,0,0,1,.6-.325l2.645.848a.484.484,0,0,1,.325.648c-.623,2.7-2.57,4.894-6.614,4.894-4.544,0-6.84-2.945-6.84-6.989V85.229c0-4.044,2.347-6.989,6.84-6.989C344.735,78.24,346.582,80.337,347.281,82.984Zm13.288,4.442v9.011a.354.354,0,0,1-.374.375h-2.747a.361.361,0,0,1-.4-.375V94.965a4.339,4.339,0,0,1-3.8,2.127,3.99,3.99,0,0,1-4.267-4.244c0-2.5,1.572-3.994,5.416-4.269a16.656,16.656,0,0,1,2.5-.025v-1a1.65,1.65,0,0,0-1.9-1.872,1.722,1.722,0,0,0-1.9,1.273c-.125.3-.225.349-.5.278l-2.745-.694c-.278-.075-.3-.225-.25-.425.375-1.972,2.247-3.419,5.542-3.419C358.622,82.684,360.569,84.33,360.569,87.426ZM356.9,92.147v-1.3a15.722,15.722,0,0,0-2.2.075c-1.4.175-2.147.6-2.147,1.666,0,.972.65,1.5,1.722,1.5a2.657,2.657,0,0,0,2.622-1.939Zm14.357-8.915V85.9c0,.324-.125.449-.45.449h-.4c-2,0-3.169.9-3.569,2.4v7.687a.344.344,0,0,1-.329.378h-3.141a.343.343,0,0,1-.324-.375V83.332a.333.333,0,0,1,.374-.349h2.845c.3,0,.375.2.375.4v1.847a4.335,4.335,0,0,1,4.019-2.42C371.157,82.809,371.257,82.884,371.257,83.232Zm4.9,7.814v.524a2.25,2.25,0,0,0,2.522,2.472,2.477,2.477,0,0,0,2.645-1.473c.225-.375.325-.417.723-.25l1.973,1c.4.2.424.4.249.775-.848,1.922-2.97,3.02-5.616,3.02-3.994,0-6.091-2.372-6.091-5.617V88.3c0-3.145,1.972-5.616,6.066-5.616,3.888,0,5.791,2.47,5.791,5.541v2.2c0,.375-.125.625-.648.625Zm0-2.916V88.6h4.819V88.13a2.409,2.409,0,0,0-4.819-.006Z" transform="translate(-243.616 -67.375)" fill="#fff"/>
      <path id="Контур_30074" data-name="Контур 30074" d="M17.258,0H.507A.508.508,0,0,0,0,.507V24.872A15.738,15.738,0,0,0,15.739,40.61h1.526A15.737,15.737,0,0,0,33,24.872V15.737A15.737,15.737,0,0,0,17.258,0ZM27.942,25.134c0,5.925-4.353,10.4-11.124,10.4-8.022,0-11.77-4.756-11.77-11.287v-7.9C5.048,9.82,8.8,5.06,16.818,5.06c6.489,0,9.432,3.709,10.6,7.417a.751.751,0,0,1-.483,1.048l-4.353,1.29c-.525.161-.807,0-.972-.524a4.469,4.469,0,0,0-4.8-3.427c-4.112,0-5.482,2.419-5.482,5.684v7.5c0,3.265,1.371,5.684,5.482,5.684,3.385,0,5.159-1.572,5.159-5v-.972h-4.51a.563.563,0,0,1-.6-.644V18.963a.583.583,0,0,1,.6-.646H27.3a.564.564,0,0,1,.644.605Z" fill="#fff"/>
    </g>
  </g>
</svg>
