<svg xmlns="http://www.w3.org/2000/svg" xmlns:xlink="http://www.w3.org/1999/xlink" width="94.983" height="106.762" viewBox="0 0 94.983 106.762">
  <defs>
    <clipPath id="clip-path">
      <path id="Контур_29659" data-name="Контур 29659" d="M55.608-26.762C65.815-26.762,82.4-7.513,93.42-.146c2.654,1.773,1.425,13.843,0,19.018-.742,2.693-7.668,9.232-6.848,10.585.283.466-.747,2.459-3.277,2.618.41.776-2.234-1.325-1.809,0,.292.91-2.745-2.16-2.451-.889A40.008,40.008,0,1,1,0,40,39.654,39.654,0,0,1,4.14,22.37C4.806,21,4.068,9.978,5.1,8.42,6.42,6.415,8.275-2.66,10.2-4.614c2.3-2.334.928-14.843,4.054-16.685C19.932-24.647,48.207-26.762,55.608-26.762Z" transform="translate(380 1332)" fill="#4370b6"/>
    </clipPath>
  </defs>
  <g id="Сгруппировать_11850" data-name="Сгруппировать 11850" transform="translate(-380 -1305.238)">
    <g id="Эллипс_48" data-name="Эллипс 48" transform="translate(380 1332)" fill="none" stroke="#1e1e1e" stroke-width="1">
      <circle cx="40" cy="40" r="40" stroke="none"/>
      <circle cx="40" cy="40" r="39.5" fill="none"/>
    </g>
    <circle id="Эллипс_167" data-name="Эллипс 167" cx="40" cy="40" r="40" transform="translate(380 1332)" fill="#fec25f"/>
    <g id="Группа_масок_20" data-name="Группа масок 20" clip-path="url(#clip-path)">
      <g id="Сгруппировать_11051" data-name="Сгруппировать 11051" transform="translate(2697 -3214.083)">
        <path id="Контур_29658" data-name="Контур 29658" d="M18.939,0C29.4,0,37.879,1.88,37.879,4.2S29.4,8.4,18.939,8.4,0,6.517,0,4.2,8.479,0,18.939,0Z" transform="translate(-2295.823 4615.053)" fill="#034fa0" opacity="0.2" style="mix-blend-mode: multiply;isolation: isolate"/>
        <g id="Сгруппировать_11050" data-name="Сгруппировать 11050" transform="translate(-2307.977 4524)">
          <path id="Контур_29618" data-name="Контур 29618" d="M386.971,413.517a46.533,46.533,0,0,1-12.435-2.354c-5.608-2.092-8.412,2.092-8.534,5.492s6.583,9.546,20.969,4.839C389.532,420.448,390.995,415.217,386.971,413.517Z" transform="translate(-358.135 -339.723)" fill="#034fa0"/>
          <path id="Контур_29619" data-name="Контур 29619" d="M386.971,422.606c2.56-1.046,4.023-6.277,0-7.977a49.992,49.992,0,0,1-5.622-.62c-1.311,1.564-3.378,4.328-3.615,6.462-.475,2.459-7.924,1.966-11.733-2.7C365.88,421.168,372.585,427.314,386.971,422.606Z" transform="translate(-358.135 -340.835)" fill="#0f3464" opacity="0.5"/>
          <g id="Сгруппировать_11044" data-name="Сгруппировать 11044" transform="translate(12.876 45.736)">
            <path id="Контур_29620" data-name="Контур 29620" d="M411.242,403.1a1.759,1.759,0,0,1-.955-.337L374.169,376.48a1.772,1.772,0,1,1,2.085-2.866L412.372,399.9a1.772,1.772,0,0,1-1.13,3.2Z" transform="translate(-373.439 -373.276)" fill="#1e1e1e"/>
          </g>
          <path id="Контур_29621" data-name="Контур 29621" d="M406.942,381.5c-3.378-3.776-9.245-5.14-11.878-5.577a8.2,8.2,0,0,0-2.7,0c-2.633.438-8.5,1.8-11.878,5.577-1.964,2.357-.938,15.353,2.048,19.049h22.358C407.88,396.857,408.906,383.86,406.942,381.5Z" transform="translate(-362.535 -328.368)" fill="#034fa0"/>
          <path id="Контур_29622" data-name="Контур 29622" d="M404.842,378.008a28.065,28.065,0,0,0-6.805-2.026,8.2,8.2,0,0,0-2.7,0,28.114,28.114,0,0,0-6.737,1.995c2.961,3.245,8.086,9.1,8.086,9.1Z" transform="translate(-365.513 -328.387)" fill="#fec25f"/>
          <path id="Контур_29623" data-name="Контур 29623" d="M398.225,422.17a22.924,22.924,0,0,1,5.62,2.6c1.943,1.464,3.012,1.167,3.605.842s-1.318-3.821-4.2-7.913-4.415-4.849-5.619-4.094-2.889,3.621-2.889,3.621S395.559,421.7,398.225,422.17Z" transform="translate(-367.517 -340.618)" fill="#1e1e1e"/>
          <path id="Контур_29624" data-name="Контур 29624" d="M395.937,421.024a22.923,22.923,0,0,0-5.62,2.6c-1.943,1.464-3.013,1.167-3.606.842s1.318-3.821,4.2-7.913,4.415-4.849,5.618-4.093,2.889,3.621,2.889,3.621S398.6,420.549,395.937,421.024Z" transform="translate(-364.86 -340.244)" fill="#1e1e1e"/>
          <path id="Контур_29625" data-name="Контур 29625" d="M403.441,413.517a46.528,46.528,0,0,0,12.435-2.354c5.608-2.092,8.412,2.092,8.534,5.492s-6.583,9.546-20.969,4.839C400.881,420.448,399.419,415.217,403.441,413.517Z" transform="translate(-369.54 -339.723)" fill="#034fa0"/>
          <path id="Контур_29626" data-name="Контур 29626" d="M397.648,387.844l7.864-8.519a21.016,21.016,0,0,0-2.023-.944l-7.26,7.865-7.069-7.957a21.677,21.677,0,0,0-2.026.921l19.677,22.149h.581a7.374,7.374,0,0,0,.907-1.527Z" transform="translate(-365.033 -329.176)" fill="#0f3464"/>
          <path id="Контур_29627" data-name="Контур 29627" d="M407.166,382.473c.154.981.38,2.563.469,3.875,0,0,.758,5.408-1.193,9.081-1.706,3.061-15.47,6.389-22.425,7.3h22.358c2.985-3.7,4.011-16.693,2.047-19.049A12.034,12.034,0,0,0,407.166,382.473Z" transform="translate(-364.016 -330.541)" fill="#bd1e2d" opacity="0.5" style="mix-blend-mode: multiply;isolation: isolate"/>
          <g id="Сгруппировать_11045" data-name="Сгруппировать 11045" transform="translate(18.03 69.416)">
            <path id="Контур_29628" data-name="Контур 29628" d="M394.5,412.87a74.714,74.714,0,0,1-12.045-.918,1.761,1.761,0,0,1-1.342-2.035,1.651,1.651,0,0,1,1.867-1.463,75.347,75.347,0,0,0,22.593,0,1.648,1.648,0,0,1,1.855,1.482,1.758,1.758,0,0,1-1.359,2.021A70.408,70.408,0,0,1,394.5,412.87Z" transform="translate(-381.09 -408.43)" fill="#0f3464"/>
          </g>
          <path id="Контур_29629" data-name="Контур 29629" d="M394.438,411.68a7.99,7.99,0,0,0-1.286.682,11.82,11.82,0,0,0-1.131.825,15.923,15.923,0,0,0-1.986,1.978,20.735,20.735,0,0,0-1.665,2.271c-.254.4-.482.8-.724,1.212l-.655,1.25,5.356,1.476.071-1.141c.045-.372.078-.758.135-1.134a16.775,16.775,0,0,1,.481-2.238,13.073,13.073,0,0,1,.824-2.147,10.039,10.039,0,0,1,.573-1,7.785,7.785,0,0,1,.664-.874Z" transform="translate(-364.986 -340.075)" fill="#0f3464"/>
          <path id="Контур_29630" data-name="Контур 29630" d="M373.164,393.832a23.483,23.483,0,0,1,1.1-3.431c.42-1.065.869-2.088,1.363-3.074a60.794,60.794,0,0,1,3.2-5.722,1.77,1.77,0,0,1,2.224-.7,1.955,1.955,0,0,1,1,2.5l-.019.049c-.747,1.894-1.466,3.879-2.085,5.817a34.994,34.994,0,0,0-1.218,4.817,9.139,9.139,0,0,0,1.107-.106,30.853,30.853,0,0,0,5.244-1.373l.088-.03c.066-.023.132-.043.2-.062a3.422,3.422,0,0,1,4.17,2.518,3.5,3.5,0,0,1-2.362,4.315,29.441,29.441,0,0,1-6.793,1.142,13.643,13.643,0,0,1-1.945-.059,8.414,8.414,0,0,1-2.37-.571,5.439,5.439,0,0,1-1.493-.92,4.758,4.758,0,0,1-1.3-1.858A5.347,5.347,0,0,1,373.164,393.832Z" transform="translate(-360.407 -329.981)" fill="#034fa0"/>
          <path id="Контур_29631" data-name="Контур 29631" d="M383.766,383.479l-.019.049c-.747,1.893-1.466,3.879-2.085,5.817a34.993,34.993,0,0,0-1.218,4.817s-2.139.56-2.257-.2c2.324-3.739,4.579-12.977,4.579-12.977A1.955,1.955,0,0,1,383.766,383.479Z" transform="translate(-362.113 -330.055)" fill="#0f3464" opacity="0.5"/>
          <g id="Сгруппировать_11046" data-name="Сгруппировать 11046" transform="translate(18.681 50.183)">
            <path id="Контур_29632" data-name="Контур 29632" d="M407.75,399.443c-22.737-2.769-25.571-18.026-25.682-18.686a.751.751,0,0,1,.538-.866.659.659,0,0,1,.78.569c.036.2,2.977,15.422,25.722,17.657a.689.689,0,0,1,.591.8.706.706,0,0,1-.741.664C408.55,399.536,408.145,399.492,407.75,399.443Z" transform="translate(-382.057 -379.877)" fill="#1e1e1e"/>
          </g>
          <path id="Контур_29633" data-name="Контур 29633" d="M420.015,393.832a23.557,23.557,0,0,0-1.1-3.431c-.421-1.065-.869-2.088-1.363-3.074a60.78,60.78,0,0,0-3.2-5.722,1.771,1.771,0,0,0-2.224-.7,1.956,1.956,0,0,0-1,2.5l.02.049c.747,1.894,1.465,3.879,2.084,5.817a34.912,34.912,0,0,1,1.219,4.817,9.163,9.163,0,0,1-1.107-.106,30.884,30.884,0,0,1-5.244-1.373l-.088-.03c-.065-.023-.131-.043-.2-.062a3.421,3.421,0,0,0-4.169,2.518,3.5,3.5,0,0,0,2.362,4.315,29.435,29.435,0,0,0,6.793,1.142,13.647,13.647,0,0,0,1.945-.059,8.419,8.419,0,0,0,2.37-.571,5.426,5.426,0,0,0,1.493-.92,4.75,4.75,0,0,0,1.3-1.858A5.344,5.344,0,0,0,420.015,393.832Z" transform="translate(-370.382 -329.981)" fill="#034fa0"/>
          <path id="Контур_29634" data-name="Контур 29634" d="M414.752,383.479l.02.049c.747,1.893,1.465,3.879,2.084,5.817a34.907,34.907,0,0,1,1.219,4.817s2.139.56,2.257-.2c-2.324-3.739-4.58-12.977-4.58-12.977A1.955,1.955,0,0,0,414.752,383.479Z" transform="translate(-374.003 -330.055)" fill="#0f3464" opacity="0.5"/>
          <path id="Контур_29635" data-name="Контур 29635" d="M414.746,406.081a8.417,8.417,0,0,0,2.37-.571,5.423,5.423,0,0,0,1.493-.92,4.75,4.75,0,0,0,1.3-1.858c-1.408,1.534-3.577,2.059-5.718,2.214s-6.148-.851-5.51-2.416c.7-1.533-.418-3.512-1.007-4.389a3.42,3.42,0,0,0-4.023,2.541A3.5,3.5,0,0,0,406.008,405a29.43,29.43,0,0,0,6.793,1.142A13.647,13.647,0,0,0,414.746,406.081Z" transform="translate(-370.382 -335.629)" fill="#0f3464" opacity="0.5"/>
          <path id="Контур_29636" data-name="Контур 29636" d="M378.586,406.081a8.417,8.417,0,0,1-2.37-.571,5.426,5.426,0,0,1-1.493-.92,4.758,4.758,0,0,1-1.3-1.858c1.408,1.534,3.578,2.059,5.719,2.214s6.148-.851,5.51-2.416c-.7-1.533.418-3.512,1.006-4.389a3.42,3.42,0,0,1,4.024,2.541A3.5,3.5,0,0,1,387.324,405a29.443,29.443,0,0,1-6.793,1.142A13.644,13.644,0,0,1,378.586,406.081Z" transform="translate(-360.559 -335.629)" fill="#0f3464" opacity="0.5"/>
          <path id="Контур_29637" data-name="Контур 29637" d="M400.625,390.3v6.489c0,2.472-.3,4.935,2.164,5.352a3.161,3.161,0,0,0,3.816-2.158c.246-.927-2.422-6.386-3-8.138S401.537,388.857,400.625,390.3Z" transform="translate(-369.433 -332.889)" fill="#1e1e1e"/>
          <path id="Контур_29638" data-name="Контур 29638" d="M397.735,390.3v6.489c0,2.472.3,4.935-2.164,5.352a3.16,3.16,0,0,1-3.815-2.158c-.246-.927,2.422-6.386,3-8.138S396.822,388.857,397.735,390.3Z" transform="translate(-366.536 -332.889)" fill="#1e1e1e"/>
          <path id="Контур_29639" data-name="Контур 29639" d="M410.153,421.712c-.053-2.66-2.835-6.073-3.872-7.131-1.714.191-2.84.235-2.84.235-4.023,1.7-2.56,6.931,0,7.977,14.386,4.708,21.091-1.438,20.969-4.839C420.135,424.509,410.153,421.712,410.153,421.712Z" transform="translate(-369.54 -341.022)" fill="#0f3464" opacity="0.5"/>
          <path id="Контур_29640" data-name="Контур 29640" d="M401.809,411.68a7.97,7.97,0,0,1,1.287.682,11.893,11.893,0,0,1,1.131.825,15.919,15.919,0,0,1,1.986,1.978,20.814,20.814,0,0,1,1.664,2.271c.255.4.482.8.725,1.212l.655,1.25-5.356,1.476-.071-1.141c-.046-.372-.078-.758-.135-1.134a16.881,16.881,0,0,0-.481-2.238,13.073,13.073,0,0,0-.824-2.147,10.057,10.057,0,0,0-.573-1,7.774,7.774,0,0,0-.664-.874Z" transform="translate(-369.609 -340.075)" fill="#0f3464"/>
          <g id="Сгруппировать_11047" data-name="Сгруппировать 11047" transform="translate(19.742 47.37)">
            <path id="Контур_29641" data-name="Контур 29641" d="M394.971,383.055a18.329,18.329,0,0,0,9.625-2.785,2.372,2.372,0,0,0,.481-3.6,3.161,3.161,0,0,0-4.054-.422c-.268.179-5.606,3.635-13.1.045a3.114,3.114,0,0,0-3.935,1.035,2.411,2.411,0,0,0,1.155,3.474A21.706,21.706,0,0,0,394.971,383.055Z" transform="translate(-383.632 -375.702)" fill="#091e39"/>
          </g>
          <path id="Контур_29642" data-name="Контур 29642" d="M444.832,343.5a1.477,1.477,0,0,1,.21,0l.264.007c.179.006.363.007.553,0,.37,0,.755-.028,1.13-.044a21.506,21.506,0,0,0,2.261-.3,21.414,21.414,0,0,0,8.155-3.344c.612-.372,1.165-.857,1.731-1.284.558-.447,1.069-.967,1.6-1.429l5.736,8.1c-.908.445-1.781.921-2.7,1.311-.934.372-1.836.776-2.8,1.053a28.853,28.853,0,0,1-5.767,1.267,27.315,27.315,0,0,1-5.792.065,26.9,26.9,0,0,1-2.835-.417c-.471-.108-.934-.2-1.4-.338-.232-.061-.467-.129-.705-.2l-.362-.116-.412-.141Z" transform="translate(-383.494 -315.737)" fill="#091e39"/>
          <path id="Контур_29643" data-name="Контур 29643" d="M442.682,356.253l.428.074.362.071c.23.049.467.1.687.157.452.108.889.243,1.326.384s.861.314,1.295.477c.419.19.845.373,1.262.58a17.642,17.642,0,0,1,4.634,3.338,17.866,17.866,0,0,1,3.464,4.8,20.1,20.1,0,0,1,1.152,2.745c.322.934.518,1.877.766,2.837l-9.878.961c-.011-.556.046-1.155.009-1.716a11.4,11.4,0,0,0-.209-1.664,9.693,9.693,0,0,0-1.151-3.144,10.546,10.546,0,0,0-2.247-2.769c-.233-.2-.48-.4-.722-.6-.257-.178-.51-.376-.776-.546s-.536-.342-.811-.49c-.138-.083-.271-.145-.406-.217l-.191-.1c-.063-.031-.131-.063-.129-.075Z" transform="translate(-382.793 -321.983)" fill="#091e39"/>
          <path id="Контур_29644" data-name="Контур 29644" d="M416.9,310.914c-5.357-6.781-31.29-5.425-31.29-5.425s-31.366-1.152-31.289,31.1c.076,13.246,15.059,20.179,31.289,20.179s31.215-6.933,31.29-20.179a35.626,35.626,0,0,0-2.7-14.469v-.007C412.848,316.281,422.126,317.523,416.9,310.914Z" transform="translate(-354.324 -305.378)" fill="#034fa0"/>
          <path id="Контур_29645" data-name="Контур 29645" d="M418.131,312.749a7.551,7.551,0,0,0-2.1-1.748c4.641,6.091-4.281,5.022-2.948,10.625v.007a34.152,34.152,0,0,1,2.7,14.148c-.075,12.953-15.058,19.732-31.29,19.732-10.608,0-20.68-2.9-26.408-8.519,4.947,7.649,16.493,11.609,28.757,11.609,16.232,0,31.215-6.933,31.29-20.179a35.624,35.624,0,0,0-2.7-14.469v-.007C414.076,318.116,423.353,319.358,418.131,312.749Z" transform="translate(-355.551 -307.213)" fill="#0f3464" opacity="0.5"/>
          <path id="Контур_29646" data-name="Контур 29646" d="M412.223,331.178c-4.335-8.245-15.434-11.166-23.858-11.166s-19.524,2.921-23.859,11.166c-4.238,8.06-.624,17.769,9,17.768a86.544,86.544,0,0,0,9.691-1.3,26.884,26.884,0,0,1,10.328,0,86.564,86.564,0,0,0,9.691,1.3C412.848,348.946,416.461,339.238,412.223,331.178Z" transform="translate(-357.075 -310.154)" fill="#fecea2"/>
          <path id="Контур_29647" data-name="Контур 29647" d="M386.644,318.226a91.212,91.212,0,0,0-26.084,3.487,26.52,26.52,0,0,0-3.287,6.388c5.083-2.01,14.924-4.913,29.371-4.913,15.723,0,25.445,3.6,29.411,5.46-.271-.808-.562-1.593-.885-2.334v-.007a3.73,3.73,0,0,1,.546-3.224C410.359,320.949,400.761,318.226,386.644,318.226Z" transform="translate(-355.286 -309.571)" fill="#091e39"/>
          <path id="Контур_29648" data-name="Контур 29648" d="M403.5,314.835H390.2a1.829,1.829,0,0,0-1.652,1.965v5.6a1.829,1.829,0,0,0,1.652,1.965h13.3a1.829,1.829,0,0,0,1.652-1.965v-5.6A1.829,1.829,0,0,0,403.5,314.835Z" transform="translate(-365.495 -308.465)" fill="#091e39"/>
          <path id="Контур_29649" data-name="Контур 29649" d="M390.841,323.555a.365.365,0,0,1-.329-.393v-5.6a.365.365,0,0,1,.329-.392h13.3a.365.365,0,0,1,.33.392v5.6a.365.365,0,0,1-.33.393Z" transform="translate(-366.135 -309.227)" fill="#d0d2d3"/>
          <path id="Контур_29650" data-name="Контур 29650" d="M428.6,356.418c0,.833-1.784,1.508-3.984,1.508s-3.984-.675-3.984-1.508,1.784-1.508,3.984-1.508S428.6,355.586,428.6,356.418Z" transform="translate(-375.966 -321.545)" fill="#e5a876"/>
          <path id="Контур_29651" data-name="Контур 29651" d="M369.094,356.418c0,.833,1.783,1.508,3.983,1.508s3.984-.675,3.984-1.508-1.784-1.508-3.984-1.508S369.094,355.586,369.094,356.418Z" transform="translate(-359.145 -321.545)" fill="#e5a876"/>
          <g id="Сгруппировать_11048" data-name="Сгруппировать 11048" transform="translate(36.284 14.716)">
            <path id="Контур_29652" data-name="Контур 29652" d="M408.921,333.917l-.731-3.517,14.911-3.176.589,4.928Z" transform="translate(-408.19 -327.225)" fill="#0c0608"/>
          </g>
          <g id="Сгруппировать_11049" data-name="Сгруппировать 11049" transform="translate(10.157 14.716)">
            <path id="Контур_29653" data-name="Контур 29653" d="M384.171,333.917l.731-3.517-14.911-3.176-.589,4.928Z" transform="translate(-369.403 -327.225)" fill="#0c0608"/>
          </g>
          <path id="Контур_29654" data-name="Контур 29654" d="M385.444,343.238a5.656,5.656,0,0,1-1.7,4.49,7.4,7.4,0,0,1-4.614,2.144,6.773,6.773,0,0,1-4.941-1.468,5.282,5.282,0,0,1-1.959-4.416,8.323,8.323,0,0,0,3.168,2.542,7.219,7.219,0,0,0,3.491.517,8.759,8.759,0,0,0,3.472-1.058A9.834,9.834,0,0,0,385.444,343.238Z" transform="translate(-360.163 -317.735)" fill="#1e1e1e"/>
          <path id="Контур_29655" data-name="Контур 29655" d="M409.883,343.238a5.656,5.656,0,0,0,1.7,4.49,7.4,7.4,0,0,0,4.614,2.144,6.773,6.773,0,0,0,4.941-1.468,5.282,5.282,0,0,0,1.959-4.416,8.322,8.322,0,0,1-3.168,2.542,7.219,7.219,0,0,1-3.491.517,8.759,8.759,0,0,1-3.472-1.058A9.834,9.834,0,0,1,409.883,343.238Z" transform="translate(-372.448 -317.735)" fill="#1e1e1e"/>
          <path id="Контур_29656" data-name="Контур 29656" d="M2.58,16.242V11.319H3.768l1.889,2.745V11.319H6.949v4.923H5.835L3.872,13.415v2.827Zm5.255,0V11.319H9.141V15.09h2.28v1.151Z" transform="translate(24.462 -2.683)" fill="#091e39"/>
        </g>
      </g>
    </g>
  </g>
</svg>
