<svg xmlns="http://www.w3.org/2000/svg" width="169" height="23.514" viewBox="0 0 169 23.514">
  <g id="layer3" transform="translate(-188.181 261.986)" opacity="0.504">
    <g id="g1117" transform="translate(188.181 -261.986)">
      <path id="path1020" d="M196.445,63.677h6V72.2h-1.914v-2.7a7.8,7.8,0,0,1-1.3,1.653,6.094,6.094,0,0,1-3.914,1.479c-4,0-7.133-3.914-7.133-8.96s3.132-9.047,7.046-9.047a5.679,5.679,0,0,1,5.132,2.958v-2.7h1.827v5.48h-1.914a5.738,5.738,0,0,0-.957-2.088,5.078,5.078,0,0,0-3.653-1.914c-2.088,0-5.219,1.827-5.219,7.133,0,4.175,2.262,7.22,5.219,7.22a5.006,5.006,0,0,0,4.7-4.088,7.476,7.476,0,0,0,.087-1.392h-4.089l.087-1.566" transform="translate(-188.181 -49.124)" fill="#fff"/>
      <path id="path1022" d="M294.323,86.957l-1.218.174c-4,.522-5.306,1.218-5.306,2.871a2.675,2.675,0,0,0,2.7,2.523,4,4,0,0,0,3.827-3.393Zm3.741,6.785h-3.741V91.394A4.982,4.982,0,0,1,289.887,94a4.053,4.053,0,0,1-4.263-3.74V90c0-2.523,2.175-3.74,7.394-4.263l1.218-.087v-1.3c0-1.479-1.131-2.436-2.957-2.436s-2.784.609-3.132,2.349h-2a4.627,4.627,0,0,1,1.479-2.7,5.562,5.562,0,0,1,3.48-1.131c2.7,0,4.959,1.218,4.959,4.523v7.22h1.827l.174,1.566" transform="translate(-269.183 -70.576)" fill="#fff"/>
      <path id="path1024" d="M372.544,82.184a5,5,0,0,1,4.176-2.7c1.74,0,2.7.87,3.044,2.7a7.362,7.362,0,0,1,1.218-1.653,4.189,4.189,0,0,1,2.784-1.131c2,0,3.132,1.3,3.132,3.567v8.264h1.827V92.8h-3.653V83.663c0-1.827-.609-2.7-1.914-2.7-2.262,0-3.48,2.7-3.48,3.654v6.611h1.914V92.8h-3.827V83.4c0-1.653-.609-2.349-1.914-2.349-2,0-3.48,2.523-3.48,3.74v6.524h1.914v1.566H368.63V91.318h1.914V81.228H368.63V79.662h3.828l.087,2.523" transform="translate(-338.183 -69.718)" fill="#fff"/>
      <path id="path1026" d="M502.8,65.034a4.083,4.083,0,0,0,3.74,4.089c2.262,0,3.653-2,3.653-5.219s-1.479-5.132-3.653-5.132a4.284,4.284,0,0,0-3.828,4Zm-3.653-12.439H502.8v7.568c.522-.957,2-2.871,4.263-2.871,2.958,0,5.219,3.045,5.219,6.872,0,3.567-2.436,6.611-5.219,6.611-2.349,0-3.48-1.566-4.263-2.61V70.6h-3.74V69.036h1.827V54.16h-1.74V52.595" transform="translate(-446.607 -47.435)" fill="#fff"/>
      <path id="path1028" d="M583.611,52.592h3.74V69.032h1.74V70.6h-5.567V69.032h1.914V54.07h-1.827V52.592" transform="translate(-516.819 -47.432)" fill="#fff"/>
      <path id="path1030" d="M634.685,86.083a4.82,4.82,0,0,0-1.3-3.306,2.936,2.936,0,0,0-2.175-.783,3.814,3.814,0,0,0-3.479,2.784,6.932,6.932,0,0,0-.261,1.3Zm1.914,4a4.434,4.434,0,0,1-1.044,2A5.422,5.422,0,0,1,631.379,94c-3.567,0-6.089-2.783-6.089-6.785,0-3.828,2.523-6.785,5.741-6.785s5.828,2.523,5.828,7.133h-9.482a5.823,5.823,0,0,0,1.479,3.915,3.74,3.74,0,0,0,2.436.957,3.2,3.2,0,0,0,3.132-2.262l2.175-.087" transform="translate(-551.538 -70.573)" fill="#fff"/>
      <path id="path1032" d="M713.8,60.451l-2.262,7.655h4.523Zm-2.088-3.219h4.175l4.784,14.44h1.3v2.783h-3.914l-1.131-3.741h-6.089l-1.131,3.741h-4V71.672h1.305l4.7-14.44" transform="translate(-618.392 -51.29)" fill="#fff"/>
      <path id="path1034" d="M801.1,81.463h5.219v2.523h-1.3l1.827,7.742,2.175-10.265h3.393l2.175,10.091,1.74-7.568h-1.3V81.463h5.219v2.523h-1.131l-2.784,10.525h-3.48l-2.175-9.047-2.088,9.047H805.1l-2.871-10.525H801.1V81.463" transform="translate(-697.683 -71.432)" fill="#fff"/>
      <path id="path1036" d="M927.6,87.567c-3.045.261-5.046.522-5.046,2.349,0,1.044.87,1.74,2.175,1.74a2.956,2.956,0,0,0,2.958-2.784v-1.3Zm3.131,3.654h1.131v2.523h-4.088V92.177a5,5,0,0,1-4,1.827c-2.61,0-4.611-1.74-4.611-4.089,0-3.827,4.35-4.262,8.525-4.61,0-2-.7-2.61-2.349-2.61s-2.262.783-2.349,2v.087l-3.132-.087c.174-2.61,2.262-4.263,5.393-4.263,3.654,0,5.567,1.653,5.567,4.61l-.087,6.176" transform="translate(-795.824 -70.577)" fill="#fff"/>
      <path id="path1038" d="M1009.143,82.266c.87-1.653,1.827-2.349,3.306-2.349a8.569,8.569,0,0,1,1.479.174v3.045a9.582,9.582,0,0,0-1.566-.174,2.929,2.929,0,0,0-3.132,2.7V90.7h1.566v2.523h-6.089V90.7h1.3v-8h-1.3V80.178h4.436v2.088" transform="translate(-866.938 -70.147)" fill="#fff"/>
      <path id="path1040" d="M1072.529,84.707a2.617,2.617,0,0,0-2.61-2.61h-.087a3.07,3.07,0,0,0-2.958,2.523Zm3.393,3.827c-.609,2.871-2.958,4.61-6.089,4.61-3.654,0-6.35-2.871-6.35-6.872s2.7-6.872,6.35-6.872a5.975,5.975,0,0,1,5.045,2.7,8.732,8.732,0,0,1,1.3,4.871h-9.395c.348,3.393,2.523,3.567,3.132,3.567a2.716,2.716,0,0,0,2.7-1.914l3.306-.087" transform="translate(-915.796 -69.718)" fill="#fff"/>
      <g id="g1046" transform="translate(160.475 0)">
        <path id="path1042" d="M1325.035-162.922a.858.858,0,0,0,.324-.121.664.664,0,0,0,.223-.24.82.82,0,0,0,.083-.391.786.786,0,0,0-.187-.542.755.755,0,0,0-.6-.209h-1.454v1.533h1.22A2.362,2.362,0,0,0,1325.035-162.922Zm-.121-2a1.443,1.443,0,0,1,.981.308,1.059,1.059,0,0,1,.353.843,1.33,1.33,0,0,1-.18.7.934.934,0,0,1-.583.413v.012a.792.792,0,0,1,.313.123.7.7,0,0,1,.189.207.928.928,0,0,1,.106.268,2.609,2.609,0,0,1,.052.308c.009.107.013.216.018.326a3.015,3.015,0,0,0,.031.326,1.822,1.822,0,0,0,.072.3.734.734,0,0,0,.137.256h-.652a.366.366,0,0,1-.083-.184,1.505,1.505,0,0,1-.027-.263q-.007-.144-.014-.311a2.21,2.21,0,0,0-.036-.326c-.018-.107-.038-.208-.063-.3a.711.711,0,0,0-.117-.252.568.568,0,0,0-.209-.172.767.767,0,0,0-.344-.065h-1.429v1.878h-.585v-4.4h2.07" transform="translate(-1320.217 166.825)" fill="#fff"/>
        <path id="path1044" d="M1311.542-175.53a3.571,3.571,0,0,0-3.567,3.566,3.571,3.571,0,0,0,3.567,3.567,3.572,3.572,0,0,0,3.567-3.567A3.572,3.572,0,0,0,1311.542-175.53Zm0,7.829a4.267,4.267,0,0,1-4.262-4.262,4.267,4.267,0,0,1,4.262-4.262,4.267,4.267,0,0,1,4.262,4.262,4.267,4.267,0,0,1-4.262,4.262" transform="translate(-1307.279 176.226)" fill="#fff"/>
      </g>
    </g>
  </g>
</svg>
