<svg xmlns="http://www.w3.org/2000/svg" width="47.776" height="21.248" viewBox="0 0 47.776 21.248">
  <path id="Контур_36199" data-name="Контур 36199" d="M4.192,30V26.7H7.648V13.968L3.776,16.016,2.208,13.072,8.128,9.84h3.3V26.7h3.328V30ZM22.336,18.832a5.464,5.464,0,0,1-1.76-1.712,4.388,4.388,0,0,1-.768-2.512,4.929,4.929,0,0,1,.8-2.8,5.323,5.323,0,0,1,2.24-1.872,7.79,7.79,0,0,1,3.328-.672,6.885,6.885,0,0,1,4.752,1.456,4.793,4.793,0,0,1,1.616,3.728,4.345,4.345,0,0,1-.8,2.592A5.349,5.349,0,0,1,29.92,18.7,6.554,6.554,0,0,1,32.736,20.9a5.629,5.629,0,0,1,1.024,3.376,6.024,6.024,0,0,1-.416,2.128,5.821,5.821,0,0,1-1.328,2.032,6.766,6.766,0,0,1-2.352,1.5,9.4,9.4,0,0,1-3.488.576,9.745,9.745,0,0,1-3.52-.56,6.426,6.426,0,0,1-2.336-1.488,5.966,5.966,0,0,1-1.312-2.016,5.9,5.9,0,0,1-.416-2.112,5.568,5.568,0,0,1,1.04-3.376A6.339,6.339,0,0,1,22.336,18.832Zm3.84-1.344a4.125,4.125,0,0,0,2.048-1.216,2.65,2.65,0,0,0,.768-1.76,2.219,2.219,0,0,0-.784-1.744,3.267,3.267,0,0,0-4.032.016,2.3,2.3,0,0,0-.816,1.824,2.534,2.534,0,0,0,.768,1.68A4.181,4.181,0,0,0,26.176,17.488Zm-.064,3.1a5.627,5.627,0,0,0-2.576,1.3,3.032,3.032,0,0,0-1.1,2.352,2.788,2.788,0,0,0,.576,1.824,3.313,3.313,0,0,0,1.44,1.024,4.826,4.826,0,0,0,3.456,0,3.313,3.313,0,0,0,1.44-1.024,2.788,2.788,0,0,0,.576-1.824,2.729,2.729,0,0,0-.544-1.664,4.9,4.9,0,0,0-1.408-1.264A5.556,5.556,0,0,0,26.112,20.592Zm11.136.7V18.128h4.768v-4.7h3.2v4.7h4.768V21.3H45.216v4.672h-3.2V21.3Z" transform="translate(-2.208 -9.264)" fill="#fff" opacity="0.504"/>
</svg>
