<svg xmlns="http://www.w3.org/2000/svg" width="245.258" height="34.891" viewBox="0 0 245.258 34.891">
  <g id="Сгруппировать_13863" data-name="Сгруппировать 13863" transform="translate(0)">
    <g id="Сгруппировать_13862" data-name="Сгруппировать 13862" transform="translate(0)">
      <g id="Layer_1" data-name="Layer 1" transform="translate(0 1.615)">
        <g id="Сгруппировать_13861" data-name="Сгруппировать 13861">
          <path id="Контур_45627" data-name="Контур 45627" d="M216.053,1330.55q-.883,0-2.646.062t-2.646.061q-.82,0-2.461-.061t-2.461-.062q-.411,0-.41.8,0,1.58.267,4.769t.267,4.767q0,1.19-.205,1.334-3.4-4.413-4.986-6.73-2.95-4.142-3.3-4.7-.554-.881-.841-.881a12.757,12.757,0,0,0-2.174.246q-1.784.308-2.194.348-3.077.35-4,.349-.84,0-.841.451,0,2.318.2,6.983t.194,7q0,2.235-.2,6.717t-.2,6.715q0,.6.676.6.8,0,2.41-.082t2.41-.082q.738,0,2.226.082t2.224.082q.635,0,.636-.759,0-1.6-.123-4.81t-.123-4.808q0-.6.287-.6.616,0,8.06,10.3.492.677.841.677.717,0,2.133-.082t2.112-.082q.676,0,2.02.082t2.02.082q.717,0,.718-.472l.041-13.638q0-2.359.226-7.065t.225-7.044Q216.421,1330.55,216.053,1330.55Z" transform="translate(-187.403 -1329.915)" fill="#00b6e9"/>
          <path id="Контур_45628" data-name="Контур 45628" d="M682.212,1330.55q-.882,0-2.646.062t-2.646.061q-.82,0-2.461-.061T672,1330.55q-.411,0-.41.8,0,1.58.267,4.769t.267,4.767q0,1.19-.205,1.334-3.4-4.41-4.983-6.728-2.953-4.145-3.3-4.7-.554-.881-.841-.881a12.752,12.752,0,0,0-2.174.246q-1.785.308-2.194.348-3.077.35-4,.349-.841,0-.841.451,0,2.318.2,6.983t.195,7q0,2.235-.2,6.717t-.205,6.713q0,.6.677.6.8,0,2.41-.082t2.409-.082q.739,0,2.226.082t2.225.082q.635,0,.636-.759,0-1.6-.123-4.81t-.124-4.808q0-.6.287-.6.616,0,8.06,10.3c.328.451.607.676.841.676q.717,0,2.133-.082t2.113-.082q.676,0,2.019.082t2.02.082q.717,0,.718-.472l.041-13.638q0-2.358.226-7.064t.225-7.043Q682.582,1330.549,682.212,1330.55Z" transform="translate(-609.665 -1329.915)" fill="#00b6e9"/>
          <path id="Контур_45629" data-name="Контур 45629" d="M1117.857,1352.257q-1.732-5.539-2.758-8.262-2.154-5.231-3.323-7.814-1.477-3.362-1.682-3.672-.471-.7-.82-.7a1.314,1.314,0,0,0-.348.082,19.144,19.144,0,0,1-4.04.287,17.659,17.659,0,0,1-2.123-.185,17.878,17.878,0,0,0-2.123-.184,1.157,1.157,0,0,0-.636.115,1.58,1.58,0,0,0-.328.626q-9.7,27.358-9.7,27.973,0,.511.594.512.82,0,2.492-.082t2.491-.081q.841,0,2.525.081t2.525.082q.492,0,.656-.9a1.48,1.48,0,0,1,1.005-1.282,31.755,31.755,0,0,1,5.6-.256q.779,0,.78.821v1q.082.615.615.615.881,0,2.625-.082t2.625-.082q.881,0,2.666.082t2.666.082q.821,0,.821-.287a.963.963,0,0,0-.062-.267Q1119.59,1357.795,1117.857,1352.257Zm-11.493-3.021h-2.34a.6.6,0,0,1-.6-.595.624.624,0,0,1,.023-.167c.356-1.251,1.065-3.69,1.42-4.572a.311.311,0,0,1,.581.015c.348.991,1.1,3.316,1.492,4.538a.6.6,0,0,1-.572.781Z" transform="translate(-1004.983 -1331.626)" fill="#00b6e9"/>
          <path id="Контур_45630" data-name="Контур 45630" d="M524.018,1351.625h0l.029-3.8q.046-1.781.165-4.35.2-4.192.2-6.285,0-.492-.534-.493-.841,0-2.563.083t-2.582.082q-.922,0-2.738-.082t-2.717-.083q-.492,0-.493.452,0,2.072.2,6.286t.193,6.329q0,2.524-.2,7.567t-.207,7.544q0,.595.677.595.841,0,2.533-.082t2.532-.082q.9,0,2.677.092t2.656.092a.534.534,0,0,0,.6-.463.541.541,0,0,0,0-.152q0-2.5-.205-7.546C524.087,1353.963,524.018,1353.306,524.018,1351.625Z" transform="translate(-482.12 -1336.057)" fill="#00b6e9"/>
          <path id="Контур_45631" data-name="Контур 45631" d="M973.869,1335.051q.011-.531-.5-.542c-.571-.012-1.983.12-5.144.052s-4.934-.268-5.545-.281q-.489-.01-.48.5l0,.245q.008.694.091,3.494c.036,1.259.022,7.58-.319,13.911a56.607,56.607,0,0,1-2.4,13.7.785.785,0,0,0,.938.992c3.06-.746,11.067-3.831,12.124-11.161C973.77,1348.051,973.84,1336.438,973.869,1335.051Z" transform="translate(-886.821 -1333.869)" fill="#00b6e9"/>
        </g>
      </g>
      <g id="Layer_2" data-name="Layer 2" transform="translate(117.694)">
        <path id="Контур_45632" data-name="Контур 45632" d="M1659.687,1648.757c-.008,0-.014,0-.021,0C1659.695,1648.76,1659.7,1648.76,1659.687,1648.757Z" transform="translate(-1638.719 -1617.117)" fill="#fff"/>
        <path id="Контур_45633" data-name="Контур 45633" d="M1459.186,1350.9a1.522,1.522,0,0,0-.314.042,41.665,41.665,0,0,1-5.247.819q-2.624.251-4.849.252-.315,0-.357-.82-.083-2.353-.084-4.113,0-1.575.042-4.3.335-7.114.609-10.662l.021-.229q0-.44-.336-.44-.943,0-2.811.1t-2.812.094q-.881,0-2.655-.083t-2.66-.086q-.5,0-.5.462,0,2.455.189,7.3.21,5.036.21,7.325l.017,9.567s-.031,4.045-.026,4.082q.1.706.7.707,1.532,0,4.6-.084t4.6-.083q2.854,0,7.639.356,2.914.2,3.041.229c.337-.011.548-.259.631-.751a60.8,60.8,0,0,0,.735-9.129Q1459.563,1350.9,1459.186,1350.9Z" transform="translate(-1437.23 -1329.685)" fill="#fff"/>
        <path id="Контур_45634" data-name="Контур 45634" d="M1692.8,1322.046a14.95,14.95,0,0,0-11.029,4.585,15.71,15.71,0,0,0,0,22.1,15.581,15.581,0,0,0,22.035,0l0,0a15.637,15.637,0,0,0-11.008-26.688Zm3.411,19.109a4.753,4.753,0,0,1-6.721.09c-.034-.033-.067-.067-.1-.1a4.751,4.751,0,0,1-1.418-3.442,4.888,4.888,0,0,1,1.386-3.5,4.765,4.765,0,0,1,6.738-.1c.039.038.078.077.115.116a4.878,4.878,0,0,1,1.4,3.493A4.783,4.783,0,0,1,1696.208,1341.156Z" transform="translate(-1654.621 -1321.171)" fill="#fff"/>
        <path id="Контур_45635" data-name="Контур 45635" d="M2049.885,1323.463c.282-.012.428-.147.428-.416a17.4,17.4,0,0,0-.189-2.119,17.566,17.566,0,0,1-.189-2.123q0-.754.105-2.277t.1-2.277q0-.314-.631-.315-.189,0-2.75.252-5.144.484-7.01.483c-3.86,0-10.061-1.9-10.481-1.9a26.207,26.207,0,0,1-9.761,1.9,96.612,96.612,0,0,1-10.328-.462,2.668,2.668,0,0,0-.335-.042c-.168,0-.273.057-.315.169-.238,1.8-.595,5.687-.86,7.073-.158.843-.263,1.51-.317,1.862a.418.418,0,0,0,.3.467c.223.054,4.31-.377,5.541-.459q.084,3.612.083,4.639,0,2.581-.22,7.746t-.221,7.723q0,.609.692.609.861,0,2.582-.084t2.582-.083q.9,0,2.708.094t2.686.1a.556.556,0,0,0,.631-.631q0-2.561-.221-7.724t-.22-7.746q0-1.07.084-4.762c.688.038,2.808.229,4.832.265,1.87.03,3.655-.1,4.246-.139q.083,3.61.084,4.638,0,2.582-.22,7.745t-.22,7.724q0,.609.692.609.861,0,2.582-.084t2.582-.083q.9,0,2.708.094t2.687.1a.556.556,0,0,0,.631-.631q0-2.559-.221-7.723t-.22-7.746q0-1.071.083-4.762Q2049.7,1323.431,2049.885,1323.463Z" transform="translate(-1953.662 -1312.77)" fill="#fff"/>
        <path id="Контур_45636" data-name="Контур 45636" d="M2476.872,1322.046a14.952,14.952,0,0,0-11.03,4.585,15.714,15.714,0,0,0,0,22.1,15.582,15.582,0,0,0,22.036,0l0,0a15.637,15.637,0,0,0-11.008-26.688Zm3.409,19.109a4.752,4.752,0,0,1-6.721.09c-.034-.033-.067-.066-.1-.1a4.746,4.746,0,0,1-1.417-3.442,4.881,4.881,0,0,1,1.386-3.5,4.764,4.764,0,0,1,6.737-.1c.039.038.077.076.115.115a4.878,4.878,0,0,1,1.4,3.494A4.78,4.78,0,0,1,2480.281,1341.155Z" transform="translate(-2364.862 -1321.171)" fill="#fff"/>
      </g>
    </g>
  </g>
</svg>
