<svg width="75" height="53" viewBox="0 0 75 53" fill="none" xmlns="http://www.w3.org/2000/svg">
<path d="M29.5098 35.8072L49.6098 25.3932L29.5098 14.9072V35.8072Z" fill="#091E39"/>
<path opacity="0.12" fill-rule="evenodd" clip-rule="evenodd" d="M29.5098 14.9082L47.1338 26.6772L49.6098 25.3952L29.5098 14.9082Z" fill="black"/>
<g opacity="0.997">
<g opacity="0.997">
<path opacity="0.997" d="M73.642 11.288C73.642 11.288 72.914 6.161 70.686 3.9C68.7145 1.9093 66.0376 0.776346 63.236 0.747C52.821 0 37.207 0 37.207 0H37.178C37.178 0 21.564 0 11.15 0.75C8.34887 0.778551 5.67196 1.9104 3.7 3.9C1.472 6.158 0.743 11.285 0.743 11.285C0.280252 15.2825 0.0322293 19.3019 0 23.326V28.97C0.0323365 32.9931 0.280359 37.0115 0.743 41.008C0.743 41.008 1.471 46.135 3.7 48.393C6.533 51.357 10.247 51.262 11.9 51.576C17.85 52.144 37.193 52.326 37.193 52.326C37.193 52.326 52.822 52.304 63.236 51.547C66.0378 51.5188 68.7152 50.3857 70.686 48.394C72.914 46.136 73.643 41.009 73.643 41.009C74.1053 37.0125 74.3533 32.9941 74.386 28.971V23.326C74.3533 19.3029 74.105 15.2845 73.642 11.288V11.288ZM29.509 35.809V14.909L49.609 25.396L29.509 35.809Z" fill="white"/>
</g>
</g>
</svg>
