<svg width="17" height="12" viewBox="0 0 17 12" fill="none" xmlns="http://www.w3.org/2000/svg">
<g clip-path="url(#clip0)">
<path d="M17.001 9.50167C16.9986 10.1646 16.7413 10.7996 16.2854 11.2677C15.8295 11.7359 15.212 11.9992 14.568 12H2.428C1.78487 11.9978 1.16867 11.734 0.713813 11.2659C0.258957 10.7979 0.00236104 10.1637 0 9.50167V2.50039C0.00183658 1.838 0.258202 1.20327 0.713115 0.734798C1.16803 0.266323 1.78453 0.00216197 2.428 0H14.568C15.2117 0.00189189 15.8284 0.265931 16.2835 0.734434C16.7387 1.20294 16.9952 1.83782 16.997 2.50039L17.001 9.50167ZM6.74467 8.14648L11.338 5.69629L6.74467 3.22868V8.14648Z" fill="#00B6E9"/>
</g>
<defs>
<clipPath id="clip0">
<rect width="17" height="12" fill="white"/>
</clipPath>
</defs>
</svg>
