<svg xmlns="http://www.w3.org/2000/svg" width="17.084" height="13.884" viewBox="0 0 17.084 13.884">
  <path id="twitter-twitter" d="M45.245,36.518a7,7,0,0,1-2.013.552,3.517,3.517,0,0,0,1.541-1.939,7.015,7.015,0,0,1-2.226.851,3.508,3.508,0,0,0-5.973,3.2,9.951,9.951,0,0,1-7.224-3.662,3.509,3.509,0,0,0,1.085,4.679,3.488,3.488,0,0,1-1.588-.438c0,.015,0,.029,0,.044a3.507,3.507,0,0,0,2.812,3.437,3.514,3.514,0,0,1-1.583.06,3.509,3.509,0,0,0,3.274,2.434A7.032,7.032,0,0,1,29,47.232a7.127,7.127,0,0,1-.836-.049,9.969,9.969,0,0,0,15.346-8.4q0-.228-.01-.453A7.118,7.118,0,0,0,45.245,36.518Z" transform="translate(-28.16 -34.874)" fill="#00b6e9"/>
</svg>
