<svg xmlns="http://www.w3.org/2000/svg" width="17.084" height="17.084" viewBox="0 0 17.084 17.084">
  <path id="instagram-instagram" d="M43.274,35.387H41.787a5.257,5.257,0,1,1-10.168,0H30.131v7.229a.657.657,0,0,0,.658.657H42.616a.657.657,0,0,0,.658-.657V35.387Zm0-4.6a.658.658,0,0,0-.658-.657H40.645a.657.657,0,0,0-.657.657V32.76a.657.657,0,0,0,.657.657h1.971a.658.658,0,0,0,.658-.657V30.788ZM36.7,33.417A3.286,3.286,0,1,0,39.988,36.7,3.285,3.285,0,0,0,36.7,33.417m6.572,11.828H30.131a1.971,1.971,0,0,1-1.971-1.972V30.131a1.971,1.971,0,0,1,1.971-1.971H43.274a1.971,1.971,0,0,1,1.971,1.971V43.273a1.971,1.971,0,0,1-1.971,1.972" transform="translate(-28.16 -28.16)" fill="#00b6e9" fill-rule="evenodd"/>
</svg>
