<svg width="38" height="38" viewBox="0 0 38 38" fill="none" xmlns="http://www.w3.org/2000/svg">
<path d="M15.5007 22.2405L9.26542 28.0515L18.2619 25.3638L18.3249 23.5246C17.2657 23.4269 16.2705 22.9744 15.5007 22.2405V22.2405Z" fill="#00B6E9"/>
<path d="M22.2438 22.0669L28.0548 28.3022L25.3671 19.3085L23.5314 19.242C23.431 20.3013 22.9775 21.2962 22.2438 22.0669Z" fill="#00B6E9"/>
<path d="M23.5505 18.6579L25.3833 18.7215L28.6926 9.94065L22.4609 15.7481C23.1385 16.5693 23.5221 17.5935 23.5505 18.6579V18.6579Z" fill="#00B6E9"/>
<path d="M15.3231 15.5013L9.51562 9.26953L12.2062 18.2632L14.039 18.3269C14.1417 17.2686 14.5934 16.2746 15.3231 15.5013V15.5013Z" fill="#00B6E9"/>
<path d="M14.02 18.9052L12.1822 18.8437L8.8708 27.6267L15.1061 21.8157C14.4261 20.9958 14.0434 19.9701 14.02 18.9052V18.9052Z" fill="#00B6E9"/>
<path d="M18.9098 23.5458L18.8433 25.3815L27.6326 28.6921L21.8216 22.4569C21.0017 23.1381 19.9755 23.5219 18.9098 23.5458Z" fill="#00B6E9"/>
<path d="M18.6593 14.0199L18.7258 12.1843L9.93645 8.87361L15.7475 15.1089C16.5688 14.4302 17.5942 14.0467 18.6593 14.0199V14.0199Z" fill="#00B6E9"/>
<path d="M22.0667 15.3273L28.302 9.51632L19.3083 12.2069L19.2397 14.0418C20.2996 14.1409 21.2953 14.5937 22.0667 15.3273Z" fill="#00B6E9"/>
<path d="M21.6419 21.8498C22.2478 21.2848 22.6726 20.5528 22.8626 19.7463C23.0525 18.9399 22.9991 18.0952 22.709 17.3192C22.4189 16.5431 21.9052 15.8705 21.2328 15.3864C20.5605 14.9023 19.7596 14.6285 18.9317 14.5995C18.1037 14.5705 17.2857 14.7878 16.5811 15.2237C15.8766 15.6596 15.3171 16.2946 14.9735 17.0485C14.6298 17.8024 14.5175 18.6412 14.6506 19.459C14.7837 20.2767 15.1563 21.0366 15.7213 21.6426C16.4804 22.4526 17.5294 22.929 18.6388 22.9679C19.7483 23.0067 20.828 22.6047 21.6419 21.8498ZM16.8668 16.7254C17.2745 16.3458 17.7857 16.0956 18.3356 16.0065C18.8855 15.9174 19.4495 15.9933 19.9562 16.2247C20.463 16.4561 20.8898 16.8326 21.1826 17.3065C21.4754 17.7804 21.6212 18.3305 21.6014 18.8872C21.5816 19.444 21.3972 19.9823 21.0715 20.4343C20.7458 20.8862 20.2934 21.2314 19.7715 21.4263C19.2496 21.6212 18.6817 21.6569 18.1395 21.529C17.5973 21.4011 17.1052 21.1153 16.7254 20.7078C16.2162 20.1607 15.945 19.4338 15.9712 18.6869C15.9975 17.94 16.319 17.234 16.8654 16.724L16.8668 16.7254Z" fill="#00B6E9"/>
</svg>
