<svg width="28" height="28" viewBox="0 0 28 28" fill="none" xmlns="http://www.w3.org/2000/svg">
<path d="M9.01842 13.9064L0.500423 13.6064L8.76242 18.0674L10.1074 16.8114C9.42753 15.9934 9.0438 14.9698 9.01842 13.9064V13.9064Z" fill="#00B6E9"/>
<path d="M13.9113 18.5514L13.6113 27.0694L18.0703 18.8094L16.8193 17.4644C15.9992 18.1424 14.9751 18.5252 13.9113 18.5514Z" fill="#00B6E9"/>
<path d="M17.2449 17.0643L18.4959 18.4053L27.0449 14.5363L18.5319 14.2363C18.4304 15.2962 17.9774 16.2916 17.2449 17.0643V17.0643Z" fill="#00B6E9"/>
<path d="M13.659 9.01544L13.959 0.502441L9.50198 8.76444L10.753 10.1054C11.5739 9.42979 12.5962 9.04633 13.659 9.01544V9.01544Z" fill="#00B6E9"/>
<path d="M10.332 10.5012L9.07603 9.1582L0.524029 13.0272L9.04203 13.3272C9.14099 12.2667 9.59561 11.2707 10.332 10.5012V10.5012Z" fill="#00B6E9"/>
<path d="M10.5069 17.2393L9.16194 18.4903L13.0359 27.0463L13.3359 18.5283C12.2745 18.4302 11.2774 17.9759 10.5069 17.2393Z" fill="#00B6E9"/>
<path d="M17.0652 10.3265L18.4102 9.07553L14.5362 0.519531L14.2362 9.03753C15.2969 9.13839 16.293 9.59229 17.0652 10.3265V10.3265Z" fill="#00B6E9"/>
<path d="M18.5504 13.6604L27.0684 13.9604L18.8064 9.50342L17.4604 10.7524C18.1397 11.572 18.5237 12.5962 18.5504 13.6604Z" fill="#00B6E9"/>
<path d="M13.6392 17.9726C14.4672 18.0016 15.2852 17.7844 15.9897 17.3484C16.6942 16.9125 17.2537 16.2774 17.5973 15.5236C17.9409 14.7697 18.0533 13.9308 17.9202 13.1131C17.7871 12.2954 17.4144 11.5355 16.8495 10.9295C16.2845 10.3235 15.5525 9.89871 14.746 9.70876C13.9396 9.5188 13.095 9.57224 12.3189 9.86233C11.5428 10.1524 10.8702 10.6661 10.3861 11.3385C9.90202 12.0108 9.62816 12.8116 9.59917 13.6396C9.56323 14.7492 9.96803 15.8278 10.7251 16.6397C11.4821 17.4517 12.5298 17.9309 13.6392 17.9726ZM13.8862 10.9726C14.4429 10.9925 14.9812 11.1771 15.4331 11.5029C15.8849 11.8287 16.23 12.2812 16.4247 12.8032C16.6195 13.3251 16.655 13.8931 16.527 14.4353C16.399 14.9774 16.113 15.4695 15.7054 15.8492C15.2977 16.2289 14.7867 16.4792 14.2368 16.5684C13.6869 16.6577 13.1229 16.5819 12.6161 16.3506C12.1093 16.1194 11.6824 15.7431 11.3894 15.2692C11.0964 14.7954 10.9506 14.2453 10.9702 13.6886C10.997 12.9417 11.3192 12.236 11.8659 11.7264C12.4126 11.2168 13.1392 10.945 13.8862 10.9706L13.8862 10.9726Z" fill="#00B6E9"/>
</svg>
