<svg xmlns="http://www.w3.org/2000/svg" width="105.928" height="102.213" viewBox="0 0 105.928 102.213">
  <g id="Сгруппировать_12276" data-name="Сгруппировать 12276" transform="translate(-131.514 -4.121)">
    <g id="Сгруппировать_12108" data-name="Сгруппировать 12108" transform="translate(133 5.121)">
      <path id="Контур_31445" data-name="Контур 31445" d="M-4475.847,4477.709s-3.194-.943-5.566,0-5.657,2.874-10.393,2.913-13.947-1.6-18.822-2.913-16.276-1.748-18.183-4.229a9.556,9.556,0,0,1-2.048-7.945,44.127,44.127,0,0,1,1.207-4.981,5.013,5.013,0,0,1-3.258-4.039,13.626,13.626,0,0,1,1.346-6.876c.725-1.868,1.912-1.949,1.912-1.949a4.063,4.063,0,0,1-2.223-3.493,9.4,9.4,0,0,1,1.667-5.146c.41-.464,4.235-3.2,4.235-3.2a17.2,17.2,0,0,1,0-4.933,7.093,7.093,0,0,1,3.319-4.294c.941-.3,7.412.773,7.412.773l17.847-2.019s7.3-.115,8.6.322a10.616,10.616,0,0,1,3.913,2.956c.432.737,9.407,15.537,9.407,15.537s2.34,4.239,2.925,4.638,4.447.8,4.447.8l-6.4,26.822Z" transform="translate(4557.674 -4381.985)" fill="#fecea2"/>
      <path id="Контур_31446" data-name="Контур 31446" d="M-4485.916,4475.376s-4.444-.5-5.039-1.3-1.867-1.357-1.326-3.389,7.4-28.824,7.4-28.824-.516-.647,1.57-1.036,10.5,2.141,10.5,2.141l1.9.566Z" transform="translate(4575.049 -4375.377)" fill="#00b6e9"/>
      <path id="Контур_31447" data-name="Контур 31447" d="M-4511.8,4433.682s4.351-.217,6.485,3.3,11.25,14.146,11.427,15.837a5.785,5.785,0,0,1-1.042,3.391s-3.014.767-6.025-2.256-8.067-12.219-8.067-12.219Z" transform="translate(4566.741 -4378.423)" fill="#e5a876"/>
      <path id="Контур_31448" data-name="Контур 31448" d="M-4522.621,4470.169s1.392-.063,2.174-2.944a17.031,17.031,0,0,0,0-6.653s2.746-3.486,2.716-5.43,0-6.357,0-6.357l-1.51-4.145s2.045,1.359,5.368,0a8.8,8.8,0,0,0,5.316-5.152c.493-1.543,2.123-4.959,2.123-4.959l-.548,9.309-3.4,4-5.612,1.641,2.116,4.121-.841,4.089-3.017,2.881,3.017,4.528-1.87,5.069-3.281,2.375-2.755-.6Z" transform="translate(4562.107 -4378.057)" fill="#e5a876"/>
      <g id="hand_holding-ready_cash" data-name="hand holding-ready cash" transform="translate(24.891 43.28)">
        <g id="_Grupo_" data-name="&lt;Grupo&gt;">
          <g id="Сгруппировать_12104" data-name="Сгруппировать 12104" transform="translate(0)">
            <path id="Контур_31425" data-name="Контур 31425" d="M364.545,167.3l-2.224-.268a2.508,2.508,0,0,1-1.834-1.177L348.722,146.68a8.062,8.062,0,0,0-7.321-3.834l-14.415.8a8.064,8.064,0,0,0-7.616,7.981l-.052,5.811c0,.1-.007.2-.016.3l-.892,9.024a3.226,3.226,0,0,0,3.361,3.54l1.752-.082a8.063,8.063,0,0,0,7.368-5.8l1.334-4.59a3.223,3.223,0,0,0-1.136-3.46l-.469-.36" transform="translate(-300.71 -142.833)" fill="none" stroke="#3b3b3b" stroke-linecap="round" stroke-linejoin="round" stroke-width="2"/>
            <path id="Контур_31426" data-name="Контур 31426" d="M341.488,171.064c-9.677-3.226-13.232-14.671-14.442-18.59" transform="translate(-295.408 -136.924)" fill="none" stroke="#3b3b3b" stroke-linecap="round" stroke-linejoin="round" stroke-width="2"/>
            <path id="Контур_31427" data-name="Контур 31427" d="M362.41,177.341l-2.911-.713a8.068,8.068,0,0,0-5.092.423l-2.1.9a22.572,22.572,0,0,1-13.844,1.276l-26.01-5.842" transform="translate(-304.352 -124.108)" fill="none" stroke="#3b3b3b" stroke-linecap="round" stroke-linejoin="round" stroke-width="2"/>
            <path id="Контур_31428" data-name="Контур 31428" d="M325.254,145.8l-6.382-1.871a5.807,5.807,0,0,0-7.221,4l0,0a5.871,5.871,0,0,0,4.056,7.245l6.786,1.915" transform="translate(-304.981 -142.306)" fill="none" stroke="#3b3b3b" stroke-linecap="round" stroke-linejoin="round" stroke-width="2"/>
            <path id="Контур_31429" data-name="Контур 31429" d="M307.481,165.9a5.872,5.872,0,0,0,4.231,6.4l11.3,3.189a5.869,5.869,0,0,0,7.243-4.055h0a5.871,5.871,0,0,0-4.055-7.245l-13.552-3.947A5.872,5.872,0,0,1,308.594,153h0" transform="translate(-307.429 -136.603)" fill="none" stroke="#3b3b3b" stroke-linecap="round" stroke-linejoin="round" stroke-width="2"/>
            <path id="Контур_31430" data-name="Контур 31430" d="M307.571,160.475" transform="translate(-307.344 -132.021)" fill="none" stroke="#3b3b3b" stroke-linecap="round" stroke-linejoin="round" stroke-width="2"/>
            <path id="Контур_31431" data-name="Контур 31431" d="M308.559,170.126h0a5.87,5.87,0,0,0,4.982,6.64l8.806,1.256a5.87,5.87,0,0,0,6.64-4.984h0a5.869,5.869,0,0,0-2.231-5.482" transform="translate(-306.776 -127.68)" fill="none" stroke="#3b3b3b" stroke-linecap="round" stroke-linejoin="round" stroke-width="2"/>
            <path id="Контур_31442" data-name="Контур 31442" d="M6.136,7.632s-4.708,2.4-5.42,6.047" transform="translate(0.311 3.271)" fill="none" stroke="#3b3b3b" stroke-width="2"/>
            <path id="Контур_31443" data-name="Контур 31443" d="M3.21,15.863A5.9,5.9,0,0,0,.841,18.65,12.73,12.73,0,0,0,0,23.184" transform="translate(0.003 6.798)" fill="none" stroke="#3b3b3b" stroke-width="2"/>
            <path id="Контур_31444" data-name="Контур 31444" d="M3.811,24.885A5.387,5.387,0,0,0,2.076,27.8a18.862,18.862,0,0,0-.864,4.674" transform="translate(0.524 10.665)" fill="none" stroke="#3b3b3b" stroke-width="2"/>
          </g>
          <path id="Контур_31432" data-name="Контур 31432" d="M363.719,158.959l-9.707-2.426a3.225,3.225,0,0,0-3.927,2.414l-6.59,27.552a3.224,3.224,0,0,0,2.355,3.879l3.353.839" transform="translate(-285.381 -134.496)" fill="none" stroke="#3b3b3b" stroke-linecap="round" stroke-linejoin="round" stroke-width="2"/>
        </g>
      </g>
      <g id="Сгруппировать_12112" data-name="Сгруппировать 12112">
        <path id="Контур_31441" data-name="Контур 31441" d="M-4538.375,4412.893l-9.371,10.027s8.784-.529,12.854.241,14.114,4.649,14.114,4.649l7.017,2.733s-5.659-8.51-8.783-11.3-12.348-7.295-12.348-7.295Z" transform="translate(4551.338 -4387.736)" fill="#b98d8d"/>
        <path id="Контур_31438" data-name="Контур 31438" d="M35.376,3.228A60.958,60.958,0,0,0,31.543,18.5c-.687,7.614-.826,6.77-.347,18.563s-.582,4.235-.582,4.235S27.022,25.533,23.6,20.936,10.222,5.013,10.222,5.013" transform="translate(7.61 1.383)" fill="#edbbbb"/>
        <g id="Сгруппировать_12105" data-name="Сгруппировать 12105" transform="translate(38.921)">
          <path id="Контур_31433" data-name="Контур 31433" d="M317.553,161.161h0l28.7-2.54s-5.551.424-12.824,1.059-15.872,1.481-15.872,1.481c-1.016-4.608-4.382-24.634,5.206-45.161l35.116,12.9s-6.223,8.749-11.626,29.718" transform="translate(-316.148 -116)" fill="#ffc9c9" stroke="#3b3b3b" stroke-linecap="round" stroke-linejoin="round" stroke-width="2"/>
          <g id="Контур_27297" data-name="Контур 27297" transform="matrix(0.951, 0.309, -0.309, 0.951, 18.72, 10.261)" fill="#fff" stroke-linecap="round" stroke-linejoin="round">
            <path d="M 7.411799430847168 8.658072471618652 L 6.384689331054688 8.045172691345215 L 4.100241184234619 6.681987285614014 L 1.817869544029236 8.000972747802734 L 0.7953595519065857 8.591882705688477 L 1.082719564437866 7.446402549743652 L 1.682821750640869 5.054275512695313 L -0.3222404420375824 3.364232540130615 L -1.289900422096252 2.54860258102417 L -0.02608044072985649 2.482602596282959 L 2.610997200012207 2.344886779785156 L 3.641149520874023 -0.1883474290370941 L 4.10431957244873 -1.327317476272583 L 4.567489624023438 -0.1883474290370941 L 5.597631931304932 2.34487509727478 L 8.234689712524414 2.482572555541992 L 9.503089904785156 2.548802614212036 L 8.529919624328613 3.364992618560791 L 6.52467679977417 5.046780586242676 L 7.12645959854126 7.496522426605225 L 7.411799430847168 8.658072471618652 Z" stroke="none"/>
            <path d="M 4.10431957244873 2.384185791015625e-06 L 2.954449653625488 2.827632427215576 L 0 2.981922626495361 L 2.243749618530273 4.873152732849121 L 1.567689418792725 7.568052768707275 L 4.104299545288086 6.102152824401855 L 6.640899658203125 7.615802764892578 L 5.964849472045898 4.86373233795166 L 8.208619117736816 2.981892585754395 L 5.25417947769165 2.827622413635254 L 4.10431957244873 2.384185791015625e-06 M 4.10431957244873 -0.999997615814209 C 4.511139869689941 -0.999997615814209 4.8774094581604 -0.753547191619873 5.030659675598145 -0.3766975402832031 L 5.941083908081055 1.862127304077148 L 8.260769844055176 1.98325252532959 C 8.671109199523926 2.004682540893555 9.026579856872559 2.274942398071289 9.156949996948242 2.664612770080566 C 9.287319183349609 3.054282665252686 9.166059494018555 3.484042644500732 8.851229667663574 3.748092651367188 L 7.084514141082764 5.229828834533691 L 7.612029552459717 7.377242565155029 C 7.708229541778564 7.768882751464844 7.559779644012451 8.179972648620605 7.235549449920654 8.419782638549805 C 7.059607028961182 8.549919128417969 6.850535869598389 8.615802764892578 6.640806198120117 8.615802764892578 C 6.464054584503174 8.615802764892578 6.286849975585938 8.56904125213623 6.128469467163086 8.474533081054688 L 4.096184253692627 7.261819362640381 L 2.068049430847168 8.433872222900391 C 1.912644863128662 8.523681640625 1.739899158477783 8.568056106567383 1.567808151245117 8.568056106567383 C 1.35482120513916 8.568056106567383 1.142800331115723 8.500150680541992 0.9654593467712402 8.366373062133789 C 0.6448297500610352 8.124502182006836 0.5000195503234863 7.714282512664795 0.5977497100830078 7.324722766876221 L 1.121889591217041 5.235403060913086 L -0.6444902420043945 3.746542692184448 C -0.9583206176757813 3.482012748718262 -1.07865047454834 3.052562713623047 -0.9479408264160156 2.663482666015625 C -0.8172407150268555 2.274392604827881 -0.4620504379272461 2.004692554473877 -0.05215072631835938 1.983282566070557 L 2.267544269561768 1.862141132354736 L 3.177979469299316 -0.3766975402832031 C 3.331229686737061 -0.753547191619873 3.697499752044678 -0.999997615814209 4.10431957244873 -0.999997615814209 Z" stroke="none" fill="#3b3b3b"/>
          </g>
          <path id="Контур_33770" data-name="Контур 33770" d="M-.328-.067,28-.035V.933H0Z" transform="matrix(0.94, 0.342, -0.342, 0.94, 5.436, 17.302)" fill="#3b3b3b"/>
          <path id="Контур_33769" data-name="Контур 33769" d="M0,0,27.833.037l.026.906L.389,1Z" transform="matrix(0.94, 0.342, -0.342, 0.94, 4.436, 21.302)" fill="#3b3b3b"/>
          <path id="Контур_33772" data-name="Контур 33772" d="M0,0,27.833.037l.026.906L.389,1Z" transform="matrix(0.94, 0.342, -0.342, 0.94, 2.436, 32.302)" fill="#3b3b3b"/>
          <path id="Контур_33771" data-name="Контур 33771" d="M0,0,27.454.076,27.619,2,.384,2.07Z" transform="matrix(0.94, 0.342, -0.342, 0.94, 3.436, 26.302)" fill="#3b3b3b"/>
          <rect id="Прямоугольник_2187" data-name="Прямоугольник 2187" width="1" height="4" transform="translate(6.398 26.946) rotate(9)" fill="#ffc9c9"/>
          <rect id="Прямоугольник_2188" data-name="Прямоугольник 2188" width="1" height="5" transform="translate(10.554 27.958) rotate(9)" fill="#ffc9c9"/>
          <rect id="Прямоугольник_2189" data-name="Прямоугольник 2189" width="1" height="5" transform="translate(14.554 28.958) rotate(9)" fill="#ffc9c9"/>
          <rect id="Прямоугольник_2190" data-name="Прямоугольник 2190" width="1" height="5" transform="translate(18.554 29.958) rotate(9)" fill="#ffc9c9"/>
          <rect id="Прямоугольник_2191" data-name="Прямоугольник 2191" width="1" height="5" transform="translate(22.554 30.958) rotate(9)" fill="#ffc9c9"/>
          <rect id="Прямоугольник_2192" data-name="Прямоугольник 2192" width="1" height="5" transform="translate(26.554 32.958) rotate(9)" fill="#ffc9c9"/>
        </g>
        <path id="Контур_31439" data-name="Контур 31439" d="M1.588,17.946s12.725,2.049,18,5.8,13.82,14.758,13.82,14.758-1.932-8.516-3.15-12.07-7.932-14.343-7.932-14.343L20.539,9.984Z" transform="translate(3.91 4.279)" fill="#d8a9a9"/>
        <path id="Контур_31436" data-name="Контур 31436" d="M328.11,118.144,303,120.98s18.395,17.5,19.355,37.1" transform="translate(-285.254 -114.528)" fill="none" stroke="#3b3b3b" stroke-linecap="round" stroke-linejoin="round" stroke-width="2"/>
        <path id="Контур_31437" data-name="Контур 31437" d="M314.968,125,294,133.064a36.752,36.752,0,0,1,33.871,20.968" transform="translate(-290.771 -110.484)" fill="none" stroke="#3b3b3b" stroke-linecap="round" stroke-linejoin="round" stroke-width="2"/>
        <path id="Контур_31440" data-name="Контур 31440" d="M15.636,0,0,4.544S16.535,7.689,27.825,30.269" transform="translate(0 32.263) rotate(-30)" fill="none" stroke="#3b3b3b" stroke-linecap="round" stroke-linejoin="round" stroke-width="2"/>
      </g>
    </g>
  </g>
</svg>
