<svg xmlns="http://www.w3.org/2000/svg" width="152.535" height="87.583" viewBox="0 0 152.535 87.583">
  <g id="Сгруппировать_12117" data-name="Сгруппировать 12117" transform="translate(-894.266 -1013.416)">
    <g id="Сгруппировать_13397" data-name="Сгруппировать 13397" transform="matrix(0.899, -0.438, 0.438, 0.899, 984.506, 1031.528)">
      <path id="Контур_31441" data-name="Контур 31441" d="M-4530.866,4412.6l6.425,6.876s-6.023-.363-8.814.166a89.456,89.456,0,0,0-9.679,3.188l-4.812,1.874s3.88-5.835,6.022-7.75,8.468-5,8.468-5Z" transform="translate(4577.281 -4395.345)" fill="#b98d8d"/>
      <path id="Контур_31438" data-name="Контур 31438" d="M10.222,3.228A41.8,41.8,0,0,1,12.85,13.7c.471,5.221.567,4.642.238,12.729s.4,2.9.4,2.9,2.463-10.813,4.807-13.965S27.471,4.452,27.471,4.452" transform="translate(15.604 -0.066)" fill="#d8a9a9"/>
      <g id="Сгруппировать_12105" data-name="Сгруппировать 12105">
        <path id="Контур_31433" data-name="Контур 31433" d="M343.8,146.968h0l-19.678-1.742s3.806.291,8.794.726,10.884,1.016,10.884,1.016A51.253,51.253,0,0,0,340.228,116l-24.08,8.848s4.267,6,7.972,20.379" transform="translate(-316.148 -116)" fill="#d8a9a9" stroke="#3b3b3b" stroke-linecap="round" stroke-linejoin="round" stroke-width="2"/>
        <g id="Контур_27297" data-name="Контур 27297" transform="matrix(-0.951, 0.309, -0.309, -0.951, 17.391, 12.003)" fill="#fff" stroke-linecap="round" stroke-linejoin="round">
          <path d="M 2.814473390579224 6.549720764160156 L 2.351293325424194 5.410750865936279 L 1.682501912117004 3.766155242919922 L -0.02607663720846176 3.676920890808105 L -1.289896607398987 3.610910892486572 L -0.3222366273403168 2.79529070854187 L 0.9776849746704102 1.699607491493225 L 0.5900433659553528 0.1544008105993271 L 0.3026733696460724 -0.9910792112350464 L 1.325193405151367 -0.4001691937446594 L 2.81038498878479 0.4581258893013 L 4.29766321182251 -0.429369181394577 L 5.32477331161499 -1.042269229888916 L 5.039433479309082 0.1192808076739311 L 4.650110721588135 1.704142093658447 L 5.950203418731689 2.794520854949951 L 6.923373222351074 3.610710859298706 L 5.65497350692749 3.67694091796875 L 3.946406841278076 3.766157865524292 L 3.277633428573608 5.410750865936279 L 2.814473390579224 6.549720764160156 Z" stroke="none"/>
          <path d="M 2.814463376998901 5.222400665283203 L 3.602953433990479 3.283410787582397 L 5.628903388977051 3.177620887756348 L 4.090283393859863 1.887190818786621 L 4.553873538970947 8.094787631307554e-07 L 2.814443349838257 1.037960767745972 L 1.075013399124146 0.03274080902338028 L 1.538613319396973 1.880730867385864 L 3.363418500157422e-06 3.177600860595703 L 2.02595329284668 3.283410787582397 L 2.814463376998901 5.222400665283203 M 2.814463376998901 6.222400665283203 C 2.407653331756592 6.222400665283203 2.041383266448975 5.975950717926025 1.888133406639099 5.599100589752197 L 1.339060664176941 4.248900413513184 L -0.05215663835406303 4.176240921020508 C -0.4620466232299805 4.154830932617188 -0.8172366619110107 3.885130882263184 -0.9479366540908813 3.496040821075439 C -1.078646659851074 3.106960773468018 -0.9583166241645813 2.677510738372803 -0.6444766521453857 2.412980794906616 L 0.4167545139789581 1.518485903739929 L 0.1050733625888824 0.2760708034038544 C 0.007343363482505083 -0.1134891882538795 0.1521533578634262 -0.5237091779708862 0.4727833569049835 -0.7655791640281677 C 0.6501044631004333 -0.8993428945541382 0.862168550491333 -0.9672628045082092 1.07513165473938 -0.9672628045082092 C 1.247246146202087 -0.9672628045082092 1.419947385787964 -0.922900378704071 1.575373411178589 -0.8330792188644409 L 2.806329727172852 -0.1217070370912552 L 4.041443347930908 -0.8587291836738586 C 4.199802398681641 -0.9532251358032227 4.377051830291748 -0.9999996423721313 4.553780078887939 -0.9999996423721313 C 4.763533115386963 -0.9999996423721313 4.972561359405518 -0.9341299533843994 5.148523330688477 -0.803979218006134 C 5.472753524780273 -0.56416916847229 5.621203422546387 -0.1530791968107224 5.525003433227539 0.2385608106851578 L 5.209946155548096 1.521100282669067 L 6.271503448486328 2.411420822143555 C 6.586343288421631 2.67547082901001 6.707603454589844 3.105230808258057 6.57723331451416 3.494900703430176 C 6.446863174438477 3.884570837020874 6.09139347076416 4.154830932617188 5.681053161621094 4.176260948181152 L 4.28985595703125 4.248905658721924 L 3.740803480148315 5.599090576171875 C 3.587553262710571 5.975950717926025 3.221283435821533 6.222400665283203 2.814463376998901 6.222400665283203 Z" stroke="none" fill="#3b3b3b"/>
        </g>
        <path id="Контур_33770" data-name="Контур 33770" d="M0,.686,19.426.663V0H.225Z" transform="translate(25.316 12.388) rotate(160)" fill="#3b3b3b"/>
        <path id="Контур_33769" data-name="Контур 33769" d="M0,.686,19.086.661,19.1.039.267,0Z" transform="translate(25.806 15.252) rotate(160)" fill="#3b3b3b"/>
        <path id="Контур_33772" data-name="Контур 33772" d="M0,.686,19.086.661,19.1.039.267,0Z" transform="translate(27.178 22.795) rotate(160)" fill="#3b3b3b"/>
        <path id="Контур_33771" data-name="Контур 33771" d="M0,1.42l18.826-.052L18.939.048.263,0Z" transform="translate(26.743 19.37) rotate(160)" fill="#3b3b3b"/>
        <rect id="Прямоугольник_2187" data-name="Прямоугольник 2187" width="0.686" height="2.743" transform="translate(24.656 21.187) rotate(171)" fill="#ffc9c9"/>
        <rect id="Прямоугольник_2188" data-name="Прямоугольник 2188" width="0.686" height="3.429" transform="translate(21.913 22.558) rotate(171)" fill="#ffc9c9"/>
        <rect id="Прямоугольник_2189" data-name="Прямоугольник 2189" width="0.686" height="3.429" transform="translate(19.17 23.244) rotate(171)" fill="#ffc9c9"/>
        <rect id="Прямоугольник_2190" data-name="Прямоугольник 2190" width="0.686" height="3.429" transform="translate(16.427 23.93) rotate(171)" fill="#ffc9c9"/>
        <rect id="Прямоугольник_2191" data-name="Прямоугольник 2191" width="0.686" height="3.429" transform="translate(13.684 24.616) rotate(171)" fill="#ffc9c9"/>
        <rect id="Прямоугольник_2192" data-name="Прямоугольник 2192" width="0.686" height="3.429" transform="translate(10.941 25.987) rotate(171)" fill="#ffc9c9"/>
      </g>
      <path id="Контур_31439" data-name="Контур 31439" d="M23.406,15.444s-8.726,1.405-12.341,3.979-9.477,10.12-9.477,10.12,1.325-5.84,2.16-8.277,5.44-9.835,5.44-9.835l1.224-1.446Z" transform="translate(28.127 -0.204)" fill="#d8a9a9"/>
      <path id="Контур_31436" data-name="Контур 31436" d="M303,118.144l17.219,1.944s-12.614,12-13.272,25.438" transform="translate(-277.084 -115.664)" fill="none" stroke="#3b3b3b" stroke-linecap="round" stroke-linejoin="round" stroke-width="2"/>
      <path id="Контур_31437" data-name="Контур 31437" d="M302.848,125l14.378,5.53A25.2,25.2,0,0,0,294,144.908" transform="translate(-264.137 -115.046)" fill="none" stroke="#3b3b3b" stroke-linecap="round" stroke-linejoin="round" stroke-width="2"/>
      <path id="Контур_31440" data-name="Контур 31440" d="M10.722,20.757,0,17.641S11.338,15.484,19.081,0" transform="translate(44.925 40.099) rotate(-150)" fill="none" stroke="#3b3b3b" stroke-linecap="round" stroke-linejoin="round" stroke-width="2"/>
    </g>
    <g id="Сгруппировать_13396" data-name="Сгруппировать 13396" transform="translate(990.497 1025.377)">
      <path id="Контур_31441-2" data-name="Контур 31441" d="M-4541.32,4412.6l-6.425,6.876s6.023-.363,8.814.166a89.456,89.456,0,0,1,9.679,3.188l4.812,1.874s-3.88-5.835-6.022-7.75-8.468-5-8.468-5Z" transform="translate(4550.208 -4395.345)" fill="#b98d8d"/>
      <path id="Контур_31438-2" data-name="Контур 31438" d="M27.471,3.228A41.8,41.8,0,0,0,24.843,13.7c-.471,5.221-.567,4.642-.238,12.729s-.4,2.9-.4,2.9S21.743,18.523,19.4,15.371,10.222,4.452,10.222,4.452" transform="translate(2.006 -0.066)" fill="#edbbbb"/>
      <g id="Сгруппировать_12105-2" data-name="Сгруппировать 12105" transform="translate(26.689)">
        <path id="Контур_31433-2" data-name="Контур 31433" d="M317.111,146.968h0l19.678-1.742s-3.806.291-8.794.726-10.884,1.016-10.884,1.016A51.253,51.253,0,0,1,320.681,116l24.08,8.848s-4.267,6-7.972,20.379" transform="translate(-316.148 -116)" fill="#ffc9c9" stroke="#3b3b3b" stroke-linecap="round" stroke-linejoin="round" stroke-width="2"/>
        <g id="Контур_27297-2" data-name="Контур 27297" transform="matrix(0.951, 0.309, -0.309, 0.951, 12.837, 7.036)" fill="#fff" stroke-linecap="round" stroke-linejoin="round">
          <path d="M 5.324776172637939 6.264670372009277 L 4.297666072845459 5.651770114898682 L 2.810387849807739 4.764275074005127 L 1.325196266174316 5.622570514678955 L 0.3026762306690216 6.213480472564697 L 0.590046226978302 5.068000316619873 L 0.9776875376701355 3.522794723510742 L -0.3222437798976898 2.427110433578491 L -1.28990375995636 1.611490368843079 L -0.02608377486467361 1.545480370521545 L 1.682504773139954 1.45624566078186 L 2.351296186447144 -0.1883496642112732 L 2.814476251602173 -1.327319622039795 L 3.277636289596558 -0.1883496642112732 L 3.946409702301025 1.45624315738678 L 5.654986381530762 1.545460343360901 L 6.923386096954346 1.611690282821655 L 5.950216293334961 2.42788028717041 L 4.650114059448242 3.51826024055481 L 5.039436340332031 5.10312032699585 L 5.324776172637939 6.264670372009277 Z" stroke="none"/>
          <path d="M 2.814466238021851 4.76837158203125e-07 L 2.025956153869629 1.938990354537964 L -3.814697265625e-06 2.044800281524658 L 1.538616180419922 3.341670274734497 L 1.075016021728516 5.189660549163818 L 2.814446210861206 4.184440612792969 L 4.553876399993896 5.222400188446045 L 4.090286254882813 3.33521032333374 L 5.628916263580322 2.044780254364014 L 3.602956295013428 1.938990354537964 L 2.814466238021851 4.76837158203125e-07 M 2.814466238021851 -0.9999995231628418 C 3.221286296844482 -0.9999995231628418 3.587556123733521 -0.7535495758056641 3.740806102752686 -0.3766894340515137 L 4.289858818054199 0.9734954833984375 L 5.681066036224365 1.046140193939209 C 6.091406345367432 1.067570209503174 6.446876049041748 1.337830305099487 6.577246189117432 1.727500438690186 C 6.707616329193115 2.117170333862305 6.586356163024902 2.546930313110352 6.2715163230896 2.810980319976807 L 5.209949493408203 3.701303005218506 L 5.525006294250488 4.983840465545654 C 5.621206283569336 5.375480175018311 5.472756385803223 5.78657054901123 5.148526191711426 6.02638053894043 C 4.972583770751953 6.156516551971436 4.76351261138916 6.222400665283203 4.553782939910889 6.222400665283203 C 4.377031326293945 6.222400665283203 4.199826240539551 6.175639152526855 4.041446208953857 6.081130504608154 L 2.806332588195801 5.344108104705811 L 1.575376033782959 6.055480480194092 C 1.419971466064453 6.145289421081543 1.247225761413574 6.189663887023926 1.075134754180908 6.189663887023926 C 0.8621478080749512 6.189663887023926 0.6501269340515137 6.121758937835693 0.4727864265441895 5.987980365753174 C 0.1521563529968262 5.746110439300537 0.007346153259277344 5.335890293121338 0.1050763130187988 4.946330547332764 L 0.4167566299438477 3.703917503356934 L -0.6444835662841797 2.809420347213745 C -0.9583239555358887 2.544890403747559 -1.078653812408447 2.115450382232666 -0.9479436874389648 1.726360321044922 C -0.8172435760498047 1.337270259857178 -0.4620537757873535 1.067570209503174 -0.05216360092163086 1.046160221099854 L 1.33906364440918 0.9735007286071777 L 1.888136148452759 -0.3766994476318359 C 2.041386127471924 -0.7535495758056641 2.407656192779541 -0.9999995231628418 2.814466238021851 -0.9999995231628418 Z" stroke="none" fill="#3b3b3b"/>
        </g>
        <path id="Контур_33770-2" data-name="Контур 33770" d="M0,0,19.426.022V.686H.225Z" transform="matrix(0.94, 0.342, -0.342, 0.94, 3.532, 11.744)" fill="#3b3b3b"/>
        <path id="Контур_33769-2" data-name="Контур 33769" d="M0,0,19.086.025,19.1.647.267.686Z" transform="matrix(0.94, 0.342, -0.342, 0.94, 3.042, 14.607)" fill="#3b3b3b"/>
        <path id="Контур_33772-2" data-name="Контур 33772" d="M0,0,19.086.025,19.1.647.267.686Z" transform="matrix(0.94, 0.342, -0.342, 0.94, 1.671, 22.15)" fill="#3b3b3b"/>
        <path id="Контур_33771-2" data-name="Контур 33771" d="M0,0,18.826.052l.113,1.319L.263,1.42Z" transform="matrix(0.94, 0.342, -0.342, 0.94, 2.356, 18.036)" fill="#3b3b3b"/>
        <rect id="Прямоугольник_2187-2" data-name="Прямоугольник 2187" width="0.686" height="2.743" transform="translate(4.387 18.478) rotate(9)" fill="#ffc9c9"/>
        <rect id="Прямоугольник_2188-2" data-name="Прямоугольник 2188" width="0.686" height="3.429" transform="translate(7.238 19.172) rotate(9)" fill="#ffc9c9"/>
        <rect id="Прямоугольник_2189-2" data-name="Прямоугольник 2189" width="0.686" height="3.429" transform="translate(9.98 19.858) rotate(9)" fill="#ffc9c9"/>
        <rect id="Прямоугольник_2190-2" data-name="Прямоугольник 2190" width="0.686" height="3.429" transform="translate(12.723 20.543) rotate(9)" fill="#ffc9c9"/>
        <rect id="Прямоугольник_2191-2" data-name="Прямоугольник 2191" width="0.686" height="3.429" transform="translate(15.466 21.229) rotate(9)" fill="#ffc9c9"/>
        <rect id="Прямоугольник_2192-2" data-name="Прямоугольник 2192" width="0.686" height="3.429" transform="translate(18.209 22.601) rotate(9)" fill="#ffc9c9"/>
      </g>
      <path id="Контур_31439-2" data-name="Контур 31439" d="M1.588,15.444s8.726,1.405,12.341,3.979,9.477,10.12,9.477,10.12-1.325-5.84-2.16-8.277-5.44-9.835-5.44-9.835L14.583,9.984Z" transform="translate(2.182 -0.204)" fill="#d8a9a9"/>
      <path id="Контур_31436-2" data-name="Контур 31436" d="M320.219,118.144,303,120.089s12.614,12,13.272,25.438" transform="translate(-290.831 -115.664)" fill="none" stroke="#3b3b3b" stroke-linecap="round" stroke-linejoin="round" stroke-width="2"/>
      <path id="Контур_31437-2" data-name="Контур 31437" d="M308.378,125,294,130.53a25.2,25.2,0,0,1,23.226,14.378" transform="translate(-291.786 -115.046)" fill="none" stroke="#3b3b3b" stroke-linecap="round" stroke-linejoin="round" stroke-width="2"/>
      <path id="Контур_31440-2" data-name="Контур 31440" d="M10.722,0,0,3.116S11.339,5.272,19.081,20.757" transform="translate(0 22.124) rotate(-30)" fill="none" stroke="#3b3b3b" stroke-linecap="round" stroke-linejoin="round" stroke-width="2"/>
    </g>
    <g id="Сгруппировать_12119" data-name="Сгруппировать 12119" transform="translate(898.747 1007.879)">
      <g id="funds-coin-money_bag" data-name="funds-coin-money bag" transform="translate(0)">
        <g id="Сгруппировать_12121" data-name="Сгруппировать 12121" transform="translate(4.49 31.166)">
          <rect id="Прямоугольник_1667" data-name="Прямоугольник 1667" width="14.887" height="4.962" rx="0.5" transform="translate(14.887 16.128) rotate(180)" fill="#fec25f" stroke="#3b3b3b" stroke-linecap="round" stroke-linejoin="round" stroke-width="2"/>
          <rect id="Прямоугольник_1668" data-name="Прямоугольник 1668" width="14.887" height="5.962" rx="0.5" transform="translate(17.369 11.166) rotate(180)" fill="#fec25f" stroke="#3b3b3b" stroke-linecap="round" stroke-linejoin="round" stroke-width="2"/>
          <rect id="Прямоугольник_1669" data-name="Прямоугольник 1669" width="14.887" height="6.203" rx="0.5" transform="translate(16.128 5.203) rotate(180)" fill="#fec25f" stroke="#3b3b3b" stroke-linecap="round" stroke-linejoin="round" stroke-width="2"/>
        </g>
        <g id="Сгруппировать_12120" data-name="Сгруппировать 12120" transform="translate(21.377 25.76)">
          <rect id="Прямоугольник_1666" data-name="Прямоугольник 1666" width="16.128" height="7.444" rx="0.5" transform="translate(17.369 26.053) rotate(-180)" fill="#fec25f" stroke="#3b3b3b" stroke-linecap="round" stroke-linejoin="round" stroke-width="2"/>
          <rect id="Прямоугольник_1667-2" data-name="Прямоугольник 1667" width="14.887" height="6.203" rx="0.5" transform="translate(14.887 18.609) rotate(180)" fill="#fec25f" stroke="#3b3b3b" stroke-linecap="round" stroke-linejoin="round" stroke-width="2"/>
        </g>
      </g>
    </g>
    <g id="Прямоугольник_1663" data-name="Прямоугольник 1663" transform="translate(1018.327 1076.428) rotate(-180)" fill="#4f4f4f" stroke="#3b3b3b" stroke-width="1">
      <rect width="96.768" height="3.722" stroke="none"/>
      <rect x="0.5" y="0.5" width="95.768" height="2.722" fill="none"/>
    </g>
    <path id="Контур_31460" data-name="Контур 31460" d="M51.188,14.821H0A8.619,8.619,0,0,1,8.618,6.2S16.9,0,25.385,0,42.57,6.2,42.57,6.2a8.619,8.619,0,0,1,8.618,8.618Z" transform="translate(1042.687 1065.427) rotate(180)" fill="#ccc" stroke="#3b3b3b" stroke-miterlimit="10" stroke-width="2"/>
    <path id="Контур_31461" data-name="Контур 31461" d="M51.188,14.821H0A8.619,8.619,0,0,1,8.618,6.2S16.9,0,25.385,0,42.57,6.2,42.57,6.2a8.619,8.619,0,0,1,8.618,8.618Z" transform="translate(946.454 1065.096) rotate(180)" fill="#ccc" stroke="#3b3b3b" stroke-miterlimit="10" stroke-width="2"/>
    <g id="Многоугольник_1" data-name="Многоугольник 1" transform="translate(952.575 1061.541)" fill="#ccc">
      <path d="M 29.61877250671387 30.01531028747559 L 5.118372440338135 30.01531028747559 C 4.400802135467529 30.01531028747559 3.755772352218628 29.64570999145508 3.392922163009644 29.02663993835449 C 3.030062198638916 28.40756988525391 3.022752285003662 27.6641902923584 3.373362302780151 27.03809928894043 L 15.62356185913086 5.162739753723145 C 15.98220252990723 4.522299766540527 16.63455200195313 4.139949798583984 17.36857223510742 4.139949798583984 C 18.10259246826172 4.139949798583984 18.75494194030762 4.522299766540527 19.11358261108398 5.162739753723145 L 31.36378288269043 27.03809928894043 C 31.71439170837402 27.6641902923584 31.70708274841309 28.40756034851074 31.3442325592041 29.02663993835449 C 30.98138236999512 29.64570999145508 30.33635139465332 30.01531028747559 29.61877250671387 30.01531028747559 Z" stroke="none"/>
      <path d="M 17.36857223510742 5.139949798583984 C 17.19234275817871 5.139949798583984 16.75454139709473 5.189779281616211 16.49606132507324 5.651350021362305 L 4.24586296081543 27.52671051025391 C 3.993183135986328 27.97793006896973 4.168521881103516 28.37233924865723 4.255641937255859 28.52096939086914 C 4.342752456665039 28.66959953308105 4.601211547851563 29.01531028747559 5.118371963500977 29.01531028747559 L 29.61877250671387 29.01531028747559 C 30.13592147827148 29.01531028747559 30.39438247680664 28.66960906982422 30.48150253295898 28.52098083496094 C 30.56861114501953 28.37233924865723 30.74396133422852 27.97793006896973 30.49128341674805 27.52671051025391 L 18.2410831451416 5.651350021362305 C 17.98260307312012 5.189779281616211 17.54480171203613 5.139949798583984 17.36857223510742 5.139949798583984 M 17.36857223510742 3.139947891235352 C 18.39094924926758 3.139947891235352 19.41332626342773 3.651344299316406 19.98609161376953 4.674139022827148 L 32.23629379272461 26.54949951171875 C 33.35614395141602 28.54924011230469 31.91072273254395 31.01531028747559 29.61877250671387 31.01531028747559 L 5.118371963500977 31.01531028747559 C 2.826421737670898 31.01531028747559 1.380992889404297 28.54924011230469 2.500850677490234 26.54949951171875 L 14.75105285644531 4.674139022827148 C 15.32381629943848 3.651344299316406 16.34619522094727 3.139947891235352 17.36857223510742 3.139947891235352 Z" stroke="none" fill="#3b3b3b"/>
    </g>
    <circle id="Эллипс_186" data-name="Эллипс 186" cx="1.861" cy="1.861" r="1.861" transform="translate(968.082 1072.706)" fill="#3b3b3b" stroke="#3b3b3b" stroke-width="1"/>
    <g id="Эллипс_195" data-name="Эллипс 195" transform="translate(916.597 1070.391)" fill="#3b3b3b" stroke="#3b3b3b" stroke-width="1">
      <circle cx="4.342" cy="4.342" r="4.342" stroke="none"/>
      <circle cx="4.342" cy="4.342" r="3.842" fill="none"/>
    </g>
    <g id="Эллипс_188" data-name="Эллипс 188" transform="translate(1013.365 1070.06)" fill="#3b3b3b" stroke="#3b3b3b" stroke-width="1">
      <circle cx="4.342" cy="4.342" r="4.342" stroke="none"/>
      <circle cx="4.342" cy="4.342" r="3.842" fill="none"/>
    </g>
    <g id="Прямоугольник_1680" data-name="Прямоугольник 1680" transform="translate(919.078 1065.428)" fill="#4f4f4f" stroke="#3b3b3b" stroke-width="1">
      <rect width="3.722" height="6.203" stroke="none"/>
      <rect x="0.5" y="0.5" width="2.722" height="5.203" fill="none"/>
    </g>
    <g id="Прямоугольник_1665" data-name="Прямоугольник 1665" transform="translate(1015.846 1065.097)" fill="#4f4f4f" stroke="#3b3b3b" stroke-width="1">
      <rect width="3.722" height="6.203" stroke="none"/>
      <rect x="0.5" y="0.5" width="2.722" height="5.203" fill="none"/>
    </g>
    <path id="Контур_31462" data-name="Контур 31462" d="M421.782,339.618H383A8.619,8.619,0,0,1,391.618,331h21.546a8.619,8.619,0,0,1,8.618,8.618Z" transform="translate(567.085 760.38)" fill="#e5a876" stroke="#3b3b3b" stroke-miterlimit="10" stroke-width="2"/>
  </g>
</svg>
