<svg xmlns="http://www.w3.org/2000/svg" width="13.94" height="18.019" viewBox="0 0 13.94 18.019">
  <g id="Сгруппировать_11432" data-name="Сгруппировать 11432" transform="translate(-667.698 -270.892)">
    <path id="Контур_30253" data-name="Контур 30253" d="M674.668,279.965c-4.5,0-6.97,1.906-6.97,5.368v3.578h13.94v-3.577C681.638,281.871,679.163,279.965,674.668,279.965Zm6.219,8.2h-1.778v-3.53h-.751v3.53h-7.38v-3.53h-.752v3.53H668.45v-2.827c0-3.816,3.381-4.617,6.218-4.617s6.219.8,6.219,4.617Z" fill="#00b6e9"/>
    <path id="Контур_30254" data-name="Контур 30254" d="M674.668,279.532c2.129,0,3.673-1.817,3.673-4.32s-1.544-4.32-3.673-4.32c-2.163,0-3.673,1.776-3.673,4.32S672.505,279.532,674.668,279.532Zm0-7.889c1.721,0,2.921,1.468,2.921,3.569s-1.2,3.569-2.921,3.569-2.922-1.467-2.922-3.569S672.948,271.643,674.668,271.643Z" fill="#00b6e9"/>
  </g>
</svg>
