<svg xmlns="http://www.w3.org/2000/svg" xmlns:xlink="http://www.w3.org/1999/xlink" width="1765.93" height="1738.849" viewBox="0 0 1765.93 1738.849">
  <defs>
    <clipPath id="clip-path">
      <path id="Path_45952" data-name="Path 45952" d="M0,0,1128.585,99.911,1254.327,1323.8,125.742,1223.887Z" fill="#dddcfc"/>
    </clipPath>
  </defs>
  <g id="beanie-left" transform="matrix(0.999, -0.052, 0.052, 0.999, 435.966, -414.68)">
    <g id="Group_57473" data-name="Group 57473" transform="matrix(-0.438, -0.899, 0.899, -0.438, 59.201, 2159.587)" opacity="0.2">
      <g id="Group_57469" data-name="Group 57469" transform="translate(0 0)" clip-path="url(#clip-path)">
        <g id="Group_57468" data-name="Group 57468" transform="translate(0.002 -0.001)">
          <path id="Path_45951" data-name="Path 45951" d="M451.446,39.965q-15.651-1.386-30.836-1.79c-146.592-3.884-234.146,41.733-281.778,80.686C57.2,185.615,20.575,264.137,35.708,339.964c16.144,80.9,83.137,131.6,154.068,185.281,64.671,48.94,131.543,99.549,161.154,176.148,26.69,69.039-11.466,113.322-51.86,160.212-40,46.425-81.358,94.431-62.644,170.636,19.872,80.928,94.943,168.056,174.618,202.67,58.082,25.233,135.25,30.865,223.166,16.311,86.715-14.358,175.942-46.918,258.023-94.166,220.926-127.151,329.294-320.721,289.883-517.8-28.586-142.94-135.554-293.651-293.484-413.5C749.438,120.134,588.481,52.1,451.446,39.965" transform="translate(0 0)" fill="#dddcfc"/>
        </g>
      </g>
    </g>
    <g id="Group_58624" data-name="Group 58624" transform="matrix(0.616, 0.788, -0.788, 0.616, 424.291, 785.777)">
      <g id="Group_58455" data-name="Group 58455" transform="translate(8.197 67.953) rotate(-16)">
        <path id="Path_47296" data-name="Path 47296" d="M22.018,186.922c6.188-5.327,11.424-15.1,15.657-22.515,36.223-64,101.817-94.052,171.87-108.72,10.553-2.207,21.963-3.941,30.6-9.966,7.878-5.62,7.239-16.588-5.756-17.766-10.551-.887-20.835,2.714-30.313,5.3C129.227,54.4,47.983,89.4,21.591,171.648,20.14,176.178,18.711,181.949,22.018,186.922Z" transform="translate(0 0)" fill="#fff"/>
      </g>
    </g>
    <g id="Group_58625" data-name="Group 58625" transform="translate(-191.781 1648.031) rotate(-36)">
      <path id="Path_47296-2" data-name="Path 47296" d="M-19.315,186.6c7.548-6.964,15.116-18.263,21.126-26.9C53.355,85.235,127.443,38.529,202.66,6.54c11.33-4.816,23.434-9.354,33.654-17.627,9.349-7.674,11.153-18.781-1.926-16.85-10.634,1.639-22,7.821-32.311,12.764-81.595,39.8-172.859,95.365-218.4,186.194C-18.834,176.023-21.6,182.293-19.315,186.6Z" transform="translate(0 0)" fill="#fff"/>
    </g>
  </g>
</svg>
