<svg xmlns="http://www.w3.org/2000/svg" width="110.512" height="404.482" viewBox="0 0 110.512 404.482">
  <g id="Group_60250" data-name="Group 60250" transform="translate(-1701.75 -1404.488)">
    <path id="Path_47302" data-name="Path 47302" d="M7.028,25.59a8.015,8.015,0,0,0,2.133-.4c.853,2,1.92,3.8,2.773,5.806A11.905,11.905,0,0,0,9.374,37c0,2.8.853,7.808,3.626,9.61,2.986,2,5.972-.8,5.759-3.8,0-1.8-1.066-3.6-1.92-5.206A59.985,59.985,0,0,1,13.853,31.2c1.28-1.4,2.773-2.8,3.839-4.2a10.114,10.114,0,0,0,1.493-7.808c-1.493-5.806-7.892-8.209-13.224-5.205-.213,0-.213.2-.427.2-.853-1.6-1.706-3.2-2.56-5.005-1.066-2-2.133-4.805.213-6.607,1.493-1,3.839-1.4,5.332-.2H8.094a2.864,2.864,0,0,0-1.28.2c-1.493.8-2.346,3-1.28,4.4,1.493,1.6,4.266.8,5.119-.8C13,1.765,7.241-1.038,3.4.363c-6.612,2.6-1.92,9.61.213,13.614.213.2.213.6.427.8-1.706,1.6-2.986,3.8-2.56,6.207C2.122,23.788,4.255,25.79,7.028,25.59Zm7.252,9.81c.853,1.8,1.706,3.4,2.56,5.205a4.958,4.958,0,0,1,.427,3,2.079,2.079,0,0,1-3.626,1c-1.067-1.2-1.706-3.4-2.133-5.005A8.493,8.493,0,0,1,11.933,34c.213-.6.64-1,.853-1.6A19.656,19.656,0,0,1,14.279,35.4Zm1.066-20.021c4.053,3.4,2.773,8.809-.427,12.213-.64.6-1.067,1.2-1.706,1.8-.853-1.6-1.706-3.4-2.56-5.005a5.584,5.584,0,0,0,2.986-4.2,4,4,0,0,0-4.906-4.2c-1.066.2-.853,1.8.213,1.6a2.2,2.2,0,0,1,2.773,2.6,3.538,3.538,0,0,1-1.92,2.6c-1.066-2-1.92-4-2.986-6.006a9.445,9.445,0,0,1-.64-1.4C8.947,13.778,12.786,13.377,15.346,15.379ZM3.4,20.385a5.309,5.309,0,0,1,1.706-3.8c1.28,2.4,2.346,4.6,3.413,7.007C5.961,24.188,3.4,23.388,3.4,20.385Z" transform="translate(1811.437 1452.107) rotate(-179)" fill="#a2a3f9" opacity="0.4"/>
    <path id="Path_47303" data-name="Path 47303" d="M31.027,5.019,17.373.705C16.9.545,16.275.226,15.8.066a.3.3,0,0,0-.471.16.156.156,0,0,1-.157.16c-2.2,4.473-4.081,9.107-5.807,13.74-2.04-1.278-4.238-2.556-6.592-2.077-1.726.32-3.453,1.917-2.511,3.675a5.05,5.05,0,0,0,3.3,2.4,6.066,6.066,0,0,0,2.2.479C7.8,19.078,9.369,17,10,15.244v-.16h0c1.256-3.036,2.2-6.231,3.767-8.947.157,0,.314,0,.314-.16,3.61,1.278,7.219,2.716,10.986,3.994.157.16.314.16.628.16.628.16,1.1.479,1.726.639a25.676,25.676,0,0,1-1.1,3.2c-.628,1.6-1.256,3.355-2.04,4.953-.314-.32-.471-.639-.785-.959a6.332,6.332,0,0,0-1.412-.8,10.1,10.1,0,0,0-3.767-.959,2.979,2.979,0,0,0-2.2,1.118,2.138,2.138,0,0,0-.942,1.118v.16a2.807,2.807,0,0,0-.157,1.6,3.654,3.654,0,0,0,1.1,1.6,5.418,5.418,0,0,0,3.767,1.278h1.1c1.412,0,2.668-1.278,3.3-2.716v-.639a29.436,29.436,0,0,0,2.2-5.113c.628-1.6,1.256-3.355,1.726-4.953.942-1.438,1.726-2.716,2.668-4.154C31.341,5.5,31.341,5.179,31.027,5.019ZM27.418,6.3Zm.314,3.675Z" transform="translate(1756.522 1569.007) rotate(28)" fill="#a2a3f9" opacity="0.4"/>
    <path id="Path_47304" data-name="Path 47304" d="M6.319,33.249c1.361,1.84,4.048,2.777,5.754,3.572,2.923,1.519,5.706,3.2,7.563,6.389.024.186.024.186.212.4.26.768,1.356.562.932-.23-.024-.186-.024-.186-.212-.4l-.024-.186c-.447-.977-.756-2.117-1.2-3.094l-.024-.186a31.1,31.1,0,0,1-1.251-3.466l-.78-2.3c-2.243-6.164-4.322-12.3-6.377-18.259,3.764,1.824,7.916,1.7,10.471-.851,2.277-2.224,2.63-6.916-.534-10.295-2.976-3.169-7.335-2.16-9.52-.47C9.28,5.4,6.639,9.759,9.173,13.229c2.055,5.954,4.134,12.095,6.353,18.073-3.4,2.244-8.805-2.373-8.174-7.39a.724.724,0,0,0-1.053-.7C3.95,24.877,3.972,29.989,6.319,33.249Z" transform="matrix(-0.966, -0.259, 0.259, -0.966, 1723.525, 1812.349)" fill="#a2a3f9" opacity="0.4"/>
    <g id="Group_58464" data-name="Group 58464" transform="translate(1759.846 1722.158) rotate(-79)" opacity="0.4">
      <path id="Path_47309" data-name="Path 47309" d="M2.343,2.4C21.53,15.817,42.767,25.427,64.3,28.23c1.758.2,3.515.4,5.126-.6,5.566-3.6.293-11.012-3.222-12.813-10.4-5.406-21.237-1.4-32.075-2C21.823,12.413,10.838,7.007,0,0,.879.8,1.611,1.6,2.343,2.4Z" transform="translate(0 0)" fill="#a2a3f9"/>
    </g>
  </g>
</svg>
