<svg xmlns="http://www.w3.org/2000/svg" xmlns:xlink="http://www.w3.org/1999/xlink" width="215.7" height="41.6" viewBox="0 0 215.7 41.6">
  <defs>
    <linearGradient id="linear-gradient" x1="-2.381" y1="0.5" x2="16.571" y2="0.5" gradientUnits="objectBoundingBox">
      <stop offset="0" stop-color="#3509a4"/>
      <stop offset="0.56" stop-color="#4a80bf"/>
      <stop offset="1" stop-color="#5ad7d3"/>
    </linearGradient>
    <linearGradient id="linear-gradient-2" x1="-2.325" y1="0.5" x2="10.368" y2="0.5" xlink:href="#linear-gradient"/>
    <linearGradient id="linear-gradient-3" x1="-4.208" y1="0.497" x2="11.21" y2="0.497" xlink:href="#linear-gradient"/>
    <linearGradient id="linear-gradient-4" x1="-6.401" y1="0.499" x2="11.554" y2="0.499" xlink:href="#linear-gradient"/>
    <linearGradient id="linear-gradient-5" x1="-8.089" y1="0.5" x2="10.732" y2="0.5" xlink:href="#linear-gradient"/>
    <linearGradient id="linear-gradient-6" x1="-10.079" y1="0.499" x2="9.697" y2="0.499" xlink:href="#linear-gradient"/>
    <linearGradient id="linear-gradient-7" x1="-9.493" y1="0.499" x2="6.947" y2="0.499" xlink:href="#linear-gradient"/>
    <linearGradient id="linear-gradient-8" x1="-11.012" y1="0.5" x2="5.629" y2="0.5" xlink:href="#linear-gradient"/>
    <linearGradient id="linear-gradient-9" x1="-78.111" y1="0.499" x2="26.854" y2="0.499" xlink:href="#linear-gradient"/>
    <linearGradient id="linear-gradient-10" x1="-12.807" y1="0.499" x2="3.634" y2="0.499" xlink:href="#linear-gradient"/>
    <linearGradient id="linear-gradient-11" x1="-17.115" y1="0.499" x2="2.661" y2="0.499" xlink:href="#linear-gradient"/>
  </defs>
  <g id="Logo_-_Color" data-name="Logo - Color" transform="translate(107.85 20.8)">
    <g id="Logo_-_Color-2" data-name="Logo - Color" transform="translate(-107.85 -20.8)">
      <g id="Group_1" data-name="Group 1" transform="translate(0 0.2)">
        <path id="Path_4" data-name="Path 4" d="M14.4,41.2H0V.3H5.7V35.8h8.7Z" transform="translate(0 -0.2)" fill="url(#linear-gradient)"/>
        <path id="Path_5" data-name="Path 5" d="M30.1,33.2H22.8l-1.4,8H15.7L23.5.2h6l7.7,41H31.4Zm-6.6-4.9h5.9l-2.9-18Z" transform="translate(0 -0.2)" fill="url(#linear-gradient-2)"/>
        <path id="Path_6" data-name="Path 6" d="M40.2.3h8.4c5.3,0,9,2.7,9,8v6.1c0,3.3-1.1,5.1-3.1,6,2.1.9,3.4,2.5,3.4,6.2v7c0,5.3-3.7,7.8-9.1,7.8H40.2Zm8.4,17.9c1.9,0,3.4-.5,3.4-3.5V9.3c0-3-1.4-3.6-3.7-3.6H45.9V18.2Zm.1,17.7c2,0,3.6-.5,3.6-3.5V26c0-2.8-1.5-3.4-3.4-3.4h-3V35.8Z" transform="translate(0 -0.2)" fill="url(#linear-gradient-3)"/>
        <path id="Path_7" data-name="Path 7" d="M78.2,5.7H68.6V17.9h7.2v5H68.6V35.8h9.6v5.5H63V.3H78.2Z" transform="translate(0 -0.2)" fill="url(#linear-gradient-4)"/>
        <path id="Path_8" data-name="Path 8" d="M97.5,41.2H83V.3h5.7V35.8h8.7Z" transform="translate(0 -0.2)" fill="url(#linear-gradient-5)"/>
      </g>
      <g id="Group_2" data-name="Group 2" transform="translate(104.8)">
        <path id="Path_9" data-name="Path 9" d="M107.4,38.7h11.2v2.6H104.8V.3h13.8V2.8H107.4V19.2h8v2.4h-8Z" transform="translate(-104.8)" fill="url(#linear-gradient-6)"/>
        <path id="Path_10" data-name="Path 10" d="M137.6,41.2,125.9,8.1V41.2h-2.6V.3h2.3l11.7,33.5V.3h2.6v41Z" transform="translate(-104.8)" fill="url(#linear-gradient-7)"/>
        <path id="Path_11" data-name="Path 11" d="M148.9,33.1c0,3.7,2.4,5.9,5.6,5.9s5.6-2.2,5.6-5.9V25.3h-5.8V22.9h8.4V33.1c0,5.1-3.4,8.5-8.2,8.5s-8.2-3.5-8.2-8.5V8.6c0-5.1,3.4-8.6,8.2-8.6s8.2,3.5,8.2,8.6h-2.6c0-3.7-2.4-6-5.6-6s-5.6,2.2-5.6,5.9Z" transform="translate(-104.8)" fill="url(#linear-gradient-8)"/>
        <path id="Path_12" data-name="Path 12" d="M171.4.3v41h-2.6V.3Z" transform="translate(-104.8)" fill="url(#linear-gradient-9)"/>
        <path id="Path_13" data-name="Path 13" d="M192.5,41.2,180.9,8.1V41.2h-2.6V.3h2.3l11.7,33.5V.3h2.6v41Z" transform="translate(-104.8)" fill="url(#linear-gradient-10)"/>
        <path id="Path_14" data-name="Path 14" d="M204.5,38.7h11.2v2.6H201.9V.3h13.8V2.8H204.5V19.2h8v2.4h-8Z" transform="translate(-104.8)" fill="url(#linear-gradient-11)"/>
      </g>
    </g>
  </g>
</svg>
