<svg xmlns="http://www.w3.org/2000/svg" width="20" height="20" viewBox="0 0 20 20"><g><g><path fill="#fff" d="M15.171 10a5.167 5.167 0 0 1-5.158 5.172 5.167 5.167 0 0 1-5.164-5.165A5.167 5.167 0 0 1 10 4.827 5.179 5.179 0 0 1 15.171 10zm-2.01.002c0-1.745-1.41-3.16-3.152-3.161a3.157 3.157 0 0 0-3.156 3.156A3.157 3.157 0 0 0 10 13.162a3.16 3.16 0 0 0 3.16-3.16zm3.26-5.136a1.238 1.238 0 1 1-2.115.882 1.244 1.244 0 0 1 .875-2.122 1.237 1.237 0 0 1 1.24 1.24zM20 5.958v8.084c-.007 3.293-2.673 5.959-5.96 5.958H5.958C2.672 20 .007 17.334 0 14.042V5.958C.007 2.666 2.672.001 5.957 0h8.084C17.326 0 19.992 2.665 20 5.958zm-2.013 0a3.955 3.955 0 0 0-1.158-2.792 3.937 3.937 0 0 0-2.788-1.154H5.957a3.937 3.937 0 0 0-2.789 1.154 3.955 3.955 0 0 0-1.157 2.792v8.084a3.955 3.955 0 0 0 1.157 2.792 3.937 3.937 0 0 0 2.789 1.154h8.084a3.937 3.937 0 0 0 2.788-1.154 3.955 3.955 0 0 0 1.158-2.792z"/></g></g></svg>