<svg xmlns="http://www.w3.org/2000/svg" width="27" height="24" viewBox="0 0 27 24"><defs><clipPath id="438da"><path d="M0 0h27v24H0z"/></clipPath></defs><g><g><g/><g clip-path="url(#438da)" opacity=".2"><path d="M24.186 11.717L13.491 22.488 2.819 11.698A6.265 6.265 0 0 1 1 7.264c0-1.676.64-3.25 1.813-4.43A6.12 6.12 0 0 1 7.188 1c1.658 0 3.22.654 4.394 1.84l1.352 1.367a.8.8 0 0 0 1.144 0l1.34-1.355a6.138 6.138 0 0 1 4.387-1.84c1.652 0 3.208.654 4.381 1.834A6.26 6.26 0 0 1 26 7.28a6.235 6.235 0 0 1-1.814 4.436z"/></g><g clip-path="url(#438da)"><path fill="#fff" d="M23.71 11.818L13.487 22.119 3.285 11.8a5.993 5.993 0 0 1-1.74-4.242c0-1.603.613-3.108 1.734-4.236a5.849 5.849 0 0 1 4.183-1.754 5.87 5.87 0 0 1 4.2 1.76l1.292 1.307a.764.764 0 0 0 1.093 0L15.33 3.34a5.866 5.866 0 0 1 4.194-1.76c1.579 0 3.067.626 4.188 1.754a5.988 5.988 0 0 1 1.734 4.242 5.964 5.964 0 0 1-1.734 4.243zm1.11-9.59a7.37 7.37 0 0 0-5.284-2.21 7.39 7.39 0 0 0-5.289 2.216l-.738.746-.75-.758A7.408 7.408 0 0 0 7.464 0c-1.992 0-3.87.787-5.277 2.21A7.526 7.526 0 0 0 0 7.559c0 2.02.784 3.912 2.198 5.342l10.75 10.868c.148.15.349.232.543.232a.768.768 0 0 0 .544-.226l10.773-10.85A7.554 7.554 0 0 0 27 7.574a7.518 7.518 0 0 0-2.18-5.347z"/></g></g></g></svg>