<svg xmlns="http://www.w3.org/2000/svg" width="13" height="18" viewBox="0 0 13 18"><defs><clipPath id="zrjza"><path fill="#fff" d="M10.884 1.984C9.68.86 8.078.241 6.376.241 4.672.24 3.072.86 1.868 1.984c-2.229 2.081-2.506 5.996-.6 8.368l5.108 6.889 5.1-6.88c1.913-2.38 1.636-6.296-.592-8.377z"/></clipPath><clipPath id="zrjzb"><path fill="#fff" d="M6.378 3.43A3.192 3.192 0 0 0 3.19 6.619a3.192 3.192 0 0 0 3.188 3.188 3.192 3.192 0 0 0 3.187-3.188 3.192 3.192 0 0 0-3.187-3.187z"/></clipPath></defs><g><g><g><path fill="none" stroke="#2ab2b8" stroke-miterlimit="50" stroke-width="2" d="M10.884 1.984C9.68.86 8.078.241 6.376.241 4.672.24 3.072.86 1.868 1.984c-2.229 2.081-2.506 5.996-.6 8.368l5.108 6.889v0l5.1-6.88c1.913-2.38 1.636-6.296-.592-8.377z" clip-path="url(&quot;#zrjza&quot;)"/></g><g><path fill="none" stroke="#2ab2b8" stroke-miterlimit="50" stroke-width="2" d="M6.378 3.43A3.192 3.192 0 0 0 3.19 6.619a3.192 3.192 0 0 0 3.188 3.188 3.192 3.192 0 0 0 3.187-3.188 3.192 3.192 0 0 0-3.187-3.187z" clip-path="url(&quot;#zrjzb&quot;)"/></g></g></g></svg>