<svg class="sprite-icons" xmlns="http://www.w3.org/2000/svg">

	<symbol id="search-icon">
		<!-- width="17" height="17" viewBox="0 0 17 17" -->
		<g>
			<path fill="none" stroke="silver" stroke-miterlimit="50" stroke-width="4" d="M7 14A7 7 0 1 0 7 0a7 7 0 0 0 0 14z" clip-path="url(&quot;#cj71a&quot;)"/>
		</g>
		<g>
			<path fill="none" stroke="silver" stroke-linecap="square" stroke-miterlimit="50" stroke-width="2" d="M15 15l-3-3"/>
		</g>
	</symbol>

	<symbol id="like-icon">
		<!-- width="13" height="18" viewBox="0 0 13 18" -->
		<g>
			<g>
				<g class="like-fill1">
					<path  d="M24.186 11.717L13.491 22.488 2.819 11.698A6.265 6.265 0 0 1 1 7.264c0-1.676.64-3.25 1.813-4.43A6.12 6.12 0 0 1 7.188 1c1.658 0 3.22.654 4.394 1.84l1.352 1.367a.8.8 0 0 0 1.144 0l1.34-1.355a6.138 6.138 0 0 1 4.387-1.84c1.652 0 3.208.654 4.381 1.834A6.26 6.26 0 0 1 26 7.28a6.235 6.235 0 0 1-1.814 4.436z"/>
				</g>
				<g>
					<path fill="#fff" d="M23.71 11.818L13.487 22.119 3.285 11.8a5.993 5.993 0 0 1-1.74-4.242c0-1.603.613-3.108 1.734-4.236a5.849 5.849 0 0 1 4.183-1.754 5.87 5.87 0 0 1 4.2 1.76l1.292 1.307a.764.764 0 0 0 1.093 0L15.33 3.34a5.866 5.866 0 0 1 4.194-1.76c1.579 0 3.067.626 4.188 1.754a5.988 5.988 0 0 1 1.734 4.242 5.964 5.964 0 0 1-1.734 4.243zm1.11-9.59a7.37 7.37 0 0 0-5.284-2.21 7.39 7.39 0 0 0-5.289 2.216l-.738.746-.75-.758A7.408 7.408 0 0 0 7.464 0c-1.992 0-3.87.787-5.277 2.21A7.526 7.526 0 0 0 0 7.559c0 2.02.784 3.912 2.198 5.342l10.75 10.868c.148.15.349.232.543.232a.768.768 0 0 0 .544-.226l10.773-10.85A7.554 7.554 0 0 0 27 7.574a7.518 7.518 0 0 0-2.18-5.347z"/>
				</g>
			</g>
		</g>
	</symbol>

	<symbol id="icon-facebook">
		<!-- width="20" height="20" viewBox="0 0 20 20" -->
		<g><g><path d="M19.158 0H.842A.842.842 0 0 0 0 .842v18.316c0 .463.368.842.842.842h9.79v-7.505H8.126V9.368h2.506V6.863c0-2.579 1.631-3.852 3.936-3.852 1.106 0 2.053.084 2.316.115v2.706h-1.579c-1.263 0-1.558.6-1.558 1.473v2.063h3.127l-.632 3.127h-2.495l.053 7.494h5.368a.842.842 0 0 0 .832-.842V.842a.842.842 0 0 0-.842-.831"/></g></g>
	</symbol>

	<symbol id="icon-twitter">
		<!-- width="23" height="19" viewBox="0 0 23 19" -->
		<g><g><path d="M19.41 1.548A4.632 4.632 0 0 0 15.966 0c-2.61 0-4.727 2.15-4.727 4.803 0 .371.042.742.084 1.113A13.394 13.394 0 0 1 1.618.86a5.472 5.472 0 0 0-.679 2.396c.032 1.696.866 3.17 2.108 4.018A4.434 4.434 0 0 1 .94 6.67v.085C.947 9.036 2.528 11 4.727 11.46c-.417.085-.835.138-1.262.17l-.846-.085c.615 1.946 2.373 3.285 4.383 3.34a9.875 9.875 0 0 1-5.906 2.057L0 16.858A13.319 13.319 0 0 0 7.242 19c8.662 0 13.42-7.316 13.4-13.624.02-.255 0-.456 0-.69A9.14 9.14 0 0 0 23 2.206a8.645 8.645 0 0 1-2.713.763A4.623 4.623 0 0 0 22.322.307c-.877.562-1.89.955-2.954 1.199z"/></g></g>
	</symbol>

	<symbol id="icon-inst">
		<!-- width="20" height="20" viewBox="0 0 20 20" -->
		<g><g><path d="M15.171 10a5.167 5.167 0 0 1-5.158 5.172 5.167 5.167 0 0 1-5.164-5.165A5.167 5.167 0 0 1 10 4.827 5.179 5.179 0 0 1 15.171 10zm-2.01.002c0-1.745-1.41-3.16-3.152-3.161a3.157 3.157 0 0 0-3.156 3.156A3.157 3.157 0 0 0 10 13.162a3.16 3.16 0 0 0 3.16-3.16zm3.26-5.136a1.238 1.238 0 1 1-2.115.882 1.244 1.244 0 0 1 .875-2.122 1.237 1.237 0 0 1 1.24 1.24zM20 5.958v8.084c-.007 3.293-2.673 5.959-5.96 5.958H5.958C2.672 20 .007 17.334 0 14.042V5.958C.007 2.666 2.672.001 5.957 0h8.084C17.326 0 19.992 2.665 20 5.958zm-2.013 0a3.955 3.955 0 0 0-1.158-2.792 3.937 3.937 0 0 0-2.788-1.154H5.957a3.937 3.937 0 0 0-2.789 1.154 3.955 3.955 0 0 0-1.157 2.792v8.084a3.955 3.955 0 0 0 1.157 2.792 3.937 3.937 0 0 0 2.789 1.154h8.084a3.937 3.937 0 0 0 2.788-1.154 3.955 3.955 0 0 0 1.158-2.792z"/></g></g>
	</symbol>

	<symbol id="icon-like">
		<!-- width="20" height="18" viewBox="0 0 20 18" -->
		<g><g><path stroke-linejoin="round" stroke-miterlimit="50" stroke-width="1.89" d="M19 5.444C19 2.99 16.985 1 14.5 1c-1.95 0-3.87 1.244-4.5 2.963C9.37 2.215 7.45 1 5.5 1 3.06 1 1.065 2.918 1 5.326v.118c0 .453.072.902.21 1.334C2.23 10.54 6.82 14.363 10 17c3.18-2.607 7.74-6.726 8.76-10.193a4.34 4.34 0 0 0 .15-.622v-.089c.035-.205.055-.413.06-.622z"/></g></g>
	</symbol>

	<symbol id="icon-checked">
		<!-- width="17" height="16" viewBox="0 0 17 16" -->
		<g><g><path d="M1.555 7.094L0 8.434l6.144 7.206a1.02 1.02 0 0 0 1.64-.113L17 1.113 15.277 0 6.804 13.25z"/></g></g>
	</symbol>

	<symbol id="icon-arrowb">
		<!-- width="320" height="512" viewBox="0 0 320 512" -->
		<path data-v-6569c4d3="" fill="currentColor" d="M143 352.3L7 216.3c-9.4-9.4-9.4-24.6 0-33.9l22.6-22.6c9.4-9.4 24.6-9.4 33.9 0l96.4 96.4 96.4-96.4c9.4-9.4 24.6-9.4 33.9 0l22.6 22.6c9.4 9.4 9.4 24.6 0 33.9l-136 136c-9.2 9.4-24.4 9.4-33.8 0z" class=""></path>
	</symbol>

</svg>