<svg xmlns="http://www.w3.org/2000/svg" width="23" height="19" viewBox="0 0 23 19"><g><g><path fill="#a7abb0" d="M19.41 1.548A4.632 4.632 0 0 0 15.966 0c-2.61 0-4.727 2.15-4.727 4.803 0 .371.042.742.084 1.113A13.394 13.394 0 0 1 1.618.86a5.472 5.472 0 0 0-.679 2.396c.032 1.696.866 3.17 2.108 4.018A4.434 4.434 0 0 1 .94 6.67v.085C.947 9.036 2.528 11 4.727 11.46c-.417.085-.835.138-1.262.17l-.846-.085c.615 1.946 2.373 3.285 4.383 3.34a9.875 9.875 0 0 1-5.906 2.057L0 16.858A13.319 13.319 0 0 0 7.242 19c8.662 0 13.42-7.316 13.4-13.624.02-.255 0-.456 0-.69A9.14 9.14 0 0 0 23 2.206a8.645 8.645 0 0 1-2.713.763A4.623 4.623 0 0 0 22.322.307c-.877.562-1.89.955-2.954 1.199z"/></g></g></svg>