<svg width="10" height="10" viewBox="0 0 10 10" fill="none" xmlns="http://www.w3.org/2000/svg">
<path d="M10 3.85542L7.10317 3.81526L8.57143 1.28514L6.50794 0.0401606L5.03968 2.57028L3.61111 0L1.50794 1.20482L2.93651 3.7751L0.0396825 3.73494L0 6.14458L2.89683 6.18474L1.42857 8.71486L3.49206 9.95984L4.96032 7.42972L6.38889 10L8.49206 8.79518L7.06349 6.2249L9.96032 6.26506L10 3.85542ZM5 6.34538C4.72222 6.34538 4.48413 6.26506 4.24603 6.10442C3.88889 5.86345 3.65079 5.46185 3.65079 4.97992C3.65079 4.93976 3.65079 4.8996 3.65079 4.8996C3.69048 4.41767 3.96825 3.9759 4.40476 3.7751C4.60317 3.69478 4.80159 3.61446 5 3.61446C5.2381 3.61446 5.43651 3.69478 5.63492 3.7751C6.07143 4.01606 6.34921 4.45783 6.34921 4.97992C6.34921 5.50201 6.03175 5.98394 5.59524 6.18474C5.43651 6.30522 5.19841 6.34538 5 6.34538Z" fill="white"/>
</svg>
