<svg width="40" height="36" viewBox="0 0 40 36" fill="none" xmlns="http://www.w3.org/2000/svg">
<path d="M26 18C29.4 18 32 15.4 32 12C32 8.6 29.4 6 26 6C22.6 6 20 8.6 20 12C20 15.4 22.6 18 26 18ZM26 10C27.2 10 28 10.8 28 12C28 13.2 27.2 14 26 14C24.8 14 24 13.2 24 12C24 10.8 24.8 10 26 10Z" fill="#F0F0F0"/>
<path d="M26 20C24.8 20 23.8 20.2 22.6 20.4C20.6 16.4 16.6 14 12 14C5.4 14 0 19.4 0 26V28H13.4C12.4 29.8 12 31.8 12 34V36H40V34C40 26.2 33.8 20 26 20ZM12 18C14.8 18 17.4 19.6 18.8 22C17.8 22.6 17 23.2 16.2 24H4.2C5.2 20.6 8.2 18 12 18ZM16.2 32C17.2 27.4 21.2 24 26 24C30.8 24 34.8 27.4 35.8 32H16.2Z" fill="#F0F0F0"/>
<path d="M12 12C15.4 12 18 9.4 18 6C18 2.6 15.4 0 12 0C8.6 0 6 2.6 6 6C6 9.4 8.6 12 12 12ZM12 4C13.2 4 14 4.8 14 6C14 7.2 13.2 8 12 8C10.8 8 10 7.2 10 6C10 4.8 10.8 4 12 4Z" fill="#F0F0F0"/>
</svg>
