<?xml version="1.0" encoding="iso-8859-1"?>
<!-- Generator: Adobe Illustrator 19.0.0, SVG Export Plug-In . SVG Version: 6.00 Build 0)  -->
<svg version="1.1" id="Layer_1" xmlns="http://www.w3.org/2000/svg" xmlns:xlink="http://www.w3.org/1999/xlink" x="0px" y="0px"
	 viewBox="0 0 502 502" style="enable-background:new 0 0 502 502;" xml:space="preserve">
<g>
	
		<rect x="39.753" y="101.223" transform="matrix(-0.7071 -0.7071 0.7071 -0.7071 216.5212 327.0875)" style="fill:#CCCCCC;" width="272.498" height="34.956"/>
	<g>
		<path style="fill:#C69C6D;" d="M324.591,242.574l-39.886-39.886l-25.841,25.841c-10.859,10.859-10.859,28.465,0,39.324
			l20.224,20.224l87.342,87.342l34.563-56.444L324.591,242.574z"/>
		<path style="fill:#4D4D4D;" d="M421.216,378.522c8.427-17.415,10.859-28.465,0-39.324l13.483-13.483l-20.224-20.224
			l-13.483,13.483l-34.563,56.444l-43.523,71.078L368.409,492L421.216,378.522z"/>
	</g>
	<g>
		<path d="M441.77,318.645l-20.224-20.224c-1.876-1.875-4.419-2.929-7.071-2.929s-5.195,1.054-7.071,2.929l-6.411,6.411
			L291.776,195.616L99.089,2.929c-3.906-3.905-10.236-3.905-14.143,0L60.229,27.647c-3.905,3.905-3.905,10.237,0,14.142
			l186.285,186.286c-3.767,5.969-5.794,12.885-5.794,20.117c0,10.099,3.933,19.593,11.073,26.733l75.457,75.457
			c-4.64,6.48-6.964,13.142-6.902,19.89c0.127,13.997,10.208,24.229,18.037,31.797l-24.007,39.206
			c-2.414,3.942-1.812,9.025,1.457,12.293l45.503,45.503c1.892,1.892,4.442,2.929,7.071,2.929c0.578,0,1.16-0.05,1.74-0.153
			c3.214-0.568,5.949-2.669,7.326-5.628l52.773-113.408c6.76-13.979,12.394-28.652,4.241-42.746l7.279-7.279
			C445.675,328.882,445.675,322.551,441.77,318.645z M92.018,24.142l178.546,178.545l-10.576,10.576L81.442,34.718L92.018,24.142z
			 M260.72,248.191c0-1.772,0.259-3.505,0.756-5.156l38.629,38.63c1.953,1.953,4.512,2.929,7.071,2.929
			c2.559,0,5.118-0.977,7.071-2.929c3.905-3.905,3.905-10.237,0-14.142l-40.117-40.118l10.575-10.576l32.814,32.815l70.829,70.828
			l-23.821,38.901l-98.592-98.592C262.572,257.419,260.72,252.948,260.72,248.191z M340.347,370.09
			c-0.015-1.62,0.473-3.364,1.404-5.208l12.035,12.035l-4.677,7.637C344.484,379.858,340.39,374.856,340.347,370.09z
			 M414.145,346.27c5.3,5.299,6.837,9.779-1.931,27.896c-0.021,0.045-0.043,0.091-0.064,0.137l-46.776,100.519l-29.823-29.824
			l39.406-64.354c0.001-0.001,0.001-0.002,0.002-0.003l33.944-55.434l5.573-5.573l6.082,6.082l-6.412,6.411
			c-1.875,1.875-2.929,4.419-2.929,7.071C411.216,341.851,412.27,344.394,414.145,346.27z"/>
		<path d="M346.83,300.107l-12.358-12.359c-3.904-3.905-10.234-3.905-14.143,0c-3.905,3.905-3.905,10.237,0,14.142l12.358,12.359
			c1.953,1.953,4.512,2.929,7.071,2.929c2.559,0,5.118-0.977,7.071-2.929C350.735,310.344,350.735,304.012,346.83,300.107z"/>
	</g>
</g>
<g>
</g>
<g>
</g>
<g>
</g>
<g>
</g>
<g>
</g>
<g>
</g>
<g>
</g>
<g>
</g>
<g>
</g>
<g>
</g>
<g>
</g>
<g>
</g>
<g>
</g>
<g>
</g>
<g>
</g>
</svg>
