<?xml version="1.0"?>
<svg xmlns="http://www.w3.org/2000/svg" xmlns:xlink="http://www.w3.org/1999/xlink" version="1.1" id="Capa_1" x="0px" y="0px" viewBox="0 0 511.184 511.184" style="enable-background:new 0 0 511.184 511.184;" xml:space="preserve" width="512px" height="512px" class=""><g><g>
	
		<rect x="269.251" y="137.717" transform="matrix(-0.7071 0.7071 -0.7071 -0.7071 630.8472 30.1016)" style="fill:#7C5959" width="79.877" height="15.973" data-original="#965353" class="active-path" data-old_color="#7E5959"/>
	<polygon style="fill:#7C5959" points="213.172,332.096 207.524,337.742 235.823,399.819 213.172,411.168 190.578,365.988    173.635,360.34 167.988,354.686 201.877,320.801  " data-original="#965353" class="active-path" data-old_color="#7E5959"/>
</g><g style="opacity:0.2;">
	<polygon points="229.127,403.164 235.823,399.819 205.597,334.022 199.95,339.67  " data-original="#000000" class=""/>
</g><g style="opacity:0.2;">
	<polygon style="fill:#FFFFFF;" points="218.819,405.52 196.229,360.34 179.283,354.686 173.635,349.037 167.988,354.686    173.635,360.34 190.578,365.988 213.172,411.168 235.823,399.819 234.774,397.517  " data-original="#FFFFFF" class=""/>
</g><path style="fill:#96A2A7" d="M356.519,271.994l9.212,31.802c-37.901,20.843-86.475,15.194-118.612-16.942l-5.647-5.647  l22.536-22.539l5.647,5.651C293.375,287.922,329.975,290.52,356.519,271.994z" data-original="#AAB2BD" class="" data-old_color="#97A3A8"/><g style="opacity:0.2;">
	<path d="M269.654,264.319l-5.647,5.647c23.721,23.604,60.319,26.201,86.864,7.675l5.647-5.646   C329.975,290.52,293.375,287.922,269.654,264.319z" data-original="#000000" class=""/>
</g><g style="opacity:0.5;">
	<path style="fill:#FFFFFF;" d="M252.766,281.206l-5.647,5.647c32.138,32.137,80.711,37.785,118.612,16.942l-0.717-2.473   C328.164,318.258,283.133,311.572,252.766,281.206z" data-original="#FFFFFF" class=""/>
</g><polygon style="fill:#707074" points="467.846,9.641 484.398,15.686 365.388,134.688 360.084,140.001 348.727,128.76   405.318,72.169 462.198,15.289 " data-original="#656D78" class="" data-old_color="#717175"/><g style="opacity:0.2;">
	<polygon style="fill:#FFFFFF;" points="408.305,80.484 476.121,12.668 467.846,9.641 462.198,15.289 405.318,72.169    348.727,128.76 354.404,134.377  " data-original="#FFFFFF" class=""/>
</g><path style="fill:#7C5959" d="M360.084,140.001l5.646,5.647c0,0-39.539,39.649-50.834,50.944  c-11.295,11.295-16.943,28.128-22.59,33.776l-28.3-28.183l22.589-22.59l56.482-56.482L360.084,140.001z" data-original="#965353" class="active-path" data-old_color="#7E5959"/><g style="opacity:0.2;">
	<polygon style="fill:#FFFFFF;" points="343.078,123.113 286.596,179.595 264.007,202.185 269.67,207.825 292.244,185.243    348.727,128.76 365.731,145.648 360.084,140.001  " data-original="#FFFFFF" class=""/>
</g><g style="opacity:0.2;">
	<path d="M286.658,224.72l-22.645-22.543l-0.007,0.008l28.3,28.183c5.646-5.647,11.295-22.481,22.59-33.776   c11.295-11.294,50.834-50.944,50.834-50.944l-5.646-5.647c0,0-39.541,39.649-50.836,50.944   C297.953,202.239,292.307,219.073,286.658,224.72z" data-original="#000000" class=""/>
</g><polygon style="fill:#707074" points="145.453,309.444 247.06,207.833 252.708,202.185 247.06,196.538 258.414,185.188   275.302,168.3 280.949,173.948 286.596,179.595 264.007,202.185 292.307,230.368 286.658,236.015 264.007,258.667 241.471,281.206   230.118,292.563 201.935,320.746 162.341,360.34 139.747,337.742 " data-original="#656D78" class="" data-old_color="#717175"/><g style="opacity:0.2;">
	<polygon points="281.012,230.368 258.356,253.02 235.823,275.559 224.467,286.908 196.283,315.099 156.693,354.686 162.341,360.34    201.935,320.746 230.118,292.563 241.471,281.206 264.007,258.667 286.658,236.015 292.307,230.368 286.643,224.736  " data-original="#000000" class=""/>
</g><g style="opacity:0.2;">
	<polygon style="fill:#FFFFFF;" points="145.453,309.444 139.747,337.742 145.394,343.391 151.1,315.099 252.708,213.488    258.356,207.833 252.708,202.185 247.06,207.833  " data-original="#FFFFFF" class=""/>
	<polygon style="fill:#FFFFFF;" points="269.654,207.833 292.291,230.384 292.307,230.368 269.67,207.825  " data-original="#FFFFFF" class=""/>
	<polygon style="fill:#FFFFFF;" points="258.414,185.188 247.06,196.538 252.708,202.185 264.061,190.836 280.949,173.948    275.302,168.3  " data-original="#FFFFFF" class=""/>
</g><path style="fill:#7C5959" d="M139.747,337.742l22.594,22.598l-5.647,5.648l-73.317,129.79L71.969,507.19l-45.184-56.482  l67.777-67.777c21.739,10.672,37.956-35.585,39.306-39.43L139.747,337.742z" data-original="#965353" class="active-path" data-old_color="#7E5959"/><g style="opacity:0.2;">
	<polygon points="77.73,490.131 66.95,500.91 71.969,507.19 83.377,495.778 156.693,365.988 151.042,360.34  " data-original="#000000" class=""/>
</g><g style="opacity:0.2;">
	<path style="fill:#FFFFFF;" d="M133.869,343.5c-1.35,3.845-17.566,50.102-39.306,39.43l-67.777,67.777l5.02,6.271l68.405-68.4   c21.739,10.67,37.956-35.586,39.306-39.432L133.869,343.5z" data-original="#FFFFFF" class=""/>
</g><rect x="246.86" y="180.063" transform="matrix(-0.7071 0.7071 -0.7071 -0.7071 588.4754 132.3457)" style="fill:#96A2A7" width="39.936" height="15.974" data-original="#AAB2BD" class="" data-old_color="#97A3A8"/><g style="opacity:0.2;">
	
		<rect x="144.226" y="335.868" transform="matrix(-0.707 0.7072 -0.7072 -0.707 501.8391 495.7812)" width="7.987" height="31.955" data-original="#000000" class=""/>
</g><g style="opacity:0.2;">
	<polygon points="201.877,320.801 167.988,354.686 172.914,359.615 206.802,325.723  " data-original="#000000" class=""/>
</g><g style="opacity:0.2;">
	
		<rect x="239.647" y="268.77" transform="matrix(-0.7071 0.7072 -0.7072 -0.7071 629.1832 284.8847)" width="31.875" height="7.987" data-original="#000000" class=""/>
</g><g style="opacity:0.2;">
	
		<rect x="272.066" y="144.538" transform="matrix(-0.7071 0.7071 -0.7071 -0.7071 637.653 32.9376)" width="79.877" height="7.986" data-original="#000000" class=""/>
</g><g style="opacity:0.5;">
	
		<rect x="244.052" y="181.249" transform="matrix(-0.7072 0.7071 -0.7071 -0.7072 581.7046 129.56)" style="fill:#FFFFFF;" width="39.939" height="7.987" data-original="#FFFFFF" class=""/>
</g><g>
	<path style="fill:#25252D" d="M71.969,511.184c-1.022,0-2.044-0.39-2.824-1.17c-1.56-1.561-1.56-4.088,0-5.647l11.408-11.412   c1.561-1.56,4.087-1.56,5.647,0c1.561,1.561,1.561,4.087,0,5.647l-11.408,11.412C74.013,510.794,72.991,511.184,71.969,511.184z" data-original="#3A3847" class="" data-old_color="#26262F"/>
	<path style="fill:#25252D" d="M71.973,511.184c-1.174,0-2.333-0.515-3.124-1.498l-45.184-56.482   c-1.377-1.724-1.096-4.235,0.624-5.615c1.724-1.373,4.235-1.085,5.616,0.623l45.184,56.482c1.377,1.725,1.096,4.236-0.624,5.617   C73.728,510.895,72.847,511.184,71.973,511.184z" data-original="#3A3847" class="" data-old_color="#26262F"/>
	<path style="fill:#25252D" d="M26.786,454.701c-1.022,0-2.044-0.39-2.824-1.17c-1.56-1.561-1.56-4.088,0-5.647l67.777-67.777   c1.561-1.56,4.088-1.56,5.647,0c1.561,1.56,1.561,4.087,0,5.647l-67.777,67.777C28.829,454.312,27.807,454.701,26.786,454.701z" data-original="#3A3847" class="" data-old_color="#26262F"/>
	<path style="fill:#25252D" d="M83.374,499.772c-0.667,0-1.338-0.164-1.962-0.515c-1.919-1.084-2.598-3.525-1.514-5.444   l73.315-129.79c1.088-1.919,3.519-2.59,5.445-1.514c1.919,1.084,2.598,3.526,1.513,5.444L86.856,497.744   C86.119,499.039,84.766,499.772,83.374,499.772z" data-original="#3A3847" class="" data-old_color="#26262F"/>
	<path style="fill:#25252D" d="M101.084,388.531c-2.781,0-5.546-0.671-8.28-2.013c-1.981-0.976-2.796-3.37-1.825-5.352   c0.971-1.974,3.37-2.776,5.343-1.825c2.96,1.451,5.847,1.568,8.83,0.344c10.102-4.135,19.68-22.598,24.859-37.255   c0.367-1.833,1.981-3.206,3.916-3.206c2.208,0,3.994,1.786,3.994,3.994c0,0.46-0.137,1.193-0.293,1.622   c-2.894,8.261-13.596,35.749-29.45,42.239C105.815,388.047,103.444,388.531,101.084,388.531z" data-original="#3A3847" class="" data-old_color="#26262F"/>
	<path style="fill:#25252D" d="M162.341,364.334c-1.022,0-2.044-0.39-2.824-1.17l-22.594-22.598c-1.56-1.561-1.56-4.088,0-5.647   c1.561-1.56,4.088-1.56,5.647,0l22.594,22.598c1.561,1.56,1.561,4.087,0,5.647C164.384,363.945,163.362,364.334,162.341,364.334z" data-original="#3A3847" class="" data-old_color="#26262F"/>
	<path style="fill:#25252D" d="M139.751,341.737c-0.262,0-0.527-0.023-0.792-0.078c-2.165-0.437-3.564-2.543-3.128-4.703   l5.706-28.3c0.437-2.161,2.523-3.572,4.704-3.128c2.165,0.437,3.565,2.543,3.128,4.703l-5.706,28.3   C143.28,340.426,141.615,341.737,139.751,341.737z" data-original="#3A3847" class="" data-old_color="#26262F"/>
	<path style="fill:#25252D" d="M145.453,313.437c-1.022,0-2.044-0.39-2.824-1.17c-1.56-1.56-1.56-4.087,0-5.647l101.607-101.611   c1.561-1.56,4.088-1.56,5.647,0c1.561,1.561,1.561,4.088,0,5.647L148.276,312.267C147.496,313.047,146.474,313.437,145.453,313.437   z" data-original="#3A3847" class="" data-old_color="#26262F"/>
	<path style="fill:#25252D" d="M162.341,364.334c-1.022,0-2.044-0.39-2.824-1.17c-1.56-1.561-1.56-4.088,0-5.647l124.319-124.326   c1.56-1.56,4.087-1.56,5.647,0c1.561,1.561,1.561,4.088,0,5.647L165.164,363.164C164.384,363.945,163.362,364.334,162.341,364.334z   " data-original="#3A3847" class="" data-old_color="#26262F"/>
	<path style="fill:#25252D" d="M292.307,234.362c-1.022,0-2.044-0.39-2.824-1.163l-28.3-28.183c-1.56-1.56-1.567-4.087-0.012-5.647   c1.561-1.56,4.092-1.56,5.651-0.016l28.3,28.183c1.56,1.561,1.567,4.088,0.016,5.647   C294.358,233.971,293.328,234.362,292.307,234.362z" data-original="#3A3847" class="" data-old_color="#26262F"/>
	<path style="fill:#25252D" d="M258.356,211.826c-1.022,0-2.044-0.39-2.825-1.17c-1.56-1.56-1.56-4.087,0-5.647l84.724-84.72   c1.56-1.56,4.087-1.56,5.647,0c1.561,1.561,1.561,4.088,0,5.647l-84.724,84.72C260.399,211.436,259.377,211.826,258.356,211.826z" data-original="#3A3847" class="" data-old_color="#26262F"/>
	<path style="fill:#25252D" d="M281.012,166.584c-1.022,0-2.044-0.39-2.824-1.17c-1.561-1.56-1.561-4.087,0-5.647l50.772-50.772   c1.56-1.56,4.087-1.56,5.647,0c1.561,1.561,1.561,4.088,0,5.647l-50.772,50.772C283.055,166.194,282.033,166.584,281.012,166.584z" data-original="#3A3847" class="" data-old_color="#26262F"/>
	<path style="fill:#25252D" d="M292.307,234.362c-1.022,0-2.044-0.39-2.824-1.17c-1.561-1.56-1.561-4.087,0-5.647   c1.935-1.935,4.267-6.186,6.739-10.687c3.932-7.16,8.83-16.068,15.851-23.089c11.295-11.295,50.827-50.944,50.827-50.944   l5.655,5.647c0,0-39.54,39.649-50.835,50.944c-6.217,6.217-10.616,14.22-14.493,21.287c-2.878,5.234-5.358,9.751-8.097,12.488   C294.35,233.971,293.328,234.362,292.307,234.362z" data-original="#3A3847" class="" data-old_color="#26262F"/>
	<path style="fill:#25252D" d="M252.708,206.178c-1.022,0-2.044-0.39-2.824-1.17l-11.295-11.295c-1.56-1.56-1.56-4.087,0-5.647   c1.561-1.56,4.088-1.56,5.647,0l11.295,11.295c1.561,1.561,1.561,4.088,0,5.647C254.751,205.789,253.729,206.178,252.708,206.178z" data-original="#3A3847" class="" data-old_color="#26262F"/>
	<path style="fill:#25252D" d="M247.06,200.531c-1.022,0-2.044-0.39-2.824-1.17c-1.56-1.56-1.56-4.087,0-5.647l28.242-28.237   c1.561-1.56,4.087-1.56,5.647,0c1.561,1.561,1.561,4.088,0,5.647l-28.242,28.237C249.104,200.141,248.082,200.531,247.06,200.531z" data-original="#3A3847" class="" data-old_color="#26262F"/>
	<path style="fill:#25252D" d="M280.949,177.941c-1.022,0-2.044-0.39-2.824-1.17l-5.647-5.647c-1.56-1.56-1.56-4.087,0-5.647   c1.561-1.56,4.087-1.56,5.647,0l5.647,5.647c1.561,1.561,1.561,4.088,0,5.647C282.992,177.551,281.971,177.941,280.949,177.941z" data-original="#3A3847" class="" data-old_color="#26262F"/>
	<path style="fill:#25252D" d="M365.731,149.642c-1.021,0-2.043-0.39-2.823-1.17l-22.645-22.527   c-1.56-1.552-1.567-4.079-0.016-5.647c1.56-1.567,4.087-1.56,5.647-0.016l22.66,22.543c1.561,1.561,1.561,4.088,0,5.647   C367.775,149.252,366.753,149.642,365.731,149.642z" data-original="#3A3847" class="" data-old_color="#26262F"/>
	<path style="fill:#25252D" d="M337.432,121.459c-1.022,0-2.044-0.39-2.824-1.17l-5.647-5.647c-1.56-1.56-1.56-4.087,0-5.647   c1.56-1.56,4.087-1.56,5.647,0l5.647,5.647c1.56,1.561,1.56,4.088,0,5.647C339.475,121.069,338.453,121.459,337.432,121.459z" data-original="#3A3847" class="" data-old_color="#26262F"/>
	<path style="fill:#25252D" d="M213.172,336.089c-1.03,0-2.056-0.397-2.84-1.186l-11.236-11.35   c-1.552-1.567-1.537-4.095,0.031-5.647c1.564-1.552,4.091-1.536,5.647,0.031l11.236,11.35c1.553,1.568,1.537,4.096-0.031,5.647   C215.203,335.707,214.185,336.089,213.172,336.089z" data-original="#3A3847" class="" data-old_color="#26262F"/>
	<path style="fill:#25252D" d="M235.827,403.812c-1.517,0-2.968-0.866-3.639-2.34l-28.299-62.075   c-0.913-2.005-0.027-4.376,1.977-5.289c2.009-0.912,4.376-0.031,5.293,1.981l28.3,62.075c0.912,2.005,0.027,4.376-1.978,5.289   C236.943,403.696,236.382,403.812,235.827,403.812z" data-original="#3A3847" class="" data-old_color="#26262F"/>
	<path style="fill:#25252D" d="M213.175,415.161c-1.467,0-2.875-0.804-3.577-2.207c-0.987-1.966-0.187-4.368,1.782-5.359   l22.652-11.35c1.973-0.99,4.368-0.194,5.363,1.786c0.986,1.966,0.187,4.369-1.782,5.359l-22.652,11.35   C214.388,415.029,213.776,415.161,213.175,415.161z" data-original="#3A3847" class="" data-old_color="#26262F"/>
	<path style="fill:#25252D" d="M213.175,415.161c-1.467,0-2.875-0.812-3.577-2.207l-22.594-45.18   c-0.987-1.974-0.187-4.368,1.786-5.359c1.97-0.99,4.368-0.187,5.359,1.786l22.594,45.18c0.987,1.974,0.188,4.369-1.786,5.359   C214.384,415.029,213.776,415.161,213.175,415.161z" data-original="#3A3847" class="" data-old_color="#26262F"/>
	<path style="fill:#25252D" d="M190.578,369.982c-0.418,0-0.843-0.062-1.264-0.202l-16.942-5.648   c-2.091-0.701-3.222-2.964-2.523-5.055c0.698-2.082,2.948-3.221,5.051-2.527l16.942,5.648c2.09,0.701,3.221,2.964,2.523,5.055   C193.807,368.921,192.251,369.982,190.578,369.982z" data-original="#3A3847" class="" data-old_color="#26262F"/>
	<path style="fill:#25252D" d="M317.736,288.196c-18.519,0-36.927-7.146-50.897-21.046c-1.561-1.56-1.568-4.091-0.016-5.651   c1.561-1.567,4.096-1.561,5.647-0.016c22.013,21.899,56.396,24.941,81.764,7.234c1.802-1.255,4.306-0.818,5.562,0.991   s0.818,4.298-0.99,5.562C346.37,283.944,332.018,288.196,317.736,288.196z" data-original="#3A3847" class="" data-old_color="#26262F"/>
	<path style="fill:#25252D" d="M317.939,319.997c-26.981,0-53.745-10.421-73.644-30.32c-1.56-1.56-1.56-4.087,0-5.647   s4.087-1.56,5.647,0c29.961,29.969,76.764,36.662,113.863,16.264c1.926-1.061,4.359-0.351,5.421,1.576   c1.068,1.935,0.358,4.36-1.575,5.429C352.104,315.848,334.975,319.997,317.939,319.997z" data-original="#3A3847" class="" data-old_color="#26262F"/>
	<path style="fill:#25252D" d="M317.915,304.147c-20.211,0-40.219-6.919-56.171-20.086c-1.7-1.404-1.942-3.924-0.538-5.624   c1.408-1.708,3.916-1.95,5.624-0.538c21.6,17.84,51.42,23.058,77.793,13.666c2.075-0.779,4.36,0.344,5.102,2.418   c0.741,2.075-0.344,4.361-2.418,5.102C337.767,302.486,327.814,304.147,317.915,304.147z" data-original="#3A3847" class="" data-old_color="#26262F"/>
	<path style="fill:#25252D" d="M365.731,307.789c-1.739,0-3.33-1.131-3.838-2.886l-9.212-31.802   c-0.616-2.114,0.608-4.33,2.723-4.945c2.122-0.625,4.337,0.615,4.953,2.729l9.212,31.802c0.608,2.114-0.608,4.33-2.729,4.945   C366.472,307.742,366.098,307.789,365.731,307.789z" data-original="#3A3847" class="" data-old_color="#26262F"/>
	<path style="fill:#25252D" d="M264.061,194.829c-1.021,0-2.043-0.39-2.823-1.17l-5.648-5.647c-1.56-1.56-1.56-4.087,0-5.647   c1.561-1.56,4.088-1.56,5.648,0l5.647,5.647c1.561,1.561,1.561,4.088,0,5.647C266.105,194.439,265.083,194.829,264.061,194.829z" data-original="#3A3847" class="" data-old_color="#26262F"/>
	<path style="fill:#25252D" d="M241.413,307.852c-1.022,0-2.044-0.39-2.824-1.17l-11.295-11.295c-1.56-1.561-1.56-4.088,0-5.647   c1.561-1.56,4.088-1.56,5.647,0l11.295,11.295c1.561,1.56,1.561,4.087,0,5.647C243.456,307.462,242.434,307.852,241.413,307.852z" data-original="#3A3847" class="" data-old_color="#26262F"/>
	<path style="fill:#25252D" d="M241.413,319.147c-1.022,0-2.044-0.39-2.824-1.17c-1.56-1.561-1.56-4.088-0.004-5.647   c1.611-1.606,1.611-4.04,0.004-5.647c-1.56-1.561-1.56-4.088,0-5.647c1.561-1.56,4.088-1.56,5.647,0   c4.747,4.751,4.75,12.192,0.004,16.942C243.46,318.757,242.434,319.147,241.413,319.147z" data-original="#3A3847" class="" data-old_color="#26262F"/>
	<path style="fill:#25252D" d="M224.525,336.034c-1.022,0-2.043-0.39-2.824-1.17c-1.56-1.56-1.56-4.087,0-5.647l16.888-16.888   c1.561-1.56,4.088-1.56,5.647,0c1.561,1.56,1.561,4.087,0,5.647l-16.888,16.888C226.568,335.645,225.547,336.034,224.525,336.034z" data-original="#3A3847" class="" data-old_color="#26262F"/>
	<path style="fill:#25252D" d="M218.772,338.43c-3.054,0-6.084-1.171-8.425-3.511c-1.56-1.56-1.56-4.087,0-5.647   c1.561-1.561,4.088-1.561,5.647,0c1.58,1.576,4.033,1.568,5.698-0.055l5.558,5.741C224.848,337.275,221.799,338.43,218.772,338.43z   " data-original="#3A3847" class="" data-old_color="#26262F"/>
	<path style="fill:#25252D" d="M207.524,273.959c-1.022,0-2.044-0.39-2.824-1.17c-1.56-1.561-1.56-4.087,0-5.647l33.889-33.888   c1.561-1.56,4.088-1.56,5.647,0c1.561,1.561,1.561,4.088,0,5.647l-33.889,33.888C209.568,273.57,208.546,273.959,207.524,273.959z" data-original="#3A3847" class="" data-old_color="#26262F"/>
	<path style="fill:#25252D" d="M247.06,245.718c-1.022,0-2.044-0.39-2.824-1.17l-5.647-5.647c-1.56-1.56-1.56-4.087,0-5.647   c1.561-1.56,4.088-1.56,5.647,0l5.647,5.647c1.561,1.561,1.561,4.088,0,5.647C249.104,245.329,248.082,245.718,247.06,245.718z" data-original="#3A3847" class="" data-old_color="#26262F"/>
	<path style="fill:#25252D" d="M156.748,324.739c-1.022,0-2.044-0.39-2.824-1.17c-1.56-1.56-1.56-4.087,0-5.647l22.535-22.535   c1.561-1.561,4.088-1.561,5.647,0c1.561,1.561,1.561,4.088,0,5.647l-22.535,22.535C158.791,324.35,157.769,324.739,156.748,324.739   z" data-original="#3A3847" class="" data-old_color="#26262F"/>
	<path style="fill:#25252D" d="M224.486,321.463c-0.039,0-0.074,0-0.113,0c-3.19-0.031-6.162-1.303-8.37-3.588   c-1.533-1.591-1.486-4.118,0.102-5.647c1.591-1.528,4.119-1.481,5.647,0.094c0.714,0.741,1.802,0.89,2.73,1.154   c1.076,0,2.09-0.429,2.866-1.201c1.56-1.56,4.091-1.56,5.651,0c1.556,1.561,1.556,4.088-0.004,5.647   C230.707,320.207,227.692,321.463,224.486,321.463z" data-original="#3A3847" class="" data-old_color="#26262F"/>
	<path style="fill:#25252D" d="M354.436,127.052c-1.021,0-2.043-0.39-2.823-1.17c-1.56-1.56-1.56-4.087,0-5.647L465.022,6.817   c1.561-1.56,4.088-1.56,5.647,0c1.561,1.561,1.561,4.088,0,5.647L357.26,125.882C356.48,126.662,355.458,127.052,354.436,127.052z" data-original="#3A3847" class="" data-old_color="#26262F"/>
	<path style="fill:#25252D" d="M365.388,138.682c-1.021,0-2.044-0.39-2.823-1.17c-1.561-1.561-1.561-4.088,0-5.647l119.01-119.002   c1.56-1.56,4.087-1.56,5.647,0s1.56,4.087,0,5.647L368.211,137.512C367.432,138.292,366.409,138.682,365.388,138.682z" data-original="#3A3847" class="" data-old_color="#26262F"/>
	<path style="fill:#25252D" d="M484.398,19.68c-0.46,0-0.92-0.078-1.372-0.242l-16.545-6.045c-2.075-0.757-3.144-3.05-2.387-5.125   c0.764-2.067,3.05-3.128,5.125-2.379l16.544,6.045c2.075,0.757,3.144,3.05,2.387,5.125C487.557,18.674,486.029,19.68,484.398,19.68   z" data-original="#3A3847" class="" data-old_color="#26262F"/>
	<path style="fill:#25252D" d="M462.198,19.282c-1.022,0-2.044-0.39-2.824-1.17L448.079,6.817c-1.56-1.56-1.56-4.087,0-5.647   c1.561-1.56,4.088-1.56,5.647,0l11.295,11.295c1.561,1.561,1.561,4.088,0,5.647C464.242,18.892,463.22,19.282,462.198,19.282z" data-original="#3A3847" class="" data-old_color="#26262F"/>
	<path style="fill:#25252D" d="M342.798,116.092c-1.021,0-2.044-0.39-2.823-1.17c-1.561-1.561-1.561-4.088,0-5.647l39.93-39.93   c1.56-1.56,4.087-1.56,5.647,0s1.56,4.087,0,5.647l-39.931,39.93C344.842,115.702,343.821,116.092,342.798,116.092z" data-original="#3A3847" class="" data-old_color="#26262F"/>
	<path style="fill:#25252D" d="M405.318,76.162h-22.59c-2.207,0-3.993-1.786-3.993-3.994s1.786-3.994,3.993-3.994h22.59   c2.208,0,3.994,1.787,3.994,3.994S407.526,76.162,405.318,76.162z" data-original="#3A3847" class="" data-old_color="#26262F"/>
</g><g style="opacity:0.2;">
	<rect x="268.479" y="200.294" transform="matrix(0.7073 -0.7069 0.7069 0.7073 -73.1223 255.9354)" width="8.05" height="31.952" data-original="#000000" class=""/>
</g></g> </svg>
