<?xml version="1.0" encoding="iso-8859-1"?>
<!-- Generator: Adobe Illustrator 19.0.0, SVG Export Plug-In . SVG Version: 6.00 Build 0)  -->
<svg version="1.1" id="Layer_1" xmlns="http://www.w3.org/2000/svg" xmlns:xlink="http://www.w3.org/1999/xlink" x="0px" y="0px"
	 viewBox="0 0 511.998 511.998" style="enable-background:new 0 0 511.998 511.998;" xml:space="preserve">
<path style="fill:#AB825B;" d="M347.131,149.018L150.137,303.991c-4.083,3.213-7.183,7.507-8.945,12.395l-4.845,13.441
	c-1.299,3.604-4.045,6.247-7.621,7.338L97.58,350.278l-85.478,73.571c-5.579,4.763-6.405,13.08-1.87,18.847l41.636,52.949
	c5.837,7.423,17.264,6.833,22.305-1.153l60.16-91.444c0.659-1.002,1.703-1.686,2.885-1.89l14.094-2.434
	c4.917-0.849,8.918-4.43,10.305-9.223l14.173-48.981l177.809-159.786c8.688-8.013,9.754-21.359,2.448-30.649l0,0
	C353.88,147.327,349.887,146.85,347.131,149.018z"/>
<path style="fill:#997252;" d="M355.433,178.812c0.288-0.331,0.562-0.674,0.828-1.023c0.13-0.171,0.261-0.341,0.385-0.515
	c0.296-0.413,0.575-0.834,0.84-1.262c0.074-0.119,0.155-0.234,0.227-0.353c0.312-0.525,0.597-1.062,0.863-1.607
	c0.082-0.167,0.156-0.336,0.231-0.506c0.167-0.378,0.336-0.755,0.487-1.139c0.109-0.279,0.216-0.559,0.314-0.841
	c0.114-0.326,0.215-0.655,0.313-0.985c0.081-0.272,0.169-0.543,0.24-0.818c0.131-0.507,0.243-1.017,0.338-1.531
	c0.068-0.367,0.115-0.738,0.165-1.109c0.032-0.237,0.065-0.473,0.089-0.71c0.038-0.376,0.067-0.752,0.087-1.13
	c0.032-0.598,0.009-1.197,0.119-1.793c0.167-0.898,0.018-1.787-0.294-2.646c-0.071-0.194-0.083-0.395-0.117-0.593
	c-0.076-0.442-0.168-0.882-0.271-1.321c-0.03-0.128-0.062-0.255-0.094-0.382c-0.113-0.448-0.233-0.894-0.374-1.336l-202.484,164.87
	l-14.173,48.981c-1.387,4.793-5.388,8.374-10.305,9.223l-12.394,2.14c-2.266,0.391-4.269,1.703-5.533,3.625l-59.212,90.003
	c-3.249,5.148-9.149,7.203-14.498,6.039l0,0l10.655,13.551c5.837,7.423,17.264,6.833,22.305-1.153l60.16-91.444
	c0.659-1.002,1.703-1.686,2.885-1.89l0.901-0.156l13.193-2.278c1.844-0.318,3.559-1.021,5.056-2.027
	c0.249-0.168,0.493-0.344,0.73-0.528c0.474-0.369,0.922-0.769,1.34-1.2c1.465-1.506,2.572-3.371,3.179-5.468l14.173-48.981
	l177.809-159.786c0.491-0.452,0.949-0.927,1.391-1.412C355.142,179.154,355.285,178.982,355.433,178.812z"/>
<path style="fill:#654D34;" d="M53.412,497.282c0.268,0.246,0.536,0.495,0.818,0.716c0.177,0.138,0.365,0.255,0.547,0.383
	c0.257,0.18,0.511,0.365,0.777,0.526c0.207,0.125,0.422,0.23,0.635,0.343c0.252,0.134,0.503,0.273,0.762,0.39
	c0.233,0.105,0.471,0.192,0.708,0.284c0.246,0.095,0.491,0.193,0.742,0.274c0.257,0.082,0.517,0.148,0.778,0.214
	c0.235,0.06,0.47,0.123,0.708,0.17c0.28,0.056,0.561,0.096,0.843,0.135c0.221,0.03,0.441,0.061,0.663,0.08
	c0.3,0.026,0.601,0.038,0.903,0.044c0.202,0.005,0.404,0.008,0.607,0.003c0.32-0.007,0.639-0.027,0.958-0.057
	c0.18-0.016,0.359-0.035,0.538-0.059c0.337-0.044,0.672-0.101,1.005-0.17c0.156-0.032,0.311-0.068,0.466-0.106
	c0.349-0.085,0.696-0.182,1.039-0.295c0.132-0.043,0.262-0.091,0.393-0.139c0.358-0.13,0.712-0.272,1.059-0.432
	c0.107-0.049,0.212-0.104,0.317-0.156c0.361-0.179,0.718-0.369,1.065-0.581c0.082-0.05,0.162-0.106,0.243-0.158
	c0.36-0.231,0.715-0.475,1.055-0.743c0.057-0.045,0.112-0.096,0.169-0.142c0.355-0.289,0.702-0.592,1.031-0.921
	c0.031-0.031,0.06-0.066,0.091-0.098c0.347-0.354,0.682-0.726,0.996-1.126l0,0l-56.693-75.683l-4.534,3.871
	c-0.697,0.595-1.321,1.246-1.868,1.941c-0.548,0.695-1.02,1.433-1.415,2.202c-0.396,0.77-0.714,1.571-0.956,2.393
	c-0.362,1.232-0.548,2.508-0.556,3.789c-0.017,2.988,0.941,5.999,2.924,8.522l41.636,52.949c0.356,0.452,0.734,0.873,1.128,1.266
	C53.129,497.043,53.275,497.156,53.412,497.282z"/>
<path style="fill:#543C2A;" d="M73.329,495.661L73.329,495.661L73.329,495.661l-16.2-21.628l-1.419,2.021
	c-3.249,5.148-9.149,7.203-14.498,6.039l10.655,13.551C57.402,502.683,67.952,502.504,73.329,495.661z"/>
<path style="fill:#939598;" d="M439.946,50.967l-306.27,240.826c-6.078,4.78-7.057,13.614-2.173,19.608l7.931,9.733l0.065-0.051
	l1.693-4.697c1.762-4.888,4.861-9.183,8.945-12.395l196.994-154.973c2.757-2.168,6.749-1.69,8.917,1.066
	c0.11,0.14,0.2,0.288,0.306,0.43l100.07-78.635L439.946,50.967z"/>
<path style="fill:#808285;" d="M448.27,61.531L142.028,302.392c-5.436,4.275-6.779,11.787-3.511,17.616l0.918,1.126l0.065-0.051
	l1.693-4.697c1.762-4.888,4.861-9.183,8.945-12.395l196.994-154.973c2.757-2.168,6.749-1.69,8.917,1.066
	c0.11,0.14,0.2,0.288,0.306,0.43l100.042-78.67L448.27,61.531z"/>
<path style="fill:#6D6E71;" d="M503.506,42.005L456.439,79.09c-1.376,1.084-3.369,0.847-4.453-0.528l-19.864-25.21
	c-1.084-1.376-0.847-3.369,0.528-4.453l47.067-37.085c1.376-1.084,3.369-0.847,4.453,0.528l19.864,25.21
	C505.118,38.928,504.882,40.921,503.506,42.005z"/>
<path style="fill:#58595B;" d="M451.986,78.562c1.084,1.376,3.078,1.612,4.453,0.528l47.067-37.085
	c1.376-1.084,1.612-3.077,0.528-4.453l-9.681-12.287l-52.049,41.01L451.986,78.562z"/>
<g>
	<path style="fill:#121419;" d="M303.192,216.233l-94.552,84.968c-0.008,0.007-0.016,0.014-0.024,0.021l-37.697,33.877
		c-1.013,0.91-1.751,2.087-2.129,3.395l-14.174,48.982c-0.607,2.099-2.391,3.695-4.544,4.067l-14.094,2.433
		c-3.155,0.545-5.975,2.392-7.733,5.066l-60.16,91.444c-0.025,0.038-0.05,0.077-0.074,0.115c-1.122,1.778-2.969,2.859-5.067,2.968
		c-2.1,0.106-4.047-0.777-5.347-2.429l-41.636-52.949c-2.125-2.702-1.741-6.568,0.896-8.819l33.727-29.029
		c3.05-2.626,3.395-7.227,0.77-10.277s-7.227-3.395-10.277-0.77l-33.705,29.01c-8.585,7.329-9.845,20.021-2.867,28.893
		l41.636,52.949c3.98,5.062,10.075,8.003,16.477,8.003c0.359,0,0.719-0.009,1.079-0.028c6.764-0.35,12.963-3.965,16.598-9.677
		l59.425-90.326l12.834-2.216c7.612-1.315,13.917-6.958,16.065-14.378l6.587-22.762l16.272-4.599
		c22.43-6.339,35.931-29.103,30.737-51.825l-0.709-3.104l91.431-82.164c2.993-2.69,3.239-7.298,0.549-10.291
		C310.793,213.788,306.185,213.543,303.192,216.233z M187.512,350.14l-7.536,2.13l2.235-7.723l26.493-23.807
		C209.335,334.045,200.766,346.394,187.512,350.14z"/>
	<path style="fill:#121419;" d="M509.758,33.042L489.894,7.831c-1.996-2.533-4.991-3.985-8.216-3.985
		c-2.337,0-4.635,0.797-6.47,2.244L428.14,43.175c-2.194,1.729-3.584,4.208-3.913,6.983c-0.15,1.263-0.06,2.515,0.233,3.715
		L129.171,286.064c-4.489,3.53-7.307,8.6-7.935,14.276c-0.629,5.675,1.011,11.238,4.618,15.665l5.359,6.576l-1.721,4.774
		c-0.362,1.003-1.157,2.311-2.891,2.839c-0.238,0.073-0.473,0.158-0.702,0.254l-31.146,13.113c-0.7,0.295-1.35,0.697-1.926,1.193
		l-28.956,24.922c-3.051,2.626-3.395,7.227-0.77,10.277c1.441,1.675,3.478,2.534,5.527,2.533c1.683,0,3.375-0.58,4.75-1.764
		l28.086-24.174l29.784-12.54c5.58-1.834,9.923-6.081,11.953-11.711l3.151-8.741c0-0.001,0.001-0.001,0.001-0.002l1.693-4.697
		c1.3-3.607,3.581-6.767,6.595-9.139l196.233-154.375c4.299,6.219,3.407,14.845-2.148,19.969l-23.125,20.781
		c-2.993,2.69-3.239,7.298-0.549,10.291s7.296,3.239,10.291,0.549l23.195-20.844c9.424-8.692,12.024-22.348,7.235-33.712
		l84.342-66.276c1.348,0.618,2.826,0.956,4.362,0.956c2.336,0,4.634-0.797,6.47-2.244l47.068-37.086
		C512.547,44.159,513.327,37.57,509.758,33.042z M145.631,298.264c-0.576,0.453-1.131,0.929-1.675,1.415
		c-0.116,0.103-0.232,0.206-0.346,0.311c-0.523,0.48-1.033,0.973-1.524,1.482c-0.085,0.088-0.166,0.178-0.249,0.266
		c-0.449,0.474-0.883,0.96-1.304,1.458c-0.072,0.086-0.147,0.169-0.218,0.255c-0.452,0.545-0.884,1.105-1.301,1.677
		c-0.092,0.126-0.182,0.253-0.272,0.38c-0.413,0.581-0.814,1.17-1.191,1.775l-0.397-0.487c-1.117-1.372-1.626-3.095-1.431-4.853
		c0.195-1.759,1.068-3.33,2.459-4.424L432.736,65.906l7.454,9.461l-83.994,66.003c-0.18-0.073-0.367-0.128-0.55-0.193
		c-0.157-0.056-0.312-0.115-0.471-0.165c-0.273-0.086-0.55-0.157-0.829-0.225c-0.151-0.037-0.299-0.079-0.452-0.111
		c-0.276-0.058-0.556-0.101-0.837-0.142c-0.128-0.019-0.253-0.049-0.383-0.065c-0.041-0.005-0.082-0.004-0.123-0.009
		c-0.236-0.026-0.474-0.037-0.712-0.05c-0.224-0.013-0.447-0.03-0.67-0.032c-0.04,0-0.078-0.006-0.118-0.006
		c-0.201,0-0.401,0.016-0.601,0.025c-0.881,0.037-1.75,0.16-2.599,0.365c-0.069,0.017-0.139,0.029-0.207,0.047
		c-0.291,0.075-0.578,0.165-0.864,0.26c-0.097,0.032-0.195,0.063-0.291,0.097c-0.263,0.094-0.523,0.196-0.78,0.307
		c-0.128,0.054-0.253,0.112-0.379,0.17c-0.226,0.105-0.45,0.212-0.67,0.33c-0.181,0.096-0.356,0.201-0.532,0.304
		c-0.166,0.098-0.333,0.191-0.495,0.297c-0.345,0.224-0.683,0.46-1.007,0.716L145.631,298.264z M455.162,70.819l-9.759-12.386
		l-5.009-6.357l40.6-31.99l14.768,18.743L455.162,70.819z"/>
</g>
<g>
</g>
<g>
</g>
<g>
</g>
<g>
</g>
<g>
</g>
<g>
</g>
<g>
</g>
<g>
</g>
<g>
</g>
<g>
</g>
<g>
</g>
<g>
</g>
<g>
</g>
<g>
</g>
<g>
</g>
</svg>
