<?xml version="1.0"?>
<svg xmlns="http://www.w3.org/2000/svg" xmlns:xlink="http://www.w3.org/1999/xlink" version="1.1" id="Capa_1" x="0px" y="0px" viewBox="0 0 511.203 511.203" style="enable-background:new 0 0 511.203 511.203;" xml:space="preserve" width="512px" height="512px" class=""><g><rect x="459.282" y="91.851" style="fill:#AAB2BD" width="47.926" height="47.925" data-original="#AAB2BD" class=""/><path style="fill:#B29E5E" d="M451.305,75.88h-15.982v79.876h15.982c4.392,0,7.987-3.596,7.987-7.987V83.868  C459.292,79.476,455.697,75.88,451.305,75.88z" data-original="#ED5565" class="active-path" data-old_color="#D6BB64"/><polygon style="fill:#AAB2BD" points="435.323,27.955 411.36,27.955 395.384,43.93 395.384,67.893 435.323,67.893 " data-original="#AAB2BD" class=""/><g style="opacity:0.5;">
	<polygon style="fill:#FFFFFF" points="419.347,27.955 411.36,27.955 395.384,43.93 395.384,59.906 403.372,59.906 403.372,45.053     " data-original="#FFFFFF" class=""/>
</g><path style="fill:#656D78" d="M155.757,379.408h-15.975c-21.966-66.693,7.987-135.788,7.987-175.727l-23.963-15.975v-7.987h111.826  v7.987v55.913v135.788h-7.987h-71.888V379.408z" data-original="#656D78" class=""/><g style="opacity:0.2;">
	<polygon points="227.646,187.706 227.646,243.62 227.646,379.408 235.633,379.408 235.633,243.62 235.633,187.706  " data-original="#000000" class="" style="fill:#000000"/>
</g><g style="opacity:0.2;">
	<path style="fill:#FFFFFF" d="M155.757,203.681l-23.962-15.975h-7.988l23.963,15.975c0,39.938-29.953,109.033-7.987,175.727h7.987   C125.804,312.714,155.757,243.62,155.757,203.681z" data-original="#FFFFFF" class=""/>
</g><path style="fill:#656D78" d="M363.434,68.053l-15.975-8.147h-79.876H243.62h-23.963h-23.962h-23.963h-23.963h-23.963H3.994v87.863  h39.938v7.987l47.925,23.963h31.95h111.826h63.9h47.926h7.987l15.976-7.988h7.987h15.975h7.987h15.976h7.987l7.988-7.987v-95.69  L363.434,68.053L363.434,68.053z M115.82,92.015c0-4.392,3.596-7.987,7.987-7.987h63.9h7.988c4.392,0,7.987,3.596,7.987,7.987  v23.804c0,4.392-3.596,7.987-7.987,7.987h-71.889c-4.392,0-7.987-3.596-7.987-7.987L115.82,92.015L115.82,92.015z M299.534,163.744  H123.807c-4.392,0-7.987-3.596-7.987-7.987s3.596-7.987,7.987-7.987h71.889h103.838c4.392,0,7.987,3.596,7.987,7.987  S303.925,163.744,299.534,163.744z" data-original="#656D78" class=""/><g style="opacity:0.2;">
	<polygon points="427.334,68.053 427.334,163.744 419.347,171.731 427.334,171.731 435.323,163.744 435.323,68.053  " data-original="#000000" class="" style="fill:#000000"/>
</g><g style="opacity:0.2;">
	<rect x="3.994" y="59.901" style="fill:#FFFFFF" width="7.988" height="87.86" data-original="#FFFFFF" class=""/>
</g><polygon style="fill:#AAB2BD" points="59.907,27.955 19.961,27.955 3.994,43.93 3.994,59.906 59.907,59.906 " data-original="#AAB2BD" class=""/><g style="opacity:0.5;">
	<polygon style="fill:#FFFFFF" points="27.949,27.955 19.961,27.955 3.994,43.93 3.994,51.917 11.982,51.917 11.982,44.679  " data-original="#FFFFFF" class=""/>
</g><g>
	<path style="fill:#3A3847" d="M60.149,151.762c-2.208,0-4.033-1.786-4.033-3.993c0-2.208,1.747-3.994,3.947-3.994h0.086   c2.199,0,3.993,1.786,3.993,3.994C64.142,149.976,62.348,151.762,60.149,151.762z" data-original="#3A3847" class=""/>
	<path style="fill:#3A3847" d="M347.701,151.762c-2.207,0-4.032-1.786-4.032-3.993c0-2.208,1.747-3.994,3.946-3.994h0.086   c2.2,0,3.994,1.786,3.994,3.994C351.695,149.976,349.901,151.762,347.701,151.762z" data-original="#3A3847" class=""/>
	<path style="fill:#3A3847" d="M155.999,279.563c-2.208,0-4.033-1.786-4.033-3.993c0-2.208,1.748-3.994,3.947-3.994h0.086   c2.199,0,3.994,1.786,3.994,3.994C159.994,277.777,158.199,279.563,155.999,279.563z" data-original="#3A3847" class=""/>
	<path style="fill:#3A3847" d="M92.099,167.738c-2.208,0-4.033-1.786-4.033-3.994c0-2.207,1.748-3.994,3.947-3.994h0.086   c2.199,0,3.993,1.787,3.993,3.994C96.092,165.952,94.298,167.738,92.099,167.738z" data-original="#3A3847" class=""/>
	<path style="fill:#3A3847" d="M447.545,95.849c-2.207,0-4.033-1.786-4.033-3.993c0-2.208,1.748-3.994,3.947-3.994h0.086   c2.199,0,3.994,1.786,3.994,3.994C451.54,94.063,449.745,95.849,447.545,95.849z" data-original="#3A3847" class=""/>
	<path style="fill:#3A3847" d="M447.545,111.825c-2.207,0-4.033-1.786-4.033-3.994c0-2.207,1.748-3.993,3.947-3.993h0.086   c2.199,0,3.994,1.786,3.994,3.993C451.54,110.039,449.745,111.825,447.545,111.825z" data-original="#3A3847" class=""/>
	<path style="fill:#3A3847" d="M447.545,127.799c-2.207,0-4.033-1.786-4.033-3.993c0-2.208,1.748-3.994,3.947-3.994h0.086   c2.199,0,3.994,1.786,3.994,3.994C451.54,126.013,449.745,127.799,447.545,127.799z" data-original="#3A3847" class=""/>
	<path style="fill:#3A3847" d="M447.545,143.775c-2.207,0-4.033-1.786-4.033-3.994c0-2.207,1.748-3.993,3.947-3.993h0.086   c2.199,0,3.994,1.786,3.994,3.993C451.54,141.989,449.745,143.775,447.545,143.775z" data-original="#3A3847" class=""/>
	<path style="fill:#3A3847" d="M36.186,47.924c-2.207,0-4.033-1.786-4.033-3.994c0-2.207,1.748-3.993,3.947-3.993h0.086   c2.199,0,3.994,1.786,3.994,3.993C40.18,46.138,38.385,47.924,36.186,47.924z" data-original="#3A3847" class=""/>
</g><g>
	<path style="fill:#656D78" d="M299.534,163.744H123.807c-4.392,0-7.987-3.596-7.987-7.987s3.596-7.987,7.987-7.987h71.889h103.838   c4.392,0,7.987,3.596,7.987,7.987S303.925,163.744,299.534,163.744z" data-original="#656D78" class=""/>
	<path style="fill:#656D78" d="M203.683,92.015v23.804c0,4.392-3.596,7.987-7.987,7.987h-71.889c-4.392,0-7.987-3.596-7.987-7.987   V92.015c0-4.392,3.596-7.987,7.987-7.987h63.9h7.988C200.087,84.028,203.683,87.623,203.683,92.015z" data-original="#656D78" class=""/>
</g><g style="opacity:0.2;">
	<path d="M299.534,163.744H123.807c-4.392,0-7.987-3.596-7.987-7.987s3.596-7.987,7.987-7.987h71.889h103.838   c4.392,0,7.987,3.596,7.987,7.987S303.925,163.744,299.534,163.744z" data-original="#000000" class="" style="fill:#000000"/>
</g><g style="opacity:0.2;">
	<path d="M123.807,155.756c0-4.392,3.597-7.987,7.988-7.987h-7.988c-4.392,0-7.987,3.596-7.987,7.987s3.596,7.987,7.987,7.987h7.988   C127.404,163.744,123.807,160.148,123.807,155.756z" data-original="#000000" class="" style="fill:#000000"/>
</g><g style="opacity:0.2;">
	<path d="M203.683,92.015v23.804c0,4.392-3.596,7.987-7.987,7.987h-71.889c-4.392,0-7.987-3.596-7.987-7.987V92.015   c0-4.392,3.596-7.987,7.987-7.987h63.9h7.988C200.087,84.028,203.683,87.623,203.683,92.015z" data-original="#000000" class="" style="fill:#000000"/>
</g><g style="opacity:0.2;">
	<path d="M123.807,115.819V92.015c0-4.392,3.597-7.987,7.988-7.987h-7.988c-4.392,0-7.987,3.596-7.987,7.987v23.804   c0,4.392,3.596,7.987,7.987,7.987h7.988C127.404,123.806,123.807,120.21,123.807,115.819z" data-original="#000000" class="" style="fill:#000000"/>
</g><path style="fill:#B29E5E" d="M155.757,379.408h71.889v8.947v94.891c0,4.393-3.597,7.988-7.988,7.988h-55.912  c-4.392,0-7.988-3.596-7.988-7.988v-95.85L155.757,379.408L155.757,379.408z" data-original="#ED5565" class="active-path" data-old_color="#D6BB64"/><g style="opacity:0.3;">
	<path style="fill:#FFFFFF" d="M163.746,483.246v-95.85h-7.988v95.85c0,4.393,3.597,7.988,7.988,7.988h7.987   C167.341,491.234,163.746,487.638,163.746,483.246z" data-original="#FFFFFF" class=""/>
</g><g style="opacity:0.2;">
	<path d="M219.658,483.246v-95.85h7.988v95.85c0,4.393-3.597,7.988-7.988,7.988h-7.987   C216.062,491.234,219.658,487.638,219.658,483.246z" data-original="#000000" class="" style="fill:#000000"/>
</g><g style="opacity:0.2;">
	<rect x="123.802" y="179.721" width="111.83" height="7.987" data-original="#000000" class="" style="fill:#000000"/>
</g><g style="opacity:0.2;">
	<rect x="3.994" y="51.921" width="55.913" height="7.988" data-original="#000000" class="" style="fill:#000000"/>
</g><rect x="307.522" y="43.931" style="fill:#AAB2BD" width="23.963" height="15.976" data-original="#AAB2BD" class=""/><g style="opacity:0.2;">
	<rect x="307.522" y="51.921" width="23.963" height="7.988" data-original="#000000" class="" style="fill:#000000"/>
</g><g style="opacity:0.2;">
	<rect x="395.382" y="59.901" width="39.938" height="7.987" data-original="#000000" class="" style="fill:#000000"/>
</g><g style="opacity:0.2;">
	<rect x="155.762" y="379.411" width="71.889" height="7.988" data-original="#000000" class="" style="fill:#000000"/>
</g><g style="opacity:0.2;">
	<rect x="435.322" y="75.881" width="7.987" height="79.876" data-original="#000000" class="" style="fill:#000000"/>
</g><g style="opacity:0.2;">
	<rect x="459.282" y="91.851" width="7.987" height="47.925" data-original="#000000" class="" style="fill:#000000"/>
</g><g style="opacity:0.2;">
	<rect x="19.969" y="91.851" width="39.938" height="23.963" data-original="#000000" class="" style="fill:#000000"/>
</g><g style="opacity:0.2;">
	<rect x="51.922" y="27.955" width="7.987" height="23.962" data-original="#000000" class="" style="fill:#000000"/>
</g><g style="opacity:0.2;">
	<rect x="323.492" y="43.931" width="7.987" height="7.987" data-original="#000000" class="" style="fill:#000000"/>
</g><g style="opacity:0.5;">
	<rect x="307.522" y="43.931" style="fill:#FFFFFF" width="7.987" height="7.987" data-original="#FFFFFF" class=""/>
</g><g style="opacity:0.2;">
	<rect x="427.332" y="27.955" width="7.988" height="31.95" data-original="#000000" class="" style="fill:#000000"/>
</g><g style="opacity:0.5;">
	<rect x="467.272" y="91.851" style="fill:#FFFFFF" width="39.938" height="7.987" data-original="#FFFFFF" class=""/>
</g><g>
	<path style="fill:#3A3847" d="M507.21,95.849h-39.938c-2.207,0-3.993-1.786-3.993-3.993c0-2.208,1.786-3.994,3.993-3.994h39.938   c2.208,0,3.993,1.786,3.993,3.994C511.204,94.063,509.418,95.849,507.21,95.849z" data-original="#3A3847" class=""/>
	<path style="fill:#3A3847" d="M507.21,143.775h-39.938c-2.207,0-3.993-1.786-3.993-3.994c0-2.207,1.786-3.993,3.993-3.993h39.938   c2.208,0,3.993,1.786,3.993,3.993C511.204,141.989,509.418,143.775,507.21,143.775z" data-original="#3A3847" class=""/>
	<path style="fill:#3A3847" d="M459.285,151.762c-2.207,0-3.993-1.786-3.993-3.993V83.868c0-2.207,1.786-3.993,3.993-3.993   c2.208,0,3.994,1.786,3.994,3.993v63.901C463.279,149.976,461.493,151.762,459.285,151.762z" data-original="#3A3847" class=""/>
	<path style="fill:#3A3847" d="M347.459,63.899H3.994c-2.207,0-3.993-1.786-3.993-3.993c0-2.208,1.786-3.994,3.993-3.994H347.46   c2.207,0,3.993,1.786,3.993,3.994C351.453,62.113,349.666,63.899,347.459,63.899z" data-original="#3A3847" class=""/>
	<path style="fill:#3A3847" d="M363.434,72.046c-0.616,0-1.232-0.14-1.817-0.437l-15.976-8.147   c-1.965-1.002-2.745-3.405-1.739-5.37c0.999-1.97,3.417-2.742,5.375-1.744l15.975,8.147c1.966,1.003,2.746,3.405,1.739,5.371   C366.29,71.251,364.885,72.046,363.434,72.046z" data-original="#3A3847" class=""/>
	<path style="fill:#3A3847" d="M435.323,72.046h-71.889c-2.207,0-3.994-1.786-3.994-3.993c0-2.208,1.787-3.994,3.994-3.994h71.889   c2.207,0,3.993,1.786,3.993,3.994C439.316,70.26,437.53,72.046,435.323,72.046z" data-original="#3A3847" class=""/>
	<path style="fill:#3A3847" d="M379.41,175.725h-7.987c-2.208,0-3.994-1.786-3.994-3.994c0-2.207,1.786-3.993,3.994-3.993h7.987   c2.207,0,3.993,1.786,3.993,3.993C383.403,173.939,381.617,175.725,379.41,175.725z" data-original="#3A3847" class=""/>
	<path style="fill:#3A3847" d="M355.447,183.712c-1.459,0-2.87-0.807-3.573-2.207c-0.982-1.974-0.187-4.372,1.787-5.359   l15.975-7.987c1.981-0.982,4.368-0.191,5.359,1.786c0.982,1.974,0.188,4.372-1.787,5.359l-15.975,7.987   C356.656,183.577,356.047,183.712,355.447,183.712z" data-original="#3A3847" class=""/>
	<path style="fill:#3A3847" d="M355.447,183.712H91.857c-2.207,0-3.993-1.786-3.993-3.993c0-2.208,1.786-3.994,3.993-3.994h263.59   c2.207,0,3.993,1.786,3.993,3.994C359.44,181.926,357.654,183.712,355.447,183.712z" data-original="#3A3847" class=""/>
	<path style="fill:#3A3847" d="M91.857,183.712c-0.601,0-1.209-0.136-1.786-0.421l-47.925-23.963   c-1.974-0.986-2.77-3.385-1.787-5.358c0.991-1.974,3.386-2.754,5.359-1.786l47.925,23.962c1.974,0.987,2.77,3.386,1.787,5.359   C94.728,182.906,93.316,183.712,91.857,183.712z" data-original="#3A3847" class=""/>
	<path style="fill:#3A3847" d="M43.932,159.749c-2.208,0-3.994-1.786-3.994-3.993v-7.987c0-2.208,1.786-3.994,3.994-3.994   c2.207,0,3.993,1.786,3.993,3.994v7.987C47.925,157.963,46.139,159.749,43.932,159.749z" data-original="#3A3847" class=""/>
	<path style="fill:#3A3847" d="M43.932,151.762H3.994c-2.207,0-3.993-1.786-3.993-3.993c0-2.208,1.786-3.994,3.993-3.994h39.938   c2.207,0,3.993,1.786,3.993,3.994C47.925,149.976,46.139,151.762,43.932,151.762z" data-original="#3A3847" class=""/>
	<path style="fill:#3A3847" d="M507.21,143.775c-2.208,0-3.994-1.786-3.994-3.994V91.856c0-2.208,1.786-3.994,3.994-3.994   s3.993,1.786,3.993,3.994v47.925C511.204,141.989,509.418,143.775,507.21,143.775z" data-original="#3A3847" class=""/>
	<path style="fill:#3A3847" d="M459.285,87.862c-2.207,0-3.993-1.786-3.993-3.994c0-2.203-1.795-3.993-3.994-3.993   c-2.207,0-3.994-1.786-3.994-3.994c0-2.207,1.787-3.993,3.994-3.993c6.607,0,11.981,5.374,11.981,11.98   C463.279,86.076,461.493,87.862,459.285,87.862z" data-original="#3A3847" class=""/>
	<path style="fill:#3A3847" d="M451.297,159.749c-2.207,0-3.994-1.786-3.994-3.993c0-2.208,1.787-3.994,3.994-3.994   c2.199,0,3.994-1.79,3.994-3.993c0-2.208,1.786-3.994,3.993-3.994c2.208,0,3.994,1.786,3.994,3.994   C463.279,154.375,457.905,159.749,451.297,159.749z" data-original="#3A3847" class=""/>
	<path style="fill:#3A3847" d="M451.297,79.874h-7.987c-2.208,0-3.994-1.786-3.994-3.994c0-2.207,1.786-3.993,3.994-3.993h7.987   c2.207,0,3.994,1.786,3.994,3.993C455.291,78.088,453.504,79.874,451.297,79.874z" data-original="#3A3847" class=""/>
	<path style="fill:#3A3847" d="M451.297,159.749h-7.987c-2.208,0-3.994-1.786-3.994-3.993c0-2.208,1.786-3.994,3.994-3.994h7.987   c2.207,0,3.994,1.786,3.994,3.994C455.291,157.963,453.504,159.749,451.297,159.749z" data-original="#3A3847" class=""/>
	<path style="fill:#3A3847" d="M435.323,167.738c-2.208,0-3.994-1.786-3.994-3.994v-95.69c0-2.208,1.786-3.994,3.994-3.994   c2.207,0,3.993,1.786,3.993,3.994v95.69C439.316,165.952,437.53,167.738,435.323,167.738z" data-original="#3A3847" class=""/>
	<path style="fill:#3A3847" d="M3.994,151.762c-2.207,0-3.993-1.786-3.993-3.993V59.906c0-2.208,1.786-3.994,3.993-3.994   c2.208,0,3.994,1.786,3.994,3.994v87.863C7.988,149.976,6.202,151.762,3.994,151.762z" data-original="#3A3847" class=""/>
	<path style="fill:#3A3847" d="M3.994,55.912c-2.207,0-3.993-1.786-3.993-3.994v-7.987c0-2.207,1.786-3.993,3.993-3.993   c2.208,0,3.994,1.786,3.994,3.993v7.987C7.988,54.125,6.202,55.912,3.994,55.912z" data-original="#3A3847" class=""/>
	<path style="fill:#3A3847" d="M3.994,47.924c-1.021,0-2.043-0.391-2.823-1.17c-1.561-1.561-1.561-4.088,0-5.647l15.974-15.976   c1.561-1.56,4.088-1.56,5.647,0c1.561,1.561,1.561,4.088,0,5.647L6.818,46.754C6.038,47.534,5.016,47.924,3.994,47.924z" data-original="#3A3847" class=""/>
	<path style="fill:#3A3847" d="M59.907,31.949H19.969c-2.208,0-3.994-1.786-3.994-3.993c0-2.208,1.786-3.994,3.994-3.994h39.938   c2.208,0,3.994,1.786,3.994,3.994C63.901,30.163,62.115,31.949,59.907,31.949z" data-original="#3A3847" class=""/>
	<path style="fill:#3A3847" d="M59.907,55.912c-2.207,0-3.993-1.786-3.993-3.994V27.955c0-2.208,1.786-3.994,3.993-3.994   c2.208,0,3.994,1.786,3.994,3.994v23.962C63.901,54.125,62.115,55.912,59.907,55.912z" data-original="#3A3847" class=""/>
	<path style="fill:#3A3847" d="M435.323,63.899c-2.208,0-3.994-1.786-3.994-3.993v-31.95c0-2.208,1.786-3.994,3.994-3.994   c2.207,0,3.993,1.786,3.993,3.994v31.95C439.316,62.113,437.53,63.899,435.323,63.899z" data-original="#3A3847" class=""/>
	<path style="fill:#3A3847" d="M435.323,31.949H411.36c-2.208,0-3.994-1.786-3.994-3.993c0-2.208,1.786-3.994,3.994-3.994h23.963   c2.207,0,3.993,1.786,3.993,3.994C439.316,30.163,437.53,31.949,435.323,31.949z" data-original="#3A3847" class=""/>
	<path style="fill:#3A3847" d="M395.384,47.924c-1.021,0-2.044-0.391-2.823-1.17c-1.561-1.561-1.561-4.088,0-5.647l15.975-15.976   c1.561-1.56,4.088-1.56,5.647,0c1.561,1.561,1.561,4.088,0,5.647l-15.975,15.976C397.428,47.534,396.407,47.924,395.384,47.924z" data-original="#3A3847" class=""/>
	<path style="fill:#3A3847" d="M395.384,63.899c-2.207,0-3.993-1.786-3.993-3.993V43.93c0-2.207,1.786-3.993,3.993-3.993   c2.208,0,3.994,1.786,3.994,3.993v15.976C399.378,62.113,397.592,63.899,395.384,63.899z" data-original="#3A3847" class=""/>
	<path style="fill:#3A3847" d="M331.484,47.924h-23.963c-2.207,0-3.993-1.786-3.993-3.994c0-2.207,1.786-3.993,3.993-3.993h23.963   c2.208,0,3.994,1.786,3.994,3.993C335.478,46.138,333.692,47.924,331.484,47.924z" data-original="#3A3847" class=""/>
	<path style="fill:#3A3847" d="M331.484,55.912c-2.208,0-3.993-1.786-3.993-3.994v-31.95c0-2.207,1.785-3.993,3.993-3.993   s3.994,1.786,3.994,3.993v31.95C335.478,54.125,333.692,55.912,331.484,55.912z" data-original="#3A3847" class=""/>
	<path style="fill:#3A3847" d="M307.521,55.912c-2.207,0-3.993-1.786-3.993-3.994v-7.987c0-2.207,1.786-3.993,3.993-3.993   c2.208,0,3.994,1.786,3.994,3.993v7.987C311.515,54.125,309.729,55.912,307.521,55.912z" data-original="#3A3847" class=""/>
	<path style="fill:#3A3847" d="M379.41,175.725c-1.022,0-2.044-0.39-2.824-1.17c-1.56-1.561-1.56-4.088,0-5.647l7.987-7.987   c1.561-1.561,4.088-1.561,5.648,0c1.56,1.56,1.56,4.087,0,5.647l-7.988,7.987C381.454,175.335,380.431,175.725,379.41,175.725z" data-original="#3A3847" class=""/>
	<path style="fill:#3A3847" d="M403.372,175.725h-7.987c-2.207,0-3.993-1.786-3.993-3.994c0-2.207,1.786-3.993,3.993-3.993h7.987   c2.208,0,3.994,1.786,3.994,3.993C407.366,173.939,405.58,175.725,403.372,175.725z" data-original="#3A3847" class=""/>
	<path style="fill:#3A3847" d="M403.372,175.725c-1.021,0-2.043-0.39-2.823-1.17c-1.56-1.561-1.56-4.088,0-5.647l7.987-7.987   c1.561-1.561,4.088-1.561,5.647,0c1.561,1.56,1.561,4.087,0,5.647l-7.987,7.987C405.415,175.335,404.394,175.725,403.372,175.725z" data-original="#3A3847" class=""/>
	<path style="fill:#3A3847" d="M427.334,175.725h-7.987c-2.208,0-3.994-1.786-3.994-3.994c0-2.207,1.786-3.993,3.994-3.993h7.987   c2.208,0,3.994,1.786,3.994,3.993C431.329,173.939,429.542,175.725,427.334,175.725z" data-original="#3A3847" class=""/>
	<path style="fill:#3A3847" d="M427.334,175.725c-1.021,0-2.043-0.39-2.823-1.17c-1.561-1.561-1.561-4.088,0-5.647l7.987-7.987   c1.561-1.561,4.088-1.561,5.647,0c1.56,1.56,1.56,4.087,0,5.647l-7.987,7.987C429.378,175.335,428.357,175.725,427.334,175.725z" data-original="#3A3847" class=""/>
	<path style="fill:#3A3847" d="M115.82,71.887c-1.021,0-2.044-0.391-2.823-1.171c-1.561-1.56-1.561-4.087,0-5.647l7.987-7.987   c1.56-1.56,4.087-1.56,5.647,0c1.56,1.561,1.56,4.088,0,5.647l-7.987,7.987C117.864,71.497,116.841,71.887,115.82,71.887z" data-original="#3A3847" class=""/>
	<path style="fill:#3A3847" d="M139.783,71.887c-1.022,0-2.044-0.391-2.824-1.171c-1.56-1.56-1.56-4.087,0-5.647l7.988-7.987   c1.56-1.56,4.087-1.56,5.647,0c1.56,1.561,1.56,4.088,0,5.647l-7.988,7.987C141.827,71.497,140.804,71.887,139.783,71.887z" data-original="#3A3847" class=""/>
	<path style="fill:#3A3847" d="M163.746,71.887c-1.022,0-2.044-0.391-2.824-1.171c-1.56-1.56-1.56-4.087,0-5.647l7.987-7.987   c1.561-1.56,4.088-1.56,5.647,0c1.561,1.561,1.561,4.088,0,5.647l-7.987,7.987C165.789,71.497,164.767,71.887,163.746,71.887z" data-original="#3A3847" class=""/>
	<path style="fill:#3A3847" d="M187.707,71.887c-1.021,0-2.043-0.391-2.823-1.171c-1.561-1.56-1.561-4.087,0-5.647l7.987-7.987   c1.561-1.56,4.088-1.56,5.647,0c1.561,1.561,1.561,4.088,0,5.647l-7.987,7.987C189.751,71.497,188.73,71.887,187.707,71.887z" data-original="#3A3847" class=""/>
	<path style="fill:#3A3847" d="M211.67,71.887c-1.021,0-2.044-0.391-2.823-1.171c-1.561-1.56-1.561-4.087,0-5.647l7.987-7.987   c1.561-1.56,4.087-1.56,5.647,0c1.56,1.561,1.56,4.088,0,5.647l-7.987,7.987C213.714,71.497,212.693,71.887,211.67,71.887z" data-original="#3A3847" class=""/>
	<path style="fill:#3A3847" d="M235.633,71.887c-1.021,0-2.044-0.391-2.823-1.171c-1.561-1.56-1.561-4.087,0-5.647l7.987-7.987   c1.56-1.56,4.087-1.56,5.647,0c1.56,1.561,1.56,4.088,0,5.647l-7.987,7.987C237.677,71.497,236.655,71.887,235.633,71.887z" data-original="#3A3847" class=""/>
	<path style="fill:#3A3847" d="M259.596,71.887c-1.022,0-2.044-0.391-2.824-1.171c-1.56-1.56-1.56-4.087,0-5.647l7.988-7.987   c1.56-1.56,4.087-1.56,5.646,0c1.561,1.561,1.561,4.088,0,5.647l-7.987,7.987C261.639,71.497,260.618,71.887,259.596,71.887z" data-original="#3A3847" class=""/>
	<path style="fill:#3A3847" d="M115.82,96.009c-2.207,0-3.994-1.786-3.994-3.994c0-6.606,5.375-11.98,11.981-11.98   c2.208,0,3.994,1.786,3.994,3.993c0,2.208-1.786,3.994-3.994,3.994c-2.199,0-3.993,1.79-3.993,3.993   C119.814,94.223,118.028,96.009,115.82,96.009z" data-original="#3A3847" class=""/>
	<path style="fill:#3A3847" d="M123.807,127.799c-6.606,0-11.981-5.374-11.981-11.98c0-2.208,1.787-3.994,3.994-3.994   c2.208,0,3.994,1.786,3.994,3.994c0,2.203,1.794,3.993,3.993,3.993c2.208,0,3.994,1.786,3.994,3.994   C127.801,126.013,126.015,127.799,123.807,127.799z" data-original="#3A3847" class=""/>
	<path style="fill:#3A3847" d="M115.82,119.812c-2.207,0-3.994-1.786-3.994-3.993V92.015c0-2.207,1.787-3.993,3.994-3.993   c2.208,0,3.994,1.786,3.994,3.993v23.804C119.814,118.026,118.028,119.812,115.82,119.812z" data-original="#3A3847" class=""/>
	<path style="fill:#3A3847" d="M195.696,127.799c-2.208,0-3.994-1.786-3.994-3.993c0-2.208,1.786-3.994,3.994-3.994   c2.199,0,3.993-1.79,3.993-3.993c0-2.208,1.786-3.994,3.994-3.994c2.207,0,3.994,1.786,3.994,3.994   C207.677,122.425,202.302,127.799,195.696,127.799z" data-original="#3A3847" class=""/>
	<path style="fill:#3A3847" d="M203.683,96.009c-2.208,0-3.994-1.786-3.994-3.994c0-2.203-1.794-3.993-3.993-3.993   c-2.208,0-3.994-1.786-3.994-3.994c0-2.207,1.786-3.993,3.994-3.993c6.606,0,11.981,5.374,11.981,11.98   C207.677,94.223,205.89,96.009,203.683,96.009z" data-original="#3A3847" class=""/>
	<path style="fill:#3A3847" d="M203.683,119.812c-2.208,0-3.994-1.786-3.994-3.993V92.015c0-2.207,1.786-3.993,3.994-3.993   c2.207,0,3.994,1.786,3.994,3.993v23.804C207.677,118.026,205.89,119.812,203.683,119.812z" data-original="#3A3847" class=""/>
	<path style="fill:#3A3847" d="M195.696,127.799h-71.889c-2.207,0-3.993-1.786-3.993-3.993c0-2.208,1.786-3.994,3.993-3.994h71.889   c2.207,0,3.993,1.786,3.993,3.994C199.689,126.013,197.903,127.799,195.696,127.799z" data-original="#3A3847" class=""/>
	<path style="fill:#3A3847" d="M195.696,88.022h-71.889c-2.207,0-3.993-1.786-3.993-3.994c0-2.207,1.786-3.993,3.993-3.993h71.889   c2.207,0,3.993,1.786,3.993,3.993C199.689,86.236,197.903,88.022,195.696,88.022z" data-original="#3A3847" class=""/>
	<path style="fill:#3A3847" d="M307.521,95.849h-87.863c-2.207,0-3.993-1.786-3.993-3.993c0-2.208,1.786-3.994,3.993-3.994h87.863   c2.208,0,3.994,1.786,3.994,3.994C311.515,94.063,309.729,95.849,307.521,95.849z" data-original="#3A3847" class=""/>
	<path style="fill:#3A3847" d="M307.521,119.812h-87.863c-2.207,0-3.993-1.786-3.993-3.993c0-2.208,1.786-3.994,3.993-3.994h87.863   c2.208,0,3.994,1.786,3.994,3.994C311.515,118.026,309.729,119.812,307.521,119.812z" data-original="#3A3847" class=""/>
	<path style="fill:#3A3847" d="M123.807,167.738c-6.606,0-11.981-5.375-11.981-11.981c0-6.607,5.375-11.981,11.981-11.981   c2.208,0,3.994,1.786,3.994,3.994c0,2.207-1.786,3.993-3.994,3.993c-2.199,0-3.993,1.79-3.993,3.994   c0,2.203,1.794,3.993,3.993,3.993c2.208,0,3.994,1.787,3.994,3.994C127.801,165.952,126.015,167.738,123.807,167.738z" data-original="#3A3847" class=""/>
	<path style="fill:#3A3847" d="M299.534,167.738c-2.207,0-3.994-1.786-3.994-3.994c0-2.207,1.787-3.994,3.994-3.994   c2.199,0,3.994-1.79,3.994-3.993c0-2.204-1.795-3.994-3.994-3.994c-2.207,0-3.994-1.786-3.994-3.993   c0-2.208,1.787-3.994,3.994-3.994c6.607,0,11.981,5.374,11.981,11.981C311.515,162.363,306.141,167.738,299.534,167.738z" data-original="#3A3847" class=""/>
	<path style="fill:#3A3847" d="M299.534,151.762H123.807c-2.207,0-3.993-1.786-3.993-3.993c0-2.208,1.786-3.994,3.993-3.994   h175.727c2.207,0,3.994,1.786,3.994,3.994C303.528,149.976,301.741,151.762,299.534,151.762z" data-original="#3A3847" class=""/>
	<path style="fill:#3A3847" d="M299.534,167.738H123.807c-2.207,0-3.993-1.786-3.993-3.994c0-2.207,1.786-3.994,3.993-3.994   h175.727c2.207,0,3.994,1.787,3.994,3.994C303.528,165.952,301.741,167.738,299.534,167.738z" data-original="#3A3847" class=""/>
	<path style="fill:#3A3847" d="M59.907,95.849H19.969c-2.208,0-3.994-1.786-3.994-3.993c0-2.208,1.786-3.994,3.994-3.994h39.938   c2.208,0,3.994,1.786,3.994,3.994C63.901,94.063,62.115,95.849,59.907,95.849z" data-original="#3A3847" class=""/>
	<path style="fill:#3A3847" d="M59.907,119.812c-2.207,0-3.993-1.786-3.993-3.993V91.856c0-2.208,1.786-3.994,3.993-3.994   c2.208,0,3.994,1.786,3.994,3.994v23.963C63.901,118.026,62.115,119.812,59.907,119.812z" data-original="#3A3847" class=""/>
	<path style="fill:#3A3847" d="M59.907,119.812H19.969c-2.208,0-3.994-1.786-3.994-3.993c0-2.208,1.786-3.994,3.994-3.994h39.938   c2.208,0,3.994,1.786,3.994,3.994C63.901,118.026,62.115,119.812,59.907,119.812z" data-original="#3A3847" class=""/>
	<path style="fill:#3A3847" d="M363.434,87.862c-2.207,0-3.994-1.786-3.994-3.994V68.053c0-2.208,1.787-3.994,3.994-3.994   s3.994,1.786,3.994,3.994v15.814C367.428,86.076,365.641,87.862,363.434,87.862z" data-original="#3A3847" class=""/>
	<path style="fill:#3A3847" d="M403.372,87.862h-39.938c-2.207,0-3.994-1.786-3.994-3.994c0-2.207,1.787-3.993,3.994-3.993h39.938   c2.208,0,3.994,1.786,3.994,3.993C407.366,86.076,405.58,87.862,403.372,87.862z" data-original="#3A3847" class=""/>
	<path style="fill:#3A3847" d="M275.571,263.588c-0.616,0-1.225-0.141-1.786-0.421l-31.95-15.976   c-1.974-0.986-2.769-3.386-1.786-5.358c0.99-1.97,3.394-2.762,5.358-1.787l30.469,15.234l65.951-21.981l-5.928-11.856   c-0.273-0.554-0.421-1.166-0.421-1.786v-23.963c0-1.061,0.421-2.075,1.17-2.823l7.987-7.988c1.561-1.56,4.088-1.56,5.647,0   c1.56,1.561,1.56,4.088,0,5.647l-6.817,6.818v21.364l7.566,15.133c0.515,1.038,0.562,2.247,0.117,3.315   c-0.445,1.068-1.326,1.896-2.426,2.258l-71.889,23.963C276.421,263.522,276,263.588,275.571,263.588z" data-original="#3A3847" class=""/>
	<path style="fill:#3A3847" d="M139.783,383.402c-1.677,0-3.237-1.061-3.791-2.746c-15.25-46.303-6.061-93.479,1.318-131.385   c3.276-16.802,6.131-31.439,6.436-43.472l-22.153-14.77c-1.833-1.225-2.332-3.701-1.107-5.539c1.232-1.837,3.721-2.32,5.538-1.107   l23.963,15.976c1.107,0.741,1.778,1.989,1.778,3.322c0,13.187-3.065,28.912-6.607,47.118c-7.207,36.993-16.178,83.031-1.583,127.36   c0.694,2.091-0.445,4.353-2.543,5.039C140.618,383.339,140.196,383.402,139.783,383.402z" data-original="#3A3847" class=""/>
	<path style="fill:#3A3847" d="M235.633,383.402c-2.207,0-3.994-1.786-3.994-3.994V187.706c0-2.208,1.787-3.994,3.994-3.994   s3.994,1.786,3.994,3.994v191.701C239.627,381.616,237.84,383.402,235.633,383.402z" data-original="#3A3847" class=""/>
	<path style="fill:#3A3847" d="M243.621,383.402H139.783c-2.208,0-3.994-1.786-3.994-3.994c0-2.207,1.786-3.994,3.994-3.994   h103.838c2.208,0,3.994,1.787,3.994,3.994C247.615,381.616,245.829,383.402,243.621,383.402z" data-original="#3A3847" class=""/>
	<path style="fill:#3A3847" d="M131.795,247.613c-2.208,0-3.994-1.786-3.994-3.993v-39.939c0-2.207,1.786-3.993,3.994-3.993   c2.207,0,3.993,1.786,3.993,3.993v39.938C135.789,245.827,134.002,247.613,131.795,247.613z" data-original="#3A3847" class=""/>
	<path style="fill:#3A3847" d="M219.658,367.426h-68.776c-2.207,0-3.993-1.786-3.993-3.993c0-2.208,1.786-3.994,3.993-3.994h68.775   c2.208,0,3.994,1.786,3.994,3.994C223.652,365.64,221.866,367.426,219.658,367.426z" data-original="#3A3847" class=""/>
	<path style="fill:#3A3847" d="M219.658,351.452h-71.567c-2.208,0-3.994-1.786-3.994-3.994s1.786-3.993,3.994-3.993h71.567   c2.208,0,3.994,1.785,3.994,3.993S221.866,351.452,219.658,351.452z" data-original="#3A3847" class=""/>
	<path style="fill:#3A3847" d="M219.658,335.476H147.77c-2.207,0-3.994-1.786-3.994-3.994c0-2.207,1.787-3.993,3.994-3.993h71.888   c2.208,0,3.994,1.786,3.994,3.993C223.652,333.69,221.866,335.476,219.658,335.476z" data-original="#3A3847" class=""/>
	<path style="fill:#3A3847" d="M219.658,319.501H147.77c-2.207,0-3.994-1.787-3.994-3.994s1.787-3.994,3.994-3.994h71.888   c2.208,0,3.994,1.787,3.994,3.994S221.866,319.501,219.658,319.501z" data-original="#3A3847" class=""/>
	<path style="fill:#3A3847" d="M219.658,303.526h-63.9c-2.207,0-3.993-1.786-3.993-3.993c0-2.208,1.786-3.994,3.993-3.994h63.9   c2.208,0,3.994,1.786,3.994,3.994C223.652,301.74,221.866,303.526,219.658,303.526z" data-original="#3A3847" class=""/>
	<path style="fill:#3A3847" d="M219.658,287.55h-47.925c-2.208,0-3.994-1.785-3.994-3.993s1.786-3.994,3.994-3.994h47.925   c2.208,0,3.994,1.786,3.994,3.994S221.866,287.55,219.658,287.55z" data-original="#3A3847" class=""/>
	<path style="fill:#3A3847" d="M219.658,271.576h-31.95c-2.207,0-3.993-1.786-3.993-3.994c0-2.207,1.786-3.993,3.993-3.993h31.95   c2.208,0,3.994,1.786,3.994,3.993C223.652,269.789,221.866,271.576,219.658,271.576z" data-original="#3A3847" class=""/>
	<path style="fill:#3A3847" d="M219.658,255.601h-15.975c-2.208,0-3.994-1.786-3.994-3.994c0-2.207,1.786-3.994,3.994-3.994h15.975   c2.208,0,3.994,1.787,3.994,3.994C223.652,253.815,221.866,255.601,219.658,255.601z" data-original="#3A3847" class=""/>
	<path style="fill:#3A3847" d="M299.534,231.638c-35.944,0-35.944-28.577-35.944-43.932c0-2.208,1.786-3.994,3.994-3.994   s3.993,1.786,3.993,3.994c0,16.014,0,35.944,27.957,35.944c2.207,0,3.994,1.786,3.994,3.993   C303.528,229.852,301.741,231.638,299.534,231.638z" data-original="#3A3847" class=""/>
	<path style="fill:#3A3847" d="M227.646,487.24c-2.208,0-3.994-1.786-3.994-3.994v-95.85c0-2.208,1.786-3.994,3.994-3.994   c2.207,0,3.993,1.786,3.993,3.994v95.85C231.639,485.454,229.853,487.24,227.646,487.24z" data-original="#3A3847" class=""/>
	<path style="fill:#3A3847" d="M155.757,487.24c-2.207,0-3.993-1.786-3.993-3.994v-95.85c0-2.208,1.786-3.994,3.993-3.994   c2.208,0,3.994,1.786,3.994,3.994v95.85C159.751,485.454,157.965,487.24,155.757,487.24z" data-original="#3A3847" class=""/>
	<path style="fill:#3A3847" d="M163.746,495.228c-6.607,0-11.981-5.375-11.981-11.982c0-2.207,1.786-3.993,3.993-3.993   c2.208,0,3.994,1.786,3.994,3.993c0,2.2,1.794,3.994,3.994,3.994c2.207,0,3.993,1.787,3.993,3.994S165.953,495.228,163.746,495.228   z" data-original="#3A3847" class=""/>
	<path style="fill:#3A3847" d="M219.658,495.228c-2.207,0-3.993-1.787-3.993-3.994s1.786-3.994,3.993-3.994   c2.2,0,3.994-1.794,3.994-3.994c0-2.207,1.786-3.993,3.994-3.993c2.207,0,3.993,1.786,3.993,3.993   C231.639,489.853,226.265,495.228,219.658,495.228z" data-original="#3A3847" class=""/>
	<path style="fill:#3A3847" d="M219.658,495.228h-55.912c-2.208,0-3.994-1.787-3.994-3.994s1.786-3.994,3.994-3.994h55.912   c2.208,0,3.994,1.787,3.994,3.994S221.866,495.228,219.658,495.228z" data-original="#3A3847" class=""/>
	<path style="fill:#3A3847" d="M179.72,463.277c-2.207,0-3.993-1.786-3.993-3.993v-71.888c0-2.208,1.786-3.994,3.993-3.994   c2.208,0,3.994,1.786,3.994,3.994v71.888C183.714,461.491,181.928,463.277,179.72,463.277z" data-original="#3A3847" class=""/>
	<path style="fill:#3A3847" d="M195.774,463.277c-2.208,0-3.994-1.786-3.994-3.993v-71.888c0-2.208,1.786-3.994,3.994-3.994   c2.207,0,3.993,1.786,3.993,3.994v71.888C199.767,461.491,197.981,463.277,195.774,463.277z" data-original="#3A3847" class=""/>
</g></g> </svg>
