<svg xmlns="http://www.w3.org/2000/svg" xmlns:xlink="http://www.w3.org/1999/xlink" width="364" height="364" viewBox="0 0 364 364"><defs><path id="bl34a" d="M718 1302c49.706 0 90-40.295 90-90 0-49.706-40.294-90-90-90s-90 40.294-90 90c0 49.705 40.294 90 90 90z"/><path id="bl34b" d="M717.5 1329c64.893 0 117.5-52.607 117.5-117.5 0-64.894-52.607-117.5-117.5-117.5-64.894 0-117.5 52.606-117.5 117.5 0 64.893 52.606 117.5 117.5 117.5z"/><path id="bl34c" d="M717.5 1360c82.014 0 148.5-66.486 148.5-148.5S799.514 1063 717.5 1063 569 1129.486 569 1211.5 635.486 1360 717.5 1360z"/><path id="bl34d" d="M717 1393c99.963 0 181-81.037 181-181 0-99.964-81.037-181-181-181-99.964 0-181 81.036-181 181 0 99.963 81.036 181 181 181z"/></defs><g><g opacity=".4" transform="translate(-535 -1030)"><use fill="#fff" fill-opacity="0" stroke="#cbcbcb" stroke-miterlimit="50" stroke-width="2" xlink:href="#bl34a"/></g><g opacity=".5" transform="translate(-535 -1030)"><use fill="#fff" fill-opacity="0" stroke="#cbcbcb" stroke-dasharray="4 4" stroke-miterlimit="50" stroke-width="2" xlink:href="#bl34b"/></g><g opacity=".3" transform="translate(-535 -1030)"><use fill="#fff" fill-opacity="0" stroke="#cbcbcb" stroke-miterlimit="50" stroke-width="2" xlink:href="#bl34c"/></g><g opacity=".25" transform="translate(-535 -1030)"><use fill="#fff" fill-opacity="0" stroke="#cbcbcb" stroke-dasharray="4 4" stroke-miterlimit="50" stroke-width="2" xlink:href="#bl34d"/></g></g></svg>