<svg xmlns="http://www.w3.org/2000/svg" xmlns:xlink="http://www.w3.org/1999/xlink" width="25" height="25" viewBox="0 0 25 25"><defs><path id="wgr7a" d="M670.658 3789h-18.105a3.34 3.34 0 0 0-3.34 3.34v18.107a3.34 3.34 0 0 0 3.34 3.34h8.93l.014-8.857h-2.3a.543.543 0 0 1-.543-.541l-.012-2.855a.543.543 0 0 1 .543-.546h2.297v-2.759c0-3.201 1.955-4.945 4.811-4.945h2.344c.3 0 .542.244.542.544v2.407c0 .3-.242.543-.542.543h-1.438c-1.553 0-1.854.739-1.854 1.822v2.388h3.413c.325 0 .577.285.539.607l-.339 2.856a.543.543 0 0 1-.539.479h-3.059l-.015 8.858h5.313a3.34 3.34 0 0 0 3.34-3.34v-18.108a3.34 3.34 0 0 0-3.34-3.34z"/></defs><g><g transform="translate(-649 -3789)"><use fill="#475993" xlink:href="#wgr7a"/></g></g></svg>