<svg xmlns="http://www.w3.org/2000/svg" xmlns:xlink="http://www.w3.org/1999/xlink" width="30" height="39" viewBox="0 0 30 39"><defs><path id="jpzka" d="M160 1230a5 5 0 1 0 0-10 5 5 0 0 0 0 10z"/><path id="jpzkb" d="M163.188 1242.278l-2.822 5.95-.369.777h-5.02L151.491 1235l-2.491.625 3.972 15.962h2.009l-2.578 5.704 1.558.709 2.9-6.413h4.252l2.787 6.402 1.568-.686-2.484-5.716h1.805v-2.582h-3.14l.37-.777 1.097-2.318 1.568-3.302H178v-1.5h-14.258z"/><path id="jpzkc" d="M169.375 1238.498l.554-5.904 8.123-1.403.948-.191-.96 10.054h-10.437v-1.487l-.333-.214.017 1.658-3.482-.462-.015-1.528 3.262.19-3.743-2.427-.32 4.196-.224.465-3.635 7.555H155l.858-17.134h5.788zm-3.375 1.209l-.012-.33-.988-.084v.283zm6.791-.371h-.583v.328h.583zm1 0h-.583v.328h.583zm3.209 0h-3v.328h3zm-7-.642l.358.306h7.06l.582-7-7.52 1.298z"/><path id="jpzkd" d="M167.489 1245h-2.82l-1.67 3.496h4.49V1259H172v-14h-.361z"/></defs><g><g transform="translate(-149 -1220)"><use fill="#f3495e" xlink:href="#jpzka"/></g><g transform="translate(-149 -1220)"><use fill="#f3495e" xlink:href="#jpzkb"/></g><g transform="translate(-149 -1220)"><use fill="#f3495e" xlink:href="#jpzkc"/></g><g transform="translate(-149 -1220)"><use fill="#f3495e" xlink:href="#jpzkd"/></g></g></svg>