<svg xmlns="http://www.w3.org/2000/svg" xmlns:xlink="http://www.w3.org/1999/xlink" width="37" height="36" viewBox="0 0 37 36"><defs><path id="3h0ua" d="M967.37 1049.669l-.09-.09a2.188 2.188 0 0 0-3.094.002l-3.33 3.368a.46.46 0 0 1-.639.014l-4.668-4.313a2.439 2.439 0 0 0-1.661-.65h-6.945a.639.639 0 0 0-.44.175l-5.885 5.593c-.862.864-.921 2.256-.131 3.104.422.453.992.702 1.605.702h.01a2.187 2.187 0 0 0 1.597-.703l4.156-4.403h1.488l-9.7 10.851h-5.984c-1.418 0-2.585 1.062-2.655 2.417-.038.708.21 1.38.696 1.894.48.506 1.154.796 1.85.796h8.93a.637.637 0 0 0 .465-.203l4.574-4.887 3.847 4.026-1.161 7.429c-.293 1.23.297 2.484 1.402 2.979a2.539 2.539 0 0 0 2.189-.035 2.552 2.552 0 0 0 1.356-1.733l1.984-10.651a.639.639 0 0 0-.176-.569l-5.295-5.293 4.206-4.204 2.933 2.935c.818.82 2.246.82 3.064 0l5.502-5.506c.406-.407.63-.948.63-1.523a2.14 2.14 0 0 0-.63-1.522z"/><path id="3h0ub" d="M959.5 1050c1.93 0 3.5-1.794 3.5-4s-1.57-4-3.5-4-3.5 1.794-3.5 4 1.57 4 3.5 4z"/></defs><g><g transform="translate(-931 -1042)"><g><use fill="#f3495e" xlink:href="#3h0ua"/></g><g><use fill="#f3495e" xlink:href="#3h0ub"/></g></g></g></svg>