<svg xmlns="http://www.w3.org/2000/svg" xmlns:xlink="http://www.w3.org/1999/xlink" width="24" height="40" viewBox="0 0 24 40"><defs><path id="eij6a" d="M163.5 1038c1.944 0 3.5-1.556 3.5-3.5 0-1.945-1.556-3.5-3.5-3.5a3.485 3.485 0 0 0-3.5 3.5c0 1.944 1.555 3.5 3.5 3.5zm.454 11H173v-3.3h-6.646l-3.692-6.05c-.554-.917-1.662-1.65-2.77-1.65-.369 0-.554 0-.923.183L149 1041.3v9.533h3.324v-6.783l3.877-1.283L149 1071h3.323l5.354-14.85 4.246 5.683V1071h3.323v-11.734l-4.615-8.25 1.292-5.316z"/></defs><g><g transform="translate(-149 -1031)"><use fill="#f3495e" xlink:href="#eij6a"/></g></g></svg>