<?xml version="1.0" encoding="utf-8"?>
<!-- Generator: Adobe Illustrator 19.0.1, SVG Export Plug-In . SVG Version: 6.00 Build 0)  -->
<svg version="1.1" id="Layer_1"
	 xmlns="http://www.w3.org/2000/svg" xmlns:xlink="http://www.w3.org/1999/xlink" x="0px" y="0px" viewBox="0 0 449.8 119.5"
	 style="enable-background:new 0 0 449.8 119.5;" xml:space="preserve">
<style type="text/css">
	.st0{fill-rule:evenodd;clip-rule:evenodd;}
	* {
	fill: #fff;
	}
</style>
<path d="M132.6,77.1c0,0,0.2,0.2,0.6,0.6c0.4,0.4,1,0.9,1.8,1.4c0.8,0.6,1.8,1.2,3,1.7c1.2,0.6,2.6,1.1,4.1,1.4
	c1.6,0.4,3.3,0.6,5.2,0.6c2.2,0,4.2-0.3,6-1c1.7-0.7,3.2-1.6,4.4-2.7c1.2-1.2,2.1-2.5,2.8-4c0.6-1.5,0.9-3.1,0.9-4.8
	c0-1.7-0.3-3.2-0.9-4.4c-0.6-1.3-1.3-2.4-2.3-3.3c-1-0.9-2-1.7-3.2-2.4c-1.2-0.7-2.4-1.3-3.7-1.8c-1.3-0.5-2.5-1.1-3.7-1.6
	c-1.2-0.5-2.3-1-3.2-1.6c-1-0.5-1.7-1.2-2.3-1.9c-0.6-0.7-0.9-1.5-0.9-2.4c0-1,0.3-1.9,0.9-2.7c0.6-0.8,1.3-1.4,2.3-1.8
	c1-0.4,2.1-0.6,3.3-0.7c1.1,0,2.1,0.1,3,0.4c1,0.2,1.8,0.6,2.6,0.9c0.8,0.4,1.5,0.7,2,1.1c0.6,0.4,1,0.7,1.3,0.9
	c0.3,0.3,0.5,0.4,0.5,0.4l3.4-6.3c0,0-0.2-0.2-0.5-0.5c-0.3-0.3-0.9-0.7-1.5-1.1c-0.7-0.5-1.5-0.9-2.6-1.4c-1-0.5-2.2-0.8-3.6-1.1
	c-1.4-0.3-2.9-0.5-4.6-0.5c-2.1,0-3.9,0.3-5.7,0.9c-1.7,0.6-3.2,1.5-4.5,2.6c-1.3,1.1-2.3,2.4-3,3.9c-0.7,1.5-1.1,3.1-1.1,4.9
	c0,1.6,0.3,3.1,0.9,4.3c0.6,1.2,1.3,2.3,2.3,3.2c1,0.9,2,1.7,3.2,2.4c1.2,0.7,2.4,1.3,3.7,1.9c1.3,0.6,2.5,1.1,3.7,1.6
	c1.2,0.5,2.3,1.1,3.2,1.6c1,0.6,1.7,1.2,2.3,1.9c0.6,0.7,0.9,1.5,0.9,2.5c0,1.2-0.3,2.1-0.9,2.9c-0.6,0.8-1.3,1.3-2.3,1.7
	c-0.9,0.4-1.9,0.6-3,0.6c-1.2,0-2.3-0.2-3.4-0.5c-1.1-0.3-2-0.7-2.9-1.1c-0.9-0.5-1.6-0.9-2.3-1.3c-0.6-0.4-1.1-0.8-1.5-1.1
	c-0.4-0.3-0.5-0.5-0.5-0.5L132.6,77.1z"/>
<path d="M174,82.2h8.5l5.2-17.5c0.2-0.6,0.3-1.1,0.4-1.6c0.1-0.5,0.2-0.9,0.2-1.2c0.1-0.3,0.1-0.5,0.1-0.5h0.1c0,0,0,0.2,0.1,0.5
	c0.1,0.3,0.2,0.7,0.3,1.2c0.1,0.5,0.3,1,0.4,1.6l5.2,17.5h8.5l9.3-30.7h-7.9L199,71.6c-0.1,0.6-0.3,1.1-0.4,1.6
	c-0.1,0.5-0.2,0.9-0.2,1.2c-0.1,0.3-0.1,0.5-0.1,0.5h-0.1c0,0,0-0.2-0.1-0.5c-0.1-0.3-0.1-0.7-0.2-1.2c-0.1-0.5-0.2-1-0.4-1.6
	l-5.7-20.1h-6.8l-5.7,20.1c-0.1,0.6-0.3,1.1-0.4,1.6c-0.1,0.5-0.2,0.9-0.3,1.2c-0.1,0.3-0.1,0.5-0.1,0.5h-0.1c0,0,0-0.2-0.1-0.5
	c0-0.3-0.1-0.7-0.2-1.2c-0.1-0.5-0.2-1-0.3-1.6l-5.4-20.1h-8.1L174,82.2z"/>
<path d="M217.4,46.3h7.6v-6.8h-7.6V46.3L217.4,46.3z M217.4,82.2h7.6V51.5h-7.6V82.2z"/>
<path d="M235,82.2h7.6V58.1h6.6V52h-6.6v-1.2c0-1.1,0.2-2,0.6-2.7c0.4-0.7,0.9-1.2,1.5-1.5c0.6-0.3,1.3-0.6,1.9-0.7
	c0.7-0.1,1.3-0.2,1.8-0.2c0.5,0,0.8,0,1.1,0.1c0.3,0,0.4,0,0.4,0.1v-6.4c0,0-0.3-0.1-0.7-0.1c-0.5-0.1-1.1-0.1-1.9-0.1
	c-0.9,0-1.9,0.1-2.9,0.2c-1.1,0.2-2.2,0.5-3.3,0.9c-1.1,0.4-2.1,1.1-3.1,1.9c-1,0.8-1.7,1.9-2.3,3.3c-0.6,1.4-0.9,3-0.9,5V52h-3.8
	v6.1h3.8V82.2z"/>
<path d="M255.6,70.9c0,1.7,0.2,3.2,0.7,4.4c0.4,1.2,1,2.3,1.7,3.1c0.7,0.8,1.5,1.5,2.4,2.1c0.9,0.5,1.8,0.9,2.8,1.2
	c1,0.3,1.9,0.5,2.8,0.6c0.9,0.1,1.7,0.2,2.4,0.1c0.7,0,1.3,0,1.7-0.1c0.4-0.1,0.6-0.1,0.6-0.1v-6.7c0,0-0.1,0-0.4,0.1
	c-0.2,0-0.6,0.1-1,0.1c-0.5,0-1.2-0.1-1.8-0.2c-0.7-0.1-1.4-0.4-2-0.8c-0.6-0.4-1.2-1-1.6-1.7c-0.4-0.8-0.6-1.8-0.7-3V58.1h7V52h-7
	v-8.8h-7.5V52h-4.1v6.1h4V70.9z"/>
<path d="M277.2,82.2h3.8l2.2-27.1c0-0.5,0.1-1.1,0.1-1.7c0-0.6,0-1.2,0-1.8c0-0.6,0-1,0-1.4c0-0.4,0-0.6,0-0.6h0.1
	c0,0,0.1,0.2,0.2,0.6c0.1,0.4,0.3,0.9,0.5,1.4c0.2,0.6,0.4,1.2,0.7,1.8c0.2,0.6,0.5,1.2,0.7,1.7l9.1,19.9h3.6l9.1-19.9
	c0.2-0.5,0.5-1.1,0.7-1.7c0.2-0.6,0.5-1.2,0.7-1.8c0.2-0.6,0.4-1,0.5-1.4c0.1-0.4,0.2-0.6,0.2-0.6h0.1c0,0,0,0.2,0,0.6
	c0,0.3,0,0.8,0,1.4c0,0.6,0,1.1,0,1.8c0,0.6,0,1.2,0.1,1.7l2.1,27.1h3.8l-3.1-38.8h-3.9l-10.1,22.8c-0.2,0.5-0.5,1-0.7,1.6
	c-0.2,0.5-0.4,1.1-0.6,1.5c-0.2,0.5-0.3,0.9-0.5,1.2c-0.1,0.3-0.2,0.5-0.2,0.5h-0.1c0,0-0.1-0.2-0.2-0.5c-0.1-0.3-0.3-0.7-0.4-1.2
	c-0.2-0.5-0.4-1-0.6-1.5c-0.2-0.6-0.4-1.1-0.7-1.6l-10.1-22.8h-4L277.2,82.2z"/>
<path d="M322.3,68.2c0,2.1,0.4,4.1,1.1,5.8c0.8,1.8,1.8,3.3,3.1,4.6c1.3,1.3,2.9,2.3,4.7,3.1c1.8,0.7,3.7,1.1,5.7,1.1
	c2,0,3.9-0.4,5.7-1.1c1.8-0.7,3.3-1.8,4.7-3.1c1.3-1.3,2.4-2.9,3.1-4.6c0.8-1.8,1.1-3.7,1.1-5.8c0-2.1-0.4-4-1.1-5.7
	c-0.8-1.7-1.8-3.3-3.1-4.6c-1.3-1.3-2.9-2.3-4.7-3c-1.8-0.7-3.7-1.1-5.7-1.1c-2,0-3.9,0.4-5.7,1.1c-1.8,0.7-3.3,1.7-4.7,3
	c-1.3,1.3-2.4,2.8-3.1,4.6C322.7,64.2,322.3,66.1,322.3,68.2L322.3,68.2z M326.2,68.2c0-1.6,0.3-3,0.9-4.4c0.6-1.3,1.3-2.5,2.3-3.5
	c1-1,2.1-1.7,3.4-2.3c1.3-0.5,2.7-0.8,4.2-0.8c1.5,0,2.9,0.3,4.2,0.8c1.3,0.6,2.5,1.3,3.4,2.3c1,1,1.8,2.1,2.3,3.5
	c0.6,1.3,0.8,2.8,0.8,4.4c0,1.6-0.3,3.1-0.8,4.5c-0.6,1.4-1.3,2.6-2.3,3.6c-1,1-2.1,1.8-3.4,2.4c-1.3,0.6-2.7,0.8-4.2,0.9
	c-1.5,0-2.9-0.3-4.2-0.9c-1.3-0.6-2.4-1.4-3.4-2.4c-1-1-1.8-2.2-2.3-3.6C326.5,71.3,326.2,69.8,326.2,68.2z"/>
<path d="M359.7,72.1c0,1.8,0.2,3.4,0.7,4.6c0.5,1.2,1,2.2,1.8,3c0.7,0.8,1.5,1.3,2.4,1.7c0.9,0.4,1.7,0.7,2.5,0.8
	c0.8,0.1,1.6,0.2,2.2,0.2c0.5,0,0.9,0,1.2-0.1c0.3,0,0.4-0.1,0.4-0.1v-3.4c0,0-0.1,0-0.3,0.1c-0.2,0-0.5,0.1-0.9,0.1
	c-0.4,0-0.9,0-1.5-0.1c-0.5-0.1-1.1-0.3-1.6-0.6c-0.6-0.3-1.1-0.7-1.5-1.2c-0.5-0.5-0.9-1.2-1.1-2.1c-0.3-0.9-0.4-2-0.5-3.3V57.9
	h6.9v-3.1h-6.9v-8h-3.7v8H356v3.1h3.6V72.1z"/>
<path d="M377,48.1h3.9v-4.7H377V48.1L377,48.1z M377.1,82.2h3.7V54.4h-3.7V82.2z"/>
<path d="M387.9,68.2c0,2.1,0.4,4.1,1.1,5.8c0.8,1.8,1.8,3.3,3.1,4.6c1.3,1.3,2.9,2.3,4.7,3.1c1.8,0.7,3.7,1.1,5.7,1.1
	c2,0,3.9-0.4,5.7-1.1c1.8-0.7,3.3-1.8,4.7-3.1c1.3-1.3,2.4-2.9,3.1-4.6c0.8-1.8,1.1-3.7,1.1-5.8c0-2.1-0.4-4-1.1-5.7
	c-0.8-1.7-1.8-3.3-3.1-4.6c-1.3-1.3-2.9-2.3-4.7-3c-1.8-0.7-3.7-1.1-5.7-1.1c-2,0-3.9,0.4-5.7,1.1c-1.8,0.7-3.3,1.7-4.7,3
	c-1.3,1.3-2.4,2.8-3.1,4.6C388.3,64.2,387.9,66.1,387.9,68.2L387.9,68.2z M391.7,68.2c0-1.6,0.3-3,0.9-4.4c0.6-1.3,1.3-2.5,2.3-3.5
	c1-1,2.1-1.7,3.4-2.3c1.3-0.5,2.7-0.8,4.2-0.8c1.5,0,2.9,0.3,4.2,0.8c1.3,0.6,2.5,1.3,3.4,2.3c1,1,1.8,2.1,2.3,3.5
	c0.6,1.3,0.8,2.8,0.8,4.4c0,1.6-0.3,3.1-0.8,4.5c-0.6,1.4-1.3,2.6-2.3,3.6c-1,1-2.1,1.8-3.4,2.4c-1.3,0.6-2.7,0.8-4.2,0.9
	c-1.5,0-2.9-0.3-4.2-0.9c-1.3-0.6-2.4-1.4-3.4-2.4c-1-1-1.8-2.2-2.3-3.6C392,71.3,391.7,69.8,391.7,68.2z"/>
<path d="M424.2,82.2h3.7V68.9c0-0.7,0-1.3,0.1-1.9c0.1-0.6,0.2-1.2,0.3-1.8c0.4-1.5,1.1-2.9,2.1-4.1c1-1.2,2.2-2.1,3.5-2.8
	c1.4-0.7,2.8-1,4.4-1c1.3,0,2.4,0.2,3.2,0.7c0.8,0.4,1.4,1,1.8,1.8c0.4,0.8,0.7,1.6,0.8,2.6c0.1,1,0.2,2,0.2,3.1v16.6h3.7V64.5
	c0-2.3-0.3-4.2-0.9-5.8c-0.6-1.6-1.6-2.8-2.9-3.7c-1.4-0.8-3.2-1.3-5.4-1.3c-1.3,0-2.5,0.2-3.6,0.5c-1.1,0.3-2,0.7-2.9,1.2
	c-0.8,0.5-1.6,1.1-2.2,1.7c-0.6,0.6-1.1,1.2-1.5,1.9c-0.4,0.6-0.7,1.2-0.9,1.7h-0.1c0,0,0-0.1,0-0.3c0-0.2,0-0.5,0.1-0.8
	c0-0.3,0-0.7,0-1.1v-4.1h-3.7V82.2z"/>
<path class="st0" d="M59.4,40.4c0,7.4,0,14.8,0,22.2c0,1.6,0.6,1,0.6,2.7c-0.4,2.9-1.2,8.2-1.7,11.1c-0.2,2-0.7,3.8-0.9,5.8
	c-0.1,2,0.3,4,0.2,5.9c-0.1,1.7-0.6,3.4-0.7,5.2c-0.1,1.3,0.5,2.4,0.5,3.7c0,0.9,0.5,0.6,0.3,3.1c0.2,0.8,0.2,1.8-0.3,2.6
	c-1.2,0-3.8,0-3.9-0.7c0.2-0.6,0.6-1,0.8-1.6c0.1-0.4,0.2-1,0.4-1.4c0-0.5,0.3-0.8,0.2-1.3c0-0.5-0.1-1.2-0.3-1.7
	c-0.7-2.3-1-3.8-1.3-5.7c-0.5-2.7-0.8-5.3-0.3-6.4c0.2-1.1,0.3-2.1,0.5-3.2c-0.1-1.6-0.1-3.3-0.3-5.2c-0.3-3.5-0.7-7.2,0-10.1
	c0.6-5.1,1.8-8.4,2.3-13.5c-1-2.3-1.7-5-2.6-7.3c-2.5-0.5-5-0.2-7.5-0.7c-1.2,0.1-1.7,0.6-2.9,0.7c-3,0.4-6.3-0.4-9.3,0
	c-0.7,0.1-1.3,0.6-2,0.6c-1.1,0.2-2.4,0.5-2.7,0.3c-0.1-0.5,0.5-0.8,1.4-1c-0.4-0.4-1.6,0.1-2.3,0.1c-0.4,0-0.8-0.1-1.1-0.1
	c-0.4-0.1-1.4,0-1.5-0.2c0.5-0.4,0.7-0.5,1.4-0.7c2.1-0.3,4.9-0.6,7-0.9c2.9-0.4,4.8-1.1,7.7-1.5c2-0.6,3.1,0,3.9,0.1
	c0.6,0,0.9-0.4,1.7-0.5C50.8,40.5,55.1,40.5,59.4,40.4L59.4,40.4z M60.7,40.4c0,7.4,0,14.8,0,22.2c0,1.6-0.6,1-0.6,2.7
	c0.4,2.9,1.2,8.2,1.7,11.1c0.2,2,0.7,3.8,0.9,5.8c0.1,2-0.3,4-0.2,5.9c0.1,1.7,0.6,3.4,0.7,5.2c0.1,1.3-0.5,2.4-0.5,3.7
	c0,0.9-0.5,0.6-0.3,3.1c-0.2,0.8-0.2,1.8,0.3,2.6c1.2,0,3.8,0,3.9-0.7c-0.2-0.6-0.6-1-0.8-1.6c-0.1-0.4-0.2-1-0.4-1.4
	c0-0.5-0.3-0.8-0.2-1.3c0-0.5,0.1-1.2,0.3-1.7c0.7-2.3,1-3.8,1.3-5.7c0.5-2.7,0.8-5.3,0.3-6.4c-0.2-1.1-0.3-2.1-0.5-3.2
	c0.1-1.6,0.1-3.3,0.3-5.2c0.3-3.5,0.7-7.2,0-10.1c-0.6-5.1-1.8-8.4-2.3-13.5c1-2.3,1.7-5,2.6-7.3c2.5-0.5,5-0.2,7.5-0.7
	c1.2,0.1,1.7,0.6,2.9,0.7c3,0.4,6.3-0.4,9.3,0c0.7,0.1,1.3,0.6,2,0.6c1.1,0.2,2.4,0.5,2.7,0.3c0.1-0.5-0.5-0.8-1.4-1
	c0.4-0.4,1.6,0.1,2.3,0.1c0.4,0,0.8-0.1,1.1-0.1c0.4-0.1,1.4,0,1.5-0.2c-0.5-0.4-0.7-0.5-1.4-0.7c-2.1-0.3-4.9-0.6-7-0.9
	c-2.9-0.4-4.8-1.1-7.7-1.5c-2-0.6-3.1,0-3.9,0.1c-0.6,0-0.9-0.4-1.7-0.5C69.2,40.5,65,40.5,60.7,40.4z"/>
<path class="st0" d="M60,27.8c-2.4,0.1-3.6,1.8-3,4.3c-0.7-0.3-0.7,0.5-0.5,1.4c0.2,0.7,0.5,1.4,0.8,1.3c0.3,1.1,0.2,2.1,0.2,3
	c-1.1,0.3-2,1.2-3,1.5c-1.2-0.7-2.2-1.4-4.1-1.4c-2.1-1-2.9-1.6-5.1-2.6c-2-1.5-5.8-2.3-8.8-3.1c-1.3-0.4-3.2-1.4-4.5-1.8
	c-1.5-0.7-2-0.7-3.6-1.4c-0.5,0-1.1-0.2-1.5,0c0.2,0.5,0.8,0.9,1.9,1.4c1.2,0.3,2.1,0.7,2.2,1.2c-0.4,0.3-1.5-0.1-1.9,0.2
	c0.5,0.4,0.9,0.6,1.5,0.7c0.9,0.2,1.5,0.6,2.3,0.6c0.7,0,1.4-0.3,2.2,0c3,1,5.5,3.9,8.8,4.6c2.2,1.8,5.3,4.7,7.6,5.4
	c0.7,1.5,0.4,1.9,1.6,3.4c0.7,2,1,4.2,1.8,6.2c-0.2,1.3-0.4,2.7-0.3,4c0,0.8-0.5,1.3-0.6,2.1c-0.2,0.9-0.2,1.5-0.6,2.2
	c-0.5,1-1,2.1-1.5,3c-1,2-1.6,3.7-2,5.7c-0.5,2.1-0.8,4.2-1.8,6.3c-0.3,0.7-0.4,1.5-0.8,2.1c-1.6,2.4-2.7,4.9-2.9,7.3
	c-0.5,2.5-0.7,5-1.2,7.5c-0.2,0.8-0.9,1.7-1.1,2.4c-0.4,0.2-0.7,0.8-1.1,1c-1,0.6-1.9,0.8-1.5,1.5c0.6,0.5,1.5,0.7,2.1,1.2
	c0.5,0.1,1.1,0.1,1.4-0.2c0.3-0.2,0.6-0.7,0.9-1.2c0.2-0.7,0.9-1.5,1.2-2.4c0.2-0.5,0.3-1.1,0.4-1.6c0.1-0.6,0.3-1.2,0.4-1.8
	c0.9-2.4,1.7-3.7,2.7-5.8c0.8-1.8,0.9-3.7,2.2-5.7c0.7-1.1,1.7-2.7,2.4-3.8c2-3.1,3.8-6.2,5.8-9.3c0.5-0.6,0.9-1.3,1.2-2.4
	c0.3,1,0.7,1.8,1.2,2.4c2,3.1,3.8,6.2,5.8,9.3c0.7,1.1,1.7,2.7,2.4,3.8c1.2,2,1.3,3.9,2.2,5.7c1,2.1,1.8,3.4,2.7,5.8
	c0.1,0.5,0.3,1.2,0.4,1.8c0.1,0.5,0.2,1.1,0.4,1.6c0.3,0.8,1,1.6,1.2,2.4c0.3,0.5,0.6,0.9,0.9,1.2c0.3,0.2,1,0.3,1.4,0.2
	c0.6-0.5,1.5-0.7,2.1-1.2c0.4-0.7-0.5-0.9-1.5-1.5c-0.4-0.2-0.7-0.8-1.1-1c-0.2-0.8-1-1.7-1.1-2.4c-0.5-2.5-0.7-5-1.2-7.5
	c-0.2-2.4-1.3-4.9-2.9-7.3c-0.4-0.7-0.5-1.4-0.8-2.1c-1-2.1-1.3-4.2-1.8-6.3c-0.4-2-1-3.6-2-5.7c-0.5-1-0.9-2-1.5-3
	c-0.4-0.7-0.3-1.3-0.6-2.2c-0.1-0.8-0.6-1.3-0.6-2.1c0-1.2-0.1-2.7-0.3-4c0.7-2,1-4.2,1.8-6.2c1.1-1.5,0.8-1.9,1.6-3.4
	c2.4-0.7,5.4-3.6,7.6-5.4C79.6,37,82,34.1,85,33c0.8-0.3,1.5,0.1,2.2,0c0.7,0,1.4-0.4,2.3-0.6c0.6-0.1,1-0.3,1.5-0.7
	c-0.5-0.3-1.6,0.1-1.9-0.2c0.1-0.5,1-0.9,2.2-1.2c1.1-0.5,1.7-0.9,1.9-1.4c-0.4-0.2-1,0-1.5,0c-1.5,0.7-2,0.7-3.6,1.4
	c-1.3,0.4-3.2,1.4-4.5,1.8c-3,0.8-6.8,1.6-8.8,3.1c-2.1,1-2.9,1.6-5.1,2.6c-1.8,0-2.9,0.6-4.1,1.4c-1.1-0.3-2-1.2-3-1.5
	c0-1-0.1-2,0.2-3c0.3,0.1,0.6-0.6,0.8-1.3c0.2-0.8,0.2-1.7-0.5-1.4C63.7,29.6,62.4,27.9,60,27.8z"/>
<path class="st0" d="M60.1,0c0.4,0,0.8,0,1.2,0C30.6,0.7,5.9,25.8,5.9,56.6c0,31.3,25.3,56.6,56.6,56.6c30.8,0,55.9-24.7,56.6-55.4
	c0,0.4,0,0.8,0,1.2c0,32.6-26.4,59.1-59.1,59.1C27.4,118.1,1,91.7,1,59.1C1,26.4,27.4,0,60.1,0z"/>
<path class="st0" d="M62.7,109.3c-0.4,0-0.7,0-1.1,0c27-0.6,48.7-22.6,48.7-49.8C110.3,32,88,9.7,60.5,9.7
	c-27.1,0-49.2,21.7-49.8,48.7c0-0.4,0-0.7,0-1.1c0-28.7,23.3-52,52-52c28.7,0,52,23.3,52,52C114.6,86,91.4,109.3,62.7,109.3z"/>
</svg>
