<svg xmlns="http://www.w3.org/2000/svg" xmlns:xlink="http://www.w3.org/1999/xlink" width="29" height="38" viewBox="0 0 29 38"><defs><path id="dhiza" d="M697.5 1099c2.482 0 4.5-1.795 4.5-4 0-2.206-2.019-4-4.5-4s-4.5 1.794-4.5 4c0 2.205 2.019 4 4.5 4z"/><path id="dhizb" d="M711.78 1095.254l-.526-.741c-.374-.526-1.18-.664-1.716-.29l-9.212 6.413h-5.652l-9.212-6.414a1.237 1.237 0 0 0-.71-.222c-.402 0-.778.192-1.006.513l-.527.742a1.2 1.2 0 0 0 .3 1.679l9.283 6.462v10.439l-2.26 5.218c-.265.611-.324 1.59-.135 2.227l1.878 6.346c.214.724.988 1.291 1.762 1.291h1.297c.412 0 .775-.166.998-.454.223-.289.285-.674.171-1.06l-1.878-6.345c-.135-.455-.07-1.23.14-1.659l1.997-4.088h1.415l2.037 4.172c.21.428.275 1.203.14 1.659l-1.878 6.345c-.114.385-.051.77.172 1.06.223.288.587.453.997.453h1.298c.774 0 1.548-.567 1.762-1.291l1.878-6.346c.19-.64.121-1.618-.156-2.227l-2.247-4.944c.002-.028.008-.055.008-.083v-10.712l9.282-6.464a1.2 1.2 0 0 0 .3-1.679z"/></defs><g><g transform="translate(-683 -1091)"><use fill="#62d0b8" xlink:href="#dhiza"/></g><g transform="translate(-683 -1091)"><use fill="#62d0b8" xlink:href="#dhizb"/></g></g></svg>