<svg xmlns="http://www.w3.org/2000/svg" xmlns:xlink="http://www.w3.org/1999/xlink" width="37" height="43" viewBox="0 0 37 43"><defs><path id="an4pa" d="M264.86 1092.825l3.608 2.558.583-5.111 2.306 3.082 2.826-4.47.242 5.054 3.836-1.943-1.213 4.694 4.838-.621-2.378 4.595 2.12.387-2.793 3.95 6.165-5.226-3.657-.311 3.544-5.597-6.462 1.71 2.808-6.836-5.397 3.088-.33-7.828-4.406 7.45-3.054-4.656-.375 6.997-3.671-3.102.823 8.133zm-1.86 6.671a3.493 3.493 0 0 0-3.49-3.496 3.505 3.505 0 0 0-3.51 3.496 3.509 3.509 0 0 0 3.51 3.504 3.499 3.499 0 0 0 3.49-3.504zm17.039 12.753a1.505 1.505 0 0 0-1.269-1.284l-7.722-4.614-3.703-2.911 2.49-1.184 5.64 2.43c.774.329 1.684-.005 2.027-.765a1.472 1.472 0 0 0-.782-1.961l-6.58-2.835a1.581 1.581 0 0 0-1.681.286s-4.514 2.276-6.454 3.51c-1.943 1.231-7.362 2.187-7.362 2.187l-4.116-3.376a1.564 1.564 0 0 0-2.164.176 1.46 1.46 0 0 0 .18 2.1l4.753 3.898a1.59 1.59 0 0 0 1.443.285l5.16-1.285 7.717 6.206 3.813 4.932-2.726 6.938c-.302.767.093 1.629.89 1.919.181.068.365.099.548.099.616 0 1.201-.364 1.437-.961l3.22-8.08a1.462 1.462 0 0 0-.097-1.257l-3.045-5.188 5.468 2.195.811 6.515c.105.823.884 1.392 1.71 1.302.844-.096 1.44-.84 1.345-1.654z"/></defs><g><g transform="translate(-248 -1084)"><use fill="#f3495e" xlink:href="#an4pa"/></g></g></svg>