<svg xmlns="http://www.w3.org/2000/svg" xmlns:xlink="http://www.w3.org/1999/xlink" width="44" height="34" viewBox="0 0 44 34"><defs><path id="qvi3a" d="M1139.333 1098.2c-1.01 0-1.833-.808-1.833-1.8 0-.993.823-1.8 1.833-1.8 1.011 0 1.834.807 1.834 1.8 0 .992-.823 1.8-1.834 1.8m-5.5 0c-1.01 0-1.833-.808-1.833-1.8 0-.993.823-1.8 1.833-1.8s1.834.807 1.834 1.8c0 .992-.824 1.8-1.834 1.8m-5.5 0c-1.01 0-1.833-.808-1.833-1.8 0-.993.823-1.8 1.833-1.8s1.834.807 1.834 1.8c0 .992-.824 1.8-1.834 1.8m32.084-7.2h-34.834c-2.527 0-4.583 2.019-4.583 4.5v4.5h44v-4.5c0-2.481-2.056-4.5-4.583-4.5"/><path id="qvi3b" d="M1164.083 1114.211h-8.676l-3.394 4.995a.92.92 0 0 1-.847.396.917.917 0 0 1-.758-.541l-4.834-11.061-6.395 9.407a.92.92 0 0 1-.858.396.917.917 0 0 1-.756-.56l-3.02-7.405-2.7 3.973c-.17.25-.456.4-.762.4h-9.166a.908.908 0 0 1-.917-.899v7.193c0 2.478 2.056 4.495 4.583 4.495h34.834c2.527 0 4.583-2.017 4.583-4.495v-7.193c0 .496-.41.9-.917.9"/><path id="qvi3c" d="M1121 1113.532c0-.49.41-.887.917-.887h8.676l3.394-4.928a.929.929 0 0 1 .858-.39c.338.034.63.247.756.553l3.02 7.306 6.366-9.243a.925.925 0 0 1 .847-.391c.335.03.625.235.758.534l4.834 10.914 2.728-3.96a.926.926 0 0 1 .763-.395h9.166c.507 0 .917.397.917.887V1102h-44z"/></defs><g><g transform="translate(-1121 -1091)"><g><use fill="#4a90e2" xlink:href="#qvi3a"/></g><g><use fill="#4a90e2" xlink:href="#qvi3b"/></g><g><use fill="#4a90e2" xlink:href="#qvi3c"/></g></g></g></svg>