<svg xmlns="http://www.w3.org/2000/svg" xmlns:xlink="http://www.w3.org/1999/xlink" width="31" height="24" viewBox="0 0 31 24"><defs><path id="g5qya" d="M725.507 3791.792c-.689.284-1.404.508-2.138.67a6.161 6.161 0 0 0 1.76-2.607c.097-.285-.235-.531-.512-.379a12.86 12.86 0 0 1-3.267 1.257.903.903 0 0 1-.776-.18c-1.222-1.002-2.792-1.553-4.423-1.553-.705 0-1.418.102-2.117.304-2.167.626-3.84 2.29-4.364 4.342-.197.77-.25 1.54-.158 2.29a.214.214 0 0 1-.06.175.256.256 0 0 1-.209.077c-4.743-.41-9.02-2.538-12.045-5.99a.364.364 0 0 0-.572.042 5.889 5.889 0 0 0-.905 3.127c0 1.686.728 3.276 1.992 4.434a6.265 6.265 0 0 1-1.524-.549c-.232-.12-.516.034-.52.28-.033 2.506 1.543 4.735 3.904 5.738a6.456 6.456 0 0 1-1.269-.098c-.26-.046-.479.184-.398.419.766 2.226 2.826 3.867 5.29 4.24-2.045 1.278-4.427 1.952-6.907 1.952h-.773a.507.507 0 0 0-.5.359c-.06.211.05.435.254.545a19.401 19.401 0 0 0 9.217 2.313c2.833 0 5.483-.524 7.877-1.556a17.349 17.349 0 0 0 5.764-4.02 17.42 17.42 0 0 0 3.529-5.5c.784-1.951 1.2-4.034 1.2-6.021v-.095c-.001-.319.154-.62.425-.824a12.664 12.664 0 0 0 2.657-2.714c.195-.271-.112-.61-.432-.478z"/></defs><g><g transform="translate(-695 -3789)"><use fill="#76a9ea" xlink:href="#g5qya"/></g></g></svg>