<svg width="44" height="44" viewBox="0 0 44 44" fill="none" xmlns="http://www.w3.org/2000/svg">
<g clip-path="url(#clip0)">
<path d="M33.4711 0C30.6593 0 28.0154 1.09574 26.0268 3.08436L17.8279 11.2832C18.4545 11.1957 19.0805 11.1007 19.7211 11.1007C21.4871 11.1007 23.2176 11.4438 24.8085 12.08L29.9155 6.97301C30.8661 6.02363 32.1284 5.49996 33.4711 5.49996C36.244 5.49996 38.4998 7.75579 38.4998 10.5286C38.4998 11.8715 37.9761 13.1336 37.0267 14.0843L27.8343 23.2769C25.9329 25.1756 22.6243 25.177 20.7229 23.2783L16.8369 27.1697C18.8243 29.1556 21.4681 30.25 24.2785 30.25C27.0903 30.25 29.7342 29.1543 31.7229 27.1657L40.9156 17.973C42.9042 15.9844 43.9999 13.3404 43.9999 10.5286C43.9998 4.72255 39.2773 0 33.4711 0V0Z" fill="black"/>
<path d="M19.1431 31.9683L14.0844 37.027C13.1337 37.9764 11.8715 38.5001 10.5287 38.5001C7.75587 38.5001 5.50004 36.2442 5.50004 33.4714C5.50004 32.1286 6.02372 30.8664 6.97309 29.9157L16.1657 20.7231C18.0671 18.8244 21.3757 18.8231 23.2771 20.7217L27.1631 16.8303C23.1871 12.8584 16.2544 12.8571 12.2771 16.8344L3.08436 26.027C1.09566 28.0156 0 30.6595 0 33.4713C0 39.2775 4.72255 43.9999 10.5286 43.9999C13.3404 43.9999 15.9843 42.9042 17.973 40.9156L26.063 32.8256C25.4723 32.9049 24.8847 32.9999 24.2786 32.9999C22.4854 33 20.7485 32.6415 19.1431 31.9683V31.9683Z" fill="black"/>
</g>
<defs>
<clipPath id="clip0">
<rect width="44" height="44" fill="white"/>
</clipPath>
</defs>
</svg>
