<?xml version="1.0" encoding="UTF-8"?>
<svg width="21px" height="17px" viewBox="0 0 21 17" version="1.1" xmlns="http://www.w3.org/2000/svg" xmlns:xlink="http://www.w3.org/1999/xlink">
    <!-- Generator: Sketch 43 (38999) - http://www.bohemiancoding.com/sketch -->
    <title>Shape</title>
    <desc>Created with Sketch.</desc>
    <defs></defs>
    <g id="Page-1" stroke="none" stroke-width="1" fill="none" fill-rule="evenodd">
        <g id="Desktop-HD" transform="translate(-972.000000, -387.000000)" fill-rule="nonzero" fill="#4F52EE">
            <g id="first-screen">
                <g id="input" transform="translate(357.000000, 297.000000)">
                    <path d="M629.479261,90.559304 L635.463068,96.8235085 C635.821023,97.1695312 636,97.6408381 636,98.1598722 C636,98.6789062 635.821023,99.1442472 635.463068,99.4962358 L629.479261,105.784304 C628.769318,106.530043 627.611932,106.530043 626.901989,105.784304 C626.192045,105.038565 626.192045,103.833452 626.901989,103.087713 L629.777557,100.080895 L616.831534,100.080895 C615.81733,100.080895 615,99.2277699 615,98.171804 C615,97.1158381 615.81733,96.2627131 616.825568,96.2627131 L629.771591,96.2627131 L626.896023,93.2558949 C626.18608,92.5101562 626.18608,91.3050426 626.896023,90.559304 C627.611932,89.8135653 628.763352,89.8135653 629.479261,90.559304 Z" id="Shape"></path>
                </g>
            </g>
        </g>
    </g>
</svg>