<?xml version="1.0" encoding="UTF-8"?>
<svg width="37px" height="37px" viewBox="0 0 37 37" version="1.1" xmlns="http://www.w3.org/2000/svg" xmlns:xlink="http://www.w3.org/1999/xlink">
    <!-- Generator: Sketch 43 (38999) - http://www.bohemiancoding.com/sketch -->
    <title>ico</title>
    <desc>Created with Sketch.</desc>
    <defs></defs>
    <g id="Page-1" stroke="none" stroke-width="1" fill="none" fill-rule="evenodd">
        <g id="Desktop-HD" transform="translate(-538.000000, -3503.000000)">
            <g id="team" transform="translate(-244.000000, 3186.000000)">
                <g id="1" transform="translate(555.000000, 67.000000)">
                    <g id="kostya">
                        <g id="ico" transform="translate(227.000000, 250.000000)">
                            <path d="M18.5,37 C8.28306667,37 0,28.7169333 0,18.5 C0,8.28245 8.28306667,0 18.5,0 C28.7169333,0 37,8.28245 37,18.5 C37,28.7169333 28.7169333,37 18.5,37 Z" id="Shape" fill="#007AB9"></path>
                            <path d="M28.8828167,27.2178167 L28.8828167,19.9954167 C28.8828167,16.1258333 26.8169833,14.3251667 24.06295,14.3251667 C21.8404833,14.3251667 20.8445667,15.5480167 20.2895667,16.4058 L20.2895667,14.6211667 L16.1024,14.6211667 C16.1579,15.8033167 16.1024,27.2178167 16.1024,27.2178167 L20.2895667,27.2178167 L20.2895667,20.1828833 C20.2895667,19.8073333 20.3167,19.4311667 20.4277,19.1623 C20.7298667,18.4099667 21.4186833,17.6311167 22.5749333,17.6311167 C24.0907,17.6311167 24.6962667,18.7861333 24.6962667,20.4788833 L24.6962667,27.2184333 L28.8828167,27.2184333 L28.8828167,27.2178167 Z" id="Path" fill="#FFFFFF"></path>
                            <path d="M11.6913833,12.9019 C13.1510333,12.9019 14.0606167,11.9337333 14.0606167,10.72445 C14.0334833,9.48926667 13.1510333,8.54885 11.7191333,8.54885 C10.2872333,8.54885 9.35051667,9.48865 9.35051667,10.72445 C9.35051667,11.9337333 10.2594833,12.9019 11.6648667,12.9019 L11.6913833,12.9019 Z" id="Path" fill="#FFFFFF"></path>
                            <polygon id="Path" fill="#FFFFFF" points="13.7849667 27.2178167 13.7849667 14.6211667 9.59841667 14.6211667 9.59841667 27.2178167"></polygon>
                        </g>
                    </g>
                </g>
            </g>
        </g>
    </g>
</svg>