<?xml version="1.0" encoding="UTF-8"?>
<svg width="34px" height="34px" viewBox="0 0 34 34" version="1.1" xmlns="http://www.w3.org/2000/svg" xmlns:xlink="http://www.w3.org/1999/xlink">
    <!-- Generator: Sketch 43 (38999) - http://www.bohemiancoding.com/sketch -->
    <title>Shape</title>
    <desc>Created with Sketch.</desc>
    <defs></defs>
    <g id="Page-1" stroke="none" stroke-width="1" fill="none" fill-rule="evenodd">
        <g id="Desktop-HD" transform="translate(-694.000000, -2716.000000)" fill-rule="nonzero" fill="#008CDB">
            <g id="subscribe" transform="translate(0.000000, 2363.000000)">
                <g id="get-notif" transform="translate(410.000000, 152.000000)">
                    <g id="join" transform="translate(150.000000, 201.000000)">
                        <g id="ico" transform="translate(134.000000, 0.000000)">
                            <path d="M33.7590551,17.383727 C33.2414698,15.8755906 31.5994751,15.0724409 30.0913386,15.5900262 L26.4950131,16.8215223 L24.3622047,10.6015748 L28.5653543,9.1648294 C30.0734908,8.64724409 30.8766404,7.00524934 30.3590551,5.49711286 C29.8414698,3.98897638 28.1994751,3.18582677 26.6913386,3.70341207 L22.488189,5.14015748 L21.3994751,1.95433071 C20.8818898,0.446194226 19.239895,-0.356955381 17.7317585,0.160629921 C16.223622,0.678215223 15.4204724,2.32020997 15.9380577,3.82834646 L17.0267717,7.01417323 L10.8068241,9.14698163 L9.50393701,5.35433071 C8.98635171,3.84619423 7.34435696,3.04304462 5.83622047,3.56062992 C4.32808399,4.07821522 3.52493438,5.72020997 4.04251969,7.22834646 L5.34540682,11.0209974 L1.95433071,12.1811024 C0.446194226,12.6986877 -0.356955381,14.3406824 0.160629921,15.8488189 C0.571128609,17.0446194 1.69553806,17.8031496 2.89133858,17.8031496 C3.20367454,17.8031496 3.5160105,17.7496063 3.82834646,17.6425197 L7.21942257,16.4824147 L9.35223097,22.7023622 L5.36325459,24.0677165 C3.85511811,24.5853018 3.0519685,26.2272966 3.56955381,27.7354331 C3.98005249,28.9312336 5.10446194,29.6897638 6.30026247,29.6897638 C6.61259843,29.6897638 6.92493438,29.6362205 7.23727034,29.5291339 L11.2262467,28.1637795 L12.5291339,31.9564304 C12.9396325,33.152231 14.064042,33.9107612 15.2598425,33.9107612 C15.5721785,33.9107612 15.8845144,33.8572178 16.1968504,33.7501312 C17.7049869,33.2325459 18.5081365,31.5905512 17.9905512,30.0824147 L16.687664,26.2897638 L22.9076115,24.1569554 L24.415748,28.5564304 C24.8262467,29.752231 25.9506562,30.5107612 27.1464567,30.5107612 C27.4587927,30.5107612 27.7711286,30.4572178 28.0834646,30.3501312 C29.591601,29.8325459 30.3947507,28.1905512 29.8771654,26.6824147 L28.3690289,22.2829396 L31.9653543,21.0514436 C33.4734908,20.5338583 34.2766404,18.8918635 33.7590551,17.383727 L33.7590551,17.383727 Z M14.8136483,20.8194226 L12.6808399,14.5994751 L18.9007874,12.4666667 L21.0335958,18.6866142 L14.8136483,20.8194226 Z" id="Shape"></path>
                        </g>
                    </g>
                </g>
            </g>
        </g>
    </g>
</svg>