<?xml version="1.0" standalone="no"?>
<!DOCTYPE svg PUBLIC "-//W3C//DTD SVG 20010904//EN"
 "http://www.w3.org/TR/2001/REC-SVG-20010904/DTD/svg10.dtd">
<svg version="1.0" xmlns="http://www.w3.org/2000/svg"
 width="907.000000pt" height="907.000000pt" viewBox="0 0 907.000000 907.000000"
 preserveAspectRatio="xMidYMid meet">
<metadata>
Created by potrace 1.15, written by Peter Selinger 2001-2017
</metadata>
<g transform="translate(0.000000,907.000000) scale(0.100000,-0.100000)"
fill="#000000" stroke="none">
<path d="M1255 9053 c-347 -45 -681 -223 -901 -481 -156 -182 -255 -381 -317
-631 -20 -84 -21 -111 -24 -958 l-4 -873 1145 0 1145 0 47 63 c448 589 1086
966 1816 1072 246 36 595 30 853 -16 678 -121 1312 -509 1703 -1041 l57 -77
1148 -1 1148 0 -4 863 c-3 846 -4 864 -25 959 -102 446 -379 800 -776 988
-132 63 -235 96 -374 120 -112 20 -175 20 -3360 19 -1786 -1 -3260 -4 -3277
-6z m6932 -748 c59 -25 96 -59 128 -116 l30 -54 3 -418 c3 -359 1 -426 -13
-473 -18 -63 -69 -125 -129 -157 -40 -22 -48 -22 -491 -22 -443 0 -451 0 -491
22 -60 32 -111 94 -129 157 -14 47 -16 114 -13 473 l3 418 27 52 c29 54 70 92
128 117 53 23 893 23 947 1z"/>
<path d="M4381 6209 c-443 -43 -860 -263 -1140 -604 -472 -572 -516 -1390
-107 -2005 248 -371 626 -626 1072 -722 96 -20 136 -23 334 -23 195 0 239 3
332 23 593 125 1074 549 1262 1113 70 208 80 277 80 539 0 206 -2 248 -22 336
-113 519 -436 939 -897 1169 -296 147 -597 205 -914 174z"/>
<path d="M10 3176 c0 -1821 1 -1888 19 -1998 100 -578 528 -1021 1114 -1150
l102 -23 3295 0 3295 0 105 23 c376 83 689 298 897 614 100 151 161 298 206
493 21 90 21 100 24 2008 l3 1917 -921 0 -921 0 5 -28 c48 -242 57 -641 19
-889 -123 -795 -554 -1471 -1217 -1905 -326 -214 -704 -357 -1106 -419 -192
-30 -561 -32 -743 -5 -474 70 -891 234 -1241 489 -621 452 -1003 1085 -1122
1857 -33 219 -21 697 24 878 l5 22 -921 0 -921 0 0 -1884z"/>
</g>
</svg>
