<svg class="sprite-icons" xmlns="http://www.w3.org/2000/svg">

	<symbol id="icon-search">
		<!-- width="17" height="17" viewBox="0 0 17 17" -->
		<path d="M16.7923 15.7909L11.9579 10.9565C12.8944 9.7998 13.4582 8.33 13.4582 6.72918C13.4582 3.01893 10.4393 0 6.72907 0C3.01886 0 0 3.01889 0 6.72914C0 10.4394 3.01889 13.4583 6.7291 13.4583C8.32991 13.4583 9.7997 12.8945 10.9564 11.9581L15.7907 16.7924C15.9288 16.9306 16.1101 17 16.2915 17C16.4729 17 16.6542 16.9306 16.7923 16.7924C17.0692 16.5155 17.0692 16.0678 16.7923 15.7909ZM6.7291 12.0416C3.79946 12.0416 1.41666 9.65882 1.41666 6.72914C1.41666 3.79947 3.79946 1.41664 6.7291 1.41664C9.65875 1.41664 12.0415 3.79947 12.0415 6.72914C12.0415 9.65882 9.65872 12.0416 6.7291 12.0416Z" fill="#272A7F"/>
	</symbol>

	<symbol id="icon-time">
		<!-- width="18" height="18" viewBox="0 0 18 18" -->
		<path d="M16.106 4.73621C15.7332 4.91656 15.5771 5.36517 15.7575 5.73779C16.2502 6.75568 16.5 7.85284 16.5 9C16.5 13.1354 13.1354 16.5 9 16.5C4.86456 16.5 1.5 13.1354 1.5 9C1.5 4.86456 4.86456 1.5 9 1.5C10.7137 1.5 12.3235 2.05957 13.656 3.1181C13.9792 3.3761 14.4518 3.32208 14.7098 2.9978C14.9678 2.67371 14.9138 2.20166 14.5893 1.94403C13.0118 0.690308 11.0268 0 9 0C4.03766 0 0 4.03766 0 9C0 13.9623 4.03766 18 9 18C13.9623 18 18 13.9623 18 9C18 7.62488 17.6997 6.30707 17.1075 5.08466C16.9276 4.71112 16.4775 4.55548 16.106 4.73621Z" fill="#989CA4"/>
		<path d="M9 3C8.586 3 8.25 3.336 8.25 3.75V9C8.25 9.414 8.586 9.75 9 9.75H12.75C13.164 9.75 13.5 9.414 13.5 9C13.5 8.586 13.164 8.25 12.75 8.25H9.75V3.75C9.75 3.336 9.414 3 9 3Z" fill="#989CA4"/>
	</symbol>


	<symbol id="icon-burger">
		<!-- width="50" height="34" viewBox="0 0 50 34" -->
		<rect x="0.5" y="0.5" width="49" height="33" rx="3.5" fill="white" stroke="#EAEBEC"/>
		<path d="M15 11C15 10.4477 15.4477 10 16 10H34C34.5523 10 35 10.4477 35 11C35 11.5523 34.5523 12 34 12H16C15.4477 12 15 11.5523 15 11Z" fill="#989CA4"/>
		<path d="M15 17C15 16.4477 15.4477 16 16 16H34C34.5523 16 35 16.4477 35 17C35 17.5523 34.5523 18 34 18H16C15.4477 18 15 17.5523 15 17Z" fill="#989CA4"/>
		<path d="M15 23C15 22.4477 15.4477 22 16 22H34C34.5523 22 35 22.4477 35 23C35 23.5523 34.5523 24 34 24H16C15.4477 24 15 23.5523 15 23Z" fill="#989CA4"/>
	</symbol>

	<symbol id="icon-close">
		<!-- width="19" height="18" viewBox="0 0 19 18" -->
		<path d="M1.32535 0.646484L17.6465 17.6465M16.9676 0.646484L0.646484 17.6465" stroke="#272A7F"/>
	</symbol>

	<symbol id="icon-facebook">
		<!-- width="24" height="24" viewBox="0 0 24 24" -->
		<path d="M19.7073 23.5891C14.5743 24.137 9.42572 24.137 4.29272 23.5891C2.24597 23.3707 0.629333 21.754 0.410889 19.7071C-0.136963 14.5741 -0.136963 9.42572 0.410889 4.29272C0.629333 2.24597 2.24597 0.629333 4.29272 0.410889C9.42572 -0.136963 14.5741 -0.136963 19.7071 0.410889C21.754 0.629333 23.3707 2.24597 23.5891 4.29272C24.137 9.42572 24.137 14.5741 23.5891 19.7071C23.3707 21.754 21.7542 23.3707 19.7073 23.5891Z" fill="#3B5998"/>
		<path d="M14.3569 6.82271H16V4.11971C15.7165 4.08287 14.7416 4 13.6062 4C11.2371 4 9.61428 5.40746 9.61428 7.99429V10.375H7V13.3967H9.61428V21H12.8195V13.3975H15.3281L15.7263 10.3757H12.8188V8.29392C12.8195 7.42054 13.0685 6.82271 14.3569 6.82271Z" fill="white"/>
	</symbol>

	<symbol id="icon-twitter">
		<!-- width="24" height="24" viewBox="0 0 24 24" -->
		<path d="M19.7073 23.5891C14.5743 24.137 9.42572 24.137 4.29272 23.5891C2.24597 23.3707 0.629333 21.754 0.410889 19.7071C-0.136963 14.5741 -0.136963 9.42572 0.410889 4.29272C0.629333 2.24597 2.24597 0.629333 4.29272 0.410889C9.42572 -0.136963 14.5741 -0.136963 19.7071 0.410889C21.754 0.629333 23.3707 2.24597 23.5891 4.29272C24.137 9.42572 24.137 14.5741 23.5891 19.7071C23.3707 21.754 21.7542 23.3707 19.7073 23.5891Z" fill="#00C3FF"/>
		<path d="M19.4381 7.37659C18.9071 7.65436 18.1073 7.78271 17.8422 7.8197C17.84 7.80688 17.8378 7.79462 17.8356 7.78235C18.737 7.22479 19.0129 6.17505 19.0129 6.17505C18.4547 6.4942 17.9626 6.67126 17.592 6.76941C17.3837 6.82526 17.2136 6.85547 17.0912 6.87231C16.5295 6.29626 15.7451 5.93884 14.8768 5.93884C13.1684 5.93884 11.7832 7.32367 11.7832 9.03259C11.7832 9.09412 11.7849 9.15527 11.7889 9.21588C11.7971 9.36401 11.816 9.50958 11.8451 9.65112C11.0182 9.63885 8.03339 9.38525 5.56 6.51215C5.56 6.51215 4.18268 8.91522 6.49823 10.5568C6.49823 10.5568 5.56 10.5275 5.06195 10.1757C5.06195 10.1757 4.91547 12.4913 7.5824 13.2237C7.5824 13.2237 6.64471 13.4584 6.17542 13.2532C6.17542 13.2532 6.64453 15.2461 8.9892 15.3929C8.9892 15.3929 7.30756 16.9325 4.56152 16.7109C5.91211 17.566 7.51337 18.061 9.23016 18.061C14.0574 18.061 17.9707 14.1478 17.9707 9.32062C17.9707 9.26038 17.9702 9.20013 17.9689 9.13989C17.9702 9.10419 17.9707 9.06866 17.9707 9.03259C17.9707 9.00751 17.9702 8.98242 17.9698 8.95734C18.8622 8.36261 19.4381 7.37659 19.4381 7.37659Z" fill="white"/>
	</symbol>

	<symbol id="icon-in">
		<!-- width="24" height="24" viewBox="0 0 24 24" -->
		<path d="M19.7073 23.5891C14.5743 24.137 9.42572 24.137 4.29272 23.5891C2.24597 23.3707 0.629333 21.754 0.410889 19.7071C-0.136963 14.5741 -0.136963 9.42572 0.410889 4.29272C0.629333 2.24597 2.24597 0.629333 4.29272 0.410889C9.42572 -0.136963 14.5741 -0.136963 19.7071 0.410889C21.754 0.629333 23.3707 2.24597 23.5891 4.29272C24.137 9.42572 24.137 14.5741 23.5891 19.7071C23.3707 21.754 21.7542 23.3707 19.7073 23.5891Z" fill="#0077B5"/>
		<path d="M9.6835 8.75H7V17H9.6835V8.75Z" fill="white"/>
		<path d="M16.993 8.84675C16.9645 8.83775 16.9375 8.828 16.9075 8.81975C16.8715 8.8115 16.8355 8.80475 16.7987 8.79875C16.6562 8.77025 16.5002 8.75 16.3173 8.75C14.7528 8.75 13.7605 9.88775 13.4335 10.3273V8.75H10.75V17H13.4335V12.5C13.4335 12.5 15.4615 9.6755 16.3173 11.75C16.3173 13.6018 16.3173 17 16.3173 17H19V11.4327C19 10.1862 18.1458 9.1475 16.993 8.84675Z" fill="white"/>
		<path d="M8.3125 7.625C9.03737 7.625 9.625 7.03737 9.625 6.3125C9.625 5.58763 9.03737 5 8.3125 5C7.58763 5 7 5.58763 7 6.3125C7 7.03737 7.58763 7.625 8.3125 7.625Z" fill="white"/>
	</symbol>

</svg>