<svg xmlns="http://www.w3.org/2000/svg" width="24" height="20" viewBox="0 0 24 20"><g><g><path fill="#fff" d="M23.566 3.31l-2.105-2.107A1.433 1.433 0 0 0 20.408.77c-.413 0-.764.145-1.053.433L9.197 11.376 4.645 6.81c-.289-.29-.64-.434-1.053-.434-.413 0-.764.145-1.053.434L.434 8.914c-.29.29-.434.64-.434 1.053 0 .413.144.765.434 1.053l5.605 5.605 2.106 2.106c.288.29.64.434 1.052.434.413 0 .764-.145 1.053-.434l2.106-2.106 11.21-11.21c.29-.289.434-.64.434-1.053 0-.413-.145-.764-.434-1.053z"/></g></g></svg>