<svg width="44" height="44" viewBox="0 0 44 44" fill="none" xmlns="http://www.w3.org/2000/svg">
<path d="M42.8462 32.2915L36.6929 26.1512C34.4954 23.9582 30.7595 24.8355 29.8804 27.6863C29.2211 29.66 27.0236 30.7565 25.0457 30.3179C20.6505 29.2214 14.7171 23.5196 13.6183 18.9144C12.959 16.9406 14.2775 14.7477 16.2554 14.0899C19.1122 13.2127 19.9913 9.48461 17.7937 7.29164L11.6404 1.15131C9.88235 -0.38377 7.24525 -0.38377 5.70694 1.15131L1.53152 5.31796C-2.6439 9.70391 1.97103 21.3267 12.2997 31.6336C22.6284 41.9406 34.2756 46.7652 38.6708 42.3792L42.8462 38.2126C44.3846 36.4582 44.3846 33.8266 42.8462 32.2915Z" fill="#191919"/>
</svg>
