<?xml version="1.0" standalone="no"?>
<!DOCTYPE svg PUBLIC "-//W3C//DTD SVG 1.1//EN" "http://www.w3.org/Graphics/SVG/1.1/DTD/svg11.dtd" >
<svg>
<metadata>
Created by FontForge 20090622 at Sun Dec 29 10:40:44 2019
 By deploy user
[c] Copyright 2003-2004, The Font Bureau, Inc. Designed by David Berlow. All rights reserved.
</metadata>
<defs>
<font id="TitlingGothicFBWide-Bold" horiz-adv-x="546" >
  <font-face 
    font-family="TitlingGothicFB Wide Bold"
    font-weight="700"
    font-stretch="normal"
    units-per-em="1000"
    panose-1="2 0 5 7 6 0 0 2 0 4"
    ascent="800"
    descent="-200"
    x-height="547"
    cap-height="785"
    bbox="-147 -224 1885 1025"
    underline-thickness="20"
    underline-position="-113"
    unicode-range="U+0020-U+FB02"
  />
<missing-glyph horiz-adv-x="500" 
 />
    <glyph glyph-name="fi" unicode="fi" horiz-adv-x="923" 
d="M589 362h-215v-362h-257v362h-103v185h103v51q0 91 55.5 147.5t161.5 56.5q158 0 191 -3v-172q-24 3 -79 3q-76 -1 -76 -57v-26h476v-453q0 -54 2.5 -71t12.5 -23h-256q-16 8 -16 93v269z" />
    <glyph glyph-name="fl" unicode="fl" horiz-adv-x="929" 
d="M14 362v185h101v46q0 92 54.5 150.5t158.5 58.5q180 0 210 -3v-172q-21 3 -98 3q-72 -1 -72 -51v-32h172v-185h-167v-362h-258v362h-101zM861 0h-256q-15 3 -15 70v641q0 55 -5 77h253q5 -25 5 -71v-659q0 -52 18 -58z" />
    <glyph glyph-name="f_f" unicode="ff" horiz-adv-x="1018" 
d="M373 362v-362h-258v362h-101v185h101v46q0 92 54.5 150.5t158.5 58.5q158 0 191 -3v-173q-18 3 -78 3q-73 0 -73 -53v-29h221v41q0 93 54.5 153.5t157.5 60.5q158 0 191 -3v-173q-24 3 -79 3q-72 0 -72 -50v-32h160v-185h-155v-362h-257v362h-216z" />
    <glyph glyph-name="f_f_i" unicode="ffi" horiz-adv-x="1397" 
d="M1062 362h-216v-362h-257v362h-216v-362h-258v362h-101v185h101v46q0 92 54.5 150.5t158.5 58.5q158 0 191 -3v-173q-18 3 -78 3q-73 0 -73 -52v-30h221v41q0 93 54.5 153.5t157.5 60.5q158 0 191 -3v-173q-24 3 -79 3q-72 0 -72 -51v-31h476v-453q0 -52 3.5 -70
t14.5 -24h-256q-18 3 -18 93q0 28 0.5 135.5t0.5 133.5z" />
    <glyph glyph-name="f_f_l" unicode="ffl" horiz-adv-x="1402" 
d="M373 362v-362h-258v362h-101v185h101v46q0 92 54.5 150.5t158.5 58.5q158 0 191 -3v-173q-18 3 -78 3q-73 0 -73 -53v-29h221v41q0 93 54.5 153.5t157.5 60.5q180 0 210 -3v-173q-21 3 -98 3q-72 0 -72 -51v-31h181v-185h-176v-362h-257v362h-216zM1334 0h-256
q-16 3 -16 70v641q0 59 -4 77h253q5 -25 5 -71v-659q0 -53 18 -58z" />
    <glyph glyph-name=".notdef" horiz-adv-x="500" 
 />
    <glyph glyph-name=".null" horiz-adv-x="0" 
 />
    <glyph glyph-name="nonmarkingreturn" horiz-adv-x="333" 
 />
    <glyph glyph-name="space" unicode=" " horiz-adv-x="385" 
 />
    <glyph glyph-name="space" unicode="&#xa0;" horiz-adv-x="385" 
 />
    <glyph glyph-name="exclam" unicode="!" horiz-adv-x="419" 
d="M374 785l-40 -495h-252l-37 495h329zM342 0h-266v242h266v-242z" />
    <glyph glyph-name="quotedbl" unicode="&#x22;" horiz-adv-x="694" 
d="M656 785l-17 -414h-238l-16 414h271zM303 785l-17 -414h-236l-16 414h269z" />
    <glyph glyph-name="numbersign" unicode="#" horiz-adv-x="767" 
d="M754 617l-32 -176h-149l-25 -120h157l-31 -175h-158l-31 -177h-120l31 177h-132l-32 -177h-121l32 177h-131l33 175h129l24 120h-137l32 176h137l32 178h121l-32 -178h133l32 178h120q-26 -157 -31 -178h149zM452 441h-133l-24 -120h133q20 105 24 120z" />
    <glyph glyph-name="dollar" unicode="$" horiz-adv-x="947" 
d="M531 781q104 -7 176 -34t106 -59.5t56 -78.5q20 -41 24 -85h-254q-2 20 -15 41q-19 30 -93 40v-123q6 -1 17.5 -2.5t17.5 -1.5q197 -24 275.5 -79.5t78.5 -162.5t-101 -167.5t-288 -67.5v-69h-120v70q-315 15 -375 186q-11 35 -13 69h256q6 -31 17 -46q19 -34 115 -42
v151l-32 3q-187 22 -269.5 77.5t-82.5 159.5q0 95 96.5 156.5t287.5 66.5v32h120v-34zM411 611q-76 -3 -106 -14.5t-30 -37.5q0 -23 27 -35.5t109 -23.5v111zM530 168q73 4 102.5 19.5t29.5 42.5q0 29 -27.5 45.5t-104.5 26.5v-134z" />
    <glyph glyph-name="percent" unicode="%" horiz-adv-x="1297" 
d="M1255 179q0 -81 -78.5 -136.5t-220.5 -55.5q-130 0 -209 57t-79 135v37q0 74 78.5 132.5t214.5 58.5q137 0 215.5 -60t78.5 -131v-37zM626 573q0 -80 -82 -135.5t-216 -55.5q-132 0 -210 54.5t-78 136.5v36q0 76 79 134t214 58q139 0 216 -60t77 -132v-36zM1004 783
l-587 -783h-137l590 783h134zM1064 187v18q0 19 -27 37.5t-75 18.5q-50 0 -76.5 -18t-26.5 -37v-19q0 -20 27.5 -38.5t75.5 -18.5q54 0 78 18t24 39zM435 579v19q0 20 -28 38.5t-74 18.5q-50 0 -76.5 -17.5t-26.5 -39.5v-19q0 -21 27.5 -37.5t77.5 -16.5q51 0 75.5 17
t24.5 37z" />
    <glyph glyph-name="ampersand" unicode="&#x26;" horiz-adv-x="1126" 
d="M577 361q4 -3 152 -104q57 51 70 134h257q-21 -162 -142 -256l229 -135h-368q-33 18 -56 34q-109 -44 -279 -44q-58 0 -101.5 2t-95.5 8t-89 19t-69.5 33t-49.5 52t-18 74v26q1 71 60.5 118.5t161.5 85.5q-63 82 -65 156v29q2 84 85.5 143.5t217.5 59.5q123 0 201 -55
t80 -133v-8v-11v-7q-1 -138 -181 -221zM446 478q97 37 98 80v12q-2 49 -66 49q-34 0 -51.5 -15.5t-18.5 -39.5q-2 -8 0 -16q0 -30 38 -70zM370 275q-81 -34 -81 -71q0 -27 32.5 -37.5t114.5 -10.5q36 0 88 6q-112 75 -154 113z" />
    <glyph glyph-name="quotesingle" unicode="'" horiz-adv-x="393" 
d="M338 785l-17 -429h-250l-16 429h283z" />
    <glyph glyph-name="parenleft" unicode="(" horiz-adv-x="510" 
d="M497 -68h-258q-82 45 -143.5 162t-61.5 265q0 134 63 252.5t142 173.5h258q-70 -67 -127 -190t-57 -238q0 -128 52 -247.5t132 -177.5z" />
    <glyph glyph-name="parenright" unicode=")" horiz-adv-x="510" 
d="M478 359q0 -144 -60.5 -260.5t-144.5 -166.5h-259q81 57 132.5 176.5t51.5 248.5q0 115 -57 238t-127 190h259q80 -55 142.5 -173.5t62.5 -252.5z" />
    <glyph glyph-name="asterisk" unicode="*" horiz-adv-x="679" 
d="M405 614l166 80l56 -169l-182 -46l130 -135l-138 -106l-100 159l-98 -158l-139 106l128 134l-183 46l55 169l169 -80l-18 187h171z" />
    <glyph glyph-name="plus" unicode="+" horiz-adv-x="812" 
d="M759 285h-243v-207h-214v207h-249v189h246v207h218v-207h242v-189z" />
    <glyph glyph-name="comma" unicode="," horiz-adv-x="421" 
d="M345 3l-104 -155l-176 12l71 147l-18 -7h-42v266h269v-263z" />
    <glyph glyph-name="hyphen" unicode="-" horiz-adv-x="595" 
d="M560 237h-524v224h524v-224z" />
    <glyph glyph-name="hyphen" unicode="&#xad;" horiz-adv-x="595" 
d="M560 237h-524v224h524v-224z" />
    <glyph glyph-name="period" unicode="." horiz-adv-x="421" 
d="M347 0h-272v266h272v-266z" />
    <glyph glyph-name="slash" unicode="/" horiz-adv-x="395" 
d="M419 795l-353 -954h-127l351 954h129z" />
    <glyph glyph-name="zero" unicode="0" horiz-adv-x="943" 
d="M472 797q181 0 293 -79t137 -205q11 -47 11 -121q0 -70 -12 -118q-26 -131 -139 -208.5t-290 -77.5q-187 0 -298 78.5t-133 215.5q-10 46 -10 111q0 74 9 112q21 131 132 211.5t300 80.5zM631 394q0 55 -8 87q-11 62 -47 91.5t-103 29.5q-136 0 -155 -125q-7 -33 -7 -84
q0 -53 7 -86q17 -128 154 -128q69 0 106 31.5t47 97.5q6 25 6 86z" />
    <glyph glyph-name="one" unicode="1" horiz-adv-x="624" 
d="M514 0h-265v519l-218 -15v204q239 22 269 83h214v-791z" />
    <glyph glyph-name="two" unicode="2" horiz-adv-x="898" 
d="M874 0h-837v199q277 87 388 149t113 149v11v12v9q-2 73 -111 73q-91 0 -106 -71q0 -1 -4 -71h-274q4 78 11 111q10 48 37 87.5t73.5 71t120.5 49.5t168 18q109 0 187 -19t120 -53.5t61 -73t21 -85.5v-53q-4 -102 -98.5 -186t-236.5 -124h367v-203z" />
    <glyph glyph-name="three" unicode="3" horiz-adv-x="910" 
d="M691 420q84 -9 135 -52t57 -101q2 -20 -1 -58q-18 -221 -429 -221q-193 0 -287.5 44.5t-126.5 133.5q-16 43 -16 99h279q0 -37 7 -55q21 -49 137 -49q132 0 138 68q2 21 0 31q-6 31 -37.5 44t-96.5 13h-204v153h204q103 0 114 47q5 18 0 39q-7 55 -123 55q-50 0 -81 -15
t-39 -39q-3 -9 -6 -44h-262q2 65 19 106q74 178 394 178q177 0 270 -48t108 -134q6 -31 3 -56q-13 -122 -156 -139z" />
    <glyph glyph-name="four" unicode="4" horiz-adv-x="880" 
d="M872 134h-121v-134h-259v141h-479v204l496 450h242v-460h121v-201zM493 335v194l-221 -194h221z" />
    <glyph glyph-name="five" unicode="5" horiz-adv-x="896" 
d="M876 221q-6 -105 -110.5 -169t-298.5 -64q-370 0 -421 199q-9 34 -10 75h268q2 -25 8 -40q26 -57 129 -57q124 0 131 83q1 18 -1 49q-5 83 -128 83q-107 0 -128 -65h-256v470h765v-198h-523l-1 -116q24 35 97.5 52.5t146.5 17.5q159 0 241.5 -61t90.5 -169q4 -43 0 -90z
" />
    <glyph glyph-name="six" unicode="6" horiz-adv-x="913" 
d="M479 -12q-325 0 -411 196q-37 84 -37 210q0 107 31 186q38 96 135 156.5t261 60.5q113 0 189.5 -21.5t116.5 -58t63 -93.5q13 -33 17 -82h-251q0 10 -10 26q-23 40 -123 40q-67 0 -103.5 -25t-42.5 -67q-3 -22 -5 -56q94 49 256 49q167 0 247 -61t80 -186
q0 -274 -413 -274zM619 258q0 50 -33 70.5t-108 20.5q-99 0 -167 -40q2 -39 13 -67q31 -74 155 -74q140 0 140 90z" />
    <glyph glyph-name="seven" unicode="7" horiz-adv-x="783" 
d="M772 603l-369 -603h-300l376 588h-474v197h767v-182z" />
    <glyph glyph-name="eight" unicode="8" horiz-adv-x="870" 
d="M848 201q-10 -97 -115 -154t-300 -57q-383 0 -411 211q-5 38 0 72q9 57 60.5 98.5t124.5 51.5q-68 11 -107 51t-44 90q-2 30 -1 52q7 80 104 132.5t275 52.5q182 0 275.5 -50t102.5 -134q4 -22 -1 -52q-5 -52 -45.5 -92.5t-114.5 -49.5q82 -6 135.5 -48t61.5 -104
q6 -33 0 -70zM568 538q5 23 -1 42q-12 46 -132 46q-118 0 -132 -44q-7 -22 -1 -44q11 -43 131 -43q126 0 135 43zM600 222q6 25 1 52q-13 61 -168 61q-73 0 -116.5 -16.5t-49.5 -43.5q-5 -28 0 -53q6 -28 49 -44.5t117 -16.5q76 0 118.5 17t48.5 44z" />
    <glyph glyph-name="nine" unicode="9" horiz-adv-x="898" 
d="M812 159q-48 -79 -140 -124.5t-225 -45.5q-162 0 -252 43t-124 127q-15 38 -18 84h261q0 -15 8 -29q25 -43 124 -43q63 0 98 27t41 68q5 43 5 62q-115 -51 -247 -51q-138 0 -219.5 52t-94.5 135q-4 20 -4.5 56.5t2.5 55.5q17 100 118.5 161t288.5 61q245 0 351 -132
q85 -98 85 -270q0 -147 -58 -237zM594 469q-3 48 -7 64q-21 83 -156 83q-57 0 -92 -19t-43 -47q-10 -30 1 -58q20 -63 143 -63q91 0 154 40z" />
    <glyph glyph-name="colon" unicode=":" horiz-adv-x="429" 
d="M339 354h-253v229h253v-229zM339 0h-253v227h253v-227z" />
    <glyph glyph-name="semicolon" unicode=";" horiz-adv-x="429" 
d="M339 354h-252v229h252v-229zM340 4l-155 -166l-106 97l59 70l-27 -5h-24v228h253v-224z" />
    <glyph glyph-name="less" unicode="&#x3c;" horiz-adv-x="763" 
d="M685 25l-630 206v211l630 203v-215l-390 -94l390 -94v-217z" />
    <glyph glyph-name="equal" unicode="=" horiz-adv-x="772" 
d="M735 400h-699v177h699v-177zM735 166h-699v177h699v-177z" />
    <glyph glyph-name="greater" unicode="&#x3e;" horiz-adv-x="763" 
d="M688 231l-630 -204v214l390 95l-390 94v217l630 -205v-211z" />
    <glyph glyph-name="question" unicode="?" horiz-adv-x="857" 
d="M836 548q-2 -53 -38 -90t-85.5 -55.5t-98.5 -34t-83.5 -36t-34.5 -48.5h-255q0 46 21 81t52.5 55t68.5 36t69 25.5t54.5 22.5t23.5 28q2 16 0 26q-8 54 -115 54q-103 0 -114 -56q-3 -14 -3 -35h-273q3 55 15 93q52 187 398 187q207 0 300 -49t99 -151q1 -14 -1 -53z
M503 0h-267v242h267v-242z" />
    <glyph glyph-name="at" unicode="@" horiz-adv-x="1173" 
d="M1139 368q-1 -139 -83.5 -219.5t-221.5 -80.5q-58 0 -102 24.5t-57 69.5q-50 -87 -207 -87q-89 0 -147 57t-55 166q2 52 20.5 99.5t52.5 86.5t89 62.5t122 23.5q54 0 91 -20.5t47 -47.5l14 47h206q-11 -57 -32.5 -155.5t-29.5 -140.5q-16 -80 51 -80q63 0 100.5 53.5
t39.5 144.5q2 144 -110 240t-325 96q-216 0 -343.5 -104.5t-128.5 -285.5q-1 -99 37 -174.5t104.5 -120.5t150 -67.5t181.5 -22.5q189 0 310 83l44 -64q-150 -93 -360 -93q-252 0 -409 119.5t-156 339.5q1 213 158.5 339t423.5 126q125 0 226.5 -33t166.5 -89.5t99.5 -131.5
t32.5 -160zM671 362q3 20 -18.5 42t-65.5 22q-53 0 -92 -32t-45 -81q-6 -44 16 -71.5t69 -27.5q104 0 122 82q1 7 7 32.5t7 33.5z" />
    <glyph glyph-name="A" unicode="A" horiz-adv-x="1128" 
d="M350 145l-73 -145h-283l419 785h323l396 -785h-289l-69 145h-424zM689 321l-94 190l-28 71l-30 -72l-99 -189h251z" />
    <glyph glyph-name="B" unicode="B" horiz-adv-x="1100" 
d="M1019 80q-66 -80 -243 -80h-697v785h678q152 0 215 -65q49 -49 49 -130q0 -79 -38 -124q-35 -43 -95 -51q42 -5 79.5 -25t59.5 -49q37 -43 37 -119q0 -90 -45 -142zM743 543q0 30 -19 46q-19 18 -78 18h-305v-128h312q55 0 74 18q16 18 16 46zM773 199q14 14 14 44
t-17 47q-22 19 -85 19h-344v-131h341q69 0 91 21z" />
    <glyph glyph-name="C" unicode="C" horiz-adv-x="1096" 
d="M1065 320q-9 -83 -29 -122q-49 -104 -165.5 -157t-317.5 -53q-317 0 -440 148q-80 94 -80 258q0 152 75 244q128 160 450 160q392 0 483 -227q20 -50 22 -112h-278q-2 32 -20 58q-50 73 -210 73q-166 0 -218 -82q-25 -37 -25 -117q0 -78 28 -118q54 -80 216 -80
q166 0 213 69q16 23 18 58h278z" />
    <glyph glyph-name="D" unicode="D" horiz-adv-x="1068" 
d="M985 157q-86 -157 -350 -157h-556v785h550q267 0 354 -144q28 -44 39 -97t11 -137q0 -92 -10.5 -148t-37.5 -102zM746 257q23 35 23 145q-2 95 -23 127q-23 35 -60.5 49.5t-99.5 14.5h-239v-400h237q120 0 162 64z" />
    <glyph glyph-name="E" unicode="E" horiz-adv-x="954" 
d="M906 0h-827v785h820v-196h-556v-101h540v-191h-540v-102h563v-195z" />
    <glyph glyph-name="F" unicode="F" horiz-adv-x="910" 
d="M881 586h-533v-111h508v-197h-508v-278h-269v785h802v-199z" />
    <glyph glyph-name="G" unicode="G" horiz-adv-x="1074" 
d="M1025 0h-215l-7 76q-106 -88 -312 -88q-267 0 -384 151q-74 95 -74 252q0 147 76 245q131 163 435 163q352 0 451 -201q21 -43 23 -94h-259q-5 25 -35 50q-50 45 -175 45q-146 0 -202 -63q-41 -47 -41 -147q0 -92 38 -141q59 -69 207 -69q72 0 127.5 18.5t78.5 45.5
q20 24 25 53h-279v169h522v-465z" />
    <glyph glyph-name="H" unicode="H" horiz-adv-x="1097" 
d="M1017 0h-268v285h-402v-285h-268v785h268v-286h402v286h268v-785z" />
    <glyph glyph-name="I" unicode="I" horiz-adv-x="431" 
d="M355 0h-275v785h275v-785z" />
    <glyph glyph-name="J" unicode="J" horiz-adv-x="639" 
d="M576 277q0 -130 -90 -208t-251 -78t-211 10v202q77 -5 158 -5q63 0 93 31.5t30 80.5v475h271v-508z" />
    <glyph glyph-name="K" unicode="K" horiz-adv-x="1058" 
d="M396 301l-49 -39v-262h-268v785h268v-276l363 276h335l-444 -346l448 -439h-343z" />
    <glyph glyph-name="L" unicode="L" horiz-adv-x="855" 
d="M828 0h-749v785h271v-576h478v-209z" />
    <glyph glyph-name="M" unicode="M" horiz-adv-x="1261" 
d="M1186 0h-254v424l-186 -424h-228l-184 424v-424h-255v785h350l204 -471l214 471h339v-785z" />
    <glyph glyph-name="N" unicode="N" horiz-adv-x="1071" 
d="M994 0h-268l-389 437v-437h-258v785h282l377 -427v427h256v-785z" />
    <glyph glyph-name="O" unicode="O" horiz-adv-x="1122" 
d="M561 803q260 0 393.5 -106t133.5 -299q0 -195 -129 -302.5t-398 -107.5q-255 0 -391.5 104t-136.5 306q0 185 137 295t391 110zM561 189q140 0 197.5 54t57.5 152q0 46 -11 80t-38 63.5t-79 45t-128 15.5q-136 0 -194.5 -53t-58.5 -151q0 -101 57 -153.5t197 -52.5z" />
    <glyph glyph-name="P" unicode="P" horiz-adv-x="1040" 
d="M1012 502q0 -124 -61 -191q-78 -89 -259 -91h-344v-220h-269v785h609q165 0 241 -67q83 -66 83 -216zM742 498q0 41 -14 60q-25 37 -101 37h-281v-192h279q81 0 105 38q12 21 12 57z" />
    <glyph glyph-name="Q" unicode="Q" horiz-adv-x="1122" 
d="M797 36q19 -17 51 -33q28 -13 45 -18l-145 -167q-12 3 -49.5 24t-74.5 49q-77 59 -112 99q-7 1 -27.5 3t-23.5 2q-195 13 -311.5 116t-116.5 287q0 190 134 297.5t394 107.5q262 0 394.5 -102t132.5 -303q0 -156 -79.5 -252t-211.5 -110zM561 186q141 0 198.5 55.5
t57.5 151.5q0 44 -10.5 78t-37 65t-79.5 47.5t-130 16.5q-137 0 -195.5 -54.5t-58.5 -152.5q0 -100 58.5 -153.5t196.5 -53.5z" />
    <glyph glyph-name="R" unicode="R" horiz-adv-x="1089" 
d="M1009 546q0 -92 -40 -148q-49 -67 -124 -78l237 -320h-298l-195 277h-243v-277h-267v785h625q177 0 252 -80q53 -54 53 -159zM749 521q0 28 -9 41q-18 33 -84 33h-309v-143h314q65 0 79 28q9 15 9 41z" />
    <glyph glyph-name="S" unicode="S" horiz-adv-x="1041" 
d="M1005 244q0 -125 -121.5 -190.5t-359.5 -65.5q-388 0 -474 194q-11 27 -19 78h288q4 -24 19 -42q38 -46 205 -46q105 0 143.5 14.5t38.5 45.5t-32.5 42.5t-136.5 22.5q-146 14 -172 16q-186 17 -267 75t-81 162q0 109 124 178t345 69q352 0 446 -180q24 -44 29 -88h-288
q-2 18 -16 36q-36 48 -178 48q-102 0 -140 -12.5t-38 -40.5q0 -29 40 -41t164 -25q106 -9 191 -19q152 -16 221 -72t69 -159z" />
    <glyph glyph-name="T" unicode="T" horiz-adv-x="946" 
d="M941 588h-332v-588h-274v588h-331v197h937v-197z" />
    <glyph glyph-name="U" unicode="U" horiz-adv-x="1102" 
d="M1027 303q0 -155 -129 -234.5t-354 -79.5q-215 0 -341 84t-126 255v457h271v-457q0 -65 54 -101.5t153 -36.5q95 0 149.5 37.5t54.5 99.5v458h268v-482z" />
    <glyph glyph-name="V" unicode="V" horiz-adv-x="1127" 
d="M1126 785l-405 -785h-316l-405 785h294l274 -555l281 555h277z" />
    <glyph glyph-name="W" unicode="W" horiz-adv-x="1483" 
d="M1484 785l-287 -785h-294q-157 469 -158 482l-159 -482h-293l-294 785h291q170 -494 170 -506q0 5 39 131.5l79 250.5l39 124h281q158 -494 158 -506q0 5 42 131.5l84 250.5l43 124h259z" />
    <glyph glyph-name="X" unicode="X" horiz-adv-x="1026" 
d="M666 401l355 -401h-312l-200 227l-208 -227h-296l362 392l-347 393h313l192 -218l199 218h292z" />
    <glyph glyph-name="Y" unicode="Y" horiz-adv-x="1109" 
d="M1105 785l-420 -526v-259h-269v258l-415 527h305l248 -314l255 314h296z" />
    <glyph glyph-name="Z" unicode="Z" horiz-adv-x="979" 
d="M957 0h-930v195l506 383h-478v207h887v-193l-532 -388h547v-204z" />
    <glyph glyph-name="bracketleft" unicode="[" horiz-adv-x="551" 
d="M514 -180h-450v965h450v-179h-213v-608h213v-178z" />
    <glyph glyph-name="backslash" unicode="\" horiz-adv-x="395" 
d="M-31 795h128l352 -954h-127z" />
    <glyph glyph-name="bracketright" unicode="]" horiz-adv-x="552" 
d="M38 -180v178h213v609h-213v178h449v-965h-449z" />
    <glyph glyph-name="asciicircum" unicode="^" horiz-adv-x="781" 
d="M391 601l-205 -185l-163 148l251 234h235l251 -234l-163 -148z" />
    <glyph glyph-name="underscore" unicode="_" horiz-adv-x="584" 
d="M584 -222h-584v179h584v-179z" />
    <glyph glyph-name="grave" unicode="`" 
d="M404 593h-227l-124 184h258z" />
    <glyph glyph-name="a" unicode="a" horiz-adv-x="897" 
d="M843 0h-244q-1 0 -3 7t-4 18.5t-2 20.5q-33 -25 -108.5 -40.5t-180.5 -15.5q-125 0 -196.5 37t-73.5 110q0 18 1 29q2 79 91.5 125t270.5 48q94 0 189 -10q-2 22 -15 40q-26 36 -121 36q-85 0 -115 -21q-19 -14 -22 -31h-245q3 40 23 76q72 139 368 139q311 0 360 -165
q18 -55 15 -133q-2 -29 -2 -140q0 -106 14 -130zM587 213q-47 10 -166 10q-66 0 -97 -11t-31 -40q0 -22 25 -30t89 -8q83 0 127.5 22t52.5 57z" />
    <glyph glyph-name="b" unicode="b" horiz-adv-x="940" 
d="M572 566q210 0 288 -122q45 -67 45 -162q0 -99 -47 -164q-40 -59 -117 -91t-177 -32q-72 0 -142.5 17.5t-102.5 50.5l-8 -63h-243v795h253v-313q26 36 94 60t157 24zM482 396q-112 0 -151 -55q-18 -24 -18 -63q0 -40 19 -65q40 -52 150 -52t148 52q19 27 19 66
q0 37 -19 64q-40 53 -148 53z" />
    <glyph glyph-name="c" unicode="c" horiz-adv-x="883" 
d="M855 307h-240q-2 21 -13 37q-35 53 -145 53q-111 0 -152 -50q-22 -27 -22 -69q0 -48 21 -73q40 -49 153 -49q101 0 137 39q15 16 20 37h241q-3 -69 -45 -122q-100 -121 -352 -121q-276 0 -376 122q-54 66 -54 166q0 92 53 161q105 130 373 130q284 0 368 -150
q28 -49 33 -111z" />
    <glyph glyph-name="d" unicode="d" horiz-adv-x="942" 
d="M385 566q82 0 146 -18t96 -51v297h251v-712l8 -82h-240l-11 70q-26 -33 -95.5 -56t-151.5 -23q-223 0 -309 121q-50 67 -50 161q0 95 50 164q41 61 121 95t185 34zM459 396q-111 0 -155 -50q-22 -26 -22 -69q0 -44 20 -68q43 -51 157 -51q112 0 150 49q23 29 23 70
q0 45 -25 71q-43 48 -148 48z" />
    <glyph glyph-name="e" unicode="e" horiz-adv-x="893" 
d="M866 184q-8 -36 -40 -75q-43 -54 -136.5 -87t-235.5 -33q-267 0 -368 121q-57 69 -57 168q0 95 59 162q53 62 149 95t219 33q162 0 266 -58.5t134 -161.5q20 -60 15 -129h-591q5 -26 30 -47q43 -38 147 -38q79 0 121 23q22 11 31 27h257zM619 334q0 26 -23 46
q-44 39 -143 39q-106 0 -148 -42q-21 -21 -24 -43h338z" />
    <glyph glyph-name="f" unicode="f" horiz-adv-x="581" 
d="M564 362h-175v-362h-257v362h-118v185h118v47q0 91 57.5 149.5t165.5 58.5q163 0 202 -3v-174q-30 3 -104 3q-68 0 -68 -53v-30h179v-183z" />
    <glyph glyph-name="g" unicode="g" horiz-adv-x="843" 
d="M392 572q179 0 260 -44q29 26 93 35t100 -1v-140q-95 0 -105 -7q20 -23 23 -58q2 -23 -3 -44q-34 -146 -336 -146q-100 0 -144 18q-23 0 -23 -19t29 -22t140 -2q157 3 248.5 -12.5t129.5 -49t38 -91.5q0 -187 -433 -187q-115 0 -195.5 10t-125.5 28.5t-65 42.5t-20 56
q0 86 115 109q-38 8 -59 32t-21 59q0 33 27 59.5t68 33.5q-38 11 -63.5 42t-32.5 75q-2 31 2 54q13 72 101.5 120.5t251.5 48.5zM402 426q-112 0 -124 -50q-6 -22 -1 -43q10 -52 122 -52t124 51q5 23 0 45q-15 49 -121 49zM392 -56q190 0 191 35q-1 17 -22 23t-97 7
q-43 1 -203 1q-32 -5 -32 -28q0 -38 163 -38z" />
    <glyph glyph-name="h" unicode="h" horiz-adv-x="896" 
d="M828 317q0 -116 0.5 -175.5t2 -93.5t3.5 -41t7 -7h-259q-4 5 -5.5 20t-2.5 71t-1 180q0 100 -120 100q-59 0 -95 -30.5t-36 -74.5v-266h-254v795h246v-337q63 108 257 108q126 0 191.5 -64t65.5 -185z" />
    <glyph glyph-name="i" unicode="i" horiz-adv-x="407" 
d="M332 600h-259v176h259v-176zM345 0h-256q-15 3 -15 93v457h257v-456q0 -58 2 -73.5t12 -20.5z" />
    <glyph glyph-name="j" unicode="j" horiz-adv-x="421" 
d="M352 600h-258v176h258v-176zM350 32q0 -110 -66 -170.5t-176 -60.5q-120 0 -150 11v166q26 -2 53 -2q84 0 84 69v505h255v-518z" />
    <glyph glyph-name="k" unicode="k" horiz-adv-x="854" 
d="M586 335l280 -335h-293l-171 209l-80 -58v-151h-254v795h253v-423l231 178h286z" />
    <glyph glyph-name="l" unicode="l" horiz-adv-x="404" 
d="M336 0q-9 4 -9 58v659q0 46 -5 71h-254q5 -17 5 -77v-641q0 -67 6 -70h257z" />
    <glyph glyph-name="m" unicode="m" horiz-adv-x="1339" 
d="M1031 0q-8 0 -9.5 50.5t-1.5 224.5q0 97 -110 97q-53 0 -86 -29.5t-33 -75.5v-267h-241v281q0 40 -28 65.5t-79 25.5q-55 0 -88 -30.5t-33 -72.5v-269h-254v550h245v-97q24 52 88 81t142 29q171 0 224 -112q22 48 88.5 80t162.5 32q128 0 191 -63t63 -176q0 -301 4 -317
q1 -5 3 -7h-248z" />
    <glyph glyph-name="n" unicode="n" horiz-adv-x="897" 
d="M836 0h-252q-4 0 -6 13t-3.5 73.5t-1.5 182.5q0 102 -118 102q-57 0 -95 -30.5t-38 -72.5v-268h-254v550h245v-96q30 57 98 84.5t157 27.5q134 0 197 -68t63 -182q0 -302 8 -316z" />
    <glyph glyph-name="o" unicode="o" horiz-adv-x="916" 
d="M888 278q0 -88 -46 -149q-48 -67 -146.5 -103t-236.5 -36q-285 0 -386 140q-45 61 -45 148q0 88 47 147q105 142 385 142q139 0 235.5 -37t145.5 -101q47 -64 47 -151zM637 277q0 41 -20 65q-40 53 -156 53t-157 -54q-21 -25 -21 -64q0 -40 17 -64q38 -55 161 -55
q120 0 157 54q19 27 19 65z" />
    <glyph glyph-name="p" unicode="p" horiz-adv-x="932" 
d="M904 280q0 -99 -48 -165q-41 -58 -119 -89t-175 -31q-69 0 -140.5 17.5t-99.5 49.5v-242h-254v730h246l1 -72q27 38 98.5 63t157.5 25q206 0 286 -118q47 -65 47 -168zM647 279q0 42 -23 70q-42 47 -145 47q-101 0 -140 -47q-26 -31 -26 -71q0 -42 22 -68q39 -49 146 -49
q112 0 148 53q18 27 18 65z" />
    <glyph glyph-name="q" unicode="q" horiz-adv-x="940" 
d="M885 -180h-245l-6 7v230q-85 -67 -261 -67q-199 0 -287 112q-57 71 -57 171q0 104 58 178q44 55 120.5 84t170.5 29q194 0 267 -78l2 62h232v-647q0 -63 6 -81zM632 276q0 46 -24 71q-43 48 -150 48q-113 0 -154 -50q-21 -27 -21 -70q0 -41 18 -66q39 -53 158 -53
q112 0 151 50q22 28 22 70z" />
    <glyph glyph-name="r" unicode="r" horiz-adv-x="636" 
d="M626 556v-219q-69 22 -148 22q-68 0 -110.5 -37t-42.5 -108v-214h-257v550h249v-98q11 41 65.5 71t119.5 35q74 6 124 -2z" />
    <glyph glyph-name="s" unicode="s" horiz-adv-x="828" 
d="M802 170q0 -92 -89.5 -137t-281.5 -45q-194 0 -285.5 37t-118.5 120q-6 19 -8 43h255q2 -14 9 -25q19 -26 146 -26q54 0 82 3.5t36.5 10t8.5 18.5q0 15 -22 21t-96 13q-28 3 -133 15q-139 14 -207 52.5t-68 116.5q0 86 91.5 133.5t265.5 47.5q165 0 256.5 -34t120.5 -109
q9 -22 11 -54h-246q-1 12 -11 23q-20 21 -119 21q-50 0 -76.5 -3t-35 -9t-8.5 -16q0 -15 19 -20t94 -12l83 -8.5t84 -8.5q126 -12 184.5 -51t58.5 -117z" />
    <glyph glyph-name="t" unicode="t" horiz-adv-x="594" 
d="M559 364h-185v-143q0 -31 19 -43.5t63 -12.5q59 0 99 9v-161q-59 -23 -208 -23q-46 0 -84.5 9t-72 29t-52.5 58t-19 90v188h-108v183h107q2 15 3.5 47t2.5 57v25l247 4v-133h188v-183z" />
    <glyph glyph-name="u" unicode="u" horiz-adv-x="894" 
d="M824 0v5q-1 5 -1.5 13.5t-0.5 18.5t-0.5 23t-0.5 25v465h-254v-281q0 -48 -36.5 -75.5t-98.5 -27.5q-116 0 -116 98q0 286 -9 286v0v0v0v0v0h-1v0v0h-1v0h-1v0h-1v0h-1h-1h-1h-1h-1h-1h-1h-1h-1h-1h-1h-1h-1h-1h-1h-1h-1h-1h-1h-1h-1h-1h-1h-1h-1h-1h-1h-1h-1h-1h-1h-1
h-1h-1h-1h-1h-1h-1h-1h-1h-1h-1h-1h-1h-1h-1h-1h-1h-1h-1h-2h-1h-1h-1h-1h-1h-1h-2h-1h-1h-1h-1h-2h-1h-1h-1h-2h-1h-1h-1h-2h-1h-1h-1h-2h-1h-1h-2h-1h-1h-2h-1h-1h-2h-1h-1h-2h-1h-2h-1h-1h-2h-1h-2h-1h-2h-1h-1h-2h-1h-2h-1h-2h-1h-2h-1h-2h-1h-2h-1h-2h-1h-2h-1h-2h-1
h-2h-2h-1h-2h-1h-2h-1h-2h-2h-1h-2h-1h-2h-2h-1h-2h-2h-1h-2h-2h-1h-2h-2h-1h-2h-2h-1h-2h-2h-1h-2h-2h-2h-1h-2h-2h-2h-1h-2h-2h-2h-1h-2h-2h-2h-1h-2h-2h-2h-2h-1h-2h-2h-2h-2h-2h-1h-2h-2h-2h-2h-9q10 -13 10 -344q0 -64 19.5 -108.5t57 -67.5t81.5 -32.5t102 -9.5
q190 0 255 99l6 -87h243z" />
    <glyph glyph-name="v" unicode="v" horiz-adv-x="865" 
d="M871 550l-287 -550h-298l-293 550h270l174 -358l172 358h262z" />
    <glyph glyph-name="w" unicode="w" horiz-adv-x="1303" 
d="M1299 550l-249 -550h-280q-111 280 -112 293l-8 44q-9 -38 -9 -43q0 -6 -28 -79.5l-55 -144.5l-28 -70h-281l-244 550h261l132 -338l117 338h286l122 -338l128 338h248z" />
    <glyph glyph-name="x" unicode="x" horiz-adv-x="865" 
d="M440 420l127 130h281l-271 -263l288 -287h-299l-138 145l-143 -145h-282l287 278l-272 272h298z" />
    <glyph glyph-name="y" unicode="y" horiz-adv-x="892" 
d="M885 550l-394 -730h-274l98 175l-310 555h269q0 -2 89.5 -169t89.5 -169q0 2 84 168.5t84 169.5h264z" />
    <glyph glyph-name="z" unicode="z" horiz-adv-x="815" 
d="M778 0h-737v160l335 216h-319v171h702v-159l-348 -217h367v-171z" />
    <glyph glyph-name="braceleft" unicode="{" horiz-adv-x="592" 
d="M544 -176h-191q-88 0 -133.5 36.5t-45.5 87.5q0 34 10.5 96t10.5 88q0 109 -154 109v177q154 0 154 88q0 31 -11.5 76t-11.5 74q0 53 51.5 91t127.5 38h193v-185q-78 3 -112.5 -13.5t-32.5 -51.5q1 -17 6.5 -46t5.5 -42q0 -41 -29.5 -68.5t-90.5 -33.5q120 -10 120 -116
q0 -23 -7 -71t-7 -70q-2 -42 32.5 -61t114.5 -15v-188z" />
    <glyph glyph-name="bar" unicode="|" horiz-adv-x="417" 
d="M308 -200h-194v1000h194v-1000z" />
    <glyph glyph-name="braceright" unicode="}" horiz-adv-x="592" 
d="M48 -176v188q79 -4 114 15t33 61q0 21 -7.5 69t-7.5 72q0 106 121 116q-61 6 -91 33.5t-30 68.5q0 13 6 42t7 46q2 35 -32.5 51.5t-112.5 13.5v185h192q76 0 127.5 -38t51.5 -91q0 -29 -11.5 -74t-11.5 -76q0 -88 154 -88v-177q-153 0 -153 -109q0 -26 10 -88t10 -96
q0 -51 -45.5 -87.5t-133.5 -36.5h-190z" />
    <glyph glyph-name="asciitilde" unicode="~" horiz-adv-x="863" 
d="M446 245q-18 13 -52 42t-54.5 41.5t-39.5 12.5q-73 0 -77 -108l-212 10q10 313 240 313q102 0 201 -86l36.5 -32.5l35 -31.5t29 -19t31.5 -9q33 0 52 26t21 72l189 -13q0 -136 -55.5 -211.5t-162.5 -75.5q-94 0 -182 69z" />
    <glyph glyph-name="exclamdown" unicode="&#xa1;" horiz-adv-x="419" 
d="M75 794h266v-242h-266v242zM43 -1l40 505h252l37 -505h-329z" />
    <glyph glyph-name="cent" unicode="&#xa2;" horiz-adv-x="870" 
d="M366 682v98h157v-98q216 -17 292 -138q26 -43 35 -120h-240q-3 34 -10 44q-34 55 -150 55q-49 0 -93.5 -15t-56.5 -38q-22 -33 -22 -75q0 -49 17 -75q33 -55 163 -55q43 0 80.5 10t50.5 26q14 17 19 48h242q-4 -71 -41 -119q-83 -105 -286 -122v-141h-157v142
q-216 16 -300 122q-48 60 -48 162q0 95 49 162q86 109 299 127z" />
    <glyph glyph-name="sterling" unicode="&#xa3;" horiz-adv-x="961" 
d="M134 417q-54 68 -56 130v46q9 204 400 204q91 0 160.5 -13.5t113 -36t73 -56.5t43 -69t18.5 -79q2 -22 2 -64h-283q0 45 -1 56q-8 70 -110 70q-54 0 -80.5 -18t-27.5 -45v-11v-15v-11q0 -11 1.5 -20.5t5.5 -19.5l6.5 -16t8.5 -17t8 -15h377v-130h-348q1 -16 -4 -38
q-10 -43 -60 -58h520v-191h-837v200q80 15 100 48q11 20 10 39h-104v130h64z" />
    <glyph glyph-name="currency" unicode="&#xa4;" horiz-adv-x="1001" 
d="M95 405h-73v95h81q1 2 2 7.5t1 7.5q25 128 135 205t295 77q181 0 293 -79t137 -205q6 -29 8 -48h-284q-1 6 -3 16q-11 62 -47 91.5t-103 29.5q-124 0 -150 -102h247v-95h-259v-24h259v-95h-248q25 -107 150 -107q133 0 152 121q2 14 2 16h282q-4 -30 -7 -42
q-26 -131 -139 -208.5t-290 -77.5q-179 0 -288.5 72.5t-138.5 199.5l-3 14.5t-2 11.5h-82v95h73v24z" />
    <glyph glyph-name="yen" unicode="&#xa5;" horiz-adv-x="1131" 
d="M429 161h-361v95h361v19l-427 510h307q255 -292 256 -305q0 6 65.5 82l130.5 150l65 73h303l-432 -508v-21h360v-95h-360v-24h360v-95h-360v-42h-268v42h-361v95h361v24z" />
    <glyph glyph-name="brokenbar" unicode="&#xa6;" horiz-adv-x="417" 
d="M308 349h-194v451h194v-451zM308 -200h-194v445h194v-445z" />
    <glyph glyph-name="section" unicode="&#xa7;" horiz-adv-x="764" 
d="M59 485q30 47 94 69q-55 26 -60 86q-1 5 -1 21q2 67 84 100t203 33t192 -27t84 -99q5 -27 4 -38h-197q0 21 -1 27q-3 21 -21 29t-55 8q-74 0 -78 -27v-7q1 -22 27 -35.5t105 -28.5q44 -7 86 -19q85 -17 117.5 -42.5t38.5 -63.5q5 -32 -9 -61.5t-41 -47.5
q-10 -6 -19.5 -10t-27 -8.5l-21.5 -5.5q164 -39 178 -143q2 -16 2 -27q-2 -84 -91 -131.5t-260 -47.5q-315 0 -358 164q-3 16 -5 38h278q0 -22 1 -28q3 -28 24.5 -38.5t69.5 -10.5q84 0 86 38v9q-1 41 -105 66q-96 18 -194 47q-66 16 -103 51t-41 83q-4 47 14 77zM299 418
q25 -13 126 -29q14 1 24.5 9.5t12.5 21.5q6 26 -16 36q-33 18 -127 34q-31 -3 -36 -32q-7 -26 16 -40z" />
    <glyph glyph-name="dieresis" unicode="&#xa8;" 
d="M503 597h-186v170h186v-170zM231 597h-188v170h188v-170z" />
    <glyph glyph-name="copyright" unicode="&#xa9;" horiz-adv-x="1051" 
d="M1006 300q-6 -134 -133.5 -214t-345.5 -80q-224 0 -350 78.5t-131 215.5q-5 131 0 210q7 136 136.5 213.5t343.5 77.5q212 0 341 -77.5t139 -213.5q2 -28 2 -101.5t-2 -108.5zM949 314q4 73 0 184q-7 118 -122.5 182.5t-300.5 64.5q-122 0 -214 -25.5t-149 -82
t-60 -138.5v-185q4 -123 120.5 -188t302.5 -65q190 0 303.5 66t119.5 187zM862 370q-3 -48 -10 -72q-17 -63 -104 -108t-221 -45q-246 0 -312 124q-28 49 -28 134q0 84 24 129q62 124 318 124q151 0 228 -43t94 -108q10 -40 10 -67h-241q0 3 -5 28q-12 41 -80 41
q-82 0 -90 -73q-2 -18 -2 -31q0 -17 2 -33q4 -44 24 -59.5t64 -15.5q78 0 84 43q5 20 6 32h239z" />
    <glyph glyph-name="ordfeminine" unicode="&#xaa;" horiz-adv-x="732" 
d="M705 237h-225q-2 5 -4 13.5t-5.5 25.5t-2.5 24q-69 -65 -225 -65q-93 0 -154 30.5t-68 88.5q-6 46 4 79q13 50 81 83.5t182 43.5q80 10 164 10q2 34 -6 54q-16 41 -81 41q-55 0 -75 -31q-9 -14 -10 -36h-229q1 32 16 64q26 68 105.5 107.5t206.5 39.5q261 0 302 -147
q14 -47 8 -139q-3 -78 -3 -143q0 -120 19 -143zM711 112h-685v94h685v-94zM451 466q-77 -3 -79 -3q-78 -6 -99 -18q-15 -10 -15 -23q-2 -13 7 -23q20 -22 75 -22q63 0 88 18q22 14 23 37v9v15v10z" />
    <glyph glyph-name="guillemotleft" unicode="&#xab;" horiz-adv-x="874" 
d="M850 56l-400 215v158l400 210v-209l-176 -79l176 -85v-210zM427 56l-401 215v158l401 210v-209l-177 -79l177 -85v-210z" />
    <glyph glyph-name="logicalnot" unicode="&#xac;" horiz-adv-x="678" 
d="M320 543l4 81h-319v171h668v-171h-319l5 -81q50 -8 84 -47.5t34 -90.5q0 -52 -34.5 -91.5t-84.5 -46.5l-5 -76h320v-186h-668v186h318l-4 76q-50 8 -83.5 47t-33.5 91q0 51 34.5 90.5t83.5 47.5zM354 490v-47l-16 -34l-14 34v47q-30 -6 -50.5 -30t-20.5 -55t20 -54.5
t50 -29.5v47l15 33l15 -33v-47q30 5 51 29t21 55t-20.5 55t-50.5 30zM163 568q20 -20 36 -31q-28 14 -40 22q-16 9 -16 15q0 8 16 -3q2 -2 4 -3zM517 264q-28 14 -41 22q7 -5 19 -16t16 -14q16 -13 20 -8t-14 16zM474 540q29 20 39 29q12 10 18 10q8 0 -6 -10q-3 -3 -7 -5
l-11.5 -8t-16.5 -10.5t-16 -5.5zM212 288l-37 -31q-14 -11 -20 -9q-7 2 9 13q3 2 5 3q30 15 43 24zM473 288q2 -2 3 -2q-1 0 -3 2zM202 535q-1 0 -3 2q2 -2 3 -2z" />
    <glyph glyph-name="registered" unicode="&#xae;" horiz-adv-x="1051" 
d="M1006 316q-6 -136 -134.5 -223t-344.5 -87q-221 0 -348.5 85.5t-132.5 224.5q-5 113 0 182q8 137 138 220t342 83q210 0 340 -83t140 -220q6 -63 0 -182zM949 330q4 62 0 156q-7 119 -124 189t-299 70q-184 0 -301.5 -67.5t-121.5 -190.5v-157q4 -124 122.5 -196.5
t300.5 -72.5q186 0 301.5 73.5t121.5 195.5zM830 170h-224l-86 158h-67v-158h-210v471h358q107 0 164 -42q52 -37 52 -105q0 -69 -34 -103q-27 -27 -64 -35zM610 464q0 21 -13.5 32.5t-34.5 11.5h-109v-87h107q26 0 38 10t12 33z" />
    <glyph glyph-name="macron" unicode="&#xaf;" 
d="M486 609h-427v132h427v-132z" />
    <glyph glyph-name="macron" unicode="&#x2c9;" 
d="M486 609h-427v132h427v-132z" />
    <glyph glyph-name="degree" unicode="&#xb0;" horiz-adv-x="451" 
d="M226 785q82 0 140 -57t58 -140t-58 -139.5t-140 -56.5q-83 0 -141 56.5t-58 139.5t58 140t141 57zM226 651q-26 0 -45 -18.5t-19 -43.5q0 -27 18.5 -44.5t45.5 -17.5t45 17.5t18 44.5q0 25 -18.5 43.5t-44.5 18.5z" />
    <glyph glyph-name="plusminus" unicode="&#xb1;" horiz-adv-x="790" 
d="M737 411h-250v-151h-185v151h-249v151h248v150h187v-150h249v-151zM737 71h-684v158h684v-158z" />
    <glyph glyph-name="twosuperior" unicode="&#xb2;" horiz-adv-x="655" 
d="M598 388h-524v105q174 43 242 72t68 70v19q0 37 -63 37q-48 0 -60 -30q-4 -13 -4 -42h-180q0 33 9 60q13 48 75.5 79.5t176.5 31.5q245 0 249 -119q0 -3 -0.5 -13.5t-0.5 -14.5q-1 -49 -57 -86t-152 -61h221v-108z" />
    <glyph glyph-name="threesuperior" unicode="&#xb3;" horiz-adv-x="681" 
d="M492 599q59 -5 89.5 -28t31.5 -52v-19q-4 -118 -277 -118q-134 0 -193.5 25.5t-76.5 74.5q-5 32 -5 40h183v-25q3 -29 85 -29q86 0 86 37v11q0 31 -81 31h-129v77h130q69 1 69 29v13q0 28 -76 28q-70 0 -75 -29q0 -3 -0.5 -9.5t-0.5 -7.5h-172q0 22 10 46q40 96 255 96
q226 0 244 -95q2 -12 2 -19q-2 -66 -99 -77z" />
    <glyph glyph-name="acute" unicode="&#xb4;" 
d="M144 593l94 184h256l-123 -184h-227z" />
    <glyph glyph-name="mu" unicode="&#xb5;" horiz-adv-x="904" 
d="M843 0h-241l-8 90q-41 -65 -136 -83q-73 -8 -125 11v-198h-262v730h255q9 0 9 -288q0 -103 117 -103q62 0 98.5 29.5t36.5 78.5v283h253v-463q0 -21 1 -41.5t1 -33.5z" />
    <glyph glyph-name="mu" unicode="&#x3bc;" horiz-adv-x="904" 
d="M843 0h-241l-8 90q-41 -65 -136 -83q-73 -8 -125 11v-198h-262v730h255q9 0 9 -288q0 -103 117 -103q62 0 98.5 29.5t36.5 78.5v283h253v-463q0 -21 1 -41.5t1 -33.5z" />
    <glyph glyph-name="paragraph" unicode="&#xb6;" horiz-adv-x="848" 
d="M783 787v-921h-76v804h-46v-804h-77v364q-25 -26 -88 -49t-127 -23q-126 0 -196 43t-103 122q-26 59 -26 159q0 97 35 162q35 68 106.5 108.5t177.5 40.5q74 0 132.5 -18.5t88.5 -44.5l5 57h194zM581 484v72q-5 25 -38 43t-80 18q-81 0 -117 -36q-37 -39 -37 -103
q0 -68 34 -102q35 -36 115 -36q50 0 84.5 18t37.5 47q1 6 1 79z" />
    <glyph glyph-name="periodcentered" unicode="&#xb7;" horiz-adv-x="421" 
d="M348 265h-275v266h275v-266z" />
    <glyph glyph-name="periodcentered" unicode="&#x2219;" horiz-adv-x="421" 
d="M348 265h-275v266h275v-266z" />
    <glyph glyph-name="cedilla" unicode="&#xb8;" 
d="M260 -88q0 12 -16.5 19.5t-33 16.5t-16.5 26q-2 10 -2 26h126q-1 -5 1 -20q0 -10 17 -16.5t36.5 -11.5t36 -23.5t16.5 -48.5q0 -39 -34.5 -61.5t-95.5 -24t-145 22.5v86q43 -17 76.5 -15t33.5 24z" />
    <glyph glyph-name="onesuperior" unicode="&#xb9;" horiz-adv-x="489" 
d="M377 388h-173v254l-154 -15v111q49 0 112 16.5t76 32.5h139v-399z" />
    <glyph glyph-name="ordmasculine" unicode="&#xba;" horiz-adv-x="741" 
d="M725 519q0 -101 -68 -178q-97 -112 -287 -112q-187 0 -285 112q-66 72 -66 178q0 107 74 186q96 104 278 104q194 0 286 -109q68 -74 68 -181zM718 112h-692v94h692v-94zM487 519q0 85 -30 115q-26 25 -87 25q-55 0 -83 -25q-31 -30 -31 -115q0 -83 29 -115
q26 -26 88 -26q59 0 85 29q29 33 29 112z" />
    <glyph glyph-name="guillemotright" unicode="&#xbb;" horiz-adv-x="874" 
d="M450 63v209l164 85l-164 80v209l400 -211v-158zM26 63v209l165 85l-165 80v209l401 -211v-158z" />
    <glyph glyph-name="onequarter" unicode="&#xbc;" horiz-adv-x="1014" 
d="M338 388h-174v254l-154 -15v111q49 0 112 16.5t77 32.5h139v-399zM762 785l-261 -401l-242 -384h-95l271 415l233 370h94zM984 67h-77v-66h-170v71h-303v107l319 221h154v-226h77v-107zM738 174v88l-127 -88h127z" />
    <glyph glyph-name="onehalf" unicode="&#xbd;" horiz-adv-x="1006" 
d="M337 388h-174v254l-154 -15v111q49 0 112 16.5t77 32.5h139v-399zM736 785l-262 -401l-241 -384h-96l272 415l232 370h95zM985 1h-525v105q176 44 243.5 72.5t67.5 69.5v18q0 37 -64 37q-47 0 -59 -30q-2 -5 -5 -41h-179q0 36 8 60q14 48 76.5 79t176.5 31
q246 0 248 -119v-28q-1 -48 -58.5 -85.5t-151.5 -60.5h222v-108z" />
    <glyph glyph-name="threequarters" unicode="&#xbe;" horiz-adv-x="1189" 
d="M447 599q59 -5 90 -28t31 -52q1 -8 0 -19q-2 -118 -277 -118q-134 0 -193.5 25.5t-75.5 74.5q-7 30 -7 40h184q0 -16 1 -25q2 -29 84 -29q84 0 86 37v11q0 31 -81 31h-129v77h129q69 1 71 29v13q-2 28 -76 28q-72 0 -75 -29q-1 -6 -1 -17h-174q0 24 11 46q42 96 255 96
q226 0 244 -95q2 -12 2 -19q-2 -66 -99 -77zM924 785l-262 -401l-241 -384h-94l271 415l232 370h94zM1163 67h-77v-66h-169v71h-304v107l319 221h154v-226h77v-107zM918 174v89l-128 -89h128z" />
    <glyph glyph-name="questiondown" unicode="&#xbf;" horiz-adv-x="857" 
d="M369 796h267v-242h-267v242zM30 246q2 52 38 89t86 56t99.5 34.5t85 36.5t36.5 50h254q0 -53 -29.5 -92.5t-72 -60t-85 -35t-73.5 -29.5t-32 -32q-2 -15 0 -28q8 -52 117 -52q101 0 112 54q2 18 2 36h274q-3 -53 -16 -93q-19 -81 -112.5 -133.5t-276.5 -52.5
q-212 0 -307 49t-100 151v52z" />
    <glyph glyph-name="Agrave" unicode="&#xc0;" horiz-adv-x="1128" 
d="M350 145l-73 -145h-283l419 785h323l396 -785h-289l-69 145h-424zM689 321l-94 190l-28 71l-30 -72l-99 -189h251zM683 828h-227l-124 184h258z" />
    <glyph glyph-name="Aacute" unicode="&#xc1;" horiz-adv-x="1128" 
d="M350 145l-73 -145h-283l419 785h323l396 -785h-289l-69 145h-424zM689 321l-94 190l-28 71l-30 -72l-99 -189h251zM461 829l94 184h256l-123 -184h-227z" />
    <glyph glyph-name="Acircumflex" unicode="&#xc2;" horiz-adv-x="1128" 
d="M350 145l-73 -145h-283l419 785h323l396 -785h-289l-69 145h-424zM689 321l-94 190l-28 71l-30 -72l-99 -189h251zM811 833h-189l-57 69l-58 -69h-187l125 180h240z" />
    <glyph glyph-name="Atilde" unicode="&#xc3;" horiz-adv-x="1128" 
d="M350 145l-73 -145h-283l419 785h323l396 -785h-289l-69 145h-424zM689 321l-94 190l-28 71l-30 -72l-99 -189h251zM588 846q-60 32 -79 31q-34 0 -34 -43h-157q0 93 34.5 138.5t107.5 45.5q55 0 99 -26q35 -24 59 -23q18 1 26.5 9t9.5 32h153q0 -98 -33.5 -142t-89.5 -44
t-96 22z" />
    <glyph glyph-name="Adieresis" unicode="&#xc4;" horiz-adv-x="1128" 
d="M350 145l-73 -145h-283l419 785h323l396 -785h-289l-69 145h-424zM689 321l-94 190l-28 71l-30 -72l-99 -189h251zM799 833h-186v170h186v-170zM527 833h-188v170h188v-170z" />
    <glyph glyph-name="Aring" unicode="&#xc5;" horiz-adv-x="1128" 
d="M422 785q-19 36 -19 75q0 68 50 116.5t121 48.5q72 0 121.5 -48t49.5 -117q0 -39 -19 -75h10l396 -785h-289l-69 145h-424l-73 -145h-283l419 785h9zM574 915q-21 0 -36.5 -15.5t-15.5 -39.5q0 -21 15.5 -37t36.5 -16q22 0 37.5 16t15.5 37q0 24 -15 39.5t-38 15.5z
M689 321l-94 190l-28 71l-30 -72l-99 -189h251z" />
    <glyph glyph-name="AE" unicode="&#xc6;" horiz-adv-x="1501" 
d="M1458 785v-196h-536v-101h520v-191h-520v-102h543v-195h-804v136h-293l-102 -136h-291l629 785h854zM661 546l-44 -81l-123 -158h167v239z" />
    <glyph glyph-name="Ccedilla" unicode="&#xc7;" horiz-adv-x="1096" 
d="M487 -10q-265 14 -374 146q-80 94 -80 258q0 152 75 244q128 160 450 160q392 0 483 -227q20 -50 22 -112h-278q-2 32 -20 58q-50 73 -210 73q-166 0 -218 -82q-25 -37 -25 -117q0 -78 28 -118q54 -80 216 -80q166 0 213 69q16 23 18 58h278q-9 -83 -29 -122
q-45 -96 -147.5 -148.5t-275.5 -60.5q0 -2 0.5 -4.5t0.5 -4.5q0 -10 17 -16.5t36.5 -11.5t36 -23.5t16.5 -48.5q0 -39 -34.5 -61.5t-95.5 -24t-145 22.5v86q43 -17 76.5 -15t33.5 24q0 12 -16.5 19.5t-33 16.5t-16.5 26q-2 10 -2 16z" />
    <glyph glyph-name="Egrave" unicode="&#xc8;" horiz-adv-x="954" 
d="M906 0h-827v785h820v-196h-556v-101h540v-191h-540v-102h563v-195zM636 829h-227l-124 184h258z" />
    <glyph glyph-name="Eacute" unicode="&#xc9;" horiz-adv-x="954" 
d="M906 0h-827v785h820v-196h-556v-101h540v-191h-540v-102h563v-195zM373 829l94 184h256l-123 -184h-227z" />
    <glyph glyph-name="Ecircumflex" unicode="&#xca;" horiz-adv-x="954" 
d="M906 0h-827v785h820v-196h-556v-101h540v-191h-540v-102h563v-195zM745 833h-189l-57 69l-58 -69h-187l125 180h240z" />
    <glyph glyph-name="Edieresis" unicode="&#xcb;" horiz-adv-x="954" 
d="M906 0h-827v785h820v-196h-556v-101h540v-191h-540v-102h563v-195zM720 833h-186v170h186v-170zM448 833h-188v170h188v-170z" />
    <glyph glyph-name="Igrave" unicode="&#xcc;" horiz-adv-x="431" 
d="M355 0h-275v785h275v-785zM337 828h-227l-124 184h258z" />
    <glyph glyph-name="Iacute" unicode="&#xcd;" horiz-adv-x="431" 
d="M355 0h-275v785h275v-785zM94 829l94 184h256l-123 -184h-227z" />
    <glyph glyph-name="Icircumflex" unicode="&#xce;" horiz-adv-x="431" 
d="M355 0h-275v785h275v-785zM461 832h-189l-57 69l-58 -69h-187l125 180h240z" />
    <glyph glyph-name="Idieresis" unicode="&#xcf;" horiz-adv-x="431" 
d="M355 0h-275v785h275v-785zM445 832h-186v170h186v-170zM173 832h-188v170h188v-170z" />
    <glyph glyph-name="Eth" unicode="&#xd0;" horiz-adv-x="1069" 
d="M79 312h-50v159h50v314h550q267 0 354 -144q28 -44 39 -97.5t11 -136.5q0 -92 -10.5 -148t-37.5 -102q-86 -157 -350 -157h-556v312zM347 471h190v-159h-190v-121h238q122 0 162 65q23 33 23 146q-2 96 -23 128q-23 36 -60.5 51t-99.5 15h-240v-125z" />
    <glyph glyph-name="Ntilde" unicode="&#xd1;" horiz-adv-x="1071" 
d="M994 0h-268l-389 437v-437h-258v785h282l377 -427v427h256v-785zM576 847q-60 32 -79 31q-34 0 -34 -43h-157q0 93 34.5 138.5t107.5 45.5q55 0 99 -26q35 -24 59 -23q18 1 26.5 9t9.5 32h153q0 -98 -33.5 -142t-89.5 -44t-96 22z" />
    <glyph glyph-name="Ograve" unicode="&#xd2;" horiz-adv-x="1122" 
d="M561 803q260 0 393.5 -106t133.5 -299q0 -195 -129 -302.5t-398 -107.5q-255 0 -391.5 104t-136.5 306q0 185 137 295t391 110zM561 189q140 0 197.5 54t57.5 152q0 46 -11 80t-38 63.5t-79 45t-128 15.5q-136 0 -194.5 -53t-58.5 -151q0 -101 57 -153.5t197 -52.5z
M686 829h-227l-124 184h258z" />
    <glyph glyph-name="Oacute" unicode="&#xd3;" horiz-adv-x="1122" 
d="M561 803q260 0 393.5 -106t133.5 -299q0 -195 -129 -302.5t-398 -107.5q-255 0 -391.5 104t-136.5 306q0 185 137 295t391 110zM561 189q140 0 197.5 54t57.5 152q0 46 -11 80t-38 63.5t-79 45t-128 15.5q-136 0 -194.5 -53t-58.5 -151q0 -101 57 -153.5t197 -52.5z
M440 829l94 184h256l-123 -184h-227z" />
    <glyph glyph-name="Ocircumflex" unicode="&#xd4;" horiz-adv-x="1122" 
d="M561 803q260 0 393.5 -106t133.5 -299q0 -195 -129 -302.5t-398 -107.5q-255 0 -391.5 104t-136.5 306q0 185 137 295t391 110zM561 189q140 0 197.5 54t57.5 152q0 46 -11 80t-38 63.5t-79 45t-128 15.5q-136 0 -194.5 -53t-58.5 -151q0 -101 57 -153.5t197 -52.5z
M805 833h-189l-57 69l-58 -69h-187l125 180h240z" />
    <glyph glyph-name="Otilde" unicode="&#xd5;" horiz-adv-x="1122" 
d="M561 803q260 0 393.5 -106t133.5 -299q0 -195 -129 -302.5t-398 -107.5q-255 0 -391.5 104t-136.5 306q0 185 137 295t391 110zM561 189q140 0 197.5 54t57.5 152q0 46 -11 80t-38 63.5t-79 45t-128 15.5q-136 0 -194.5 -53t-58.5 -151q0 -101 57 -153.5t197 -52.5z
M584 846q-60 32 -79 31q-34 0 -34 -43h-157q0 93 34.5 138.5t107.5 45.5q55 0 99 -26q35 -24 59 -23q18 1 26.5 9t9.5 32h153q0 -98 -33.5 -142t-89.5 -44t-96 22z" />
    <glyph glyph-name="Odieresis" unicode="&#xd6;" horiz-adv-x="1122" 
d="M561 803q260 0 393.5 -106t133.5 -299q0 -195 -129 -302.5t-398 -107.5q-255 0 -391.5 104t-136.5 306q0 185 137 295t391 110zM561 189q140 0 197.5 54t57.5 152q0 46 -11 80t-38 63.5t-79 45t-128 15.5q-136 0 -194.5 -53t-58.5 -151q0 -101 57 -153.5t197 -52.5z
M787 834h-186v170h186v-170zM515 834h-188v170h188v-170z" />
    <glyph glyph-name="multiply" unicode="&#xd7;" horiz-adv-x="751" 
d="M640 531l-138 -136l139 -139l-127 -131l-139 137l-138 -137l-128 132l139 138l-139 136l128 131l138 -135l139 136z" />
    <glyph glyph-name="Oslash" unicode="&#xd8;" horiz-adv-x="1122" 
d="M184 76q-43 28 -72 68q-79 95 -79 254q0 148 79 240q129 164 449 164q161 0 273 -38l37 37h148q-77 -82 -82 -86q45 -29 73 -66q78 -91 78 -250q0 -157 -79 -256q-118 -154 -448 -154q-160 0 -272 38l-64 -64h-151q93 93 110 113zM353 263l315 321q-42 15 -108 15
q-156 0 -218 -78q-35 -40 -35 -126q0 -57 27 -101q8 -17 19 -31zM767 527l-79 -81l-157 -160l-79 -81q46 -16 109 -16q161 0 219 78q36 36 36 128q0 52 -21 91q-17 30 -28 41z" />
    <glyph glyph-name="Ugrave" unicode="&#xd9;" horiz-adv-x="1102" 
d="M1027 303q0 -155 -129 -234.5t-354 -79.5q-215 0 -341 84t-126 255v457h271v-457q0 -65 54 -101.5t153 -36.5q95 0 149.5 37.5t54.5 99.5v458h268v-482zM685 829h-227l-124 184h258z" />
    <glyph glyph-name="Uacute" unicode="&#xda;" horiz-adv-x="1102" 
d="M1027 303q0 -155 -129 -234.5t-354 -79.5q-215 0 -341 84t-126 255v457h271v-457q0 -65 54 -101.5t153 -36.5q95 0 149.5 37.5t54.5 99.5v458h268v-482zM428 829l94 184h256l-123 -184h-227z" />
    <glyph glyph-name="Ucircumflex" unicode="&#xdb;" horiz-adv-x="1102" 
d="M1027 303q0 -155 -129 -234.5t-354 -79.5q-215 0 -341 84t-126 255v457h271v-457q0 -65 54 -101.5t153 -36.5q95 0 149.5 37.5t54.5 99.5v458h268v-482zM800 832h-189l-57 69l-58 -69h-187l125 180h240z" />
    <glyph glyph-name="Udieresis" unicode="&#xdc;" horiz-adv-x="1102" 
d="M1027 303q0 -155 -129 -234.5t-354 -79.5q-215 0 -341 84t-126 255v457h271v-457q0 -65 54 -101.5t153 -36.5q95 0 149.5 37.5t54.5 99.5v458h268v-482zM786 833h-186v170h186v-170zM514 833h-188v170h188v-170z" />
    <glyph glyph-name="Yacute" unicode="&#xdd;" horiz-adv-x="1109" 
d="M1105 785l-420 -526v-259h-269v258l-415 527h305l248 -314l255 314h296zM424 829l94 184h256l-123 -184h-227z" />
    <glyph glyph-name="Thorn" unicode="&#xde;" horiz-adv-x="1041" 
d="M351 785l1 -86h338q164 1 241 -68q83 -65 83 -211q0 -122 -60 -188q-79 -89 -260 -91l-344 1v-142h-271v785h272zM742 412q0 42 -13 62q-25 38 -102 38h-279v-199h278q79 0 104 40q12 20 12 59z" />
    <glyph glyph-name="germandbls" unicode="&#xdf;" horiz-adv-x="1239" 
d="M450 629q-74 0 -74 -73v-556h-259v362h-103v185h103v36q0 107 90.5 163t263.5 56q147 0 232 -54.5t85 -135.5q0 -33 -15 -59t-33.5 -39.5t-33.5 -30t-15 -32.5q0 -15 6 -24t26 -15t37 -8.5t59 -7.5q21 -2 78.5 -9l81.5 -10q128 -15 187.5 -62.5t59.5 -133.5
q0 -193 -377 -193q-188 0 -282.5 40t-122.5 124q-6 19 -8 48h262q0 -14 8 -30q10 -20 42.5 -27t97.5 -7q77 0 102.5 8t25.5 31q0 20 -24.5 29.5t-90.5 16.5l-73.5 8.5t-74.5 8.5q-139 14 -203 48t-64 110q0 35 18.5 65t37 56t18.5 52t-17 43t-51 17z" />
    <glyph glyph-name="agrave" unicode="&#xe0;" horiz-adv-x="897" 
d="M843 0h-244q-1 0 -3 7t-4 18.5t-2 20.5q-33 -25 -108.5 -40.5t-180.5 -15.5q-125 0 -196.5 37t-73.5 110q0 18 1 29q2 79 91.5 125t270.5 48q94 0 189 -10q-2 22 -15 40q-26 36 -121 36q-85 0 -115 -21q-19 -14 -22 -31h-245q3 40 23 76q72 139 368 139q311 0 360 -165
q18 -55 15 -133q-2 -29 -2 -140q0 -106 14 -130zM587 213q-47 10 -166 10q-66 0 -97 -11t-31 -40q0 -22 25 -30t89 -8q83 0 127.5 22t52.5 57zM574 593h-227l-124 184h258z" />
    <glyph glyph-name="aacute" unicode="&#xe1;" horiz-adv-x="897" 
d="M843 0h-244q-1 0 -3 7t-4 18.5t-2 20.5q-33 -25 -108.5 -40.5t-180.5 -15.5q-125 0 -196.5 37t-73.5 110q0 18 1 29q2 79 91.5 125t270.5 48q94 0 189 -10q-2 22 -15 40q-26 36 -121 36q-85 0 -115 -21q-19 -14 -22 -31h-245q3 40 23 76q72 139 368 139q311 0 360 -165
q18 -55 15 -133q-2 -29 -2 -140q0 -106 14 -130zM587 213q-47 10 -166 10q-66 0 -97 -11t-31 -40q0 -22 25 -30t89 -8q83 0 127.5 22t52.5 57zM306 593l94 184h256l-123 -184h-227z" />
    <glyph glyph-name="acircumflex" unicode="&#xe2;" horiz-adv-x="897" 
d="M843 0h-244q-1 0 -3 7t-4 18.5t-2 20.5q-33 -25 -108.5 -40.5t-180.5 -15.5q-125 0 -196.5 37t-73.5 110q0 18 1 29q2 79 91.5 125t270.5 48q94 0 189 -10q-2 22 -15 40q-26 36 -121 36q-85 0 -115 -21q-19 -14 -22 -31h-245q3 40 23 76q72 139 368 139q311 0 360 -165
q18 -55 15 -133q-2 -29 -2 -140q0 -106 14 -130zM587 213q-47 10 -166 10q-66 0 -97 -11t-31 -40q0 -22 25 -30t89 -8q83 0 127.5 22t52.5 57zM699 597h-189l-57 69l-58 -69h-187l125 180h240z" />
    <glyph glyph-name="atilde" unicode="&#xe3;" horiz-adv-x="897" 
d="M843 0h-244q-1 0 -3 7t-4 18.5t-2 20.5q-33 -25 -108.5 -40.5t-180.5 -15.5q-125 0 -196.5 37t-73.5 110q0 18 1 29q2 79 91.5 125t270.5 48q94 0 189 -10q-2 22 -15 40q-26 36 -121 36q-85 0 -115 -21q-19 -14 -22 -31h-245q3 40 23 76q72 139 368 139q311 0 360 -165
q18 -55 15 -133q-2 -29 -2 -140q0 -106 14 -130zM587 213q-47 10 -166 10q-66 0 -97 -11t-31 -40q0 -22 25 -30t89 -8q83 0 127.5 22t52.5 57zM477 611q-60 32 -79 31q-34 0 -34 -43h-157q0 93 34.5 138.5t107.5 45.5q55 0 99 -26q35 -24 59 -23q18 1 26.5 9t9.5 32h153
q0 -98 -33.5 -142t-89.5 -44t-96 22z" />
    <glyph glyph-name="adieresis" unicode="&#xe4;" horiz-adv-x="897" 
d="M843 0h-244q-1 0 -3 7t-4 18.5t-2 20.5q-33 -25 -108.5 -40.5t-180.5 -15.5q-125 0 -196.5 37t-73.5 110q0 18 1 29q2 79 91.5 125t270.5 48q94 0 189 -10q-2 22 -15 40q-26 36 -121 36q-85 0 -115 -21q-19 -14 -22 -31h-245q3 40 23 76q72 139 368 139q311 0 360 -165
q18 -55 15 -133q-2 -29 -2 -140q0 -106 14 -130zM587 213q-47 10 -166 10q-66 0 -97 -11t-31 -40q0 -22 25 -30t89 -8q83 0 127.5 22t52.5 57zM691 597h-186v170h186v-170zM419 597h-188v170h188v-170z" />
    <glyph glyph-name="aring" unicode="&#xe5;" horiz-adv-x="897" 
d="M843 0h-244q-1 0 -3 7t-4 18.5t-2 20.5q-33 -25 -108.5 -40.5t-180.5 -15.5q-125 0 -196.5 37t-73.5 110q0 18 1 29q2 79 91.5 125t270.5 48q94 0 189 -10q-2 22 -15 40q-26 36 -121 36q-85 0 -115 -21q-19 -14 -22 -31h-245q3 40 23 76q72 139 368 139q311 0 360 -165
q18 -55 15 -133q-2 -29 -2 -140q0 -106 14 -130zM587 213q-47 10 -166 10q-66 0 -97 -11t-31 -40q0 -22 25 -30t89 -8q83 0 127.5 22t52.5 57zM457 880q65 0 110 -44t45 -106t-45 -105.5t-110 -43.5q-64 0 -109.5 44t-45.5 105q0 62 45.5 106t109.5 44zM457 780
q-19 0 -33 -14.5t-14 -35.5q0 -19 14 -33.5t33 -14.5t33.5 14.5t14.5 33.5q0 22 -14 36t-34 14z" />
    <glyph glyph-name="ae" unicode="&#xe6;" horiz-adv-x="1439" 
d="M676 81q-68 -51 -154 -71t-206 -20q-127 0 -201.5 35.5t-79.5 107.5q-2 14 0 33q6 76 94.5 122.5t267.5 49.5q85 0 187 -10q-3 26 -26 47q-31 29 -110 29q-72 0 -110 -21q-20 -12 -25 -30h-244q3 38 27 80q80 135 372 135q110 0 175.5 -25.5t85.5 -62.5q23 37 94 62.5
t180 25.5q162 0 265.5 -59.5t132.5 -164.5q19 -48 15 -124h-591q3 -23 21 -42q39 -44 153 -44q97 0 134 25q20 13 23 25h256q-11 -39 -36 -73q-43 -54 -138 -88t-239 -34q-122 0 -207.5 27t-115.5 65zM1166 332q-2 23 -21 42q-45 47 -147 47q-104 0 -147 -43
q-25 -25 -25 -46h340zM591 219q-68 9 -113 10q-109 2 -150 -19q-30 -13 -33 -33q-1 -14 7 -25q19 -20 103 -22q60 -1 106 14q49 13 66 40q14 19 14 35z" />
    <glyph glyph-name="ccedilla" unicode="&#xe7;" horiz-adv-x="883" 
d="M385 -9q-218 17 -303 120q-54 66 -54 166q0 92 53 161q105 130 373 130q284 0 368 -150q28 -49 33 -111h-240q-2 21 -13 37q-35 53 -145 53q-111 0 -152 -50q-22 -27 -22 -69q0 -48 21 -73q40 -49 153 -49q101 0 137 39q15 16 20 37h241q-3 -69 -45 -122
q-89 -108 -299 -119q0 -2 0.5 -5.5t0.5 -5.5q0 -10 17 -16.5t36.5 -11.5t36 -23.5t16.5 -48.5q0 -39 -34.5 -61.5t-95.5 -24t-145 22.5v86q43 -17 76.5 -15t33.5 24q0 12 -16.5 19.5t-33 16.5t-16.5 26q-2 12 -2 17z" />
    <glyph glyph-name="egrave" unicode="&#xe8;" horiz-adv-x="893" 
d="M866 184q-8 -36 -40 -75q-43 -54 -136.5 -87t-235.5 -33q-267 0 -368 121q-57 69 -57 168q0 95 59 162q53 62 149 95t219 33q162 0 266 -58.5t134 -161.5q20 -60 15 -129h-591q5 -26 30 -47q43 -38 147 -38q79 0 121 23q22 11 31 27h257zM619 334q0 26 -23 46
q-44 39 -143 39q-106 0 -148 -42q-21 -21 -24 -43h338zM573 593h-227l-124 184h258z" />
    <glyph glyph-name="eacute" unicode="&#xe9;" horiz-adv-x="893" 
d="M866 184q-8 -36 -40 -75q-43 -54 -136.5 -87t-235.5 -33q-267 0 -368 121q-57 69 -57 168q0 95 59 162q53 62 149 95t219 33q162 0 266 -58.5t134 -161.5q20 -60 15 -129h-591q5 -26 30 -47q43 -38 147 -38q79 0 121 23q22 11 31 27h257zM619 334q0 26 -23 46
q-44 39 -143 39q-106 0 -148 -42q-21 -21 -24 -43h338zM325 593l94 184h256l-123 -184h-227z" />
    <glyph glyph-name="ecircumflex" unicode="&#xea;" horiz-adv-x="893" 
d="M866 184q-8 -36 -40 -75q-43 -54 -136.5 -87t-235.5 -33q-267 0 -368 121q-57 69 -57 168q0 95 59 162q53 62 149 95t219 33q162 0 266 -58.5t134 -161.5q20 -60 15 -129h-591q5 -26 30 -47q43 -38 147 -38q79 0 121 23q22 11 31 27h257zM619 334q0 26 -23 46
q-44 39 -143 39q-106 0 -148 -42q-21 -21 -24 -43h338zM694 597h-189l-57 69l-58 -69h-187l125 180h240z" />
    <glyph glyph-name="edieresis" unicode="&#xeb;" horiz-adv-x="893" 
d="M866 184q-8 -36 -40 -75q-43 -54 -136.5 -87t-235.5 -33q-267 0 -368 121q-57 69 -57 168q0 95 59 162q53 62 149 95t219 33q162 0 266 -58.5t134 -161.5q20 -60 15 -129h-591q5 -26 30 -47q43 -38 147 -38q79 0 121 23q22 11 31 27h257zM619 334q0 26 -23 46
q-44 39 -143 39q-106 0 -148 -42q-21 -21 -24 -43h338zM681 597h-186v170h186v-170zM409 597h-188v170h188v-170z" />
    <glyph glyph-name="igrave" unicode="&#xec;" horiz-adv-x="407" 
d="M345 0h-256q-15 3 -15 93v457h257v-456q0 -58 2 -73.5t12 -20.5zM325 591h-227l-124 184h258z" />
    <glyph glyph-name="iacute" unicode="&#xed;" horiz-adv-x="407" 
d="M345 0h-256q-15 3 -15 93v457h257v-456q0 -58 2 -73.5t12 -20.5zM83 593l94 184h256l-123 -184h-227z" />
    <glyph glyph-name="icircumflex" unicode="&#xee;" horiz-adv-x="407" 
d="M345 0h-256q-15 3 -15 93v457h257v-456q0 -58 2 -73.5t12 -20.5zM446 597h-189l-57 69l-58 -69h-187l125 180h240z" />
    <glyph glyph-name="idieresis" unicode="&#xef;" horiz-adv-x="407" 
d="M345 0h-256q-15 3 -15 93v457h257v-456q0 -58 2 -73.5t12 -20.5zM431 597h-186v170h186v-170zM159 597h-188v170h188v-170z" />
    <glyph glyph-name="eth" unicode="&#xf0;" horiz-adv-x="911" 
d="M599 495q-31 -13 -42 -13q-56 0 -63 61l38 8q3 -29 28 -29q12 0 34 12q-3 18 -10 30q-30 58 -124 58q-103 0 -121 -37q-9 -15 -9 -25h-249q6 46 19 72q22 53 60 87.5t113 56.5t187 22q235 0 341 -134l21 -28q38 18 49 18q27 -1 43 -18t20 -46l-39 -9q-2 29 -29 29
q-8 0 -28 -9q52 -90 52 -208q0 -130 -38 -207q-87 -198 -403 -198q-199 0 -301 53.5t-119 144.5q-9 47 1 103q16 85 92.5 132.5t237.5 47.5q152 0 251 -55q0 38 -12 81zM304 214q7 -28 42 -47t99 -19q58 0 98 19.5t52 50.5q13 27 15 71q-1 0 -8 4.5t-10 6l-11 5.5t-14.5 6.5
t-16.5 6t-20 5.5t-22.5 4t-26.5 3t-29 1q-133 0 -147 -58q-7 -36 -1 -59z" />
    <glyph glyph-name="ntilde" unicode="&#xf1;" horiz-adv-x="897" 
d="M836 0h-252q-4 0 -6 13t-3.5 73.5t-1.5 182.5q0 102 -118 102q-57 0 -95 -30.5t-38 -72.5v-268h-254v550h245v-96q30 57 98 84.5t157 27.5q134 0 197 -68t63 -182q0 -302 8 -316zM484 611q-60 32 -79 31q-34 0 -34 -43h-157q0 93 34.5 138.5t107.5 45.5q55 0 99 -26
q35 -24 59 -23q18 1 26.5 9t9.5 32h153q0 -98 -33.5 -142t-89.5 -44t-96 22z" />
    <glyph glyph-name="ograve" unicode="&#xf2;" horiz-adv-x="916" 
d="M888 278q0 -88 -46 -149q-48 -67 -146.5 -103t-236.5 -36q-285 0 -386 140q-45 61 -45 148q0 88 47 147q105 142 385 142q139 0 235.5 -37t145.5 -101q47 -64 47 -151zM637 277q0 41 -20 65q-40 53 -156 53t-157 -54q-21 -25 -21 -64q0 -40 17 -64q38 -55 161 -55
q120 0 157 54q19 27 19 65zM588 593h-227l-124 184h258z" />
    <glyph glyph-name="oacute" unicode="&#xf3;" horiz-adv-x="916" 
d="M888 278q0 -88 -46 -149q-48 -67 -146.5 -103t-236.5 -36q-285 0 -386 140q-45 61 -45 148q0 88 47 147q105 142 385 142q139 0 235.5 -37t145.5 -101q47 -64 47 -151zM637 277q0 41 -20 65q-40 53 -156 53t-157 -54q-21 -25 -21 -64q0 -40 17 -64q38 -55 161 -55
q120 0 157 54q19 27 19 65zM330 593l94 184h256l-123 -184h-227z" />
    <glyph glyph-name="ocircumflex" unicode="&#xf4;" horiz-adv-x="916" 
d="M888 278q0 -88 -46 -149q-48 -67 -146.5 -103t-236.5 -36q-285 0 -386 140q-45 61 -45 148q0 88 47 147q105 142 385 142q139 0 235.5 -37t145.5 -101q47 -64 47 -151zM637 277q0 41 -20 65q-40 53 -156 53t-157 -54q-21 -25 -21 -64q0 -40 17 -64q38 -55 161 -55
q120 0 157 54q19 27 19 65zM707 597h-189l-57 69l-58 -69h-187l125 180h240z" />
    <glyph glyph-name="otilde" unicode="&#xf5;" horiz-adv-x="916" 
d="M888 278q0 -88 -46 -149q-48 -67 -146.5 -103t-236.5 -36q-285 0 -386 140q-45 61 -45 148q0 88 47 147q105 142 385 142q139 0 235.5 -37t145.5 -101q47 -64 47 -151zM637 277q0 41 -20 65q-40 53 -156 53t-157 -54q-21 -25 -21 -64q0 -40 17 -64q38 -55 161 -55
q120 0 157 54q19 27 19 65zM483 611q-60 32 -79 31q-34 0 -34 -43h-157q0 93 34.5 138.5t107.5 45.5q55 0 99 -26q35 -24 59 -23q18 1 26.5 9t9.5 32h153q0 -98 -33.5 -142t-89.5 -44t-96 22z" />
    <glyph glyph-name="odieresis" unicode="&#xf6;" horiz-adv-x="916" 
d="M888 278q0 -88 -46 -149q-48 -67 -146.5 -103t-236.5 -36q-285 0 -386 140q-45 61 -45 148q0 88 47 147q105 142 385 142q139 0 235.5 -37t145.5 -101q47 -64 47 -151zM637 277q0 41 -20 65q-40 53 -156 53t-157 -54q-21 -25 -21 -64q0 -40 17 -64q38 -55 161 -55
q120 0 157 54q19 27 19 65zM690 597h-186v170h186v-170zM418 597h-188v170h188v-170z" />
    <glyph glyph-name="divide" unicode="&#xf7;" horiz-adv-x="812" 
d="M517 538h-218v148h218v-148zM759 285h-706v189h706v-189zM516 73h-214v147h214v-147z" />
    <glyph glyph-name="oslash" unicode="&#xf8;" horiz-adv-x="916" 
d="M143 62q-43 29 -70 68q-45 61 -45 148q0 88 47 147q105 142 385 142q146 0 248 -41l55 44h109l-98 -79q38 -23 65 -62q49 -62 49 -151q0 -88 -46 -149q-48 -67 -146.5 -103t-236.5 -36q-151 0 -249 40l-59 -48h-108l16.5 13.5l32.5 26l36 28.5zM315 203l222 184
q-27 9 -76 9q-115 0 -159 -55q-19 -23 -19 -64q0 -26 10 -46q9 -17 22 -28zM604 352l-224 -185q34 -9 81 -9q119 0 158 54q18 26 18 65q0 28 -12 48q-7 15 -21 27z" />
    <glyph glyph-name="ugrave" unicode="&#xf9;" horiz-adv-x="894" 
d="M824 0v5q-1 5 -1.5 13.5t-0.5 18.5t-0.5 23t-0.5 25v465h-254v-281q0 -48 -36.5 -75.5t-98.5 -27.5q-116 0 -116 98q0 286 -9 286v0v0v0v0v0h-1v0v0h-1v0h-1v0h-1v0h-1h-1h-1h-1h-1h-1h-1h-1h-1h-1h-1h-1h-1h-1h-1h-1h-1h-1h-1h-1h-1h-1h-1h-1h-1h-1h-1h-1h-1h-1h-1h-1
h-1h-1h-1h-1h-1h-1h-1h-1h-1h-1h-1h-1h-1h-1h-1h-1h-1h-1h-2h-1h-1h-1h-1h-1h-1h-2h-1h-1h-1h-1h-2h-1h-1h-1h-2h-1h-1h-1h-2h-1h-1h-1h-2h-1h-1h-2h-1h-1h-2h-1h-1h-2h-1h-1h-2h-1h-2h-1h-1h-2h-1h-2h-1h-2h-1h-1h-2h-1h-2h-1h-2h-1h-2h-1h-2h-1h-2h-1h-2h-1h-2h-1h-2h-1
h-2h-2h-1h-2h-1h-2h-1h-2h-2h-1h-2h-1h-2h-2h-1h-2h-2h-1h-2h-2h-1h-2h-2h-1h-2h-2h-1h-2h-2h-1h-2h-2h-2h-1h-2h-2h-2h-1h-2h-2h-2h-1h-2h-2h-2h-1h-2h-2h-2h-2h-1h-2h-2h-2h-2h-2h-1h-2h-2h-2h-2h-9q10 -13 10 -344q0 -64 19.5 -108.5t57 -67.5t81.5 -32.5t102 -9.5
q190 0 255 99l6 -87h243zM575 593h-227l-124 184h258z" />
    <glyph glyph-name="uacute" unicode="&#xfa;" horiz-adv-x="894" 
d="M824 0v5q-1 5 -1.5 13.5t-0.5 18.5t-0.5 23t-0.5 25v465h-254v-281q0 -48 -36.5 -75.5t-98.5 -27.5q-116 0 -116 98q0 286 -9 286v0v0v0v0v0h-1v0v0h-1v0h-1v0h-1v0h-1h-1h-1h-1h-1h-1h-1h-1h-1h-1h-1h-1h-1h-1h-1h-1h-1h-1h-1h-1h-1h-1h-1h-1h-1h-1h-1h-1h-1h-1h-1h-1
h-1h-1h-1h-1h-1h-1h-1h-1h-1h-1h-1h-1h-1h-1h-1h-1h-1h-1h-2h-1h-1h-1h-1h-1h-1h-2h-1h-1h-1h-1h-2h-1h-1h-1h-2h-1h-1h-1h-2h-1h-1h-1h-2h-1h-1h-2h-1h-1h-2h-1h-1h-2h-1h-1h-2h-1h-2h-1h-1h-2h-1h-2h-1h-2h-1h-1h-2h-1h-2h-1h-2h-1h-2h-1h-2h-1h-2h-1h-2h-1h-2h-1h-2h-1
h-2h-2h-1h-2h-1h-2h-1h-2h-2h-1h-2h-1h-2h-2h-1h-2h-2h-1h-2h-2h-1h-2h-2h-1h-2h-2h-1h-2h-2h-1h-2h-2h-2h-1h-2h-2h-2h-1h-2h-2h-2h-1h-2h-2h-2h-1h-2h-2h-2h-2h-1h-2h-2h-2h-2h-2h-1h-2h-2h-2h-2h-9q10 -13 10 -344q0 -64 19.5 -108.5t57 -67.5t81.5 -32.5t102 -9.5
q190 0 255 99l6 -87h243zM311 593l94 184h256l-123 -184h-227z" />
    <glyph glyph-name="ucircumflex" unicode="&#xfb;" horiz-adv-x="894" 
d="M824 0v5q-1 5 -1.5 13.5t-0.5 18.5t-0.5 23t-0.5 25v465h-254v-281q0 -48 -36.5 -75.5t-98.5 -27.5q-116 0 -116 98q0 286 -9 286v0v0v0v0v0h-1v0v0h-1v0h-1v0h-1v0h-1h-1h-1h-1h-1h-1h-1h-1h-1h-1h-1h-1h-1h-1h-1h-1h-1h-1h-1h-1h-1h-1h-1h-1h-1h-1h-1h-1h-1h-1h-1h-1
h-1h-1h-1h-1h-1h-1h-1h-1h-1h-1h-1h-1h-1h-1h-1h-1h-1h-1h-2h-1h-1h-1h-1h-1h-1h-2h-1h-1h-1h-1h-2h-1h-1h-1h-2h-1h-1h-1h-2h-1h-1h-1h-2h-1h-1h-2h-1h-1h-2h-1h-1h-2h-1h-1h-2h-1h-2h-1h-1h-2h-1h-2h-1h-2h-1h-1h-2h-1h-2h-1h-2h-1h-2h-1h-2h-1h-2h-1h-2h-1h-2h-1h-2h-1
h-2h-2h-1h-2h-1h-2h-1h-2h-2h-1h-2h-1h-2h-2h-1h-2h-2h-1h-2h-2h-1h-2h-2h-1h-2h-2h-1h-2h-2h-1h-2h-2h-2h-1h-2h-2h-2h-1h-2h-2h-2h-1h-2h-2h-2h-1h-2h-2h-2h-2h-1h-2h-2h-2h-2h-2h-1h-2h-2h-2h-2h-9q10 -13 10 -344q0 -64 19.5 -108.5t57 -67.5t81.5 -32.5t102 -9.5
q190 0 255 99l6 -87h243zM686 597h-189l-57 69l-58 -69h-187l125 180h240z" />
    <glyph glyph-name="udieresis" unicode="&#xfc;" horiz-adv-x="894" 
d="M824 0v5q-1 5 -1.5 13.5t-0.5 18.5t-0.5 23t-0.5 25v465h-254v-281q0 -48 -36.5 -75.5t-98.5 -27.5q-116 0 -116 98q0 286 -9 286v0v0v0v0v0h-1v0v0h-1v0h-1v0h-1v0h-1h-1h-1h-1h-1h-1h-1h-1h-1h-1h-1h-1h-1h-1h-1h-1h-1h-1h-1h-1h-1h-1h-1h-1h-1h-1h-1h-1h-1h-1h-1h-1
h-1h-1h-1h-1h-1h-1h-1h-1h-1h-1h-1h-1h-1h-1h-1h-1h-1h-1h-2h-1h-1h-1h-1h-1h-1h-2h-1h-1h-1h-1h-2h-1h-1h-1h-2h-1h-1h-1h-2h-1h-1h-1h-2h-1h-1h-2h-1h-1h-2h-1h-1h-2h-1h-1h-2h-1h-2h-1h-1h-2h-1h-2h-1h-2h-1h-1h-2h-1h-2h-1h-2h-1h-2h-1h-2h-1h-2h-1h-2h-1h-2h-1h-2h-1
h-2h-2h-1h-2h-1h-2h-1h-2h-2h-1h-2h-1h-2h-2h-1h-2h-2h-1h-2h-2h-1h-2h-2h-1h-2h-2h-1h-2h-2h-1h-2h-2h-2h-1h-2h-2h-2h-1h-2h-2h-2h-1h-2h-2h-2h-1h-2h-2h-2h-2h-1h-2h-2h-2h-2h-2h-1h-2h-2h-2h-2h-9q10 -13 10 -344q0 -64 19.5 -108.5t57 -67.5t81.5 -32.5t102 -9.5
q190 0 255 99l6 -87h243zM667 597h-186v170h186v-170zM395 597h-188v170h188v-170z" />
    <glyph glyph-name="yacute" unicode="&#xfd;" horiz-adv-x="892" 
d="M885 550l-394 -730h-274l98 175l-310 555h269q0 -2 89.5 -169t89.5 -169q0 2 84 168.5t84 169.5h264zM333 593l94 184h256l-123 -184h-227z" />
    <glyph glyph-name="thorn" unicode="&#xfe;" horiz-adv-x="925" 
d="M896 282q0 -83 -37 -152q-40 -65 -117.5 -100t-181.5 -35q-67 0 -136.5 18.5t-97.5 53.5v-247h-260v975h261v-312q27 38 93 63t154 25q209 0 284 -130q38 -67 38 -159zM632 281q0 45 -21 70q-37 50 -137 50t-134 -53q-22 -27 -22 -68t18 -66q34 -52 138 -52q108 0 140 52
q18 27 18 67z" />
    <glyph glyph-name="ydieresis" unicode="&#xff;" horiz-adv-x="892" 
d="M885 550l-394 -730h-274l98 175l-310 555h269q0 -2 89.5 -169t89.5 -169q0 2 84 168.5t84 169.5h264zM678 597h-186v170h186v-170zM406 597h-188v170h188v-170z" />
    <glyph glyph-name="dotlessi" unicode="&#x131;" horiz-adv-x="407" 
d="M345 0h-256q-15 3 -15 93v457h257v-456q0 -58 2 -73.5t12 -20.5z" />
    <glyph glyph-name="Lslash" unicode="&#x141;" horiz-adv-x="858" 
d="M350 341v-131h478v-210h-749v293l-52 -10v150l52 10v342h271v-294l288 57v-150z" />
    <glyph glyph-name="lslash" unicode="&#x142;" horiz-adv-x="419" 
d="M336 307v-249q0 -53 15 -58h-257q-12 3 -12 70v176l-68 -18v169l68 17v297q0 60 -5 77h254q5 -25 5 -71v-241l70 18v-168z" />
    <glyph glyph-name="OE" unicode="&#x152;" horiz-adv-x="1617" 
d="M795 785h780v-195h-542v-102h526v-191h-526v-103h549v-194h-788v52q-29 -26 -95.5 -45t-148.5 -19q-156 0 -273 43.5t-178 129.5q-66 93 -66 237q0 141 75 235q70 90 175.5 129.5t254.5 39.5q143 0 257 -62v45zM561 190q88 0 141.5 19.5t70.5 49.5q10 19 10 137
q0 111 -11 130q-58 73 -211 73q-155 0 -221 -83q-33 -42 -33 -121q0 -88 39 -131q64 -74 215 -74z" />
    <glyph glyph-name="oe" unicode="&#x153;" horiz-adv-x="1491" 
d="M461 -10q-288 0 -388 140q-45 61 -45 148q0 88 48 148q104 141 386 141q216 0 301 -87q31 38 106 63t185 25q162 0 266.5 -58.5t135.5 -162.5q18 -63 13 -128h-590q4 -23 30 -47q43 -38 143 -38q83 0 125 21q25 14 30 29h258q-12 -40 -40 -74q-44 -54 -137.5 -87.5
t-235.5 -33.5q-106 0 -182 24t-115 61q-40 -34 -114 -59t-180 -25zM1218 334q-4 25 -25 45q-46 41 -141 41q-102 0 -147 -42q-24 -23 -26 -44h339zM640 277q0 39 -18 64q-39 54 -159 54q-118 0 -161 -54q-20 -26 -20 -64q0 -39 18 -65q40 -54 163 -54q121 0 159 55
q18 26 18 64z" />
    <glyph glyph-name="Scaron" unicode="&#x160;" horiz-adv-x="1041" 
d="M1005 244q0 -125 -121.5 -190.5t-359.5 -65.5q-388 0 -474 194q-11 27 -19 78h288q4 -24 19 -42q38 -46 205 -46q105 0 143.5 14.5t38.5 45.5t-32.5 42.5t-136.5 22.5q-146 14 -172 16q-186 17 -267 75t-81 162q0 109 124 178t345 69q352 0 446 -180q24 -44 29 -88h-288
q-2 18 -16 36q-36 48 -178 48q-102 0 -140 -12.5t-38 -40.5q0 -29 40 -41t164 -25q106 -9 191 -19q152 -16 221 -72t69 -159zM260 1015h189l58 -69l57 69h187l-125 -180h-240z" />
    <glyph glyph-name="scaron" unicode="&#x161;" horiz-adv-x="828" 
d="M802 170q0 -92 -89.5 -137t-281.5 -45q-194 0 -285.5 37t-118.5 120q-6 19 -8 43h255q2 -14 9 -25q19 -26 146 -26q54 0 82 3.5t36.5 10t8.5 18.5q0 15 -22 21t-96 13q-28 3 -133 15q-139 14 -207 52.5t-68 116.5q0 86 91.5 133.5t265.5 47.5q165 0 256.5 -34t120.5 -109
q9 -22 11 -54h-246q-1 12 -11 23q-20 21 -119 21q-50 0 -76.5 -3t-35 -9t-8.5 -16q0 -15 19 -20t94 -12l83 -8.5t84 -8.5q126 -12 184.5 -51t58.5 -117zM139 779h189l58 -69l57 69h187l-125 -180h-240z" />
    <glyph glyph-name="Ydieresis" unicode="&#x178;" horiz-adv-x="1109" 
d="M1105 785l-420 -526v-259h-269v258l-415 527h305l248 -314l255 314h296zM787 832h-186v170h186v-170zM515 832h-188v170h188v-170z" />
    <glyph glyph-name="Zcaron" unicode="&#x17d;" horiz-adv-x="979" 
d="M957 0h-930v195l506 383h-478v207h887v-193l-532 -388h547v-204zM242 1014h189l58 -69l57 69h187l-125 -180h-240z" />
    <glyph glyph-name="zcaron" unicode="&#x17e;" horiz-adv-x="815" 
d="M778 0h-737v160l335 216h-319v171h702v-159l-348 -217h367v-171zM159 779h189l58 -69l57 69h187l-125 -180h-240z" />
    <glyph glyph-name="florin" unicode="&#x192;" horiz-adv-x="608" 
d="M348 -20q-27 -204 -250 -204q-92 0 -173 13l1 182q35 -5 73 -5q33 1 56 17t26 44q1 4 7.5 70l15.5 151.5t15 129.5h-88v181h114l6 73q23 179 277 179q79 0 171 -14v-165q-85 10 -96 10q-89 -2 -93 -46l-2 -37h169v-181h-188q-40 -394 -41 -398z" />
    <glyph glyph-name="circumflex" unicode="&#x2c6;" 
d="M519 597h-189l-57 69l-58 -69h-187l125 180h240z" />
    <glyph glyph-name="caron" unicode="&#x2c7;" 
d="M26 779h189l58 -69l57 69h187l-125 -180h-240z" />
    <glyph glyph-name="breve" unicode="&#x2d8;" 
d="M491 768q0 -75 -56.5 -128t-160.5 -53q-100 0 -160.5 54t-60.5 127h166q0 -64 54 -64t54 64h164z" />
    <glyph glyph-name="dotaccent" unicode="&#x2d9;" 
d="M367 598h-186v168h186v-168z" />
    <glyph glyph-name="ring" unicode="&#x2da;" 
d="M273 867q65 0 110 -44t45 -106t-45 -105.5t-110 -43.5q-64 0 -109.5 44t-45.5 105q0 62 45.5 106t109.5 44zM273 767q-19 0 -33 -14.5t-14 -35.5q0 -19 14 -33.5t33 -14.5t33.5 14.5t14.5 33.5q0 22 -14 36t-34 14z" />
    <glyph glyph-name="ogonek" unicode="&#x2db;" horiz-adv-x="562" 
d="M287 -97q0 -27 70 -27v-73q-206 3 -206 100q0 96 180 97l1 -68q-45 -3 -45 -29z" />
    <glyph glyph-name="tilde" unicode="&#x2dc;" 
d="M297 611q-60 32 -79 31q-34 0 -34 -43h-157q0 93 34.5 138.5t107.5 45.5q55 0 99 -26q35 -24 59 -23q18 1 26.5 9t9.5 32h153q0 -98 -33.5 -142t-89.5 -44t-96 22z" />
    <glyph glyph-name="hungarumlaut" unicode="&#x2dd;" 
d="M289 593l89 184h176l-117 -184h-148zM79 593l89 184h177l-118 -184h-148z" />
    <glyph glyph-name="Delta" unicode="&#x394;" horiz-adv-x="678" 
d="M320 543l4 81h-319v171h668v-171h-319l5 -81q50 -8 84 -47.5t34 -90.5q0 -52 -34.5 -91.5t-84.5 -46.5l-5 -76h320v-186h-668v186h318l-4 76q-50 8 -83.5 47t-33.5 91q0 51 34.5 90.5t83.5 47.5zM354 490v-47l-16 -34l-14 34v47q-30 -6 -50.5 -30t-20.5 -55t20 -54.5
t50 -29.5v47l15 33l15 -33v-47q30 5 51 29t21 55t-20.5 55t-50.5 30zM163 568q20 -20 36 -31q-28 14 -40 22q-16 9 -16 15q0 8 16 -3q2 -2 4 -3zM517 264q-28 14 -41 22q7 -5 19 -16t16 -14q16 -13 20 -8t-14 16zM474 540q29 20 39 29q12 10 18 10q8 0 -6 -10q-3 -3 -7 -5
l-11.5 -8t-16.5 -10.5t-16 -5.5zM212 288l-37 -31q-14 -11 -20 -9q-7 2 9 13q3 2 5 3q30 15 43 24zM473 288q2 -2 3 -2q-1 0 -3 2zM202 535q-1 0 -3 2q2 -2 3 -2z" />
    <glyph glyph-name="Delta" unicode="&#x2206;" horiz-adv-x="678" 
d="M320 543l4 81h-319v171h668v-171h-319l5 -81q50 -8 84 -47.5t34 -90.5q0 -52 -34.5 -91.5t-84.5 -46.5l-5 -76h320v-186h-668v186h318l-4 76q-50 8 -83.5 47t-33.5 91q0 51 34.5 90.5t83.5 47.5zM354 490v-47l-16 -34l-14 34v47q-30 -6 -50.5 -30t-20.5 -55t20 -54.5
t50 -29.5v47l15 33l15 -33v-47q30 5 51 29t21 55t-20.5 55t-50.5 30zM163 568q20 -20 36 -31q-28 14 -40 22q-16 9 -16 15q0 8 16 -3q2 -2 4 -3zM517 264q-28 14 -41 22q7 -5 19 -16t16 -14q16 -13 20 -8t-14 16zM474 540q29 20 39 29q12 10 18 10q8 0 -6 -10q-3 -3 -7 -5
l-11.5 -8t-16.5 -10.5t-16 -5.5zM212 288l-37 -31q-14 -11 -20 -9q-7 2 9 13q3 2 5 3q30 15 43 24zM473 288q2 -2 3 -2q-1 0 -3 2zM202 535q-1 0 -3 2q2 -2 3 -2z" />
    <glyph glyph-name="Omega" unicode="&#x3a9;" horiz-adv-x="678" 
d="M320 543l4 81h-319v171h668v-171h-319l5 -81q50 -8 84 -47.5t34 -90.5q0 -52 -34.5 -91.5t-84.5 -46.5l-5 -76h320v-186h-668v186h318l-4 76q-50 8 -83.5 47t-33.5 91q0 51 34.5 90.5t83.5 47.5zM354 490v-47l-16 -34l-14 34v47q-30 -6 -50.5 -30t-20.5 -55t20 -54.5
t50 -29.5v47l15 33l15 -33v-47q30 5 51 29t21 55t-20.5 55t-50.5 30zM163 568q20 -20 36 -31q-28 14 -40 22q-16 9 -16 15q0 8 16 -3q2 -2 4 -3zM517 264q-28 14 -41 22q7 -5 19 -16t16 -14q16 -13 20 -8t-14 16zM474 540q29 20 39 29q12 10 18 10q8 0 -6 -10q-3 -3 -7 -5
l-11.5 -8t-16.5 -10.5t-16 -5.5zM212 288l-37 -31q-14 -11 -20 -9q-7 2 9 13q3 2 5 3q30 15 43 24zM473 288q2 -2 3 -2q-1 0 -3 2zM202 535q-1 0 -3 2q2 -2 3 -2z" />
    <glyph glyph-name="Omega" unicode="&#x2126;" horiz-adv-x="678" 
d="M320 543l4 81h-319v171h668v-171h-319l5 -81q50 -8 84 -47.5t34 -90.5q0 -52 -34.5 -91.5t-84.5 -46.5l-5 -76h320v-186h-668v186h318l-4 76q-50 8 -83.5 47t-33.5 91q0 51 34.5 90.5t83.5 47.5zM354 490v-47l-16 -34l-14 34v47q-30 -6 -50.5 -30t-20.5 -55t20 -54.5
t50 -29.5v47l15 33l15 -33v-47q30 5 51 29t21 55t-20.5 55t-50.5 30zM163 568q20 -20 36 -31q-28 14 -40 22q-16 9 -16 15q0 8 16 -3q2 -2 4 -3zM517 264q-28 14 -41 22q7 -5 19 -16t16 -14q16 -13 20 -8t-14 16zM474 540q29 20 39 29q12 10 18 10q8 0 -6 -10q-3 -3 -7 -5
l-11.5 -8t-16.5 -10.5t-16 -5.5zM212 288l-37 -31q-14 -11 -20 -9q-7 2 9 13q3 2 5 3q30 15 43 24zM473 288q2 -2 3 -2q-1 0 -3 2zM202 535q-1 0 -3 2q2 -2 3 -2z" />
    <glyph glyph-name="pi" unicode="&#x3c0;" horiz-adv-x="1051" 
d="M1006 316q-6 -136 -134.5 -223t-344.5 -87q-221 0 -348.5 85.5t-132.5 224.5q-5 113 0 182q8 137 138 220t342 83q210 0 340 -83t140 -220q6 -63 0 -182zM949 330q4 62 0 156q-7 119 -124 189t-299 70q-184 0 -301.5 -67.5t-121.5 -190.5v-157q4 -124 122.5 -196.5
t300.5 -72.5q186 0 301.5 73.5t121.5 195.5zM454 299v-129h-210v471h359q106 0 164 -46q52 -42 52 -123q0 -86 -40 -125q-22 -22 -65.5 -35t-83.5 -13h-176zM612 461q0 21 -13.5 33t-34.5 12h-110v-88h108q50 0 50 43z" />
    <glyph glyph-name="endash" unicode="&#x2013;" horiz-adv-x="670" 
d="M637 221h-604v215h604v-215z" />
    <glyph glyph-name="emdash" unicode="&#x2014;" horiz-adv-x="849" 
d="M806 221h-764v215h764v-215z" />
    <glyph glyph-name="quoteleft" unicode="&#x2018;" horiz-adv-x="417" 
d="M366 622v-288h-304v280l190 187l125 -98l-75 -86l21 5h43z" />
    <glyph glyph-name="quoteright" unicode="&#x2019;" horiz-adv-x="417" 
d="M53 509v289h304v-282l-190 -186l-124 96l73 88l-20 -5h-43z" />
    <glyph glyph-name="quotesinglbase" unicode="&#x201a;" horiz-adv-x="417" 
d="M53 0v289h304v-281l-190 -188l-124 97l73 89l-20 -6h-43z" />
    <glyph glyph-name="quotedblleft" unicode="&#x201c;" horiz-adv-x="770" 
d="M703 602v-268h-280v261l189 206l125 -98l-92 -106l18 5h40zM343 602v-268h-281v261l190 206l125 -98l-93 -106l19 5h40z" />
    <glyph glyph-name="quotedblright" unicode="&#x201d;" horiz-adv-x="770" 
d="M430 529v269h280v-262l-189 -206l-125 96l92 108l-19 -5h-39zM70 529v269h280v-262l-189 -206l-125 96l92 108l-19 -5h-39z" />
    <glyph glyph-name="quotedblbase" unicode="&#x201e;" horiz-adv-x="770" 
d="M430 0v269h280v-262l-189 -207l-125 97l92 108l-19 -5h-39zM70 0v269h280v-262l-189 -207l-125 97l92 108l-19 -5h-39z" />
    <glyph glyph-name="dagger" unicode="&#x2020;" horiz-adv-x="746" 
d="M731 338h-223v-314l-140 -177l-133 177v314h-219v207h219l-1 249h274v-249h223v-207z" />
    <glyph glyph-name="daggerdbl" unicode="&#x2021;" horiz-adv-x="746" 
d="M509 367h210v-168h-206v-178l-136 -174l-131 173v179h-218v168h223v65h-223v169h218l-1 193h269q0 -167 -1 -193h206v-169h-210v-65z" />
    <glyph glyph-name="bullet" unicode="&#x2022;" horiz-adv-x="576" 
d="M289 144q-90 0 -154.5 63t-64.5 153q0 92 64 154.5t155 62.5t155 -62.5t64 -154.5q0 -90 -64 -153t-155 -63z" />
    <glyph glyph-name="ellipsis" unicode="&#x2026;" horiz-adv-x="1275" 
d="M1207 0h-287v267h287v-267zM783 0h-288v267h288v-267zM358 0h-287v267h287v-267z" />
    <glyph glyph-name="perthousand" unicode="&#x2030;" horiz-adv-x="1917" 
d="M1885 179q0 -81 -78.5 -136.5t-220.5 -55.5q-130 0 -209 57t-79 135v37q0 74 78.5 132.5t214.5 58.5q137 0 215.5 -60t78.5 -131v-37zM1255 179q0 -81 -78.5 -136.5t-220.5 -55.5q-130 0 -209 57t-79 135v37q0 74 78.5 132.5t214.5 58.5q137 0 215.5 -60t78.5 -131v-37z
M626 573q0 -80 -82 -135.5t-216 -55.5q-132 0 -210 54.5t-78 136.5v36q0 76 79 134t214 58q139 0 216 -60t77 -132v-36zM1004 783l-599 -783h-125l602 783h122zM440 579v19q0 21 -29 40.5t-78 19.5q-53 0 -80.5 -18.5t-27.5 -41.5v-19q0 -23 28.5 -40t81.5 -17q54 0 79.5 18
t25.5 39zM1699 187v19q0 19 -28 38t-79 19q-52 0 -80 -18.5t-28 -38.5v-19q0 -21 28.5 -40t79.5 -19q56 0 81.5 18.5t25.5 40.5zM1069 187v19q0 19 -28.5 38t-78.5 19q-52 0 -80 -18.5t-28 -38.5v-19q0 -21 28.5 -40t79.5 -19q56 0 81.5 18.5t25.5 40.5z" />
    <glyph glyph-name="guilsinglleft" unicode="&#x2039;" horiz-adv-x="445" 
d="M423 63l-401 214v158l401 211v-209l-180 -80l180 -85v-209z" />
    <glyph glyph-name="guilsinglright" unicode="&#x203a;" horiz-adv-x="445" 
d="M22 63v209l180 85l-180 80v209l401 -211v-158z" />
    <glyph glyph-name="fraction" unicode="&#x2044;" horiz-adv-x="290" 
d="M452 785l-504 -785h-95l503 785h96z" />
    <glyph glyph-name="fraction" unicode="&#x2215;" horiz-adv-x="290" 
d="M452 785l-504 -785h-95l503 785h96z" />
    <glyph glyph-name="Euro" unicode="&#x20ac;" horiz-adv-x="1001" 
d="M95 405h-73v95h81q1 2 2 7.5t1 7.5q25 128 135 205t295 77q181 0 293 -79t137 -205q6 -29 8 -48h-284q-1 6 -3 16q-11 62 -47 91.5t-103 29.5q-124 0 -150 -102h247v-95h-259v-24h259v-95h-248q25 -107 150 -107q133 0 152 121q2 14 2 16h282q-4 -30 -7 -42
q-26 -131 -139 -208.5t-290 -77.5q-179 0 -288.5 72.5t-138.5 199.5l-3 14.5t-2 11.5h-82v95h73v24z" />
    <glyph glyph-name="trademark" unicode="&#x2122;" horiz-adv-x="1262" 
d="M1013 470v139q0 35 -30 35q-16 0 -25.5 -13t-9.5 -34v-127h-209v141q0 33 -31 33q-16 0 -25.5 -13.5t-9.5 -33.5v-127h-210v318h209v-46q11 23 48.5 37t89.5 14q99 0 123 -53q31 53 140 53q77 0 118.5 -36t41.5 -82v-205h-220zM432 655h-130q0 -33 1 -36q0 -27 49 -27
q39 0 48 1v-120q-30 -9 -122 -9q-74 0 -114.5 28.5t-40.5 84.5v78h-117v133h426v-133z" />
    <glyph glyph-name="partialdiff" unicode="&#x2202;" horiz-adv-x="678" 
d="M320 543l4 81h-319v171h668v-171h-319l5 -81q50 -8 84 -47.5t34 -90.5q0 -52 -34.5 -91.5t-84.5 -46.5l-5 -76h320v-186h-668v186h318l-4 76q-50 8 -83.5 47t-33.5 91q0 51 34.5 90.5t83.5 47.5zM354 490v-47l-16 -34l-14 34v47q-30 -6 -50.5 -30t-20.5 -55t20 -54.5
t50 -29.5v47l15 33l15 -33v-47q30 5 51 29t21 55t-20.5 55t-50.5 30zM163 568q20 -20 36 -31q-28 14 -40 22q-16 9 -16 15q0 8 16 -3q2 -2 4 -3zM517 264q-28 14 -41 22q7 -5 19 -16t16 -14q16 -13 20 -8t-14 16zM474 540q29 20 39 29q12 10 18 10q8 0 -6 -10q-3 -3 -7 -5
l-11.5 -8t-16.5 -10.5t-16 -5.5zM212 288l-37 -31q-14 -11 -20 -9q-7 2 9 13q3 2 5 3q30 15 43 24zM473 288q2 -2 3 -2q-1 0 -3 2zM202 535q-1 0 -3 2q2 -2 3 -2z" />
    <glyph glyph-name="product" unicode="&#x220f;" horiz-adv-x="678" 
d="M320 543l4 81h-319v171h668v-171h-319l5 -81q50 -8 84 -47.5t34 -90.5q0 -52 -34.5 -91.5t-84.5 -46.5l-5 -76h320v-186h-668v186h318l-4 76q-50 8 -83.5 47t-33.5 91q0 51 34.5 90.5t83.5 47.5zM354 490v-47l-16 -34l-14 34v47q-30 -6 -50.5 -30t-20.5 -55t20 -54.5
t50 -29.5v47l15 33l15 -33v-47q30 5 51 29t21 55t-20.5 55t-50.5 30zM163 568q20 -20 36 -31q-28 14 -40 22q-16 9 -16 15q0 8 16 -3q2 -2 4 -3zM517 264q-28 14 -41 22q7 -5 19 -16t16 -14q16 -13 20 -8t-14 16zM474 540q29 20 39 29q12 10 18 10q8 0 -6 -10q-3 -3 -7 -5
l-11.5 -8t-16.5 -10.5t-16 -5.5zM212 288l-37 -31q-14 -11 -20 -9q-7 2 9 13q3 2 5 3q30 15 43 24zM473 288q2 -2 3 -2q-1 0 -3 2zM202 535q-1 0 -3 2q2 -2 3 -2z" />
    <glyph glyph-name="summation" unicode="&#x2211;" horiz-adv-x="678" 
d="M320 543l4 81h-319v171h668v-171h-319l5 -81q50 -8 84 -47.5t34 -90.5q0 -52 -34.5 -91.5t-84.5 -46.5l-5 -76h320v-186h-668v186h318l-4 76q-50 8 -83.5 47t-33.5 91q0 51 34.5 90.5t83.5 47.5zM354 490v-47l-16 -34l-14 34v47q-30 -6 -50.5 -30t-20.5 -55t20 -54.5
t50 -29.5v47l15 33l15 -33v-47q30 5 51 29t21 55t-20.5 55t-50.5 30zM163 568q20 -20 36 -31q-28 14 -40 22q-16 9 -16 15q0 8 16 -3q2 -2 4 -3zM517 264q-28 14 -41 22q7 -5 19 -16t16 -14q16 -13 20 -8t-14 16zM474 540q29 20 39 29q12 10 18 10q8 0 -6 -10q-3 -3 -7 -5
l-11.5 -8t-16.5 -10.5t-16 -5.5zM212 288l-37 -31q-14 -11 -20 -9q-7 2 9 13q3 2 5 3q30 15 43 24zM473 288q2 -2 3 -2q-1 0 -3 2zM202 535q-1 0 -3 2q2 -2 3 -2z" />
    <glyph glyph-name="minus" unicode="&#x2212;" horiz-adv-x="817" 
d="M760 271h-708v203h708v-203z" />
    <glyph glyph-name="radical" unicode="&#x221a;" horiz-adv-x="1032" 
d="M1023 787l-488 -816h-255l-268 351h284l107 -135l354 600h266z" />
    <glyph glyph-name="infinity" unicode="&#x221e;" horiz-adv-x="864" 
d="M830 376q0 -75 -54 -115t-178 -40q-108 0 -163 42q-62 -42 -180 -42q-221 0 -221 149q0 155 219 155q111 0 170 -53q73 53 166 53q130 0 185.5 -37t55.5 -112zM657 377q0 52 -65 52q-13 0 -23.5 -4t-17 -7t-14.5 -14.5t-10.5 -15.5t-11 -21l-10.5 -21q26 -28 73 -28
q79 0 79 59zM264 318q53 0 88 62q-30 49 -83 49q-62 0 -62 -59q0 -52 57 -52z" />
    <glyph glyph-name="integral" unicode="&#x222b;" horiz-adv-x="678" 
d="M320 543l4 81h-319v171h668v-171h-319l5 -81q50 -8 84 -47.5t34 -90.5q0 -52 -34.5 -91.5t-84.5 -46.5l-5 -76h320v-186h-668v186h318l-4 76q-50 8 -83.5 47t-33.5 91q0 51 34.5 90.5t83.5 47.5zM354 490v-47l-16 -34l-14 34v47q-30 -6 -50.5 -30t-20.5 -55t20 -54.5
t50 -29.5v47l15 33l15 -33v-47q30 5 51 29t21 55t-20.5 55t-50.5 30zM163 568q20 -20 36 -31q-28 14 -40 22q-16 9 -16 15q0 8 16 -3q2 -2 4 -3zM517 264q-28 14 -41 22q7 -5 19 -16t16 -14q16 -13 20 -8t-14 16zM474 540q29 20 39 29q12 10 18 10q8 0 -6 -10q-3 -3 -7 -5
l-11.5 -8t-16.5 -10.5t-16 -5.5zM212 288l-37 -31q-14 -11 -20 -9q-7 2 9 13q3 2 5 3q30 15 43 24zM473 288q2 -2 3 -2q-1 0 -3 2zM202 535q-1 0 -3 2q2 -2 3 -2z" />
    <glyph glyph-name="approxequal" unicode="&#x2248;" horiz-adv-x="866" 
d="M829 630q5 -115 -50 -181.5t-159 -66.5q-78 0 -164 39l-40.5 20t-43 20t-35 11t-42.5 6q-69 0 -69 -65h-190q-5 114 49.5 181t158.5 67q42 0 81.5 -9.5t62 -19t56.5 -27.5l44 -22.5t37 -13.5t46 -7q68 0 68 68h190zM829 356q5 -115 -50 -181t-159 -66q-84 0 -164 40
q-12 6 -41 19.5l-42.5 19.5t-35.5 11.5t-42 5.5q-69 0 -69 -65h-190q-5 114 49.5 181t158.5 67q42 0 82.5 -10t60.5 -19l57 -27l12.5 -6.5l13.5 -7l12 -6t12.5 -6l11.5 -5t12.5 -4.5t12 -3.5t13.5 -3.5t13 -1.5t14 -0.5q68 0 68 69z" />
    <glyph glyph-name="notequal" unicode="&#x2260;" horiz-adv-x="771" 
d="M735 166h-442l-47 -73h-96l48 73h-162v177h283l39 57v0v0v0h-1v0v0h-1v0h-1v0h-1v0h-1v0h-1h-1h-1v0h-1h-1h-1h-1h-1h-1h-1h-1h-1h-1h-1h-1h-1h-1h-1h-1h-1h-1h-1h-1h-1h-1h-1h-1h-1h-1h-1h-1h-1h-1h-1h-1h-1h-1h-1h-1h-1h-1h-1h-1h-1h-1h-1h-1h-1h-1h-1h-1h-1h-1h-1h-1
h-1h-1h-1h-1h-1h-1h-2h-1h-1h-1h-1h-1h-1h-2h-1h-1h-1h-1h-1h-2h-1h-1h-1h-1h-2h-1h-1h-1h-2h-1h-1h-1h-2h-1h-1h-1h-2h-1h-1h-2h-1h-1h-2h-1h-1h-2h-1h-1h-2h-1h-1h-2h-1h-2h-1h-1h-2h-1h-2h-1h-1h-2h-1h-2h-1h-1h-2h-1h-2h-1h-2h-1h-2h-1h-2h-1h-2h-1h-2h-1h-2h-1h-2h-1
h-2h-1h-2h-1h-2h-1h-2h-2h-1h-2h-1h-2h-1h-2h-2h-1h-2h-1h-2h-2h-1h-2h-1h-2h-2h-1h-2h-2h-1h-2h-2h-1h-2h-2h-1h-2h-2h-1h-2h-2h-1h-2h-2h-2h-1h-2h-2h-1h-2h-2h-2h-1h-2h-2h-2h-1h-2h-2h-2h-1h-2h-2h-2h-2h-1h-2h-2h-2h-2h-2h-1h-2h-2h-2h-2h-1h-2h-2h-2h-2h-2h-2h-1h-2
h-9v177h444l61 90h94l-61 -90h161v-177h-282l-40 -57h322v-177z" />
    <glyph glyph-name="lessequal" unicode="&#x2264;" horiz-adv-x="789" 
d="M736 254l-683 158v154l683 159v-161l-450 -75l450 -73v-162zM737 71h-684v158h684v-158z" />
    <glyph glyph-name="greaterequal" unicode="&#x2265;" horiz-adv-x="789" 
d="M737 412l-684 -158v162l450 73l-450 75v161l684 -159v-154zM737 71h-684v158h684v-158z" />
    <glyph glyph-name="lozenge" unicode="&#x25ca;" horiz-adv-x="1063" 
d="M1038 320l-382 -320h-249l-382 320l382 320h249zM731 320l-199 168l-199 -168l199 -174z" />
    <glyph glyph-name="apple" unicode="&#xf8ff;" horiz-adv-x="678" 
d="M320 543l4 81h-319v171h668v-171h-319l5 -81q50 -8 84 -47.5t34 -90.5q0 -52 -34.5 -91.5t-84.5 -46.5l-5 -76h320v-186h-668v186h318l-4 76q-50 8 -83.5 47t-33.5 91q0 51 34.5 90.5t83.5 47.5zM354 490v-47l-16 -34l-14 34v47q-30 -6 -50.5 -30t-20.5 -55t20 -54.5
t50 -29.5v47l15 33l15 -33v-47q30 5 51 29t21 55t-20.5 55t-50.5 30zM163 568q20 -20 36 -31q-28 14 -40 22q-16 9 -16 15q0 8 16 -3q2 -2 4 -3zM517 264q-28 14 -41 22q7 -5 19 -16t16 -14q16 -13 20 -8t-14 16zM474 540q29 20 39 29q12 10 18 10q8 0 -6 -10q-3 -3 -7 -5
l-11.5 -8t-16.5 -10.5t-16 -5.5zM212 288l-37 -31q-14 -11 -20 -9q-7 2 9 13q3 2 5 3q30 15 43 24zM473 288q2 -2 3 -2q-1 0 -3 2zM202 535q-1 0 -3 2q2 -2 3 -2z" />
    <glyph glyph-name="NUL" horiz-adv-x="0" 
 />
    </font>
</defs>
</svg>
