<?xml version="1.0" encoding="UTF-8"?>
<svg width="18px" height="17px" viewBox="0 0 18 17" version="1.1" xmlns="http://www.w3.org/2000/svg" xmlns:xlink="http://www.w3.org/1999/xlink">
    <!-- Generator: Sketch 58 (84663) - https://sketch.com -->
    <title>733614</title>
    <desc>Created with Sketch.</desc>
    <g id="Draft" stroke="none" stroke-width="1" fill="none" fill-rule="evenodd">
        <g id="My_Account_1_DONE" transform="translate(-196.000000, -562.000000)" fill="#FFFFFF" fill-rule="nonzero">
            <g id="733614" transform="translate(196.000000, 562.000000)">
                <path d="M5.86954698,0 L12.244547,0 C15.1047704,0 17.4377535,2.26147746 17.552615,5.09355124 L17.557047,5.3125 L17.557047,11.6875 C17.557047,14.5477234 15.2955695,16.8807065 12.4634957,16.995568 L12.244547,17 L5.86954698,17 C3.00932354,17 0.676340495,14.7385225 0.561478983,11.9064488 L0.55704698,11.6875 L0.55704698,5.3125 C0.55704698,2.45227656 2.81852444,0.119293516 5.65059822,0.00443200293 L5.86954698,0 L12.244547,0 Z M12.244547,1.59375 L5.86954698,1.59375 C3.88507117,1.59375 2.25881597,3.15598985 2.15596129,5.11528964 L2.15079698,5.3125 L2.15079698,11.6875 C2.15079698,13.6719758 3.71303683,15.298231 5.67233662,15.4010857 L5.86954698,15.40625 L12.244547,15.40625 C14.2290228,15.40625 15.855278,13.8440101 15.9581327,11.8847104 L15.963297,11.6875 L15.963297,5.3125 C15.963297,3.261875 14.295172,1.59375 12.244547,1.59375 Z M9.05704698,4 C11.542172,4 13.557047,6.014875 13.557047,8.5 C13.557047,10.985125 11.542172,13 9.05704698,13 C6.57192198,13 4.55704698,10.985125 4.55704698,8.5 C4.55704698,6.014875 6.57192198,4 9.05704698,4 Z M9.05704698,5.6875 C7.50679698,5.6875 6.24454698,6.948625 6.24454698,8.5 C6.24454698,10.05025 7.50679698,11.3125 9.05704698,11.3125 C10.607297,11.3125 11.869547,10.05025 11.869547,8.5 C11.869547,6.948625 10.607297,5.6875 9.05704698,5.6875 Z M14.057047,3 C14.3331894,3 14.557047,3.22385763 14.557047,3.5 C14.557047,3.77614237 14.3331894,4 14.057047,4 C13.7809046,4 13.557047,3.77614237 13.557047,3.5 C13.557047,3.22385763 13.7809046,3 14.057047,3 Z" id="insta"></path>
            </g>
        </g>
    </g>
</svg>