<?xml version="1.0" encoding="UTF-8"?>
<svg width="19px" height="16px" viewBox="0 0 19 16" version="1.1" xmlns="http://www.w3.org/2000/svg" xmlns:xlink="http://www.w3.org/1999/xlink">
    <!-- Generator: Sketch 58 (84663) - https://sketch.com -->
    <title>tw</title>
    <desc>Created with Sketch.</desc>
    <g id="Draft" stroke="none" stroke-width="1" fill="none" fill-rule="evenodd">
        <g id="My_Account_1_DONE" transform="translate(-146.000000, -563.000000)" fill="#FFFFFF" fill-rule="nonzero">
            <g id="733635" transform="translate(146.000000, 562.000000)">
                <path d="M19,2.89415385 C18.2934375,3.21538462 17.5405625,3.42830769 16.755625,3.53169231 C17.563125,3.032 18.1794375,2.24676923 18.4691875,1.30030769 C17.7163125,1.76553846 16.8850625,2.09415385 15.9991875,2.27753846 C15.2843125,1.48861538 14.2654375,1 13.1539375,1 C10.9974375,1 9.2613125,2.81415385 9.2613125,5.03815385 C9.2613125,5.35815385 9.2874375,5.66584615 9.3515625,5.95876923 C6.11325,5.79507692 3.2478125,4.18646154 1.322875,1.736 C0.9868125,2.34030769 0.7896875,3.032 0.7896875,3.77661538 C0.7896875,5.17476923 1.484375,6.41415385 2.519875,7.13169231 C1.8940625,7.11938462 1.280125,6.93107692 0.76,6.63446154 C0.76,6.64676923 0.76,6.66276923 0.76,6.67876923 C0.76,8.64061538 2.1101875,10.2701538 3.88075,10.6455385 C3.5636875,10.7353846 3.218125,10.7784615 2.8595,10.7784615 C2.610125,10.7784615 2.358375,10.7636923 2.1220625,10.7095385 C2.62675,12.3083077 4.058875,13.4836923 5.76175,13.5218462 C4.4365,14.5963077 2.7538125,15.2436923 0.9321875,15.2436923 C0.61275,15.2436923 0.306375,15.2289231 0,15.1883077 C1.7254375,16.3415385 3.7703125,17 5.9755,17 C13.14325,17 17.062,10.8461538 17.062,5.512 C17.062,5.33353846 17.0560625,5.16123077 17.04775,4.99015385 C17.8208125,4.42153846 18.470375,3.71138462 19,2.89415385 Z" id="tw"></path>
            </g>
        </g>
    </g>
</svg>