<svg xmlns="http://www.w3.org/2000/svg" width="186" height="32" viewBox="0 0 186 32"><g><g><g><g><path fill="#e2da31" d="M17 25.723L27.506 32l-2.78-11.838L34 12.2l-12.225-1.039L17 0l-4.775 11.161L0 12.201l9.274 7.96L6.494 32z"/></g></g><g><g><path fill="#e2da31" d="M55 25.723L65.506 32l-2.78-11.838L72 12.2l-12.225-1.039L55 0l-4.775 11.161L38 12.201l9.274 7.96L44.494 32z"/></g></g><g><g><path fill="#e2da31" d="M93 25.723L103.506 32l-2.78-11.838L110 12.2l-12.225-1.039L93 0l-4.775 11.161L76 12.201l9.274 7.96L82.494 32z"/></g></g><g><g><path fill="#e2da31" d="M131 25.723L141.506 32l-2.78-11.838L148 12.2l-12.225-1.039L131 0l-4.775 11.161L114 12.201l9.274 7.96L120.494 32z"/></g></g><g><g><path fill="#e2da31" d="M169 25.723L179.506 32l-2.78-11.838L186 12.2l-12.225-1.039L169 0l-4.775 11.161L152 12.201l9.274 7.96L158.494 32z"/></g></g></g></g></svg>