<svg class="sprite-icons" xmlns="http://www.w3.org/2000/svg">

	<symbol id="icon-location">
		<!-- width="9" height="13" viewBox="0 0 9 13" -->
		<g>
			<g>
				<path d="M4.495 7.077c-1.246 0-2.259-1.063-2.259-2.369 0-1.306 1.013-2.369 2.259-2.369s2.259 1.063 2.259 2.37c0 1.305-1.013 2.368-2.259 2.368zM4.5 0C2.019 0 0 2.112 0 4.708 0 7.93 4.027 12.66 4.199 12.86a.394.394 0 0 0 .602 0C4.973 12.66 9 7.93 9 4.71 9 2.111 6.981 0 4.5 0z"/>
			</g>
		</g>
	</symbol>

	<symbol id="icon-arrow">
		<!-- width="8" height="14" viewBox="0 0 12 8" -->
		<g>
			<g>
				<path fill="#4a4a4a" d="M10.712 4.693l-6.034 6.02a.984.984 0 0 1-1.39 0 .979.979 0 0 1 0-1.387L8.628 4l-5.34-5.326a.979.979 0 0 1 0-1.387.984.984 0 0 1 1.39 0l6.034 6.02a.976.976 0 0 1 0 1.386z"/>
			</g>
		</g>
	</symbol>

	<symbol id="icon-star">
		<!-- width="34" height="32" viewBox="0 0 34 32" -->
		<g>
			<g>
				<path d="M17 25.723L27.506 32l-2.78-11.838L34 12.2l-12.225-1.039L17 0l-4.775 11.161L0 12.201l9.274 7.96L6.494 32z"/>
			</g>
		</g>
	</symbol>

	<symbol id="icon-more">
		<!-- width="20" height="20" viewBox="0 0 20 20" -->
		<g>
			<g transform="rotate(-90 10 10)">
				<g>
					<path d="M10 18.662c-4.775 0-8.66-3.885-8.66-8.66s3.885-8.66 8.66-8.66c4.776-.001 8.66 3.884 8.66 8.66.001 4.773-3.884 8.66-8.66 8.66zM10 0C4.479 0 0 4.477 0 10c-.001 5.524 4.476 10 10 10s10-4.477 10-10c.001-5.523-4.476-10-10-10z"/>
				</g>
				<g>
					<path d="M13.592 7.829l-3.927 3.928L5.74 7.83a.68.68 0 0 0-.96.96l4.404 4.405a.683.683 0 0 0 .964 0l4.404-4.405a.68.68 0 0 0-.959-.96z"/>
				</g>
			</g>
		</g>
	</symbol>

	<symbol id="icon-facebook">
		<!-- width="30" height="30" viewBox="0 0 30 30" -->
		<g>
			<g>
				<path fill="#54bbbf" d="M30 15.092C30 6.757 23.284 0 15 0 6.716 0 0 6.757 0 15.092 0 22.624 5.485 28.868 12.656 30V19.454H8.848v-4.362h3.808v-3.325c0-3.783 2.24-5.872 5.666-5.872 1.641 0 3.358.295 3.358.295v3.714h-1.892c-1.863 0-2.444 1.163-2.444 2.357v2.83h4.16l-.665 4.363h-3.495V30C24.514 28.868 30 22.624 30 15.092"/>
			</g>
		</g>
	</symbol>

	<symbol id="icon-twitter">
		<!-- width="30" height="30" viewBox="0 0 30 30" -->
		<g>
			<path fill="#54bbbf" d="M30 15c0 8.284-6.716 15-15 15-8.284 0-15-6.716-15-15C0 6.716 6.716 0 15 0c8.284 0 15 6.716 15 15"/>
		</g>
		<g>
			<path fill="#fff" d="M12.253 22.914c6.651 0 10.288-5.51 10.288-10.288 0-.157-.003-.313-.01-.468a7.357 7.357 0 0 0 1.804-1.872 7.218 7.218 0 0 1-2.077.569 3.629 3.629 0 0 0 1.59-2 7.246 7.246 0 0 1-2.296.877 3.617 3.617 0 0 0-6.162 3.298 10.266 10.266 0 0 1-7.453-3.778 3.613 3.613 0 0 0 1.12 4.827 3.589 3.589 0 0 1-1.639-.452v.046a3.618 3.618 0 0 0 2.9 3.545 3.628 3.628 0 0 1-1.632.062 3.62 3.62 0 0 0 3.378 2.512 7.256 7.256 0 0 1-4.491 1.548c-.292 0-.58-.017-.863-.05 1.6 1.025 3.5 1.624 5.543 1.624"/>
		</g>
	</symbol>

	<symbol id="close">
		<!-- width="35" height="35" viewBox="0 0 35 35" -->
		<g>
			<g transform="matrix(-1 0 0 1 35 0)">
				<g>
					<path fill="#7f8b9c" d="M17.505 32.677c-8.365 0-15.172-6.807-15.172-15.172S9.14 2.333 17.505 2.333 32.677 9.14 32.677 17.505 25.87 32.677 17.505 32.677zM17.5 0C7.835 0 0 7.835 0 17.5 0 27.167 7.835 35 17.5 35 27.167 35 35 27.167 35 17.5 35 7.835 27.167 0 17.5 0z"/>
				</g>
				<g>
					<path fill="#7f8b9c" d="M23.999 9.343l-6.452 6.453-5.79-6.453a1.174 1.174 0 0 0-1.66 1.66l5.79 6.452-6.544 6.542a1.174 1.174 0 0 0 1.66 1.66l6.455-6.45 5.79 6.45a1.172 1.172 0 1 0 1.657-1.66l-5.792-6.45 6.544-6.544a1.172 1.172 0 1 0-1.658-1.66z"/>
				</g>
			</g>
		</g>
	</symbol>

	<symbol id="icon-message">
		<!-- width="22" height="16" viewBox="0 0 22 16" -->
		<g>
			<g>
				<g>
					<path fill="#fff" d="M2.75 14.677c-.139 0-.265-.04-.392-.077L8.32 7.983l2.233 1.858a.692.692 0 0 0 .447.162c.16 0 .319-.053.447-.162l2.233-1.858 5.962 6.617c-.126.038-.252.077-.392.077zm-1.32-1.093c-.02-.087-.055-.168-.055-.26V2.666c0-.138.04-.262.081-.387l5.82 4.831zm17.82-12.25c.091 0 .172.033.258.05L11 8.466 2.492 1.384c.086-.017.167-.05.258-.05zm-4.526 5.782l5.83-4.837c.04.125.081.25.081.388v10.666c0 .093-.036.175-.055.262zM19.25 0H2.75C1.231 0 0 1.194 0 2.667v10.666C0 14.806 1.231 16 2.75 16h16.5c1.519 0 2.75-1.194 2.75-2.667V2.667C22 1.194 20.769 0 19.25 0z"/>
				</g>
			</g>
		</g>
	</symbol>

	<symbol id="icon-phone">
		<!-- width="20" height="20" viewBox="0 0 20 20" -->
		<g>
			<path fill="#fff" d="M18.657 16.409l-.414.414-3.315-3.315.414-.414a.587.587 0 0 1 .829 0l2.486 2.486c.229.229.229.6 0 .829zm-8.207.913l-7.766-7.77a5.155 5.155 0 0 1-.324-6.958L5.666 5.9a2.503 2.503 0 0 0 .109 3.426l4.901 4.906c.94.94 2.44.979 3.427.11l3.305 3.305a5.146 5.146 0 0 1-6.958-.324zM3.587 1.343a.587.587 0 0 1 .83 0l2.485 2.478c.23.23.23.6 0 .83l-.414.414-3.313-3.313zm15.899 13.408l-2.487-2.486a1.76 1.76 0 0 0-2.486 0l-1.13 1.13c-.52.52-1.364.52-1.884 0L6.601 8.493a1.331 1.331 0 0 1 0-1.884l1.13-1.13a1.757 1.757 0 0 0 0-2.487L5.244.514A1.76 1.76 0 0 0 2.76.512l-.906.899a6.347 6.347 0 0 0 0 8.965l7.762 7.766a6.337 6.337 0 0 0 8.966 0l.904-.904a1.76 1.76 0 0 0 0-2.487z"/>
		</g>
	</symbol>

	<symbol id="icon-arrowcircle">
		<!-- width="30" height="30" viewBox="0 0 30 30" -->
		<g>
			<g transform="rotate(-90 273 268)">
				<path fill="#fff" d="M15.001 27.992c-7.163 0-12.991-5.827-12.991-12.989C2.01 7.841 7.838 2.013 15 2.013c7.163-.001 12.99 5.826 12.99 12.99.001 7.16-5.827 12.99-12.99 12.99zm0-27.992C6.717 0 0 6.716 0 14.999-.002 23.286 6.715 30 15.001 30 23.285 30 30 23.284 30 15.001 30.002 6.716 23.285 0 15.001 0z"/>
			</g>
			<g transform="rotate(-90 273 268)">
				<path fill="#fff" d="M20.604 11.626l-5.91 5.843-5.91-5.843a1.031 1.031 0 0 0-1.445 0 1.003 1.003 0 0 0 0 1.428l6.63 6.552c.2.203.463.295.725.295.264 0 .525-.099.726-.295l6.627-6.552a1.003 1.003 0 0 0 0-1.428 1.029 1.029 0 0 0-1.443 0z"/>
			</g>
		</g>
	</symbol>

	<symbol id="icon-starNewHover">
		<!-- width="26px" height="24px" viewBox="0 0 26 24" -->
		<g id="DNN" stroke="none" stroke-width="1" fill="none" fill-rule="evenodd">
			<g id="Search-results-mobile" transform="translate(-180.000000, -426.000000)">
				<g id="Group" transform="translate(66.000000, 426.000000)">
					<g id="mark-as-favorite-star" transform="translate(114.465409, 0.000000)">
						<g id="Group-2">
							<polygon id="Path" stroke="#54BBBF" fill="#54BBBF" fill-rule="nonzero" points="12.7672956 18.1512966 20.6574843 22.5806452 18.5700064 14.2270182 25.5345912 8.60916808 16.353654 7.87586804 12.7672956 -2.48689958e-14 9.1809873 7.87586804 -2.71782596e-13 8.60916808 6.96458478 14.2270182 4.87710692 22.5806452"></polygon>
							<!-- <polygon id="Path-2" fill="#54BBBF" points="12.7672956 0.5 12.7672956 18.1512966 4.87710692 22.5806452 6.96458478 14.2270182 4.54038624e-13 8.60916808 9.1809873 7.87586804"></polygon> -->
							<!-- <polygon id="Path-3" transform='skewY(180)' fill="#333" points="12.7672956 0.5 12.7672956 18.1512966 4.87710692 22.5806452 6.96458478 14.2270182 4.54038624e-13 8.60916808 9.1809873 7.87586804"></polygon> -->
						</g>
					</g>
				</g>
			</g>
		</g>
	</symbol>

	<symbol id="icon-starNew">
		<!-- width="26px" height="24px" viewBox="0 0 26 24" -->
		<g id="DNN" stroke="none" stroke-width="1" fill="none" fill-rule="evenodd">
			<g id="Search-results-mobile" transform="translate(-180.000000, -426.000000)">
				<g id="Group" transform="translate(66.000000, 426.000000)">
					<g id="mark-as-favorite-star" transform="translate(114.465409, 0.000000)">
						<g id="Group-2">
							<polygon id="Path" stroke="#54BBBF" fill="#fff" fill-rule="nonzero" points="12.7672956 18.1512966 20.6574843 22.5806452 18.5700064 14.2270182 25.5345912 8.60916808 16.353654 7.87586804 12.7672956 -2.48689958e-14 9.1809873 7.87586804 -2.71782596e-13 8.60916808 6.96458478 14.2270182 4.87710692 22.5806452"></polygon>
						</g>
					</g>
				</g>
			</g>
		</g>
	</symbol>

	<symbol id="icon-name">
		<!-- Code -->
	</symbol>

</svg>