<svg width="41" height="40" viewBox="0 0 41 40" fill="none" xmlns="http://www.w3.org/2000/svg">
<path d="M20.5 0C9.5 0 0.5 9 0.5 20C0.5 31 9.5 40 20.5 40C31.5 40 40.5 31 40.5 20C40.5 9 31.5 0 20.5 0ZM20.5 36C11.7 36 4.5 28.8 4.5 20C4.5 11.2 11.7 4 20.5 4C29.3 4 36.5 11.2 36.5 20C36.5 28.8 29.3 36 20.5 36Z" fill="#F0F0F0"/>
<path d="M20.5 14C21.7 14 22.5 14.8 22.5 16H26.5C26.5 13.4 24.9 11.2 22.5 10.4V8H18.5V10.4C16.1 11.2 14.5 13.4 14.5 16C14.5 19.4 17.1 22 20.5 22C21.7 22 22.5 22.8 22.5 24C22.5 25.2 21.7 26 20.5 26C19.3 26 18.5 25.2 18.5 24H14.5C14.5 26.6 16.1 28.8 18.5 29.6V32H22.5V29.6C24.9 28.8 26.5 26.6 26.5 24C26.5 20.6 23.9 18 20.5 18C19.3 18 18.5 17.2 18.5 16C18.5 14.8 19.3 14 20.5 14Z" fill="#F0F0F0"/>
</svg>
