<svg width="58" height="58" viewBox="0 0 58 58" fill="none" xmlns="http://www.w3.org/2000/svg">
<path d="M49.4985 8.50084C44.0215 3.02387 36.7472 0 28.9993 0C21.2514 0 13.9771 3.02387 8.50016 8.50084C-2.06517 19.0662 -2.83025 35.9464 6.5814 47.3861C5.28198 50.0456 3.75183 51.8187 2.01523 52.6688C0.9587 53.191 0.363641 54.3325 0.533658 55.4983C0.715819 56.6763 1.61448 57.5871 2.79245 57.7693C3.43609 57.8664 4.1283 57.9271 4.8448 57.9271C8.403 57.9271 12.1434 56.7006 15.2644 54.5511C19.4662 56.8099 24.1903 58 28.9993 58C36.7472 58 44.0215 54.9883 49.4985 49.5113C54.9754 44.0343 57.9872 36.7479 57.9872 29.0121C57.9872 21.2764 54.9754 13.9778 49.4985 8.50084ZM47.179 47.1796C42.3213 52.0373 35.8607 54.709 28.9993 54.709C24.4089 54.709 19.9034 53.4824 15.9809 51.175C15.7259 51.0293 15.4344 50.9443 15.1551 50.9443C14.8029 50.9443 14.4386 51.0657 14.1471 51.2843C10.4311 54.1625 6.69069 54.5875 5.05125 54.624C7.00644 53.1667 8.64588 50.9079 10.0182 47.7626C10.2732 47.1796 10.1639 46.4996 9.73885 46.0138C0.75225 35.8614 1.22587 20.3899 10.8197 10.7961C15.6773 5.93844 22.1379 3.26675 28.9993 3.26675C35.8607 3.26675 42.3213 5.93844 47.179 10.7961C57.21 20.8392 57.21 37.1608 47.179 47.1796Z" fill="black"/>
<path d="M41.1463 19.4297H16.8582C15.9474 19.4297 15.2188 20.1583 15.2188 21.0691C15.2188 21.9799 15.9474 22.7086 16.8582 22.7086H41.1463C42.0571 22.7086 42.7858 21.9799 42.7858 21.0691C42.7858 20.1583 42.045 19.4297 41.1463 19.4297Z" fill="black"/>
<path d="M41.1463 27.3594H16.8582C15.9474 27.3594 15.2188 28.088 15.2188 28.9988C15.2188 29.9096 15.9474 30.6383 16.8582 30.6383H41.1463C42.0571 30.6383 42.7858 29.9096 42.7858 28.9988C42.7858 28.088 42.045 27.3594 41.1463 27.3594Z" fill="black"/>
<path d="M41.1463 35.291H16.8582C15.9474 35.291 15.2188 36.0197 15.2188 36.9305C15.2188 37.8413 15.9474 38.5699 16.8582 38.5699H41.1463C42.0571 38.5699 42.7858 37.8413 42.7858 36.9305C42.7858 36.0197 42.045 35.291 41.1463 35.291Z" fill="black"/>
</svg>
