<svg width="54" height="58" viewBox="0 0 54 58" fill="none" xmlns="http://www.w3.org/2000/svg">
<path d="M15.4122 38.1886H47.3703C50.994 38.1886 53.9502 35.2324 53.9502 31.6087V18.1627C53.9502 18.1507 53.9502 18.1269 53.9502 18.115C53.9502 18.0792 53.9502 18.0554 53.9502 18.0196C53.9502 17.9958 53.9502 17.9719 53.9383 17.9481C53.9383 17.9243 53.9264 17.8885 53.9264 17.8647C53.9264 17.8408 53.9144 17.817 53.9144 17.7931C53.9025 17.7693 53.9025 17.7455 53.8906 17.7097C53.8787 17.6859 53.8787 17.662 53.8668 17.6382C53.8548 17.6143 53.8548 17.5905 53.8429 17.5667C53.831 17.5428 53.8191 17.519 53.8072 17.4832C53.7952 17.4594 53.7833 17.4355 53.7714 17.4236C53.7595 17.3998 53.7476 17.3759 53.7356 17.3521C53.7237 17.3282 53.7118 17.3163 53.6999 17.2925C53.688 17.2686 53.6641 17.2448 53.6522 17.221C53.6403 17.1971 53.6284 17.1852 53.6045 17.1614C53.5926 17.1375 53.5688 17.1256 53.5568 17.1018C53.5449 17.0779 53.5211 17.066 53.5092 17.0422C53.4972 17.0183 53.4734 17.0064 53.4615 16.9945C53.4376 16.9706 53.4257 16.9587 53.4019 16.9349C53.378 16.923 53.3661 16.8991 53.3423 16.8872C53.3184 16.8753 53.2946 16.8514 53.2708 16.8395C53.2469 16.8276 53.235 16.8157 53.2112 16.8038C53.1873 16.7918 53.1635 16.7799 53.1396 16.7561C53.1158 16.7442 53.0919 16.7322 53.0681 16.7203C53.0443 16.7084 53.0204 16.6965 52.9966 16.6846C52.9727 16.6726 52.9489 16.6607 52.9251 16.6488C52.9012 16.6369 52.8774 16.6369 52.8535 16.625C52.8297 16.613 52.7939 16.6011 52.7701 16.6011C52.7463 16.6011 52.7224 16.5892 52.7105 16.5892C52.6747 16.5773 52.6509 16.5773 52.6151 16.5773C52.6032 16.5773 52.5913 16.5654 52.5675 16.5654L12.0626 10.9748V5.3246C12.0626 5.265 12.0626 5.2054 12.0507 5.15772C12.0507 5.1458 12.0507 5.13388 12.0388 5.11004C12.0388 5.07428 12.0269 5.03852 12.0269 5.00276C12.0149 4.967 12.0149 4.94316 12.003 4.9074C12.003 4.88356 11.9911 4.87164 11.9911 4.8478C11.9792 4.81204 11.9673 4.77628 11.9553 4.74052C11.9553 4.72859 11.9434 4.70475 11.9434 4.69283C11.9315 4.65707 11.9196 4.63323 11.8957 4.59747C11.8838 4.58555 11.8838 4.56171 11.8719 4.54979C11.86 4.52595 11.8481 4.50211 11.8242 4.47827C11.8123 4.45443 11.8004 4.44251 11.7885 4.41867C11.7765 4.39483 11.7646 4.38291 11.7527 4.35907C11.7408 4.33523 11.7169 4.31139 11.705 4.28755C11.6931 4.27563 11.6812 4.26371 11.6693 4.25179C11.6454 4.22795 11.6216 4.20411 11.5977 4.18027C11.5858 4.16835 11.5739 4.15643 11.562 4.14451C11.5381 4.12066 11.5143 4.09682 11.4785 4.07298C11.4666 4.06106 11.4428 4.04914 11.4308 4.03722C11.407 4.01338 11.3832 4.00146 11.3593 3.97762C11.3236 3.95378 11.2878 3.92994 11.264 3.91802C11.252 3.9061 11.2401 3.9061 11.2282 3.89418C11.1805 3.87034 11.1209 3.8465 11.0732 3.82266L2.28805 0.127397C1.46556 -0.218289 0.523864 0.163158 0.178178 0.985652C-0.167507 1.80815 0.213939 2.74984 1.03643 3.09553L8.83224 6.3855V13.6807V14.8369V23.7056V31.6325V41.6455C8.83224 44.9831 11.3355 47.7486 14.5659 48.1658C13.9818 49.1433 13.6361 50.2876 13.6361 51.5035C13.6361 55.0914 16.5565 58 20.1326 58C23.7087 58 26.6291 55.0795 26.6291 51.5035C26.6291 50.3114 26.3073 49.179 25.7351 48.2254H40.2062C39.634 49.1909 39.3122 50.3114 39.3122 51.5035C39.3122 55.0914 42.2326 58 45.8087 58C49.3848 58 52.3052 55.0795 52.3052 51.5035C52.3052 47.9274 49.3848 45.007 45.8087 45.007H15.4122C13.5526 45.007 12.0507 43.4931 12.0507 41.6455V37.2827C13.0282 37.8548 14.1844 38.1886 15.4122 38.1886ZM23.4226 51.4915C23.4226 53.3034 21.9445 54.7696 20.1445 54.7696C18.3446 54.7696 16.8665 53.2915 16.8665 51.4915C16.8665 49.6916 18.3446 48.2135 20.1445 48.2135C21.9445 48.2135 23.4226 49.6797 23.4226 51.4915ZM49.0987 51.4915C49.0987 53.3034 47.6206 54.7696 45.8206 54.7696C44.0207 54.7696 42.5426 53.2915 42.5426 51.4915C42.5426 49.6916 44.0207 48.2135 45.8206 48.2135C47.6206 48.2135 49.0987 49.6797 49.0987 51.4915ZM47.3703 34.9701H15.4122C13.5526 34.9701 12.0507 33.4563 12.0507 31.6087V23.6817V14.8131V14.2171L50.7318 19.5454V31.5967C50.7318 33.4682 49.2179 34.9701 47.3703 34.9701Z" fill="black"/>
</svg>
