<svg class="sprite-icons" xmlns="http://www.w3.org/2000/svg">

	<symbol id="icon-star">
		<!-- width="34" height="32" viewBox="0 0 34 32" -->
		<g>
			<g>
				<path d="M17 25.723L27.506 32l-2.78-11.838L34 12.2l-12.225-1.039L17 0l-4.775 11.161L0 12.201l9.274 7.96L6.494 32z"/>
			</g>
		</g>
	</symbol>

	<symbol id="icon-step1">
		<!-- width="25" height="25" viewBox="0 0 25 25" -->
		<path d="M5.35048 17.9023C4.68467 17.9023 4.14307 18.444 4.14307 19.1098C4.14307 19.7756 4.68471 20.3172 5.35048 20.3172C6.01625 20.3172 6.55795 19.7756 6.55795 19.1098C6.55795 18.444 6.01625 17.9023 5.35048 17.9023ZM5.35048 19.4818C5.14536 19.4818 4.97851 19.3149 4.97851 19.1098C4.97851 18.9047 5.14541 18.7378 5.35048 18.7378C5.55556 18.7378 5.7225 18.9047 5.7225 19.1098C5.7225 19.3149 5.55556 19.4818 5.35048 19.4818Z" fill="#9B907E"/>
		<path d="M4.81763 16.0278C5.04833 16.0278 5.23535 15.8408 5.23535 15.6101C5.23535 15.3794 5.04833 15.1924 4.81763 15.1924C4.58692 15.1924 4.3999 15.3794 4.3999 15.6101C4.3999 15.8408 4.58692 16.0278 4.81763 16.0278Z" fill="#9B907E"/>
		<path d="M6.25171 16.0278C6.48241 16.0278 6.66943 15.8408 6.66943 15.6101C6.66943 15.3794 6.48241 15.1924 6.25171 15.1924C6.02101 15.1924 5.83398 15.3794 5.83398 15.6101C5.83398 15.8408 6.02101 16.0278 6.25171 16.0278Z" fill="#9B907E"/>
		<path d="M10.3616 3.91162C10.5923 3.91162 10.7793 3.7246 10.7793 3.49389C10.7793 3.26319 10.5923 3.07617 10.3616 3.07617C10.1309 3.07617 9.94385 3.26319 9.94385 3.49389C9.94385 3.7246 10.1309 3.91162 10.3616 3.91162Z" fill="#9B907E"/>
		<path d="M16.3635 7.979C16.5942 7.979 16.7812 7.79198 16.7812 7.56128C16.7812 7.33058 16.5942 7.14355 16.3635 7.14355C16.1328 7.14355 15.9458 7.33058 15.9458 7.56128C15.9458 7.79198 16.1328 7.979 16.3635 7.979Z" fill="#9B907E"/>
		<path d="M7.65844 16.0278C7.88915 16.0278 8.07617 15.8408 8.07617 15.6101C8.07617 15.3794 7.88915 15.1924 7.65844 15.1924C7.42774 15.1924 7.24072 15.3794 7.24072 15.6101C7.24072 15.8408 7.42774 16.0278 7.65844 16.0278Z" fill="#9B907E"/>
		<path d="M21.7342 9.34425L18.7732 6.37248C18.5369 6.13538 18.2224 6.00447 17.8877 6.00388C17.8869 6.00388 17.8861 6.00388 17.8853 6.00388C17.5515 6.00388 17.2374 6.13362 17.0008 6.36931C16.8374 6.53215 16.837 6.79665 16.9997 6.96013C17.1627 7.1236 17.4271 7.12395 17.5906 6.9612C17.6694 6.88259 17.7741 6.83938 17.8854 6.83938C17.8857 6.83938 17.8859 6.83938 17.8862 6.83938C17.9977 6.83952 18.1026 6.88322 18.1813 6.96223L21.1424 9.93394C21.305 10.0971 21.3045 10.3622 21.1413 10.5247L18.7477 12.9097L14.9021 9.05021C14.8942 9.04225 14.8858 9.03502 14.8774 9.0278L15.1988 8.27048C15.1989 8.27033 15.1989 8.27013 15.199 8.26999L16.6819 4.77547C16.8126 4.46727 16.8156 4.12669 16.6902 3.81634C16.5647 3.50599 16.326 3.26302 16.0178 3.13226L12.156 1.49355C11.8479 1.36279 11.5073 1.35986 11.1968 1.48525C10.8865 1.61069 10.6435 1.8495 10.5128 2.15766C10.4227 2.37006 10.5218 2.61527 10.7342 2.70541C10.9466 2.7955 11.1918 2.69633 11.2819 2.48402C11.3255 2.38129 11.4065 2.3017 11.51 2.2599C11.6134 2.21811 11.7269 2.21908 11.8297 2.26269L15.6915 3.9014C15.7942 3.945 15.8738 4.02596 15.9156 4.12943C15.9574 4.23284 15.9564 4.34642 15.9128 4.44915L14.5928 7.55969L9.60285 5.44217V5.05003V1.25322C9.60285 0.562156 9.0407 0 8.34964 0H4.15458C3.46352 0 2.90137 0.562156 2.90137 1.25322V5.04998V9.61246V14.1749V20.405C2.90137 20.6582 2.97705 20.8939 3.10669 21.0912C3.16221 21.3056 3.27231 21.5004 3.43095 21.6596L6.39203 24.6313C6.62831 24.8685 6.94276 24.9994 7.27752 24.9999C7.2783 24.9999 7.27908 24.9999 7.27986 24.9999C7.6137 24.9999 7.92776 24.8702 8.16438 24.6345L12.5775 20.2373C12.5775 20.2373 12.5776 20.2372 12.5777 20.2372L15.4426 17.3825L17.9912 14.8432L19.0416 13.7966L21.7312 11.1168C22.2205 10.6288 22.2219 9.83375 21.7342 9.34425ZM9.6029 9.61241V6.44075L9.63567 6.36355L14.2665 8.32868L13.6704 9.73341C13.6701 9.73419 13.6697 9.73492 13.6695 9.7357L12.8107 11.7596L9.6029 10.3983V9.61241ZM9.6029 14.1749V11.306L12.4842 12.5287L12.0736 13.4964C12.0734 13.4969 12.0732 13.4974 12.0731 13.4978L11.0284 15.9596L9.60295 15.3547V14.1749H9.6029ZM9.6029 16.2622L10.702 16.7286L10.198 17.9164C10.1494 17.9772 10.1205 18.0485 10.1109 18.1219L9.60295 19.3188V16.2622H9.6029ZM3.73681 1.25322C3.73681 1.0229 3.92426 0.835495 4.15454 0.835495H8.34959C8.57996 0.835495 8.76731 1.02295 8.76731 1.25322V4.63221H3.73681V1.25322ZM3.73681 5.4677H8.76736V6.35305C8.76736 6.35452 8.76736 6.35593 8.76736 6.35735V9.19469H3.73681V5.4677ZM3.73681 10.0302H8.76736V10.6666C8.76726 10.6718 8.76726 10.6769 8.76736 10.682V13.7572H3.73681V10.0302ZM7.57459 24.0426C7.49573 24.1212 7.39105 24.1645 7.27977 24.1645C7.27947 24.1645 7.27928 24.1645 7.27899 24.1645C7.16741 24.1643 7.06258 24.1206 6.98382 24.0416L4.88573 21.9359L7.55745 23.0696C7.71673 23.1372 7.8823 23.1692 8.04534 23.1692C8.22552 23.1692 8.40247 23.1298 8.56428 23.0565L7.57459 24.0426ZM8.43157 22.0791C8.38797 22.1818 8.30696 22.2614 8.20354 22.3032C8.09998 22.345 7.98655 22.344 7.88382 22.3004L6.37025 21.6581H8.34969V21.6582C8.44358 21.6582 8.53499 21.6475 8.62307 21.6277L8.43157 22.0791ZM8.76741 15.6283C8.76741 15.6298 8.76741 15.6312 8.76741 15.6326V20.4049C8.76741 20.6353 8.58006 20.8226 8.34969 20.8226C8.34969 20.8226 5.34096 20.8403 4.18325 20.8327C3.93691 20.8311 3.73842 20.6308 3.73882 20.3843C3.74087 18.966 3.73686 14.5925 3.73686 14.5925H8.76741V15.6283ZM9.18572 22.4372C9.1906 22.4266 9.19602 22.4163 9.20066 22.4055L10.6784 18.923L11.6919 19.9401L9.18572 22.4372ZM12.2838 19.3504L11.0307 18.0928L11.6342 16.6706C11.6342 16.6706 11.6343 16.6705 11.6343 16.6704L12.6022 14.3896L14.9239 16.7197L12.2838 19.3504ZM15.5157 16.13L12.9544 13.5595L13.4166 12.4705L14.4093 10.131L14.6052 9.9359L18.1558 13.4995L15.5157 16.13Z" fill="#9B907E"/>
		<path d="M5.35048 17.9023C4.68467 17.9023 4.14307 18.444 4.14307 19.1098C4.14307 19.7756 4.68471 20.3172 5.35048 20.3172C6.01625 20.3172 6.55795 19.7756 6.55795 19.1098C6.55795 18.444 6.01625 17.9023 5.35048 17.9023ZM5.35048 19.4818C5.14536 19.4818 4.97851 19.3149 4.97851 19.1098C4.97851 18.9047 5.14541 18.7378 5.35048 18.7378C5.55556 18.7378 5.7225 18.9047 5.7225 19.1098C5.7225 19.3149 5.55556 19.4818 5.35048 19.4818Z" fill="#9B907E"/>
		<path d="M10.3616 3.91162C10.5923 3.91162 10.7793 3.7246 10.7793 3.49389C10.7793 3.26319 10.5923 3.07617 10.3616 3.07617C10.1309 3.07617 9.94385 3.26319 9.94385 3.49389C9.94385 3.7246 10.1309 3.91162 10.3616 3.91162Z" fill="#9B907E"/>
		<path d="M16.3635 7.979C16.5942 7.979 16.7812 7.79198 16.7812 7.56128C16.7812 7.33058 16.5942 7.14355 16.3635 7.14355C16.1328 7.14355 15.9458 7.33058 15.9458 7.56128C15.9458 7.79198 16.1328 7.979 16.3635 7.979Z" fill="#9B907E"/>
	</symbol>

	<symbol id="icon-step2">
		<!-- width="25" height="25" viewBox="0 0 25 25" -->
		<g clip-path="url(#clip0)">
			<path d="M11.2483 16.327C11.4388 16.136 11.4388 15.8269 11.2483 15.6359C11.0574 15.4456 10.7484 15.4456 10.5575 15.6359C10.3669 15.8269 10.3669 16.136 10.5575 16.327C10.7484 16.5173 11.0574 16.5173 11.2483 16.327Z" fill="#9B907E"/>
			<path d="M11.4258 4.83398V5.81055C11.4258 7.42912 12.7369 8.74023 14.3555 8.74023C15.971 8.74023 17.2853 7.42607 17.2853 5.81055V4.83398C17.555 4.83398 17.7736 4.6154 17.7736 4.3457C17.7736 4.076 17.555 3.85742 17.2853 3.85742H16.3088C16.0391 3.85742 15.8205 4.076 15.8205 4.3457C15.8205 4.6154 16.0391 4.83398 16.3088 4.83398V5.81055C16.3088 6.88744 15.4325 7.76367 14.3555 7.76367C13.2769 7.76367 12.4023 6.88953 12.4023 5.81055V4.83398C12.672 4.83398 12.8906 4.6154 12.8906 4.3457C12.8906 4.076 12.672 3.85742 12.4023 3.85742H11.4258C11.1561 3.85742 10.9375 4.076 10.9375 4.3457C10.9375 4.6154 11.1561 4.83398 11.4258 4.83398Z" fill="#9B907E"/>
			<path d="M5.67474 23.9717C5.77011 24.0669 5.89485 24.1144 6.01978 24.1144C6.14471 24.1144 6.26964 24.0667 6.36501 23.9716L7.86437 22.4722C8.35285 21.9841 8.58802 21.3156 8.52012 20.64L9.0578 20.1208C9.48447 19.7096 10.0454 19.483 10.6371 19.483H17.066C18.2176 19.483 19.3062 19.0407 20.1309 18.2375C20.1431 18.2257 20.1546 18.2133 20.1654 18.2001L24.5397 12.9473C25.2348 12.1248 25.1308 10.89 24.3076 10.1942C23.4897 9.50489 22.2641 9.60407 21.5669 10.4128L21.0945 10.9015V1.36719C21.0945 1.09749 20.8757 0.878906 20.6062 0.878906H8.05683C7.78732 0.878906 7.56854 1.09749 7.56854 1.36719V12.3072C5.6776 12.7041 4.17785 13.8779 3.37009 15.5937C2.73304 15.5607 2.11182 15.7949 1.65081 16.2565L0.143814 17.7561C0.0518804 17.8476 0.000191261 17.972 5.25996e-07 18.1017C-0.000190209 18.2316 0.0514989 18.3559 0.143242 18.4477L5.67474 23.9717ZM20.1179 1.85547V11.9112L18.7048 13.3722C18.341 12.9253 17.7868 12.6469 17.1881 12.6469H11.5267C11.4954 12.6469 11.4614 12.6396 11.4273 12.6259C10.6666 12.3158 9.86118 12.1586 9.03358 12.1586C8.87012 12.1586 8.70723 12.1645 8.5453 12.1752V1.85547H20.1179ZM8.12683 13.1994C9.11464 13.0566 10.1025 13.1405 11.0605 13.5309C11.2127 13.5923 11.3697 13.6236 11.5267 13.6236H17.1881C17.7175 13.6236 18.1646 14.0554 18.1646 14.6002C18.1646 15.1386 17.7265 15.5767 17.1881 15.5767H12.9398C12.6703 15.5767 12.4515 15.7953 12.4515 16.065C12.4515 16.3347 12.6703 16.5533 12.9398 16.5533H17.1881C18.2651 16.5533 19.1412 15.6771 19.1412 14.6002C19.1412 14.514 19.1349 14.4283 19.1238 14.3438C19.2257 14.2395 22.1771 11.187 22.2793 11.0811C22.2868 11.0733 22.2942 11.0653 22.3011 11.0571C22.649 10.6462 23.2668 10.5944 23.6778 10.9407C24.0892 11.2885 24.1413 11.9059 23.7915 12.3198L19.4319 17.555C18.7927 18.1688 17.9535 18.5064 17.066 18.5064H10.6371C9.79118 18.5064 8.98971 18.8299 8.37974 19.418L8.1644 19.6259C8.07819 19.4933 7.97786 19.3695 7.86456 19.2564L4.86545 16.2573C4.70524 16.0971 4.52346 15.9639 4.32682 15.8588C5.07278 14.3875 6.40525 13.4497 8.12683 13.1994ZM2.3407 16.9477C2.85377 16.4339 3.67374 16.4465 4.1748 16.9479L7.1743 19.9472C7.67707 20.4491 7.68604 21.27 7.17411 21.7813L6.0194 22.9359L1.17989 18.1028L2.3407 16.9477Z" fill="#9B907E"/>
		</g>
		<defs>
			<clipPath id="clip0">
				<rect width="25" height="25" fill="white"/>
			</clipPath>
		</defs>
	</symbol>

	<symbol id="icon-step3">
		<!-- width="25" height="25" viewBox="0 0 25 25" -->
		<path d="M22.8589 7.70758H21.8063V7.03067L22.4631 6.30733C22.804 5.93184 22.9918 5.44576 22.9918 4.93853V3.22315C22.9918 2.02368 22.0159 1.04785 20.8164 1.04785H19.8159C18.6164 1.04785 17.6406 2.02373 17.6406 3.22315V4.93853C17.6406 5.44576 17.8284 5.93189 18.1692 6.30733L18.8261 7.03077V7.70758H17.7735C16.7508 7.70758 15.8937 8.42848 15.6826 9.38873C15.5751 9.3737 15.4656 9.36539 15.354 9.36539H14.121V8.53737L14.8732 7.70909C15.2492 7.29493 15.4563 6.75875 15.4563 6.19933V4.26724C15.4563 2.94243 14.3785 1.86475 13.0538 1.86475C12.8462 1.86475 12.678 2.03296 12.678 2.24058C12.678 2.4482 12.8462 2.61641 13.0538 2.61641C13.9641 2.61641 14.7047 3.35694 14.7047 4.26724V6.19928C14.7047 6.57149 14.5669 6.92818 14.3167 7.20372L13.5422 8.0567C13.4383 8.12355 13.3695 8.2402 13.3695 8.37301V9.74127C13.3695 9.94889 13.5377 10.1171 13.7453 10.1171H15.3541C16.2431 10.1171 16.9665 10.8404 16.9665 11.7295V14.0878H8.01418V11.7295C8.01418 11.0363 8.45392 10.444 9.06896 10.2166C9.09787 10.2105 9.12541 10.2009 9.15143 10.1886C9.30168 10.1422 9.46125 10.1171 9.62648 10.1171H11.2353C11.4429 10.1171 11.6112 9.94884 11.6112 9.74123V8.37296C11.6112 8.2402 11.5423 8.1235 11.4384 8.05665L10.6639 7.20367C10.4137 6.92813 10.2759 6.5714 10.2759 6.19923V4.26724C10.2759 3.35699 11.0164 2.61641 11.9267 2.61641C12.1343 2.61641 12.3026 2.4482 12.3026 2.24058C12.3026 2.03296 12.1343 1.86475 11.9267 1.86475C10.6019 1.86475 9.52419 2.94248 9.52419 4.26724V6.19928C9.52419 6.75865 9.73132 7.29484 10.1073 7.70904L10.8594 8.53727V9.36535H9.62639C9.52136 9.36535 9.41813 9.37292 9.31672 9.38629C9.10471 8.42726 8.24831 7.70758 7.22648 7.70758H6.17384V7.03067L6.83063 6.30733C7.1716 5.93184 7.35934 5.44576 7.35934 4.93853V3.22315C7.35934 2.02368 6.38346 1.04785 5.18399 1.04785H4.1835C2.98404 1.04785 2.00821 2.02373 2.00821 3.22315V4.93853C2.00821 5.44576 2.19595 5.93189 2.53692 6.30733L3.19376 7.03072V7.70758H2.14112C0.9605 7.70758 0 8.66808 0 9.8487V12.2762C0 12.4839 0.168262 12.6521 0.375831 12.6521H6.2234C6.43097 12.6521 6.59923 12.4839 6.59923 12.2762C6.59923 12.0686 6.43097 11.9004 6.2234 11.9004H0.751662V9.8487C0.751662 9.08258 1.37495 8.45924 2.14112 8.45924H3.56959C3.77716 8.45924 3.94542 8.29103 3.94542 8.08341V6.86856C3.94542 6.73785 3.87867 6.62271 3.7774 6.55538L3.09337 5.80206C2.87828 5.56519 2.75982 5.25855 2.75982 4.93858V3.22315C2.75982 2.43814 3.39844 1.79951 4.18346 1.79951H5.18404C5.96905 1.79951 6.60773 2.43814 6.60773 3.22315V4.93853C6.60773 5.2585 6.48927 5.56519 6.27418 5.80201L5.5901 6.55538C5.48888 6.62271 5.42218 6.73785 5.42218 6.86852V8.08336C5.42218 8.29098 5.59044 8.45919 5.79801 8.45919H7.22648C7.90885 8.45919 8.47751 8.95377 8.59377 9.60324C7.80631 9.98722 7.26247 10.7958 7.26247 11.7293V14.4634C7.26247 14.6711 7.43073 14.8393 7.6383 14.8393H17.3422C17.5498 14.8393 17.7181 14.6711 17.7181 14.4634V11.7293C17.7181 10.803 17.1823 9.99987 16.4045 9.61237C16.5171 8.95846 17.0879 8.45919 17.7735 8.45919H19.2019C19.4096 8.45919 19.5778 8.29098 19.5778 8.08336V6.86852C19.5778 6.73775 19.511 6.62262 19.4097 6.55528L18.7257 5.80201C18.5106 5.56519 18.3922 5.2585 18.3922 4.93853V3.22315C18.3922 2.43814 19.0308 1.79951 19.8159 1.79951H20.8164C21.6015 1.79951 22.2401 2.43814 22.2401 3.22315V4.93853C22.2401 5.2585 22.1217 5.56519 21.9066 5.80201L21.2226 6.55538C21.1213 6.62271 21.0546 6.73785 21.0546 6.86852V8.08336C21.0546 8.29098 21.2228 8.45919 21.4304 8.45919H22.8589C23.625 8.45919 24.2483 9.08248 24.2483 9.84865V11.9004H18.8412C18.6336 11.9004 18.4654 12.0686 18.4654 12.2762C18.4654 12.4838 18.6336 12.652 18.8412 12.652H24.6242C24.8318 12.652 25 12.4838 25 12.2762V9.84865C25 8.66808 24.0395 7.70758 22.8589 7.70758Z" fill="#9B907E"/>
		<path d="M16.2796 19.6026C16.2363 19.4689 16.1218 19.3706 15.9831 19.3478L13.93 19.0108L12.9751 17.1624C12.9106 17.0375 12.7818 16.959 12.6412 16.959C12.5006 16.959 12.3718 17.0374 12.3073 17.1624L11.3524 19.0108L9.29937 19.3478C9.16065 19.3706 9.04625 19.4689 9.00279 19.6026C8.95933 19.7363 8.99415 19.883 9.09297 19.983L10.5558 21.4624L10.2419 23.519C10.2207 23.658 10.2787 23.7972 10.3925 23.8797C10.4579 23.9273 10.5355 23.9516 10.6134 23.9516C10.671 23.9516 10.7288 23.9383 10.7821 23.9115L12.6411 22.9775L14.5002 23.9115C14.6258 23.9747 14.7761 23.9625 14.8898 23.8797C15.0035 23.7972 15.0616 23.658 15.0404 23.519L14.7264 21.4624L16.1892 19.983C16.2883 19.883 16.3231 19.7363 16.2796 19.6026ZM14.0594 21.0681C13.9758 21.1526 13.9372 21.2716 13.9551 21.389L14.1878 22.9131L12.81 22.221C12.7038 22.1676 12.5787 22.1676 12.4726 22.221L11.0948 22.9131L11.3275 21.389C11.3454 21.2715 11.3067 21.1525 11.2232 21.0681L10.139 19.9717L11.6605 19.722C11.7777 19.7027 11.879 19.6291 11.9335 19.5236L12.6412 18.1537L13.3488 19.5236C13.4034 19.6291 13.5046 19.7027 13.6218 19.722L15.1433 19.9717L14.0594 21.0681Z" fill="#9B907E"/>
		<path d="M24.5062 16.8399C24.4627 16.7062 24.3484 16.6079 24.2097 16.5851L22.1567 16.2481L21.2017 14.3997C21.1372 14.2748 21.0084 14.1963 20.8678 14.1963C20.7272 14.1963 20.5985 14.2747 20.534 14.3997L19.579 16.2481L17.5259 16.5851C17.3872 16.6079 17.2728 16.7062 17.2294 16.8399C17.1859 16.9736 17.2207 17.1204 17.3195 17.2203L18.7824 18.6997L18.4684 20.7564C18.4472 20.8953 18.5053 21.0345 18.6191 21.1171C18.7328 21.1997 18.8831 21.2121 19.0087 21.1489L20.8677 20.2148L22.7267 21.1489C22.78 21.1757 22.8379 21.1889 22.8954 21.1889C22.9734 21.1889 23.0509 21.1647 23.1163 21.1171C23.2301 21.0345 23.2882 20.8953 23.267 20.7564L22.953 18.6997L24.4158 17.2203C24.5149 17.1204 24.5496 16.9736 24.5062 16.8399ZM22.286 18.3054C22.2024 18.3899 22.1638 18.509 22.1817 18.6264L22.4143 20.1505L21.0366 19.4584C20.9835 19.4317 20.9257 19.4183 20.8678 19.4183C20.81 19.4183 20.7522 19.4317 20.6991 19.4584L19.3214 20.1505L19.554 18.6264C19.5719 18.5089 19.5333 18.3898 19.4497 18.3054L18.3656 17.2091L19.8871 16.9594C20.0044 16.9401 20.1056 16.8665 20.1601 16.761L20.8677 15.3911L21.5755 16.761C21.63 16.8665 21.7312 16.9401 21.8485 16.9594L23.3699 17.2091L22.286 18.3054Z" fill="#9B907E"/>
		<path d="M8.0531 16.8399C8.00969 16.7062 7.89523 16.6079 7.75651 16.5851L5.70348 16.2481L4.74855 14.3997C4.684 14.2748 4.55524 14.1963 4.41461 14.1963C4.27399 14.1963 4.14523 14.2747 4.08068 14.3997L3.12584 16.2481L1.07281 16.5852C0.934087 16.608 0.819683 16.7062 0.776226 16.8399C0.732768 16.9736 0.767583 17.1204 0.866411 17.2204L2.32926 18.6997L2.01534 20.7564C1.99415 20.8954 2.0522 21.0346 2.16597 21.1172C2.2797 21.1998 2.42999 21.2121 2.55557 21.1489L4.41461 20.2149L6.2736 21.1489C6.32692 21.1757 6.38473 21.189 6.44225 21.189C6.52023 21.189 6.59782 21.1648 6.6632 21.1172C6.77697 21.0346 6.83503 20.8954 6.81383 20.7564L6.49992 18.6997L7.96271 17.2204C8.06169 17.1204 8.09655 16.9736 8.0531 16.8399ZM5.83278 18.3054C5.74923 18.3899 5.71056 18.509 5.72848 18.6264L5.9611 20.1505L4.58341 19.4584C4.53033 19.4316 4.47252 19.4183 4.41466 19.4183C4.3568 19.4183 4.29899 19.4317 4.24591 19.4584L2.86817 20.1505L3.10084 18.6264C3.11876 18.5089 3.08009 18.3899 2.99654 18.3054L1.91256 17.2091L3.43404 16.9594C3.55128 16.9401 3.65255 16.8665 3.70709 16.761L4.41476 15.3911L5.12243 16.761C5.17697 16.8665 5.27824 16.9401 5.39547 16.9594L6.91696 17.2091L5.83278 18.3054Z" fill="#9B907E"/>
	</symbol>

	<symbol id="icon-step4">
		<!-- width="25" height="25" viewBox="0 0 25 25" -->
		<path d="M21.0938 17.8711C20.5542 17.8711 20.1172 18.3081 20.1172 18.8477C20.1172 19.3872 20.5542 19.8242 21.0938 19.8242C21.6333 19.8242 22.0703 19.3872 22.0703 18.8477C22.0703 18.3081 21.6333 17.8711 21.0938 17.8711Z" fill="#9B907E"/>
		<path d="M20.6055 13.9648C20.336 13.9648 20.1172 14.1836 20.1172 14.4531C20.1172 14.7226 20.336 14.9414 20.6055 14.9414C20.875 14.9414 21.0938 14.7226 21.0938 14.4531C21.0938 14.1836 20.875 13.9648 20.6055 13.9648Z" fill="#9B907E"/>
		<path d="M6.15234 17.8711C5.61275 17.8711 5.17578 18.3081 5.17578 18.8477C5.17578 19.3872 5.61275 19.8242 6.15234 19.8242C6.69193 19.8242 7.12891 19.3872 7.12891 18.8477C7.12891 18.3081 6.69193 17.8711 6.15234 17.8711Z" fill="#9B907E"/>
		<path d="M22.9477 12.043L22.1058 8.67538C22.4051 8.38909 22.5586 8.00934 22.5586 7.61719C22.5586 6.80943 21.9015 6.15234 21.0938 6.15234H17.1875V4.6875C17.1875 3.87974 16.5304 3.22266 15.7227 3.22266H1.46484C0.657082 3.22266 0 3.87974 0 4.6875V17.3828C0 18.1906 0.657082 18.8477 1.46484 18.8477H3.22266C3.22266 20.4632 4.53682 21.7773 6.15234 21.7773C7.76787 21.7773 9.08203 20.4632 9.08203 18.8477H18.1641C18.1641 20.4632 19.4782 21.7773 21.0938 21.7773C22.7093 21.7773 24.0234 20.4632 24.0234 18.8477C24.0234 18.8198 24.0221 18.7922 24.0213 18.7643C24.5907 18.5635 25 18.0201 25 17.3828V14.4531C25 13.2393 24.1096 12.2299 22.9477 12.043ZM21.2008 9.08203L21.9332 12.0117H17.878L18.9976 10.8921C19.1883 10.7014 19.1883 10.3924 18.9976 10.2016C18.8068 10.0109 18.4978 10.0109 18.3071 10.2016L17.1875 11.3211V9.08203H21.2008ZM21.582 7.61719C21.582 7.8867 21.3633 8.10547 21.0938 8.10547H17.1875V7.12891H21.0938C21.3631 7.12891 21.582 7.34787 21.582 7.61719ZM6.15234 20.8008C5.07545 20.8008 4.19922 19.9245 4.19922 18.8477C4.19922 17.7561 5.09129 16.8945 6.15234 16.8945C7.21588 16.8945 8.10547 17.7584 8.10547 18.8477C8.10547 19.9245 7.22923 20.8008 6.15234 20.8008ZM8.91438 17.8711C8.50658 16.7189 7.4028 15.918 6.15234 15.918C4.90131 15.918 3.79715 16.7194 3.39012 17.8711H1.46484C1.19553 17.8711 0.976562 17.6521 0.976562 17.3828V4.6875C0.976562 4.41818 1.19553 4.19922 1.46484 4.19922H15.7227C15.992 4.19922 16.2109 4.41818 16.2109 4.6875V17.8711H8.91438ZM21.0938 20.8008C20.0169 20.8008 19.1406 19.9245 19.1406 18.8477C19.1406 17.7561 20.0327 16.8945 21.0938 16.8945C22.1573 16.8945 23.0469 17.7584 23.0469 18.8477C23.0469 19.9245 22.1706 20.8008 21.0938 20.8008ZM23.8211 17.7778C23.3879 16.6758 22.3103 15.918 21.0938 15.918C19.8427 15.918 18.7386 16.7194 18.3315 17.8711H17.1875V12.9883H22.5586C23.1951 12.9883 23.7379 13.3965 23.9395 13.9648H22.5586C22.2889 13.9648 22.0703 14.1834 22.0703 14.4531C22.0703 14.7228 22.2889 14.9414 22.5586 14.9414H24.0234V17.3828C24.0234 17.5451 23.9433 17.6889 23.8211 17.7778Z" fill="#9B907E"/>
		<path d="M8.59375 6.15234C6.17065 6.15234 4.19922 8.12378 4.19922 10.5469C4.19922 12.97 6.17065 14.9414 8.59375 14.9414C11.0168 14.9414 12.9883 12.97 12.9883 10.5469C12.9883 8.12378 11.0168 6.15234 8.59375 6.15234ZM8.59375 13.9648C6.7091 13.9648 5.17578 12.4315 5.17578 10.5469C5.17578 8.66222 6.7091 7.12891 8.59375 7.12891C10.4784 7.12891 12.0117 8.66222 12.0117 10.5469C12.0117 12.4315 10.4784 13.9648 8.59375 13.9648Z" fill="#9B907E"/>
		<path d="M10.5469 10.0586H9.08203V8.59375C9.08203 8.32405 8.86345 8.10547 8.59375 8.10547C8.32405 8.10547 8.10547 8.32405 8.10547 8.59375V10.5469C8.10547 10.8166 8.32405 11.0352 8.59375 11.0352H10.5469C10.8166 11.0352 11.0352 10.8166 11.0352 10.5469C11.0352 10.2772 10.8166 10.0586 10.5469 10.0586Z" fill="#9B907E"/>
	</symbol>

	<symbol id="icon-step5">
		<!-- width="25" height="25" viewBox="0 0 25 25" -->
		<g cip-path="url(#clip0)">
			<path d="M11.7784 12.58C11.5875 12.7707 11.5875 13.0805 11.7784 13.2718C11.9694 13.4631 12.2784 13.4631 12.4689 13.2718C12.6598 13.0805 12.6598 12.7707 12.4689 12.58C12.2784 12.3887 11.9694 12.3887 11.7784 12.58Z" fill="#9B907E"/>
			<path d="M19.5429 1.45559C18.705 2.10555 18.4767 2.44057 15.505 5.38726L13.7235 5.09659L14.541 4.2775C15.1136 3.70379 15.1138 2.77558 14.541 2.20187C13.9686 1.62836 13.0417 1.62817 12.4693 2.20187L10.1602 4.51543L2.08489 3.19812C1.56304 3.11327 1.02917 3.28622 0.655711 3.66041C-0.0624064 4.37993 0.0350592 5.57034 0.854267 6.16431L8.90157 12.0034L7.39496 13.5132C6.87864 14.0305 6.33523 14.742 5.77676 15.6305L2.02385 14.5247C1.46996 14.3617 0.871814 14.5144 0.462687 14.9236C-0.233877 15.6215 -0.128591 16.7806 0.680507 17.342L3.75706 19.4759C3.22148 20.6602 2.8959 21.5166 2.88083 21.5562C2.81254 21.7362 2.85622 21.9397 2.99203 22.0758C3.12859 22.2126 3.33192 22.2552 3.51063 22.1872C3.55012 22.1723 4.4048 21.8459 5.58679 21.3092L7.71673 24.392C8.27806 25.204 9.43487 25.3068 10.1307 24.6097C10.5388 24.2001 10.6912 23.6008 10.5284 23.0458L9.42495 19.2858C10.3122 18.7258 11.022 18.1814 11.5381 17.6644L13.0449 16.1547L18.8724 24.2177C19.4662 25.0399 20.6543 25.1354 21.3716 24.4167C21.7449 24.0427 21.9175 23.5074 21.833 22.9843L20.5183 14.8937L22.8271 12.5804C23.3997 12.0067 23.3997 11.0779 22.8271 10.5044C22.2547 9.93067 21.3283 9.93067 20.7558 10.5044L19.9381 11.3235L19.6482 9.53851C22.5922 6.55799 22.9212 6.33458 23.5702 5.49505C23.571 5.49409 23.572 5.49294 23.5727 5.4918C25.0788 3.53619 25.4312 1.56109 24.4492 0.576688C23.4669 -0.406945 21.4954 -0.0541594 19.5429 1.45559ZM13.1597 2.89387C13.3505 2.70257 13.6597 2.70257 13.8506 2.89387C14.0415 3.08517 14.0413 3.3942 13.8506 3.58549L12.5356 4.9028L11.3479 4.70902L13.1597 2.89387ZM1.42685 5.37159C1.09269 5.12946 1.05435 4.64462 1.34636 4.35222C1.49838 4.19972 1.7162 4.1292 1.9283 4.16379L14.6541 6.23979L9.601 11.3026L1.42685 5.37159ZM1.15315 15.6157C1.30917 15.4596 1.53729 15.4011 1.74843 15.4634L5.25853 16.4977C4.89957 17.1276 4.53736 17.8234 4.17611 18.5766L1.2365 16.5377C0.928081 16.3236 0.887645 15.8816 1.15315 15.6157ZM9.43983 23.9182C9.17661 24.182 8.73487 24.1464 8.51953 23.8349L6.48458 20.8894C7.23684 20.527 7.93149 20.1639 8.55939 19.805L9.59146 23.3218C9.65364 23.5335 9.59547 23.7621 9.43983 23.9182ZM21.4464 11.1962C21.6371 11.0051 21.9458 11.0049 22.1367 11.1962C22.3276 11.3875 22.3274 11.6971 22.1367 11.8884L20.3249 13.7035L20.1317 12.5135L21.4464 11.1962ZM20.8691 23.1412C20.9036 23.3543 20.8332 23.5725 20.6812 23.7248C20.3907 24.0159 19.9064 23.9804 19.6636 23.644L13.7441 15.4541L18.7973 10.391L20.8691 23.1412ZM10.8476 16.9724C10.3103 17.511 9.52394 18.0923 8.51037 18.7006C7.19278 19.4912 5.63352 20.24 4.22704 20.8385C4.84063 19.3911 5.60205 17.8036 6.40809 16.4683C6.99765 15.491 7.56204 14.7294 8.08561 14.205C20.013 2.2829 19.3064 2.89789 20.0302 2.31787C20.8332 2.26647 21.5401 2.50535 22.0322 2.99841C22.5243 3.49147 22.7629 4.19991 22.7116 5.00428C22.1313 5.73126 22.7379 5.03008 10.8476 16.9724ZM23.5472 3.7187C23.3911 3.17939 23.114 2.69856 22.7228 2.3066C22.3316 1.91483 21.8517 1.63696 21.3137 1.48063C22.0203 1.12154 23.2103 0.719446 23.7587 1.2685C24.1917 1.70251 24.0841 2.65786 23.5472 3.7187Z" fill="#9B907E"/>
			<path d="M14.5406 9.81325L13.1597 11.1967C12.9689 11.3878 12.9689 11.6976 13.1597 11.8887C13.3504 12.0798 13.6594 12.0796 13.8503 11.8887L15.231 10.5051C15.4218 10.3141 15.4218 10.0044 15.231 9.81325C15.0403 9.62214 14.7313 9.62214 14.5406 9.81325Z" fill="#9B907E"/>
			<path d="M17.3027 7.0447L15.9212 8.4287C15.7307 8.61981 15.7307 8.9296 15.9212 9.1207C16.1122 9.31162 16.4211 9.31162 16.6119 9.1207L17.9932 7.7367C18.1839 7.54559 18.1839 7.23581 17.9932 7.0447C17.8024 6.85359 17.4935 6.85359 17.3027 7.0447Z" fill="#9B907E"/>
		</g>
		<defs>
			<clipPath id="clip0">
				<rect width="25" height="25" fill="white"/>
			</clipPath>
		</defs>
	</symbol>

	<symbol id="icon-facebook">
		<!-- width="30" height="30" viewBox="0 0 30 30" -->
		<g>
			<g>
				<path fill="#54bbbf" d="M30 15.092C30 6.757 23.284 0 15 0 6.716 0 0 6.757 0 15.092 0 22.624 5.485 28.868 12.656 30V19.454H8.848v-4.362h3.808v-3.325c0-3.783 2.24-5.872 5.666-5.872 1.641 0 3.358.295 3.358.295v3.714h-1.892c-1.863 0-2.444 1.163-2.444 2.357v2.83h4.16l-.665 4.363h-3.495V30C24.514 28.868 30 22.624 30 15.092"/>
			</g>
		</g>
	</symbol>

	<symbol id="icon-twitter">
		<!-- width="30" height="30" viewBox="0 0 30 30" -->
		<g>
			<path fill="#54bbbf" d="M30 15c0 8.284-6.716 15-15 15-8.284 0-15-6.716-15-15C0 6.716 6.716 0 15 0c8.284 0 15 6.716 15 15"/>
		</g>
		<g>
			<path fill="#fff" d="M12.253 22.914c6.651 0 10.288-5.51 10.288-10.288 0-.157-.003-.313-.01-.468a7.357 7.357 0 0 0 1.804-1.872 7.218 7.218 0 0 1-2.077.569 3.629 3.629 0 0 0 1.59-2 7.246 7.246 0 0 1-2.296.877 3.617 3.617 0 0 0-6.162 3.298 10.266 10.266 0 0 1-7.453-3.778 3.613 3.613 0 0 0 1.12 4.827 3.589 3.589 0 0 1-1.639-.452v.046a3.618 3.618 0 0 0 2.9 3.545 3.628 3.628 0 0 1-1.632.062 3.62 3.62 0 0 0 3.378 2.512 7.256 7.256 0 0 1-4.491 1.548c-.292 0-.58-.017-.863-.05 1.6 1.025 3.5 1.624 5.543 1.624"/>
		</g>
	</symbol>

	<symbol id="close">
		<!-- width="35" height="35" viewBox="0 0 35 35" -->
		<g>
			<g transform="matrix(-1 0 0 1 35 0)">
				<g>
					<path fill="#7f8b9c" d="M17.505 32.677c-8.365 0-15.172-6.807-15.172-15.172S9.14 2.333 17.505 2.333 32.677 9.14 32.677 17.505 25.87 32.677 17.505 32.677zM17.5 0C7.835 0 0 7.835 0 17.5 0 27.167 7.835 35 17.5 35 27.167 35 35 27.167 35 17.5 35 7.835 27.167 0 17.5 0z"/>
				</g>
				<g>
					<path fill="#7f8b9c" d="M23.999 9.343l-6.452 6.453-5.79-6.453a1.174 1.174 0 0 0-1.66 1.66l5.79 6.452-6.544 6.542a1.174 1.174 0 0 0 1.66 1.66l6.455-6.45 5.79 6.45a1.172 1.172 0 1 0 1.657-1.66l-5.792-6.45 6.544-6.544a1.172 1.172 0 1 0-1.658-1.66z"/>
				</g>
			</g>
		</g>
	</symbol>

	<symbol id="icon-message">
		<!-- width="22" height="16" viewBox="0 0 22 16" -->
		<g>
			<g>
				<g>
					<path fill="#fff" d="M2.75 14.677c-.139 0-.265-.04-.392-.077L8.32 7.983l2.233 1.858a.692.692 0 0 0 .447.162c.16 0 .319-.053.447-.162l2.233-1.858 5.962 6.617c-.126.038-.252.077-.392.077zm-1.32-1.093c-.02-.087-.055-.168-.055-.26V2.666c0-.138.04-.262.081-.387l5.82 4.831zm17.82-12.25c.091 0 .172.033.258.05L11 8.466 2.492 1.384c.086-.017.167-.05.258-.05zm-4.526 5.782l5.83-4.837c.04.125.081.25.081.388v10.666c0 .093-.036.175-.055.262zM19.25 0H2.75C1.231 0 0 1.194 0 2.667v10.666C0 14.806 1.231 16 2.75 16h16.5c1.519 0 2.75-1.194 2.75-2.667V2.667C22 1.194 20.769 0 19.25 0z"/>
				</g>
			</g>
		</g>
	</symbol>

	<symbol id="icon-phone">
		<!-- width="20" height="20" viewBox="0 0 20 20" -->
		<g>
			<path fill="#fff" d="M18.657 16.409l-.414.414-3.315-3.315.414-.414a.587.587 0 0 1 .829 0l2.486 2.486c.229.229.229.6 0 .829zm-8.207.913l-7.766-7.77a5.155 5.155 0 0 1-.324-6.958L5.666 5.9a2.503 2.503 0 0 0 .109 3.426l4.901 4.906c.94.94 2.44.979 3.427.11l3.305 3.305a5.146 5.146 0 0 1-6.958-.324zM3.587 1.343a.587.587 0 0 1 .83 0l2.485 2.478c.23.23.23.6 0 .83l-.414.414-3.313-3.313zm15.899 13.408l-2.487-2.486a1.76 1.76 0 0 0-2.486 0l-1.13 1.13c-.52.52-1.364.52-1.884 0L6.601 8.493a1.331 1.331 0 0 1 0-1.884l1.13-1.13a1.757 1.757 0 0 0 0-2.487L5.244.514A1.76 1.76 0 0 0 2.76.512l-.906.899a6.347 6.347 0 0 0 0 8.965l7.762 7.766a6.337 6.337 0 0 0 8.966 0l.904-.904a1.76 1.76 0 0 0 0-2.487z"/>
		</g>
	</symbol>

	<symbol id="icon-new">
		<!-- Code -->
	</symbol>

</svg>