<svg width="25" height="25" viewBox="0 0 25 25" fill="none" xmlns="http://www.w3.org/2000/svg">
<path d="M22.8589 7.70758H21.8063V7.03067L22.4631 6.30733C22.804 5.93184 22.9918 5.44576 22.9918 4.93853V3.22315C22.9918 2.02368 22.0159 1.04785 20.8164 1.04785H19.8159C18.6164 1.04785 17.6406 2.02373 17.6406 3.22315V4.93853C17.6406 5.44576 17.8284 5.93189 18.1692 6.30733L18.8261 7.03077V7.70758H17.7735C16.7508 7.70758 15.8937 8.42848 15.6826 9.38873C15.5751 9.3737 15.4656 9.36539 15.354 9.36539H14.121V8.53737L14.8732 7.70909C15.2492 7.29493 15.4563 6.75875 15.4563 6.19933V4.26724C15.4563 2.94243 14.3785 1.86475 13.0538 1.86475C12.8462 1.86475 12.678 2.03296 12.678 2.24058C12.678 2.4482 12.8462 2.61641 13.0538 2.61641C13.9641 2.61641 14.7047 3.35694 14.7047 4.26724V6.19928C14.7047 6.57149 14.5669 6.92818 14.3167 7.20372L13.5422 8.0567C13.4383 8.12355 13.3695 8.2402 13.3695 8.37301V9.74127C13.3695 9.94889 13.5377 10.1171 13.7453 10.1171H15.3541C16.2431 10.1171 16.9665 10.8404 16.9665 11.7295V14.0878H8.01418V11.7295C8.01418 11.0363 8.45392 10.444 9.06896 10.2166C9.09787 10.2105 9.12541 10.2009 9.15143 10.1886C9.30168 10.1422 9.46125 10.1171 9.62648 10.1171H11.2353C11.4429 10.1171 11.6112 9.94884 11.6112 9.74123V8.37296C11.6112 8.2402 11.5423 8.1235 11.4384 8.05665L10.6639 7.20367C10.4137 6.92813 10.2759 6.5714 10.2759 6.19923V4.26724C10.2759 3.35699 11.0164 2.61641 11.9267 2.61641C12.1343 2.61641 12.3026 2.4482 12.3026 2.24058C12.3026 2.03296 12.1343 1.86475 11.9267 1.86475C10.6019 1.86475 9.52419 2.94248 9.52419 4.26724V6.19928C9.52419 6.75865 9.73132 7.29484 10.1073 7.70904L10.8594 8.53727V9.36535H9.62639C9.52136 9.36535 9.41813 9.37292 9.31672 9.38629C9.10471 8.42726 8.24831 7.70758 7.22648 7.70758H6.17384V7.03067L6.83063 6.30733C7.1716 5.93184 7.35934 5.44576 7.35934 4.93853V3.22315C7.35934 2.02368 6.38346 1.04785 5.18399 1.04785H4.1835C2.98404 1.04785 2.00821 2.02373 2.00821 3.22315V4.93853C2.00821 5.44576 2.19595 5.93189 2.53692 6.30733L3.19376 7.03072V7.70758H2.14112C0.9605 7.70758 0 8.66808 0 9.8487V12.2762C0 12.4839 0.168262 12.6521 0.375831 12.6521H6.2234C6.43097 12.6521 6.59923 12.4839 6.59923 12.2762C6.59923 12.0686 6.43097 11.9004 6.2234 11.9004H0.751662V9.8487C0.751662 9.08258 1.37495 8.45924 2.14112 8.45924H3.56959C3.77716 8.45924 3.94542 8.29103 3.94542 8.08341V6.86856C3.94542 6.73785 3.87867 6.62271 3.7774 6.55538L3.09337 5.80206C2.87828 5.56519 2.75982 5.25855 2.75982 4.93858V3.22315C2.75982 2.43814 3.39844 1.79951 4.18346 1.79951H5.18404C5.96905 1.79951 6.60773 2.43814 6.60773 3.22315V4.93853C6.60773 5.2585 6.48927 5.56519 6.27418 5.80201L5.5901 6.55538C5.48888 6.62271 5.42218 6.73785 5.42218 6.86852V8.08336C5.42218 8.29098 5.59044 8.45919 5.79801 8.45919H7.22648C7.90885 8.45919 8.47751 8.95377 8.59377 9.60324C7.80631 9.98722 7.26247 10.7958 7.26247 11.7293V14.4634C7.26247 14.6711 7.43073 14.8393 7.6383 14.8393H17.3422C17.5498 14.8393 17.7181 14.6711 17.7181 14.4634V11.7293C17.7181 10.803 17.1823 9.99987 16.4045 9.61237C16.5171 8.95846 17.0879 8.45919 17.7735 8.45919H19.2019C19.4096 8.45919 19.5778 8.29098 19.5778 8.08336V6.86852C19.5778 6.73775 19.511 6.62262 19.4097 6.55528L18.7257 5.80201C18.5106 5.56519 18.3922 5.2585 18.3922 4.93853V3.22315C18.3922 2.43814 19.0308 1.79951 19.8159 1.79951H20.8164C21.6015 1.79951 22.2401 2.43814 22.2401 3.22315V4.93853C22.2401 5.2585 22.1217 5.56519 21.9066 5.80201L21.2226 6.55538C21.1213 6.62271 21.0546 6.73785 21.0546 6.86852V8.08336C21.0546 8.29098 21.2228 8.45919 21.4304 8.45919H22.8589C23.625 8.45919 24.2483 9.08248 24.2483 9.84865V11.9004H18.8412C18.6336 11.9004 18.4654 12.0686 18.4654 12.2762C18.4654 12.4838 18.6336 12.652 18.8412 12.652H24.6242C24.8318 12.652 25 12.4838 25 12.2762V9.84865C25 8.66808 24.0395 7.70758 22.8589 7.70758Z" fill="#9B907E"/>
<path d="M16.2796 19.6026C16.2363 19.4689 16.1218 19.3706 15.9831 19.3478L13.93 19.0108L12.9751 17.1624C12.9106 17.0375 12.7818 16.959 12.6412 16.959C12.5006 16.959 12.3718 17.0374 12.3073 17.1624L11.3524 19.0108L9.29937 19.3478C9.16065 19.3706 9.04625 19.4689 9.00279 19.6026C8.95933 19.7363 8.99415 19.883 9.09297 19.983L10.5558 21.4624L10.2419 23.519C10.2207 23.658 10.2787 23.7972 10.3925 23.8797C10.4579 23.9273 10.5355 23.9516 10.6134 23.9516C10.671 23.9516 10.7288 23.9383 10.7821 23.9115L12.6411 22.9775L14.5002 23.9115C14.6258 23.9747 14.7761 23.9625 14.8898 23.8797C15.0035 23.7972 15.0616 23.658 15.0404 23.519L14.7264 21.4624L16.1892 19.983C16.2883 19.883 16.3231 19.7363 16.2796 19.6026ZM14.0594 21.0681C13.9758 21.1526 13.9372 21.2716 13.9551 21.389L14.1878 22.9131L12.81 22.221C12.7038 22.1676 12.5787 22.1676 12.4726 22.221L11.0948 22.9131L11.3275 21.389C11.3454 21.2715 11.3067 21.1525 11.2232 21.0681L10.139 19.9717L11.6605 19.722C11.7777 19.7027 11.879 19.6291 11.9335 19.5236L12.6412 18.1537L13.3488 19.5236C13.4034 19.6291 13.5046 19.7027 13.6218 19.722L15.1433 19.9717L14.0594 21.0681Z" fill="#9B907E"/>
<path d="M24.5062 16.8399C24.4627 16.7062 24.3484 16.6079 24.2097 16.5851L22.1567 16.2481L21.2017 14.3997C21.1372 14.2748 21.0084 14.1963 20.8678 14.1963C20.7272 14.1963 20.5985 14.2747 20.534 14.3997L19.579 16.2481L17.5259 16.5851C17.3872 16.6079 17.2728 16.7062 17.2294 16.8399C17.1859 16.9736 17.2207 17.1204 17.3195 17.2203L18.7824 18.6997L18.4684 20.7564C18.4472 20.8953 18.5053 21.0345 18.6191 21.1171C18.7328 21.1997 18.8831 21.2121 19.0087 21.1489L20.8677 20.2148L22.7267 21.1489C22.78 21.1757 22.8379 21.1889 22.8954 21.1889C22.9734 21.1889 23.0509 21.1647 23.1163 21.1171C23.2301 21.0345 23.2882 20.8953 23.267 20.7564L22.953 18.6997L24.4158 17.2203C24.5149 17.1204 24.5496 16.9736 24.5062 16.8399ZM22.286 18.3054C22.2024 18.3899 22.1638 18.509 22.1817 18.6264L22.4143 20.1505L21.0366 19.4584C20.9835 19.4317 20.9257 19.4183 20.8678 19.4183C20.81 19.4183 20.7522 19.4317 20.6991 19.4584L19.3214 20.1505L19.554 18.6264C19.5719 18.5089 19.5333 18.3898 19.4497 18.3054L18.3656 17.2091L19.8871 16.9594C20.0044 16.9401 20.1056 16.8665 20.1601 16.761L20.8677 15.3911L21.5755 16.761C21.63 16.8665 21.7312 16.9401 21.8485 16.9594L23.3699 17.2091L22.286 18.3054Z" fill="#9B907E"/>
<path d="M8.0531 16.8399C8.00969 16.7062 7.89523 16.6079 7.75651 16.5851L5.70348 16.2481L4.74855 14.3997C4.684 14.2748 4.55524 14.1963 4.41461 14.1963C4.27399 14.1963 4.14523 14.2747 4.08068 14.3997L3.12584 16.2481L1.07281 16.5852C0.934087 16.608 0.819683 16.7062 0.776226 16.8399C0.732768 16.9736 0.767583 17.1204 0.866411 17.2204L2.32926 18.6997L2.01534 20.7564C1.99415 20.8954 2.0522 21.0346 2.16597 21.1172C2.2797 21.1998 2.42999 21.2121 2.55557 21.1489L4.41461 20.2149L6.2736 21.1489C6.32692 21.1757 6.38473 21.189 6.44225 21.189C6.52023 21.189 6.59782 21.1648 6.6632 21.1172C6.77697 21.0346 6.83503 20.8954 6.81383 20.7564L6.49992 18.6997L7.96271 17.2204C8.06169 17.1204 8.09655 16.9736 8.0531 16.8399ZM5.83278 18.3054C5.74923 18.3899 5.71056 18.509 5.72848 18.6264L5.9611 20.1505L4.58341 19.4584C4.53033 19.4316 4.47252 19.4183 4.41466 19.4183C4.3568 19.4183 4.29899 19.4317 4.24591 19.4584L2.86817 20.1505L3.10084 18.6264C3.11876 18.5089 3.08009 18.3899 2.99654 18.3054L1.91256 17.2091L3.43404 16.9594C3.55128 16.9401 3.65255 16.8665 3.70709 16.761L4.41476 15.3911L5.12243 16.761C5.17697 16.8665 5.27824 16.9401 5.39547 16.9594L6.91696 17.2091L5.83278 18.3054Z" fill="#9B907E"/>
</svg>
