<svg width="25" height="25" viewBox="0 0 25 25" fill="none" xmlns="http://www.w3.org/2000/svg">
<path d="M5.35048 17.9023C4.68467 17.9023 4.14307 18.444 4.14307 19.1098C4.14307 19.7756 4.68471 20.3172 5.35048 20.3172C6.01625 20.3172 6.55795 19.7756 6.55795 19.1098C6.55795 18.444 6.01625 17.9023 5.35048 17.9023ZM5.35048 19.4818C5.14536 19.4818 4.97851 19.3149 4.97851 19.1098C4.97851 18.9047 5.14541 18.7378 5.35048 18.7378C5.55556 18.7378 5.7225 18.9047 5.7225 19.1098C5.7225 19.3149 5.55556 19.4818 5.35048 19.4818Z" fill="#9B907E"/>
<path d="M4.81763 16.0278C5.04833 16.0278 5.23535 15.8408 5.23535 15.6101C5.23535 15.3794 5.04833 15.1924 4.81763 15.1924C4.58692 15.1924 4.3999 15.3794 4.3999 15.6101C4.3999 15.8408 4.58692 16.0278 4.81763 16.0278Z" fill="#9B907E"/>
<path d="M6.25171 16.0278C6.48241 16.0278 6.66943 15.8408 6.66943 15.6101C6.66943 15.3794 6.48241 15.1924 6.25171 15.1924C6.02101 15.1924 5.83398 15.3794 5.83398 15.6101C5.83398 15.8408 6.02101 16.0278 6.25171 16.0278Z" fill="#9B907E"/>
<path d="M10.3616 3.91162C10.5923 3.91162 10.7793 3.7246 10.7793 3.49389C10.7793 3.26319 10.5923 3.07617 10.3616 3.07617C10.1309 3.07617 9.94385 3.26319 9.94385 3.49389C9.94385 3.7246 10.1309 3.91162 10.3616 3.91162Z" fill="#9B907E"/>
<path d="M16.3635 7.979C16.5942 7.979 16.7812 7.79198 16.7812 7.56128C16.7812 7.33058 16.5942 7.14355 16.3635 7.14355C16.1328 7.14355 15.9458 7.33058 15.9458 7.56128C15.9458 7.79198 16.1328 7.979 16.3635 7.979Z" fill="#9B907E"/>
<path d="M7.65844 16.0278C7.88915 16.0278 8.07617 15.8408 8.07617 15.6101C8.07617 15.3794 7.88915 15.1924 7.65844 15.1924C7.42774 15.1924 7.24072 15.3794 7.24072 15.6101C7.24072 15.8408 7.42774 16.0278 7.65844 16.0278Z" fill="#9B907E"/>
<path d="M21.7342 9.34425L18.7732 6.37248C18.5369 6.13538 18.2224 6.00447 17.8877 6.00388C17.8869 6.00388 17.8861 6.00388 17.8853 6.00388C17.5515 6.00388 17.2374 6.13362 17.0008 6.36931C16.8374 6.53215 16.837 6.79665 16.9997 6.96013C17.1627 7.1236 17.4271 7.12395 17.5906 6.9612C17.6694 6.88259 17.7741 6.83938 17.8854 6.83938C17.8857 6.83938 17.8859 6.83938 17.8862 6.83938C17.9977 6.83952 18.1026 6.88322 18.1813 6.96223L21.1424 9.93394C21.305 10.0971 21.3045 10.3622 21.1413 10.5247L18.7477 12.9097L14.9021 9.05021C14.8942 9.04225 14.8858 9.03502 14.8774 9.0278L15.1988 8.27048C15.1989 8.27033 15.1989 8.27013 15.199 8.26999L16.6819 4.77547C16.8126 4.46727 16.8156 4.12669 16.6902 3.81634C16.5647 3.50599 16.326 3.26302 16.0178 3.13226L12.156 1.49355C11.8479 1.36279 11.5073 1.35986 11.1968 1.48525C10.8865 1.61069 10.6435 1.8495 10.5128 2.15766C10.4227 2.37006 10.5218 2.61527 10.7342 2.70541C10.9466 2.7955 11.1918 2.69633 11.2819 2.48402C11.3255 2.38129 11.4065 2.3017 11.51 2.2599C11.6134 2.21811 11.7269 2.21908 11.8297 2.26269L15.6915 3.9014C15.7942 3.945 15.8738 4.02596 15.9156 4.12943C15.9574 4.23284 15.9564 4.34642 15.9128 4.44915L14.5928 7.55969L9.60285 5.44217V5.05003V1.25322C9.60285 0.562156 9.0407 0 8.34964 0H4.15458C3.46352 0 2.90137 0.562156 2.90137 1.25322V5.04998V9.61246V14.1749V20.405C2.90137 20.6582 2.97705 20.8939 3.10669 21.0912C3.16221 21.3056 3.27231 21.5004 3.43095 21.6596L6.39203 24.6313C6.62831 24.8685 6.94276 24.9994 7.27752 24.9999C7.2783 24.9999 7.27908 24.9999 7.27986 24.9999C7.6137 24.9999 7.92776 24.8702 8.16438 24.6345L12.5775 20.2373C12.5775 20.2373 12.5776 20.2372 12.5777 20.2372L15.4426 17.3825L17.9912 14.8432L19.0416 13.7966L21.7312 11.1168C22.2205 10.6288 22.2219 9.83375 21.7342 9.34425ZM9.6029 9.61241V6.44075L9.63567 6.36355L14.2665 8.32868L13.6704 9.73341C13.6701 9.73419 13.6697 9.73492 13.6695 9.7357L12.8107 11.7596L9.6029 10.3983V9.61241ZM9.6029 14.1749V11.306L12.4842 12.5287L12.0736 13.4964C12.0734 13.4969 12.0732 13.4974 12.0731 13.4978L11.0284 15.9596L9.60295 15.3547V14.1749H9.6029ZM9.6029 16.2622L10.702 16.7286L10.198 17.9164C10.1494 17.9772 10.1205 18.0485 10.1109 18.1219L9.60295 19.3188V16.2622H9.6029ZM3.73681 1.25322C3.73681 1.0229 3.92426 0.835495 4.15454 0.835495H8.34959C8.57996 0.835495 8.76731 1.02295 8.76731 1.25322V4.63221H3.73681V1.25322ZM3.73681 5.4677H8.76736V6.35305C8.76736 6.35452 8.76736 6.35593 8.76736 6.35735V9.19469H3.73681V5.4677ZM3.73681 10.0302H8.76736V10.6666C8.76726 10.6718 8.76726 10.6769 8.76736 10.682V13.7572H3.73681V10.0302ZM7.57459 24.0426C7.49573 24.1212 7.39105 24.1645 7.27977 24.1645C7.27947 24.1645 7.27928 24.1645 7.27899 24.1645C7.16741 24.1643 7.06258 24.1206 6.98382 24.0416L4.88573 21.9359L7.55745 23.0696C7.71673 23.1372 7.8823 23.1692 8.04534 23.1692C8.22552 23.1692 8.40247 23.1298 8.56428 23.0565L7.57459 24.0426ZM8.43157 22.0791C8.38797 22.1818 8.30696 22.2614 8.20354 22.3032C8.09998 22.345 7.98655 22.344 7.88382 22.3004L6.37025 21.6581H8.34969V21.6582C8.44358 21.6582 8.53499 21.6475 8.62307 21.6277L8.43157 22.0791ZM8.76741 15.6283C8.76741 15.6298 8.76741 15.6312 8.76741 15.6326V20.4049C8.76741 20.6353 8.58006 20.8226 8.34969 20.8226C8.34969 20.8226 5.34096 20.8403 4.18325 20.8327C3.93691 20.8311 3.73842 20.6308 3.73882 20.3843C3.74087 18.966 3.73686 14.5925 3.73686 14.5925H8.76741V15.6283ZM9.18572 22.4372C9.1906 22.4266 9.19602 22.4163 9.20066 22.4055L10.6784 18.923L11.6919 19.9401L9.18572 22.4372ZM12.2838 19.3504L11.0307 18.0928L11.6342 16.6706C11.6342 16.6706 11.6343 16.6705 11.6343 16.6704L12.6022 14.3896L14.9239 16.7197L12.2838 19.3504ZM15.5157 16.13L12.9544 13.5595L13.4166 12.4705L14.4093 10.131L14.6052 9.9359L18.1558 13.4995L15.5157 16.13Z" fill="#9B907E"/>
<path d="M5.35048 17.9023C4.68467 17.9023 4.14307 18.444 4.14307 19.1098C4.14307 19.7756 4.68471 20.3172 5.35048 20.3172C6.01625 20.3172 6.55795 19.7756 6.55795 19.1098C6.55795 18.444 6.01625 17.9023 5.35048 17.9023ZM5.35048 19.4818C5.14536 19.4818 4.97851 19.3149 4.97851 19.1098C4.97851 18.9047 5.14541 18.7378 5.35048 18.7378C5.55556 18.7378 5.7225 18.9047 5.7225 19.1098C5.7225 19.3149 5.55556 19.4818 5.35048 19.4818Z" fill="#9B907E"/>
<path d="M10.3616 3.91162C10.5923 3.91162 10.7793 3.7246 10.7793 3.49389C10.7793 3.26319 10.5923 3.07617 10.3616 3.07617C10.1309 3.07617 9.94385 3.26319 9.94385 3.49389C9.94385 3.7246 10.1309 3.91162 10.3616 3.91162Z" fill="#9B907E"/>
<path d="M16.3635 7.979C16.5942 7.979 16.7812 7.79198 16.7812 7.56128C16.7812 7.33058 16.5942 7.14355 16.3635 7.14355C16.1328 7.14355 15.9458 7.33058 15.9458 7.56128C15.9458 7.79198 16.1328 7.979 16.3635 7.979Z" fill="#9B907E"/>
</svg>
