<svg width="174" height="27" viewBox="0 0 174 27" fill="none" xmlns="http://www.w3.org/2000/svg">
<path d="M0.72 22L9.72 0.849999H13.98L22.98 22H18.15L16.23 17.29H7.35L5.43 22H0.72ZM9 13.21H14.58L11.79 6.4L9 13.21ZM25.7412 22V5.92H30.3012V9.16C31.3412 6.7 33.0512 5.52 35.4312 5.62V10.39H35.1912C33.6312 10.39 32.4212 10.87 31.5612 11.83C30.7212 12.77 30.3012 14.18 30.3012 16.06V22H25.7412ZM45.4608 22.36C43.0208 22.36 41.0108 21.59 39.4308 20.05C37.8508 18.49 37.0608 16.47 37.0608 13.99C37.0608 11.65 37.8108 9.67 39.3108 8.05C40.8108 6.43 42.7108 5.62 45.0108 5.62C47.5508 5.62 49.4908 6.46 50.8308 8.14C52.1708 9.82 52.8408 11.89 52.8408 14.35C52.8408 14.59 52.8208 14.99 52.7808 15.55H41.5908C41.8108 16.57 42.2608 17.35 42.9408 17.89C43.6208 18.43 44.4808 18.7 45.5208 18.7C46.9408 18.7 48.2408 18.15 49.4208 17.05L52.0308 19.36C50.4108 21.36 48.2208 22.36 45.4608 22.36ZM41.5308 12.7H48.4008C48.2608 11.66 47.8908 10.83 47.2908 10.21C46.7108 9.59 45.9508 9.28 45.0108 9.28C44.0908 9.28 43.3208 9.59 42.7008 10.21C42.1008 10.81 41.7108 11.64 41.5308 12.7ZM56.2392 22V5.92H60.7992V8.2C62.1392 6.48 63.7092 5.62 65.5092 5.62C67.2292 5.62 68.5692 6.15 69.5292 7.21C70.4892 8.27 70.9692 9.73 70.9692 11.59V22H66.4092V13.03C66.4092 11.97 66.1692 11.16 65.6892 10.6C65.2092 10.04 64.5292 9.76 63.6492 9.76C62.7692 9.76 62.0692 10.04 61.5492 10.6C61.0492 11.16 60.7992 11.97 60.7992 13.03V22H56.2392ZM81.5306 22.3C79.5306 22.3 77.8106 21.55 76.3706 20.05C74.9306 18.55 74.2106 16.51 74.2106 13.93C74.2106 11.37 74.9206 9.35 76.3406 7.87C77.7806 6.37 79.5106 5.62 81.5306 5.62C83.5306 5.62 85.2006 6.42 86.5406 8.02V0.0999994H91.1006V22H86.5406V19.69C85.2606 21.43 83.5906 22.3 81.5306 22.3ZM79.9106 17.2C80.6706 18.02 81.6006 18.43 82.7006 18.43C83.8006 18.43 84.7206 18.02 85.4606 17.2C86.2206 16.36 86.6006 15.27 86.6006 13.93C86.6006 12.63 86.2206 11.57 85.4606 10.75C84.7206 9.91 83.8006 9.49 82.7006 9.49C81.6006 9.49 80.6706 9.91 79.9106 10.75C79.1506 11.57 78.7706 12.65 78.7706 13.99C78.7706 15.29 79.1506 16.36 79.9106 17.2Z" fill="#090909"/>
<path d="M103.125 22.3C99.6848 22.3 96.7148 21.18 94.2148 18.94L96.9448 15.67C99.0048 17.37 101.095 18.22 103.215 18.22C104.155 18.22 104.895 18.04 105.435 17.68C105.975 17.32 106.245 16.82 106.245 16.18C106.245 15.58 105.965 15.1 105.405 14.74C104.845 14.36 103.715 13.95 102.015 13.51C100.815 13.21 99.8448 12.92 99.1048 12.64C98.3648 12.34 97.6548 11.95 96.9748 11.47C96.3148 10.99 95.8248 10.39 95.5048 9.67C95.2048 8.93 95.0548 8.05 95.0548 7.03C95.0548 5.13 95.7348 3.6 97.0948 2.44C98.4748 1.28 100.245 0.699999 102.405 0.699999C105.385 0.699999 107.985 1.59 110.205 3.37L107.805 6.85C105.825 5.47 104.005 4.78 102.345 4.78C101.485 4.78 100.815 4.96 100.335 5.32C99.8748 5.66 99.6448 6.11 99.6448 6.67C99.6448 7.35 99.9348 7.86 100.515 8.2C101.095 8.54 102.315 8.95 104.175 9.43C106.455 10.03 108.135 10.8 109.215 11.74C110.295 12.68 110.835 14.03 110.835 15.79C110.835 17.83 110.125 19.43 108.705 20.59C107.305 21.73 105.445 22.3 103.125 22.3ZM119.648 22.27C118.148 22.27 116.988 21.91 116.168 21.19C115.368 20.45 114.968 19.2 114.968 17.44V9.82H113.048V5.92H114.968V1.81H119.528V5.92H123.308V9.82H119.528V16.69C119.528 17.73 120.018 18.25 120.998 18.25C121.798 18.25 122.548 18.06 123.248 17.68V21.34C122.208 21.96 121.008 22.27 119.648 22.27ZM126.669 22V5.92H131.229V9.16C132.269 6.7 133.979 5.52 136.359 5.62V10.39H136.119C134.559 10.39 133.349 10.87 132.489 11.83C131.649 12.77 131.229 14.18 131.229 16.06V22H126.669ZM152.869 19.93C151.209 21.55 149.139 22.36 146.659 22.36C144.179 22.36 142.109 21.56 140.449 19.96C138.809 18.34 137.989 16.35 137.989 13.99C137.989 11.65 138.819 9.67 140.479 8.05C142.159 6.43 144.239 5.62 146.719 5.62C149.199 5.62 151.259 6.43 152.899 8.05C154.559 9.65 155.389 11.63 155.389 13.99C155.389 16.33 154.549 18.31 152.869 19.93ZM146.719 18.43C147.979 18.43 148.989 18.01 149.749 17.17C150.509 16.31 150.889 15.25 150.889 13.99C150.889 12.77 150.489 11.73 149.689 10.87C148.909 9.99 147.899 9.55 146.659 9.55C145.399 9.55 144.389 9.98 143.629 10.84C142.869 11.68 142.489 12.73 142.489 13.99C142.489 15.21 142.879 16.26 143.659 17.14C144.459 18 145.479 18.43 146.719 18.43ZM161.622 26.89C160.182 26.89 158.832 26.52 157.572 25.78L159.102 22.48C159.802 22.9 160.452 23.11 161.052 23.11C161.772 23.11 162.302 22.76 162.642 22.06L156.342 5.92H161.172L164.832 16.87L168.342 5.92H173.082L166.902 22.39C166.282 24.05 165.582 25.21 164.802 25.87C164.022 26.55 162.962 26.89 161.622 26.89Z" fill="#F0C017"/>
</svg>
