<svg width="10" height="10" viewBox="0 0 10 10" fill="none" xmlns="http://www.w3.org/2000/svg">
<g clip-path="url(#clip0)">
<path d="M4.40379 0C1.97561 0 0 1.97561 0 4.40379C0 6.83211 1.97561 8.80758 4.40379 8.80758C6.83211 8.80758 8.80758 6.83211 8.80758 4.40379C8.80758 1.97561 6.83211 0 4.40379 0ZM4.40379 7.99459C2.42385 7.99459 0.813008 6.38375 0.813008 4.40381C0.813008 2.42387 2.42385 0.813008 4.40379 0.813008C6.38373 0.813008 7.99457 2.42385 7.99457 4.40379C7.99457 6.38373 6.38373 7.99459 4.40379 7.99459Z" fill="black"/>
<path d="M9.88092 9.3057L7.55027 6.97506C7.39146 6.81625 7.13427 6.81625 6.97546 6.97506C6.81665 7.13374 6.81665 7.3912 6.97546 7.54987L9.30611 9.88051C9.38551 9.95991 9.48946 9.99961 9.59352 9.99961C9.69745 9.99961 9.80151 9.95991 9.88092 9.88051C10.0397 9.72184 10.0397 9.46438 9.88092 9.3057Z" fill="black"/>
</g>
<defs>
<clipPath id="clip0">
<rect width="10" height="10" fill="white"/>
</clipPath>
</defs>
</svg>
