<svg xmlns="http://www.w3.org/2000/svg" xmlns:xlink="http://www.w3.org/1999/xlink" width="9" height="17" viewBox="0 0 9 17"><defs><path id="l5m5a" d="M1019.658 4213c.002-.042.004-.083.004-.125v-7.628h-2.547c-.113 0-.113 0-.113-.108 0-.94.001-1.88-.002-2.819 0-.086.026-.107.11-.107.813.003 1.626.002 2.439.002h.114v-.091c.001-.781-.005-1.563.006-2.344.01-.628.133-1.237.411-1.807a3.305 3.305 0 0 1 1.777-1.658 4.24 4.24 0 0 1 1.684-.314c.666.01 1.33.039 1.996.062.124.005.247.025.37.032.07.003.093.028.092.096-.002.39 0 .779 0 1.168 0 .459-.002.918.001 1.376 0 .08-.023.105-.105.104-.505-.003-1.01-.01-1.515.002-.23.005-.462.03-.686.078-.433.094-.688.375-.774.799-.035.17-.055.346-.056.52-.007.636-.003 1.273-.003 1.91 0 .019.002.038.004.067h2.904c.122 0 .124 0 .11.114-.067.5-.135 1.001-.2 1.502-.055.418-.108.837-.159 1.255-.02.16-.015.16-.178.16H1022.86v7.571l-.002.183z"/></defs><g><g clip-path="url(#clip-517840CE-CA54-40B2-AEFF-93D0208C09DF)" transform="translate(-1017 -4196)"><use fill="#fff" xlink:href="#l5m5a"/></g></g></svg>