<svg xmlns="http://www.w3.org/2000/svg" xmlns:xlink="http://www.w3.org/1999/xlink" width="63" height="26" viewBox="0 0 63 26"><defs><path id="mwjva" d="M619 3406.08a7.5 7.5 0 1 1-15 0 7.5 7.5 0 0 1 15 0z"/><path id="mwjvb" d="M623.739 3433.58c.807-3.972-.325-8.26-3.405-11.34-4.882-4.88-12.796-4.88-17.678 0-3.08 3.08-4.211 7.368-3.404 11.34z"/><path id="mwjvc" d="M678 3406.08a7.5 7.5 0 1 1-15 0 7.5 7.5 0 0 1 15 0z"/><path id="mwjvd" d="M682.739 3433.58c.807-3.972-.325-8.26-3.405-11.34-4.882-4.88-12.796-4.88-17.678 0-3.08 3.08-4.211 7.368-3.404 11.34z"/><path id="mwjve" d="M648.83 3390.08a7.5 7.5 0 1 1-15 0 7.5 7.5 0 0 1 15 0z"/><path id="mwjvf" d="M653.569 3417.58c.807-3.972-.325-8.26-3.405-11.34-4.882-4.88-12.796-4.88-17.678 0-3.08 3.08-4.211 7.368-3.404 11.34z"/><path id="mwjvg" d="M641.3 3362v9.536"/><path id="mwjvh" d="M659.239 3366.09l-5.449 9.536"/><path id="mwjvi" d="M671.496 3379.71l-9.536 5.449"/><path id="mwjvj" d="M623.59 3366.09l5.449 9.536"/><path id="mwjvk" d="M611.33 3379.71l9.536 5.449"/></defs><g><g transform="translate(-610 -3361)"><g><use fill="#fff" fill-opacity="0" stroke="#fff" stroke-linecap="round" stroke-linejoin="round" stroke-miterlimit="50" stroke-width="2" xlink:href="#mwjva"/></g><g><use fill="#fff" fill-opacity="0" stroke="#fff" stroke-linecap="round" stroke-linejoin="round" stroke-miterlimit="50" stroke-width="2" xlink:href="#mwjvb"/></g><g><use fill="#fff" fill-opacity="0" stroke="#fff" stroke-linecap="round" stroke-linejoin="round" stroke-miterlimit="50" stroke-width="2" xlink:href="#mwjvc"/></g><g><use fill="#fff" fill-opacity="0" stroke="#fff" stroke-linecap="round" stroke-linejoin="round" stroke-miterlimit="50" stroke-width="2" xlink:href="#mwjvd"/></g><g><use fill="#fff" fill-opacity="0" stroke="#fff" stroke-linecap="round" stroke-linejoin="round" stroke-miterlimit="50" stroke-width="2" xlink:href="#mwjve"/></g><g><use fill="#fff" fill-opacity="0" stroke="#fff" stroke-linecap="round" stroke-linejoin="round" stroke-miterlimit="50" stroke-width="2" xlink:href="#mwjvf"/></g><g><use fill="#fff" fill-opacity="0" stroke="#fff" stroke-linecap="round" stroke-linejoin="round" stroke-miterlimit="50" stroke-width="2" xlink:href="#mwjvg"/></g><g><use fill="#fff" fill-opacity="0" stroke="#fff" stroke-linecap="round" stroke-linejoin="round" stroke-miterlimit="50" stroke-width="2" xlink:href="#mwjvh"/></g><g><use fill="#fff" fill-opacity="0" stroke="#fff" stroke-linecap="round" stroke-linejoin="round" stroke-miterlimit="50" stroke-width="2" xlink:href="#mwjvi"/></g><g><use fill="#fff" fill-opacity="0" stroke="#fff" stroke-linecap="round" stroke-linejoin="round" stroke-miterlimit="50" stroke-width="2" xlink:href="#mwjvj"/></g><g><use fill="#fff" fill-opacity="0" stroke="#fff" stroke-linecap="round" stroke-linejoin="round" stroke-miterlimit="50" stroke-width="2" xlink:href="#mwjvk"/></g></g></g></svg>