<svg xmlns="http://www.w3.org/2000/svg" xmlns:xlink="http://www.w3.org/1999/xlink" width="53" height="54" viewBox="0 0 53 54"><defs><path id="mq2nb" d="M278.32 3402c0 11.874-9.626 21.5-21.5 21.5s-21.5-9.626-21.5-21.5 9.626-21.5 21.5-21.5 21.5 9.626 21.5 21.5z"/><path id="mq2nc" d="M256.82 3390.5v9"/><path id="mq2nd" d="M256.82 3369.5v4"/><path id="mq2ne" d="M258.32 3405l4.059 11.746"/><path id="mq2nf" d="M236.32 3402.5h3"/><path id="mq2ng" d="M275.32 3402.5h3"/><path id="mq2nh" d="M241.54 3370.272a7.686 7.686 0 0 0-6.001-4.135 7.697 7.697 0 0 0-8.492 6.807 7.687 7.687 0 0 0 2.73 6.758z"/><path id="mq2ni" d="M235.66 3375.14l3.52 4.487"/><path id="mq2nj" d="M228.29 3365.74l1.188 1.515"/><path id="mq2nk" d="M273 3370.272a7.696 7.696 0 0 1 14.494 2.672 7.687 7.687 0 0 1-2.731 6.758z"/><path id="mq2nl" d="M278.88 3375.14l-3.52 4.487"/><path id="mq2nm" d="M286.249 3365.74l-1.189 1.515"/><path id="mq2na" d="M226 3434h62.54v-71H226z"/><path id="mq2no" d="M251.82 3368.5h10v-4.5h-10z"/><path id="mq2np" d="M237.82 3433l3.5-6.5"/><path id="mq2nq" d="M275.82 3433l-3.5-6.5"/><path id="mq2nr" d="M259.32 3402a2.5 2.5 0 1 1-5 0 2.5 2.5 0 0 1 5 0z"/><path id="mq2ns" d="M257.32 3381.5v3"/><path id="mq2nt" d="M257.32 3420.5v3"/><path id="mq2nu" d="M242.47 3387.65l2.121 2.121"/><path id="mq2nv" d="M270.04 3415.23l1.272 1.272"/><path id="mq2nw" d="M272.161 3387.65l-2.121 2.121"/><path id="mq2nx" d="M244.591 3415.23l-2.121 2.121"/><path id="mq2ny" d="M285.32 3402c0 15.74-12.76 28.5-28.5 28.5s-28.5-12.76-28.5-28.5 12.76-28.5 28.5-28.5 28.5 12.76 28.5 28.5z"/><clipPath id="mq2nn"><use xlink:href="#mq2na"/></clipPath></defs><g><g transform="translate(-227 -3364)"><g><use fill="#fff" fill-opacity="0" stroke="#fff" stroke-linecap="round" stroke-linejoin="round" stroke-miterlimit="50" stroke-width="2" xlink:href="#mq2nb"/></g><g><use fill="#fff" fill-opacity="0" stroke="#fff" stroke-linecap="round" stroke-linejoin="round" stroke-miterlimit="50" stroke-width="2" xlink:href="#mq2nc"/></g><g><use fill="#fff" fill-opacity="0" stroke="#fff" stroke-linecap="round" stroke-linejoin="round" stroke-miterlimit="50" stroke-width="2" xlink:href="#mq2nd"/></g><g><use fill="#fff" fill-opacity="0" stroke="#fff" stroke-linecap="round" stroke-linejoin="round" stroke-miterlimit="50" stroke-width="2" xlink:href="#mq2ne"/></g><g><use fill="#fff" fill-opacity="0" stroke="#fff" stroke-linecap="round" stroke-linejoin="round" stroke-miterlimit="50" stroke-width="2" xlink:href="#mq2nf"/></g><g><use fill="#fff" fill-opacity="0" stroke="#fff" stroke-linecap="round" stroke-linejoin="round" stroke-miterlimit="50" stroke-width="2" xlink:href="#mq2ng"/></g><g><use fill="#fff" fill-opacity="0" stroke="#fff" stroke-linecap="round" stroke-linejoin="round" stroke-miterlimit="50" stroke-width="2" xlink:href="#mq2nh"/></g><g><use fill="#fff" fill-opacity="0" stroke="#fff" stroke-linecap="round" stroke-linejoin="round" stroke-miterlimit="50" stroke-width="2" xlink:href="#mq2ni"/></g><g><use fill="#fff" fill-opacity="0" stroke="#fff" stroke-linecap="round" stroke-linejoin="round" stroke-miterlimit="50" stroke-width="2" xlink:href="#mq2nj"/></g><g><use fill="#fff" fill-opacity="0" stroke="#fff" stroke-linecap="round" stroke-linejoin="round" stroke-miterlimit="50" stroke-width="2" xlink:href="#mq2nk"/></g><g><use fill="#fff" fill-opacity="0" stroke="#fff" stroke-linecap="round" stroke-linejoin="round" stroke-miterlimit="50" stroke-width="2" xlink:href="#mq2nl"/></g><g><use fill="#fff" fill-opacity="0" stroke="#fff" stroke-linecap="round" stroke-linejoin="round" stroke-miterlimit="50" stroke-width="2" xlink:href="#mq2nm"/></g><g/><g clip-path="url(#mq2nn)"><use fill="#fff" fill-opacity="0" stroke="#fff" stroke-linecap="round" stroke-linejoin="round" stroke-miterlimit="50" stroke-width="2" xlink:href="#mq2no"/></g><g clip-path="url(#mq2nn)"><use fill="#fff" fill-opacity="0" stroke="#fff" stroke-linecap="round" stroke-linejoin="round" stroke-miterlimit="50" stroke-width="2" xlink:href="#mq2np"/></g><g clip-path="url(#mq2nn)"><use fill="#fff" fill-opacity="0" stroke="#fff" stroke-linecap="round" stroke-linejoin="round" stroke-miterlimit="50" stroke-width="2" xlink:href="#mq2nq"/></g><g clip-path="url(#mq2nn)"><use fill="#fff" fill-opacity="0" stroke="#fff" stroke-linecap="round" stroke-linejoin="round" stroke-miterlimit="50" stroke-width="2" xlink:href="#mq2nr"/></g><g clip-path="url(#mq2nn)"><use fill="#fff" fill-opacity="0" stroke="#fff" stroke-linecap="round" stroke-linejoin="round" stroke-miterlimit="50" stroke-width="2" xlink:href="#mq2ns"/></g><g clip-path="url(#mq2nn)"><use fill="#fff" fill-opacity="0" stroke="#fff" stroke-linecap="round" stroke-linejoin="round" stroke-miterlimit="50" stroke-width="2" xlink:href="#mq2nt"/></g><g clip-path="url(#mq2nn)"><use fill="#fff" fill-opacity="0" stroke="#fff" stroke-linecap="round" stroke-linejoin="round" stroke-miterlimit="50" stroke-width="2" xlink:href="#mq2nu"/></g><g clip-path="url(#mq2nn)"><use fill="#fff" fill-opacity="0" stroke="#fff" stroke-linecap="round" stroke-linejoin="round" stroke-miterlimit="50" stroke-width="2" xlink:href="#mq2nv"/></g><g clip-path="url(#mq2nn)"><use fill="#fff" fill-opacity="0" stroke="#fff" stroke-linecap="round" stroke-linejoin="round" stroke-miterlimit="50" stroke-width="2" xlink:href="#mq2nw"/></g><g clip-path="url(#mq2nn)"><use fill="#fff" fill-opacity="0" stroke="#fff" stroke-linecap="round" stroke-linejoin="round" stroke-miterlimit="50" stroke-width="2" xlink:href="#mq2nx"/></g><g clip-path="url(#mq2nn)"><use fill="#fff" fill-opacity="0" stroke="#fff" stroke-linecap="round" stroke-linejoin="round" stroke-miterlimit="50" stroke-width="2" xlink:href="#mq2ny"/></g></g></g></svg>