<svg xmlns="http://www.w3.org/2000/svg" xmlns:xlink="http://www.w3.org/1999/xlink" width="35" height="73" viewBox="0 0 35 73"><defs><path id="ttrga" d="M1015 3433.998v-2.763c0-1.473-.325-2.928-.952-4.261l-6.285-13.355a8.02 8.02 0 0 1-.763-3.413v-23.671c0-1.318.939-2.531 2.25-2.662 1.142-.114 2.492.5 3.479 3.276a4.63 4.63 0 0 1 .271 1.55v17.617c0 .452.113.89.329 1.286l5.671 10.396"/><path id="ttrgb" d="M1014 3405h3s1 0 2 1l9 12s1 2 1 6v10"/><path id="ttrgc" d="M1051 3433.998v-2.763c0-1.473.325-2.928.952-4.261l6.285-13.355a8.02 8.02 0 0 0 .763-3.413v-23.671c0-1.318-.939-2.531-2.25-2.662-1.142-.114-2.492.5-3.479 3.276a4.63 4.63 0 0 0-.271 1.55v17.617c0 .452-.113.89-.329 1.286l-5.671 10.396"/><path id="ttrgd" d="M1052 3405h-3s-1 0-2 1l-9 12s-1 2-1 6v10"/><path id="ttrge" d="M1033 3363l9.163 12.495c1.742 2.376 2.968 5.107 3.46 8.011.223 1.315.377 2.827.377 4.494 0 0 0 6-2 8 0 0-4 6-11 6"/><path id="ttrgf" d="M1033 3363l-9.163 12.495c-1.742 2.376-2.968 5.107-3.46 8.011A26.906 26.906 0 0 0 1020 3388s0 6 2 8c0 0 4 6 11 6"/><path id="ttrgg" d="M1033 3376v36"/><path id="ttrgh" d="M1028 3380l5 4"/><path id="ttrgi" d="M1028 3388l5 4"/><path id="ttrgj" d="M1038 3385l-5 4"/><path id="ttrgk" d="M1038 3393l-5 4"/></defs><g><g transform="translate(-1012 -3362)"><g><use fill="#fff" fill-opacity="0" stroke="#fff" stroke-linecap="round" stroke-linejoin="round" stroke-miterlimit="50" stroke-width="2" xlink:href="#ttrga"/></g><g><use fill="#fff" fill-opacity="0" stroke="#fff" stroke-linecap="round" stroke-linejoin="round" stroke-miterlimit="50" stroke-width="2" xlink:href="#ttrgb"/></g><g><use fill="#fff" fill-opacity="0" stroke="#fff" stroke-linecap="round" stroke-linejoin="round" stroke-miterlimit="50" stroke-width="2" xlink:href="#ttrgc"/></g><g><use fill="#fff" fill-opacity="0" stroke="#fff" stroke-linecap="round" stroke-linejoin="round" stroke-miterlimit="50" stroke-width="2" xlink:href="#ttrgd"/></g><g><use fill="#fff" fill-opacity="0" stroke="#fff" stroke-linecap="round" stroke-linejoin="round" stroke-miterlimit="50" stroke-width="2" xlink:href="#ttrge"/></g><g><use fill="#fff" fill-opacity="0" stroke="#fff" stroke-linecap="round" stroke-linejoin="round" stroke-miterlimit="50" stroke-width="2" xlink:href="#ttrgf"/></g><g><use fill="#fff" fill-opacity="0" stroke="#fff" stroke-linecap="round" stroke-linejoin="round" stroke-miterlimit="50" stroke-width="2" xlink:href="#ttrgg"/></g><g><use fill="#fff" fill-opacity="0" stroke="#fff" stroke-linecap="round" stroke-linejoin="round" stroke-miterlimit="50" stroke-width="2" xlink:href="#ttrgh"/></g><g><use fill="#fff" fill-opacity="0" stroke="#fff" stroke-linecap="round" stroke-linejoin="round" stroke-miterlimit="50" stroke-width="2" xlink:href="#ttrgi"/></g><g><use fill="#fff" fill-opacity="0" stroke="#fff" stroke-linecap="round" stroke-linejoin="round" stroke-miterlimit="50" stroke-width="2" xlink:href="#ttrgj"/></g><g><use fill="#fff" fill-opacity="0" stroke="#fff" stroke-linecap="round" stroke-linejoin="round" stroke-miterlimit="50" stroke-width="2" xlink:href="#ttrgk"/></g></g></g></svg>