<svg xmlns="http://www.w3.org/2000/svg" xmlns:xlink="http://www.w3.org/1999/xlink" width="169" height="5" viewBox="0 0 169 5"><defs><path id="aj4qa" d="M437 3217c-2.681 0-2.681-3-5.362-3-2.682 0-2.682 3-5.364 3-2.681 0-2.681-3-5.362-3-2.682 0-2.682 3-5.364 3-2.68 0-2.68-3-5.361-3-2.68 0-2.68 3-5.362 3-2.681 0-2.681-3-5.363-3-2.682 0-2.682 3-5.365 3-2.681 0-2.681-3-5.363-3-2.684 0-2.684 3-5.367 3-2.684 0-2.684-3-5.367-3"/><path id="aj4qb" d="M491 3217c-2.681 0-2.681-3-5.362-3-2.682 0-2.682 3-5.364 3-2.681 0-2.681-3-5.362-3-2.682 0-2.682 3-5.364 3-2.68 0-2.68-3-5.361-3-2.68 0-2.68 3-5.362 3-2.681 0-2.681-3-5.363-3-2.682 0-2.682 3-5.365 3-2.681 0-2.681-3-5.363-3-2.684 0-2.684 3-5.367 3-2.684 0-2.684-3-5.367-3"/><path id="aj4qc" d="M545 3217c-2.681 0-2.681-3-5.362-3-2.682 0-2.682 3-5.364 3-2.681 0-2.681-3-5.362-3-2.682 0-2.682 3-5.364 3-2.68 0-2.68-3-5.361-3-2.681 0-2.681 3-5.362 3s-2.681-3-5.363-3c-2.682 0-2.682 3-5.365 3-2.681 0-2.681-3-5.363-3-2.684 0-2.684 3-5.367 3-2.684 0-2.684-3-5.367-3"/></defs><g><g transform="translate(-377 -3213)"><g><use fill="#fff" fill-opacity="0" stroke="#fff" stroke-linecap="round" stroke-linejoin="round" stroke-miterlimit="50" stroke-width="1.5" xlink:href="#aj4qa"/></g><g><use fill="#fff" fill-opacity="0" stroke="#fff" stroke-linecap="round" stroke-linejoin="round" stroke-miterlimit="50" stroke-width="1.5" xlink:href="#aj4qb"/></g><g><use fill="#fff" fill-opacity="0" stroke="#fff" stroke-linecap="round" stroke-linejoin="round" stroke-miterlimit="50" stroke-width="1.5" xlink:href="#aj4qc"/></g></g></g></svg>