<svg xmlns="http://www.w3.org/2000/svg" xmlns:xlink="http://www.w3.org/1999/xlink" width="61" height="5" viewBox="0 0 61 5"><defs><path id="wwo0a" d="M1061 764c-2.681 0-2.681-3-5.362-3-2.682 0-2.682 3-5.364 3-2.681 0-2.681-3-5.362-3-2.682 0-2.682 3-5.364 3-2.68 0-2.68-3-5.361-3-2.681 0-2.681 3-5.362 3s-2.681-3-5.363-3c-2.682 0-2.682 3-5.365 3-2.681 0-2.681-3-5.363-3-2.684 0-2.684 3-5.367 3-2.684 0-2.684-3-5.367-3"/></defs><g><g opacity=".8" transform="translate(-1001 -760)"><use fill="#fff" fill-opacity="0" stroke="#a3323a" stroke-linecap="round" stroke-linejoin="round" stroke-miterlimit="50" stroke-width="1.5" xlink:href="#wwo0a"/></g></g></svg>