<svg xmlns="http://www.w3.org/2000/svg" xmlns:xlink="http://www.w3.org/1999/xlink" width="119" height="8" viewBox="0 0 119 8"><defs><path id="zv1wa" d="M699 2687c-5.317 0-5.317-6-10.634-6-5.318 0-5.318 6-10.636 6-5.317 0-5.317-6-10.634-6-5.318 0-5.318 6-10.636 6-5.315 0-5.315-6-10.632-6-5.316 0-5.316 6-10.632 6-5.318 0-5.318-6-10.635-6-5.32 0-5.32 6-10.64 6-5.317 0-5.317-6-10.635-6-5.322 0-5.322 6-10.643 6-5.322 0-5.322-6-10.643-6"/></defs><g><g opacity=".8" transform="translate(-581 -2680)"><use fill="#fff" fill-opacity="0" stroke="#194f6e" stroke-linecap="round" stroke-linejoin="round" stroke-miterlimit="50" stroke-width="1.5" xlink:href="#zv1wa"/></g></g></svg>