<svg xmlns="http://www.w3.org/2000/svg" xmlns:xlink="http://www.w3.org/1999/xlink" width="38" height="38" viewBox="0 0 38 38"><defs><path id="ld7ya" d="M394.7 4139h13.6c.935 0 1.7.765 1.7 1.7v10.2c0 .935-.765 1.7-1.7 1.7h-13.6c-.935 0-1.7-.765-1.7-1.7v-10.2c0-.935.765-1.7 1.7-1.7z"/><path id="ld7yb" d="M410 4140.7l-8.5 5.95-8.5-5.95"/><path id="ld7yc" d="M383 4146c0-9.941 8.059-18 18-18s18 8.059 18 18-8.059 18-18 18-18-8.059-18-18z"/></defs><g><g transform="translate(-382 -4127)"><g><use fill="#fff" xlink:href="#ld7ya"/></g><g><use fill="#fff" fill-opacity="0" stroke="#4d5562" stroke-linecap="round" stroke-linejoin="round" stroke-miterlimit="50" stroke-width="1.5" xlink:href="#ld7yb"/></g></g><g transform="translate(-382 -4127)"><use fill="#fff" fill-opacity="0" stroke="#fff" stroke-miterlimit="50" xlink:href="#ld7yc"/></g></g></svg>