<svg xmlns="http://www.w3.org/2000/svg" xmlns:xlink="http://www.w3.org/1999/xlink" width="377" height="400" viewBox="0 0 377 400"><defs><path id="jo6da" d="M984.942 3283.748c51.96-145.824-70.947-383.536 0-145.824 70.946 237.712 197.85 254.692 142.892 270.672-54.959 15.98-109.917 16.98-199.85 0-89.932-16.98-190.856 93.887-86.934-42.948 103.922-136.834 61.953 131.84 178.865-23.97 116.912-155.812 107.92-168.796 107.92-168.796s80.938-31.961 22.982-62.924c-57.957-30.962-57.957-94.885-61.954-15.98"/><path id="jo6db" d="M905.012 3210.832c-85.164 2.99-101.195-34.895-93.18-35.892 8.016-.997 16.203-19.94 45.674-19.94s132.67 52.84 47.506 55.832z"/><path id="jo6dc" d="M942.023 3119c-52.947 60-40.959 92-39.96 107 1 15 43.956 38 0 46s-74.925 35-74.925 0-3.996-48 30.97-46c34.964 2 73.925 12 83.915 46 9.99 34 22.977 41 22.977 41"/></defs><g><g transform="translate(-796 -3036)"><use fill="#fff" fill-opacity="0" stroke="#fff" stroke-miterlimit="50" stroke-width="2" xlink:href="#jo6da"/></g><g transform="translate(-796 -3036)"><use fill="#fff" fill-opacity="0" stroke="#fff" stroke-miterlimit="50" stroke-width="2" xlink:href="#jo6db"/></g><g transform="translate(-796 -3036)"><use fill="#fff" fill-opacity="0" stroke="#fff" stroke-miterlimit="50" stroke-width="2" xlink:href="#jo6dc"/></g></g></svg>