<svg xmlns="http://www.w3.org/2000/svg" xmlns:xlink="http://www.w3.org/1999/xlink" width="231" height="43" viewBox="0 0 231 43"><defs><path id="ep3kc" d="M763.82 3085.065c-.69 2.359-3.036 4.438-5.384 4.854-2.484.417-5.247.555-7.455-.416-.967 0-1.519.971-2.348.833l-.69-.971-1.243-4.994c0-.416.416-.832.692-.97 1.794.138 2.07 2.08 3.451 2.913 1.794 1.387 4.694 1.803 6.764.832 1.245-.694 1.934-1.803 1.934-3.052-.829-4.855-6.352-6.518-9.527-9.431-1.933-1.387-3.038-3.329-3.038-5.549.14-2.08.967-4.16 2.9-5.27 2.624-1.525 6.214-1.109 8.976-.415.965.139 1.38-.971 2.345-.555.692.416 1.105 3.744 1.52 5.685 0 .417-.554.694-.828.694-.968-.139-1.796-2.08-3.037-2.912-1.245-.694-2.35-1.387-3.867-1.249-1.104.14-2.072.555-2.623 1.526-.414.694-.414 1.525-.276 2.358 2.208 3.607 6.488 5.133 9.526 8.184 2.07 1.94 2.761 4.992 2.209 7.905"/><path id="ep3kd" d="M744.899 3068.53c-3.11-5.957-10.15-6.228-16.238-5.416-2.03.405-4.195.54-5.954 1.76-1.083 1.896 1.893 1.083 2.03 2.573l.134 17.6c-.134.542-.81.948-1.488.948-.541.271-.676.678-.676 1.22.541.81 2.03 1.217 2.164 1.217 5.548 1.219 12.584 2.031 17.322-1.353 5.278-4.333 5.548-12.863 2.706-18.549m-4.594 13.276c-.54 1.49-1.353 3.115-2.707 4.199-1.76 1.355-4.738 1.355-6.768.406-1.083-1.625-.541-3.927-.678-5.824v-13.004c0-.677.27-1.49.95-1.761 1.894-1.084 4.465-.677 6.226.407 4.331 3.792 4.197 10.43 2.977 15.577"/><path id="ep3ke" d="M649.139 3088.946l-.832.55h-17.744c-.554 0-.832-.825-.554-1.375.554-.961 2.356-.275 2.494-1.649v-19.935c-.138-1.65-3.049-.55-2.217-2.612l.693-.275h16.773c1.11.275 1.248 2.474 1.941 3.712 0 .412-.277.687-.554.825-1.248 0-1.803-1.788-2.91-2.2-1.942-.138-4.991-.138-7.349 0-1.386.962-.693 3.024-.83 4.536.137.963-.416 2.337.83 2.75l5.13.137c.416 0 .693.55.832.825.138.827-.14 1.375-.832 1.65l-5.13.276c-1.107.687-.83 2.062-.969 3.161 0 2.2 0 4.812.415 7.012 1.248 1.512 7.486.688 8.04.55 1.802-.137 2.08-3.025 4.02-2.475.417.413.278 1.1.14 1.513z"/><path id="ep3kf" d="M627.978 3089.496h-13.075c-.55-.136-1.24-.271-1.377-.814-.275-.814.55-1.22 1.101-1.356.551 0 .964-.408 1.102-.814v-20.081c-.276-1.356-3.029-.543-2.065-2.442.413-.543 3.58-.271 6.056-.271 1.377 0 4.129-.272 4.129.543 0 .541-.275 1.084-.688 1.22-.826 0-1.653.271-1.927 1.086.138 6.647.138 13.024.138 19.538.275.95 1.513.678 2.34.813 2.476.408 4.266-1.085 5.505-2.85.413-.27.826-.406 1.101-.27.826.542.276 1.357.138 1.9-.688 1.22-.826 3.255-2.478 3.798"/><path id="ep3ka" d="M587.02 3049.26h28.545v41.394H587.02z"/><path id="ep3kh" d="M608.323 3089.511c-4.602 1.675-10.878 1.814-14.783-1.674-4.741-4.324-5.439-11.716-3.348-17.435 1.395-4.324 6.137-6.417 9.624-8.369.14-.279-.279-.419-.418-.419-2.93.419-5.02-2.79-7.81-.697-.698.418-1.256 1.395-2.231.976-.558-.558-.28-1.395 0-1.953.975-1.814 2.788-3.208 4.741-3.626 3.347-.698 5.858 1.254 8.646 2.37.419 0 1.255.14 1.534-.279-.836-.975-2.092-1.254-3.068-2.091-2.37-2.093-5.579-3.626-8.646-2.372-1.535.837-3.068 2.093-3.765 3.766-.419.28-.977.418-1.395.28-.558-.697-.419-1.814-.14-2.511.977-2.231 2.51-5.161 5.16-5.72 4.742-1.812 8.507 1.675 11.714 4.883 1.256 1.813 4.046.418 5.022 2.371.419.977-.14 1.952-.837 2.65-4.602 3.907-12.134 5.72-13.109 12.694-.697 5.44-.558 11.995 4.463 15.203 1.951.837 4.461.837 6.414-.558 4.463-3.766 3.906-10.46 2.93-15.761-.558-2.372-2.372-4.603-4.604-5.998-.279-.558.14-1.256.698-1.534 3.627-.279 6.973 2.231 8.647 5.44 2.51 4.742 2.51 11.996-.697 16.46-1.116 1.672-2.928 3.207-4.742 3.904"/><path id="ep3kb" d="M533 3062.84h56.609v26.213H533z"/><path id="ep3kj" d="M533.87 3062.862h8.743c.41.135.547.678.41 1.086-.82.543-1.912.271-2.323 1.356l.273 1.493c1.914 4.75 3.28 9.771 5.465 14.25.137.271.41.271.547 0 1.23-2.714 2.186-5.7 3.28-8.686-.274-2.443-1.367-4.614-2.187-6.786-.41-1.356-2.733-.678-2.186-2.306l.546-.407h8.334c.273.135.547.407.547.814-.136 1.22-1.64.543-2.05 1.764l.137 1.357c1.777 4.75 2.869 9.636 4.919 14.114.683 0 .683-.815.955-1.222l3.963-13.163c.273-.408 0-.95-.41-1.358-.683-.542-2.46-.406-1.913-1.763l.546-.272h12.705c.547 0 1.23.136 1.23.679 0 1.492-2.05.679-2.322 2.035 0 2.036 0 4.342.137 6.379l.818.541c2.187-.135 4.783 0 6.968 0 .957 0 .547-4.477.684-6.784-.274-1.764-3.005-.408-2.323-2.578l.546-.408h9.153c.547.272.684.95.41 1.494-.683.541-1.913.271-2.185 1.356v20.492c.409 1.22 2.869.408 2.185 2.307l-.683.407-8.606-.136c-.274 0-.682-.135-.82-.543-.137-1.763 2.186-.814 2.323-2.306v-9.907l-.684-.679h-7.378l-.408.813v10.044c.272 1.357 3.005.408 2.048 2.307l-.683.407h-8.743c-.547-.271-.683-.95-.547-1.357.547-.814 1.777-.408 2.187-1.222l.136-2.035v-18.185a.746.746 0 0 0-.41-.679c-.82.136-.82 1.086-1.093 1.63-2.185 6.784-4.371 13.706-6.558 20.626a2.67 2.67 0 0 1-1.228 1.222c-.684 0-1.504 0-2.187-.95-1.775-3.392-2.185-6.92-3.825-10.313 0 0-.41-.679-.683-.271-1.502 3.392-2.459 7.056-3.825 10.448-.547.95-1.64 1.086-2.46.95-1.502-.135-2.048-2.713-2.732-4.478l-1.23-3.257-5.736-15.742c-.41-1.492-3.417-.678-2.46-2.307.273-.407.41-.271.683-.271"/><path id="ep3kk" d="M722.196 3068.582c2.891 4.615 2.616 11.946-.55 16.29-1.24 1.765-3.029 2.85-4.82 3.665-4.818 1.494-11.013 1.222-14.595-2.579-1.376-1.357-2.064-2.986-3.028-4.48-1.238 1.629-1.927 3.666-3.716 5.16-3.718 3.393-10.328 3.529-14.87 1.492-5.37-2.986-7.297-8.824-6.471-14.796.275-1.63.689-3.26 1.515-4.752-.413-.95-1.102-2.172-2.204-2.58-1.928-.407-4.405-.543-6.47-.271-.414.271-.826.679-.826 1.222v5.566l.412.406c1.928.136 4.269-.27 5.92.409.551.406.551 1.22.276 1.628-.689 1.222-3.993.679-5.92.815l-.413.543v9.367c0 .679.137 1.494.963 1.765.55.27 1.377.135 1.79.814.138.814-.55 1.086-1.101 1.222h-8.674c-.275-.136-.55-.272-.689-.68-.275-.542.414-.95.827-1.086.55 0 .964-.27 1.24-.677v-20.5c0-.543-.414-1.086-.965-1.357-.55 0-1.102 0-1.377-.68 0-.407 0-1.086.689-1.086 5.37 0 10.326.136 15.696 0 1.239.408 1.239 1.901 1.928 2.852h.55c3.992-3.937 10.738-4.344 15.557-2.173 2.753 1.358 4.82 4.074 6.057 6.653h.276c1.515-3.937 5.645-7.602 10.05-7.874 5.095-.543 10.327 1.085 12.943 5.702m-29.188 13.568c1.377-4.885 1.377-11.263-2.066-15.062-1.513-1.629-3.855-2.172-6.057-1.629-1.79.679-3.305 2.307-3.994 3.935-1.789 5.292-2.064 12.62 2.617 16.555 1.651 1.086 4.543 1.357 6.332.271 1.653-.814 2.617-2.579 3.168-4.07m25.196-2.572c.55-4.752.413-9.91-3.305-13.033-1.652-1.086-3.993-1.63-5.921-.814-1.927.814-3.304 2.987-3.855 4.751-1.238 5.295-1.651 12.083 3.168 15.612 1.652.95 4.268 1.087 5.919.136 2.478-1.494 3.58-4.072 3.994-6.652"/><path id="ep3kl" d="M756.942 3092.08c8.217.568 8.217 11.93.274 12.923H541.798c-8.218-.426-8.218-11.929-.274-12.78zm-187.746 10.936c0-.427-.686-.427-.686-.853v-7.101c.137-.426.686-.142.686-.568-2.88-1.562-2.88 2.415-4.251 3.551l-.273.142c-1.646-1.136-1.509-4.828-4.387-3.835v.284c.274 0 .137.284.274.568l.137 6.96-.411.568c.548.284 1.507.284 2.193.142 0-.427-.686-.285-.823-.71v-4.971l.274-.426c.96 1.136 1.646 2.557 2.606 3.267.684-.853 1.37-2.131 2.192-3.125l.275.142v4.97c-.137.426-.549.426-.823.568l.137.427zm34.097-.142c.823-.285-.273-.427-.41-.71-.96-2.7-1.783-5.397-2.744-8.097-.274.142-.548-.14-.685.285-.96 2.557-1.645 5.398-2.742 7.953-.137.284-.686 0-.549.569.686.142 1.646.284 2.195-.142 0-.427-.412-.285-.686-.569.137-.284 0-.426.137-.852.137-1.561 1.509-.994 2.468-.994.823 0 .685.71.96 1.136.274.852-.549.994-.686 1.42.137.143 1.783 0 2.742 0zm35.332-.142c-1.509-.853-2.058-2.557-2.88-3.977.685-.426 1.371-.71 1.508-1.562.275-.995 0-2.131-.823-2.7-1.644-.71-3.702-.566-5.21.285-.137.426.41.142.55.568.274 2.273 0 4.404.135 6.675-.136.568-.822.142-.684.71a4.97 4.97 0 0 0 2.879 0c0-.426-.549-.142-.686-.71v-6.675l.411-.568c.55-.426 1.098 0 1.51.284.548.568.41 1.278.41 1.989.138 1.42-1.92.71-1.508 2.13 1.234 1.278 1.234 4.687 4.114 3.693zm27.515-.143c.962.285 2.198.285 3.022 0 0-.284-.55-.284-.686-.71v-6.391c-.138-.568.549-.852.686-1.279h-2.885c-.275.427.413.285.413.569.275 2.13.137 4.828.137 7.243-.137.284-.687.142-.687.568zm7.553-.142c-1.651-.994-2.201-3.123-3.44-4.544l.276-.284c1.1-.995 1.238-2.7 2.613-3.41-.412-.282-2.338-.282-2.613.143l.412.426c-.412 1.42-1.375 2.273-2.063 3.551 1.513 1.42 1.926 5.397 4.815 4.403zm34.498-.568c0-.142 0-.426-.137-.568-.548-.142-.686.852-1.235.852-.136 0-2.331.284-2.605-.142-.138-.852-.275-1.704-.138-2.415 0-.425-.137-.85.275-1.135h1.645c.274-.142.274-.426.274-.568 0-.142-.136-.284-.274-.426h-1.645c-.412-.142-.275-.568-.275-.853 0-.568-.137-1.278.275-1.562.686-.142 1.783-.142 2.332 0 .41.142.549.71.96.71.136 0 .273-.142.136-.284-.137-.426-.273-1.136-.547-1.279h-5.076l-.273.143c-.276.71.686.284.821.852-.136 2.273 0 4.546 0 6.817-.136.426-.684.142-.821.568-.138.143 0 .427.137.427h5.486l.136-.142zm35.194-6.391c.275-.568-.274-1.136-.411-1.561h-5.76l-.275.14c0 .427-.548.995-.274 1.421l.96-.852c.41 0 1.372-.427 1.646.284v6.533c0 .568-.548.568-.823.71-.137.284.136.284.275.284.959 0 2.878.285 2.878-.142.138-.142.138-.142 0-.284-.136 0-.273-.142-.41-.142l-.138-.142-.274-.284v-6.391l.411-.568c.824-.285 1.784.284 2.195.994zm-2.606 5.965s0 .142.137.284l-.137-.142z"/><path id="ep3km" d="M599.682 3098.965h-.932c.266-.862.666-2.462.799-2.585.133.123.665 1.723.931 2.585z"/><path id="ep3kn" d="M762.529 3089.754h.112c.222 0 .446 0 .446-.224 0-.111-.224-.223-.334-.223h-.224zm-.34-.673h.678c.34 0 .451.224.451.449 0 .336-.112.448-.337.448l.451.673h-.34l-.45-.673h-.113v.673h-.34zm-.789.785c0-.674.564-1.236 1.355-1.236.677 0 1.24.562 1.24 1.236 0 .787-.563 1.349-1.24 1.349-.79 0-1.355-.562-1.355-1.349zm.339 0c0 .674.45 1.123 1.016 1.123.563 0 1.015-.45 1.015-1.123 0-.561-.452-1.01-1.015-1.01-.566 0-1.016.449-1.016 1.01z"/><clipPath id="ep3kg"><use xlink:href="#ep3ka"/></clipPath><clipPath id="ep3ki"><use xlink:href="#ep3kb"/></clipPath></defs><g><g opacity=".75" transform="translate(-533 -3062)"><g opacity=".75"><use fill="#6b6b6b" xlink:href="#ep3kc"/></g><g opacity=".75"><use fill="#6b6b6b" xlink:href="#ep3kd"/></g><g opacity=".75"><use fill="#6b6b6b" xlink:href="#ep3ke"/></g><g opacity=".75"><use fill="#6b6b6b" xlink:href="#ep3kf"/></g><g opacity=".75"><g opacity=".75"/><g clip-path="url(#ep3kg)" opacity=".75"><use fill="#6b6b6b" xlink:href="#ep3kh"/></g></g><g opacity=".75"><g opacity=".75"/><g clip-path="url(#ep3ki)" opacity=".75"><use fill="#6b6b6b" xlink:href="#ep3kj"/></g></g><g opacity=".75"><use fill="#6b6b6b" xlink:href="#ep3kk"/></g><g opacity=".75"><use fill="#6b6b6b" xlink:href="#ep3kl"/></g><g opacity=".75"><use fill="#231f20" xlink:href="#ep3km"/></g><g opacity=".75"><use fill="#252728" xlink:href="#ep3kn"/></g></g></g></svg>