<svg xmlns="http://www.w3.org/2000/svg" xmlns:xlink="http://www.w3.org/1999/xlink" width="154" height="50" viewBox="-46 0 44 50"><defs><path id="8sc3b" d="M960.706 3060h-96.003c-13.11 0-23.703 10.476-23.703 23.44 0 12.963 10.593 23.438 23.703 23.438h96.003c12.978 0 23.57-10.475 23.57-23.439 0-12.963-10.592-23.439-23.57-23.439m0 44.783h-96.003c-11.918 0-21.584-9.559-21.584-21.344 0-11.786 9.666-21.344 21.584-21.344h96.003c11.918 0 21.584 9.558 21.584 21.344 0 11.785-9.666 21.344-21.584 21.344"/><path id="8sc3c" d="M952.766 3086.32h-3.046v3.928h1.854c1.588 0 3.84.132 3.972-1.964.133-1.702-1.324-1.964-2.78-1.964"/><path id="8sc3d" d="M953.16 3078.2h-3.31v4.322h3.045c1.854 0 3.444-.393 3.444-2.226.133-1.441-1.59-2.096-3.179-2.096"/><path id="8sc3e" d="M960.709 3064.19c10.726 0 19.465 8.642 19.465 19.25 0 10.606-8.739 19.248-19.465 19.248h-96.003c-10.727 0-19.466-8.642-19.466-19.249s8.74-19.249 19.466-19.249zm-74.144 8.642H876.1l.133 9.564h-6.227l.134-9.564h-10.466l1.326 21.224h8.742l.133-7.468h6.491l.132 7.468h8.875zm3.3 13.88h6.233v-4.32h-6.233zm36.538-13.88h-26.606l.926 21.224h24.488l.397-3.93H909.99v-3.538h11.25l.134-4.192H910.12l.133-3.8h15.751zm3.055 13.88h6.346v-4.32h-6.346zm37.077-8.116c.132-2.096-1.059-5.764-6.885-5.764h-20.128l1.324 21.224h17.48c5.296 0 6.62-2.49 7.017-4.454.398-1.835.53-4.717-3.31-5.111 3.046-.654 4.502-2.488 4.502-5.895z"/><path id="8sc3a" d="M984.43 3099.32h9.043v8.943h-9.043z"/><path id="8sc3g" d="M991.179 3099.897a4.136 4.136 0 0 1 1.689 1.655c.403.716.605 1.464.605 2.242a4.47 4.47 0 0 1-.597 2.222 4.172 4.172 0 0 1-1.671 1.656 4.602 4.602 0 0 1-2.25.592 4.597 4.597 0 0 1-2.25-.592 4.183 4.183 0 0 1-1.676-1.656c-.4-.71-.599-1.45-.599-2.222 0-.778.203-1.526.608-2.242a4.151 4.151 0 0 1 1.693-1.655c.722-.384 1.465-.577 2.224-.577.759 0 1.5.193 2.224.577zm-4.08.648c-.6.322-1.071.783-1.411 1.38a3.73 3.73 0 0 0-.51 1.87c0 .643.17 1.26.502 1.85.333.591.8 1.052 1.399 1.382.6.33 1.223.495 1.876.495.65 0 1.276-.166 1.875-.495.6-.33 1.064-.79 1.396-1.381.33-.592.496-1.208.496-1.852 0-.648-.167-1.27-.505-1.869a3.471 3.471 0 0 0-1.41-1.38 3.903 3.903 0 0 0-1.852-.483c-.637 0-1.254.161-1.856.483zm-.128 5.717v-4.805h1.67c.574 0 .987.043 1.242.131.256.09.458.244.611.465.152.222.228.457.228.705 0 .352-.126.657-.38.918-.254.26-.592.405-1.01.438.171.07.31.156.412.254.197.191.436.508.72.955l.594.939h-.96l-.432-.757c-.34-.595-.611-.968-.82-1.118-.142-.11-.354-.166-.63-.166h-.46v2.041zm.785-2.71h.954c.453 0 .765-.068.93-.2a.651.651 0 0 0 .25-.53.642.642 0 0 0-.122-.381.71.71 0 0 0-.33-.25c-.143-.055-.406-.082-.79-.082h-.892z"/><clipPath id="8sc3f"><use xlink:href="#8sc3a"/></clipPath></defs><g><g opacity=".75" transform="translate(-941 -3060)"><g opacity=".75"><use fill="#6b6b6b" xlink:href="#8sc3b"/></g><g opacity=".75"><use fill="#6b6b6b" xlink:href="#8sc3c"/></g><g opacity=".75"><use fill="#6b6b6b" xlink:href="#8sc3d"/></g><g opacity=".75"><use fill="#6b6b6b" xlink:href="#8sc3e"/></g><g opacity=".75"><g opacity=".75"/><g clip-path="url(#8sc3f)" opacity=".75"><use fill="#6b6b6b" xlink:href="#8sc3g"/></g></g></g></g></svg>