<svg xmlns="http://www.w3.org/2000/svg" xmlns:xlink="http://www.w3.org/1999/xlink" width="190" height="62" viewBox="-5 -2 142 62"><defs><path id="oiquf" d="M447.55 3105.651c-.145.05-4.823.726-6.31.05-1.485-.659-1.74-2.112-.198-2.72 1.54-.592 1.54.37 1.685-1.269.127-1.622-.072-5.966-.072-5.966l-2.066-1.267c-.091-.068-1.179-1.471.254-1.995 1.45-.54 3.48-.608 4.586-.304 1.088.304 1.359 1.504 1.359 1.504l2.375-1.15s2.23-.575 3.68.61c1.432 1.182 1.306 2.28.835 3.075-.472.795-.871 2.248-1.487 2.789-.616.524-2.067-.254-2.067-.254s-.562-.827-.38-1.876c.2-1.03-.2-1.267 0-1.318.2-.067-.254-.913-.907 0-.635.896-2.248 3.684-2.05 6.575.708.304 1.56.743 1.996 1.15.435.422 1.015.793.507 1.385-.417.507-1.033.71-1.74.981"/><path id="oiqug" d="M422.143 3102.168c.206-.07 1.27-.617 1.699.528.429 1.146-.12 1.992-.394 2.273-.293.3-3.329 2.342-4.805 1.99-1.475-.351-4.307-1.69-4.358-4.896-.052-3.205 0-4.845 0-4.845l-1.183.054s-1.975-.882-2.094-2.15c-.104-1.286.79-1.41 1.527-1.41.738 0 1.356-.281 1.356-.281s.909-.422.909-1.11c0-.704.222-3.276.222-3.276s.516-1.567 2.197-.863c1.7.687 1.768.634 1.7 1.692-.053 1.039 0 1.796 0 2.095 0 .282-.173.705.736.705.91 0 1.7-.353 2.437.229.738.582 1.527 1.11 1.303 1.92-.24.81-.342.987-1.029 1.162-.669.177-2.659.582-2.659.582s-1.013-.177-1.115 1.004c-.12 1.163-.344 4.42-.344 4.42s.223 1.816 1.46 1.34c.909-.283 1.492-.828 2.435-1.163"/><path id="oiquh" d="M377.317 3106.482s-6.841 1.04-8.09.174c-1.232-.85-2.216-2.374-.37-3.05 1.865-.675 1.918-.38 1.918-2.511 0-2.148.298-10.464.298-10.464s.246-1.403-.79-1.282c-1.056.121-2.288.173-2.534 1.04-.246.849-.229 1.888-.491 2.632-.265.729-3.044 2.045-3.22-.865-.175-2.91.317-4.037.317-4.643 0-.624.545-1.715 2.04-1.663 1.478.07 14.387-.849 14.387-.849s2.04-.122 2.093 2.269c.07 2.374.07 3.88.123 4.712.07.815-1.547 2.34-2.726 1.161-1.16-1.178-1.372-2.217-1.353-2.703.016-.485-.23-1.714-1.672-1.281-1.442.433-1.477 1.35-1.477 2.564 0 1.23-.493 9.007-.493 9.007s-.37 1.456.985 2.08c1.354.606 2.287 1.04 2.163 2.2-.122 1.16-.44 1.403-1.108 1.472"/><path id="oiqua" d="M439.33 3067.38h15.422v14.386H439.33z"/><path id="oiquj" d="M449.018 3081.766c-1.683.017-7.064-.746-8.694-1.864-1.63-1.102-1.174-2.728.772-2.373 1.962.356 5.591 1.407 7.414 1.017 1.472-.321-2.77-1.372-3.506-1.711-.719-.356-4.311-1.542-4.715-3.576-.42-2.032 1.719-3.354 2.489-4.015.77-.661 3.068-1.763 4.557-1.763 1.472 0 2.735.272 3.856.61 1.087.339.229-.694 1.367-.711 1.14 0 1.77.491 1.999 1.897.226 1.424.016 4.287-1.14 5.084-1.157.813-1.717.102-2.314-.746-.612-.864-.368-2.304-.42-2.304-.053 0 .245-.627-.771-.83-1.017-.203-3.892 1-4.452 1.711-.543.729-.543.796 0 .983.544.17 6.958 2.508 8.325 3.693 1.367 1.186 1.227 2.237-.053 3.135-1.261.882-2.891 1.745-4.714 1.763"/><path id="oiquk" d="M433 3064.393s.056-2.393 2.426-2.393c2.352 0 2.518 1.454 2.573 2.163.037.709-1.122 2.872-1.892 2.837-.791-.053-2.317-.727-2.574-1.047-.349-.372-.496-1.046-.533-1.56"/><path id="oiqul" d="M437.45 3082h-5.039s-1.78-.328-1.905-1.723c-.106-1.394.641-1.068 1.103-1.394.446-.328 1.087-.312 1.087-1.57v-4.546s-2.865-.775-2.688-1.998c.16-1.24 1.086-1.396 1.656-1.516.569-.104 3.258-.448 4.289-.104 1.033.328 1.105.828 1.105 1.895 0 1.051-.25 6.287-.25 6.287s-.16.93.641 1.378c.8.45 1.603.5 1.548 1.792-.052 1.275-1.085 1.447-1.548 1.499"/><path id="oiqum" d="M425.107 3078.225c.56-.235 1.49 1.711-.372 2.18-1.863.47-5.47.94-6.554.236-1.1-.705-1.388-2.13-.203-2.651 1.202-.52 1.474-.1 1.474-1.71v-4.849s-.187-.62-1.034-1.141c-.863-.52-2.624-1.794-.152-2.785 2.472-1.006 3.86-.285 4.369.235.525.52.729.89.729.89l2.032-.99c.067-.034 1.455-.689 3.149.385 1.694 1.074 1.506 1.459 1.372 2.684-.136 1.241-1.253 3.44-1.473 3.322-.22-.118-1.186 1.275-2.05-.285-.846-1.56-.371-2.785-.371-2.785s-.289-1.241-1.052-.252c-.761 1.006-1.896 4.413-1.71 5.436.187 1.04.373 1.459.949 1.61.575.135.897.47.897.47"/><path id="oiqun" d="M411.11 3078.225c.56-.235 1.473 1.711-.372 2.18-1.864.47-5.471.94-6.572.236-1.085-.705-1.372-2.13-.187-2.651 1.186-.52 1.473-.1 1.473-1.71v-4.849s-.185-.62-1.05-1.141c-.846-.52-2.607-1.794-.135-2.785 2.473-1.006 3.845-.285 4.37.235.525.52.711.89.711.89l2.05-.99c.068-.034 1.44-.689 3.133.385 1.694 1.074 1.524 1.459 1.39 2.684-.153 1.241-1.254 3.44-1.474 3.322-.237-.118-1.203 1.275-2.05-.285-.864-1.56-.39-2.785-.39-2.785s-.27-1.241-1.033-.252c-.762 1.006-1.915 4.413-1.71 5.436.186 1.04.373 1.459.948 1.61.56.135.898.47.898.47"/><path id="oiquo" d="M371.737 3081.69a14.541 14.541 0 0 1-6.608-.149c-1.34-.348-1.622-2.47-.107-2.571.688-.05 1.323-.464 1.358-1.543l.282-10.532c.036-1.11-.564-1.708-1.498-2.089-1.498-.597-1.322-2.007 0-2.554 2.573-1.03 5.093-.93 7.437-.134 1.233.433 1.622 2.323.283 2.488-.9.117-1.852.681-1.886 1.958l-.16 3.151c-.035.83.3 1.493.918 1.477l7.314-.2c.95-.033 1.267-.846 1.267-1.476l.072-3.3c.035-1.36-.336-1.642-1.199-1.875-1.392-.364-1.551-2.736.212-3.018 2.185-.365 4.405-.465 6.396-.067 1.728.332 1.305 2.82.353 2.886-.722.05-1.287.283-1.427 2.422l-.635 9.87c-.07.894.477 1.425.987 1.526.934.181 2.15 2.055-.212 2.95-1.32.498-3.417.233-5.814.333-1.517.066-2.416-2.92-.636-3.217.565-.101 1.551.05 1.551-1.477v-.929c0-.68-.405-1.028-1.127-1.012l-6.61.282c-.81.033-1.603.946-1.55 1.725.105 1.161.616 1.708.986 1.808 1.604.48 2.362 2.804.053 3.268"/><path id="oiqup" d="M326.258 3081.865c-3.51 3.653-7.02 7.289-10.53 10.925-.243-.751-.485-1.52-.728-2.29 4.808-6.136 6.14-15.994 5.534-24 .847-.84 1.712-1.66 2.559-2.5.536 4.527 2.369 8.67 5.637 12.377-2.714-.018-4.6-1.749-5.948-4.266-.57 4.684-1.746 9.212-3.683 13.617 2.006-1.748 3.942-3.566 6.035-5.21.795-.61 1.59-.593 1.85 0 1.919 4.65 7.21 8.793 12.173 8.742 7.989-.088 12.364-7.902 18.018-12.36-4.185-5.383-7.228-9.037-12.484-9.473-5.015-.42-9.823 4.072-13.816 7.288-.9.718-1.591.036-.917-.838 2.905-3.759 7.92-9.265 15.355-9.667 7.435-.402 9.546 6.852 13.505 11.852.346.436.156 1.24-.208 1.642-4.652 5.769-9.717 15.33-18.121 15.296-7.487-.018-12.036-5.856-14.231-11.135"/><path id="oiquq" d="M348.008 3072c.539 0 .992.453.992.993 0 .555-.453 1.007-.992 1.007a1.01 1.01 0 0 1-1.008-1.007c0-.54.453-.993 1.008-.993"/><path id="oiqur" d="M311.036 3070.868c.486.911-.504 1.508-1.315.859-3.941-3.12-5.453-6.696-4.391-10.396.791-2.787 4.104-5.4 7.02-5.33 1.854.036 3.06 1.561 4.21 2.753.758.772.506 2.156-.52 1.28-1.945-1.648-4.572-1.858-5.706-.07-1.98 3.085-1.404 6.977.702 10.904"/><path id="oiqus" d="M335.055 3068.683c-1.615 1.433-2.945 2.971-4.01 4.317.656-2.814 1.597-5.592 1.774-8.459.249-3.721-.355-7.95-4.49-8.824-3.122-.664-5.784 2.01-7.452 4.282-.461.629-1.1 1.118-1.899.507-1.632-1.242-2.306-3.495-1.827-5.645.425-1.888 1.153-3.862 2.005-5.75.833-1.887 1.863-1.1 1.633.35-.284 1.87-1.314 3.338-1.562 5.05-.143 1.102 1.065 2.097 1.738 1.206 1.598-2.114 5.325-3.792 7.969-3.512 3.78.367 6.103 3.862 6.83 7.618.57 2.919.019 5.925-.709 8.86"/><path id="oiqut" d="M314.028 3051.897c1.328.896 1.017 2.744-.853 3.037-2.1.312-2.92-.512-4.018-1.793-.476-.549-1.838-2.379-.74-4.135.395-.622.805-1.354 1.149-2.159.443-.989 1.707-1.153 2.33-.275 1.098 1.556 2.492 2.873 3.821 4.135.59.586.197 1.099-.623.88-2.838-.807-3.772-1.446-4.839-2.801-.049 2.415 1.148 1.355 3.773 3.11"/><path id="oiqub" d="M287 3062.47h45.916v42.498H287z"/><path id="oiquv" d="M320.545 3087.064c.467-.484.936-.968 1.403-1.434 1.437.173 2.788.657 3.775 1.572 3.794 3.438 6.375 8.534 7.172 13.58.294 1.985-2.477 4.61-4.435 4.127-7.413-1.865-14.497-5.614-20.473-10.382-5.405-4.302-10.912-9.294-15.502-14.942-3.032-3.715-5.681-8.5-5.474-13.303.105-2.35 3.69-4.232 5.994-3.73 3.965.88 6.893 2.52 9.942 4.421 1.16.743 1.23 1.936-.607 1.227-3.325-1.279-6.6-3.093-10.27-2.901-1.907.102-2.963 2.383-1.907 5.354 2.772 7.774 10.306 13.06 16.525 18.536 5.698 5.01 12.211 9.172 18.966 12.663 3.378 1.744 5.387-.795 4.85-3.662-.796-4.181-3.447-8-6.842-10.573-.64-.5-1.835-.622-3.117-.553"/><path id="oiquw" d="M316.805 3086.275c-.244.584-.52 1.166-.811 1.699-1.776.24-2.358-1.184-1.776-3.088.567-1.869 2.388-1.971 3.782-1.852-.107.378-.23.755-.367 1.132-.674-.016-1.333-.051-1.808.412-.873.84-.596 2.332.674 1.818.107-.034.215-.069.306-.12"/><path id="oiqux" d="M319 3081.043c-.138.538-.293 1.078-.446 1.618-.361-.504-.928-1.061-1.34-1.134-2.747-.467-5.305.9-7.692 1.205-2.266.271-5.802.827-6.73-1.367-.772-1.87 2.695-3.22 4.533-3.884 1.648-.594 3.537-.18 5.22.324 1.63.467 1.82-.611.222-1.422-3.261-1.635-6.867-2.23-10.73-1.437-1.614.34-3.056 1.402-4.67 1.762-2.49.54-4.481-2.428-2.661-4.461 2.438-2.734 6.575-3.489 10.13-3.184.823.073 1.166 1.89.154 1.763-2.37-.306-5.408.18-7.554 1.906-1.254.99-.327 2.483 1.51 1.511 3.022-1.6 5.014-1.277 8.397-1.384 1.167-.037 3.913.45 4.961.989 1.03.503 1.94 1.079 2.884 1.907 1.408 1.223 1.442 3.794-.618 3.399-1.528-.306-3.725.143-6.026-.09-1.63-.162-4 .719-2.73 1.907 1.219 1.15 3.28.017 4.91-.162 2.233-.216 4.585-1.926 6.645-1.026.549.234 1.133.701 1.631 1.26"/><path id="oiquy" d="M319 3084c.276-.661.535-1.34.76-2 .363.8.363 1.53-.345 1.86a3.688 3.688 0 0 1-.415.14"/><path id="oiquc" d="M425.14 3091.32h15.576v16.176H425.14z"/><path id="oiquA" d="M438.096 3102.313c-.578.435-7.028 2.712-8.851 1.013-1.823-1.7.123-1.32.123-1.32l8.816-1.066c1.314-.072 1.963-.85 2.085-1.392.14-.56.877-2.548.088-4.771-.788-2.205-3.364-3.995-6.8-3.308-3.453.687-7.676 3.434-8.325 8.116-.666 4.68 2.384 7.048 5.696 7.77 3.313.742 8.15-1.68 8.535-1.951.368-.271 1.139-1.066.982-2.241-.176-1.193-1.752-1.301-2.349-.85m-2.856-7.663c1.507-.126 1.804 1.103 1.384 2.097-.228.542-1.05.777-1.63.849l-4.645.506c1.228-1.7 2.928-3.271 4.89-3.452"/><path id="oiqud" d="M396 3091.32h15.573v16.176H396z"/><path id="oiquC" d="M408.97 3102.313c-.596.435-7.028 2.712-8.87 1.013-1.822-1.7.124-1.32.124-1.32l8.815-1.066c1.315-.072 1.964-.85 2.104-1.392.123-.56.859-2.548.07-4.771-.789-2.205-3.348-3.995-6.8-3.308-3.453.687-7.676 3.434-8.325 8.116-.649 4.68 2.384 7.048 5.696 7.77 3.33.742 8.167-1.68 8.535-1.951.368-.271 1.139-1.066.982-2.241-.158-1.193-1.752-1.301-2.331-.85m-2.876-7.663c1.506-.126 1.822 1.103 1.384 2.097-.229.542-1.051.777-1.629.849l-4.622.506c1.208-1.7 2.907-3.271 4.867-3.452"/><path id="oique" d="M380.24 3091.32h15.576v16.176H380.24z"/><path id="oiquE" d="M393.196 3102.313c-.578.435-7.028 2.712-8.851 1.013-1.822-1.7.123-1.32.123-1.32l8.815-1.066c1.316-.072 1.964-.85 2.086-1.392.14-.56.877-2.548.089-4.771-.79-2.205-3.365-3.995-6.8-3.308-3.454.687-7.677 3.434-8.326 8.116-.666 4.68 2.384 7.048 5.696 7.77 3.313.742 8.15-1.68 8.535-1.951.368-.271 1.139-1.066.982-2.241-.176-1.193-1.752-1.301-2.349-.85m-2.855-7.663c1.509-.126 1.807 1.103 1.386 2.097-.229.542-1.053.777-1.632.849l-4.649.506c1.229-1.7 2.93-3.271 4.895-3.452"/><path id="oiquF" d="M403.48 3078.97s-.36-.32-1.204-.558c-.842-.237-.618-.746-.618-.746s-.086-.373.05-1.591c.138-1.255.843-5.015-1.872-7.692-2.716-2.694-6.825-.983-10.143 1.152-3.334 2.134-.946 3.286-.378 3.608.55.322 2.218-.237 3.558-1.524 1.324-1.288 3.37-1.576 4.057-1.39 1.204.322 1.032.966.894 2.185-2.2.052-9.506 1.085-10.76 5.625-.585 2.135 2.99 3.643 5.655 3.575 1.667-.051 3.197-.305 4.641-.83.843 1.44 3.937 1.507 5.466.694 1.65-.898 1.255-2.287.654-2.507m-5.88-1.78c-.601.39-4.073 1.136-4.59 1.102-.635-.017-.79-.017.053-.728.635-.543 4.022-1.288 4.16-1.204.257.17 1.22.272.378.83"/><clipPath id="oiqui"><use xlink:href="#oiqua"/></clipPath><clipPath id="oiquu"><use xlink:href="#oiqub"/></clipPath><clipPath id="oiquz"><use xlink:href="#oiquc"/></clipPath><clipPath id="oiquB"><use xlink:href="#oiqud"/></clipPath><clipPath id="oiquD"><use xlink:href="#oique"/></clipPath></defs><g><g opacity=".75" transform="translate(-310 -3047)"><g opacity=".75"><use fill="#6b6b6b" xlink:href="#oiquf"/></g><g opacity=".75"><use fill="#6b6b6b" xlink:href="#oiqug"/></g><g opacity=".75"><use fill="#6b6b6b" xlink:href="#oiquh"/></g><g opacity=".75"><g opacity=".75"/><g clip-path="url(#oiqui)" opacity=".75"><use fill="#6b6b6b" xlink:href="#oiquj"/></g></g><g opacity=".75"><use fill="#6b6b6b" xlink:href="#oiquk"/></g><g opacity=".75"><use fill="#6b6b6b" xlink:href="#oiqul"/></g><g opacity=".75"><use fill="#6b6b6b" xlink:href="#oiqum"/></g><g opacity=".75"><use fill="#6b6b6b" xlink:href="#oiqun"/></g><g opacity=".75"><use fill="#6b6b6b" xlink:href="#oiquo"/></g><g opacity=".75"><use fill="#6b6b6b" xlink:href="#oiqup"/></g><g opacity=".75"><use fill="#6b6b6b" xlink:href="#oiquq"/></g><g opacity=".75"><use fill="#6b6b6b" xlink:href="#oiqur"/></g><g opacity=".75"><use fill="#6b6b6b" xlink:href="#oiqus"/></g><g opacity=".75"><use fill="#6b6b6b" xlink:href="#oiqut"/></g><g opacity=".75"><g opacity=".75"/><g clip-path="url(#oiquu)" opacity=".75"><use fill="#6b6b6b" xlink:href="#oiquv"/></g></g><g opacity=".75"><use fill="#6b6b6b" xlink:href="#oiquw"/></g><g opacity=".75"><use fill="#6b6b6b" xlink:href="#oiqux"/></g><g opacity=".75"><use fill="#6b6b6b" xlink:href="#oiquy"/></g><g opacity=".75"><g opacity=".75"/><g clip-path="url(#oiquz)" opacity=".75"><use fill="#6b6b6b" xlink:href="#oiquA"/></g></g><g opacity=".75"><g opacity=".75"/><g clip-path="url(#oiquB)" opacity=".75"><use fill="#6b6b6b" xlink:href="#oiquC"/></g></g><g opacity=".75"><g opacity=".75"/><g clip-path="url(#oiquD)" opacity=".75"><use fill="#6b6b6b" xlink:href="#oiquE"/></g></g><g opacity=".75"><use fill="#6b6b6b" xlink:href="#oiquF"/></g></g></g></svg>