<svg xmlns="http://www.w3.org/2000/svg" xmlns:xlink="http://www.w3.org/1999/xlink" width="96" height="63" viewBox="0 0 96 63"><defs><path id="vy7ta" d="M599.447 644.373l-5.447-3.56L610.867 615l5.447 3.56z"/><path id="vy7tb" d="M680.867 643.373l5.447-3.56L669.447 614 664 617.56z"/><path id="vy7tc" d="M648 648l17 10c2 1 3-1 3-1s3-4 3-5-1-2-1-2c0-.85-6.794-4.303-7.727-4.893l-8.077-5.116-8.077-5.116c-1.692-1.072-4.703-3.842-6.603-3.633-2.303.253-5.518 2.759-7.583 3.792L626 638s-5.997 3.994-6-2c.001-2.274 5.027-7.466 6.462-9.196 2.184-2.637 4.96-4.804 8.538-4.804h15c2.535.634 4.928 1.871 7.534 2.221 2.993.403 4.92-.945 7.466-2.221"/><path id="vy7td" d="M645 656l12 7c.75.375 1.5.328 2.145.123 1.032-.328 1.853-1.119 2.291-2.009l1.517-3.036"/><path id="vy7te" d="M642 664.422l8.5 4.5c.75.375 1.5.328 2.145.123 1.032-.328 1.853-1.119 2.291-2.009l1.517-3.036"/><path id="vy7tf" d="M670 650.167l8.333-8.167"/><path id="vy7tg" d="M615 621l3.333 1.667s3.333 1.333 9.667 1.166"/><path id="vy7th" d="M602 641l7.167 10.167"/><path id="vy7ti" d="M607.25 660.017l-.031-.023a2.982 2.982 0 0 1-.643-4.166l4.11-5.61a2.98 2.98 0 0 1 4.166-.641l.032.023a2.981 2.981 0 0 1 .642 4.166l-4.11 5.608a2.98 2.98 0 0 1-4.165.643z"/><path id="vy7tj" d="M625.228 671.997a2.999 2.999 0 0 1-.647-4.193l4.086-5.577a3.001 3.001 0 0 1 4.84 3.546l-4.087 5.577a3 3 0 0 1-4.192.647z"/><path id="vy7tk" d="M611.698 666.91l-.209-.152a3.64 3.64 0 0 1-.784-5.09l7.46-10.178a3.642 3.642 0 0 1 5.088-.786l.21.153a3.642 3.642 0 0 1 .783 5.09l-7.459 10.179a3.64 3.64 0 0 1-5.089.785z"/><path id="vy7tl" d="M618.517 669.071a3.71 3.71 0 0 1-.8-5.185l6.132-8.369a3.711 3.711 0 0 1 5.985 4.386l-6.132 8.368a3.71 3.71 0 0 1-5.185.8z"/><path id="vy7tm" d="M633 670.75l13.25 2.25s3 0 5-4"/></defs><g><g transform="translate(-592 -612)"><g><use fill="#fff" fill-opacity="0" stroke="#194f6e" stroke-linecap="round" stroke-linejoin="round" stroke-miterlimit="50" stroke-width="3" xlink:href="#vy7ta"/></g><g><use fill="#fff" fill-opacity="0" stroke="#194f6e" stroke-linecap="round" stroke-linejoin="round" stroke-miterlimit="50" stroke-width="3" xlink:href="#vy7tb"/></g><g><use fill="#fff" fill-opacity="0" stroke="#194f6e" stroke-linecap="round" stroke-linejoin="round" stroke-miterlimit="50" stroke-width="3" xlink:href="#vy7tc"/></g><g><use fill="#fff" fill-opacity="0" stroke="#194f6e" stroke-linecap="round" stroke-linejoin="round" stroke-miterlimit="50" stroke-width="3" xlink:href="#vy7td"/></g><g><use fill="#fff" fill-opacity="0" stroke="#194f6e" stroke-linecap="round" stroke-linejoin="round" stroke-miterlimit="50" stroke-width="3" xlink:href="#vy7te"/></g><g><use fill="#fff" fill-opacity="0" stroke="#194f6e" stroke-linecap="round" stroke-linejoin="round" stroke-miterlimit="50" stroke-width="3" xlink:href="#vy7tf"/></g><g><use fill="#fff" fill-opacity="0" stroke="#194f6e" stroke-linecap="round" stroke-linejoin="round" stroke-miterlimit="50" stroke-width="3" xlink:href="#vy7tg"/></g><g><use fill="#fff" fill-opacity="0" stroke="#194f6e" stroke-linecap="round" stroke-linejoin="round" stroke-miterlimit="50" stroke-width="3" xlink:href="#vy7th"/></g><g><use fill="#fff" fill-opacity="0" stroke="#194f6e" stroke-linecap="round" stroke-linejoin="round" stroke-miterlimit="50" stroke-width="3" xlink:href="#vy7ti"/></g><g><use fill="#fff" fill-opacity="0" stroke="#194f6e" stroke-linecap="round" stroke-linejoin="round" stroke-miterlimit="50" stroke-width="3" xlink:href="#vy7tj"/></g><g><use fill="#fff" fill-opacity="0" stroke="#194f6e" stroke-linecap="round" stroke-linejoin="round" stroke-miterlimit="50" stroke-width="3" xlink:href="#vy7tk"/></g><g><use fill="#fff" fill-opacity="0" stroke="#194f6e" stroke-linecap="round" stroke-linejoin="round" stroke-miterlimit="50" stroke-width="3" xlink:href="#vy7tl"/></g><g><use fill="#fff" fill-opacity="0" stroke="#194f6e" stroke-linecap="round" stroke-linejoin="round" stroke-miterlimit="50" stroke-width="3" xlink:href="#vy7tm"/></g></g></g></svg>