<svg xmlns="http://www.w3.org/2000/svg" xmlns:xlink="http://www.w3.org/1999/xlink" width="60" height="65" viewBox="0 0 60 65"><defs><path id="e9gpa" d="M977.573 642.334c2.138-3.029 3.393-6.689 3.393-10.637 0-10.426-8.722-18.877-19.484-18.877-10.761 0-19.482 8.451-19.482 18.877 0 3.908 1.227 7.542 3.327 10.554l16.013 24.523z"/><path id="e9gpb" d="M969.265 635.053a8.166 8.166 0 0 1-9.162 7.032 8.166 8.166 0 0 1-7.032-9.161 8.166 8.166 0 1 1 16.194 2.129z"/><path id="e9gpc" d="M976.723 657.845c7.97 1.586 13.277 4.422 13.277 7.657 0 4.97-12.535 9-28 9-15.464 0-28-4.03-28-9 0-3.252 5.366-6.101 13.406-7.682"/></defs><g><g transform="translate(-932 -611)"><g><g><use fill="#fff" fill-opacity="0" stroke="#194f6e" stroke-linecap="round" stroke-linejoin="round" stroke-miterlimit="50" stroke-width="3" xlink:href="#e9gpa"/></g><g><use fill="#fff" fill-opacity="0" stroke="#194f6e" stroke-miterlimit="50" stroke-width="3" xlink:href="#e9gpb"/></g><g><use fill="#fff" fill-opacity="0" stroke="#194f6e" stroke-linecap="round" stroke-linejoin="round" stroke-miterlimit="50" stroke-width="3" xlink:href="#e9gpc"/></g></g></g></g></svg>