<svg xmlns="http://www.w3.org/2000/svg" xmlns:xlink="http://www.w3.org/1999/xlink" width="18" height="14" viewBox="0 0 18 14"><defs><path id="6fjba" d="M1089.505 4199.584a4.175 4.175 0 0 0 1.893-2.282 8.846 8.846 0 0 1-2.733 1 4.386 4.386 0 0 0-3.142-1.302c-2.376 0-4.303 1.847-4.303 4.126 0 .323.038.638.111.94-3.577-.172-6.748-1.815-8.87-4.31a3.977 3.977 0 0 0-.583 2.073c0 1.432.76 2.694 1.914 3.434a4.428 4.428 0 0 1-1.949-.516v.052c0 2 1.483 3.667 3.452 4.046a4.488 4.488 0 0 1-1.944.07c.548 1.64 2.137 2.832 4.02 2.866a8.874 8.874 0 0 1-5.344 1.766c-.348 0-.69-.02-1.027-.058a12.565 12.565 0 0 0 6.597 1.854c7.916 0 12.245-6.287 12.245-11.739 0-.179-.004-.357-.012-.534a8.552 8.552 0 0 0 2.147-2.135 8.895 8.895 0 0 1-2.471.65z"/></defs><g><g transform="translate(-1074 -4200)"><use fill="#fff" xlink:href="#6fjba"/></g></g></svg>