<svg xmlns="http://www.w3.org/2000/svg" xmlns:xlink="http://www.w3.org/1999/xlink" width="22" height="16" viewBox="0 0 22 16"><defs><path id="1j34a" d="M1140.155 4197c1.902.004 4.418.028 6.276.203 1.485.14 1.856.363 2.247.721 1.012.926 1.238 3.434 1.271 5.929.007.537.007 1.075 0 1.612-.033 2.495-.26 5.003-1.271 5.93-.391.357-.762.581-2.247.72-1.858.175-4.374.2-6.276.202h-2.356c-1.902-.003-4.418-.027-6.276-.202-1.484-.139-1.856-.363-2.246-.72-1.021-.935-1.242-3.478-1.273-5.994a62.342 62.342 0 0 1 0-1.42c.027-2.536.243-5.115 1.273-6.057.39-.358.762-.582 2.246-.721 1.858-.175 4.374-.199 6.277-.202h2.355"/><path id="1j34b" d="M1137.58 4200.68v7.78l4.821-4.01z"/></defs><g><g transform="translate(-1128 -4197)"><g><g><use fill="#fff" xlink:href="#1j34a"/></g></g><g><use fill="#565656" xlink:href="#1j34b"/></g></g></g></svg>