<svg xmlns="http://www.w3.org/2000/svg" width="20" height="20" viewBox="0 0 20 20"><g><g><path fill="#fff" d="M19.622 12.604a9.853 9.853 0 0 1-2.12 3.969l-2.82-2.819a6.065 6.065 0 0 1 4.94-1.15zm-3.046 4.916a10.265 10.265 0 0 1-3.993 2.142 6.088 6.088 0 0 1 1.15-4.96zm.948-14.07a9.94 9.94 0 0 1 2.391 7.87c-2.21-.452-4.444.09-6.159 1.51l-2.82-2.819zM8.703.09C9.13.023 9.56 0 9.989 0c2.459 0 4.76.88 6.587 2.48L9.99 9.064l-2.82-2.796A7.337 7.337 0 0 0 8.703.09zM.356 7.41a9.905 9.905 0 0 1 2.12-3.982l2.82 2.834A6.057 6.057 0 0 1 .356 7.41zM6.22 5.32l-2.82-2.818A10.265 10.265 0 0 1 7.394.36a6.019 6.019 0 0 1-1.173 4.96zm5.054 14.589a8.22 8.22 0 0 1-1.286.09A9.92 9.92 0 0 1 3.4 17.52l6.588-6.562 2.82 2.796a7.308 7.308 0 0 0-1.534 6.156zm-8.799-3.315A9.94 9.94 0 0 1 .085 8.726a6.887 6.887 0 0 0 1.511.158 7.293 7.293 0 0 0 4.648-1.669l2.797 2.796z"/></g></g></svg>