<?xml version="1.0" encoding="utf-8"?>
<!-- Generator: Adobe Illustrator 19.0.1, SVG Export Plug-In . SVG Version: 6.00 Build 0)  -->
<svg version="1.1" id="Слой_1" xmlns="http://www.w3.org/2000/svg" xmlns:xlink="http://www.w3.org/1999/xlink" x="0px" y="0px"
	 viewBox="0 0 595.3 573.1" style="enable-background:new 0 0 595.3 573.1;" xml:space="preserve">
<style type="text/css">
	.st0{fill:transparent;}
</style>
<g>
	<path class="st0"  d="M1,531.9C1,354.6,1,177.3,1,0c94.2,0,188.4,0,282.5,0c-4.5,0.8-9.1,1.7-13.6,2.4
		c-92.7,15.8-154.8,103.1-139.1,195.6c19.6,116.1,148.4,177.4,250.8,119.2c4.7-2.7,8.4-3.1,13.4-1c81,35.4,131.8,96.2,152.1,182.2
		c2.4,10.3,3.4,21,5.1,31.7c-170,0-338.6,0-507.5,0c0.1-2.8,0.1-5.2,0.4-7.6c8.3-64.3,36.3-118.4,84.6-161.8c10-9,11.3-22,3.2-31.1
		c-8.4-9.4-21-10-31.2-0.8C51.4,373.8,19.6,429.3,6.4,495.4C4,507.4,2.8,519.7,1,531.9z"/>
	<path fill="#fff" d="M1,531.9c1.8-12.2,3-24.5,5.4-36.6c13.1-66.1,45-121.6,95.2-166.5c10.2-9.1,22.8-8.6,31.2,0.8c8.1,9.1,6.7,22.2-3.2,31.1
		c-48.3,43.4-76.2,97.5-84.6,161.8c-0.3,2.4-0.3,4.8-0.4,7.6c168.9,0,337.5,0,507.5,0c-1.7-10.7-2.6-21.4-5.1-31.7
		c-20.4-86-71.1-146.8-152.1-182.2c-5-2.2-8.8-1.7-13.4,1c-102.4,58.2-231.1-3.1-250.8-119.2C115.2,105.5,177.2,18.3,269.9,2.4
		c4.5-0.8,9.1-1.6,13.6-2.4c9.7,0,19.5,0,29.2,0c4.5,0.8,9.1,1.7,13.6,2.4c128.6,21.9,185.5,173.5,103,274.6
		c-1.5,1.8-2.9,3.7-4.3,5.5c0.8,0.7,1.1,1.1,1.4,1.3c1.4,0.7,2.7,1.4,4.1,2.1c86.7,45.2,140.1,115.5,159.5,211.4
		c2.3,11.4,3.5,23,5.2,34.6c0,8.4,0,16.8,0,25.2c-3.1,7.5-8.4,12.8-15.9,15.9c-187.5,0-375,0-562.4,0C9.4,570,4.1,564.7,1,557.1
		C1,548.7,1,540.3,1,531.9z M298.7,42.4C228.5,42.3,171,99.2,170.8,169.2c-0.2,70.2,56.8,127.7,126.8,127.9
		c70.1,0.2,127.7-56.8,127.9-126.8C425.7,100.2,368.7,42.6,298.7,42.4z"/>
	<path class="st0" d="M595.3,531.9c-1.7-11.5-2.9-23.2-5.2-34.6c-19.4-95.9-72.8-166.2-159.5-211.4c-1.4-0.7-2.8-1.4-4.1-2.1
		c-0.4-0.2-0.6-0.6-1.4-1.3c1.4-1.8,2.9-3.7,4.3-5.5c82.4-101.1,25.5-252.7-103-274.6c-4.5-0.8-9.1-1.6-13.6-2.4
		c94.1,0,188.2,0,282.5,0C595.3,177.3,595.3,354.6,595.3,531.9z"/>
	<path class="st0" d="M1,557.1c3.1,7.6,8.4,12.8,15.9,15.9c-5.3,0-10.6,0-15.9,0C1,567.7,1,562.4,1,557.1z"/>
	<path class="st0" d="M579.4,573.1c7.5-3.1,12.8-8.4,15.9-15.9c0,5.3,0,10.6,0,15.9C590,573.1,584.7,573.1,579.4,573.1z"/>
	<path class="st0" d="M298.7,42.4c70,0.2,127,57.7,126.8,127.9c-0.2,70-57.8,127-127.9,126.8c-70-0.2-127-57.7-126.8-127.9
		C171,99.2,228.5,42.3,298.7,42.4z"/>
</g>
</svg>
