<svg width="50" height="58" viewBox="0 0 50 58" fill="none" xmlns="http://www.w3.org/2000/svg">
<path d="M49.9872 50.1362L46.4103 12.7387C46.3337 11.9084 45.58 11.2798 44.6985 11.2798H37.3403C37.2381 5.0409 31.745 0 25 0C18.255 0 12.7619 5.0409 12.6597 11.2798H5.30148C4.40726 11.2798 3.66633 11.9084 3.58968 12.7387L0.0127749 50.1362C0.0127749 50.1836 0 50.2311 0 50.2785C0 54.5366 4.20286 58 9.3766 58H40.6234C45.7971 58 50 54.5366 50 50.2785C50 50.2311 50 50.1836 49.9872 50.1362ZM25 3.20245C29.8416 3.20245 33.789 6.80818 33.8912 11.2798H16.1088C16.211 6.80818 20.1584 3.20245 25 3.20245ZM40.6234 54.7975H9.3766C6.13183 54.7975 3.50026 52.8049 3.44916 50.3497L6.87276 14.4941H12.6469V19.3571C12.6469 20.2466 13.4134 20.9583 14.3715 20.9583C15.3296 20.9583 16.0961 20.2466 16.0961 19.3571V14.4941H33.8912V19.3571C33.8912 20.2466 34.6576 20.9583 35.6157 20.9583C36.5738 20.9583 37.3403 20.2466 37.3403 19.3571V14.4941H43.1145L46.5508 50.3497C46.4997 52.8049 43.8554 54.7975 40.6234 54.7975Z" fill="black"/>
</svg>
