<svg width="58" height="58" viewBox="0 0 58 58" fill="none" xmlns="http://www.w3.org/2000/svg">
<path d="M55.0312 22.9134L50.9602 22.2228C50.5361 20.8537 49.9909 19.5331 49.3245 18.273L51.7235 14.9168C52.7413 13.4871 52.5838 11.5365 51.3358 10.3006L47.7252 6.69002C47.0467 6.01152 46.1501 5.63593 45.1929 5.63593C44.4417 5.63593 43.7269 5.86613 43.1211 6.30231L39.7528 8.70129C38.4443 8.01068 37.0752 7.44122 35.6576 7.01716L34.9791 2.99462C34.6883 1.26202 33.198 0.00195312 31.4412 0.00195312H26.3403C24.5835 0.00195312 23.0932 1.26202 22.8024 2.99462L22.0997 7.11409C20.7427 7.53815 19.4221 8.09549 18.162 8.77399L14.8301 6.37501C14.2243 5.93883 13.4973 5.70862 12.7461 5.70862C11.7889 5.70862 10.8802 6.08422 10.2138 6.76272L6.59114 10.3733C5.3553 11.6091 5.18568 13.5598 6.20343 14.9895L8.62664 18.3941C7.96026 19.6663 7.42715 20.987 7.01521 22.3561L2.99267 23.0346C1.26007 23.3254 0 24.8157 0 26.5725V31.6734C0 33.4302 1.26007 34.9205 2.99267 35.2113L7.11213 35.914C7.5362 37.271 8.09354 38.5916 8.77204 39.8517L6.38517 43.1715C5.36742 44.6012 5.52493 46.5519 6.77288 47.7877L10.3835 51.3983C11.062 52.0768 11.9586 52.4524 12.9157 52.4524C13.6669 52.4524 14.3818 52.2222 14.9876 51.786L18.3922 49.3628C19.6159 50.005 20.9002 50.526 22.2209 50.9379L22.8994 55.0089C23.1902 56.7415 24.6804 58.0016 26.4373 58.0016H31.5502C33.3071 58.0016 34.7974 56.7415 35.0881 55.0089L35.7788 50.9379C37.1479 50.5139 38.4685 49.9686 39.7286 49.3022L43.0848 51.7012C43.6906 52.1374 44.4175 52.3676 45.1687 52.3676C46.1259 52.3676 47.0225 51.992 47.701 51.3135L51.3116 47.7029C52.5474 46.4671 52.717 44.5164 51.6993 43.0867L49.3003 39.7184C49.9667 38.4462 50.524 37.1256 50.936 35.7686L55.007 35.0901C56.7396 34.7993 57.9996 33.309 57.9996 31.5522V26.4513C58.0239 24.6945 56.7638 23.2042 55.0312 22.9134ZM54.7525 31.5522C54.7525 31.7097 54.6435 31.843 54.486 31.8672L49.3972 32.7153C48.7551 32.8244 48.2462 33.2969 48.0887 33.9148C47.6283 35.6959 46.9255 37.4043 45.9805 38.9915C45.6534 39.5488 45.6776 40.2394 46.0532 40.7725L49.0459 44.9889C49.1307 45.1101 49.1186 45.2918 49.0095 45.4009L45.3989 49.0115C45.3141 49.0963 45.2293 49.1084 45.1687 49.1084C45.096 49.1084 45.0354 49.0842 44.987 49.0478L40.7827 46.0551C40.2617 45.6795 39.559 45.6553 39.0016 45.9824C37.4144 46.9275 35.7061 47.6302 33.925 48.0906C33.295 48.2481 32.8224 48.7691 32.7255 49.3992L31.8653 54.4879C31.841 54.6454 31.7078 54.7545 31.5502 54.7545H26.4494C26.2919 54.7545 26.1586 54.6454 26.1344 54.4879L25.2862 49.3992C25.1772 48.757 24.7047 48.2481 24.0868 48.0906C22.3542 47.6423 20.6821 46.9517 19.1192 46.0551C18.8647 45.9097 18.5739 45.837 18.2953 45.837C17.9681 45.837 17.6289 45.934 17.3502 46.1399L13.1096 49.1568C13.049 49.1932 12.9884 49.2174 12.9278 49.2174C12.8794 49.2174 12.7825 49.2053 12.6976 49.1205L9.08705 45.5099C8.97801 45.4009 8.96589 45.2312 9.0507 45.098L12.0313 40.9179C12.4069 40.3848 12.4311 39.6821 12.104 39.1247C11.1589 37.5497 10.4319 35.8413 9.97153 34.0602C9.8019 33.4423 9.29303 32.9698 8.66299 32.8607L3.53789 31.9884C3.38038 31.9641 3.27134 31.8309 3.27134 31.6734V26.5725C3.27134 26.415 3.38038 26.2817 3.53789 26.2575L8.59029 25.4094C9.23245 25.3003 9.75344 24.8278 9.91095 24.1977C10.3592 22.4167 11.0499 20.6962 11.9828 19.109C12.3099 18.5517 12.2736 17.861 11.898 17.34L8.88108 13.0994C8.79627 12.9783 8.80838 12.7965 8.91743 12.6875L12.528 9.07689C12.6128 8.99208 12.6976 8.97996 12.7582 8.97996C12.8309 8.97996 12.8915 9.00419 12.94 9.04054L17.12 12.0211C17.6531 12.3967 18.3558 12.4209 18.9132 12.0938C20.4883 11.1487 22.1966 10.4218 23.9777 9.96136C24.5956 9.79174 25.0682 9.28286 25.1772 8.65283L26.0496 3.52773C26.0738 3.37022 26.2071 3.26118 26.3646 3.26118H31.4654C31.6229 3.26118 31.7562 3.37022 31.7805 3.52773L32.6286 8.58013C32.7376 9.22228 33.2102 9.74327 33.8402 9.90078C35.6697 10.3612 37.4144 11.076 39.038 12.0332C39.5953 12.3603 40.2859 12.3361 40.819 11.9605L44.9991 8.95573C45.0597 8.91938 45.1203 8.89515 45.1808 8.89515C45.2293 8.89515 45.3262 8.90726 45.411 8.99208L49.0216 12.6027C49.1307 12.7117 49.1428 12.8813 49.058 13.0146L46.0653 17.2189C45.6897 17.7399 45.6655 18.4426 45.9926 19C46.9377 20.5872 47.6404 22.2955 48.1008 24.0766C48.2583 24.7066 48.7793 25.1791 49.4093 25.2761L54.4981 26.1363C54.6556 26.1605 54.7646 26.2938 54.7646 26.4513V31.5522H54.7525Z" fill="black"/>
<path d="M29.0047 16.4785C22.0985 16.4785 16.4888 22.0883 16.4888 28.9944C16.4888 35.9006 22.0985 41.5103 29.0047 41.5103C35.9108 41.5103 41.5206 35.9006 41.5206 28.9944C41.5206 22.0883 35.9108 16.4785 29.0047 16.4785ZM29.0047 38.239C23.9038 38.239 19.7601 34.0953 19.7601 28.9944C19.7601 23.8936 23.9038 19.7499 29.0047 19.7499C34.1055 19.7499 38.2492 23.8936 38.2492 28.9944C38.2492 34.0953 34.1055 38.239 29.0047 38.239Z" fill="black"/>
</svg>
