<svg width="25" height="25" viewBox="0 0 25 25" fill="none" xmlns="http://www.w3.org/2000/svg">
<g clip-path="url(#clip0)">
<path d="M11.2483 16.327C11.4388 16.136 11.4388 15.8269 11.2483 15.6359C11.0574 15.4456 10.7484 15.4456 10.5575 15.6359C10.3669 15.8269 10.3669 16.136 10.5575 16.327C10.7484 16.5173 11.0574 16.5173 11.2483 16.327Z" fill="#9B907E"/>
<path d="M11.4258 4.83398V5.81055C11.4258 7.42912 12.7369 8.74023 14.3555 8.74023C15.971 8.74023 17.2853 7.42607 17.2853 5.81055V4.83398C17.555 4.83398 17.7736 4.6154 17.7736 4.3457C17.7736 4.076 17.555 3.85742 17.2853 3.85742H16.3088C16.0391 3.85742 15.8205 4.076 15.8205 4.3457C15.8205 4.6154 16.0391 4.83398 16.3088 4.83398V5.81055C16.3088 6.88744 15.4325 7.76367 14.3555 7.76367C13.2769 7.76367 12.4023 6.88953 12.4023 5.81055V4.83398C12.672 4.83398 12.8906 4.6154 12.8906 4.3457C12.8906 4.076 12.672 3.85742 12.4023 3.85742H11.4258C11.1561 3.85742 10.9375 4.076 10.9375 4.3457C10.9375 4.6154 11.1561 4.83398 11.4258 4.83398Z" fill="#9B907E"/>
<path d="M5.67474 23.9717C5.77011 24.0669 5.89485 24.1144 6.01978 24.1144C6.14471 24.1144 6.26964 24.0667 6.36501 23.9716L7.86437 22.4722C8.35285 21.9841 8.58802 21.3156 8.52012 20.64L9.0578 20.1208C9.48447 19.7096 10.0454 19.483 10.6371 19.483H17.066C18.2176 19.483 19.3062 19.0407 20.1309 18.2375C20.1431 18.2257 20.1546 18.2133 20.1654 18.2001L24.5397 12.9473C25.2348 12.1248 25.1308 10.89 24.3076 10.1942C23.4897 9.50489 22.2641 9.60407 21.5669 10.4128L21.0945 10.9015V1.36719C21.0945 1.09749 20.8757 0.878906 20.6062 0.878906H8.05683C7.78732 0.878906 7.56854 1.09749 7.56854 1.36719V12.3072C5.6776 12.7041 4.17785 13.8779 3.37009 15.5937C2.73304 15.5607 2.11182 15.7949 1.65081 16.2565L0.143814 17.7561C0.0518804 17.8476 0.000191261 17.972 5.25996e-07 18.1017C-0.000190209 18.2316 0.0514989 18.3559 0.143242 18.4477L5.67474 23.9717ZM20.1179 1.85547V11.9112L18.7048 13.3722C18.341 12.9253 17.7868 12.6469 17.1881 12.6469H11.5267C11.4954 12.6469 11.4614 12.6396 11.4273 12.6259C10.6666 12.3158 9.86118 12.1586 9.03358 12.1586C8.87012 12.1586 8.70723 12.1645 8.5453 12.1752V1.85547H20.1179ZM8.12683 13.1994C9.11464 13.0566 10.1025 13.1405 11.0605 13.5309C11.2127 13.5923 11.3697 13.6236 11.5267 13.6236H17.1881C17.7175 13.6236 18.1646 14.0554 18.1646 14.6002C18.1646 15.1386 17.7265 15.5767 17.1881 15.5767H12.9398C12.6703 15.5767 12.4515 15.7953 12.4515 16.065C12.4515 16.3347 12.6703 16.5533 12.9398 16.5533H17.1881C18.2651 16.5533 19.1412 15.6771 19.1412 14.6002C19.1412 14.514 19.1349 14.4283 19.1238 14.3438C19.2257 14.2395 22.1771 11.187 22.2793 11.0811C22.2868 11.0733 22.2942 11.0653 22.3011 11.0571C22.649 10.6462 23.2668 10.5944 23.6778 10.9407C24.0892 11.2885 24.1413 11.9059 23.7915 12.3198L19.4319 17.555C18.7927 18.1688 17.9535 18.5064 17.066 18.5064H10.6371C9.79118 18.5064 8.98971 18.8299 8.37974 19.418L8.1644 19.6259C8.07819 19.4933 7.97786 19.3695 7.86456 19.2564L4.86545 16.2573C4.70524 16.0971 4.52346 15.9639 4.32682 15.8588C5.07278 14.3875 6.40525 13.4497 8.12683 13.1994ZM2.3407 16.9477C2.85377 16.4339 3.67374 16.4465 4.1748 16.9479L7.1743 19.9472C7.67707 20.4491 7.68604 21.27 7.17411 21.7813L6.0194 22.9359L1.17989 18.1028L2.3407 16.9477Z" fill="#9B907E"/>
</g>
<defs>
<clipPath id="clip0">
<rect width="25" height="25" fill="white"/>
</clipPath>
</defs>
</svg>
