<svg width="25" height="25" viewBox="0 0 25 25" fill="none" xmlns="http://www.w3.org/2000/svg">
<path d="M21.0938 17.8711C20.5542 17.8711 20.1172 18.3081 20.1172 18.8477C20.1172 19.3872 20.5542 19.8242 21.0938 19.8242C21.6333 19.8242 22.0703 19.3872 22.0703 18.8477C22.0703 18.3081 21.6333 17.8711 21.0938 17.8711Z" fill="#9B907E"/>
<path d="M20.6055 13.9648C20.336 13.9648 20.1172 14.1836 20.1172 14.4531C20.1172 14.7226 20.336 14.9414 20.6055 14.9414C20.875 14.9414 21.0938 14.7226 21.0938 14.4531C21.0938 14.1836 20.875 13.9648 20.6055 13.9648Z" fill="#9B907E"/>
<path d="M6.15234 17.8711C5.61275 17.8711 5.17578 18.3081 5.17578 18.8477C5.17578 19.3872 5.61275 19.8242 6.15234 19.8242C6.69193 19.8242 7.12891 19.3872 7.12891 18.8477C7.12891 18.3081 6.69193 17.8711 6.15234 17.8711Z" fill="#9B907E"/>
<path d="M22.9477 12.043L22.1058 8.67538C22.4051 8.38909 22.5586 8.00934 22.5586 7.61719C22.5586 6.80943 21.9015 6.15234 21.0938 6.15234H17.1875V4.6875C17.1875 3.87974 16.5304 3.22266 15.7227 3.22266H1.46484C0.657082 3.22266 0 3.87974 0 4.6875V17.3828C0 18.1906 0.657082 18.8477 1.46484 18.8477H3.22266C3.22266 20.4632 4.53682 21.7773 6.15234 21.7773C7.76787 21.7773 9.08203 20.4632 9.08203 18.8477H18.1641C18.1641 20.4632 19.4782 21.7773 21.0938 21.7773C22.7093 21.7773 24.0234 20.4632 24.0234 18.8477C24.0234 18.8198 24.0221 18.7922 24.0213 18.7643C24.5907 18.5635 25 18.0201 25 17.3828V14.4531C25 13.2393 24.1096 12.2299 22.9477 12.043ZM21.2008 9.08203L21.9332 12.0117H17.878L18.9976 10.8921C19.1883 10.7014 19.1883 10.3924 18.9976 10.2016C18.8068 10.0109 18.4978 10.0109 18.3071 10.2016L17.1875 11.3211V9.08203H21.2008ZM21.582 7.61719C21.582 7.8867 21.3633 8.10547 21.0938 8.10547H17.1875V7.12891H21.0938C21.3631 7.12891 21.582 7.34787 21.582 7.61719ZM6.15234 20.8008C5.07545 20.8008 4.19922 19.9245 4.19922 18.8477C4.19922 17.7561 5.09129 16.8945 6.15234 16.8945C7.21588 16.8945 8.10547 17.7584 8.10547 18.8477C8.10547 19.9245 7.22923 20.8008 6.15234 20.8008ZM8.91438 17.8711C8.50658 16.7189 7.4028 15.918 6.15234 15.918C4.90131 15.918 3.79715 16.7194 3.39012 17.8711H1.46484C1.19553 17.8711 0.976562 17.6521 0.976562 17.3828V4.6875C0.976562 4.41818 1.19553 4.19922 1.46484 4.19922H15.7227C15.992 4.19922 16.2109 4.41818 16.2109 4.6875V17.8711H8.91438ZM21.0938 20.8008C20.0169 20.8008 19.1406 19.9245 19.1406 18.8477C19.1406 17.7561 20.0327 16.8945 21.0938 16.8945C22.1573 16.8945 23.0469 17.7584 23.0469 18.8477C23.0469 19.9245 22.1706 20.8008 21.0938 20.8008ZM23.8211 17.7778C23.3879 16.6758 22.3103 15.918 21.0938 15.918C19.8427 15.918 18.7386 16.7194 18.3315 17.8711H17.1875V12.9883H22.5586C23.1951 12.9883 23.7379 13.3965 23.9395 13.9648H22.5586C22.2889 13.9648 22.0703 14.1834 22.0703 14.4531C22.0703 14.7228 22.2889 14.9414 22.5586 14.9414H24.0234V17.3828C24.0234 17.5451 23.9433 17.6889 23.8211 17.7778Z" fill="#9B907E"/>
<path d="M8.59375 6.15234C6.17065 6.15234 4.19922 8.12378 4.19922 10.5469C4.19922 12.97 6.17065 14.9414 8.59375 14.9414C11.0168 14.9414 12.9883 12.97 12.9883 10.5469C12.9883 8.12378 11.0168 6.15234 8.59375 6.15234ZM8.59375 13.9648C6.7091 13.9648 5.17578 12.4315 5.17578 10.5469C5.17578 8.66222 6.7091 7.12891 8.59375 7.12891C10.4784 7.12891 12.0117 8.66222 12.0117 10.5469C12.0117 12.4315 10.4784 13.9648 8.59375 13.9648Z" fill="#9B907E"/>
<path d="M10.5469 10.0586H9.08203V8.59375C9.08203 8.32405 8.86345 8.10547 8.59375 8.10547C8.32405 8.10547 8.10547 8.32405 8.10547 8.59375V10.5469C8.10547 10.8166 8.32405 11.0352 8.59375 11.0352H10.5469C10.8166 11.0352 11.0352 10.8166 11.0352 10.5469C11.0352 10.2772 10.8166 10.0586 10.5469 10.0586Z" fill="#9B907E"/>
</svg>
