<svg width="25" height="25" viewBox="0 0 25 25" fill="none" xmlns="http://www.w3.org/2000/svg">
<g clip-path="url(#clip0)">
<path d="M11.7784 12.58C11.5875 12.7707 11.5875 13.0805 11.7784 13.2718C11.9694 13.4631 12.2784 13.4631 12.4689 13.2718C12.6598 13.0805 12.6598 12.7707 12.4689 12.58C12.2784 12.3887 11.9694 12.3887 11.7784 12.58Z" fill="#9B907E"/>
<path d="M19.5429 1.45559C18.705 2.10555 18.4767 2.44057 15.505 5.38726L13.7235 5.09659L14.541 4.2775C15.1136 3.70379 15.1138 2.77558 14.541 2.20187C13.9686 1.62836 13.0417 1.62817 12.4693 2.20187L10.1602 4.51543L2.08489 3.19812C1.56304 3.11327 1.02917 3.28622 0.655711 3.66041C-0.0624064 4.37993 0.0350592 5.57034 0.854267 6.16431L8.90157 12.0034L7.39496 13.5132C6.87864 14.0305 6.33523 14.742 5.77676 15.6305L2.02385 14.5247C1.46996 14.3617 0.871814 14.5144 0.462687 14.9236C-0.233877 15.6215 -0.128591 16.7806 0.680507 17.342L3.75706 19.4759C3.22148 20.6602 2.8959 21.5166 2.88083 21.5562C2.81254 21.7362 2.85622 21.9397 2.99203 22.0758C3.12859 22.2126 3.33192 22.2552 3.51063 22.1872C3.55012 22.1723 4.4048 21.8459 5.58679 21.3092L7.71673 24.392C8.27806 25.204 9.43487 25.3068 10.1307 24.6097C10.5388 24.2001 10.6912 23.6008 10.5284 23.0458L9.42495 19.2858C10.3122 18.7258 11.022 18.1814 11.5381 17.6644L13.0449 16.1547L18.8724 24.2177C19.4662 25.0399 20.6543 25.1354 21.3716 24.4167C21.7449 24.0427 21.9175 23.5074 21.833 22.9843L20.5183 14.8937L22.8271 12.5804C23.3997 12.0067 23.3997 11.0779 22.8271 10.5044C22.2547 9.93067 21.3283 9.93067 20.7558 10.5044L19.9381 11.3235L19.6482 9.53851C22.5922 6.55799 22.9212 6.33458 23.5702 5.49505C23.571 5.49409 23.572 5.49294 23.5727 5.4918C25.0788 3.53619 25.4312 1.56109 24.4492 0.576688C23.4669 -0.406945 21.4954 -0.0541594 19.5429 1.45559ZM13.1597 2.89387C13.3505 2.70257 13.6597 2.70257 13.8506 2.89387C14.0415 3.08517 14.0413 3.3942 13.8506 3.58549L12.5356 4.9028L11.3479 4.70902L13.1597 2.89387ZM1.42685 5.37159C1.09269 5.12946 1.05435 4.64462 1.34636 4.35222C1.49838 4.19972 1.7162 4.1292 1.9283 4.16379L14.6541 6.23979L9.601 11.3026L1.42685 5.37159ZM1.15315 15.6157C1.30917 15.4596 1.53729 15.4011 1.74843 15.4634L5.25853 16.4977C4.89957 17.1276 4.53736 17.8234 4.17611 18.5766L1.2365 16.5377C0.928081 16.3236 0.887645 15.8816 1.15315 15.6157ZM9.43983 23.9182C9.17661 24.182 8.73487 24.1464 8.51953 23.8349L6.48458 20.8894C7.23684 20.527 7.93149 20.1639 8.55939 19.805L9.59146 23.3218C9.65364 23.5335 9.59547 23.7621 9.43983 23.9182ZM21.4464 11.1962C21.6371 11.0051 21.9458 11.0049 22.1367 11.1962C22.3276 11.3875 22.3274 11.6971 22.1367 11.8884L20.3249 13.7035L20.1317 12.5135L21.4464 11.1962ZM20.8691 23.1412C20.9036 23.3543 20.8332 23.5725 20.6812 23.7248C20.3907 24.0159 19.9064 23.9804 19.6636 23.644L13.7441 15.4541L18.7973 10.391L20.8691 23.1412ZM10.8476 16.9724C10.3103 17.511 9.52394 18.0923 8.51037 18.7006C7.19278 19.4912 5.63352 20.24 4.22704 20.8385C4.84063 19.3911 5.60205 17.8036 6.40809 16.4683C6.99765 15.491 7.56204 14.7294 8.08561 14.205C20.013 2.2829 19.3064 2.89789 20.0302 2.31787C20.8332 2.26647 21.5401 2.50535 22.0322 2.99841C22.5243 3.49147 22.7629 4.19991 22.7116 5.00428C22.1313 5.73126 22.7379 5.03008 10.8476 16.9724ZM23.5472 3.7187C23.3911 3.17939 23.114 2.69856 22.7228 2.3066C22.3316 1.91483 21.8517 1.63696 21.3137 1.48063C22.0203 1.12154 23.2103 0.719446 23.7587 1.2685C24.1917 1.70251 24.0841 2.65786 23.5472 3.7187Z" fill="#9B907E"/>
<path d="M14.5406 9.81325L13.1597 11.1967C12.9689 11.3878 12.9689 11.6976 13.1597 11.8887C13.3504 12.0798 13.6594 12.0796 13.8503 11.8887L15.231 10.5051C15.4218 10.3141 15.4218 10.0044 15.231 9.81325C15.0403 9.62214 14.7313 9.62214 14.5406 9.81325Z" fill="#9B907E"/>
<path d="M17.3027 7.0447L15.9212 8.4287C15.7307 8.61981 15.7307 8.9296 15.9212 9.1207C16.1122 9.31162 16.4211 9.31162 16.6119 9.1207L17.9932 7.7367C18.1839 7.54559 18.1839 7.23581 17.9932 7.0447C17.8024 6.85359 17.4935 6.85359 17.3027 7.0447Z" fill="#9B907E"/>
</g>
<defs>
<clipPath id="clip0">
<rect width="25" height="25" fill="white"/>
</clipPath>
</defs>
</svg>
