<svg xmlns="http://www.w3.org/2000/svg" xmlns:xlink="http://www.w3.org/1999/xlink" viewBox="0 0 1180 860"><defs><style>.a,.c{fill:#fff;}.b{fill:#0075c8;}.c,.f{opacity:0.7;}.d,.f{fill:#43505d;}.e{fill:#adc9e8;}.g{filter:url(#a);}</style><filter id="a" x="0" y="0" width="1180" height="860" filterUnits="userSpaceOnUse"><feOffset dy="10" input="SourceAlpha"/><feGaussianBlur stdDeviation="10" result="b"/><feFlood flood-color="#005490" flood-opacity="0.051"/><feComposite operator="in" in2="b"/><feComposite in="SourceGraphic"/></filter></defs><g transform="translate(-130 -1560)"><g class="g" transform="matrix(1, 0, 0, 1, 130, 1560)"><path class="a" d="M5616,2528a3,3,0,0,1-3-3v-85H6733v85a3,3,0,0,1-3,3Zm-3-96V1920h327.449a312.135,312.135,0,0,0-54.931,86.555,310.529,310.529,0,0,0-18.179,58.565c-1.81,8.846-3.251,17.906-4.287,26.931a36,36,0,0,0,0,71.9c1.033,9.017,2.474,18.077,4.285,26.93a310.265,310.265,0,0,0,46.945,111.563,312.916,312.916,0,0,0,137.271,113.04A310.858,310.858,0,0,0,6102.5,2432l0,0Zm630.5,0a310.307,310.307,0,0,0,103.939-45.286,312.919,312.919,0,0,0,113.04-137.271,310.548,310.548,0,0,0,18.18-58.565c1.837-8.973,3.3-18.184,4.336-27.374a36.007,36.007,0,0,0,0-71.006c-1.041-9.189-2.5-18.4-4.336-27.377a310.281,310.281,0,0,0-46.946-111.563,312.889,312.889,0,0,0-137.271-113.038A310.691,310.691,0,0,0,6243.5,1824H6733v608Zm-71.512,0a306.117,306.117,0,0,1-60.259-6.176,302.282,302.282,0,0,1-108.7-45.742,304.878,304.878,0,0,1-110.141-133.751,302.5,302.5,0,0,1-17.713-57.065c-1.732-8.464-3.12-17.134-4.122-25.772a36.008,36.008,0,0,0,0-70.987c1-8.641,2.391-17.313,4.122-25.774a302.342,302.342,0,0,1,45.742-108.7,304.876,304.876,0,0,1,133.751-110.14,302.6,302.6,0,0,1,57.063-17.714,306.98,306.98,0,0,1,122.535,0,302.35,302.35,0,0,1,108.7,45.742A304.881,304.881,0,0,1,6453.11,2009.67a302.532,302.532,0,0,1,17.715,57.063c1.7,8.3,3.069,16.82,4.069,25.328a36,36,0,0,0,0,71.879c-1,8.5-2.369,17.023-4.069,25.326a302.384,302.384,0,0,1-45.744,108.7,304.909,304.909,0,0,1-133.751,110.142,302.474,302.474,0,0,1-57.063,17.712,306.09,306.09,0,0,1-60.258,6.176ZM6449,2128a28,28,0,1,1,28,28A28,28,0,0,1,6449,2128Zm-612,0a28,28,0,1,1,28,28A28,28,0,0,1,5837,2128Zm-224-216v-88h489.5a310.36,310.36,0,0,0-103.939,45.284,314.189,314.189,0,0,0-46.174,38.1c-1.5,1.5-3.023,3.055-4.521,4.616Zm1120-96H6485v-88h245a3,3,0,0,1,3,3v85Zm-256,0H5869v-88h608v88Zm-616,0H5613v-85a3,3,0,0,1,3-3h245v88Z" transform="translate(-5583 -1708)"/></g><path class="b" d="M5765.247,2336H5765a153.205,153.205,0,0,1-30.634-3.087,151.159,151.159,0,0,1-54.353-22.869,152.465,152.465,0,0,1-55.07-66.875,151.433,151.433,0,0,1-8.856-28.535,153.515,153.515,0,0,1,0-61.266,151.187,151.187,0,0,1,22.871-54.35,152.454,152.454,0,0,1,66.875-55.07,151.27,151.27,0,0,1,28.533-8.857A153.151,153.151,0,0,1,5765,2032a153.156,153.156,0,0,0,30.634-3.086,151.085,151.085,0,0,0,54.352-22.872,152.469,152.469,0,0,0,55.072-66.875,151.295,151.295,0,0,0,8.854-28.532A151.891,151.891,0,0,0,5765.25,1728a306.421,306.421,0,0,1,61.225,6.219A302.459,302.459,0,0,1,5935.091,1780a304.882,304.882,0,0,1,110.042,133.725,302.449,302.449,0,0,1,17.7,57.039c1.7,8.3,3.066,16.815,4.064,25.3a36,36,0,0,0,0,71.878c-1,8.492-2.367,17-4.064,25.3a302.342,302.342,0,0,1-45.7,108.659,304.813,304.813,0,0,1-133.639,110.145,302.223,302.223,0,0,1-57.02,17.741A306.005,306.005,0,0,1,5765.247,2336ZM5765,2144a39.883,39.883,0,1,0,15.57,3.144A39.755,39.755,0,0,0,5765,2144Zm0-224a39.874,39.874,0,1,1,15.57-3.143A39.751,39.751,0,0,1,5765,1920Z" transform="translate(-5045 -52.002)"/><path class="c" d="M3.648-4.976A3.425,3.425,0,0,0,1.44-4.32a2.3,2.3,0,0,0-.816,1.9A2.641,2.641,0,0,0,.976-1.04a2.021,2.021,0,0,0,.992.856A3.45,3.45,0,0,0,3.3.08a5.593,5.593,0,0,0,3.12-1.2L6.512,0H7.536V-5.952a2.728,2.728,0,0,0-.808-2.136A3.239,3.239,0,0,0,4.48-8.816a12,12,0,0,0-1.568.12q-.9.12-1.552.264v1.056a13.135,13.135,0,0,1,1.432-.28,10.119,10.119,0,0,1,1.432-.12,2.331,2.331,0,0,1,1.6.464,1.66,1.66,0,0,1,.512,1.3v1.04ZM6.336-2.032a5.118,5.118,0,0,1-1.3.792,3.562,3.562,0,0,1-1.4.328,1.968,1.968,0,0,1-1.3-.408A1.428,1.428,0,0,1,1.84-2.48a1.5,1.5,0,0,1,.488-1.184A2.1,2.1,0,0,1,3.76-4.1H6.336ZM17.056,0V-6.384a2.448,2.448,0,0,0-.624-1.808,2.5,2.5,0,0,0-1.84-.624,7.922,7.922,0,0,0-3.616,1.28V-8.624H9.856V0H11.04V-6.56a7.134,7.134,0,0,1,3.232-1.168,1.61,1.61,0,0,1,1.2.408,1.565,1.565,0,0,1,.4,1.144V0Zm1.872-4.128a6.955,6.955,0,0,0,.256,2,3.553,3.553,0,0,0,.7,1.352,2.647,2.647,0,0,0,1.024.728A3.414,3.414,0,0,0,22.16.176,6.143,6.143,0,0,0,25.392-.9l.128.9H26.5V-12.208H25.312v3.664a10.978,10.978,0,0,0-2.192-.272,5.474,5.474,0,0,0-1.656.24,3.354,3.354,0,0,0-1.328.784,3.641,3.641,0,0,0-.888,1.464A6.72,6.72,0,0,0,18.928-4.128Zm1.232-.048A4.184,4.184,0,0,1,20.9-6.9a2.816,2.816,0,0,1,2.288-.88,10.681,10.681,0,0,1,2.128.256V-1.9a6.908,6.908,0,0,1-1.464.752,4.073,4.073,0,0,1-1.4.288A2.012,2.012,0,0,1,21.416-1.1a2.1,2.1,0,0,1-.616-.528,2.664,2.664,0,0,1-.376-.728,4.209,4.209,0,0,1-.208-.92A7.967,7.967,0,0,1,20.16-4.176ZM39.776-1.44a10.161,10.161,0,0,1-1.512.4A7.966,7.966,0,0,1,36.8-.88a3.282,3.282,0,0,1-2.328-.744A3.174,3.174,0,0,1,33.664-4h6.3v-.576a4.815,4.815,0,0,0-.9-3.2,3.4,3.4,0,0,0-2.72-1.04,3.682,3.682,0,0,0-2.928,1.152,4.906,4.906,0,0,0-1.008,3.328A4.848,4.848,0,0,0,33.456-.9a4.084,4.084,0,0,0,3.1,1.1,9.867,9.867,0,0,0,3.216-.56ZM33.664-4.912a3.193,3.193,0,0,1,.664-2.12A2.432,2.432,0,0,1,36.3-7.824a2.193,2.193,0,0,1,1.84.736,3.484,3.484,0,0,1,.576,2.176ZM40.88-8.624,43.9.016h1.472l3.056-8.64H47.168L44.7-1.3H44.64L42.16-8.624ZM50.5-4.3a4.637,4.637,0,0,1,.256-1.656,2.916,2.916,0,0,1,.68-1.072A2.328,2.328,0,0,1,52.4-7.6a3.893,3.893,0,0,1,1.1-.16,2.7,2.7,0,0,1,2.224.92A3.9,3.9,0,0,1,56.48-4.3a3.89,3.89,0,0,1-.752,2.544A2.716,2.716,0,0,1,53.5-.848a3.181,3.181,0,0,1-1.592-.368A2.6,2.6,0,0,1,50.88-2.344,4.346,4.346,0,0,1,50.5-4.3Zm-1.232,0a5.7,5.7,0,0,0,.344,2.08,3.6,3.6,0,0,0,.936,1.408A3.668,3.668,0,0,0,51.9-.048a5.255,5.255,0,0,0,1.592.24,5.178,5.178,0,0,0,1.584-.24,3.678,3.678,0,0,0,1.344-.768,3.676,3.676,0,0,0,.944-1.408,5.586,5.586,0,0,0,.352-2.08,5.586,5.586,0,0,0-.352-2.08A3.75,3.75,0,0,0,56.416-7.8a3.622,3.622,0,0,0-1.344-.776,5.178,5.178,0,0,0-1.584-.24,4.574,4.574,0,0,0-2.24.52,3.578,3.578,0,0,0-1.464,1.512A5.3,5.3,0,0,0,49.264-4.3Zm11.6-7.9H59.68V0h1.184Zm1.7,3.584L65.584.016h1.472l3.056-8.64H68.848L66.384-1.3H66.32L63.84-8.624ZM78.32-1.44a10.161,10.161,0,0,1-1.512.4,7.966,7.966,0,0,1-1.464.16,3.282,3.282,0,0,1-2.328-.744A3.174,3.174,0,0,1,72.208-4h6.3v-.576a4.815,4.815,0,0,0-.9-3.2,3.4,3.4,0,0,0-2.72-1.04,3.682,3.682,0,0,0-2.928,1.152A4.906,4.906,0,0,0,70.96-4.336,4.848,4.848,0,0,0,72-.9a4.084,4.084,0,0,0,3.1,1.1,9.867,9.867,0,0,0,3.216-.56ZM72.208-4.912a3.193,3.193,0,0,1,.664-2.12,2.432,2.432,0,0,1,1.976-.792,2.193,2.193,0,0,1,1.84.736,3.484,3.484,0,0,1,.576,2.176ZM81.36-1.648H80.288V0H81.36Zm4.464,0H84.736V0h1.088Zm4.016,0H88.784V0H89.84Z" transform="translate(824 2006)"/><path class="d" d="M-.072,0h3.1l.792-2.484H8.64L9.414,0h3.1l-4.3-12.978h-4ZM6.1-10.476h.144L7.9-5.058H4.41Zm10.08-3.258H13.3V0h2.88Zm4.824,0h-2.88V0h2.88ZM32.13,0a7.149,7.149,0,0,0,2.439-.405A5.176,5.176,0,0,0,36.5-1.62a5.418,5.418,0,0,0,1.251-2.043,8.279,8.279,0,0,0,.441-2.8,8.338,8.338,0,0,0-.441-2.817A5.5,5.5,0,0,0,36.5-11.331a5.122,5.122,0,0,0-1.935-1.224,7.149,7.149,0,0,0-2.439-.405H27.162V0Zm3.042-6.462a4.867,4.867,0,0,1-.432,2.169A3.122,3.122,0,0,1,33.57-2.97a3.36,3.36,0,0,1-1.782.45H30.132v-7.92h1.656a3.505,3.505,0,0,1,1.476.3,2.84,2.84,0,0,1,1.071.837,3.649,3.649,0,0,1,.63,1.269A5.746,5.746,0,0,1,35.172-6.462Zm7.74.324a4.333,4.333,0,0,0-2.844.837A2.745,2.745,0,0,0,39.06-3.078,3.627,3.627,0,0,0,39.42-1.4,2.791,2.791,0,0,0,40.473-.279a3.172,3.172,0,0,0,1.683.423A5.265,5.265,0,0,0,45.2-.972h.072L45.486,0h2.448V-6.444A3.432,3.432,0,0,0,46.845-9.2a4.507,4.507,0,0,0-3.033-.936,18.858,18.858,0,0,0-1.98.117,19.213,19.213,0,0,0-1.944.3v2.376a11.309,11.309,0,0,1,1.575-.315,12.051,12.051,0,0,1,1.629-.135q1.962,0,1.962,1.152v.5Zm2.142,3.384a4.191,4.191,0,0,1-.9.369,3.578,3.578,0,0,1-1.008.153,1.314,1.314,0,0,1-.855-.27.96.96,0,0,1-.333-.792q0-.972,1.458-.972h1.638ZM53.1-7.488h2.88v-2.43H53.118v-2.214H51.876l-2.844,2.7v1.944H50.22v5.2a2.53,2.53,0,0,0,.621,1.863A2.668,2.668,0,0,0,52.794.2a13.326,13.326,0,0,0,1.4-.09,13.562,13.562,0,0,0,1.4-.216V-2.52a6.559,6.559,0,0,1-1.314.18Q53.1-2.34,53.1-3.348Zm7.272,1.35a4.333,4.333,0,0,0-2.844.837A2.745,2.745,0,0,0,56.52-3.078,3.627,3.627,0,0,0,56.88-1.4,2.791,2.791,0,0,0,57.933-.279a3.172,3.172,0,0,0,1.683.423A5.265,5.265,0,0,0,62.658-.972h.072L62.946,0h2.448V-6.444A3.432,3.432,0,0,0,64.305-9.2a4.507,4.507,0,0,0-3.033-.936,18.858,18.858,0,0,0-1.98.117,19.213,19.213,0,0,0-1.944.3v2.376a11.309,11.309,0,0,1,1.575-.315,12.051,12.051,0,0,1,1.629-.135q1.962,0,1.962,1.152v.5Zm2.142,3.384a4.191,4.191,0,0,1-.9.369,3.578,3.578,0,0,1-1.008.153,1.314,1.314,0,0,1-.855-.27.96.96,0,0,1-.333-.792q0-.972,1.458-.972h1.638Z" transform="translate(251 1631)"/><path class="d" d="M1.242,0h2.97V-12.96H1.242Zm14.04,0V-7.128q0-3.006-2.916-3.006A6.685,6.685,0,0,0,9.09-8.928H9.018v-.99H6.336V0h2.88V-6.8a5.458,5.458,0,0,1,2.268-.738.913.913,0,0,1,.711.234,1.1,1.1,0,0,1,.207.738V0Zm5.76-10.134q-4.3,0-4.3,3.294a2.8,2.8,0,0,0,.63,1.854,4.02,4.02,0,0,0,2.34,1.1q.126.018.63.117a7.3,7.3,0,0,1,.81.2.85.85,0,0,1,.423.252.493.493,0,0,1,.117.3q0,.828-1.548.828a22.758,22.758,0,0,1-3.24-.342L16.83-.018q.684.108,1.719.171t1.737.063q4.338,0,4.338-3.366A2.842,2.842,0,0,0,24.2-4.779,2.538,2.538,0,0,0,23.094-5.7a7.674,7.674,0,0,0-1.71-.477,5.03,5.03,0,0,1-1.4-.387A.532.532,0,0,1,19.674-7a.558.558,0,0,1,.405-.54A3.732,3.732,0,0,1,21.366-7.7a15.458,15.458,0,0,1,2.628.288l.09-2.448a11.966,11.966,0,0,0-1.458-.2Q21.762-10.134,21.042-10.134Zm7.812.216h-2.88V0h2.88Zm.036-3.618H25.938V-11H28.89Zm1.4,7.074a3.035,3.035,0,0,0,.468,1.692,2.9,2.9,0,0,0,1.26,1.08,1.7,1.7,0,0,0-.774.7A1.89,1.89,0,0,0,31-2.052a1.5,1.5,0,0,0,.207.72,1.543,1.543,0,0,0,.567.594V-.63a2.01,2.01,0,0,0-1.638,2.088,1.983,1.983,0,0,0,1.08,1.836,6.987,6.987,0,0,0,3.33.612,10.317,10.317,0,0,0,3.213-.414,3.982,3.982,0,0,0,1.836-1.134,2.629,2.629,0,0,0,.6-1.746,2.453,2.453,0,0,0-.747-1.971A3.8,3.8,0,0,0,36.972-2H34.146a.676.676,0,0,1-.513-.18.652.652,0,0,1-.171-.468,1.2,1.2,0,0,1,.162-.594,8.152,8.152,0,0,0,1.314.09,6.007,6.007,0,0,0,2.412-.414,3.169,3.169,0,0,0,1.4-1.116,3.013,3.013,0,0,0,.468-1.71,2.3,2.3,0,0,0-.162-.846,2.123,2.123,0,0,0-.414-.684l1.8.036v-2.232a11.975,11.975,0,0,1-2.232.2q-.774,0-1.944-.108t-1.53-.108a4.9,4.9,0,0,0-3.267,1A3.326,3.326,0,0,0,30.294-6.462Zm6.048-.054a1.369,1.369,0,0,1-.378,1.053,1.7,1.7,0,0,1-1.188.351q-1.584,0-1.584-1.386,0-1.422,1.584-1.422a1.623,1.623,0,0,1,1.188.378A1.386,1.386,0,0,1,36.342-6.516ZM36.36.144q.882,0,.882.756a.843.843,0,0,1-.576.81,4.522,4.522,0,0,1-1.728.252,4.21,4.21,0,0,1-1.431-.171.659.659,0,0,1-.423-.675q0-.972,1.314-.972ZM50.526,0V-7.128q0-3.006-2.916-3.006A6.379,6.379,0,0,0,44.46-9v-4.734H41.58V0h2.88V-6.8a5.458,5.458,0,0,1,2.268-.738.913.913,0,0,1,.711.234,1.1,1.1,0,0,1,.207.738V0Zm5.2-7.488h2.88v-2.43H55.746v-2.214H54.5l-2.844,2.7v1.944h1.188v5.2a2.53,2.53,0,0,0,.621,1.863A2.668,2.668,0,0,0,55.422.2a13.326,13.326,0,0,0,1.4-.09,13.562,13.562,0,0,0,1.4-.216V-2.52a6.559,6.559,0,0,1-1.314.18q-1.188,0-1.188-1.008Zm7.956-2.646q-4.3,0-4.3,3.294a2.8,2.8,0,0,0,.63,1.854,4.02,4.02,0,0,0,2.34,1.1q.126.018.63.117a7.3,7.3,0,0,1,.81.2.85.85,0,0,1,.423.252.493.493,0,0,1,.117.3q0,.828-1.548.828a22.758,22.758,0,0,1-3.24-.342l-.072,2.52q.684.108,1.719.171t1.737.063q4.338,0,4.338-3.366a2.842,2.842,0,0,0-.423-1.629A2.538,2.538,0,0,0,65.736-5.7a7.674,7.674,0,0,0-1.71-.477,5.03,5.03,0,0,1-1.4-.387A.532.532,0,0,1,62.316-7a.558.558,0,0,1,.405-.54A3.732,3.732,0,0,1,64.008-7.7a15.458,15.458,0,0,1,2.628.288l.09-2.448a11.966,11.966,0,0,0-1.458-.2Q64.4-10.134,63.684-10.134Z" transform="translate(1123 1631)"/><path class="b" d="M-89.811,0h3.87l3.006-12.96h-2.988l-1.89,9.126h-.09l-2.232-9.126h-3.06l-2.232,9.126h-.09l-2-9.126h-3.132L-97.623,0h3.87l1.89-7.272h.18Zm13.95-9.972a4.159,4.159,0,0,0-.747.1,4.527,4.527,0,0,0-.684.216,5.024,5.024,0,0,0-.693.351q-.36.216-.828.531t-.594.405V-9.918h-2.718V0h2.88V-6.066q1.638-.558,2.349-.729t1.035-.225Zm4.194,3.834a4.333,4.333,0,0,0-2.844.837,2.745,2.745,0,0,0-1.008,2.223,3.627,3.627,0,0,0,.36,1.674A2.791,2.791,0,0,0-74.106-.279a3.172,3.172,0,0,0,1.683.423A5.265,5.265,0,0,0-69.381-.972h.072l.216.972h2.448V-6.444A3.432,3.432,0,0,0-67.734-9.2a4.507,4.507,0,0,0-3.033-.936,18.858,18.858,0,0,0-1.98.117,19.213,19.213,0,0,0-1.944.3v2.376a11.309,11.309,0,0,1,1.575-.315,12.051,12.051,0,0,1,1.629-.135q1.962,0,1.962,1.152v.5Zm2.142,3.384a4.191,4.191,0,0,1-.9.369,3.578,3.578,0,0,1-1.008.153,1.314,1.314,0,0,1-.855-.27.96.96,0,0,1-.333-.792q0-.972,1.458-.972h1.638ZM-55.845,0V-7.128q0-3.006-2.916-3.006a6.685,6.685,0,0,0-3.276,1.206h-.072v-.99h-2.682V0h2.88V-6.8a5.458,5.458,0,0,1,2.268-.738.913.913,0,0,1,.711.234,1.1,1.1,0,0,1,.207.738V0Zm1.386-6.462a3.035,3.035,0,0,0,.468,1.692,2.9,2.9,0,0,0,1.26,1.08,1.7,1.7,0,0,0-.774.7,1.89,1.89,0,0,0-.252.936,1.5,1.5,0,0,0,.207.72,1.543,1.543,0,0,0,.567.594V-.63a2.01,2.01,0,0,0-1.638,2.088,1.983,1.983,0,0,0,1.08,1.836,6.987,6.987,0,0,0,3.33.612A10.317,10.317,0,0,0-47,3.492a3.982,3.982,0,0,0,1.836-1.134,2.629,2.629,0,0,0,.6-1.746,2.453,2.453,0,0,0-.747-1.971A3.8,3.8,0,0,0-47.781-2h-2.826a.676.676,0,0,1-.513-.18.652.652,0,0,1-.171-.468,1.2,1.2,0,0,1,.162-.594,8.152,8.152,0,0,0,1.314.09A6.007,6.007,0,0,0-47.4-3.564,3.169,3.169,0,0,0-46-4.68a3.013,3.013,0,0,0,.468-1.71,2.3,2.3,0,0,0-.162-.846,2.123,2.123,0,0,0-.414-.684l1.8.036v-2.232a11.975,11.975,0,0,1-2.232.2q-.774,0-1.944-.108t-1.53-.108a4.9,4.9,0,0,0-3.267,1A3.326,3.326,0,0,0-54.459-6.462Zm6.048-.054a1.369,1.369,0,0,1-.378,1.053,1.7,1.7,0,0,1-1.188.351q-1.584,0-1.584-1.386,0-1.422,1.584-1.422a1.623,1.623,0,0,1,1.188.378A1.386,1.386,0,0,1-48.411-6.516Zm.018,6.66q.882,0,.882.756a.843.843,0,0,1-.576.81,4.522,4.522,0,0,1-1.728.252,4.21,4.21,0,0,1-1.431-.171.659.659,0,0,1-.423-.675q0-.972,1.314-.972Zm8.1-13.878h-2.88V0h2.88ZM-29.745-2.862q-.774.216-1.728.4a8.791,8.791,0,0,1-1.566.18,3.531,3.531,0,0,1-2.151-.495,1.73,1.73,0,0,1-.639-1.395h6.246V-5.454a4.8,4.8,0,0,0-1.152-3.537,4.426,4.426,0,0,0-3.258-1.143,5.864,5.864,0,0,0-2,.324,4.114,4.114,0,0,0-1.539.963,4.2,4.2,0,0,0-.981,1.629,6.932,6.932,0,0,0-.342,2.268q0,5.166,5.076,5.166a14.715,14.715,0,0,0,4.032-.63Zm-6.12-3.366a1.7,1.7,0,0,1,.261-.909,1.436,1.436,0,0,1,.666-.594,1.971,1.971,0,0,1,.765-.171,1.832,1.832,0,0,1,.963.216,1.321,1.321,0,0,1,.522.594,2.284,2.284,0,0,1,.189.864ZM-18.549,0h3.87l3.006-12.96h-2.988l-1.89,9.126h-.09l-2.232-9.126h-3.06l-2.232,9.126h-.09l-2-9.126h-3.132L-26.361,0h3.87l1.89-7.272h.18ZM-1.431-4.95A6.274,6.274,0,0,0-1.809-7.2,4.354,4.354,0,0,0-2.871-8.838a4.43,4.43,0,0,0-1.62-.972,6.179,6.179,0,0,0-2.034-.324,6.179,6.179,0,0,0-2.034.324,4.406,4.406,0,0,0-1.611.963,4.326,4.326,0,0,0-1.053,1.629A6.329,6.329,0,0,0-11.6-4.95a6.255,6.255,0,0,0,.378,2.259A4.423,4.423,0,0,0-10.17-1.062,4.248,4.248,0,0,0-8.559-.1,6.34,6.34,0,0,0-6.525.216,6.179,6.179,0,0,0-4.491-.108a4.43,4.43,0,0,0,1.62-.972A4.366,4.366,0,0,0-1.809-2.709,6.2,6.2,0,0,0-1.431-4.95Zm-2.952,0a3.453,3.453,0,0,1-.495,2.043,1.885,1.885,0,0,1-1.629.675,1.9,1.9,0,0,1-1.638-.684,3.412,3.412,0,0,1-.5-2.034A3.448,3.448,0,0,1-8.145-7a1.9,1.9,0,0,1,1.638-.684A1.878,1.878,0,0,1-4.887-7,3.448,3.448,0,0,1-4.383-4.95ZM6.255-9.972a4.159,4.159,0,0,0-.747.1,4.527,4.527,0,0,0-.684.216,5.024,5.024,0,0,0-.693.351q-.36.216-.828.531t-.594.405V-9.918H-.009V0h2.88V-6.066Q4.509-6.624,5.22-6.8T6.255-7.02Zm4.626,6.084.936,1.674A4.19,4.19,0,0,0,15.651.144a5.378,5.378,0,0,0,.918-.072v-2.61a2.408,2.408,0,0,1-2.178-1.044l-.882-1.476a4.543,4.543,0,0,0,1.26-1.2A5.443,5.443,0,0,0,15.516-7.8a6.163,6.163,0,0,0,.261-1.809v-.306H12.9V-9.5a3.409,3.409,0,0,1-.522,1.989,3.068,3.068,0,0,1-1.314,1.089l-.81.36v-7.668H7.371V0h2.88V-3.6ZM21.7-10.134q-4.3,0-4.3,3.294a2.8,2.8,0,0,0,.63,1.854,4.02,4.02,0,0,0,2.34,1.1q.126.018.63.117a7.3,7.3,0,0,1,.81.2.85.85,0,0,1,.423.252.493.493,0,0,1,.117.3q0,.828-1.548.828a22.758,22.758,0,0,1-3.24-.342l-.072,2.52q.684.108,1.719.171t1.737.063q4.338,0,4.338-3.366a2.842,2.842,0,0,0-.423-1.629A2.538,2.538,0,0,0,23.751-5.7a7.674,7.674,0,0,0-1.71-.477,5.03,5.03,0,0,1-1.4-.387A.532.532,0,0,1,20.331-7a.558.558,0,0,1,.405-.54A3.732,3.732,0,0,1,22.023-7.7a15.458,15.458,0,0,1,2.628.288l.09-2.448a11.966,11.966,0,0,0-1.458-.2Q22.419-10.134,21.7-10.134ZM34.263-2.3a24.088,24.088,0,0,1-3.8-.486V-.2A21.3,21.3,0,0,0,34.5.216a7.664,7.664,0,0,0,2.385-.324A4.374,4.374,0,0,0,38.484-1a3.152,3.152,0,0,0,.882-1.35,5.117,5.117,0,0,0,.261-1.629,5.137,5.137,0,0,0-.207-1.539,3.134,3.134,0,0,0-.612-1.125A2.9,2.9,0,0,0,37.719-7.4a9.546,9.546,0,0,0-2.142-.5A11.191,11.191,0,0,1,34.2-8.19a1.28,1.28,0,0,1-.684-.423,1.072,1.072,0,0,1-.207-.657q0-1.386,2.25-1.386a22.223,22.223,0,0,1,3.474.342v-2.592q-.216-.018-.945-.1t-1.359-.126q-.63-.045-1.26-.045a6.271,6.271,0,0,0-3.888,1.008,3.553,3.553,0,0,0-1.3,2.988,4.707,4.707,0,0,0,.333,1.836,2.825,2.825,0,0,0,1.089,1.287,5.515,5.515,0,0,0,2.16.711q.126.018.639.1t.909.18a2.026,2.026,0,0,1,.648.27,1.151,1.151,0,0,1,.378.4,1.161,1.161,0,0,1,.126.558A1.282,1.282,0,0,1,35.973-2.7,3.08,3.08,0,0,1,34.263-2.3Zm15.408-.558q-.774.216-1.728.4a8.791,8.791,0,0,1-1.566.18,3.531,3.531,0,0,1-2.151-.495,1.73,1.73,0,0,1-.639-1.395h6.246V-5.454a4.8,4.8,0,0,0-1.152-3.537,4.426,4.426,0,0,0-3.258-1.143,5.864,5.864,0,0,0-2,.324,4.114,4.114,0,0,0-1.539.963A4.2,4.2,0,0,0,40.9-7.218a6.932,6.932,0,0,0-.342,2.268q0,5.166,5.076,5.166a14.715,14.715,0,0,0,4.032-.63Zm-6.12-3.366a1.7,1.7,0,0,1,.261-.909,1.436,1.436,0,0,1,.666-.594,1.971,1.971,0,0,1,.765-.171,1.832,1.832,0,0,1,.963.216,1.321,1.321,0,0,1,.522.594,2.284,2.284,0,0,1,.189.864ZM57.609-9.972a4.159,4.159,0,0,0-.747.1,4.527,4.527,0,0,0-.684.216,5.024,5.024,0,0,0-.693.351q-.36.216-.828.531t-.594.405V-9.918H51.345V0h2.88V-6.066q1.638-.558,2.349-.729t1.035-.225Zm.072.054L60.885,0h3.726l3.2-9.918H64.809L62.847-3.15h-.108l-2-6.768Zm13.914,0h-2.88V0H71.6Zm.036-3.618H68.679V-11h2.952ZM78.543-2.268a2.924,2.924,0,0,1-1.386-.3,2.1,2.1,0,0,1-.873-.882,3.156,3.156,0,0,1-.315-1.5,2.759,2.759,0,0,1,.648-2.07,2.709,2.709,0,0,1,1.926-.612,9,9,0,0,1,2.646.414V-9.7a10.857,10.857,0,0,0-3.132-.432,6.813,6.813,0,0,0-1.863.252,4.3,4.3,0,0,0-1.6.846,4.094,4.094,0,0,0-1.134,1.62,6.461,6.461,0,0,0-.423,2.466,6.461,6.461,0,0,0,.423,2.466A4.018,4.018,0,0,0,74.592-.873a4.363,4.363,0,0,0,1.6.837,6.813,6.813,0,0,0,1.863.252,10.857,10.857,0,0,0,3.132-.432V-2.682A9.636,9.636,0,0,1,78.543-2.268Zm12.672-.594q-.774.216-1.728.4a8.791,8.791,0,0,1-1.566.18,3.531,3.531,0,0,1-2.151-.495,1.73,1.73,0,0,1-.639-1.395h6.246V-5.454a4.8,4.8,0,0,0-1.152-3.537,4.427,4.427,0,0,0-3.258-1.143,5.864,5.864,0,0,0-2,.324,4.114,4.114,0,0,0-1.539.963,4.2,4.2,0,0,0-.981,1.629,6.932,6.932,0,0,0-.342,2.268q0,5.166,5.076,5.166a14.715,14.715,0,0,0,4.032-.63ZM85.1-6.228a1.7,1.7,0,0,1,.261-.909,1.437,1.437,0,0,1,.666-.594,1.971,1.971,0,0,1,.765-.171,1.832,1.832,0,0,1,.963.216,1.321,1.321,0,0,1,.522.594,2.285,2.285,0,0,1,.189.864Zm11.664-3.906q-4.3,0-4.3,3.294a2.8,2.8,0,0,0,.63,1.854,4.02,4.02,0,0,0,2.34,1.1q.126.018.63.117a7.3,7.3,0,0,1,.81.2.85.85,0,0,1,.423.252.493.493,0,0,1,.117.3q0,.828-1.548.828a22.758,22.758,0,0,1-3.24-.342l-.072,2.52q.684.108,1.719.171T96,.216q4.338,0,4.338-3.366a2.842,2.842,0,0,0-.423-1.629A2.538,2.538,0,0,0,98.811-5.7a7.674,7.674,0,0,0-1.71-.477,5.03,5.03,0,0,1-1.4-.387A.532.532,0,0,1,95.391-7a.558.558,0,0,1,.4-.54A3.732,3.732,0,0,1,97.083-7.7a15.458,15.458,0,0,1,2.628.288l.09-2.448a11.966,11.966,0,0,0-1.458-.2Q97.479-10.134,96.759-10.134Z" transform="translate(734 1631)"/><path class="a" d="M3.248-5.744a4.294,4.294,0,0,1,.3-1.68A3.177,3.177,0,0,1,4.376-8.6a3.271,3.271,0,0,1,1.168-.664A4.4,4.4,0,0,1,6.9-9.472a12.1,12.1,0,0,1,1.64.136,12.319,12.319,0,0,1,1.688.344l.016-2.32A12.658,12.658,0,0,0,8.584-11.6,15.606,15.606,0,0,0,6.8-11.712a7.68,7.68,0,0,0-2.688.44,5.392,5.392,0,0,0-1.968,1.224A5.1,5.1,0,0,0,.96-8.176a6.764,6.764,0,0,0-.4,2.352,8.867,8.867,0,0,0,.328,2.5,5.071,5.071,0,0,0,1,1.9,4.292,4.292,0,0,0,1.744,1.2,6.876,6.876,0,0,0,2.5.416,13.71,13.71,0,0,0,4.5-.816V-6.208H8V-2.24a8.2,8.2,0,0,1-1.488.176,3.069,3.069,0,0,1-2.392-.96A3.9,3.9,0,0,1,3.248-5.744ZM20.72-4.4a5.577,5.577,0,0,0-.336-2,3.871,3.871,0,0,0-.944-1.456A3.938,3.938,0,0,0,18-8.72a5.492,5.492,0,0,0-1.808-.288,5.492,5.492,0,0,0-1.808.288,3.916,3.916,0,0,0-1.432.856,3.845,3.845,0,0,0-.936,1.448A5.626,5.626,0,0,0,11.68-4.4a5.56,5.56,0,0,0,.336,2.008,3.931,3.931,0,0,0,.936,1.448,3.776,3.776,0,0,0,1.432.856,5.636,5.636,0,0,0,1.808.28A5.492,5.492,0,0,0,18-.1,3.938,3.938,0,0,0,19.44-.96a3.881,3.881,0,0,0,.944-1.448A5.512,5.512,0,0,0,20.72-4.4ZM18.1-4.4a3.069,3.069,0,0,1-.44,1.816,1.676,1.676,0,0,1-1.448.6,1.688,1.688,0,0,1-1.456-.608A3.033,3.033,0,0,1,14.3-4.4a3.065,3.065,0,0,1,.448-1.824,1.688,1.688,0,0,1,1.456-.608,1.669,1.669,0,0,1,1.44.608A3.065,3.065,0,0,1,18.1-4.4ZM20.88-8.816,23.728,0H27.04l2.848-8.816H27.216L25.472-2.8h-.1L23.6-8.816ZM38.16-2.544q-.688.192-1.536.352a7.814,7.814,0,0,1-1.392.16,3.139,3.139,0,0,1-1.912-.44,1.537,1.537,0,0,1-.568-1.24H38.3V-4.848A4.264,4.264,0,0,0,37.28-7.992a3.935,3.935,0,0,0-2.9-1.016,5.213,5.213,0,0,0-1.776.288,3.657,3.657,0,0,0-1.368.856,3.733,3.733,0,0,0-.872,1.448,6.162,6.162,0,0,0-.3,2.016q0,4.592,4.512,4.592a13.08,13.08,0,0,0,3.584-.56ZM32.72-5.536a1.512,1.512,0,0,1,.232-.808,1.277,1.277,0,0,1,.592-.528,1.752,1.752,0,0,1,.68-.152,1.629,1.629,0,0,1,.856.192,1.175,1.175,0,0,1,.464.528,2.031,2.031,0,0,1,.168.768Zm12.5-3.328a3.7,3.7,0,0,0-.664.088,4.024,4.024,0,0,0-.608.192,4.465,4.465,0,0,0-.616.312q-.32.192-.736.472t-.528.36V-8.816H39.648V0h2.56V-5.392q1.456-.5,2.088-.648t.92-.2ZM54.16,0V-6.336q0-2.672-2.592-2.672a5.943,5.943,0,0,0-2.912,1.072h-.064v-.88H46.208V0h2.56V-6.048A4.852,4.852,0,0,1,50.784-6.7a.811.811,0,0,1,.632.208.973.973,0,0,1,.184.656V0Zm4.512-5.456a3.852,3.852,0,0,0-2.528.744,2.44,2.44,0,0,0-.9,1.976,3.224,3.224,0,0,0,.32,1.488,2.481,2.481,0,0,0,.936,1A2.819,2.819,0,0,0,58,.128a4.68,4.68,0,0,0,2.7-.992h.064L60.96,0h2.176V-5.728a3.051,3.051,0,0,0-.968-2.448,4.006,4.006,0,0,0-2.7-.832,16.762,16.762,0,0,0-1.76.1,17.078,17.078,0,0,0-1.728.264v2.112a10.052,10.052,0,0,1,1.4-.28,10.712,10.712,0,0,1,1.448-.12q1.744,0,1.744,1.024v.448Zm1.9,3.008a3.725,3.725,0,0,1-.8.328,3.181,3.181,0,0,1-.9.136,1.168,1.168,0,0,1-.76-.24.853.853,0,0,1-.3-.7q0-.864,1.3-.864h1.456ZM72.736,0V-6.336q0-2.672-2.592-2.672a5.943,5.943,0,0,0-2.912,1.072h-.064v-.88H64.784V0h2.56V-6.048A4.852,4.852,0,0,1,69.36-6.7a.811.811,0,0,1,.632.208.973.973,0,0,1,.184.656V0Zm6.128-2.016a2.6,2.6,0,0,1-1.232-.264,1.865,1.865,0,0,1-.776-.784,2.805,2.805,0,0,1-.28-1.336,2.453,2.453,0,0,1,.576-1.84,2.408,2.408,0,0,1,1.712-.544,8,8,0,0,1,2.352.368V-8.624a9.651,9.651,0,0,0-2.784-.384,6.056,6.056,0,0,0-1.656.224,3.817,3.817,0,0,0-1.424.752,3.639,3.639,0,0,0-1.008,1.44A5.743,5.743,0,0,0,73.968-4.4a5.743,5.743,0,0,0,.376,2.192A3.571,3.571,0,0,0,75.352-.776a3.878,3.878,0,0,0,1.424.744,6.056,6.056,0,0,0,1.656.224,9.651,9.651,0,0,0,2.784-.384V-2.384A8.566,8.566,0,0,1,78.864-2.016Zm11.264-.528q-.688.192-1.536.352a7.814,7.814,0,0,1-1.392.16,3.139,3.139,0,0,1-1.912-.44,1.537,1.537,0,0,1-.568-1.24h5.552V-4.848a4.264,4.264,0,0,0-1.024-3.144,3.935,3.935,0,0,0-2.9-1.016,5.213,5.213,0,0,0-1.776.288,3.657,3.657,0,0,0-1.368.856,3.733,3.733,0,0,0-.872,1.448,6.162,6.162,0,0,0-.3,2.016q0,4.592,4.512,4.592a13.08,13.08,0,0,0,3.584-.56Zm-5.44-2.992a1.512,1.512,0,0,1,.232-.808,1.277,1.277,0,0,1,.592-.528,1.752,1.752,0,0,1,.68-.152,1.629,1.629,0,0,1,.856.192,1.175,1.175,0,0,1,.464.528,2.031,2.031,0,0,1,.168.768Z" transform="translate(824 2050)"/><path class="d" d="M-155.416-11.52V0h2.64V-3.552h1.824L-149.288,0h2.96l-2.064-4.256a4.035,4.035,0,0,0,.88-.856,3.789,3.789,0,0,0,.608-1.176,4,4,0,0,0,.208-1.2,5.546,5.546,0,0,0-.224-1.576,2.949,2.949,0,0,0-.784-1.3,3.808,3.808,0,0,0-1.456-.848,7.119,7.119,0,0,0-2.256-.3Zm2.64,2.24h1.584a2.02,2.02,0,0,1,.984.216,1.465,1.465,0,0,1,.6.608,1.831,1.831,0,0,1,.208.872,1.976,1.976,0,0,1-.208.9,1.584,1.584,0,0,1-.6.656,1.855,1.855,0,0,1-.984.24h-1.584Zm15.024,6.736q-.688.192-1.536.352a7.814,7.814,0,0,1-1.392.16,3.139,3.139,0,0,1-1.912-.44,1.537,1.537,0,0,1-.568-1.24h5.552V-4.848a4.264,4.264,0,0,0-1.024-3.144,3.935,3.935,0,0,0-2.9-1.016,5.213,5.213,0,0,0-1.776.288,3.657,3.657,0,0,0-1.368.856,3.733,3.733,0,0,0-.872,1.448,6.162,6.162,0,0,0-.3,2.016q0,4.592,4.512,4.592a13.08,13.08,0,0,0,3.584-.56Zm-5.44-2.992a1.512,1.512,0,0,1,.232-.808,1.277,1.277,0,0,1,.592-.528,1.752,1.752,0,0,1,.68-.152,1.629,1.629,0,0,1,.856.192,1.175,1.175,0,0,1,.464.528,2.031,2.031,0,0,1,.168.768Zm9.488-6.672h-2.56V0h2.56Zm4.288,3.392h-2.56V0h2.56Zm.032-3.216h-2.624v2.256h2.624Zm4.528,6.576a3.852,3.852,0,0,0-2.528.744,2.44,2.44,0,0,0-.9,1.976,3.224,3.224,0,0,0,.32,1.488,2.481,2.481,0,0,0,.936,1,2.819,2.819,0,0,0,1.5.376,4.68,4.68,0,0,0,2.7-.992h.064l.192.864h2.176V-5.728a3.051,3.051,0,0,0-.968-2.448,4.007,4.007,0,0,0-2.7-.832,16.762,16.762,0,0,0-1.76.1,17.079,17.079,0,0,0-1.728.264v2.112a10.053,10.053,0,0,1,1.4-.28,10.712,10.712,0,0,1,1.448-.12q1.744,0,1.744,1.024v.448Zm1.9,3.008a3.725,3.725,0,0,1-.8.328,3.181,3.181,0,0,1-.9.136,1.168,1.168,0,0,1-.76-.24.853.853,0,0,1-.3-.7q0-.864,1.3-.864h1.456Zm12.512-2.208a6.634,6.634,0,0,0-.264-1.968,3.8,3.8,0,0,0-.712-1.368,2.818,2.818,0,0,0-1.024-.768,3.043,3.043,0,0,0-1.216-.248,5.3,5.3,0,0,0-2.56.688v-3.888h-2.56V-.352a13.076,13.076,0,0,0,3.5.544,6.211,6.211,0,0,0,2.216-.352,3.848,3.848,0,0,0,1.512-1.008,3.855,3.855,0,0,0,.848-1.576A7.1,7.1,0,0,0-110.44-4.656Zm-2.608.144a3.229,3.229,0,0,1-.488,1.984,1.96,1.96,0,0,1-1.64.624,5.3,5.3,0,0,1-1.04-.1V-6.32a4.072,4.072,0,0,1,1.7-.464Q-113.048-6.784-113.048-4.512Zm6.464-7.7h-2.56V0h2.56Zm9.376,9.664q-.688.192-1.536.352a7.814,7.814,0,0,1-1.392.16,3.139,3.139,0,0,1-1.912-.44,1.537,1.537,0,0,1-.568-1.24h5.552V-4.848a4.264,4.264,0,0,0-1.024-3.144,3.935,3.935,0,0,0-2.9-1.016,5.213,5.213,0,0,0-1.776.288,3.657,3.657,0,0,0-1.368.856A3.733,3.733,0,0,0-105-6.416a6.162,6.162,0,0,0-.3,2.016q0,4.592,4.512,4.592a13.08,13.08,0,0,0,3.584-.56Zm-5.44-2.992a1.512,1.512,0,0,1,.232-.808,1.277,1.277,0,0,1,.592-.528,1.752,1.752,0,0,1,.68-.152,1.629,1.629,0,0,1,.856.192,1.175,1.175,0,0,1,.464.528,2.031,2.031,0,0,1,.168.768ZM-92.68,3.28h2.256l4.16-15.488h-2.288Zm11.328-14.8V0h2.64V-3.552h1.824L-75.224,0h2.96l-2.064-4.256a4.036,4.036,0,0,0,.88-.856,3.789,3.789,0,0,0,.608-1.176,4,4,0,0,0,.208-1.2,5.545,5.545,0,0,0-.224-1.576,2.949,2.949,0,0,0-.784-1.3,3.808,3.808,0,0,0-1.456-.848,7.119,7.119,0,0,0-2.256-.3Zm2.64,2.24h1.584a2.02,2.02,0,0,1,.984.216,1.465,1.465,0,0,1,.6.608,1.831,1.831,0,0,1,.208.872,1.976,1.976,0,0,1-.208.9,1.584,1.584,0,0,1-.6.656,1.855,1.855,0,0,1-.984.24h-1.584Zm15.024,6.736q-.688.192-1.536.352a7.814,7.814,0,0,1-1.392.16,3.139,3.139,0,0,1-1.912-.44,1.537,1.537,0,0,1-.568-1.24h5.552V-4.848a4.264,4.264,0,0,0-1.024-3.144,3.935,3.935,0,0,0-2.9-1.016,5.213,5.213,0,0,0-1.776.288,3.657,3.657,0,0,0-1.368.856,3.733,3.733,0,0,0-.872,1.448,6.162,6.162,0,0,0-.3,2.016q0,4.592,4.512,4.592a13.08,13.08,0,0,0,3.584-.56Zm-5.44-2.992a1.512,1.512,0,0,1,.232-.808,1.277,1.277,0,0,1,.592-.528,1.752,1.752,0,0,1,.68-.152,1.629,1.629,0,0,1,.856.192A1.175,1.175,0,0,1-66.3-6.3a2.031,2.031,0,0,1,.168.768Zm9.76.08a3.852,3.852,0,0,0-2.528.744,2.44,2.44,0,0,0-.9,1.976,3.224,3.224,0,0,0,.32,1.488,2.481,2.481,0,0,0,.936,1,2.819,2.819,0,0,0,1.5.376,4.68,4.68,0,0,0,2.7-.992h.064L-57.08,0H-54.9V-5.728a3.051,3.051,0,0,0-.968-2.448,4.006,4.006,0,0,0-2.7-.832,16.762,16.762,0,0,0-1.76.1,17.078,17.078,0,0,0-1.728.264v2.112a10.052,10.052,0,0,1,1.4-.28,10.712,10.712,0,0,1,1.448-.12q1.744,0,1.744,1.024v.448Zm1.9,3.008a3.725,3.725,0,0,1-.8.328,3.181,3.181,0,0,1-.9.136,1.168,1.168,0,0,1-.76-.24.853.853,0,0,1-.3-.7q0-.864,1.3-.864h1.456Zm6.768-9.76h-2.56V0h2.56Zm13.872.688h-9.824v2.24h3.6V0h2.624V-9.28h3.6Zm3.5,2.7h-2.56V0h2.56Zm.032-3.216h-2.624v2.256h2.624ZM-23.848,0V-6.048a4.147,4.147,0,0,1,.824-.456,2.349,2.349,0,0,1,.92-.2.771.771,0,0,1,.88.864V0h2.56V-6.336a3.183,3.183,0,0,0-.3-1.448,2.123,2.123,0,0,0-.856-.9,2.771,2.771,0,0,0-1.392-.32,3.666,3.666,0,0,0-1.416.3,7.3,7.3,0,0,0-1.528.9q-.064-.112-.272-.4a1.955,1.955,0,0,0-.712-.544,2.758,2.758,0,0,0-1.256-.256,5.164,5.164,0,0,0-2.752,1.072h-.064v-.88h-2.384V0h2.56V-6.048A4.956,4.956,0,0,1-28.16-6.5a2.337,2.337,0,0,1,.872-.2.771.771,0,0,1,.88.864V0ZM-9.336-2.544q-.688.192-1.536.352a7.814,7.814,0,0,1-1.392.16,3.139,3.139,0,0,1-1.912-.44,1.537,1.537,0,0,1-.568-1.24h5.552V-4.848a4.264,4.264,0,0,0-1.024-3.144,3.935,3.935,0,0,0-2.9-1.016,5.213,5.213,0,0,0-1.776.288,3.657,3.657,0,0,0-1.368.856,3.733,3.733,0,0,0-.872,1.448,6.162,6.162,0,0,0-.3,2.016q0,4.592,4.512,4.592a13.08,13.08,0,0,0,3.584-.56Zm-5.44-2.992a1.512,1.512,0,0,1,.232-.808,1.277,1.277,0,0,1,.592-.528,1.752,1.752,0,0,1,.68-.152,1.629,1.629,0,0,1,.856.192,1.175,1.175,0,0,1,.464.528,2.031,2.031,0,0,1,.168.768ZM-4.808,3.28h2.256l4.16-15.488H-.68ZM9.56-2.048A21.411,21.411,0,0,1,6.184-2.48v2.3A18.93,18.93,0,0,0,9.768.192,6.813,6.813,0,0,0,11.888-.1a3.888,3.888,0,0,0,1.424-.792,2.8,2.8,0,0,0,.784-1.2,4.549,4.549,0,0,0,.232-1.448A4.566,4.566,0,0,0,14.144-4.9a2.786,2.786,0,0,0-.544-1,2.573,2.573,0,0,0-.968-.672,8.485,8.485,0,0,0-1.9-.448A9.947,9.947,0,0,1,9.5-7.28,1.137,1.137,0,0,1,8.9-7.656a.953.953,0,0,1-.184-.584q0-1.232,2-1.232a19.754,19.754,0,0,1,3.088.3v-2.3q-.192-.016-.84-.088t-1.208-.112q-.56-.04-1.12-.04a5.575,5.575,0,0,0-3.456.9A3.158,3.158,0,0,0,6.024-8.16a4.184,4.184,0,0,0,.3,1.632,2.511,2.511,0,0,0,.968,1.144,4.9,4.9,0,0,0,1.92.632l.568.088q.456.072.808.16a1.8,1.8,0,0,1,.576.24,1.023,1.023,0,0,1,.336.36,1.032,1.032,0,0,1,.112.5A1.139,1.139,0,0,1,11.08-2.4,2.738,2.738,0,0,1,9.56-2.048Zm10.5.032a2.6,2.6,0,0,1-1.232-.264,1.865,1.865,0,0,1-.776-.784,2.805,2.805,0,0,1-.28-1.336,2.453,2.453,0,0,1,.576-1.84,2.408,2.408,0,0,1,1.712-.544,8,8,0,0,1,2.352.368V-8.624a9.651,9.651,0,0,0-2.784-.384,6.056,6.056,0,0,0-1.656.224,3.817,3.817,0,0,0-1.424.752,3.639,3.639,0,0,0-1.008,1.44A5.743,5.743,0,0,0,15.16-4.4a5.743,5.743,0,0,0,.376,2.192A3.571,3.571,0,0,0,16.544-.776a3.878,3.878,0,0,0,1.424.744,6.056,6.056,0,0,0,1.656.224,9.651,9.651,0,0,0,2.784-.384V-2.384A8.566,8.566,0,0,1,20.056-2.016Zm6.56-3.44a3.852,3.852,0,0,0-2.528.744,2.44,2.44,0,0,0-.9,1.976,3.224,3.224,0,0,0,.32,1.488,2.481,2.481,0,0,0,.936,1,2.819,2.819,0,0,0,1.5.376,4.68,4.68,0,0,0,2.7-.992h.064L28.9,0H31.08V-5.728a3.051,3.051,0,0,0-.968-2.448,4.006,4.006,0,0,0-2.7-.832,16.762,16.762,0,0,0-1.76.1,17.078,17.078,0,0,0-1.728.264v2.112a10.052,10.052,0,0,1,1.4-.28,10.712,10.712,0,0,1,1.448-.12q1.744,0,1.744,1.024v.448Zm1.9,3.008a3.725,3.725,0,0,1-.8.328,3.181,3.181,0,0,1-.9.136,1.168,1.168,0,0,1-.76-.24.853.853,0,0,1-.3-.7q0-.864,1.3-.864H28.52Zm6.768-9.76h-2.56V0h2.56Zm4.56,6.752a3.852,3.852,0,0,0-2.528.744,2.44,2.44,0,0,0-.9,1.976,3.224,3.224,0,0,0,.32,1.488,2.481,2.481,0,0,0,.936,1,2.819,2.819,0,0,0,1.5.376,4.68,4.68,0,0,0,2.7-.992h.064L42.136,0h2.176V-5.728a3.051,3.051,0,0,0-.968-2.448,4.006,4.006,0,0,0-2.7-.832,16.762,16.762,0,0,0-1.76.1,17.078,17.078,0,0,0-1.728.264v2.112a10.052,10.052,0,0,1,1.4-.28,10.712,10.712,0,0,1,1.448-.12q1.744,0,1.744,1.024v.448Zm1.9,3.008a3.725,3.725,0,0,1-.8.328,3.181,3.181,0,0,1-.9.136,1.168,1.168,0,0,1-.76-.24.853.853,0,0,1-.3-.7q0-.864,1.3-.864h1.456ZM54.264-4.656A6.634,6.634,0,0,0,54-6.624a3.8,3.8,0,0,0-.712-1.368,2.818,2.818,0,0,0-1.024-.768,3.043,3.043,0,0,0-1.216-.248,5.3,5.3,0,0,0-2.56.688v-3.888h-2.56V-.352a13.077,13.077,0,0,0,3.5.544A6.211,6.211,0,0,0,51.648-.16,3.848,3.848,0,0,0,53.16-1.168a3.855,3.855,0,0,0,.848-1.576A7.1,7.1,0,0,0,54.264-4.656Zm-2.608.144a3.229,3.229,0,0,1-.488,1.984,1.96,1.96,0,0,1-1.64.624,5.3,5.3,0,0,1-1.04-.1V-6.32a4.072,4.072,0,0,1,1.7-.464Q51.656-6.784,51.656-4.512Zm6.464-7.7H55.56V0h2.56ZM67.5-2.544q-.688.192-1.536.352a7.814,7.814,0,0,1-1.392.16,3.139,3.139,0,0,1-1.912-.44,1.537,1.537,0,0,1-.568-1.24H67.64V-4.848a4.264,4.264,0,0,0-1.024-3.144,3.935,3.935,0,0,0-2.9-1.016,5.213,5.213,0,0,0-1.776.288,3.657,3.657,0,0,0-1.368.856A3.733,3.733,0,0,0,59.7-6.416,6.162,6.162,0,0,0,59.4-4.4Q59.4.192,63.912.192A13.08,13.08,0,0,0,67.5-.368Zm-5.44-2.992a1.512,1.512,0,0,1,.232-.808,1.277,1.277,0,0,1,.592-.528,1.752,1.752,0,0,1,.68-.152,1.629,1.629,0,0,1,.856.192,1.175,1.175,0,0,1,.464.528,2.031,2.031,0,0,1,.168.768ZM72.024,3.28H74.28l4.16-15.488H76.152Zm11.328-14.8V0H91.4V-2.24H85.992V-4.7H90.6V-6.928H85.992V-9.28h5.456v-2.24ZM100.568,0V-6.048a4.147,4.147,0,0,1,.824-.456,2.349,2.349,0,0,1,.92-.2.771.771,0,0,1,.88.864V0h2.56V-6.336a3.183,3.183,0,0,0-.3-1.448,2.123,2.123,0,0,0-.856-.9,2.771,2.771,0,0,0-1.392-.32,3.666,3.666,0,0,0-1.416.3,7.3,7.3,0,0,0-1.528.9q-.064-.112-.272-.4a1.955,1.955,0,0,0-.712-.544,2.758,2.758,0,0,0-1.256-.256,5.164,5.164,0,0,0-2.752,1.072h-.064v-.88H92.824V0h2.56V-6.048a4.956,4.956,0,0,1,.872-.456,2.337,2.337,0,0,1,.872-.2.771.771,0,0,1,.88.864V0Zm9.424,3.28V-.064a7.037,7.037,0,0,0,1.616.192,4.813,4.813,0,0,0,1.648-.272,3.509,3.509,0,0,0,1.32-.848,3.853,3.853,0,0,0,.88-1.5,6.764,6.764,0,0,0,.312-2.168,6.19,6.19,0,0,0-.376-2.288,3.465,3.465,0,0,0-1.088-1.5,2.7,2.7,0,0,0-1.7-.552,3.736,3.736,0,0,0-1.32.256A4.807,4.807,0,0,0,109.992-8v-.816h-2.56V3.28Zm3.168-7.792a3.218,3.218,0,0,1-.472,1.928,1.69,1.69,0,0,1-1.448.632,4.7,4.7,0,0,1-1.248-.176v-3.92a3.305,3.305,0,0,1,1.776-.7,1.19,1.19,0,0,1,1.008.528A2.963,2.963,0,0,1,113.16-4.512Zm12.48.112a5.577,5.577,0,0,0-.336-2,3.871,3.871,0,0,0-.944-1.456,3.938,3.938,0,0,0-1.44-.864,5.492,5.492,0,0,0-1.808-.288,5.492,5.492,0,0,0-1.808.288,3.916,3.916,0,0,0-1.432.856,3.845,3.845,0,0,0-.936,1.448A5.626,5.626,0,0,0,116.6-4.4a5.56,5.56,0,0,0,.336,2.008,3.931,3.931,0,0,0,.936,1.448,3.776,3.776,0,0,0,1.432.856,5.636,5.636,0,0,0,1.808.28A5.492,5.492,0,0,0,122.92-.1a3.938,3.938,0,0,0,1.44-.864,3.881,3.881,0,0,0,.944-1.448A5.512,5.512,0,0,0,125.64-4.4Zm-2.624,0a3.069,3.069,0,0,1-.44,1.816,1.676,1.676,0,0,1-1.448.6,1.688,1.688,0,0,1-1.456-.608,3.033,3.033,0,0,1-.448-1.808,3.065,3.065,0,0,1,.448-1.824,1.688,1.688,0,0,1,1.456-.608,1.669,1.669,0,0,1,1.44.608A3.065,3.065,0,0,1,123.016-4.4Zm3.824-4.416v5.584a3.847,3.847,0,0,0,.736,2.576,2.893,2.893,0,0,0,2.3.848,4.183,4.183,0,0,0,2.912-1.264,3.805,3.805,0,0,0,3.12,1.264,4.6,4.6,0,0,0,3.04-.856,2.987,2.987,0,0,0,1.008-2.408V-8.816H137.4v5.68a.953.953,0,0,1-.4.848,1.846,1.846,0,0,1-1.056.272,1.6,1.6,0,0,1-.968-.256.952.952,0,0,1-.36-.784v-5.76H132.2v5.024a8.8,8.8,0,0,0,.064,1.168,3.754,3.754,0,0,1-1.76.608q-1.1,0-1.1-.88v-5.92Zm22.416,6.272q-.688.192-1.536.352a7.814,7.814,0,0,1-1.392.16,3.139,3.139,0,0,1-1.912-.44,1.537,1.537,0,0,1-.568-1.24H149.4V-4.848a4.264,4.264,0,0,0-1.024-3.144,3.935,3.935,0,0,0-2.9-1.016,5.213,5.213,0,0,0-1.776.288,3.657,3.657,0,0,0-1.368.856,3.733,3.733,0,0,0-.872,1.448,6.162,6.162,0,0,0-.3,2.016q0,4.592,4.512,4.592a13.08,13.08,0,0,0,3.584-.56Zm-5.44-2.992a1.512,1.512,0,0,1,.232-.808,1.277,1.277,0,0,1,.592-.528,1.752,1.752,0,0,1,.68-.152,1.629,1.629,0,0,1,.856.192,1.175,1.175,0,0,1,.464.528,2.031,2.031,0,0,1,.168.768Zm12.5-3.328a3.7,3.7,0,0,0-.664.088,4.024,4.024,0,0,0-.608.192,4.465,4.465,0,0,0-.616.312q-.32.192-.736.472t-.528.36V-8.816h-2.416V0h2.56V-5.392q1.456-.5,2.088-.648t.92-.2Z" transform="translate(706 2341)"/><path class="a" d="M10.88-11.52H8.048L5.68-2.9H5.312L2.752-11.52H-.064L3.632,0H7.2Zm3.3,2.7h-2.56V0h2.56Zm.032-3.216H11.584v2.256h2.624Zm5.136,3.024q-3.824,0-3.824,2.928a2.488,2.488,0,0,0,.56,1.648,3.574,3.574,0,0,0,2.08.976q.112.016.56.1a6.491,6.491,0,0,1,.72.176.755.755,0,0,1,.376.224.438.438,0,0,1,.1.264q0,.736-1.376.736a20.229,20.229,0,0,1-2.88-.3L15.6-.016q.608.1,1.528.152t1.544.056q3.856,0,3.856-2.992a2.526,2.526,0,0,0-.376-1.448,2.256,2.256,0,0,0-.984-.816,6.821,6.821,0,0,0-1.52-.424,4.471,4.471,0,0,1-1.24-.344.472.472,0,0,1-.28-.392.5.5,0,0,1,.36-.48,3.317,3.317,0,0,1,1.144-.144,13.741,13.741,0,0,1,2.336.256l.08-2.176a10.636,10.636,0,0,0-1.3-.176Q19.984-9.008,19.344-9.008Zm4.336.192V-2.48q0,2.672,2.592,2.672A5.943,5.943,0,0,0,29.184-.88h.064L29.44,0h2.192V-8.816h-2.56v6.048a4.852,4.852,0,0,1-2.016.656.811.811,0,0,1-.632-.208.973.973,0,0,1-.184-.656v-5.84Zm12.512,3.36a3.852,3.852,0,0,0-2.528.744,2.44,2.44,0,0,0-.9,1.976,3.224,3.224,0,0,0,.32,1.488,2.481,2.481,0,0,0,.936,1,2.819,2.819,0,0,0,1.5.376,4.68,4.68,0,0,0,2.7-.992h.064L38.48,0h2.176V-5.728a3.051,3.051,0,0,0-.968-2.448,4.006,4.006,0,0,0-2.7-.832,16.762,16.762,0,0,0-1.76.1A17.078,17.078,0,0,0,33.5-8.64v2.112a10.052,10.052,0,0,1,1.4-.28,10.712,10.712,0,0,1,1.448-.12Q38.1-6.928,38.1-5.9v.448Zm1.9,3.008a3.725,3.725,0,0,1-.8.328,3.181,3.181,0,0,1-.9.136,1.168,1.168,0,0,1-.76-.24.853.853,0,0,1-.3-.7q0-.864,1.3-.864H38.1Zm6.768-9.76H42.3V0h2.56Zm4.288,3.392h-2.56V0h2.56Zm.032-3.216H46.56v2.256h2.624ZM54.32-9.008Q50.5-9.008,50.5-6.08a2.488,2.488,0,0,0,.56,1.648,3.574,3.574,0,0,0,2.08.976q.112.016.56.1a6.491,6.491,0,0,1,.72.176.755.755,0,0,1,.376.224.438.438,0,0,1,.1.264q0,.736-1.376.736a20.229,20.229,0,0,1-2.88-.3l-.064,2.24q.608.1,1.528.152t1.544.056Q57.5.192,57.5-2.8a2.526,2.526,0,0,0-.376-1.448,2.256,2.256,0,0,0-.984-.816,6.821,6.821,0,0,0-1.52-.424,4.471,4.471,0,0,1-1.24-.344.472.472,0,0,1-.28-.392.5.5,0,0,1,.36-.48,3.317,3.317,0,0,1,1.144-.144,13.741,13.741,0,0,1,2.336.256l.08-2.176a10.636,10.636,0,0,0-1.3-.176Q54.96-9.008,54.32-9.008Zm7.216,3.552a3.852,3.852,0,0,0-2.528.744,2.44,2.44,0,0,0-.9,1.976,3.224,3.224,0,0,0,.32,1.488,2.481,2.481,0,0,0,.936,1,2.819,2.819,0,0,0,1.5.376,4.68,4.68,0,0,0,2.7-.992h.064L63.824,0H66V-5.728a3.051,3.051,0,0,0-.968-2.448,4.006,4.006,0,0,0-2.7-.832,16.762,16.762,0,0,0-1.76.1,17.078,17.078,0,0,0-1.728.264v2.112a10.052,10.052,0,0,1,1.4-.28,10.712,10.712,0,0,1,1.448-.12q1.744,0,1.744,1.024v.448Zm1.9,3.008a3.725,3.725,0,0,1-.8.328,3.181,3.181,0,0,1-.9.136,1.168,1.168,0,0,1-.76-.24.853.853,0,0,1-.3-.7q0-.864,1.3-.864H63.44Zm7.152-4.208h2.56v-2.16H70.608v-1.968H69.5l-2.528,2.4v1.728h1.056v4.624a2.249,2.249,0,0,0,.552,1.656A2.372,2.372,0,0,0,70.32.176,11.845,11.845,0,0,0,71.568.1,12.055,12.055,0,0,0,72.816-.1V-2.24a5.83,5.83,0,0,1-1.168.16q-1.056,0-1.056-.9Zm6.192-2.16h-2.56V0h2.56Zm.032-3.216H74.192v2.256h2.624ZM87.088-4.4a5.577,5.577,0,0,0-.336-2,3.871,3.871,0,0,0-.944-1.456,3.938,3.938,0,0,0-1.44-.864,5.492,5.492,0,0,0-1.808-.288,5.492,5.492,0,0,0-1.808.288,3.916,3.916,0,0,0-1.432.856,3.845,3.845,0,0,0-.936,1.448A5.626,5.626,0,0,0,78.048-4.4a5.56,5.56,0,0,0,.336,2.008A3.931,3.931,0,0,0,79.32-.944a3.776,3.776,0,0,0,1.432.856,5.636,5.636,0,0,0,1.808.28A5.492,5.492,0,0,0,84.368-.1a3.938,3.938,0,0,0,1.44-.864,3.881,3.881,0,0,0,.944-1.448A5.512,5.512,0,0,0,87.088-4.4Zm-2.624,0a3.069,3.069,0,0,1-.44,1.816,1.676,1.676,0,0,1-1.448.6,1.688,1.688,0,0,1-1.456-.608A3.033,3.033,0,0,1,80.672-4.4a3.065,3.065,0,0,1,.448-1.824,1.688,1.688,0,0,1,1.456-.608,1.669,1.669,0,0,1,1.44.608A3.065,3.065,0,0,1,84.464-4.4ZM96.3,0V-6.336q0-2.672-2.592-2.672A5.943,5.943,0,0,0,90.8-7.936h-.064v-.88H88.352V0h2.56V-6.048A4.852,4.852,0,0,1,92.928-6.7a.811.811,0,0,1,.632.208.973.973,0,0,1,.184.656V0Z" transform="translate(825 2138)"/><path class="a" d="M5.76-3.088a3.941,3.941,0,0,0,1.608-.328,3.934,3.934,0,0,0,1.288-.9,3.943,3.943,0,0,0,.832-1.352A4.63,4.63,0,0,0,9.776-7.3a4.562,4.562,0,0,0-.3-1.64,4.045,4.045,0,0,0-.84-1.352,3.891,3.891,0,0,0-1.3-.9A4.134,4.134,0,0,0,5.68-11.52H1.1V0h2.64V-3.088ZM3.744-9.28H5.36a1.517,1.517,0,0,1,1.3.576A2.28,2.28,0,0,1,7.088-7.3,2.254,2.254,0,0,1,6.656-5.9a1.517,1.517,0,0,1-1.3.576H3.744Zm9.68.464h-2.56V0h2.56Zm.032-3.216H10.832v2.256h2.624ZM17.712,3.28V-.064a7.037,7.037,0,0,0,1.616.192,4.813,4.813,0,0,0,1.648-.272A3.509,3.509,0,0,0,22.3-.992a3.853,3.853,0,0,0,.88-1.5,6.764,6.764,0,0,0,.312-2.168,6.19,6.19,0,0,0-.376-2.288,3.465,3.465,0,0,0-1.088-1.5,2.7,2.7,0,0,0-1.7-.552A3.736,3.736,0,0,0,19-8.736,4.807,4.807,0,0,0,17.712-8v-.816h-2.56V3.28ZM20.88-4.512a3.218,3.218,0,0,1-.472,1.928,1.69,1.69,0,0,1-1.448.632,4.7,4.7,0,0,1-1.248-.176v-3.92a3.305,3.305,0,0,1,1.776-.7,1.19,1.19,0,0,1,1.008.528A2.963,2.963,0,0,1,20.88-4.512ZM32.432-2.544q-.688.192-1.536.352a7.814,7.814,0,0,1-1.392.16,3.139,3.139,0,0,1-1.912-.44,1.537,1.537,0,0,1-.568-1.24h5.552V-4.848a4.264,4.264,0,0,0-1.024-3.144,3.935,3.935,0,0,0-2.9-1.016,5.213,5.213,0,0,0-1.776.288,3.657,3.657,0,0,0-1.368.856,3.733,3.733,0,0,0-.872,1.448,6.162,6.162,0,0,0-.3,2.016q0,4.592,4.512,4.592a13.08,13.08,0,0,0,3.584-.56Zm-5.44-2.992a1.512,1.512,0,0,1,.232-.808,1.277,1.277,0,0,1,.592-.528,1.752,1.752,0,0,1,.68-.152,1.629,1.629,0,0,1,.856.192,1.175,1.175,0,0,1,.464.528,2.031,2.031,0,0,1,.168.768Zm9.488-6.672H33.92V0h2.56Zm4.288,3.392h-2.56V0h2.56Zm.032-3.216H38.176v2.256H40.8ZM50.448,0V-6.336q0-2.672-2.592-2.672a5.943,5.943,0,0,0-2.912,1.072H44.88v-.88H42.5V0h2.56V-6.048A4.852,4.852,0,0,1,47.072-6.7.811.811,0,0,1,47.7-6.5a.973.973,0,0,1,.184.656V0Zm9.328-2.544q-.688.192-1.536.352a7.814,7.814,0,0,1-1.392.16,3.139,3.139,0,0,1-1.912-.44,1.537,1.537,0,0,1-.568-1.24H59.92V-4.848A4.264,4.264,0,0,0,58.9-7.992,3.935,3.935,0,0,0,56-9.008a5.213,5.213,0,0,0-1.776.288,3.657,3.657,0,0,0-1.368.856,3.733,3.733,0,0,0-.872,1.448,6.162,6.162,0,0,0-.3,2.016q0,4.592,4.512,4.592a13.08,13.08,0,0,0,3.584-.56Zm-5.44-2.992a1.512,1.512,0,0,1,.232-.808,1.277,1.277,0,0,1,.592-.528,1.752,1.752,0,0,1,.68-.152,1.629,1.629,0,0,1,.856.192,1.175,1.175,0,0,1,.464.528,2.031,2.031,0,0,1,.168.768Z" transform="translate(824 2094)"/><g transform="translate(38 -105)"><path class="d" d="M-69.872,0h2.752l.7-2.208h4.288L-61.44,0h2.752l-3.824-11.536h-3.552Zm5.488-9.312h.128L-62.784-4.5h-3.1ZM-50.032,0V-6.336q0-2.672-2.592-2.672a5.943,5.943,0,0,0-2.912,1.072H-55.6v-.88h-2.384V0h2.56V-6.048A4.852,4.852,0,0,1-53.408-6.7a.811.811,0,0,1,.632.208.973.973,0,0,1,.184.656V0Zm4.512-5.456a3.852,3.852,0,0,0-2.528.744,2.44,2.44,0,0,0-.9,1.976,3.224,3.224,0,0,0,.32,1.488,2.481,2.481,0,0,0,.936,1,2.819,2.819,0,0,0,1.5.376,4.68,4.68,0,0,0,2.7-.992h.064l.192.864h2.176V-5.728a3.051,3.051,0,0,0-.968-2.448,4.006,4.006,0,0,0-2.7-.832,16.762,16.762,0,0,0-1.76.1,17.078,17.078,0,0,0-1.728.264v2.112a10.052,10.052,0,0,1,1.4-.28,10.712,10.712,0,0,1,1.448-.12q1.744,0,1.744,1.024v.448Zm1.9,3.008a3.725,3.725,0,0,1-.8.328,3.181,3.181,0,0,1-.9.136,1.168,1.168,0,0,1-.76-.24.853.853,0,0,1-.3-.7q0-.864,1.3-.864h1.456Zm6.768-9.76h-2.56V0h2.56ZM-30.7,3.28l3.792-12.1h-2.72L-31.44-2.768h-.1l-1.712-6.048h-2.784L-33.248,0h.976l-1.072,3.28Zm7.568-9.936h2.56v-2.16H-23.12v-1.968h-1.1l-2.528,2.4v1.728H-25.7v4.624a2.249,2.249,0,0,0,.552,1.656,2.372,2.372,0,0,0,1.736.552A11.846,11.846,0,0,0-22.16.1,12.055,12.055,0,0,0-20.912-.1V-2.24a5.83,5.83,0,0,1-1.168.16q-1.056,0-1.056-.9Zm6.192-2.16H-19.5V0h2.56Zm.032-3.216h-2.624v2.256h2.624Zm6.144,10.016A2.6,2.6,0,0,1-12-2.28a1.865,1.865,0,0,1-.776-.784,2.805,2.805,0,0,1-.28-1.336,2.453,2.453,0,0,1,.576-1.84,2.408,2.408,0,0,1,1.712-.544,8,8,0,0,1,2.352.368V-8.624A9.651,9.651,0,0,0-11.2-9.008a6.056,6.056,0,0,0-1.656.224,3.817,3.817,0,0,0-1.424.752,3.639,3.639,0,0,0-1.008,1.44A5.743,5.743,0,0,0-15.664-4.4a5.743,5.743,0,0,0,.376,2.192A3.571,3.571,0,0,0-14.28-.776a3.878,3.878,0,0,0,1.424.744A6.056,6.056,0,0,0-11.2.192,9.651,9.651,0,0,0-8.416-.192V-2.384A8.566,8.566,0,0,1-10.768-2.016ZM-3.6-9.008q-3.824,0-3.824,2.928a2.488,2.488,0,0,0,.56,1.648,3.574,3.574,0,0,0,2.08.976q.112.016.56.1a6.491,6.491,0,0,1,.72.176.755.755,0,0,1,.376.224.438.438,0,0,1,.1.264q0,.736-1.376.736a20.229,20.229,0,0,1-2.88-.3l-.064,2.24q.608.1,1.528.152t1.544.056Q-.416.192-.416-2.8A2.526,2.526,0,0,0-.792-4.248a2.256,2.256,0,0,0-.984-.816A6.821,6.821,0,0,0-3.3-5.488a4.471,4.471,0,0,1-1.24-.344.472.472,0,0,1-.28-.392.5.5,0,0,1,.36-.48,3.317,3.317,0,0,1,1.144-.144,13.741,13.741,0,0,1,2.336.256L-.9-8.768a10.636,10.636,0,0,0-1.3-.176Q-2.96-9.008-3.6-9.008Z" transform="translate(1180 2024)"/><path class="d" d="M-92.96-3.088a3.941,3.941,0,0,0,1.608-.328,3.934,3.934,0,0,0,1.288-.9,3.943,3.943,0,0,0,.832-1.352A4.63,4.63,0,0,0-88.944-7.3a4.562,4.562,0,0,0-.3-1.64,4.045,4.045,0,0,0-.84-1.352,3.891,3.891,0,0,0-1.3-.9,4.134,4.134,0,0,0-1.656-.328h-4.576V0h2.64V-3.088ZM-94.976-9.28h1.616a1.517,1.517,0,0,1,1.3.576A2.28,2.28,0,0,1-91.632-7.3,2.254,2.254,0,0,1-92.064-5.9a1.517,1.517,0,0,1-1.3.576h-1.616Zm14.768,6.736q-.688.192-1.536.352a7.814,7.814,0,0,1-1.392.16,3.139,3.139,0,0,1-1.912-.44,1.537,1.537,0,0,1-.568-1.24h5.552V-4.848a4.264,4.264,0,0,0-1.024-3.144,3.935,3.935,0,0,0-2.9-1.016,5.213,5.213,0,0,0-1.776.288,3.657,3.657,0,0,0-1.368.856A3.733,3.733,0,0,0-88-6.416,6.162,6.162,0,0,0-88.3-4.4q0,4.592,4.512,4.592a13.08,13.08,0,0,0,3.584-.56Zm-5.44-2.992a1.512,1.512,0,0,1,.232-.808,1.277,1.277,0,0,1,.592-.528,1.752,1.752,0,0,1,.68-.152,1.629,1.629,0,0,1,.856.192,1.175,1.175,0,0,1,.464.528,2.031,2.031,0,0,1,.168.768Zm12.5-3.328a3.7,3.7,0,0,0-.664.088,4.024,4.024,0,0,0-.608.192,4.465,4.465,0,0,0-.616.312q-.32.192-.736.472t-.528.36V-8.816H-78.72V0h2.56V-5.392q1.456-.5,2.088-.648t.92-.2Zm6.528-3.376a15.306,15.306,0,0,0-2.128-.16,3.385,3.385,0,0,0-2.232.6,2.574,2.574,0,0,0-.7,2.04v.96l-1.072.192v1.952h1.072V0h2.528V-6.656h2.272v-2.16h-2.352V-9.3q0-.688.36-.848a2.278,2.278,0,0,1,.92-.16,9.908,9.908,0,0,1,1.328.112Zm9.2,7.84a5.577,5.577,0,0,0-.336-2A3.871,3.871,0,0,0-58.7-7.856a3.938,3.938,0,0,0-1.44-.864,5.492,5.492,0,0,0-1.808-.288,5.492,5.492,0,0,0-1.808.288,3.916,3.916,0,0,0-1.432.856,3.845,3.845,0,0,0-.936,1.448A5.626,5.626,0,0,0-66.464-4.4a5.56,5.56,0,0,0,.336,2.008,3.931,3.931,0,0,0,.936,1.448,3.776,3.776,0,0,0,1.432.856,5.636,5.636,0,0,0,1.808.28A5.492,5.492,0,0,0-60.144-.1,3.938,3.938,0,0,0-58.7-.96a3.881,3.881,0,0,0,.944-1.448A5.512,5.512,0,0,0-57.424-4.4Zm-2.624,0a3.069,3.069,0,0,1-.44,1.816,1.676,1.676,0,0,1-1.448.6,1.688,1.688,0,0,1-1.456-.608A3.033,3.033,0,0,1-63.84-4.4a3.065,3.065,0,0,1,.448-1.824,1.688,1.688,0,0,1,1.456-.608,1.669,1.669,0,0,1,1.44.608A3.065,3.065,0,0,1-60.048-4.4Zm9.456-4.464a3.7,3.7,0,0,0-.664.088,4.024,4.024,0,0,0-.608.192,4.465,4.465,0,0,0-.616.312q-.32.192-.736.472t-.528.36V-8.816H-56.16V0h2.56V-5.392q1.456-.5,2.088-.648t.92-.2ZM-41.856,0V-6.048a4.147,4.147,0,0,1,.824-.456,2.349,2.349,0,0,1,.92-.2.771.771,0,0,1,.88.864V0h2.56V-6.336a3.183,3.183,0,0,0-.3-1.448,2.123,2.123,0,0,0-.856-.9,2.771,2.771,0,0,0-1.392-.32,3.666,3.666,0,0,0-1.416.3,7.3,7.3,0,0,0-1.528.9q-.064-.112-.272-.4a1.955,1.955,0,0,0-.712-.544A2.758,2.758,0,0,0-44.4-9.008a5.164,5.164,0,0,0-2.752,1.072h-.064v-.88H-49.6V0h2.56V-6.048a4.956,4.956,0,0,1,.872-.456,2.337,2.337,0,0,1,.872-.2.771.771,0,0,1,.88.864V0Zm9.7-5.456a3.852,3.852,0,0,0-2.528.744,2.44,2.44,0,0,0-.9,1.976,3.224,3.224,0,0,0,.32,1.488,2.481,2.481,0,0,0,.936,1,2.819,2.819,0,0,0,1.5.376,4.68,4.68,0,0,0,2.7-.992h.064l.192.864H-27.7V-5.728a3.051,3.051,0,0,0-.968-2.448,4.006,4.006,0,0,0-2.7-.832,16.762,16.762,0,0,0-1.76.1,17.078,17.078,0,0,0-1.728.264v2.112a10.052,10.052,0,0,1,1.4-.28A10.712,10.712,0,0,1-32-6.928q1.744,0,1.744,1.024v.448Zm1.9,3.008a3.725,3.725,0,0,1-.8.328,3.181,3.181,0,0,1-.9.136,1.168,1.168,0,0,1-.76-.24.853.853,0,0,1-.3-.7q0-.864,1.3-.864h1.456ZM-18.1,0V-6.336q0-2.672-2.592-2.672A5.943,5.943,0,0,0-23.6-7.936h-.064v-.88h-2.384V0h2.56V-6.048A4.852,4.852,0,0,1-21.472-6.7a.811.811,0,0,1,.632.208.973.973,0,0,1,.184.656V0Zm6.128-2.016A2.6,2.6,0,0,1-13.2-2.28a1.865,1.865,0,0,1-.776-.784,2.805,2.805,0,0,1-.28-1.336,2.453,2.453,0,0,1,.576-1.84,2.408,2.408,0,0,1,1.712-.544,8,8,0,0,1,2.352.368V-8.624A9.651,9.651,0,0,0-12.4-9.008a6.056,6.056,0,0,0-1.656.224,3.817,3.817,0,0,0-1.424.752,3.639,3.639,0,0,0-1.008,1.44A5.743,5.743,0,0,0-16.864-4.4a5.743,5.743,0,0,0,.376,2.192A3.571,3.571,0,0,0-15.48-.776a3.878,3.878,0,0,0,1.424.744A6.056,6.056,0,0,0-12.4.192,9.651,9.651,0,0,0-9.616-.192V-2.384A8.566,8.566,0,0,1-11.968-2.016ZM-.7-2.544q-.688.192-1.536.352a7.814,7.814,0,0,1-1.392.16,3.139,3.139,0,0,1-1.912-.44,1.537,1.537,0,0,1-.568-1.24H-.56V-4.848A4.264,4.264,0,0,0-1.584-7.992a3.935,3.935,0,0,0-2.9-1.016,5.213,5.213,0,0,0-1.776.288,3.657,3.657,0,0,0-1.368.856A3.733,3.733,0,0,0-8.5-6.416,6.162,6.162,0,0,0-8.8-4.4Q-8.8.192-4.288.192A13.08,13.08,0,0,0-.7-.368Zm-5.44-2.992a1.512,1.512,0,0,1,.232-.808,1.277,1.277,0,0,1,.592-.528,1.752,1.752,0,0,1,.68-.152,1.629,1.629,0,0,1,.856.192A1.175,1.175,0,0,1-3.32-6.3a2.031,2.031,0,0,1,.168.768Z" transform="translate(1180 2112)"/><path class="d" d="M-62.384.032l2.336-8.464h.144V0h2.5V-11.52h-4.128L-63.776-3.1h-.16l-2.192-8.416h-4.224V0h2.512V-8.432h.128L-65.456.032ZM-47.04-4.4a5.577,5.577,0,0,0-.336-2,3.871,3.871,0,0,0-.944-1.456,3.938,3.938,0,0,0-1.44-.864,5.492,5.492,0,0,0-1.808-.288,5.492,5.492,0,0,0-1.808.288,3.916,3.916,0,0,0-1.432.856,3.845,3.845,0,0,0-.936,1.448A5.626,5.626,0,0,0-56.08-4.4a5.56,5.56,0,0,0,.336,2.008,3.931,3.931,0,0,0,.936,1.448,3.776,3.776,0,0,0,1.432.856,5.636,5.636,0,0,0,1.808.28A5.492,5.492,0,0,0-49.76-.1,3.938,3.938,0,0,0-48.32-.96a3.881,3.881,0,0,0,.944-1.448A5.512,5.512,0,0,0-47.04-4.4Zm-2.624,0a3.069,3.069,0,0,1-.44,1.816,1.676,1.676,0,0,1-1.448.6,1.688,1.688,0,0,1-1.456-.608A3.033,3.033,0,0,1-53.456-4.4a3.065,3.065,0,0,1,.448-1.824,1.688,1.688,0,0,1,1.456-.608,1.669,1.669,0,0,1,1.44.608A3.065,3.065,0,0,1-49.664-4.4Zm3.456.24a5.572,5.572,0,0,0,.44,2.344A3.379,3.379,0,0,0-44.536-.352a3.416,3.416,0,0,0,1.9.512,4.709,4.709,0,0,0,1.256-.184A5.611,5.611,0,0,0-40.192-.5l.224.5h2.1V-12.208h-2.544v3.28a10.566,10.566,0,0,0-1.2-.08Q-46.208-9.008-46.208-4.16ZM-43.6-4.3a2.973,2.973,0,0,1,.536-1.984,2.161,2.161,0,0,1,1.7-.608,6.557,6.557,0,0,1,.928.064v4.4a4.038,4.038,0,0,1-1.6.416,1.4,1.4,0,0,1-.912-.312,1.449,1.449,0,0,1-.5-.8,4.493,4.493,0,0,1-.136-.776Q-43.6-4.192-43.6-4.3Zm15.1,1.76q-.688.192-1.536.352a7.814,7.814,0,0,1-1.392.16,3.139,3.139,0,0,1-1.912-.44,1.537,1.537,0,0,1-.568-1.24h5.552V-4.848a4.264,4.264,0,0,0-1.024-3.144,3.935,3.935,0,0,0-2.9-1.016,5.213,5.213,0,0,0-1.776.288,3.657,3.657,0,0,0-1.368.856,3.733,3.733,0,0,0-.872,1.448,6.162,6.162,0,0,0-.3,2.016q0,4.592,4.512,4.592A13.08,13.08,0,0,0-28.5-.368Zm-5.44-2.992a1.512,1.512,0,0,1,.232-.808,1.277,1.277,0,0,1,.592-.528,1.752,1.752,0,0,1,.68-.152,1.629,1.629,0,0,1,.856.192,1.175,1.175,0,0,1,.464.528,2.031,2.031,0,0,1,.168.768Zm9.488-6.672h-2.56V0h2.56Zm4.288,3.392h-2.56V0h2.56Zm.032-3.216h-2.624v2.256h2.624ZM-10.48,0V-6.336q0-2.672-2.592-2.672a5.943,5.943,0,0,0-2.912,1.072h-.064v-.88h-2.384V0h2.56V-6.048A4.852,4.852,0,0,1-13.856-6.7a.811.811,0,0,1,.632.208.973.973,0,0,1,.184.656V0Zm1.232-5.744a2.7,2.7,0,0,0,.416,1.5,2.582,2.582,0,0,0,1.12.96,1.514,1.514,0,0,0-.688.624,1.68,1.68,0,0,0-.224.832,1.336,1.336,0,0,0,.184.64,1.371,1.371,0,0,0,.5.528v.1A1.787,1.787,0,0,0-9.392,1.3a1.763,1.763,0,0,0,.96,1.632,6.211,6.211,0,0,0,2.96.544A9.17,9.17,0,0,0-2.616,3.1,3.54,3.54,0,0,0-.984,2.1,2.337,2.337,0,0,0-.448.544a2.181,2.181,0,0,0-.664-1.752,3.382,3.382,0,0,0-2.2-.568H-5.824a.6.6,0,0,1-.456-.16.579.579,0,0,1-.152-.416,1.064,1.064,0,0,1,.144-.528A7.246,7.246,0,0,0-5.12-2.8a5.339,5.339,0,0,0,2.144-.368A2.817,2.817,0,0,0-1.728-4.16a2.678,2.678,0,0,0,.416-1.52,2.047,2.047,0,0,0-.144-.752,1.887,1.887,0,0,0-.368-.608l1.6.032V-8.992a10.644,10.644,0,0,1-1.984.176q-.688,0-1.728-.1t-1.36-.1a4.355,4.355,0,0,0-2.9.888A2.956,2.956,0,0,0-9.248-5.744Zm5.376-.048a1.217,1.217,0,0,1-.336.936,1.514,1.514,0,0,1-1.056.312q-1.408,0-1.408-1.232,0-1.264,1.408-1.264A1.442,1.442,0,0,1-4.208-6.7,1.232,1.232,0,0,1-3.872-5.792Zm.016,5.92q.784,0,.784.672a.75.75,0,0,1-.512.72,4.02,4.02,0,0,1-1.536.224,3.742,3.742,0,0,1-1.272-.152.586.586,0,0,1-.376-.6q0-.864,1.168-.864Z" transform="translate(1180 2068)"/><path class="d" d="M-73.44-5.776A8.6,8.6,0,0,0-73.1-3.248a4.9,4.9,0,0,0,1.032,1.88,4.444,4.444,0,0,0,1.72,1.16,6.544,6.544,0,0,0,2.376.4A10.49,10.49,0,0,0-66.36.056a7.636,7.636,0,0,0,1.576-.408v-2.32a6.179,6.179,0,0,1-1.432.464,7.233,7.233,0,0,1-1.416.16,3.143,3.143,0,0,1-1.68-.424A2.766,2.766,0,0,1-70.376-3.72a5.134,5.134,0,0,1-.376-2.12,3.929,3.929,0,0,1,.816-2.784,3.249,3.249,0,0,1,2.448-.848,6.763,6.763,0,0,1,1.336.16,11.053,11.053,0,0,1,1.336.352v-2.352a11.992,11.992,0,0,0-3.184-.4,6.133,6.133,0,0,0-2.288.408,4.588,4.588,0,0,0-1.728,1.184A5.116,5.116,0,0,0-73.08-8.24,7.921,7.921,0,0,0-73.44-5.776Zm10-3.04V-2.48q0,2.672,2.592,2.672A5.943,5.943,0,0,0-57.936-.88h.064l.192.88h2.192V-8.816h-2.56v6.048a4.852,4.852,0,0,1-2.016.656A.811.811,0,0,1-60.7-2.32a.973.973,0,0,1-.184-.656v-5.84Zm13.12-.192q-3.824,0-3.824,2.928a2.488,2.488,0,0,0,.56,1.648,3.574,3.574,0,0,0,2.08.976q.112.016.56.1a6.491,6.491,0,0,1,.72.176.755.755,0,0,1,.376.224.438.438,0,0,1,.1.264q0,.736-1.376.736a20.229,20.229,0,0,1-2.88-.3l-.064,2.24q.608.1,1.528.152t1.544.056q3.856,0,3.856-2.992a2.526,2.526,0,0,0-.376-1.448,2.256,2.256,0,0,0-.984-.816,6.821,6.821,0,0,0-1.52-.424,4.471,4.471,0,0,1-1.24-.344.472.472,0,0,1-.28-.392.5.5,0,0,1,.36-.48,3.317,3.317,0,0,1,1.144-.144,13.741,13.741,0,0,1,2.336.256l.08-2.176a10.636,10.636,0,0,0-1.3-.176Q-49.68-9.008-50.32-9.008Zm7.328,2.352h2.56v-2.16h-2.544v-1.968h-1.1l-2.528,2.4v1.728h1.056v4.624A2.249,2.249,0,0,0-45-.376a2.372,2.372,0,0,0,1.736.552A11.846,11.846,0,0,0-42.016.1,12.055,12.055,0,0,0-40.768-.1V-2.24a5.83,5.83,0,0,1-1.168.16q-1.056,0-1.056-.9ZM-30.784-4.4a5.577,5.577,0,0,0-.336-2,3.871,3.871,0,0,0-.944-1.456A3.938,3.938,0,0,0-33.5-8.72a5.492,5.492,0,0,0-1.808-.288,5.492,5.492,0,0,0-1.808.288,3.916,3.916,0,0,0-1.432.856,3.845,3.845,0,0,0-.936,1.448A5.626,5.626,0,0,0-39.824-4.4a5.56,5.56,0,0,0,.336,2.008,3.931,3.931,0,0,0,.936,1.448,3.776,3.776,0,0,0,1.432.856,5.636,5.636,0,0,0,1.808.28A5.492,5.492,0,0,0-33.5-.1a3.938,3.938,0,0,0,1.44-.864,3.881,3.881,0,0,0,.944-1.448A5.512,5.512,0,0,0-30.784-4.4Zm-2.624,0a3.069,3.069,0,0,1-.44,1.816,1.676,1.676,0,0,1-1.448.6,1.688,1.688,0,0,1-1.456-.608A3.033,3.033,0,0,1-37.2-4.4a3.065,3.065,0,0,1,.448-1.824A1.688,1.688,0,0,1-35.3-6.832a1.669,1.669,0,0,1,1.44.608A3.065,3.065,0,0,1-33.408-4.4ZM-21.776,0V-6.048a4.147,4.147,0,0,1,.824-.456,2.349,2.349,0,0,1,.92-.2.771.771,0,0,1,.88.864V0h2.56V-6.336a3.183,3.183,0,0,0-.3-1.448,2.123,2.123,0,0,0-.856-.9,2.771,2.771,0,0,0-1.392-.32,3.666,3.666,0,0,0-1.416.3,7.3,7.3,0,0,0-1.528.9q-.064-.112-.272-.4a1.955,1.955,0,0,0-.712-.544,2.758,2.758,0,0,0-1.256-.256,5.164,5.164,0,0,0-2.752,1.072h-.064v-.88H-29.52V0h2.56V-6.048a4.956,4.956,0,0,1,.872-.456,2.337,2.337,0,0,1,.872-.2.771.771,0,0,1,.88.864V0ZM-7.264-2.544q-.688.192-1.536.352a7.814,7.814,0,0,1-1.392.16,3.139,3.139,0,0,1-1.912-.44,1.537,1.537,0,0,1-.568-1.24H-7.12V-4.848A4.264,4.264,0,0,0-8.144-7.992a3.935,3.935,0,0,0-2.9-1.016,5.213,5.213,0,0,0-1.776.288,3.657,3.657,0,0,0-1.368.856,3.733,3.733,0,0,0-.872,1.448,6.162,6.162,0,0,0-.3,2.016q0,4.592,4.512,4.592a13.08,13.08,0,0,0,3.584-.56ZM-12.7-5.536a1.512,1.512,0,0,1,.232-.808,1.277,1.277,0,0,1,.592-.528,1.752,1.752,0,0,1,.68-.152,1.629,1.629,0,0,1,.856.192A1.175,1.175,0,0,1-9.88-6.3a2.031,2.031,0,0,1,.168.768Zm12.5-3.328a3.7,3.7,0,0,0-.664.088,4.024,4.024,0,0,0-.608.192,4.465,4.465,0,0,0-.616.312q-.32.192-.736.472t-.528.36V-8.816H-5.776V0h2.56V-5.392q1.456-.5,2.088-.648t.92-.2Z" transform="translate(1180 2156)"/></g><g transform="translate(27 -117)"><path class="d" d="M5.76-3.088a3.941,3.941,0,0,0,1.608-.328,3.934,3.934,0,0,0,1.288-.9,3.943,3.943,0,0,0,.832-1.352A4.63,4.63,0,0,0,9.776-7.3a4.562,4.562,0,0,0-.3-1.64,4.045,4.045,0,0,0-.84-1.352,3.891,3.891,0,0,0-1.3-.9A4.134,4.134,0,0,0,5.68-11.52H1.1V0h2.64V-3.088ZM3.744-9.28H5.36a1.517,1.517,0,0,1,1.3.576A2.28,2.28,0,0,1,7.088-7.3,2.254,2.254,0,0,1,6.656-5.9a1.517,1.517,0,0,1-1.3.576H3.744Zm12.688.416a3.7,3.7,0,0,0-.664.088,4.024,4.024,0,0,0-.608.192,4.465,4.465,0,0,0-.616.312q-.32.192-.736.472t-.528.36V-8.816H10.864V0h2.56V-5.392q1.456-.5,2.088-.648t.92-.2Zm3.552.048h-2.56V0h2.56Zm.032-3.216H17.392v2.256h2.624ZM26.16-2.016a2.6,2.6,0,0,1-1.232-.264,1.865,1.865,0,0,1-.776-.784,2.805,2.805,0,0,1-.28-1.336,2.453,2.453,0,0,1,.576-1.84,2.408,2.408,0,0,1,1.712-.544,8,8,0,0,1,2.352.368V-8.624a9.651,9.651,0,0,0-2.784-.384,6.056,6.056,0,0,0-1.656.224,3.817,3.817,0,0,0-1.424.752,3.639,3.639,0,0,0-1.008,1.44A5.743,5.743,0,0,0,21.264-4.4a5.743,5.743,0,0,0,.376,2.192A3.571,3.571,0,0,0,22.648-.776a3.878,3.878,0,0,0,1.424.744,6.056,6.056,0,0,0,1.656.224,9.651,9.651,0,0,0,2.784-.384V-2.384A8.566,8.566,0,0,1,26.16-2.016Zm6.288-6.8h-2.56V0h2.56Zm.032-3.216H29.856v2.256H32.48ZM42.128,0V-6.336q0-2.672-2.592-2.672a5.943,5.943,0,0,0-2.912,1.072H36.56v-.88H34.176V0h2.56V-6.048A4.852,4.852,0,0,1,38.752-6.7a.811.811,0,0,1,.632.208.973.973,0,0,1,.184.656V0ZM43.36-5.744a2.7,2.7,0,0,0,.416,1.5,2.582,2.582,0,0,0,1.12.96,1.514,1.514,0,0,0-.688.624,1.68,1.68,0,0,0-.224.832,1.336,1.336,0,0,0,.184.64,1.371,1.371,0,0,0,.5.528v.1A1.787,1.787,0,0,0,43.216,1.3a1.763,1.763,0,0,0,.96,1.632,6.211,6.211,0,0,0,2.96.544A9.17,9.17,0,0,0,49.992,3.1,3.54,3.54,0,0,0,51.624,2.1,2.337,2.337,0,0,0,52.16.544,2.181,2.181,0,0,0,51.5-1.208a3.382,3.382,0,0,0-2.2-.568H46.784a.6.6,0,0,1-.456-.16.579.579,0,0,1-.152-.416,1.064,1.064,0,0,1,.144-.528,7.246,7.246,0,0,0,1.168.08,5.339,5.339,0,0,0,2.144-.368A2.817,2.817,0,0,0,50.88-4.16,2.678,2.678,0,0,0,51.3-5.68a2.047,2.047,0,0,0-.144-.752,1.887,1.887,0,0,0-.368-.608l1.6.032V-8.992a10.644,10.644,0,0,1-1.984.176q-.688,0-1.728-.1t-1.36-.1a4.355,4.355,0,0,0-2.9.888A2.956,2.956,0,0,0,43.36-5.744Zm5.376-.048a1.217,1.217,0,0,1-.336.936,1.514,1.514,0,0,1-1.056.312q-1.408,0-1.408-1.232,0-1.264,1.408-1.264A1.442,1.442,0,0,1,48.4-6.7,1.232,1.232,0,0,1,48.736-5.792Zm.016,5.92q.784,0,.784.672a.75.75,0,0,1-.512.72,4.02,4.02,0,0,1-1.536.224,3.742,3.742,0,0,1-1.272-.152.586.586,0,0,1-.376-.6q0-.864,1.168-.864Z" transform="translate(196 1992)"/><path class="d" d="M1.1-11.52V0h2.64V-4.272H8.416v-2.24H3.744V-9.28H9.136v-2.24Zm11.712,2.7h-2.56V0h2.56Zm.032-3.216H10.224v2.256h2.624ZM22.5,0V-6.336q0-2.672-2.592-2.672a5.943,5.943,0,0,0-2.912,1.072h-.064v-.88H14.544V0H17.1V-6.048A4.852,4.852,0,0,1,19.12-6.7a.811.811,0,0,1,.632.208.973.973,0,0,1,.184.656V0Zm4.512-5.456a3.852,3.852,0,0,0-2.528.744,2.44,2.44,0,0,0-.9,1.976,3.224,3.224,0,0,0,.32,1.488,2.481,2.481,0,0,0,.936,1,2.819,2.819,0,0,0,1.5.376,4.68,4.68,0,0,0,2.7-.992H29.1L29.3,0h2.176V-5.728A3.051,3.051,0,0,0,30.5-8.176a4.006,4.006,0,0,0-2.7-.832,16.762,16.762,0,0,0-1.76.1,17.078,17.078,0,0,0-1.728.264v2.112a10.052,10.052,0,0,1,1.4-.28,10.712,10.712,0,0,1,1.448-.12q1.744,0,1.744,1.024v.448Zm1.9,3.008a3.725,3.725,0,0,1-.8.328,3.181,3.181,0,0,1-.9.136,1.168,1.168,0,0,1-.76-.24.853.853,0,0,1-.3-.7q0-.864,1.3-.864h1.456ZM41.072,0V-6.336q0-2.672-2.592-2.672a5.943,5.943,0,0,0-2.912,1.072H35.5v-.88H33.12V0h2.56V-6.048A4.852,4.852,0,0,1,37.7-6.7a.811.811,0,0,1,.632.208.973.973,0,0,1,.184.656V0ZM47.2-2.016a2.6,2.6,0,0,1-1.232-.264,1.865,1.865,0,0,1-.776-.784,2.805,2.805,0,0,1-.28-1.336,2.453,2.453,0,0,1,.576-1.84A2.408,2.408,0,0,1,47.2-6.784a8,8,0,0,1,2.352.368V-8.624a9.651,9.651,0,0,0-2.784-.384,6.056,6.056,0,0,0-1.656.224,3.817,3.817,0,0,0-1.424.752,3.639,3.639,0,0,0-1.008,1.44A5.743,5.743,0,0,0,42.3-4.4a5.743,5.743,0,0,0,.376,2.192A3.571,3.571,0,0,0,43.688-.776a3.878,3.878,0,0,0,1.424.744,6.056,6.056,0,0,0,1.656.224,9.651,9.651,0,0,0,2.784-.384V-2.384A8.566,8.566,0,0,1,47.2-2.016Zm6.288-6.8h-2.56V0h2.56Zm.032-3.216H50.9v2.256H53.52Zm4.528,6.576a3.852,3.852,0,0,0-2.528.744,2.44,2.44,0,0,0-.9,1.976,3.224,3.224,0,0,0,.32,1.488,2.481,2.481,0,0,0,.936,1,2.819,2.819,0,0,0,1.5.376,4.68,4.68,0,0,0,2.7-.992h.064L60.336,0h2.176V-5.728a3.051,3.051,0,0,0-.968-2.448,4.006,4.006,0,0,0-2.7-.832,16.762,16.762,0,0,0-1.76.1,17.078,17.078,0,0,0-1.728.264v2.112a10.052,10.052,0,0,1,1.4-.28,10.712,10.712,0,0,1,1.448-.12q1.744,0,1.744,1.024v.448Zm1.9,3.008a3.725,3.725,0,0,1-.8.328,3.181,3.181,0,0,1-.9.136,1.168,1.168,0,0,1-.76-.24.853.853,0,0,1-.3-.7q0-.864,1.3-.864h1.456Zm6.768-9.76H64.16V0h2.56Zm5.168,3.2q-3.824,0-3.824,2.928a2.488,2.488,0,0,0,.56,1.648,3.574,3.574,0,0,0,2.08.976q.112.016.56.1a6.491,6.491,0,0,1,.72.176.755.755,0,0,1,.376.224.438.438,0,0,1,.1.264q0,.736-1.376.736a20.229,20.229,0,0,1-2.88-.3l-.064,2.24q.608.1,1.528.152t1.544.056q3.856,0,3.856-2.992A2.526,2.526,0,0,0,74.7-4.248a2.256,2.256,0,0,0-.984-.816,6.821,6.821,0,0,0-1.52-.424,4.471,4.471,0,0,1-1.24-.344.472.472,0,0,1-.28-.392.5.5,0,0,1,.36-.48,3.317,3.317,0,0,1,1.144-.144,13.741,13.741,0,0,1,2.336.256l.08-2.176a10.636,10.636,0,0,0-1.3-.176Q72.528-9.008,71.888-9.008Z" transform="translate(196 2124)"/><path class="d" d="M4.144-2.048A21.411,21.411,0,0,1,.768-2.48v2.3A18.93,18.93,0,0,0,4.352.192,6.813,6.813,0,0,0,6.472-.1,3.888,3.888,0,0,0,7.9-.888a2.8,2.8,0,0,0,.784-1.2,4.549,4.549,0,0,0,.232-1.448A4.566,4.566,0,0,0,8.728-4.9a2.786,2.786,0,0,0-.544-1,2.573,2.573,0,0,0-.968-.672,8.485,8.485,0,0,0-1.9-.448A9.947,9.947,0,0,1,4.088-7.28a1.137,1.137,0,0,1-.608-.376A.953.953,0,0,1,3.3-8.24q0-1.232,2-1.232a19.754,19.754,0,0,1,3.088.3v-2.3q-.192-.016-.84-.088t-1.208-.112q-.56-.04-1.12-.04a5.575,5.575,0,0,0-3.456.9A3.158,3.158,0,0,0,.608-8.16,4.184,4.184,0,0,0,.9-6.528a2.511,2.511,0,0,0,.968,1.144,4.9,4.9,0,0,0,1.92.632l.568.088q.456.072.808.16a1.8,1.8,0,0,1,.576.24,1.023,1.023,0,0,1,.336.36,1.032,1.032,0,0,1,.112.5A1.139,1.139,0,0,1,5.664-2.4,2.738,2.738,0,0,1,4.144-2.048ZM18.768-4.4a5.577,5.577,0,0,0-.336-2,3.871,3.871,0,0,0-.944-1.456,3.938,3.938,0,0,0-1.44-.864,5.492,5.492,0,0,0-1.808-.288,5.492,5.492,0,0,0-1.808.288A3.916,3.916,0,0,0,11-7.864a3.845,3.845,0,0,0-.936,1.448A5.626,5.626,0,0,0,9.728-4.4a5.56,5.56,0,0,0,.336,2.008A3.931,3.931,0,0,0,11-.944a3.776,3.776,0,0,0,1.432.856,5.636,5.636,0,0,0,1.808.28A5.492,5.492,0,0,0,16.048-.1a3.938,3.938,0,0,0,1.44-.864,3.881,3.881,0,0,0,.944-1.448A5.512,5.512,0,0,0,18.768-4.4Zm-2.624,0a3.069,3.069,0,0,1-.44,1.816,1.676,1.676,0,0,1-1.448.6A1.688,1.688,0,0,1,12.8-2.592,3.033,3.033,0,0,1,12.352-4.4,3.065,3.065,0,0,1,12.8-6.224a1.688,1.688,0,0,1,1.456-.608,1.669,1.669,0,0,1,1.44.608A3.065,3.065,0,0,1,16.144-4.4ZM24.48-2.016a2.6,2.6,0,0,1-1.232-.264,1.865,1.865,0,0,1-.776-.784,2.805,2.805,0,0,1-.28-1.336,2.453,2.453,0,0,1,.576-1.84,2.408,2.408,0,0,1,1.712-.544,8,8,0,0,1,2.352.368V-8.624a9.651,9.651,0,0,0-2.784-.384,6.056,6.056,0,0,0-1.656.224,3.817,3.817,0,0,0-1.424.752,3.639,3.639,0,0,0-1.008,1.44A5.743,5.743,0,0,0,19.584-4.4a5.743,5.743,0,0,0,.376,2.192A3.571,3.571,0,0,0,20.968-.776a3.878,3.878,0,0,0,1.424.744,6.056,6.056,0,0,0,1.656.224,9.651,9.651,0,0,0,2.784-.384V-2.384A8.566,8.566,0,0,1,24.48-2.016Zm6.288-6.8h-2.56V0h2.56Zm.032-3.216H28.176v2.256H30.8Zm4.528,6.576a3.852,3.852,0,0,0-2.528.744,2.44,2.44,0,0,0-.9,1.976,3.224,3.224,0,0,0,.32,1.488,2.481,2.481,0,0,0,.936,1,2.819,2.819,0,0,0,1.5.376,4.68,4.68,0,0,0,2.7-.992h.064L37.616,0h2.176V-5.728a3.051,3.051,0,0,0-.968-2.448,4.007,4.007,0,0,0-2.7-.832,16.762,16.762,0,0,0-1.76.1,17.078,17.078,0,0,0-1.728.264v2.112a10.052,10.052,0,0,1,1.4-.28,10.712,10.712,0,0,1,1.448-.12q1.744,0,1.744,1.024v.448Zm1.9,3.008a3.725,3.725,0,0,1-.8.328,3.181,3.181,0,0,1-.9.136,1.168,1.168,0,0,1-.76-.24.853.853,0,0,1-.3-.7q0-.864,1.3-.864h1.456ZM44-12.208H41.44V0H44Z" transform="translate(196 2212)"/><path class="d" d="M5.76-3.088a3.941,3.941,0,0,0,1.608-.328,3.934,3.934,0,0,0,1.288-.9,3.943,3.943,0,0,0,.832-1.352A4.63,4.63,0,0,0,9.776-7.3a4.562,4.562,0,0,0-.3-1.64,4.045,4.045,0,0,0-.84-1.352,3.891,3.891,0,0,0-1.3-.9A4.134,4.134,0,0,0,5.68-11.52H1.1V0h2.64V-3.088ZM3.744-9.28H5.36a1.517,1.517,0,0,1,1.3.576A2.28,2.28,0,0,1,7.088-7.3,2.254,2.254,0,0,1,6.656-5.9a1.517,1.517,0,0,1-1.3.576H3.744Zm12.688.416a3.7,3.7,0,0,0-.664.088,4.024,4.024,0,0,0-.608.192,4.465,4.465,0,0,0-.616.312q-.32.192-.736.472t-.528.36V-8.816H10.864V0h2.56V-5.392q1.456-.5,2.088-.648t.92-.2Zm9.5,4.464a5.577,5.577,0,0,0-.336-2,3.871,3.871,0,0,0-.944-1.456,3.938,3.938,0,0,0-1.44-.864,5.492,5.492,0,0,0-1.808-.288A5.492,5.492,0,0,0,19.6-8.72a3.916,3.916,0,0,0-1.432.856,3.845,3.845,0,0,0-.936,1.448A5.626,5.626,0,0,0,16.9-4.4a5.56,5.56,0,0,0,.336,2.008,3.931,3.931,0,0,0,.936,1.448A3.776,3.776,0,0,0,19.6-.088a5.636,5.636,0,0,0,1.808.28A5.492,5.492,0,0,0,23.216-.1a3.938,3.938,0,0,0,1.44-.864A3.881,3.881,0,0,0,25.6-2.408,5.512,5.512,0,0,0,25.936-4.4Zm-2.624,0a3.069,3.069,0,0,1-.44,1.816,1.676,1.676,0,0,1-1.448.6,1.688,1.688,0,0,1-1.456-.608A3.033,3.033,0,0,1,19.52-4.4a3.065,3.065,0,0,1,.448-1.824,1.688,1.688,0,0,1,1.456-.608,1.669,1.669,0,0,1,1.44.608A3.065,3.065,0,0,1,23.312-4.4Zm3.456.24a5.572,5.572,0,0,0,.44,2.344A3.379,3.379,0,0,0,28.44-.352a3.416,3.416,0,0,0,1.9.512,4.709,4.709,0,0,0,1.256-.184A5.611,5.611,0,0,0,32.784-.5l.224.5h2.1V-12.208H32.56v3.28a10.566,10.566,0,0,0-1.2-.08Q26.768-9.008,26.768-4.16ZM29.376-4.3a2.973,2.973,0,0,1,.536-1.984,2.161,2.161,0,0,1,1.7-.608,6.557,6.557,0,0,1,.928.064v4.4a4.038,4.038,0,0,1-1.6.416,1.4,1.4,0,0,1-.912-.312,1.449,1.449,0,0,1-.5-.8,4.493,4.493,0,0,1-.136-.776Q29.376-4.192,29.376-4.3Zm7.408-4.512V-2.48q0,2.672,2.592,2.672A5.943,5.943,0,0,0,42.288-.88h.064l.192.88h2.192V-8.816h-2.56v6.048a4.852,4.852,0,0,1-2.016.656.811.811,0,0,1-.632-.208.973.973,0,0,1-.184-.656v-5.84Zm14.128,6.8A2.6,2.6,0,0,1,49.68-2.28a1.865,1.865,0,0,1-.776-.784,2.805,2.805,0,0,1-.28-1.336A2.453,2.453,0,0,1,49.2-6.24a2.408,2.408,0,0,1,1.712-.544,8,8,0,0,1,2.352.368V-8.624a9.651,9.651,0,0,0-2.784-.384,6.056,6.056,0,0,0-1.656.224,3.817,3.817,0,0,0-1.424.752,3.639,3.639,0,0,0-1.008,1.44A5.743,5.743,0,0,0,46.016-4.4a5.743,5.743,0,0,0,.376,2.192A3.571,3.571,0,0,0,47.4-.776a3.878,3.878,0,0,0,1.424.744A6.056,6.056,0,0,0,50.48.192a9.651,9.651,0,0,0,2.784-.384V-2.384A8.566,8.566,0,0,1,50.912-2.016Zm6.672-4.64h2.56v-2.16H57.6v-1.968H56.5l-2.528,2.4v1.728h1.056v4.624a2.249,2.249,0,0,0,.552,1.656,2.372,2.372,0,0,0,1.736.552A11.846,11.846,0,0,0,58.56.1,12.055,12.055,0,0,0,59.808-.1V-2.24a5.83,5.83,0,0,1-1.168.16q-1.056,0-1.056-.9Z" transform="translate(196 2036)"/><path class="d" d="M.576-5.776A8.6,8.6,0,0,0,.92-3.248a4.9,4.9,0,0,0,1.032,1.88,4.444,4.444,0,0,0,1.72,1.16,6.544,6.544,0,0,0,2.376.4A10.49,10.49,0,0,0,7.656.056,7.636,7.636,0,0,0,9.232-.352v-2.32A6.179,6.179,0,0,1,7.8-2.208a7.233,7.233,0,0,1-1.416.16A3.143,3.143,0,0,1,4.7-2.472,2.766,2.766,0,0,1,3.64-3.72a5.134,5.134,0,0,1-.376-2.12A3.929,3.929,0,0,1,4.08-8.624a3.249,3.249,0,0,1,2.448-.848,6.763,6.763,0,0,1,1.336.16A11.053,11.053,0,0,1,9.2-8.96v-2.352a11.992,11.992,0,0,0-3.184-.4,6.133,6.133,0,0,0-2.288.408A4.588,4.588,0,0,0,2-10.12,5.116,5.116,0,0,0,.936-8.24,7.921,7.921,0,0,0,.576-5.776Zm10-3.04V-2.48q0,2.672,2.592,2.672A5.943,5.943,0,0,0,16.08-.88h.064l.192.88h2.192V-8.816h-2.56v6.048a4.852,4.852,0,0,1-2.016.656.811.811,0,0,1-.632-.208.973.973,0,0,1-.184-.656v-5.84ZM23.7-9.008q-3.824,0-3.824,2.928a2.488,2.488,0,0,0,.56,1.648,3.574,3.574,0,0,0,2.08.976q.112.016.56.1a6.491,6.491,0,0,1,.72.176.755.755,0,0,1,.376.224.438.438,0,0,1,.1.264q0,.736-1.376.736a20.229,20.229,0,0,1-2.88-.3l-.064,2.24q.608.1,1.528.152t1.544.056Q26.88.192,26.88-2.8A2.526,2.526,0,0,0,26.5-4.248a2.256,2.256,0,0,0-.984-.816A6.821,6.821,0,0,0,24-5.488a4.471,4.471,0,0,1-1.24-.344.472.472,0,0,1-.28-.392.5.5,0,0,1,.36-.48,3.317,3.317,0,0,1,1.144-.144,13.741,13.741,0,0,1,2.336.256l.08-2.176a10.636,10.636,0,0,0-1.3-.176Q24.336-9.008,23.7-9.008Zm7.328,2.352h2.56v-2.16H31.04v-1.968h-1.1l-2.528,2.4v1.728h1.056v4.624a2.249,2.249,0,0,0,.552,1.656,2.372,2.372,0,0,0,1.736.552A11.846,11.846,0,0,0,32,.1,12.055,12.055,0,0,0,33.248-.1V-2.24a5.83,5.83,0,0,1-1.168.16q-1.056,0-1.056-.9ZM43.232-4.4a5.577,5.577,0,0,0-.336-2,3.871,3.871,0,0,0-.944-1.456,3.938,3.938,0,0,0-1.44-.864A5.492,5.492,0,0,0,38.7-9.008,5.492,5.492,0,0,0,36.9-8.72a3.916,3.916,0,0,0-1.432.856,3.845,3.845,0,0,0-.936,1.448A5.626,5.626,0,0,0,34.192-4.4a5.56,5.56,0,0,0,.336,2.008,3.931,3.931,0,0,0,.936,1.448A3.776,3.776,0,0,0,36.9-.088,5.636,5.636,0,0,0,38.7.192,5.492,5.492,0,0,0,40.512-.1a3.938,3.938,0,0,0,1.44-.864A3.881,3.881,0,0,0,42.9-2.408,5.512,5.512,0,0,0,43.232-4.4Zm-2.624,0a3.069,3.069,0,0,1-.44,1.816,1.676,1.676,0,0,1-1.448.6,1.688,1.688,0,0,1-1.456-.608A3.033,3.033,0,0,1,36.816-4.4a3.065,3.065,0,0,1,.448-1.824,1.688,1.688,0,0,1,1.456-.608,1.669,1.669,0,0,1,1.44.608A3.065,3.065,0,0,1,40.608-4.4ZM52.24,0V-6.048a4.147,4.147,0,0,1,.824-.456,2.349,2.349,0,0,1,.92-.2.771.771,0,0,1,.88.864V0h2.56V-6.336a3.183,3.183,0,0,0-.3-1.448,2.123,2.123,0,0,0-.856-.9,2.771,2.771,0,0,0-1.392-.32,3.666,3.666,0,0,0-1.416.3,7.3,7.3,0,0,0-1.528.9q-.064-.112-.272-.4a1.955,1.955,0,0,0-.712-.544A2.758,2.758,0,0,0,49.7-9.008a5.164,5.164,0,0,0-2.752,1.072H46.88v-.88H44.5V0h2.56V-6.048a4.956,4.956,0,0,1,.872-.456,2.337,2.337,0,0,1,.872-.2.771.771,0,0,1,.88.864V0ZM66.752-2.544q-.688.192-1.536.352a7.814,7.814,0,0,1-1.392.16,3.139,3.139,0,0,1-1.912-.44,1.537,1.537,0,0,1-.568-1.24H66.9V-4.848a4.264,4.264,0,0,0-1.024-3.144,3.935,3.935,0,0,0-2.9-1.016A5.213,5.213,0,0,0,61.2-8.72a3.657,3.657,0,0,0-1.368.856,3.733,3.733,0,0,0-.872,1.448,6.162,6.162,0,0,0-.3,2.016q0,4.592,4.512,4.592a13.08,13.08,0,0,0,3.584-.56Zm-5.44-2.992a1.512,1.512,0,0,1,.232-.808,1.277,1.277,0,0,1,.592-.528,1.752,1.752,0,0,1,.68-.152,1.629,1.629,0,0,1,.856.192,1.175,1.175,0,0,1,.464.528,2.031,2.031,0,0,1,.168.768Zm12.5-3.328a3.7,3.7,0,0,0-.664.088,4.024,4.024,0,0,0-.608.192,4.465,4.465,0,0,0-.616.312q-.32.192-.736.472t-.528.36V-8.816H68.24V0H70.8V-5.392q1.456-.5,2.088-.648t.92-.2Z" transform="translate(196 2080)"/><path class="d" d="M.768-.016q.576.08,1.392.144T3.472.192a6.531,6.531,0,0,0,1.84-.248A4.237,4.237,0,0,0,6.76-.776a3.239,3.239,0,0,0,.928-1.152,3.4,3.4,0,0,0,.328-1.5A2.556,2.556,0,0,0,7.76-4.5,2.556,2.556,0,0,0,7.1-5.4a3,3,0,0,0-.808-.5A3.149,3.149,0,0,0,7.4-7.056a3.1,3.1,0,0,0,.392-1.536,3.05,3.05,0,0,0-.32-1.368,2.624,2.624,0,0,0-.952-1.056,3.79,3.79,0,0,0-1.288-.544A6.154,6.154,0,0,0,3.984-11.7a12.288,12.288,0,0,0-3.232.448v2.256A9.65,9.65,0,0,1,1.928-9.28a7.351,7.351,0,0,1,1.4-.16A2.377,2.377,0,0,1,4.712-9.1a1.077,1.077,0,0,1,.472.928,1.291,1.291,0,0,1-.176.624,1.306,1.306,0,0,1-.616.528,2.274,2.274,0,0,1-.984.208H2v2.128H3.536a2.576,2.576,0,0,1,1.328.3,1.021,1.021,0,0,1,.512.944q0,1.408-2.016,1.408a20.625,20.625,0,0,1-2.592-.16ZM15.024-8.864a3.7,3.7,0,0,0-.664.088,4.024,4.024,0,0,0-.608.192,4.465,4.465,0,0,0-.616.312q-.32.192-.736.472t-.528.36V-8.816H9.456V0h2.56V-5.392q1.456-.5,2.088-.648t.92-.2Zm.5,4.7a5.572,5.572,0,0,0,.44,2.344A3.379,3.379,0,0,0,17.192-.352a3.416,3.416,0,0,0,1.9.512,4.709,4.709,0,0,0,1.256-.184A5.611,5.611,0,0,0,21.536-.5l.224.5h2.1V-12.208H21.312v3.28a10.566,10.566,0,0,0-1.2-.08Q15.52-9.008,15.52-4.16ZM18.128-4.3a2.973,2.973,0,0,1,.536-1.984,2.161,2.161,0,0,1,1.7-.608,6.557,6.557,0,0,1,.928.064v4.4a4.038,4.038,0,0,1-1.6.416,1.4,1.4,0,0,1-.912-.312,1.449,1.449,0,0,1-.5-.8,4.493,4.493,0,0,1-.136-.776Q18.128-4.192,18.128-4.3ZM33.984-3.088a3.941,3.941,0,0,0,1.608-.328,3.934,3.934,0,0,0,1.288-.9,3.943,3.943,0,0,0,.832-1.352A4.63,4.63,0,0,0,38-7.3a4.562,4.562,0,0,0-.3-1.64,4.045,4.045,0,0,0-.84-1.352,3.891,3.891,0,0,0-1.3-.9A4.135,4.135,0,0,0,33.9-11.52H29.328V0h2.64V-3.088ZM31.968-9.28h1.616a1.517,1.517,0,0,1,1.3.576A2.28,2.28,0,0,1,35.312-7.3,2.254,2.254,0,0,1,34.88-5.9a1.517,1.517,0,0,1-1.3.576H31.968Zm9.84,3.824a3.852,3.852,0,0,0-2.528.744,2.44,2.44,0,0,0-.9,1.976,3.224,3.224,0,0,0,.32,1.488,2.481,2.481,0,0,0,.936,1,2.819,2.819,0,0,0,1.5.376,4.68,4.68,0,0,0,2.7-.992H43.9L44.1,0h2.176V-5.728A3.051,3.051,0,0,0,45.3-8.176a4.006,4.006,0,0,0-2.7-.832,16.762,16.762,0,0,0-1.76.1,17.078,17.078,0,0,0-1.728.264v2.112a10.052,10.052,0,0,1,1.4-.28,10.712,10.712,0,0,1,1.448-.12q1.744,0,1.744,1.024v.448Zm1.9,3.008a3.725,3.725,0,0,1-.8.328,3.181,3.181,0,0,1-.9.136,1.168,1.168,0,0,1-.76-.24.853.853,0,0,1-.3-.7q0-.864,1.3-.864h1.456Zm9.776-6.416a3.7,3.7,0,0,0-.664.088,4.024,4.024,0,0,0-.608.192,4.465,4.465,0,0,0-.616.312q-.32.192-.736.472t-.528.36V-8.816H47.92V0h2.56V-5.392q1.456-.5,2.088-.648t.92-.2Zm3.936,2.208h2.56v-2.16H57.44v-1.968h-1.1l-2.528,2.4v1.728h1.056v4.624a2.249,2.249,0,0,0,.552,1.656,2.372,2.372,0,0,0,1.736.552A11.846,11.846,0,0,0,58.4.1,12.055,12.055,0,0,0,59.648-.1V-2.24a5.83,5.83,0,0,1-1.168.16q-1.056,0-1.056-.9ZM65.472,3.28l3.792-12.1h-2.72L64.736-2.768h-.1L62.928-8.816H60.144L62.928,0H63.9L62.832,3.28Z" transform="translate(196 2168)"/></g><g transform="translate(-14 -64)"><path class="d" d="M-.072,0h3.1l.792-2.484H8.64L9.414,0h3.1l-4.3-12.978h-4ZM6.1-10.476h.144L7.9-5.058H4.41Zm11.07.342q-4.3,0-4.3,3.294a2.8,2.8,0,0,0,.63,1.854,4.02,4.02,0,0,0,2.34,1.1q.126.018.63.117a7.3,7.3,0,0,1,.81.2.85.85,0,0,1,.423.252.493.493,0,0,1,.117.3q0,.828-1.548.828a22.758,22.758,0,0,1-3.24-.342L12.96-.018q.684.108,1.719.171t1.737.063q4.338,0,4.338-3.366a2.842,2.842,0,0,0-.423-1.629A2.538,2.538,0,0,0,19.224-5.7a7.674,7.674,0,0,0-1.71-.477,5.03,5.03,0,0,1-1.4-.387A.532.532,0,0,1,15.8-7a.558.558,0,0,1,.4-.54A3.732,3.732,0,0,1,17.5-7.7a15.458,15.458,0,0,1,2.628.288l.09-2.448a11.966,11.966,0,0,0-1.458-.2Q17.892-10.134,17.172-10.134Zm8.8,0q-4.3,0-4.3,3.294a2.8,2.8,0,0,0,.63,1.854,4.02,4.02,0,0,0,2.34,1.1q.126.018.63.117a7.3,7.3,0,0,1,.81.2.85.85,0,0,1,.423.252.493.493,0,0,1,.117.3q0,.828-1.548.828a22.758,22.758,0,0,1-3.24-.342l-.072,2.52q.684.108,1.719.171t1.737.063q4.338,0,4.338-3.366a2.842,2.842,0,0,0-.423-1.629A2.538,2.538,0,0,0,28.026-5.7a7.674,7.674,0,0,0-1.71-.477,5.03,5.03,0,0,1-1.4-.387A.532.532,0,0,1,24.606-7a.558.558,0,0,1,.405-.54A3.732,3.732,0,0,1,26.3-7.7a15.458,15.458,0,0,1,2.628.288l.09-2.448a11.966,11.966,0,0,0-1.458-.2Q26.694-10.134,25.974-10.134ZM39.51-2.862q-.774.216-1.728.4a8.791,8.791,0,0,1-1.566.18,3.531,3.531,0,0,1-2.151-.495,1.73,1.73,0,0,1-.639-1.395h6.246V-5.454A4.8,4.8,0,0,0,38.52-8.991a4.427,4.427,0,0,0-3.258-1.143,5.864,5.864,0,0,0-2,.324,4.114,4.114,0,0,0-1.539.963,4.2,4.2,0,0,0-.981,1.629A6.932,6.932,0,0,0,30.4-4.95Q30.4.216,35.478.216a14.715,14.715,0,0,0,4.032-.63ZM33.39-6.228a1.7,1.7,0,0,1,.261-.909,1.436,1.436,0,0,1,.666-.594,1.971,1.971,0,0,1,.765-.171,1.832,1.832,0,0,1,.963.216,1.321,1.321,0,0,1,.522.594,2.285,2.285,0,0,1,.189.864Zm11.664-3.906q-4.3,0-4.3,3.294a2.8,2.8,0,0,0,.63,1.854,4.02,4.02,0,0,0,2.34,1.1q.126.018.63.117a7.3,7.3,0,0,1,.81.2.85.85,0,0,1,.423.252.493.493,0,0,1,.117.3q0,.828-1.548.828a22.758,22.758,0,0,1-3.24-.342l-.072,2.52q.684.108,1.719.171T44.3.216q4.338,0,4.338-3.366a2.842,2.842,0,0,0-.423-1.629A2.538,2.538,0,0,0,47.106-5.7a7.674,7.674,0,0,0-1.71-.477A5.03,5.03,0,0,1,44-6.561.532.532,0,0,1,43.686-7a.558.558,0,0,1,.405-.54A3.732,3.732,0,0,1,45.378-7.7a15.458,15.458,0,0,1,2.628.288l.09-2.448a11.966,11.966,0,0,0-1.458-.2Q45.774-10.134,45.054-10.134Zm8.8,0q-4.3,0-4.3,3.294a2.8,2.8,0,0,0,.63,1.854,4.02,4.02,0,0,0,2.34,1.1q.126.018.63.117a7.3,7.3,0,0,1,.81.2.85.85,0,0,1,.423.252.493.493,0,0,1,.117.3q0,.828-1.548.828a22.758,22.758,0,0,1-3.24-.342l-.072,2.52q.684.108,1.719.171T53.1.216q4.338,0,4.338-3.366a2.842,2.842,0,0,0-.423-1.629A2.538,2.538,0,0,0,55.908-5.7a7.674,7.674,0,0,0-1.71-.477A5.03,5.03,0,0,1,52.8-6.561.532.532,0,0,1,52.488-7a.558.558,0,0,1,.405-.54A3.732,3.732,0,0,1,54.18-7.7a15.458,15.458,0,0,1,2.628.288l.09-2.448a11.966,11.966,0,0,0-1.458-.2Q54.576-10.134,53.856-10.134ZM67.5,0V-6.8a4.665,4.665,0,0,1,.927-.513,2.643,2.643,0,0,1,1.035-.225.867.867,0,0,1,.99.972V0h2.88V-7.128A3.581,3.581,0,0,0,73-8.757a2.389,2.389,0,0,0-.963-1.017,3.117,3.117,0,0,0-1.566-.36,4.124,4.124,0,0,0-1.593.333,8.215,8.215,0,0,0-1.719,1.017q-.072-.126-.306-.45a2.2,2.2,0,0,0-.8-.612,3.1,3.1,0,0,0-1.413-.288,5.81,5.81,0,0,0-3.1,1.206H61.47v-.99H58.788V0h2.88V-6.8a5.576,5.576,0,0,1,.981-.513,2.629,2.629,0,0,1,.981-.225.867.867,0,0,1,.99.972V0ZM83.826-2.862q-.774.216-1.728.4a8.791,8.791,0,0,1-1.566.18,3.531,3.531,0,0,1-2.151-.495,1.73,1.73,0,0,1-.639-1.395h6.246V-5.454a4.8,4.8,0,0,0-1.152-3.537,4.427,4.427,0,0,0-3.258-1.143,5.864,5.864,0,0,0-2,.324,4.114,4.114,0,0,0-1.539.963,4.2,4.2,0,0,0-.981,1.629,6.932,6.932,0,0,0-.342,2.268q0,5.166,5.076,5.166a14.715,14.715,0,0,0,4.032-.63Zm-6.12-3.366a1.7,1.7,0,0,1,.261-.909,1.437,1.437,0,0,1,.666-.594A1.971,1.971,0,0,1,79.4-7.9a1.832,1.832,0,0,1,.963.216,1.321,1.321,0,0,1,.522.594,2.285,2.285,0,0,1,.189.864ZM94.446,0V-7.128q0-3.006-2.916-3.006a6.685,6.685,0,0,0-3.276,1.206h-.072v-.99H85.5V0h2.88V-6.8a5.458,5.458,0,0,1,2.268-.738.913.913,0,0,1,.711.234,1.1,1.1,0,0,1,.207.738V0Zm5.2-7.488h2.88v-2.43H99.666v-2.214H98.424l-2.844,2.7v1.944h1.188v5.2a2.53,2.53,0,0,0,.621,1.863A2.668,2.668,0,0,0,99.342.2a13.326,13.326,0,0,0,1.4-.09,13.562,13.562,0,0,0,1.4-.216V-2.52a6.559,6.559,0,0,1-1.314.18q-1.188,0-1.188-1.008Z" transform="translate(265 1790)"/><g transform="translate(-32 100.778)"><rect class="d" width="11" height="4" rx="1" transform="translate(463.707 1675.222) rotate(45)"/><rect class="d" width="11" height="4" rx="1" transform="translate(471.485 1683) rotate(135)"/><rect class="d" width="29" height="4" rx="1" transform="translate(440 1681)"/></g></g><g transform="translate(-49 296.778)"><rect class="d" width="11" height="4" rx="1" transform="translate(463.707 1675.222) rotate(45)"/><rect class="d" width="11" height="4" rx="1" transform="translate(471.485 1683) rotate(135)"/><rect class="d" width="20" height="4" rx="1" transform="translate(449 1681)"/></g><g transform="translate(563 296.778)"><rect class="d" width="11" height="4" rx="1" transform="translate(463.707 1675.222) rotate(45)"/><rect class="d" width="11" height="4" rx="1" transform="translate(471.485 1683) rotate(135)"/><rect class="d" width="20" height="4" rx="1" transform="translate(449 1681)"/></g><path class="e" d="M5765.247,2336H5765a153.115,153.115,0,0,1-30.635-3.088,151.243,151.243,0,0,1-54.352-22.869,152.446,152.446,0,0,1-55.069-66.877,151.252,151.252,0,0,1-8.857-28.533,153.492,153.492,0,0,1,0-61.267,151.243,151.243,0,0,1,22.87-54.35,152.424,152.424,0,0,1,66.876-55.069,151.041,151.041,0,0,1,28.532-8.857A153.17,153.17,0,0,1,5765,2032a153.192,153.192,0,0,0,30.635-3.086,151.16,151.16,0,0,0,54.35-22.872,152.443,152.443,0,0,0,55.071-66.876,151.132,151.132,0,0,0,8.855-28.531,153.438,153.438,0,0,0,.006-61.239,151.152,151.152,0,0,0-22.828-54.31A151.68,151.68,0,0,0,5765.251,1728a306.456,306.456,0,0,1,61.224,6.219A302.443,302.443,0,0,1,5935.091,1780a304.9,304.9,0,0,1,110.042,133.725,302.435,302.435,0,0,1,17.7,57.04c1.727,8.439,3.112,17.1,4.117,25.746a36.007,36.007,0,0,0,0,70.986c-1,8.636-2.389,17.3-4.117,25.745a302.335,302.335,0,0,1-45.7,108.659,304.845,304.845,0,0,1-133.639,110.144,302.3,302.3,0,0,1-57.021,17.742A306.12,306.12,0,0,1,5765.247,2336ZM5765,2144a39.884,39.884,0,1,0,15.569,3.145A39.756,39.756,0,0,0,5765,2144Zm0-224a39.868,39.868,0,1,1,15.57-3.143A39.758,39.758,0,0,1,5765,1920Z" transform="translate(6484.894 4011.997) rotate(180)"/><path class="d" d="M1.1-11.52V0H9.152V-2.24H3.744V-4.7H8.352V-6.928H3.744V-9.28H9.2v-2.24ZM12.8-4.432,9.648,0H12.7l1.68-2.592L16.1,0h3.056L16.016-4.56l3.136-4.256H15.968L14.432-6.448l-1.6-2.368H9.648ZM22.9-6.656h2.56v-2.16H22.912v-1.968h-1.1l-2.528,2.4v1.728h1.056v4.624a2.249,2.249,0,0,0,.552,1.656,2.372,2.372,0,0,0,1.736.552A11.846,11.846,0,0,0,23.872.1,12.055,12.055,0,0,0,25.12-.1V-2.24a5.83,5.83,0,0,1-1.168.16q-1.056,0-1.056-.9Zm9.2-2.208a3.7,3.7,0,0,0-.664.088,4.024,4.024,0,0,0-.608.192,4.465,4.465,0,0,0-.616.312q-.32.192-.736.472t-.528.36V-8.816H26.528V0h2.56V-5.392q1.456-.5,2.088-.648t.92-.2Zm3.728,3.408a3.852,3.852,0,0,0-2.528.744,2.44,2.44,0,0,0-.9,1.976,3.224,3.224,0,0,0,.32,1.488,2.481,2.481,0,0,0,.936,1,2.819,2.819,0,0,0,1.5.376,4.68,4.68,0,0,0,2.7-.992h.064L38.112,0h2.176V-5.728a3.051,3.051,0,0,0-.968-2.448,4.006,4.006,0,0,0-2.7-.832,16.762,16.762,0,0,0-1.76.1,17.078,17.078,0,0,0-1.728.264v2.112a10.052,10.052,0,0,1,1.4-.28,10.712,10.712,0,0,1,1.448-.12q1.744,0,1.744,1.024v.448Zm1.9,3.008a3.725,3.725,0,0,1-.8.328,3.181,3.181,0,0,1-.9.136,1.168,1.168,0,0,1-.76-.24.853.853,0,0,1-.3-.7q0-.864,1.3-.864h1.456Zm8.656.432a2.6,2.6,0,0,1-1.232-.264,1.865,1.865,0,0,1-.776-.784A2.805,2.805,0,0,1,44.1-4.4a2.453,2.453,0,0,1,.576-1.84,2.408,2.408,0,0,1,1.712-.544,8,8,0,0,1,2.352.368V-8.624a9.651,9.651,0,0,0-2.784-.384,6.056,6.056,0,0,0-1.656.224,3.817,3.817,0,0,0-1.424.752,3.639,3.639,0,0,0-1.008,1.44A5.743,5.743,0,0,0,41.488-4.4a5.743,5.743,0,0,0,.376,2.192A3.571,3.571,0,0,0,42.872-.776,3.878,3.878,0,0,0,44.3-.032a6.056,6.056,0,0,0,1.656.224,9.651,9.651,0,0,0,2.784-.384V-2.384A8.566,8.566,0,0,1,46.384-2.016Zm6.672-4.64h2.56v-2.16H53.072v-1.968h-1.1l-2.528,2.4v1.728H50.5v4.624a2.249,2.249,0,0,0,.552,1.656,2.372,2.372,0,0,0,1.736.552A11.846,11.846,0,0,0,54.032.1,12.055,12.055,0,0,0,55.28-.1V-2.24a5.83,5.83,0,0,1-1.168.16q-1.056,0-1.056-.9Zm6.192-2.16h-2.56V0h2.56Zm.032-3.216H56.656v2.256H59.28ZM69.552-4.4a5.577,5.577,0,0,0-.336-2,3.871,3.871,0,0,0-.944-1.456,3.938,3.938,0,0,0-1.44-.864,5.492,5.492,0,0,0-1.808-.288,5.492,5.492,0,0,0-1.808.288,3.916,3.916,0,0,0-1.432.856,3.845,3.845,0,0,0-.936,1.448A5.626,5.626,0,0,0,60.512-4.4a5.56,5.56,0,0,0,.336,2.008,3.931,3.931,0,0,0,.936,1.448,3.776,3.776,0,0,0,1.432.856,5.636,5.636,0,0,0,1.808.28A5.492,5.492,0,0,0,66.832-.1a3.938,3.938,0,0,0,1.44-.864,3.881,3.881,0,0,0,.944-1.448A5.512,5.512,0,0,0,69.552-4.4Zm-2.624,0a3.069,3.069,0,0,1-.44,1.816,1.676,1.676,0,0,1-1.448.6,1.688,1.688,0,0,1-1.456-.608A3.033,3.033,0,0,1,63.136-4.4a3.065,3.065,0,0,1,.448-1.824,1.688,1.688,0,0,1,1.456-.608,1.669,1.669,0,0,1,1.44.608A3.065,3.065,0,0,1,66.928-4.4ZM78.768,0V-6.336q0-2.672-2.592-2.672a5.943,5.943,0,0,0-2.912,1.072H73.2v-.88H70.816V0h2.56V-6.048A4.852,4.852,0,0,1,75.392-6.7a.811.811,0,0,1,.632.208.973.973,0,0,1,.184.656V0Z" transform="translate(480 1919)"/><path class="f" d="M4.048-.912A18.543,18.543,0,0,1,.976-1.248V-.08A19.572,19.572,0,0,0,4.128.192,4.6,4.6,0,0,0,7.2-.736,3.241,3.241,0,0,0,8.288-3.344a3.768,3.768,0,0,0-.176-1.208,2.38,2.38,0,0,0-.536-.9,2.677,2.677,0,0,0-.968-.616,9.87,9.87,0,0,0-1.9-.448,5.551,5.551,0,0,1-1.736-.472,1.735,1.735,0,0,1-.648-.64,1.913,1.913,0,0,1-.208-.936,2,2,0,0,1,.312-1.168,1.822,1.822,0,0,1,.928-.664,5.21,5.21,0,0,1,1.672-.216,20.8,20.8,0,0,1,2.688.224V-11.52Q5.984-11.7,5.04-11.7a5.2,5.2,0,0,0-3.176.792A2.807,2.807,0,0,0,.832-8.528a3.085,3.085,0,0,0,.408,1.68A2.507,2.507,0,0,0,2.328-5.9a7.013,7.013,0,0,0,1.8.488,7.46,7.46,0,0,1,1.928.5,1.8,1.8,0,0,1,.72.632,1.753,1.753,0,0,1,.232.936Q7.008-.912,4.048-.912ZM11.5-7.568h2.8v-1.04H11.5v-1.9h-.48l-.72.752v1.152h-.96l-.272.3v.736H10.3V-1.68A2.029,2.029,0,0,0,10.72-.288,1.77,1.77,0,0,0,12.1.176a10.7,10.7,0,0,0,1.888-.24V-1.12a4.519,4.519,0,0,1-1.36.24A1.532,1.532,0,0,1,12-1a.721.721,0,0,1-.384-.368,1.249,1.249,0,0,1-.112-.52Zm6.48,2.592a3.425,3.425,0,0,0-2.208.656,2.3,2.3,0,0,0-.816,1.9,2.641,2.641,0,0,0,.352,1.376,2.021,2.021,0,0,0,.992.856A3.45,3.45,0,0,0,17.632.08a5.593,5.593,0,0,0,3.12-1.2l.1,1.12h1.024V-5.952a2.728,2.728,0,0,0-.808-2.136,3.239,3.239,0,0,0-2.248-.728,12,12,0,0,0-1.568.12q-.9.12-1.552.264v1.056a13.135,13.135,0,0,1,1.432-.28,10.119,10.119,0,0,1,1.432-.12,2.331,2.331,0,0,1,1.6.464,1.66,1.66,0,0,1,.512,1.3v1.04Zm2.688,2.944a5.118,5.118,0,0,1-1.3.792,3.562,3.562,0,0,1-1.4.328,1.968,1.968,0,0,1-1.3-.408,1.428,1.428,0,0,1-.488-1.16,1.5,1.5,0,0,1,.488-1.184A2.1,2.1,0,0,1,18.1-4.1h2.576Zm8.176-6.656a4.466,4.466,0,0,0-1.344.36,10.007,10.007,0,0,0-1.368.768l-.792.52V-8.624H24.192V0h1.184V-6A16.908,16.908,0,0,1,27.5-7.072a7.455,7.455,0,0,1,1.344-.368Zm2.944,1.12h2.8v-1.04h-2.8v-1.9h-.48l-.72.752v1.152h-.96l-.272.3v.736h1.232V-1.68a2.029,2.029,0,0,0,.416,1.392,1.77,1.77,0,0,0,1.376.464,10.7,10.7,0,0,0,1.888-.24V-1.12a4.519,4.519,0,0,1-1.36.24A1.532,1.532,0,0,1,32.288-1a.721.721,0,0,1-.384-.368,1.249,1.249,0,0,1-.112-.52ZM39.84-8.624V-2.5A2.774,2.774,0,0,0,40.5-.5a2.653,2.653,0,0,0,2.008.7,3.7,3.7,0,0,0,1.616-.376,8.851,8.851,0,0,0,1.68-1.1,3.261,3.261,0,0,0,.616.72,2.758,2.758,0,0,0,1.016.552,4.38,4.38,0,0,0,1.344.2,4.58,4.58,0,0,0,1.864-.344,2.718,2.718,0,0,0,1.2-.984,2.837,2.837,0,0,0,.424-1.6V-8.624h-1.2v5.856a1.741,1.741,0,0,1-.3,1.048,1.863,1.863,0,0,1-.816.624,2.954,2.954,0,0,1-1.144.216,2.993,2.993,0,0,1-1.272-.256,1.484,1.484,0,0,1-.76-.7,2.093,2.093,0,0,1-.208-.9V-8.624H45.44v5.616a5.225,5.225,0,0,0,.064.928A4.87,4.87,0,0,1,42.72-.88a1.8,1.8,0,0,1-1.256-.4,1.437,1.437,0,0,1-.44-1.12V-8.624Zm15.936,0H54.592V0h1.184Zm.016-3.024H54.56v1.584h1.232Zm3.968,4.08h2.8v-1.04h-2.8v-1.9h-.48l-.72.752v1.152H57.6l-.272.3v.736H58.56V-1.68a2.029,2.029,0,0,0,.416,1.392,1.77,1.77,0,0,0,1.376.464,10.7,10.7,0,0,0,1.888-.24V-1.12a4.519,4.519,0,0,1-1.36.24A1.532,1.532,0,0,1,60.256-1a.721.721,0,0,1-.384-.368,1.249,1.249,0,0,1-.112-.52ZM71.072,0V-6.384a2.454,2.454,0,0,0-.624-1.8,2.476,2.476,0,0,0-1.84-.632,4.838,4.838,0,0,0-1.488.28,11.533,11.533,0,0,0-2.064.984v-4.656H63.872V0h1.184V-6.576A13.438,13.438,0,0,1,67.1-7.5a4.12,4.12,0,0,1,1.192-.224,1.62,1.62,0,0,1,1.184.408,1.529,1.529,0,0,1,.416,1.144V0ZM78.8-7.568h2.8v-1.04H78.8v-1.9h-.48l-.72.752v1.152h-.96l-.272.3v.736H77.6V-1.68a2.029,2.029,0,0,0,.416,1.392,1.77,1.77,0,0,0,1.376.464,10.7,10.7,0,0,0,1.888-.24V-1.12a4.519,4.519,0,0,1-1.36.24A1.532,1.532,0,0,1,79.3-1a.721.721,0,0,1-.384-.368,1.25,1.25,0,0,1-.112-.52ZM90.112,0V-6.384a2.454,2.454,0,0,0-.624-1.8,2.476,2.476,0,0,0-1.84-.632,4.838,4.838,0,0,0-1.488.28,11.533,11.533,0,0,0-2.064.984v-4.656H82.912V0H84.1V-6.576a13.438,13.438,0,0,1,2.04-.928,4.12,4.12,0,0,1,1.192-.224,1.62,1.62,0,0,1,1.184.408,1.529,1.529,0,0,1,.416,1.144V0Zm9.216-1.44a10.161,10.161,0,0,1-1.512.4,7.966,7.966,0,0,1-1.464.16,3.282,3.282,0,0,1-2.328-.744A3.174,3.174,0,0,1,93.216-4h6.3v-.576a4.815,4.815,0,0,0-.9-3.2,3.4,3.4,0,0,0-2.72-1.04,3.682,3.682,0,0,0-2.928,1.152,4.906,4.906,0,0,0-1.008,3.328A4.848,4.848,0,0,0,93.008-.9a4.084,4.084,0,0,0,3.1,1.1,9.867,9.867,0,0,0,3.216-.56ZM93.216-4.912a3.193,3.193,0,0,1,.664-2.12,2.432,2.432,0,0,1,1.976-.792,2.193,2.193,0,0,1,1.84.736,3.484,3.484,0,0,1,.576,2.176Zm15.408,5.1a4.9,4.9,0,0,0,2.384-.528,3.572,3.572,0,0,0,1.48-1.544,5.654,5.654,0,0,0,.52-2.584,6.949,6.949,0,0,0-.248-1.96,3.785,3.785,0,0,0-.688-1.368,2.715,2.715,0,0,0-1.016-.776,3.042,3.042,0,0,0-1.216-.248,4.63,4.63,0,0,0-1.592.288,8.667,8.667,0,0,0-1.672.848v-4.528h-1.184V-.24a13.686,13.686,0,0,0,1.632.312A12.189,12.189,0,0,0,108.624.192ZM111.76-4.4q0,3.568-3.152,3.568a8.758,8.758,0,0,1-2.032-.256V-6.64a8.142,8.142,0,0,1,1.56-.832,3.692,3.692,0,0,1,1.3-.288,1.99,1.99,0,0,1,1.712.84A4.293,4.293,0,0,1,111.76-4.4Zm5.536-.576a3.425,3.425,0,0,0-2.208.656,2.3,2.3,0,0,0-.816,1.9,2.641,2.641,0,0,0,.352,1.376,2.021,2.021,0,0,0,.992.856,3.45,3.45,0,0,0,1.328.264,5.593,5.593,0,0,0,3.12-1.2l.1,1.12h1.024V-5.952a2.728,2.728,0,0,0-.808-2.136,3.239,3.239,0,0,0-2.248-.728,12,12,0,0,0-1.568.12q-.9.12-1.552.264v1.056a13.135,13.135,0,0,1,1.432-.28,10.119,10.119,0,0,1,1.432-.12,2.331,2.331,0,0,1,1.6.464,1.66,1.66,0,0,1,.512,1.3v1.04Zm2.688,2.944a5.118,5.118,0,0,1-1.3.792,3.562,3.562,0,0,1-1.4.328,1.968,1.968,0,0,1-1.3-.408,1.428,1.428,0,0,1-.488-1.16,1.5,1.5,0,0,1,.488-1.184,2.1,2.1,0,0,1,1.432-.432h2.576Zm5.9,1.184a20.645,20.645,0,0,1-2.832-.256V.016a26.522,26.522,0,0,0,2.912.176,3.669,3.669,0,0,0,2.44-.7,2.487,2.487,0,0,0,.824-2,2.342,2.342,0,0,0-.368-1.392,1.954,1.954,0,0,0-.96-.72,7.992,7.992,0,0,0-1.536-.336,5.12,5.12,0,0,1-1.512-.344.989.989,0,0,1-.488-.48,1.6,1.6,0,0,1-.112-.6,1.14,1.14,0,0,1,.544-1.032,3.293,3.293,0,0,1,1.712-.344,15.158,15.158,0,0,1,2.256.24V-8.608a14.834,14.834,0,0,0-2.368-.208,4.036,4.036,0,0,0-2.552.664,2.224,2.224,0,0,0-.824,1.832,2.5,2.5,0,0,0,.264,1.176,1.84,1.84,0,0,0,.84.792,5.842,5.842,0,0,0,1.728.448,6.151,6.151,0,0,1,1.448.312,1.341,1.341,0,0,1,.456.328.931.931,0,0,1,.192.392,1.884,1.884,0,0,1,.048.408Q128-.848,125.888-.848Zm6.32-7.776h-1.184V0h1.184Zm.016-3.024h-1.232v1.584h1.232ZM138.48-.88a3.378,3.378,0,0,1-1.656-.376,2.694,2.694,0,0,1-1.08-1.128,4.069,4.069,0,0,1-.4-1.92,3.688,3.688,0,0,1,.8-2.552,2.983,2.983,0,0,1,2.336-.888,8.4,8.4,0,0,1,2.576.464V-8.368a8.9,8.9,0,0,0-2.736-.448,5.426,5.426,0,0,0-1.536.216,3.619,3.619,0,0,0-1.344.736,3.58,3.58,0,0,0-.968,1.408,5.731,5.731,0,0,0-.36,2.152,5.745,5.745,0,0,0,.36,2.144,3.5,3.5,0,0,0,.968,1.408,3.676,3.676,0,0,0,1.344.728,5.426,5.426,0,0,0,1.536.216,9.415,9.415,0,0,0,2.736-.416V-1.312A8.847,8.847,0,0,1,138.48-.88Zm6.832.032A20.645,20.645,0,0,1,142.48-1.1V.016a26.522,26.522,0,0,0,2.912.176,3.669,3.669,0,0,0,2.44-.7,2.487,2.487,0,0,0,.824-2,2.342,2.342,0,0,0-.368-1.392,1.954,1.954,0,0,0-.96-.72,7.992,7.992,0,0,0-1.536-.336A5.12,5.12,0,0,1,144.28-5.3a.989.989,0,0,1-.488-.48,1.6,1.6,0,0,1-.112-.6,1.14,1.14,0,0,1,.544-1.032,3.293,3.293,0,0,1,1.712-.344,15.158,15.158,0,0,1,2.256.24V-8.608a14.834,14.834,0,0,0-2.368-.208,4.036,4.036,0,0,0-2.552.664,2.224,2.224,0,0,0-.824,1.832,2.5,2.5,0,0,0,.264,1.176,1.84,1.84,0,0,0,.84.792,5.841,5.841,0,0,0,1.728.448,6.152,6.152,0,0,1,1.448.312,1.341,1.341,0,0,1,.456.328.93.93,0,0,1,.192.392,1.884,1.884,0,0,1,.048.408Q147.424-.848,145.312-.848Zm6.064-.8H150.3V0h1.072Zm4.464,0h-1.088V0h1.088Zm4.016,0H158.8V0h1.056Z" transform="translate(480 1875)"/><path class="d" d="M1.1-11.52V0H9.152V-2.24H3.744V-4.7H8.352V-6.928H3.744V-9.28H9.2v-2.24ZM18.528,0V-6.336q0-2.672-2.592-2.672a5.943,5.943,0,0,0-2.912,1.072H12.96v-.88H10.576V0h2.56V-6.048A4.852,4.852,0,0,1,15.152-6.7a.811.811,0,0,1,.632.208.973.973,0,0,1,.184.656V0Zm7.248-8.864a3.7,3.7,0,0,0-.664.088,4.024,4.024,0,0,0-.608.192,4.465,4.465,0,0,0-.616.312q-.32.192-.736.472t-.528.36V-8.816H20.208V0h2.56V-5.392q1.456-.5,2.088-.648t.92-.2Zm3.552.048h-2.56V0h2.56Zm.032-3.216H26.736v2.256H29.36ZM35.5-2.016a2.6,2.6,0,0,1-1.232-.264,1.865,1.865,0,0,1-.776-.784,2.805,2.805,0,0,1-.28-1.336,2.453,2.453,0,0,1,.576-1.84A2.408,2.408,0,0,1,35.5-6.784a8,8,0,0,1,2.352.368V-8.624a9.651,9.651,0,0,0-2.784-.384,6.056,6.056,0,0,0-1.656.224,3.817,3.817,0,0,0-1.424.752,3.639,3.639,0,0,0-1.008,1.44A5.743,5.743,0,0,0,30.608-4.4a5.743,5.743,0,0,0,.376,2.192A3.571,3.571,0,0,0,31.992-.776a3.878,3.878,0,0,0,1.424.744,6.056,6.056,0,0,0,1.656.224,9.651,9.651,0,0,0,2.784-.384V-2.384A8.566,8.566,0,0,1,35.5-2.016ZM47.184,0V-6.336q0-2.672-2.592-2.672A5.671,5.671,0,0,0,41.792-8v-4.208h-2.56V0h2.56V-6.048A4.852,4.852,0,0,1,43.808-6.7a.811.811,0,0,1,.632.208.973.973,0,0,1,.184.656V0Zm9.424,0V-6.048a4.147,4.147,0,0,1,.824-.456,2.349,2.349,0,0,1,.92-.2.771.771,0,0,1,.88.864V0h2.56V-6.336a3.183,3.183,0,0,0-.3-1.448,2.123,2.123,0,0,0-.856-.9,2.771,2.771,0,0,0-1.392-.32,3.666,3.666,0,0,0-1.416.3,7.3,7.3,0,0,0-1.528.9q-.064-.112-.272-.4a1.955,1.955,0,0,0-.712-.544,2.758,2.758,0,0,0-1.256-.256,5.164,5.164,0,0,0-2.752,1.072h-.064v-.88H48.864V0h2.56V-6.048A4.956,4.956,0,0,1,52.3-6.5a2.337,2.337,0,0,1,.872-.2.771.771,0,0,1,.88.864V0ZM71.12-2.544q-.688.192-1.536.352a7.814,7.814,0,0,1-1.392.16,3.139,3.139,0,0,1-1.912-.44,1.537,1.537,0,0,1-.568-1.24h5.552V-4.848A4.264,4.264,0,0,0,70.24-7.992a3.935,3.935,0,0,0-2.9-1.016,5.213,5.213,0,0,0-1.776.288,3.657,3.657,0,0,0-1.368.856,3.733,3.733,0,0,0-.872,1.448,6.162,6.162,0,0,0-.3,2.016q0,4.592,4.512,4.592a13.08,13.08,0,0,0,3.584-.56ZM65.68-5.536a1.512,1.512,0,0,1,.232-.808,1.277,1.277,0,0,1,.592-.528,1.752,1.752,0,0,1,.68-.152,1.629,1.629,0,0,1,.856.192A1.175,1.175,0,0,1,68.5-6.3a2.031,2.031,0,0,1,.168.768ZM80.56,0V-6.336q0-2.672-2.592-2.672a5.943,5.943,0,0,0-2.912,1.072h-.064v-.88H72.608V0h2.56V-6.048A4.852,4.852,0,0,1,77.184-6.7a.811.811,0,0,1,.632.208A.973.973,0,0,1,78-5.84V0Zm4.624-6.656h2.56v-2.16H85.2v-1.968H84.1l-2.528,2.4v1.728h1.056v4.624a2.249,2.249,0,0,0,.552,1.656,2.372,2.372,0,0,0,1.736.552A11.845,11.845,0,0,0,86.16.1,12.055,12.055,0,0,0,87.408-.1V-2.24a5.83,5.83,0,0,1-1.168.16q-1.056,0-1.056-.9Z" transform="translate(480 2007)"/><path class="d" d="M.576-5.776A8.6,8.6,0,0,0,.92-3.248a4.9,4.9,0,0,0,1.032,1.88,4.444,4.444,0,0,0,1.72,1.16,6.544,6.544,0,0,0,2.376.4A10.49,10.49,0,0,0,7.656.056,7.636,7.636,0,0,0,9.232-.352v-2.32A6.179,6.179,0,0,1,7.8-2.208a7.233,7.233,0,0,1-1.416.16A3.143,3.143,0,0,1,4.7-2.472,2.766,2.766,0,0,1,3.64-3.72a5.134,5.134,0,0,1-.376-2.12A3.929,3.929,0,0,1,4.08-8.624a3.249,3.249,0,0,1,2.448-.848,6.763,6.763,0,0,1,1.336.16A11.053,11.053,0,0,1,9.2-8.96v-2.352a11.992,11.992,0,0,0-3.184-.4,6.133,6.133,0,0,0-2.288.408A4.588,4.588,0,0,0,2-10.12,5.116,5.116,0,0,0,.936-8.24,7.921,7.921,0,0,0,.576-5.776Zm12.608-6.432h-2.56V0h2.56ZM22.56-2.544q-.688.192-1.536.352a7.814,7.814,0,0,1-1.392.16,3.139,3.139,0,0,1-1.912-.44,1.537,1.537,0,0,1-.568-1.24H22.7V-4.848A4.264,4.264,0,0,0,21.68-7.992a3.935,3.935,0,0,0-2.9-1.016,5.213,5.213,0,0,0-1.776.288,3.657,3.657,0,0,0-1.368.856,3.733,3.733,0,0,0-.872,1.448,6.162,6.162,0,0,0-.3,2.016q0,4.592,4.512,4.592a13.08,13.08,0,0,0,3.584-.56ZM17.12-5.536a1.512,1.512,0,0,1,.232-.808,1.277,1.277,0,0,1,.592-.528,1.752,1.752,0,0,1,.68-.152,1.629,1.629,0,0,1,.856.192,1.175,1.175,0,0,1,.464.528,2.031,2.031,0,0,1,.168.768Zm9.76.08a3.852,3.852,0,0,0-2.528.744,2.44,2.44,0,0,0-.9,1.976,3.224,3.224,0,0,0,.32,1.488,2.481,2.481,0,0,0,.936,1,2.819,2.819,0,0,0,1.5.376,4.68,4.68,0,0,0,2.7-.992h.064L29.168,0h2.176V-5.728a3.051,3.051,0,0,0-.968-2.448,4.006,4.006,0,0,0-2.7-.832,16.762,16.762,0,0,0-1.76.1,17.078,17.078,0,0,0-1.728.264v2.112a10.052,10.052,0,0,1,1.4-.28,10.712,10.712,0,0,1,1.448-.12q1.744,0,1.744,1.024v.448Zm1.9,3.008a3.725,3.725,0,0,1-.8.328,3.181,3.181,0,0,1-.9.136,1.168,1.168,0,0,1-.76-.24.853.853,0,0,1-.3-.7q0-.864,1.3-.864h1.456ZM40.944,0V-6.336q0-2.672-2.592-2.672A5.943,5.943,0,0,0,35.44-7.936h-.064v-.88H32.992V0h2.56V-6.048A4.852,4.852,0,0,1,37.568-6.7.811.811,0,0,1,38.2-6.5a.973.973,0,0,1,.184.656V0Zm5.12-9.008q-3.824,0-3.824,2.928a2.488,2.488,0,0,0,.56,1.648,3.574,3.574,0,0,0,2.08.976q.112.016.56.1a6.491,6.491,0,0,1,.72.176.755.755,0,0,1,.376.224.438.438,0,0,1,.1.264q0,.736-1.376.736a20.229,20.229,0,0,1-2.88-.3L42.32-.016q.608.1,1.528.152t1.544.056q3.856,0,3.856-2.992a2.526,2.526,0,0,0-.376-1.448,2.256,2.256,0,0,0-.984-.816,6.821,6.821,0,0,0-1.52-.424,4.471,4.471,0,0,1-1.24-.344.472.472,0,0,1-.28-.392.5.5,0,0,1,.36-.48,3.317,3.317,0,0,1,1.144-.144,13.741,13.741,0,0,1,2.336.256l.08-2.176a10.636,10.636,0,0,0-1.3-.176Q46.7-9.008,46.064-9.008Zm6.944.192h-2.56V0h2.56Zm.032-3.216H50.416v2.256H53.04ZM62.688,0V-6.336q0-2.672-2.592-2.672a5.943,5.943,0,0,0-2.912,1.072H57.12v-.88H54.736V0H57.3V-6.048A4.852,4.852,0,0,1,59.312-6.7a.811.811,0,0,1,.632.208.973.973,0,0,1,.184.656V0ZM63.92-5.744a2.7,2.7,0,0,0,.416,1.5,2.582,2.582,0,0,0,1.12.96,1.514,1.514,0,0,0-.688.624,1.68,1.68,0,0,0-.224.832,1.336,1.336,0,0,0,.184.64,1.372,1.372,0,0,0,.5.528v.1A1.787,1.787,0,0,0,63.776,1.3a1.763,1.763,0,0,0,.96,1.632,6.211,6.211,0,0,0,2.96.544A9.17,9.17,0,0,0,70.552,3.1,3.54,3.54,0,0,0,72.184,2.1,2.337,2.337,0,0,0,72.72.544a2.181,2.181,0,0,0-.664-1.752,3.382,3.382,0,0,0-2.2-.568H67.344a.6.6,0,0,1-.456-.16.579.579,0,0,1-.152-.416,1.064,1.064,0,0,1,.144-.528,7.246,7.246,0,0,0,1.168.08,5.339,5.339,0,0,0,2.144-.368A2.817,2.817,0,0,0,71.44-4.16a2.678,2.678,0,0,0,.416-1.52,2.047,2.047,0,0,0-.144-.752,1.887,1.887,0,0,0-.368-.608l1.6.032V-8.992a10.644,10.644,0,0,1-1.984.176q-.688,0-1.728-.1t-1.36-.1a4.355,4.355,0,0,0-2.9.888A2.956,2.956,0,0,0,63.92-5.744ZM69.3-5.792a1.217,1.217,0,0,1-.336.936,1.514,1.514,0,0,1-1.056.312q-1.408,0-1.408-1.232Q66.5-7.04,67.9-7.04A1.442,1.442,0,0,1,68.96-6.7,1.232,1.232,0,0,1,69.3-5.792Zm.016,5.92Q70.1.128,70.1.8a.75.75,0,0,1-.512.72,4.02,4.02,0,0,1-1.536.224,3.742,3.742,0,0,1-1.272-.152.586.586,0,0,1-.376-.6q0-.864,1.168-.864Z" transform="translate(480 1963)"/><path class="d" d="M10.88-11.52H8.048L5.68-2.9H5.312L2.752-11.52H-.064L3.632,0H7.2Zm3.056,6.064a3.852,3.852,0,0,0-2.528.744,2.44,2.44,0,0,0-.9,1.976,3.224,3.224,0,0,0,.32,1.488,2.481,2.481,0,0,0,.936,1,2.819,2.819,0,0,0,1.5.376,4.68,4.68,0,0,0,2.7-.992h.064L16.224,0H18.4V-5.728a3.051,3.051,0,0,0-.968-2.448,4.006,4.006,0,0,0-2.7-.832,16.762,16.762,0,0,0-1.76.1,17.078,17.078,0,0,0-1.728.264v2.112a10.052,10.052,0,0,1,1.4-.28,10.712,10.712,0,0,1,1.448-.12q1.744,0,1.744,1.024v.448Zm1.9,3.008a3.725,3.725,0,0,1-.8.328,3.181,3.181,0,0,1-.9.136,1.168,1.168,0,0,1-.76-.24.853.853,0,0,1-.3-.7q0-.864,1.3-.864H15.84Zm6.768-9.76h-2.56V0h2.56ZM26.9-8.816h-2.56V0H26.9Zm.032-3.216H24.3v2.256h2.624ZM28.192-4.16a5.572,5.572,0,0,0,.44,2.344A3.379,3.379,0,0,0,29.864-.352a3.416,3.416,0,0,0,1.9.512,4.709,4.709,0,0,0,1.256-.184A5.611,5.611,0,0,0,34.208-.5l.224.5h2.1V-12.208H33.984v3.28a10.566,10.566,0,0,0-1.2-.08Q28.192-9.008,28.192-4.16ZM30.8-4.3a2.973,2.973,0,0,1,.536-1.984,2.161,2.161,0,0,1,1.7-.608,6.557,6.557,0,0,1,.928.064v4.4a4.038,4.038,0,0,1-1.6.416,1.4,1.4,0,0,1-.912-.312,1.449,1.449,0,0,1-.5-.8,4.493,4.493,0,0,1-.136-.776Q30.8-4.192,30.8-4.3ZM41.088-5.456a3.852,3.852,0,0,0-2.528.744,2.44,2.44,0,0,0-.9,1.976,3.224,3.224,0,0,0,.32,1.488,2.481,2.481,0,0,0,.936,1,2.819,2.819,0,0,0,1.5.376,4.68,4.68,0,0,0,2.7-.992h.064L43.376,0h2.176V-5.728a3.051,3.051,0,0,0-.968-2.448,4.006,4.006,0,0,0-2.7-.832,16.762,16.762,0,0,0-1.76.1A17.078,17.078,0,0,0,38.4-8.64v2.112a10.052,10.052,0,0,1,1.4-.28,10.712,10.712,0,0,1,1.448-.12q1.744,0,1.744,1.024v.448Zm1.9,3.008a3.725,3.725,0,0,1-.8.328,3.181,3.181,0,0,1-.9.136,1.168,1.168,0,0,1-.76-.24.853.853,0,0,1-.3-.7q0-.864,1.3-.864h1.456Zm7.152-4.208H52.7v-2.16H50.16v-1.968h-1.1l-2.528,2.4v1.728h1.056v4.624a2.249,2.249,0,0,0,.552,1.656,2.372,2.372,0,0,0,1.736.552A11.846,11.846,0,0,0,51.12.1,12.055,12.055,0,0,0,52.368-.1V-2.24a5.83,5.83,0,0,1-1.168.16q-1.056,0-1.056-.9Zm6.192-2.16h-2.56V0h2.56Zm.032-3.216H53.744v2.256h2.624ZM66.64-4.4a5.577,5.577,0,0,0-.336-2,3.871,3.871,0,0,0-.944-1.456,3.938,3.938,0,0,0-1.44-.864,5.492,5.492,0,0,0-1.808-.288A5.492,5.492,0,0,0,60.3-8.72a3.916,3.916,0,0,0-1.432.856,3.845,3.845,0,0,0-.936,1.448A5.626,5.626,0,0,0,57.6-4.4a5.56,5.56,0,0,0,.336,2.008,3.931,3.931,0,0,0,.936,1.448A3.776,3.776,0,0,0,60.3-.088a5.636,5.636,0,0,0,1.808.28A5.492,5.492,0,0,0,63.92-.1,3.938,3.938,0,0,0,65.36-.96,3.881,3.881,0,0,0,66.3-2.408,5.512,5.512,0,0,0,66.64-4.4Zm-2.624,0a3.069,3.069,0,0,1-.44,1.816,1.676,1.676,0,0,1-1.448.6,1.688,1.688,0,0,1-1.456-.608A3.033,3.033,0,0,1,60.224-4.4a3.065,3.065,0,0,1,.448-1.824,1.688,1.688,0,0,1,1.456-.608,1.669,1.669,0,0,1,1.44.608A3.065,3.065,0,0,1,64.016-4.4ZM75.856,0V-6.336q0-2.672-2.592-2.672a5.943,5.943,0,0,0-2.912,1.072h-.064v-.88H67.9V0h2.56V-6.048A4.852,4.852,0,0,1,72.48-6.7a.811.811,0,0,1,.632.208.973.973,0,0,1,.184.656V0Z" transform="translate(480 2051)"/></g></svg>