<svg width="16" height="11" viewBox="0 0 16 11" fill="none" xmlns="http://www.w3.org/2000/svg">
<path d="M0.0893421 5.53811C0.0467738 7.60279 1.46886 9.57312 3.42508 10.2157C5.26771 10.8348 7.53324 10.3717 8.75938 8.79363C9.6546 7.68792 9.85803 6.21386 9.76113 4.8367C8.18311 4.82258 6.60508 4.82729 5.02941 4.82964C5.02684 5.3918 5.02941 5.95182 5.03176 6.51398C5.97661 6.54007 6.92167 6.52809 7.86652 6.54713C7.62801 7.36449 7.08467 8.12516 6.26004 8.42035C4.6679 9.12198 2.63638 8.20537 2.1354 6.53515C1.53068 4.93574 2.52066 3.00562 4.15515 2.54036C5.16867 2.18377 6.21277 2.58528 7.07996 3.11214C7.51934 2.70101 7.93048 2.26163 8.33434 1.81755C7.34907 0.993138 6.08292 0.487665 4.78127 0.598685C2.22739 0.62906 -0.0075597 2.98679 0.0893421 5.53811Z" fill="#DC4E41"/>
<path d="M12.8324 3.41104C12.8277 3.88122 12.8227 4.35375 12.8204 4.82371C12.3479 4.82842 11.8779 4.83077 11.4077 4.83312C11.4077 5.3033 11.4077 5.77091 11.4077 6.24109C11.8779 6.24344 12.3504 6.24579 12.8204 6.25071C12.8251 6.72089 12.8251 7.19085 12.8298 7.66338C13.2976 7.66338 13.7678 7.66103 14.2378 7.66338C14.2403 7.19085 14.2425 6.72089 14.2474 6.24836C14.7174 6.24601 15.1899 6.24365 15.6601 6.2413C15.6601 5.77112 15.6601 5.30352 15.6601 4.83334C15.1901 4.83099 14.7176 4.82863 14.2474 4.82393C14.2448 4.35375 14.2403 3.88122 14.2378 3.41126C13.7678 3.41104 13.3 3.41104 12.8324 3.41104Z" fill="#DC4E41"/>
<path d="M0.0893424 5.53732C-0.00755946 2.986 2.22717 0.628267 4.78106 0.597678C6.08271 0.486658 7.34907 0.992131 8.33413 1.81655C7.93005 2.26084 7.51891 2.7 7.07975 3.11114C6.21256 2.58427 5.16845 2.18276 4.15494 2.53935C2.52023 3.00482 1.53025 4.93495 2.13519 6.53415C2.63617 8.20437 4.66769 9.12098 6.25983 8.41935C7.08425 8.12415 7.62779 7.36348 7.86631 6.54613C6.92146 6.5273 5.9764 6.53907 5.03155 6.51297C5.0292 5.95081 5.02685 5.39079 5.0292 4.82863C6.60487 4.82628 8.18289 4.82157 9.76092 4.83569C9.85782 6.21306 9.6546 7.68713 8.75917 8.79262C7.53303 10.3706 5.26771 10.8338 3.42486 10.2147C1.46907 9.57233 0.046774 7.60199 0.0893424 5.53732Z" fill="#42515A"/>
<path d="M12.8324 3.41104C13.3002 3.41104 13.7678 3.41104 14.2378 3.41104C14.2403 3.88122 14.2448 4.35375 14.2474 4.82371C14.7174 4.82842 15.1899 4.83077 15.6601 4.83312C15.6601 5.3033 15.6601 5.77091 15.6601 6.24109C15.1901 6.24344 14.7176 6.2458 14.2474 6.24815C14.2427 6.72068 14.2403 7.19064 14.2378 7.66317C13.7678 7.66082 13.2974 7.66317 12.8298 7.66317C12.8253 7.19064 12.8253 6.72068 12.8204 6.2505C12.3504 6.24558 11.8779 6.24344 11.4077 6.24088C11.4077 5.7707 11.4077 5.30309 11.4077 4.83291C11.8779 4.83056 12.3481 4.8282 12.8204 4.8235C12.8227 4.35375 12.8274 3.88122 12.8324 3.41104Z" fill="#42515A"/>
</svg>
