<svg width="15" height="13" viewBox="0 0 15 13" fill="none" xmlns="http://www.w3.org/2000/svg">
<path d="M14.0814 7.96576V12.9131H11.2131V8.29733C11.2131 7.13836 10.7989 6.34688 9.76038 6.34688C8.96784 6.34688 8.49702 6.87974 8.2891 7.39569C8.21359 7.58008 8.19412 7.83614 8.19412 8.09475V12.9129H5.32557C5.32557 12.9129 5.36407 5.09529 5.32557 4.28606H8.19434V5.50857C8.18856 5.51819 8.18043 5.5276 8.1753 5.5368H8.19434V5.50857C8.57553 4.92202 9.25534 4.08349 10.7795 4.08349C12.6666 4.08349 14.0814 5.31647 14.0814 7.96576ZM2.32482 0.127625C1.34361 0.127625 0.70166 0.771712 0.70166 1.61795C0.70166 2.44621 1.325 3.10891 2.28717 3.10891H2.30578C3.30625 3.10891 3.9283 2.44621 3.9283 1.61795C3.90926 0.771712 3.30624 0.127625 2.32482 0.127625ZM0.872147 12.9131H3.73963V4.28606H0.872147V12.9131Z" fill="#42515A"/>
</svg>
