<svg width="15" height="12" viewBox="0 0 15 12" fill="none" xmlns="http://www.w3.org/2000/svg">
<path d="M14.2617 1.62404C13.7475 1.85207 13.1943 2.00629 12.6142 2.07517C13.2065 1.7203 13.661 1.15878 13.8756 0.488594C13.3213 0.817376 12.7072 1.05589 12.0541 1.18445C11.5309 0.627209 10.7854 0.278961 9.95994 0.278961C8.37614 0.278961 7.09161 1.5635 7.09161 3.1473C7.09161 3.37212 7.11706 3.59095 7.16626 3.80101C4.78243 3.68143 2.66878 2.53958 1.25397 0.803685C1.00711 1.22723 0.865503 1.7203 0.865503 2.24588C0.865503 3.24078 1.37226 4.1191 2.14148 4.63334C1.67152 4.61858 1.22894 4.48959 0.842401 4.27418C0.842187 4.28638 0.842187 4.29857 0.842187 4.31055C0.842187 5.70033 1.83131 6.85952 3.14323 7.12284C2.9028 7.18873 2.64888 7.22359 2.3877 7.22359C2.20245 7.22359 2.02298 7.20584 1.848 7.17247C2.21293 8.31176 3.27201 9.14109 4.52745 9.16441C3.5456 9.93385 2.30898 10.3923 0.964758 10.3923C0.733734 10.3923 0.504849 10.3788 0.280884 10.352C1.54959 11.1662 3.05767 11.6409 4.6774 11.6409C9.95331 11.6409 12.8385 7.27023 12.8385 3.4795C12.8385 3.35522 12.8358 3.23137 12.8302 3.10858C13.3911 2.70429 13.8773 2.19924 14.2617 1.62404Z" fill="#42515A"/>
</svg>
