<svg width="60" height="60" viewBox="0 0 60 60" fill="none" xmlns="http://www.w3.org/2000/svg">
<g clip-path="url(#clip0)">
<path d="M57.755 26.4767L29.984 54.2502L2.21297 26.4767C1.69488 25.9762 0.869143 25.9906 0.368662 26.5087C-0.119469 27.0142 -0.119469 27.8155 0.368662 28.3208L29.0631 57.0153C29.5724 57.5245 30.398 57.5245 30.9074 57.0153L59.6019 28.3208C60.1023 27.8028 60.0879 26.977 59.5698 26.4765C59.0643 25.9883 58.263 25.9883 57.7576 26.4765L57.755 26.4767Z" fill="#607D8B"/>
<path d="M57.755 2.99921L29.984 30.7728L2.21297 2.99921C1.69488 2.49873 0.869143 2.51316 0.368662 3.03124C-0.119469 3.53674 -0.119469 4.33802 0.368662 4.84352L29.0631 33.538C29.5724 34.0471 30.398 34.0471 30.9074 33.538L59.6019 4.84352C60.12 4.34304 60.1343 3.51742 59.6339 2.99921C59.1334 2.48112 58.3078 2.46681 57.7896 2.96717C57.7787 2.97769 57.7681 2.98833 57.7576 2.99921H57.755Z" fill="#607D8B"/>
<path d="M29.984 57.3987C29.6379 57.3993 29.3056 57.2624 29.0606 57.0178L0.366144 28.3234C-0.134337 27.8053 -0.119908 26.9795 0.398181 26.4791C0.903675 25.9909 1.70496 25.9909 2.21033 26.4791L29.9839 54.2501L57.7549 26.4765C58.273 25.976 59.0987 25.9904 59.5992 26.5085C60.0875 27.014 60.0875 27.8153 59.5992 28.3208L30.9049 57.0152C30.6608 57.2599 30.3297 57.3979 29.984 57.3987Z" fill="#f8484f"/>
<path d="M29.984 33.9214C29.6379 33.922 29.3056 33.7851 29.0606 33.5405L0.366144 4.84608C-0.134337 4.328 -0.119908 3.50226 0.398181 3.00178C0.903675 2.51364 1.70496 2.51364 2.21045 3.00178L29.984 30.7728L57.755 2.99921C58.2555 2.48112 59.0811 2.46681 59.5993 2.96717C60.1176 3.46753 60.1317 4.29327 59.6314 4.81148C59.6209 4.82236 59.6102 4.833 59.5993 4.84352L30.9049 33.538C30.6608 33.7826 30.3297 33.9206 29.984 33.9214Z" fill="#f8484f"/>
</g>
<defs>
<clipPath id="clip0">
<rect width="60" height="60" fill="white"/>
</clipPath>
</defs>
</svg>
