<svg width="22" height="30" viewBox="0 0 22 30" fill="none" xmlns="http://www.w3.org/2000/svg">
<path d="M10.9999 0C5.3859 0 0.818481 4.56736 0.818481 10.1814C0.818481 12.4374 2.14668 15.8684 4.99843 20.9787C6.94442 24.4657 8.88143 27.411 8.96314 27.5351L10.3632 29.6572C10.5043 29.8712 10.7435 30 10.9999 30C11.2564 30 11.4955 29.8712 11.6367 29.6572L13.0367 27.5352C13.1176 27.4126 15.0405 24.4927 17.0014 20.9787C19.8532 15.8686 21.1814 12.4376 21.1814 10.1814C21.1814 4.56736 16.614 0 10.9999 0ZM15.6692 20.2352C13.7356 23.7001 11.843 26.5741 11.7633 26.6949L10.9999 27.8519L10.2368 26.6952C10.1567 26.5734 8.24961 23.6736 6.33066 20.2352C3.68543 15.4949 2.34417 12.1122 2.34417 10.1814C2.34417 5.40862 6.2271 1.52569 10.9999 1.52569C15.7728 1.52569 19.6557 5.40862 19.6557 10.1814C19.6557 12.1125 18.3144 15.495 15.6692 20.2352Z" fill="black"/>
<path d="M10.9999 4.47266C7.8872 4.47266 5.35486 7.00505 5.35486 10.1177C5.35486 13.2303 7.8872 15.7627 10.9999 15.7627C14.1126 15.7627 16.645 13.2303 16.645 10.1177C16.645 7.00505 14.1126 4.47266 10.9999 4.47266ZM10.9999 14.237C8.72846 14.237 6.88055 12.3891 6.88055 10.1177C6.88055 7.84625 8.72846 5.99834 10.9999 5.99834C13.2714 5.99834 15.1193 7.84625 15.1193 10.1177C15.1193 12.3891 13.2714 14.237 10.9999 14.237Z" fill="black"/>
</svg>
