<svg width="19" height="19" viewBox="0 0 19 19" fill="none" xmlns="http://www.w3.org/2000/svg">
<path fill-rule="evenodd" clip-rule="evenodd" d="M2.76915 0L8.80161 1.3231V13.1233L2.76915 14.3932V1.87825H1.28731V13.2289H0.176147V1.87825V0.767086H1.28731H2.76915V0V0ZM3.79658 6.7965C4.01768 6.7965 4.19692 6.97573 4.19692 7.19683C4.19692 7.41793 4.01768 7.59716 3.79658 7.59716C3.57549 7.59716 3.39625 7.41793 3.39625 7.19683C3.39625 6.97573 3.57549 6.7965 3.79658 6.7965Z" fill="#B0B4B7"/>
<path fill-rule="evenodd" clip-rule="evenodd" d="M10.5076 0.740723H18.4449V13.6525H10.5076V0.740723V0.740723ZM14.8467 2.67217V5.33147H16.6194V2.67217H14.8467V2.67217ZM16.6194 6.07195H14.8467V8.32088H16.6194V6.07195ZM16.6194 9.0618H14.8467V11.7211H16.6194V9.0618V9.0618ZM14.1058 11.7211V9.0618H12.3331V11.7211H14.1058ZM12.3331 8.32131H14.1058V6.07239H12.3331V8.32131ZM12.3331 5.33147H14.1058V2.67217H12.3331V5.33147Z" fill="#B0B4B7"/>
<path d="M17.704 1.56104H11.2485V12.8318H17.704V1.56104Z" stroke="#FEFEFE" stroke-width="0.200166" stroke-miterlimit="22.9256"/>
<path d="M10.7593 1.04541L11.2486 1.56131" stroke="#FEFEFE" stroke-width="0.200166" stroke-miterlimit="22.9256"/>
<path d="M18.1675 1.04541L17.6782 1.56131" stroke="#FEFEFE" stroke-width="0.200166" stroke-miterlimit="22.9256"/>
<path d="M18.1675 13.3152L17.6782 12.7988" stroke="#FEFEFE" stroke-width="0.200166" stroke-miterlimit="22.9256"/>
<path d="M10.7788 13.3152L11.2681 12.7988" stroke="#FEFEFE" stroke-width="0.200166" stroke-miterlimit="22.9256"/>
<path d="M0.176147 18.2539V15.0791" stroke="#F6121C" stroke-width="0.352799" stroke-miterlimit="22.9256"/>
<path d="M18.4441 18.2539V15.0791" stroke="#F6121C" stroke-width="0.352799" stroke-miterlimit="22.9256"/>
<path d="M18.444 16.6665H0.176147" stroke="#F6121C" stroke-width="0.352799" stroke-miterlimit="22.9256"/>
</svg>
