<svg width="26" height="18" viewBox="0 0 26 18" fill="none" xmlns="http://www.w3.org/2000/svg">
<path fill-rule="evenodd" clip-rule="evenodd" d="M0 7.34224V8.53272L10.7155 8.33426L16.5781 1.42227L22.1925 8.35538H23.1681L16.7349 0L10.0541 1.25683V0.198463L7.80522 0.562064V1.68679L5.2255 2.24885L0 7.34224Z" fill="#B0B4B7"/>
<path fill-rule="evenodd" clip-rule="evenodd" d="M1.19055 8.9575L10.5832 8.86377V17.9589L1.25661 17.0989L1.19055 8.9575V8.9575ZM2.52177 11.3111H4.96909V14.2401C4.05562 14.1541 3.19006 14.1265 2.52177 14.0619V11.3111ZM6.56512 11.3111H9.01244V14.4749L6.56512 14.302V11.3111Z" fill="#B0B4B7"/>
<path fill-rule="evenodd" clip-rule="evenodd" d="M16.5344 2.0835L11.0265 8.79732V17.9915L15.6105 17.6517V11.4761L17.6942 11.3934V17.4919L21.9607 17.1646V8.66491L16.5347 2.0835H16.5344ZM14.7342 11.225L14.7387 14.357L11.8947 14.4665L11.8906 11.3345L14.7345 11.225H14.7342ZM21.1666 11.0066L21.1707 14.1097L18.6109 14.1897L18.6068 11.0762L21.1666 11.0069V11.0066Z" fill="#F6121C"/>
<path d="M22.438 8.90771H25.1102" stroke="#F6121C" stroke-width="0.352889" stroke-miterlimit="22.9256"/>
<path d="M22.438 17.0396H25.1102" stroke="#F6121C" stroke-width="0.352889" stroke-miterlimit="22.9256"/>
<path d="M23.7739 17.0396V8.90771" stroke="#F6121C" stroke-width="0.352889" stroke-miterlimit="22.9256"/>
</svg>
