<svg width="24" height="22" viewBox="0 0 24 22" fill="none" xmlns="http://www.w3.org/2000/svg">
<path fill-rule="evenodd" clip-rule="evenodd" d="M0 7.34219V8.53291L10.7155 8.3344L16.5781 1.42243L22.3122 8.50301H23.2876L16.7349 0L10.0543 1.25678V0.198509L7.80527 0.562332V1.68667L5.22564 2.249L0 7.34219Z" fill="#B0B4B7"/>
<path fill-rule="evenodd" clip-rule="evenodd" d="M1.19055 8.95744L10.5832 8.86377V17.9587L1.25661 17.0989L1.19055 8.95744V8.95744ZM2.48677 11.3109H4.93428V14.2153C4.12809 14.1555 3.11024 14.1091 2.48677 14.0618V11.3109ZM6.38793 11.3109H8.83543V14.4914L6.38793 14.3021V11.3109V11.3109Z" fill="#B0B4B7"/>
<path fill-rule="evenodd" clip-rule="evenodd" d="M16.5342 2.0835L11.0262 8.79729V17.9915L15.6103 17.6516V11.4762L17.694 11.3934V17.4919L21.9603 17.1646V8.66485L16.5342 2.0835Z" fill="#F6121C"/>
<path fill-rule="evenodd" clip-rule="evenodd" d="M14.7712 11.2251L14.7758 14.3572L11.9316 14.4666L11.9274 11.3345L14.7712 11.2251Z" fill="#FEFEFE"/>
<path fill-rule="evenodd" clip-rule="evenodd" d="M21.2037 11.0068L21.208 14.1097L18.6484 14.1895L18.6442 11.0762L21.2037 11.0068Z" fill="#FEFEFE"/>
<path d="M10.8057 21.3146V18.4165" stroke="#F6121C" stroke-width="0.352649" stroke-miterlimit="22.9256"/>
<path d="M10.8057 19.7794L1.46204 18.8696" stroke="#F6121C" stroke-width="0.352649" stroke-miterlimit="22.9256"/>
<path d="M1.46204 19.9576V17.5127" stroke="#F6121C" stroke-width="0.352649" stroke-miterlimit="22.9256"/>
<path d="M10.8054 19.7794L21.8141 18.8696" stroke="#F6121C" stroke-width="0.352649" stroke-miterlimit="22.9256"/>
<path d="M21.8141 19.9573V17.6143" stroke="#F6121C" stroke-width="0.352649" stroke-miterlimit="22.9256"/>
</svg>
