<svg width="23" height="15" viewBox="0 0 23 15" fill="none" xmlns="http://www.w3.org/2000/svg">
<path fill-rule="evenodd" clip-rule="evenodd" d="M2.59307 0L8.62541 1.3231V13.1234L2.59307 14.3934V1.87855H1.11122V13.2294H0V1.87855V0.767327H1.11122H2.59307V0V0ZM3.62074 6.79633C3.84165 6.79633 4.02078 6.97546 4.02078 7.19637C4.02078 7.41727 3.84165 7.59641 3.62074 7.59641C3.39983 7.59641 3.2207 7.41727 3.2207 7.19637C3.2207 6.97546 3.39983 6.79633 3.62074 6.79633Z" fill="#B0B4B7"/>
<path fill-rule="evenodd" clip-rule="evenodd" d="M10.3317 0.740723H18.269V13.6523H10.3317V0.740723V0.740723ZM14.6706 2.67207V5.33132H16.4435V2.67207H14.6706ZM16.4435 6.07191H14.6706V8.32075H16.4435V6.07191ZM16.4435 9.06168H14.6706V11.7209H16.4435V9.06168ZM13.93 11.7209V9.06168H12.1574V11.7209H13.93ZM12.1574 8.32109H13.93V6.07224H12.1574V8.32109ZM12.1574 5.33132H13.93V2.67207H12.1574V5.33132Z" fill="#B0B4B7"/>
<path d="M17.528 1.56104H11.0723V12.832H17.528V1.56104Z" stroke="#FEFEFE" stroke-width="0.199853" stroke-miterlimit="22.9256"/>
<path d="M10.5834 1.04541L11.0726 1.56142" stroke="#FEFEFE" stroke-width="0.199853" stroke-miterlimit="22.9256"/>
<path d="M17.9916 1.04541L17.5023 1.56142" stroke="#FEFEFE" stroke-width="0.199853" stroke-miterlimit="22.9256"/>
<path d="M17.9916 13.3148L17.5023 12.7988" stroke="#FEFEFE" stroke-width="0.199853" stroke-miterlimit="22.9256"/>
<path d="M10.6027 13.3148L11.0919 12.7988" stroke="#FEFEFE" stroke-width="0.199853" stroke-miterlimit="22.9256"/>
<path d="M19.8157 0.881836H22.9903" stroke="#F6121C" stroke-width="0.352917" stroke-miterlimit="22.9256"/>
<path d="M19.8157 13.5112H22.9903" stroke="#F6121C" stroke-width="0.352917" stroke-miterlimit="22.9256"/>
<path d="M21.4028 13.511V0.881836" stroke="#F6121C" stroke-width="0.352917" stroke-miterlimit="22.9256"/>
</svg>
