<svg class="sprite-icons" xmlns="http://www.w3.org/2000/svg">

	<symbol id="icon-back">
		<!-- width="32" height="23" viewBox="0 0 32 23" -->
		<path d="M10.273 1.00878C10.717 0.564781 11.416 0.564781 11.86 1.00878C12.289 1.43778 12.289 2.15178 11.86 2.57978L3.81302 10.6268H30.367C30.986 10.6268 31.494 11.1188 31.494 11.7378C31.494 12.3568 30.986 12.8648 30.367 12.8648H3.81302L11.86 20.8968C12.289 21.3408 12.289 22.0558 11.86 22.4838C11.416 22.9278 10.717 22.9278 10.273 22.4838L0.321018 12.5318C-0.107982 12.1028 -0.107982 11.3888 0.321018 10.9608L10.273 1.00878Z" />
	</symbol>

	<symbol id="icon-all">
		<!-- width="7" height="8" viewBox="0 0 7 8" -->
		<path fill-rule="evenodd" clip-rule="evenodd" d="M1.23415 2.26758H5.41291C5.72943 2.26758 5.95004 2.52975 5.9884 2.84308L6.42322 6.30565C6.46159 6.61898 6.16105 6.88115 5.84773 6.88115H0.799332C0.482809 6.88115 0.182271 6.61898 0.223835 6.30565L0.658655 2.84308C0.697022 2.52655 0.917629 2.26758 1.23415 2.26758V2.26758Z" fill="black" stroke="black" stroke-width="0.434821" stroke-miterlimit="22.9256" stroke-linecap="round" stroke-linejoin="round"/>
		<path d="M1.62427 4.54738C1.57631 4.752 1.37809 4.87669 1.17986 4.83193C0.981632 4.78397 0.860138 4.58255 0.904899 4.37793L1.62427 4.54738ZM2.56425 0.499711L1.62427 4.54738L0.904899 4.37793L1.84488 0.330258L2.56425 0.499711V0.499711ZM1.84488 0.330258C1.89284 0.125637 2.09106 0.000945751 2.28929 0.0457067C2.48752 0.0936648 2.60901 0.295089 2.56425 0.499711L1.84488 0.330258Z" fill="black"/>
		<path d="M5.01971 4.54739L5.73908 4.37794C5.78704 4.58256 5.66235 4.78399 5.46412 4.83194C5.2659 4.8799 5.06767 4.75201 5.01971 4.54739ZM4.07973 0.499725L4.7991 0.330273L5.73908 4.37794L5.01971 4.54739L4.07973 0.499725ZM4.7991 0.330273L4.07973 0.499725C4.03177 0.295104 4.15647 0.0936793 4.35469 0.0457212C4.55292 -0.00223697 4.75115 0.125651 4.7991 0.330273V0.330273Z" fill="black"/>
		<path d="M2.24136 0.739311C2.03674 0.739311 1.87048 0.573056 1.87048 0.368435C1.87048 0.163814 2.03674 -0.00244141 2.24136 -0.00244141L2.23816 0.736114L2.24136 0.739311ZM4.40267 0.739311H2.24136L2.24456 0.000755804H4.40587L4.40267 0.739311ZM4.40587 0.000755804C4.61049 0.000755804 4.77675 0.167011 4.77675 0.371632C4.77675 0.576254 4.61049 0.742509 4.40587 0.742509L4.40907 0.00395301L4.40587 0.000755804Z" fill="black"/>
		<path d="M2.41077 4.37782L3.43387 3.35791V5.79738" stroke="white" stroke-width="0.434821" stroke-miterlimit="22.9256" stroke-linecap="round" stroke-linejoin="round"/>
	</symbol>

	<symbol id="icon-marka">
		<!-- width="7" height="7" viewBox="0 0 7 7" -->
		<path fill-rule="evenodd" clip-rule="evenodd" d="M1.48365 0.712903H1.86327L2.05308 0.38558C2.26419 0.0175833 2.73871 -0.10831 3.10671 0.102804L3.43403 0.292612L3.76136 0.102804C4.12935 -0.10831 4.60194 0.0175833 4.81499 0.38558L5.0048 0.712903H5.38248C5.80664 0.712903 6.15333 1.05959 6.15333 1.48376V1.86144L6.48065 2.05125C6.84865 2.2643 6.97454 2.73688 6.76343 3.10488L6.57362 3.4322L6.76343 3.75952C6.97454 4.12752 6.84865 4.60011 6.48065 4.81316L6.15333 5.00297V5.38258C6.15333 5.80675 5.80664 6.15344 5.38248 6.15344H5.0048L4.81499 6.48076C4.60387 6.84876 4.12935 6.97465 3.76136 6.76354L3.43403 6.57373L3.10671 6.76354C2.73871 6.97465 2.26613 6.84876 2.05308 6.48076L1.86327 6.15344H1.48559C1.06143 6.15344 0.714734 5.80675 0.714734 5.38258V5.00297L0.387411 4.81316C0.0194143 4.60204 -0.106479 4.12752 0.104635 3.75952L0.294443 3.4322L0.104635 3.10488C-0.106479 2.73688 0.0194143 2.2643 0.387411 2.05125L0.714734 1.86144V1.48182C0.714734 1.05766 1.06143 0.710966 1.48559 0.710966L1.48365 0.712903Z" fill="black"/>
		<path d="M2.65733 4.42001C2.65733 4.54009 2.55855 4.63887 2.43847 4.63887C2.31838 4.63887 2.2196 4.54203 2.2196 4.42001H2.65733ZM2.65733 2.44445V4.42001H2.2196V2.44445L2.5876 2.28563L2.65733 2.44445ZM2.2196 2.44445C2.2196 2.32436 2.31838 2.22559 2.43847 2.22559C2.55855 2.22559 2.65733 2.32243 2.65733 2.44445H2.2196V2.44445ZM3.27905 3.52713L2.28933 2.6052L2.5876 2.28563L3.57732 3.20756V3.52713H3.27905ZM3.57732 3.20756C3.66641 3.2889 3.67028 3.42835 3.587 3.51551C3.50372 3.60267 3.3662 3.60848 3.27711 3.52519L3.57538 3.20562L3.57732 3.20756ZM4.57478 2.60714L3.57732 3.52713L3.28098 3.20756L4.27845 2.28756L4.64644 2.44832L4.57672 2.60908L4.57478 2.60714ZM4.27845 2.28756C4.36754 2.20622 4.50506 2.21203 4.58834 2.29919C4.66969 2.38828 4.66581 2.52579 4.57672 2.60714L4.28038 2.28756H4.27845ZM4.20872 4.42194V2.44638H4.64644V4.42194H4.20872ZM4.64644 4.42194C4.64644 4.54203 4.54767 4.6408 4.42758 4.6408C4.3075 4.6408 4.20872 4.54396 4.20872 4.42194H4.64644Z" fill="white"/>
	</symbol>
	
	<symbol id="icon-palete">
		<!-- width="11" height="6" viewBox="0 0 11 6" -->
		<path d="M4.14757 3.03564H0.75947C0.340026 3.03564 0 3.21876 0 3.44465V5.08029C0 5.30617 0.340026 5.48929 0.75947 5.48929H4.14757C4.56702 5.48929 4.90704 5.30617 4.90704 5.08029V3.44465C4.90704 3.21876 4.56702 3.03564 4.14757 3.03564Z" fill="black"/>
		<path d="M9.64293 3.03564H6.25483C5.83539 3.03564 5.49536 3.21876 5.49536 3.44465V5.08029C5.49536 5.30617 5.83539 5.48929 6.25483 5.48929H9.64293C10.0624 5.48929 10.4024 5.30617 10.4024 5.08029V3.44465C10.4024 3.21876 10.0624 3.03564 9.64293 3.03564Z" fill="black"/>
		<path d="M7.06917 0H3.41969C2.96785 0 2.60156 0.183116 2.60156 0.409002V2.04464C2.60156 2.27053 2.96785 2.45364 3.41969 2.45364H7.06917C7.52101 2.45364 7.8873 2.27053 7.8873 2.04464V0.409002C7.8873 0.183116 7.52101 0 7.06917 0Z" fill="black"/>
	</symbol>

	<symbol id="icon-size">
		<!-- width="7" height="7" viewBox="0 0 7 7" -->
		<path d="M5.80215 0H1.06205C0.475494 0 0 0.512766 0 1.14529V5.7189C0 6.35143 0.475494 6.8642 1.06205 6.8642H5.80215C6.38871 6.8642 6.8642 6.35143 6.8642 5.7189V1.14529C6.8642 0.512766 6.38871 0 5.80215 0Z" fill="black"/>
		<path d="M2.54036 1.86685C2.43945 1.86685 2.3562 1.7836 2.3562 1.68269C2.3562 1.58178 2.43945 1.49854 2.54036 1.49854V1.86685V1.86685ZM4.32137 1.86685H2.54036V1.49854H4.32137V1.86685ZM4.32137 1.49854C4.42227 1.49854 4.50552 1.58178 4.50552 1.68269C4.50552 1.7836 4.42227 1.86685 4.32137 1.86685V1.49854Z" fill="white"/>
		<path d="M2.54036 5.36587C2.43945 5.36587 2.3562 5.28262 2.3562 5.18171C2.3562 5.08081 2.43945 4.99756 2.54036 4.99756V5.36587ZM4.32137 5.36587H2.54036V4.99756H4.32137V5.36587ZM4.32137 4.99756C4.42227 4.99756 4.50552 5.08081 4.50552 5.18171C4.50552 5.28262 4.42227 5.36587 4.32137 5.36587V4.99756Z" fill="white"/>
		<path d="M3.61758 5.02248C3.61758 5.12338 3.53433 5.20663 3.43342 5.20663C3.33252 5.20663 3.24927 5.12338 3.24927 5.02248H3.61758ZM3.61758 1.84138V5.02248H3.24927V1.84138H3.61758ZM3.24927 1.84138C3.24927 1.74047 3.33252 1.65723 3.43342 1.65723C3.53433 1.65723 3.61758 1.74047 3.61758 1.84138H3.24927Z" fill="white"/>
		<path d="M3.53431 5.28004C3.47629 5.36329 3.36025 5.38347 3.277 5.32545C3.19375 5.26743 3.17357 5.15138 3.23159 5.06813L3.53179 5.27752L3.53431 5.28004ZM4.21291 4.31133L3.53431 5.28004L3.23411 5.07066L3.91271 4.10195L4.21291 4.31133ZM3.91271 4.10195C3.97073 4.0187 4.08678 3.99852 4.17003 4.05654C4.25327 4.11456 4.27345 4.23061 4.21543 4.31385L3.91524 4.10447L3.91271 4.10195Z" fill="white"/>
		<path d="M3.32743 5.28012L3.62762 5.07074C3.68565 5.15399 3.66546 5.27003 3.58222 5.32805C3.49897 5.38607 3.38545 5.36589 3.3249 5.28264L3.32743 5.28012ZM2.64883 4.31141L2.94902 4.10203L3.62762 5.07074L3.32743 5.28012L2.64883 4.31141ZM2.94902 4.10203L2.64883 4.31141C2.5908 4.22816 2.61099 4.11212 2.69423 4.0541C2.77748 3.99608 2.891 4.01626 2.95155 4.09951L2.94902 4.10203Z" fill="white"/>
		<path d="M3.32995 1.58437C3.38797 1.50112 3.50401 1.48094 3.58726 1.53896C3.67051 1.59698 3.69069 1.71303 3.63267 1.79628L3.33247 1.58689L3.32995 1.58437ZM2.65135 2.55308L3.32995 1.58437L3.63015 1.79375L2.95155 2.76246L2.65135 2.55308ZM2.95155 2.76246C2.89353 2.84571 2.77748 2.86589 2.69423 2.80787C2.61099 2.74985 2.5908 2.6338 2.64883 2.55056L2.94902 2.75994L2.95155 2.76246Z" fill="white"/>
		<path d="M3.53679 1.58445L3.23659 1.79383C3.17857 1.71059 3.19875 1.59454 3.282 1.53652C3.36525 1.4785 3.47877 1.49868 3.53932 1.58193L3.53679 1.58445ZM4.21539 2.55316L3.91519 2.76254L3.23659 1.79383L3.53679 1.58445L4.21539 2.55316ZM3.91519 2.76254L4.21539 2.55316C4.27341 2.63641 4.25323 2.75245 4.16999 2.81047C4.08674 2.86849 3.97322 2.84831 3.91267 2.76506L3.91519 2.76254Z" fill="white"/>
	</symbol>

	<symbol id="icon-struktur">
		<!-- width="7" height="7" viewBox="0 0 7 7" -->
		<path fill-rule="evenodd" clip-rule="evenodd" d="M1.14397 0H5.71983C6.34922 0 6.8638 0.514582 6.8638 1.14397V5.71983C6.8638 6.34922 6.34922 6.8638 5.71983 6.8638H1.14397C0.514582 6.8638 0 6.34922 0 5.71983V1.14397C0 0.514582 0.514582 0 1.14397 0V0Z" fill="black"/>
		<path fill-rule="evenodd" clip-rule="evenodd" d="M8.6521 2.99678L7.34336 1.99463L-1.42615 5.54538L-0.116056 6.54753L8.6521 2.99678Z" fill="white"/>
		<path fill-rule="evenodd" clip-rule="evenodd" d="M8.09156 0.849447L7.13938 0.120117L-1.62878 3.67222L-0.677955 4.4002L8.09156 0.849447Z" fill="white"/>
	</symbol>

	<symbol id="icon-type">
		<!-- width="7" height="7" viewBox="0 0 7 7" -->
		<path d="M1.08143 0H0.282836C0.12663 0 0 0.12663 0 0.282836V6.5805C0 6.73671 0.12663 6.86334 0.282836 6.86334H1.08143C1.23764 6.86334 1.36427 6.73671 1.36427 6.5805V0.282836C1.36427 0.12663 1.23764 0 1.08143 0Z" fill="black"/>
		<path d="M3.2372 0.000488281H2.4386C2.28239 0.000488281 2.15576 0.127118 2.15576 0.283325V6.58099C2.15576 6.7372 2.28239 6.86383 2.4386 6.86383H3.2372C3.3934 6.86383 3.52003 6.7372 3.52003 6.58099V0.283325C3.52003 0.127118 3.3934 0.000488281 3.2372 0.000488281Z" fill="black"/>
		<path d="M6.14243 0.000488281H4.79005C4.52577 0.000488281 4.31152 0.127118 4.31152 0.283325V6.58099C4.31152 6.7372 4.52577 6.86383 4.79005 6.86383H6.14243C6.40672 6.86383 6.62096 6.7372 6.62096 6.58099V0.283325C6.62096 0.127118 6.40672 0.000488281 6.14243 0.000488281Z" fill="black"/>
	</symbol>

	<symbol id="icon-calc1">
		<!-- width="19" height="19" viewBox="0 0 19 19" -->
		<path fill-rule="evenodd" clip-rule="evenodd" d="M2.76915 0L8.80161 1.3231V13.1233L2.76915 14.3932V1.87825H1.28731V13.2289H0.176147V1.87825V0.767086H1.28731H2.76915V0V0ZM3.79658 6.7965C4.01768 6.7965 4.19692 6.97573 4.19692 7.19683C4.19692 7.41793 4.01768 7.59716 3.79658 7.59716C3.57549 7.59716 3.39625 7.41793 3.39625 7.19683C3.39625 6.97573 3.57549 6.7965 3.79658 6.7965Z" fill="#B0B4B7"/>
		<path fill-rule="evenodd" clip-rule="evenodd" d="M10.5076 0.740723H18.4449V13.6525H10.5076V0.740723V0.740723ZM14.8467 2.67217V5.33147H16.6194V2.67217H14.8467V2.67217ZM16.6194 6.07195H14.8467V8.32088H16.6194V6.07195ZM16.6194 9.0618H14.8467V11.7211H16.6194V9.0618V9.0618ZM14.1058 11.7211V9.0618H12.3331V11.7211H14.1058ZM12.3331 8.32131H14.1058V6.07239H12.3331V8.32131ZM12.3331 5.33147H14.1058V2.67217H12.3331V5.33147Z" fill="#B0B4B7"/>
		<path d="M17.704 1.56104H11.2485V12.8318H17.704V1.56104Z" stroke="#FEFEFE" stroke-width="0.200166" stroke-miterlimit="22.9256"/>
		<path d="M10.7593 1.04541L11.2486 1.56131" stroke="#FEFEFE" stroke-width="0.200166" stroke-miterlimit="22.9256"/>
		<path d="M18.1675 1.04541L17.6782 1.56131" stroke="#FEFEFE" stroke-width="0.200166" stroke-miterlimit="22.9256"/>
		<path d="M18.1675 13.3152L17.6782 12.7988" stroke="#FEFEFE" stroke-width="0.200166" stroke-miterlimit="22.9256"/>
		<path d="M10.7788 13.3152L11.2681 12.7988" stroke="#FEFEFE" stroke-width="0.200166" stroke-miterlimit="22.9256"/>
		<path d="M0.176147 18.2539V15.0791" stroke="#F6121C" stroke-width="0.352799" stroke-miterlimit="22.9256"/>
		<path d="M18.4441 18.2539V15.0791" stroke="#F6121C" stroke-width="0.352799" stroke-miterlimit="22.9256"/>
		<path d="M18.444 16.6665H0.176147" stroke="#F6121C" stroke-width="0.352799" stroke-miterlimit="22.9256"/>
	</symbol>

	<symbol id="icon-location">
		<!-- width="22" height="30" viewBox="0 0 22 30" -->
		<path d="M10.9999 0C5.3859 0 0.818481 4.56736 0.818481 10.1814C0.818481 12.4374 2.14668 15.8684 4.99843 20.9787C6.94442 24.4657 8.88143 27.411 8.96314 27.5351L10.3632 29.6572C10.5043 29.8712 10.7435 30 10.9999 30C11.2564 30 11.4955 29.8712 11.6367 29.6572L13.0367 27.5352C13.1176 27.4126 15.0405 24.4927 17.0014 20.9787C19.8532 15.8686 21.1814 12.4376 21.1814 10.1814C21.1814 4.56736 16.614 0 10.9999 0ZM15.6692 20.2352C13.7356 23.7001 11.843 26.5741 11.7633 26.6949L10.9999 27.8519L10.2368 26.6952C10.1567 26.5734 8.24961 23.6736 6.33066 20.2352C3.68543 15.4949 2.34417 12.1122 2.34417 10.1814C2.34417 5.40862 6.2271 1.52569 10.9999 1.52569C15.7728 1.52569 19.6557 5.40862 19.6557 10.1814C19.6557 12.1125 18.3144 15.495 15.6692 20.2352Z" />
		<path d="M10.9999 4.47266C7.8872 4.47266 5.35486 7.00505 5.35486 10.1177C5.35486 13.2303 7.8872 15.7627 10.9999 15.7627C14.1126 15.7627 16.645 13.2303 16.645 10.1177C16.645 7.00505 14.1126 4.47266 10.9999 4.47266ZM10.9999 14.237C8.72846 14.237 6.88055 12.3891 6.88055 10.1177C6.88055 7.84625 8.72846 5.99834 10.9999 5.99834C13.2714 5.99834 15.1193 7.84625 15.1193 10.1177C15.1193 12.3891 13.2714 14.237 10.9999 14.237Z" />
	</symbol>

	<symbol id="icon-maus">
		<!-- width="36" height="60" viewBox="0 0 36 60" -->
		<path d="M34.5647 36.8917C34.0782 36.8917 33.6841 37.286 33.6841 37.7723V42.555C33.6841 51.2033 26.6482 58.2391 18 58.2391C9.35179 58.2391 2.31594 51.2033 2.31594 42.555V25.1521C2.31594 24.6658 1.92177 24.2715 1.43531 24.2715C0.948973 24.2715 0.554688 24.6658 0.554688 25.1521V42.555C0.554688 52.1744 8.38064 60.0004 18 60.0004C27.6194 60.0004 35.4453 52.1744 35.4453 42.555V37.7723C35.4453 37.286 35.0512 36.8917 34.5647 36.8917Z" fill="black"/>
		<path d="M18 0C8.38064 0 0.554688 7.82595 0.554688 17.4453V21.6292C0.554688 22.1156 0.948973 22.5099 1.43531 22.5099C1.92177 22.5099 2.31594 22.1156 2.31594 21.6292V17.4453C2.31594 9.09288 8.87907 2.24513 17.1189 1.7865V8.0926C15.6167 8.48395 14.5045 9.85198 14.5045 11.475V16.5558C14.5045 18.1788 15.6167 19.5469 17.1189 19.9382V26.1719C17.1189 26.6582 17.5131 27.0525 17.9995 27.0525C18.486 27.0525 18.8802 26.6582 18.8802 26.1719V19.9382C20.3824 19.5469 21.4946 18.1788 21.4946 16.5558V11.475C21.4946 9.85198 20.3824 8.48395 18.8802 8.0926V1.78638C27.1205 2.24454 33.6841 9.09241 33.6841 17.4452V34.2493C33.6841 34.7357 34.0782 35.1299 34.5647 35.1299C35.0512 35.1299 35.4453 34.7357 35.4453 34.2493V17.4453C35.4453 7.82595 27.6194 0 18 0V0ZM19.7333 11.475V16.5558C19.7333 17.5118 18.9555 18.2896 17.9995 18.2896C17.0435 18.2896 16.2658 17.5118 16.2658 16.5558V11.475C16.2658 10.519 17.0435 9.74125 17.9995 9.74125C18.9555 9.74125 19.7333 10.519 19.7333 11.475Z" fill="black"/>
	</symbol>

	<symbol id="icon-down">
		<!-- width="34" height="32" viewBox="0 0 34 32" -->
		<g>
			<g>
				<path d="M17 25.723L27.506 32l-2.78-11.838L34 12.2l-12.225-1.039L17 0l-4.775 11.161L0 12.201l9.274 7.96L6.494 32z"/>
			</g>
		</g>
	</symbol>

</svg>