<svg id="Ebene_1" data-name="Ebene 1" xmlns="http://www.w3.org/2000/svg" width="71.091" height="24.814" viewBox="0 0 71.091 24.814"><defs><style>.cls-1{fill:#fff;}</style></defs><title>erv-logo-white</title><path class="cls-1" d="M44.054,16.589a.717.717,0,0,0-.337-.25,1.706,1.706,0,0,0-.606-.087H38.183V13.73h3.08q.75,0,.943-.336a1.588,1.588,0,0,0,.192-.8V11.9a1.588,1.588,0,0,0-.192-.8q-.194-.338-.943-.337h-3.08V8.552H43q.752,0,.944-.337a1.586,1.586,0,0,0,.192-.8V6.627a1.588,1.588,0,0,0-.192-.8q-.193-.336-.944-.337h-7.43a1.27,1.27,0,0,0-.8.26,1.041,1.041,0,0,0-.337.876v11.55a1.038,1.038,0,0,0,.337.876,1.27,1.27,0,0,0,.8.26h7.546q.75,0,.943-.337a1.586,1.586,0,0,0,.193-.8v-.789a2.286,2.286,0,0,0-.039-.433.931.931,0,0,0-.154-.366"/><path class="cls-1" d="M57.51,18.274l-2.271-5.025a3.915,3.915,0,0,0,1.53-1.4,4,4,0,0,0,.568-2.185q0-4.177-5.64-4.177H47.519a1.262,1.262,0,0,0-.8.26,1.037,1.037,0,0,0-.338.875v11.55a1.038,1.038,0,0,0,.338.876,1.262,1.262,0,0,0,.8.26H49a1.262,1.262,0,0,0,.8-.26,1.038,1.038,0,0,0,.338-.876v-3.85h1.751l1.559,3.927a1.9,1.9,0,0,0,.558.838,1.361,1.361,0,0,0,.809.221h2.041a1.472,1.472,0,0,0,.375-.048.583.583,0,0,0,.289-.164.489.489,0,0,0,.115-.317,1.2,1.2,0,0,0-.125-.51m-4.158-7.556a1.362,1.362,0,0,1-.472.433,1.776,1.776,0,0,1-.615.2,4.469,4.469,0,0,1-.626.048h-1.5V8.552h1.674A3.69,3.69,0,0,1,52.4,8.6a1.709,1.709,0,0,1,.559.192,1.118,1.118,0,0,1,.423.424,1.458,1.458,0,0,1,.164.741,1.321,1.321,0,0,1-.193.76"/><path class="cls-1" d="M62.053,18.216a1.373,1.373,0,0,0,.587.914,1.962,1.962,0,0,0,.876.183h2.252a2.017,2.017,0,0,0,.867-.173,1.491,1.491,0,0,0,.616-.924L71,6.589a1.174,1.174,0,0,0,.077-.558.607.607,0,0,0-.154-.328.655.655,0,0,0-.308-.163,1.662,1.662,0,0,0-.4-.048H68.29a1.2,1.2,0,0,0-.789.24,1.69,1.69,0,0,0-.462.857L64.69,15h-.038L62.688,6.608a1.711,1.711,0,0,0-.433-.866,1.127,1.127,0,0,0-.78-.25H59.416a1.676,1.676,0,0,0-.4.048.719.719,0,0,0-.317.163.523.523,0,0,0-.154.328,1.457,1.457,0,0,0,.067.558Z"/><path class="cls-1" d="M18.3.016a.422.422,0,0,0-.336.766,13.817,13.817,0,0,1,6.464,11.626A13.812,13.812,0,0,1,17.96,24.032a.423.423,0,0,0,.336.767,12.937,12.937,0,0,0,10.01-12.391A12.938,12.938,0,0,0,18.3.016"/><path class="cls-1" d="M5.792,3.2A10.031,10.031,0,0,0,.249,14.5c-.278-2.468,2.668-5.822,7.13-7.9S16.3,4.416,18.015,6.216A10.028,10.028,0,0,0,5.792,3.2"/><path class="cls-1" d="M20.005,11.86a.985.985,0,0,1,.047.117A9.982,9.982,0,0,0,19.3,8.463l-.052-.119c-1.213-2.6-6.259-2.814-11.276-.475s-8.1,6.343-6.885,8.944l.058.116a9.976,9.976,0,0,0,2.207,2.835,1.06,1.06,0,0,1-.058-.111c-.768-1.646,2.351-4.724,6.966-6.876s8.979-2.563,9.746-.917"/><path class="cls-1" d="M4.291,20.317a1.133,1.133,0,0,0,.45.484,10.029,10.029,0,0,0,15.212-7.093,1.139,1.139,0,0,0-.082-.656c-.676-1.45-4.711-1-9.014,1.007s-7.242,4.808-6.566,6.258"/></svg>