<svg id="Ebene_1" data-name="Ebene 1" xmlns="http://www.w3.org/2000/svg" width="105.596" height="26.19" viewBox="0 0 105.596 26.19"><defs><style>.cls-1{fill:#fff;}</style></defs><title>allianz-logo-white</title><path class="cls-1" d="M9.623,13.862H6.017L7.936,7.6ZM4.148,20.769l1.229-4.116h4.859l1.151,4.116h4.5l-4.473-15.7A1.657,1.657,0,0,0,9.623,3.711H3.255V5.194H3.79c.665,0,1.025.259,1.025.769a4.12,4.12,0,0,1-.339,1.378L0,20.769Z"/><path class="cls-1" d="M21.073,20.769V5.018A1.188,1.188,0,0,0,19.8,3.711H15.859V5.194h.257c.664,0,.944.282.944.952V20.769Z"/><path class="cls-1" d="M27.9,20.769V5.018A1.192,1.192,0,0,0,26.62,3.711H22.684V5.194h.251c.667,0,.949.282.949.952V20.769Z"/><path class="cls-1" d="M34.9,5.267c0-1.143-.846-1.835-2.3-1.835-1.431,0-2.3.692-2.3,1.835s.874,1.843,2.3,1.843c1.455,0,2.3-.685,2.3-1.843m-.075,15.5V9.286a1.191,1.191,0,0,0-1.282-1.3H29.659V9.439h.229c.665,0,.945.3.945.971V20.769Z"/><path class="cls-1" d="M43.616,14.628v2.485a3.254,3.254,0,0,1-2.171,1.105c-.72,0-.972-.354-.972-1.312s.2-1.376.918-1.655a10.364,10.364,0,0,1,2.225-.623m-5.4-2.985a9.637,9.637,0,0,1,3.939-1c1.077,0,1.461.383,1.461,1.5v.286c-1.636.259-2.147.363-3.069.567a9.187,9.187,0,0,0-1.511.483,3.67,3.67,0,0,0-2.375,3.809c0,2.429,1.047,3.6,3.22,3.6a5.819,5.819,0,0,0,2.151-.405,7.214,7.214,0,0,0,1.714-1.1v.178a1.066,1.066,0,0,0,1.2,1.2H48.6V19.392h-.18c-.69,0-.945-.31-.945-1.125v-6.09c0-3.246-1.126-4.377-4.377-4.377a13.632,13.632,0,0,0-3.064.363,10.33,10.33,0,0,0-2.711,1.023Z"/><path class="cls-1" d="M54.427,20.769V12.125a2.8,2.8,0,0,1,2.149-1.077c.847,0,1.049.334,1.049,1.62v8.1h3.989V12.076c0-2.023-.148-2.663-.789-3.349a3.117,3.117,0,0,0-2.408-.9A5.516,5.516,0,0,0,54.28,9.7v-.51a1.08,1.08,0,0,0-1.232-1.2H49.259V9.439h.231c.664,0,.949.3.949.971V20.769Z"/><path class="cls-1" d="M73.452,18.085H67.877l5.32-7.463V7.983H64.862a1.2,1.2,0,0,0-1.381,1.383v2.323h1.482v-.228c0-.587.306-.869.942-.869h2.868L63.4,18.138v2.631h10.05Z"/><path class="cls-1" d="M94.391,20.443V5.99c0-1.152-.408-1.539-1.528-1.539H89.481V6.065h.2c.773,0,.922.173.922,1.1V20.443Zm1.669,0h3.757V9.187c0-1.13-.436-1.537-1.537-1.537H96.06Zm-7.114,0V7.65H86.72c-1.1,0-1.533.407-1.533,1.537V20.443ZM103.371,13.1a10.871,10.871,0,1,1-21.741,0,10.871,10.871,0,1,1,21.741,0m2.225,0a13.1,13.1,0,1,0-26.191,0,13.1,13.1,0,0,0,26.191,0"/></svg>