<svg width="14" height="26" viewBox="0 0 14 26" fill="none" xmlns="http://www.w3.org/2000/svg">
<path d="M12.4811 13.9811C12.1491 13.9961 11.833 14.0182 11.517 14.0212C10.752 14.0282 9.98704 14.021 9.22304 14.029C8.60704 14.029 8.54913 14.0871 8.54213 14.7211C8.53013 15.7731 8.52899 16.8212 8.52699 17.8752C8.52699 20.2172 8.52699 22.5591 8.52699 24.9011C8.52699 25.0011 8.52699 25.0922 8.52699 25.1882C8.47999 25.8602 8.35308 25.983 7.69008 25.988C6.75008 25.988 5.81001 25.988 4.87001 25.988C4.12101 25.988 4.07821 25.944 4.07021 25.215C4.06421 24.324 4.06302 23.4332 4.05702 22.5422C4.04602 21.0422 4.02609 19.5511 4.02309 18.0551C4.02309 17.2271 4.05302 16.399 4.05702 15.571C4.05702 15.221 4.0361 14.8711 4.0121 14.5221C3.9831 14.1161 3.93013 14.0541 3.52113 14.0441C2.77213 14.0261 2.02106 14.0301 1.27406 14.0251C1.00306 14.0251 0.732051 14.0341 0.462051 14.0251C0.140051 14.0091 0.0712091 13.9462 0.0492091 13.6252C0.0212091 13.2122 0.00106652 12.797 0.00306652 12.384C0.00306652 11.636 0.0211056 10.884 0.0431056 10.141C0.0551056 9.73404 0.156022 9.62812 0.557022 9.61712C1.09802 9.60312 1.64102 9.61702 2.18202 9.61102C2.62702 9.61102 3.0732 9.6172 3.5182 9.6032C3.9402 9.5902 4.00615 9.52301 4.01015 9.08001C4.02015 8.22001 4.02415 7.36015 4.01015 6.50115C3.97962 5.64007 4.07588 4.779 4.29604 3.94598C4.53414 2.94427 5.07428 2.03992 5.8434 1.3554C6.61252 0.670883 7.57352 0.239363 8.59608 0.119072C9.7202 -0.0126846 10.855 -0.0270643 11.9821 0.0761034C12.2521 0.0871034 12.5232 0.108115 12.7912 0.138115C13.1392 0.176115 13.2321 0.267049 13.2601 0.620049C13.2771 0.841049 13.2601 1.06502 13.2601 1.28802C13.2601 2.05202 13.26 2.81603 13.254 3.57903C13.247 4.06303 13.2161 4.09103 12.7301 4.10003C12.1721 4.11003 11.613 4.08102 11.057 4.11102C10.6283 4.12643 10.2023 4.18637 9.78603 4.28997C9.49222 4.37346 9.22776 4.53785 9.02284 4.76434C8.81792 4.99083 8.68085 5.27031 8.62709 5.57098C8.58372 5.72443 8.5592 5.88279 8.55409 6.04217C8.54909 7.06217 8.54309 8.08101 8.55409 9.10101C8.56109 9.53301 8.63498 9.60101 9.06898 9.60101C9.99098 9.61701 10.9141 9.61418 11.8361 9.62518C12.0901 9.62518 12.346 9.63917 12.598 9.66717C12.898 9.69917 13.0232 9.82716 13.0202 10.1362C13.0111 10.4064 12.9856 10.6758 12.944 10.943C12.8253 11.827 12.7024 12.7105 12.5751 13.5932C12.5581 13.7092 12.5181 13.8291 12.4811 13.9811Z" fill="#1A1818"/>
</svg>
