<svg id="facebook_icon" data-name="facebook icon" xmlns="http://www.w3.org/2000/svg" width="13.264" height="25.987" viewBox="0 0 13.264 25.987">
  <path id="Контур_2323" data-name="Контур 2323" d="M-3416.708-4044.7c-.332.015-.648.037-.964.04-.765.007-1.53,0-2.294.008-.616,0-.674.058-.681.692-.012,1.052-.013,2.1-.015,3.154q0,3.513,0,7.026c0,.1,0,.191,0,.287-.047.672-.174.795-.837.8q-1.41,0-2.82,0c-.749,0-.792-.044-.8-.773-.006-.891-.007-1.782-.013-2.673-.011-1.5-.031-2.991-.034-4.487,0-.828.03-1.656.034-2.484,0-.35-.021-.7-.045-1.049-.029-.406-.082-.468-.491-.478-.749-.018-1.5-.014-2.247-.019-.271,0-.542.009-.812,0-.322-.016-.391-.079-.413-.4-.028-.413-.048-.828-.046-1.241,0-.748.018-1.5.04-2.243.012-.407.113-.513.514-.524.541-.014,1.084,0,1.625-.006.445,0,.891.006,1.336-.008.422-.013.488-.08.492-.523.01-.86.014-1.72,0-2.579a8.782,8.782,0,0,1,.286-2.555,5.023,5.023,0,0,1,4.3-3.827,16.313,16.313,0,0,1,3.386-.043c.27.011.541.032.809.062.348.038.441.129.469.482.017.221,0,.445,0,.668,0,.764,0,1.528-.006,2.291-.007.484-.038.512-.524.521-.558.01-1.117-.019-1.673.011a6.183,6.183,0,0,0-1.271.179,1.63,1.63,0,0,0-1.159,1.281,1.963,1.963,0,0,0-.073.471c-.005,1.02-.011,2.039,0,3.059.007.432.081.5.515.5.922.016,1.845.013,2.767.024.254,0,.51.014.762.042.3.032.425.16.422.469a6.7,6.7,0,0,1-.076.807q-.178,1.326-.369,2.65C-3416.631-4044.972-3416.671-4044.852-3416.708-4044.7Z" transform="translate(3429.189 4058.681)" fill="#fff"/>
</svg>
