<svg xmlns="http://www.w3.org/2000/svg" width="13.706" height="27.684" viewBox="0 0 13.706 27.684">
  <path d="M363.44,371.38q0-1.585,0-3.169c0-.17,0-.34,0-.511a.1.1,0,0,0-.027-.09c-.066-.011-.139-.026-.213-.036-.342-.047-.684-.092-1.027-.132q-.582-.067-1.166-.1c-.329-.021-.659-.037-.99-.039a8.643,8.643,0,0,0-1.554.118,6.174,6.174,0,0,0-1.5.457,5.006,5.006,0,0,0-2.043,1.674,5.709,5.709,0,0,0-.851,1.843,7.294,7.294,0,0,0-.217,1.209c-.029.309-.049.618-.049.929q0,1.329,0,2.658c0,.255,0,.511,0,.766,0,.034.009.07-.027.105-.047,0-.1,0-.156,0h-3.725a.278.278,0,0,0-.154.019c0,.058,0,.117,0,.176q0,2.088,0,4.175c0,.055,0,.11,0,.165,0,.029-.008.061.026.09.042,0,.092,0,.141,0h3.725a.364.364,0,0,1,.17.016c0,.06,0,.119,0,.178,0,3.573,0,9.457,0,13.1h5.012c0-3.639,0-9.522,0-13.1,0-.035,0-.07,0-.105s-.006-.061.034-.09h3.563a.189.189,0,0,0,.138-.025q.335-2.175.672-4.365c.011-.073.02-.147.03-.225a.423.423,0,0,0-.167-.014h-4.175c-.029,0-.061.007-.084-.019a.207.207,0,0,1-.011-.1q0-1.479,0-2.959a2.877,2.877,0,0,1,.126-.843,2.043,2.043,0,0,1,1.316-1.4,3.107,3.107,0,0,1,.88-.173c.145-.009.29-.008.435-.008h1.712a.249.249,0,0,0,.147-.017A.429.429,0,0,0,363.44,371.38Z" transform="translate(-349.736 -367.3)" fill="#fff"/>
</svg>
