<svg xmlns="http://www.w3.org/2000/svg" width="27.402" height="27.684" viewBox="0 0 27.402 27.684">
  <path id="Контур_1873" data-name="Контур 1873" d="M330.529,554.283H317.011v5.138h7.336A7.118,7.118,0,0,1,321.8,562.3a7.884,7.884,0,0,1-4.171,1.035,8.892,8.892,0,0,1-6.423-2.53,8.308,8.308,0,0,1-2.6-6.165,8.092,8.092,0,0,1,2.5-5.972,8.561,8.561,0,0,1,6.219-2.459,10.048,10.048,0,0,1,7.488,3.4l.18.19,3.83-3.788-.168-.182a14.8,14.8,0,0,0-4.942-3.685,16.3,16.3,0,0,0-6.414-1.269,14.944,14.944,0,0,0-5.949,1.151,14.027,14.027,0,0,0-7.318,7.667,13.722,13.722,0,0,0-.865,4.892,14.218,14.218,0,0,0,1.871,7.108,13.108,13.108,0,0,0,5.093,5.083,14.887,14.887,0,0,0,7.308,1.782,13.292,13.292,0,0,0,6.687-1.634,12.6,12.6,0,0,0,4.649-4.737,12.977,12.977,0,0,0,1.793-6.565Z" transform="translate(-303.17 -540.882)" fill="#fff"/>
</svg>
