<svg xmlns="http://www.w3.org/2000/svg" width="25.935" height="26.015" viewBox="0 0 25.935 26.015">
  <g id="instagram_icon" data-name="instagram icon" transform="translate(0 0)">
    <path id="Контур_2324" data-name="Контур 2324" d="M-3521.906-3096.076c0,1.589.006,3.178,0,4.768a10.8,10.8,0,0,1-.514,3.443,7,7,0,0,1-1.238,2.188,7.212,7.212,0,0,1-5.431,2.521c-.927.064-1.857.085-2.787.093-1.029.009-2.059-.03-3.088-.03-.793,0-1.587.057-2.379.037-1.3-.032-2.6-.058-3.9-.173a6.721,6.721,0,0,1-6.359-6.091,38.22,38.22,0,0,1-.215-4.1q-.044-3.168.019-6.339a18.583,18.583,0,0,1,.275-3.634,6.67,6.67,0,0,1,3.69-4.8,7.426,7.426,0,0,1,2.928-.753c3.38-.164,6.762-.128,10.143-.072a14.457,14.457,0,0,1,3.276.289,7.212,7.212,0,0,1,3.226,1.62,7.073,7.073,0,0,1,2.061,3.7,11.4,11.4,0,0,1,.29,2.563c.015,1.589,0,3.178,0,4.768Zm-23.863-.085h.043c0,1.1-.024,2.2.006,3.3.03,1.114.059,2.233.189,3.338a4.481,4.481,0,0,0,2,3.373,5.46,5.46,0,0,0,2.209.838,12.738,12.738,0,0,0,1.867.157q4.666.026,9.333,0a8.268,8.268,0,0,0,3.174-.557,4.384,4.384,0,0,0,2.517-2.624,7.139,7.139,0,0,0,.438-2.383c.024-1.267.08-2.535.075-3.8-.01-2.332-.033-4.665-.1-7a8.651,8.651,0,0,0-.328-1.941,4.328,4.328,0,0,0-1.88-2.553,5.555,5.555,0,0,0-2.827-.867c-1.4-.069-2.8-.1-4.207-.105q-3.22-.014-6.442.035a7.745,7.745,0,0,0-3.073.562,4.376,4.376,0,0,0-2.2,2.013,6.126,6.126,0,0,0-.669,2.685Q-3545.707-3098.923-3545.77-3096.161Z" transform="translate(3547.836 3109.067)" fill="#fff"/>
    <path id="Контур_2325" data-name="Контур 2325" d="M-3421.739-2976.189a6.572,6.572,0,0,1,6.564-6.6,6.561,6.561,0,0,1,6.6,6.4,6.551,6.551,0,0,1-6.453,6.8A6.563,6.563,0,0,1-3421.739-2976.189Zm11.084.044a4.452,4.452,0,0,0-4.391-4.563,4.462,4.462,0,0,0-4.606,4.466,4.465,4.465,0,0,0,4.584,4.588A4.447,4.447,0,0,0-3410.655-2976.145Z" transform="translate(3428.139 2989.199)" fill="#fff"/>
    <path id="Контур_2326" data-name="Контур 2326" d="M-3180.235-3018.789a1.422,1.422,0,0,1,1.353,1.479,1.355,1.355,0,0,1-1.376,1.332,1.415,1.415,0,0,1-1.414-1.416A1.409,1.409,0,0,1-3180.235-3018.789Z" transform="translate(3200.26 3023.372)" fill="#fff"/>
  </g>
</svg>
