<svg width="26" height="27" viewBox="0 0 26 27" fill="none" xmlns="http://www.w3.org/2000/svg">
<path d="M25.93 12.991C25.93 14.58 25.936 16.1688 25.93 17.7588C25.946 18.9268 25.7725 20.0896 25.4161 21.202C25.1389 22 24.7194 22.7413 24.1781 23.39C23.5062 24.1746 22.6734 24.8058 21.7364 25.2408C20.7994 25.6757 19.7799 25.9042 18.7469 25.9109C17.8199 25.9749 16.8901 25.996 15.9601 26.004C14.9311 26.013 13.9009 25.9739 12.8719 25.9739C12.0789 25.9739 11.285 26.031 10.493 26.011C9.19302 25.979 7.89312 25.9529 6.59312 25.8379C4.97765 25.7578 3.44527 25.0977 2.2772 23.9788C1.10914 22.86 0.383614 21.3574 0.233988 19.7469C0.0889157 18.3851 0.0173018 17.0166 0.0191443 15.647C-0.010189 13.535 -0.00405687 11.4219 0.0379431 9.30792C0.0103216 8.0905 0.102578 6.87328 0.31309 5.67389C0.505931 4.63946 0.940815 3.66535 1.58213 2.83111C2.22345 1.99688 3.05295 1.32614 4.00303 0.873838C4.91707 0.424717 5.9137 0.168476 6.93101 0.120908C10.311 -0.0430916 13.6931 -0.00711307 17.0741 0.0488869C18.1735 0.0202966 19.2725 0.11732 20.35 0.337949C21.5452 0.595741 22.6554 1.15332 23.576 1.95807C24.6248 2.95193 25.3441 4.24312 25.6371 5.65802C25.8304 6.49863 25.9277 7.35845 25.9271 8.22101C25.9421 9.81001 25.9271 11.3991 25.9271 12.9891L25.93 12.991ZM2.067 12.9061H2.10996C2.10996 14.0061 2.08607 15.1059 2.11607 16.2059C2.14607 17.3199 2.17503 18.439 2.30503 19.544C2.36091 20.2211 2.57012 20.8764 2.91661 21.4608C3.26309 22.0451 3.73779 22.5432 4.30503 22.9171C4.97138 23.3543 5.72535 23.6402 6.51402 23.7549C7.13165 23.853 7.75562 23.9055 8.38096 23.9119C11.4916 23.9293 14.6026 23.9293 17.714 23.9119C18.7983 23.9362 19.8768 23.7471 20.888 23.355C21.4709 23.1232 21.9973 22.7689 22.4315 22.3162C22.8657 21.8635 23.1977 21.323 23.4051 20.731C23.6858 19.9674 23.834 19.1614 23.8431 18.348C23.8671 17.081 23.9231 15.8129 23.9181 14.5479C23.9081 12.2159 23.885 9.88291 23.818 7.54791C23.7828 6.89054 23.6729 6.2394 23.4901 5.60699C23.2089 4.54883 22.537 3.63658 21.61 3.05401C20.7633 2.51491 19.7864 2.21535 18.7831 2.18707C17.3831 2.11807 15.983 2.08685 14.576 2.08185C12.4294 2.07251 10.2821 2.08434 8.13413 2.117C7.08226 2.09366 6.03666 2.2849 5.06114 2.67901C4.11475 3.07175 3.33599 3.78408 2.86094 4.69195C2.43608 5.52422 2.2073 6.4427 2.192 7.37701C2.15 9.22168 2.10802 11.0647 2.06602 12.9061H2.067Z" fill="#1A1818"/>
<path d="M6.40002 13.0099C6.39633 12.1452 6.56335 11.2882 6.89147 10.4882C7.21959 9.6881 7.70234 8.96067 8.31213 8.34754C8.92191 7.73441 9.64668 7.24766 10.4449 6.91517C11.2432 6.58267 12.0992 6.41084 12.964 6.4098C14.6833 6.39906 16.3381 7.06373 17.5724 8.26063C18.8067 9.45752 19.5219 11.0911 19.5641 12.8099C19.5974 13.6828 19.4557 14.5534 19.1476 15.3707C18.8394 16.188 18.3709 16.9354 17.7696 17.569C17.1684 18.2026 16.4467 18.7094 15.6466 19.0599C14.8465 19.4104 13.9843 19.5973 13.111 19.6097C12.2336 19.6296 11.3612 19.4733 10.5453 19.15C9.7294 18.8268 8.98665 18.3433 8.36095 17.7279C7.73525 17.1126 7.23929 16.3779 6.90246 15.5675C6.56563 14.7571 6.39485 13.8875 6.40002 13.0099V13.0099ZM17.484 13.0538C17.4987 12.465 17.3965 11.8792 17.1832 11.3302C16.9699 10.7812 16.6497 10.2798 16.2413 9.85535C15.8329 9.43094 15.3442 9.09179 14.8038 8.85755C14.2634 8.62331 13.6821 8.49874 13.0931 8.49085C12.4948 8.47153 11.8986 8.57288 11.3402 8.7887C10.7818 9.00452 10.2727 9.3305 9.84289 9.7472C9.41312 10.1639 9.07169 10.6628 8.83874 11.2142C8.60579 11.7657 8.48608 12.3583 8.48693 12.9569C8.46999 13.5637 8.57706 14.1675 8.80138 14.7316C9.0257 15.2956 9.36259 15.808 9.79162 16.2374C10.2207 16.6668 10.7329 17.0041 11.2967 17.2289C11.8606 17.4537 12.4641 17.5612 13.0709 17.5448C13.6558 17.5404 14.2341 17.4207 14.7726 17.1925C15.3111 16.9643 15.7992 16.6319 16.2091 16.2147C16.619 15.7976 16.9427 15.3038 17.1615 14.7614C17.3802 14.219 17.4898 13.6387 17.484 13.0538V13.0538Z" fill="#1A1818"/>
<path d="M20.0249 4.58304C20.4 4.60095 20.7529 4.76664 21.0063 5.04374C21.2598 5.32083 21.3934 5.68682 21.3779 6.06205C21.3719 6.42108 21.2236 6.76298 20.9656 7.01273C20.7076 7.26248 20.361 7.39969 20.002 7.39408C19.8161 7.39395 19.6323 7.35716 19.4607 7.28592C19.2891 7.21469 19.133 7.11053 19.0017 6.97904C18.8704 6.84755 18.7663 6.69129 18.6953 6.51957C18.6243 6.34784 18.5878 6.16388 18.5879 5.97806C18.5897 5.79183 18.6285 5.60773 18.7019 5.43656C18.7753 5.26538 18.882 5.11047 19.0156 4.98075C19.1493 4.85102 19.3072 4.74921 19.4805 4.68094C19.6537 4.61267 19.8387 4.57933 20.0249 4.58304V4.58304Z" fill="#1A1818"/>
</svg>
