<svg id="twitter" xmlns="http://www.w3.org/2000/svg" width="29.802" height="26.016" viewBox="0 0 29.802 26.016">
  <path id="Контур_2321" data-name="Контур 2321" d="M1184.055-3466.071a.85.85,0,0,1-.211,1.022c-.468.525-.963,1.026-1.445,1.54-.077.082-.144.172-.287.344.982.2,1.788-.275,2.755-.364-.126.249-.2.425-.3.579a6.7,6.7,0,0,1-1.6,1.628,1.334,1.334,0,0,0-.593,1.18,18.67,18.67,0,0,1-.509,4.554,14.73,14.73,0,0,1-1.128,3.309q-.331.676-.647,1.36a13.961,13.961,0,0,1-1.865,2.885,17.81,17.81,0,0,1-3.642,3.507,18.523,18.523,0,0,1-3.247,1.851,16.864,16.864,0,0,1-3.806,1.153,20.328,20.328,0,0,1-4.205.375,18.719,18.719,0,0,1-6.92-1.516c-.35-.153-.7-.315-1.038-.49-.211-.107-.2-.122-.189-.532a13.178,13.178,0,0,0,7.824-2.576,3.47,3.47,0,0,0,.406-.45,5.2,5.2,0,0,0-.6-.176,6.586,6.586,0,0,1-3.247-1.365,6.382,6.382,0,0,1-1.728-2.059,3.17,3.17,0,0,1-.169-.707c.824-.176,1.662.084,2.506-.442-.291-.138-.456-.233-.633-.3a6.871,6.871,0,0,1-3.567-2.851,6.483,6.483,0,0,1-.879-2.364,4.264,4.264,0,0,1,0-.655,6.486,6.486,0,0,0,2.676.428,1.385,1.385,0,0,0-.181-.372,8.853,8.853,0,0,1-1.551-1.838,6.22,6.22,0,0,1-.457-5.792,1.634,1.634,0,0,1,.178-.261,1.368,1.368,0,0,1,.888.595,12.47,12.47,0,0,0,2.438,2.146,16.936,16.936,0,0,0,4.2,2.362,16.1,16.1,0,0,0,4.12,1.147c.539.065,1.081.118,1.623.144.483.023.535-.081.528-.565a12.228,12.228,0,0,1,.048-2.222,6.312,6.312,0,0,1,2.3-3.86,6.025,6.025,0,0,1,2.059-1.115,5.932,5.932,0,0,1,4.41.208,7.616,7.616,0,0,1,2.053,1.34.666.666,0,0,0,.674.156c.751-.219,1.5-.453,2.246-.687C1183.565-3465.883,1183.784-3465.972,1184.055-3466.071Z" transform="translate(-1155.066 3467.156)" fill="#fff"/>
</svg>
