<svg width="30" height="27" viewBox="0 0 30 27" fill="none" xmlns="http://www.w3.org/2000/svg">
<path d="M28.9891 1.08497C29.0726 1.25454 29.097 1.44701 29.0588 1.63209C29.0206 1.81718 28.9218 1.98429 28.7781 2.10694C28.3101 2.63194 27.8151 3.13298 27.3331 3.64698C27.2561 3.72898 27.1891 3.81898 27.0461 3.99098C28.0281 4.19098 28.834 3.71596 29.801 3.62696C29.675 3.87596 29.6011 4.05207 29.5011 4.20607C29.0648 4.83626 28.5236 5.38684 27.9011 5.834C27.7084 5.9623 27.5523 6.13857 27.4483 6.34547C27.3444 6.55237 27.296 6.78269 27.3081 7.01393C27.3261 8.54707 27.1551 10.0768 26.7991 11.5681C26.5557 12.712 26.1771 13.8227 25.6711 14.877C25.4505 15.3276 25.2347 15.7811 25.024 16.2371C24.5235 17.2718 23.8971 18.2409 23.159 19.1221C22.118 20.4583 20.8917 21.6391 19.5171 22.6289C18.4999 23.3538 17.4121 23.974 16.2701 24.48C15.0514 25.0131 13.7738 25.4002 12.4641 25.6331C11.0792 25.9037 9.6699 26.0293 8.25902 26.0081C5.87688 25.9478 3.52824 25.4331 1.33909 24.492C0.989093 24.339 0.639007 24.177 0.301007 24.002C0.0900073 23.895 0.101042 23.88 0.112042 23.47C2.9283 23.4694 5.67027 22.5667 7.93602 20.8941C8.08422 20.7562 8.22007 20.6057 8.34202 20.4441C8.14573 20.3735 7.9454 20.3147 7.74205 20.2681C6.55586 20.1163 5.43343 19.6444 4.4951 18.9031C3.77945 18.3472 3.19036 17.6452 2.76707 16.844C2.68381 16.6156 2.62704 16.3783 2.598 16.137C3.422 15.961 4.26011 16.2211 5.10411 15.6951C4.81311 15.5571 4.64805 15.462 4.47105 15.395C2.9918 14.8791 1.73324 13.8731 0.904035 12.544C0.459101 11.8211 0.160422 11.0179 0.0250063 10.1799C0.00821224 9.96193 0.00821224 9.74292 0.0250063 9.52491C0.876918 9.85442 1.78885 10.0005 2.70103 9.95314C2.65966 9.82077 2.59874 9.69531 2.52012 9.58107C1.92193 9.0418 1.40009 8.4233 0.969098 7.74293C0.427259 6.88761 0.102328 5.91295 0.022687 4.90358C-0.0569542 3.89421 0.111071 2.88065 0.512067 1.95094C0.562831 1.85839 0.622421 1.771 0.690045 1.68995C0.87042 1.72445 1.042 1.795 1.19456 1.89723C1.34712 1.99945 1.47761 2.13122 1.57811 2.28492C2.29374 3.10348 3.11335 3.82493 4.0161 4.43092C5.29636 5.41441 6.71062 6.20985 8.21605 6.79298C9.53226 7.35682 10.9178 7.74253 12.336 7.93995C12.875 8.00495 13.4171 8.058 13.9591 8.084C14.4421 8.107 14.494 8.00305 14.487 7.51905C14.4356 6.77847 14.4516 6.0348 14.535 5.29713C14.8023 3.7719 15.6209 2.39801 16.8351 1.43702C17.4419 0.934283 18.1414 0.555473 18.894 0.322032C20.336 -0.178616 21.9156 -0.10411 23.3041 0.53004C24.0563 0.862909 24.7496 1.31553 25.357 1.87013C25.4443 1.95537 25.5534 2.01498 25.6722 2.04249C25.7911 2.07 25.9153 2.06436 26.0311 2.02613C26.7821 1.80713 27.5311 1.57312 28.2771 1.33912C28.4991 1.27312 28.7181 1.18397 28.9891 1.08497Z" fill="#1A1818"/>
</svg>
