<svg width="36" height="25" viewBox="0 0 36 25" fill="none" xmlns="http://www.w3.org/2000/svg">
<path d="M18.5529 0.0520269C20.2119 0.0520269 21.8718 0.00703667 23.5298 0.0620367C26.0492 0.146037 28.5668 0.271037 31.0828 0.437037C31.6315 0.467122 32.1678 0.612981 32.6561 0.865137C33.1444 1.11729 33.5736 1.47005 33.9158 1.90005C34.3621 2.47307 34.6908 3.12858 34.8829 3.829C35.1505 4.83738 35.3315 5.86682 35.4239 6.90603C35.6887 10.1681 35.7261 13.4448 35.5358 16.7121C35.5144 18.2354 35.3045 19.7503 34.9108 21.2221C34.6884 22.1864 34.1482 23.048 33.377 23.6682C32.6058 24.2885 31.6485 24.6314 30.6589 24.642C26.9659 24.954 23.2589 24.959 19.5589 24.97C16.8329 24.978 14.1058 24.964 11.3798 24.908C9.42682 24.867 7.47382 24.773 5.52582 24.636C4.78096 24.5675 4.0465 24.4135 3.33685 24.177C2.81525 24.011 2.3379 23.7291 1.94049 23.3527C1.54308 22.9762 1.23585 22.5149 1.04181 22.0031C0.603298 20.9062 0.34344 19.7461 0.271913 18.567C0.0247696 15.8966 -0.0537049 13.2133 0.0369272 10.533C0.0254935 8.46525 0.204496 6.40087 0.571839 4.36599C0.749478 3.37586 1.20532 2.45682 1.88593 1.71609C2.81617 0.827245 4.05027 0.326543 5.33685 0.316065C9.07985 0.047065 12.8299 0.0329781 16.5789 0.00197808C17.2379 -0.00302192 17.8968 0.00197808 18.5558 0.00197808L18.5529 0.0520269ZM23.7299 12.3421C23.4794 12.1503 23.219 11.9717 22.9499 11.807C21.7099 11.144 20.4629 10.493 19.2159 9.84304C17.7679 9.08804 16.3228 8.32499 14.8638 7.58999C14.0288 7.16999 13.8889 7.27109 13.8709 8.19009C13.8709 8.21309 13.8709 8.23508 13.8709 8.25808C13.8676 11.0507 13.8645 13.8433 13.8619 16.636C13.8606 16.8174 13.8733 16.9986 13.8998 17.178C13.8987 17.2361 13.9133 17.2934 13.942 17.3439C13.9706 17.3944 14.0123 17.4362 14.0628 17.465C14.1133 17.4938 14.1706 17.5084 14.2287 17.5073C14.2868 17.5063 14.3435 17.4896 14.3929 17.459C14.7489 17.312 15.0999 17.149 15.4399 16.969C16.3209 16.5 17.1948 16.0171 18.0718 15.5401C19.6868 14.6621 21.3029 13.7891 22.9139 12.9041C23.1679 12.7701 23.3908 12.58 23.7328 12.343L23.7299 12.3421Z" fill="#1A1818"/>
</svg>
