<svg id="Video" xmlns="http://www.w3.org/2000/svg" width="35.652" height="24.972" viewBox="0 0 35.652 24.972">
  <path id="Контур_2322" data-name="Контур 2322" d="M1067.3-2031.828c1.659,0,3.319-.045,4.977.01q3.779.126,7.553.375a3.893,3.893,0,0,1,2.833,1.463,5.513,5.513,0,0,1,.967,1.929,18.31,18.31,0,0,1,.541,3.077,70.521,70.521,0,0,1,.112,9.806,18.459,18.459,0,0,1-.625,4.51,4.412,4.412,0,0,1-4.252,3.42c-3.693.312-7.4.317-11.1.328-2.726.008-5.453-.006-8.179-.062-1.953-.041-3.906-.135-5.854-.272a9.751,9.751,0,0,1-2.189-.459,3.633,3.633,0,0,1-2.295-2.174,11.06,11.06,0,0,1-.77-3.436,63.787,63.787,0,0,1-.235-8.034,33.666,33.666,0,0,1,.535-6.167,5.3,5.3,0,0,1,1.314-2.65,5.055,5.055,0,0,1,3.451-1.4c3.743-.269,7.493-.283,11.242-.314.659-.005,1.318,0,1.977,0Zm5.177,12.29a9.055,9.055,0,0,0-.78-.535c-1.24-.663-2.487-1.314-3.734-1.964-1.448-.755-2.893-1.518-4.352-2.253-.835-.42-.975-.319-.993.6,0,.023,0,.045,0,.068q-.005,4.189-.009,8.378a3.534,3.534,0,0,0,.038.542.323.323,0,0,0,.493.281c.356-.147.707-.31,1.047-.49.881-.469,1.755-.952,2.632-1.429,1.615-.878,3.231-1.751,4.842-2.636C1071.915-2019.11,1072.138-2019.3,1072.48-2019.537Z" transform="translate(-1048.747 2031.88)" fill="#fff"/>
</svg>
