<svg xmlns="http://www.w3.org/2000/svg" width="34.663" height="34.663" viewBox="0 0 34.663 34.663">
  <g id="Сгруппировать_13764" data-name="Сгруппировать 13764" transform="translate(-1250 -984)">
    <g id="Сгруппировать_13756" data-name="Сгруппировать 13756" transform="translate(1250 984)">
      <path id="Контур_45357" data-name="Контур 45357" d="M1267.332,1018.663h-14.443a2.892,2.892,0,0,1-2.889-2.889V986.889a2.892,2.892,0,0,1,2.889-2.889h14.443a2.892,2.892,0,0,1,2.889,2.889v2.166a.722.722,0,1,1-1.444,0v-2.166a1.446,1.446,0,0,0-1.444-1.444h-14.443a1.446,1.446,0,0,0-1.444,1.444v28.886a1.446,1.446,0,0,0,1.444,1.444h14.443a1.446,1.446,0,0,0,1.444-1.444v-3.611a.722.722,0,1,1,1.444,0v3.611A2.892,2.892,0,0,1,1267.332,1018.663Z" transform="translate(-1250 -984)" fill="#034fa0"/>
    </g>
    <g id="Сгруппировать_13757" data-name="Сгруппировать 13757" transform="translate(1250 1012.164)">
      <path id="Контур_45358" data-name="Контур 45358" d="M1267.332,1143.611h-14.443a2.892,2.892,0,0,1-2.889-2.889.722.722,0,0,1,1.444,0,1.446,1.446,0,0,0,1.444,1.444h14.443a1.446,1.446,0,0,0,1.444-1.444.722.722,0,1,1,1.444,0A2.892,2.892,0,0,1,1267.332,1143.611Z" transform="translate(-1250 -1140)" fill="#034fa0"/>
    </g>
    <g id="Сгруппировать_13758" data-name="Сгруппировать 13758" transform="translate(1255.777 991.221)">
      <path id="Контур_45359" data-name="Контур 45359" d="M1308,1042.776h-23.109a2.892,2.892,0,0,1-2.889-2.889v-13a2.892,2.892,0,0,1,2.889-2.889H1308a2.892,2.892,0,0,1,2.889,2.889v13A2.892,2.892,0,0,1,1308,1042.776Zm-23.109-17.332a1.446,1.446,0,0,0-1.444,1.444v13a1.446,1.446,0,0,0,1.444,1.444H1308a1.446,1.446,0,0,0,1.444-1.444v-13a1.446,1.446,0,0,0-1.444-1.444Z" transform="translate(-1282 -1024)" fill="#034fa0"/>
    </g>
    <g id="Сгруппировать_13759" data-name="Сгруппировать 13759" transform="translate(1255.777 995.554)">
      <path id="Контур_45360" data-name="Контур 45360" d="M1310.164,1049.444h-27.442a.722.722,0,0,1,0-1.444h27.442a.722.722,0,0,1,0,1.444Z" transform="translate(-1282 -1048)" fill="#034fa0"/>
    </g>
    <g id="Сгруппировать_13760" data-name="Сгруппировать 13760" transform="translate(1255.777 999.887)">
      <path id="Контур_45361" data-name="Контур 45361" d="M1310.164,1073.444h-27.442a.722.722,0,0,1,0-1.444h27.442a.722.722,0,0,1,0,1.444Z" transform="translate(-1282 -1072)" fill="#034fa0"/>
    </g>
    <g id="Сгруппировать_13761" data-name="Сгруппировать 13761" transform="translate(1260.11 1004.22)">
      <path id="Контур_45362" data-name="Контур 45362" d="M1312.5,1097.444h-5.777a.722.722,0,0,1,0-1.444h5.777a.722.722,0,0,1,0,1.444Z" transform="translate(-1306 -1096)" fill="#034fa0"/>
    </g>
    <g id="Сгруппировать_13762" data-name="Сгруппировать 13762" transform="translate(1257.944 986.89)">
      <path id="Контур_45363" data-name="Контур 45363" d="M1297.611,1001.452h-2.889a.722.722,0,0,1,0-1.444h2.889a.722.722,0,0,1,0,1.444Z" transform="translate(-1294 -1000.008)" fill="#034fa0"/>
    </g>
    <g id="Сгруппировать_13763" data-name="Сгруппировать 13763" transform="translate(1271.664 1002.776)">
      <path id="Контур_45364" data-name="Контур 45364" d="M1376.5,1092.333h-5.777a.722.722,0,0,1-.722-.722v-2.889a.722.722,0,0,1,.722-.722h5.777a.722.722,0,0,1,.722.722v2.889A.722.722,0,0,1,1376.5,1092.333Zm-5.055-1.444h4.333v-1.444h-4.333Z" transform="translate(-1370 -1088)" fill="#034fa0"/>
    </g>
  </g>
</svg>
