<svg id="Сгруппировать_13732" data-name="Сгруппировать 13732" xmlns="http://www.w3.org/2000/svg" width="32.163" height="37.523" viewBox="0 0 32.163 37.523">
  <g id="Сгруппировать_13736" data-name="Сгруппировать 13736" transform="translate(0 0)">
    <g id="Сгруппировать_13732-2" data-name="Сгруппировать 13732" transform="translate(14.742 20.103)">
      <path id="Контур_45332" data-name="Контур 45332" d="M936.031,708.068h-5.36a.67.67,0,1,1,0-1.34h4.69v-10.05a.67.67,0,0,1,1.34,0V707.4A.67.67,0,0,1,936.031,708.068Z" transform="translate(-930 -696.008)" fill="#034fa0"/>
    </g>
    <g id="Сгруппировать_13733" data-name="Сгруппировать 13733" transform="translate(0)">
      <path id="Контур_45333" data-name="Контур 45333" d="M842.67,608.163a.67.67,0,0,1-.67-.67V576.67a.67.67,0,0,1,.67-.67h20.1a.67.67,0,0,1,.67.67v12.061a.67.67,0,0,1-1.34,0V577.34H843.34v30.153A.67.67,0,0,1,842.67,608.163Z" transform="translate(-842 -576)" fill="#034fa0"/>
    </g>
    <g id="Сгруппировать_13734" data-name="Сгруппировать 13734" transform="translate(0 0.001)">
      <path id="Контур_45334" data-name="Контур 45334" d="M857.411,613.529a.667.667,0,0,1-.229-.04l-14.741-5.361a.67.67,0,1,1,.458-1.259l13.842,5.033v-29.4l-14.3-5.2a.67.67,0,0,1,.458-1.26l14.741,5.36a.671.671,0,0,1,.441.63v30.822a.67.67,0,0,1-.67.67Z" transform="translate(-841.999 -576.007)" fill="#034fa0"/>
    </g>
    <g id="Сгруппировать_13735" data-name="Сгруппировать 13735" transform="translate(10.721 17.423)">
      <path id="Контур_45335" data-name="Контур 45335" d="M906.67,685.368a.67.67,0,0,1-.67-.67v-4.02a.67.67,0,0,1,1.34,0v4.02A.67.67,0,0,1,906.67,685.368Z" transform="translate(-906 -680.008)" fill="#034fa0"/>
    </g>
  </g>
  <g id="Сгруппировать_13737" data-name="Сгруппировать 13737" transform="translate(17.422 16.081)">
    <path id="Контур_45336" data-name="Контур 45336" d="M960.071,673.34h-13.4a.67.67,0,0,1,0-1.34h13.4a.67.67,0,0,1,0,1.34Z" transform="translate(-946 -672)" fill="#034fa0"/>
  </g>
  <g id="Сгруппировать_13738" data-name="Сгруппировать 13738" transform="translate(25.462 10.721)">
    <path id="Контур_45337" data-name="Контур 45337" d="M994.67,652.061a.67.67,0,0,1-.474-1.144l4.887-4.887-4.887-4.887a.67.67,0,1,1,.947-.948l5.36,5.361a.67.67,0,0,1,0,.948l-5.36,5.361A.668.668,0,0,1,994.67,652.061Z" transform="translate(-994 -640)" fill="#034fa0"/>
  </g>
</svg>
