<svg xmlns="http://www.w3.org/2000/svg" width="38.002" height="38.001" viewBox="0 0 38.002 38.001">
  <g id="noun_Card_lock_3315747" data-name="noun_Card lock_3315747" transform="translate(-6.451 -5.413)">
    <g id="Сгруппировать_13755" data-name="Сгруппировать 13755" transform="translate(2.499 6.737)">
      <path id="Объединение_136" data-name="Объединение 136" d="M23005.5-10638a.735.735,0,0,1,.734-.734.733.733,0,0,1,.729.734,17.555,17.555,0,0,0,17.541,17.534,17.554,17.554,0,0,0,17.535-17.534,17.555,17.555,0,0,0-17.535-17.541,17.508,17.508,0,0,0-12.408,5.145l4.445.686a.728.728,0,0,1,.607.832.728.728,0,0,1-.719.619.647.647,0,0,1-.109-.012l-5.633-.871a.721.721,0,0,1-.543-.176.662.662,0,0,1-.113-.121.718.718,0,0,1-.158-.451v-6.385a.732.732,0,0,1,.729-.729.73.73,0,0,1,.729.729v4.584a18.974,18.974,0,0,1,13.174-5.312,19.024,19.024,0,0,1,19,19,19.022,19.022,0,0,1-19,19A19.024,19.024,0,0,1,23005.5-10638Zm11.654,10.981a1.72,1.72,0,0,1-1.725-1.723v-12.6a.626.626,0,0,1,.625-.625h1.873v-2.059a6.259,6.259,0,0,1,6.252-6.252,6.258,6.258,0,0,1,6.246,6.252v2.059h1.873a.626.626,0,0,1,.625.625v12.6a1.72,1.72,0,0,1-1.723,1.723Zm-.475-1.723a.468.468,0,0,0,.475.474h14.047a.469.469,0,0,0,.475-.474v-7.869l-5.283.106a2.4,2.4,0,0,1,.217,1,2.425,2.425,0,0,1-1.811,2.342v1.5a.621.621,0,0,1-.619.625.622.622,0,0,1-.625-.625v-1.5a2.423,2.423,0,0,1-1.809-2.342,2.386,2.386,0,0,1,.176-.906l-5.242.106Zm6.314-6.767a1.184,1.184,0,0,0,1.186,1.186,1.186,1.186,0,0,0,1.18-1.186,1.087,1.087,0,0,0-.5-.965l-1.4.028A1.088,1.088,0,0,0,23022.994-10635.5Zm-6.314-.8,5.242-.106a2.477,2.477,0,0,1,2.258-1.522,2.477,2.477,0,0,1,2.213,1.433l5.283-.106v-4.1h-15Zm6.777-.137,1.4-.028a1.281,1.281,0,0,0-.678-.188A1.262,1.262,0,0,0,23023.457-10636.441Zm-4.279-7.576v2.059h10v-2.059a5.011,5.011,0,0,0-5-5A5,5,0,0,0,23019.178-10644.018Z" transform="translate(-23001.547 10655.678)" fill="#034fa0"/>
    </g>
  </g>
</svg>
