<svg xmlns="http://www.w3.org/2000/svg" width="41" height="32.748" viewBox="0 0 41 32.748">
  <g id="Сгруппировать_13838" data-name="Сгруппировать 13838" transform="translate(-114 -582)">
    <g id="Сгруппировать_13811" data-name="Сгруппировать 13811" transform="translate(-1137.301 403.254)">
      <path id="Контур_45398" data-name="Контур 45398" d="M1279.971,211.494H1256.08a4.785,4.785,0,0,1-4.779-4.779V191.527a4.785,4.785,0,0,1,4.779-4.781h23.891a4.785,4.785,0,0,1,4.78,4.781v15.188A4.785,4.785,0,0,1,1279.971,211.494Zm-23.891-23.5a3.536,3.536,0,0,0-3.533,3.534v15.188a3.536,3.536,0,0,0,3.533,3.533h23.891a3.536,3.536,0,0,0,3.532-3.533V191.527a3.536,3.536,0,0,0-3.532-3.534Z" transform="translate(0 0)" fill="#034fa0"/>
      <path id="Контур_45399" data-name="Контур 45399" d="M1267.776,202a.641.641,0,0,1-.418-.151l-15.365-13.093a.553.553,0,0,1-.042-.817.65.65,0,0,1,.876-.04l14.949,12.741,14.784-12.437a.653.653,0,0,1,.874.043.554.554,0,0,1-.045.819l-15.2,12.787A.646.646,0,0,1,1267.776,202Z" transform="translate(0.352 0.72)" fill="#034fa0"/>
      <path id="Контур_45400" data-name="Контур 45400" d="M1252.81,205.717a.5.5,0,0,1-.393-.2.674.674,0,0,1,.036-.859l10.376-10.821a.485.485,0,0,1,.749.04.672.672,0,0,1-.036.859l-10.374,10.821A.492.492,0,0,1,1252.81,205.717Z" transform="translate(0.703 4.975)" fill="#034fa0"/>
      <path id="Контур_45401" data-name="Контур 45401" d="M1274.1,205.717a.489.489,0,0,1-.357-.158l-10.376-10.821a.669.669,0,0,1-.034-.857.484.484,0,0,1,.749-.041l10.376,10.821a.672.672,0,0,1,.035.859A.5.5,0,0,1,1274.1,205.717Z" transform="translate(8.531 4.975)" fill="#034fa0"/>
    </g>
    <g id="Сгруппировать_13828" data-name="Сгруппировать 13828" transform="translate(-980.744 -702)">
      <g id="Эллипс_66" data-name="Эллипс 66" transform="translate(1119.744 1284)" fill="#034fa0" stroke="#034fa0" stroke-width="1">
        <circle cx="8" cy="8" r="8" stroke="none"/>
        <circle cx="8" cy="8" r="7.5" fill="none"/>
      </g>
      <text id="_2" data-name="2" transform="translate(1127.744 1296)" fill="#fff" font-size="10" font-family="Montserrat-SemiBold, Montserrat" font-weight="600"><tspan x="-2.91" y="0">2</tspan></text>
    </g>
  </g>
</svg>
