<svg xmlns="http://www.w3.org/2000/svg" width="37.5" height="37.5" viewBox="0 0 37.5 37.5">
  <g id="Сгруппировать_13839" data-name="Сгруппировать 13839" transform="translate(-6.75 -959.112)">
    <path id="Контур_45407" data-name="Контур 45407" d="M9.151,7A2.257,2.257,0,0,0,7,9.151v25.37a2.283,2.283,0,0,0,2.151,2.165h5.163v5.149A2.283,2.283,0,0,0,16.465,44H41.849A2.257,2.257,0,0,0,44,41.849s0-.009,0-.013V16.465a2.257,2.257,0,0,0-2.151-2.151H36.686V9.151A2.257,2.257,0,0,0,34.535,7Zm0,.86H34.535a1.3,1.3,0,0,1,.874.4,1.352,1.352,0,0,1,.417.887v5.163H16.465a2.257,2.257,0,0,0-2.151,2.151v19.36H9.151a1.416,1.416,0,0,1-1.291-1.3V9.151a1.352,1.352,0,0,1,.417-.887A1.3,1.3,0,0,1,9.151,7.86Zm7.314,7.314H41.849a1.3,1.3,0,0,1,.874.4,1.352,1.352,0,0,1,.417.887V41.849a1.284,1.284,0,0,1-.4.874,1.356,1.356,0,0,1-.887.417H16.465a1.416,1.416,0,0,1-1.291-1.3V16.465a1.352,1.352,0,0,1,.417-.887A1.3,1.3,0,0,1,16.465,15.174Zm11.616,7.314a7.347,7.347,0,0,0-3.657,13.7.43.43,0,1,0,.43-.739,6.474,6.474,0,1,1,9.667-5.956L31.308,27.7a.434.434,0,1,0-.43.753l3.872,2.151a.43.43,0,0,0,.592-.175l2.151-3.872a.43.43,0,1,0-.753-.417L35.3,28.713A7.321,7.321,0,0,0,28.081,22.488Z" transform="translate(0 952.362)" fill="#034fa0" stroke="#034fa0" stroke-width="0.5"/>
  </g>
</svg>
