<svg xmlns="http://www.w3.org/2000/svg" width="39.955" height="34.663" viewBox="0 0 39.955 34.663">
  <g id="noun_Card_lock_3315747" data-name="noun_Card lock_3315747" transform="translate(-2.499 -6.737)">
    <g id="Сгруппировать_13755" data-name="Сгруппировать 13755" transform="translate(2.499 6.737)">
      <path id="Контур_45352" data-name="Контур 45352" d="M2.5,29.174a2.615,2.615,0,0,0,2.615,2.61H16.38v7.894A1.724,1.724,0,0,0,18.1,41.4H32.154a1.724,1.724,0,0,0,1.722-1.723V31.784h5.955a2.619,2.619,0,0,0,2.622-2.61c-.005-21.924,0,10.389,0-19.824a2.62,2.62,0,0,0-2.62-2.613H5.119A2.62,2.62,0,0,0,2.5,9.35C2.5,9.218,2.5,10.918,2.5,29.174ZM41.2,15.06l-37.453.053V12.231H41.2ZM32.154,40.151H18.1a.469.469,0,0,1-.474-.474V27.705h15v3.451s0,0,0,0,0,0,0,0v8.515A.469.469,0,0,1,32.154,40.151ZM30.13,26.457h-10V24.395a5,5,0,1,1,10,0v2.062Zm9.7,4.078H33.876V27.081a.624.624,0,0,0-.624-.624H31.379V24.395a6.25,6.25,0,1,0-12.5,0v2.062H17a.624.624,0,0,0-.624.624v3.454H5.116a1.366,1.366,0,0,1-1.367-1.361V16.363L41.2,16.311V29.174A1.369,1.369,0,0,1,39.831,30.535ZM3.747,9.35A1.37,1.37,0,0,1,5.119,7.985h34.71A1.37,1.37,0,0,1,41.2,9.35v1.633H3.747Z" transform="translate(-2.499 -6.737)" fill="#034fa0"/>
      <path id="Контур_45353" data-name="Контур 45353" d="M17.458,28.45H8.149a.624.624,0,0,0,0,1.249h9.308a.624.624,0,0,0,0-1.249Z" transform="translate(-4.387 -14.895)" fill="#034fa0"/>
      <path id="Контур_45354" data-name="Контур 45354" d="M56.978,29.517H52.854a.624.624,0,0,0-.624.624v3.284a.624.624,0,0,0,.624.624h4.124a.624.624,0,0,0,.624-.624V30.141A.624.624,0,0,0,56.978,29.517ZM56.354,32.8H53.479V30.765h2.876Z" transform="translate(-21.185 -15.296)" fill="#034fa0"/>
      <path id="Контур_45355" data-name="Контур 45355" d="M17.458,35.153H8.149a.624.624,0,0,0,0,1.249h9.308a.624.624,0,0,0,0-1.249Z" transform="translate(-4.387 -17.414)" fill="#034fa0"/>
      <path id="Контур_45356" data-name="Контур 45356" d="M37.284,44.768A2.456,2.456,0,0,0,34.852,47.2a2.43,2.43,0,0,0,1.808,2.341v1.505a.624.624,0,0,0,1.249,0V49.542A2.43,2.43,0,0,0,39.717,47.2,2.458,2.458,0,0,0,37.284,44.768Zm0,3.617A1.184,1.184,0,1,1,38.468,47.2,1.185,1.185,0,0,1,37.284,48.385Z" transform="translate(-14.655 -21.026)" fill="#034fa0"/>
    </g>
  </g>
</svg>
