<svg xmlns="http://www.w3.org/2000/svg" width="29.431" height="29.424" viewBox="0 0 29.431 29.424">
  <g id="Сгруппировать_13837" data-name="Сгруппировать 13837" transform="translate(-825.984 -1008)">
    <g id="Сгруппировать_13765" data-name="Сгруппировать 13765" transform="translate(834.814 1008)">
      <path id="Контур_45365" data-name="Контур 45365" d="M879.885,1024.183A5.891,5.891,0,0,1,874,1018.3v-4.414a5.885,5.885,0,0,1,11.77,0v4.414A5.891,5.891,0,0,1,879.885,1024.183Zm0-14.712a4.419,4.419,0,0,0-4.414,4.414v4.414a4.414,4.414,0,1,0,8.827,0v-4.414A4.419,4.419,0,0,0,879.885,1009.471Z" transform="translate(-874 -1008)" fill="#034fa0"/>
    </g>
    <g id="Сгруппировать_13766" data-name="Сгруппировать 13766" transform="translate(825.984 1021.58)">
      <path id="Контур_45366" data-name="Контур 45366" d="M840.7,1097.687h-.027c-4.378-.162-9.388-.574-13.446-3.429a2.9,2.9,0,0,1-.982-3.568,15.567,15.567,0,0,1,11.1-8.831.736.736,0,1,1,.3,1.441,14.1,14.1,0,0,0-10.055,7.993,1.436,1.436,0,0,0,.495,1.768c3.712,2.612,8.458,3,12.618,3.156,4.161-.155,8.906-.544,12.626-3.161a1.432,1.432,0,0,0,.489-1.757,14.1,14.1,0,0,0-10.058-8,.736.736,0,0,1,.3-1.441,15.57,15.57,0,0,1,11.1,8.837,2.891,2.891,0,0,1-.976,3.557c-4.066,2.861-9.076,3.273-13.454,3.435Z" transform="translate(-825.984 -1081.843)" fill="#034fa0"/>
    </g>
  </g>
</svg>
