<svg id="Сгруппировать_13717" data-name="Сгруппировать 13717" xmlns="http://www.w3.org/2000/svg" width="27.143" height="38" viewBox="0 0 27.143 38">
  <g id="Сгруппировать_13710" data-name="Сгруппировать 13710" transform="translate(0 16.286)">
    <path id="Контур_45318" data-name="Контур 45318" d="M892.464,665.357H866.679a.679.679,0,1,1,0-1.357h25.786a.679.679,0,1,1,0,1.357Z" transform="translate(-866 -664)" fill="#034fa0"/>
  </g>
  <g id="Сгруппировать_13711" data-name="Сгруппировать 13711" transform="translate(2.714 19)">
    <path id="Контур_45319" data-name="Контур 45319" d="M901,699H884.714A2.717,2.717,0,0,1,882,696.286V680.679a.679.679,0,1,1,1.357,0v15.607a1.359,1.359,0,0,0,1.357,1.357H901a1.358,1.358,0,0,0,1.357-1.357V680.679a.679.679,0,1,1,1.357,0v15.607A2.717,2.717,0,0,1,901,699Z" transform="translate(-882 -680)" fill="#034fa0"/>
  </g>
  <g id="Сгруппировать_13712" data-name="Сгруппировать 13712" transform="translate(19 19)">
    <path id="Контур_45320" data-name="Контур 45320" d="M978.679,699a.679.679,0,0,1-.679-.678V680.679a.679.679,0,1,1,1.357,0v17.643A.679.679,0,0,1,978.679,699Z" transform="translate(-978 -680)" fill="#034fa0"/>
  </g>
  <g id="Сгруппировать_13713" data-name="Сгруппировать 13713" transform="translate(14.929 19)">
    <path id="Контур_45321" data-name="Контур 45321" d="M954.679,699a.679.679,0,0,1-.679-.678V680.679a.679.679,0,1,1,1.357,0v17.643A.678.678,0,0,1,954.679,699Z" transform="translate(-954 -680)" fill="#034fa0"/>
  </g>
  <g id="Сгруппировать_13714" data-name="Сгруппировать 13714" transform="translate(8.143 21.714)">
    <path id="Контур_45322" data-name="Контур 45322" d="M914.678,701.429a.679.679,0,0,1-.679-.679v-4.071a.679.679,0,1,1,1.357,0v4.071A.679.679,0,0,1,914.678,701.429Z" transform="translate(-914 -696)" fill="#034fa0"/>
  </g>
  <g id="Сгруппировать_13715" data-name="Сгруппировать 13715" transform="translate(8.143 0)">
    <path id="Контур_45323" data-name="Контур 45323" d="M925.535,574.786a.677.677,0,0,1-.48-.2l-4.949-4.949-4.949,4.949a.679.679,0,0,1-.96-.96l5.429-5.429a.679.679,0,0,1,.96,0l5.429,5.429a.678.678,0,0,1-.48,1.158Z" transform="translate(-914 -568)" fill="#034fa0"/>
  </g>
  <g id="Сгруппировать_13716" data-name="Сгруппировать 13716" transform="translate(13.57)">
    <path id="Контур_45324" data-name="Контур 45324" d="M946.671,581.571a.679.679,0,0,1-.679-.679V568.679a.678.678,0,1,1,1.357,0v12.214A.678.678,0,0,1,946.671,581.571Z" transform="translate(-945.992 -568)" fill="#034fa0"/>
  </g>
</svg>
