<svg id="Сгруппировать_13725" data-name="Сгруппировать 13725" xmlns="http://www.w3.org/2000/svg" width="27.143" height="38" viewBox="0 0 27.143 38">
  <g id="Сгруппировать_13718" data-name="Сгруппировать 13718" transform="translate(0 0)">
    <path id="Контур_45325" data-name="Контур 45325" d="M1292.464,1369.357h-25.785a.679.679,0,1,1,0-1.357h25.785a.679.679,0,1,1,0,1.357Z" transform="translate(-1266 -1368)" fill="#034fa0"/>
  </g>
  <g id="Сгруппировать_13719" data-name="Сгруппировать 13719" transform="translate(4.071 0)">
    <path id="Контур_45326" data-name="Контур 45326" d="M1308.321,1389.714h-17.643a.678.678,0,0,1-.678-.678v-20.357a.679.679,0,1,1,1.357,0v19.678h16.286v-19.678a.679.679,0,1,1,1.357,0v20.357A.678.678,0,0,1,1308.321,1389.714Z" transform="translate(-1290 -1368)" fill="#034fa0"/>
  </g>
  <g id="Сгруппировать_13720" data-name="Сгруппировать 13720" transform="translate(6.786 0)">
    <path id="Контур_45327" data-name="Контур 45327" d="M1316.857,1387h-8.143a.679.679,0,0,1-.679-.678,1.359,1.359,0,0,0-1.357-1.357.679.679,0,0,1-.679-.678v-15.607a.679.679,0,0,1,1.357,0v15.014a2.724,2.724,0,0,1,1.95,1.95h6.957a2.724,2.724,0,0,1,1.95-1.95v-15.014a.679.679,0,1,1,1.357,0v15.607a.679.679,0,0,1-.679.678,1.359,1.359,0,0,0-1.357,1.357A.679.679,0,0,1,1316.857,1387Z" transform="translate(-1306 -1368)" fill="#034fa0"/>
  </g>
  <g id="Сгруппировать_13721" data-name="Сгруппировать 13721" transform="translate(12.893 10.857)">
    <path id="Контур_45328" data-name="Контур 45328" d="M1342.678,1436.071a.679.679,0,0,1-.678-.678v-2.714a.678.678,0,0,1,1.357,0v2.714A.678.678,0,0,1,1342.678,1436.071Z" transform="translate(-1342 -1432)" fill="#034fa0"/>
  </g>
  <g id="Сгруппировать_13722" data-name="Сгруппировать 13722" transform="translate(9.5)">
    <path id="Контур_45329" data-name="Контур 45329" d="M1326.071,1374.786a4.072,4.072,0,0,1-3.255-6.517.679.679,0,1,1,1.082.82,2.714,2.714,0,1,0,4.346,0,.679.679,0,0,1,1.083-.82,4.072,4.072,0,0,1-3.256,6.517Z" transform="translate(-1322 -1368)" fill="#034fa0"/>
  </g>
  <g id="Сгруппировать_13723" data-name="Сгруппировать 13723" transform="translate(6.787 31.214)">
    <path id="Контур_45330" data-name="Контур 45330" d="M1312.115,1558.785a.676.676,0,0,1-.48-.2l-5.429-5.429a.678.678,0,0,1,.96-.959l4.949,4.948,4.949-4.948a.678.678,0,1,1,.96.959l-5.428,5.429A.677.677,0,0,1,1312.115,1558.785Z" transform="translate(-1306.008 -1552)" fill="#034fa0"/>
  </g>
  <g id="Сгруппировать_13724" data-name="Сгруппировать 13724" transform="translate(12.217 24.428)">
    <path id="Контур_45331" data-name="Контур 45331" d="M1338.694,1525.571a.679.679,0,0,1-.679-.678v-12.214a.679.679,0,0,1,1.357,0v12.214A.678.678,0,0,1,1338.694,1525.571Z" transform="translate(-1338.016 -1512)" fill="#034fa0"/>
  </g>
</svg>
