<svg xmlns="http://www.w3.org/2000/svg" width="55.668" height="41.289" viewBox="0 0 55.668 41.289">
  <g id="Компонент_5_1" data-name="Компонент 5 – 1" transform="translate(0.743 0.5)">
    <g id="Сгруппировать_13982" data-name="Сгруппировать 13982" transform="translate(0)">
      <path id="Контур_31433" data-name="Контур 31433" d="M336.717,145.124s-3.793.29-8.763.724-10.846,1.012-10.846,1.012A51.072,51.072,0,0,1,320.665,116l24,8.817s-4.252,5.978-7.944,20.307" transform="translate(-290.236 -116)" fill="none" stroke="#034fa0" stroke-linecap="round" stroke-linejoin="round" stroke-width="1"/>
      <g id="Контур_27297" data-name="Контур 27297" transform="matrix(0.951, 0.309, -0.309, 0.951, 39.387, 7.012)" fill="#fff" stroke-linecap="round" stroke-linejoin="round">
        <path d="M 5.308755397796631 6.246284484863281 L 4.28164529800415 5.633394241333008 L 2.80048656463623 4.749557971954346 L 1.321405172348022 5.60431432723999 L 0.29888516664505 6.195224285125732 L 0.5862551927566528 5.049734115600586 L 0.9722729921340942 3.511035680770874 L -0.3222448229789734 2.419914245605469 L -1.289914846420288 1.604284286499023 L -0.02608482167124748 1.538284301757813 L 1.67538321018219 1.44942843914032 L 2.341395139694214 -0.1883457005023956 L 2.804565191268921 -1.32731568813324 L 3.267735242843628 -0.1883457005023956 L 3.933737516403198 1.449417471885681 L 5.635185241699219 1.538264274597168 L 6.903584957122803 1.604494333267212 L 5.930415153503418 2.420684337615967 L 4.635723114013672 3.506532907485962 L 5.023415088653564 5.084744453430176 L 5.308755397796631 6.246284484863281 Z" stroke="none"/>
        <path d="M 2.804565191268921 4.291534423828125e-06 L 2.018835067749023 1.932174205780029 L -4.76837158203125e-06 2.037604331970215 L 1.533205032348633 3.329914331436157 L 1.071225166320801 5.171404361724854 L 2.804545164108276 4.169724464416504 L 4.53785514831543 5.204024314880371 L 4.075895309448242 3.323484420776367 L 5.609115123748779 2.03758430480957 L 3.590285062789917 1.932164192199707 L 2.804565191268921 4.291534423828125e-06 M 2.804565191268921 -0.9999957084655762 C 3.211385250091553 -0.9999957084655762 3.577655076980591 -0.7535457611083984 3.730905055999756 -0.3766956329345703 L 4.2771897315979 0.966670036315918 L 5.66126537322998 1.038944244384766 C 6.071605205535889 1.06037425994873 6.427075386047363 1.330634355545044 6.557445049285889 1.720304250717163 C 6.687815189361572 2.109974384307861 6.566555023193359 2.539734363555908 6.251715183258057 2.803784370422363 L 5.195559024810791 3.689574241638184 L 5.508985042572021 4.965464115142822 C 5.605185031890869 5.357094287872314 5.456735134124756 5.768194198608398 5.132514953613281 6.008004188537598 C 4.956567287445068 6.138140678405762 4.747493267059326 6.204024791717529 4.537764549255371 6.204024791717529 C 4.361012935638428 6.204024791717529 4.183810710906982 6.157262802124023 4.025435447692871 6.062754154205322 L 2.796431541442871 5.329383850097656 L 1.571575164794922 6.037224292755127 C 1.41617488861084 6.127033233642578 1.243431568145752 6.171407699584961 1.071341991424561 6.171407699584961 C 0.8583564758300781 6.171407699584961 0.6463356018066406 6.103502750396729 0.4689950942993164 5.969724178314209 C 0.1483650207519531 5.727854251861572 0.0035552978515625 5.317624092102051 0.1012849807739258 4.928074359893799 L 0.4113430976867676 3.692158937454224 L -0.6444849967956543 2.802224397659302 C -0.9583249092102051 2.537694215774536 -1.078654766082764 2.108254194259644 -0.9479446411132813 1.719164371490479 C -0.8172450065612793 1.330074310302734 -0.4620547294616699 1.06037425994873 -0.0521550178527832 1.03896427154541 L 1.331931114196777 0.9666829109191895 L 1.878225088119507 -0.3766956329345703 C 2.031475067138672 -0.7535457611083984 2.397745132446289 -0.9999957084655762 2.804565191268921 -0.9999957084655762 Z" stroke="none" fill="#034fa0"/>
      </g>
      <g id="Сгруппировать_13981" data-name="Сгруппировать 13981" transform="translate(28.182 11.702)">
        <path id="Контур_33770" data-name="Контур 33770" d="M0,0,19.357.015V.447H.224Z" transform="matrix(0.94, 0.342, -0.342, 0.94, 1.933, 0)" fill="#034fa0"/>
        <path id="Контур_33769" data-name="Контур 33769" d="M0,0,19.019.015l.018.375L.266.414Z" transform="matrix(0.94, 0.342, -0.342, 0.94, 1.445, 2.853)" fill="#034fa0"/>
        <path id="Контур_33772" data-name="Контур 33772" d="M0,0,17.637.008l.016.208L.247.229Z" transform="matrix(0.94, 0.342, -0.342, 0.94, 0.078, 10.37)" fill="#034fa0"/>
        <path id="Контур_33771" data-name="Контур 33771" d="M0,0,18.76.018l.113.455L.262.49Z" transform="matrix(0.94, 0.342, -0.342, 0.94, 0.762, 6.27)" fill="#034fa0"/>
      </g>
      <path id="Контур_31436" data-name="Контур 31436" d="M320.158,118.144,303,120.082s12.569,11.961,13.225,25.349" transform="translate(-290.874 -116.356)" fill="none" stroke="#034fa0" stroke-linecap="round" stroke-linejoin="round" stroke-width="1"/>
      <path id="Контур_31437" data-name="Контур 31437" d="M308.328,125,294,130.511a25.113,25.113,0,0,1,23.145,14.328" transform="translate(-291.794 -115.764)" fill="none" stroke="#034fa0" stroke-linecap="round" stroke-linejoin="round" stroke-width="1"/>
      <path id="Контур_31440" data-name="Контур 31440" d="M10.685,0,0,3.105S11.3,5.254,19.013,20.684" transform="translate(0 22.045) rotate(-30)" fill="none" stroke="#034fa0" stroke-linecap="round" stroke-linejoin="round" stroke-width="1"/>
    </g>
  </g>
</svg>
