<svg width="290" height="430" viewBox="0 0 290 430" fill="none" xmlns="http://www.w3.org/2000/svg">
<path opacity="0.5" d="M12.3916 401.093C0.972533 409.975 6.51894 416.835 24.5719 426.439C39.5073 434.419 57.6328 428.064 69.8132 416.51C81.9935 404.92 79.2384 398.493 62.563 390.766C45.8875 383.075 29.8646 387.48 12.3916 401.093Z" fill="#90A4AF"/>
<path d="M85.9268 34.238L230.939 118.25L290 84.012L144.988 0L85.9268 34.238Z" fill="#EDDDDD"/>
<path d="M85.9263 111.612L230.938 195.65L290 161.438L144.988 77.4L85.9263 111.612Z" fill="#C6ADAC"/>
<path d="M85.9263 34.3999V111.156L232 195.65V118.894L85.9263 34.3999Z" fill="#DBC7C6"/>
<path opacity="0.3" d="M229.852 191.35V125.811L146.459 77.4L90.2227 110.058V110.169L229.852 191.35Z" fill="#AF9B9A"/>
<path d="M290 83.85L232 118.473V195.65L290 161.064V83.85Z" fill="#C1AFAE"/>
<path d="M90.2227 38.7001V109.65L146.074 76.7304V71.6571L90.2227 38.7001Z" fill="#C1AFAE"/>
<path d="M227.703 124.7V119.943L143.926 70.9502V76.0068L144.148 75.8945L227.703 124.7Z" fill="#AF9B9A"/>
<path d="M214.815 112.498L158.963 79.55V150.5L214.815 117.44V112.498Z" fill="#C1AFAE"/>
<path d="M158.963 150.5L154.667 148.162V75.25L158.963 77.5879V150.5Z" fill="#DBC7C6"/>
<path d="M285.603 155.091C285.52 154.671 285.05 154.736 284.94 155.091C284.691 155.963 284.608 156.868 284.387 157.74C284.166 158.644 283.835 159.452 283.586 160.324C283.365 161.131 284.387 161.616 284.746 160.905C285.492 159.323 285.907 156.868 285.603 155.091Z" fill="#AF9B9A"/>
<path d="M283.485 164.595C283.062 163.656 282.314 163.33 281.632 162.8C280.949 162.27 280.266 161.413 279.453 161.25C279.356 161.25 279.258 161.291 279.258 161.454C279.291 163.412 281.697 165.777 283.192 165.533C283.517 165.41 283.647 164.88 283.485 164.595Z" fill="#AF9B9A"/>
<path d="M239.369 120.559C238.239 121.459 237.383 122.558 236.835 123.858C236.458 124.724 235.91 125.99 236.698 126.756C236.801 126.856 236.972 126.89 237.075 126.79C237.828 126.257 237.828 125.29 238.136 124.491C238.615 123.325 239.403 122.358 240.362 121.525C241.046 120.959 240.053 120.026 239.369 120.559Z" fill="#AF9B9A"/>
<path d="M240.5 127.158C240.463 126.747 239.767 126.747 239.731 127.158C239.511 128.541 239.071 129.924 238.449 131.157C237.826 132.353 236.91 133.288 236.361 134.484C236.141 134.932 236.507 135.605 237.057 135.418C240.024 134.185 240.903 130.074 240.5 127.158Z" fill="#AF9B9A"/>
<path d="M240.467 186.263C239.611 185.442 238.592 184.785 237.695 183.964C236.716 183.06 236.105 181.91 235.289 180.884C234.963 180.432 234.147 180.514 234.147 181.171C234.27 184.087 237.165 187.208 240.141 187.044C240.508 187.044 240.753 186.551 240.467 186.263Z" fill="#AF9B9A"/>
<path d="M244.826 172.217C244.788 171.942 244.41 171.942 244.259 172.139C243.503 173.512 243.049 175.003 242.331 176.376C241.726 177.553 240.63 178.652 240.592 180.025C240.592 180.379 240.97 180.693 241.31 180.575C242.784 180.104 243.427 178.26 243.956 176.926C244.637 175.395 245.053 173.865 244.826 172.217Z" fill="#AF9B9A"/>
<path d="M287.28 92.4743C287.245 92.4422 287.177 92.4422 287.143 92.4743C286.424 93.0847 286.492 94.1448 286.321 95.0122C286.116 96.1044 285.671 97.1645 285.705 98.2567C285.705 98.8992 286.663 99.1562 287.006 98.578C287.622 97.5821 287.69 96.2971 287.759 95.1728C287.861 94.2733 288.033 93.1168 287.28 92.4743Z" fill="#AF9B9A"/>
<path d="M164.45 133.626C164.251 133.108 163.454 133.246 163.374 133.764C163.095 135.522 163.374 137.453 163.693 139.212C163.852 140.04 165.447 139.867 165.407 139.005C165.327 137.212 165.128 135.281 164.45 133.626Z" fill="#AF9B9A"/>
<path d="M169.684 137.788C169.652 137.594 169.465 137.53 169.371 137.691C168.745 138.594 168.276 139.625 167.65 140.527C167.025 141.462 166.086 142.107 165.492 143.041C165.21 143.493 165.679 144.234 166.211 144.008C168.276 143.203 169.903 140.044 169.684 137.788Z" fill="#AF9B9A"/>
<path d="M200.022 113.981C199.902 113.88 199.752 114.049 199.782 114.185C199.992 115.034 200.292 115.849 200.441 116.732C200.621 117.751 200.561 118.668 200.501 119.653C200.441 120.502 201.67 120.705 201.82 119.856C202.18 117.853 201.64 115.17 200.022 113.981Z" fill="#AF9B9A"/>
<path d="M197.352 118.261C195.255 118.825 193.722 121.232 193.346 123.676C193.19 124.692 194.473 125.143 194.661 124.128C195.099 121.796 196.131 120.292 197.571 118.712C197.727 118.524 197.54 118.186 197.352 118.261Z" fill="#AF9B9A"/>
<path d="M41.3853 152.37C40.7665 151.894 40.6209 151.015 41.0941 150.393L89.8325 84.4259C90.3057 83.8036 91.1793 83.6572 91.7981 84.1331C92.4169 84.609 92.5625 85.4875 92.0893 86.1099L43.3508 152.077C42.8777 152.699 42.0041 152.845 41.3853 152.37Z" fill="#513534"/>
<path d="M92.4825 92.6397C92.8154 90.8347 90.3743 90.1849 88.414 91.5928C89.6345 89.9683 91.2249 87.3692 89.0427 86.2501C87.8592 85.6725 86.4537 85.9974 85.1961 86.6472C85.1961 85.9613 85.0112 85.3477 84.3824 85.095C83.6427 84.7701 82.9769 85.2033 82.4221 85.8169C82.3482 84.3369 81.9783 82.8207 80.9427 82.171C79.5372 81.2685 78.4276 82.0987 77.7618 83.2539C77.5029 82.7846 76.8742 82.3514 76.1714 81.9905C75.0248 81.6295 73.8783 81.4851 72.9166 82.2793C71.1413 83.6871 72.6577 86.2862 73.5454 88.019C72.4728 88.8132 71.77 90.1127 71.9919 91.3401C70.7714 90.943 69.2919 91.4484 68.8851 92.784C68.3303 94.6251 69.5138 96.3579 70.9933 97.4047C69.6248 97.6213 68.2933 98.1267 68.8851 99.6789C69.4399 101.195 71.3632 101.592 73.0646 101.52C72.2139 102.892 71.881 104.516 73.7303 105.31C75.0988 105.888 77.0221 104.986 78.3906 103.83C78.6865 105.202 79.7961 106.393 81.2756 106.538C82.2742 106.61 83.0879 106.105 83.5317 105.419C85.1961 107.007 87.4153 108.307 89.5236 106.899C90.4852 106.249 90.9291 104.841 90.6702 103.794C91.5208 103.866 92.3715 103.686 92.9633 102.892C93.4441 102.242 93.5181 101.484 93.2962 100.798C94.7017 100.401 95.8852 99.4985 96.44 98.0545C96.6989 97.3325 96.7359 96.4661 96.551 95.672C96.1811 94.95 95.1825 92.9284 92.4825 92.6397Z" fill="#E52C2C"/>
<path d="M69.776 109.661C68.0895 113.489 64.286 118.321 65.4701 119.734C67.4078 122.076 70.8883 121.481 70.8883 121.481C70.8883 121.481 69.5607 127.391 66.726 128.581C61.6307 130.774 57.7195 131.963 57.7195 131.963C57.7195 131.963 42.9719 163.633 33.0325 167.35C28.906 168.911 25.8919 164.934 25.7842 161.7C25.3895 149.545 42.0389 131.592 52.6242 123.265C56.1048 120.589 62.6354 109.252 69.776 109.661Z" fill="#FFC9B6"/>
<path d="M64.4443 122.833C64.4443 122.833 65.2462 120.877 67.1415 119.65C69.0369 118.423 69.1827 116.534 71.479 116.169C73.7753 115.837 76.5818 116.699 74.3949 118.755C72.2444 120.844 72.4995 122.932 69.8023 124.292C67.1051 125.75 64.4443 122.833 64.4443 122.833Z" fill="#FFC9B6"/>
<path d="M13.3985 271.845C-2.42353 255.185 12.6574 237.606 20.2535 232.2C24.2924 237.128 48.2662 246.911 48.4145 247.499C51.3047 259.745 48.6738 272.543 45.0055 284.385C42.7452 291.777 40.7814 304.244 35.4826 324.471C37.9282 334.511 35.1492 349.773 34.1117 361.137C33.4076 369.081 30.221 389.896 29.7393 391.661C31.1844 391.22 33.5929 389.087 36.8536 387.984C39.8921 386.954 43.7827 386.88 45.5243 387.542C50.9341 389.675 52.4904 391.624 51.0453 395.081C48.8962 400.156 42.0782 401.775 37.2612 402.804C29.9616 404.312 25.8486 415.823 18.0673 407.879C16.0664 405.82 17.845 400.451 18.5119 397.619C18.3637 395.633 18.9566 378.164 16.7333 364.851C14.0284 348.817 12.6204 330.833 22.0691 321.419C11.4346 294.609 11.8052 280.046 13.3985 271.845Z" fill="#F9BBA7"/>
<path d="M17.3597 397.527C17.3597 397.527 21.9157 399.146 24.8418 400.065C27.768 400.985 34.8056 401.353 40.2134 396.166C42.3247 394.142 43.8063 391.604 43.0655 390.169C41.695 387.446 35.7686 388.808 35.7686 388.808C35.7686 388.808 45.9176 381.818 51.6217 386.416C54.2516 388.55 54.9183 392.855 50.4735 397.416C47.8437 400.139 40.1023 404.995 33.3981 408.527C29.0273 410.845 21.9527 415.443 17.1375 410.808C12.2853 406.246 17.3597 397.527 17.3597 397.527Z" fill="#2C1D1B"/>
<path d="M28.4356 284.745C12.6136 268.085 27.6945 250.506 35.2906 245.1C39.3295 250.028 63.3034 259.811 63.4516 260.399C66.3418 272.646 63.711 285.444 60.0426 297.286C57.7823 304.678 55.8185 317.145 50.5198 337.372C52.9653 347.411 50.1863 362.674 49.1488 374.037C48.4447 381.981 45.2581 402.796 44.7764 404.562C46.2215 404.12 48.63 401.987 51.8907 400.884C54.9292 399.854 58.8198 399.781 60.5614 400.443C65.9712 402.576 67.5275 404.525 66.0824 407.982C63.9333 413.057 57.1154 414.675 52.2983 415.705C44.9987 417.213 40.8857 428.723 33.1044 420.78C31.1035 418.72 32.8821 413.351 33.549 410.519C33.4008 408.533 33.9937 391.065 31.7705 377.752C29.0655 361.717 27.6575 343.734 37.1062 334.319C26.4718 307.473 26.8793 292.946 28.4356 284.745Z" fill="#FFC9B6"/>
<path d="M32.3809 410.427C32.3809 410.427 36.9387 412.046 39.8662 412.965C42.7936 413.885 49.8342 414.253 55.2443 409.066C57.3565 407.042 58.8387 404.504 58.0976 403.069C56.7265 400.383 50.7976 401.708 50.7976 401.708C50.7976 401.708 60.9509 394.717 66.6575 399.316C69.2884 401.45 69.9554 405.755 65.5087 410.317C62.8778 413.039 55.1331 417.895 48.426 421.427C44.0535 423.745 36.9758 428.344 32.1586 423.708C27.3413 419.146 32.3809 410.427 32.3809 410.427Z" fill="#2C1D1B"/>
<path d="M10.7255 159.856C17.6128 157.334 26.0226 161.34 26.3851 168.61C30.1912 175.213 26.4576 184.895 20.5128 189.309C13.5892 194.428 2.93202 189.235 0.648335 181.297C-1.7441 173.062 2.67827 162.824 10.7255 159.856Z" fill="#FF9E55"/>
<path d="M27.2354 179.676C33.4867 181.638 39.1058 180.015 45.1112 179.034C41.3885 174.808 36.6474 170.696 40.2998 159.075C35.5587 157.679 31.2741 155.679 27.0949 152.887C26.252 152.321 24.9175 152.811 24.7419 153.906C23.7937 159.188 22.5996 165.338 19.4037 167.941C19.4388 169.828 19.3335 169.451 19.3335 171.299C19.3335 172.658 19.3335 174.016 19.3335 175.412C21.3353 177.676 24.3556 178.808 27.2354 179.676Z" fill="#FFC9B6"/>
<path d="M23.8394 140.572C24.6286 133.505 30.604 124.143 38.7591 124.726C47.0645 125.345 52.7393 137.293 53.3782 142.866C54.468 152.337 53.6036 170.186 38.1954 164.431C26.207 159.987 22.6744 151.099 23.8394 140.572Z" fill="#FFC9B6"/>
<path d="M6.96643 201.355C1.79057 185.132 4.96168 174.366 9.5179 169.057C11.4133 166.882 17.0994 160.503 21.9837 164.927C20.4164 172.301 34.7411 176.284 43.8535 176.284C50.779 181.519 53.9866 185.427 57.9596 192.506C62.1513 199.991 65.6505 206.148 56.7203 211.605C59.454 219.79 53.6585 229.709 56.0278 250.688C47.6808 257.398 31.6429 257.324 22.7856 251.868C15.8602 247.628 12.1787 242.871 12.5432 237.746C14.8396 232.769 15.7873 231.736 15.5321 225.542C15.2041 217.763 9.33566 208.803 6.96643 201.355Z" fill="#FFB65F"/>
<path d="M54.6577 191.35C55.8849 191.537 61.9531 203.745 62.2599 208.35C62.5667 212.956 60.8622 222.093 60.3849 226.811C59.9076 231.529 59.2599 239.393 59.2599 239.393L49.4077 242.95C49.4077 242.95 52.2031 236.734 52.7145 228.122C53.2259 219.509 50.4645 200.412 50.4645 200.412L54.6577 191.35Z" fill="#28A745"/>
<path d="M23.1725 344.965C39.1572 354.917 43.3 353.443 54.5554 350.015C62.731 347.508 66.5073 341.5 68.3404 335.124C69.0736 309.543 68.817 273.163 67.4238 263.432C64.8208 245.26 60.7146 242.238 60.7146 242.238L31.4581 245.26L14.2269 234.35C14.2269 234.35 5.24461 245.924 2.97155 256.871C0.698488 267.855 -0.364713 279.982 0.111896 296.716C0.66183 316.251 1.54172 324.324 0.111896 334.018C2.93489 347.508 13.457 338.92 23.1725 344.965Z" fill="#28A745"/>
<path d="M47.2588 178.158C47.2588 178.158 37.7984 175.709 33.3172 182.5C28.8004 189.29 30.3297 201.796 30.472 211.89C30.6142 221.983 30.2586 242.95 30.2586 242.95L25.7773 241.28C25.7773 241.28 26.7376 228.44 26.5242 214.265C26.3108 200.089 26.5242 186.062 29.6895 180.607C32.8548 175.152 42.7064 174.15 42.7064 174.15L47.2588 178.158Z" fill="#28A745"/>
<path d="M10.5824 193.571C9.94072 184.241 10.5468 180.398 12.8283 175.845C15.9654 169.688 20.3859 166.217 22.8813 164.613C23.1309 164.015 23.3804 163.456 23.63 162.859C22.4179 162.187 21.2415 161.179 20.5641 161.254C14.4325 161.888 8.55041 169.314 6.83925 179.763C5.48459 187.973 7.83742 200.885 10.5824 211.073C13.7552 223.014 14.7177 225.514 14.7177 233.687C14.7177 235.553 19.9581 238.65 19.9581 238.65C19.9581 238.65 18.7817 229.246 16.2863 218.723C14.076 209.356 10.9745 199.019 10.5824 193.571Z" fill="#28A745"/>
<path d="M58.9304 236.16L60.148 241.881C60.148 241.881 44.7982 252.894 29.8542 248.263C14.6151 243.554 10.7407 237.405 10.7407 237.405L12.9915 230.05C15.2424 232.463 23.028 240.091 33.7286 241.842C39.7062 242.854 50.8127 240.013 58.9304 236.16Z" fill="#23923C"/>
<path d="M19.3335 290.25C19.3335 290.25 20.1244 299.67 22.8568 310.754C25.5892 321.838 27.9261 328.95 27.9261 328.95C27.9261 328.95 27.4946 318.925 25.4454 307.576C23.3961 296.227 19.3335 290.25 19.3335 290.25Z" fill="#23923C"/>
<path d="M50.1456 281.65C50.1456 281.65 48.9171 295.773 49.6304 306.431C50.3437 317.088 55.8521 331.1 55.8521 331.1C55.8521 331.1 54.7029 312.766 54.4651 303.002C54.2273 293.276 50.1456 281.65 50.1456 281.65Z" fill="#23923C"/>
<path d="M62.9333 199.053C65.5973 202.071 68.8013 206.157 70.3132 209.948C72.0412 214.29 75.6051 220.879 77.1531 224.633C80.6811 226.326 86.801 228.387 94.2889 232.877C101.993 237.478 104.981 239.686 108.869 239.796C112.829 239.907 115.493 240.716 118.228 241.195C123.7 242.152 119.092 244.213 117.472 244.434C115.6 244.691 112.577 245.317 112.577 245.317C112.577 245.317 118.948 253.966 121.828 259.781C124.78 265.744 116.429 272.184 111.281 266.627C106.097 260.996 102.065 252.494 100.589 250.065C99.1488 247.636 85.289 243.698 81.0051 242.741C79.6731 242.446 73.2292 241.011 71.8612 240.716C69.6652 240.311 68.9813 239.023 66.7133 236.741C64.1213 234.128 63.5813 234.018 57.7494 226.436C52.7455 219.922 49.5056 217.051 47.4896 208.659C45.2576 199.458 59.8734 195.594 62.9333 199.053Z" fill="#FFC9B6"/>
<path d="M50.4835 180.89C59.9961 182.766 68.6011 197.517 68.4195 207.126C70.9974 210.541 57.3457 222.665 52.8798 221.351C45.6909 220.375 39.0829 210.203 37.0497 199.431C34.6171 186.707 40.7894 178.975 50.4835 180.89Z" fill="#FF9E55"/>
<path d="M68.9315 206.4L70.8528 210.785C70.8528 210.785 71.5644 214.338 66.6545 218.913C61.7089 223.449 55.8384 223.6 55.8384 223.6L53.7036 220.765C53.7036 220.765 59.8232 219.064 63.7725 215.473C67.7574 211.919 68.9315 206.4 68.9315 206.4Z" fill="#28A745"/>
<path d="M55.7984 132.83C56.5526 131.89 57.0912 130.878 57.1989 129.902C57.5939 126.938 52.8897 126.179 49.981 126.902C45.8513 120.214 35.2219 117.792 29.2249 123.938C23.0484 124.805 19.206 127.914 18.021 134.023C15.5791 146.602 18.8828 147.831 22.8329 163.049C28.2913 164.857 33.3546 159.326 37.2329 154.591C39.4593 151.88 42.2603 147 44.5227 140.746C52.3511 143.71 58.8149 141.578 59.964 137.746C60.8259 134.926 58.5276 133.3 55.7984 132.83Z" fill="#2C1D1B"/>
<path d="M40.8145 147.585C40.8145 147.585 35.3363 143.546 34.4678 149.265C33.5993 154.984 38.8103 156.95 38.8103 156.95L40.8145 147.585Z" fill="#FFC9B6"/>
<path d="M24.4199 118.264C22.021 118.126 19.6221 119.021 18.2513 120.914C15.8905 124.252 18.0609 127.487 18.9367 128.588C22.1352 132.58 28.2277 131.582 31.1216 127.831C34.5106 123.46 29.4462 118.539 24.4199 118.264Z" fill="white"/>
<path d="M24.9701 121.701C21.3477 119.194 15.3967 116.097 7.37586 120.374C-0.64503 124.651 -0.645023 137.41 0.611706 143.936C1.86843 150.463 6.11913 155.625 7.00624 161.304C8.26296 169.489 1.90539 172.439 1.90539 172.439C1.90539 172.439 7.67156 177.823 14.2509 169.489C20.8302 161.156 18.8343 151.938 18.6494 142.83C18.4277 133.722 25.4875 131.104 27.1509 128.818C28.8142 126.532 27.6683 123.582 24.9701 121.701Z" fill="#3F2A28"/>
<path d="M128.346 53.3674C127.791 52.559 126.976 52.2283 126.05 52.1548C126.716 51.2728 127.087 50.2806 126.42 49.0312C125.938 48.1125 124.901 47.7083 123.456 48.2227C124.605 46.4956 123.271 43.372 120.456 44.5112C120.048 42.6003 117.196 41.2774 115.973 42.3063C116.159 37.0882 111.343 38.4111 110.676 40.7997C109.416 40.1015 107.231 39.734 106.008 40.7997C105.119 41.5714 104.86 42.6003 104.934 43.5925C104.378 43.4823 103.785 43.4456 103.156 43.666C101.711 44.1805 101.341 45.3197 101.415 46.5691C100.414 46.3854 99.303 46.6793 98.5621 47.4878C97.636 48.48 97.599 49.9866 98.1546 51.1993C97.6731 51.2728 97.2285 51.4566 96.784 51.824C95.8949 52.559 95.7097 53.6246 95.8208 54.6536C95.0058 54.3963 94.1538 54.3964 93.4129 54.7271C91.5606 55.5355 91.4495 57.5199 91.7829 59.2838C90.7456 59.1368 89.7084 59.5043 88.9304 60.3495C87.9302 61.4887 87.8932 63.0688 88.3747 64.4285C89.1527 65.2737 89.8195 66.4864 90.0788 67.4786C90.8197 66.8906 91.7829 66.6701 92.8201 67.0743C94.0056 67.5521 94.5983 68.6177 94.8206 69.7569C95.3022 69.3894 95.8949 69.2792 96.5617 69.6467C97.2285 70.0141 97.4878 70.6021 97.5619 71.2636C99.0808 70.8226 100.563 71.1533 101.674 72.6967C102.23 73.4317 102.193 74.3871 101.822 75.2691C103.008 74.2769 106.045 74.8648 105.897 77.5107C109.083 77.1432 110.305 78.7601 110.972 81.6632C111.083 81.6632 111.195 81.6999 111.306 81.6999C112.195 81.6632 113.084 81.2222 113.714 80.5975C114.603 79.7155 114.899 78.5764 114.714 77.5107C115.603 77.4372 116.455 77.033 117.048 76.3348C117.603 75.6733 117.863 74.8648 117.863 74.0196C119.085 74.4606 120.233 74.3137 120.641 72.5498C120.863 71.5943 120.826 70.4551 120.53 69.3895C122.456 69.9774 124.383 69.9039 124.938 67.8093C125.272 66.5966 124.79 65.2737 123.901 64.2447C125.568 63.8773 127.161 62.7014 127.791 61.2315C128.272 60.1658 128.124 59.0266 127.309 58.1814C127.717 57.8874 128.05 57.4832 128.346 57.0422C129.013 55.9398 129.124 54.4699 128.346 53.3674Z" fill="#69A042"/>
<path d="M106.385 77.8968C106.538 75.1873 103.395 74.6228 102.169 75.6012C102.514 74.6981 102.552 73.7197 102.016 72.9671C100.827 71.3865 99.3327 71.0479 97.7613 71.4994C97.6847 70.8221 97.3781 70.22 96.7265 69.8436C96.0366 69.4673 95.4617 69.5802 94.9252 69.9565C94.6952 68.79 94.1204 67.6987 92.8556 67.2095C91.7825 66.7955 90.786 67.0213 90.0194 67.6234C89.7512 66.6074 89.0613 65.3655 88.2564 64.5C88.2564 64.5376 88.2948 64.6129 88.2948 64.6505C87.26 64.5 86.1868 64.801 85.4203 65.5913C84.3472 66.7202 84.3855 68.2631 84.9987 69.5426C84.0406 69.8813 83.1974 70.5963 82.9674 71.6876C82.8141 72.4026 83.0058 73.381 83.5423 73.9455C82.4692 73.5691 81.2811 73.6068 80.3613 74.4723C79.0965 75.6389 79.5947 77.6334 80.1313 79.3268C79.2881 79.0257 78.445 78.9505 77.9084 79.7407C77.3718 80.5686 77.3335 81.6223 77.5635 82.6007C77.4868 82.563 77.4101 82.563 77.3335 82.5254C78.0617 82.9017 78.7132 83.3533 78.9815 83.8425C79.6714 82.6383 80.7829 81.7728 82.2776 82.7136C83.3507 83.3909 83.734 84.9715 83.8106 86.5144C84.3472 85.8746 85.0754 85.423 85.8419 85.7617C86.4934 86.0628 86.6851 86.6649 86.6851 87.3799C87.9882 86.7025 89.4829 86.3638 90.671 86.9659C92.9706 88.1325 91.2842 90.8419 90.0194 92.5354C92.0507 91.0677 94.5802 91.7451 94.2353 93.6267C97.0331 93.8901 98.0679 95.9974 98.4129 96.7124C98.8728 96.7877 99.3327 96.7501 99.7926 96.5996C101.249 96.148 102.36 94.718 102.169 93.0999C104.852 93.1751 106.998 90.9925 106.27 88.3583C108.263 88.1325 110.064 87.1541 111.099 85.3478C111.674 84.3317 111.865 83.0899 111.559 82.0738C110.946 79.1762 109.681 77.4828 106.385 77.8968Z" fill="#F9A83D"/>
<path d="M113.719 383.564C111.052 385.103 111.052 388.952 113.718 390.492L168.082 421.886C169.32 422.601 170.845 422.601 172.083 421.886L236.068 384.941C238.734 383.402 238.734 379.553 236.068 378.013L181.704 346.619C180.467 345.904 178.942 345.904 177.704 346.619L113.719 383.564Z" fill="#C3CED4"/>
<path d="M165.407 402.05V414.389C165.407 415.887 167.794 417.1 170.778 417.1C173.724 417.1 176.148 415.887 176.148 414.389V402.05H165.407Z" fill="#352221"/>
<path d="M116 371.95V384.289C116 385.787 118.387 387 121.37 387C124.317 387 126.741 385.787 126.741 384.289V371.95H116Z" fill="#352221"/>
<path d="M223.407 367.65V379.989C223.407 381.487 225.794 382.7 228.778 382.7C231.724 382.7 234.148 381.487 234.148 379.989V367.65H223.407Z" fill="#352221"/>
<path d="M113.853 298.162L170.69 331.1L236.297 293.087L179.46 260.15L113.853 298.162Z" fill="#EDDDDD"/>
<path d="M113.852 377.713L170.689 410.65L236.296 372.637L179.459 339.7L113.852 377.713Z" fill="#DEC9C5"/>
<path d="M236.296 294.55V372.511L169.704 410.65V332.688L236.296 294.55Z" fill="#C1AFAE"/>
<path d="M176.148 333.069L229.852 301V318.38L176.148 350.45V333.069Z" fill="white"/>
<path d="M176.148 353.861L229.852 322.5V368.574L176.148 399.9V353.861Z" fill="white"/>
<path d="M113.852 298.85V377.368L169.704 410.65V332.131L113.852 298.85Z" fill="#DBC7C6"/>
<path d="M193.333 327.807C193.333 327.337 193.616 326.794 193.97 326.577C194.112 326.505 194.253 326.505 194.359 326.541H194.395C194.395 326.541 194.43 326.541 194.43 326.577L197.649 328.567C198.816 329.255 200.691 329.363 201.682 328.784L214.664 321.115C214.911 320.97 215.053 320.825 215.053 320.68C215.053 320.536 214.911 320.21 214.31 319.848L210.95 317.859C210.808 317.786 210.737 317.605 210.737 317.352C210.737 316.882 211.02 316.339 211.374 316.122C211.516 316.014 211.657 316.05 211.799 316.086L215.265 318.148C216.326 318.799 216.963 319.704 216.963 320.644C216.963 321.476 216.468 322.272 215.619 322.779L202.637 330.448C201.929 330.883 200.974 331.1 199.984 331.1C198.852 331.1 197.649 330.81 196.694 330.268L193.581 328.35C193.44 328.242 193.333 328.061 193.333 327.807Z" fill="#422C2A"/>
<path d="M193.333 351.43C193.333 350.96 193.616 350.419 193.969 350.202C194.111 350.13 194.252 350.13 194.358 350.166H194.393C194.393 350.166 194.428 350.166 194.428 350.202L197.678 352.187C198.844 352.873 200.716 352.981 201.705 352.404L214.667 344.753C214.914 344.608 215.056 344.464 215.056 344.32C215.056 344.175 214.914 343.85 214.314 343.49L210.959 341.505C210.817 341.432 210.747 341.252 210.747 340.999C210.747 340.53 211.029 339.989 211.382 339.772C211.524 339.664 211.665 339.7 211.806 339.736L215.268 341.793C216.327 342.443 216.963 343.345 216.963 344.284C216.963 345.114 216.469 345.908 215.621 346.413L202.623 354.1C201.916 354.533 200.963 354.75 199.974 354.75C198.844 354.75 197.643 354.461 196.689 353.92L193.581 352.007C193.439 351.863 193.333 351.718 193.333 351.43Z" fill="#422C2A"/>
<path d="M120.238 377.503C119.837 376.622 119.436 375.742 119.265 374.759C119.093 373.912 119.179 372.998 118.95 372.151C118.892 371.914 118.635 371.88 118.52 372.083C117.632 373.811 118.491 376.724 119.465 378.181C119.837 378.756 120.496 378.079 120.238 377.503Z" fill="#AF9B9A"/>
<path d="M125.392 375.585C124.696 374.875 123.728 374.164 122.729 374.1C122.457 374.1 122.366 374.455 122.518 374.649C123.123 375.423 123.97 375.94 124.635 376.682C125.18 377.264 125.513 378.2 126.299 378.393C126.481 378.426 126.662 378.329 126.693 378.135C126.965 377.134 126.027 376.198 125.392 375.585Z" fill="#AF9B9A"/>
<path d="M128.317 311.753C127.294 311.88 126.636 312.765 125.758 313.356C124.735 314.03 123.601 314.452 122.614 315.211C122.395 315.379 122.358 315.927 122.687 316.012C124.552 316.307 128.244 314.915 128.866 312.639C128.976 312.217 128.683 311.711 128.317 311.753Z" fill="#AF9B9A"/>
<path d="M129.289 316.054C129.016 316.01 128.783 316.317 128.939 316.58C129.328 317.413 129.95 318.07 130.378 318.903C130.884 319.867 131.117 320.831 131.467 321.839C131.778 322.76 133.295 322.76 133.179 321.576C132.906 319.429 131.35 316.536 129.289 316.054Z" fill="#AF9B9A"/>
<path d="M120.277 310.233C120.418 309.668 119.768 309.35 119.513 309.845C118.381 312.071 117.844 314.969 118.325 317.585C118.495 318.539 119.739 318.327 119.711 317.337C119.569 314.792 119.626 312.637 120.277 310.233Z" fill="#AF9B9A"/>
<path d="M161.983 387.315C161.227 388.487 160.408 389.503 159.494 390.441C158.611 391.339 157.603 392.082 156.846 393.176C156.783 393.293 156.815 393.449 156.941 393.449C159.336 393.488 161.605 390.792 163.055 388.682C163.717 387.744 162.614 386.377 161.983 387.315Z" fill="#AF9B9A"/>
<path d="M161.588 395.61C161.295 395.55 161.044 395.76 161.128 395.941C161.504 396.783 162.299 397.475 162.843 398.227C163.344 398.918 163.512 399.58 164.557 399.881C164.767 399.941 165.101 399.851 165.227 399.7C166.147 398.347 163.344 396.061 161.588 395.61Z" fill="#AF9B9A"/>
</svg>
