<svg width="76" height="80" viewBox="0 0 76 80" fill="none" xmlns="http://www.w3.org/2000/svg">
<path d="M57.6267 4.74524C56.8848 4.74524 56.2837 5.36049 56.2837 6.11979C56.2837 6.87909 56.8848 7.49434 57.6267 7.49434H60.5271C61.269 7.49434 61.8701 6.87909 61.8701 6.11979C61.8701 5.36049 61.269 4.74524 60.5271 4.74524H57.6267Z" fill="#219653"/>
<path d="M27.4227 7.72956V7.04852C27.4227 3.16202 24.3334 0 20.536 0C16.7388 0 13.6494 3.16202 13.6494 7.04852V7.72516C11.1559 8.66151 8.84994 10.1085 6.86771 12.0119C6.32676 12.5313 6.29954 13.4011 6.80701 13.9548C7.31447 14.5085 8.16449 14.5363 8.70526 14.0169C11.9227 10.9279 16.1242 9.22654 20.536 9.22654C30.0732 9.22654 37.8324 17.1681 37.8324 26.9297V33.3222C37.8324 34.4398 36.9441 35.3491 35.8521 35.3491H35.747V26.2268C35.747 25.3346 35.0945 24.5695 34.2293 24.4469C30.7102 23.9493 28.0781 22.8306 26.1827 21.0266C25.5535 20.4275 24.6012 20.3789 23.9188 20.9097C19.754 24.1476 14.309 25.3365 7.27418 24.5447C6.7771 24.4892 6.27949 24.6525 5.90793 24.993C5.53727 25.333 5.32454 25.8203 5.32454 26.3296V35.3489H5.21943C4.1275 35.3489 3.23917 34.4397 3.23917 33.3221V26.9295C3.23917 23.812 4.04209 20.7466 5.56126 18.0647C5.93336 17.4081 5.71454 16.5668 5.07296 16.1862C4.43138 15.8057 3.60965 16.0291 3.23756 16.686C1.48131 19.7862 0.553223 23.3283 0.553223 26.9297V33.3222C0.553223 35.9557 2.64629 38.0982 5.21943 38.0982H5.37379C5.63307 41.5727 7.00953 44.7307 9.13805 47.1964L7.0072 48.2114C3.84924 49.7155 1.80881 52.991 1.80881 56.556V77.2868C1.80881 78.7829 2.99797 80 4.45967 80H7.61082C8.35268 80 8.9538 79.3848 8.9538 78.6254C8.9538 77.8661 8.35268 77.2509 7.61082 77.2509H4.49512V56.556C4.49512 54.0558 5.92602 51.7586 8.14085 50.7037L11.2517 49.222C12.419 50.1457 13.7199 50.8995 15.1204 51.4476L14.1969 55.3715C13.8743 56.7422 14.4467 58.158 15.6209 58.8948L18.8805 60.9403C19.9014 61.5808 21.1702 61.5808 22.1916 60.9403L25.4513 58.8948C26.6257 58.1578 27.1978 56.7419 26.875 55.3713L25.9516 51.4476C27.352 50.8995 28.6529 50.1457 29.8202 49.222L32.9313 50.7037C35.1459 51.7586 36.5768 54.0556 36.5768 56.556V77.2509H12.9804C12.2385 77.2509 11.6374 77.8661 11.6374 78.6254C11.6374 79.3848 12.2385 80 12.9804 80H36.6119C38.0736 80 39.2628 78.7829 39.2628 77.2868V56.556C39.2628 52.991 37.2222 49.7155 34.0646 48.2114L31.9335 47.1962C34.062 44.7305 35.4383 41.5725 35.6978 38.098H35.8521C38.4251 38.098 40.5184 35.9557 40.5184 33.3221V26.9295C40.5184 18.1281 35.058 10.6077 27.4227 7.72956ZM16.3382 6.93049C16.3996 4.61428 18.2583 2.7491 20.536 2.7491C22.8144 2.7491 24.6738 4.61556 24.7339 6.93287C23.3798 6.63542 21.9756 6.47725 20.536 6.47725C19.1112 6.47744 17.7055 6.63139 16.3382 6.93049ZM24.2639 56.0155C24.3129 56.2239 24.2259 56.4393 24.0474 56.5511L20.7877 58.5964C20.6325 58.6941 20.4395 58.6939 20.2842 58.5966L17.0247 56.5512C16.8462 56.4391 16.7592 56.2237 16.808 56.0154L17.7068 52.1968C18.6241 52.3743 19.569 52.471 20.536 52.471C21.5029 52.471 22.4478 52.3743 23.3652 52.1968L24.2639 56.0155ZM33.0611 36.9023C33.0611 43.971 27.4423 49.7219 20.536 49.7219C13.6297 49.7219 8.01085 43.971 8.01085 36.9023V27.3811C14.9494 27.9943 20.5012 26.74 24.9307 23.5572C27.0145 25.318 29.6877 26.4647 33.0611 27.0449V36.9023Z" fill="#7198CB"/>
<path d="M16.725 32.9773C16.725 32.218 16.1239 31.6028 15.382 31.6028C14.6402 31.6028 14.0391 32.218 14.0391 32.9773V33.1388C14.0391 33.8981 14.6402 34.5133 15.382 34.5133C16.1239 34.5133 16.725 33.8981 16.725 33.1388V32.9773Z" fill="#7198CB"/>
<path d="M25.6892 31.6028C24.9473 31.6028 24.3462 32.218 24.3462 32.9773V33.1388C24.3462 33.8981 24.9473 34.5133 25.6892 34.5133C26.431 34.5133 27.0321 33.8981 27.0321 33.1388V32.9773C27.0321 32.218 26.431 31.6028 25.6892 31.6028Z" fill="#7198CB"/>
<path d="M22.3742 39.5237C21.1199 40.2914 19.9522 40.2916 18.6982 39.5237C18.062 39.1341 17.2372 39.3463 16.8562 39.9977C16.4755 40.6492 16.6827 41.4932 17.3192 41.883C18.3716 42.5274 19.4537 42.8492 20.5361 42.8492C21.6184 42.8492 22.701 42.527 23.753 41.883C24.3897 41.4932 24.5969 40.6494 24.2162 39.9978C23.8354 39.3459 23.0101 39.1344 22.3742 39.5237Z" fill="#7198CB"/>
<path d="M31.932 68.9024C32.6739 68.9024 33.275 68.2872 33.275 67.5279C33.275 66.7686 32.6739 66.1533 31.932 66.1533H25.6892C24.9473 66.1533 24.3462 66.7686 24.3462 67.5279C24.3462 68.2872 24.9473 68.9024 25.6892 68.9024H31.932Z" fill="#7198CB"/>
<path d="M70.9992 18.7602L73.7307 4.01764C74.1087 1.97652 72.5788 0.0908203 70.5532 0.0908203H65.4692C64.7274 0.0908203 64.1262 0.706069 64.1262 1.46537C64.1262 2.22467 64.7274 2.83992 65.4692 2.83992H70.5532C70.8972 2.83992 71.1557 3.15937 71.0916 3.50539L68.6562 16.6505C65.9613 14.6532 62.6515 13.4736 59.0774 13.4736C55.5033 13.4736 52.1935 14.653 49.4986 16.6505L47.0631 3.50539C46.999 3.16029 47.2569 2.83992 47.6016 2.83992H60.1002C60.8421 2.83992 61.4432 2.22467 61.4432 1.46537C61.4432 0.706069 60.8421 0.0908203 60.1002 0.0908203H47.6016C45.5723 0.0908203 44.047 1.98055 44.4241 4.01764L47.1555 18.7602C44.3997 21.7598 42.7085 25.7951 42.7085 30.2278C42.7085 39.4659 50.0517 46.9817 59.0776 46.9817C68.1034 46.9817 75.4466 39.4659 75.4466 30.2278C75.4463 25.7951 73.755 21.7598 70.9992 18.7602ZM59.0772 44.2326C51.5322 44.2326 45.3941 37.9502 45.3941 30.2278C45.3941 22.5054 51.5322 16.2229 59.0772 16.2229C66.6222 16.2229 72.7603 22.5054 72.7603 30.2278C72.7603 37.9502 66.6222 44.2326 59.0772 44.2326Z" fill="#219653"/>
<path d="M66.4725 26.8688L62.8461 25.7199L60.6579 22.5451C60.6579 22.5451 60.6577 22.5451 60.6577 22.5449C59.8883 21.4286 58.2667 21.4282 57.4969 22.5451L55.3086 25.7201L51.6824 26.869C50.4073 27.2728 49.9055 28.8508 50.7056 29.946L52.9793 33.0569L52.9265 36.9419C52.9073 38.3163 54.2274 39.2814 55.4837 38.8436L59.0771 37.5916L62.6708 38.8436C63.9348 39.284 65.2462 38.3091 65.228 36.9421L65.175 33.0571L67.4487 29.946C68.2491 28.8519 67.7483 27.2731 66.4725 26.8688ZM62.8711 31.6204C62.617 31.9681 62.4802 32.3988 62.4862 32.8335L62.5279 35.8898L59.7014 34.905C59.299 34.7643 58.8555 34.7643 58.4542 34.9048L55.6271 35.8898L55.6687 32.8346C55.6749 32.4 55.5383 31.9686 55.2835 31.6198L53.4948 29.1726L56.3488 28.2683C56.7542 28.1395 57.1119 27.8732 57.3562 27.5186L59.0775 25.0209L60.7987 27.5182C61.0431 27.8734 61.4012 28.1398 61.8075 28.2687L64.6603 29.1724L62.8711 31.6204Z" fill="#219653"/>
</svg>
