<svg width="80" height="80" viewBox="0 0 80 80" fill="none" xmlns="http://www.w3.org/2000/svg">
<path d="M20.0175 19.8433H11.5541V13.0467H17.3843C18.2476 13.0467 18.9473 12.3471 18.9473 11.4842C18.9473 10.6212 18.2476 9.92167 17.3843 9.92167H11.5541V3.12498H20.0174C20.8806 3.12498 21.5804 2.42546 21.5804 1.56249C21.5804 0.699528 20.8806 0 20.0174 0H9.99126C9.128 0 8.42822 0.699528 8.42822 1.56249V21.4057C8.42822 22.2686 9.128 22.9682 9.99126 22.9682H20.0175C20.8808 22.9682 21.5806 22.2686 21.5806 21.4057C21.5806 20.5427 20.8808 19.8433 20.0175 19.8433Z" fill="#219653"/>
<path d="M60.0066 0.000244141C53.6721 0.000244141 48.5186 5.15194 48.5186 11.4843C48.5186 17.8166 53.6721 22.9683 60.0066 22.9683C66.3411 22.9683 71.4946 17.8166 71.4946 11.4843C71.4946 5.15194 66.3411 0.000244141 60.0066 0.000244141ZM60.0066 19.8434C55.3958 19.8434 51.6445 16.0936 51.6445 11.4843C51.6445 6.8749 55.3956 3.12507 60.0066 3.12507C64.6175 3.12507 68.3687 6.8749 68.3687 11.4843C68.3687 16.0936 64.6174 19.8434 60.0066 19.8434Z" fill="#219653"/>
<path d="M42.4276 17.3951C39.1674 20.6543 33.8621 20.6543 30.6019 17.3951C27.3416 14.136 27.3416 8.83276 30.6019 5.57356C33.8621 2.31435 39.1672 2.31435 42.4276 5.57356C43.038 6.18371 44.0277 6.18371 44.6382 5.57356C45.2486 4.9634 45.2486 3.97403 44.6382 3.36372C40.159 -1.11375 32.8708 -1.11375 28.3916 3.36372C23.9124 7.84136 23.9124 15.1271 28.3916 19.6046C30.6312 21.8435 33.573 22.9629 36.5149 22.9629C39.4569 22.9629 42.3987 21.8433 44.6383 19.6047C45.2487 18.9946 45.2487 18.0052 44.6383 17.3949C44.0278 16.7849 43.0381 16.7849 42.4276 17.3951Z" fill="#219653"/>
<path d="M78.8717 34.7569L78.8595 34.7143C78.7342 34.1958 78.3496 33.7702 77.8326 33.5988C77.6407 33.535 73.0561 32.0441 66.5102 32.5033C60.4843 32.9258 51.5766 35.1533 43.3604 43.3666C35.1443 51.58 32.9161 60.4843 32.4938 66.5079C32.0349 73.0516 33.5263 77.6341 33.5901 77.826C33.7455 78.2941 34.113 78.6613 34.5811 78.8166C34.7476 78.8719 38.2156 80 43.4019 80C44.1971 80 45.033 79.9735 45.9031 79.9125C51.9288 79.4902 60.8362 77.2628 69.0525 69.0497C83.59 54.517 79.7826 37.9336 78.8717 34.7569ZM62.8197 36.1319C64.0553 35.8935 65.3137 35.7254 66.595 35.6302C69.7611 35.3952 72.4431 35.6696 74.2695 35.9805C74.1915 36.0341 74.1168 36.0944 74.0475 36.1636L62.8197 47.3875V36.1319ZM59.6937 36.9035V50.5125L49.2168 60.9857V42.5169C49.2168 42.4658 49.214 42.4155 49.2091 42.3656C52.4513 39.8564 55.9547 38.0319 59.6937 36.9035ZM35.6121 66.7263C36.1723 58.7379 39.5228 51.622 45.5708 45.5762C45.7432 45.4041 45.9166 45.2345 46.0907 45.0666V64.0412C46.0907 64.0635 46.093 64.0851 46.094 64.1071L35.9633 74.2343C35.6593 72.4419 35.3945 69.8302 35.6121 66.7263ZM45.8183 76.7855C42.6717 77.0189 40.003 76.7492 38.1772 76.4405L43.0598 71.5596C43.0651 71.5596 43.0701 71.5604 43.0754 71.5604H61.0963C56.4685 74.6211 51.3541 76.3746 45.8183 76.7855ZM66.8421 66.8398C66.2872 67.3944 65.7229 67.9262 65.1501 68.4355H46.1851L55.257 59.3668H72.6259C71.1892 61.859 69.3032 64.3795 66.8421 66.8398ZM74.2112 56.2418H58.3829L76.2578 38.3732C76.3246 38.3064 76.3826 38.2346 76.4346 38.1599C77.083 41.9297 77.4925 48.783 74.2112 56.2418Z" fill="#7198CB"/>
<path d="M36.6393 43.3663C28.423 35.1531 19.5154 32.9256 13.4894 32.5031C6.94386 32.0442 2.359 33.535 2.16706 33.5986C1.65 33.7701 1.26549 34.1958 1.14014 34.7142L1.12795 34.7568C0.217007 37.9337 -3.5904 54.5171 10.9473 69.0497C15.5595 73.6603 20.8421 76.8651 26.648 78.5748C26.7954 78.6182 26.9442 78.6388 27.0905 78.6388C27.7657 78.6388 28.3886 78.1979 28.5891 77.5176C28.8331 76.6898 28.3595 75.821 27.5316 75.5773C22.2326 74.0167 17.3965 71.077 13.1579 66.84C9.46332 63.1467 7.0614 59.3181 5.53666 55.6527H21.0273L28.5715 63.1942C28.8767 63.4994 29.2767 63.6519 29.6767 63.6519C30.0767 63.6519 30.4768 63.4994 30.7819 63.1942C31.3923 62.5841 31.3923 61.5947 30.7819 60.9844L29.0587 59.262V41.1054C30.9309 42.3798 32.7224 43.8707 34.4287 45.5762C35.039 46.1863 36.0287 46.1863 36.6393 45.5762C37.2498 44.966 37.2496 43.9767 36.6393 43.3663ZM13.2707 35.6206C13.9552 35.6686 14.6329 35.7386 15.3044 35.8275V45.5126L5.86271 36.0742C5.82676 36.0382 5.78909 36.0047 5.75064 35.9729C7.54407 35.6684 10.1608 35.4023 13.2707 35.6206ZM4.42674 52.5279V52.5277C2.65785 46.5712 3.02438 41.3189 3.56097 38.1831C3.58989 38.2175 3.61974 38.2515 3.6521 38.284L17.9009 52.528H4.42674V52.5279ZM25.9328 56.1372L18.4303 48.6374V36.3981C21.0422 37.0123 23.5455 37.9539 25.9328 39.2187V56.1372Z" fill="#7198CB"/>
<path d="M29.5082 70.2501C26.4878 69.3606 23.6202 67.9348 20.9851 66.0126C20.2877 65.5039 19.31 65.6567 18.8011 66.3537C18.2921 67.0507 18.445 68.0282 19.1423 68.537C22.0683 70.6717 25.2586 72.2565 28.6246 73.2478C28.772 73.2912 28.9208 73.3118 29.0671 73.3118C29.7423 73.3118 30.3652 72.8709 30.5657 72.1906C30.8097 71.3626 30.3363 70.4939 29.5082 70.2501Z" fill="#7198CB"/>
<path d="M17.2244 62.7845L17.2189 62.779C16.6087 62.1692 15.6223 62.1718 15.0119 62.7818C14.4017 63.392 14.4045 64.3842 15.0147 64.9943C15.3198 65.2995 15.7197 65.452 16.1195 65.452C16.5194 65.452 16.9194 65.2995 17.2244 64.9943C17.8345 64.3842 17.8345 63.3948 17.2244 62.7845Z" fill="#7198CB"/>
<path d="M40.0102 26.6185C39.1473 26.6185 38.4478 27.3181 38.4478 28.181V32.5996C38.4478 33.4626 39.1473 34.1621 40.0102 34.1621C40.8732 34.1621 41.5727 33.4626 41.5727 32.5996V28.181C41.5726 27.3181 40.8731 26.6185 40.0102 26.6185Z" fill="#7198CB"/>
<path d="M49.1318 30.9231C48.5213 30.3128 47.5317 30.313 46.9214 30.9231L43.7342 34.1091C43.1238 34.7192 43.1237 35.7086 43.7342 36.3187C44.0395 36.6239 44.4394 36.7764 44.8394 36.7764C45.2394 36.7764 45.6395 36.6237 45.9446 36.3187L49.1317 33.1328C49.7422 32.5225 49.7423 31.5331 49.1318 30.9231Z" fill="#7198CB"/>
<path d="M36.2708 34.0628L33.0784 30.8714C32.4679 30.2611 31.4784 30.2614 30.868 30.8714C30.2576 31.4816 30.2575 32.471 30.868 33.0811L34.0603 36.2725C34.3656 36.5777 34.7656 36.7302 35.1656 36.7302C35.5656 36.7302 35.9657 36.5775 36.2708 36.2725C36.8812 35.6624 36.8813 34.673 36.2708 34.0628Z" fill="#7198CB"/>
</svg>
