<svg width="80" height="80" viewBox="0 0 80 80" fill="none" xmlns="http://www.w3.org/2000/svg">
<path d="M52.4131 6.94312C53.0604 6.94312 53.585 6.41859 53.585 5.77125V1.17187C53.585 0.524531 53.0604 0 52.4131 0C51.7657 0 51.2412 0.524531 51.2412 1.17187V5.77125C51.2412 6.41843 51.7659 6.94312 52.4131 6.94312Z" fill="#219653"/>
<path d="M41.4152 8.3788C41.6468 8.64646 41.9733 8.78364 42.3016 8.78364C42.5735 8.78364 42.8465 8.68958 43.0682 8.49771C43.5576 8.07411 43.6108 7.33412 43.1871 6.84474L40.2024 3.3974C39.7788 2.90787 39.0387 2.85474 38.5494 3.27849C38.0601 3.70209 38.0068 4.44209 38.4305 4.93146L41.4152 8.3788Z" fill="#219653"/>
<path d="M61.7589 8.49765C61.9806 8.68969 62.2536 8.78359 62.5255 8.78359C62.8538 8.78359 63.1802 8.64641 63.4119 8.37875L66.3966 4.93141C66.8203 4.44203 66.767 3.70203 66.2777 3.27844C65.7883 2.85469 65.0481 2.90797 64.6247 3.39735L61.64 6.84469C61.2163 7.33406 61.2695 8.07406 61.7589 8.49765Z" fill="#219653"/>
<path d="M49.9849 43.6367C50.6655 44.2913 51.5392 44.6184 52.4128 44.6184C53.2864 44.6184 54.1602 44.2913 54.8408 43.6367L72.8674 26.3052C74.1428 25.0789 74.3027 23.0878 73.2389 21.6738L70.8194 18.4575C70.4305 17.9403 69.6956 17.8364 69.1784 18.2256C68.6611 18.6147 68.5574 19.3494 68.9466 19.8666L71.0242 22.6286H61.7224L59.2513 14.4714H64.3092C64.6716 14.4714 65.0178 14.6442 65.2358 14.9338L66.13 16.1222C66.5191 16.6394 67.2538 16.7433 67.771 16.3541C68.2883 15.965 68.392 15.2303 68.0028 14.7132L67.1086 13.5247C66.4505 12.6499 65.4039 12.1277 64.3092 12.1277H40.5167C39.4219 12.1277 38.3753 12.65 37.7172 13.5247L31.5871 21.6738C30.5233 23.0877 30.683 25.0786 31.9585 26.3052L49.9849 43.6367ZM43.0396 24.9724L49.7503 40.16L33.9536 24.9724H43.0396ZM70.872 24.9724L55.076 40.1594L61.7866 24.9722H70.872V24.9724ZM52.413 40.3869L45.6019 24.9724H59.2241L52.413 40.3869ZM56.8024 14.4714L59.2733 22.6286H45.5527L48.0235 14.4714H56.8024ZM39.59 14.9338C39.808 14.6442 40.1542 14.4714 40.5167 14.4714H45.5747L43.1038 22.6286H33.8014L39.59 14.9338Z" fill="#219653"/>
<path d="M71.5715 58.1584L64.3942 62.5244C57.4041 66.7764 48.9564 67.6915 41.218 65.0351C40.0838 64.6459 39.3063 63.7047 39.1379 62.5177C38.9696 61.3305 39.4546 60.21 40.4358 59.5206L47.9002 54.2752C49.8438 52.9094 50.3345 50.2908 49.0171 48.3143C48.0175 46.8138 46.2344 46.0939 44.4727 46.4804L25.296 50.6875V50.4453C25.296 48.7696 23.9327 47.4064 22.2571 47.4064H12.6479C12.0006 47.4064 11.4761 47.931 11.4761 48.5783C11.4761 49.2257 12.0006 49.7502 12.6479 49.7502H22.257C22.6403 49.7502 22.9521 50.0621 22.9521 50.4453V76.9612C22.9521 77.3445 22.6403 77.6562 22.257 77.6562H2.39562C2.36702 77.6562 2.34374 77.6331 2.34374 77.6045V49.8019C2.34374 49.7733 2.36702 49.7502 2.39562 49.7502H7.96263C8.60998 49.7502 9.13451 49.2257 9.13451 48.5783C9.13451 47.931 8.60998 47.4064 7.96263 47.4064H2.39562C1.07468 47.4064 0 48.4811 0 49.8019V77.6046C0 78.9253 1.07468 79.9999 2.39562 79.9999H22.257C23.9327 79.9999 25.2959 78.6367 25.2959 76.9612V76.3654L25.9823 76.5634C31.1616 78.0578 36.4685 78.8084 41.8261 78.8082C43.8344 78.8082 45.8508 78.7028 47.8688 78.4914C55.3331 77.7096 62.4595 75.5173 69.05 71.9754C69.62 71.669 69.8339 70.9584 69.5275 70.3884C69.2212 69.8184 68.5106 69.604 67.9404 69.9109C61.6198 73.3079 54.7847 75.4104 47.6247 76.1604C40.5246 76.9037 33.4613 76.2818 26.632 74.3115L25.2959 73.9261V53.087L44.9749 48.7697C45.7861 48.5914 46.6063 48.923 47.0666 49.6138C47.673 50.5236 47.4472 51.7288 46.5524 52.3575L39.088 57.603C37.3971 58.7913 36.5269 60.8008 36.8174 62.847C37.1079 64.8933 38.5024 66.5811 40.4571 67.252C48.8563 70.1351 58.025 69.1422 65.6122 64.5267L72.7896 60.1608C74.8473 58.9088 77.7156 60.2727 77.6553 62.3086C77.6368 62.9362 77.3481 63.525 76.8634 63.9242C75.3106 65.2025 73.6715 66.4075 71.9917 67.5058C71.45 67.86 71.2981 68.5862 71.6521 69.1279C72.0067 69.6698 72.7329 69.8215 73.2743 69.4675C75.0256 68.3225 76.7343 67.0662 78.3529 65.7337C79.3598 64.9048 79.9595 63.6817 79.9979 62.378C80.1174 58.34 75.0874 56.0192 71.5715 58.1584Z" fill="#7198CB"/>
<path d="M17.0039 69.5739V67.0322C17.0039 66.3849 16.4794 65.8604 15.832 65.8604C15.1847 65.8604 14.6602 66.3849 14.6602 67.0322V69.5739C14.6602 70.2213 15.1847 70.7458 15.832 70.7458C16.4794 70.7458 17.0039 70.2211 17.0039 69.5739Z" fill="#7198CB"/>
</svg>
