<svg width="80" height="76" viewBox="0 0 80 76" fill="none" xmlns="http://www.w3.org/2000/svg">
<path d="M76.2889 46.5498C76.855 45.7359 77.1881 44.7482 77.1881 43.6839V42.5134C77.1881 39.7385 74.9306 37.481 72.1558 37.481H71.1698C70.5225 37.481 69.998 38.0056 69.998 38.6529C69.998 39.3003 70.5225 39.8248 71.1698 39.8248H72.1558C73.6383 39.8248 74.8444 41.0309 74.8444 42.5134V43.6839C74.8444 45.1664 73.6383 46.3726 72.1558 46.3726H59.875C58.3925 46.3726 57.1862 45.1664 57.1862 43.6839V42.5134C57.1862 41.0309 58.3925 39.8248 59.875 39.8248H66.4844C67.1317 39.8248 67.6562 39.3003 67.6562 38.6529C67.6562 38.0056 67.1317 37.481 66.4844 37.481H59.875C58.7373 37.481 57.687 37.8609 56.8433 38.4999H50.0822C49.7861 38.4999 49.5156 38.3773 49.3205 38.1545C49.1253 37.9318 49.0394 37.6474 49.0783 37.354L50.447 27.0435C50.4483 27.034 50.4495 27.0248 50.4503 27.0153C50.6495 25.174 50.0542 23.3274 48.8172 21.9493C47.58 20.5714 45.8084 19.7809 43.9566 19.7809H42.7594C41.2733 19.7809 40.0316 20.892 39.8662 22.3676L38.3814 34.1026C38.1134 36.2201 36.5416 37.8976 34.537 38.3676C34.3288 36.7115 32.9127 35.426 31.2011 35.426H3.68469C1.65297 35.426 0 37.079 0 39.1107V69.5924C0 71.6242 1.65297 73.2771 3.68469 73.2771H6.75078C7.39813 73.2771 7.92266 72.7526 7.92266 72.1053C7.92266 71.4579 7.39813 70.9334 6.75078 70.9334H3.68469C2.94531 70.9334 2.34375 70.3318 2.34375 69.5924V39.1107C2.34375 38.3714 2.94531 37.7698 3.68469 37.7698H31.2011C31.7633 37.7698 32.2206 38.2273 32.2206 38.7893V69.9137C32.2206 70.4759 31.7631 70.9332 31.2011 70.9332H11.4363C10.7889 70.9332 10.2644 71.4578 10.2644 72.1051C10.2644 72.7524 10.7889 73.277 11.4363 73.277H31.2011C32.6556 73.277 33.8972 72.3487 34.3652 71.0535C36.8944 73.1857 40.0995 74.3724 43.4784 74.3724H54.2553C55.0991 75.0114 56.1494 75.3914 57.287 75.3914H67.9164C70.6914 75.3914 72.9489 73.1339 72.9489 70.3589V69.1884C72.9489 68.1999 72.6612 67.2779 72.167 66.4995C74.9367 66.4931 77.188 64.2384 77.188 61.4673V60.2968C77.188 59.2324 76.8548 58.2448 76.2887 57.4309C78.4247 56.8489 80 54.8932 80 52.5756V51.4051C80 49.0875 78.4247 47.1318 76.2889 46.5498ZM34.5645 67.9707V40.7498C37.7419 40.2376 40.2914 37.6771 40.7067 34.3967L42.1928 22.652C42.1937 22.6449 42.1945 22.6379 42.1953 22.6309C42.2266 22.3421 42.4692 22.1245 42.7595 22.1245H43.9567C45.1442 22.1245 46.28 22.6312 47.0731 23.5148C47.8636 24.3953 48.2453 25.5735 48.1219 26.7498L46.7552 37.0453C46.628 38.0042 46.9205 38.9712 47.5578 39.6987C48.195 40.4262 49.1153 40.8434 50.0823 40.8434H55.1286C54.7962 41.661 54.8363 42.7962 54.8427 43.6837C54.8427 46.0014 56.418 47.957 58.5536 48.5389C57.9875 49.3528 57.6544 50.3404 57.6544 51.4049V52.5754C57.6544 53.6398 57.9875 54.6274 58.5536 55.4415C56.4178 56.0235 54.8427 57.979 54.8427 60.2967V61.4671C54.8427 62.5551 55.1908 63.5628 55.78 64.3868C53.7391 65.0287 52.2547 66.9384 52.2547 69.1882C52.2486 70.0782 52.2081 71.2085 52.5406 72.0287H43.4786C40.0375 72.0289 36.8119 70.5551 34.5645 67.9707ZM70.6053 70.3589C70.6053 71.8414 69.3991 73.0476 67.9166 73.0476H57.2872C55.8047 73.0476 54.5984 71.8414 54.5984 70.3589V69.1884C54.5984 67.7059 55.8047 66.4998 57.2872 66.4998H67.9166C69.3991 66.4998 70.6053 67.7059 70.6053 69.1884V70.3589ZM74.8444 61.4673C74.8444 62.9498 73.6381 64.156 72.1556 64.156H59.875C58.3925 64.156 57.1862 62.9498 57.1862 61.4673V60.2968C57.1862 58.8143 58.3925 57.6081 59.875 57.6081H72.1556C73.6381 57.6081 74.8444 58.8143 74.8444 60.2968V61.4673ZM77.6562 52.5756C77.6562 54.0581 76.45 55.2643 74.9675 55.2643H62.6867C61.2042 55.2643 59.998 54.0581 59.998 52.5756V51.4051C59.998 49.9226 61.2042 48.7164 62.6867 48.7164H74.9675C76.45 48.7164 77.6562 49.9226 77.6562 51.4051V52.5756Z" fill="#7198CB"/>
<path d="M23.7011 45.9296C24.3484 45.9296 24.873 45.405 24.873 44.7577C24.873 44.1103 24.3484 43.5858 23.7011 43.5858H19.8281C19.1808 43.5858 18.6562 44.1103 18.6562 44.7577C18.6562 45.405 19.1808 45.9296 19.8281 45.9296H23.7011Z" fill="#7198CB"/>
<path d="M2.7873 19.25L2.50386 22.7613C2.45699 23.3424 2.71043 23.8938 3.1823 24.2364C3.65308 24.5785 4.25543 24.6503 4.79464 24.4255L8.04636 23.071L11.2978 24.4255C11.8357 24.6496 12.4387 24.5791 12.9103 24.2364C13.3821 23.8938 13.6356 23.3422 13.5887 22.7611L13.3051 19.2502L15.5984 16.5766C15.9779 16.1339 16.0968 15.5386 15.9167 14.9842C15.7365 14.4299 15.2903 14.0183 14.7232 13.8836L11.2964 13.0683L9.46199 10.061C9.15855 9.5633 8.62933 9.26627 8.04636 9.26611C8.04636 9.26611 8.04621 9.26611 8.04605 9.26611C7.46324 9.26611 6.93402 9.56314 6.63011 10.061L4.79605 13.0681L1.36933 13.8833C0.802145 14.0181 0.356051 14.4297 0.175739 14.9841C-0.00441741 15.5386 0.114489 16.1338 0.49402 16.5764L2.7873 19.25ZM5.61668 15.2821C6.04324 15.1805 6.41918 14.9075 6.64839 14.5324L8.04605 12.2406L9.44449 14.5331C9.67308 14.9075 10.0489 15.1805 10.4761 15.2821L13.0876 15.9035L11.3398 17.9413C11.0542 18.2744 10.9106 18.7163 10.9457 19.1544L11.162 21.83L8.68402 20.7978C8.27871 20.6288 7.81386 20.6289 7.40855 20.7978L4.93058 21.83L5.14668 19.1552C5.1823 18.7172 5.03886 18.2749 4.75277 17.9411L3.00496 15.9035L5.61668 15.2821Z" fill="#219653"/>
<path d="M20.1224 16.0119L19.6075 22.3842C19.5506 23.0873 19.8575 23.7547 20.4281 24.1694C20.7786 24.4241 21.1889 24.5545 21.6041 24.5545C21.8652 24.5545 22.1281 24.503 22.3794 24.3983L28.2811 21.9395L34.1828 24.3983C34.8338 24.6692 35.5633 24.5842 36.1341 24.1694C36.7047 23.7548 37.0116 23.0873 36.9547 22.3844L36.4399 16.0119L40.6022 11.1584C41.0613 10.623 41.2053 9.90281 40.9875 9.23203C40.7694 8.56125 40.2297 8.06344 39.5436 7.90016L33.3236 6.42031L33.2584 6.31344C32.9216 5.76094 32.2005 5.58641 31.6477 5.92344C31.0952 6.26047 30.9206 6.98156 31.2577 7.53422L31.3958 7.76047C31.6725 8.21422 32.1278 8.545 32.6444 8.66781L38.4633 10.0522L34.5697 14.5922C34.2238 14.9953 34.0497 15.5305 34.0924 16.0603L34.5739 22.0222L29.0528 19.7219C28.562 19.5173 27.9999 19.5173 27.5091 19.7219L21.988 22.0222L22.4695 16.06C22.5122 15.5303 22.3381 14.9953 21.9925 14.5923L18.0984 10.052L23.917 8.66781C24.4342 8.545 24.8895 8.21422 25.1661 7.76047L28.2808 2.65406L28.8159 3.53141C29.153 4.08422 29.8747 4.25828 30.4267 3.92172C30.9792 3.58469 31.1539 2.86359 30.817 2.31094L29.9941 0.961719C29.6267 0.359531 28.9864 0 28.2808 0C27.5753 0 26.935 0.359531 26.5678 0.961719L23.2383 6.42L17.0183 7.89984C16.3322 8.06312 15.7924 8.56094 15.5744 9.23156C15.3564 9.90234 15.5003 10.6225 15.9595 11.1583L20.1224 16.0119Z" fill="#219653"/>
</svg>
