<svg width="30" height="30" viewBox="0 0 30 30" fill="none" xmlns="http://www.w3.org/2000/svg">
<circle cx="15" cy="15" r="15" fill="#2F89CE"/>
<path d="M7.01205 15.2823L10.4606 16.5682L11.805 20.8935C11.8634 21.1857 12.2141 21.2442 12.4479 21.0688L14.3768 19.4907C14.5521 19.3153 14.8444 19.3153 15.0782 19.4907L18.5267 22.004C18.7605 22.1794 19.1112 22.0625 19.1697 21.7702L21.7415 9.4957C21.8 9.20345 21.5077 8.9112 21.2155 9.0281L7.01205 14.5224C6.66135 14.6393 6.66135 15.1654 7.01205 15.2823ZM11.6296 15.9252L18.4098 11.7753C18.5267 11.7168 18.6436 11.8922 18.5267 11.9506L12.974 17.1527C12.7986 17.328 12.6233 17.5618 12.6233 17.8541L12.4479 19.2569C12.4479 19.4322 12.1557 19.4907 12.0972 19.2569L11.3958 16.6851C11.2205 16.3928 11.3374 16.0421 11.6296 15.9252Z" fill="white"/>
</svg>
