<svg width="30" height="30" viewBox="0 0 30 30" fill="none" xmlns="http://www.w3.org/2000/svg">
<circle cx="15" cy="15" r="15" fill="#48C95F"/>
<path d="M20.9451 9.04614C19.4634 7.56958 17.4878 6.74927 15.4024 6.74927C11.0671 6.74927 7.55488 10.2493 7.55488 14.5696C7.55488 15.9368 7.93902 17.304 8.59756 18.4524L7.5 22.4993L11.6707 21.4055C12.8232 22.0071 14.0854 22.3352 15.4024 22.3352C19.7378 22.3352 23.25 18.8352 23.25 14.5149C23.1951 12.4915 22.4268 10.5227 20.9451 9.04614ZM19.189 17.3586C19.0244 17.7961 18.2561 18.2336 17.872 18.2883C17.5427 18.343 17.1037 18.343 16.6646 18.2336C16.3902 18.1243 16.0061 18.0149 15.5671 17.7961C13.5915 16.9758 12.3293 15.0071 12.2195 14.843C12.1098 14.7336 11.3963 13.804 11.3963 12.8196C11.3963 11.8352 11.8902 11.3977 12.0549 11.179C12.2195 10.9602 12.439 10.9602 12.6037 10.9602C12.7134 10.9602 12.878 10.9602 12.9878 10.9602C13.0976 10.9602 13.2622 10.9055 13.4268 11.2883C13.5915 11.6711 13.9756 12.6555 14.0305 12.7102C14.0854 12.8196 14.0854 12.929 14.0305 13.0383C13.9756 13.1477 13.9207 13.2571 13.811 13.3665C13.7012 13.4758 13.5915 13.6399 13.5366 13.6946C13.4268 13.804 13.3171 13.9133 13.4268 14.0774C13.5366 14.2961 13.9207 14.8977 14.5244 15.4446C15.2927 16.1008 15.8963 16.3196 16.1159 16.429C16.3354 16.5383 16.4451 16.4836 16.5549 16.3743C16.6646 16.2649 17.0488 15.8274 17.1585 15.6086C17.2683 15.3899 17.4329 15.4446 17.5976 15.4993C17.7622 15.554 18.75 16.0461 18.9146 16.1555C19.1341 16.2649 19.2439 16.3196 19.2988 16.3743C19.3537 16.5383 19.3537 16.9211 19.189 17.3586Z" fill="white"/>
</svg>
