<svg xmlns="http://www.w3.org/2000/svg" xmlns:xlink="http://www.w3.org/1999/xlink" width="16" height="20" viewBox="0 0 16 20"><defs><path id="1gnma" d="M568 1422.167c0 .267-.116.519-.311.676a.699.699 0 0 1-.676.114 5.799 5.799 0 0 0-4.026 0 .694.694 0 0 1-.676-.115.865.865 0 0 1-.311-.675v-2.5c0-.92.673-1.667 1.5-1.667h3c.827 0 1.5.748 1.5 1.667v2.5zm-5.487-12.45l1.19-.47a3.53 3.53 0 0 1 2.594 0l1.19.47c.372.147.586.608.49 1.058l-.75 3.552a.871.871 0 0 1-.414.592.653.653 0 0 1-.648-.013 2.253 2.253 0 0 0-2.33 0 .647.647 0 0 1-.648.013.871.871 0 0 1-.414-.592l-.75-3.552c-.096-.45.118-.91.49-1.058zM570 1417v-3l1.758 1.752a.681.681 0 0 0 .515.244.681.681 0 0 0 .514-.244.921.921 0 0 0 0-1.179l-2.696-3.09v-.292a9.846 9.846 0 0 0-.804-3.904.775.775 0 0 0-.38-.4l-.083-.039c-2.466-1.131-5.183-1.13-7.649 0l-.082.038a.775.775 0 0 0-.38.401 9.846 9.846 0 0 0-.804 3.904v.292l-2.696 3.09a.921.921 0 0 0 0 1.18.681.681 0 0 0 .514.243.681.681 0 0 0 .515-.244L560 1414v3l-2.787 3.409a.921.921 0 0 0 0 1.179.681.681 0 0 0 .514.244.681.681 0 0 0 .515-.244L560 1420v4.333c0 .92.562 1.667 1.364 1.667h7.272c.802 0 1.364-.748 1.364-1.667V1420l1.758 1.588a.681.681 0 0 0 .515.244.681.681 0 0 0 .514-.244.921.921 0 0 0 0-1.18z"/></defs><g><g transform="translate(-557 -1406)"><use fill="#53627c" xlink:href="#1gnma"/></g></g></svg>