<svg xmlns="http://www.w3.org/2000/svg" xmlns:xlink="http://www.w3.org/1999/xlink" width="20" height="19" viewBox="0 0 20 19"><defs><path id="xuh2a" d="M570.34 1654.86c1.31 1.31 2.92 2.76 2.61 4.8-.29 1.01-1.02 2.03-2.33 2.32-.73.14-3.06-.44-5.54-.44h-.18c-2.48 0-4.81.59-5.54.44-1.31-.29-2.04-1.3-2.33-2.32-.3-2.03 1.31-3.48 2.62-4.79.88-1.02 1.61-1.89 2.48-2.91.47-.54 1.05-1.08 1.75-1.32.11-.04.22-.07.33-.09.26-.05.53-.05.79-.05s.53 0 .78.04c.11.02.22.05.33.09.7.24 1.29.78 1.75 1.32.88 1.02 1.61 1.89 2.48 2.91zm-.34-5.36a2.5 2.5 0 1 1 5 0 2.5 2.5 0 0 1-5 0zm-4.5-4a2.5 2.5 0 1 1 5 0 2.5 2.5 0 0 1-5 0zm-10.5 4a2.5 2.5 0 1 1 5 0 2.5 2.5 0 0 1-5 0zm4.5-4a2.5 2.5 0 1 1 5 0 2.5 2.5 0 0 1-5 0z"/></defs><g><g transform="translate(-555 -1643)"><use fill="#53627c" xlink:href="#xuh2a"/></g></g></svg>