<svg xmlns="http://www.w3.org/2000/svg" xmlns:xlink="http://www.w3.org/1999/xlink" width="19" height="19" viewBox="0 0 19 19"><defs><path id="mai5a" d="M406.825 922.608l-8.433-8.433a.596.596 0 0 0-.844 0l-3.373 3.373a.596.596 0 0 0 0 .844l1.687 1.686a.596.596 0 0 0 .421.175h1.44l.247.247-2.141 2.141c.569.2 1.106.515 1.56.97.455.454.77.991.97 1.56l2.141-2.141.247.247v1.44c0 .158.063.31.175.421l1.686 1.687c.233.233.61.233.844 0l3.373-3.373a.596.596 0 0 0 0-.844z"/><path id="mai5b" d="M395.269 925.731a2.504 2.504 0 0 0-3.538 0 2.504 2.504 0 0 0 0 3.538 2.504 2.504 0 0 0 3.538 0 2.504 2.504 0 0 0 0-3.538z"/><path id="mai5c" d="M410.684 917.184l-6.868-6.868a1.08 1.08 0 0 0-1.527 0l-.381.382a.54.54 0 0 0 0 .763l.381.381-.763.763-.381-.381a.54.54 0 1 0-.763.763l.381.382-.763.763 6.868 6.868.763-.763.382.381a.54.54 0 1 0 .763-.763l-.381-.381.763-.763.381.381c.21.21.553.21.763 0l.382-.381a1.08 1.08 0 0 0 0-1.527z"/></defs><g><g transform="translate(-391 -911)"><g><use fill="#53627c" xlink:href="#mai5a"/></g><g><use fill="#53627c" xlink:href="#mai5b"/></g><g><use fill="#53627c" xlink:href="#mai5c"/></g></g></g></svg>