<svg xmlns="http://www.w3.org/2000/svg" xmlns:xlink="http://www.w3.org/1999/xlink" width="15" height="22" viewBox="0 0 15 22"><defs><path id="rme6a" d="M239 1591v4h1v2h-3v-8h2l-3-4-3 4h2v8h-3v-2.07c.7-.37 1.2-1.08 1.2-1.93 0-1.21-.99-2.2-2.2-2.2-1.21 0-2.2.99-2.2 2.2 0 .85.5 1.56 1.2 1.93v2.07c0 1.11.89 2 2 2h3v3.05c-.71.37-1.2 1.1-1.2 1.95a2.2 2.2 0 0 0 4.4 0c0-.85-.49-1.58-1.2-1.95V1599h3c1.11 0 2-.89 2-2v-2h1v-4h-4z"/></defs><g><g transform="translate(-228 -1585)"><use fill="#53627c" xlink:href="#rme6a"/></g></g></svg>