<svg xmlns="http://www.w3.org/2000/svg" xmlns:xlink="http://www.w3.org/1999/xlink" width="18" height="18" viewBox="0 0 18 18"><defs><path id="pt9qa" d="M395 1336c0-.55.45-1 1-1s1 .45 1 1-.45 1-1 1-1-.45-1-1zm12 0c0 .55-.45 1-1 1s-1-.45-1-1 .45-1 1-1 1 .45 1 1zm-7-9h1a9 9 0 1 1-9 9c0-2.95 1.42-5.55 3.61-7.19v-.02l6.8 6.8L401 1337l-5.42-5.42A6.917 6.917 0 0 0 394 1336c0 3.87 3.13 7 7 7s7-3.13 7-7c0-3.53-2.61-6.43-6-6.92v1.92h-2zm0 14c0-.55.45-1 1-1s1 .45 1 1-.45 1-1 1-1-.45-1-1z"/></defs><g><g transform="translate(-392 -1327)"><use fill="#53627c" xlink:href="#pt9qa"/></g></g></svg>