<svg xmlns="http://www.w3.org/2000/svg" xmlns:xlink="http://www.w3.org/1999/xlink" width="18" height="16" viewBox="-2 -10 1 18"><defs><path id="u5gba" d="M67.5 1409.5h11l1.5 4.5H66zm9.5 8c0-.83.67-1.5 1.5-1.5s1.5.67 1.5 1.5-.67 1.5-1.5 1.5-1.5-.67-1.5-1.5zm-11 0c0-.83.67-1.5 1.5-1.5s1.5.67 1.5 1.5-.67 1.5-1.5 1.5-1.5-.67-1.5-1.5zm12.5-9.5h-11c-.66 0-1.21.42-1.42 1.01L64 1415v8c0 .55.45 1 1 1h1c.55 0 1-.45 1-1v-1h12v1c0 .55.45 1 1 1h1c.55 0 1-.45 1-1v-8l-2.08-5.99c-.2-.59-.76-1.01-1.42-1.01z"/></defs><g><g transform="translate(-75 -1417)"><use fill="#53627c" xlink:href="#u5gba"/></g></g></svg>