<svg xmlns="http://www.w3.org/2000/svg" xmlns:xlink="http://www.w3.org/1999/xlink" width="20" height="19" viewBox="0 0 20 19"><defs><path id="n31ca" d="M405.23 1419l5.77 4.5-1.5 1.5-3.82-3h-6.85c-1.44 0-2.67-1.02-2.95-2.44l-1.35-5.92c-.21-1.22.61-2.39 1.84-2.61h.02c.33-.06.67-.03.99.06.27.08.53.2.76.38l1.64 1.27c1.25.98 3.06 1.56 4.69 1.25v2.13c-1.87.32-3.57-.33-5.15-1.22l1.03 4.1zm-.23 4v2h-7.06a5.01 5.01 0 0 1-4.95-4.24L391 1411h2l1.97 9.46a2.991 2.991 0 0 0 2.96 2.54zm-11.14-16.15c.63-.9 1.88-1.12 2.79-.49.9.64 1.12 1.88.49 2.79-.64.9-1.88 1.12-2.79.49-.9-.64-1.12-1.88-.49-2.79z"/></defs><g><g transform="translate(-391 -1406)"><use fill="#53627c" xlink:href="#n31ca"/></g></g></svg>