<svg xmlns="http://www.w3.org/2000/svg" xmlns:xlink="http://www.w3.org/1999/xlink" width="14" height="14" viewBox="0 0 14 14"><defs><path id="522ba" d="M73.642 1649.86l-.07-.07c-.57-.62-.82-1.41-.67-2.2l.09-.59h-1.887l-.06.43c-.2 1.36.27 2.71 1.298 3.72l.07.06c.57.62.82 1.41.67 2.2l-.11.59h1.907l.06-.43c.21-1.36-.27-2.71-1.298-3.71zm4.005 0l-.07-.07c-.57-.62-.819-1.41-.67-2.2l.09-.59H75.11l-.06.43c-.2 1.36.27 2.71 1.298 3.72l.07.06c.57.62.82 1.41.67 2.2l-.11.59h1.907l.06-.43c.21-1.36-.27-2.71-1.298-3.71z"/><path id="522bb" d="M79 1656h-7.07c-1.48 0-2.74-1.08-2.96-2.54L67 1644h-2l1.99 9.76a5.01 5.01 0 0 0 4.95 4.24H79v-2z"/></defs><g><g transform="translate(-65 -1644)"><use fill="#53627c" xlink:href="#522ba"/></g><g transform="translate(-65 -1644)"><use fill="#53627c" xlink:href="#522bb"/></g></g></svg>