<svg xmlns="http://www.w3.org/2000/svg" xmlns:xlink="http://www.w3.org/1999/xlink" width="17" height="18" viewBox="0 0 17 18"><defs><path id="zitka" d="M78 917c0-.55.45-1 1-1s1 .45 1 1-.45 1-1 1-1-.45-1-1zm-11 1v-5h6v5zm13.78-2.78l-3.72-3.72-1.06 1.06 2.11 2.11c-.94.36-1.61 1.26-1.61 2.33a2.5 2.5 0 0 0 2.5 2.5c.36 0 .69-.08 1-.21v7.21c0 .55-.45 1-1 1s-1-.45-1-1V922c0-1.1-.9-2-2-2h-1v-7c0-1.1-.9-2-2-2h-6c-1.1 0-2 .9-2 2v16h10v-7.5h1.5v5a2.5 2.5 0 0 0 5 0V917c0-.69-.28-1.32-.73-1.77z"/></defs><g><g transform="translate(-65 -911)"><use fill="#53627c" xlink:href="#zitka"/></g></g></svg>