<svg xmlns="http://www.w3.org/2000/svg" xmlns:xlink="http://www.w3.org/1999/xlink" width="16" height="22" viewBox="0 0 16 22"><defs><path id="k3l3a" d="M72.71 1343c-1.78 0-3.22-1.4-3.22-3.14 0-1.62 1.05-2.76 2.81-3.12 1.77-.36 3.6-1.21 4.62-2.58.39 1.29.59 2.65.59 4.04 0 2.65-2.15 4.8-4.8 4.8zm1.79-18.33s.74 2.65.74 4.8c0 2.06-1.35 3.73-3.41 3.73-2.07 0-3.63-1.67-3.63-3.73l.03-.36c-2.02 2.4-3.23 5.51-3.23 8.89 0 4.42 3.58 8 8 8s8-3.58 8-8c0-5.39-2.59-10.2-6.5-13.33z"/></defs><g><g transform="translate(-65 -1324)"><use fill="#53627c" xlink:href="#k3l3a"/></g></g></svg>