<svg xmlns="http://www.w3.org/2000/svg" xmlns:xlink="http://www.w3.org/1999/xlink" width="24" height="24" viewBox="0 0 24 24"><defs><path id="ixh8a" d="M236 1657c2.01 0 3.74-1.23 4.5-3h-9c.76 1.77 2.49 3 4.5 3zm-2.5-5.25a1.25 1.25 0 1 0 0-2.5 1.25 1.25 0 0 0 0 2.5zm5 0a1.25 1.25 0 1 0 0-2.5 1.25 1.25 0 0 0 0 2.5zm4.21 2.22c-.2.67-.49 1.29-.86 1.86A6.976 6.976 0 0 1 236 1659c-2.45 0-4.6-1.26-5.85-3.17-.37-.57-.66-1.19-.86-1.86-.1.01-.19.03-.29.03-1.1 0-2-.9-2-2s.9-2 2-2c.1 0 .19.02.29.03.2-.67.49-1.29.86-1.86A6.976 6.976 0 0 1 236 1645c2.45 0 4.6 1.26 5.85 3.17.37.57.66 1.19.86 1.86.1-.01.19-.03.29-.03 1.1 0 2 .9 2 2s-.9 2-2 2c-.1 0-.19-.02-.29-.03zM247 1652c0-.23-.02-.45-.06-.66a4.008 4.008 0 0 0-2.81-3.17 9.114 9.114 0 0 0-2.19-2.91A8.885 8.885 0 0 0 236 1643c-2.28 0-4.36.85-5.94 2.26-.92.81-1.67 1.8-2.19 2.91a3.994 3.994 0 0 0-2.81 3.17c-.04.21-.06.43-.06.66 0 .23.02.45.06.66a4.008 4.008 0 0 0 2.81 3.17 8.977 8.977 0 0 0 2.17 2.89A8.885 8.885 0 0 0 236 1661c2.29 0 4.38-.86 5.97-2.28.9-.8 1.65-1.79 2.17-2.89a3.998 3.998 0 0 0 2.8-3.17c.04-.21.06-.43.06-.66z"/></defs><g><g transform="translate(-224 -1640)"><g/><g><use fill="#53627c" xlink:href="#ixh8a"/></g></g></g></svg>