<svg width="26" height="28" viewBox="0 0 26 28" fill="none" xmlns="http://www.w3.org/2000/svg">
<path d="M6.53579 27.9946H2.80063C2.25376 27.9946 1.81079 27.5461 1.81079 27.0047V19.3594C1.81079 18.8125 2.25923 18.3696 2.80063 18.3696H6.53579C7.08267 18.3696 7.52563 18.818 7.52563 19.3594V27.0047C7.5311 27.5516 7.08267 27.9946 6.53579 27.9946Z" fill="white"/>
<path d="M14.6896 27.9946H11.31C10.6701 27.9946 10.1396 27.4696 10.1396 26.8243V15.7938C10.1396 15.1539 10.6646 14.6235 11.31 14.6235H14.6896C15.3295 14.6235 15.86 15.1485 15.86 15.7938V26.8243C15.86 27.4696 15.335 27.9946 14.6896 27.9946Z" fill="white"/>
<path d="M22.871 27.9946H19.7921C19.0647 27.9946 18.4741 27.3985 18.4741 26.6766V12.2665C18.4741 11.5391 19.0702 10.9485 19.7921 10.9485H22.871C23.5983 10.9485 24.189 11.5446 24.189 12.2665V26.6766C24.189 27.4039 23.5983 27.9946 22.871 27.9946Z" fill="white"/>
<path d="M23.3413 2.5998e-05C22.1382 0.0492448 21.203 1.06643 21.2522 2.27503L15.696 7.73831L10.96 3.593L2.29207 12.2883C1.17644 12.4305 0.339726 13.393 0.383476 14.536C0.432694 15.7391 1.45535 16.6742 2.65848 16.625C3.8616 16.5758 4.79676 15.5532 4.74754 14.35C4.74207 14.2516 4.7202 14.1586 4.70379 14.0602L11.228 7.79846L15.8054 11.8071L23.3905 4.35862C23.4343 4.35862 23.478 4.36956 23.5218 4.36409C24.7249 4.31487 25.66 3.29221 25.6108 2.08909C25.5616 0.885964 24.5444 -0.0491928 23.3413 2.5998e-05Z" fill="white"/>
</svg>
