<svg width="25" height="32" viewBox="0 0 25 32" fill="none" xmlns="http://www.w3.org/2000/svg">
<g clip-path="url(#clip0)">
<path d="M18.6774 22.6637C19.2432 22.1206 18.9483 22.2737 20.3129 21.9231C20.932 21.7637 21.4763 21.4575 21.9685 21.0906L24.9222 28.0431C25.208 28.7162 24.6742 29.4475 23.9177 29.42L20.4873 29.2943L18.128 31.6868C17.6071 32.2143 16.6931 32.05 16.4073 31.3768L13.0186 23.4006C13.7243 23.7781 14.5075 23.9993 15.3174 23.9993C16.5869 23.9993 17.7797 23.525 18.6774 22.6637ZM0.0784683 28.0431L3.03225 21.0906C3.52444 21.4581 4.0687 21.7637 4.68785 21.9231C6.05959 22.2756 5.75881 22.1218 6.32326 22.6637C7.22105 23.525 8.41441 23.9993 9.68394 23.9993C10.4938 23.9993 11.277 23.7775 11.9828 23.4006L8.5941 31.3768C8.30829 32.05 7.39358 32.2143 6.87339 31.6868L4.51337 29.2943L1.08303 29.42C0.326515 29.4475 -0.207338 28.7156 0.0784683 28.0431ZM7.87795 21.2493C6.88316 20.2775 6.76923 20.3612 5.35256 19.9906C4.44826 19.7537 3.74123 19.0631 3.49904 18.1793C3.01206 16.4043 3.13837 16.6187 1.80959 15.32C1.14748 14.6731 0.889015 13.73 1.1312 12.8462C1.61753 11.0725 1.61818 11.32 1.1312 9.54434C0.889015 8.66059 1.14748 7.71747 1.80959 7.07059C3.13837 5.77184 3.01206 5.98559 3.49904 4.21122C3.74123 3.32747 4.44826 2.63684 5.35256 2.39997C7.16767 1.92434 6.94892 2.04872 8.27899 0.749344C8.9411 0.102469 9.9066 -0.150656 10.8109 0.0862193C12.6254 0.561219 12.3721 0.561844 14.1898 0.0862193C15.0941 -0.150656 16.0596 0.101844 16.7217 0.749344C18.0505 2.04809 17.8317 1.92434 19.6475 2.39997C20.5518 2.63684 21.2588 3.32747 21.501 4.21122C21.9873 5.98559 21.8617 5.77184 23.1905 7.07059C23.8526 7.71747 24.1117 8.66059 23.8688 9.54434C23.3825 11.3168 23.3819 11.0693 23.8688 12.8456C24.111 13.7293 23.8526 14.6725 23.1905 15.32C21.8617 16.6187 21.988 16.4043 21.501 18.1793C21.2588 19.0631 20.5518 19.7537 19.6475 19.9906C18.1905 20.3718 18.0817 20.3118 17.1228 21.2493C16.2614 22.0912 14.9196 22.2418 13.8845 21.6131C13.4705 21.3608 12.9903 21.2268 12.5 21.2268C12.0097 21.2268 11.5295 21.3608 11.1156 21.6131C10.0811 22.2418 8.73928 22.0912 7.87795 21.2493ZM18.6423 10.9968C18.6423 7.68247 15.8923 4.99559 12.5004 4.99559C9.10842 4.99559 6.35842 7.68247 6.35842 10.9968C6.35842 14.3112 9.10842 16.9981 12.5004 16.9981C15.8923 16.9981 18.6423 14.3112 18.6423 10.9968Z" fill="white"/>
</g>
<defs>
<clipPath id="clip0">
<rect width="25" height="32" fill="white" transform="matrix(-1 0 0 1 25 6.10352e-05)"/>
</clipPath>
</defs>
</svg>
