<svg width="30" height="30" viewBox="0 0 30 30" fill="none" xmlns="http://www.w3.org/2000/svg">
<path fill-rule="evenodd" clip-rule="evenodd" d="M6.30432 27.4356C7.5584 27.7613 7.8215 27.8296 8.94906 28.9771C10.0766 30.1251 11.8332 30.3304 13.1874 29.4731C13.7293 29.1291 14.358 28.9464 14.9998 28.9464C15.6417 28.9464 16.2703 29.1291 16.8122 29.4731C18.1673 30.3304 19.9239 30.1251 21.0514 28.9771C22.1661 27.842 22.4033 27.7793 23.7775 27.4156C23.951 27.3697 24.1427 27.3189 24.3566 27.2606C25.5404 26.9376 26.466 25.9959 26.783 24.7908C27.1028 23.5766 27.2206 23.0451 27.4782 22.5933C27.734 22.1445 28.1278 21.7743 28.9947 20.8918C29.8614 20.0089 30.1998 18.7228 29.8828 17.5178C29.5638 16.3058 29.4046 15.7848 29.4049 15.2639C29.4053 14.7438 29.5647 14.2238 29.8828 13.0162C30.2007 11.8111 29.8614 10.5251 28.9947 9.64301C28.1277 8.76031 27.7337 8.38998 27.4777 7.94096C27.2201 7.4891 27.1023 6.95755 26.783 5.74398C26.466 4.5389 25.5404 3.59717 24.3566 3.27417C23.1717 2.95087 22.6486 2.83066 22.2065 2.57204C21.7617 2.31184 21.3988 1.91155 20.5264 1.02338C19.6597 0.140456 18.3957 -0.203852 17.2119 0.119149C16.0214 0.443637 15.5095 0.605563 14.9977 0.605249C14.4865 0.604936 13.9755 0.442796 12.7886 0.119149C11.6048 -0.203852 10.3408 0.141308 9.47407 1.02338C8.60051 1.9123 8.23729 2.31256 7.79217 2.57264C7.35004 2.83096 6.82712 2.95099 5.64307 3.27417C4.45925 3.59717 3.53368 4.5389 3.21663 5.74398C2.89684 6.95768 2.77907 7.48921 2.52155 7.9411C2.26569 8.39006 1.87189 8.7604 1.00497 9.64301C0.138197 10.5251 -0.200157 11.8111 0.11689 13.0162C0.435759 14.2273 0.594921 14.7481 0.594698 15.2689C0.594477 15.7894 0.435101 16.3097 0.11689 17.5186C-0.200157 18.7237 0.138197 20.0097 1.00497 20.8918C1.87181 21.7743 2.26562 22.1445 2.52147 22.5933C2.77905 23.0451 2.89681 23.5766 3.21663 24.7908C3.53368 25.9959 4.45925 26.9376 5.64307 27.2606C5.89188 27.3285 6.11 27.3851 6.30432 27.4356ZM14.9999 25.7868C20.8476 25.7868 25.5882 20.9028 25.5882 14.878C25.5882 8.85328 20.8476 3.96926 14.9999 3.96926C9.15209 3.96926 4.41154 8.85328 4.41154 14.878C4.41154 20.9028 9.15209 25.7868 14.9999 25.7868Z" fill="white"/>
<path d="M21.7378 13.3164C21.7378 13.4447 21.6676 13.5847 21.5272 13.7363L18.5874 16.8333L19.2839 21.2075C19.2893 21.2483 19.292 21.3067 19.292 21.3825C19.292 21.505 19.2636 21.6085 19.2069 21.6931C19.1503 21.7776 19.0679 21.8199 18.9599 21.8199C18.8574 21.8199 18.7494 21.7849 18.636 21.7149L14.9997 19.6503L11.3635 21.7149C11.2447 21.7849 11.1367 21.8199 11.0395 21.8199C10.9262 21.8199 10.8411 21.7776 10.7844 21.6931C10.7277 21.6085 10.6994 21.505 10.6994 21.3825C10.6994 21.3475 10.7048 21.2892 10.7156 21.2075L11.4121 16.8333L8.46418 13.7363C8.3292 13.5788 8.26172 13.4388 8.26172 13.3164C8.26172 13.1006 8.41289 12.9664 8.71524 12.9139L12.7807 12.2753L14.6029 8.29472C14.7055 8.0556 14.8378 7.93604 14.9997 7.93604C15.1617 7.93604 15.294 8.0556 15.3966 8.29472L17.2187 12.2753L21.2842 12.9139C21.5866 12.9664 21.7378 13.1006 21.7378 13.3164Z" fill="white"/>
</svg>
