<svg width="31" height="24" viewBox="0 0 31 24" fill="none" xmlns="http://www.w3.org/2000/svg">
<path d="M12.353 12.2648C12.6557 12.5578 13.1464 12.5578 13.4492 12.2648L13.997 11.7347C14.2997 11.4417 14.2997 10.9669 13.997 10.6739L12.2668 9L13.9965 7.32562C14.2992 7.03266 14.2992 6.55781 13.9965 6.26484L13.4487 5.73469C13.1459 5.44172 12.6553 5.44172 12.3525 5.73469L9.52669 8.46937C9.22395 8.76234 9.22395 9.23719 9.52669 9.53016L12.353 12.2648ZM17.0035 11.7352L17.5513 12.2653C17.8541 12.5583 18.3447 12.5583 18.6475 12.2653L21.4733 9.53063C21.776 9.23766 21.776 8.76281 21.4733 8.46984L18.6475 5.73516C18.3447 5.44219 17.8541 5.44219 17.5513 5.73516L17.0035 6.26531C16.7008 6.55828 16.7008 7.03312 17.0035 7.32609L18.7332 9L17.0035 10.6744C16.7008 10.9673 16.7008 11.4422 17.0035 11.7352ZM30.225 19.5H18.4808C18.445 20.4286 17.7683 21 16.895 21H13.95C13.0447 21 12.3506 20.1811 12.3627 19.5H0.775C0.34875 19.5 0 19.8375 0 20.25V21C0 22.65 1.395 24 3.1 24H27.9C29.605 24 31 22.65 31 21V20.25C31 19.8375 30.6512 19.5 30.225 19.5ZM27.9 2.25C27.9 1.0125 26.8537 0 25.575 0H5.425C4.14625 0 3.1 1.0125 3.1 2.25V18H27.9V2.25ZM24.8 15H6.2V3H24.8V15Z" fill="white"/>
</svg>
