<svg width="28" height="24" viewBox="0 0 28 24" fill="none" xmlns="http://www.w3.org/2000/svg">
<path d="M13.1762 6.76406L15.8143 7.43438C15.9039 7.45458 15.9841 7.50275 16.0424 7.57141C16.1006 7.64007 16.1338 7.72538 16.1366 7.81406C16.1366 8.02969 15.9378 8.20781 15.6933 8.20781H13.9628C13.7763 8.20729 13.5916 8.17228 13.4188 8.10469C13.1641 8.00156 12.8705 8.025 12.6751 8.19844L11.7515 9.01875C11.7088 9.05481 11.6719 9.09684 11.6421 9.14344C11.604 9.20375 11.5786 9.27075 11.5674 9.34056C11.5563 9.41037 11.5596 9.48163 11.5771 9.55021C11.5946 9.6188 11.6261 9.68336 11.6696 9.74017C11.7131 9.79699 11.7679 9.84494 11.8307 9.88125C12.3422 10.1773 12.9149 10.3613 13.5083 10.4203V11.25C13.5083 11.6625 13.8889 12 14.3526 12H15.197C15.6612 12 16.0418 11.6625 16.0418 11.25V10.425C17.6425 10.2562 18.8534 8.97187 18.6424 7.47187C18.4893 6.39375 17.5507 5.53594 16.3792 5.23594L13.7411 4.56563C13.6515 4.54542 13.5713 4.49725 13.5131 4.42859C13.4548 4.35993 13.4216 4.27462 13.4188 4.18594C13.4188 3.97031 13.6176 3.79219 13.8621 3.79219H15.5926C15.7798 3.79247 15.9651 3.82748 16.1385 3.89531C16.3928 3.99844 16.6869 3.975 16.8823 3.80156L17.8059 2.98125C17.8472 2.94596 17.8827 2.90487 17.9114 2.85938C17.9498 2.79908 17.9755 2.73204 17.9869 2.66212C17.9984 2.59219 17.9953 2.52078 17.9779 2.452C17.9606 2.38323 17.9293 2.31845 17.8858 2.26141C17.8423 2.20437 17.7876 2.1562 17.7247 2.11969C17.213 1.82369 16.6402 1.63967 16.0467 1.58063V0.75C16.0467 0.3375 15.6665 0 15.2023 0H14.358C13.8937 0 13.5136 0.3375 13.5136 0.75V1.575C11.9148 1.74375 10.7015 3.02812 10.9125 4.52812C11.0651 5.60625 12.0067 6.46406 13.1762 6.76406ZM27.4778 15.3797C26.9042 14.8781 26.0098 14.9109 25.407 15.3797L20.9155 18.8438C20.3641 19.2703 19.6779 19.5019 18.971 19.5H13.2219C13.0157 19.5 12.8178 19.421 12.672 19.2803C12.5261 19.1397 12.4442 18.9489 12.4442 18.75C12.4442 18.5511 12.5261 18.3603 12.672 18.2197C12.8178 18.079 13.0157 18 13.2219 18H17.0276C17.8005 18 18.5204 17.4891 18.6439 16.7531C18.6591 16.6686 18.6666 16.583 18.6663 16.4972C18.6655 16.0998 18.5013 15.719 18.2096 15.4383C17.918 15.1576 17.5228 15 17.1107 15H9.33313C8.02144 15.0003 6.74973 15.4354 5.73113 16.2323L3.47076 18H0.777761C0.571486 18 0.373659 18.079 0.227801 18.2197C0.0819425 18.3603 0 18.5511 0 18.75L0 23.25C0 23.4489 0.0819425 23.6397 0.227801 23.7803C0.373659 23.921 0.571486 24 0.777761 24H18.1204C18.827 24.0005 19.5127 23.7691 20.0648 23.3438L27.4161 17.6719C27.5929 17.5355 27.7367 17.3635 27.8375 17.168C27.9383 16.9724 27.9935 16.758 27.9995 16.5397C28.0054 16.3214 27.9618 16.1045 27.8718 15.9042C27.7818 15.7038 27.6475 15.5248 27.4783 15.3797H27.4778Z" fill="white"/>
</svg>
