<svg width="32" height="26" viewBox="0 0 32 26" fill="none" xmlns="http://www.w3.org/2000/svg">
<g clip-path="url(#clip0)">
<path d="M31.1172 7.77975L17.1702 3.4278C16.4102 3.19065 15.5902 3.19065 14.8307 3.4278L0.883238 7.77975C-0.293762 8.1469 -0.293762 9.72772 0.883238 10.0949L3.31474 10.8535C2.78124 11.5233 2.45324 12.3404 2.42074 13.2352C1.93924 13.5155 1.60024 14.0213 1.60024 14.6251C1.60024 15.1725 1.88424 15.6331 2.29324 15.9276L1.01674 21.7614C0.905738 22.2687 1.28574 22.7501 1.79724 22.7501H4.60274C5.11474 22.7501 5.49474 22.2687 5.38374 21.7614L4.10724 15.9276C4.51624 15.6331 4.80024 15.1725 4.80024 14.6251C4.80024 14.0375 4.47674 13.546 4.01724 13.2606C4.05524 12.4978 4.43924 11.8235 5.05174 11.3959L14.8302 14.4473C15.2832 14.5885 16.1522 14.7647 17.1697 14.4473L31.1172 10.0954C32.2947 9.72772 32.2947 8.14741 31.1172 7.77975ZM17.6397 16.0007C16.2132 16.4456 14.9977 16.1998 14.3602 16.0007L7.10924 13.7384L6.40024 19.5001C6.40024 21.2952 10.6982 22.7501 16.0002 22.7501C21.3022 22.7501 25.6002 21.2952 25.6002 19.5001L24.8912 13.7379L17.6397 16.0007Z" fill="white"/>
</g>
<defs>
<clipPath id="clip0">
<rect width="32" height="26" fill="white"/>
</clipPath>
</defs>
</svg>
