<?xml version="1.0" encoding="UTF-8"?>
<svg width="59px" height="36px" viewBox="0 0 59 36" version="1.1" xmlns="http://www.w3.org/2000/svg" xmlns:xlink="http://www.w3.org/1999/xlink">
    <!-- Generator: Sketch 52.5 (67469) - http://www.bohemiancoding.com/sketch -->
    <title>audi-14-logo-svg-vector</title>
    <desc>Created with Sketch.</desc>
    <g id="Page-1" stroke="none" stroke-width="1" fill="none" fill-rule="evenodd" opacity="0.900000036">
        <g id="CMR-HOME-new" transform="translate(-104.000000, -343.000000)" fill="#FFFFFF" fill-rule="nonzero">
            <g id="Group" transform="translate(104.000000, 339.000000)">
                <g id="audi-14-logo-svg-vector" transform="translate(0.000000, 4.000000)">
                    <path d="M49.0123807,35.6581651 L49.0123807,27.9521835 L45.8362143,27.9521835 L45.8362143,35.6581651 L49.0123807,35.6581651 Z M32.1974015,32.4584587 L32.1974015,28.0687706 L29.1188719,28.0687706 L29.1188719,31.424367 C29.1188719,32.3996697 29.0799491,32.6731376 29.0215649,32.926789 C28.8071597,33.6292844 28.0666369,33.9407339 27.3069826,33.9407339 C26.2550775,33.9407339 25.7678828,33.5311927 25.5729389,32.8874862 C25.5145547,32.6734679 25.4950933,32.4393028 25.4756319,32.2051376 C25.4561705,31.9514862 25.4756319,31.6780183 25.4756319,31.386055 L25.4756319,28.0691009 L22.3581796,28.0691009 L22.3581796,32.4782752 C22.3581796,33.4737248 22.6896831,34.2148624 23.2349321,34.7218349 C24.1700689,35.6390092 25.7484214,35.9121468 27.2096756,35.9121468 C28.9826421,35.9121468 30.3465894,35.6584954 31.3206489,34.7026789 C31.8276349,34.2145321 32.1974015,33.5708257 32.1974015,32.4584587 Z M17.077873,31.9121835 C16.9235395,31.885333 16.7671114,31.8724005 16.6104696,31.8735413 L13.1034594,31.8735413 C12.9279769,31.8735413 12.7330331,31.8930275 12.6357261,31.9121835 C12.6941103,31.8533945 12.8112085,31.7368073 12.9279769,31.5805872 L14.5059996,28.9661284 C14.7204048,28.6153761 14.8177118,28.381211 14.8566346,28.2837798 C14.8955574,28.381211 14.9928644,28.6153761 15.2072697,28.9862752 L16.824545,31.6202202 C16.9027204,31.7368073 17.0194888,31.8533945 17.077873,31.9121835 Z M22.9621427,35.6581651 L15.9477924,25.1237064 L12.0123016,25.1237064 L13.0447453,26.3526606 C13.0642067,26.3721468 13.1034594,26.3913028 13.1420523,26.4114495 C13.1031295,26.4309358 13.0642067,26.4500917 13.0447453,26.469578 L6.92693888,35.6581651 L10.4728719,35.6581651 L11.4277999,34.0777982 C11.4667227,33.9998532 11.4861841,33.921578 11.4861841,33.8829358 C11.5251069,33.8829358 11.6227437,33.921578 11.7200507,33.921578 L18.0522624,33.921578 C18.1495694,33.921578 18.227415,33.9020917 18.2663378,33.8829358 C18.2627645,33.9377956 18.2763707,33.9924052 18.3052606,34.039156 L19.2991114,35.6581651 L22.9621427,35.6581651 Z M44.979253,31.6981651 C44.979253,30.8394495 44.6282881,29.8443303 43.5374601,28.459156 L40.9068726,25.1233761 L37.2438414,25.1233761 L39.3285201,27.464367 C39.679485,27.8547523 40.1274271,28.2055046 40.1274271,28.2055046 C39.6211008,27.9125505 38.9782149,27.7959633 38.4715588,27.7959633 C37.2636326,27.7959633 36.0355853,28.0496147 34.9450872,28.6546789 C33.775754,29.2977248 32.9963084,30.3711193 32.9963084,31.7955963 C32.9963084,32.8878165 33.4835031,33.7270459 34.1069276,34.3707523 C35.5101275,35.7750826 38.0618799,35.9118165 38.9973465,35.9118165 C40.3804253,35.9118165 42.5432795,35.5997064 43.7713268,34.4876697 C44.4923881,33.8241468 44.979253,32.907633 44.979253,31.6981651 Z M41.9396462,31.7955963 C41.9396462,32.5955229 41.4131989,33.1999266 40.7508516,33.5315229 C40.2052727,33.8244771 39.5620569,33.902422 38.9973465,33.902422 C38.432636,33.902422 37.7699589,33.7851743 37.22438,33.5120367 C36.5620327,33.1804404 36.0550467,32.5367339 36.0550467,31.8342385 C36.0550467,30.9956697 36.6979326,30.3318165 37.4582466,30.0002202 C37.9259799,29.7862018 38.4910202,29.7079266 38.9386324,29.7079266 C39.3677728,29.7079266 39.9911973,29.766055 40.478392,29.961578 C41.3554744,30.3318165 41.9396462,31.0343119 41.9396462,31.7955963 Z M48.0033566,0.00759632982 C45.7220649,0.00390867071 43.5068767,0.774526733 41.7193036,2.19368807 C39.9317814,0.774433971 37.7165598,0.00380429136 35.4352506,0.00759632982 C33.1540852,0.00406164207 30.9390502,0.774666837 29.1515275,2.19368807 C27.3641703,0.774365361 25.1490267,0.0037224084 22.8678044,0.00759632982 C20.5866389,0.00406164207 18.3716039,0.774666837 16.5840812,2.19368807 C14.796584,0.774620473 12.5815323,0.0040094733 10.3003581,0.00759632982 C4.70240194,0.00759632982 0.165916679,4.54954128 0.165916679,10.1549725 C0.165916679,15.7597431 4.70207208,20.3023486 10.3003581,20.3023486 C12.5815192,20.3058572 14.7965459,19.5352549 16.5840812,18.1162569 C18.3715785,19.5353245 20.5866301,20.3059355 22.8678044,20.3023486 C25.149018,20.3061703 27.3641448,19.5355332 29.1515275,18.1162569 C30.9390502,19.5352781 33.1540852,20.3058833 35.4352506,20.3023486 C37.7165554,20.3061146 39.9317687,19.5354878 41.7193036,18.1162569 C43.5068385,19.5354878 45.7220518,20.3061146 48.0033566,20.3023486 C53.6013128,20.3023486 58.1374682,15.7600734 58.1374682,10.1549725 C58.1374682,4.54987156 53.6013128,0.00759632982 48.0033566,0.00759632982 Z M14.925904,16.4586055 C13.6345247,17.4018716 12.0212076,17.9775413 10.3003581,17.9775413 C5.9819065,17.9775413 2.48743077,14.4789358 2.48743077,10.1549725 C2.48743077,5.83100917 5.9819065,2.33207339 10.3003581,2.33207339 C12.0212076,2.33207339 13.6335351,2.90807339 14.925904,3.85166972 C13.502004,5.64283012 12.7289274,7.86567068 12.7336928,10.1549725 C12.7347632,12.4433891 13.507185,14.6644632 14.925904,16.4586055 Z M16.5844111,14.8029358 C15.5884724,13.4587464 15.0522842,11.8286695 15.0555367,10.1549725 C15.0513406,8.48112491 15.5876241,6.85075812 16.5844111,5.50700917 C17.5810069,6.85085737 18.1172689,8.4811588 18.1132855,10.1549725 C18.1164203,11.8286508 17.580244,13.4586915 16.5844111,14.8029358 Z M27.4936801,16.4586055 C26.1519827,17.4476437 24.528612,17.9792699 22.8625267,17.9752294 C21.199895,17.9786149 19.5801838,17.4469374 18.2422585,16.4586055 C19.661114,14.6646656 20.4335575,12.4436455 20.4344697,10.1553028 C20.4392351,7.86600096 19.6661585,5.64316039 18.2422585,3.852 C19.5800563,2.86338202 21.1998282,2.33156882 22.8625267,2.33504587 C24.5959107,2.33504587 26.197353,2.89651376 27.4936801,3.852 C26.0697801,5.64316039 25.2967035,7.86600096 25.3014689,10.1553028 C25.3024328,12.4436367 26.0748705,14.6646404 27.4936801,16.4586055 Z M29.1515275,14.8029358 C28.1555888,13.4587464 27.6194006,11.8286695 27.6226531,10.1549725 C27.6186224,8.48115127 28.1548892,6.85083532 29.1515275,5.50700917 C30.1483683,6.85075014 30.6847616,8.48109873 30.6807317,10.1549725 C30.6839124,11.8287107 30.147605,13.4587984 29.1515275,14.8029358 Z M40.0611264,16.4586055 C38.7647992,17.414422 37.1633569,17.9752294 35.4303028,17.9752294 C33.6972487,17.9752294 32.1060319,17.4134312 30.8097047,16.4586055 C32.2286981,14.6647415 33.0011588,12.4436718 33.001916,10.1553028 C33.0066813,7.86600096 32.2336047,5.64316039 30.8097047,3.852 C32.1060319,2.89684404 33.6972487,2.33504587 35.4303028,2.33504587 C37.1633569,2.33504587 38.7647992,2.89651376 40.0611264,3.852 C38.6373895,5.64325042 37.8643335,7.86603188 37.8689152,10.1553028 C37.8700598,12.4436061 38.6424775,14.664552 40.0611264,16.4586055 Z M41.7196335,14.8029358 C40.7236947,13.4587464 40.1875066,11.8286695 40.1907591,10.1549725 C40.1864212,8.48110231 40.722719,6.8506919 41.7196335,5.50700917 C42.7162293,6.85085737 43.2524913,8.4811588 43.2485078,10.1549725 C43.2515015,11.8286282 42.7153395,13.4586257 41.7196335,14.8029358 Z M48.0033566,17.9775413 C46.2818473,17.9775413 44.6688602,17.4018716 43.3778107,16.4586055 C44.7965285,14.6645898 45.5689547,12.4436192 45.5700219,10.1553028 C45.5746036,7.86603188 44.8015475,5.64325042 43.3778107,3.852 C44.6701796,2.90873394 46.2821772,2.33240367 48.0033566,2.33240367 C52.3211485,2.33240367 55.8162839,5.83133945 55.8162839,10.1553028 C55.8162839,14.4786055 52.3211485,17.9775413 48.0033566,17.9775413 Z" id="Shape"></path>
                </g>
            </g>
        </g>
    </g>
</svg>