<?xml version="1.0" encoding="UTF-8"?>
<svg width="73px" height="36px" viewBox="0 0 73 36" version="1.1" xmlns="http://www.w3.org/2000/svg" xmlns:xlink="http://www.w3.org/1999/xlink">
    <!-- Generator: Sketch 52.5 (67469) - http://www.bohemiancoding.com/sketch -->
    <title>bentley</title>
    <desc>Created with Sketch.</desc>
    <g id="Page-1" stroke="none" stroke-width="1" fill="none" fill-rule="evenodd" opacity="0.900000036">
        <g id="CMR-HOME-new" transform="translate(-179.000000, -343.000000)" fill="#FFFFFF">
            <g id="Group" transform="translate(104.000000, 339.000000)">
                <g id="bentley" transform="translate(75.179654, 4.000000)">
                    <path d="M7.41617473,35.8484908 C7.46437987,33.4981104 7.46437987,31.1207853 7.41617473,28.7140859 C8.61236009,28.7461104 9.98064433,28.7461104 11.2385584,28.7140859 C12.6816588,28.7140859 13.4322193,29.6032638 13.4322193,30.4970798 C13.4322193,31.1574479 13.1255387,31.7612761 12.6539572,32.0349202 C13.4634109,32.2776442 13.9295393,32.9899141 13.9295393,33.8335951 C13.9295393,35.1958528 12.9499498,35.8484908 11.7278079,35.8484908 L7.41617473,35.8484908 Z M11.3258076,32.7595583 C10.5815726,32.7370307 9.63295661,32.7370307 8.81106995,32.7595583 C8.7790059,33.4121963 8.7790059,33.999681 8.81106995,34.6373006 C9.66698377,34.6748466 10.566304,34.6748466 11.3589622,34.6373006 C12.2181479,34.5953374 12.5924466,34.2870184 12.5924466,33.7054969 C12.5924466,33.1469448 12.1708152,32.7849571 11.3258076,32.7595583 Z M11.2189274,29.8839755 C10.6518081,29.848638 9.48070691,29.8607853 8.80409002,29.8839755 C8.7818415,30.4343558 8.7818415,30.9778896 8.80409002,31.5150184 C9.40305519,31.5494724 10.7427653,31.5457178 11.3179551,31.5150184 C11.8874737,31.4834356 12.1084321,31.1077546 12.1084321,30.7002699 C12.1084321,30.236908 11.8294531,29.9228466 11.2189274,29.8839755 Z M46.9899737,34.6035092 C46.9738326,35.0134233 46.9738326,35.4279755 46.9899737,35.8484908 C45.0510803,35.8140368 43.112405,35.8140368 41.174384,35.8484908 C41.2147367,33.4700613 41.2136461,31.0927362 41.1735115,28.7140859 C41.621972,28.7306503 42.0686874,28.7306503 42.5158391,28.7140859 C42.4776677,30.6773006 42.4776677,32.6405153 42.5158391,34.6035092 C44.0062721,34.6324417 45.4986682,34.6324417 46.9899737,34.6035092 Z M25.4518754,28.7116564 C26.7710821,30.3047117 28.1358763,31.8993129 29.5451677,33.4923681 C29.5789767,31.9001963 29.5781042,30.3080245 29.5442952,28.7162945 C29.9393155,28.7339632 30.3404433,28.7339632 30.7459336,28.7162945 C30.7112521,31.066454 30.7112521,33.4435583 30.7459336,35.8493742 C30.4036989,35.8339141 30.0623368,35.8339141 29.7207565,35.8511411 C28.3461467,34.1847607 26.9128619,32.4989448 25.4206839,30.7945767 C25.3903648,32.4799509 25.3894923,34.164 25.4198114,35.8493742 C25.0337341,35.8339141 24.6334787,35.8339141 24.2190455,35.8493742 C24.2493645,33.4724908 24.2493645,31.0945031 24.2190455,28.7171779 C24.6299888,28.7321963 25.0409321,28.7306503 25.4518754,28.7116564 Z M22.0253846,29.9590675 C20.4956895,29.9237301 18.9500714,29.9237301 17.3848223,29.9590675 C17.3499227,30.4961963 17.3499227,31.0339877 17.3848223,31.5728834 C18.4311573,31.603362 19.4901434,31.603362 20.5606901,31.5728834 C20.5447671,31.9861104 20.5447671,32.401546 20.5606901,32.8156564 C19.5152276,32.7831902 18.4562414,32.7831902 17.3848223,32.8156564 C17.3534126,33.4113129 17.3534126,34.0069693 17.3848223,34.6028466 C18.9579238,34.6342086 20.5323341,34.6342086 22.1047813,34.6028466 C22.0895127,35.0180613 22.0895127,35.4330552 22.1047813,35.8471656 C20.0847462,35.8131534 18.0638385,35.8131534 16.0440215,35.8471656 C16.0806662,33.4700613 16.0806662,31.0918528 16.0440215,28.7140859 C18.0612211,28.7478773 20.0544271,28.7478773 22.0253846,28.7140859 C22.008371,29.1295215 22.008371,29.5436319 22.0253846,29.9590675 Z M60.0943545,35.8453988 C60.1275091,34.8365153 60.1275091,33.8137178 60.0943545,32.7794356 C59.05958,31.4257914 57.9800903,30.0708221 56.8561036,28.7162945 C57.4068636,28.7330798 57.9576237,28.7330798 58.50882,28.7162945 C59.2172828,29.6377178 59.9687158,30.5582577 60.7639914,31.4787975 C61.5553409,30.5582577 62.3078645,29.6377178 63.0191629,28.7162945 C63.5701411,28.7330798 64.1209011,28.7330798 64.6710068,28.7162945 C63.552255,30.0708221 62.4718929,31.4257914 61.4325378,32.7794356 C61.3996012,33.8013497 61.3996012,34.8239264 61.4325378,35.8453988 C60.9866948,35.8303804 60.54107,35.8303804 60.0943545,35.8453988 Z M54.8735856,29.9590675 C53.344763,29.9237301 51.7980543,29.9237301 50.2336777,29.9590675 C50.1998687,30.4961963 50.1998687,31.0339877 50.2336777,31.5728834 C51.2802308,31.603362 52.3394351,31.603362 53.4099817,31.5728834 C53.3929681,31.9861104 53.3929681,32.401546 53.4099817,32.8156564 C52.3643011,32.7831902 51.3042243,32.7831902 50.2336777,32.8156564 C50.2027043,33.4113129 50.2027043,34.0069693 50.2336777,34.6028466 C51.8069973,34.6342086 53.380317,34.6342086 54.9538548,34.6028466 C54.9377137,35.0180613 54.9377137,35.4330552 54.9538548,35.8471656 C52.9338197,35.8131534 50.9122577,35.8131534 48.8922226,35.8471656 C48.9288672,33.4700613 48.9288672,31.0918528 48.8922226,28.7140859 C50.9094221,28.7478773 52.9035006,28.7478773 54.8735856,28.7140859 C54.8574445,29.1295215 54.8574445,29.5436319 54.8735856,29.9590675 Z M35.3954389,35.8471656 C35.4294661,33.9078037 35.4294661,31.944589 35.3954389,29.9590675 C34.5602468,29.9219632 33.7152391,29.9219632 32.8604159,29.9590675 C32.8754664,29.5484908 32.8754664,29.1330552 32.8604159,28.7140859 C34.9971467,28.7496442 37.13475,28.7496442 39.2721352,28.7140859 C39.2562122,29.124 39.2562122,29.5394356 39.2721352,29.9590675 C38.4271275,29.9263804 37.5821198,29.9263804 36.7360215,29.9590675 C36.703085,31.9222822 36.703085,33.8852761 36.7360215,35.8471656 C36.2949773,35.8312638 35.8473893,35.8312638 35.3954389,35.8471656 Z M38.6196956,21.9826005 C38.450666,22.7604097 37.2664338,22.979911 36.8592259,22.2062335 C36.762418,22.9292966 35.2181014,22.9292966 35.1212935,22.2057171 C34.7145979,22.9793945 33.5298535,22.7598932 33.3613361,21.982084 C32.8742233,22.6973999 31.7463343,22.363758 31.63877,21.6107395 C31.1670235,22.129279 30.2312138,21.9216566 30.0191584,21.2502409 C26.5484157,19.8108291 24.0073362,17.2067693 23.0136466,14.0975983 C22.8092743,14.0092813 22.6248783,13.8760311 22.4783859,13.683903 C21.4047914,13.9385245 20.2051929,14.4482839 19.7631547,13.2381863 C18.8160763,13.4933242 16.828697,14.1600916 16.2273612,12.5383646 C14.8382446,12.7294598 12.8175716,12.8565123 12.5650515,11.3923097 C11.365453,11.3923097 9.28177809,11.200698 9.28177809,9.80053812 C8.0821796,9.80053812 5.99850468,8.97314744 6.25102477,8.01767132 C5.17743022,7.89061882 3.72531163,6.74456394 3.72531163,5.98069952 C2.65222929,5.66255179 1.45211859,4.83516111 1.70515089,3.75263249 C1.07359455,3.37095851 0,2.92524181 0,2.28842988 C0,1.65213443 0.504015763,1.14237501 1.07257013,1.14237501 C1.6411245,1.14237501 3.78780139,1.2735593 4.54536167,1.2735593 C5.30292195,1.2735593 14.4586961,1.14599032 16.605373,1.2735593 C18.7525621,1.4006118 21.4672811,1.46103921 22.7933958,1.33347023 C23.7706946,1.23998851 27.0990426,1.04786034 29.0966661,1.58602581 C33.329579,-0.5289335 38.6519649,-0.528417027 42.8838534,1.58602581 C44.881989,1.04734387 48.2098248,1.23947204 49.1866115,1.33450318 C50.5127261,1.46155568 53.2279574,1.40164475 55.3746343,1.27459224 C57.5213112,1.14702327 66.6770853,1.27459224 67.4341334,1.27459224 C68.1916937,1.27459224 70.3383706,1.14340796 70.9069249,1.14340796 C71.4754793,1.14340796 71.9805195,1.65316738 71.9805195,2.28946283 C71.9805195,2.92575828 70.9069249,3.37147498 70.2758808,3.75366543 C70.5289131,4.83567759 69.3288024,5.66358474 68.2557201,5.98173246 C68.2557201,6.74559689 66.8030893,7.89165177 65.7294947,8.01870427 C65.9820148,8.97366392 63.8988521,9.80157107 62.6987414,9.80157107 C62.6987414,11.2022474 60.6155787,11.3933426 59.4159802,11.3933426 C59.1629479,12.8575452 57.1427871,12.7304927 55.7536705,12.5393975 C55.1523346,14.1606081 53.1654676,13.4938407 52.217877,13.2392192 C51.7758388,14.4488004 50.5762403,13.9395574 49.5026458,13.6849359 C49.3627128,13.8671923 49.1782868,14.0097325 48.9673851,14.0986313 C47.9736955,17.2072857 45.4331282,19.8113455 41.9618733,21.2507574 C41.7498179,21.9221731 40.8140082,22.1297954 40.3422617,21.611256 C40.2346974,22.3642745 39.1068084,22.6984329 38.6196956,21.9826005 Z M36.6486047,18.4369426 C36.647367,18.4251444 36.6464288,18.4184361 36.6458189,18.4172918 C36.3424539,18.448302 35.9071022,18.4395158 35.612434,18.4271117 C35.6098761,18.4348643 35.442079,21.5730985 35.442079,21.5725817 C35.3704089,22.7995603 36.8084011,22.8337115 36.8612577,21.7358799 C37.0248142,22.9479374 38.5371988,22.7053939 38.2591992,21.436859 C38.2597135,21.4378961 37.5526258,18.3593724 37.5495404,18.3526315 C37.2534814,18.3903347 36.9528307,18.4192924 36.6486047,18.4369426 Z M25.1960734,13.9141104 C24.8860297,14.065683 24.5532299,14.1628183 24.2116293,14.2014432 C25.1766503,16.7973639 27.3663484,19.0019896 30.3242809,20.3190184 L31.8459268,17.6828711 C29.9301965,16.9676738 28.3743046,15.7838629 27.4389294,14.3294368 C26.7376535,14.5995296 25.5666455,14.7797656 25.1960734,13.9141104 Z M30.1324247,20.9492763 C30.1425773,20.7947421 30.1790958,20.6431441 30.2403674,20.5011786 C27.1964862,19.1589529 24.9460604,16.8983079 23.9715068,14.2381479 C23.8011518,14.2412489 23.6307968,14.2272943 23.4665807,14.1911157 C24.4615973,17.1153794 26.8639613,19.55485 30.1324247,20.9492763 Z M31.8426255,21.0273186 C31.8595075,20.9725339 32.997254,18.0534386 32.9911151,18.0126085 C32.6933775,17.9350829 32.4022904,17.8482543 32.1183653,17.7510889 L30.5698227,20.4024627 C29.9196088,21.5395041 31.3566277,22.2362004 31.8410908,21.0319702 C31.8416877,21.0304497 31.8422,21.0288968 31.8426255,21.0273186 Z M33.4801824,21.4020255 C33.4801824,21.4020255 34.2091792,18.2715438 34.2061097,18.2601734 C33.9027448,18.2141749 33.6044956,18.1573228 33.3118737,18.090134 L32.0810202,21.1115631 C31.7428681,22.2393014 33.1803985,22.6067725 33.4801824,21.4020255 Z M35.1678739,21.5922215 C35.168897,21.5663796 35.3847824,18.4105729 35.3740393,18.3826637 C35.0696511,18.3650913 34.7698672,18.3361484 34.4741759,18.2984193 C34.471618,18.3051382 33.7682001,21.3735994 33.7682001,21.3725658 C33.4858098,22.6636246 35.0609543,22.8884487 35.1678739,21.5922215 Z M1.22169229,1.89194572 C0.79759523,2.2185867 1.43808922,2.95352891 2.63108602,3.19282444 C4.83649305,3.63472007 8.65234343,3.64764099 9.38594438,3.64764099 C10.3318496,3.64764099 16.9966705,3.55150931 17.5328029,3.51946542 C18.0689352,3.48742152 17.9742935,3.04190803 17.5328029,2.9142493 C16.5556914,2.59536087 10.3124097,1.8945299 9.4294284,1.8945299 C8.54644706,1.8945299 4.00569253,1.76687117 2.05095807,1.76687117 C1.66676399,1.78857832 1.36288745,1.78289311 1.22169229,1.89194572 Z M3.36877958,4.2513066 C3.21121396,4.2513066 2.86436498,4.21977955 3.17949621,4.66580987 C3.49513902,5.1118402 4.72445776,5.58991442 5.63915684,5.55787053 C10.4950426,5.65348537 16.8958899,4.92112735 17.5895879,4.76142472 C18.9580555,4.44718783 18.5385626,3.86419569 17.2427389,3.93293501 C16.6436826,3.96497891 11.5038718,4.2513066 10.8418916,4.2833505 C10.1793998,4.31539439 4.50396821,4.2833505 3.36877958,4.2513066 Z M5.57623291,6.35431634 C4.75617551,6.3858434 6.11185369,7.50117763 7.27876007,7.53270469 C10.7784561,7.46913374 17.6745096,6.12432388 18.2515681,6.00390086 C18.938104,5.86073701 19.3217865,4.97797942 17.6213056,5.23949894 C15.6660596,5.65348537 6.36457256,6.35431634 5.57623291,6.35431634 Z M7.94074029,8.3291505 C7.94074029,8.3291505 7.08640724,8.65992618 9.09997302,9.06667689 C9.69454775,9.18049471 10.3004968,9.22179255 10.9048155,9.1896841 C12.3300681,9.11267539 18.591255,7.57301798 19.1662672,7.40556279 C19.8118769,7.21743412 20.1745848,6.01113657 18.3779275,6.48145824 C16.3914753,7.02310341 9.04472274,8.20149176 7.94074029,8.3291505 Z M10.9048155,9.98561307 C10.4970889,10.3825439 12.0717219,10.8456298 12.9229855,10.8456298 C15.2562867,10.7179711 20.1750964,8.64752209 20.5219454,8.4883363 C21.0821218,8.23095147 20.8140556,7.34664337 19.9228891,7.66036343 C18.0940025,8.36067756 11.6931552,9.82642728 10.9048155,9.98561307 Z M21.3414912,8.64752209 C20.616587,8.99793757 16.2021919,10.8776737 14.4991532,11.2601331 C14.2628048,11.3237041 14.0131554,11.4291388 14.0331069,11.5619659 C14.1845336,12.5791011 17.3184522,11.713916 17.5358723,11.6436262 C18.741147,11.2534142 21.1982497,10.3422306 22.2403314,9.31630916 C21.9881241,9.18916726 21.4049267,8.77518083 21.3414912,8.64752209 Z M22.6659632,9.73081243 C22.1932663,10.049184 19.1028317,11.6746364 17.6842296,12.1201499 C16.942955,12.3697821 17.7231094,13.1398693 19.1708714,12.7227818 C20.7710832,12.4721159 23.1074538,10.5593021 23.4860206,10.2088867 C23.2967372,10.1132718 22.8869643,9.85847117 22.6659632,9.73081243 Z M24.1167946,10.591346 C23.5453635,10.9862095 22.4454736,11.7242527 21.7471715,12.1950912 C21.4591538,12.3894219 20.7715948,12.7734318 20.7864305,13.080433 C20.7935926,13.2272147 21.069844,13.5057898 22.3319036,13.0427039 C23.1166622,12.7181303 24.0666601,12.0581294 24.8734165,10.8781906 C24.7158509,10.8296079 24.3055664,10.686444 24.1167946,10.591346 Z M25.5353967,11.0689034 C25.2397054,11.3676352 24.8575576,11.7759364 24.4835951,12.1521938 C24.139304,12.6008083 23.371939,12.9238314 23.6359125,13.4422189 C23.9218839,14.0035039 24.8222588,13.1956877 25.1465985,12.8866191 C25.6049712,12.4488582 26.047485,11.8705176 26.2137474,11.2916602 C25.9927463,11.2280892 25.740539,11.1645183 25.5353967,11.0689034 Z M14.5510656,1.79291328 C14.3308205,1.82416214 14.3308205,1.98194327 14.6453835,2.01524124 C15.3678079,2.1095001 18.8076083,2.91684772 19.7186685,3.07462886 C20.6302386,3.23240999 23.3185545,3.24624145 25.1722842,3.30925145 C25.7733698,3.32974251 26.2653526,3.40043665 26.6645468,3.50852698 C29.1958362,4.19497737 27.7158094,5.80659895 27.0576232,7.12980892 C26.6803515,7.91922687 27.2146498,8.01399801 27.5914117,8.17177914 C27.6541204,5.96130643 29.0999888,5.10887848 29.5710686,4.76155508 C29.9717923,4.46648386 30.5371901,4.05819957 30.5371901,3.37840877 C30.5371901,2.85588683 30.2975716,2.36973652 28.6268696,2.02497449 C25.9390635,1.47017914 22.0286931,1.98245555 19.1389956,1.98245555 C18.1331076,1.98245555 15.3683177,1.79291328 14.5510656,1.79291328 Z M28.8520526,2.45705781 C28.7163881,2.38949843 28.8352972,2.15304061 28.9715021,2.22059999 C30.2654489,2.8018251 30.5059695,3.61414617 29.3882243,4.39697704 C29.2639103,4.48383909 29.1104095,4.26775632 29.2347236,4.18089427 C30.2503151,3.46883989 29.8411598,2.94766756 28.8520526,2.45705781 Z M21.7159369,3.6818917 C21.3391951,3.71275306 21.4962133,4.39878584 22.0931884,4.24447906 C21.4646058,4.58698952 21.8102497,5.02410776 22.4072248,4.93000591 C22.0615808,5.39747958 22.5958506,5.67826733 23.0669052,5.52244278 C22.5015377,6.27121012 23.3814514,6.30207148 23.6954878,6.05265101 C23.2244332,7.01896562 24.0095242,6.98810426 24.4810886,6.61372059 C24.1670522,7.33061473 24.8267326,7.39284337 25.3610023,7.08119426 C24.952653,7.54866792 25.4242174,7.86082296 25.6755485,7.67363112 C25.9584872,7.42421065 26.6671083,6.72755346 26.932204,6.39516147 C28.2857213,4.69475131 26.9474979,3.78864164 25.0734755,3.70010496 C24.3959521,3.66823175 22.3756172,3.6818917 21.7159369,3.6818917 Z M19.8725024,3.35051156 C19.6181125,3.33432199 18.5143969,3.15623679 18.5409064,3.74664996 C18.567416,4.33756905 19.7934835,4.11445662 20.0453243,4.06791162 C20.5092418,3.98241048 20.8798659,3.84176365 20.8691601,3.65103034 C20.8584543,3.4552378 20.3751645,3.38187884 19.8725024,3.35051156 Z M19.9173647,4.36286524 C19.6492102,4.3831022 18.6851796,4.33605128 18.8355705,4.87637798 C18.8829818,5.04636841 19.2372923,5.39039665 20.4225759,5.10454965 C20.9420614,4.97908053 21.2112355,4.70284609 21.2112355,4.48327513 C21.2112355,4.29152998 20.5128104,4.31783802 19.9173647,4.36286524 Z M20.6784952,5.24013725 C20.4878302,5.27150453 19.3825852,5.34638127 19.5676423,5.89935607 C19.6971314,6.28487007 19.8959531,6.16294241 20.2329305,6.2029104 C20.455203,6.22921844 22.101855,5.76882771 21.8444063,5.24469057 C21.7679364,5.08886601 21.283627,5.1414821 20.6784952,5.24013725 Z M21.2250001,6.02381334 C20.1289314,6.46548489 20.1432058,6.76448591 20.1931662,6.92587562 C20.2426167,7.08777127 20.7452789,7.2876112 21.7852696,6.78320509 C22.3118923,6.52771353 22.3185197,6.23731322 22.1890307,6.03190813 C22.0274243,5.77439287 21.6185652,5.86495325 21.2250001,6.02381334 Z M21.9922481,6.7665096 C20.8513171,7.16113023 20.9165715,7.52134803 21.0068059,7.73282421 C21.1062168,7.96656105 21.466645,8.2154756 22.4189502,7.61342618 C22.9940039,7.25017283 23.3681966,6.94560666 23.2657269,6.70377504 C23.1729434,6.48420408 22.6289875,6.54137347 21.9922481,6.7665096 Z M22.4388324,7.90079094 C22.1395801,8.08089984 22.0034637,8.32475516 22.1920895,8.60250737 C22.5295766,9.10033646 23.524705,8.22205261 23.7745067,7.95340703 C23.9600737,7.75407302 24.0788569,7.54462053 23.9738382,7.39132559 C23.865251,7.23347734 23.5277638,7.24561952 22.4388324,7.90079094 Z M24.2404633,7.98528023 C22.9119262,8.65765307 23.039376,8.98346805 23.2244332,9.12259712 C23.4288627,9.27639798 23.9106231,9.43778769 24.7161061,8.51397069 C25.0693971,8.10923158 24.8751635,7.66604226 24.2404633,7.98528023 Z M24.9037123,8.69053812 C24.6233226,9.00168131 23.9661913,9.47067275 24.474971,9.82026615 C24.9037123,10.1147138 25.1550434,9.79142849 25.3661003,9.59108263 C26.58656,8.42593993 26.1827989,7.68830291 24.9037123,8.69053812 Z M41.6614522,13.2089461 C41.6614522,12.1749815 40.6398363,11.1410169 39.505212,10.7844412 C39.2020065,10.7129156 39.2499341,10.4320728 39.4860409,10.321103 C39.7130667,10.2138147 41.0373836,9.25137568 41.018717,8.03912321 C41.018717,6.8626335 39.6938956,5.0797546 35.8344578,5.0797546 C33.5642002,5.0797546 31.6723189,5.61461827 30.5371901,6.61334601 C30.801549,6.82739666 31.1047545,7.14820968 31.1047545,7.50478546 L31.1047545,14.0299119 C31.0669168,14.4222504 30.8777287,14.7430634 30.5745232,15.0996392 C31.5936166,15.8538128 33.4183992,16.5732754 36.0382764,16.5643347 C38.8382608,16.4928092 41.6614522,15.633451 41.6614522,13.2089461 Z M36.2083825,10.1595092 C35.0037236,10.1595092 34.0271547,9.36845404 34.0271547,8.39263804 C34.0271547,7.41682204 35.0037236,6.62576687 36.2083825,6.62576687 C37.4130414,6.62576687 38.3896104,7.41682204 38.3896104,8.39263804 C38.3896104,9.36845404 37.4130414,10.1595092 36.2083825,10.1595092 Z M36.4265053,15.0184049 C35.1013805,15.0184049 34.0271547,14.1779088 34.0271547,13.1411043 C34.0271547,12.1042998 35.1013805,11.2638037 36.4265053,11.2638037 C37.7516301,11.2638037 38.825856,12.1042998 38.825856,13.1411043 C38.825856,14.1779088 37.7516301,15.0184049 36.4265053,15.0184049 Z M26.2773512,10.1272388 C26.3637251,9.69159428 26.5022301,9.26838196 26.6872442,8.86174589 C26.6765113,8.84568765 26.3489035,8.42092131 25.5418947,9.60301496 C25.0962255,10.2551867 25.8833019,10.5178166 26.2773512,10.1272388 Z M26.2512856,12.1350368 C25.9190781,12.5261326 25.6057808,12.8545495 25.39879,13.1166614 C24.9664091,13.6647136 26.0913149,14.3401957 26.6974659,13.5611121 C26.4874197,13.1077451 26.3373947,12.6282374 26.2512856,12.1350368 Z M41.7556675,1.91888825 C41.933921,1.81654606 42.1215094,1.73189054 42.3158205,1.66610047 C38.2823098,-0.260888296 33.3058407,-0.260888296 29.2728411,1.66610047 C29.4823874,1.73965757 29.670468,1.82357482 29.832483,1.91888825 C33.5675181,0.27006963 38.0533421,0.284573847 41.7556675,1.91888825 Z M43.6723915,7.10636298 C43.2161952,5.52137917 42.0772491,4.8764831 41.6354698,4.56792039 C40.7472772,3.9482236 40.7956773,3.03230661 41.5546314,2.24290033 C37.9282312,0.71602917 33.6211407,0.73351439 30.0374767,2.24290033 C30.7964309,3.03230661 30.844316,3.9482236 29.9566383,4.56792039 C29.5148591,4.8764831 28.3753981,5.52137917 27.9197166,7.10636298 C31.7932661,3.11921844 39.798842,3.11870417 43.6723915,7.10636298 Z M46.776689,14.0140536 C46.4028757,14.866201 45.223253,14.6887774 44.517333,14.4228992 C43.5750765,15.8546302 42.0077384,17.0199687 40.0773998,17.724006 L41.6107549,20.3190184 C44.590448,19.0225407 46.7957401,16.8523163 47.7688902,14.2969028 C47.4245835,14.2590242 47.0891424,14.1633992 46.776689,14.0140536 Z M41.9144566,21.0121814 C45.1999714,19.6131824 47.6153827,17.165712 48.615076,14.2318587 C48.4482725,14.267355 48.2779438,14.28319 48.1075157,14.2790451 C47.1278779,16.9479286 44.8657117,19.215987 41.8059507,20.5626143 C41.8675419,20.7050454 41.904251,20.8571405 41.9144566,21.0121814 Z M40.1948195,21.0904797 L40.1968764,21.0951465 C40.683867,22.3033258 42.1283827,21.6043448 41.4747766,20.4635747 L39.9181553,17.8035062 C39.6327491,17.9009902 39.3406576,17.9881036 39.0408524,18.0658833 C39.0346815,18.1068474 40.1783636,21.0355154 40.1948195,21.0904797 Z M38.5487195,21.4664153 C38.8505816,22.6751131 40.2950973,22.306437 39.955181,21.1750004 C39.955181,21.1750004 38.7827012,18.3007783 38.7179062,18.1436631 C38.424272,18.2110723 38.1244669,18.2681108 37.8195193,18.3142601 C37.8164338,18.3256678 38.5487195,21.4664153 38.5487195,21.4664153 Z M70.9760151,1.89235588 C70.8340833,1.78294565 70.5286215,1.7886495 70.1424231,1.76687117 C68.1774908,1.76687117 63.6130474,1.89494854 62.7254596,1.89494854 C61.8378717,1.89494854 55.5620191,2.59807775 54.5798101,2.91801191 C54.1360162,3.04608928 54.0408808,3.49306375 54.5798101,3.52521273 C55.1187394,3.5573617 61.8178162,3.65380863 62.7686562,3.65380863 C63.5065985,3.65380863 67.3423561,3.64084533 69.5587544,3.19750059 C70.7590035,2.95742033 71.4028389,2.22006802 70.9760151,1.89235588 Z M68.8172123,4.25945385 C67.6761014,4.29160283 61.9715756,4.3237518 61.3056276,4.29160283 C60.6401939,4.25945385 55.4735689,3.9721872 54.8713873,3.94003822 C53.5688034,3.87107348 53.1466078,4.45597743 54.5227289,4.7712448 C55.2195316,4.93147115 61.6542861,5.66623081 66.5349906,5.57030241 C67.4539474,5.60245139 68.6901937,5.12280941 69.0074832,4.67531641 C69.3247727,4.22782341 68.9761142,4.25945385 68.8172123,4.25945385 Z M66.598757,6.36936002 C65.8063046,6.36936002 56.4562921,5.66623081 54.4908456,5.25088678 C52.7814934,4.98850966 53.1671776,5.87416209 53.8572951,6.01779541 C54.4373641,6.13861334 61.3688798,7.48783326 64.8873478,7.55161268 C66.0598277,7.51998223 67.4225784,6.40099046 66.598757,6.36936002 Z M64.2219141,8.35067028 C63.1126865,8.22259291 55.7270919,7.04034026 53.7307907,6.49691886 C51.9247604,6.02505486 52.2888462,7.23530824 52.9383383,7.42405384 C53.5158361,7.59205816 59.8096873,9.13676459 61.2423754,9.21402584 C61.8498469,9.24623958 62.4589571,9.20480632 63.0566337,9.09061526 C65.0807042,8.68253068 64.2219141,8.35067028 64.2219141,8.35067028 Z M61.2423754,10.0125649 C60.449923,9.8528571 54.0156827,8.38230073 52.1772549,7.67969005 C51.2819534,7.3649412 51.0119745,8.25214923 51.5750734,8.5103781 C51.9237319,8.67008591 56.8682028,10.7473246 59.2136767,10.8754019 C60.0693813,10.8754019 61.6522291,10.4107974 61.2423754,10.0125649 Z M50.7507378,8.67008591 C50.6874856,8.79816329 50.1012457,9.21350731 49.8472084,9.34106615 C50.8947265,10.3703519 53.3651621,11.2845236 54.5762104,11.6760151 C54.7947647,11.7465355 57.945033,12.6145578 58.0972496,11.5940871 C58.1173052,11.4608244 57.8663534,11.3550439 57.628772,11.2912645 C55.9173628,10.9075509 51.4794237,9.02165052 50.7507378,8.67008591 Z M49.4193561,9.75692871 C49.1977162,9.88500608 48.7858055,10.1406423 48.5950204,10.2365707 C48.9755622,10.5881353 51.3241216,12.5072217 52.9326816,12.7587097 C54.3879965,13.1771649 55.172221,12.4045524 54.4270792,12.1541015 C53.0010763,11.7071271 49.8945189,10.0763443 49.4193561,9.75692871 Z M47.9619842,10.6202843 C47.7711991,10.7156941 47.3592884,10.8593275 47.201415,10.9080695 C48.0123802,12.0918777 48.9673342,12.7540429 49.7561869,13.0796809 C51.0248307,13.5442855 51.3025232,13.2647968 51.3097227,13.1175337 C51.3246358,12.8095258 50.6334898,12.4242566 50.3439695,12.2292887 C49.6420244,11.7569061 48.5358822,11.0164426 47.9619842,10.6202843 Z M46.5349528,11.0994077 C46.3292546,11.1953361 46.0757315,11.2591155 45.8535774,11.3228949 C46.0207072,11.9036506 46.4660439,12.4838878 46.9268079,12.9230843 C47.2523253,13.2331663 48.1573975,14.0436317 48.4448607,13.480506 C48.7107257,12.9604186 47.9393574,12.6363362 47.5927559,12.1862505 C47.2168424,11.8087593 46.8321867,11.3991191 46.5349528,11.0994077 Z M57.4294061,1.79291328 C56.6121564,1.79291328 53.8473748,1.98245555 52.8414898,1.98245555 C49.9512911,1.98245555 46.0409324,1.47017914 43.3536442,2.02497449 C41.6829472,2.36973652 41.4433294,2.85588683 41.4433294,3.37840877 C41.4433294,4.05819957 42.0082156,4.46648386 42.4089382,4.76155508 C42.8805264,5.10887848 44.3263905,5.96130643 44.389099,8.17177914 C44.7658598,8.01399801 45.3001565,7.91922687 44.9233957,7.12980892 C44.2647017,5.80659895 42.7851891,4.19497737 45.3164709,3.50852698 C45.715664,3.40043665 46.2076452,3.32974251 46.8092389,3.30925145 C48.662963,3.24624145 51.3512709,3.23240999 52.2623284,3.07462886 C53.173386,2.91684772 56.6131761,2.1095001 57.3355983,2.01524124 C57.6496506,1.98194327 57.6496506,1.82416214 57.4294061,1.79291328 Z M43.1284311,2.45705781 C42.1390023,2.94766756 41.7297141,3.46883989 42.7461764,4.18089427 C42.8699901,4.26775632 42.7164394,4.48383909 42.592085,4.39697704 C41.4745171,3.61414617 41.7151159,2.8018251 43.0094834,2.22059999 C43.1451919,2.15304061 43.2641396,2.38949843 43.1284311,2.45705781 Z M50.2642539,3.6818917 C49.6046111,3.6818917 47.5843914,3.66823175 46.9069066,3.70010496 C45.032991,3.78864164 43.6948439,4.69475131 45.0482841,6.39516147 C45.3133647,6.72755346 46.0219454,7.42421065 46.3048679,7.67363112 C46.5561847,7.86082296 47.0277222,7.54866792 46.6188864,7.08119426 C47.1536355,7.39284337 47.8132782,7.33061473 47.4992597,6.61372059 C47.9702875,6.98810426 48.7558435,7.01896562 48.2848158,6.05265101 C48.5988343,6.30207148 49.4786978,6.27121012 48.9128528,5.52244278 C49.3843903,5.67826733 49.9186296,5.39747958 49.5724956,4.93000591 C50.1699464,5.02410776 50.5155706,4.58698952 49.8865141,4.24447906 C50.4844746,4.39878584 50.6414839,3.71275306 50.2642539,3.6818917 Z M52.1080931,3.35051156 C51.6054595,3.38187884 51.1221973,3.4552378 51.1114921,3.65103034 C51.1007869,3.84176365 51.4713899,3.98241048 51.9352809,4.06791162 C52.1871074,4.11445662 53.413105,4.33756905 53.4396131,3.74664996 C53.4661211,3.15623679 52.3624684,3.33432199 52.1080931,3.35051156 Z M52.063743,4.36286524 C51.4678215,4.31783802 50.769946,4.29152998 50.769946,4.48327513 C50.769946,4.70284609 51.038595,4.97908053 51.5585607,5.10454965 C52.7437766,5.39039665 53.0975572,5.04636841 53.1449659,4.87637798 C53.2958579,4.33605128 52.3313724,4.3831022 52.063743,4.36286524 Z M51.3016364,5.24013725 C50.6970488,5.1414821 50.2127671,5.08886601 50.1357917,5.24469057 C49.8783577,5.76882771 51.5249158,6.22921844 51.7471757,6.2029104 C52.0841338,6.16294241 52.2829443,6.28487007 52.4124259,5.89935607 C52.5974725,5.34638127 51.4922905,5.27150453 51.3016364,5.24013725 Z M50.7556724,6.02381334 C50.3621298,5.86495325 49.953294,5.77439287 49.791187,6.03190813 C49.6617054,6.23731322 49.6688421,6.52771353 50.1954349,6.78320509 C51.2353663,7.2876112 51.73749,7.08777127 51.7874475,6.92587562 C51.8368953,6.76448591 51.8511688,6.46548489 50.7556724,6.02381334 Z M49.9879584,6.7665096 C49.3512552,6.54137347 48.8078401,6.48420408 48.7145521,6.70377504 C48.6115785,6.94560666 48.9857499,7.25017283 49.5607708,7.61342618 C50.5135315,8.2154756 50.8739391,7.96656105 50.9733444,7.73282421 C51.0635737,7.52134803 51.1288243,7.16113023 49.9879584,6.7665096 Z M49.5413996,7.90079094 C48.45304,7.24561952 48.1150623,7.23347734 48.0064812,7.39132559 C47.9014685,7.54462053 48.0207547,7.75407302 48.2058014,7.95340703 C48.4555888,8.22205261 49.4511702,9.10033646 49.7881284,8.60250737 C49.9767434,8.32475516 49.8406347,8.08089984 49.5413996,7.90079094 Z M47.7403811,7.98528023 C47.105717,7.66604226 46.9114946,8.10923158 47.2647654,8.51397069 C48.0702025,9.43778769 48.5519354,9.27639798 48.7563533,9.12259712 C48.9413999,8.98346805 49.0688425,8.65765307 47.7403811,7.98528023 Z M47.0766601,8.69053812 C45.7981562,7.68830291 45.3944181,8.42593993 46.6148082,9.59108263 C46.8253434,9.79142849 47.0766601,10.1147138 47.5058867,9.82026615 C48.0141277,9.47067275 47.3570338,9.00168131 47.0766601,8.69053812 Z M45.6111686,10.0085897 C46.0423957,10.411405 46.9037313,10.1405465 46.4154547,9.46794109 C45.5323061,8.24881046 45.1737891,8.68688544 45.1620436,8.70344682 C45.3650727,9.12282348 45.5160861,9.55929575 45.6111686,10.0085897 Z M45.6391341,12.0792954 C45.5468481,12.5868213 45.3812927,13.0793885 45.1514168,13.550052 C45.814757,14.3535456 47.0457958,13.6568996 46.5726205,13.091676 C46.3461004,12.8213517 46.0026848,12.4826449 45.6391341,12.0792954 Z" id="Combined-Shape"></path>
                </g>
            </g>
        </g>
    </g>
</svg>