<?xml version="1.0" encoding="UTF-8"?>
<svg width="41px" height="41px" viewBox="0 0 41 41" version="1.1" xmlns="http://www.w3.org/2000/svg" xmlns:xlink="http://www.w3.org/1999/xlink">
    <!-- Generator: Sketch 52.5 (67469) - http://www.bohemiancoding.com/sketch -->
    <title>bmw-logo-logo-svg-vector</title>
    <desc>Created with Sketch.</desc>
    <g id="Page-1" stroke="none" stroke-width="1" fill="none" fill-rule="evenodd" opacity="0.900000036">
        <g id="CMR-HOME-new" transform="translate(-266.000000, -341.000000)" fill="#FFFFFF">
            <g id="Group" transform="translate(104.000000, 339.000000)">
                <g id="bmw-logo-logo-svg-vector" transform="translate(162.356061, 2.400000)">
                    <path d="M19.9746342,39.9601603 C14.6393246,39.9601603 9.62328738,37.8817635 5.85052085,34.1080561 C2.07775432,30.3342685 -1.70530257e-13,25.3168737 -1.70530257e-13,19.9800401 C-1.70530257e-13,8.96296593 8.96054089,0 19.9746342,0 C25.3100239,0 30.3260612,2.07831663 34.0988277,5.85210421 C37.8715141,9.62589178 39.9493486,14.6432866 39.9493486,19.9800401 C39.9493486,25.3168737 37.8715141,30.3342685 34.0988277,34.1080561 C30.3259811,37.8817635 25.3100239,39.9601603 19.9746342,39.9601603 Z M0.691115564,19.9800401 C0.691115564,25.1321844 2.69698553,29.9759519 6.33920623,33.6192385 C9.98142692,37.2624449 14.8238839,39.2688577 19.9746342,39.2688577 C30.6075882,39.2688577 39.2581529,30.6159519 39.2581529,19.9800401 C39.2581529,14.8278958 37.2522829,9.98412826 33.6100622,6.34092184 C29.9679217,2.69763527 25.1253845,0.691302605 19.9746342,0.691302605 C14.8238839,0.691302605 9.98142692,2.69763527 6.33920623,6.34092184 C2.69698553,9.98412826 0.691115564,14.827976 0.691115564,19.9800401 Z" id="Combined-Shape"></path>
                    <path d="M19.9746342,1.48625251 C30.1855782,1.48625251 38.4634181,9.76633267 38.4634181,19.9800401 C38.4634181,30.1937475 30.1855782,38.4739078 19.9746342,38.4739078 C9.76369026,38.4739078 1.48585038,30.1937475 1.48585038,19.9800401 C1.48585038,9.76633267 9.76369026,1.48625251 19.9746342,1.48625251 Z M19.9746342,31.7932665 C26.4971175,31.7932665 31.7846645,26.5042886 31.7846645,19.9800401 C31.7846645,13.4558717 26.4970374,8.16681363 19.9746342,8.16681363 C13.4522311,8.16681363 8.16460399,13.4558717 8.16460399,19.9800401 C8.16460399,26.5042886 13.4522311,31.7932665 19.9746342,31.7932665 Z M11.2957005,8.70885772 C10.9042233,8.32825651 10.2990965,8.21354709 9.7309937,8.5658517 C9.83950141,8.28456914 9.79518474,7.99751503 9.73756507,7.83911824 C9.49282168,7.39270541 9.4073939,7.33683367 9.20568496,7.16753507 C8.55271539,6.61947896 7.86552662,7.08737475 7.37403638,7.67326653 L4.99936843,10.5039679 L8.73230606,13.6371944 L11.2365582,10.652024 C11.808748,9.96993988 11.8972211,9.29370741 11.2957005,8.70885772 Z M20.5932243,7.36376754 L21.875202,3.96488978 L21.875202,7.36376754 L22.8495275,7.36376754 L22.8495275,2.4959519 L21.3856351,2.4959519 L20.0541317,5.98124248 L20.0679156,5.98124248 L18.7364122,2.4959519 L17.2726,2.4959519 L17.2726,7.36376754 L18.2468453,7.36376754 L18.2468453,3.96488978 L19.5289032,7.36376754 L20.5932243,7.36376754 Z M33.6926852,9.38893788 L32.8848877,8.3911022 L29.9631935,9.64577154 L31.8750608,7.14412826 L31.1220782,6.21402806 L28.0690368,10.1422044 L28.9613804,11.2355912 L31.8454897,10.0484168 L31.8559077,10.0613226 L30.0953421,12.6363126 L30.9790308,13.7366733 L35.455094,11.5663327 L34.7021114,10.6362325 L31.8583119,11.9866934 L33.6926852,9.38893788 Z M7.89293403,8.37386774 C8.05817989,8.17683367 8.43162591,8.18492986 8.67180139,8.38645291 C8.93585819,8.60809619 8.9364993,8.92232465 8.7591525,9.13362725 L7.34895299,10.8146693 L6.46662665,10.0740681 L7.89293403,8.37386774 Z M10.4019945,10.3569539 L8.91518242,12.1292986 L7.98284957,11.3467735 L9.48168241,9.56 C9.6509352,9.35823647 10.028308,9.29947896 10.2828283,9.51318637 C10.5709267,9.75486974 10.5994561,10.1216032 10.4019945,10.3569539 Z" id="Combined-Shape"></path>
                    <path d="M8.92439836,19.9800401 L19.9746342,19.9800401 L19.9746342,8.92681363 C13.871837,8.92681363 8.92439836,13.8756713 8.92439836,19.9800401 Z M19.9746342,19.9800401 L19.9746342,31.0333467 C26.0774315,31.0333467 31.0248701,26.0845691 31.0248701,19.9800401 L19.9746342,19.9800401 Z" id="Shape" fill-rule="nonzero"></path>
                </g>
            </g>
        </g>
    </g>
</svg>