<?xml version="1.0" encoding="UTF-8"?>
<svg width="72px" height="17px" viewBox="0 0 72 17" version="1.1" xmlns="http://www.w3.org/2000/svg" xmlns:xlink="http://www.w3.org/1999/xlink">
    <!-- Generator: Sketch 52.5 (67469) - http://www.bohemiancoding.com/sketch -->
    <title>ferrari-2-logo-svg-vector</title>
    <desc>Created with Sketch.</desc>
    <g id="Page-1" stroke="none" stroke-width="1" fill="none" fill-rule="evenodd" opacity="0.900000036">
        <g id="CMR-HOME-new" transform="translate(-325.000000, -353.000000)" fill="#FFFFFF">
            <g id="Group" transform="translate(104.000000, 339.000000)">
                <g id="ferrari-2-logo-svg-vector" transform="translate(220.740260, 14.400000)">
                    <path d="M0.303237082,15.6889756 L0.303237082,14.1654634 L1.13369318,14.1654634 C1.54872979,14.1654634 2.37956877,14.0807805 2.37956877,13.0649756 L2.37956877,3.92312195 C2.37956877,3.37287805 2.33783538,2.06087805 1.29986098,2.06087805 L0.344970468,2.06087805 L1.42467826,0.11395122 L65.3070064,0.11395122 L65.3070064,2.06087805 L6.53223214,2.06087805 C5.99237825,2.06087805 5.28635656,2.18770732 5.28635656,3.28819512 L5.28635656,6.1662439 C5.41117384,6.50458537 5.90929435,6.63141463 6.15854604,6.63141463 C6.40779773,6.63141463 7.27960435,6.58926829 7.27960435,5.19258537 L8.52547993,5.19258537 L8.52547993,9.89073171 L7.27960435,9.89073171 C7.27960435,9.46731707 6.82091997,8.7582439 6.20027943,8.70556098 C5.70177604,8.66341463 5.28635656,8.83239024 5.28635656,9.50985366 L5.28635656,13.0649756 C5.28635656,13.4462439 5.74312655,14.1654634 6.82283435,14.1654634 L7.57058942,14.1654634 L7.57058942,15.6889756 L0.303237082,15.6889756 Z M37.1695151,4.26146341 C37.1695151,4.60019512 37.5845517,4.93853659 37.8334205,5.02321951 C38.1244056,4.81170732 39.6608834,3.92312195 40.8650256,3.92312195 C42.0691678,3.92312195 42.6917227,4.55765854 42.6917227,5.53131707 L42.6917227,10.1869268 L39.7849349,10.1869268 L39.7849349,6.58965854 C39.7849349,6.12409756 39.6608834,5.78536585 39.245081,5.74321951 C38.8300444,5.70107317 37.7503366,6.58965854 37.4601173,7.01307317 L37.4601173,13.4462439 C37.4601173,14.0390244 38.0413217,14.4620488 38.5398251,14.4620488 L38.5398251,15.6897561 L33.4740046,15.6897561 L33.4740046,14.4199024 C33.9721251,14.4199024 34.511979,14.2505366 34.5537124,13.4887805 L34.5537124,6.33521951 C34.5537124,6.12370732 34.2213768,5.53092683 33.4740046,5.53092683 L33.4740046,4.26146341 L37.1695151,4.26146341 Z M71.9341916,4.26146341 L71.9341916,5.53131707 C71.3943377,5.53131707 70.8544838,5.91219512 70.8544838,6.41990244 L70.8544838,13.4458537 C70.8544838,14.0386341 71.4360711,14.4616585 71.9341916,14.4616585 L71.9341916,15.6893659 L66.868754,15.6893659 L66.868754,14.4195122 C67.3664916,14.4195122 67.9067284,14.2501463 67.947696,13.4883902 L67.947696,6.33560976 C67.947696,6.12370732 67.6157433,5.53131707 66.868754,5.53131707 L66.868754,4.26146341 L71.9341916,4.26146341 Z M25.9577834,4.26146341 C25.9577834,4.60019512 26.37282,4.93853659 26.6220717,5.02321951 C26.9126739,4.81170732 28.4491517,3.92312195 29.6532939,3.92312195 C30.8574361,3.92312195 31.4803739,4.55765854 31.4803739,5.53131707 L31.4803739,10.1869268 L28.573969,10.1869268 L28.573969,6.58965854 C28.573969,6.12409756 28.4491517,5.78536585 28.0341151,5.74321951 C27.6186956,5.70107317 26.5389878,6.58965854 26.2483856,7.01307317 L26.2483856,13.4462439 C26.2483856,14.0390244 26.8299729,14.4620488 27.3280934,14.4620488 L27.3280934,15.6897561 L22.2622729,15.6897561 L22.2622729,14.4199024 C22.7603934,14.4199024 23.3002473,14.2505366 23.3419807,13.4887805 L23.3419807,6.33521951 C23.3419807,6.12370732 23.0096451,5.53092683 22.2622729,5.53092683 L22.2622729,4.26146341 L25.9577834,4.26146341 Z M59.6423693,4.26146341 C59.6423693,4.60019512 60.0581716,4.93853659 60.3070404,5.02321951 C60.5980255,4.81170732 62.1337376,3.92312195 63.3386455,3.92312195 C64.5427877,3.92312195 65.1653426,4.55765854 65.1653426,5.53131707 L65.1653426,10.1869268 L62.2585548,10.1869268 L62.2585548,6.58965854 C62.2585548,6.12409756 62.1337376,5.78536585 61.718701,5.74321951 C61.3036643,5.70107317 60.2239565,6.58965854 59.9329715,7.01307317 L59.9329715,13.4462439 C59.9329715,14.0390244 60.5141759,14.4620488 61.0126793,14.4620488 L61.0126793,15.6897561 L55.9464759,15.6897561 L55.9464759,14.4199024 C56.4453622,14.4199024 56.985216,14.2505366 57.0261837,13.4887805 L57.0261837,6.33521951 C57.0261837,6.12370732 56.694231,5.53092683 55.9464759,5.53092683 L55.9464759,4.26146341 L59.6423693,4.26146341 Z M20.0695472,12.1338537 C20.0695472,12.1338537 20.3187989,14.1654634 19.1142738,15.0540488 C17.9097487,15.9426341 16.2488365,15.9004878 15.750716,15.9004878 C15.2522126,15.9004878 12.8435454,15.9004878 12.0548226,15.0961951 C11.2660999,14.2919024 11.0168482,13.4029268 11.0168482,12.1334634 L11.0168482,7.35102439 C11.0168482,6.50458537 11.2660999,5.36195122 11.9303882,4.81170732 C12.5946765,4.26146341 13.3424316,3.92312195 15.6676321,3.92312195 C16.5811721,3.92312195 18.6161533,4.09209756 19.1973577,4.68487805 C19.778945,5.27726829 20.0695472,5.70068293 20.0695472,7.09736585 L20.0695472,10.1869268 L14.3807889,10.1869268 C14.0901867,10.1869268 13.9240189,10.4835122 13.9240189,10.6950244 L13.9240189,13.1075122 C13.9240189,13.7845854 14.3390555,14.7160976 15.7093655,14.7160976 C17.0796755,14.7160976 17.1627594,13.7420488 17.1627594,13.276878 L17.1627594,12.1338537 L20.0695472,12.1338537 Z M13.9240189,6.88585366 L13.9240189,8.45190244 C13.9240189,8.70556098 14.1732706,8.91707317 14.4221394,8.91707317 L16.6646389,8.91707317 C16.9552411,8.91707317 17.1627594,8.66302439 17.1627594,8.40936585 L17.1627594,6.88585366 C17.1627594,6.29346341 17.038325,5.19297561 15.5849311,5.19297561 C14.1315372,5.19297561 13.9240189,6.20878049 13.9240189,6.88585366 Z M53.3727894,13.4458537 C53.3727894,14.0386341 53.9539939,14.4616585 54.4517315,14.4616585 L54.4517315,15.6893659 L48.6381559,15.6893659 C46.188521,15.6893659 45.9392693,15.2659512 45.3994154,14.8850732 C44.8591786,14.5038049 44.4024086,13.7841951 44.4024086,11.9223415 C44.4024086,10.0600976 44.9843788,9.72136585 45.6482842,9.21365854 C46.3121897,8.70556098 50.0915498,8.62087805 50.0915498,8.62087805 C50.2986852,8.62087805 50.464853,8.36721951 50.464853,8.19746341 L50.464853,6.3777561 C50.464853,6.01795122 50.3534364,5.69639024 50.0708746,5.44663415 C49.3028271,4.76956098 48.3081176,5.19063415 47.9321342,5.57385366 C47.5580652,5.95473171 47.3719879,7.39356098 47.3719879,7.39356098 L44.6516603,7.39356098 C44.6516603,6.97053659 44.4858754,5.91258537 45.4407659,4.81209756 C46.3964222,3.71160976 48.472371,3.71160976 49.0953088,3.71160976 C49.7182466,3.71160976 51.3378083,3.66907317 52.3340493,4.38868293 C53.3310561,5.10829268 53.3727894,6.12370732 53.3727894,7.09736585 L53.3727894,13.4458537 Z M50.4656188,14.1654634 L50.4656188,10.7153171 C50.4656188,10.3555122 50.3411844,9.80565854 49.6975713,9.80565854 C49.0539583,9.80565854 47.4347795,9.7635122 47.4347795,11.3502439 L47.4347795,12.9799024 C47.4347795,13.5305366 47.7249988,14.419122 48.7426808,14.419122 L50.1753995,14.419122 C50.299451,14.419122 50.4656188,14.2712195 50.4656188,14.1654634 Z M69.210801,2.03980488 C67.7570242,2.03980488 66.5785346,1.58907317 66.5785346,1.0337561 C66.5785346,0.47804878 67.7570242,0.0277073171 69.210801,0.0277073171 C70.6645777,0.0277073171 71.8423016,0.478439024 71.8423016,1.0337561 C71.8423016,1.58946341 70.6645777,2.03980488 69.210801,2.03980488 Z" id="Combined-Shape"></path>
                </g>
            </g>
        </g>
    </g>
</svg>