<?xml version="1.0" encoding="UTF-8"?>
<svg width="71px" height="36px" viewBox="0 0 71 36" version="1.1" xmlns="http://www.w3.org/2000/svg" xmlns:xlink="http://www.w3.org/1999/xlink">
    <!-- Generator: Sketch 52.5 (67469) - http://www.bohemiancoding.com/sketch -->
    <title>jaguar-cars-logo-svg-vector</title>
    <desc>Created with Sketch.</desc>
    <g id="Page-1" stroke="none" stroke-width="1" fill="none" fill-rule="evenodd" opacity="0.900000036">
        <g id="CMR-HOME-new" transform="translate(-416.000000, -343.000000)">
            <g id="Group" transform="translate(104.000000, 339.000000)">
                <g id="jaguar-cars-logo-svg-vector" transform="translate(311.915584, 4.000000)">
                    <path d="M44.5807309,31.4862482 C44.1581825,33.2396496 42.8363512,33.978219 40.6235531,33.978219 C39.1217426,33.978219 37.8006991,33.6764672 37.1211378,32.9946569 C36.3842387,32.2715036 36.2732399,31.2738394 36.2732399,30.2076788 L36.2732399,24.9791825 L37.9546793,24.9792701 L37.9546793,30.1182482 C37.9546793,31.2791825 38.0500963,31.9715912 38.5034582,32.4815474 C39.0181846,33.0794453 39.9074006,33.254365 40.6573429,33.254365 C42.2435405,33.254365 43.3002177,32.740292 43.5870814,31.3437372 C43.653348,31.0220146 43.7049082,30.627854 43.7049082,30.0193577 L43.7049082,24.9791825 L44.739876,24.9791825 L44.7398759,29.6671533 C44.7399634,30.5425401 44.6893661,31.0369051 44.5807309,31.4862482" id="Path" fill="#FFFFFF"></path>
                    <path d="M44.5807309,31.4862482 C44.1581825,33.2396496 42.8363512,33.978219 40.6235531,33.978219 C39.1217426,33.978219 37.8006991,33.6764672 37.1211378,32.9946569 C36.3842387,32.2715036 36.2732399,31.2738394 36.2732399,30.2076788 L36.2732399,24.9791825 L37.9546793,24.9792701 L37.9546793,30.1182482 C37.9546793,31.2791825 38.0500963,31.9715912 38.5034582,32.4815474 C39.0181846,33.0794453 39.9074006,33.254365 40.6573429,33.254365 C42.2435405,33.254365 43.3002177,32.740292 43.5870814,31.3437372 C43.653348,31.0220146 43.7049082,30.627854 43.7049082,30.0193577 L43.7049082,24.9791825 L44.739876,24.9791825 L44.7398759,29.6671533 C44.7399634,30.5425401 44.6893661,31.0369051 44.5807309,31.4862482" id="Path"></path>
                    <path d="M53.1004152,26.6484088 L51.1528587,30.711854 L54.9518544,30.711854 L53.1004152,26.6484088 Z M56.3383767,33.7831533 L55.2296141,31.3104526 L50.8653823,31.3104526 L49.6777475,33.7831533 L48.6105656,33.7831533 L52.9996584,24.9790073 L54.0454808,24.9790073 L58.3401195,33.7831533 L56.3383767,33.7831533 Z" id="Shape" fill="#FFFFFF" fill-rule="nonzero"></path>
                    <path d="M53.1004152,26.6484088 L51.1528587,30.711854 L54.9518544,30.711854 L53.1004152,26.6484088 Z M56.3383767,33.7831533 L55.2296141,31.3104526 L50.8653823,31.3104526 L49.6777475,33.7831533 L48.6105656,33.7831533 L52.9996584,24.9790073 L54.0454808,24.9790073 L58.3401195,33.7831533 L56.3383767,33.7831533 Z" id="Shape"></path>
                    <path d="M13.044024,26.6484088 L11.0980432,30.711854 L14.8979144,30.711854 L13.044024,26.6484088 Z M16.2835612,33.7831533 L15.1764619,31.3104526 L10.8112671,31.3104526 L9.62205662,33.7831533 L8.55540002,33.7831533 L12.9445803,24.9790073 L13.9896149,24.9790073 L18.2860044,33.7831533 L16.2835612,33.7831533 Z" id="Shape" fill="#FFFFFF" fill-rule="nonzero"></path>
                    <path d="M13.044024,26.6484088 L11.0980432,30.711854 L14.8979144,30.711854 L13.044024,26.6484088 Z M16.2835612,33.7831533 L15.1764619,31.3104526 L10.8112671,31.3104526 L9.62205662,33.7831533 L8.55540002,33.7831533 L12.9445803,24.9790073 L13.9896149,24.9790073 L18.2860044,33.7831533 L16.2835612,33.7831533 Z" id="Shape"></path>
                    <path d="M27.44542,33.9774307 C24.5397547,33.9774307 21.7782652,32.9772263 21.7782652,29.596292 C21.7782652,28.4975474 22.265592,27.3713869 23.0016157,26.5652847 C24.1552856,25.3122044 25.907106,24.8124964 27.5614086,24.8124964 C28.561711,24.8124964 29.7204581,25.0395328 30.6220171,25.4981606 L30.6220171,26.5438248 C29.8049327,25.9341022 28.7291721,25.5136642 27.6801108,25.5136642 C25.2898721,25.5136642 23.6414346,27.0098102 23.6414346,29.4851387 C23.6414346,31.725635 25.0960618,33.2591825 27.3336334,33.2591825 C27.9030713,33.2591825 28.6911804,33.1578394 29.2332188,32.9498978 L29.2332188,29.7356496 L30.9146583,29.7356496 L30.9146583,33.3247007 C29.9282745,33.7691387 28.5284463,33.9774307 27.44542,33.9774307" id="Path" fill="#FFFFFF"></path>
                    <path d="M27.44542,33.9774307 C24.5397547,33.9774307 21.7782652,32.9772263 21.7782652,29.596292 C21.7782652,28.4975474 22.265592,27.3713869 23.0016157,26.5652847 C24.1552856,25.3122044 25.907106,24.8124964 27.5614086,24.8124964 C28.561711,24.8124964 29.7204581,25.0395328 30.6220171,25.4981606 L30.6220171,26.5438248 C29.8049327,25.9341022 28.7291721,25.5136642 27.6801108,25.5136642 C25.2898721,25.5136642 23.6414346,27.0098102 23.6414346,29.4851387 C23.6414346,31.725635 25.0960618,33.2591825 27.3336334,33.2591825 C27.9030713,33.2591825 28.6911804,33.1578394 29.2332188,32.9498978 L29.2332188,29.7356496 L30.9146583,29.7356496 L30.9146583,33.3247007 C29.9282745,33.7691387 28.5284463,33.9774307 27.44542,33.9774307" id="Path"></path>
                    <path d="M65.5392856,25.5903066 L64.3028043,25.5903066 L64.3028043,29.8021314 L65.3842549,29.8021314 C66.2909787,29.8021314 66.8331921,29.6328175 67.2557405,29.2920876 C67.7017491,28.9337518 67.9685665,28.3841168 67.9685665,27.6411679 C67.9683914,26.1533431 66.8877286,25.5903066 65.5392856,25.5903066 Z M68.3969799,33.7831533 L66.0654795,30.4023942 L64.3028043,30.4023942 L64.3028043,33.7831533 L62.6204019,33.7832409 L62.6204019,24.9791825 L65.8027765,24.9791825 C67.0939693,24.9791825 68.3861251,25.1665401 69.1055165,25.9618686 C69.4817569,26.3774015 69.6864219,26.9554161 69.6864219,27.6991533 C69.6864219,29.0598832 68.661171,29.8841168 67.7479694,30.2083796 L70.3336816,33.7832409 L68.3969799,33.7831533 Z" id="Shape" fill="#FFFFFF" fill-rule="nonzero"></path>
                    <path d="M65.5392856,25.5903066 L64.3028043,25.5903066 L64.3028043,29.8021314 L65.3842549,29.8021314 C66.2909787,29.8021314 66.8331921,29.6328175 67.2557405,29.2920876 C67.7017491,28.9337518 67.9685665,28.3841168 67.9685665,27.6411679 C67.9683914,26.1533431 66.8877286,25.5903066 65.5392856,25.5903066 Z M68.3969799,33.7831533 L66.0654795,30.4023942 L64.3028043,30.4023942 L64.3028043,33.7831533 L62.6204019,33.7832409 L62.6204019,24.9791825 L65.8027765,24.9791825 C67.0939693,24.9791825 68.3861251,25.1665401 69.1055165,25.9618686 C69.4817569,26.3774015 69.6864219,26.9554161 69.6864219,27.6991533 C69.6864219,29.0598832 68.661171,29.8841168 67.7479694,30.2083796 L70.3336816,33.7832409 L68.3969799,33.7831533 Z" id="Shape"></path>
                    <path d="M1.4486746,35.5929635 C1.0045918,35.8018686 0.518052831,35.9402628 0.0174201611,35.9402628 C1.17021464,35.106219 1.65754146,34.2578102 1.82412722,32.8530219 C1.92190772,32.0735474 1.92190772,31.2939854 1.92190772,30.5152993 L1.92190772,24.9792701 L3.60431015,24.9792701 L3.60431012,31.6423358 C3.60448519,33.2692555 2.97867247,34.8423942 1.4486746,35.5929635" id="Path" fill="#FFFFFF"></path>
                    <path d="M1.4486746,35.5929635 C1.0045918,35.8018686 0.518052831,35.9402628 0.0174201611,35.9402628 C1.17021464,35.106219 1.65754146,34.2578102 1.82412722,32.8530219 C1.92190772,32.0735474 1.92190772,31.2939854 1.92190772,30.5152993 L1.92190772,24.9792701 L3.60431015,24.9792701 L3.60431012,31.6423358 C3.60448519,33.2692555 2.97867247,34.8423942 1.4486746,35.5929635" id="Path"></path>
                    <path d="M12.0254261,1.47626277 C12.6295293,1.49448175 13.1483699,1.26893431 13.1501207,1.23661314 C13.1517839,1.20429197 12.481239,1.14043796 12.481239,1.14043796 C11.8671565,1.16610219 11.6167964,1.39410219 11.6134699,1.42072993 C11.6093556,1.44630657 11.7734903,1.46785401 12.0254261,1.47626277" id="Path" fill="#FFFFFF"></path>
                    <path d="M7.9189076,2.51693431 C7.9189076,2.51693431 7.95541116,2.38835036 7.97116809,2.36023358 C7.98692502,2.33115328 8.07481367,2.03430657 8.49902523,2.0019854 C8.49902523,2.0019854 8.71279424,1.98289051 8.95904004,2.05918248 C8.95904004,2.05918248 8.81731521,2.42487591 8.23728512,2.48540146 C8.23719758,2.48540146 8.0091598,2.51947445 7.9189076,2.51693431 Z M64.7164237,19.0035328 C64.5723353,19.359854 63.9548388,19.8137518 63.2296699,20.0564672 C62.4639706,20.3125839 60.86508,20.3192409 60.0472953,20.0473577 C60.0472953,20.0473577 59.874932,19.8598248 59.299629,19.6907737 C57.9620407,19.2970511 57.529513,19.0225401 56.850652,18.389781 C56.370941,17.9428905 55.8427337,17.3823066 55.3308086,16.8539562 C55.1028583,16.6185109 54.5483895,16.0628321 53.5738234,15.8936934 C52.5570637,15.7178978 50.0615162,15.5271241 49.1425371,15.202073 C48.5242527,14.9823942 47.7914679,14.5652847 46.8717884,13.1887007 C46.430857,12.5278248 46.0968101,12.3353869 45.4603177,11.9290511 C45.4603177,11.9290511 45.9460688,12.3129635 46.2014186,12.7790365 C46.5701308,13.4557664 46.7466959,13.9425985 46.9480345,14.3023358 C47.1508612,14.6647883 47.3856394,14.9874745 47.7519005,15.281781 C48.2060502,15.6466861 48.4994793,15.7270949 49.0124549,15.8307153 C49.5030206,15.9303066 51.1779822,16.004146 52.6151018,16.0604672 C54.0280606,16.1152117 54.6322514,16.5530803 55.0739706,16.923854 C55.4800617,17.2670365 56.1273214,18.2474453 56.5815586,18.6486131 C57.1889007,19.1827445 57.2047452,19.1901898 57.9100429,19.6329635 C58.2663246,19.8567591 58.5805002,20.0033869 58.869815,20.1073577 C59.5170746,20.487854 59.2493819,21.152146 59.2493819,21.152146 C59.0638003,21.6813723 58.3958815,21.8710073 57.6160011,21.7606423 C56.4373827,21.6564088 55.4229866,20.6727591 54.5660723,19.9670365 C54.0945024,19.5780438 53.9278291,19.3839416 53.0186542,18.7519708 C51.6354584,17.7918832 48.385154,17.8714161 48.385154,17.8714161 L46.0032315,17.856438 C41.3637786,17.9244963 39.6663196,14.1895182 39.2031534,13.4057518 C39.0432206,13.1329927 38.8949303,12.9132263 38.7539058,12.7332263 C38.5375982,12.4412847 37.3733362,10.9205255 36.1259126,10.3773723 C36.1259126,10.3773723 37.3234392,11.413927 37.2033364,11.9811679 C36.9464109,11.9778394 36.6546451,11.9943942 36.3065045,12.0043796 C31.6323864,12.1412847 30.6610592,11.8824526 29.922672,11.7348613 C29.1833218,11.5863942 27.9443895,11.2182482 26.7402974,10.6634453 C26.7402974,10.6634453 26.8745815,9.51083212 26.3963587,8.5530219 C26.3963587,8.5530219 30.2543554,9.91629197 33.3238928,9.52992701 C33.3238928,9.52992701 28.3696515,9.28773723 25.2792799,6.82335766 C25.2792799,6.82335766 26.0418278,9.42805839 25.4392127,10.5218102 C25.4392127,10.5218102 24.6271181,12.507854 20.4624741,11.1826861 C20.4624741,11.1826861 18.5471317,10.4371971 17.0578393,10.4371971 C17.0578393,10.4371971 15.9365586,10.4836204 15.8024497,11.068292 C15.8024497,11.068292 15.729355,11.347708 16.0219962,11.4804088 C16.0219962,11.4804088 16.3468516,11.5733431 16.1934841,11.8145693 C15.9407605,12.2134599 15.5899937,12.5219562 15.2420282,12.696 C14.0801297,12.6388029 14.1662676,11.6843212 14.1662676,11.6843212 C14.1870142,11.3459562 14.2964373,11.109635 14.3999954,10.8766423 C15.1300665,9.24218978 17.6959074,9.0049927 17.6959074,9.0049927 C20.425883,8.73223358 23.287604,9.38811679 23.287604,9.38811679 C21.2405162,8.89962044 20.5444101,8.54137226 19.9592152,8.0529635 C19.1710186,7.39454015 18.4343821,5.18216058 18.4343821,5.18216058 C18.120294,6.26680292 18.5090525,7.36309489 18.7717555,7.92613139 C18.3837849,7.30668613 17.8310668,6.78350365 17.3379624,6.38785401 C16.0774081,5.37687591 14.2474158,5.05024817 14.2474158,5.05024817 C13.7185957,4.95976642 13.508941,4.41170803 13.508941,4.41170803 C12.8309553,3.16283212 12.0635929,3.1039708 12.0635929,3.1039708 C12.441409,3.62224817 12.4016665,4.33129927 12.4016665,4.33129927 C12.4016665,5.63824817 10.7218903,6.072 10.7218903,6.072 C9.46536271,7.32166423 9.24747939,7.2950365 9.00210898,7.31334307 C8.75673857,7.33077372 8.5753588,7.07614598 8.5753588,7.07614598 C8.49569877,6.95667153 8.62831959,6.84972263 8.62831959,6.84972263 C8.84042537,6.7170219 9.04106361,6.54376642 9.04106361,6.54376642 C10.2659898,5.55941606 10.4383531,5.05611679 10.3389094,4.36940146 C10.1391465,2.99772263 9.03362284,3.0989781 9.03362284,3.0989781 C8.51390678,3.0989781 8.25706882,3.49532847 8.25706882,3.49532847 C8.05651812,3.73418978 7.61803779,4.48125547 7.61803779,4.48125547 C7.23181793,5.11988321 6.88630348,5.02607299 6.88630348,5.02607299 C6.46034115,5.05348905 6.15203056,4.67527007 6.15203056,4.67527007 C6.13539825,4.66046715 6.12296778,4.6429489 6.10896162,4.62805839 C5.7932978,4.28881752 6.06501729,3.87924088 6.06501729,3.87924088 C6.5848209,2.96040876 7.48139019,2.87010219 7.60324378,2.86256934 C7.72579768,2.85512409 8.13941708,2.82437956 8.13941708,2.82437956 C9.15197489,2.75062774 9.81341578,1.7820438 9.81341578,1.7820438 C9.3866656,1.57559124 8.62429282,1.68508029 8.62429282,1.68508029 C7.88170374,1.73483212 7.6860552,2.52341606 7.68447951,2.52341606 C7.04133416,2.6180146 7.07363587,2.12373723 7.21124639,1.99357664 C7.31979412,1.86586861 7.70259998,1.24554744 10.1648828,0.875737226 C10.1648828,0.875737226 11.4710448,0.6169927 13.7907274,0.871620437 C13.8760775,0.880729926 13.9588889,0.955445255 13.8495533,1.08472993 C13.5577875,1.42729927 12.6453737,2.18680292 11.18173,1.81944525 C11.18173,1.81944525 11.1552934,2.40490511 12.7514704,2.69763504 C12.7514704,2.69763504 14.191041,3.00437956 16.5413621,4.89345985 C16.5413621,4.89345985 15.4018735,2.78470073 13.4319071,2.1419562 C13.4319071,2.1419562 13.2859805,2.04910949 13.4186013,1.91562044 C13.4186013,1.91562044 14.3508863,1.07964963 15.9959973,1.16759124 C15.9959973,1.16759124 21.4359897,1.44709489 24.4941471,4.64049635 C24.4941471,4.64049635 24.388138,4.10811679 23.9223457,3.33608759 C23.9223457,3.33608759 23.8286795,3.2440292 23.8825156,3.17693431 C23.8825156,3.17693431 23.9223457,3.04335766 24.4544046,3.15030657 C24.4544046,3.15030657 26.3961836,3.46966423 30.9037159,5.11979562 C30.9037159,5.11979562 34.2826144,6.30481752 36.1250372,7.06940146 C38.8947553,8.21789781 45.8337569,11.0341314 50.2164594,13.4613723 C50.9988785,13.8942482 54.2583744,15.5054891 54.2583744,15.5054891 C56.694921,17.0188029 58.9367819,18.1143066 58.9367819,18.1143066 C61.1445904,19.1351825 62.7498714,18.6674453 62.7498714,18.6674453 C63.2627594,18.4741314 64.2425778,17.941927 64.6245083,18.3198832 C64.8191064,18.5133723 64.8306615,18.7652847 64.7164237,19.0035328 Z M65.2658153,18.1468029 C64.9772009,17.474365 64.0482424,17.6392993 64.0482424,17.6392993 C63.6233305,17.6650511 63.0871572,18.1101898 62.341942,18.263562 C60.7391121,18.5944818 59.513398,18.0489635 59.513398,18.0489635 C57.1516093,16.9908613 55.5528062,15.8381606 54.5126738,15.2427153 C53.4727164,14.6473577 49.6231234,12.6239124 45.7726551,10.6876204 C45.7726551,10.6876204 41.3619403,8.42540146 34.8362079,5.72610219 C34.8362079,5.72610219 22.2456333,0.00998540088 13.1898632,0.00998540088 C13.1898632,0.00998540088 8.49911277,-0.0489635042 6.91046411,1.75725547 C6.91046411,1.75725547 6.63034091,1.98945985 6.76698851,2.27553285 C6.76698851,2.27553285 6.7860719,2.35436496 6.72724603,2.40490511 C6.72724603,2.40490511 6.02860128,2.86432117 5.4599512,3.52353285 C5.4599512,3.52353285 5.15514215,3.83535766 5.40024994,4.30055474 C5.40024994,4.30055474 5.70357084,4.82960584 5.89510507,5.05690511 C6.088215,5.28324088 6.47434731,5.67967883 7.06435679,5.62081752 C7.32539659,5.59427737 7.33283736,5.52884671 7.33283736,5.52884671 C7.60385655,5.80248175 8.07708967,5.8190365 8.07708967,5.8190365 C8.02981888,5.65077372 7.84913942,5.31731387 7.83338249,5.12329927 C7.81596233,4.90607299 7.90043698,4.70452555 7.90043698,4.70452555 C7.99909287,4.46566423 8.18397418,4.16960584 8.37218195,4.0220146 C8.53955556,3.8909781 8.95466311,3.7550365 9.26463693,3.97226277 C9.51342135,4.14648175 9.77761253,4.70452555 9.47936887,5.43924088 C9.47936887,5.43924088 9.14374627,6.01970803 8.83377245,6.08435036 L8.7477221,6.08846715 C8.57028157,6.08513869 8.17504525,5.86712409 8.17504525,5.86712409 C8.17504525,5.86712409 8.15850047,5.91442336 8.20235726,6.11430657 C8.22800604,6.22782482 8.26450959,6.3539562 8.29523561,6.45091971 L8.2131245,6.51722628 C8.2131245,6.51722628 7.96363978,6.7179854 8.07393828,7.00738686 C8.07393828,7.00738686 8.31677008,7.92122628 8.99466821,7.92122628 C9.59395676,7.94119708 10.0927511,7.37229197 10.0927511,7.37229197 C11.378254,5.98493431 13.1898632,5.79836496 13.1898632,5.79836496 C15.1978213,5.66145985 18.0672457,7.71889051 18.8487018,8.31267153 C15.8751066,8.28035036 14.6750413,9.42218978 14.6750413,9.42218978 C13.0001673,10.7266861 13.6522415,12.3006131 13.6522415,12.3006131 C13.7741827,12.6430073 14.117246,12.8926423 14.3360923,12.9888175 C14.6516686,13.1264234 14.9112202,13.1322044 15.1557152,13.1048759 C15.3322804,13.085781 15.5260031,13.0202628 15.624659,12.952292 C15.8526092,12.8178394 16.2594882,12.5517372 16.4559245,12.2689051 C16.5869697,12.1270949 16.7186276,11.779708 16.6316143,11.4487883 C16.6316143,11.4487883 16.5787411,11.1825985 16.8181588,11.1286423 C16.8181588,11.1286423 17.6061804,10.9288467 19.1975428,11.6321168 C19.1975428,11.6321168 20.9263406,12.6404672 23.1689018,12.8403504 C23.1689018,12.8403504 25.7190733,13.0990949 26.3349067,11.7175182 C26.3349067,11.7175182 27.8000385,12.3170803 29.9441189,12.5625985 C29.9441189,12.5625985 32.0333127,12.7789489 35.4222781,12.5236204 C36.0892339,12.4729927 36.8724409,12.5286131 36.8724409,12.5286131 C37.9573055,12.6587737 38.6468462,13.223562 38.9186533,13.6655474 C40.0293417,15.469927 41.354412,19.0101022 46.7803982,18.8700438 L49.2360282,18.8025985 C50.7287347,18.8025985 51.9442942,18.8151241 53.1377941,19.4535766 C53.6589983,19.7330803 55.0358038,21.1003796 55.8834391,21.5622482 C58.3937806,23.2549489 59.8440309,22.4680292 59.8440309,22.4680292 C60.6984942,21.9697226 60.6313522,21.0830365 60.4232732,20.5865693 C60.1663477,20.5050219 63.5336035,21.0805839 64.9692349,19.194219 C65.3088843,18.7736934 65.3684104,18.3882044 65.2658153,18.1468029 Z" id="Shape" fill="#FFFFFF" fill-rule="nonzero"></path>
                </g>
            </g>
        </g>
    </g>
</svg>