<?xml version="1.0" encoding="UTF-8"?>
<svg width="60px" height="44px" viewBox="0 0 60 44" version="1.1" xmlns="http://www.w3.org/2000/svg" xmlns:xlink="http://www.w3.org/1999/xlink">
    <!-- Generator: Sketch 52.5 (67469) - http://www.bohemiancoding.com/sketch -->
    <title>Lamborghini_mit_Stier_logo</title>
    <desc>Created with Sketch.</desc>
    <g id="Page-1" stroke="none" stroke-width="1" fill="none" fill-rule="evenodd" opacity="0.900000036">
        <g id="CMR-HOME-new" transform="translate(-505.000000, -339.000000)" fill="#FFFFFF" fill-rule="nonzero">
            <g id="Group" transform="translate(104.000000, 339.000000)">
                <g id="Lamborghini_mit_Stier_logo" transform="translate(401.491342, 0.000000)">
                    <path d="M25.0088257,1.89653081 C25.0088257,1.23430282 26.0764006,0.011076391 27.7388559,0.000373870436 C30.2378902,-0.0156801696 30.3141453,0.489129395 30.9014453,0.366494294 C31.4891909,0.243859713 31.4891909,0.660818016 31.8468327,0.734399077 C32.2049206,0.808425837 31.8735893,0.858817498 32.2053669,0.809763458 C32.5375901,0.760709418 33.0744992,1.03095234 32.767694,1.03095234 C32.4608888,1.03095234 32.3146214,1.1620599 31.8802784,1.0394248 C31.4459348,0.916790219 31.0040108,0.906533399 31.0040108,1.05369552 C31.0040108,1.20085712 31.7197405,1.27265434 31.9498444,1.27265434 C32.1799483,1.27265434 31.5239742,1.58659927 31.3197345,1.58659927 C31.1154954,1.58659927 30.5763568,2.00177373 30.3208343,2.02630075 C30.0653124,2.05082777 29.7843714,2.05082777 29.5288495,2.00177373 C29.2733271,1.95271969 28.5005174,1.60399093 28.3475605,1.65304497 C28.1941579,1.70209901 27.8218,1.50008563 27.7085321,1.36362706 C27.1417454,0.683561197 25.6679217,1.31457302 25.6679217,1.75650405 C25.6679217,2.19798937 28.5941639,2.49766409 29.0543717,2.52219111 C29.5141333,2.54671813 32.2557577,2.47447521 33.1008091,2.46600223 C34.9313832,2.44771813 35.8509064,4.12402433 35.8509064,4.93385962 C35.8509064,5.74949244 35.6163435,5.21480485 35.6163435,6.29889644 C35.6163435,7.37852843 36.5260557,8.28468796 36.7561596,8.52995764 C36.9858178,8.77567303 37.2926225,9.34692829 37.318041,9.59219746 C37.3439052,9.83746714 37.5378883,10.7280188 37.5637525,10.9732885 C37.589171,11.2185577 37.5735635,12.4034331 37.318041,12.6241753 C37.0625186,12.8449179 37.1855974,13.95978 37.2368802,14.2295762 C37.2877173,14.4993729 37.9414619,15.8068824 37.7367765,15.9785715 C37.5325368,16.1502601 37.9468128,16.2416785 38.0235141,16.3397866 C38.1002154,16.4378942 38.4137096,17.1741489 39.0014553,17.1986759 C39.589201,17.223203 40.2023652,17.1986759 40.4320229,17.24773 C40.6621268,17.2967835 40.5087242,17.7382688 40.329903,17.9344845 C40.1510824,18.1307001 39.2413696,19.0841298 37.7595193,18.3973754 C37.7082366,18.6426445 37.2569478,18.9302791 37.3153653,19.0859137 C37.3737833,19.2411026 37.6823718,20.1976538 37.4692141,20.3648833 C37.2600692,20.5289909 37.0785724,21.2567726 37.0772348,21.4788529 C37.0758972,21.7013794 37.0874914,22.2463238 37.2444611,22.4385256 C37.4014314,22.6302821 37.4585112,23.007997 37.4437956,23.1297402 C37.4290794,23.2514828 37.2658663,23.7509409 37.3300815,23.8575219 C37.3942966,23.9641025 37.5637525,24.4791689 37.5655363,24.6767221 C37.5673201,24.8747216 37.3960799,25.224788 37.2636368,25.2582342 C37.130747,25.2916799 36.1073207,25.2421802 35.8517983,25.0134102 C35.5962758,24.7846408 35.548115,24.3337906 35.7831241,24.090751 C36.0185789,23.8472651 36.0225923,23.6006578 35.9360805,23.4664283 C35.8491226,23.3321987 35.6127758,22.735525 35.7630565,22.5558091 C35.9133377,22.3760938 36.1157936,21.9805405 36.1198069,21.7339332 C36.1238202,21.4873259 36.1545896,21.0213135 36.0707536,20.8630032 C35.9869176,20.7046929 35.831285,20.2904103 35.8009612,20.1133702 C35.7710837,19.9367763 35.2725255,19.8025467 35.0714077,19.9760192 C34.8702894,20.1494916 35.3264839,19.9626409 35.2497826,20.036222 C35.173527,20.1098025 34.7797644,20.2743563 34.6009432,20.1762487 C34.5501067,20.3724644 34.1969239,20.3867346 34.1202226,20.4848421 C34.0435213,20.5829502 33.2693736,21.3049342 33.2693736,21.5751771 C33.2693736,21.8449733 33.0727154,22.3493367 32.9193128,22.3983907 C32.9193128,22.5214715 33.1239981,22.5459985 33.1494167,22.6686331 C33.1748352,22.7912682 33.1418357,23.11547 33.115971,23.2135775 C33.090553,23.3116856 32.8938942,23.4343202 32.7150731,23.5569553 C32.5362525,23.6795899 32.4082684,24.0073593 32.3315671,24.0809398 C32.2553115,24.1545209 32.0840718,24.3106017 31.7772666,24.3351287 C31.4709076,24.3596552 30.9348904,24.5259928 30.7814878,24.5014658 C30.6280852,24.4769388 30.4929664,24.3614391 30.4416837,24.2388045 C30.3649824,24.3859661 29.6443469,24.5928848 29.5676461,24.4457226 C29.4909448,24.298561 29.1333025,23.9056835 29.1841396,23.6849414 C29.1921662,23.6510495 28.8759968,22.8345245 28.9834675,22.8987407 C28.7787822,22.7761061 28.7551474,22.6454442 28.7297289,22.4737556 C28.7043109,22.3020665 28.0568091,22.3176748 27.9801083,22.4403094 C27.9038527,22.5633902 27.7758686,22.7105518 27.8779885,22.906768 C27.9801083,23.1029836 27.8271514,23.5444684 27.6483303,23.6425765 C27.4695096,23.7411303 27.316107,24.0109265 27.2902428,24.1580886 C27.2648243,24.3052502 27.2394057,24.6486274 27.2394057,24.7467355 C27.2394057,24.8448431 26.9584653,25.3603551 26.8304812,25.3358281 C26.7029428,25.3113016 26.6516601,25.2622476 26.4982575,25.2377206 C26.3448549,25.2131935 26.1406157,25.2377206 25.9617946,25.1886665 C25.7829734,25.1396125 25.4507502,24.820316 25.4507502,24.6731544 C25.4507502,24.5259928 25.6041528,24.1826156 25.7316907,24.0845075 C25.8596747,23.9864 26.1660337,23.7411303 26.2685998,23.5935224 C26.3707191,23.4463608 26.7537799,22.8086599 26.8304812,22.7350788 C26.907182,22.6614983 27.0093018,22.4648364 27.0860031,22.3667289 C27.1627044,22.2686208 27.0347204,22.0478781 26.8304812,22.1705132 C26.6262415,22.2931478 26.194128,21.6019337 26.0157531,21.8556764 C25.8373781,22.1098647 25.2808481,22.8202543 25.0908784,22.9250515 C24.9013549,23.0298482 24.6324544,23.4231714 24.6061445,23.6916305 C24.5802798,23.9605348 24.274367,24.4729254 24.1584229,24.6098302 C24.0424793,24.7467355 23.7918621,25.2154231 23.8056863,25.339842 C23.8190644,25.4647061 23.7124856,25.5035034 23.6848375,25.5253546 C23.7049046,25.8477731 23.7833897,26.1019614 23.7437012,26.2460016 C23.7040127,26.3900417 22.9931882,26.8391076 22.4130235,26.7338646 C21.8328588,26.6286217 21.5835791,26.2839069 21.4685274,26.1496773 C21.3530295,26.0150021 21.5157969,25.3902337 21.7566031,25.2898961 C21.9974094,25.1900047 21.8493582,25.1262342 21.9653018,24.9897751 C22.0812459,24.8528703 22.838448,24.186629 22.9985391,24.12821 C23.1581851,24.0693454 23.443585,23.5056712 23.5871767,23.3469151 C23.7307688,23.1881586 23.7437012,22.5237011 23.8386858,22.3359584 C23.9341166,22.14777 23.9301028,21.7450819 24.1084782,21.4913393 C23.9327785,21.4494206 24.0576412,21.2224345 23.8534015,21.1488539 C23.6491623,21.0752729 23.6134871,20.4603151 23.6389057,20.2640995 C23.6643242,20.0674381 23.8132673,19.8640871 23.6852832,19.6923985 C23.5577448,19.5207099 23.6527299,18.7724145 23.371789,19.1648457 C23.0908485,19.5577233 22.3929559,21.0752729 22.265418,21.197908 C22.1374339,21.3205426 22.0353141,21.9096352 22.0607326,22.1058508 C22.0865969,22.3020665 22.0353141,22.6699713 21.9331943,22.7926058 C21.8310749,22.9152404 21.6776723,23.2100098 21.6263896,23.357172 C21.5755525,23.5043336 21.2049784,23.727752 20.9623883,23.8722378 C19.3525539,24.8292352 19.741857,26.466298 19.741857,26.8587293 C19.741857,27.2511606 19.741857,27.570457 19.6905743,27.6685651 C19.6397377,27.7666727 19.5376179,27.7911997 19.3842153,27.7911997 C19.2308127,27.7911997 19.307514,28.1100499 19.307514,28.281739 C19.307514,28.4534277 18.2600067,28.6251163 17.9023644,28.5024812 C17.544277,28.3798466 16.6247533,27.9383613 17.3400373,27.2021065 C18.0553213,26.466298 18.0553213,26.5644061 18.234142,26.5398791 C18.2600067,26.3681904 18.1315764,25.6720705 18.2591148,25.5494359 C18.6894445,25.136491 18.8981432,24.6076007 19.1478685,24.2651153 C19.3271354,24.0193994 19.4546732,23.4798065 19.6334944,23.357172 C19.8123155,23.2345369 19.7356142,22.7435518 19.9144348,22.4247016 C20.093256,22.1058508 20.5534638,21.2960155 20.5280452,21.0262188 C20.5021805,20.7564227 20.2435372,19.4226018 20.3969392,19.0051978 C20.5503418,18.5882395 21.0868047,17.2142838 21.1122233,16.8954335 C21.1380875,16.5761371 21.3708671,14.7696153 21.5755525,14.2541032 C21.7797922,13.7390373 22.9040007,12.3891624 23.0061201,12.0212581 C23.1086861,11.6533539 23.4756926,9.69030554 23.5523939,9.42050883 C23.6290952,9.15071265 24.0299931,8.04655364 24.4897547,7.850338 C24.949962,7.65412236 25.0962299,7.25767717 25.6839755,6.98788099 C26.2712755,6.71808429 27.0101937,6.18696438 27.1377321,6.01527524 C27.2657162,5.84358662 27.9145551,5.52607402 28.1700775,5.52607402 C28.4255999,5.52607402 28.2753187,5.25806167 28.4800041,5.08637274 C28.6842433,4.91468412 28.7092161,4.73006292 28.9081044,4.67788742 C28.5999616,4.75860384 29.6889411,4.04865943 30.6517199,4.54633415 C31.3161669,4.8901571 32.0136133,5.39630408 32.3204185,5.39630408 C32.6267775,5.39630408 34.3480965,5.70846568 34.5269177,5.85562728 C34.7057388,6.00278888 34.7155492,5.05025128 34.8310471,4.85002226 C35.0647187,4.44510461 34.8065205,4.22213241 34.2700576,3.70706603 C33.7335947,3.19155394 32.8555438,3.1179734 31.8588731,3.16702692 C30.8622024,3.21608096 28.8554835,3.03725698 27.9355141,3.03725698 C27.0155452,3.03725698 25.0088257,2.60825853 25.0088257,1.89653081 Z M19.1795299,26.466298 C19.0007088,26.441771 18.5409472,26.2946094 18.4642459,26.1470016 C18.4642459,26.2946094 18.3875446,26.466298 18.234142,26.5398791 C18.0299028,26.490825 17.3913201,27.3002146 17.3146188,27.4723494 C17.263336,27.619511 17.6209783,27.619511 17.7489623,27.3737957 C17.8765002,27.128526 18.2600067,26.9568374 18.3875446,27.0304179 C18.5155286,27.103999 18.8985894,27.0794719 19.0774101,27.0794719 C19.2562312,27.0794719 19.3587967,26.490825 19.1795299,26.466298 Z M20.5021805,22.0567973 C20.3487784,22.0322703 20.2466586,22.3511205 20.22124,22.4737556 C20.1958215,22.5963902 19.9657176,22.7190248 19.8890168,22.5963902 C19.7356142,22.9397674 19.8635983,23.0628482 19.8381797,23.2345369 C20.4000612,23.6024416 20.7322844,22.7190248 20.7322844,22.5473362 C20.7322844,22.3756475 20.6555831,22.0813243 20.5021805,22.0567973 Z M23.374019,26.087245 C23.1862793,26.1675152 22.2502561,26.0279347 22.0535974,25.9351781 C21.8341964,25.8152188 21.4132314,25.9222455 21.7940621,26.2303932 C22.3715512,26.6968513 23.2415754,26.394947 23.3758023,26.3338523 C23.5100297,26.2727581 23.5613125,26.0065291 23.374019,26.087245 Z M23.0605248,24.2820613 C22.7666519,24.4015744 22.3193765,24.7775054 22.1686496,25.0093968 C22.0901645,25.1302476 22.0478003,25.4660443 22.1931762,25.553895 C22.3389979,25.6421925 22.8125832,25.7862327 23.0413496,25.8085296 C23.270561,25.8303809 23.4257474,25.5498816 23.4422474,25.3786392 C23.4587469,25.207842 23.4663279,24.8635729 23.5822715,24.7266681 C23.6982156,24.590209 23.3543976,24.1625477 23.0605248,24.2820613 Z M24.3577573,21.7450819 C23.9853994,21.881541 23.8248615,22.4822286 23.8306587,22.9513624 C23.7954297,23.3174828 24.3412573,23.2470237 24.3555273,23.1003078 C24.3693516,22.9540376 24.4250939,22.9098894 24.538808,22.7979574 C24.6520758,22.6855791 24.8371398,22.6293902 24.8514098,22.4826743 C24.8656798,22.3364046 24.8264375,22.2093104 24.9517458,21.9747433 C25.0770542,21.7406223 24.730561,21.6081766 24.3577573,21.7450819 Z M26.3194363,24.2071426 C26.3961376,24.0845075 26.4474204,23.8392378 26.5749588,23.7411303 C26.7029428,23.6425765 26.6516601,23.4218338 26.4982575,23.5199414 C26.3448549,23.6180495 25.9617946,23.8637649 25.936376,24.0354535 C25.9105118,24.2071426 26.242735,24.3297772 26.3194363,24.2071426 Z M26.6516601,24.6731544 C26.4982575,24.6486274 26.0639144,24.4769388 25.9617946,24.3788312 C25.7575549,24.3052502 25.6549894,24.6731544 25.8850933,24.820316 C26.1151972,24.9679239 26.523676,24.9679239 26.7029428,24.8938971 C26.881764,24.820316 26.8050627,24.6976815 26.6516601,24.6731544 Z M37.2105703,24.5349115 C37.0571677,24.5839656 36.5207048,24.461331 36.2651823,24.3386959 C35.9329591,24.2405883 36.1630625,24.9273428 36.5461233,25.0254509 C36.9296293,25.1235584 37.1592875,24.9273428 37.2872716,24.7801812 C37.4148094,24.6330196 37.3639729,24.485858 37.2105703,24.5349115 Z M38.6081383,17.2927701 C37.6859394,16.8263121 37.2578397,15.8791258 36.3717617,15.3448839 C35.8161231,15.0104253 35.3692939,14.6666019 34.8274795,14.3294681 C34.6945902,14.2469683 34.7075226,14.7111963 34.5001615,14.709413 C32.8689219,14.6955885 33.1503086,14.2786302 32.6646822,14.2367115 C32.2758248,14.2028196 31.7861852,13.7546451 31.8981154,13.3706868 C32.1942183,13.6971181 30.6196124,13.201674 30.8657701,12.972904 C31.2011152,12.6607429 30.89654,13.1178361 30.7431374,12.6879457 C30.6931923,12.547919 30.3707795,12.2683117 30.8902967,12.1367579 C31.3723554,12.1626225 31.7812799,11.7220296 32.1621107,11.6573673 C33.2207665,11.4780976 32.451524,12.6085674 33.1587814,13.2253091 C33.1788485,13.2427007 33.4691537,13.3131598 33.474059,13.2872952 C33.6345968,12.4658649 33.2854274,13.0826065 33.1592271,12.3271763 C32.9911089,11.3220173 32.4564298,10.4328032 32.2816219,9.42942803 C32.1268817,8.54422784 31.9418178,7.77095972 31.0972116,7.25856909 C30.8162711,7.08821809 30.838122,6.66100349 30.6263019,6.4250987 C30.9875113,6.53034163 31.9150611,6.71496283 31.9663439,6.74305701 C32.8952324,7.24296127 32.6901008,8.47733592 33.3853177,9.20600961 C33.566814,9.39598181 33.9788605,9.65195402 34.1830997,9.36431995 C34.5322691,8.87288867 34.2009373,7.74509508 33.6381639,6.89780019 C33.4049386,6.54594945 34.4007174,6.63826031 34.2174373,6.55263859 C33.4959099,6.21461286 32.9264475,6.0411404 32.1117199,5.93099218 C31.8053609,5.8895192 31.3469369,5.50957428 31.0209565,5.49708792 C30.7061246,5.48504726 30.146027,4.75458994 29.8387761,4.78892808 C28.803755,4.90576544 29.1631806,5.55862832 28.259265,5.9894106 C27.56717,6.31940956 27.3687274,6.64093607 26.6779705,6.97138073 C26.0434011,7.27506935 25.2763886,7.98545894 24.6181845,8.29316094 C24.4304448,8.3810122 24.0968834,8.88403741 24.0188445,9.05260457 C23.5332187,10.0996828 23.5171649,11.0887878 23.2875067,12.3646359 C21.9077762,13.7880908 21.5679716,14.7941423 21.657159,16.4155972 C21.6642943,16.5484886 20.9686316,18.6515637 21.0346301,19.4787912 C21.0417653,19.5670882 21.1737627,19.6228313 21.2687473,19.6767907 C21.66474,18.510645 21.802535,16.7794881 22.6190464,15.8269503 C23.0181605,15.3613837 22.7046663,16.1948546 23.3321005,16.3504891 C23.6875127,16.4383404 23.9903046,16.1685437 23.993426,15.7930584 C23.9961017,15.4759915 24.1557472,15.1629385 24.4121615,14.9952632 C24.5673479,14.893588 24.6551973,15.2280465 24.7318986,15.3212488 C25.2179706,15.90945 25.8730528,16.0624089 26.6115259,15.9660846 C27.0182209,15.9130172 27.365606,15.5732076 27.4770906,15.1013981 C27.5876828,14.6309266 28.2909263,14.6888994 28.5633945,14.7553451 C29.2001934,14.9105339 29.1043169,16.4673265 29.037426,17.0929868 C28.9732109,17.6918906 28.3266015,17.9179847 27.980554,18.4598077 C27.751342,18.8187927 27.667506,19.2268324 27.7861253,19.6201556 C27.8980556,19.9911813 28.1709694,20.3037886 28.2855754,20.6685714 C28.5054227,21.3691504 28.8661858,21.9631488 29.0320746,22.7096604 C29.0744388,22.8996326 29.25326,23.0030917 29.3232722,23.1685374 C29.5631866,23.7339949 29.1680858,24.0987777 29.8829236,24.3752636 C30.0144753,24.4256552 30.129527,24.2869666 30.0626367,24.1585343 C29.9043289,23.8544 29.8352085,23.5542795 29.823168,23.218929 C29.8744508,23.218929 29.9252879,23.218929 29.9765706,23.218929 C29.9475845,23.524401 30.2731192,23.7344411 30.5384521,23.7357788 C30.6245181,23.736225 30.7217322,23.6060088 30.7257455,23.5123603 C30.7435831,23.0869296 30.2615249,23.5310901 30.1990936,23.1547129 C30.0969738,22.5384175 29.6220503,22.387242 29.8838155,21.8177711 C30.0559476,21.4427314 30.1099061,20.5735853 30.1281894,20.1499379 C29.2407738,20.1245189 29.9199364,21.2478534 29.3482445,21.5626903 C29.2238281,21.631366 28.8639563,20.6739229 28.8920506,20.4736934 C28.9700895,19.9131412 28.9125634,19.4511427 29.1261678,18.9253738 C29.4075545,18.2323759 30.0813662,18.1802004 30.3221724,17.4617835 C30.3828199,17.2811757 30.4011032,17.0617706 30.3070106,16.890082 C30.2312012,16.7518391 30.0465829,16.8236363 29.9239497,16.8156096 C29.3932845,16.7794881 29.6421174,16.2519354 29.4276216,15.785923 C29.3255017,15.5638427 28.9999675,14.6206698 29.0436694,14.4084001 C29.0775602,14.2438464 29.6760088,14.588116 29.860627,14.6554537 C30.5714515,14.914993 30.6405719,13.8201989 31.3447074,13.5548618 C31.4891909,13.5004568 32.0970037,14.4405082 32.2316768,14.3794135 C32.7012493,14.1658062 32.6236561,14.5863322 32.538482,14.6215617 C32.0818418,14.8097501 30.4706693,14.5319266 30.5754648,15.6869235 C30.6361124,16.3571783 31.6773768,17.365905 32.3717013,17.6312421 C32.9911089,17.8680388 33.7269057,17.7663635 34.2125315,17.3003512 C33.2671441,17.1286626 31.5097042,17.0171762 32.094328,16.0401119 C32.2365825,15.802869 33.3139673,15.5995185 33.2617927,15.3390867 C33.5146394,15.844342 34.1759649,15.2833435 34.7048469,15.3587084 C34.9697336,15.3966137 35.1565813,15.4189107 35.4205766,15.4554784 C35.9922685,15.5353023 36.3427755,16.0597331 36.5804604,16.6037856 C36.6540397,16.771907 36.9122379,17.2276626 37.1717737,17.3502971 C37.5958601,17.5509724 37.8790305,17.9893357 38.3200626,18.1204433 C38.8480527,18.2778622 39.9722613,18.4990506 40.4320229,17.4439456 C40.3981315,17.3944459 39.1263174,17.5549858 38.6081383,17.2927701 Z M31.4383538,18.8669549 C31.0294293,18.9650629 31.4124896,19.7994253 31.6680121,19.9711139 C31.7701314,20.069222 31.9748167,19.9465869 31.8468327,19.7748982 C31.7192948,19.6032096 31.6425935,19.2593861 31.9748167,19.1858056 C32.3070405,19.1122245 31.8468327,18.7688473 31.4383538,18.8669549 Z M36.654486,18.2323759 C36.4743272,18.8098741 37.3519324,18.9601571 37.5526045,18.4780913 C37.6038872,18.3554562 37.554834,18.2323759 37.5039969,18.1342678 C37.4527141,18.0361602 37.1146932,17.7663635 36.9612912,17.7663635 C36.8078886,17.7663635 36.7057687,17.7663635 36.6036489,17.6927825 C36.5010834,17.6192019 36.0667403,17.643729 36.0413218,17.8154176 C35.990039,17.9135251 35.9646205,18.0606867 35.990039,18.2078489 C36.0159032,18.3554562 35.8879192,18.7724145 35.7857993,18.9441036 C35.68368,19.1157922 36.348127,18.7233609 36.348127,18.6007258 C36.348127,18.4780913 36.3989635,18.2078489 36.4756648,18.1342678 C36.5523661,18.0606867 36.7311873,17.9871062 36.654486,18.2323759 Z M25.2139573,12.2616225 C25.2902124,12.6785808 24.8050322,13.1695659 24.6516302,13.2922005 C24.4982276,13.4148356 24.7283315,13.5374702 24.6770482,13.7582128 C24.6262116,13.9789555 24.6516302,14.1506441 24.9071521,14.3473054 C25.1626745,14.5435216 25.3669137,14.5435216 25.571599,14.3473054 C25.7758387,14.1506441 25.9292413,14.4208865 26.2101818,14.4699405 C26.4911222,14.5189946 26.4402857,14.1751711 26.0567792,14.0034825 C25.6737189,13.8317939 25.3160771,12.4333111 25.3414951,12.1635144 C25.3414951,11.9177991 25.137256,11.8442185 25.2139573,12.2616225 Z M30.0153672,9.52530605 C29.6831435,9.50077903 29.7339806,9.59933282 29.9128017,9.64838686 C30.0920685,9.69744038 30.1683236,9.91818304 29.8619646,9.94271006 C29.5551594,9.96723708 29.1943962,9.9110482 29.0409936,10.1563179 C28.8880367,10.401587 28.836754,10.7944645 29.0668579,10.7699375 C29.2965156,10.7454105 29.9948539,10.8644779 30.1482565,10.9380585 C30.3016591,11.0116395 30.5825996,11.2078552 30.6338829,11.3304898 C30.6851656,11.4531249 30.9402419,11.5512324 31.1449272,11.6248135 C31.3491664,11.6988402 31.9386959,11.6689622 31.9917624,11.4794357 C32.1705836,10.8417347 31.2858431,9.93200754 31.0557398,9.68673786 C30.8256359,9.44146817 30.2196064,9.59933282 30.0153672,9.52530605 Z M30.6370043,6.2636669 C30.8702296,5.34412857 30.3912928,5.29373691 30.2124717,5.36776367 C30.0336505,5.44134473 30.0305291,5.88372198 30.1585132,6.03088358 C30.2860515,6.17804518 30.7137056,6.4108285 30.6370043,6.2636669 Z" id="path45"></path>
                    <g id="g105281" transform="translate(0.051300, 30.045708)">
                        <path d="M12.6214129,0.000502769127 C11.1632989,-0.0124964236 9.78620936,0.724396038 9.78620936,0.724396038 C9.7862055,0.724396038 8.39881564,1.56464115 7.89205208,2.82368652 C7.86579544,2.94602255 5.11717199,8.27701581 5.11717199,8.27701581 C1.63312714,7.26949923 -0.0513437917,9.31088211 0.00174087091,10.0988139 C0.843474445,12.2104588 4.95950861,10.7083822 5.37053061,10.2194627 C5.59798005,10.0974124 5.74453619,10.2435925 5.74453619,10.2435925 C5.74453619,10.2435925 6.75261586,10.9146397 6.86655292,10.9674858 C6.98034327,11.0203281 7.55424059,10.943356 7.55424059,10.943356 C8.00058416,10.9094315 8.79704713,10.0348217 8.89342185,10.0264245 C9.04224808,10.0268569 9.22177462,10.9953798 9.83446814,10.9795507 C10.5696386,11.1216268 11.3666845,10.2918521 11.3666845,10.2918521 C11.4715991,10.1434057 11.5114609,10.2556574 11.5114609,10.2556574 C11.4945665,11.1657862 12.2337019,11.0051746 12.4525072,10.9795507 C13.1788559,10.6839127 14.9579566,8.93112577 14.7568641,9.44730993 C14.6869815,9.58721244 14.1415646,10.6055392 14.1415646,10.6055392 C14.0805115,10.8767578 14.2742763,10.8589018 14.2742763,10.8589018 L15.5531341,10.8468369 C15.771839,10.7161037 16.8906745,8.30660084 16.7596037,8.63896244 C17.1628541,7.90927417 18.0746555,7.64964164 18.0746555,7.64964164 C18.1622394,7.62363168 18.1229143,7.74616075 18.1229143,7.74616075 L16.626892,10.7141231 C16.6007821,10.7926395 16.747539,10.8709667 16.747539,10.8709667 L18.0505261,10.8468369 C18.2255588,10.8298997 19.3173192,8.59070289 19.3173192,8.59070289 C19.6144544,8.02254127 20.6685652,7.69790119 20.6685652,7.69790119 C20.8609788,7.66339755 20.7288887,7.85474474 20.7288887,7.85474474 L19.7033895,10.0022948 C19.5475175,10.9772806 20.3667548,11.0344237 20.716824,10.9916156 C21.0669434,10.9401207 21.6361538,10.7429824 22.7557576,9.90577566 C22.9833499,9.73155868 23.0332456,9.90683737 23.0332456,9.94197033 C23.042851,11.1409769 24.3603622,11.0036805 24.3603622,11.0036805 C24.754204,11.1010644 26.3529674,11.0633795 27.6902183,8.39766469 C27.2013066,10.2079306 28.1980937,10.7009 28.2331296,10.7623827 C28.2682157,10.8236221 28.8040812,11.0107263 29.0052702,10.9674858 C31.0446362,11.1482661 31.9007972,7.97539361 31.9007972,7.97539361 C32.3596456,7.63110998 32.4762349,7.5323246 32.6608731,7.43247366 C33.116104,7.47730872 33.2382913,7.4901419 33.457143,7.51692788 C33.6321293,7.57874643 33.473551,7.74210694 33.4209489,7.7944203 C31.3391151,9.41666704 32.2529396,10.6676473 32.3230616,10.6417338 C33.2341411,11.8782864 35.1252098,9.72277545 35.4840119,9.68860768 C35.9404435,11.5104521 37.3288487,10.7173083 37.3902339,10.726188 C37.2679423,11.08466 36.9118465,11.9711879 36.6060287,12.5479861 C35.9676576,13.4477372 34.96523,12.4394021 34.96523,12.4394021 L34.7118714,12.4273372 C34.5895373,12.5845166 34.6636126,12.7651541 34.6636126,12.7651541 C34.9263797,13.1860276 35.2627937,13.76842 36.3044113,13.9113184 C37.354673,13.9580298 37.9572746,12.8013487 37.9572746,12.8013487 C37.9572746,12.8013487 39.4296501,10.0846256 39.5256851,9.76099701 C39.9717352,9.35962039 40.7459065,8.78007337 41.3233248,8.36147002 C41.6995503,8.28381848 40.3817959,10.4322372 40.2857609,10.7382529 C40.2596085,10.9132884 40.321955,10.9192262 40.321955,10.9192262 C40.3219589,10.9192262 41.3238537,10.9690764 41.5163599,10.943356 C41.7088121,10.9176781 42.6438782,8.6962446 42.9761882,8.27701581 C43.264683,7.7964472 44.1947225,7.34801945 44.1947225,7.34801945 C44.3960079,7.30482908 44.3274341,7.54105765 44.3274341,7.54105765 L43.0968351,10.0264245 C42.8000475,11.0669507 43.6356927,11.0723519 43.7845228,11.0640049 C44.1870976,11.0387208 45.6907448,10.1712032 45.6907448,10.1712032 C45.9006242,10.0141666 45.8958446,10.2677223 45.8958446,10.2677223 C45.8785216,10.6003271 46.2377098,11.1452276 46.5352735,11.0760698 C47.6030512,11.1751949 49.2180295,9.40141316 49.2618948,9.56795881 C49.2707706,9.60294505 48.65866,10.8106423 48.65866,10.8106423 C48.6850132,10.9070146 48.7913717,10.9554209 48.7913717,10.9554209 C48.7913678,10.955417 49.8252678,10.9668102 50.0702294,10.9674858 C50.3152875,10.9682579 51.4299226,8.30452375 51.674834,8.15636693 C52.1733974,7.64144138 52.7189147,7.59250233 52.7365273,7.60138209 C52.9203392,7.59317411 51.6962609,9.54841176 51.6265752,9.94197033 C51.3561291,11.0703752 52.1574219,11.05194 52.1574219,11.05194 C52.796318,11.1501038 54.3630413,10.0387288 54.3893906,10.1350085 C54.5729709,9.95186161 54.5944905,10.1712032 54.5944905,10.1712032 L54.5944905,10.2556574 C54.7003162,11.1663653 55.2339193,11.0640049 55.2339193,11.0640049 C55.8466669,11.2232151 58.2380287,9.21807706 58.2380287,9.21807706 L57.8760878,8.81993576 L56.3800655,9.90577566 C56.2576349,9.96682207 56.1870303,9.83338634 56.1870303,9.83338634 L57.8640231,6.5999964 C57.9426772,6.52147618 57.827829,6.43108797 57.827829,6.43108797 L56.319742,6.43108797 C56.2146807,6.54454425 56.1508362,6.62412618 56.1508362,6.62412618 L54.7875256,9.2784015 L53.2915033,10.0143597 C53.1339827,10.0576002 53.1708563,9.89371078 53.1708563,9.89371078 C53.1708525,9.89371464 54.4172842,7.44772368 54.5221023,7.10672169 C54.592035,6.94939555 54.5582964,6.69651551 54.5582964,6.69651551 C54.1462165,5.74126595 52.4815278,6.97796521 52.2539394,6.98607281 C52.2451061,6.99480586 52.4590393,6.55173685 52.4590393,6.55173685 C52.5201812,6.42056739 52.3987158,6.41902309 52.3987158,6.41902309 L50.999211,6.4069582 C50.999211,6.4069582 51.0033613,6.30754352 50.9509522,6.39489331 C50.8984467,6.48229329 49.9978413,8.16843182 49.9978413,8.16843182 L47.7417431,9.869581 C47.5491867,9.90418117 47.5969667,9.7730619 47.5969667,9.7730619 L49.2498301,6.57586663 L49.2618948,6.44315286 L47.6693549,6.4069582 L46.3543031,8.94058464 C46.2843703,9.01915119 44.9065395,9.79719167 44.9065395,9.79719167 C44.6964671,9.8580489 44.689375,9.6765428 44.689375,9.6765428 L45.9079093,7.31182478 C46.1839534,6.38934153 45.1761131,6.11812285 44.6773103,6.29837421 C44.3401204,6.41989176 44.0258167,6.52760708 44.0258167,6.52760708 C44.0258167,6.52760708 43.9262106,6.55352053 44.013752,6.43108797 C44.1622926,6.22144848 45.7028095,3.17356826 45.7028095,3.17356826 C45.7378453,3.08602544 45.6545507,3.02878961 45.6545507,3.02878961 L44.2550459,3.01672472 C44.1412479,3.06874852 44.1223343,3.14943849 44.1223343,3.14943849 L42.1316594,6.92574837 L40.4908608,8.15636693 C40.3858458,8.22615024 40.3822785,8.10810738 40.3822785,8.10810738 L41.2026778,6.55173685 L41.2026778,6.39489331 L39.7307849,6.38282842 L39.489491,6.57586663 C39.3230021,6.22530925 38.4782764,6.22936305 38.4519272,6.23804977 C36.6839685,6.18052438 35.6891118,8.687222 35.6891118,8.687222 C34.7053507,9.54006478 34.2508571,9.80544213 33.9276661,9.85751611 C33.6588686,9.87261942 33.57779,9.65241302 33.57779,9.65241302 C33.2032091,8.50484722 35.5564001,7.42040877 35.5564001,7.42040877 C35.6351623,7.37673581 35.9742748,6.35879517 35.9304057,6.35869865 C35.8866369,6.35860213 33.037002,6.355417 33.0107492,6.34663376 C32.853136,6.28505457 32.0920487,7.00132283 31.8646031,7.16704613 C31.1980991,5.21340298 28.6155785,6.69096373 28.257259,7.56518743 C28.1033637,7.60625824 28.0343999,7.57763839 27.9556416,7.57725232 C27.9815546,6.9122357 27.8932411,6.49754331 27.4730538,6.28630932 C27.245365,6.16320114 26.3148429,6.28630932 26.3148429,6.28630932 L27.8953181,3.1373736 C27.9739838,3.04124057 27.8229299,2.9443354 27.8229299,2.9443354 L26.3992958,2.9443354 C26.338011,2.97922898 26.2665842,3.06498427 26.2665842,3.06498427 C26.2665842,3.06498427 23.5766395,8.27479587 23.4193159,8.55450823 C23.2619961,8.83407774 21.2959294,9.88164589 21.2959294,9.88164589 C21.313206,9.68923699 22.5795165,7.48729651 22.6230459,7.05846214 C22.6746867,5.94714119 21.4045116,6.29837421 21.4045116,6.29837421 C21.4045078,6.29837421 20.6852125,6.77585421 20.0291363,7.10672169 C19.8881705,5.889666 18.8226667,6.3104391 18.8226667,6.3104391 L17.6161971,7.0946568 L17.8333616,6.52760708 L17.8816204,6.3104391 L16.4338569,6.27424443 C16.2677965,6.3963411 15.9753984,7.05846214 15.9753984,7.05846214 L15.51694,7.90300429 L13.453877,9.45937482 C13.2526919,9.57254153 13.3573594,9.30253127 13.3573594,9.30253127 C13.3573594,9.30253127 14.7502044,6.57055808 14.7809935,6.55173685 C14.894641,6.48190335 14.8051229,6.3104391 14.8051229,6.3104391 L13.4056182,6.29837421 C13.4056182,6.29837421 13.168571,6.70100557 13.1160655,6.74477506 C12.4502332,5.80626963 10.2528718,6.18713787 9.07439229,8.96471441 C8.92372451,9.15036698 8.80723166,9.28037821 8.72451611,9.31459616 C7.34277446,10.9299437 6.55287082,9.32666105 6.55287082,9.32666105 L9.02613351,4.60928991 C9.02613351,4.60928991 10.1514782,2.09158913 10.8599673,1.37589998 C12.6533062,0.164342015 13.1643243,1.30351065 13.1643243,1.30351065 C13.3192813,1.66256171 13.791785,2.95871674 11.3546198,3.58377445 C11.0349035,3.61538253 11.1374553,3.76474777 11.1374553,3.76474777 C11.8468093,4.37059817 12.7179305,4.30766772 12.7179305,4.30766772 C13.5757285,4.47628659 15.9002614,3.19711893 15.0584815,1.14666711 C14.4014671,0.288237796 13.4962829,0.00830151261 12.6214129,0.000502769127 Z M49.4308005,3.19769804 C48.1530971,3.2465869 48.0783462,4.96148812 49.3825418,5.14014498 C50.6515046,5.17875262 50.8926556,3.25440494 49.4308005,3.19769804 Z M58.1294464,3.19769804 C56.746589,3.20262051 56.8496234,5.15394721 58.1535758,5.14014498 C59.4575706,5.03885011 59.3460967,3.24479936 58.1294464,3.19769804 Z M12.4766366,6.85335905 C12.8856819,6.86270982 12.8141933,7.35282224 12.7420599,7.44453855 C12.7859291,7.59346753 12.0302428,8.86819531 12.0302428,8.86819531 C11.1558863,9.95982636 10.7393203,9.76099701 10.7393203,9.76099701 C10.7393165,9.76099701 10.4396796,9.71935095 10.6669322,9.13362284 C10.9116467,8.72293406 11.3870497,7.65432475 11.8854665,7.03433236 C12.1479325,6.89938708 12.3402881,6.85024341 12.4766366,6.85335905 Z M26.194196,6.97400793 C26.6231162,7.02781539 26.4113605,7.42040877 26.4113605,7.42040877 L25.2290203,9.74893212 C24.8530342,10.2118377 24.5051385,10.0505543 24.5051385,10.0505543 C24.3125898,9.90982947 24.6378502,9.3749206 24.6378502,9.3749206 L25.7478022,7.20324079 C25.9663643,6.97622786 26.194196,6.97400793 26.194196,6.97400793 Z M38.5001859,6.98607281 C38.8349436,6.9266904 38.9707091,7.20324079 38.9707091,7.20324079 C38.9707129,7.20324079 38.9902056,7.2477361 38.9465797,7.4927981 C38.8505949,7.86893304 37.8124983,9.66447791 37.8124983,9.66447791 C37.37532,10.1009412 36.9920989,10.0143597 36.9920989,10.0143597 C36.7732936,9.95244458 36.8593873,9.62828324 36.8593873,9.62828324 C36.8593911,9.62828324 37.7000051,7.90445207 38.102051,7.17911102 C38.2595213,7.06357765 38.3886,7.00586695 38.5001859,6.98607281 Z M30.4530337,6.9981377 C30.6378996,6.96693114 30.8135036,7.04313877 30.7787805,7.43247366 C30.5604114,7.89571903 29.6988956,9.59759017 29.5240521,9.83338634 C29.4891552,10.0346789 28.6093551,10.3627936 28.8363644,9.62828324 C28.8363683,9.62827938 30.0703878,7.32026828 30.0790281,7.21530568 C30.0833444,7.16279929 30.2681678,7.02934426 30.4530337,6.9981377 Z M2.6680387,8.89232509 C3.38941872,8.87512924 4.04341404,9.10949307 4.04341404,9.10949307 C4.04341791,9.10949693 3.87465501,9.67185969 2.28196842,9.92990544 C1.52927424,9.88420558 1.13601533,9.88763007 1.1358223,9.61621836 C1.50302146,9.06973878 2.10696663,8.90569877 2.6680387,8.89232509 Z" id="path2556"></path>
                    </g>
                </g>
            </g>
        </g>
    </g>
</svg>