<?xml version="1.0" encoding="UTF-8"?>
<svg width="59px" height="33px" viewBox="0 0 59 33" version="1.1" xmlns="http://www.w3.org/2000/svg" xmlns:xlink="http://www.w3.org/1999/xlink">
    <!-- Generator: Sketch 52.5 (67469) - http://www.bohemiancoding.com/sketch -->
    <title>land-rover-1-logo-svg-vector</title>
    <desc>Created with Sketch.</desc>
    <g id="Page-1" stroke="none" stroke-width="1" fill="none" fill-rule="evenodd" opacity="0.900000036">
        <g id="CMR-HOME-new" transform="translate(-579.000000, -345.000000)" fill="#FFFFFF">
            <g id="Group" transform="translate(104.000000, 339.000000)">
                <g id="land-rover-1-logo-svg-vector" transform="translate(475.071429, 6.400000)">
                    <path d="M57.9712216,15.8537634 C57.9712216,24.6093763 44.9921173,31.7075269 28.9869302,31.7075269 C12.9771252,31.7075269 -3.97903932e-13,24.6093763 -3.97903932e-13,15.8537634 C-3.97903932e-13,7.09815054 12.9771252,-2.84217094e-14 28.9869302,-2.84217094e-14 C44.9921173,-2.84217094e-14 57.9712216,7.09815054 57.9712216,15.8537634 Z M56.7722015,15.8424086 C56.7722015,7.80146237 44.3268013,1.28309677 28.9763749,1.28309677 C13.6252888,1.28309677 1.18021844,7.80146237 1.18021844,15.8424086 C1.18021844,23.8836989 13.6252888,30.4017204 28.9763749,30.4017204 C44.3268013,30.4017204 56.7722015,23.8836989 56.7722015,15.8424086 Z M28.9763749,2.42924731 C43.7248173,2.42924731 55.6817034,8.43458065 55.6813736,15.8424086 C55.6813736,23.2498925 43.7248173,29.2552258 28.9763749,29.2552258 C14.2272728,29.2552258 2.27005683,23.2498925 2.27005683,15.8424086 C2.27005683,8.43458065 14.2272728,2.42924731 28.9763749,2.42924731 Z M54.9909886,15.8424086 C54.9909886,8.83337634 43.3435058,3.1507957 28.9763749,3.15113978 C14.6089141,3.15113978 2.96176115,8.83337634 2.96176115,15.8424086 C2.96176115,22.852129 14.6085842,28.5343656 28.9763749,28.5343656 C43.3435058,28.5343656 54.9909886,22.852129 54.9909886,15.8424086 Z M45.6488571,9.9003871 L45.0887646,11.6342366 L40.0205543,13.368086 L40.2382581,12.7108817 L43.5321825,11.5210323 L40.6439788,11.5210323 L41.1875786,9.9003871 L45.6488571,9.9003871 Z M17.2018982,12.7449462 C17.2018982,12.7449462 17.6201534,12.7858925 17.6726002,12.6214194 L17.0646789,14.3511398 L12.7172001,14.3511398 C12.7172001,14.3511398 12.8220937,14.3143226 12.9622818,14.0221935 C13.1024698,13.7304086 15.1129314,7.88989247 15.1129314,7.88989247 C15.1129314,7.88989247 15.3883596,7.27810753 15.077637,7.12326882 L17.5878277,7.12326882 C17.5878277,7.12326882 17.4446709,7.07991398 17.2042072,7.70752688 C17.068967,8.0615914 15.3847313,12.7449462 15.3847313,12.7449462 L17.2018982,12.7449462 Z M24.8274684,14.343914 C24.9501741,14.343914 25.0900323,13.9444301 25.0900323,13.9444301 L27.3343605,7.51965591 C27.4042896,7.31870968 27.294778,7.13634409 27.294778,7.13634409 L29.4117825,7.13634409 L29.8491692,10.860043 C29.8491692,10.860043 30.9693542,7.73883871 31.0382937,7.55647312 C31.1092124,7.37376344 31.0524774,7.13634409 31.0524774,7.13634409 L33.0233565,7.14253763 C32.8874565,7.14253763 32.7881704,7.46529032 32.7881704,7.46529032 L30.3568149,14.343914 L28.5020445,14.343914 L28.0296933,10.4770753 C28.0296933,10.4770753 26.9434833,13.5607742 26.8224268,13.8900645 C26.7350154,14.1271398 26.8752034,14.343914 26.8752034,14.343914 L24.8274684,14.343914 Z M34.1887315,7.1384086 L34.1887315,7.13875269 L36.5148635,7.13875269 C40.3642624,7.10193548 39.03462,10.7705806 39.03462,10.7705806 C37.9843641,14.491871 34.5904939,14.3611183 34.5904939,14.3611183 L31.7906912,14.3642151 C31.9833261,14.2723441 32.123844,13.8002581 32.123844,13.8002581 C32.123844,13.8002581 33.9080255,8.78141935 34.1359548,8.10563441 C34.3632244,7.43053763 34.1887315,7.1384086 34.1887315,7.1384086 Z M34.4859301,12.6988387 C34.4859301,12.6988387 34.4948362,12.696086 34.8091873,12.696086 C35.2851669,12.696086 36.1671972,12.5866667 36.7606049,11.0809462 C37.7346645,8.60662366 36.3753352,8.69023656 36.3753352,8.69023656 L35.8502072,8.69023656 L34.4859301,12.6988387 Z M9.58853268,20.1713548 L10.1482953,18.4381935 L15.2171653,16.7043441 L14.9991317,17.3608602 L11.7052073,18.5503656 L14.5927512,18.5503656 L14.0498112,20.1713548 L9.58853268,20.1713548 Z M17.4073974,23.1604301 L15.120518,23.1597419 C15.120518,23.1597419 15.3771446,22.8713978 15.5173327,22.4574624 C15.6571908,22.0435269 17.4532471,16.6867957 17.4532471,16.6867957 C17.4532471,16.6867957 17.6168548,16.1754839 17.4070676,15.9322151 L20.2995593,15.9322151 C20.2995593,15.9322151 23.1257504,15.8592688 22.2859415,18.6580645 C22.2859415,18.6580645 21.741682,20.4180645 20.0386446,20.4180645 L21.2558067,22.6976344 C21.2558067,22.6976344 21.4962705,23.160086 21.7298073,23.160086 L19.284268,23.160086 C19.284268,23.160086 19.3195624,23.0386237 19.2496333,22.892043 C19.1797042,22.7461505 18.1571561,20.6534194 18.1571561,20.6534194 L17.3368086,22.9250753 C17.3368086,22.9250753 17.3368086,23.1604301 17.4073974,23.1604301 Z M19.1407814,17.5948387 L18.6667809,19.047914 L19.110105,19.047914 C19.110105,19.047914 19.9736633,19.1277419 20.2919727,18.4113548 C20.2919727,18.4113548 20.664708,17.5907097 19.6230283,17.5907097 C19.3947692,17.5907097 19.1407814,17.5948387 19.1407814,17.5948387 Z M42.7121648,23.1872688 L40.3269889,23.1827957 C40.5084439,22.9900016 40.6479489,22.7586888 40.7360081,22.5046022 C40.8758663,22.0913548 42.7474592,16.7136344 42.7474592,16.7136344 C42.7474592,16.7136344 42.9104072,16.2023226 42.7002901,15.9590538 L45.5696921,15.9590538 C45.5696921,15.9590538 48.4186431,15.8172903 47.5244082,18.7475269 C47.5244082,18.7475269 47.0114849,20.4452473 45.3081177,20.4452473 L46.5256096,22.724129 C46.5256096,22.724129 46.7819064,23.1872688 47.015773,23.1872688 L44.4831522,23.1872688 C44.4831522,23.1872688 44.5181168,23.0658065 44.4478578,22.919914 C44.3782586,22.7733333 43.3919944,20.679914 43.3919944,20.679914 L42.6593882,22.7444301 C42.6593882,22.7444301 42.537672,23.1913978 42.7121648,23.1872688 Z M44.3802377,19.0744086 C44.3802377,19.0744086 45.237199,19.1415054 45.4994331,18.4412903 C45.8091662,17.6168602 45.0369775,17.6381935 45.0369775,17.6381935 L44.4036573,17.6381935 L43.9365838,19.0744086 L44.3802377,19.0744086 Z M25.3107048,23.340043 C23.5070619,23.340043 22.4135951,21.7290323 22.7589525,19.7095914 C23.1346564,17.5132903 24.590633,15.7464086 26.8224268,15.7464086 C28.5713139,15.7464086 29.3375653,16.9596559 29.3375653,18.9037419 C29.3375653,20.7566452 27.8350793,23.340043 25.3107048,23.340043 Z M25.4696946,21.6316559 C26.0993863,21.7534624 26.7917503,21.2803441 27.1532706,19.7701505 C27.7014883,17.4843871 26.6911448,17.4658065 26.5067563,17.4420645 C25.9479832,17.3708387 25.2021828,18.0421505 24.8990467,19.4415484 C24.7601781,20.0805161 24.6130631,21.4658065 25.4696946,21.6316559 Z M29.9369104,15.9597419 L32.2986667,15.9566452 C32.0667792,16.0068817 32.0713972,16.6090323 32.0713972,16.6090323 L32.0410506,20.3643871 C32.0410506,20.3643871 34.4278758,16.6410323 34.5908238,16.3729892 C34.7544315,16.1056344 34.5436546,15.9597419 34.5436546,15.9597419 L37.2283382,15.9597419 C36.9951313,15.9597419 36.1068338,17.1034839 36.1068338,17.1034839 C36.1068338,17.1034839 32.2109255,22.5544946 32.024228,22.7977634 C31.8381902,23.0410323 31.8381902,23.1876129 31.8381902,23.1876129 L29.9626391,23.1876129 C30.0863344,23.1156989 30.1100839,22.7736774 30.1100839,22.7736774 L30.1100839,16.5188817 C30.1100839,16.0571183 29.9369104,15.9597419 29.9369104,15.9597419 Z M41.2769691,17.6646882 C41.1846099,17.4582366 40.9276534,17.4950538 40.9273236,17.4950538 L39.0375887,17.4950538 L38.5942646,18.784 L40.086855,18.784 C40.5074192,18.784 40.5532689,18.6174624 40.5532689,18.6174624 L39.923907,20.4634839 C39.8536481,20.3661075 39.5270924,20.3901935 39.5270924,20.3901935 L37.9879925,20.3901935 L37.5680881,21.5583656 L39.5511717,21.5583656 C39.9944958,21.5583656 40.0640951,21.4616774 40.0640951,21.4616774 L39.5043324,23.1889892 L34.8161142,23.1889892 C34.9091331,23.1889892 35.2350291,22.508043 35.2350291,22.508043 C35.2350291,22.508043 37.0782546,17.3261075 37.2883717,16.7170753 C37.4984888,16.1090753 37.3348811,15.9583656 37.3348811,15.9583656 L41.8839009,15.9576774 L41.2769691,17.6646882 Z M17.5630886,14.3501075 C17.7550638,14.2633978 17.8302705,14.1130323 17.8302705,14.1130323 C17.8302705,14.1130323 21.6259032,8.24223656 21.9231018,7.78597849 C22.2206304,7.32937634 22.0649392,7.12877419 22.0649392,7.12877419 L24.2868373,7.12877419 C24.1014592,7.21445161 24.1136638,7.62047312 24.1136638,7.62047312 L24.3950295,13.9712688 C24.4257059,14.2585806 24.5919524,14.355957 24.5919524,14.355957 L22.3522422,14.355957 C22.5184887,14.1873548 22.5069438,13.9685161 22.5069438,13.9685161 L22.5026557,13.3340215 L20.243814,13.3340215 C20.243814,13.3340215 19.965417,13.8429247 19.8588741,14.0538495 C19.8004899,14.1704946 19.8074168,14.3501075 19.8074168,14.3501075 L17.5630886,14.3501075 Z M22.459115,9.58726882 L21.2119361,11.7037419 L22.4765972,11.7037419 L22.459115,9.58726882 Z" id="Combined-Shape"></path>
                </g>
            </g>
        </g>
    </g>
</svg>