<?xml version="1.0" encoding="UTF-8"?>
<svg width="80px" height="9px" viewBox="0 0 80 9" version="1.1" xmlns="http://www.w3.org/2000/svg" xmlns:xlink="http://www.w3.org/1999/xlink">
    <!-- Generator: Sketch 52.5 (67469) - http://www.bohemiancoding.com/sketch -->
    <title>mclaren-1-logo-svg-vector</title>
    <desc>Created with Sketch.</desc>
    <g id="Page-1" stroke="none" stroke-width="1" fill="none" fill-rule="evenodd" opacity="0.900000036">
        <g id="CMR-HOME-new" transform="translate(-763.000000, -356.000000)" fill="#F8F8F8" fill-rule="nonzero">
            <g id="Group" transform="translate(104.000000, 339.000000)">
                <g id="mclaren-1-logo-svg-vector" transform="translate(659.021645, 17.600000)">
                    <path d="M32.4499749,0.324673684 L36.4195221,0.324673684 L36.4195221,6.47077895 L39.0655856,6.47077895 L39.0655856,8.36231579 L32.4499749,8.36231579 L32.4499749,0.324673684 Z M51.414334,8.36231579 L55.3838812,8.36231579 L55.3838812,3.63347368 L57.589386,3.63347368 L57.589386,1.7424 L52.2959033,1.7424 L52.2959033,1.74286316 C51.8562483,1.74286316 51.414334,2.21204211 51.414334,2.68816842 L51.414334,8.36231579 Z M67.4298866,1.74332632 L60.4686068,1.74332632 C57.2351316,1.74332632 57.240102,8.36231579 60.4686068,8.36231579 L68.174092,8.36231579 L68.174092,6.47077895 L61.99904,6.47077895 L61.99904,5.52501053 L67.4303385,5.52501053 C69.0190611,5.52501053 68.9951127,1.74332632 67.4298866,1.74332632 Z M61.9985882,3.63347368 L65.086566,3.63347368 L65.086566,4.57924211 L61.9985882,4.57924211 L61.9985882,3.63347368 Z M41.1319191,8.36231579 L48.0931989,8.36231579 C51.3275778,8.36231579 51.3221556,1.74332632 48.0931989,1.74332632 L40.3881656,1.74332632 L40.3881656,3.63486316 L46.5632175,3.63486316 L46.5632175,4.58016842 L41.1319191,4.58016842 C39.5427446,4.58016842 39.5671448,8.36231579 41.1319191,8.36231579 Z M46.5632175,6.47077895 L43.4752397,6.47077895 L43.4752397,5.52547368 L46.5632175,5.52547368 L46.5632175,6.47077895 Z M31.5679538,1.74332632 L23.7608011,1.74332632 C20.6624306,1.74332632 20.667401,8.36231579 23.7608011,8.36231579 L31.5675019,8.36231579 L31.5675019,6.47077895 L26.4954283,6.47077895 C25.0332251,6.47077895 25.0332251,3.63393684 26.4954283,3.63393684 L31.5679538,3.63393684 L31.5679538,1.74332632 Z M17.4434148,0.330231579 L17.4492889,0.324673684 L20.5435927,0.324673684 L20.5435927,8.36231579 L16.5740455,8.36231579 L16.5740455,4.57970526 L12.6049502,8.36231579 L8.6783293,8.36231579 L8.6783293,4.57970526 L4.70878213,8.36231579 L0.227734977,8.36231579 L9.56080233,0.324673684 L9.56080233,0.325136842 L9.56080233,0.324673684 L12.6049502,0.324673684 L12.6049502,4.57970526 L17.4434148,0.330231579 Z M76.1118308,1.74332632 L77.4877296,1.74332632 C78.7904279,1.74332632 79.5924707,2.62888421 79.6403674,3.54408421 L79.6403674,8.36231579 L76.1118308,8.36231579 L76.1118308,5.05907368 C76.1118308,4.07254737 75.2302615,3.63347368 73.4653154,3.63347368 L73.4653154,8.36185263 L69.4966719,8.36185263 L69.4966719,1.74332632 L76.1118308,1.74332632 Z" id="Shape"></path>
                </g>
            </g>
        </g>
    </g>
</svg>