<?xml version="1.0" encoding="UTF-8"?>
<svg width="52px" height="41px" viewBox="0 0 52 41" version="1.1" xmlns="http://www.w3.org/2000/svg" xmlns:xlink="http://www.w3.org/1999/xlink">
    <!-- Generator: Sketch 52.5 (67469) - http://www.bohemiancoding.com/sketch -->
    <title>mercedes-benz-6-logo-svg-vector</title>
    <desc>Created with Sketch.</desc>
    <g id="Page-1" stroke="none" stroke-width="1" fill="none" fill-rule="evenodd" opacity="0.900000036">
        <g id="CMR-HOME-new" transform="translate(-649.000000, -341.000000)" fill="#FFFFFF">
            <g id="Group" transform="translate(104.000000, 339.000000)">
                <g id="mercedes-benz-6-logo-svg-vector" transform="translate(545.452381, 2.400000)">
                    <path d="M0.266919852,33.7973723 L1.86236603,33.7973723 L3.4922255,38.1045255 L5.12237415,33.7973723 L6.70017991,33.7973723 L6.70017991,34.0779562 L6.37079561,34.0779562 C6.19757243,34.0779562 6.02406007,34.2531387 6.02406007,34.4105109 L6.11081625,39.1018978 C6.11081625,39.3471533 6.33638232,39.4525547 6.52695673,39.4525547 L6.78722528,39.4525547 L6.78722528,39.7325547 L4.5850642,39.7325547 L4.5850642,39.4525547 L4.94915098,39.4525547 C5.1917791,39.4525547 5.34794023,39.2420438 5.34794023,39.0846715 L5.26118404,34.480292 L3.37105603,39.4347445 L3.18048162,39.4347445 L1.30741566,34.5328467 L1.22094866,39.0846715 C1.22094866,39.3824818 1.3768206,39.4525547 1.60238668,39.4525547 L1.89706851,39.4525547 L1.89706851,39.7325547 L0.145750385,39.7325547 L0.163101622,39.4525547 L0.422791792,39.4525547 C0.769527331,39.4525547 0.856283513,39.259854 0.856283513,39.0846715 L0.943039695,34.340146 C0.943039695,34.0951825 0.700411573,34.0779562 0.509547974,34.0779562 L0.249568616,34.0779562 L0.266919852,33.7973723 Z M7.68862201,37.5964964 C7.67127077,38.2093431 7.7409649,39.489635 8.72911781,39.469781 C9.59610125,39.4525547 9.82137814,38.6645255 9.85608061,38.3144526 L10.2623887,38.3162044 C10.0816467,39.259854 9.73462196,39.849635 8.55560545,39.849635 C7.34159728,39.849635 6.81440888,38.8408759 6.81440888,37.5964964 C6.81440888,36.3521168 7.44599389,35.3433577 8.55560545,35.3433577 C9.75226238,35.3433577 10.296802,36.3521168 10.296802,37.5964964 L7.68862201,37.5964964 Z M12.4226177,39.7325547 L12.4226177,39.7331387 L10.3936798,39.7331387 L10.3936798,39.5056934 L10.6363079,39.5056934 C10.792469,39.5056934 11.0697996,39.4531387 11.0697996,39.1378102 L11.0697996,36.2665693 C11.0697996,36.0916788 11.1394937,35.7237956 10.411031,35.7591241 L10.411031,35.5839416 C10.7057128,35.5664234 11.0524484,35.5138686 11.4341756,35.3912409 C11.6073987,35.3386861 11.6768037,35.4960584 11.6941549,35.6540146 C11.7115062,35.8113869 11.8358567,35.8659854 11.936783,35.7235036 C12.0235392,35.6008759 12.3358615,35.3562044 12.7172995,35.3562044 C13.2028449,35.3562044 13.4801755,35.5836496 13.514878,36.0735766 C13.5495805,36.5637956 13.3066631,36.5985401 13.1160887,36.6163504 C12.9255143,36.6341606 12.6999482,36.4589781 12.7346507,36.1962044 C12.7693532,35.9337226 12.6823078,35.8636496 12.5437871,35.8636496 C12.1797003,35.8636496 11.8156136,36.1258394 11.8156136,36.8437956 L11.8156136,39.1372263 C11.8156136,39.4525547 12.0929442,39.5051095 12.2491053,39.5051095 L12.4226177,39.5051095 L12.4226177,39.7325547 Z M16.2690976,35.6221898 L16.4972663,35.2683212 L16.6878407,35.2683212 L16.6878407,36.7389781 L16.4625638,36.7389781 C16.4625638,36.1611679 16.0287829,35.6537226 15.3179606,35.6537226 C14.4856797,35.6537226 14.4336259,37.1941606 14.4336259,37.579562 C14.4162747,38.1921168 14.4859688,39.4744526 15.4741218,39.4528467 C16.254349,39.4350365 16.3758077,38.629781 16.4105101,38.279708 L16.8171074,38.2814599 C16.6360762,39.2245255 16.3760969,39.8376642 15.3008986,39.8324088 C14.0868904,39.8259854 13.559702,38.8236496 13.559702,37.5792701 C13.559702,36.3348905 14.191287,35.3261314 15.3008986,35.3261314 C15.692169,35.3261314 16.013456,35.4338686 16.2690976,35.6221898 Z M24.4568568,38.8218978 C24.4568568,38.9967883 24.3874519,39.3646715 25.1159146,39.330219 L25.1159146,39.5054015 C24.7682862,39.5262824 24.4245899,39.5908186 24.09277,39.6975182 C23.9192577,39.7506569 23.8067638,39.5138686 23.7894126,39.3564964 C23.7717722,39.2776642 23.7200076,39.3211679 23.711332,39.3564964 C23.6072246,39.5229197 23.1043279,39.8376642 22.7228899,39.8376642 C22.3414519,39.8376642 21.0756792,39.6972263 21.0756792,37.5091971 C21.0756792,35.8458394 22.1679395,35.3731387 22.7575924,35.3731387 C23.2257866,35.3731387 23.4857659,35.5833577 23.711332,35.7932847 L23.711332,34.2878832 C23.711332,34.1127007 23.6592783,33.9553285 23.1563816,33.990073 L23.1563816,33.8148905 C23.4510635,33.7973723 23.7980882,33.7448175 24.1795262,33.6221898 C24.3527494,33.569635 24.4568568,33.7363504 24.4568568,33.9375182 L24.4568568,38.8218978 Z M34.5833275,37.2291971 L32.2946994,37.2291971 L32.2946994,36.8259854 L34.5833275,36.8259854 L34.5833275,37.2291971 Z M29.1558608,38.2440876 L29.1558608,38.2443796 L29.3287948,38.2443796 C29.4846667,39.1372263 30.1440137,39.4350365 30.5601542,39.4350365 C30.9762947,39.4350365 31.236274,39.1550365 31.3750839,38.909781 C31.5136046,38.6645255 31.392146,38.2443796 31.1842203,38.1392701 C30.9762947,38.0341606 30.6289808,37.8414599 29.883456,37.5267153 C29.1379312,37.2113869 29.0514642,36.4411679 29.3632081,35.9512409 C29.6755303,35.4610219 30.2301915,35.2858394 30.5601542,35.2858394 C30.8895385,35.2858394 31.0454104,35.3205839 31.4097864,35.5658394 L31.60065,35.2332847 L31.7741623,35.2332847 L31.7741623,36.6338686 L31.5832988,36.6338686 C31.5138938,36.0910949 31.2365632,35.6181022 30.681902,35.6359124 C30.1269516,35.6534307 29.8840343,35.9512409 29.8319806,36.2312409 C29.7998808,36.4061314 29.8669723,36.6861314 30.1443029,36.8259854 C30.4927735,37.0023358 30.94593,37.259562 31.4621293,37.4738686 C32.0517821,37.7188321 32.1732408,38.5240876 31.9129722,39.0145985 C31.6529929,39.5051095 30.9942243,39.7672993 30.5257409,39.7672993 C30.0572575,39.7672993 29.6937491,39.5051095 29.5202368,39.3471533 L29.3467244,39.7325547 L29.1558608,39.7325547 L29.1558608,38.2440876 Z M35.363844,38.8394161 L35.363844,34.5150365 C35.363844,34.0776642 34.913001,34.0245255 34.6527325,34.0245255 L34.6527325,33.7970803 L37.2536828,33.7970803 C38.4674018,33.7970803 38.6582654,34.6551825 38.6582654,35.1629197 C38.6582654,35.6706569 38.2421249,36.4230657 37.8256952,36.5287591 C38.6582654,36.7039416 38.935596,37.3865693 38.935596,37.9640876 C38.9011827,39.68 37.426906,39.7325547 36.7851994,39.7325547 L34.6524433,39.7325547 L34.6524433,39.4872993 C35.3464927,39.4872993 35.363844,39.0846715 35.363844,38.8394161 Z M45.9755709,36.5459854 C45.9755709,36.2134307 45.8541123,35.7407299 45.1432899,35.7935766 C44.4321784,35.8461314 44.2933686,36.4592701 44.2933686,36.8440876 L44.2933686,39.1375182 C44.2933686,39.4528467 44.5712775,39.5054015 44.7271495,39.5054015 L44.9006618,39.5054015 L44.9006618,39.7328467 L42.8717239,39.7328467 L42.8717239,39.5054015 L43.1146412,39.5054015 C43.2705132,39.5054015 43.5478438,39.4528467 43.5478438,39.1375182 L43.5478438,36.2662774 C43.5478438,36.0913869 43.6175379,35.7235036 42.8893643,35.7588321 L42.8893643,35.5836496 C43.1840462,35.5661314 43.5310709,35.5135766 43.9122197,35.3909489 C44.0854429,35.3383942 44.1548478,35.4957664 44.1724883,35.6537226 C44.1895503,35.8110949 44.31419,35.8656934 44.4148272,35.7232117 C44.5018726,35.6005839 44.9183022,35.3559124 45.2994511,35.3559124 C45.663827,35.3559124 46.7040337,35.3906569 46.7216741,36.5637956 L46.7216741,39.1372263 C46.7216741,39.4525547 46.9990047,39.5051095 47.1548766,39.5051095 L47.328389,39.5051095 L47.328389,39.7325547 L45.4385502,39.7325547 L45.4385502,39.5051095 L45.5423684,39.5051095 C45.6982403,39.5051095 45.9755709,39.4525547 45.9755709,39.1372263 L45.9755709,36.5459854 Z M47.709827,36.6338686 L48.0221492,35.4432117 L50.9698351,35.4432117 L48.4382897,39.4875912 L49.7905294,39.4875912 C50.1028517,39.4875912 50.345769,39.3649635 50.6751533,38.559708 L50.8139632,38.559708 L50.5366326,39.7328467 L47.5192526,39.7328467 L50.0331575,35.6884672 L48.9064839,35.6884672 C48.6291533,35.6884672 48.3168311,35.6884672 47.8830502,36.6338686 L47.709827,36.6338686 Z M18.0927125,37.5964964 C18.0753613,38.2093431 18.1450554,39.489635 19.1332083,39.469781 C20.0001917,39.4525547 20.2254686,38.6645255 20.2601711,38.3144526 L20.6667684,38.3162044 C20.4857372,39.259854 20.1390016,39.849635 18.9596959,39.849635 C17.745977,39.849635 17.2184994,38.8408759 17.2184994,37.5964964 C17.2184994,36.3521168 17.8500844,35.3433577 18.9596959,35.3433577 C20.1560637,35.3433577 20.7008925,36.3521168 20.7008925,37.5964964 L18.0927125,37.5964964 Z M25.9996709,37.5964964 C25.982898,38.2093431 26.052303,39.489635 27.0401667,39.469781 C27.9077285,39.4525547 28.1330054,38.6645255 28.1674187,38.3144526 L28.5734376,38.3162044 C28.3926956,39.259854 28.04596,39.849635 26.8672327,39.849635 C25.6532245,39.849635 25.125747,38.8408759 25.125747,37.5964964 C25.125747,36.3521168 25.757332,35.3433577 26.8672327,35.3433577 C28.0636005,35.3433577 28.6081401,36.3521168 28.6081401,37.5964964 L25.9996709,37.5964964 Z M40.1845958,37.5964964 C40.1669554,38.2093431 40.2366495,39.489635 41.2248024,39.469781 C42.0917858,39.4525547 42.3176411,38.6645255 42.3520544,38.3144526 L42.7580733,38.3162044 C42.5773313,39.259854 42.2305957,39.849635 41.05129,39.849635 C39.8372819,39.849635 39.3103827,38.8408759 39.3103827,37.5964964 C39.3103827,36.3521168 39.9419677,35.3433577 41.05129,35.3433577 C42.247947,35.3433577 42.7924866,36.3521168 42.7924866,37.5964964 L40.1845958,37.5964964 Z M7.70597324,37.2461314 L9.42258889,37.2461314 C9.42258889,36.6683212 9.31848147,35.7229197 8.59030792,35.7229197 C7.67127077,35.7229197 7.70597324,36.8613139 7.70597324,37.2461314 Z M23.7110428,38.2966423 L23.7110428,37.3340146 C23.7110428,36.7912409 23.6416379,35.8808759 22.7920057,35.7754745 C21.9423735,35.6706569 21.907671,36.8788321 21.907671,37.4913869 C21.907671,38.1042336 21.8382661,39.539562 22.7746544,39.5573723 C23.1907949,39.5573723 23.6936916,39.259854 23.7110428,38.2966423 Z M36.1093687,39.4525547 L36.9934142,39.4525547 C37.652472,39.4525547 38.1727199,38.9272993 38.1727199,38.0513869 C38.1727199,37.1766423 37.6701125,36.7734307 37.0978108,36.7734307 L36.1093687,36.7734307 L36.1093687,39.4525547 Z M36.1093687,36.4934307 L36.9763522,36.4934307 C37.652472,36.4934307 37.8777489,35.9156204 37.8777489,35.1629197 C37.8777489,34.549781 37.6180587,34.0776642 36.9763522,34.0776642 L36.1093687,34.0776642 L36.1093687,36.4934307 Z M18.1103529,37.2461314 L19.8269686,37.2461314 C19.8269686,36.6683212 19.7231503,35.7229197 18.9946876,35.7229197 C18.0756505,35.7229197 18.1103529,36.8613139 18.1103529,37.2461314 Z M26.0173113,37.2461314 L27.733927,37.2461314 C27.733927,36.6683212 27.6301087,35.7229197 26.9019352,35.7229197 C25.982898,35.7229197 26.0173113,36.8613139 26.0173113,37.2461314 Z M40.2016578,37.2461314 L41.9188519,37.2461314 C41.9188519,36.6683212 41.8144553,35.7229197 41.0862817,35.7229197 C40.1672446,35.7229197 40.2016578,36.8613139 40.2016578,37.2461314 Z" id="Combined-Shape" fill-rule="nonzero"></path>
                    <path d="M25.5870007,0.44075891 C25.5276208,0.440065765 25.4681441,0.439714846 25.4085721,0.439708029 C17.3095934,0.438540146 10.7621043,7.06686131 10.7609476,15.2443796 C10.7606584,17.170219 11.2473606,19.009927 11.9095994,20.6981022 C12.2138244,21.4729927 13.5047564,23.7080292 13.5631723,23.7559124 C13.5570993,23.6852555 12.6461594,21.8969343 12.1669761,20.7074453 C11.7563302,19.6875912 11.2450471,17.6548905 11.2453363,15.2975182 C11.2462038,7.36467153 17.6167103,0.93459854 25.4733501,0.935766423 C25.5112551,0.935771815 25.549139,0.935949652 25.5870007,0.936298814 L25.5870007,1.56321168 C32.8623741,1.76321168 38.8974232,7.68934307 38.8965557,15.0154745 C38.8959773,17.379854 38.1880469,19.8458394 37.1200783,21.7778102 L27.7897401,13.9313869 L26.8955731,14.4490511 L36.920539,21.7912409 C37.1617212,21.9652555 37.0845082,22.0443796 36.8291559,21.8989781 L25.5739872,15.3448175 L25.5739872,17.8026277 L36.8577854,22.1512409 C34.4910768,26.0443796 30.2267213,28.5351825 25.3391672,28.5345985 C20.4446726,28.5340146 16.2485653,26.0493431 13.8853269,22.1459854 L25.1841628,17.7944526 L25.184452,15.3372263 L13.4813323,22.1611679 C13.2028449,22.3173723 13.127367,22.2289051 13.37896,22.0522628 L23.8628661,14.4429197 L22.9681207,13.9255474 L13.6343123,21.7646715 C12.5831166,19.8435036 11.8526295,17.3848175 11.8529187,15.0405839 C11.8537863,7.61839416 17.7040448,1.61284672 25.1124443,1.56613139 L23.1991814,13.5635036 L24.0910349,14.0864234 L25.2960783,1.56817518 C25.3122728,1.41109489 25.4233207,1.40963504 25.4233207,1.56817518 L25.4967742,14.7649635 L27.6194088,13.5062774 L25.8308911,0.940915617 C29.8020338,1.05456295 33.5049597,3.03629365 35.8031194,5.58335766 C36.307462,6.14218978 36.7435564,6.64934307 37.1339593,7.1649635 C37.1339593,7.16467153 38.1631768,8.13722628 39.6976044,12.4148905 C39.1310866,9.20671533 37.5015163,6.83649635 37.5015163,6.83649635 C34.9763032,3.05528962 30.7138378,0.557376595 25.7601266,0.443754132 L25.708729,0.0826567539 C33.8197387,0.257198093 40.3404525,6.87710432 40.339311,15.0169343 C40.3381542,23.2659854 33.6399986,29.9521168 25.3782074,29.950365 C17.1167055,29.949781 10.4197066,23.2618978 10.4211525,15.0128467 C10.4220201,6.76408759 17.1207541,0.0779562044 25.3822561,0.0791240876 C25.4506124,0.0791337504 25.5188616,0.0796011563 25.5870007,0.0805234021 L25.5870007,0.44075891 Z M39.2395318,14.9772263 C39.2395318,17.4327007 38.4775233,19.9772263 37.3540308,21.9734307 C37.4167844,22.1381022 37.3580794,22.2227737 37.167505,22.2715328 C34.7195347,26.2537226 30.3478907,28.859562 25.3709778,28.8589781 C20.7017601,28.8583942 16.9666173,26.3258394 15.7858656,25.0172263 C14.827499,23.9553285 14.1172551,23.1611679 13.5686668,22.259562 L13.2473798,22.3845255 C15.3480361,26.440292 19.7549609,29.3877372 25.375894,29.3883212 C33.353414,29.3894891 39.7230529,22.8764964 39.7236313,15.0151825 C39.7236313,15.0151825 39.9708864,12.4884672 37.7982224,8.89255474 C37.7982224,8.89284672 39.3129853,11.6767883 39.2395318,14.9772263 Z M24.4476028,14.7935766 L25.0502691,15.1439416 L22.639604,16.4715328 C22.0366485,16.7851095 22.4568376,16.4347445 22.4568376,16.4347445 L24.4476028,14.7935766 Z M24.6482988,14.3880292 L25.2327463,5.42656934 C25.2327463,5.42656934 25.2874026,4.33868613 25.3423482,5.4449635 C25.3961371,6.53226277 25.2327463,14.7751825 25.2327463,14.7751825 L24.6482988,14.3880292 Z M25.7075918,15.1439416 L26.3469848,14.7751825 L33.907786,19.8832117 C33.907786,19.8832117 34.4743039,20.270365 33.8349109,19.9383942 L25.7075918,15.1439416 Z" id="Combined-Shape"></path>
                </g>
            </g>
        </g>
    </g>
</svg>