<?xml version="1.0" encoding="UTF-8"?>
<svg width="25px" height="41px" viewBox="0 0 25 41" version="1.1" xmlns="http://www.w3.org/2000/svg" xmlns:xlink="http://www.w3.org/1999/xlink">
    <!-- Generator: Sketch 52.5 (67469) - http://www.bohemiancoding.com/sketch -->
    <title>rolls-royce-2-logo-svg-vector</title>
    <desc>Created with Sketch.</desc>
    <g id="Page-1" stroke="none" stroke-width="1" fill="none" fill-rule="evenodd" opacity="0.900000036">
        <g id="CMR-HOME-new" transform="translate(-720.000000, -341.000000)" fill="#FFFFFF" fill-rule="nonzero">
            <g id="Group" transform="translate(104.000000, 339.000000)">
                <g id="rolls-royce-2-logo-svg-vector" transform="translate(615.833333, 2.400000)">
                    <path d="M2.30267681,7.68527473 L2.30267681,3.82857143 C2.30438082,3.10122852 2.89784633,2.51202145 3.63044604,2.51032967 L21.1172421,2.51032967 C21.8676818,2.51032967 22.4631635,3.10241758 22.4631635,3.82857143 L22.4631635,7.68527473 L2.30267681,7.68527473 Z M2.30267681,8.62197802 L22.4631635,8.62197802 L22.4631635,31.7323077 L2.30267681,31.7323077 L2.30267681,8.62197802 Z M2.30267681,32.6672527 L22.4631635,32.6672527 L22.4631635,36.5248352 C22.4631635,37.250989 21.8676818,37.843956 21.1172421,37.843956 L3.63044604,37.843956 C2.89770312,37.8417813 2.30437873,37.2523215 2.30267681,36.5248352 L2.30267681,32.6672527 Z M10.940482,28.0461538 L10.940482,22.9081319 C11.4280844,22.8920366 11.9153321,22.866684 12.4019579,22.8320879 C12.2292903,22.4307692 12.0548518,22.0294505 11.8436661,21.647033 C11.5541159,21.6857143 11.2477417,21.6857143 10.9400392,21.7041758 L10.9400392,20.6351648 C10.2294831,20.7922824 9.51006997,20.9069207 8.78567942,20.9784615 L8.78567942,28.0457143 C8.78567942,29.6118681 8.0547201,30.032967 7.61154004,30.3182418 L12.1132931,30.3182418 C11.6909217,30.0325275 10.940482,29.6123077 10.940482,28.0461538 Z M21.4059068,30.2997802 C21.039763,29.9556044 20.5775453,29.4215385 20.3482073,28.3696703 C19.9231795,26.4404396 19.0385903,23.6725275 17.173338,21.6087912 C19.0005149,20.6153846 20.1166557,19.0501099 20.1166557,17.1217582 C20.1352507,15.7454945 19.4233291,14.2936264 18.1535584,13.4347253 C17.6156326,13.0923077 16.9807473,12.8430769 16.2303075,12.6887912 C16.4999345,13.2632967 16.6726021,13.8738462 16.7120057,14.4852747 C17.5009636,15.0958242 17.923335,16.0316484 17.923335,17.1586813 C17.923335,18.5920879 17.1914902,20.2720879 14.633354,21.1318681 C14.8454252,21.5323077 15.0561681,21.952967 15.2297211,22.3538462 C15.3643133,22.316044 15.4997909,22.2764835 15.6343831,22.2395604 C16.8257892,23.6149451 17.7883001,25.7727473 18.0765221,27.778022 C18.2885933,29.2298901 17.7697052,29.9551648 17.4230418,30.2993407 L21.4059068,30.2993407 L21.4059068,30.2997802 Z M16.9231914,27.9881319 C16.5384527,27.6443956 16.0766776,27.1098901 15.8650492,26.0593407 C15.4409068,24.1301099 14.5957213,21.418022 12.9026938,19.4901099 C12.9792873,19.4514286 13.0372859,19.432967 13.114765,19.3938462 C15.0380159,18.4210989 16.2121553,16.7964835 16.2121553,14.8105495 C16.2307502,13.4158242 15.5188286,11.9841758 14.249058,11.1243956 C13.2489144,10.4562637 11.9021074,10.1876923 10.1904849,10.1876923 L3.7070396,10.1876923 C4.14977692,10.4747253 4.8802935,10.8953846 4.8802935,12.4610989 L4.8802935,25.716044 C4.8802935,27.3024176 4.14933418,27.7028571 3.7070396,27.9885714 L8.20834995,27.9885714 C7.78465034,27.7028571 7.03509605,27.3024176 7.03509605,25.716044 L7.03509605,20.5784615 C8.61256913,20.5784615 10.0944109,20.3863736 11.3442584,20.0615385 C12.4798796,21.418022 13.3263934,23.52 13.595135,25.4479121 C13.787283,26.898022 13.2869898,27.6448352 12.9407692,27.9876923 L16.9231914,27.9876923 L16.9231914,27.9881319 Z M7.03509605,19.3938462 L7.03509605,11.3723077 L10.0944109,11.3723077 C11.210109,11.3920879 12.0366996,11.6206593 12.6919508,12.0795604 C13.5557313,12.6892308 14.0179491,13.6637363 14.0179491,14.8294505 C14.0179491,16.796044 12.6525472,19.2993407 7.03509605,19.3938462 Z M10.940482,18.2474725 L10.940482,13.7213187 L13.3644688,13.7213187 C13.1968585,13.2363815 12.880763,12.8155885 12.4603992,12.5178022 L7.61198278,12.5178022 C8.05516284,12.803956 8.78612216,13.2057143 8.78612216,14.7907692 L8.78612216,18.7832967 C9.59411777,18.6681319 10.3250771,18.4967033 10.940482,18.2474725 Z M15.3457183,35.2654945 C15.3457183,34.5969231 15.7304571,34.0997802 16.4029751,34.0997802 C16.8846733,34.0997802 17.1914902,34.2149451 17.4031187,34.443956 L17.4031187,33.7358242 C17.2308938,33.6413187 16.9227487,33.5450549 16.4228982,33.5450549 C15.9026819,33.5450549 15.4798677,33.7006593 15.1717226,33.9665934 C14.8263874,34.2531868 14.5952786,34.6927473 14.5952786,35.2654945 C14.5952786,36.3345055 15.3457183,36.9661538 16.4228982,36.9661538 C16.9227487,36.9661538 17.2304511,36.8681319 17.4031187,36.7942857 L17.5191158,36.0474725 C17.3260824,36.2756044 16.8846733,36.4101099 16.4029751,36.4101099 C15.7304571,36.4101099 15.3457183,35.9151648 15.3457183,35.2654945 Z M6.63131961,36.0681319 C6.47724702,35.7617582 6.34265488,35.5134066 6.11110326,35.4184615 C6.61139643,35.3226374 6.86154302,35.0162637 6.88102346,34.5964835 C6.88102346,34.1569231 6.68887546,33.8320879 6.34265488,33.7002198 C6.1305837,33.621978 5.84280444,33.621978 5.4199903,33.621978 L3.74555775,33.621978 C3.90051581,33.7182418 3.99570433,34.0417582 3.99570433,34.3481319 L3.99570433,36.1810989 C3.99570433,36.4487912 3.90051581,36.7938462 3.74555775,36.9059341 L4.93829209,36.9059341 C4.78554772,36.7934066 4.68858824,36.4483516 4.68858824,36.1810989 L4.68858824,35.5894505 L5.18799594,35.5894505 C5.45806571,35.5894505 5.61125282,35.7037363 5.72680726,35.8927473 C5.90036029,36.1806593 6.03583791,36.5824176 6.24658088,36.8861538 L7.22724405,36.9054945 C6.92042708,36.6782418 6.78583494,36.3907692 6.63131961,36.0681319 Z M6.15050688,34.6145055 C6.15050688,34.9397802 5.88087985,35.0742857 5.45806571,35.0742857 L4.68858824,35.0742857 L4.68858824,34.1573626 L5.45806571,34.1573626 C5.88043711,34.1573626 6.15050688,34.2725275 6.15050688,34.6145055 Z M8.49657195,36.1248352 C8.30530943,35.952967 8.20834995,35.6672527 8.20834995,35.2654945 C8.20834995,34.8646154 8.30530943,34.5789011 8.49657195,34.3872527 C8.66923951,34.2153846 8.90079113,34.12 9.2089363,34.12 C9.4971583,34.12 9.72870992,34.2158242 9.90226295,34.3872527 C10.0944109,34.5797802 10.1904849,34.8646154 10.1904849,35.2654945 C10.1904849,35.6681319 10.0944109,35.952967 9.90226295,36.1248352 C9.72011031,36.3099679 9.46959356,36.413045 9.2089363,36.4101099 C8.90079113,36.4101099 8.66923951,36.2971429 8.49657195,36.1248352 Z M9.1898986,36.9841758 C9.65123089,36.9841758 10.0364124,36.8505495 10.3250771,36.6013187 C10.6699695,36.316044 10.9214443,35.8778022 10.9214443,35.2654945 C10.9214443,34.6545055 10.6699695,34.2153846 10.3250771,33.9081319 C10.0364124,33.6795604 9.65123089,33.5459341 9.1898986,33.5459341 C8.74671854,33.5459341 8.36242254,33.6804396 8.07375781,33.9081319 C7.72753722,34.2153846 7.47739063,34.6545055 7.47739063,35.2654945 C7.47739063,35.8778022 7.72753722,36.316044 8.07375781,36.6013187 C8.36242254,36.8501099 8.7462758,36.9841758 9.1898986,36.9841758 Z M13.4986182,33.621978 C13.57654,33.6795604 13.6146154,33.7358242 13.595135,33.8145055 C13.595135,33.8901099 13.5557313,34.0043956 13.4791378,34.1191209 L12.8261002,35.0549451 L12.170849,34.0997802 C12.0942554,33.9841758 12.0176619,33.8707692 12.0366996,33.7749451 C12.0552945,33.7186813 12.0756605,33.6606593 12.152254,33.621978 L10.8249275,33.621978 C11.0564791,33.7182418 11.1698199,33.8896703 11.3438157,34.138022 L12.4205528,35.6483516 L12.4205528,36.1824176 C12.4205528,36.4496703 12.3253643,36.7947253 12.170849,36.8874725 L13.3644688,36.8874725 C13.2103962,36.7942857 13.114765,36.4496703 13.114765,36.1824176 L13.114765,35.6483516 L14.0954281,34.272967 C14.249058,34.0817582 14.4615719,33.7358242 14.6909098,33.6224176 L13.4986182,33.6224176 L13.4986182,33.621978 Z M19.8864323,36.3718681 L19.0385903,36.3718681 L19.0385903,35.4751648 L20.3088037,35.4751648 L20.3853973,34.9784615 L19.0385903,34.9784615 L19.0385903,34.1573626 L19.7885874,34.1573626 C20.2118442,34.1573626 20.5589503,34.1767033 20.7311751,34.3485714 L20.7311751,33.621978 L18.0955598,33.621978 C18.2496324,33.7358242 18.3470346,34.0817582 18.3470346,34.3481319 L18.3470346,36.1810989 C18.3470346,36.4676923 18.2496324,36.7938462 18.0955598,36.9059341 L20.7510983,36.9059341 L20.86621,36.1037363 C20.6736193,36.3538462 20.3088037,36.3718681 19.8864323,36.3718681 Z M18.2124425,5.7956044 L18.2124425,6.6167033 C18.5382972,6.78813187 19.0766657,6.86505495 19.5003654,6.86505495 C20.4615481,6.86505495 21.0012449,6.40615385 21.0207253,5.71912088 C21.0393203,5.12703297 20.6351011,4.84131868 19.9612549,4.70593407 C19.2887369,4.57274725 18.9814772,4.53450549 18.9814772,4.20923077 C18.9814772,4.01934066 19.2112579,3.86637363 19.5977676,3.86637363 C19.8394891,3.8654907 20.0797099,3.90410168 20.3088037,3.98065934 C20.4823567,4.0567033 20.655467,4.15208791 20.7316178,4.28615385 L20.7316178,3.54153846 C20.5009517,3.42681319 20.1352507,3.31296703 19.5977676,3.31296703 C18.8083669,3.31296703 18.2695556,3.75164835 18.2500752,4.32527473 C18.2500752,4.89758242 18.6356994,5.22241758 19.3471782,5.31692308 C19.9045845,5.39428571 20.2707283,5.45142857 20.2707283,5.81406593 C20.2707283,6.12043956 19.9811781,6.32967033 19.5003654,6.32967033 C19.1778491,6.33351743 18.8597748,6.25479652 18.5768153,6.1010989 C18.4621463,6.04395604 18.2881506,5.90989011 18.2124425,5.7956044 Z M6.76502628,5.94725275 C6.59235873,5.62285714 6.45820932,5.37494505 6.20850547,5.26021978 C6.74687405,5.14549451 7.01561561,4.84087912 7.01561561,4.38197802 C7.01561561,3.94197802 6.82346761,3.59868132 6.45865206,3.46505495 C6.22710044,3.36967033 5.93887844,3.36967033 5.49658386,3.36967033 L3.72563457,3.36967033 C3.90051581,3.48395604 3.99570433,3.82813187 3.99570433,4.13362637 L3.99570433,6.06153846 C3.99570433,6.34901099 3.90051581,6.71208791 3.72563457,6.80747253 L4.99629068,6.80747253 C4.82362313,6.71208791 4.72622091,6.34901099 4.72622091,6.06153846 L4.72622091,5.45054945 L5.26591771,5.45054945 C5.53598748,5.45054945 5.68873185,5.54593407 5.80472903,5.75692308 C5.99731977,6.0610989 6.13102644,6.4821978 6.36169258,6.80747253 L7.38220211,6.80747253 C7.0736142,6.5978022 6.92042708,6.27252747 6.76502628,5.94725275 Z M6.26517585,4.41978022 C6.26517585,4.7643956 5.97695385,4.89758242 5.53554474,4.89758242 L4.72577818,4.89758242 L4.72577818,3.92307692 L5.53554474,3.92307692 C5.97695385,3.92307692 6.26517585,4.0567033 6.26517585,4.41978022 Z M8.72812357,6.00527473 C8.51605239,5.81362637 8.42086387,5.50901099 8.42086387,5.08923077 C8.42086387,4.68791209 8.51605239,4.38241758 8.72812357,4.17142857 C8.90079113,4 9.15093771,3.88527473 9.45864015,3.88527473 C9.76678533,3.88527473 10.0164892,4 10.1904849,4.17142857 C10.4012279,4.38197802 10.5172251,4.68791209 10.5172251,5.08923077 C10.5172251,5.50901099 10.4012279,5.81362637 10.1904849,6.00527473 C10.0164892,6.1767033 9.76678533,6.29142857 9.45864015,6.29142857 C9.15093771,6.29142857 8.90079113,6.1767033 8.72812357,6.00527473 Z M9.45864015,6.90285714 C9.94033836,6.90285714 10.3441148,6.76879121 10.6513745,6.50197802 C11.0170755,6.1956044 11.2672221,5.73802198 11.2672221,5.08923077 C11.2672221,4.45846154 11.0170755,3.9810989 10.6513745,3.67648352 C10.3441148,3.42725275 9.94033836,3.29318681 9.45864015,3.29318681 C8.97827016,3.29318681 8.57360824,3.42725275 8.26590581,3.67648352 C7.90109025,3.9810989 7.64961545,4.45846154 7.64961545,5.08923077 C7.64961545,5.73846154 7.90109025,6.19604396 8.26590581,6.50197802 C8.57405098,6.76879121 8.99686512,6.90285714 9.45864015,6.90285714 Z M14.4615719,5.92967033 C14.2680957,6.1767033 13.864762,6.25406593 13.4211392,6.25406593 L12.7486212,6.25406593 L12.7486212,4.13406593 C12.7486212,3.84791209 12.8446952,3.48395604 12.9987678,3.37010989 L11.7480348,3.37010989 C11.9207024,3.4843956 12.0176619,3.84747253 12.0176619,4.13406593 L12.0176619,6.06197802 C12.0176619,6.36835165 11.9207024,6.69274725 11.7480348,6.80791209 L14.3455747,6.80791209 L14.4615719,5.92967033 Z M17.5970376,5.92967033 C17.4031187,6.1767033 17.0002277,6.27252747 16.5570476,6.25406593 L15.8646065,6.25406593 L15.8646065,4.13406593 C15.8646065,3.84791209 15.9606805,3.48395604 16.1342335,3.37010989 L14.8835006,3.37010989 C15.0561681,3.4843956 15.1522421,3.84747253 15.1522421,4.13406593 L15.1522421,6.06197802 C15.1522421,6.36835165 15.0561681,6.71252747 14.8835006,6.82593407 L17.4624455,6.82593407 L17.5970376,5.92967033 Z" id="Combined-Shape"></path>
                    <path d="M1.35964632,3.82857143 C1.36208069,2.58454515 2.37698699,1.57652837 3.6300033,1.57362637 L21.1167993,1.57362637 C22.38657,1.57362637 23.4057513,2.58725275 23.4057513,3.82857143 L23.4057513,36.5252747 C23.4057513,37.7687912 22.3861272,38.7793407 21.1167993,38.7793407 L3.63044604,38.7793407 C2.37737124,38.7774043 1.36203937,37.769358 1.36008905,36.5252747 L1.35964632,3.82857143 Z M24.5599675,3.82857143 C24.5610259,2.92161271 24.1986936,2.05147933 23.552866,1.41003856 C22.9070384,0.768597796 22.0307561,0.408529806 21.1172421,0.409230769 L3.63044604,0.409230769 C2.71681472,0.408413208 1.84037314,0.768415644 1.19437951,1.40985638 C0.548385867,2.05129712 0.185894224,2.92149602 0.18683515,3.82857143 L0.18683515,36.5252747 C0.185893361,37.4321888 0.548441373,38.3022077 1.19448624,38.9433694 C1.84053111,39.5845312 2.71697772,39.944142 3.63044604,39.9428571 L21.1172421,39.9428571 C23.0210125,39.9428571 24.5599675,38.4158242 24.5599675,36.5252747 L24.5599675,3.82857143 Z" id="Shape"></path>
                </g>
            </g>
        </g>
    </g>
</svg>