<svg xmlns="http://www.w3.org/2000/svg" width="97" height="105" viewBox="0 0 97 105"><g><g><g><path fill="#e5fcfa" d="M41.173 0h-4.885c-8.98.487-14.732 5.91-19.516 12.746C9.46 23.194 5.982 35.14 3.149 47.359 1.243 55.584.75 63.961 0 72.318v1.39c.564 1.391.564 2.782 0 4.173v11.126c.74 4.324 1.823 8.448 5.142 11.703 2.686 2.632 5.954 3.718 9.513 4.29h9.77c11.31-.993 21.192-6.544 31.74-9.955 8.956-2.895 17.672-6.508 26.762-9.019 1.456-.402 2.93-.818 4.25-1.556 5.124-2.866 9.382-6.415 9.823-12.847v-9.04c-.825-10.08-7.42-14.505-16.39-16.576-3.055-.704-6.138-1.276-9.295-1.169-3.042.104-6.011-.358-8.954-1.052-5.335-1.258-6.768-2.979-6.846-8.385-.063-4.39.001-8.782-.023-13.174-.025-4.461-1.028-8.724-2.888-12.755C50.324 4.528 46.976.767 41.173 0"/></g><g><g><path fill="#54bbbf" d="M84.797 38.882a1.099 1.099 0 0 1-1.096-1.101v-3.055c0-3.126-2.532-5.668-5.645-5.668h-2.194c-.438 0-.833-.261-1.007-.664l-.465-1.08a3.422 3.422 0 0 0-3.142-2.072h-7.274c-6.531 0-11.845 5.336-11.845 11.895v8.335a4 4 0 0 1 2.1-.668v-5.31c0-.2.005-.386.014-.565.016-.318.17-.614.419-.81.25-.197.573-.275.884-.215A27.021 27.021 0 0 0 77.81 32.24a1.093 1.093 0 0 1 1.596.223 12.292 12.292 0 0 1 2.192 7.033v5.308a3.997 3.997 0 0 1 2.102.669V42.98c0-.609.49-1.102 1.096-1.102.606 0 1.097.493 1.097 1.102v16.639c0 3.259-2.64 5.91-5.885 5.91h-6.273v1.555h2.284c4.927 0 8.937 4.026 8.937 8.974v14.737c0 .608-.491 1.101-1.097 1.101H57.237a1.099 1.099 0 0 1-1.096-1.1V78.13H50.66a1.099 1.099 0 0 1-1.097-1.1c0-.609.491-1.102 1.097-1.102h6.577c.606 0 1.097.493 1.097 1.101v12.664h19.163v-7.377c0-.608.49-1.101 1.097-1.101.605 0 1.096.493 1.096 1.1v7.378h3.073V76.058c0-3.734-3.025-6.772-6.744-6.772h-2.283v.55c0 3.175-4.746 5.923-5.287 6.226a1.09 1.09 0 0 1-1.067 0c-.541-.303-5.288-3.051-5.288-6.227v-.549H44.271a8.97 8.97 0 0 1 3.083 6.772v14.737c0 .608-.49 1.101-1.096 1.101h-31.89a1.099 1.099 0 0 1-1.097-1.101V79.057a3.85 3.85 0 0 1-2.231-3.493v-5.99c0-2.12 1.718-3.846 3.83-3.846h2.67c1.153 0 2.16.637 2.695 1.576a8.919 8.919 0 0 1 1.973-.22h2.283v-2.102a13.725 13.725 0 0 1-7.752-10.676c-2.223-.002-4.03-1.82-4.03-4.053v-1.397c0-.943.322-1.81.861-2.5-.635-2.347-1.013-3.999-1.126-4.91-.223-1.8-.025-6.866-.008-7.293.013-3.006 2.452-5.448 5.449-5.448h1.208l3.601-3.616a5.468 5.468 0 0 1 5.116-1.454l13.792 3.295a7.381 7.381 0 0 0 6.328-1.417 2.264 2.264 0 0 1 2.682-.134 2.286 2.286 0 0 1 .985 2.508l-.83 3.3a1.096 1.096 0 1 1-2.127-.539l.83-3.3c.01-.034.02-.076-.046-.119-.067-.043-.1-.015-.128.006a9.564 9.564 0 0 1-8.202 1.836l-13.792-3.293a3.268 3.268 0 0 0-3.057.868l-3.922 3.94a1.095 1.095 0 0 1-.776.322h-1.662a3.266 3.266 0 0 0-3.257 3.314c-.06 1.467-.178 5.575-.007 6.953.085.692.385 2.03.86 3.831.362-.12.747-.19 1.147-.202v-3.548c0-.58.447-1.06 1.022-1.099 2.867-.194 3.447-.785 3.447-3.512a1.095 1.095 0 1 1 2.053-.54c.01.017 1.238 2.12 4.2 3.646 3.954 2.037 9.22 2.135 15.23.284.332-.103.693-.04.973.167.28.208.445.536.445.885v3.717c.36.01.707.069 1.037.168l2.337-9.284a1.097 1.097 0 1 1 2.126.54l-2.524 10.029c.588.704.943 1.61.943 2.599v1.396c0 2.234-1.809 4.052-4.033 4.054a13.698 13.698 0 0 1-4.135 8.19 13.681 13.681 0 0 1-3.617 2.487v2.101h25.962v-1.555h-6.272c-3.245 0-5.886-2.651-5.886-5.91V37.137c0-7.773 6.298-14.097 14.038-14.097h7.274a5.614 5.614 0 0 1 5.155 3.4l.179.416h1.474c4.322 0 7.838 3.53 7.838 7.87v3.055c0 .608-.491 1.101-1.097 1.101zm-65.96 14.266a11.524 11.524 0 0 0 7.128 10.082l.063.025a11.43 11.43 0 0 0 4.282.828 11.432 11.432 0 0 0 4.305-.837 11.463 11.463 0 0 0 3.618-2.345 11.512 11.512 0 0 0 3.55-7.753 1.098 1.098 0 0 1 1.094-1.044h.998a1.85 1.85 0 0 0 1.843-1.852v-1.396a1.85 1.85 0 0 0-1.843-1.852h-.978a1.099 1.099 0 0 1-1.097-1.101v-3.357c-4.516 1.191-10.476 1.797-15.595-.91a14.192 14.192 0 0 1-3.255-2.351c-.559 1.742-1.845 2.636-4.13 2.964v3.654c0 .608-.49 1.101-1.096 1.101h-.98c-1.015 0-1.841.83-1.841 1.852v1.396c0 1.021.826 1.852 1.841 1.852h.997c.584 0 1.065.46 1.095 1.044zm15.105 12.646a13.652 13.652 0 0 1-7.255.001v4.045c0 2.011 1.627 3.647 3.627 3.647.97 0 1.881-.379 2.566-1.067a3.633 3.633 0 0 0 1.062-2.58zm-20.709 9.77a1.64 1.64 0 0 0 1.634 1.644h2.666c.501 0 .91-.41.91-.915v-7.447a.913.913 0 0 0-.91-.915h-2.666c-.9 0-1.634.737-1.634 1.643zm31.923.491c0-3.732-3.025-6.769-6.743-6.769h-2.285v.549a5.815 5.815 0 0 1-1.703 4.131 5.77 5.77 0 0 1-4.116 1.71c-3.208 0-5.819-2.62-5.819-5.841v-.549h-2.283c-.532 0-1.055.063-1.563.184v6.82a3.113 3.113 0 0 1-3.104 3.115h-2.076v10.279h3.073V82.31c0-.607.49-1.1 1.096-1.1.606 0 1.097.493 1.097 1.1v7.374h19.16V82.31c0-.607.49-1.1 1.096-1.1.606 0 1.096.493 1.096 1.1v7.374h3.074zM71.53 65.794a13.603 13.603 0 0 1-7.237.001v4.04c0 1.22 1.969 2.945 3.62 3.985 1.649-1.04 3.617-2.764 3.617-3.985zM83.7 53.637a3.99 3.99 0 0 1-2.211.67 13.715 13.715 0 0 1-5.084 9.02h3.608c2.032 0 3.687-1.663 3.687-3.708zM54.353 47a1.85 1.85 0 0 0-1.844 1.85v1.397a1.85 1.85 0 0 0 1.844 1.851h.998c.584 0 1.065.46 1.095 1.044a11.52 11.52 0 0 0 7.194 10.104c1.325.533 2.77.827 4.282.827a11.447 11.447 0 0 0 4.326-.845 11.47 11.47 0 0 0 3.6-2.336 11.511 11.511 0 0 0 3.552-7.75 1.098 1.098 0 0 1 1.095-1.044h.998c1.016 0 1.842-.83 1.842-1.85V48.85c0-1.02-.827-1.851-1.842-1.851h-.98a1.099 1.099 0 0 1-1.097-1.1v-6.407c0-1.683-.409-3.313-1.19-4.775a29.234 29.234 0 0 1-21.798 5.566V45.9c0 .608-.49 1.1-1.096 1.1zm-.007 7.306a3.993 3.993 0 0 1-2.211-.669v5.982c0 2.045 1.654 3.708 3.688 3.708h3.605a13.719 13.719 0 0 1-5.082-9.02z"/></g><g><path fill="none" stroke="#54bbbf" stroke-miterlimit="50" stroke-width=".6" d="M83.701 37.781v-3.055c0-3.126-2.532-5.668-5.645-5.668h-2.194c-.438 0-.833-.261-1.007-.664l-.465-1.08a3.422 3.422 0 0 0-3.142-2.072h-7.274c-6.531 0-11.845 5.336-11.845 11.895v8.335a4 4 0 0 1 2.1-.668v-5.31c0-.2.005-.386.014-.565.016-.318.17-.614.419-.81.25-.197.573-.275.884-.215A27.021 27.021 0 0 0 77.81 32.24a1.093 1.093 0 0 1 1.596.223 12.292 12.292 0 0 1 2.192 7.033v5.308a3.997 3.997 0 0 1 2.102.669V42.98c0-.609.49-1.102 1.096-1.102.606 0 1.097.493 1.097 1.102v16.639c0 3.259-2.64 5.91-5.885 5.91h-6.273v1.555h2.284c4.927 0 8.937 4.026 8.937 8.974v14.737c0 .608-.491 1.101-1.097 1.101H57.237a1.099 1.099 0 0 1-1.096-1.1V78.13H50.66a1.099 1.099 0 0 1-1.097-1.1c0-.609.491-1.102 1.097-1.102h6.577c.606 0 1.097.493 1.097 1.101v12.664h19.163v-7.377c0-.608.49-1.101 1.097-1.101.605 0 1.096.493 1.096 1.1v7.378h3.073V76.058c0-3.734-3.025-6.772-6.744-6.772h-2.283v.55c0 3.175-4.746 5.923-5.287 6.226a1.09 1.09 0 0 1-1.067 0c-.541-.303-5.288-3.051-5.288-6.227v-.549H44.271a8.97 8.97 0 0 1 3.083 6.772v14.737c0 .608-.49 1.101-1.096 1.101h-31.89a1.099 1.099 0 0 1-1.097-1.101V79.057a3.85 3.85 0 0 1-2.231-3.493v-5.99c0-2.12 1.718-3.846 3.83-3.846h2.67c1.153 0 2.16.637 2.695 1.576a8.919 8.919 0 0 1 1.973-.22h2.283v-2.102a13.725 13.725 0 0 1-7.752-10.676c-2.223-.002-4.03-1.82-4.03-4.053v-1.397c0-.943.322-1.81.861-2.5-.635-2.347-1.013-3.999-1.126-4.91-.223-1.8-.025-6.866-.008-7.293.013-3.006 2.452-5.448 5.449-5.448h1.208l3.601-3.616a5.468 5.468 0 0 1 5.116-1.454l13.792 3.295a7.381 7.381 0 0 0 6.328-1.417 2.264 2.264 0 0 1 2.682-.134 2.286 2.286 0 0 1 .985 2.508l-.83 3.3a1.096 1.096 0 1 1-2.127-.539l.83-3.3c.01-.034.02-.076-.046-.119-.067-.043-.1-.015-.128.006a9.564 9.564 0 0 1-8.202 1.836l-13.792-3.293a3.268 3.268 0 0 0-3.057.868l-3.922 3.94a1.095 1.095 0 0 1-.776.322h-1.662a3.266 3.266 0 0 0-3.257 3.314c-.06 1.467-.178 5.575-.007 6.953.085.692.385 2.03.86 3.831.362-.12.747-.19 1.147-.202v-3.548c0-.58.447-1.06 1.022-1.099 2.867-.194 3.447-.785 3.447-3.512a1.095 1.095 0 1 1 2.053-.54c.01.017 1.238 2.12 4.2 3.646 3.954 2.037 9.22 2.135 15.23.284.332-.103.693-.04.973.167.28.208.445.536.445.885v3.717c.36.01.707.069 1.037.168l2.337-9.284a1.097 1.097 0 1 1 2.126.54l-2.524 10.029c.588.704.943 1.61.943 2.599v1.396c0 2.234-1.809 4.052-4.033 4.054a13.698 13.698 0 0 1-4.135 8.19 13.681 13.681 0 0 1-3.617 2.487v2.101h25.962v-1.555h-6.272c-3.245 0-5.886-2.651-5.886-5.91V37.137c0-7.773 6.298-14.097 14.038-14.097h7.274a5.614 5.614 0 0 1 5.155 3.4l.179.416h1.474c4.322 0 7.838 3.53 7.838 7.87v3.055c0 .608-.491 1.101-1.097 1.101a1.099 1.099 0 0 1-1.096-1.101zM25.965 63.23l.063.025a11.43 11.43 0 0 0 4.282.828 11.432 11.432 0 0 0 4.305-.837 11.463 11.463 0 0 0 3.618-2.345 11.512 11.512 0 0 0 3.55-7.753 1.098 1.098 0 0 1 1.094-1.044h.998a1.85 1.85 0 0 0 1.843-1.852v-1.396a1.85 1.85 0 0 0-1.843-1.852h-.978a1.099 1.099 0 0 1-1.097-1.101v-3.357c-4.516 1.191-10.476 1.797-15.595-.91a14.192 14.192 0 0 1-3.255-2.351c-.559 1.742-1.845 2.636-4.13 2.964v3.654c0 .608-.49 1.101-1.096 1.101h-.98c-1.015 0-1.841.83-1.841 1.852v1.396c0 1.021.826 1.852 1.841 1.852h.997c.584 0 1.065.46 1.095 1.044a11.524 11.524 0 0 0 7.129 10.082zm4.35 3.056c-1.255 0-2.471-.172-3.628-.491v4.045c0 2.011 1.627 3.647 3.627 3.647.97 0 1.881-.379 2.566-1.067a3.633 3.633 0 0 0 1.062-2.58v-4.046c-1.17.322-2.386.492-3.626.492zM14.868 77.208h2.666c.501 0 .91-.41.91-.915v-7.447a.913.913 0 0 0-.91-.915h-2.666c-.9 0-1.634.737-1.634 1.643v5.99a1.64 1.64 0 0 0 1.634 1.644zm23.546-7.922h-2.285v.549a5.815 5.815 0 0 1-1.703 4.131 5.77 5.77 0 0 1-4.116 1.71c-3.208 0-5.819-2.62-5.819-5.841v-.549h-2.283c-.532 0-1.055.063-1.563.184v6.82a3.113 3.113 0 0 1-3.104 3.115h-2.076v10.279h3.073V82.31c0-.607.49-1.1 1.096-1.1.606 0 1.097.493 1.097 1.1v7.374h19.16V82.31c0-.607.49-1.1 1.096-1.1.606 0 1.096.493 1.096 1.1v7.374h3.074V76.055c0-3.732-3.025-6.769-6.743-6.769zm33.118-3.492a13.603 13.603 0 0 1-7.237.001v4.04c0 1.22 1.969 2.945 3.62 3.985 1.649-1.04 3.617-2.764 3.617-3.985zm9.959-11.488a13.715 13.715 0 0 1-5.084 9.021h3.608c2.032 0 3.687-1.663 3.687-3.708v-5.982a3.99 3.99 0 0 1-2.211.67zm-28.98-5.455h0v1.396a1.85 1.85 0 0 0 1.843 1.851h.998c.584 0 1.065.46 1.095 1.044a11.52 11.52 0 0 0 7.194 10.104c1.325.533 2.77.827 4.282.827a11.447 11.447 0 0 0 4.326-.845 11.47 11.47 0 0 0 3.6-2.336 11.511 11.511 0 0 0 3.552-7.75 1.098 1.098 0 0 1 1.095-1.044h.998c1.016 0 1.842-.83 1.842-1.85V48.85c0-1.02-.827-1.851-1.842-1.851h-.98a1.099 1.099 0 0 1-1.097-1.1v-6.407c0-1.683-.409-3.313-1.19-4.775a29.234 29.234 0 0 1-21.798 5.566V45.9c0 .608-.49 1.1-1.096 1.1h-.979a1.85 1.85 0 0 0-1.844 1.852zm-.375 4.786v5.982c0 2.045 1.654 3.708 3.688 3.708h3.605a13.719 13.719 0 0 1-5.082-9.02 3.993 3.993 0 0 1-2.211-.67z"/></g></g></g></g></svg>