<svg xmlns="http://www.w3.org/2000/svg" width="97" height="105" viewBox="0 0 97 105"><g><g><path fill="#fdf1e5" d="M41.173 0h-4.885c-8.98.487-14.732 5.91-19.516 12.746C9.46 23.194 5.982 35.14 3.149 47.359 1.243 55.584.75 63.961 0 72.318v1.39c.564 1.391.564 2.782 0 4.173v11.126c.74 4.324 1.823 8.448 5.142 11.703 2.686 2.632 5.954 3.718 9.513 4.29h9.77c11.31-.993 21.192-6.544 31.74-9.955 8.956-2.895 17.672-6.508 26.762-9.019 1.456-.402 2.93-.818 4.25-1.556 5.124-2.866 9.382-6.415 9.823-12.847v-9.04c-.825-10.08-7.42-14.505-16.39-16.576-3.055-.704-6.138-1.276-9.295-1.169-3.042.104-6.011-.358-8.954-1.052-5.335-1.258-6.768-2.979-6.846-8.385-.063-4.39.001-8.782-.023-13.174-.025-4.461-1.028-8.724-2.888-12.755C50.324 4.528 46.976.767 41.173 0"/></g><g><g><path fill="#f68b1f" d="M82.299 34.686a1.574 1.574 0 0 0-1.106-.456 1.56 1.56 0 0 0-1.563 1.557c0 .409.166.81.457 1.1.292.29.693.456 1.106.456a1.58 1.58 0 0 0 1.106-.456c.29-.29.456-.69.456-1.1 0-.411-.166-.811-.456-1.1"/></g><g><path fill="none" stroke="#f68b1f" stroke-miterlimit="50" stroke-width=".6" d="M82.299 34.686a1.574 1.574 0 0 0-1.106-.456 1.56 1.56 0 0 0-1.563 1.557c0 .409.166.81.457 1.1.292.29.693.456 1.106.456a1.58 1.58 0 0 0 1.106-.456c.29-.29.456-.69.456-1.1 0-.411-.166-.811-.456-1.1z"/></g><g><path fill="#f68b1f" d="M46.049 71.416a1.574 1.574 0 0 0-1.106-.456c-.412 0-.814.165-1.107.456-.29.29-.456.69-.456 1.1 0 .41.166.811.456 1.101.293.29.694.456 1.107.456a1.58 1.58 0 0 0 1.106-.456c.29-.29.456-.69.456-1.1 0-.411-.166-.811-.456-1.1"/></g><g><path fill="none" stroke="#f68b1f" stroke-miterlimit="50" stroke-width=".6" d="M46.049 71.416a1.574 1.574 0 0 0-1.106-.456c-.412 0-.814.165-1.107.456-.29.29-.456.69-.456 1.1 0 .41.166.811.456 1.101.293.29.694.456 1.107.456a1.58 1.58 0 0 0 1.106-.456c.29-.29.456-.69.456-1.1 0-.411-.166-.811-.456-1.1z"/></g><g><path fill="#f68b1f" d="M85.872 40.108c5.335 9.313 3.726 21.115-3.915 28.699l-3.03 3.008c-.127.126-.27.224-.422.297a5.872 5.872 0 0 1-5.678 3.606 5.808 5.808 0 0 1-1.717 4.368 5.872 5.872 0 0 1-4.401 1.706 5.806 5.806 0 0 1-1.716 4.367 5.892 5.892 0 0 1-4.46 1.702 5.81 5.81 0 0 1-1.714 4.427A5.872 5.872 0 0 1 54.656 94a5.872 5.872 0 0 1-4.164-1.712l-2.95-2.929-2.184 2.169a5.87 5.87 0 0 1-4.164 1.712 5.872 5.872 0 0 1-4.163-1.712 5.808 5.808 0 0 1-1.717-4.37 5.892 5.892 0 0 1-4.401-1.704 5.786 5.786 0 0 1-1.72-4.37 5.892 5.892 0 0 1-4.399-1.704 5.787 5.787 0 0 1-1.718-4.369 5.892 5.892 0 0 1-4.399-1.704 5.8 5.8 0 0 1-1.702-3.679 1.572 1.572 0 0 1-.337-.252l-.588-.585C11.504 64.278 9 58.277 9 51.895c0-6.383 2.503-12.383 7.05-16.896C20.595 30.485 26.64 28 33.069 28c5.934 0 11.54 2.12 15.942 5.994 3.584-3.15 7.957-5.136 12.734-5.768 5.104-.675 10.381.312 14.86 2.779a1.546 1.546 0 0 1 .61 2.109 1.57 1.57 0 0 1-2.125.604c-8.121-4.472-18.386-3.037-24.96 3.49L39.37 47.89a3.549 3.549 0 0 0 0 5.039 3.612 3.612 0 0 0 5.076 0l4.713-4.679a1.57 1.57 0 0 1 1.105-.454h6.156a7.638 7.638 0 0 0 5.416-2.227l3.079-3.057c.61-.606 1.6-.606 2.21 0 .61.605.61 1.588 0 2.194l-3.08 3.057a10.8 10.8 0 0 1-2.871 2.042l16.055 15.94c.605.6 1.048 1.299 1.334 2.044l1.185-1.176c6.648-6.6 8.05-16.869 3.408-24.972a1.545 1.545 0 0 1 .586-2.115 1.569 1.569 0 0 1 2.13.582m-63.03 31.809c.738 0 1.431-.286 1.953-.804l2.693-2.673a2.732 2.732 0 0 0 0-3.88 2.755 2.755 0 0 0-1.954-.803c-.738 0-1.432.285-1.954.803l-2.693 2.673a2.715 2.715 0 0 0-.81 1.94c0 .733.288 1.422.81 1.94a2.755 2.755 0 0 0 1.954.804m4.163 5.27a2.775 2.775 0 0 0 3.904 0l2.69-2.674a2.735 2.735 0 0 0 0-3.88 2.75 2.75 0 0 0-1.952-.803 2.75 2.75 0 0 0-1.952.804l-2.69 2.673a2.717 2.717 0 0 0-.808 1.94c0 .733.287 1.422.808 1.94m6.12 6.073a2.78 2.78 0 0 0 3.907 0l2.693-2.673a2.732 2.732 0 0 0 0-3.88 2.754 2.754 0 0 0-1.954-.803c-.738 0-1.432.285-1.954.803l-2.693 2.674a2.714 2.714 0 0 0-.81 1.94c0 .732.288 1.421.81 1.94m12.719 3.4c.522-.519.81-1.208.809-1.94 0-.733-.287-1.422-.81-1.94a2.756 2.756 0 0 0-1.953-.804c-.738 0-1.432.286-1.954.804l-2.693 2.673a2.732 2.732 0 0 0 0 3.88 2.755 2.755 0 0 0 1.954.804c.738 0 1.432-.286 1.954-.804l2.693-2.674m29.177-14.835a2.735 2.735 0 0 0 .001-3.88L57.77 50.815c-.445.055-.894.086-1.35.086h-5.508l-4.255 4.225a6.718 6.718 0 0 1-4.748 1.95 6.72 6.72 0 0 1-4.748-1.95 6.6 6.6 0 0 1-1.966-4.715 6.6 6.6 0 0 1 1.966-4.714l9.603-9.535c-3.803-3.274-8.61-5.06-13.694-5.06-5.594 0-10.854 2.163-14.81 6.09-3.956 3.928-6.134 9.15-6.134 14.705 0 5.34 2.014 10.373 5.685 14.244.24-.39.527-.76.867-1.097l2.693-2.674c2.296-2.28 6.032-2.28 8.328 0a5.81 5.81 0 0 1 1.716 4.368c.08-.003.158-.006.238-.006 1.573 0 3.051.609 4.164 1.713a5.808 5.808 0 0 1 1.716 4.368c.079-.003.158-.006.237-.006 1.573 0 3.052.608 4.164 1.712a5.81 5.81 0 0 1 1.717 4.368c.079-.003.157-.006.237-.006 1.573 0 3.052.609 4.164 1.713a5.789 5.789 0 0 1 1.724 4.134c0 .725-.133 1.429-.385 2.086l3.312 3.288a2.754 2.754 0 0 0 1.954.804c.737 0 1.432-.285 1.954-.804a2.733 2.733 0 0 0 0-3.88l-8.704-8.641a1.544 1.544 0 0 1 0-2.195c.61-.606 1.6-.606 2.21 0l1.855 1.842c.144.072.28.167.4.287l6.504 6.458a2.78 2.78 0 0 0 3.908 0 2.733 2.733 0 0 0 0-3.88l-6.505-6.458-.001-.002-6.117-6.073a1.544 1.544 0 0 1 0-2.195c.61-.605 1.6-.605 2.21 0L64.994 77.9a2.754 2.754 0 0 0 1.954.804c.737 0 1.432-.286 1.954-.804a2.733 2.733 0 0 0 0-3.88L56.279 61.486a1.544 1.544 0 0 1 0-2.194 1.57 1.57 0 0 1 2.21 0l6.117 6.074h.001l6.504 6.459a2.755 2.755 0 0 0 1.954.804c.738 0 1.432-.286 1.954-.804"/></g><g><path fill="none" stroke="#f68b1f" stroke-miterlimit="50" stroke-width=".6" d="M81.957 68.807l-3.03 3.008c-.127.126-.27.224-.422.297a5.872 5.872 0 0 1-5.678 3.606 5.808 5.808 0 0 1-1.717 4.368 5.872 5.872 0 0 1-4.401 1.706 5.806 5.806 0 0 1-1.716 4.367 5.892 5.892 0 0 1-4.46 1.702 5.81 5.81 0 0 1-1.714 4.427A5.872 5.872 0 0 1 54.656 94a5.872 5.872 0 0 1-4.164-1.712l-2.95-2.929-2.184 2.169a5.87 5.87 0 0 1-4.164 1.712 5.872 5.872 0 0 1-4.163-1.712 5.808 5.808 0 0 1-1.717-4.37 5.892 5.892 0 0 1-4.401-1.704 5.786 5.786 0 0 1-1.72-4.37 5.892 5.892 0 0 1-4.399-1.704 5.787 5.787 0 0 1-1.718-4.369 5.892 5.892 0 0 1-4.399-1.704 5.8 5.8 0 0 1-1.702-3.679 1.572 1.572 0 0 1-.337-.252l-.588-.585C11.504 64.278 9 58.277 9 51.895c0-6.383 2.503-12.383 7.05-16.896C20.595 30.485 26.64 28 33.069 28c5.934 0 11.54 2.12 15.942 5.994 3.584-3.15 7.957-5.136 12.734-5.768 5.104-.675 10.381.312 14.86 2.779a1.546 1.546 0 0 1 .61 2.109 1.57 1.57 0 0 1-2.125.604c-8.121-4.472-18.386-3.037-24.96 3.49L39.37 47.89a3.549 3.549 0 0 0 0 5.039 3.612 3.612 0 0 0 5.076 0l4.713-4.679a1.57 1.57 0 0 1 1.105-.454h6.156a7.638 7.638 0 0 0 5.416-2.227l3.079-3.057c.61-.606 1.6-.606 2.21 0 .61.605.61 1.588 0 2.194l-3.08 3.057a10.8 10.8 0 0 1-2.871 2.042l16.055 15.94c.605.6 1.048 1.299 1.334 2.044l1.185-1.176c6.648-6.6 8.05-16.869 3.408-24.972a1.545 1.545 0 0 1 .586-2.115 1.569 1.569 0 0 1 2.13.582c5.335 9.313 3.726 21.115-3.915 28.699zm-57.162 2.306l2.693-2.673a2.732 2.732 0 0 0 0-3.88 2.755 2.755 0 0 0-1.954-.803c-.738 0-1.432.285-1.954.803l-2.693 2.673a2.715 2.715 0 0 0-.81 1.94c0 .733.288 1.422.81 1.94a2.755 2.755 0 0 0 1.954.804c.739 0 1.432-.286 1.954-.804zm6.113 6.074l2.69-2.674a2.735 2.735 0 0 0 0-3.88 2.75 2.75 0 0 0-1.952-.803 2.75 2.75 0 0 0-1.952.803v0l-2.69 2.674a2.717 2.717 0 0 0-.808 1.94c0 .733.287 1.422.808 1.94a2.775 2.775 0 0 0 3.904 0zm6.123 6.073l2.693-2.673a2.732 2.732 0 0 0 0-3.88 2.754 2.754 0 0 0-1.954-.803c-.738 0-1.432.285-1.954.803v0l-2.693 2.674a2.714 2.714 0 0 0-.81 1.94c0 .732.288 1.421.81 1.94a2.78 2.78 0 0 0 3.908 0zm9.62 1.46c0-.732-.287-1.421-.81-1.94a2.756 2.756 0 0 0-1.953-.803c-.738 0-1.432.286-1.954.804v0l-2.693 2.673a2.732 2.732 0 0 0 0 3.88 2.755 2.755 0 0 0 1.954.804c.738 0 1.432-.286 1.954-.804l2.693-2.674c.522-.518.81-1.206.809-1.94zm28.37-16.776L57.77 50.816c-.445.055-.894.086-1.35.086h-5.508l-4.255 4.225a6.718 6.718 0 0 1-4.748 1.95 6.72 6.72 0 0 1-4.748-1.95 6.6 6.6 0 0 1-1.966-4.715 6.6 6.6 0 0 1 1.966-4.714l9.603-9.535c-3.803-3.274-8.61-5.06-13.694-5.06-5.594 0-10.854 2.163-14.81 6.09-3.956 3.928-6.134 9.15-6.134 14.705 0 5.34 2.014 10.373 5.685 14.244.24-.39.527-.76.867-1.097l2.693-2.674c2.296-2.28 6.032-2.28 8.328 0a5.81 5.81 0 0 1 1.716 4.368c.08-.003.158-.006.238-.006 1.573 0 3.051.609 4.164 1.713a5.808 5.808 0 0 1 1.716 4.368c.079-.003.158-.006.237-.006 1.573 0 3.052.608 4.164 1.712a5.81 5.81 0 0 1 1.717 4.368c.079-.003.157-.006.237-.006 1.573 0 3.052.609 4.164 1.713a5.789 5.789 0 0 1 1.724 4.134c0 .725-.133 1.429-.385 2.086l3.312 3.288a2.754 2.754 0 0 0 1.954.804c.737 0 1.432-.285 1.954-.804a2.733 2.733 0 0 0 0-3.88l-8.704-8.641a1.544 1.544 0 0 1 0-2.195c.61-.606 1.6-.606 2.21 0l1.855 1.842c.144.072.28.167.4.287l6.504 6.458a2.78 2.78 0 0 0 3.908 0 2.733 2.733 0 0 0 0-3.88l-6.505-6.458-.001-.002-6.117-6.073a1.544 1.544 0 0 1 0-2.195c.61-.605 1.6-.605 2.21 0L64.994 77.9a2.754 2.754 0 0 0 1.954.804c.737 0 1.432-.286 1.954-.804a2.733 2.733 0 0 0 0-3.88L56.279 61.486a1.544 1.544 0 0 1 0-2.194 1.57 1.57 0 0 1 2.21 0l6.117 6.074h.001l6.504 6.459a2.755 2.755 0 0 0 1.954.804c.738 0 1.432-.286 1.954-.804a2.735 2.735 0 0 0 .001-3.88z"/></g></g></g></svg>