<svg xmlns="http://www.w3.org/2000/svg" width="128" height="95" viewBox="0 0 128 95"><g><g><path fill="#fef2e6" d="M85.106 0h-8.85C59.525 1.617 52.062 13.591 45.95 27.018c-.902 1.983-.591 4.217-.634 6.357-.16 8.012-3.66 10.713-11.336 8.24-4.974-1.602-9.848-2.416-14.989-1.209-1.342.316-2.61.712-3.75 1.492-4.705 3.226-8.703 7.155-12.07 11.764C1.097 56.506.59 59.805 0 63.107v8.143c.98 9.011 5.21 15.97 12.951 20.86 2.752 1.74 5.768 2.306 8.836 2.89h8.17c6.184-.589 11.048-3.674 15.232-8.025 3.358-3.492 7.604-5.293 12.235-6.228 7.193-1.453 14.215-.587 21.05 1.953 2.445.91 4.975 1.692 7.249 2.936 12.136 6.64 29.938 1.556 37.896-12.906 2.624-4.771 3.996-9.723 4.381-15.051v-9.5c-1.788-17.84-12.577-30.466-25.039-41.86C98.727 2.45 93.028.55 87.042.343 86.385.319 85.677.527 85.106 0"/></g><g><g><path fill="#f68b1f" d="M96.508 61.39a4.04 4.04 0 0 1 4.586 1.48c.684.973.944 2.183.72 3.35a4.245 4.245 0 0 1-1.838 2.762L80.661 81.361a8.32 8.32 0 0 1-4.434 1.298H49.131a12.52 12.52 0 0 1-7.698-2.166 2.48 2.48 0 0 1-1.917.918h-9.98a2.498 2.498 0 0 1-2.496-2.495V61.45a2.498 2.498 0 0 1 2.495-2.495h9.98c.822 0 1.59.406 2.054 1.083 4.128-3.52 10.524-3.578 10.838-3.578h.632c2.44.009 4.801.872 6.672 2.44a7.939 7.939 0 0 0 5.072 1.878h5.39a6.386 6.386 0 0 1 5.506 3.234l.098.177a5.302 5.302 0 0 1 .486 4.038h.297c.296.003.59-.046.869-.143zm-57 17.526V61.45h-9.972v17.466zm59.855-13.17a1.865 1.865 0 0 0-.3-1.427 1.525 1.525 0 0 0-1.742-.573l-19.05 6.681a5.051 5.051 0 0 1-1.71.29h-9.165a7.718 7.718 0 0 0-4.426 1.417l-.746.523a1.248 1.248 0 0 1-1.433-2.041l.748-.525a10.204 10.204 0 0 1 5.857-1.868h6.14a2.78 2.78 0 0 0 .063-2.82l-.097-.177a3.823 3.823 0 0 0-3.329-1.955h-5.39a10.436 10.436 0 0 1-6.67-2.457 7.947 7.947 0 0 0-5.072-1.859h-.633c-.073 0-7.348.067-10.395 4.22v14.467c.493.637 2.35 2.512 7.12 2.512h27.095a5.82 5.82 0 0 0 3.096-.91l19.3-12.364c.392-.26.659-.67.74-1.133z"/></g><g><path fill="none" stroke="#f68b1f" stroke-miterlimit="50" stroke-width=".6" d="M101.094 62.87c.684.973.944 2.183.72 3.35a4.245 4.245 0 0 1-1.838 2.762L80.661 81.361a8.32 8.32 0 0 1-4.434 1.298H49.131a12.52 12.52 0 0 1-7.698-2.166 2.48 2.48 0 0 1-1.917.918h-9.98a2.498 2.498 0 0 1-2.496-2.495V61.45a2.498 2.498 0 0 1 2.495-2.495h9.98c.822 0 1.59.406 2.054 1.083 4.128-3.52 10.524-3.578 10.838-3.578h.632c2.44.009 4.801.872 6.672 2.44a7.939 7.939 0 0 0 5.072 1.878h5.39a6.386 6.386 0 0 1 5.506 3.234l.098.177a5.302 5.302 0 0 1 .486 4.038h.297c.296.003.59-.046.869-.143l19.079-6.694a4.04 4.04 0 0 1 4.586 1.48zM39.507 78.916V61.45h-9.971v17.466zM99.064 64.32a1.525 1.525 0 0 0-1.743-.573l-19.05 6.681a5.051 5.051 0 0 1-1.71.29h-9.165a7.718 7.718 0 0 0-4.426 1.417l-.746.523a1.248 1.248 0 0 1-1.433-2.041l.748-.525a10.204 10.204 0 0 1 5.857-1.868h6.14a2.78 2.78 0 0 0 .063-2.82l-.097-.177a3.823 3.823 0 0 0-3.329-1.955h-5.39a10.436 10.436 0 0 1-6.67-2.457 7.947 7.947 0 0 0-5.072-1.859h-.633c-.073 0-7.348.067-10.395 4.22v14.467c.493.637 2.35 2.512 7.12 2.512h27.095a5.82 5.82 0 0 0 3.096-.91l19.3-12.364c.392-.26.659-.67.74-1.133a1.865 1.865 0 0 0-.3-1.428z"/></g><g><path fill="#f68b1f" d="M33.285 75.17c.33-.005.646-.134.886-.362.11-.121.198-.26.262-.412a1.25 1.25 0 0 0 .1-.474 1.313 1.313 0 0 0-.362-.886 1.306 1.306 0 0 0-1.772 0 1.248 1.248 0 0 0 .886 2.134"/></g><g><path fill="#f68b1f" d="M68.328 42.549c-3.323-.057-6.01-1.225-7.984-3.46-4.366-4.921-3.64-13.359-3.561-14.164.283-6.09 3.187-8.982 5.568-10.331 2.37-1.35 4.843-1.554 6.101-1.554h.193c2.291.045 4.344.59 6.102 1.6 2.359 1.349 5.217 4.24 5.5 10.285.08.805.805 9.243-3.561 14.165-1.985 2.234-4.672 3.402-7.995 3.459h-.363M59.81 25.213c-.012.068-.783 7.817 2.812 11.856 1.418 1.61 3.335 2.405 5.83 2.428h.113c2.506-.023 4.412-.817 5.84-2.428 3.607-4.062 2.813-11.777 2.802-11.856-.012-.023-.012-.057-.012-.091-.351-7.693-5.557-8.94-8.619-9.009h-.136c-2.472 0-8.245.874-8.619 9.009 0 .023-.011.057-.011.09"/></g><g><path fill="none" stroke="#f68b1f" stroke-miterlimit="50" stroke-width=".6" d="M60.344 39.09c-4.366-4.922-3.64-13.36-3.561-14.165.283-6.09 3.187-8.982 5.568-10.331 2.37-1.35 4.843-1.554 6.101-1.554h.193c2.291.045 4.344.59 6.102 1.6 2.359 1.349 5.217 4.24 5.5 10.285.08.805.805 9.243-3.561 14.165-1.985 2.234-4.672 3.402-7.995 3.459h-.363c-3.323-.057-6.01-1.225-7.984-3.46zm2.28-2.021c1.417 1.61 3.334 2.405 5.828 2.428h.114c2.506-.023 4.412-.817 5.84-2.428 3.607-4.062 2.813-11.777 2.802-11.856-.012-.023-.012-.057-.012-.091-.351-7.693-5.557-8.94-8.619-9.009h-.136c-2.472 0-8.245.874-8.619 9.009 0 .023-.011.057-.011.09-.012.069-.783 7.818 2.812 11.857z"/></g><g><path fill="#f68b1f" d="M91.81 56.543v-.034c0-.09-.011-.181-.011-.283-.069-2.246-.216-7.497-5.138-9.175-.034-.012-.08-.023-.113-.034-5.115-1.305-9.368-4.253-9.413-4.287a1.53 1.53 0 0 0-2.132.374 1.529 1.529 0 0 0 .374 2.132c.193.136 4.707 3.278 10.354 4.73 2.643.94 2.937 3.764 3.017 6.35 0 .102 0 .193.011.284.012 1.02-.056 2.597-.238 3.504-1.837 1.043-9.038 4.65-19.994 4.65-10.91 0-18.157-3.618-20.005-4.661-.182-.908-.261-2.484-.238-3.504 0-.091.011-.182.011-.284.08-2.586.374-5.41 3.017-6.351 5.648-1.452 10.161-4.604 10.354-4.73a1.53 1.53 0 0 0 .374-2.131 1.53 1.53 0 0 0-2.132-.375c-.045.035-4.275 2.983-9.413 4.287-.045.012-.08.023-.113.034-4.922 1.69-5.07 6.941-5.138 9.175 0 .102 0 .193-.01.284v.034c-.012.59-.024 3.617.577 5.137.114.295.318.544.59.715.34.226 8.494 5.42 22.138 5.42 13.643 0 21.797-5.205 22.137-5.42.26-.17.476-.42.59-.715.567-1.508.555-4.536.544-5.126"/></g><g><path fill="none" stroke="#f68b1f" stroke-miterlimit="50" stroke-width=".6" d="M91.81 56.543v-.034c0-.09-.011-.181-.011-.283-.069-2.246-.216-7.497-5.138-9.175-.034-.012-.08-.023-.113-.034-5.115-1.305-9.368-4.253-9.413-4.287a1.53 1.53 0 0 0-2.132.374 1.529 1.529 0 0 0 .374 2.132c.193.136 4.707 3.278 10.354 4.73 2.643.94 2.937 3.764 3.017 6.35 0 .102 0 .193.011.284.012 1.02-.056 2.597-.238 3.504-1.837 1.043-9.038 4.65-19.994 4.65-10.91 0-18.157-3.618-20.005-4.661-.182-.908-.261-2.484-.238-3.504 0-.091.011-.182.011-.284.08-2.586.374-5.41 3.017-6.351 5.648-1.452 10.161-4.604 10.354-4.73a1.53 1.53 0 0 0 .374-2.131 1.53 1.53 0 0 0-2.132-.375c-.045.035-4.275 2.983-9.413 4.287-.045.012-.08.023-.113.034-4.922 1.69-5.07 6.941-5.138 9.175 0 .102 0 .193-.01.284v.034c-.012.59-.024 3.617.577 5.137.114.295.318.544.59.715.34.226 8.494 5.42 22.138 5.42 13.643 0 21.797-5.205 22.137-5.42.26-.17.476-.42.59-.715.567-1.508.555-4.536.544-5.126z"/></g><g><path fill="#fef2e6" d="M44.119 61.571c2.81-2.341 8.688-2.341 8.688-2.341l8.713 4.046s9.302.215 10.707.723c1.608.582 1.945 4.205 1.314 4.228-1.077.04-19.338-.406-19.338-.406s-12.356-4.357-10.084-6.25"/></g></g></g></svg>