<?xml version="1.0" encoding="utf-8"?>
<!-- Generator: Adobe Illustrator 16.0.0, SVG Export Plug-In . SVG Version: 6.00 Build 0)  -->
<!DOCTYPE svg PUBLIC "-//W3C//DTD SVG 1.1//EN" "http://www.w3.org/Graphics/SVG/1.1/DTD/svg11.dtd">
<svg version="1.1" id="Слой_1" xmlns="http://www.w3.org/2000/svg" xmlns:xlink="http://www.w3.org/1999/xlink" x="0px" y="0px"
	 width="32.5px" height="31.769px" viewBox="0 0 32.5 31.769" enable-background="new 0 0 32.5 31.769" xml:space="preserve">
<g>
	<g>
		<path fill="#FFFFFF" d="M28.331,2.225c-0.03,0.06-0.069,0.12-0.109,0.17l-20.32,27.15h-3.72c0.03-0.06,0.07-0.12,0.11-0.17
			l20.32-27.15H28.331z"/>
	</g>
	<g>
		<path fill="#FFFFFF" d="M9.421,0.115c-3.46,0-6.27,2.81-6.27,6.27c0,3.46,2.81,6.27,6.27,6.27s6.28-2.81,6.28-6.27
			C15.701,2.924,12.881,0.115,9.421,0.115z M9.421,9.655c-1.8,0-3.27-1.46-3.27-3.27c0-1.8,1.47-3.27,3.27-3.27
			c1.81,0,3.28,1.47,3.28,3.27C12.701,8.194,11.231,9.655,9.421,9.655z"/>
	</g>
	<g>
		<path fill="#FFFFFF" d="M23.071,18.145c-3.45,0-6.27,2.82-6.27,6.28c0,3.45,2.82,6.27,6.27,6.27c3.46,0,6.28-2.82,6.28-6.27
			C29.352,20.964,26.531,18.145,23.071,18.145z M23.071,27.694c-1.8,0-3.27-1.47-3.27-3.27c0-1.81,1.47-3.28,3.27-3.28
			c1.81,0,3.28,1.47,3.28,3.28C26.352,26.225,24.881,27.694,23.071,27.694z"/>
	</g>
</g>
</svg>
