<?xml version="1.0" encoding="utf-8"?>
<!-- Generator: Adobe Illustrator 16.0.0, SVG Export Plug-In . SVG Version: 6.00 Build 0)  -->
<!DOCTYPE svg PUBLIC "-//W3C//DTD SVG 1.1//EN" "http://www.w3.org/Graphics/SVG/1.1/DTD/svg11.dtd">
<svg version="1.1" id="Слой_1" xmlns="http://www.w3.org/2000/svg" xmlns:xlink="http://www.w3.org/1999/xlink" x="0px" y="0px"
	 width="35.541px" height="35.541px" viewBox="0 0 35.541 35.541" enable-background="new 0 0 35.541 35.541" xml:space="preserve">
<g>
	<g>
		<path fill="#FFFFFF" d="M31.472,0.001h-27.4c-2.25,0-4.07,1.82-4.07,4.07v27.4c0,2.25,1.82,4.07,4.07,4.07h27.4
			c2.25,0,4.07-1.82,4.07-4.07v-27.4C35.542,1.821,33.722,0.001,31.472,0.001z M32.542,31.471c0,0.59-0.48,1.07-1.07,1.07h-27.4
			c-0.59,0-1.07-0.48-1.07-1.07v-27.4c0-0.59,0.48-1.07,1.07-1.07h27.4c0.59,0,1.07,0.48,1.07,1.07V31.471z"/>
		<path fill="#FFFFFF" d="M22.772,19.541c1.83-1.47,3.01-3.72,3.01-6.25c0-4.41-3.6-8-8.01-8c-4.42,0-8.01,3.59-8.01,8
			c0,2.53,1.17,4.78,3.01,6.25c-3.42,1.8-5.76,5.39-5.76,9.52c0,0.04,0,0.08,0.01,0.12h2.98c0.01-0.04,0.01-0.08,0.01-0.12
			c0-4.28,3.48-7.76,7.76-7.76c4.28,0,7.76,3.48,7.76,7.76c0,0.04,0,0.08,0.01,0.12h2.979c0.011-0.04,0.011-0.08,0.011-0.12
			C28.532,24.931,26.191,21.341,22.772,19.541z M17.772,18.301c-2.76,0-5.01-2.25-5.01-5.01c0-2.76,2.25-5,5.01-5
			c2.76,0,5.01,2.24,5.01,5C22.782,16.051,20.532,18.301,17.772,18.301z"/>
	</g>
</g>
</svg>
