<svg class="sprite-svg" xmlns="http://www.w3.org/2000/svg">

	<symbol id="icon-file" x="0px" y="0px" width="32.5px" height="41px" viewBox="0 0 32.5 41" enable-background="new 0 0 32.5 41" xml:space="preserve">
		<g>
			<path d="M31,41H1.5C0.671,41,0,40.329,0,39.5v-38C0,0.671,0.671,0,1.5,0h20.834c0.355,0,0.698,0.126,0.969,0.355
				l8.666,7.334C32.306,7.974,32.5,8.393,32.5,8.834V39.5C32.5,40.329,31.828,41,31,41z M3,38h26.5V9.53L21.785,3H3V38z"/>
		</g>
		<g>
			<path d="M31,11h-8.666c-0.829,0-1.5-0.671-1.5-1.5v-8c0-0.829,0.671-1.5,1.5-1.5s1.5,0.671,1.5,1.5V8H31
				c0.828,0,1.5,0.671,1.5,1.5S31.828,11,31,11z"/>
		</g>
		<g>
			<rect x="8.031" y="19.003" width="16.44" height="3"/>
		</g>
		<g>
			<rect x="8.031" y="24.333" width="16.44" height="3"/>
		</g>
		<g>
			<rect x="8.031" y="29.664" width="16.44" height="3"/>
		</g>
	</symbol>

	<symbol id="icon-procent" x="0px" y="0px" width="32.5px" height="31.769px" viewBox="0 0 32.5 31.769" enable-background="new 0 0 32.5 31.769" xml:space="preserve">
		<g>
			<g>
				<path d="M28.331,2.225c-0.03,0.06-0.069,0.12-0.109,0.17l-20.32,27.15h-3.72c0.03-0.06,0.07-0.12,0.11-0.17
					l20.32-27.15H28.331z"/>
			</g>
			<g>
				<path d="M9.421,0.115c-3.46,0-6.27,2.81-6.27,6.27c0,3.46,2.81,6.27,6.27,6.27s6.28-2.81,6.28-6.27
					C15.701,2.924,12.881,0.115,9.421,0.115z M9.421,9.655c-1.8,0-3.27-1.46-3.27-3.27c0-1.8,1.47-3.27,3.27-3.27
					c1.81,0,3.28,1.47,3.28,3.27C12.701,8.194,11.231,9.655,9.421,9.655z"/>
			</g>
			<g>
				<path d="M23.071,18.145c-3.45,0-6.27,2.82-6.27,6.28c0,3.45,2.82,6.27,6.27,6.27c3.46,0,6.28-2.82,6.28-6.27
					C29.352,20.964,26.531,18.145,23.071,18.145z M23.071,27.694c-1.8,0-3.27-1.47-3.27-3.27c0-1.81,1.47-3.28,3.27-3.28
					c1.81,0,3.28,1.47,3.28,3.28C26.352,26.225,24.881,27.694,23.071,27.694z"/>
			</g>
		</g>
	</symbol>

	<symbol id="icon-user" x="0px" y="0px" width="35.541px" height="35.541px" viewBox="0 0 35.541 35.541" enable-background="new 0 0 35.541 35.541" xml:space="preserve">
		<g>
			<g>
				<path d="M31.472,0.001h-27.4c-2.25,0-4.07,1.82-4.07,4.07v27.4c0,2.25,1.82,4.07,4.07,4.07h27.4
					c2.25,0,4.07-1.82,4.07-4.07v-27.4C35.542,1.821,33.722,0.001,31.472,0.001z M32.542,31.471c0,0.59-0.48,1.07-1.07,1.07h-27.4
					c-0.59,0-1.07-0.48-1.07-1.07v-27.4c0-0.59,0.48-1.07,1.07-1.07h27.4c0.59,0,1.07,0.48,1.07,1.07V31.471z"/>
				<path d="M22.772,19.541c1.83-1.47,3.01-3.72,3.01-6.25c0-4.41-3.6-8-8.01-8c-4.42,0-8.01,3.59-8.01,8
					c0,2.53,1.17,4.78,3.01,6.25c-3.42,1.8-5.76,5.39-5.76,9.52c0,0.04,0,0.08,0.01,0.12h2.98c0.01-0.04,0.01-0.08,0.01-0.12
					c0-4.28,3.48-7.76,7.76-7.76c4.28,0,7.76,3.48,7.76,7.76c0,0.04,0,0.08,0.01,0.12h2.979c0.011-0.04,0.011-0.08,0.011-0.12
					C28.532,24.931,26.191,21.341,22.772,19.541z M17.772,18.301c-2.76,0-5.01-2.25-5.01-5.01c0-2.76,2.25-5,5.01-5
					c2.76,0,5.01,2.24,5.01,5C22.782,16.051,20.532,18.301,17.772,18.301z"/>
			</g>
		</g>
	</symbol>

	<symbol id="icon-car" x="0px" y="0px" width="43px" height="23.56px" viewBox="0 0 43 23.56" enable-background="new 0 0 43 23.56" xml:space="preserve">
		<g>
			<path d="M3.099,18.388H0c0-7.895,1.949-9.364,6.089-10.657c1.318-0.409,2.814-0.873,4.503-1.943
				c1.295-0.819,2.52-1.568,3.678-2.238c4.078-2.345,6.917-3.35,9.49-3.35c0.98,0,2.003-0.045,3.036-0.095
				c4.288-0.205,9.151-0.438,12.489,2.748C41.786,5.236,43,9.132,43,14.758h-3.099c0-4.733-0.899-7.894-2.751-9.665
				c-2.38-2.269-6.356-2.073-10.208-1.893c-1.084,0.05-2.153,0.098-3.182,0.098c-1.964,0-4.413,0.905-7.943,2.938
				c-1.124,0.647-2.313,1.379-3.569,2.173c-2.038,1.285-3.813,1.837-5.238,2.28C4.166,11.578,3.099,11.909,3.099,18.388"/>
			<path d="M11.422,23.56c-2.851,0-5.172-2.322-5.172-5.172c0-2.858,2.321-5.176,5.172-5.176
				c2.854,0,5.175,2.317,5.175,5.176C16.597,21.237,14.276,23.56,11.422,23.56 M11.422,16.308c-1.144,0-2.073,0.933-2.073,2.08
				c0,1.141,0.929,2.073,2.073,2.073c1.147,0,2.076-0.933,2.076-2.073C13.498,17.24,12.569,16.308,11.422,16.308"/>
			<path d="M33.328,23.56c-2.854,0-5.177-2.322-5.177-5.172c0-2.858,2.322-5.176,5.177-5.176
				c2.854,0,5.175,2.317,5.175,5.176C38.503,21.237,36.182,23.56,33.328,23.56 M33.328,16.308c-1.148,0-2.077,0.933-2.077,2.08
				c0,1.141,0.929,2.073,2.077,2.073c1.146,0,2.075-0.933,2.075-2.073C35.403,17.24,34.475,16.308,33.328,16.308"/>
		</g>
	</symbol>

</svg>