<svg class="sprite-icons" xmlns="http://www.w3.org/2000/svg">

	<symbol id="icon-star">
		<!-- width="34" height="32" viewBox="0 0 34 32" -->
		<g>
			<g>
				<path d="M17 25.723L27.506 32l-2.78-11.838L34 12.2l-12.225-1.039L17 0l-4.775 11.161L0 12.201l9.274 7.96L6.494 32z"/>
			</g>
		</g>
	</symbol>

	<symbol id="icon-facebook">
		<!-- width="96" height="96" viewBox="0 0 96 96" -->
		<g>
			<path d="M72.089,0.02L59.624,0C45.62,0,36.57,9.285,36.57,23.656v10.907H24.037c-1.083,0-1.96,0.878-1.96,1.961v15.803
				c0,1.083,0.878,1.96,1.96,1.96h12.533v39.876c0,1.083,0.877,1.96,1.96,1.96h16.352c1.083,0,1.96-0.878,1.96-1.96V54.287h14.654
				c1.083,0,1.96-0.877,1.96-1.96l0.006-15.803c0-0.52-0.207-1.018-0.574-1.386c-0.367-0.368-0.867-0.575-1.387-0.575H56.842v-9.246
				c0-4.444,1.059-6.7,6.848-6.7l8.397-0.003c1.082,0,1.959-0.878,1.959-1.96V1.98C74.046,0.899,73.17,0.022,72.089,0.02z"/>
		</g>
	</symbol>

	<symbol id="icon-twitter">
		<!-- width="450" height="450" viewBox="0 0 450 450" -->
		<g>
			<path d="M449.956,85.657c-17.702,7.614-35.408,12.369-53.102,14.279c19.985-11.991,33.503-28.931,40.546-50.819
				c-18.281,10.847-37.787,18.268-58.532,22.267c-18.274-19.414-40.73-29.125-67.383-29.125c-25.502,0-47.246,8.992-65.24,26.98
				c-17.984,17.987-26.977,39.731-26.977,65.235c0,6.851,0.76,13.896,2.284,21.128c-37.688-1.903-73.042-11.372-106.068-28.407
				C82.46,110.158,54.433,87.46,31.403,59.101c-8.375,14.272-12.564,29.787-12.564,46.536c0,15.798,3.711,30.456,11.138,43.97
				c7.422,13.512,17.417,24.455,29.98,32.831c-14.849-0.572-28.743-4.475-41.684-11.708v1.142c0,22.271,6.995,41.824,20.983,58.674
				c13.99,16.848,31.645,27.453,52.961,31.833c-7.995,2.091-16.086,3.138-24.269,3.138c-5.33,0-11.136-0.475-17.416-1.42
				c5.9,18.459,16.75,33.633,32.546,45.535c15.799,11.896,33.691,18.028,53.677,18.418c-33.498,26.262-71.66,39.393-114.486,39.393
				c-8.186,0-15.607-0.373-22.27-1.139c42.827,27.596,90.03,41.394,141.612,41.394c32.738,0,63.478-5.181,92.21-15.557
				c28.746-10.369,53.297-24.267,73.665-41.686c20.362-17.415,37.925-37.448,52.674-60.097c14.75-22.651,25.738-46.298,32.977-70.946
				c7.23-24.653,10.848-49.344,10.848-74.092c0-5.33-0.096-9.325-0.287-11.991C421.785,120.202,437.202,104.306,449.956,85.657z"/>
		</g>
	</symbol>

	<symbol id="icon-in">
		<!-- width="552.77px" height="552.77px" viewBox="0 0 552.77 552.77" -->
		<g>
		<path d="M17.95,528.854h71.861c9.914,0,17.95-8.037,17.95-17.951V196.8c0-9.915-8.036-17.95-17.95-17.95H17.95
			C8.035,178.85,0,186.885,0,196.8v314.103C0,520.816,8.035,528.854,17.95,528.854z"/>
		<path d="M17.95,123.629h71.861c9.914,0,17.95-8.036,17.95-17.95V41.866c0-9.914-8.036-17.95-17.95-17.95H17.95
			C8.035,23.916,0,31.952,0,41.866v63.813C0,115.593,8.035,123.629,17.95,123.629z"/>
		<path d="M525.732,215.282c-10.098-13.292-24.988-24.223-44.676-32.791c-19.688-8.562-41.42-12.846-65.197-12.846
			c-48.268,0-89.168,18.421-122.699,55.27c-6.672,7.332-11.523,5.729-11.523-4.186V196.8c0-9.915-8.037-17.95-17.951-17.95h-64.192
			c-9.915,0-17.95,8.035-17.95,17.95v314.103c0,9.914,8.036,17.951,17.95,17.951h71.861c9.915,0,17.95-8.037,17.95-17.951V401.666
			c0-45.508,2.748-76.701,8.244-93.574c5.494-16.873,15.66-30.422,30.488-40.649c14.83-10.227,31.574-15.343,50.24-15.343
			c14.572,0,27.037,3.58,37.393,10.741c10.355,7.16,17.834,17.19,22.436,30.104c4.604,12.912,6.904,41.354,6.904,85.33v132.627
			c0,9.914,8.035,17.951,17.949,17.951h71.861c9.914,0,17.949-8.037,17.949-17.951V333.02c0-31.445-1.982-55.607-5.941-72.48
			S535.836,228.581,525.732,215.282z"/>
	</g>
	</symbol>

</svg>