<svg width="250" height="13" viewBox="0 0 250 13" fill="none" xmlns="http://www.w3.org/2000/svg">
<g clip-path="url(#clip0)">
<path d="M35.6405 11.1914H30.7048L25.1378 2.69742H29.7291L33.1727 8.32184L36.5014 2.69742H40.978L35.6405 11.1914Z" fill="#F0F0F0"/>
<path d="M41.9536 11.1915C41.7241 11.1341 41.6667 10.6175 41.6667 9.4123C41.6667 7.2888 41.6667 2.75482 41.6667 2.75482H45.9711C45.9711 2.75482 45.9711 8.09229 45.9711 9.4123C45.9711 10.7897 45.9711 11.0767 46.3154 11.2489H41.9536V11.1915Z" fill="#F0F0F0"/>
<path d="M56.8182 6.25573C56.0721 6.08355 55.4408 5.91138 54.4652 5.91138C52.973 5.91138 51.6529 6.65747 51.6529 8.37924V11.1341H47.2911V2.69742H51.4808V4.3044C51.7677 3.5583 52.973 2.92699 54.4078 2.69742C55.326 2.58263 56.0721 2.52524 56.8182 2.58263V6.25573Z" fill="#F0F0F0"/>
<path d="M62.1557 5.62441C62.1557 5.62441 62.1557 7.40357 62.1557 7.57574C62.1557 8.26445 62.5574 8.49402 63.7053 8.49402C64.2218 8.49402 65.3696 8.43662 65.7714 8.32184V10.9045C65.1401 11.1914 63.4183 11.3636 61.8687 11.3636C59.7452 11.3636 57.8513 10.7323 57.8513 8.26445C57.8513 8.03488 57.8513 5.73919 57.8513 5.73919V2.8122V1.14783H62.0983C62.0983 1.14783 62.0983 1.83653 62.0983 2.75481H65.7714V5.6818H62.1557V5.62441Z" fill="#F0F0F0"/>
<path d="M80.6359 11.1915H76.5037L76.3889 9.69926C75.4132 11.0767 73.6915 11.421 71.568 11.421C69.0427 11.421 66.9192 10.8471 66.9192 7.74792C66.9192 2.86959 66.8618 2.86959 66.6896 2.69742C66.6896 2.69742 71.2236 2.69742 71.0514 2.69742C71.1662 2.69742 71.2236 3.96004 71.2236 6.54269C71.2236 7.97749 72.4289 8.32185 73.5193 8.32185C75.1263 8.32185 76.2167 7.57575 76.2167 6.4853V2.69742H80.5211C80.5211 2.69742 80.5211 7.174 80.5211 9.75665C80.5785 10.5027 80.6359 11.1915 80.6359 11.1915Z" fill="#F0F0F0"/>
<path d="M91.9995 11.1915C91.9995 11.1915 91.9421 10.7323 91.8847 10.5027C91.2534 10.9619 89.3021 11.3636 86.4899 11.3636C83.3333 11.3636 81.4968 10.5601 81.4968 8.95316C81.4968 8.89577 81.4968 8.83838 81.4968 8.72359C81.4968 7.00183 83.4481 5.96877 88.0395 5.96877C89.0725 5.96877 90.7369 6.08356 91.7126 6.19834C91.6552 5.62442 91.3108 4.99311 88.9003 4.99311C87.0638 4.99311 86.3751 5.28007 86.2029 5.7392C85.2273 5.7392 82.0133 5.7392 82.0133 5.7392C82.0707 5.45224 82.1855 5.16528 82.3576 4.82093C83.1037 3.15656 85.5142 2.41046 89.0151 2.41046C92.803 2.41046 94.9265 3.32874 95.5578 5.0505C95.73 5.50964 95.9022 6.25573 95.8448 7.00183C95.7874 7.40357 95.7874 8.32185 95.7874 9.12534C95.7874 9.98622 95.8448 10.7897 96.017 11.1915H91.9995ZM88.9577 7.86271C86.6621 7.86271 86.0307 8.03489 86.0307 8.55142C86.0307 8.95316 86.4325 9.18273 88.9003 9.18273C90.2204 9.18273 91.5978 8.83838 91.8847 8.14967C91.196 7.9775 89.7612 7.86271 88.9577 7.86271Z" fill="#F0F0F0"/>
<path d="M101.814 11.1914H97.4519C97.2797 11.1341 97.1649 10.6749 97.1649 9.92882C97.1649 9.24011 97.1649 4.36178 97.1649 2.52524C97.1649 1.72175 97.1075 1.32 97.0501 1.14783H101.355C101.412 1.49218 101.469 1.95132 101.469 2.46785C101.469 4.30439 101.469 7.69053 101.469 10.1584C101.469 10.6175 101.527 11.1341 101.814 11.1914Z" fill="#F0F0F0"/>
<path d="M125.861 9.06795C125.057 10.1584 122.819 11.3636 118.744 11.3636C115.645 11.3636 113.235 10.7897 111.972 9.4123C111.283 8.6662 110.996 7.86271 110.996 6.94444C110.996 6.02616 111.341 5.22267 111.915 4.59136C113.235 3.15656 115.817 2.41046 118.744 2.41046C122.934 2.41046 125.689 3.90266 126.205 6.4853C126.263 6.65748 126.32 7.63314 126.32 7.80532H115.243C115.301 8.09228 115.53 8.26446 115.875 8.49402C116.449 8.83838 117.482 9.06795 118.802 9.06795C119.777 9.06795 120.696 8.89577 121.212 8.6662C121.384 8.60881 121.614 8.43663 121.729 8.32185H126.263C126.205 8.60881 126.09 8.83838 125.861 9.06795ZM121.614 5.33746C121.097 4.99311 120.122 4.76354 118.744 4.76354C117.367 4.76354 116.219 5.0505 115.76 5.45224C115.53 5.62442 115.416 5.85399 115.358 6.02616H122.073C122.073 5.7966 121.901 5.50964 121.614 5.33746Z" fill="#F0F0F0"/>
<path d="M132.117 11.1914H127.755C127.583 11.1341 127.468 10.6749 127.468 9.92882C127.468 9.24011 127.468 4.36178 127.468 2.52524C127.468 1.72175 127.41 1.32 127.353 1.14783H131.657C131.715 1.49218 131.772 1.95132 131.772 2.46785C131.772 4.30439 131.772 7.69053 131.772 10.1584C131.772 10.6175 131.887 11.1341 132.117 11.1914Z" fill="#F0F0F0"/>
<path d="M147.67 9.06795C146.866 10.1584 144.628 11.3636 140.553 11.3636C137.454 11.3636 135.044 10.7897 133.781 9.4123C133.092 8.6662 132.805 7.86271 132.805 6.94444C132.805 6.02616 133.15 5.22267 133.724 4.59136C135.044 3.15656 137.626 2.41046 140.553 2.41046C144.743 2.41046 147.498 3.90266 148.014 6.4853C148.072 6.65748 148.129 7.63314 148.129 7.80532H137.052C137.11 8.09228 137.339 8.26446 137.684 8.49402C138.258 8.83838 139.291 9.06795 140.611 9.06795C141.586 9.06795 142.505 8.89577 143.021 8.6662C143.193 8.60881 143.423 8.43663 143.538 8.32185H148.072C148.014 8.60881 147.899 8.83838 147.67 9.06795ZM143.423 5.33746C142.906 4.99311 141.931 4.76354 140.553 4.76354C139.176 4.76354 138.028 5.0505 137.569 5.45224C137.339 5.62442 137.225 5.85399 137.167 6.02616H143.882C143.882 5.7966 143.71 5.50964 143.423 5.33746Z" fill="#F0F0F0"/>
<path d="M159.722 6.48529C159.665 6.3705 159.665 6.19833 159.493 6.02615C159.033 5.45223 158 5.10788 156.566 5.10788C155.073 5.10788 153.983 5.45223 153.409 6.02615C153.237 6.19833 153.122 6.54268 153.122 6.88703C153.122 7.23139 153.237 7.51835 153.409 7.74791C153.926 8.32184 155.073 8.66619 156.508 8.66619C157.943 8.66619 158.747 8.49401 159.206 8.14966C159.378 8.03488 159.55 7.80531 159.607 7.63313H163.797C163.74 8.20705 163.51 8.78097 163.108 9.2975C162.075 10.5027 160.009 11.3636 156.623 11.3636C153.122 11.3636 150.712 10.6175 149.564 9.24011C149.047 8.66619 148.76 7.80531 148.76 6.88703C148.76 5.96876 149.105 5.22266 149.621 4.53396C150.826 3.15655 153.237 2.35306 156.508 2.35306C160.067 2.35306 162.133 3.21394 163.108 4.70613C163.395 5.16527 163.682 5.79658 163.74 6.4279H159.722V6.48529Z" fill="#F0F0F0"/>
<path d="M169.02 5.62441C169.02 5.62441 169.02 7.40357 169.02 7.57574C169.02 8.26445 169.422 8.49402 170.569 8.49402C171.086 8.49402 172.234 8.43662 172.635 8.32184V10.9045C172.004 11.1914 170.282 11.3636 168.733 11.3636C166.609 11.3636 164.715 10.7323 164.715 8.26445C164.715 8.03488 164.715 5.73919 164.715 5.73919V2.8122V1.14783H168.962C168.962 1.14783 168.962 1.83653 168.962 2.75481H172.635V5.6818H169.02V5.62441Z" fill="#F0F0F0"/>
<path d="M183.54 6.25573C182.794 6.08355 182.163 5.91138 181.187 5.91138C179.695 5.91138 178.375 6.65747 178.375 8.37924V11.1341H174.013V2.69742H178.203V4.3044C178.489 3.5583 179.695 2.92699 181.13 2.69742C182.048 2.58263 182.794 2.52524 183.54 2.58263V6.25573Z" fill="#F0F0F0"/>
<path d="M198.864 8.89576C197.716 10.5027 195.191 11.3062 191.69 11.3062C187.959 11.3062 185.549 10.388 184.458 8.83837C184.056 8.26444 183.827 7.57574 183.827 6.82964C183.827 6.08354 183.999 5.45223 184.458 4.87831C185.491 3.32872 187.959 2.35306 191.632 2.35306C195.248 2.35306 197.658 3.32872 198.749 4.82092C199.208 5.39484 199.438 6.08354 199.438 6.88703C199.438 7.69052 199.265 8.37923 198.864 8.89576ZM194.904 6.19833C194.444 5.56702 193.297 5.16527 191.69 5.16527C190.025 5.16527 188.935 5.56702 188.418 6.19833C188.246 6.37051 188.189 6.65747 188.189 6.94443C188.189 7.17399 188.246 7.46096 188.361 7.63313C188.82 8.32184 190.025 8.66619 191.69 8.66619C193.354 8.66619 194.502 8.32184 194.961 7.63313C195.076 7.46096 195.191 7.17399 195.191 6.88703C195.133 6.65747 195.076 6.4279 194.904 6.19833Z" fill="#F0F0F0"/>
<path d="M209.768 11.1915C209.653 11.1915 209.596 10.9045 209.596 7.51836C209.596 6.37052 208.85 5.68181 207.186 5.68181C205.636 5.68181 204.603 6.65748 204.603 7.51836V11.1915H200.298V2.69742H204.431V4.41918C205.234 2.92699 207.128 2.41046 209.194 2.41046C212.638 2.41046 213.9 4.36179 213.9 6.77226C213.9 10.9619 213.958 10.8471 214.073 11.1341H209.768V11.1915Z" fill="#F0F0F0"/>
<path d="M215.45 11.1915C215.22 11.1341 215.163 10.6175 215.163 9.4123C215.163 7.2888 215.163 2.75482 215.163 2.75482H219.467C219.467 2.75482 219.467 8.09229 219.467 9.4123C219.467 10.7897 219.467 11.0767 219.812 11.2489H215.45V11.1915Z" fill="#F0F0F0"/>
<path d="M231.233 6.48529C231.175 6.3705 231.175 6.19833 231.003 6.02615C230.544 5.45223 229.511 5.10788 228.076 5.10788C226.584 5.10788 225.494 5.45223 224.92 6.02615C224.747 6.19833 224.633 6.54268 224.633 6.88703C224.633 7.23139 224.747 7.51835 224.92 7.74791C225.436 8.32184 226.584 8.66619 228.019 8.66619C229.454 8.66619 230.257 8.49401 230.716 8.14966C230.888 8.03488 231.061 7.80531 231.118 7.63313H235.308C235.25 8.20705 235.021 8.78097 234.619 9.2975C233.586 10.5027 231.52 11.3636 228.134 11.3636C224.633 11.3636 222.222 10.6175 221.074 9.24011C220.558 8.66619 220.271 7.80531 220.271 6.88703C220.271 5.96876 220.615 5.22266 221.132 4.53396C222.337 3.15655 224.747 2.35306 228.019 2.35306C231.577 2.35306 233.643 3.21394 234.619 4.70613C234.906 5.16527 235.193 5.79658 235.25 6.4279H231.233V6.48529Z" fill="#F0F0F0"/>
<path d="M243.228 11.3636C238.349 11.3636 236.513 10.6175 235.882 8.72361C235.824 8.49404 235.767 8.37925 235.767 8.20708H240.129C240.129 8.37925 240.186 8.43664 240.301 8.60882C240.588 8.89578 241.334 9.01057 243.17 9.01057C245.581 9.01057 245.81 8.89578 245.81 8.55143C245.81 8.26447 245.466 8.20708 243.572 8.09229C243.056 8.0349 242.252 7.97751 241.563 7.97751C238.062 7.69055 235.996 7.17402 235.996 5.33747C235.996 3.50092 238.235 2.46786 242.424 2.46786C246.557 2.46786 248.623 3.09918 249.311 4.87833C249.426 5.16529 249.426 5.33747 249.484 5.56704H245.236C245.236 5.45225 245.179 5.33747 245.064 5.22269C244.777 4.99312 244.031 4.87833 242.654 4.87833C240.473 4.87833 240.243 4.99312 240.243 5.33747C240.243 5.68182 240.53 5.68182 242.654 5.79661C243.457 5.854 244.548 5.91139 245.523 5.96878C248.623 6.14096 250.057 6.82967 250.057 8.55143C250 10.4454 247.991 11.3636 243.228 11.3636Z" fill="#F0F0F0"/>
<path d="M2.82426 6.43523L-0.0164795 9.27597L3.23008 12.5225L6.07081 9.68179L2.82426 6.43523Z" fill="#F0F0F0"/>
<path d="M9.27061 0.0150063L6.42987 2.85574L9.67643 6.1023L12.5172 3.26156L9.27061 0.0150063Z" fill="#F0F0F0"/>
<path d="M9.66336 6.44821L6.41681 9.69476L9.25755 12.5355L12.5041 9.28894L9.66336 6.44821Z" fill="#F0F0F0"/>
<path d="M3.24314 0.00191806L-0.00341797 3.24847L2.83732 6.08921L6.08388 2.84265L3.24314 0.00191806Z" fill="#F0F0F0"/>
</g>
<defs>
<clipPath id="clip0">
<rect width="250" height="12.5115" fill="white"/>
</clipPath>
</defs>
</svg>
