<svg width="62" height="48" viewBox="0 0 62 48" fill="none" xmlns="http://www.w3.org/2000/svg">
<path d="M18.1928 0L3.91282 25.5C1.36282 30.09 0.00281763 32.81 0.00281763 36.55C-0.0302807 37.9878 0.228519 39.4174 0.763573 40.7524C1.29863 42.0874 2.09883 43.3 3.1158 44.317C4.13277 45.334 5.3454 46.1342 6.68038 46.6692C8.01537 47.2043 9.44498 47.4631 10.8828 47.43C12.4832 47.4104 14.0637 47.0722 15.532 46.4353C17.0003 45.7983 18.327 44.8752 19.4348 43.72C20.5425 42.5648 21.4091 41.2005 21.9839 39.7068C22.5588 38.2131 22.8303 36.6198 22.7828 35.02C22.8187 33.133 22.3488 31.2709 21.4222 29.6267C20.4955 27.9826 19.1457 26.6164 17.5128 25.67L28.9028 0H18.1928ZM49.6428 25.67L61.0328 0H50.3228L36.0428 25.5C33.4928 30.09 32.1328 32.81 32.1328 36.55C32.0997 37.9878 32.3585 39.4174 32.8936 40.7524C33.4286 42.0874 34.2288 43.3 35.2458 44.317C36.2628 45.334 37.4754 46.1342 38.8104 46.6692C40.1454 47.2043 41.575 47.4631 43.0128 47.43C44.6132 47.4104 46.1937 47.0722 47.662 46.4353C49.1303 45.7983 50.457 44.8752 51.5648 43.72C52.6725 42.5648 53.5391 41.2005 54.1139 39.7068C54.6888 38.2131 54.9603 36.6198 54.9128 35.02C54.9487 33.133 54.4788 31.2709 53.5522 29.6267C52.6255 27.9826 51.2757 26.6164 49.6428 25.67Z" fill="#00B6E9"/>
</svg>
