<svg width="20" height="25" viewBox="0 0 20 25" fill="none" xmlns="http://www.w3.org/2000/svg">
<path d="M10.001 21.302C9.86787 21.302 9.7402 21.2491 9.64606 21.155C9.55192 21.0609 9.49902 20.9332 9.49902 20.8V9.21613C9.49902 9.08286 9.55197 8.95502 9.64621 8.86078C9.74044 8.76655 9.86826 8.71362 10.0015 8.71362C10.1348 8.71362 10.2626 8.76655 10.3569 8.86078C10.4511 8.95502 10.504 9.08286 10.504 9.21613V20.799C10.5042 20.8651 10.4913 20.9306 10.466 20.9917C10.4408 21.0528 10.4037 21.1083 10.357 21.155C10.3103 21.2017 10.2548 21.2388 10.1937 21.264C10.1326 21.2892 10.0671 21.3022 10.001 21.302V21.302Z" fill="#4F4F4F" stroke="#4F4F4F" stroke-width="0.2"/>
<path d="M12.9723 21.3019H12.9319C12.8662 21.2967 12.8021 21.2786 12.7434 21.2486C12.6847 21.2186 12.6325 21.1774 12.5897 21.1272C12.5469 21.077 12.5145 21.0189 12.4941 20.9562C12.4738 20.8935 12.4661 20.8274 12.4713 20.7616L13.3904 9.17874C13.3956 9.11296 13.4138 9.04885 13.4438 8.99008C13.4738 8.9313 13.5151 8.87901 13.5653 8.83619C13.6155 8.79337 13.6737 8.76089 13.7365 8.74055C13.7992 8.7202 13.8654 8.71241 13.9312 8.71765C13.997 8.72288 14.0611 8.74102 14.1199 8.77103C14.1787 8.80104 14.2309 8.84232 14.2738 8.89254C14.3166 8.94276 14.3491 9.00092 14.3694 9.0637C14.3898 9.12648 14.3975 9.19265 14.3923 9.25843L13.4732 20.8413C13.4628 20.967 13.4055 21.0841 13.3127 21.1694C13.2199 21.2548 13.0984 21.3021 12.9723 21.3019V21.3019Z" fill="#4F4F4F" stroke="#4F4F4F" stroke-width="0.2"/>
<path d="M7.02509 21.303C6.89885 21.3029 6.7773 21.2552 6.68465 21.1695C6.592 21.0837 6.53506 20.9662 6.52517 20.8404L5.60608 9.25749C5.59551 9.12463 5.63815 8.99302 5.72463 8.8916C5.8111 8.79018 5.93432 8.72724 6.06718 8.71667C6.20004 8.7061 6.33166 8.74874 6.43307 8.83521C6.53449 8.92169 6.59741 9.04491 6.60798 9.17777L7.52707 20.7607C7.53231 20.8265 7.52451 20.8926 7.50413 20.9554C7.48376 21.0182 7.45119 21.0764 7.40832 21.1266C7.36544 21.1767 7.31309 21.218 7.25425 21.2479C7.19542 21.2778 7.13126 21.2958 7.06546 21.3009L7.02509 21.303Z" fill="#4F4F4F" stroke="#4F4F4F" stroke-width="0.2"/>
<path d="M7.65746 3.32984L7.6968 2.95308C7.723 2.69257 7.84517 2.45113 8.03953 2.27571C8.23389 2.10029 8.48655 2.00343 8.74837 2.00397H11.251C11.5129 2.00343 11.7655 2.10029 11.9599 2.27571C12.1543 2.45113 12.2764 2.69257 12.3026 2.95308L12.342 3.32984H13.3521L13.3025 2.84957C13.2508 2.34174 13.0123 1.87123 12.6332 1.52942C12.2541 1.18761 11.7615 0.99893 11.251 1H8.75148C8.24103 0.99893 7.74841 1.18761 7.36931 1.52942C6.9902 1.87123 6.75168 2.34174 6.70007 2.84957L6.65039 3.32984H7.65746Z" fill="#4F4F4F" stroke="#4F4F4F" stroke-width="0.2"/>
<path d="M17.205 7.56201L15.6028 21.5348C15.5589 21.9196 15.3749 22.2748 15.0859 22.5326C14.7969 22.7905 14.4231 22.933 14.0358 22.9331H5.96267C5.57535 22.933 5.20159 22.7905 4.91261 22.5326C4.62362 22.2748 4.43962 21.9196 4.39565 21.5348L2.79344 7.56201H1.81638H1.78223L3.39685 21.6383C3.4688 22.2683 3.77012 22.8497 4.24334 23.2718C4.71656 23.6938 5.32858 23.927 5.96267 23.9267H14.0358C14.6699 23.927 15.2819 23.6938 15.7551 23.2718C16.2283 22.8497 16.5297 22.2683 16.6016 21.6383L18.2162 7.56201H18.1821H17.205Z" fill="#4F4F4F" stroke="#4F4F4F" stroke-width="0.2"/>
<path d="M19 7.09925H1V5.84894C1.00191 5.30244 1.21985 4.77887 1.60628 4.39243C1.99272 4.006 2.51629 3.78804 3.06279 3.78613H16.932C17.4785 3.78804 18.0021 4.006 18.3885 4.39243C18.775 4.77887 18.9929 5.30244 18.9948 5.84894L19 7.09925ZM2.005 6.09423H17.995V5.84894C17.9951 5.70989 17.9679 5.57217 17.9148 5.44365C17.8617 5.31514 17.7838 5.19835 17.6856 5.09993C17.5874 5.00151 17.4707 4.92341 17.3423 4.87008C17.2139 4.81674 17.0763 4.78923 16.9372 4.78909H10.0771C10.0502 4.78909 10.0243 4.78909 9.99948 4.78909H3.06486C2.7844 4.78936 2.51551 4.90089 2.31719 5.0992C2.11888 5.29752 2.00735 5.56639 2.00707 5.84685L2.005 6.09423Z" fill="#4F4F4F" stroke="#4F4F4F" stroke-width="0.2"/>
</svg>
