<svg width="16" height="15" viewBox="0 0 16 15" fill="none" xmlns="http://www.w3.org/2000/svg">
<path d="M0.358948 5.89799C0.359083 6.26644 0.502554 6.6204 0.758972 6.88499C0.477354 7.03381 0.253721 7.27276 0.123901 7.56362C-0.00591841 7.85449 -0.0344337 8.18049 0.0428467 8.4895C0.120127 8.7985 0.298772 9.07267 0.550232 9.26818C0.801692 9.46369 1.11141 9.56926 1.42993 9.56799L5.21198 9.533H7.01697L6.35193 10.718L6.34393 10.733C6.03899 11.3191 5.88664 11.9725 5.90094 12.633C5.90094 12.644 5.90094 12.654 5.90094 12.665C5.91094 12.757 6.15093 14.906 7.58893 14.906H7.76697C7.78062 14.907 7.79433 14.907 7.80798 14.906C8.13523 14.8569 8.43271 14.6885 8.64319 14.4331C8.85367 14.1778 8.96222 13.8536 8.94794 13.523V12.946C8.94794 12.906 8.98898 12.512 10.402 10.919C10.973 10.276 11.5499 9.68199 11.8019 9.43099H14.869C15.0696 9.43073 15.262 9.35089 15.4039 9.20898C15.5458 9.06707 15.6257 8.87468 15.626 8.67399L15.626 0.756998C15.6257 0.55631 15.5458 0.363917 15.4039 0.22201C15.262 0.0801019 15.0696 0.000258863 14.869 -5.72205e-06H11.824C11.7643 3.80871e-05 11.7059 0.0174113 11.6559 0.0499973C11.5708 0.0169983 11.4803 4.30383e-05 11.389 -5.72205e-06L2.81696 -5.72205e-06C2.3387 1.32769 1.63801 2.56433 0.744934 3.65699C0.744805 4.02092 0.884426 4.37101 1.13495 4.63499C0.902256 4.75415 0.706804 4.93499 0.569946 5.15774C0.433089 5.38049 0.360093 5.63656 0.358948 5.89799V5.89799ZM12.129 0.608988H14.8649C14.9022 0.609505 14.9378 0.624527 14.9641 0.650858C14.9904 0.677189 15.0055 0.71276 15.006 0.749994L15.006 8.66699C15.0055 8.70422 14.9904 8.73979 14.9641 8.76612C14.9378 8.79245 14.9022 8.80748 14.8649 8.80799H12.129L12.129 0.607996V0.608988ZM5.37292 6.697L1.78497 6.70199C1.57068 6.70199 1.36515 6.61687 1.21362 6.46534C1.06209 6.31381 0.976929 6.10829 0.976929 5.89399C0.976929 5.6797 1.06209 5.47419 1.21362 5.32266C1.36515 5.17113 1.57068 5.08599 1.78497 5.08599L5.37396 5.074C5.45578 5.074 5.53425 5.04149 5.5921 4.98364C5.64996 4.92578 5.68243 4.84732 5.68243 4.7655C5.68243 4.68368 5.64996 4.60521 5.5921 4.54736C5.53425 4.4895 5.45578 4.457 5.37396 4.457H2.16797C1.95367 4.457 1.74815 4.37186 1.59662 4.22033C1.44509 4.0688 1.35999 3.86329 1.35999 3.649C1.35999 3.4347 1.44509 3.22918 1.59662 3.07765C1.74815 2.92612 1.95367 2.841 2.16797 2.841H5.37396C5.45578 2.841 5.53425 2.80849 5.5921 2.75064C5.64996 2.69278 5.68243 2.61431 5.68243 2.5325C5.68243 2.45068 5.64996 2.37221 5.5921 2.31436C5.53425 2.2565 5.45578 2.22399 5.37396 2.22399H2.81494C2.60065 2.22399 2.39512 2.13886 2.24359 1.98733C2.09206 1.8358 2.00696 1.63029 2.00696 1.41599C2.00696 1.2017 2.09206 0.996174 2.24359 0.844645C2.39512 0.693115 2.60065 0.607996 2.81494 0.607996L11.387 0.607996C11.4205 0.608512 11.4525 0.622055 11.4762 0.645761C11.4999 0.669468 11.5135 0.701473 11.514 0.734995L11.514 8.789C11.5138 8.81965 11.5024 8.84918 11.4819 8.87199C11.3929 8.96199 10.664 9.69399 9.94397 10.504C8.51597 12.114 8.33295 12.653 8.33295 12.942V13.509C8.34865 13.6883 8.29752 13.867 8.18933 14.0108C8.08114 14.1547 7.92355 14.2534 7.74695 14.288H7.59094C6.76194 14.288 6.53894 12.773 6.51794 12.613C6.5051 12.0565 6.63416 11.5059 6.89294 11.013L7.81195 9.37699C7.83834 9.33009 7.85198 9.27708 7.8515 9.22326C7.85102 9.16944 7.83648 9.11669 7.80927 9.07026C7.78205 9.02383 7.74313 8.98534 7.69641 8.95863C7.64969 8.93191 7.59679 8.9179 7.54297 8.91799H5.20795L1.42596 8.953C1.21167 8.953 1.00614 8.86786 0.854614 8.71633C0.703085 8.5648 0.617981 8.35929 0.617981 8.145C0.617981 7.9307 0.703085 7.72518 0.854614 7.57365C1.00614 7.42212 1.21167 7.337 1.42596 7.337L5.37292 7.31999C5.45474 7.31999 5.53327 7.28749 5.59113 7.22964C5.64898 7.17178 5.68146 7.09332 5.68146 7.0115C5.68146 6.92968 5.64898 6.8512 5.59113 6.79334C5.53327 6.73549 5.45474 6.703 5.37292 6.703V6.697Z" fill="#161615"/>
</svg>
