<svg width="16" height="15" viewBox="0 0 16 15" fill="none" xmlns="http://www.w3.org/2000/svg">
<path d="M15.267 9.00875C15.2669 8.64029 15.1234 8.28634 14.867 8.02175C15.1486 7.87293 15.3723 7.63398 15.5021 7.34311C15.6319 7.05225 15.6604 6.72625 15.5831 6.41724C15.5058 6.10824 15.3272 5.83407 15.0757 5.63856C14.8243 5.44304 14.5146 5.33748 14.196 5.33875L10.414 5.37374H8.60901L9.27405 4.18874L9.28204 4.17374C9.58698 3.58768 9.73933 2.93424 9.72504 2.27375C9.72504 2.26275 9.72504 2.25275 9.72504 2.24175C9.71504 2.14975 9.47505 0.000738237 8.03705 0.000738237H7.85901C7.84536 -0.000246079 7.83164 -0.000246079 7.81799 0.000738237C7.49074 0.0498197 7.19327 0.218264 6.98279 0.473608C6.77231 0.728952 6.66376 1.05315 6.67804 1.38375V1.96074C6.67804 2.00074 6.637 2.39474 5.224 3.98774C4.653 4.63074 4.07604 5.22474 3.82404 5.47574H0.757019C0.556331 5.47601 0.363954 5.55585 0.222046 5.69776C0.0801382 5.83967 0.000264585 6.03206 0 6.23275V14.1497C0.000264585 14.3504 0.0801382 14.5428 0.222046 14.6847C0.363954 14.8266 0.556331 14.9065 0.757019 14.9067H3.802C3.86166 14.9067 3.92006 14.8893 3.97003 14.8567C4.05518 14.8897 4.14568 14.9067 4.237 14.9067H12.809C13.2873 13.5791 13.988 12.3424 14.881 11.2497C14.8812 10.8858 14.7416 10.5357 14.491 10.2717C14.7237 10.1526 14.9192 9.97174 15.056 9.749C15.1929 9.52625 15.2659 9.27018 15.267 9.00875V9.00875ZM3.49701 14.2978H0.761047C0.723813 14.2972 0.688197 14.2822 0.661865 14.2559C0.635534 14.2295 0.620512 14.194 0.619995 14.1567V6.23975C0.620512 6.20252 0.635534 6.16695 0.661865 6.14062C0.688197 6.11428 0.723813 6.09926 0.761047 6.09875H3.49701V14.2987V14.2978ZM10.2531 8.20974L13.841 8.20475C14.0553 8.20475 14.2608 8.28987 14.4124 8.4414C14.5639 8.59293 14.649 8.79845 14.649 9.01275C14.649 9.22704 14.5639 9.43255 14.4124 9.58408C14.2608 9.73561 14.0553 9.82075 13.841 9.82075L10.252 9.83274C10.1702 9.83274 10.0917 9.86525 10.0339 9.9231C9.97602 9.98096 9.94354 10.0594 9.94354 10.1412C9.94354 10.2231 9.97602 10.3015 10.0339 10.3594C10.0917 10.4172 10.1702 10.4497 10.252 10.4497H13.458C13.6723 10.4497 13.8778 10.5349 14.0294 10.6864C14.1809 10.8379 14.266 11.0434 14.266 11.2577C14.266 11.472 14.1809 11.6776 14.0294 11.8291C13.8778 11.9806 13.6723 12.0657 13.458 12.0657H10.252C10.1702 12.0657 10.0917 12.0982 10.0339 12.1561C9.97602 12.214 9.94354 12.2924 9.94354 12.3742C9.94354 12.4561 9.97602 12.5345 10.0339 12.5924C10.0917 12.6502 10.1702 12.6827 10.252 12.6827H12.811C13.0253 12.6827 13.2309 12.7679 13.3824 12.9194C13.5339 13.0709 13.619 13.2764 13.619 13.4907C13.619 13.705 13.5339 13.9106 13.3824 14.0621C13.2309 14.2136 13.0253 14.2987 12.811 14.2987H4.23901C4.20549 14.2982 4.17349 14.2847 4.14978 14.261C4.12607 14.2373 4.11252 14.2053 4.112 14.1717V6.11774C4.11213 6.08709 4.12356 6.05756 4.14404 6.03475C4.23304 5.94475 4.96201 5.21275 5.68201 4.40275C7.11001 2.79275 7.29303 2.25374 7.29303 1.96474V1.39774C7.27733 1.21846 7.32846 1.03971 7.43665 0.895895C7.54483 0.752078 7.70242 0.653365 7.87903 0.61875H8.03503C8.86403 0.61875 9.08703 2.13374 9.10803 2.29374C9.12087 2.85026 8.99182 3.40089 8.73303 3.89374L7.81403 5.52975C7.78764 5.57665 7.774 5.62966 7.77448 5.68348C7.77495 5.73729 7.7895 5.79004 7.81671 5.83648C7.84392 5.88291 7.88284 5.92139 7.92957 5.94811C7.97629 5.97483 8.02919 5.98884 8.08301 5.98874H10.418L14.2 5.95374C14.4143 5.95374 14.6198 6.03888 14.7714 6.1904C14.9229 6.34193 15.008 6.54744 15.008 6.76174C15.008 6.97603 14.9229 7.18156 14.7714 7.33309C14.6198 7.48462 14.4143 7.56974 14.2 7.56974L10.2531 7.58675C10.1712 7.58675 10.0927 7.61924 10.0349 7.6771C9.977 7.73495 9.94452 7.81342 9.94452 7.89524C9.94452 7.97706 9.977 8.05554 10.0349 8.11339C10.0927 8.17125 10.1712 8.20374 10.2531 8.20374V8.20974Z" fill="#161615"/>
</svg>
