<svg class="sprite-icons" xmlns="http://www.w3.org/2000/svg">

	<symbol id="icon-star">
		<!-- width="34" height="32" viewBox="0 0 34 32" -->
		<g>
			<g>
				<path d="M17 25.723L27.506 32l-2.78-11.838L34 12.2l-12.225-1.039L17 0l-4.775 11.161L0 12.201l9.274 7.96L6.494 32z"/>
			</g>
		</g>
	</symbol>

	<symbol id="play-icon">
		<!-- width="75" height="53" viewBox="0 0 75 53" -->
		<path d="M29.5098 35.8072L49.6098 25.3932L29.5098 14.9072V35.8072Z" fill="#091E39"/>
		<path opacity="0.12" fill-rule="evenodd" clip-rule="evenodd" d="M29.5098 14.9082L47.1338 26.6772L49.6098 25.3952L29.5098 14.9082Z" fill="black"/>
		<g opacity="0.997">
		<g opacity="0.997">
		<path class="path-white" opacity="0.997" d="M73.642 11.288C73.642 11.288 72.914 6.161 70.686 3.9C68.7145 1.9093 66.0376 0.776346 63.236 0.747C52.821 0 37.207 0 37.207 0H37.178C37.178 0 21.564 0 11.15 0.75C8.34887 0.778551 5.67196 1.9104 3.7 3.9C1.472 6.158 0.743 11.285 0.743 11.285C0.280252 15.2825 0.0322293 19.3019 0 23.326V28.97C0.0323365 32.9931 0.280359 37.0115 0.743 41.008C0.743 41.008 1.471 46.135 3.7 48.393C6.533 51.357 10.247 51.262 11.9 51.576C17.85 52.144 37.193 52.326 37.193 52.326C37.193 52.326 52.822 52.304 63.236 51.547C66.0378 51.5188 68.7152 50.3857 70.686 48.394C72.914 46.136 73.643 41.009 73.643 41.009C74.1053 37.0125 74.3533 32.9941 74.386 28.971V23.326C74.3533 19.3029 74.105 15.2845 73.642 11.288V11.288ZM29.509 35.809V14.909L49.609 25.396L29.509 35.809Z"/>
		</g>
		</g>
	</symbol>

	<symbol id="icon-info">
		<!-- width="16" height="16" viewBox="0 0 16 16" -->
		<path id="Вычитание_30" data-name="Вычитание 30" d="M1250-4105a8.009,8.009,0,0,1-8-8,8.009,8.009,0,0,1,8-8,8.009,8.009,0,0,1,8,8A8.009,8.009,0,0,1,1250-4105Zm-2.642-4.463a.866.866,0,0,0-.914.806.866.866,0,0,0,.914.806h4.934a.866.866,0,0,0,.914-.806.866.866,0,0,0-.914-.806h-1.553v-4.27a.866.866,0,0,0-.914-.806h-2.467a.866.866,0,0,0-.914.806.866.866,0,0,0,.914.806h1.553v3.464Zm2.467-8.337a1.256,1.256,0,0,0-1.325,1.168,1.255,1.255,0,0,0,1.325,1.167,1.255,1.255,0,0,0,1.326-1.167A1.256,1.256,0,0,0,1249.824-4117.8Z" transform="translate(-1242 4121)" fill="#fff"/>
	</symbol>

	<symbol id="icon-info2">
		<!-- width="16.35" height="16.35" viewBox="0 0 16.35 16.35" -->
		<g id="noun_Information_3002778" transform="translate(-1.65 -1.65)">
			<path id="Контур_30240" data-name="Контур 30240" d="M9.825,1.65A8.124,8.124,0,0,0,3.383,4.794.644.644,0,0,0,4.4,5.587,6.794,6.794,0,1,1,3.267,7.706a.644.644,0,0,0-1.226-.4A8.178,8.178,0,1,0,9.825,1.65Z" transform="translate(0 0)"/>
			<path id="Контур_30241" data-name="Контур 30241" d="M6.794,10.992a.644.644,0,0,0,0,1.287H10.27a.644.644,0,1,0,0-1.287H9.175V7.581a.644.644,0,0,0-.644-.644H6.794a.644.644,0,0,0,0,1.287H7.888v2.768Z" transform="translate(1.293 1.519)"/>
			<path id="Контур_30242" data-name="Контур 30242" d="M9.142,5.846a.933.933,0,1,0-.933.932A.934.934,0,0,0,9.142,5.846Z" transform="translate(1.617 0.938)"/>
		</g>
	</symbol>

	<symbol id="icon-arrow">
		<!-- width="24" height="24" viewBox="0 0 24 24" -->
		<path d="M23.9999 12.0006L11.9995 24.001L10.2855 22.2869L20.5718 12.0006L10.2855 1.71424L11.9995 0.000180303L23.9999 12.0006Z"/>
	</symbol>
	
	<symbol id="arrow-top">
		<!-- width="17" height="10" viewBox="0 0 17 10" -->
		<path d="M15.7597 9.69831L16.9717 8.48633L8.48569 0.000339503L7.27371 1.21232L15.7597 9.69831Z"/>
		<path d="M-6.69303e-05 8.48724L1.21191 9.69922L9.6979 1.21323L8.48592 0.00124914L-6.69303e-05 8.48724Z"/>
	</symbol>

	<symbol id="inbox-left">
		<!-- width="9" height="15" viewBox="0 0 9 15" -->
		<path d="M0.362996 7.24668L7.538 0.34668L8.271 1.04668L1.823 7.24668L8.271 13.4467L7.538 14.1467L0.359996 7.24668H0.362996Z" fill="#034FA0" stroke="#034FA0" stroke-width="0.5"/>
	</symbol>
	<symbol id="inbox-right">
		<!-- width="9" height="15" viewBox="0 0 9 15" -->
		<path d="M8.26884 7.2543L1.09384 14.1543L0.36084 13.4543L6.80884 7.2543L0.36084 1.0543L1.09384 0.354297L8.27184 7.2543H8.26884Z" fill="#034FA0" stroke="#034FA0" stroke-width="0.5"/>
	</symbol>
	
	<symbol id="add-card">
		<!-- width="29" height="19" viewBox="0 0 29 19" -->
		<path d="M26 18.7761H2.89099C2.12502 18.7753 1.39062 18.4706 0.848999 17.929C0.307378 17.3874 0.00274729 16.653 0.00195312 15.887V2.88702C0.00274729 2.12106 0.307378 1.38677 0.848999 0.845154C1.39062 0.303533 2.12502 -0.00115896 2.89099 -0.00195312H26C26.766 -0.00115896 27.5004 0.303533 28.042 0.845154C28.5836 1.38677 28.8882 2.12106 28.889 2.88702V15.887C28.8882 16.653 28.5836 17.3874 28.042 17.929C27.5004 18.4706 26.766 18.7753 26 18.7761V18.7761ZM2.89099 1.44403C2.50818 1.44456 2.14117 1.59693 1.87048 1.86761C1.5998 2.1383 1.44755 2.50519 1.44702 2.888V15.888C1.44755 16.2708 1.5998 16.6378 1.87048 16.9085C2.14117 17.1792 2.50818 17.3316 2.89099 17.3321H26C26.3828 17.3316 26.7498 17.1792 27.0205 16.9085C27.2912 16.6378 27.4434 16.2708 27.444 15.888V2.888C27.4434 2.50519 27.2912 2.1383 27.0205 1.86761C26.7498 1.59693 26.3828 1.44456 26 1.44403H2.89099Z" fill="#0E0E0E"/>
		<path d="M28.1639 5.77698H0.722046C0.53056 5.77698 0.346827 5.70095 0.211426 5.56555C0.0760245 5.43015 0 5.24654 0 5.05505C0 4.86357 0.0760245 4.67983 0.211426 4.54443C0.346827 4.40903 0.53056 4.33301 0.722046 4.33301H28.1639C28.3554 4.33301 28.5392 4.40903 28.6746 4.54443C28.81 4.67983 28.886 4.86357 28.886 5.05505C28.886 5.24654 28.81 5.43015 28.6746 5.56555C28.5392 5.70095 28.3554 5.77698 28.1639 5.77698V5.77698Z" fill="#0E0E0E"/>
		<path d="M28.1639 10.11H0.722046C0.53056 10.11 0.346827 10.034 0.211426 9.89856C0.0760246 9.76316 0 9.57955 0 9.38806C0 9.19658 0.0760246 9.01284 0.211426 8.87744C0.346827 8.74204 0.53056 8.66602 0.722046 8.66602H28.1639C28.3554 8.66602 28.5392 8.74204 28.6746 8.87744C28.81 9.01284 28.886 9.19658 28.886 9.38806C28.886 9.57955 28.81 9.76316 28.6746 9.89856C28.5392 10.034 28.3554 10.11 28.1639 10.11V10.11Z" fill="#0E0E0E"/>
		<path d="M10.833 14.443H5.05603C4.86454 14.443 4.68093 14.367 4.54553 14.2316C4.41013 14.0962 4.33398 13.9126 4.33398 13.7211C4.33398 13.5296 4.41013 13.3459 4.54553 13.2104C4.68093 13.075 4.86454 12.999 5.05603 12.999H10.833C11.0245 12.999 11.2081 13.075 11.3435 13.2104C11.4789 13.3459 11.5551 13.5296 11.5551 13.7211C11.5551 13.9126 11.4789 14.0962 11.3435 14.2316C11.2081 14.367 11.0245 14.443 10.833 14.443V14.443Z" fill="#0E0E0E"/>
		<path d="M22.3867 15.8881H16.6097C16.4183 15.8881 16.2346 15.812 16.0992 15.6766C15.9638 15.5412 15.8877 15.3575 15.8877 15.166V12.2771C15.8877 12.0856 15.9638 11.9019 16.0992 11.7665C16.2346 11.6311 16.4183 11.5551 16.6097 11.5551H22.3867C22.5782 11.5551 22.7618 11.6311 22.8972 11.7665C23.0326 11.9019 23.1088 12.0856 23.1088 12.2771V15.166C23.1088 15.3575 23.0326 15.5412 22.8972 15.6766C22.7618 15.812 22.5782 15.8881 22.3867 15.8881V15.8881ZM17.3317 14.4441H21.6647V13H17.3317V14.4441Z" fill="#0E0E0E"/>
	</symbol>

	<symbol id="icon-delete">
		<!-- width="20" height="25" viewBox="0 0 20 25" -->
		<path d="M10.001 21.302C9.86787 21.302 9.7402 21.2491 9.64606 21.155C9.55192 21.0609 9.49902 20.9332 9.49902 20.8V9.21613C9.49902 9.08286 9.55197 8.95502 9.64621 8.86078C9.74044 8.76655 9.86826 8.71362 10.0015 8.71362C10.1348 8.71362 10.2626 8.76655 10.3569 8.86078C10.4511 8.95502 10.504 9.08286 10.504 9.21613V20.799C10.5042 20.8651 10.4913 20.9306 10.466 20.9917C10.4408 21.0528 10.4037 21.1083 10.357 21.155C10.3103 21.2017 10.2548 21.2388 10.1937 21.264C10.1326 21.2892 10.0671 21.3022 10.001 21.302V21.302Z" fill="#4F4F4F" stroke="#4F4F4F" stroke-width="0.2"/>
		<path d="M12.9723 21.3019H12.9319C12.8662 21.2967 12.8021 21.2786 12.7434 21.2486C12.6847 21.2186 12.6325 21.1774 12.5897 21.1272C12.5469 21.077 12.5145 21.0189 12.4941 20.9562C12.4738 20.8935 12.4661 20.8274 12.4713 20.7616L13.3904 9.17874C13.3956 9.11296 13.4138 9.04885 13.4438 8.99008C13.4738 8.9313 13.5151 8.87901 13.5653 8.83619C13.6155 8.79337 13.6737 8.76089 13.7365 8.74055C13.7992 8.7202 13.8654 8.71241 13.9312 8.71765C13.997 8.72288 14.0611 8.74102 14.1199 8.77103C14.1787 8.80104 14.2309 8.84232 14.2738 8.89254C14.3166 8.94276 14.3491 9.00092 14.3694 9.0637C14.3898 9.12648 14.3975 9.19265 14.3923 9.25843L13.4732 20.8413C13.4628 20.967 13.4055 21.0841 13.3127 21.1694C13.2199 21.2548 13.0984 21.3021 12.9723 21.3019V21.3019Z" fill="#4F4F4F" stroke="#4F4F4F" stroke-width="0.2"/>
		<path d="M7.02509 21.303C6.89885 21.3029 6.7773 21.2552 6.68465 21.1695C6.592 21.0837 6.53506 20.9662 6.52517 20.8404L5.60608 9.25749C5.59551 9.12463 5.63815 8.99302 5.72463 8.8916C5.8111 8.79018 5.93432 8.72724 6.06718 8.71667C6.20004 8.7061 6.33166 8.74874 6.43307 8.83521C6.53449 8.92169 6.59741 9.04491 6.60798 9.17777L7.52707 20.7607C7.53231 20.8265 7.52451 20.8926 7.50413 20.9554C7.48376 21.0182 7.45119 21.0764 7.40832 21.1266C7.36544 21.1767 7.31309 21.218 7.25425 21.2479C7.19542 21.2778 7.13126 21.2958 7.06546 21.3009L7.02509 21.303Z" fill="#4F4F4F" stroke="#4F4F4F" stroke-width="0.2"/>
		<path d="M7.65746 3.32984L7.6968 2.95308C7.723 2.69257 7.84517 2.45113 8.03953 2.27571C8.23389 2.10029 8.48655 2.00343 8.74837 2.00397H11.251C11.5129 2.00343 11.7655 2.10029 11.9599 2.27571C12.1543 2.45113 12.2764 2.69257 12.3026 2.95308L12.342 3.32984H13.3521L13.3025 2.84957C13.2508 2.34174 13.0123 1.87123 12.6332 1.52942C12.2541 1.18761 11.7615 0.99893 11.251 1H8.75148C8.24103 0.99893 7.74841 1.18761 7.36931 1.52942C6.9902 1.87123 6.75168 2.34174 6.70007 2.84957L6.65039 3.32984H7.65746Z" fill="#4F4F4F" stroke="#4F4F4F" stroke-width="0.2"/>
		<path d="M17.205 7.56201L15.6028 21.5348C15.5589 21.9196 15.3749 22.2748 15.0859 22.5326C14.7969 22.7905 14.4231 22.933 14.0358 22.9331H5.96267C5.57535 22.933 5.20159 22.7905 4.91261 22.5326C4.62362 22.2748 4.43962 21.9196 4.39565 21.5348L2.79344 7.56201H1.81638H1.78223L3.39685 21.6383C3.4688 22.2683 3.77012 22.8497 4.24334 23.2718C4.71656 23.6938 5.32858 23.927 5.96267 23.9267H14.0358C14.6699 23.927 15.2819 23.6938 15.7551 23.2718C16.2283 22.8497 16.5297 22.2683 16.6016 21.6383L18.2162 7.56201H18.1821H17.205Z" fill="#4F4F4F" stroke="#4F4F4F" stroke-width="0.2"/>
		<path d="M19 7.09925H1V5.84894C1.00191 5.30244 1.21985 4.77887 1.60628 4.39243C1.99272 4.006 2.51629 3.78804 3.06279 3.78613H16.932C17.4785 3.78804 18.0021 4.006 18.3885 4.39243C18.775 4.77887 18.9929 5.30244 18.9948 5.84894L19 7.09925ZM2.005 6.09423H17.995V5.84894C17.9951 5.70989 17.9679 5.57217 17.9148 5.44365C17.8617 5.31514 17.7838 5.19835 17.6856 5.09993C17.5874 5.00151 17.4707 4.92341 17.3423 4.87008C17.2139 4.81674 17.0763 4.78923 16.9372 4.78909H10.0771C10.0502 4.78909 10.0243 4.78909 9.99948 4.78909H3.06486C2.7844 4.78936 2.51551 4.90089 2.31719 5.0992C2.11888 5.29752 2.00735 5.56639 2.00707 5.84685L2.005 6.09423Z" fill="#4F4F4F" stroke="#4F4F4F" stroke-width="0.2"/>
	</symbol>

	<symbol id="icon-like">
		<!-- width="16" height="15" viewBox="0 0 16 15" -->
		<path d="M15.267 9.00875C15.2669 8.64029 15.1234 8.28634 14.867 8.02175C15.1486 7.87293 15.3723 7.63398 15.5021 7.34311C15.6319 7.05225 15.6604 6.72625 15.5831 6.41724C15.5058 6.10824 15.3272 5.83407 15.0757 5.63856C14.8243 5.44304 14.5146 5.33748 14.196 5.33875L10.414 5.37374H8.60901L9.27405 4.18874L9.28204 4.17374C9.58698 3.58768 9.73933 2.93424 9.72504 2.27375C9.72504 2.26275 9.72504 2.25275 9.72504 2.24175C9.71504 2.14975 9.47505 0.000738237 8.03705 0.000738237H7.85901C7.84536 -0.000246079 7.83164 -0.000246079 7.81799 0.000738237C7.49074 0.0498197 7.19327 0.218264 6.98279 0.473608C6.77231 0.728952 6.66376 1.05315 6.67804 1.38375V1.96074C6.67804 2.00074 6.637 2.39474 5.224 3.98774C4.653 4.63074 4.07604 5.22474 3.82404 5.47574H0.757019C0.556331 5.47601 0.363954 5.55585 0.222046 5.69776C0.0801382 5.83967 0.000264585 6.03206 0 6.23275V14.1497C0.000264585 14.3504 0.0801382 14.5428 0.222046 14.6847C0.363954 14.8266 0.556331 14.9065 0.757019 14.9067H3.802C3.86166 14.9067 3.92006 14.8893 3.97003 14.8567C4.05518 14.8897 4.14568 14.9067 4.237 14.9067H12.809C13.2873 13.5791 13.988 12.3424 14.881 11.2497C14.8812 10.8858 14.7416 10.5357 14.491 10.2717C14.7237 10.1526 14.9192 9.97174 15.056 9.749C15.1929 9.52625 15.2659 9.27018 15.267 9.00875V9.00875ZM3.49701 14.2978H0.761047C0.723813 14.2972 0.688197 14.2822 0.661865 14.2559C0.635534 14.2295 0.620512 14.194 0.619995 14.1567V6.23975C0.620512 6.20252 0.635534 6.16695 0.661865 6.14062C0.688197 6.11428 0.723813 6.09926 0.761047 6.09875H3.49701V14.2987V14.2978ZM10.2531 8.20974L13.841 8.20475C14.0553 8.20475 14.2608 8.28987 14.4124 8.4414C14.5639 8.59293 14.649 8.79845 14.649 9.01275C14.649 9.22704 14.5639 9.43255 14.4124 9.58408C14.2608 9.73561 14.0553 9.82075 13.841 9.82075L10.252 9.83274C10.1702 9.83274 10.0917 9.86525 10.0339 9.9231C9.97602 9.98096 9.94354 10.0594 9.94354 10.1412C9.94354 10.2231 9.97602 10.3015 10.0339 10.3594C10.0917 10.4172 10.1702 10.4497 10.252 10.4497H13.458C13.6723 10.4497 13.8778 10.5349 14.0294 10.6864C14.1809 10.8379 14.266 11.0434 14.266 11.2577C14.266 11.472 14.1809 11.6776 14.0294 11.8291C13.8778 11.9806 13.6723 12.0657 13.458 12.0657H10.252C10.1702 12.0657 10.0917 12.0982 10.0339 12.1561C9.97602 12.214 9.94354 12.2924 9.94354 12.3742C9.94354 12.4561 9.97602 12.5345 10.0339 12.5924C10.0917 12.6502 10.1702 12.6827 10.252 12.6827H12.811C13.0253 12.6827 13.2309 12.7679 13.3824 12.9194C13.5339 13.0709 13.619 13.2764 13.619 13.4907C13.619 13.705 13.5339 13.9106 13.3824 14.0621C13.2309 14.2136 13.0253 14.2987 12.811 14.2987H4.23901C4.20549 14.2982 4.17349 14.2847 4.14978 14.261C4.12607 14.2373 4.11252 14.2053 4.112 14.1717V6.11774C4.11213 6.08709 4.12356 6.05756 4.14404 6.03475C4.23304 5.94475 4.96201 5.21275 5.68201 4.40275C7.11001 2.79275 7.29303 2.25374 7.29303 1.96474V1.39774C7.27733 1.21846 7.32846 1.03971 7.43665 0.895895C7.54483 0.752078 7.70242 0.653365 7.87903 0.61875H8.03503C8.86403 0.61875 9.08703 2.13374 9.10803 2.29374C9.12087 2.85026 8.99182 3.40089 8.73303 3.89374L7.81403 5.52975C7.78764 5.57665 7.774 5.62966 7.77448 5.68348C7.77495 5.73729 7.7895 5.79004 7.81671 5.83648C7.84392 5.88291 7.88284 5.92139 7.92957 5.94811C7.97629 5.97483 8.02919 5.98884 8.08301 5.98874H10.418L14.2 5.95374C14.4143 5.95374 14.6198 6.03888 14.7714 6.1904C14.9229 6.34193 15.008 6.54744 15.008 6.76174C15.008 6.97603 14.9229 7.18156 14.7714 7.33309C14.6198 7.48462 14.4143 7.56974 14.2 7.56974L10.2531 7.58675C10.1712 7.58675 10.0927 7.61924 10.0349 7.6771C9.977 7.73495 9.94452 7.81342 9.94452 7.89524C9.94452 7.97706 9.977 8.05554 10.0349 8.11339C10.0927 8.17125 10.1712 8.20374 10.2531 8.20374V8.20974Z" fill="#161615"/>
	</symbol>
	<symbol id="icon-dislike">
		<!-- width="16" height="15" viewBox="0 0 16 15" -->
		<path d="M0.358948 5.89799C0.359083 6.26644 0.502554 6.6204 0.758972 6.88499C0.477354 7.03381 0.253721 7.27276 0.123901 7.56362C-0.00591841 7.85449 -0.0344337 8.18049 0.0428467 8.4895C0.120127 8.7985 0.298772 9.07267 0.550232 9.26818C0.801692 9.46369 1.11141 9.56926 1.42993 9.56799L5.21198 9.533H7.01697L6.35193 10.718L6.34393 10.733C6.03899 11.3191 5.88664 11.9725 5.90094 12.633C5.90094 12.644 5.90094 12.654 5.90094 12.665C5.91094 12.757 6.15093 14.906 7.58893 14.906H7.76697C7.78062 14.907 7.79433 14.907 7.80798 14.906C8.13523 14.8569 8.43271 14.6885 8.64319 14.4331C8.85367 14.1778 8.96222 13.8536 8.94794 13.523V12.946C8.94794 12.906 8.98898 12.512 10.402 10.919C10.973 10.276 11.5499 9.68199 11.8019 9.43099H14.869C15.0696 9.43073 15.262 9.35089 15.4039 9.20898C15.5458 9.06707 15.6257 8.87468 15.626 8.67399L15.626 0.756998C15.6257 0.55631 15.5458 0.363917 15.4039 0.22201C15.262 0.0801019 15.0696 0.000258863 14.869 -5.72205e-06H11.824C11.7643 3.80871e-05 11.7059 0.0174113 11.6559 0.0499973C11.5708 0.0169983 11.4803 4.30383e-05 11.389 -5.72205e-06L2.81696 -5.72205e-06C2.3387 1.32769 1.63801 2.56433 0.744934 3.65699C0.744805 4.02092 0.884426 4.37101 1.13495 4.63499C0.902256 4.75415 0.706804 4.93499 0.569946 5.15774C0.433089 5.38049 0.360093 5.63656 0.358948 5.89799V5.89799ZM12.129 0.608988H14.8649C14.9022 0.609505 14.9378 0.624527 14.9641 0.650858C14.9904 0.677189 15.0055 0.71276 15.006 0.749994L15.006 8.66699C15.0055 8.70422 14.9904 8.73979 14.9641 8.76612C14.9378 8.79245 14.9022 8.80748 14.8649 8.80799H12.129L12.129 0.607996V0.608988ZM5.37292 6.697L1.78497 6.70199C1.57068 6.70199 1.36515 6.61687 1.21362 6.46534C1.06209 6.31381 0.976929 6.10829 0.976929 5.89399C0.976929 5.6797 1.06209 5.47419 1.21362 5.32266C1.36515 5.17113 1.57068 5.08599 1.78497 5.08599L5.37396 5.074C5.45578 5.074 5.53425 5.04149 5.5921 4.98364C5.64996 4.92578 5.68243 4.84732 5.68243 4.7655C5.68243 4.68368 5.64996 4.60521 5.5921 4.54736C5.53425 4.4895 5.45578 4.457 5.37396 4.457H2.16797C1.95367 4.457 1.74815 4.37186 1.59662 4.22033C1.44509 4.0688 1.35999 3.86329 1.35999 3.649C1.35999 3.4347 1.44509 3.22918 1.59662 3.07765C1.74815 2.92612 1.95367 2.841 2.16797 2.841H5.37396C5.45578 2.841 5.53425 2.80849 5.5921 2.75064C5.64996 2.69278 5.68243 2.61431 5.68243 2.5325C5.68243 2.45068 5.64996 2.37221 5.5921 2.31436C5.53425 2.2565 5.45578 2.22399 5.37396 2.22399H2.81494C2.60065 2.22399 2.39512 2.13886 2.24359 1.98733C2.09206 1.8358 2.00696 1.63029 2.00696 1.41599C2.00696 1.2017 2.09206 0.996174 2.24359 0.844645C2.39512 0.693115 2.60065 0.607996 2.81494 0.607996L11.387 0.607996C11.4205 0.608512 11.4525 0.622055 11.4762 0.645761C11.4999 0.669468 11.5135 0.701473 11.514 0.734995L11.514 8.789C11.5138 8.81965 11.5024 8.84918 11.4819 8.87199C11.3929 8.96199 10.664 9.69399 9.94397 10.504C8.51597 12.114 8.33295 12.653 8.33295 12.942V13.509C8.34865 13.6883 8.29752 13.867 8.18933 14.0108C8.08114 14.1547 7.92355 14.2534 7.74695 14.288H7.59094C6.76194 14.288 6.53894 12.773 6.51794 12.613C6.5051 12.0565 6.63416 11.5059 6.89294 11.013L7.81195 9.37699C7.83834 9.33009 7.85198 9.27708 7.8515 9.22326C7.85102 9.16944 7.83648 9.11669 7.80927 9.07026C7.78205 9.02383 7.74313 8.98534 7.69641 8.95863C7.64969 8.93191 7.59679 8.9179 7.54297 8.91799H5.20795L1.42596 8.953C1.21167 8.953 1.00614 8.86786 0.854614 8.71633C0.703085 8.5648 0.617981 8.35929 0.617981 8.145C0.617981 7.9307 0.703085 7.72518 0.854614 7.57365C1.00614 7.42212 1.21167 7.337 1.42596 7.337L5.37292 7.31999C5.45474 7.31999 5.53327 7.28749 5.59113 7.22964C5.64898 7.17178 5.68146 7.09332 5.68146 7.0115C5.68146 6.92968 5.64898 6.8512 5.59113 6.79334C5.53327 6.73549 5.45474 6.703 5.37292 6.703V6.697Z" fill="#161615"/>
	</symbol>

	<symbol id="facebook">
		<!-- width="9" height="17" viewBox="0 0 9 17" -->
		<path d="M7.967 8.81404L8.34 5.93304H5.492V4.10004C5.492 3.25204 5.729 2.71004 6.916 2.71004H8.442V0.100041C8.17 0.0680405 7.255 4.05433e-05 6.2 4.05433e-05C5.6926 -0.0350521 5.18365 0.0408627 4.70858 0.2225C4.2335 0.404138 3.80373 0.687133 3.44917 1.05178C3.0946 1.41644 2.82377 1.85398 2.65554 2.33396C2.4873 2.81394 2.42569 3.32482 2.475 3.83104V5.96704H0V8.84804H2.509V16.272H5.492V8.81404H7.967Z" fill="#00B6E9"/>
	</symbol>

	<symbol id="message">
		<!-- width="19" height="17" viewBox="0 0 19 17" -->
		<path d="M15.908 16.032C15.8642 16.0316 15.8209 16.0226 15.7805 16.0054C15.7402 15.9883 15.7037 15.9633 15.673 15.932L12.395 12.653H1.641C1.20638 12.6527 0.789592 12.4802 0.481989 12.1731C0.174385 11.8661 0.00105868 11.4496 0 11.015L0 1.642C0.00105508 1.20701 0.174253 0.790127 0.481743 0.482449C0.789233 0.174772 1.20601 0.00132007 1.641 0L17.154 0C17.589 0.00132007 18.0058 0.174772 18.3133 0.482449C18.6207 0.790127 18.7939 1.20701 18.795 1.642V11.015C18.7945 11.4501 18.6214 11.8671 18.3138 12.1748C18.0061 12.4824 17.5891 12.6555 17.154 12.656H16.241V15.7C16.241 15.7437 16.2324 15.7869 16.2156 15.8273C16.1989 15.8676 16.1743 15.9043 16.1434 15.9351C16.1125 15.966 16.0758 15.9904 16.0354 16.007C15.995 16.0236 15.9517 16.0321 15.908 16.032V16.032ZM6.583 5.991C6.49468 5.991 6.40998 6.02608 6.34753 6.08853C6.28508 6.15098 6.25 6.23568 6.25 6.324C6.25 6.41232 6.28508 6.49702 6.34753 6.55947C6.40998 6.62192 6.49468 6.657 6.583 6.657H9.064V9.14C9.064 9.22832 9.09908 9.31302 9.16153 9.37547C9.22398 9.43792 9.30868 9.473 9.397 9.473C9.48532 9.473 9.57002 9.43792 9.63247 9.37547C9.69492 9.31302 9.73 9.22832 9.73 9.14V6.657H12.211C12.2993 6.657 12.384 6.62192 12.4465 6.55947C12.5089 6.49702 12.544 6.41232 12.544 6.324C12.544 6.23568 12.5089 6.15098 12.4465 6.08853C12.384 6.02608 12.2993 5.991 12.211 5.991H9.73V3.509C9.73 3.42068 9.69492 3.33598 9.63247 3.27353C9.57002 3.21108 9.48532 3.176 9.397 3.176C9.30868 3.176 9.22398 3.21108 9.16153 3.27353C9.09908 3.33598 9.064 3.42068 9.064 3.509V5.991H6.583Z"/>
	</symbol>
	<symbol id="twitter">
		<!-- width="19" height="16" viewBox="0 0 19 16" -->
		<path d="M18.652 1.79411C17.9528 2.10298 17.2112 2.30523 16.452 2.39411C17.2525 1.9176 17.8525 1.16624 18.14 0.280105C17.3889 0.726079 16.567 1.04028 15.71 1.20911C15.1331 0.595543 14.37 0.189238 13.5389 0.0530773C12.7078 -0.0830832 11.855 0.0584951 11.1125 0.455894C10.3699 0.853293 9.77909 1.48435 9.43138 2.25141C9.08367 3.01847 8.99848 3.87875 9.189 4.69911C7.66737 4.62273 6.17883 4.22713 4.82004 3.53801C3.46126 2.84888 2.26263 1.88164 1.302 0.699108C0.812479 1.54154 0.662429 2.53887 0.882399 3.48804C1.10237 4.43722 1.67582 5.26688 2.486 5.8081C1.87711 5.78861 1.28178 5.62332 0.75 5.32611C0.75 5.34211 0.75 5.35811 0.75 5.37411C0.750189 6.25755 1.05586 7.11375 1.6152 7.79757C2.17454 8.48139 2.95313 8.95076 3.819 9.12611C3.25553 9.27931 2.66452 9.30188 2.091 9.19211C2.33547 9.95244 2.81151 10.6173 3.45253 11.0937C4.09355 11.5702 4.86747 11.8343 5.666 11.8491C4.31045 12.9132 2.63628 13.4901 0.913 13.4871C0.607891 13.4874 0.303031 13.4697 0 13.4341C1.64475 14.4876 3.54272 15.0791 5.49479 15.1464C7.44686 15.2138 9.38108 14.7545 11.0945 13.8168C12.808 12.8792 14.2375 11.4976 15.2331 9.8172C16.2287 8.13675 16.7537 6.21934 16.753 4.26611C16.753 4.10011 16.7493 3.93344 16.742 3.76611C17.4907 3.22733 18.1374 2.55958 18.652 1.79411V1.79411Z" fill="#00B6E9"/>
	</symbol>

	<symbol id="icon-rss">
		<!-- width="15" height="15" viewBox="0 0 15 15" -->
		<path d="M11.8622 9.00379C11.323 9.00356 10.7951 9.15804 10.3411 9.44892C9.88715 9.7398 9.52621 10.1549 9.30113 10.6448L6.24211 9.11878C6.58663 8.60059 6.78234 7.99781 6.80791 7.37607C6.83347 6.75434 6.68794 6.1375 6.38713 5.59278L9.62114 3.77277C9.9739 4.26958 10.5036 4.61234 11.1014 4.7305C11.6991 4.84867 12.3194 4.73327 12.8347 4.40806C13.35 4.08284 13.721 3.57253 13.8715 2.98209C14.022 2.39166 13.9406 1.76599 13.6438 1.2338C13.3471 0.701608 12.8577 0.303344 12.2764 0.120946C11.695 -0.0614507 11.0658 -0.0141121 10.5183 0.25321C9.97075 0.520531 9.54644 0.987518 9.33269 1.55811C9.11894 2.1287 9.13198 2.7595 9.36913 3.32078L6.10112 5.15479C5.67503 4.60282 5.08955 4.1952 4.424 3.98719C3.75844 3.77918 3.045 3.78084 2.38042 3.99195C1.71584 4.20305 1.13225 4.61338 0.708725 5.16733C0.285205 5.72129 0.0422619 6.39207 0.0128023 7.08875C-0.0166574 7.78543 0.168809 8.47432 0.544052 9.06205C0.919296 9.64978 1.46613 10.1079 2.11052 10.3744C2.75491 10.6408 3.46567 10.7027 4.14641 10.5516C4.82715 10.4006 5.44495 10.0438 5.91612 9.52979L9.12712 11.1298C8.98425 11.6992 9.02275 12.2991 9.23723 12.8456C9.4517 13.3921 9.83149 13.8581 10.3235 14.1784C10.8156 14.4986 11.3953 14.6573 11.9819 14.6322C12.5684 14.6071 13.1326 14.3995 13.5954 14.0384C14.0583 13.6773 14.3969 13.1806 14.5639 12.6178C14.7309 12.0549 14.7181 11.454 14.5271 10.8988C14.3361 10.3436 13.9766 9.86195 13.4986 9.52097C13.0207 9.17999 12.4482 8.99672 11.8611 8.99677L11.8622 9.00379ZM11.5781 0.517797C11.9495 0.517797 12.3127 0.627938 12.6215 0.834295C12.9303 1.04065 13.171 1.33394 13.3132 1.6771C13.4553 2.02026 13.4925 2.39785 13.42 2.76215C13.3476 3.12645 13.1688 3.46109 12.9061 3.72373C12.6435 3.98637 12.3088 4.16524 11.9445 4.23771C11.5802 4.31017 11.2026 4.27298 10.8595 4.13083C10.5163 3.98869 10.223 3.74799 10.0166 3.43915C9.81029 3.13032 9.70012 2.76722 9.70012 2.39579C9.70038 1.8977 9.8983 1.42008 10.2504 1.06778C10.6025 0.71549 11.08 0.51732 11.5781 0.51679V0.517797ZM3.40514 10.1238C2.83394 10.1238 2.27557 9.9544 1.80064 9.63706C1.32571 9.31972 0.95557 8.86869 0.736984 8.34098C0.518398 7.81327 0.461183 7.23259 0.572617 6.67237C0.684051 6.11215 0.959128 5.59756 1.36302 5.19367C1.76692 4.78978 2.2815 4.5147 2.84172 4.40326C3.40194 4.29183 3.98259 4.34905 4.5103 4.56763C5.03801 4.78622 5.4891 5.15636 5.80644 5.63129C6.12378 6.10622 6.29314 6.66459 6.29314 7.23578C6.29314 8.00173 5.98886 8.73629 5.44725 9.2779C4.90565 9.8195 4.17108 10.1238 3.40514 10.1238V10.1238ZM11.8622 14.1238C11.4964 14.1242 11.1358 14.0373 10.8103 13.8704C10.4849 13.7035 10.2039 13.4614 9.99077 13.1641C9.77762 12.8669 9.63844 12.5231 9.58476 12.1613C9.53109 11.7995 9.56443 11.4301 9.68211 11.0838V11.0838C9.81813 10.6835 10.0619 10.3284 10.3865 10.0576C10.7112 9.78681 11.1041 9.61072 11.5223 9.54868C11.9405 9.48664 12.3677 9.54106 12.757 9.70597C13.1463 9.87088 13.4826 10.1399 13.7289 10.4835C13.9753 10.827 14.1222 11.2318 14.1535 11.6534C14.1849 12.075 14.0993 12.4971 13.9064 12.8733C13.7135 13.2495 13.4207 13.5652 13.06 13.7858C12.6994 14.0064 12.2849 14.1234 11.8622 14.1238V14.1238Z"/>
	</symbol>
	
	<symbol id="icon-like">
		<!-- width="16" height="15" viewBox="0 0 16 15" -->
		<path d="M15.2631 9.0068C15.263 8.63834 15.1195 8.28439 14.8631 8.0198C15.1447 7.87097 15.3683 7.63203 15.4982 7.34116C15.628 7.05029 15.6565 6.7243 15.5792 6.41529C15.5019 6.10628 15.3233 5.83211 15.0718 5.6366C14.8204 5.44109 14.5107 5.33553 14.1921 5.3368L10.4101 5.37179H8.6051L9.27014 4.18679L9.27814 4.17179C9.58308 3.58573 9.73543 2.93229 9.72113 2.2718C9.72113 2.2608 9.72113 2.2508 9.72113 2.2398C9.71113 2.1478 9.47114 -0.00121489 8.03314 -0.00121489H7.8551C7.84145 -0.0021992 7.82774 -0.0021992 7.81409 -0.00121489C7.48684 0.0478666 7.18936 0.216311 6.97888 0.471655C6.7684 0.726999 6.65985 1.05119 6.67413 1.3818V1.95879C6.67413 1.99879 6.63309 2.39278 5.22009 3.98578C4.64909 4.62878 4.07213 5.22279 3.82013 5.47379H0.753113C0.552425 5.47406 0.360047 5.5539 0.21814 5.69581C0.0762319 5.83771 -0.00364166 6.03011 -0.00390625 6.23079V14.1478C-0.00364166 14.3485 0.0762319 14.5409 0.21814 14.6828C0.360047 14.8247 0.552425 14.9045 0.753113 14.9048H3.7981C3.85776 14.9047 3.91615 14.8874 3.96613 14.8548C4.05128 14.8878 4.14177 14.9047 4.23309 14.9048H12.8051C13.2834 13.5771 13.9841 12.3405 14.8771 11.2478C14.8773 10.8839 14.7376 10.5338 14.4871 10.2698C14.7198 10.1506 14.9153 9.96979 15.0521 9.74705C15.189 9.5243 15.262 9.26822 15.2631 9.0068ZM3.4931 14.2958H0.757141C0.719907 14.2953 0.68429 14.2803 0.657959 14.2539C0.631628 14.2276 0.616606 14.192 0.616089 14.1548V6.2378C0.616606 6.20056 0.631628 6.16499 0.657959 6.13866C0.68429 6.11233 0.719907 6.09731 0.757141 6.09679H3.4931V14.2968V14.2958ZM10.2491 8.20778L13.8371 8.2028C14.0514 8.2028 14.2569 8.28791 14.4084 8.43944C14.56 8.59097 14.6451 8.7965 14.6451 9.01079C14.6451 9.22509 14.56 9.4306 14.4084 9.58213C14.2569 9.73366 14.0514 9.81879 13.8371 9.81879L10.2481 9.83079C10.1663 9.83079 10.0878 9.86329 10.03 9.92115C9.97211 9.979 9.93964 10.0575 9.93964 10.1393C9.93964 10.2211 9.97211 10.2996 10.03 10.3574C10.0878 10.4153 10.1663 10.4478 10.2481 10.4478H13.4541C13.6684 10.4478 13.8739 10.5329 14.0255 10.6845C14.177 10.836 14.2621 11.0415 14.2621 11.2558C14.2621 11.4701 14.177 11.6756 14.0255 11.8271C13.8739 11.9787 13.6684 12.0638 13.4541 12.0638H10.2481C10.1663 12.0638 10.0878 12.0963 10.03 12.1542C9.97211 12.212 9.93964 12.2905 9.93964 12.3723C9.93964 12.4541 9.97211 12.5326 10.03 12.5904C10.0878 12.6483 10.1663 12.6808 10.2481 12.6808H12.8071C13.0214 12.6808 13.2269 12.7659 13.3785 12.9175C13.53 13.069 13.6151 13.2745 13.6151 13.4888C13.6151 13.7031 13.53 13.9086 13.3785 14.0601C13.2269 14.2117 13.0214 14.2968 12.8071 14.2968H4.23511C4.20159 14.2963 4.16958 14.2827 4.14587 14.259C4.12217 14.2353 4.10861 14.2033 4.10809 14.1698V6.11579C4.10822 6.08513 4.11965 6.0556 4.14014 6.0328C4.22914 5.9428 4.9581 5.21079 5.6781 4.40079C7.1061 2.79079 7.28912 2.25179 7.28912 1.96279V1.39579C7.27342 1.21651 7.32455 1.03776 7.43274 0.893942C7.54093 0.750124 7.69852 0.651412 7.87512 0.616797H8.03113C8.86013 0.616797 9.08313 2.13178 9.10413 2.29178C9.11697 2.8483 8.98791 3.39893 8.72913 3.89179L7.81012 5.52779C7.78373 5.5747 7.77009 5.62771 7.77057 5.68152C7.77105 5.73534 7.78559 5.78809 7.81281 5.83452C7.84002 5.88096 7.87894 5.91944 7.92566 5.94616C7.97238 5.97287 8.02528 5.98689 8.0791 5.98679H10.4141L14.1961 5.95179C14.4104 5.95179 14.6159 6.03692 14.7675 6.18845C14.919 6.33998 15.0041 6.54549 15.0041 6.75979C15.0041 6.97408 14.919 7.17961 14.7675 7.33114C14.6159 7.48267 14.4104 7.56779 14.1961 7.56779L10.2491 7.5848C10.1673 7.5848 10.0888 7.61729 10.0309 7.67515C9.97309 7.733 9.94061 7.81147 9.94061 7.89329C9.94061 7.9751 9.97309 8.05359 10.0309 8.11144C10.0888 8.1693 10.1673 8.20179 10.2491 8.20179V8.20778Z"/>
	</symbol>

</svg>