<svg xmlns="http://www.w3.org/2000/svg" viewBox="0 0 123 36.604">
  <defs>
    <style>
      .cls-1 {
        fill: #fff;
        fill-rule: evenodd;
      }
    </style>
  </defs>
  <path id="logo" class="cls-1" d="M219,63.2v.272h-.952A10.477,10.477,0,0,1,207.57,52.991V33.125h.272a1.9,1.9,0,1,0,3.81,0h.272v9.389h5.307v.272a1.9,1.9,0,0,0,0,3.81v.272h-5.307v6.123a6.123,6.123,0,0,0,6.123,6.123H219v.272a1.9,1.9,0,0,0,0,3.81Zm-15.92-1.089a1.9,1.9,0,0,0-1.9,1.9H200.9V61.491a10.476,10.476,0,1,1,4.354-8.5V64.013h-.272a1.9,1.9,0,0,0-1.9-1.9Zm-8.3-15.24a6.123,6.123,0,1,0,6.123,6.123A6.123,6.123,0,0,0,194.78,46.868Zm-23.54,16.6a10.477,10.477,0,1,1,10.477-10.477A10.477,10.477,0,0,1,171.24,63.469Zm0-16.6a6.123,6.123,0,1,0,6.123,6.123A6.123,6.123,0,0,0,171.24,46.868ZM160.418,59.041l.195.195a15.378,15.378,0,1,1-.1-21.839l-.193.193a2.243,2.243,0,0,0-3.17,3.17l-.2.2a10.34,10.34,0,1,0,.1,14.719l.195.195a2.243,2.243,0,0,0,3.17,3.171ZM124.432,69.527a1.835,1.835,0,0,1-1.9-2.929h-.047l7.031-6.2a2.584,2.584,0,1,0-4.536-1.693h-.415c0-.023.007-.045.007-.068a1.021,1.021,0,1,0-2.041,0c0,.023.005.045.007.068h-.415a5.443,5.443,0,1,1,9.291,3.849l-4.775,4.179H133v.412a1.019,1.019,0,0,0,0,2.034v.412h-8.572Zm-9.178-7.555a2.109,2.109,0,0,0-2.107,2.041h-.41V53.127a5.851,5.851,0,1,0-11.7,0V64.013h-.41a2.109,2.109,0,0,0-4.215,0H96V53.127h0v-20h.41a2.109,2.109,0,0,0,4.215,0h.41V43.947a10.893,10.893,0,0,1,11.7,0V33.125h.41a2.108,2.108,0,0,0,4.215,0h.41v20h0V64.013h-.41a2.109,2.109,0,0,0-2.107-2.041Z" transform="translate(-96 -32.987)"/>
</svg>
