<svg xmlns="http://www.w3.org/2000/svg" viewBox="0 0 70 70">
  <defs>
    <style>
      .cls-1 {
        fill: #e8ded2;
      }

      .cls-2 {
        fill: #7b5f48;
      }
    </style>
  </defs>
  <g id="Group_68" data-name="Group 68" transform="translate(-81 -1081)">
    <circle id="Ellipse_1" data-name="Ellipse 1" class="cls-1" cx="35" cy="35" r="35" transform="translate(81 1081)"/>
    <g id="noun_509020_cc" transform="translate(88.89 1089.261)">
      <path id="Path_10" data-name="Path 10" class="cls-2" d="M45.9,25.945c-.72-.988-.251-1.179-.667-1.766a7.163,7.163,0,0,1-1.368-1.847A2.553,2.553,0,0,0,42.324,20.5c-1.055-.518-1.132-1.092-1.292-2.507s-.844-3.838-1.121-3.852-.627.656-1.045.237.259-.806.03-1.384a10.885,10.885,0,0,1-.774-2.239c-.1-.718-.543-1.249-.805-.92a16.571,16.571,0,0,0-.99,3.551,29.973,29.973,0,0,1-.513,3.246c-.162.428-.8,1.821-2.139.436s-3.251-1.748-3.736-2.419.616-.728.908-.7.627-.641.335-.889-.043-.665.3-1.345-.192-.857-.419-.74c-.443.228-1.092-.129-1.471.147a1,1,0,0,1-1.262-.072c-.2-.2-1.156-1.029-1.642-.515-.37.391-.466.907-1.275.01s-1.678.353-1.529.505.6.139.406.647-1.526,1.319-1.36,2.213-.749.8-1.161.463c-1.51-1.223-1.861-1.3-3.3-.288s-.593,1.57-.768,1.919c-.235.47-.94-.364-.789.271.212.89-.141,1.745-.3,1.259-.2-.634-.488-1.064-.9-.656-.514.514-.088,1.384-.267,1.679s-.325.113-.612,1.074-1.268.924-2.014,1.21a3.1,3.1,0,0,0-1.4.755c-.665.556-.819-.121-1.284.123a7.146,7.146,0,0,0-1.575,1.614c-.493.661-.77-.7-1.226.654s.33,3.208.511,3.715-.428-.186-.7.185c-.179.242.164.941.881,1.575.777.687,1.184,2.805,2.013,3.992a4.1,4.1,0,0,1,.8,2.631c-.083.4-.841.384-.428.969a2.85,2.85,0,0,0,2.3.832c.49-.021,1.167-.2,1.353-.6s.357-.148.572-.164c.386-.029.113-.34.188-.524s.249-.258.591-.176c.306.073.284-.2.525-.257s.263.038.641,0c.989-.1,1.268.1,1.738-.125s.512-.674.651-.991c.74-1.679,4.6-1.979,6.175-1.933,1.248.037,2.5.478,2.774,1.624.35,1.457,1.632,2.545,2.055,1.91s1.542-1.476,1.539-.745-.068,1.248.561,1.73.974.213.915,1.364.889,1.2,1.717,1.9,1.94.1,2.625.218.743.991,1.41.948.79-.977,2.195-1.05,1.685-1.413,1.959-2.509,1.577-2.329,3.041-4.172,1.027-4.378,1.144-5.807S46.623,26.934,45.9,25.945Zm-6.112,17.13c-.177.443-.418.988-.857.919-.671-.106-1.37-1.173-1.8-.335a3.562,3.562,0,0,0,.754,3.174c.827.928,1.541.2,1.894-.191a4.062,4.062,0,0,0,.6-2.441c-.17-.5.035-.578.039-1.045S40,42.56,39.792,43.076Z" transform="translate(0)"/>
    </g>
  </g>
</svg>
