<svg xmlns="http://www.w3.org/2000/svg" viewBox="0 0 70 70">
  <defs>
    <style>
      .cls-1 {
        fill: #e8ded2;
      }

      .cls-2 {
        fill: #7b5f48;
        fill-rule: evenodd;
      }
    </style>
  </defs>
  <g id="Group_67" data-name="Group 67" transform="translate(-213 -1083)">
    <circle id="Ellipse_2" data-name="Ellipse 2" class="cls-1" cx="35" cy="35" r="35" transform="translate(213 1083)"/>
    <g id="noun_1269994_cc" transform="translate(56 1140)">
      <path id="Path_29" data-name="Path 29" class="cls-2" d="M70.353,9.138V16.22L78.393,29.3a4.1,4.1,0,0,1-1.523,5.732,4.444,4.444,0,0,1-1.48.524A57.561,57.561,0,0,1,66,36.333a57.56,57.56,0,0,1-9.391-.775,4.2,4.2,0,0,1-3.546-4.83,4.09,4.09,0,0,1,.544-1.426l8.062-13.118V9.138H59.5V6H72.524V9.138ZM56.682,30.214a1.64,1.64,0,0,0,.62,2.29,1.784,1.784,0,0,0,.607.209,54.6,54.6,0,0,0,8.248.639,52.059,52.059,0,0,0,8.028-.625,1.682,1.682,0,0,0,1.437-1.919,1.634,1.634,0,0,0-.222-.588l-3.064-4.969q-2.587,2.556-6.18.586a9.341,9.341,0,0,0-2.868-1.059,4.4,4.4,0,0,0-4.517,2Z" transform="translate(126 -43)"/>
    </g>
  </g>
</svg>
