<svg xmlns="http://www.w3.org/2000/svg" viewBox="0 0 70 70">
  <defs>
    <style>
      .cls-1 {
        fill: #e8ded2;
      }

      .cls-2 {
        fill: #7b5f48;
      }
    </style>
  </defs>
  <g id="Group_69" data-name="Group 69" transform="translate(-740 -1080)">
    <circle id="Ellipse_4" data-name="Ellipse 4" class="cls-1" cx="35" cy="35" r="35" transform="translate(740 1080)"/>
    <g id="noun_383495_cc" transform="translate(866 1028.29)">
      <path id="Path_22" data-name="Path 22" class="cls-2" d="M26.395,31.851a4.368,4.368,0,1,0-4.367-4.367A4.368,4.368,0,0,0,26.395,31.851Zm22-4.367a5.842,5.842,0,0,0-1.355-3.621,2.957,2.957,0,0,0-4.65-3.5q-.982-.483-2.094-.9c.864-5.237-.061-9.385-2.9-11.025a5.556,5.556,0,0,0-2.817-.721c-2.477,0-5.343,1.352-8.213,3.72-2.87-2.356-5.731-3.721-8.152-3.721a5.552,5.552,0,0,0-2.817.721,5.846,5.846,0,0,0-2.459,2.987,2.958,2.958,0,0,0-.71,5.768q.074,1.1.266,2.272c-4.966,1.87-8.1,4.746-8.1,8.026s3.13,6.156,8.1,8.026c-.082.493-.151.981-.2,1.457-.5,4.723.6,8.122,3.1,9.569a5.56,5.56,0,0,0,2.817.72,7.211,7.211,0,0,0,1-.073,2.96,2.96,0,0,0,5.431-1.631,3.006,3.006,0,0,0-.078-.667c.607-.41,1.218-.872,1.83-1.375,2.88,2.372,5.752,3.746,8.183,3.746h0a5.552,5.552,0,0,0,2.816-.721C39.9,45.088,41,41.689,40.5,36.966c-.051-.477-.121-.963-.2-1.456C45.265,33.64,48.4,30.765,48.4,27.484ZM34.578,9.641a3.653,3.653,0,0,1,1.852.462c2.065,1.193,2.686,4.5,2.018,8.731a37.864,37.864,0,0,0-6.326-1.3,38.368,38.368,0,0,0-4.271-4.8C30.277,10.78,32.637,9.641,34.578,9.641ZM17.487,32.625q.783,1.355,1.63,2.62a35.142,35.142,0,0,1-4.4-1.019A34.092,34.092,0,0,1,16.028,29.9Q16.7,31.257,17.487,32.625ZM14.716,20.741a35.139,35.139,0,0,1,4.4-1.018q-.837,1.261-1.624,2.62t-1.455,2.716A35.135,35.135,0,0,1,14.716,20.741Zm2.307,6.737a46.12,46.12,0,0,1,2.135-4.171,44.935,44.935,0,0,1,2.556-3.937,45.414,45.414,0,0,1,9.363,0A45.071,45.071,0,0,1,33.631,23.3a46.043,46.043,0,0,1,2.136,4.173,45.265,45.265,0,0,1-2.135,4.184A45.063,45.063,0,0,1,31.077,35.6a45.444,45.444,0,0,1-4.68.242,45.527,45.527,0,0,1-4.684-.242,45.259,45.259,0,0,1-4.69-8.119ZM35.3,32.627q.79-1.368,1.461-2.729a34.084,34.084,0,0,1,1.314,4.327,35.308,35.308,0,0,1-4.4,1.02C34.235,34.4,34.781,33.531,35.3,32.627Zm1.456-7.57q-.676-1.364-1.456-2.718t-1.629-2.619a35.089,35.089,0,0,1,4.4,1.019A35.166,35.166,0,0,1,36.758,25.058ZM26.4,14.006a35.138,35.138,0,0,1,3.077,3.29c-1-.063-2.029-.1-3.075-.1s-2.074.035-3.079.1A35.152,35.152,0,0,1,26.4,14.006Zm-10.3.361a2.957,2.957,0,0,0-1.3-2.453A3.923,3.923,0,0,1,16.36,10.1a3.656,3.656,0,0,1,1.852-.462c1.933,0,4.283,1.13,6.7,3.076A38.1,38.1,0,0,0,20.65,17.54a37.861,37.861,0,0,0-6.309,1.294q-.137-.871-.2-1.685A2.956,2.956,0,0,0,16.1,14.368ZM6.326,27.484c0-2.385,2.551-4.574,6.552-6.114a37.826,37.826,0,0,0,2.037,6.118A38.191,38.191,0,0,0,12.878,33.6C8.877,32.058,6.326,29.869,6.326,27.484ZM23.556,43.26A2.958,2.958,0,0,0,18.735,45.3a5.227,5.227,0,0,1-.523.029,3.657,3.657,0,0,1-1.852-.462c-1.779-1.027-2.563-3.831-2.151-7.692.037-.341.085-.689.138-1.038a38.039,38.039,0,0,0,6.321,1.295,38.407,38.407,0,0,0,4.272,4.8Q24.243,42.79,23.556,43.26Zm2.84-2.3a35.093,35.093,0,0,1-3.078-3.29c1,.063,2.031.1,3.079.1s2.072-.036,3.076-.1A35.094,35.094,0,0,1,26.4,40.96Zm10.035,3.9a3.658,3.658,0,0,1-1.852.462h0c-1.941,0-4.3-1.14-6.727-3.1a38.4,38.4,0,0,0,4.271-4.8,37.763,37.763,0,0,0,6.321-1.295c.053.35.1.7.138,1.037C38.993,41.033,38.21,43.837,36.431,44.865ZM39.912,33.6a38.167,38.167,0,0,0-2.037-6.109,37.882,37.882,0,0,0,2.037-6.119q.829.319,1.57.674A2.954,2.954,0,0,0,45.667,25.2a3.938,3.938,0,0,1,.8,2.28C46.466,29.869,43.914,32.058,39.912,33.6Z" transform="translate(-117 59)"/>
    </g>
  </g>
</svg>
