<svg width="6" height="12" viewBox="0 0 6 12" fill="none" xmlns="http://www.w3.org/2000/svg">
<path d="M0.209609 1.39968L4.23177 6L0.209609 10.6003C0.0753555 10.7545 0 10.9631 0 11.1805C0 11.3979 0.0753555 11.6065 0.209609 11.7607C0.344663 11.914 0.527355 12 0.717785 12C0.908215 12 1.09091 11.914 1.22596 11.7607L5.81036 6.52669C5.93186 6.38649 6 6.19722 6 6C6 5.80278 5.93186 5.61351 5.81036 5.47331L1.22596 0.239309C1.09091 0.0860331 0.908215 0 0.717785 0C0.527355 0 0.344663 0.0860331 0.209609 0.239309C0.0753555 0.3935 0 0.60208 0 0.819493C0 1.03691 0.0753555 1.24549 0.209609 1.39968Z" fill="white"/>
</svg>
