<svg width="22" height="18" viewBox="0 0 22 18" fill="none" xmlns="http://www.w3.org/2000/svg">
<g clip-path="url(#clip0)">
<path d="M7.14957 12.375C7.06741 12.375 6.98526 12.3873 6.90688 12.4133C6.46138 12.5613 5.99285 12.6562 5.49957 12.6562C5.00629 12.6562 4.53776 12.5613 4.09191 12.4133C4.01354 12.3873 3.93172 12.375 3.84957 12.375C1.71625 12.375 -0.0117765 14.1497 -0.000432749 16.3343C0.00437975 17.2575 0.746536 18 1.64957 18H9.34957C10.2526 18 10.9948 17.2575 10.9996 16.3343C11.0109 14.1497 9.28288 12.375 7.14957 12.375ZM5.49957 11.25C7.32213 11.25 8.79957 9.73898 8.79957 7.875C8.79957 6.01102 7.32213 4.5 5.49957 4.5C3.677 4.5 2.19957 6.01102 2.19957 7.875C2.19957 9.73898 3.677 11.25 5.49957 11.25ZM20.3496 0H7.14957C6.23966 0 5.49957 0.782227 5.49957 1.7434V3.375C6.30463 3.375 7.04988 3.61336 7.69957 4.00078V2.25H19.7996V12.375H17.5996V10.125H13.1996V12.375H10.5788C11.2354 12.9618 11.7173 13.7366 11.9432 14.625H20.3496C21.2595 14.625 21.9996 13.8428 21.9996 12.8816V1.7434C21.9996 0.782227 21.2595 0 20.3496 0Z" fill="#11AB59"/>
</g>
<defs>
<clipPath id="clip0">
<rect width="22" height="18" fill="white"/>
</clipPath>
</defs>
</svg>
