<svg width="24" height="16" viewBox="0 0 24 16" fill="none" xmlns="http://www.w3.org/2000/svg">
<path d="M7.2 8C9.52125 8 11.4 6.23867 11.4 4.0625C11.4 1.88633 9.52125 0.125 7.2 0.125C4.87875 0.125 3 1.88633 3 4.0625C3 6.23867 4.87875 8 7.2 8ZM10.08 9.125H9.76875C8.98875 9.47656 8.1225 9.6875 7.2 9.6875C6.2775 9.6875 5.415 9.47656 4.63125 9.125H4.32C1.935 9.125 0 10.9391 0 13.175V14.1875C0 15.1191 0.80625 15.875 1.8 15.875H12.6C13.5938 15.875 14.4 15.1191 14.4 14.1875V13.175C14.4 10.9391 12.465 9.125 10.08 9.125ZM18 8C19.9875 8 21.6 6.48828 21.6 4.625C21.6 2.76172 19.9875 1.25 18 1.25C16.0125 1.25 14.4 2.76172 14.4 4.625C14.4 6.48828 16.0125 8 18 8ZM19.8 9.125H19.6575C19.1363 9.29375 18.585 9.40625 18 9.40625C17.415 9.40625 16.8638 9.29375 16.3425 9.125H16.2C15.435 9.125 14.73 9.33242 14.1112 9.66641C15.0262 10.591 15.6 11.818 15.6 13.175V14.525C15.6 14.6023 15.5813 14.6762 15.5775 14.75H22.2C23.1938 14.75 24 13.9941 24 13.0625C24 10.8863 22.1213 9.125 19.8 9.125Z" fill="#11AB59"/>
</svg>
