<svg width="150" height="34" viewBox="0 0 150 34" fill="none" xmlns="http://www.w3.org/2000/svg">
<path d="M23.861 33.8578H30.3876L20.9051 0.171875H16.0091L11.9315 14.6575L15.7038 17.8138L18.3543 8.46547L23.5556 26.8086L9.78988 15.3587L14.0711 0.171875H9.38075L0 33.8183H4.79217L8.4646 20.8496L23.861 33.8578Z" fill="#8C6E1F"/>
<path d="M13.1197 27.0041L11.2502 33.8183H6.45801L9.38068 23.7313L13.1197 27.0041Z" fill="#8C6E1F"/>
<path d="M38.8696 12.4353L37.9124 14.8806H34.4729L40.1479 1.60962H43.5855L49.1293 14.8806H45.5587L44.6191 12.4353H38.8696ZM41.7629 4.96735L39.8465 9.87754H43.6422L41.7629 4.96735Z" fill="white"/>
<path d="M60.8181 14.8826H57.5685V13.5356C56.854 14.4836 55.8204 15.0149 54.5245 15.0149C51.6683 15.0149 49.7891 12.8917 49.7891 9.72552C49.7891 6.5969 51.6488 4.53091 54.4481 4.53091C55.7832 4.53091 56.854 5.06222 57.5666 6.01028V0.815674H60.8161V14.8826H60.8181ZM57.5685 9.80057C57.5685 8.22639 56.6661 7.14599 55.3134 7.14599C53.9607 7.14599 53.0582 8.22639 53.0406 9.80057C53.0602 11.3748 53.9607 12.4729 55.3134 12.4729C56.6661 12.4729 57.5685 11.3748 57.5685 9.80057Z" fill="white"/>
<path d="M80.9657 8.43583V14.8807H77.7337V9.34637C77.7337 8.13363 77.0583 7.39296 75.9856 7.39296C74.764 7.43048 74.0123 8.43583 74.0123 9.8204V14.8827H70.7627V9.34637C70.7627 8.13363 70.105 7.39296 69.0342 7.39296C67.795 7.43048 67.0237 8.43583 67.0237 9.8204V14.8827H63.7917V4.66332H67.0237V6.35008C67.7187 5.13735 68.8834 4.53098 70.3673 4.51123C72.0214 4.51123 73.243 5.38424 73.75 6.82412C74.4077 5.30721 75.6469 4.53098 77.3206 4.51123C79.5366 4.51123 80.9657 6.04789 80.9657 8.43583Z" fill="white"/>
<path d="M87.081 1.72429C87.081 2.74742 86.3665 3.46834 85.3721 3.46834C84.3757 3.46834 83.6611 2.74742 83.6611 1.72429C83.6611 0.71895 84.3757 0 85.3721 0C86.3665 0 87.081 0.720925 87.081 1.72429ZM83.7375 14.8827V4.6633H86.9695V14.8807H83.7375V14.8827Z" fill="white"/>
<path d="M97.8184 5.66866L96.7104 7.79193C95.4888 7.12829 94.3613 6.76881 93.5156 6.76881C92.9322 6.76881 92.5192 6.99595 92.5192 7.46998C92.5192 8.87233 97.8556 8.19091 97.836 11.7541C97.836 13.8576 96.0135 15.015 93.5704 15.015C91.8791 15.015 90.2445 14.5212 89.0229 13.5732L90.0566 11.4874C91.2017 12.3031 92.5172 12.7574 93.6448 12.7574C94.283 12.7574 94.7528 12.5303 94.7528 12.0562C94.7528 10.5591 89.5104 11.3353 89.53 7.75243C89.53 5.64891 91.2957 4.51123 93.6448 4.51123C95.113 4.51123 96.5792 4.92798 97.8184 5.66866Z" fill="white"/>
<path d="M108 5.66866L106.892 7.79193C105.67 7.12829 104.543 6.76881 103.697 6.76881C103.116 6.76881 102.701 6.99595 102.701 7.46998C102.701 8.87233 108.037 8.19091 108.018 11.7541C108.018 13.8576 106.195 15.015 103.752 15.015C102.061 15.015 100.426 14.5212 99.2046 13.5732L100.238 11.4874C101.383 12.3031 102.699 12.7574 103.826 12.7574C104.465 12.7574 104.934 12.5303 104.934 12.0562C104.934 10.5591 99.692 11.3353 99.7116 7.75243C99.7116 5.64891 101.477 4.51123 103.826 4.51123C105.295 4.51123 106.759 4.92798 108 5.66866Z" fill="white"/>
<path d="M113.641 1.72429C113.641 2.74742 112.927 3.46834 111.932 3.46834C110.936 3.46834 110.221 2.74742 110.221 1.72429C110.221 0.71895 110.936 0 111.932 0C112.927 0 113.641 0.720925 113.641 1.72429ZM110.298 14.8827V4.6633H113.53V14.8807H110.298V14.8827Z" fill="white"/>
<path d="M126.763 9.76317C126.763 12.9096 124.545 14.9953 121.239 14.9953C117.913 14.9953 115.697 12.9096 115.697 9.76317C115.697 6.61677 117.915 4.55078 121.239 4.55078C124.547 4.55078 126.763 6.61677 126.763 9.76317ZM118.966 9.80069C118.966 11.3927 119.886 12.4553 121.239 12.4553C122.574 12.4553 123.494 11.3946 123.494 9.80069C123.494 8.22651 122.574 7.14611 121.239 7.14611C119.886 7.14809 118.966 8.22849 118.966 9.80069Z" fill="white"/>
<path d="M139.302 8.43581V14.8807H136.072V9.34634C136.072 8.15139 135.377 7.41269 134.286 7.41269C133.102 7.41269 132.35 8.26595 132.219 9.47868V14.8827H128.969V4.6633H132.219V6.33229C132.934 5.13733 134.098 4.53096 135.602 4.51319C137.837 4.51121 139.302 6.04787 139.302 8.43581Z" fill="white"/>
<path d="M149.98 5.66866L148.872 7.79193C147.651 7.12829 146.523 6.76881 145.677 6.76881C145.096 6.76881 144.681 6.99595 144.681 7.46998C144.681 8.87233 150.017 8.19091 149.998 11.7541C149.998 13.8576 148.175 15.015 145.732 15.015C144.041 15.015 142.406 14.5212 141.185 13.5732L142.218 11.4874C143.364 12.3031 144.679 12.7574 145.807 12.7574C146.445 12.7574 146.915 12.5303 146.915 12.0562C146.915 10.5591 141.672 11.3353 141.692 7.75243C141.692 5.64891 143.458 4.51123 145.807 4.51123C147.275 4.51123 148.741 4.92798 149.98 5.66866Z" fill="white"/>
<path d="M41.9685 23.2888V33.8479H38.6249V23.2888H34.698V20.5592H45.9345V23.2888H41.9685Z" fill="white"/>
<path d="M57.7895 33.8479H54.538V32.1611C53.843 33.3738 52.7155 33.9822 51.2492 33.9822C49.0509 33.9822 47.6238 32.4653 47.6238 30.0773V23.6324H50.8734V29.149C50.8734 30.3617 51.5311 31.1024 52.5647 31.1024C53.8039 31.0827 54.538 30.0595 54.538 28.675V23.6324H57.7895V33.8479Z" fill="white"/>
<path d="M67.3134 33.2989C66.5813 33.7354 65.5849 34 64.608 34C62.6544 34 61.2449 32.8821 61.2449 30.7588V26.2456H59.8354V24.1026H61.2449V21.2584H64.4769V24.0829H67.1255V26.2437H64.4769V30.2433C64.4769 31.0393 64.8156 31.381 65.4165 31.3613C65.7552 31.3613 66.1859 31.2289 66.6753 31.0196L67.3134 33.2989Z" fill="white"/>
<path d="M79.5992 28.7303C79.5992 31.8767 77.3813 33.9625 74.0749 33.9625C70.7489 33.9625 68.533 31.8767 68.533 28.7303C68.533 25.5839 70.7509 23.5179 74.0749 23.5179C77.3813 23.516 79.5992 25.582 79.5992 28.7303ZM71.8021 28.7679C71.8021 30.3598 72.7222 31.4224 74.0749 31.4224C75.41 31.4224 76.33 30.3618 76.33 28.7679C76.33 27.1937 75.41 26.1133 74.0749 26.1133C72.7222 26.1133 71.8021 27.1937 71.8021 28.7679Z" fill="white"/>
<path d="M85.0531 25.3549C85.748 24.1599 86.8951 23.4963 88.3418 23.4785V26.4353C86.4625 26.2654 85.2234 27.1562 85.0531 28.5961V33.848H81.8035V23.6286H85.0531V25.3549Z" fill="white"/>
<path d="M98.159 24.6339L97.051 26.7571C95.8294 26.0935 94.7019 25.734 93.8562 25.734C93.2748 25.734 92.8598 25.9612 92.8598 26.4352C92.8598 27.8375 98.1962 27.1561 98.1766 30.7193C98.1766 32.8228 96.3541 33.9802 93.911 33.9802C92.2196 33.9802 90.5851 33.4864 89.3635 32.5384L90.3971 30.4526C91.5423 31.2684 92.8578 31.7226 93.9854 31.7226C94.6236 31.7226 95.0934 31.4955 95.0934 31.0215C95.0934 29.5243 89.851 30.3005 89.8705 26.7176C89.8705 24.6141 91.6363 23.4764 93.9854 23.4764C95.4536 23.4784 96.9198 23.8952 98.159 24.6339Z" fill="white"/>
</svg>
