<svg width="309" height="92" viewBox="0 0 309 92" fill="none" xmlns="http://www.w3.org/2000/svg">
<path d="M3.36348 81.1915V83.8361H9.67508V86.5012H3.36348V89.1828H10.5628V91.8479H0V78.5264H10.3551V81.1915H3.36348Z" fill="white"/>
<path d="M25.3683 89.0106V91.8479H16.3936V78.5264H19.757V89.0106H25.3683Z" fill="white"/>
<path d="M30.2627 91.8479V78.5264H33.6262V91.8479H30.2627Z" fill="white"/>
<path d="M45.7411 81.2487V91.8477H42.3776V81.2487H38.4277V78.5098H49.7276V81.2487H45.7411Z" fill="white"/>
<path d="M57.9084 81.1915V83.8361H64.22V86.5012H57.9084V89.1828H65.1077V91.8479H54.5449V78.5264H64.9V81.1915H57.9084Z" fill="white"/>
<path d="M92.5159 85.1687C92.5159 89.0516 89.4537 91.9996 85.3532 91.9996C81.2731 91.9996 78.2109 89.068 78.2109 85.1687C78.2109 81.2858 81.2731 78.4116 85.3532 78.4116C89.4537 78.4116 92.5159 81.3063 92.5159 85.1687ZM81.6518 85.1892C81.6518 87.4361 83.3702 89.1664 85.3939 89.1664C87.434 89.1664 89.0587 87.4361 89.0587 85.1892C89.0587 82.9423 87.434 81.2489 85.3939 81.2489C83.3498 81.2489 81.6518 82.9423 81.6518 85.1892Z" fill="white"/>
<path d="M107.196 91.8479L101.108 83.6475V91.8479H97.9521V78.5264H100.921L107.025 86.7473V78.5264H110.164V91.8479H107.196Z" fill="white"/>
<path d="M125.43 89.0106V91.8479H116.455V78.5264H119.819V89.0106H125.43Z" fill="white"/>
<path d="M130.32 91.8479V78.5264H133.684V91.8479H130.32Z" fill="white"/>
<path d="M149.169 91.8479L143.082 83.6475V91.8479H139.926V78.5264H142.894L148.998 86.7473V78.5264H152.138V91.8479H149.169Z" fill="white"/>
<path d="M161.789 81.1915V83.8361H168.101V86.5012H161.789V89.1828H168.989V91.8479H158.426V78.5264H168.781V81.1915H161.789Z" fill="white"/>
<path d="M189.084 81.2487V91.8477H185.72V81.2487H181.771V78.5098H193.07V81.2487H189.084Z" fill="white"/>
<path d="M209.912 86.2511C209.912 89.7691 207.587 91.9996 203.885 91.9996C200.163 91.9996 197.781 89.7732 197.781 86.2511V78.5264H201.145V86.2511C201.145 88.0593 202.297 89.1623 203.906 89.1623C205.494 89.1623 206.569 88.0593 206.569 86.2511V78.5264H209.916V86.2511H209.912Z" fill="white"/>
<path d="M221.94 81.2487V91.8477H218.577V81.2487H214.627V78.5098H225.927V81.2487H221.94Z" fill="white"/>
<path d="M244.073 85.1687C244.073 89.0516 241.01 91.9996 236.91 91.9996C232.83 91.9996 229.768 89.068 229.768 85.1687C229.768 81.2858 232.83 78.4116 236.91 78.4116C241.01 78.4116 244.073 81.3063 244.073 85.1687ZM233.204 85.1892C233.204 87.4361 234.923 89.1664 236.947 89.1664C238.987 89.1664 240.611 87.4361 240.611 85.1892C240.611 82.9423 238.987 81.2489 236.947 81.2489C234.906 81.2489 233.204 82.9423 233.204 85.1892Z" fill="white"/>
<path d="M255.519 88.0964H255.425H252.876V91.844H249.513V78.5225H255.429C258.927 78.5225 260.927 80.1953 260.927 83.1639C260.927 85.1976 260.075 86.6655 258.528 87.4445L261.305 91.8399H257.49L255.519 88.0964ZM255.425 85.4354C256.879 85.4354 257.73 84.6933 257.73 83.2869C257.73 81.8969 256.879 81.1958 255.425 81.1958H252.876V85.4395H255.425V85.4354Z" fill="white"/>
<path d="M266.736 91.8479V78.5264H270.1V91.8479H266.736Z" fill="white"/>
<path d="M285.582 91.8479L279.499 83.6475V91.8479H276.343V78.5264H279.307L285.411 86.7473V78.5264H288.546V91.8479H285.582Z" fill="white"/>
<path d="M306.552 85.0742V90.2692C305.135 91.2778 302.908 91.9994 301.055 91.9994C297.028 91.9994 293.99 89.0678 293.99 85.189C293.99 81.3267 297.105 78.4155 301.283 78.4155C303.25 78.4155 305.327 79.1782 306.687 80.3959L304.797 82.6961C303.832 81.8023 302.493 81.2488 301.263 81.2488C299.088 81.2488 297.427 82.9626 297.427 85.189C297.427 87.4523 299.109 89.1662 301.299 89.1662C301.979 89.1662 302.847 88.9202 303.641 88.5184V85.0742H306.552Z" fill="white"/>
<path d="M49.4712 69.5232H62.9006L43.3876 0.353027H33.3175L24.9251 30.0999L32.6864 36.5741L38.1428 17.3852L48.84 55.0495L20.5192 31.539L29.331 0.353027H19.6804L0.375 69.4412H10.2374L17.791 42.8146L49.4712 69.5232Z" fill="#8C6E1F"/>
<path d="M27.3724 55.4475L23.5243 69.4415H13.666L19.6804 48.7314L27.3724 55.4475Z" fill="#8C6E1F"/>
<path d="M80.3496 25.5362L78.3787 30.5589H71.3057L82.9801 3.30908H90.0532L101.459 30.5589H94.113L92.1787 25.5362H80.3496ZM86.3029 10.1974L82.3611 20.2798H90.1713L86.3029 10.1974Z" fill="white"/>
<path d="M125.512 30.5587H118.826V27.7951C117.356 29.7427 115.231 30.8334 112.563 30.8334C106.688 30.8334 102.823 26.4749 102.823 19.972C102.823 13.5511 106.651 9.3074 112.409 9.3074C115.153 9.3074 117.356 10.398 118.826 12.3456V1.67285H125.512V30.5587ZM118.826 20.1237C118.826 16.8927 116.969 14.6745 114.188 14.6745C111.407 14.6745 109.55 16.8927 109.509 20.1237C109.546 23.3546 111.403 25.6138 114.188 25.6138C116.973 25.6138 118.826 23.3546 118.826 20.1237Z" fill="white"/>
<path d="M166.961 17.3232V30.5586H160.311V19.1888C160.311 16.6958 158.918 15.1788 156.716 15.1788C154.203 15.2567 152.656 17.3191 152.656 20.1605V30.5545H145.97V19.1888C145.97 16.6958 144.618 15.1788 142.415 15.1788C139.862 15.2567 138.278 17.3191 138.278 20.1605V30.5545H131.628V9.57382H138.278V13.0385C139.707 10.5456 142.105 9.30321 145.159 9.26221C148.563 9.26221 151.076 11.054 152.118 14.0102C153.47 10.8982 156.023 9.29911 159.464 9.26221C164.025 9.26631 166.961 12.4194 166.961 17.3232Z" fill="white"/>
<path d="M179.548 3.54256C179.548 5.64596 178.078 7.12203 176.03 7.12203C173.982 7.12203 172.512 5.64186 172.512 3.54256C172.512 1.48017 173.982 0 176.03 0C178.078 0 179.548 1.48017 179.548 3.54256ZM172.666 30.5587V9.57394H179.316V30.5546H172.666V30.5587Z" fill="white"/>
<path d="M201.639 11.6403L199.358 15.9988C196.846 14.6376 194.525 13.8954 192.786 13.8954C191.589 13.8954 190.738 14.3628 190.738 15.3346C190.738 18.217 201.716 16.8148 201.679 24.1336C201.679 28.4552 197.929 30.8292 192.904 30.8292C189.423 30.8292 186.063 29.8164 183.551 27.8689L185.676 23.5883C188.034 25.2611 190.742 26.196 193.059 26.196C194.374 26.196 195.339 25.7286 195.339 24.7568C195.339 21.6817 184.552 23.2766 184.593 15.9209C184.593 11.5993 188.23 9.26221 193.059 9.26221C196.072 9.26631 199.09 10.1191 201.639 11.6403Z" fill="white"/>
<path d="M222.585 11.6403L220.305 15.9988C217.792 14.6376 215.471 13.8954 213.732 13.8954C212.535 13.8954 211.684 14.3628 211.684 15.3346C211.684 18.217 222.662 16.8148 222.626 24.1336C222.626 28.4552 218.875 30.8292 213.85 30.8292C210.369 30.8292 207.009 29.8164 204.497 27.8689L206.623 23.5883C208.98 25.2611 211.688 26.196 214.005 26.196C215.32 26.196 216.286 25.7286 216.286 24.7568C216.286 21.6817 205.499 23.2766 205.54 15.9209C205.54 11.5993 209.176 9.26221 214.005 9.26221C217.018 9.26631 220.036 10.1191 222.585 11.6403Z" fill="white"/>
<path d="M234.194 3.54256C234.194 5.64596 232.724 7.12203 230.675 7.12203C228.627 7.12203 227.157 5.64186 227.157 3.54256C227.157 1.48017 228.627 0 230.675 0C232.728 0 234.194 1.48017 234.194 3.54256ZM227.316 30.5587V9.57394H233.966V30.5546H227.316V30.5587Z" fill="white"/>
<path d="M261.195 20.0459C261.195 26.5078 256.635 30.7884 249.83 30.7884C242.99 30.7884 238.425 26.5078 238.425 20.0459C238.425 13.584 242.985 9.34033 249.83 9.34033C256.635 9.34443 261.195 13.584 261.195 20.0459ZM245.152 20.1238C245.152 23.3958 247.045 25.573 249.83 25.573C252.575 25.573 254.468 23.3917 254.468 20.1238C254.468 16.8929 252.575 14.6747 249.83 14.6747C247.045 14.6747 245.152 16.8929 245.152 20.1238Z" fill="white"/>
<path d="M286.991 17.3232V30.5586H280.342V19.1888C280.342 16.7368 278.912 15.2198 276.669 15.2198C274.234 15.2198 272.686 16.9706 272.418 19.4635V30.5586H265.731V9.57382H272.418V12.9975C273.888 10.5456 276.286 9.29911 279.377 9.26221C283.978 9.26631 286.991 12.4194 286.991 17.3232Z" fill="white"/>
<path d="M308.964 11.6403L306.683 15.9988C304.171 14.6376 301.85 13.8954 300.111 13.8954C298.914 13.8954 298.063 14.3628 298.063 15.3346C298.063 18.217 309.041 16.8148 309.005 24.1336C309.005 28.4552 305.254 30.8292 300.229 30.8292C296.748 30.8292 293.388 29.8164 290.876 27.8689L293.002 23.5883C295.359 25.2611 298.067 26.196 300.384 26.196C301.699 26.196 302.664 25.7286 302.664 24.7568C302.664 21.6817 291.878 23.2766 291.918 15.9209C291.918 11.5993 295.555 9.26221 300.384 9.26221C303.397 9.26631 306.411 10.1191 308.964 11.6403Z" fill="white"/>
<path d="M86.7311 47.8208V69.5026H79.8494V47.8208H71.7705V42.2158H94.8873V47.8208H86.7311Z" fill="white"/>
<path d="M119.282 69.5021H112.592V66.0375C111.162 68.5304 108.841 69.7768 105.828 69.7768C101.304 69.7768 98.3682 66.6607 98.3682 61.7569V48.5215H105.054V59.8503C105.054 62.3432 106.406 63.8603 108.536 63.8603C111.089 63.8234 112.596 61.72 112.596 58.8786V48.5256H119.286V69.5021H119.282Z" fill="white"/>
<path d="M138.872 68.3709C137.366 69.2648 135.317 69.8101 133.306 69.8101C129.283 69.8101 126.388 67.514 126.388 63.1555V53.889H123.488V49.4895H126.388V43.6509H133.037V49.4526H138.49V53.889H133.037V62.1017C133.037 63.7377 133.733 64.4388 134.971 64.3978C135.668 64.3978 136.555 64.1272 137.561 63.6967L138.872 68.3709Z" fill="white"/>
<path d="M164.152 58.9898C164.152 65.4517 159.591 69.7323 152.787 69.7323C145.946 69.7323 141.381 65.4517 141.381 58.9898C141.381 52.5279 145.941 48.2842 152.787 48.2842C159.591 48.2883 164.152 52.532 164.152 58.9898ZM148.112 59.0677C148.112 62.3396 150.005 64.5168 152.791 64.5168C155.535 64.5168 157.429 62.3355 157.429 59.0677C157.429 55.8367 155.535 53.6185 152.791 53.6185C150.005 53.6185 148.112 55.8367 148.112 59.0677Z" fill="white"/>
<path d="M175.378 52.0636C176.807 49.6117 179.169 48.2505 182.141 48.2095V54.2818C178.277 53.9333 175.724 55.762 175.378 58.7183V69.5017H168.691V48.5211H175.378V52.0636Z" fill="white"/>
<path d="M202.339 50.5835L200.058 54.942C197.546 53.5807 195.225 52.8386 193.486 52.8386C192.289 52.8386 191.438 53.306 191.438 54.2778C191.438 57.1602 202.416 55.7579 202.38 63.0768C202.38 67.3984 198.629 69.7724 193.604 69.7724C190.123 69.7724 186.763 68.7596 184.251 66.812L186.377 62.5314C188.734 64.2043 191.442 65.1391 193.759 65.1391C195.074 65.1391 196.039 64.6717 196.039 63.7C196.039 60.6248 185.253 62.2198 185.293 54.8641C185.293 50.5425 188.93 48.2095 193.759 48.2095C196.772 48.2095 199.79 49.0623 202.339 50.5835Z" fill="white"/>
<path d="M211.985 50.5225L304.689 51.8837L211.985 53.2409V50.5225Z" fill="#8C6E1F"/>
<path d="M211.985 58.6816L304.689 60.0388L211.985 61.4001V58.6816Z" fill="#8C6E1F"/>
<path d="M211.985 66.8374L304.689 68.1946L211.985 69.5558V66.8374Z" fill="#8C6E1F"/>
</svg>
