<svg width="249" height="190" viewBox="0 0 249 190" fill="none" xmlns="http://www.w3.org/2000/svg">
<path opacity="0.05" fill-rule="evenodd" clip-rule="evenodd" d="M2.55055 59.9586C4.24644 65.2243 7.18732 70.0489 11.279 74.4121C15.5658 78.9721 21.1986 82.5007 28.184 85.0522C35.1762 87.5832 44.1537 88.8657 55.2173 88.8657H70.2315C68.4414 107.499 61.8597 123.357 50.473 136.467C39.1065 149.537 23.3455 161.039 3.19667 170.905L15.4177 190C41.9463 178.607 64.6457 161.941 83.5024 139.928C102.352 117.895 111.74 96.0654 111.74 74.4121C111.74 51.1507 106.296 32.9039 95.3199 19.7328C84.3437 6.56177 68.6231 0 48.1849 0C35.2167 0 23.951 4.3632 14.3678 13.0828C4.79816 21.7889 0 31.9878 0 43.6186C0 49.2303 0.841202 54.6929 2.55055 59.9586ZM139.81 59.9586C141.519 65.2243 144.454 70.0489 148.552 74.4121C152.825 78.9721 158.465 82.5007 165.457 85.0522C172.436 87.5832 181.413 88.8657 192.484 88.8657H207.504C205.708 107.499 199.133 123.357 187.753 136.467C176.379 149.537 160.605 161.039 140.47 170.905L152.684 190C179.219 178.607 201.905 161.941 220.769 139.928C239.619 117.895 249 96.0654 249 74.4121C249 51.1507 243.569 32.9039 232.586 19.7328C221.623 6.56177 205.903 0 185.451 0C172.49 0 161.211 4.3632 151.628 13.0828C142.058 21.7889 137.266 31.9878 137.266 43.6186C137.266 49.2303 138.121 54.6929 139.81 59.9586Z" fill="#0969BD"/>
</svg>
