<svg xmlns="http://www.w3.org/2000/svg" width="20" height="20" viewBox="0 0 20 20">
    <g fill="none" fill-rule="nonzero">
        <path fill="#83D9FF" d="M0 10C0 4.477 4.477 0 10 0s10 4.477 10 10-4.477 10-10 10S0 15.523 0 10zm10 5.98a5.98 5.98 0 1 0 0-11.96 5.98 5.98 0 0 0 0 11.96z"/>
        <path fill="#3FEFEF" d="M10 20v-4.02c.763 0 1.493-.143 2.164-.404l1.376 3.78A9.977 9.977 0 0 1 10 20z"/>
        <path fill="#1DD1D9" d="M12.164 15.576a5.984 5.984 0 0 0 1.86-1.152l2.585 3.081a10.001 10.001 0 0 1-3.07 1.85l-1.375-3.779z"/>
        <path fill="#17B5BA" d="M14.023 14.424a6.008 6.008 0 0 0 1.31-1.716l3.485 2.012a10.036 10.036 0 0 1-2.21 2.785l-2.585-3.08z"/>
        <path fill="#9BE058" d="M15.816 8.604l3.964-.699a10.008 10.008 0 0 1 .126 3.47l-3.964-.698a6.088 6.088 0 0 0-.126-2.073z"/>
        <path fill="#C0FF66" d="M15.012 6.736l3.485-2.012c.599.963 1.039 2.036 1.283 3.181l-3.964.699a5.951 5.951 0 0 0-.804-1.868z"/>
        <path fill="#FFDF46" d="M13.658 5.27l2.586-3.082c.887.71 1.65 1.568 2.253 2.536l-3.485 2.012a6.02 6.02 0 0 0-1.354-1.466z"/>
        <path fill="#FC3E81" d="M6.699.558A9.975 9.975 0 0 1 10 0v4.02c-.674 0-1.322.112-1.926.317L6.699.558z"/>
        <path fill="#F01054" d="M3.756 2.188A9.98 9.98 0 0 1 6.698.558l1.376 3.78a5.955 5.955 0 0 0-1.732.932L3.756 2.188z"/>
        <path fill="#7884EA" d="M1.503 4.724a10.056 10.056 0 0 1 2.253-2.536L6.342 5.27c-.529.409-.987.905-1.354 1.466L1.503 4.724z"/>
        <path fill="#1685FB" d="M.094 11.376l3.964-.699c.082.724.292 1.41.609 2.031L1.182 14.72a9.925 9.925 0 0 1-1.088-3.344z"/>
        <path fill="#43A3F9" d="M1.182 14.72l3.485-2.012c.33.65.776 1.23 1.31 1.716L3.39 17.505a10.041 10.041 0 0 1-2.209-2.785z"/>
        <path fill="#64BDFF" d="M3.391 17.505l2.586-3.08a5.98 5.98 0 0 0 1.859 1.151l-1.376 3.78a10.002 10.002 0 0 1-3.069-1.851z"/>
        <path fill="#4A5BE5" d="M.22 7.905a9.939 9.939 0 0 1 1.283-3.181l3.485 2.012a5.951 5.951 0 0 0-.804 1.868L.22 7.905z"/>
        <path fill="#1CC939" d="M15.333 12.708a5.95 5.95 0 0 0 .61-2.03l3.963.698a9.925 9.925 0 0 1-1.088 3.344l-3.485-2.012z"/>
        <path fill="#364EC6" d="M0 10c0-.719.076-1.42.22-2.095l3.964.699a5.995 5.995 0 0 0-.126 2.073l-3.964.699C.032 10.926 0 10.466 0 10z"/>
        <path fill="#F9B200" d="M11.926 4.337L13.302.558a9.976 9.976 0 0 1 2.942 1.63L13.658 5.27a5.96 5.96 0 0 0-1.732-.933z"/>
        <path fill="#FD6096" d="M10 4.02V0c1.157 0 2.268.196 3.302.558l-1.376 3.78A5.972 5.972 0 0 0 10 4.02z"/>
    </g>
</svg>
