<svg xmlns="http://www.w3.org/2000/svg" width="106" height="130" viewBox="0 0 106 130"><defs><mask id="alyrc" width="2" height="2" x="-1" y="-1"><path fill="#fff" d="M36 21h35v84H36z"/><path d="M53 18h1v90h-1z"/></mask><filter id="alyrb" width="203" height="254" x="-48" y="-63" filterUnits="userSpaceOnUse"><feOffset dy="2" in="SourceGraphic" result="FeOffset1065Out"/><feGaussianBlur in="FeOffset1065Out" result="FeGaussianBlur1066Out" stdDeviation="29.6 29.6"/></filter><filter id="alyra" width="164%" height="148%" x="-22%" y="-14%" filterUnits="objectBoundingBox"><feGaussianBlur in="SourceGraphic" result="FeGaussianBlur1069Out" stdDeviation="2 2"/></filter><mask id="alyrf" width="2" height="2" x="-1" y="-1"><path fill="#fff" d="M11 46h84v35H11z"/><path d="M53.085 17.97h.29v90h-.29z"/></mask><filter id="alyre" width="252" height="205" x="-73" y="-38" filterUnits="userSpaceOnUse"><feOffset dy="2" in="SourceGraphic" result="FeOffset1089Out"/><feGaussianBlur in="FeOffset1089Out" result="FeGaussianBlur1090Out" stdDeviation="29.6 29.6"/></filter><filter id="alyrd" width="148%" height="164%" x="-14%" y="-22%" filterUnits="objectBoundingBox"><feGaussianBlur in="SourceGraphic" result="FeGaussianBlur1093Out" stdDeviation="2 2"/></filter></defs><g><g clip-path="url(#clip-9F7D605D-4C63-482D-B639-F2517FB20E76)" filter="url(#alyra)" opacity=".1" transform="rotate(22 53.5 63)"><g filter="url(#alyrb)"><path fill="none" d="M53 18h1v90h-1z" mask="url(&quot;#alyrc&quot;)"/><path fill="#ff4e74" d="M53 18h1v90h-1z"/></g><path fill="none" stroke="#fff" stroke-miterlimit="50" stroke-width="5" d="M53 18v0h1v90h-1v0z"/></g><g transform="rotate(22 53 63.5)"><g><g opacity=".28"><g filter="url(#alyrd)" opacity=".06" transform="rotate(90 53 63.5)"><g filter="url(#alyre)"><path fill="none" d="M53.085 17.97h.29v90h-.29z" mask="url(&quot;#alyrf&quot;)"/><path fill="#ff4e74" d="M53.085 17.97h.29v90h-.29z"/></g><path fill="none" stroke="#fff" stroke-miterlimit="50" stroke-width="5" d="M53.085 17.97v0h.29v90h-.29v0z"/></g></g></g></g></g></svg>