<svg width="41" height="40" viewBox="0 0 41 40" fill="none" xmlns="http://www.w3.org/2000/svg">
<path d="M20.5 12C16.1 12 12.5 15.6 12.5 20C12.5 24.4 16.1 28 20.5 28C24.9 28 28.5 24.4 28.5 20C28.5 15.6 24.9 12 20.5 12ZM20.5 24C18.3 24 16.5 22.2 16.5 20C16.5 17.8 18.3 16 20.5 16C22.7 16 24.5 17.8 24.5 20C24.5 22.2 22.7 24 20.5 24Z" fill="#F0F0F0"/>
<path d="M40.5 23.4V16.6L35.7 15C35.5 14.2 35.1 13.6 34.9 12.8L37.1 8.2L32.3 3.4L27.7 5.6C27.1 5.2 26.3 5 25.5 4.8L23.9 0H17.1L15.5 4.8C14.7 5 14.1 5.4 13.3 5.8L8.7 3.4L3.9 8.2L6.1 12.8C5.9 13.6 5.5 14.2 5.3 15L0.5 16.6V23.4L5.3 25C5.5 25.8 5.9 26.4 6.1 27.2L3.9 31.8L8.7 36.6L13.3 34.4C13.9 34.8 14.7 35 15.5 35.2L17.1 40H23.9L25.5 35.2C26.3 35 26.9 34.6 27.7 34.4L32.3 36.6L37.1 31.8L34.9 27.2C35.3 26.6 35.5 25.8 35.7 25L40.5 23.4ZM32.3 22L32.1 23C31.9 24 31.3 25.2 30.9 26.2L30.3 27.2L32.3 31L31.5 31.8L27.7 29.8L26.5 30.4C25.5 31 24.5 31.4 23.3 31.6L22.5 31.8L21.1 36H19.9L18.5 31.8L17.5 31.6C16.5 31.4 15.3 30.8 14.5 30.4L13.5 29.8L9.7 31.8L8.9 31L10.9 27.2L10.1 26C9.5 25 9.1 24 8.9 22.8L8.7 22L4.5 20.6V19.4L8.7 18L8.9 17C9.1 16 9.7 14.8 10.1 14L10.7 13L8.7 9.2L9.5 8.4L13.3 10.4L14.5 9.6C15.5 9 16.5 8.6 17.7 8.4L18.5 8.2L19.9 4H21.1L22.5 8.2L23.5 8.4C24.5 8.6 25.7 9.2 26.5 9.6L27.5 10.2L31.3 8.2L32.1 9L30.1 12.8L30.9 14C31.5 15 31.9 16 32.1 17.2L32.3 18L36.5 19.4V20.6L32.3 22Z" fill="#F0F0F0"/>
</svg>
