<svg width="148" height="39" viewBox="0 0 148 39" fill="none" xmlns="http://www.w3.org/2000/svg">
<path d="M94.6117 8.84375H93.2971C86.5249 21.6711 88.198 29.8376 89.9906 34.4188L91.863 38.6813H102.021L94.6117 8.84375Z" fill="white"/>
<path d="M67.9212 28.5628L59.436 38.7211H71.2277L74.4943 34.4586H87.0428C83.0989 23.3442 70.3114 27.4474 67.9212 28.5628Z" fill="white"/>
<path d="M91.1856 8.84375H85.1305L71.0283 25.0971C80.5891 22.7865 87.1223 15.3769 91.1856 8.84375Z" fill="white"/>
<path d="M41.7886 22.4679C39.9562 26.4914 41.2708 30.7141 46.2503 31.5108C51.5486 32.3474 56.09 28.4434 57.6436 25.0573C59.1972 21.6313 58.6395 16.8908 53.3014 16.0144C48.1227 15.2176 43.5016 18.7233 41.7886 22.4679ZM32.0685 24.1012C34.9368 14.5006 45.0154 8.56494 54.138 8.56494C64.3361 8.56494 69.5149 15.616 67.0848 23.7825C64.6548 31.949 55.3331 39.0001 45.0552 39.0001C34.6579 39.0001 29.8377 31.6701 32.1084 24.141L32.0685 24.1012Z" fill="white"/>
<path d="M111.941 8.84375H123.573L119.669 22.5874L135.404 8.84375H147.037L128.393 23.9816L139.826 38.7212H126.322L118.633 26.0133L114.889 38.7212H103.256L111.941 8.84375Z" fill="white"/>
<path d="M20.0776 0.517875C20.0377 0.557712 15.3769 6.45352 14.62 7.05107C12.7477 8.52502 8.28596 8.88355 7.21038 8.76404H7.1307L6.81201 9.68028L6.93152 9.72012C6.97136 9.72012 11.3932 10.716 13.5842 11.9908C15.6159 13.1859 18.4841 16.1736 18.8426 16.6118C19.0418 16.3728 19.2808 16.094 19.5597 15.7753C18.8028 14.7395 16.9703 10.955 17.289 8.68437C17.4085 7.68845 20.1971 0.756894 20.2369 0.677221L20.4759 0L20.0776 0.517875Z" fill="white"/>
<path d="M18.8824 16.5721C18.6035 16.8908 18.3645 17.1298 18.245 17.2494C16.4125 18.6835 12.1899 19.0818 10.9549 18.9623C10.8354 19.3209 10.7159 19.6395 10.6362 19.9184C11.2338 20.0777 15.1776 20.994 17.2093 22.1492C19.4003 23.424 22.5075 26.7703 22.5474 26.8101L22.627 26.8898L23.3441 26.0931L23.3042 26.0134C22.5872 25.0972 20.6352 21.1533 20.9539 18.803C21.0734 17.8071 23.862 10.8755 23.9018 10.7958L24.1408 10.1584L23.7425 10.6763C23.7026 10.7162 21.2726 13.7836 19.6393 15.7356L18.8824 16.5721Z" fill="white"/>
<path d="M10.6364 19.8784C10.5567 20.1573 10.5168 20.3564 10.477 20.4759C10.1583 22.7466 11.9908 26.5311 12.7477 27.5669C12.4688 27.8855 12.2298 28.1644 12.0306 28.4034C11.6323 28.0051 8.80388 24.9775 6.77221 23.7824C4.5812 22.5076 0.159346 21.5117 0.11951 21.5117H0L0.318692 20.5955H0.398365C1.47395 20.7548 5.89581 20.3564 7.80796 18.8825C8.60469 18.2849 13.2257 12.3891 13.2656 12.3493L13.6241 11.9509L13.4648 12.4688C13.4249 12.5086 11.8315 16.572 10.9949 18.9223L10.6364 19.8784Z" fill="white"/>
<path d="M12.0308 28.4035C11.7519 28.7222 11.5129 28.9612 11.3934 29.0807C9.52109 30.5547 5.0594 30.9132 3.98381 30.7937H3.90414L3.58545 31.7099L3.70496 31.7498C3.7448 31.7498 8.16665 32.7457 10.3577 34.0205C12.5487 35.2952 15.6559 38.6415 15.6958 38.6813L15.7754 38.761L16.4925 37.9643L16.4527 37.8846C15.7356 36.9684 13.7836 33.0245 14.1023 30.6742C14.2218 29.6783 17.0104 22.7467 17.0502 22.667L17.2095 22.1492L16.851 22.5475C16.8112 22.5874 14.3812 25.6548 12.7479 27.6068L12.0308 28.4035Z" fill="white"/>
</svg>
