<svg width="48" height="48" viewBox="0 0 48 48" fill="none" xmlns="http://www.w3.org/2000/svg">
<path d="M48 7.96875C48 5.64253 46.1075 3.75 43.7812 3.75H28.9613C28.3477 1.58803 26.3559 0 24 0C21.6442 0 19.6523 1.58803 19.0387 3.75H4.21875C1.89253 3.75 0 5.64253 0 7.96875C0 9.83681 1.22091 11.4242 2.90625 11.9774V36.0938C2.90625 36.8704 3.53587 37.5 4.3125 37.5H22.5938V39.8044C20.957 40.3849 19.7812 41.948 19.7812 43.7812C19.7812 46.1075 21.6738 48 24 48C26.3262 48 28.2188 46.1075 28.2188 43.7812C28.2188 41.948 27.043 40.3849 25.4062 39.8044V37.5H43.6875C44.4641 37.5 45.0938 36.8704 45.0938 36.0938V11.9774C46.7792 11.4242 48 9.83681 48 7.96875ZM24 45.1875C23.2246 45.1875 22.5938 44.5567 22.5938 43.7812C22.5938 43.0058 23.2246 42.375 24 42.375C24.7754 42.375 25.4062 43.0058 25.4062 43.7812C25.4062 44.5567 24.7754 45.1875 24 45.1875ZM42.2812 34.6875H5.71875V12.1875H42.2812V34.6875ZM43.7812 9.375H4.21875C3.44334 9.375 2.8125 8.74416 2.8125 7.96875C2.8125 7.19334 3.44334 6.5625 4.21875 6.5625H20.25C21.0266 6.5625 21.6562 5.93288 21.6562 5.15625C21.6562 3.86391 22.7077 2.8125 24 2.8125C25.2923 2.8125 26.3438 3.86391 26.3438 5.15625C26.3438 5.93288 26.9734 6.5625 27.75 6.5625H43.7812C44.5567 6.5625 45.1875 7.19334 45.1875 7.96875C45.1875 8.74416 44.5567 9.375 43.7812 9.375Z" fill="#1D428A"/>
<path d="M9.9375 31.875H15.5625C16.3391 31.875 16.9688 31.2454 16.9688 30.4688V24.8438C16.9688 24.0671 16.3391 23.4375 15.5625 23.4375H9.9375C9.16087 23.4375 8.53125 24.0671 8.53125 24.8438V30.4688C8.53125 31.2454 9.16087 31.875 9.9375 31.875ZM11.3438 26.25H14.1562V29.0625H11.3438V26.25Z" fill="#1D428A"/>
<path d="M21.1875 31.875H26.8125C27.5891 31.875 28.2188 31.2454 28.2188 30.4688V20.1562C28.2188 19.3796 27.5891 18.75 26.8125 18.75H21.1875C20.4109 18.75 19.7812 19.3796 19.7812 20.1562V30.4688C19.7812 31.2454 20.4109 31.875 21.1875 31.875ZM22.5938 21.5625H25.4062V29.0625H22.5938V21.5625Z" fill="#1D428A"/>
<path d="M32.4375 31.875H38.0625C38.8391 31.875 39.4688 31.2454 39.4688 30.4688V16.4062C39.4688 15.6296 38.8391 15 38.0625 15H32.4375C31.6609 15 31.0312 15.6296 31.0312 16.4062V30.4688C31.0312 31.2454 31.6609 31.875 32.4375 31.875ZM33.8438 17.8125H36.6562V29.0625H33.8438V17.8125Z" fill="#1D428A"/>
</svg>
