<svg width="48" height="48" viewBox="0 0 48 48" fill="none" xmlns="http://www.w3.org/2000/svg">
<path d="M42.8438 7.68755H42.5714C43.8009 4.32005 44.127 1.73349 44.1461 1.57477C44.1979 1.14662 44.0502 0.718365 43.7455 0.413022C43.441 0.107678 43.0131 -0.0408222 42.5847 0.00980277C42.1968 0.0557403 33.0187 1.20802 26.5253 7.68755H10.3125V3.4688C10.3125 2.69218 9.68287 2.06255 8.90625 2.06255H5.15625C2.31309 2.06255 0 4.37565 0 7.2188V35.3438C0 38.187 2.31309 40.5001 5.15625 40.5001H37.6875V46.5938C37.6875 47.3704 38.3171 48.0001 39.0938 48.0001H42.8438C45.6869 48.0001 48 45.687 48 42.8438V12.8438C48 10.0006 45.6869 7.68755 42.8438 7.68755ZM40.9821 3.17227C40.5454 5.04408 39.6539 8.02711 37.9553 11.0074L33.1935 11.9597C32.6849 12.0615 32.2736 12.4349 32.1233 12.9312C31.9731 13.4275 32.1082 13.9664 32.4749 14.3331L34.1282 15.9863C31.1694 18.8043 27.57 20.4539 24.7504 21.3947L30.4862 15.6589C31.0354 15.1098 31.0354 14.2194 30.4862 13.6702C29.9372 13.121 29.0467 13.121 28.4975 13.6702L22.7618 19.4058C23.7384 16.4786 25.4786 12.7115 28.4974 9.69268C32.6079 5.58212 38.1082 3.84033 40.9821 3.17227ZM2.8125 7.2188C2.8125 5.92646 3.86391 4.87505 5.15625 4.87505H7.5V30.1876H5.15625C4.31287 30.1876 3.516 30.3911 2.8125 30.7516V7.2188ZM5.15625 37.6876C3.86391 37.6876 2.8125 36.6361 2.8125 35.3438C2.8125 34.0515 3.86391 33.0001 5.15625 33.0001H8.90625C9.68287 33.0001 10.3125 32.3704 10.3125 31.5938V10.5001H24.1267C20.33 15.7163 19.162 21.5505 18.8859 23.2816L15.2392 26.9284C14.69 27.4776 14.69 28.368 15.2392 28.9171C15.5137 29.1917 15.8736 29.3291 16.2335 29.3291C16.5933 29.3291 16.9533 29.1917 17.2278 28.9171L20.8747 25.2704C22.9254 24.9434 30.7345 23.3654 36.4522 17.6478C36.6412 17.4588 36.808 17.2736 36.9695 17.0944C37.0238 17.0341 37.0782 16.9737 37.1332 16.9136C37.6406 16.3584 37.6214 15.5022 37.0896 14.9703L36.3217 14.2023L39.125 13.6417C39.5123 13.5643 39.8493 13.3275 40.0533 12.9892C40.5568 12.1546 41.0003 11.3188 41.3913 10.5001H42.8438C44.1361 10.5001 45.1875 11.5515 45.1875 12.8438V38.2533C44.4837 37.8925 43.6875 37.6876 42.8438 37.6876H39.0938H5.15625ZM42.8438 45.1876H40.5V40.5001H42.8438C44.1361 40.5001 45.1875 41.5515 45.1875 42.8438C45.1875 44.1361 44.1361 45.1876 42.8438 45.1876Z" fill="#1D428A"/>
</svg>
