<svg width="48" height="48" viewBox="0 0 48 48" fill="none" xmlns="http://www.w3.org/2000/svg">
<path d="M46.5938 0.093689H29.625C27.3274 0.093689 25.2838 1.20163 24 2.91106C22.7162 1.20163 20.6726 0.093689 18.375 0.093689H1.40625C0.629625 0.093689 0 0.723314 0 1.49994V40.8749C0 41.6516 0.629625 42.2812 1.40625 42.2812H17.11C17.7635 45.4865 20.6045 47.9062 24 47.9062C27.3955 47.9062 30.2365 45.4865 30.89 42.2812H33.8438V46.4999C33.8438 47.0687 34.1863 47.5814 34.7119 47.7991C35.2373 48.0168 35.8422 47.8965 36.2444 47.4943L38.0625 45.6762L39.8807 47.4943C40.1497 47.7634 40.5094 47.9063 40.8753 47.9063C41.0565 47.9063 41.2392 47.8713 41.4131 47.7992C41.9386 47.5815 42.2812 47.0688 42.2812 46.5V42.2813H46.5938C47.3704 42.2813 48 41.6517 48 40.875V1.50003C48 0.723314 47.3704 0.093689 46.5938 0.093689ZM29.625 2.90619H45.1875V28.2187H29.625C28.0435 28.2187 26.5822 28.7437 25.4062 29.6282V7.12494C25.4062 4.79872 27.2988 2.90619 29.625 2.90619ZM29.625 33.8437C28.0433 33.8437 26.5823 34.369 25.4062 35.2538V35.2499C25.4062 32.9237 27.2988 31.0312 29.625 31.0312H45.1875V33.8437H29.625ZM2.8125 31.0312H18.375C20.7012 31.0312 22.5938 32.9237 22.5938 35.2499V35.2538C21.4177 34.369 19.9567 33.8437 18.375 33.8437H2.8125V31.0312ZM2.8125 2.90619H18.375C20.7012 2.90619 22.5938 4.79872 22.5938 7.12494V29.6282C21.4178 28.7436 19.9565 28.2187 18.375 28.2187H2.8125V2.90619ZM29.625 39.4687C28.8484 39.4687 28.2188 40.0983 28.2188 40.8749C28.2188 43.2012 26.3262 45.0937 24 45.0937C21.6738 45.0937 19.7812 43.2012 19.7812 40.8749C19.7812 40.0983 19.1516 39.4687 18.375 39.4687H2.8125V36.6562H18.375C20.7012 36.6562 22.5938 38.5487 22.5938 40.8749C22.5938 41.6516 23.2234 42.2812 24 42.2812C24.7766 42.2812 25.4062 41.6516 25.4062 40.8749C25.4062 38.5487 27.2988 36.6562 29.625 36.6562H33.8438V39.4687H29.625ZM39.0568 42.6931C38.5077 42.144 37.6173 42.144 37.0681 42.6931L36.6562 43.1051V36.6563H39.4688V43.1051L39.0568 42.6931ZM42.2812 39.4687V36.6562H45.1875V39.4687H42.2812Z" fill="white"/>
<path d="M7.03125 8.53119H18.375C19.1516 8.53119 19.7812 7.90156 19.7812 7.12494C19.7812 6.34831 19.1516 5.71869 18.375 5.71869H7.03125C6.25462 5.71869 5.625 6.34831 5.625 7.12494C5.625 7.90156 6.25462 8.53119 7.03125 8.53119Z" fill="white"/>
<path d="M7.03125 14.1562H18.375C19.1516 14.1562 19.7812 13.5266 19.7812 12.7499C19.7812 11.9733 19.1516 11.3437 18.375 11.3437H7.03125C6.25462 11.3437 5.625 11.9733 5.625 12.7499C5.625 13.5266 6.25462 14.1562 7.03125 14.1562Z" fill="white"/>
<path d="M7.03125 19.7812H18.375C19.1516 19.7812 19.7812 19.1516 19.7812 18.3749C19.7812 17.5983 19.1516 16.9687 18.375 16.9687H7.03125C6.25462 16.9687 5.625 17.5983 5.625 18.3749C5.625 19.1516 6.25462 19.7812 7.03125 19.7812Z" fill="white"/>
<path d="M19.7812 23.9999C19.7812 23.2233 19.1516 22.5937 18.375 22.5937H7.03125C6.25462 22.5937 5.625 23.2233 5.625 23.9999C5.625 24.7766 6.25462 25.4062 7.03125 25.4062H18.375C19.1516 25.4062 19.7812 24.7767 19.7812 23.9999Z" fill="white"/>
<path d="M29.625 8.53119H40.9688C41.7454 8.53119 42.375 7.90156 42.375 7.12494C42.375 6.34831 41.7454 5.71869 40.9688 5.71869H29.625C28.8484 5.71869 28.2188 6.34831 28.2188 7.12494C28.2188 7.90156 28.8484 8.53119 29.625 8.53119Z" fill="white"/>
<path d="M29.625 14.1562H40.9688C41.7454 14.1562 42.375 13.5266 42.375 12.7499C42.375 11.9733 41.7454 11.3437 40.9688 11.3437H29.625C28.8484 11.3437 28.2188 11.9733 28.2188 12.7499C28.2188 13.5266 28.8484 14.1562 29.625 14.1562Z" fill="white"/>
<path d="M29.625 19.7812H40.9688C41.7454 19.7812 42.375 19.1516 42.375 18.3749C42.375 17.5983 41.7454 16.9687 40.9688 16.9687H29.625C28.8484 16.9687 28.2188 17.5983 28.2188 18.3749C28.2188 19.1516 28.8484 19.7812 29.625 19.7812Z" fill="white"/>
<path d="M29.625 25.4062H40.9688C41.7454 25.4062 42.375 24.7766 42.375 23.9999C42.375 23.2233 41.7454 22.5937 40.9688 22.5937H29.625C28.8484 22.5937 28.2188 23.2233 28.2188 23.9999C28.2188 24.7766 28.8484 25.4062 29.625 25.4062Z" fill="white"/>
</svg>
