<svg width="51" height="51" viewBox="0 0 51 51" fill="none" xmlns="http://www.w3.org/2000/svg">
<g clip-path="url(#clip0)">
<path d="M46.9162 32.8718C46.9162 30.4666 45.2024 28.4542 42.9317 27.9914V22.6118C42.9317 22.1217 42.6915 21.6629 42.2886 21.3837C41.8858 21.1045 41.3716 21.0405 40.9129 21.2128L38.0611 22.2822C36.1884 20.3353 33.9121 18.8689 31.4176 17.9687C33.8689 16.1524 35.4609 13.2394 35.4609 9.96115C35.4609 4.46847 30.9924 0 25.4997 0C20.007 0 15.5386 4.46847 15.5386 9.96115C15.5386 13.2394 17.1306 16.1524 19.5818 17.9687C17.0872 18.869 14.811 20.3354 12.9383 22.2822L10.0865 21.2128C9.62773 21.0405 9.11353 21.1045 8.7108 21.3837C8.30797 21.6629 8.06771 22.1217 8.06771 22.6118V27.9914C5.79707 28.4542 4.08325 30.4665 4.08325 32.8718C4.08325 35.2771 5.79707 37.2894 8.06771 37.7522V43.5302C8.06771 44.1531 8.4541 44.7106 9.03723 44.9293L24.9751 50.906C25.3112 51.0313 25.6882 51.0313 26.0243 50.906L41.9621 44.9293C42.5452 44.7106 42.9316 44.1531 42.9316 43.5302V37.7522C45.2024 37.2894 46.9162 35.277 46.9162 32.8718ZM18.5269 9.96115C18.5269 6.11635 21.6549 2.98835 25.4997 2.98835C29.3445 2.98835 32.4725 6.11635 32.4725 9.96115C32.4725 13.806 29.3445 16.934 25.4997 16.934C21.6549 16.934 18.5269 13.806 18.5269 9.96115ZM25.4997 19.9223C29.0004 19.9223 32.3439 21.1875 34.9528 23.4479L25.4997 26.9927L16.0467 23.4479C18.6556 21.1875 21.9992 19.9223 25.4997 19.9223ZM7.0716 32.8718C7.0716 31.7733 7.96531 30.8796 9.06383 30.8796H10.0599V34.864H9.06383C7.96531 34.864 7.0716 33.9703 7.0716 32.8718ZM11.0561 37.8023C12.1913 37.5709 13.0483 36.5647 13.0483 35.3621V30.3815C13.0483 29.1789 12.1913 28.1727 11.0561 27.9413V24.7679L24.0056 29.624V47.3509L11.0561 42.4949V37.8023ZM26.9939 47.3508V29.624L39.9434 24.7679V27.9413C38.8081 28.1727 37.9512 29.1789 37.9512 30.3815V35.3621C37.9512 36.5647 38.8081 37.5709 39.9434 37.8023V42.4948L26.9939 47.3508ZM41.9356 34.864H40.9395V30.8796H41.9356C43.0341 30.8796 43.9279 31.7733 43.9279 32.8718C43.9279 33.9703 43.0342 34.864 41.9356 34.864Z" fill="#1D428A"/>
</g>
<defs>
<clipPath id="clip0">
<rect width="51" height="51" fill="white"/>
</clipPath>
</defs>
</svg>
