<svg width="148" height="39" viewBox="0 0 148 39" fill="none" xmlns="http://www.w3.org/2000/svg">
<path d="M94.6117 8.84375H93.2971C86.5249 21.6711 88.198 29.8376 89.9906 34.4188L91.863 38.6813H102.021L94.6117 8.84375Z" fill="#1D428A"/>
<path d="M67.9212 28.5628L59.436 38.7211H71.2277L74.4943 34.4586H87.0428C83.0989 23.3442 70.3114 27.4474 67.9212 28.5628Z" fill="#5B6770"/>
<path d="M91.1856 8.84375H85.1305L71.0283 25.0971C80.5891 22.7865 87.1223 15.3769 91.1856 8.84375Z" fill="#DA291C"/>
<path d="M41.7886 22.4679C39.9562 26.4914 41.2708 30.7141 46.2503 31.5108C51.5486 32.3474 56.09 28.4434 57.6436 25.0573C59.1972 21.6313 58.6395 16.8908 53.3014 16.0144C48.1227 15.2176 43.5016 18.7233 41.7886 22.4679ZM32.0685 24.1012C34.9368 14.5006 45.0154 8.56494 54.138 8.56494C64.3361 8.56494 69.5149 15.616 67.0848 23.7825C64.6548 31.949 55.3331 39.0001 45.0552 39.0001C34.6579 39.0001 29.8377 31.6701 32.1084 24.141L32.0685 24.1012Z" fill="#5B6770"/>
<path d="M111.941 8.84375H123.573L119.669 22.5874L135.404 8.84375H147.037L128.393 23.9816L139.826 38.7212H126.322L118.633 26.0133L114.889 38.7212H103.256L111.941 8.84375Z" fill="#1D428A"/>
<path d="M20.0776 0.517875C20.0377 0.557712 15.3769 6.45352 14.62 7.05107C12.7477 8.52502 8.28596 8.88355 7.21038 8.76404H7.1307L6.81201 9.68028L6.93152 9.72012C6.97136 9.72012 11.3932 10.716 13.5842 11.9908C15.6159 13.1859 18.4841 16.1736 18.8426 16.6118C19.0418 16.3728 19.2808 16.094 19.5597 15.7753C18.8028 14.7395 16.9703 10.955 17.289 8.68437C17.4085 7.68845 20.1971 0.756894 20.2369 0.677221L20.4759 0L20.0776 0.517875Z" fill="#DA291C"/>
<path d="M18.8824 16.5719C18.6035 16.8906 18.3645 17.1296 18.245 17.2491C16.4125 18.6832 12.1899 19.0816 10.9549 18.9621C10.8354 19.3206 10.7159 19.6393 10.6362 19.9182C11.2338 20.0775 15.1776 20.9937 17.2093 22.149C19.4003 23.4238 22.5075 26.77 22.5474 26.8099L22.627 26.8896L23.3441 26.0928L23.3042 26.0131C22.5872 25.0969 20.6352 21.1531 20.9539 18.8027C21.0734 17.8068 23.862 10.8753 23.9018 10.7956L24.1408 10.1582L23.7425 10.6761C23.7026 10.7159 21.2726 13.7833 19.6393 15.7353L18.8824 16.5719Z" fill="#1D428A"/>
<path d="M10.6364 19.8786C10.5567 20.1575 10.5168 20.3567 10.477 20.4762C10.1583 22.7469 11.9908 26.5313 12.7477 27.5671C12.4688 27.8858 12.2298 28.1646 12.0306 28.4037C11.6323 28.0053 8.80388 24.9777 6.77221 23.7826C4.5812 22.5079 0.159346 21.5119 0.11951 21.5119H0L0.318692 20.5957H0.398365C1.47395 20.755 5.89581 20.3567 7.80796 18.8827C8.60469 18.2852 13.2257 12.3894 13.2656 12.3495L13.6241 11.9512L13.4648 12.469C13.4249 12.5089 11.8315 16.5722 10.9949 18.9226L10.6364 19.8786Z" fill="#5B6770"/>
<path d="M12.0308 28.4033C11.7519 28.722 11.5129 28.961 11.3934 29.0805C9.52109 30.5544 5.0594 30.913 3.98381 30.7935H3.90414L3.58545 31.7097L3.70496 31.7495C3.7448 31.7495 8.16665 32.7454 10.3577 34.0202C12.5487 35.295 15.6559 38.6413 15.6958 38.6811L15.7754 38.7608L16.4925 37.964L16.4527 37.8844C15.7356 36.9681 13.7836 33.0243 14.1023 30.6739C14.2218 29.678 17.0104 22.7465 17.0502 22.6668L17.2095 22.1489L16.851 22.5473C16.8112 22.5871 14.3812 25.6545 12.7479 27.6065L12.0308 28.4033Z" fill="#C1C6C8"/>
</svg>
