<svg width="24" height="22" viewBox="0 0 24 22" fill="none" xmlns="http://www.w3.org/2000/svg">
<path d="M2.79122 0C1.10348 0 0 1.10826 0 2.5649C0 3.98936 1.07061 5.12924 2.72646 5.12924H2.75849C4.47922 5.12924 5.55015 3.98936 5.55015 2.5649C5.51798 1.10826 4.47922 0 2.79122 0Z" fill="white"/>
<path d="M0.291504 7.15588H5.22547V21.9999H0.291504V7.15588Z" fill="white"/>
<path d="M17.3362 6.8075C14.6745 6.8075 12.8897 9.30861 12.8897 9.30861V7.15586H7.95557V22H12.8894V13.7104C12.8894 13.2667 12.9215 12.8236 13.0519 12.5063C13.4086 11.6201 14.2203 10.702 15.5834 10.702C17.3688 10.702 18.0828 12.0633 18.0828 14.0588V22H23.0164V13.4886C23.0164 8.92915 20.5821 6.8075 17.3362 6.8075Z" fill="white"/>
</svg>
