<svg width="22" height="22" viewBox="0 0 22 22" fill="none" xmlns="http://www.w3.org/2000/svg">
<path d="M15.9287 0H6.07107C2.72349 0 0 2.72362 0 6.0712V15.9288C0 19.2765 2.72349 22 6.07107 22H15.9287C19.2765 22 22 19.2764 22 15.9288V6.0712C22.0001 2.72362 19.2765 0 15.9287 0ZM20.0482 15.9288C20.0482 18.2002 18.2002 20.0481 15.9288 20.0481H6.07107C3.79979 20.0482 1.95195 18.2002 1.95195 15.9288V6.0712C1.95195 3.79992 3.79979 1.95195 6.07107 1.95195H15.9287C18.2001 1.95195 20.0481 3.79992 20.0481 6.0712V15.9288H20.0482Z" fill="white"/>
<path d="M10.9999 5.33154C7.87405 5.33154 5.33105 7.87454 5.33105 11.0004C5.33105 14.1261 7.87405 16.669 10.9999 16.669C14.1257 16.669 16.6687 14.1261 16.6687 11.0004C16.6687 7.87454 14.1257 5.33154 10.9999 5.33154ZM10.9999 14.7169C8.95048 14.7169 7.283 13.0497 7.283 11.0003C7.283 8.95071 8.95035 7.28336 10.9999 7.28336C13.0494 7.28336 14.7168 8.95071 14.7168 11.0003C14.7168 13.0497 13.0493 14.7169 10.9999 14.7169Z" fill="white"/>
<path d="M16.906 3.67627C16.53 3.67627 16.1605 3.82852 15.8949 4.09529C15.628 4.36075 15.4746 4.73032 15.4746 5.1077C15.4746 5.4839 15.6282 5.85334 15.8949 6.12011C16.1604 6.38557 16.53 6.53912 16.906 6.53912C17.2834 6.53912 17.6517 6.38557 17.9184 6.12011C18.1852 5.85334 18.3375 5.48377 18.3375 5.1077C18.3375 4.73032 18.1852 4.36075 17.9184 4.09529C17.653 3.82852 17.2834 3.67627 16.906 3.67627Z" fill="white"/>
</svg>
