<svg width="168" height="48" viewBox="0 0 168 48" fill="none" xmlns="http://www.w3.org/2000/svg">
<path fill-rule="evenodd" clip-rule="evenodd" d="M113.735 0.0109445C113.72 0.0255369 113.72 27.7606 113.735 28.032L113.746 28.2376H114.69H115.635V28.1023V27.967H115.778H115.922V13.9944V0.0218L115.706 0.0107924C115.422 -0.00368167 113.749 -0.00356333 113.735 0.0109445ZM121.683 0.49268C121.677 0.605733 121.672 1.28294 121.672 1.99758V3.29691H122.771H123.87V1.92728V0.557661H123.726H123.583V0.42239V0.287118H122.638H121.694L121.683 0.49268ZM21.1044 14.2532V27.9487L21.2355 27.9537L21.3665 27.9586L21.3714 28.0981L21.3764 28.2376H22.322H23.2676L23.2725 28.0981L23.2774 27.9586L23.4169 27.9537L23.5565 27.9488V21.1098V14.2708H23.6917H23.827V13.9268C23.827 13.7376 23.832 13.4903 23.8381 13.3773L23.8491 13.1717H23.9713H24.0935L24.1058 12.8927L24.1181 12.6137H24.2412H24.3643L24.3766 12.3439L24.3889 12.074L24.518 12.0691L24.6472 12.0642L24.6518 11.7894L24.6565 11.5147H24.7913H24.9262V11.3794V11.2441H25.0608H25.1954L25.2003 11.1046L25.2052 10.9651L25.3356 10.9602L25.4659 10.9553L25.4709 10.8249L25.4758 10.6946L25.6062 10.6896L25.7365 10.6847L25.7415 10.5544L25.7464 10.424L25.8859 10.4191L26.0254 10.4142V10.2796V10.145H26.1607H26.296V10.0098V9.87448H26.5665H26.8371V9.73921V9.60394H27.1161H27.3952V9.46867V9.3334L27.6615 9.33336C27.808 9.33335 28.1162 9.32833 28.3464 9.3222L28.7649 9.31108V9.18697V9.06286H29.7288H30.6927V9.18766V9.31245L31.2332 9.32493L31.7736 9.33741L31.7785 9.46644L31.7835 9.59549L32.0583 9.60014L32.333 9.60479V9.73964V9.87448H32.6036H32.8742V10.0091V10.1437L33.0137 10.1486L33.1532 10.1535L33.1581 10.2825L33.163 10.4115L33.4238 10.4238L33.6845 10.436L33.6894 10.5653L33.6944 10.6946L33.8339 10.6995L33.9734 10.7044V10.9742V11.2441H34.1087H34.2439V11.3794V11.5147H34.3772H34.5104L34.5227 11.7936L34.535 12.0726H34.6581H34.7812L34.7935 12.3425L34.8058 12.6124L34.9349 12.6173L35.0641 12.6222L35.0686 13.0322L35.0732 13.4423H35.2082H35.3431V13.9834V14.5244H35.4756H35.6081L35.6194 16.3887C35.6255 17.414 35.6306 20.4344 35.6306 23.1008L35.6306 27.9487L35.7617 27.9537L35.8927 27.9586L35.8976 28.0981L35.9026 28.2376H36.8482H37.7938L37.7987 28.0981L37.8036 27.9586L37.9431 27.9537L38.0826 27.9488V22.2089V16.469H37.9474H37.8121V15.2262V13.9834H37.6768H37.5415V13.6394C37.5415 13.4502 37.5365 13.2029 37.5304 13.0898L37.5194 12.8843H37.3978H37.2761L37.2651 12.6787C37.259 12.5657 37.254 12.3792 37.254 12.2644V12.0557H37.1298H37.0055L36.9946 11.8655C36.9886 11.7609 36.9836 11.5783 36.9835 11.4597L36.9835 11.2441H36.8482H36.7129V10.9736V10.703H36.5798H36.4467L36.4344 10.4325L36.4221 10.1619H36.2976H36.1731L36.1682 10.0224L36.1633 9.88294L36.0238 9.87804L35.8843 9.87311V9.73925V9.60536L35.7532 9.60042L35.6222 9.59549L35.6175 9.32917L35.6128 9.06286H35.478H35.3431V8.92951V8.79617L35.0726 8.78386L34.802 8.77155V8.6382V8.50486H34.6667H34.5314V8.36959V8.23432H34.3877H34.2439V8.10097V7.96763L33.9741 7.95535L33.7042 7.94308L33.6993 7.81393L33.6944 7.68478L33.4196 7.68013L33.1448 7.67548V7.54063V7.40578H32.7389H32.333V7.27051V7.13524H31.775H31.2169V6.99996V6.86469H29.8556H28.4943V6.99996V7.13524H27.9448H27.3952V7.2702V7.40517L26.9851 7.4097L26.575 7.41423L26.5701 7.54528L26.5651 7.67632H26.2953H26.0254V7.80967V7.94301L25.7555 7.95529L25.4856 7.96756L25.4807 8.09671L25.4758 8.22586L25.3363 8.23077L25.1968 8.23569V8.37026V8.50486H24.9262H24.6556V8.64013V8.7754H24.521H24.3864L24.3815 8.9149L24.3766 9.0544L24.2463 9.05932L24.1159 9.06426L24.111 9.19459L24.106 9.32494L23.9665 9.32985L23.827 9.33477V9.46935V9.60394H23.6917H23.5565V9.87448V10.145H23.4212H23.2859V5.35134V0.557661H22.1951H21.1044V14.2532ZM7.11936 6.99996V7.13524H6.70505H6.29074V7.2702V7.40517L5.88066 7.4097L5.47058 7.41423L5.46567 7.54338L5.46077 7.67253L5.19087 7.68481L4.92098 7.69709V7.82005V7.94301L4.65041 7.95532L4.37984 7.96763V8.10097V8.23432H4.2361H4.09236V8.36959V8.50486H3.82247H3.55259L3.54767 8.64436L3.54277 8.78386L3.41171 8.7888L3.28065 8.79373V8.92829V9.06286H3.14608H3.01151L3.00657 9.1939L3.00163 9.32494L2.87127 9.32986L2.74092 9.3348L2.73598 9.46514L2.73106 9.59549L2.6019 9.60039L2.47273 9.60529L2.46046 9.87516L2.44818 10.145H2.31552H2.18284L2.17791 10.2845L2.17301 10.424L2.04385 10.4289L1.91468 10.4338L1.90241 10.7037L1.89013 10.9736H1.76592H1.6417L1.63678 11.1131L1.63187 11.2526L1.50337 11.2574L1.37485 11.2624L1.36392 11.4519C1.35792 11.5562 1.35297 11.7347 1.35293 11.8486L1.35285 12.0557H1.21756H1.08228V12.3347V12.6137H0.946993H0.811708V13.028V13.4423H0.676424H0.541139L0.541071 13.7762C0.541037 13.9599 0.536049 14.2072 0.530012 14.3258L0.519003 14.5414H0.3975H0.275981L0.26482 14.9499C0.258681 15.1746 0.253659 15.6083 0.253659 15.9137V16.469H0.126829H0V17.6864V18.9039H0.126829H0.253659V19.4591C0.253659 19.7645 0.258681 20.1982 0.26482 20.4229L0.275981 20.8315H0.3975H0.519003L0.530012 21.0471C0.536049 21.1656 0.541037 21.4126 0.541071 21.5959L0.541139 21.9291L0.672196 21.9341L0.803253 21.939L0.807785 22.349L0.812317 22.7591H0.947297H1.08228V23.1649V23.5707H1.21552H1.34874L1.36105 23.8497L1.37336 24.1287H1.49647H1.61956L1.63187 24.3993L1.64418 24.6698H1.77754H1.9109V24.8135V24.9573H2.04618H2.18147V25.2278V25.4983H2.31675H2.45204V25.6336V25.7689H2.58732H2.72261V25.9042V26.0394H2.85721H2.9918L2.99673 26.1789L3.00163 26.3184L3.14114 26.3233L3.28065 26.3282V26.4628V26.5974H3.41594H3.55122V26.7327V26.868H3.68651H3.82179V27.0011V27.1342L4.09236 27.1464L4.36293 27.1587V27.2832V27.4077L4.50244 27.4126L4.64196 27.4175L4.64686 27.5467L4.65176 27.6758L4.92098 27.688L5.1902 27.7003L5.1951 27.8294L5.20001 27.9586L5.4748 27.9632L5.7496 27.9679V28.1027V28.2376H6.29074H6.83188V28.3727V28.5078L7.52099 28.5122L8.21009 28.5166L8.21503 28.6476L8.21997 28.7787H9.30928H10.3986L10.4035 28.6476L10.4085 28.5166L11.0891 28.5122L11.7698 28.5077V28.3727V28.2376H12.1841H12.5984V28.1023V27.967H12.7987C12.9088 27.967 13.0915 27.9621 13.2045 27.956L13.4101 27.9449V27.8229V27.7008L13.68 27.6886L13.9499 27.6764L13.9548 27.5469L13.9597 27.4175L14.0992 27.4126L14.2387 27.4077V27.2731V27.1385H14.5093H14.7799V27.0032V26.868H14.9151H15.0504V26.7327V26.5974H15.1942H15.3379V26.4537V26.31H15.4732H15.6085V26.1747V26.0394H15.7438H15.879V25.9042V25.7689H16.0137H16.1482L16.1532 25.6294L16.1581 25.4899L16.2874 25.485L16.4167 25.4801L16.4289 25.2193L16.4411 24.9586L16.5702 24.9537L16.6992 24.9488L16.7041 24.8093L16.709 24.6698H16.8436H16.9782V24.3993V24.1287H17.1131H17.248L17.2526 23.8539L17.2573 23.5792L17.3883 23.5742L17.5194 23.5693V23.4347V23.3002H17.3841H17.2488V23.1649V23.0296H16.8429H16.4371V22.8944V22.7591H16.2284C16.1136 22.7591 15.9271 22.7541 15.8141 22.748L15.6085 22.737V22.6128V22.4885H15.4732H15.3379V22.6238V22.7591H15.2045H15.0712L15.0589 23.029L15.0466 23.2988L14.9175 23.3037L14.7883 23.3086L14.7837 23.5742L14.779 23.8399L14.6484 23.8448L14.5177 23.8497L14.5128 23.9892L14.5079 24.1287H14.3733H14.2387V24.264V24.3993H14.1034H13.9681V24.5345V24.6698H13.8335H13.6989L13.694 24.8093L13.6891 24.9488L13.5496 24.9537L13.4101 24.9586V25.0932V25.2278H13.2748H13.1395V25.3631V25.4983H12.869H12.5984V25.6336V25.7689H12.3278H12.0573V25.9042V26.0394H11.8485C11.7337 26.0394 11.5473 26.0444 11.4342 26.0505L11.2286 26.0615V26.1831V26.3047L11.013 26.3158C10.7313 26.3301 8.05478 26.3301 7.52861 26.3157L7.12068 26.3046L7.11579 26.1762L7.1109 26.0479L6.83611 26.0432L6.56131 26.0386V25.914V25.7894L6.28228 25.7771L6.00326 25.7648V25.632V25.4992L5.73692 25.4945L5.47058 25.4899L5.46564 25.3588L5.4607 25.2278H5.32613H5.19155V25.0925V24.9573H5.05627H4.92098V24.8135V24.6698H4.7857H4.65041V24.5345V24.3993H4.51513H4.37984V24.264V24.1287H4.24649H4.11313L4.10082 23.8582L4.08851 23.5876H3.95515H3.82179V23.4439V23.3002H3.68651H3.55122V23.0296V22.7591H3.41594H3.28065V22.5504C3.28065 22.4356 3.27568 22.2492 3.26959 22.1361L3.25855 21.9306H3.13691H3.01528L3.00423 21.725C2.99815 21.6119 2.99317 21.4293 2.99317 21.3192V21.1189H2.86895H2.74471L2.73366 20.9134C2.72758 20.8003 2.72261 20.4921 2.72261 20.2286V19.7493H2.59838H2.47414L2.4631 19.5437C2.45701 19.4307 2.45204 18.5633 2.45204 17.6161V15.8941H2.58732H2.72261L2.72269 15.2727C2.72272 14.9309 2.7277 14.5657 2.73372 14.461L2.74469 14.2708H2.86631H2.98795L2.99896 14.0552C3.00499 13.9366 3.00998 13.7505 3.01002 13.6417L3.01009 13.4437L3.14114 13.4388L3.2722 13.4338L3.27685 13.159L3.2815 12.8843H3.40598H3.53046L3.54277 12.6137L3.55508 12.3432H3.68801H3.82095L3.8256 12.0684L3.83025 11.7936L3.96131 11.7887L4.09236 11.7838V11.6492V11.5147H4.22572H4.35908L4.37139 11.2441L4.3837 10.9736H4.51706H4.65041V10.8383V10.703H4.7857H4.92098V10.5684V10.4338L5.06049 10.4289L5.20001 10.424L5.20491 10.2947L5.20981 10.1654L5.47058 10.1532L5.73134 10.141L5.73624 10.012L5.74115 9.88294L6.01594 9.87829L6.29074 9.87364V9.74095V9.60827L6.56131 9.59601L6.83188 9.58375V9.45858V9.3334H7.04061C7.15541 9.3334 7.34185 9.32843 7.45492 9.32234L7.6605 9.3113V9.18982V9.06833L8.28196 9.05717C9.07169 9.04297 9.70323 9.04295 10.2535 9.05711L10.6875 9.06828V9.1905V9.31274L11.2286 9.32521L11.7698 9.33768V9.47082V9.60394H12.0488H12.3278V9.73921V9.87448H12.5984H12.869V10.0091V10.1437L13.0085 10.1486L13.148 10.1535L13.1529 10.2828L13.1578 10.4121L13.4186 10.4243L13.6793 10.4365L13.6842 10.5655L13.6891 10.6946L13.8286 10.6995L13.9681 10.7044V10.839V10.9736H14.1034H14.2387V11.1173V11.261H14.374H14.5093V11.5231V11.7852H14.6446H14.7799V11.9289V12.0726H14.9132H15.0466L15.0589 12.3432L15.0712 12.6137H15.1942H15.3171L15.3295 12.8843L15.3418 13.1548H15.4751H15.6085V13.0298V12.9048L15.8875 12.8925L16.1665 12.8802V12.758V12.6358L16.3568 12.6248C16.4614 12.6188 16.644 12.6139 16.7626 12.6138L16.9782 12.6137V12.4785V12.3432H17.2488H17.5194V12.2079V12.0726H17.3951H17.2709L17.2599 11.8671C17.2538 11.754 17.2488 11.5676 17.2488 11.4528V11.2441H17.1135H16.9782V10.9736V10.703H16.8429H16.7077V10.5593V10.4156H16.5744H16.4412L16.4289 10.1542L16.4167 9.89275L16.2874 9.88784L16.1581 9.88294L16.1532 9.74344L16.1482 9.60394H16.0137H15.879V9.46867V9.3334H15.7438H15.6085V9.19813V9.06286H15.4732H15.3379V8.91913V8.7754H15.1942H15.0504V8.64013V8.50486H14.7799H14.5093V8.36959V8.23432H14.374H14.2387V8.10121V7.9681L13.9681 7.95584L13.6976 7.94359V7.8202V7.69683L13.4186 7.68452L13.1395 7.67221V7.55005V7.42788L12.9339 7.41684C12.8209 7.41075 12.6382 7.40578 12.5281 7.40578H12.3278V7.27051V7.13524H11.7782H11.2286V6.99996V6.86469H9.174H7.11936V6.99996ZM78.9217 6.99996V7.13524H78.3806H77.8394V7.27051V7.40578H77.5604H77.2814V7.54063V7.67548L77.0066 7.68013L76.7318 7.68478L76.7269 7.81393L76.722 7.94308L76.4521 7.95535L76.1822 7.96763V8.10097V8.23432H76.0385H75.8947V8.36959V8.50486H75.6333H75.3719L75.367 8.64436L75.362 8.78386L75.2225 8.78876L75.083 8.79368V8.92826V9.06286H74.9477H74.8125V9.19813V9.3334H74.6772H74.5419V9.60327V9.87311L74.4024 9.87804L74.2629 9.88294L74.2582 10.1485L74.2536 10.4142L74.1229 10.4191L73.9923 10.424L73.9878 10.8341L73.9832 11.2441H73.8482H73.7133V12.6137V13.9834H73.8485H73.9838L73.9839 14.1989C73.9839 14.3175 73.9889 14.5001 73.9949 14.6048L74.0059 14.795H74.1302H74.2544V14.9387V15.0824H74.389H74.5236L74.5285 15.2219L74.5334 15.3614L74.6729 15.3663L74.8125 15.3713V15.5058V15.6404H74.9477H75.083V15.7757V15.911H75.2183H75.3536V16.0462V16.1815H75.4973H75.6411V16.3168V16.4521H75.9116H76.1822V16.5873V16.7226H76.4528H76.7233V16.8558V16.989L77.0024 17.0013L77.2814 17.0137V17.1361V17.2585L77.4716 17.2695C77.5763 17.2755 77.7589 17.2805 77.8775 17.2805L78.0931 17.2806V17.4159V17.5511H78.5074H78.9217V17.6861V17.8211L79.3318 17.8256L79.7419 17.8301L79.7468 17.9612L79.7518 18.0922H79.9513C80.0611 18.0922 80.2434 18.0972 80.3565 18.1033L80.5621 18.1143V18.2365V18.3586L81.1116 18.3711L81.6612 18.3836V18.5169V18.6502H82.0755H82.4899V18.7855V18.9208H82.8957H83.3016V19.0557V19.1907L83.7116 19.1952L84.1217 19.1998L84.1267 19.3304L84.1316 19.461L84.4057 19.4657L84.6798 19.4703L84.6847 19.5995L84.6896 19.7286L84.9595 19.7409L85.2294 19.7532V19.8761V19.9991L85.4999 20.0114L85.7705 20.0237V20.157V20.2904H85.9143H86.058V20.4257V20.5609H86.1933H86.3286V20.6962V20.8315H86.4638H86.5991V21.1105V21.3895H86.7344H86.8697V22.4885V23.5876H86.7344H86.5991V23.8582V24.1287H86.466H86.3329L86.3207 24.3986L86.3084 24.6684L86.179 24.6734L86.0495 24.6783L86.0446 24.8178L86.0397 24.9573H85.9051H85.7705V25.0925V25.2278H85.6352H85.4999V25.3631V25.4983H85.3562H85.2125V25.6336V25.7689H84.9419H84.6713V25.9042V26.0394H84.4711C84.3609 26.0394 84.1783 26.0444 84.0652 26.0505L83.8596 26.0615V26.183V26.3046L83.4411 26.3157C82.8988 26.3301 80.1532 26.3301 79.6108 26.3157L79.1923 26.3046V26.183V26.0615L78.9867 26.0505C78.8736 26.0444 78.691 26.0394 78.5809 26.0394H78.3806V25.9042V25.7689H78.1016H77.8225V25.6343V25.4997L77.683 25.4948L77.5435 25.4899L77.5386 25.3588L77.5336 25.2278H77.2722H77.0108V25.0932V24.9586L76.8713 24.9537L76.7318 24.9488L76.7269 24.8093L76.722 24.6698H76.5874H76.4528V24.5345V24.3993H76.3175H76.1822V24.264V24.1287H76.0491H75.916L75.9037 23.8582L75.8915 23.5876H75.7683H75.6452L75.6329 23.3086L75.6206 23.0296H75.4871H75.3536V22.7591V22.4885H74.8132H74.2727L74.2678 22.6196L74.2629 22.7506L73.7175 22.7551L73.1721 22.7596V23.3089V23.8582H73.3074H73.4427V24.264V24.6698H73.578H73.7133V24.8135V24.9573H73.8481H73.983L73.9876 25.2236L73.9923 25.4899L74.1233 25.4948L74.2544 25.4998V25.6343V25.7689H74.389H74.5236L74.5285 25.9084L74.5334 26.0479L74.6729 26.0528L74.8125 26.0577V26.1923V26.3269H74.9477H75.083V26.4621V26.5974H75.2183H75.3536V26.7327V26.868H75.4973H75.6411V27.0032V27.1385H75.7764H75.9116V27.2738V27.409H76.1822H76.4528V27.5425V27.676L76.7318 27.6883L77.0108 27.7006V27.8228V27.9449L77.2164 27.956C77.3295 27.9621 77.5121 27.967 77.6223 27.967H77.8225V28.1023V28.2376H78.3721H78.9217V28.3727V28.5078L79.8814 28.5122L80.8411 28.5166L80.846 28.6476L80.851 28.7787H81.526H82.201L82.2059 28.6476L82.2108 28.5166L83.1705 28.5122L84.1302 28.5078V28.3727V28.2376H84.6713H85.2125V28.1023V27.967H85.4915H85.7705V27.8322V27.6973L86.0453 27.6927L86.3201 27.688L86.325 27.5586L86.3299 27.4292L86.5998 27.4169L86.8697 27.4047V27.2716V27.1385H87.005H87.1403V27.0032V26.868H87.2756H87.4108V26.7327V26.5974H87.5546H87.6983V26.4629V26.3283L87.8294 26.3234L87.9604 26.3184L87.9653 26.1789L87.9703 26.0394H88.1049H88.2395V25.9042V25.7689H88.3747H88.51V25.4983V25.2278H88.6453H88.7806V25.0191C88.7806 24.9043 88.7856 24.7179 88.7917 24.6048L88.8027 24.3993H88.9243H89.046L89.057 24.1937C89.0631 24.0806 89.0681 23.7725 89.0681 23.5089V23.0296H89.1949H89.3217V22.4885V21.9475H89.1949H89.0681V21.4598C89.0681 21.1915 89.0631 20.8795 89.057 20.7665L89.046 20.5609H88.9235H88.8011L88.7888 20.2819L88.7765 20.0029H88.6535H88.5305L88.5182 19.7408L88.5059 19.4788H88.3727H88.2395V19.335V19.1913H88.1042H87.9689V19.056V18.9208H87.8336H87.6983V18.7855V18.6502H87.5546H87.4108V18.5169V18.3835L87.1403 18.3712L86.8697 18.3589V18.2256V18.0922H86.726H86.5822V17.968V17.8438L86.392 17.8328C86.2874 17.8268 86.1047 17.8218 85.9861 17.8218L85.7705 17.8217V17.6864V17.5511H85.4999H85.2294V17.4159V17.2806H85.0207C84.9058 17.2806 84.7194 17.2756 84.6063 17.2695L84.4008 17.2585V17.1369V17.0152L84.1952 17.0042C84.0821 16.9981 83.8998 16.9931 83.79 16.9931H83.5905L83.5855 16.8621L83.5806 16.7311L83.1705 16.7265L82.7604 16.722V16.587V16.4521H82.3461H81.9318V16.3168V16.1815H81.3822H80.8326V16.0465V15.9116L80.4225 15.9071L80.0125 15.9025L80.0076 15.7735L80.0026 15.6444L79.4622 15.632L78.9217 15.6195V15.4862V15.353H78.6427H78.3637V15.2177V15.0824H78.0931H77.8225V14.9472V14.8119H77.552H77.2814V14.6788V14.5457L77.0115 14.5335L76.7416 14.5212L76.7367 14.3918L76.7318 14.2624L76.5923 14.2574L76.4528 14.2525V14.118V13.9834H76.3179H76.1831L76.1784 13.7086L76.1738 13.4338L76.0427 13.4289L75.9116 13.4239V12.4785V11.533L76.0427 11.528L76.1738 11.5231L76.1784 11.2483L76.1831 10.9736H76.3172H76.4514L76.4563 10.8341L76.4612 10.6946L76.5923 10.6896L76.7233 10.6847V10.5501V10.4156H76.8586H76.9939V10.2803V10.145H77.1377H77.2814V10.0098V9.87448H77.4167H77.552V9.73921V9.60394H77.831H78.11V9.46867V9.3334H78.3103C78.4204 9.3334 78.6031 9.32843 78.7161 9.32234L78.9217 9.3113V9.18977V9.06827L79.3403 9.05714C79.8809 9.04277 81.8012 9.04277 82.3419 9.05714L82.7604 9.06827V9.19043V9.31258L83.31 9.32508L83.8596 9.33756V9.47075V9.60394H84.1302H84.4008V9.73705V9.87016L84.6713 9.88241L84.9419 9.89467V10.0199V10.145H85.0856H85.2294V10.2803V10.4156H85.3647H85.4999V10.5593V10.703H85.6352H85.7705V10.8383V10.9736H85.9058H86.0411V11.1088V11.2441H86.1744H86.3078L86.3201 11.514L86.3324 11.7838L86.4615 11.7887L86.5907 11.7936L86.5953 12.0684L86.6 12.3432H86.7348H86.8697V12.7575V13.1717H87.2813C87.5076 13.1717 87.8767 13.1667 88.1014 13.1606L88.51 13.1494V13.0279V12.9064L88.7156 12.8953C88.8287 12.8892 89.0113 12.8843 89.1215 12.8843H89.3217V12.7575V12.6306H89.1949H89.0681V12.2782C89.0681 12.0844 89.0631 11.8333 89.057 11.7202L89.046 11.5147H88.9243H88.8027L88.7917 11.3091C88.7856 11.196 88.7806 11.0134 88.7806 10.9033V10.703H88.6453H88.51V10.4325V10.1619H88.3747H88.2395V10.0182V9.87448H88.1042H87.9689V9.73921V9.60394H87.8343H87.6997L87.6948 9.46444L87.6899 9.32494L87.5595 9.32002L87.4292 9.31509L87.4242 9.18475L87.4193 9.0544L87.2798 9.0495L87.1403 9.04458V8.91V8.7754H87.005H86.8697V8.64013V8.50486H86.7344H86.5991V8.36959V8.23432H86.3286H86.058V8.09905V7.96377H85.9143H85.7705V7.83111V7.69842L85.5649 7.68738C85.4519 7.68129 85.2696 7.67632 85.1598 7.67632H84.9602L84.9553 7.54528L84.9504 7.41423L84.6756 7.40958L84.4008 7.40493V7.27009V7.13524H83.8512H83.3016V6.99996V6.86469H81.1116H78.9217V6.99996ZM98.6564 6.99996V7.13524H98.1152H97.5741V7.2701V7.40497L97.2909 7.4096L97.0076 7.41423L97.0027 7.54486L96.9977 7.67548L96.7321 7.68013L96.4665 7.68478L96.4616 7.81393L96.4567 7.94308L96.1868 7.95535L95.9169 7.96763V8.10097V8.23432H95.7731H95.6294V8.36959V8.50486H95.368H95.1065L95.1016 8.64436L95.0967 8.78386L94.9572 8.78876L94.8177 8.79368V8.92826V9.06286H94.6824H94.5471V9.19813V9.3334H94.4137H94.2804L94.2681 9.60394L94.2558 9.87448H94.1224H93.9891V10.0098V10.145H93.8538H93.7185V10.424V10.703H93.5832H93.4479V10.9736V11.2441H93.3126H93.1774L93.1773 11.4597C93.1772 11.5783 93.1723 11.7609 93.1662 11.8655L93.1553 12.0557H93.031H92.9068V12.47V12.8843H93.2423C93.4269 12.8843 93.6704 12.8892 93.7835 12.8953L93.9891 12.9064V13.028V13.1496L94.1946 13.1607C94.3077 13.1668 94.4941 13.1717 94.609 13.1717H94.8177V13.2985V13.4254H94.9525H95.0874L95.0921 13.159L95.0967 12.8927L95.2278 12.8878L95.3588 12.8829V12.6833C95.3588 12.5736 95.3638 12.3916 95.3698 12.2789L95.3809 12.074L95.5094 12.0691L95.6378 12.0642L95.6425 11.7979L95.6472 11.5316H95.782H95.9169V11.3878V11.2441H96.0522H96.1874V10.9742V10.7044L96.3269 10.6995L96.4665 10.6946L96.4714 10.5642L96.4763 10.4339L96.6067 10.4289L96.737 10.424L96.7419 10.2946L96.7469 10.1652L97.0167 10.1529L97.2866 10.1407V10.0076V9.87448H97.4219H97.5572V9.73921V9.60394L97.7728 9.60386C97.8914 9.60382 98.074 9.59885 98.1787 9.59283L98.3689 9.58186V9.45763V9.3334H98.5776C98.6924 9.3334 98.8789 9.32843 98.9919 9.32234L99.1975 9.3113V9.18977V9.06827L99.6161 9.05714C100.155 9.04282 101.538 9.04282 102.077 9.05714L102.495 9.06827V9.19043V9.31258L103.045 9.32508L103.594 9.33756V9.47075V9.60394H103.865H104.135V9.73921V9.87448H104.406H104.677V10.0091V10.1437L104.816 10.1486L104.956 10.1535L104.96 10.293L104.965 10.4325H105.1H105.235V10.5678V10.703H105.37H105.505V10.9736V11.2441H105.64H105.775L105.78 11.5189L105.784 11.7936L105.913 11.7986L106.042 11.8035L106.055 12.3432L106.067 12.8829L106.196 12.8878L106.325 12.8927L106.33 13.9876L106.334 15.0824H106.199H106.063V15.2177V15.353H105.373C104.993 15.353 104.498 15.358 104.273 15.3641L103.865 15.3753V15.4967V15.618L103.243 15.6292C102.902 15.6354 102.411 15.6404 102.153 15.6404L101.683 15.6404V15.7646V15.8888L101.468 15.8998C101.349 15.9059 100.976 15.9109 100.639 15.9109L100.026 15.911V16.0462V16.1815H99.206H98.3858V16.3168V16.4521H97.8362H97.2866V16.5873V16.7226H96.8723H96.458V16.8579V16.9931H96.2577C96.1476 16.9931 95.9649 16.9981 95.8519 17.0042L95.6463 17.0152V17.1479V17.2806H95.3673H95.0882V17.4159V17.5511H94.8177H94.5471V17.6864V17.8217H94.4118H94.2765V17.9563V18.0909L94.137 18.0958L93.9975 18.1007L93.9926 18.2317L93.9876 18.3628H93.8531H93.7185V18.498V18.6333H93.5832H93.4479V18.777V18.9208H93.3126H93.1774V19.056V19.1913H93.044H92.9106L92.8984 19.4612L92.8861 19.731L92.7569 19.7359L92.6278 19.7408L92.6231 20.0156L92.6185 20.2904H92.4836H92.3487V20.7047V21.1189H92.2134H92.0782V22.4801V23.8413H92.2132H92.3481L92.3527 24.2598L92.3572 24.6783L92.4882 24.6832L92.6193 24.6881V24.8877C92.6193 24.9974 92.6243 25.1797 92.6304 25.2928L92.6414 25.4983H92.7637H92.886L92.8983 25.7689L92.9106 26.0394H93.044H93.1774V26.1747V26.31H93.3126H93.4479V26.4537V26.5974H93.5832H93.7185V26.7327V26.868H93.8538H93.9891V27.0032V27.1385H94.1328H94.2765V27.2738V27.409H94.4118H94.5471V27.5424V27.6757L94.817 27.688L95.0869 27.7003L95.0918 27.8294L95.0967 27.9586L95.3715 27.9632L95.6463 27.9679V28.1027V28.2376H96.0522H96.458V28.3727V28.5078L97.1471 28.5122L97.8362 28.5166L97.8412 28.6476L97.8461 28.7787H98.9277H100.009V28.6545V28.5303L100.225 28.5193C100.343 28.5132 100.716 28.5082 101.053 28.5082L101.666 28.5081V28.3729V28.2376H102.081H102.495V28.1027V27.9679L102.77 27.9632L103.045 27.9586L103.05 27.828L103.055 27.6973L103.32 27.6927L103.586 27.688L103.591 27.5589L103.596 27.4297L103.866 27.4175L104.135 27.4052V27.2718V27.1385H104.279H104.423V27.0032V26.868H104.685H104.947V26.7327V26.5974H105.091H105.235V26.4537V26.31H105.37H105.505V26.1747V26.0394H105.64H105.776V25.9042V25.7689H105.909H106.042L106.055 25.4983L106.067 25.2278H106.2H106.334V25.0834V24.9389L106.465 24.9439L106.596 24.9488L106.6 26.5932L106.605 28.2376H107.559H108.514L108.519 28.0981L108.524 27.9586L108.655 27.9537L108.786 27.9487V21.6593V15.3699H108.659H108.532L108.532 14.7485C108.532 14.4067 108.527 13.6648 108.521 13.0999L108.51 12.0726H108.377H108.245V11.5231V10.9736H108.109H107.974V10.6946V10.4156H107.839H107.704L107.7 10.1493L107.695 9.88294L107.564 9.878L107.433 9.87306V9.7385V9.60394H107.3H107.166L107.154 9.3334L107.142 9.06286H107.008H106.875V8.92826V8.79368L106.735 8.78876L106.596 8.78386L106.591 8.64436L106.586 8.50486H106.325H106.063V8.36959V8.23432H105.919H105.776V8.10097V7.96763L105.505 7.95532L105.235 7.94301V7.80967V7.67632H104.965H104.695L104.69 7.54528L104.685 7.41423L104.41 7.40958L104.135 7.40493V7.27009V7.13524H103.586H103.036V6.99996V6.86469H100.846H98.6564V6.99996ZM134.016 6.99996V7.13524H133.467H132.917V7.27009V7.40493L132.642 7.40958L132.368 7.41423L132.363 7.54528L132.358 7.67632H132.088H131.818V7.80967V7.94301L131.547 7.95532L131.277 7.96763V8.10097V8.23432H131.133H130.989V8.36959V8.50486H130.719H130.448V8.64859V8.79231H130.313H130.178V8.92758V9.06286H130.044H129.911L129.899 9.32427L129.887 9.58568L129.757 9.59058L129.628 9.59549L129.623 9.73499L129.618 9.87448H129.484H129.349V10.145V10.4156H129.214H129.079V10.6243C129.079 10.7391 129.074 10.9255 129.067 11.0385L129.056 11.2441H128.932H128.808V12.613V13.9819L128.939 13.9869L129.07 13.9918L129.075 14.3934L129.079 14.795H129.214H129.349V14.9387V15.0824H129.484H129.618L129.623 15.2219L129.628 15.3614L129.758 15.3664L129.889 15.3713L129.894 15.5016L129.899 15.632L130.029 15.6369L130.159 15.6418L130.164 15.7722L130.169 15.9025L130.309 15.9074L130.448 15.9123V16.0469V16.1815H130.584H130.719V16.3168V16.4521H130.998H131.277V16.5873V16.7226H131.547H131.818V16.8561V16.9895L132.097 17.0019L132.376 17.0142V17.1363V17.2585L132.566 17.2695C132.671 17.2755 132.854 17.2805 132.972 17.2805L133.188 17.2806V17.4159V17.5511H133.594H134V17.6864V17.8217H134.414H134.828V17.957V18.0922H135.037C135.152 18.0922 135.338 18.0972 135.451 18.1033L135.657 18.1143V18.2365V18.3587L136.197 18.3712L136.738 18.3837L136.743 18.5127L136.747 18.6418L137.158 18.6463L137.568 18.6508V18.7858V18.9208H137.982H138.396V19.056V19.1913H138.802H139.208V19.3266V19.4618H139.487H139.766V19.5951V19.7283L140.045 19.7406L140.324 19.7529V19.8763V19.9997L140.595 20.0119L140.865 20.0242V20.1573V20.2904H141.001H141.136V20.4257V20.5609H141.271H141.406V20.6962V20.8315H141.54H141.673L141.685 21.102L141.698 21.3726H141.82H141.942L141.953 21.5881C141.968 21.8682 141.968 23.1168 141.953 23.3821L141.942 23.5876H141.818H141.694L141.694 23.7779C141.694 23.8825 141.689 24.0651 141.683 24.1837L141.672 24.3993H141.539H141.406V24.5345V24.6698H141.271H141.136V24.8135V24.9573H141.001H140.865V25.0925V25.2278H140.73H140.595V25.3631V25.4983H140.451H140.307V25.6336V25.7689H140.037H139.766V25.9042V26.0394L139.567 26.0395C139.458 26.0395 139.272 26.0445 139.153 26.0505L138.937 26.0616V26.183V26.3046L138.529 26.3157C138 26.3302 135.249 26.3301 134.706 26.3157L134.287 26.3046V26.183V26.0615L134.081 26.0505C133.968 26.0444 133.786 26.0394 133.676 26.0394H133.477L133.472 25.9084L133.467 25.7773L133.192 25.7727L132.917 25.768V25.6332V25.4983H132.773H132.63V25.3635V25.2287L132.363 25.224L132.097 25.2193L132.092 25.0883L132.087 24.9573H131.953H131.818V24.8135V24.6698H131.683H131.547V24.5345V24.3993H131.412H131.277V24.264V24.1287H131.144H131.01L130.998 23.8582L130.986 23.5876H130.852H130.719V23.3086V23.0296H130.584H130.448V22.7591V22.4885H129.908H129.367L129.362 22.6196L129.358 22.7506L128.804 22.7551L128.25 22.7595V23.1033C128.25 23.2924 128.255 23.5396 128.261 23.6526L128.272 23.8582H128.394H128.517L128.529 24.1287L128.541 24.3993H128.664H128.787L128.8 24.6783L128.812 24.9573H128.945H129.079V25.2278V25.4983H129.214H129.349V25.6336V25.7689H129.484H129.618L129.623 25.9084L129.628 26.0479L129.758 26.0528L129.889 26.0577L129.894 26.1881L129.899 26.3184L130.029 26.3233L130.159 26.3283L130.164 26.4586L130.169 26.589L130.309 26.5939L130.448 26.5988V26.7334V26.868H130.584H130.719V27.0011V27.1342L130.989 27.1464L131.26 27.1587V27.2832V27.4077L131.4 27.4126L131.539 27.4175L131.544 27.5468L131.549 27.6761L131.827 27.6883L132.106 27.7006V27.8228V27.945L132.296 27.9559C132.4 27.962 132.583 27.9669 132.702 27.967L132.917 27.967V28.1023V28.2376H133.458H134V28.3727V28.5079L134.968 28.5122L135.936 28.5166L135.941 28.6476L135.946 28.7787H136.621H137.296L137.301 28.6476L137.306 28.5166L138.265 28.5122L139.225 28.5078V28.3727V28.2376H139.766H140.307V28.1023V27.967H140.586H140.865V27.8318V27.6965H141.136H141.406V27.5632V27.4298L141.676 27.4175L141.946 27.4053L141.951 27.2761L141.956 27.147L142.095 27.1421L142.235 27.1371V27.0026V26.868H142.37H142.506V26.7327V26.5974H142.641H142.776V26.4628V26.3282L142.916 26.3233L143.055 26.3184L143.06 26.1789L143.065 26.0394H143.2H143.334V25.9042V25.7689H143.459H143.584L143.596 25.4983L143.609 25.2278H143.742H143.875V24.8135V24.3993H144.011H144.146L144.146 24.0653C144.146 23.8816 144.151 23.6343 144.157 23.5158L144.168 23.3002H144.292H144.416V22.4801V21.66H144.292H144.168L144.157 21.4544C144.151 21.3414 144.146 21.0941 144.146 20.9049V20.5609H144.011H143.875V20.2819V20.0029H143.74H143.605V19.7408V19.4788H143.469H143.334V19.335V19.1913H143.199H143.064V19.056V18.9208H142.92H142.776V18.7855V18.6502H142.641H142.506V18.5169V18.3835L142.236 18.3713L141.966 18.359L141.961 18.2298L141.956 18.1007L141.816 18.0958L141.677 18.0909V17.9673V17.8438L141.487 17.8328C141.382 17.8268 141.199 17.8218 141.081 17.8218L140.865 17.8217V17.6868V17.552L140.59 17.5473L140.316 17.5427L140.311 17.4116L140.306 17.2806H140.106C139.996 17.2806 139.814 17.2756 139.701 17.2695L139.495 17.2585V17.1369V17.0152L139.29 17.0042C139.177 16.9981 138.99 16.9931 138.876 16.9931H138.667V16.8579V16.7226H138.262H137.857L137.852 16.5916L137.847 16.4605L137.428 16.456L137.01 16.4515V16.3165V16.1815H136.468H135.927V16.0465V15.9116L135.517 15.9071L135.107 15.9025L135.102 15.7735L135.097 15.6444L134.557 15.632L134.016 15.6195V15.4862V15.353H133.737H133.458V15.2177V15.0824H133.179H132.9V14.9472V14.8119H132.63H132.359V14.6785V14.5452L132.089 14.5329L131.818 14.5206V14.3872V14.2539H131.683H131.547V14.1186V13.9834H131.413H131.278L131.273 13.7086L131.268 13.4338L131.14 13.4289L131.012 13.424L131.001 13.0316C130.986 12.5302 130.986 11.9994 131 11.7371L131.012 11.5316H131.134H131.256L131.269 11.2526L131.281 10.9736H131.414H131.547V10.8298V10.6861H131.683H131.818V10.5508V10.4156H131.953H132.089V10.2803V10.145H132.224H132.359V10.0098V9.87448H132.503H132.647V9.73921V9.60394H132.917H133.188V9.46867V9.3334H133.397C133.511 9.3334 133.698 9.32843 133.811 9.32234L134.016 9.3113V9.18977V9.06827L134.435 9.05714C134.976 9.04277 136.896 9.04277 137.437 9.05714L137.855 9.06827V9.19037V9.31245L138.396 9.32494L138.937 9.33744V9.47068V9.60394H139.216H139.495V9.73728V9.87063L139.766 9.88294L140.037 9.89525V10.0201V10.145H140.172H140.307V10.2796V10.4142L140.447 10.4191L140.586 10.424L140.591 10.5635L140.596 10.703H140.731H140.865V10.8383V10.9736H141.001H141.136V11.1088V11.2441H141.269H141.402L141.414 11.5147L141.427 11.7852H141.55H141.673L141.686 12.0642L141.698 12.3432H141.82H141.942L141.953 12.5488C141.959 12.6618 141.964 12.8482 141.964 12.963V13.1717L142.383 13.1717C142.613 13.1717 142.978 13.1667 143.195 13.1605L143.588 13.1494V13.0279V12.9064L143.803 12.8954C143.922 12.8894 144.108 12.8844 144.218 12.8843L144.416 12.8843V12.7575V12.6306H144.292H144.167L144.154 12.0726L144.142 11.5147H144.02H143.897L143.886 11.3244C143.88 11.2198 143.875 11.0372 143.875 10.9186L143.875 10.703H143.742H143.609L143.597 10.4325L143.585 10.1619H143.459H143.334V10.0182V9.87448H143.199H143.064V9.73921V9.60394H142.929H142.794L142.789 9.46444L142.785 9.32494L142.645 9.32004L142.506 9.31512V9.18054V9.04595H142.37H142.235V8.91068V8.7754H142.1H141.964V8.64013V8.50486H141.821H141.677V8.36959V8.23432H141.406H141.136V8.09972V7.96514L140.996 7.96022L140.857 7.95532L140.852 7.82685L140.847 7.69835L140.642 7.68735C140.529 7.68128 140.351 7.67632 140.246 7.67632H140.055L140.05 7.54528L140.045 7.41423L139.762 7.4096L139.479 7.40497V7.2701V7.13524H138.937H138.396V6.99996V6.86469H136.206H134.016V6.99996ZM47.9584 7.27051V7.40578H47.6144C47.4252 7.40578 47.1779 7.41075 47.0648 7.41684L46.8592 7.42788V7.55169V7.67548L46.5844 7.68013L46.3097 7.68478L46.3047 7.81393L46.2998 7.94308L46.0299 7.95535L45.7601 7.96763V8.10097V8.23432H45.4895H45.2189V8.36959V8.50486H45.0752H44.9314V8.64013V8.7754H44.7962H44.6609V8.91068V9.04595H44.5256H44.3903V9.18967V9.3334H44.255H44.1197V9.46867V9.60394H43.9864H43.853L43.8407 9.87448L43.8284 10.145H43.695H43.5617V8.78646V7.42788L43.3561 7.41684C43.243 7.41075 42.7522 7.40578 42.2654 7.40578H41.3802V17.6864V27.967H41.5155H41.6508V28.1023V28.2376H42.6062H43.5617V22.5504C43.5617 19.4224 43.5667 16.7707 43.5727 16.6576L43.5838 16.4521H43.708H43.8322L43.8323 15.4333C43.8323 14.873 43.8373 14.3175 43.8434 14.1989L43.8544 13.9834H43.976H44.0976L44.1087 13.7778C44.1148 13.6647 44.1197 13.4783 44.1197 13.3635V13.1548H44.244H44.3682L44.3792 12.9646C44.3852 12.86 44.3902 12.6774 44.3902 12.5588L44.3903 12.3432H44.5256H44.6609V12.0726V11.8021H44.7962H44.9314V11.6584V11.5147H45.0648H45.1982L45.2105 11.2441L45.2228 10.9736H45.3561H45.4895V10.8383V10.703H45.6248H45.7601V10.5697V10.4363L46.0306 10.424L46.3012 10.4117V10.2784V10.145H46.4449H46.5887V10.0098V9.87448H46.8592H47.1298V9.73921V9.60394L47.4807 9.60386C47.6737 9.60382 47.9172 9.59885 48.0218 9.59283L48.2121 9.58186V9.45763V9.3334H49.1845H50.1568V9.45831V9.58321L50.4091 9.59542C50.5479 9.60213 50.6696 9.60255 50.6797 9.59633C50.6925 9.58842 50.6979 9.25822 50.6979 8.49541V7.40578H50.5542H50.4105V7.27051V7.13524H49.1845H47.9584V7.27051ZM53.4375 7.68466V7.96377H53.5727H53.708V8.36959V8.7754H53.8433H53.9786V9.0544V9.3334H54.1139H54.2492V9.53365C54.2492 9.6438 54.2541 9.82641 54.2602 9.93947L54.2713 10.145H54.3929H54.5145L54.5255 10.3606C54.5316 10.4792 54.5366 10.6615 54.5366 10.7657L54.5367 10.9552L54.6677 10.9602L54.7988 10.9651L54.8034 11.2392L54.8081 11.5132L54.9387 11.5182L55.0693 11.5231L55.0739 11.9331L55.0784 12.3432H55.213H55.3475L55.3522 12.618L55.3568 12.8927L55.4879 12.8977L55.6189 12.9026V13.1021C55.6189 13.2119 55.6239 13.3942 55.63 13.5073L55.641 13.7128H55.7635H55.8859L55.8982 13.9918L55.9105 14.2708H56.0327H56.1549L56.1659 14.461C56.1719 14.5657 56.1769 14.7483 56.1769 14.8668L56.177 15.0824H56.3123H56.4476V15.4883V15.8941H56.5828H56.7181V16.1731V16.4521H56.8534H56.9887V16.6523C56.9887 16.7625 56.9936 16.9448 56.9997 17.0575L57.0107 17.2624L57.1392 17.2673L57.2677 17.2721L57.2724 17.5469L57.277 17.8217H57.4008H57.5246L57.5357 18.0272C57.5418 18.1403 57.5467 18.3267 57.5467 18.4415V18.6502H57.682H57.8173V18.9208V19.1913H57.9526H58.0879V19.4C58.0879 19.5148 58.0929 19.7012 58.0989 19.8143L58.11 20.0198H58.2342H58.3584V20.2904V20.5609H58.4911H58.6238L58.6348 20.7765C58.6408 20.8951 58.6458 21.0815 58.6459 21.1908L58.6459 21.3895H58.7812H58.9165V21.7953V22.2011H59.0518H59.1871V22.4801V22.7591H59.3224H59.4576V22.9593C59.4576 23.0695 59.4626 23.2521 59.4687 23.3652L59.4797 23.5707H59.6036H59.7274L59.732 23.8455L59.7367 24.1203L59.8651 24.1251L59.9937 24.1301L60.0047 24.3349C60.0107 24.4476 60.0157 24.6299 60.0157 24.7401V24.9403H60.151H60.2863V25.2193V25.4983H60.4215H60.5568V25.9042V26.31H60.6921H60.8274V26.5187C60.8274 26.6335 60.8324 26.8199 60.8385 26.9329L60.8495 27.1385H60.9719H61.0944L61.1067 27.4175L61.119 27.6965H61.2412H61.3633L61.3742 27.8994C61.3802 28.011 61.3802 28.1936 61.3742 28.3052L61.3633 28.5081H61.2417H61.1201L61.1091 28.7237C61.1031 28.8423 61.0981 29.0287 61.098 29.138L61.098 29.3367H60.9627H60.8274V29.6157V29.8947H60.6921H60.5568V30.3005V30.7063H60.4218H60.2869L60.2823 31.1163L60.2778 31.5264L60.1467 31.5313L60.0157 31.5362V31.7358C60.0157 31.8455 60.0107 32.0278 60.0046 32.1409L59.9936 32.3465H59.8719H59.7503L59.7393 32.552C59.7332 32.6651 59.7282 32.8474 59.7282 32.9571V33.1567L59.5971 33.1616L59.4661 33.1665L59.4615 33.4498L59.4568 33.733H59.3219H59.1871V34.1388V34.5446H59.0518H58.9165V34.9504V35.3562H58.7812H58.6459V35.565C58.6459 35.6797 58.641 35.8662 58.6349 35.9792L58.6238 36.1848H58.5022H58.3805L58.3695 36.3903C58.3634 36.5034 58.3584 36.6857 58.3584 36.7955V36.995L58.2274 36.9999L58.0963 37.0049V37.1401V37.2754L59.3266 37.2798L60.5568 37.2841V36.8697V36.4553H60.6921H60.8274L60.8275 36.2397C60.8275 36.1212 60.8325 35.9386 60.8385 35.8339L60.8495 35.6437H60.9711H61.0927L61.1037 35.4281C61.1098 35.3095 61.1148 35.1231 61.1148 35.0138L61.1149 34.8152H61.2502H61.3854V34.4093V34.0035H61.5207H61.656V33.7245V33.4455H61.7913H61.9266V33.0313V32.617H62.0619H62.1972V32.2112V31.8054H62.3298H62.4625L62.4735 31.5898C62.4795 31.4712 62.4845 31.2848 62.4846 31.1755L62.4846 30.9768H62.6199H62.7552V30.571V30.1652H62.8905H63.0258V29.7509V29.3367H63.1611H63.2963V29.0577V28.7787H63.4313H63.5663L63.5708 28.3686L63.5754 27.9586L63.7064 27.9537L63.8375 27.9487L63.8375 27.7592C63.8376 27.655 63.8426 27.4727 63.8486 27.3541L63.8596 27.1385H63.9812H64.1029L64.1139 26.9329C64.12 26.8199 64.125 26.6373 64.125 26.5271V26.3269H64.2602H64.3955V25.9126V25.4983H64.5308H64.6661L64.6662 25.2827C64.6662 25.1642 64.6712 24.9816 64.6772 24.8769L64.6882 24.6867H64.8124H64.9367V24.4077V24.1287H65.0693H65.202L65.213 23.9131C65.2191 23.7945 65.224 23.6081 65.2241 23.4989L65.2241 23.3002H65.3484H65.4726L65.4837 23.0946C65.4897 22.9816 65.4947 22.7989 65.4947 22.6888V22.4885H65.63H65.7653V22.0743V21.66H65.9006H66.0359L66.0359 21.4444C66.036 21.3258 66.0409 21.1432 66.047 21.0386L66.0579 20.8484H66.1822H66.3064V20.6397C66.3064 20.5249 66.3114 20.3388 66.3175 20.2261L66.3285 20.0212L66.457 20.0163L66.5854 20.0114L66.5901 19.7366L66.5948 19.4618H66.7186H66.8424L66.8534 19.2716C66.8594 19.167 66.8644 18.9806 66.8644 18.8574L66.8645 18.6333H66.9998H67.135V18.2275V17.8217H67.2703H67.4056L67.4057 17.6061C67.4057 17.4875 67.4107 17.3049 67.4167 17.2003L67.4277 17.0101H67.5493H67.671L67.682 16.7945C67.688 16.6759 67.693 16.4895 67.693 16.3802L67.6931 16.1815H67.8173H67.9416L67.9526 15.976C67.9587 15.8629 67.9637 15.6806 67.9637 15.5709V15.3713L68.0947 15.3664L68.2258 15.3614L68.2304 15.0867L68.2351 14.8119H68.3699H68.5048V14.3976V13.9834H68.6401H68.7754V13.5775V13.1717H68.9107H69.0459V12.963C69.0459 12.8482 69.0509 12.6618 69.057 12.5488L69.068 12.3432H69.2007H69.3334V11.9381V11.533L69.4645 11.528L69.5955 11.5231L69.6001 11.1131L69.6046 10.703H69.7396H69.8746V10.424V10.145H70.0095H70.1445L70.1491 9.73499L70.1536 9.32494L70.2846 9.32001L70.4157 9.31507L70.4158 9.12555C70.4158 9.02133 70.4208 8.83903 70.4268 8.72045L70.4378 8.50486H70.5595H70.6811L70.6921 8.2993C70.6982 8.18625 70.7032 7.99982 70.7032 7.88503V7.67632H70.8385H70.9737V7.54093V7.40556L69.7435 7.40989L68.5133 7.41423L68.5087 7.82428L68.5042 8.23432H68.3692H68.2342L68.2341 8.44991C68.2341 8.56849 68.2291 8.75111 68.2231 8.85572L68.2121 9.04595H68.0883H67.9645L67.9599 9.32072L67.9552 9.59549L67.8241 9.60042L67.6931 9.60536L67.693 9.80333C67.693 9.91221 67.688 10.0983 67.682 10.2169L67.671 10.4325H67.5493H67.4277L67.4167 10.6227C67.4107 10.7273 67.4057 10.9099 67.4057 11.0285L67.4056 11.2441H67.2703H67.135V11.6584V12.0726H66.9998H66.8645V12.4785V12.8843H66.7292H66.5939L66.5938 13.083C66.5938 13.1922 66.5888 13.3786 66.5828 13.4972L66.5718 13.7128H66.4391H66.3064V14.1179V14.523L66.1754 14.528L66.0443 14.5329L66.0397 14.8077L66.035 15.0824H65.9001H65.7653V15.4967V15.911H65.63H65.4947V16.3168V16.7226H65.3594H65.2241V16.9313C65.2241 17.0461 65.2192 17.2325 65.2131 17.3456L65.202 17.5511H65.0804H64.9588L64.9477 17.7567C64.9416 17.8698 64.9367 18.052 64.9367 18.1618V18.3613L64.8056 18.3663L64.6746 18.3712L64.67 18.7813L64.6655 19.1913H64.5305H64.3955V19.4703V19.7493H64.2602H64.125V20.1551V20.5609H63.9897H63.8544L63.8543 20.7596C63.8543 20.8689 63.8493 21.0553 63.8433 21.1739L63.8323 21.3895H63.7106H63.589L63.578 21.595C63.5719 21.7081 63.5669 21.8904 63.5669 22.0001V22.1997L63.4359 22.2046L63.3048 22.2096L63.3003 22.6196L63.2957 23.0296H63.1607H63.0258V23.4354V23.8413H62.8905H62.7552V24.05C62.7552 24.1648 62.7502 24.3512 62.7441 24.4642L62.7331 24.6698H62.4651H62.1972V24.264V23.8582H62.0619H61.9266V23.5792V23.3002H61.7913H61.656V22.8944V22.4885H61.5211H61.3863L61.3816 22.2138L61.377 21.939L61.2459 21.9341L61.1149 21.9291V21.7296C61.1149 21.6198 61.1099 21.4378 61.1038 21.3251L61.0928 21.1203L60.9643 21.1154L60.8358 21.1105L60.8313 20.7004L60.8268 20.2904H60.6918H60.5568V20.0114V19.7324H60.4215H60.2863V19.3266V18.9208H60.1514H60.0165L60.0119 18.646L60.0072 18.3712L59.8787 18.3663L59.7502 18.3614L59.7392 18.1565C59.7332 18.0438 59.7282 17.8615 59.7282 17.7514V17.5511H59.5929H59.4576V17.1453V16.7395H59.3224H59.1871V16.4605V16.1815H59.0518H58.9165L58.9164 15.9659C58.9164 15.8473 58.9114 15.6647 58.9054 15.5601L58.8944 15.3699H58.7702H58.6459V15.0909V14.8119H58.5132H58.3805L58.3695 14.6063C58.3634 14.4933 58.3584 14.3069 58.3584 14.1921V13.9834H58.2232H58.0879V13.5775V13.1717H57.9526H57.8173V12.8927V12.6137H57.682H57.5467V12.4135C57.5467 12.3033 57.5418 12.1207 57.5357 12.0077L57.5246 11.8021H57.4008H57.277L57.2724 11.5273L57.2677 11.2526L57.1392 11.2477L57.0107 11.2428L56.9997 11.0379C56.9936 10.9252 56.9887 10.7432 56.9887 10.6334V10.4339L56.8576 10.429L56.7266 10.424L56.7219 10.1493L56.7173 9.87448H56.5824H56.4476V9.46022V9.04595H56.3123H56.177V8.84569C56.177 8.73555 56.172 8.55293 56.1659 8.43988L56.1549 8.23432H56.0324H55.91L55.8977 7.95532L55.8854 7.67632H55.7613H55.6373L55.6323 7.54528L55.6274 7.41423L54.5324 7.40989L53.4375 7.40553V7.68466ZM121.683 7.41706C121.668 7.43165 121.668 27.7607 121.683 28.032L121.694 28.2376H122.638H123.583V28.1023V27.967H123.726H123.87V17.6864V7.40578H122.782C122.184 7.40578 121.689 7.41085 121.683 7.41706ZM106.33 18.925L106.325 20.5694L106.194 20.5743L106.063 20.5793V20.8464C106.063 20.9933 106.058 21.297 106.052 21.5213L106.041 21.9292L105.913 21.9341L105.784 21.939L105.78 22.2138L105.775 22.4885H105.65H105.526L105.514 22.7591L105.501 23.0296H105.368H105.235L105.231 23.3044L105.226 23.5792L105.095 23.5841L104.964 23.589V23.7236V23.8582H104.831H104.697L104.685 24.1287L104.673 24.3993H104.539H104.406V24.5345V24.6698H104.271H104.135V24.8031V24.9365L103.865 24.9488L103.594 24.9611V25.0945V25.2278H103.451H103.307V25.3631V25.4983H103.036H102.766V25.6329V25.7675L102.626 25.7724L102.487 25.7773L102.482 25.9084L102.477 26.0394H102.277C102.167 26.0394 101.985 26.0444 101.872 26.0505L101.666 26.0615V26.183V26.3046L101.258 26.3157C101.033 26.3219 100.729 26.3269 100.582 26.3269H100.315L100.31 26.4579L100.305 26.589L99.0665 26.5933L97.8278 26.5976V26.4622V26.3269H97.4922C97.3076 26.3269 97.0641 26.3219 96.9511 26.3158L96.7455 26.3048V26.1826V26.0604L96.4665 26.0481L96.1874 26.0358V25.9024V25.7689H96.0437H95.9V25.6336V25.4983H95.6385H95.3771L95.3722 25.3588L95.3673 25.2193L95.2378 25.2144L95.1084 25.2095L95.0961 24.9397L95.0839 24.6698H94.9508H94.8177V24.3993V24.1287H94.6824H94.5471V23.92C94.5471 23.8052 94.5421 23.6188 94.5361 23.5057L94.525 23.3002H94.4008H94.2765V22.6154V21.9306H94.4008H94.525L94.5361 21.725C94.5421 21.6119 94.5471 21.3685 94.5471 21.1839V20.8484H94.6824H94.8177V20.7047V20.5609H94.951H95.0844L95.0967 20.2911L95.1089 20.0212L95.2381 20.0163L95.3673 20.0114L95.3722 19.8824L95.3771 19.7533L95.6378 19.7411L95.8986 19.7289L95.9035 19.5996L95.9084 19.4703L96.0479 19.4654L96.1874 19.4605V19.3259V19.1913H96.4665H96.7455V19.056V18.9208H97.0161H97.2866V18.7858V18.6508L97.6967 18.6463L98.1068 18.6418L98.1117 18.5134L98.1166 18.3851L98.5245 18.3739C98.7489 18.3678 99.053 18.3628 99.2003 18.3628H99.4681V18.2386V18.1143L99.6737 18.1033C99.7867 18.0972 100.095 18.0922 100.358 18.0922H100.836L100.841 17.9612L100.846 17.8301L101.941 17.8258L103.036 17.8214V17.6863V17.5511H103.862C104.316 17.5511 104.872 17.5461 105.097 17.54L105.505 17.5288V17.4047V17.2806H105.92H106.334L106.33 18.925ZM73.1552 34.1388V34.2741H73.0284H72.9016V34.6799V35.0857H73.0368H73.1721V35.221V35.3562H73.4427H73.7133V35.221V35.0857H73.8485H73.9838V34.6799V34.2741H73.8485H73.7133V34.1388V34.0035H73.4342H73.1552V34.1388ZM114.552 35.9142V37.2839H113.462H112.371V37.5544V37.825H112.498H112.625V37.9602V38.0955H113.588H114.552V41.1137V44.132H114.688H114.823V44.8168V45.5016H114.958H115.093L115.097 45.7764L115.102 46.0511L115.232 46.0561L115.363 46.061L115.368 46.1913L115.373 46.3217L115.512 46.3266L115.652 46.3315V46.4661V46.6007H115.922H116.193V46.736V46.8712H117.292H118.391V46.7275V46.5838H118.526H118.662V46.3217V46.0596L118.522 46.0568C118.445 46.0552 118.074 46.0561 117.698 46.0588C117.321 46.0615 116.889 46.058 116.738 46.051L116.463 46.0384V45.9154V45.7923L116.193 45.7801L115.922 45.7678V45.4994V45.2311H115.789H115.655L115.644 44.6688C115.638 44.3596 115.635 42.756 115.638 41.1053L115.643 38.1039L117.017 38.0996L118.391 38.0953V37.9601V37.825H118.526H118.662V37.5544V37.2839H117.159H115.657L115.646 37.0783C115.64 36.9653 115.635 36.3489 115.635 35.7087V34.5446H115.093H114.552V35.9142ZM155.391 35.9142V37.2839H154.292H153.193V37.6897V38.0955H154.292H155.391V41.528V44.9605H155.527H155.662V45.3663V45.7722H155.797H155.933V45.9159V46.0596H156.067H156.202L156.207 46.1906L156.212 46.3217L156.342 46.3266L156.472 46.3315L156.477 46.4619L156.482 46.5922L156.757 46.5969L157.032 46.6015V46.7364V46.8712H158.131H159.231L159.226 46.4612L159.222 46.0511L158.672 46.0575C158.37 46.061 157.877 46.0582 157.577 46.0511L157.032 46.0384V45.9053V45.7722H156.896H156.761V45.6369V45.5016H156.628H156.496L156.485 45.296C156.479 45.183 156.474 45.0004 156.474 44.8902V44.69H156.347H156.22V41.4038V38.1176L156.41 38.1066C156.515 38.1006 157.192 38.0956 157.915 38.0956L159.23 38.0955V37.6897V37.2839L157.915 37.2838C157.192 37.2837 156.515 37.2788 156.41 37.2728L156.22 37.2618V35.9032V34.5446H155.806H155.391V35.9142ZM97.2909 37.0091L96.7455 37.0138V37.1488V37.2839H96.4665H96.1874V37.4191V37.5544H95.9169H95.6463V37.689V37.8236L95.5068 37.8285L95.3673 37.8334L95.3624 37.9729L95.3574 38.1124H95.2229H95.0882V38.2477V38.3829H94.953H94.8177V38.6535V38.924H94.6846H94.5514L94.5392 39.1946L94.5269 39.4651H94.4017H94.2765V39.6738C94.2765 39.7886 94.2716 39.975 94.2655 40.0881L94.2544 40.2937H94.1328H94.0112L94.0002 40.5092C93.9859 40.79 93.9859 42.944 94.0002 43.4507L94.0113 43.8432L94.1397 43.8481L94.2681 43.853L94.2726 44.263L94.2772 44.6731H94.4121H94.5471V44.9436V45.2142H94.6824H94.8177V45.3579V45.5016H94.953H95.0882V45.6369V45.7722H95.2229H95.3574L95.3624 45.9116L95.3673 46.0511L95.5068 46.0561L95.6463 46.061V46.1956V46.3301H95.7816H95.9169V46.4544V46.5786L96.1225 46.5896C96.2355 46.5957 96.4182 46.6007 96.5283 46.6007H96.7286V46.7357V46.8706L97.1471 46.8752L97.5657 46.8797L97.5706 47.0107L97.5755 47.1418H98.2512H98.927V47.0176V46.8933L99.1325 46.8823C99.2456 46.8762 99.4929 46.8712 99.6821 46.8712H100.026V46.7364V46.6015L100.301 46.5969L100.576 46.5922L100.581 46.4631L100.586 46.3339L100.855 46.3217L101.125 46.3094V46.1845V46.0596H101.261H101.396V45.9159V45.7722H101.531H101.666V45.6369V45.5016H101.802H101.937V45.3663V45.2311H102.071H102.204L102.216 44.9521L102.229 44.6731H102.363H102.497L102.492 44.542L102.487 44.411L102.356 44.406L102.225 44.4011V44.2665V44.132H101.945H101.666V44.2757V44.4194H101.531H101.396V44.6815V44.9436H101.261H101.125V45.0873V45.2311H100.982H100.838V45.3663V45.5016H100.567H100.297V45.635V45.7683L100.026 45.7806L99.7556 45.7929V45.9152V46.0375L99.55 46.0485C99.2833 46.0629 97.6808 46.0628 97.1547 46.0485L96.7468 46.0373L96.7419 45.909L96.737 45.7806L96.5975 45.7757L96.458 45.7708V45.6362V45.5016H96.1874H95.9169V45.3663V45.2311H95.7837H95.6506L95.6384 44.9612L95.6262 44.6913L95.4967 44.6864L95.3673 44.6815L95.3626 44.4068L95.358 44.132H95.2231H95.0882V43.7262V43.3204H94.953H94.8177V42.7708V42.2213H98.5861C100.659 42.2213 102.447 42.2163 102.56 42.2102L102.766 42.1992V41.5254V40.8517H102.63H102.495V40.5077C102.495 40.3185 102.49 40.0712 102.484 39.9581L102.473 39.7526H102.349H102.225L102.221 39.4778L102.216 39.203L102.087 39.1981L101.958 39.1932L101.945 38.9234L101.933 38.6535H101.8H101.666V38.5098V38.366H101.531H101.396V38.2308V38.0955H101.261H101.125V37.9602V37.825H100.99H100.855V37.6897V37.5544H100.711H100.567V37.4191V37.2839H100.161H99.7556V37.1513V37.0188L99.1341 37.0076C98.7923 37.0015 98.3604 36.9982 98.1744 37.0004C97.9884 37.0026 97.5908 37.0065 97.2909 37.0091ZM106.88 37.0078L106.335 37.0138L106.33 37.1446L106.325 37.2754L105.924 37.2799L105.522 37.2845V37.4194V37.5544H105.378H105.235V37.6897V37.825H105.099H104.964V37.9595V38.0941L104.825 38.099L104.685 38.1039L104.68 38.2434L104.675 38.3829H104.552H104.428L104.417 38.5732C104.411 38.6778 104.406 38.8642 104.406 38.9874L104.406 39.2115H104.271H104.135V39.4736V39.7357H104.271H104.406V40.1499V40.5642H104.541H104.675L104.68 40.7037L104.685 40.8432L104.815 40.8481L104.946 40.8531L104.951 40.9834L104.956 41.1137L105.095 41.1186L105.235 41.1236V41.2581V41.3927H105.514H105.793V41.528V41.6633H106.199H106.604V41.7986V41.9338H106.813C106.928 41.9338 107.114 41.9388 107.227 41.9449L107.433 41.9559V42.0775V42.1992L107.639 42.2102C107.752 42.2163 107.995 42.2213 108.179 42.2213H108.514L108.519 42.3523L108.524 42.4834L108.934 42.4879L109.344 42.4924V42.6274V42.7624H109.623H109.902V42.8976V43.0329H110.172H110.443V43.1766V43.3204H110.578H110.714V44.1404V44.9605H110.578H110.443V45.2311V45.5016H110.299H110.156V45.6365V45.7713L109.889 45.776L109.623 45.7806L109.618 45.9091L109.613 46.0376L109.408 46.0486C109.142 46.0629 107.269 46.0628 106.742 46.0484L106.334 46.0373V45.9047V45.7722H106.063H105.793V45.6369V45.5016H105.649H105.505V45.3663V45.2311H105.37H105.235V45.0873V44.9436H105.1H104.965L104.96 44.6773L104.956 44.411L104.545 44.4064L104.135 44.4019V44.8165V45.2311H104.269H104.402L104.414 45.5016L104.427 45.7722H104.56H104.693V45.9074V46.0427H104.829H104.964V46.176V46.3094L105.235 46.3217L105.505 46.334V46.4673V46.6007H105.784H106.063V46.7358V46.8708L106.744 46.8753L107.425 46.8797L107.429 47.0107L107.434 47.1418H107.975H108.515V47.0176V46.8933L108.721 46.8823C108.834 46.8762 109.142 46.8712 109.406 46.8712H109.885V46.736V46.6007H110.164H110.443V46.4654V46.3301H110.578H110.714V46.1956V46.061L110.853 46.0561L110.993 46.0511L110.998 45.9201L111.003 45.7891H111.129H111.255V45.6453V45.5016H111.387H111.52L111.531 45.296C111.537 45.183 111.542 44.9966 111.542 44.8818V44.6731H111.669H111.796V44.2673V43.8614H111.669H111.542V43.6527C111.542 43.5379 111.537 43.3515 111.531 43.2385L111.52 43.0329H111.396H111.272V42.8976V42.7624H111.136H111.001V42.6271V42.4918H110.857H110.714V42.3585V42.2251L110.443 42.2128L110.172 42.2005V42.0774V41.9543L109.893 41.942L109.614 41.9297V41.8075V41.6854L109.409 41.6743C109.296 41.6683 109.052 41.6633 108.868 41.6633H108.532V41.528V41.3927H108.109H107.687V41.2575V41.1222H107.351C107.167 41.1222 106.923 41.1172 106.81 41.1111L106.604 41.1001V40.9777V40.8553L106.325 40.8429L106.046 40.8306V40.7075V40.5844L105.776 40.5721L105.505 40.5599V40.4268V40.2937H105.37H105.235V39.4736V38.6535H105.37H105.505V38.5189V38.3843L105.645 38.3794L105.784 38.3745L105.789 38.2453L105.794 38.1162L106.064 38.1039L106.334 38.0916V37.9686V37.8455L106.609 37.8342C106.76 37.828 107.374 37.8253 107.974 37.8282L109.065 37.8334L109.07 37.9627L109.075 38.092L109.353 38.1042L109.631 38.1165V38.2395V38.3625L109.893 38.3747L110.154 38.387L110.159 38.516L110.164 38.645L110.304 38.6499L110.443 38.6549V38.9247V39.1946H110.578H110.714V39.4736V39.7526L111.065 39.7525C111.258 39.7525 111.501 39.7475 111.606 39.7415L111.796 39.7305V39.6063V39.482H111.669H111.542V39.2733C111.542 39.1585 111.537 38.9721 111.531 38.8591L111.52 38.6535H111.387H111.255V38.5098V38.366H111.129H111.003L110.998 38.235L110.993 38.1039L110.853 38.099L110.714 38.0941V37.9595V37.825H110.578H110.443V37.6897V37.5544H110.299H110.156V37.4191V37.2839H109.75H109.344V37.1486V37.0133L109.001 37.0133C108.813 37.0133 108.381 37.0107 108.042 37.0075C107.702 37.0043 107.179 37.0044 106.88 37.0078ZM122.648 37.0077L122.23 37.0139V37.1489V37.2839H121.951H121.672V37.4191V37.5544H121.536H121.401V37.6897V37.825H121.131H120.86V37.5544V37.2839H120.454H120.048V41.9331V46.5824L120.179 46.5873L120.31 46.5922L120.315 46.7317L120.32 46.8712H120.581H120.842L120.847 46.7317L120.852 46.5922L120.983 46.5873L121.114 46.5824L121.114 43.307C121.114 41.5055 121.119 39.8433 121.125 39.6131L121.136 39.1946H121.269H121.401V38.924V38.6535H121.536H121.67L121.675 38.514L121.68 38.3745L121.811 38.3696L121.941 38.3646L121.946 38.2343L121.951 38.1039L122.09 38.099L122.23 38.0941V37.9595V37.825L123.266 37.825C123.835 37.8251 124.387 37.83 124.491 37.836L124.68 37.847L124.685 37.9755L124.69 38.1039L124.83 38.1089L124.969 38.1138V38.2484V38.3829H125.105H125.24V38.5182V38.6535H125.375H125.51V38.924V39.1946H125.643H125.775L125.787 39.816C125.793 40.1578 125.798 41.8241 125.798 43.519L125.798 46.6007H125.933H126.068V46.736V46.8712H126.339H126.61V43.1766V39.482H126.745H126.88V39.203V38.924H127.014H127.147L127.159 38.6542L127.171 38.3843L127.301 38.3794L127.43 38.3745L127.435 38.2453L127.44 38.1162L127.709 38.1039L127.979 38.0916V37.9583V37.825H129.079H130.178V37.9583V38.0916L130.448 38.1039L130.719 38.1163V38.2496V38.3829H130.852H130.986L130.998 38.6535L131.01 38.924H131.144H131.277V39.3291V39.7342L131.408 39.7392L131.539 39.7441L131.543 43.3077L131.548 46.8712H131.818H132.089V46.736V46.6007H132.224H132.359V43.0329V39.4651H132.235H132.111L132.1 39.2596C132.094 39.1465 132.089 38.903 132.089 38.7185V38.3829H131.953H131.818V38.2392V38.0955H131.683H131.547V37.9602V37.825H131.412H131.277V37.6897V37.5544H131.133H130.989V37.4191V37.2839H130.719H130.448V37.1513V37.0188L129.831 37.0077C129.492 37.0017 128.936 37.0017 128.597 37.0077L127.979 37.0188V37.1513V37.2839H127.7H127.421V37.4191V37.5544H127.16H126.898L126.894 37.6939L126.889 37.8334L126.749 37.8383L126.61 37.8432V37.9778V38.1124H126.475H126.34L126.336 38.2434L126.331 38.3745L126.202 38.3794L126.073 38.3843L126.061 38.1138L126.048 37.8432L125.919 37.8383L125.789 37.8334L125.785 37.6939L125.78 37.5544H125.51H125.24V37.4191V37.2839H124.969H124.699V37.1486V37.0133H124.49C124.375 37.0133 124.008 37.0107 123.674 37.0075C123.34 37.0042 122.878 37.0044 122.648 37.0077ZM137.31 37.0091L136.756 37.0138V37.1488V37.2839H136.477H136.198V37.4191V37.5544H135.927H135.657V37.6897V37.825H135.521H135.386V37.9602V38.0955H135.252H135.117L135.112 38.235L135.107 38.3745L134.968 38.3794L134.828 38.3843V38.5189V38.6535H134.703H134.578L134.566 38.9325L134.553 39.2115H134.42H134.287V39.6173V40.0231H134.154H134.021L134.009 40.9845C134.002 41.5133 134.002 42.377 134.009 42.9037L134.022 43.8614H134.154H134.287V44.2673V44.6731H134.422H134.557L134.561 44.9478L134.566 45.2226L134.697 45.2275L134.828 45.2325V45.367V45.5016H134.963H135.097L135.102 45.6411L135.107 45.7806L135.238 45.7855L135.368 45.7905L135.373 45.9208L135.378 46.0511L135.517 46.0561L135.657 46.061V46.1956V46.3301H135.791H135.926L135.931 46.4612L135.936 46.5922L136.211 46.5969L136.485 46.6015V46.7361V46.8708L137.031 46.8752L137.576 46.8797L137.581 47.0107L137.586 47.1418H138.262H138.937V47.0065V46.8712H139.487H140.037V46.736V46.6007H140.316H140.595V46.4673V46.334L140.865 46.3217L141.136 46.3094V46.176V46.0427H141.271H141.406V45.9074V45.7722H141.542H141.677V45.6369V45.5016H141.821H141.964V45.3579V45.2142H142.09H142.215L142.227 44.9436L142.239 44.6731H142.372H142.506V44.5378V44.4025H142.37H142.235V44.2673V44.132H141.956H141.677V44.2665V44.4011L141.546 44.406L141.415 44.411L141.41 44.5505L141.405 44.69H141.27H141.136V44.9605V45.2311H140.992H140.848V45.3663V45.5016H140.586H140.324V45.6348V45.768L140.045 45.7804L139.766 45.7927V45.9151V46.0375L139.56 46.0485C139.294 46.0629 137.229 46.0629 136.962 46.0486L136.757 46.0376L136.752 45.9091L136.747 45.7806L136.481 45.776L136.215 45.7713V45.6365V45.5016H136.071H135.927V45.3663V45.2311H135.792H135.657V45.0873V44.9436H135.521H135.386V44.6731V44.4025H135.254H135.121L135.11 44.197C135.104 44.0839 135.099 43.9013 135.099 43.7912V43.5909H134.974H134.85L134.839 43.3853C134.833 43.2723 134.828 42.9641 134.828 42.7005V42.2213H138.597C140.669 42.2213 142.457 42.2163 142.571 42.2102L142.776 42.1992V41.6607V41.1222H142.641H142.506V40.5727V40.0231H142.37H142.235V39.6088V39.1946H142.102H141.968L141.956 38.924L141.944 38.6535H141.819H141.694V38.5189V38.3843L141.554 38.3794L141.415 38.3745L141.41 38.235L141.405 38.0955H141.27H141.136V37.9602V37.825H141.001H140.865V37.6897V37.5544H140.721H140.578V37.4191V37.2839H140.172H139.766V37.1513V37.0188L139.145 37.0076C138.803 37.0015 138.375 36.9982 138.193 37.0004C138.012 37.0026 137.614 37.0065 137.31 37.0091ZM163.2 37.0091L162.781 37.0139V37.1379V37.2618L162.591 37.2728C162.486 37.2788 162.304 37.2837 162.185 37.2838L161.97 37.2839V37.4191V37.5544H161.826H161.682V37.6897V37.825H161.547H161.412V37.9602V38.0955H161.276H161.141V38.2392V38.3829H161.006H160.87V38.6535V38.924H160.735H160.6V39.4736V40.0231H160.735H160.87V40.3021V40.5811H161.006H161.141V40.7164V40.8517H161.276H161.412V40.9869V41.1222H161.555H161.699V41.2575V41.3927H161.97H162.24V41.5277V41.6627L162.65 41.6672L163.06 41.6717L163.065 41.8028L163.07 41.9338H163.27C163.38 41.9338 163.562 41.9388 163.675 41.9449L163.881 41.9559V42.0775V42.1991L164.096 42.2101C164.215 42.2162 164.462 42.2212 164.646 42.2212L164.98 42.2213V42.3565V42.4918H165.386H165.791V42.6271V42.7624H166.07H166.349V42.8955V43.0286L166.618 43.0408L166.887 43.0529L166.899 43.3128L166.912 43.5726L167.041 43.5775L167.17 43.5824V44.2673V44.9521L167.04 44.957L166.911 44.9619L166.899 45.2317L166.887 45.5016H166.627H166.366V45.6369V45.7722H166.223H166.079V45.9047V46.0373L165.67 46.0484C165.144 46.0628 163.733 46.0628 163.208 46.0485L162.8 46.0373L162.795 45.909L162.79 45.7806L162.515 45.776L162.24 45.7713V45.6365V45.5016H162.105H161.97V45.3663V45.2311H161.834H161.699V45.0965V44.9619L161.56 44.957L161.42 44.9521L161.415 44.6773L161.411 44.4025H160.87H160.329V44.5378V44.6731H160.454H160.578L160.589 44.8786C160.595 44.9917 160.6 45.1781 160.6 45.2929V45.5016H160.735H160.87V45.6369V45.7722H161.006H161.141V45.9067V46.0413L161.281 46.0462L161.42 46.0511L161.425 46.1806L161.43 46.31L161.7 46.3222L161.97 46.3345V46.4676V46.6007H162.24H162.511V46.736V46.8712L162.988 46.8713C163.251 46.8713 163.563 46.8763 163.682 46.8824L163.897 46.8934V47.0176V47.1418H164.439H164.98V47.0065V46.8712H165.665H166.349V46.736V46.6007H166.62H166.891V46.4654V46.3301H167.034H167.178V46.1949V46.0596H167.313H167.449V45.9159V45.7722H167.584H167.719V45.6369V45.5016H167.852H167.984L167.995 44.8824C168.002 44.5418 168.002 43.9904 167.995 43.6571L167.984 43.0511L167.856 43.0462L167.728 43.0414L167.723 42.9019L167.718 42.7624H167.583H167.449V42.6271V42.4918H167.313H167.178V42.3586V42.2254L166.899 42.2131L166.62 42.2008V42.0783V41.9559L166.414 41.9449C166.301 41.9388 166.119 41.9338 166.009 41.9338H165.808V41.7986V41.6633H165.394H164.98V41.528V41.3927H164.439H163.897V41.2575V41.1222L163.673 41.1221C163.55 41.1221 163.364 41.1171 163.259 41.1111L163.069 41.1001V40.9779V40.8558L162.79 40.8434L162.511 40.8311V40.708V40.585L162.24 40.5727L161.97 40.5603V40.427V40.2937H161.836H161.703L161.691 40.0231L161.678 39.7526H161.553H161.428V39.4736V39.1946H161.553H161.678L161.691 38.924L161.703 38.6535H161.836H161.97V38.5182V38.3829H162.105H162.24V38.2495V38.116L162.519 38.1037L162.798 38.0914V37.9581V37.8247L164.164 37.8291L165.529 37.8334L165.534 37.9626L165.539 38.0917L165.809 38.104L166.079 38.1163V38.2392V38.3622L166.349 38.3745L166.62 38.3868V38.5201V38.6535H166.753H166.887L166.899 38.9234L166.911 39.1932L167.04 39.1981L167.17 39.203L167.174 39.4778L167.179 39.7526H167.583C167.806 39.7526 167.991 39.7469 167.996 39.7399C168 39.7329 167.999 39.4856 167.994 39.1903L167.985 38.6535H167.852H167.719V38.5182V38.3829H167.584H167.449V38.2392V38.0955H167.313H167.178V37.9602V37.825H167.043H166.908V37.6897V37.5544H166.629H166.349V37.4196V37.2847L166.075 37.2801L165.8 37.2754L165.795 37.1471L165.79 37.0188L164.976 37.0076C164.529 37.0015 164.04 36.9982 163.89 37.0003C163.741 37.0025 163.43 37.0064 163.2 37.0091ZM79.1923 37.1486V37.2839H78.7864H78.3806V37.4191V37.5544H78.2368H78.0931V37.6897V37.825H77.9578H77.8225V37.9602V38.0955H77.6873H77.552V38.2308V38.366H77.4082H77.2645V37.825V37.2839H76.8586H76.4528V41.872C76.4528 44.3955 76.4577 46.5526 76.4638 46.6657L76.4749 46.8712H76.7344H76.9939V46.736V46.6007H77.1377H77.2814V43.3119V40.0231H77.4167H77.552V39.7441V39.4651H77.6873H77.8225V39.1946V38.924H77.9578H78.0931V38.7888V38.6535H78.2284H78.3637V38.5189V38.3843L78.5032 38.3794L78.6427 38.3745L78.6476 38.2453L78.6525 38.1162L78.9224 38.1039L79.1923 38.0916V37.9694V37.847L79.3979 37.836C79.5109 37.8299 80.0056 37.825 80.4971 37.825H81.3907V37.9584V38.0919L81.6697 38.1042L81.9487 38.1165V38.2395V38.3625L82.2102 38.3747L82.4716 38.387L82.4765 38.516L82.4814 38.645L82.6209 38.6499L82.7604 38.6549V38.9247V39.1946H82.8953H83.0302L83.0348 39.4693L83.0395 39.7441L83.1678 39.749L83.2961 39.7539L83.3073 40.5676C83.3134 41.0152 83.3185 42.5516 83.3185 43.9819V46.5824L83.4495 46.5873L83.5806 46.5922L83.5855 46.7317L83.5904 46.8712H83.8512H84.1119L84.1168 46.7317L84.1217 46.5922L84.2612 46.5873L84.4008 46.5824V43.717V40.8517H84.2655H84.1302L84.1301 40.3571C84.1301 40.085 84.1251 39.7769 84.1191 39.6723L84.1081 39.482H83.9839H83.8596V39.203V38.924H83.7263H83.5929L83.5806 38.6535L83.5683 38.3829H83.4349H83.3016V38.2477V38.1124H83.1663H83.031V37.9687V37.825H82.8957H82.7604V37.6897V37.5544H82.4899H82.2193V37.4191V37.2839H81.9403H81.6612V37.1486V37.0133H80.4268H79.1923V37.1486ZM146.902 37.1486V37.2839H146.623H146.344V37.4191V37.5544H146.074H145.803V37.689V37.8236L145.664 37.8285L145.524 37.8334L145.519 37.9729L145.514 38.1124H145.38H145.245V38.2477V38.3829H145.11H144.974V37.8334V37.2839H144.569H144.163V41.9423V46.6007H144.298H144.433V46.736V46.8712H144.704H144.974V43.853V40.8347H145.11H145.245V40.2852V39.7357H145.38H145.516V39.4651V39.1946H145.649H145.782L145.795 38.924L145.807 38.6535H145.94H146.074V38.5201V38.3868L146.344 38.3745L146.615 38.3622V38.2392V38.1163L146.885 38.104L147.155 38.0917L147.16 37.9626L147.164 37.8334L148.001 37.8282C148.462 37.8253 148.955 37.828 149.096 37.8342L149.354 37.8454V37.9684V38.0914L149.633 38.1037L149.912 38.116V38.2495V38.3829H150.048H150.183V38.5182V38.6535H150.318H150.454V38.7888V38.924H150.587H150.72L150.732 39.1946L150.744 39.4651H150.867H150.989L151 39.6807C151.006 39.7993 151.011 39.9854 151.012 40.0943L151.012 40.2922L151.143 40.2972L151.274 40.3021L151.278 43.5867L151.282 46.8712H151.688H152.094V43.4472V40.0231H151.959H151.823V39.6088V39.1946H151.688H151.553V38.924V38.6535H151.418H151.284L151.279 38.514L151.274 38.3745L151.143 38.3696L151.013 38.3646L151.008 38.2343L151.003 38.1039L150.873 38.099L150.742 38.0941L150.737 37.9638L150.733 37.8334L150.593 37.8285L150.454 37.8236V37.689V37.5544H150.318H150.183V37.4194V37.2845L149.773 37.2799L149.363 37.2754L149.358 37.1444L149.353 37.0133H148.128H146.902V37.1486ZM72.9016 41.9331V46.5824L73.0326 46.5873L73.1637 46.5922L73.1686 46.7317L73.1735 46.8712H73.4434H73.7133V46.7275V46.5838H73.8485H73.9838V41.9338V37.2839H73.4427H72.9016V41.9331ZM85.4999 37.4191V37.5544H85.6352H85.7705V37.8334V38.1124H85.9058H86.0411V38.3127C86.0411 38.4228 86.0461 38.6054 86.0521 38.7185L86.0632 38.924H86.1874H86.3117L86.3117 39.1227C86.3118 39.232 86.3167 39.4184 86.3228 39.537L86.3338 39.7526H86.4664H86.5991V40.1584V40.5642H86.7344H86.8697V40.8432V41.1222H87.0047H87.1397L87.1442 41.5322L87.1487 41.9423L87.2798 41.9472L87.4108 41.9522V42.1517C87.4108 42.2615 87.4158 42.4437 87.4219 42.5568L87.4329 42.7624H87.5546H87.6762L87.6873 42.9679C87.6934 43.081 87.6983 43.2633 87.6983 43.373V43.5726L87.8294 43.5775L87.9604 43.5824L87.9651 43.8572L87.9697 44.132H88.1046H88.2395V44.5463V44.9605H88.3747H88.51V45.1608C88.51 45.2709 88.515 45.4535 88.5211 45.5666L88.5321 45.7722H88.6564H88.7806L88.7807 45.9708C88.7807 46.0801 88.7857 46.2665 88.7917 46.3851L88.8027 46.6007H88.9354H89.0681V46.736V46.8712H89.472H89.8759L89.8882 46.6007L89.9006 46.3301H90.0234H90.1462L90.1586 46.0511L90.1709 45.7722H90.2933H90.4157L90.4268 45.5666C90.4329 45.4535 90.4378 45.2671 90.4378 45.1523V44.9436H90.5731H90.7084V44.5378V44.132H90.8437H90.979L90.9791 43.9164C90.9791 43.7978 90.9841 43.6152 90.9901 43.5106L91.0011 43.3204H91.1253H91.2495V43.0414V42.7624H91.3848H91.5201L91.5202 42.5637C91.5202 42.4544 91.5252 42.268 91.5312 42.1494L91.5423 41.9338H91.6639H91.7855L91.7965 41.7436C91.8025 41.639 91.8075 41.4563 91.8075 41.3378L91.8076 41.1222H91.9429H92.0782V40.7079V40.2937H92.213H92.3479L92.3525 40.0189L92.3572 39.7441L92.4882 39.7392L92.6193 39.7342V39.5347C92.6193 39.4249 92.6243 39.2426 92.6304 39.1296L92.6414 38.924H92.7656H92.8899V38.7238C92.8899 38.6136 92.8948 38.4313 92.9009 38.3186L92.9119 38.1137L93.0404 38.1088L93.1689 38.1039L93.1734 37.6939L93.178 37.2839H92.7633H92.3487V37.5629V37.8419H92.2134H92.0782V38.2477V38.6535H91.9429H91.8076L91.8075 38.8691C91.8075 38.9876 91.8025 39.1703 91.7965 39.2749L91.7855 39.4651H91.6639H91.5423L91.5312 39.6807C91.5252 39.7993 91.5202 39.9857 91.5202 40.095L91.5201 40.2937H91.3848H91.2495V40.5727V40.8517H91.1253H91.0011L90.9901 41.0419C90.9841 41.1465 90.9791 41.3291 90.9791 41.4477L90.979 41.6633H90.844H90.709L90.7045 42.0733L90.7 42.4834L90.5689 42.4883L90.4378 42.4932V42.6928C90.4378 42.8025 90.4329 42.9848 90.4268 43.0979L90.4157 43.3034H90.2936H90.1714L90.1591 43.5824L90.1468 43.8614H90.0243H89.9019L89.8908 44.067C89.8848 44.1801 89.8798 44.3665 89.8798 44.4813V44.69H89.7445H89.6092V44.9605V45.2311H89.4761H89.343L89.3307 44.9605L89.3185 44.69H89.1953H89.0722L89.0599 44.411L89.0476 44.132H88.9251H88.8027L88.7917 43.9264C88.7856 43.8134 88.7806 43.6269 88.7806 43.5122V43.3034H88.6453H88.51V42.8976V42.4918H88.3747H88.2395V42.2128V41.9338H88.1042H87.9689V41.528V41.1222H87.8336H87.6983V40.9135C87.6983 40.7987 87.6934 40.6123 87.6873 40.4992L87.6762 40.2937H87.5546H87.4329L87.4219 40.0881C87.4158 39.975 87.4108 39.7924 87.4108 39.6823V39.482H87.2756H87.1403V39.203V38.924H87.005H86.8697V38.5098V38.0955H86.7344H86.5991V37.8952C86.5991 37.7851 86.5942 37.6025 86.5881 37.4894L86.577 37.2839H86.0385H85.4999V37.4191ZM99.4815 37.9645L99.4864 38.0955H99.686C99.7957 38.0955 99.9781 38.1005 100.091 38.1066L100.297 38.1176V38.2503V38.3829H100.432H100.567V38.5182V38.6535H100.703H100.838V38.7881V38.9227L100.977 38.9276L101.117 38.9325L101.122 39.1988L101.126 39.4651H101.261H101.396V39.7441V40.0231H101.531H101.666V40.5024C101.666 40.766 101.671 41.0741 101.678 41.1872L101.689 41.3927H98.2531H94.8177V40.9785V40.5642H94.953H95.0882V40.1584V39.7526H95.2231H95.358L95.3626 39.4778L95.3673 39.203L95.5068 39.1981L95.6463 39.1932V39.0586V38.924H95.7816H95.9169V38.7888V38.6535H96.0522H96.1874V38.5182V38.3829H96.3227H96.458V38.2497V38.1165L96.737 38.1042L97.0161 38.0919V37.9676V37.8432L97.1556 37.8375C97.2323 37.8343 97.7859 37.8321 98.3858 37.8326L99.4765 37.8334L99.4815 37.9645ZM139.495 37.9584V38.0919L139.774 38.1042L140.054 38.1165V38.2395V38.3625L140.315 38.3747L140.576 38.387L140.581 38.516L140.586 38.645L140.726 38.6499L140.865 38.6549V38.9247V39.1946H141.001H141.136V39.3383V39.482H141.271H141.406V39.6823C141.406 39.7924 141.411 39.975 141.417 40.0881L141.428 40.2937H141.55H141.672L141.683 40.7022C141.689 40.9269 141.694 41.1742 141.694 41.2518V41.3927H138.261H134.828V41.0488C134.828 40.8596 134.833 40.6123 134.839 40.4992L134.85 40.2937H134.973H135.095L135.107 40.0147L135.12 39.7357H135.243H135.366L135.378 39.4651L135.391 39.1946H135.524H135.657V38.9247V38.6549L135.796 38.6499L135.936 38.645L135.941 38.516L135.946 38.387L136.207 38.3747L136.468 38.3625V38.2392V38.116L136.747 38.1037L137.027 38.0914V37.9582V37.825H138.261H139.495V37.9584Z" fill="white"/>
</svg>
