<svg width="28" height="22" viewBox="0 0 28 22" fill="none" xmlns="http://www.w3.org/2000/svg">
<path d="M27.0881 2.61263C26.0224 3.071 24.9565 3.35726 23.8913 3.47225C25.0944 2.75037 25.9082 1.73055 26.3322 0.412862C25.2317 1.06587 24.0574 1.51262 22.8085 1.75337C21.7084 0.584618 20.3565 0 18.7519 0C17.2167 0 15.9077 0.541332 14.8244 1.62424C13.7417 2.70708 13.2003 4.01611 13.2003 5.55149C13.2003 5.96393 13.2461 6.38805 13.3378 6.82343C11.069 6.70886 8.9406 6.13881 6.95238 5.11328C4.96428 4.08763 3.27701 2.72117 1.89057 1.01391C1.38638 1.87311 1.1342 2.80714 1.1342 3.81546C1.1342 4.76652 1.35761 5.64895 1.80472 6.46252C2.25154 7.27596 2.85325 7.93475 3.60957 8.439C2.71563 8.40456 1.87919 8.16959 1.10012 7.73416V7.80291C1.10012 9.14365 1.52123 10.3208 2.36333 11.3352C3.20555 12.3494 4.26841 12.9879 5.55167 13.2516C5.07036 13.3775 4.58327 13.4405 4.09064 13.4405C3.76976 13.4405 3.42023 13.4119 3.04217 13.355C3.39736 14.4663 4.05054 15.3798 5.00149 16.0963C5.95261 16.8124 7.02974 17.1816 8.23293 17.2051C6.21629 18.7861 3.91888 19.5766 1.34069 19.5766C0.847879 19.5766 0.401123 19.5541 0 19.508C2.57825 21.1693 5.41995 22 8.52526 22C10.4961 22 12.3467 21.6881 14.0765 21.0634C15.807 20.4392 17.285 19.6025 18.5112 18.5539C19.737 17.5055 20.7943 16.2995 21.6823 14.9359C22.5702 13.5723 23.2317 12.1487 23.6675 10.6649C24.1028 9.18074 24.3206 7.6943 24.3206 6.20443C24.3206 5.88356 24.3148 5.64305 24.3033 5.48256C25.3922 4.69229 26.3203 3.73533 27.0881 2.61263Z" fill="white"/>
</svg>
