<?xml version="1.0" standalone="no"?>
<!DOCTYPE svg PUBLIC "-//W3C//DTD SVG 1.1//EN" "http://www.w3.org/Graphics/SVG/1.1/DTD/svg11.dtd" >
<svg>
<metadata>
Created by FontForge 20090622 at Sat Dec 28 16:52:47 2019
 By deploy user
Copyright (c) 2018 by Igor Kosinsky. All rights reserved.
</metadata>
<defs>
<font id="2MASSJ1808-Normal" horiz-adv-x="750" >
  <font-face 
    font-family="2MASS J1808"
    font-weight="400"
    font-stretch="normal"
    units-per-em="1000"
    panose-1="2 0 8 7 4 0 0 2 0 4"
    ascent="800"
    descent="-200"
    x-height="607"
    cap-height="748"
    bbox="-57 -272 1450 1093"
    underline-thickness="50"
    underline-position="-50"
    unicode-range="U+0020-U+FB02"
  />
<missing-glyph horiz-adv-x="892" 
d="M100 748h692v-748h-692v748zM687 100v548h-482v-548h482z" />
    <glyph glyph-name="fi" unicode="fi" horiz-adv-x="780" 
d="M280 607h410v-607h-130v495h-280v-495h-130v495h-120v112h120v16q0 130 74 195.5t204 65.5q49 0 98 -11t76 -27v-120q-67 44 -182 44q-70 0 -105 -35t-35 -113v-15z" />
    <glyph glyph-name="fl" unicode="fl" horiz-adv-x="781" 
d="M562 866h129v-866h-130v749q-55 21 -140 21q-69 0 -104.5 -35t-35.5 -113v-15h155v-112h-155v-495h-130v495h-121v112h121v16q0 130 74 195.5t204 65.5q71 0 133 -18z" />
    <glyph glyph-name=".notdef" horiz-adv-x="892" 
d="M100 748h692v-748h-692v748zM687 100v548h-482v-548h482z" />
    <glyph glyph-name=".null" horiz-adv-x="0" 
 />
    <glyph glyph-name="nonmarkingreturn" horiz-adv-x="333" 
 />
    <glyph glyph-name="space" unicode=" " horiz-adv-x="415" 
 />
    <glyph glyph-name="exclam" unicode="!" horiz-adv-x="371" 
d="M118 748h135v-520h-135v520zM273 70q0 36 -25 61.5t-61 25.5t-62.5 -25.5t-26.5 -61.5t26.5 -62t62.5 -26t61 25.5t25 62.5z" />
    <glyph glyph-name="quotedbl" unicode="&#x22;" horiz-adv-x="380" 
d="M233 766h102v-243h-102v243zM45 766h102v-243h-102v243z" />
    <glyph glyph-name="numbersign" unicode="#" horiz-adv-x="1028" 
d="M908 441h-181l-37 -134h182l-31 -110h-181l-54 -197h-114l54 197h-177l-54 -197h-114l54 197h-181l30 110h181l37 134h-181l30 110h181l54 197h114l-54 -197h177l54 197h114l-54 -197h181zM576 307l37 134h-177l-37 -134h177z" />
    <glyph glyph-name="dollar" unicode="$" 
d="M675 196q0 -183 -238 -210v-111h-120v107q-146 5 -242 59v132q107 -70 273 -70q191 0 191 94q0 50 -51 80.5t-159 62.5q-43 13 -72.5 23.5t-66 30t-58.5 41.5t-37.5 56t-15.5 75q0 81 61.5 131.5t176.5 63.5v112h120v-108q125 -8 208 -56v-136q-98 72 -244 72
q-78 0 -132 -20t-54 -59q0 -10 2 -19t8 -16.5t12 -13.5t18 -12.5t21.5 -10.5t28 -10.5t31 -10.5l38 -12l41.5 -13q56 -18 95.5 -36t80.5 -47.5t62.5 -72t21.5 -96.5z" />
    <glyph glyph-name="percent" unicode="%" horiz-adv-x="1053" 
d="M715 748h108l-486 -748h-107zM267 766q92 0 146.5 -56.5t54.5 -137.5q0 -82 -54.5 -138t-146.5 -56q-93 0 -147.5 56t-54.5 138q0 81 54.5 137.5t147.5 56.5zM267 462q50 0 75.5 31t25.5 79t-25.5 79t-75.5 31t-76 -30.5t-26 -79.5t26 -79.5t76 -30.5zM786 370
q93 0 147.5 -56.5t54.5 -137.5q0 -82 -54.5 -138t-147.5 -56q-92 0 -146.5 56t-54.5 138q0 81 54.5 137.5t146.5 56.5zM786 66q50 0 76 30.5t26 79.5t-26 79.5t-76 30.5t-75.5 -31t-25.5 -79t25.5 -79t75.5 -31z" />
    <glyph glyph-name="ampersand" unicode="&#x26;" horiz-adv-x="820" 
d="M657 156l149 -156h-174l-68 70q-108 -88 -240 -88q-118 0 -188.5 57.5t-70.5 152.5q0 81 46 134t120 96l-127 133v193h486v-119h-382l356 -374q16 16 32 51.5t24 67.5h149q-12 -52 -48 -117.5t-64 -100.5zM323 101q88 0 154 62l-163 170q-114 -51 -114 -145
q0 -39 35.5 -63t87.5 -24z" />
    <glyph glyph-name="quotesingle" unicode="'" horiz-adv-x="192" 
d="M45 766h102v-243h-102v243z" />
    <glyph glyph-name="parenleft" unicode="(" horiz-adv-x="406" 
d="M361 853q-87 -127 -128 -237.5t-41 -241.5t41 -241.5t128 -237.5h-140q-146 227 -146 479t146 479h140z" />
    <glyph glyph-name="parenright" unicode=")" horiz-adv-x="406" 
d="M45 853h140q146 -227 146 -479t-146 -479h-140q87 127 128 237.5t41 241.5t-41 241.5t-128 237.5z" />
    <glyph glyph-name="asterisk" unicode="*" horiz-adv-x="519" 
d="M459 658l-126 -78l126 -78l-49 -74l-109 76l3 -110h-89l3 110l-109 -76l-49 74l125 78l-125 78l49 74l109 -76l-3 110h89l-4 -110l110 76z" />
    <glyph glyph-name="plus" unicode="+" horiz-adv-x="613" 
d="M528 428v-107h-169v-168h-107v168h-167v107h167v168h107v-168h169z" />
    <glyph glyph-name="comma" unicode="," horiz-adv-x="315" 
d="M285 152l-154 -243h-116l121 243h149z" />
    <glyph glyph-name="hyphen" unicode="-" horiz-adv-x="551" 
d="M70 428h411v-107h-411v107z" />
    <glyph glyph-name="period" unicode="." horiz-adv-x="275" 
d="M225 70q0 -37 -25 -62.5t-61 -25.5t-62.5 26t-26.5 62t26.5 61.5t62.5 25.5t61 -25.5t25 -61.5z" />
    <glyph glyph-name="slash" unicode="/" horiz-adv-x="521" 
d="M366 748h120l-331 -748h-120z" />
    <glyph glyph-name="zero" unicode="0" horiz-adv-x="836" 
d="M418 766q105 0 184.5 -56t119 -144t39.5 -192t-39.5 -192t-119 -144t-184.5 -56t-184.5 56t-119 144t-39.5 192t39.5 192t119 144t184.5 56zM418 102q93 0 150.5 81.5t57.5 190.5t-57.5 190.5t-150.5 81.5t-150.5 -81.5t-57.5 -190.5t57.5 -190.5t150.5 -81.5z" />
    <glyph glyph-name="one" unicode="1" horiz-adv-x="570" 
d="M240 748h220v-748h-135v661l-182 -182l-88 90z" />
    <glyph glyph-name="two" unicode="2" horiz-adv-x="680" 
d="M176 118h419v-118h-520v193l224 165l61.5 45.5t44 38.5t37.5 48.5t10 49.5q0 57 -37 81.5t-117 24.5q-126 0 -216 -65v130q91 55 214 55q146 0 218.5 -59t72.5 -168q0 -43 -17.5 -82t-48.5 -71.5t-68.5 -63t-81.5 -62.5q-18 -12 -27 -19z" />
    <glyph glyph-name="three" unicode="3" horiz-adv-x="663" 
d="M457 407q60 -21 95.5 -71t35.5 -126q0 -61 -25 -106.5t-69 -71t-96 -38t-113 -12.5q-113 0 -210 51v130q96 -61 207 -61q78 0 124.5 26t46.5 80q0 130 -163 130h-44v115h39q54 0 99 26.5t45 70.5q0 96 -144 96q-45 0 -102 -13t-101 -41v125q85 49 205 49q126 0 199 -55
t73 -156q0 -49 -29.5 -87t-72.5 -61z" />
    <glyph glyph-name="four" unicode="4" horiz-adv-x="739" 
d="M580 141v-141h-132v141h-383v178l299 429h216v-492h109v-115h-109zM166 256h282v405z" />
    <glyph glyph-name="five" unicode="5" horiz-adv-x="688" 
d="M370 478q119 0 181 -68.5t62 -175.5q0 -109 -74 -180.5t-221 -71.5q-140 0 -233 53v127q92 -60 222 -60q88 0 129.5 37t41.5 95q0 127 -124 127q-59 0 -93 -39h-159v426h504v-117h-377v-210q50 57 141 57z" />
    <glyph glyph-name="six" unicode="6" horiz-adv-x="708" 
d="M361 490q134 0 203 -71t69 -183q0 -107 -73 -180.5t-200 -73.5q-138 0 -211.5 98.5t-73.5 282.5q0 180 91 291.5t234 111.5q124 0 208 -49v-127q-89 58 -204 58q-76 0 -131.5 -60t-66.5 -156q69 58 155 58zM360 99q62 0 100 39t38 98q0 140 -137 140q-70 0 -152 -56
q0 -104 42 -162.5t109 -58.5z" />
    <glyph glyph-name="seven" unicode="7" horiz-adv-x="602" 
d="M562 748v-195l-312 -553h-154l365 628h-421v120h522z" />
    <glyph glyph-name="eight" unicode="8" horiz-adv-x="730" 
d="M524 403q131 -50 131 -191q0 -100 -73 -165t-217 -65q-145 0 -217.5 65t-72.5 165q0 141 131 191q-44 24 -71 63t-27 85q0 94 64.5 154.5t192.5 60.5t192.5 -60.5t64.5 -154.5q0 -46 -27 -85t-71 -63zM365 651q-125 0 -125 -100q0 -50 37 -75t88 -25t88 25t37 75
q0 100 -125 100zM365 99q70 0 112.5 31t42.5 86t-39 89t-116 34t-116 -34t-39 -89t42 -86t113 -31z" />
    <glyph glyph-name="nine" unicode="9" horiz-adv-x="708" 
d="M348 766q138 0 211.5 -98.5t73.5 -282.5q0 -181 -90 -292t-236 -111q-123 0 -208 48v128q89 -58 204 -58q81 0 134 59.5t64 156.5q-67 -58 -155 -58q-133 0 -202 71t-69 183q0 107 72.5 180.5t200.5 73.5zM346 372q69 0 153 55q0 105 -42 163.5t-109 58.5q-62 0 -100 -39
t-38 -98q0 -140 136 -140z" />
    <glyph glyph-name="colon" unicode=":" horiz-adv-x="275" 
d="M225 520q0 -37 -25 -62.5t-61 -25.5t-62.5 26t-26.5 62t26.5 61.5t62.5 25.5t61 -25.5t25 -61.5zM225 70q0 -37 -25 -62.5t-61 -25.5t-62.5 26t-26.5 62t26.5 61.5t62.5 25.5t61 -25.5t25 -61.5z" />
    <glyph glyph-name="semicolon" unicode=";" horiz-adv-x="325" 
d="M265 152l-154 -243h-116l121 243h149zM265 520q0 -37 -25 -62.5t-61 -25.5t-62.5 26t-26.5 62t26.5 61.5t62.5 25.5t61 -25.5t25 -61.5z" />
    <glyph glyph-name="less" unicode="&#x3c;" horiz-adv-x="567" 
d="M492 669v-125l-355 -170l355 -167v-125l-417 207v173z" />
    <glyph glyph-name="equal" unicode="=" horiz-adv-x="624" 
d="M75 437v107h474v-107h-474zM75 208v107h474v-107h-474z" />
    <glyph glyph-name="greater" unicode="&#x3e;" horiz-adv-x="567" 
d="M75 544v125l417 -207v-173l-417 -207v125l355 167z" />
    <glyph glyph-name="question" unicode="?" horiz-adv-x="619" 
d="M345 228h-135v201q84 0 140 30t56 88q0 45 -35.5 70.5t-97.5 25.5q-114 0 -213 -63v132q89 54 213 54q117 0 194 -58.5t77 -160.5q0 -84 -60 -139.5t-139 -67.5v-112zM364 70q0 -37 -25 -62.5t-61 -25.5t-62.5 26t-26.5 62t26.5 61.5t62.5 25.5t61 -25.5t25 -61.5z" />
    <glyph glyph-name="at" unicode="@" horiz-adv-x="1019" 
d="M511 777q177 0 292.5 -105.5t115.5 -277.5q0 -46 -8.5 -86t-27.5 -75.5t-54.5 -56.5t-83.5 -21q-67 0 -98 53q-58 -51 -152 -51q-92 0 -149 61t-57 154q0 94 63 158.5t158 64.5q86 0 141 -38.5t75 -91.5v-179q0 -17 10 -27.5t28 -10.5q26 0 41.5 27.5t19.5 57t4 62.5
q0 137 -90 217.5t-228 80.5q-139 -1 -229.5 -91.5t-90.5 -229.5q0 -148 90.5 -234t232.5 -86q104 0 163 39v-94q-63 -29 -163 -29q-181 0 -297 112.5t-116 293.5q0 175 118 289t292 114zM621 315v126q-14 25 -43.5 38.5t-63.5 13.5q-50 0 -80 -34t-30 -87q0 -51 29 -82
t81 -31q34 0 63.5 14.5t43.5 41.5z" />
    <glyph glyph-name="A" unicode="A" horiz-adv-x="933" 
d="M248 167l-72 -167h-144l332 748h203l334 -748h-146l-73 167h-434zM297 282h336l-168 380z" />
    <glyph glyph-name="B" unicode="B" horiz-adv-x="780" 
d="M572 415q62 -22 100 -68t38 -116q0 -116 -71.5 -173.5t-186.5 -57.5h-352v748h297q119 0 187 -51t68 -147q0 -86 -80 -135zM233 634v-184h154q53 0 92.5 22.5t39.5 66.5q0 95 -121 95h-165zM425 115q148 0 148 116q0 35 -13.5 58t-39 33.5t-50 14t-58.5 3.5h-179v-225
h192z" />
    <glyph glyph-name="C" unicode="C" horiz-adv-x="789" 
d="M493 766q132 0 221 -58v-134q-40 30 -99.5 49.5t-121.5 19.5q-123 0 -200.5 -71.5t-77.5 -197.5q0 -123 79 -196t199 -73q117 0 221 68v-135q-91 -56 -221 -56q-182 0 -300 108.5t-118 283.5q0 181 114.5 286.5t303.5 105.5z" />
    <glyph glyph-name="D" unicode="D" horiz-adv-x="873" 
d="M385 748q192 0 302.5 -105t110.5 -267q-1 -164 -113 -270t-311 -106h-274v748h285zM373 117q133 0 209 70t76 190t-76 187t-212 67h-135v-514h138z" />
    <glyph glyph-name="E" unicode="E" horiz-adv-x="738" 
d="M235 117h428v-117h-563v748h557v-117h-422v-178h404v-115h-404v-221z" />
    <glyph glyph-name="F" unicode="F" horiz-adv-x="676" 
d="M626 631h-391v-177h325v-117h-325v-337h-135v748h526v-117z" />
    <glyph glyph-name="G" unicode="G" horiz-adv-x="834" 
d="M622 383h132v-336q-51 -30 -124.5 -47.5t-142.5 -17.5q-181 0 -296.5 108.5t-115.5 283.5q0 180 115.5 286t304.5 106q132 0 229 -57v-135q-95 69 -229 69q-123 0 -201.5 -71.5t-78.5 -197.5q0 -123 78 -196t194 -73q73 0 135 24v254z" />
    <glyph glyph-name="H" unicode="H" horiz-adv-x="903" 
d="M668 748h135v-748h-135v337h-433v-337h-135v748h135v-294h433v294z" />
    <glyph glyph-name="I" unicode="I" horiz-adv-x="345" 
d="M105 748h135v-748h-135v748z" />
    <glyph glyph-name="J" unicode="J" horiz-adv-x="597" 
d="M110 748h387v-485q0 -141 -73 -211t-207 -70q-48 0 -98 14t-74 32v130q69 -53 170 -53q147 0 147 154v369h-252v120z" />
    <glyph glyph-name="K" unicode="K" horiz-adv-x="839" 
d="M795 748l-339 -263l349 -485h-164l-285 408l-121 -95v-313h-135v748h135v-284l364 284h196z" />
    <glyph glyph-name="L" unicode="L" horiz-adv-x="659" 
d="M235 120h394v-120h-529v748h135v-628z" />
    <glyph glyph-name="M" unicode="M" horiz-adv-x="1181" 
d="M1081 748v-748h-132v661l-257 -661h-205l-255 661v-661h-132v748h235l254 -661l256 661h236z" />
    <glyph glyph-name="N" unicode="N" horiz-adv-x="908" 
d="M676 748h132v-748h-230l-346 660v-660h-132v748h228l348 -661v661z" />
    <glyph glyph-name="O" unicode="O" horiz-adv-x="993" 
d="M496 -18q-188 0 -304.5 107.5t-116.5 284.5q0 176 116.5 284t304.5 108q189 0 305.5 -108t116.5 -284q0 -177 -116.5 -284.5t-305.5 -107.5zM496 643q-124 0 -202.5 -72.5t-78.5 -196.5t78.5 -196.5t202.5 -72.5q125 0 203.5 72.5t78.5 196.5t-78.5 196.5t-203.5 72.5z
" />
    <glyph glyph-name="P" unicode="P" horiz-adv-x="751" 
d="M427 748q111 0 185 -64.5t74 -175.5t-73 -175.5t-184 -64.5h-194v-268h-135v748h327zM429 385q53 0 86 33.5t33 89.5q0 57 -33.5 89.5t-87.5 32.5h-192v-245h194z" />
    <glyph glyph-name="Q" unicode="Q" horiz-adv-x="993" 
d="M943 -18h-168l-51 53q-100 -53 -228 -53q-188 0 -304.5 107.5t-116.5 284.5q0 176 116.5 284t304.5 108q189 0 305.5 -108t116.5 -284q0 -159 -98 -265zM496 105q71 0 133 27l-160 163h169l87 -89q53 69 53 168q0 124 -78.5 196.5t-203.5 72.5q-124 0 -202.5 -72.5
t-78.5 -196.5t78.5 -196.5t202.5 -72.5z" />
    <glyph glyph-name="R" unicode="R" horiz-adv-x="767" 
d="M540 325l210 -325h-158l-185 298h-172v-298h-135v748h328q106 0 177.5 -64t71.5 -159q0 -67 -38.5 -119.5t-98.5 -80.5zM401 412q57 0 98.5 28t41.5 79q0 55 -32 83t-87 28h-187v-218h166z" />
    <glyph glyph-name="S" unicode="S" 
d="M415 448q56 -18 95.5 -36t80.5 -47.5t62.5 -72t21.5 -96.5q0 -214 -327 -214q-167 0 -273 60v131q106 -70 273 -70q191 0 191 94q0 50 -51 80.5t-159 62.5q-43 13 -72.5 23.5t-66 30t-58.5 41.5t-37.5 56t-15.5 75q0 95 83 147.5t237 52.5q147 0 246 -57v-136
q-98 72 -244 72q-79 0 -132.5 -20t-53.5 -59q0 -10 2 -19t8 -16.5t12 -13.5t18 -12.5t21.5 -10.5t28 -10.5t31 -10.5l38 -12z" />
    <glyph glyph-name="T" unicode="T" horiz-adv-x="741" 
d="M30 748h681v-120h-273v-628h-135v628h-273v120z" />
    <glyph glyph-name="U" unicode="U" horiz-adv-x="874" 
d="M639 748h135v-471q0 -145 -88 -220t-249 -75t-249 75t-88 220v471h135v-475q0 -168 202 -168t202 168v475z" />
    <glyph glyph-name="V" unicode="V" horiz-adv-x="893" 
d="M711 748h147l-303 -748h-218l-302 748h146l265 -662z" />
    <glyph glyph-name="W" unicode="W" horiz-adv-x="1373" 
d="M1338 748l-257 -748h-216l-182 660l-183 -660h-218l-247 748h143l214 -662l180 662h226l174 -662l223 662h143z" />
    <glyph glyph-name="X" unicode="X" horiz-adv-x="849" 
d="M818 0h-159l-232 356l-237 -356h-159l276 403l-240 345h160l201 -298l202 298h156l-237 -345z" />
    <glyph glyph-name="Y" unicode="Y" horiz-adv-x="807" 
d="M629 748h144l-388 -748h-144l132 255h-76l-263 493h150l224 -426z" />
    <glyph glyph-name="Z" unicode="Z" horiz-adv-x="741" 
d="M165 118h521v-118h-626v189l495 441h-473v118h578v-189z" />
    <glyph glyph-name="bracketleft" unicode="[" horiz-adv-x="414" 
d="M354 748h-139v-748h139v-105h-254v958h254v-105z" />
    <glyph glyph-name="backslash" unicode="\" horiz-adv-x="521" 
d="M35 748h120l331 -748h-120z" />
    <glyph glyph-name="bracketright" unicode="]" horiz-adv-x="414" 
d="M199 748h-139v105h254v-958h-254v105h139v748z" />
    <glyph glyph-name="asciicircum" unicode="^" horiz-adv-x="766" 
d="M463 766l228 -428h-125l-183 355l-182 -355h-126l228 428h160z" />
    <glyph glyph-name="underscore" unicode="_" horiz-adv-x="698" 
d="M0 -120h698v-100h-698v100z" />
    <glyph glyph-name="grave" unicode="`" horiz-adv-x="358" 
d="M188 977l140 -142h-147l-151 142h158z" />
    <glyph glyph-name="a" unicode="a" horiz-adv-x="728" 
d="M683 102q6 0 15 3v-111q-18 -6 -41 -6q-95 0 -143 82q-27 -36 -77.5 -62t-113.5 -26q-117 0 -187.5 57.5t-70.5 155.5q0 88 75 147.5t169 59.5q55 0 116 -23.5t69 -23.5v44q0 56 -46.5 86t-119.5 30q-131 0 -224 -67v121q89 57 218 57q133 0 216.5 -61.5t83.5 -153.5
v-260q0 -49 61 -49zM494 212v42q-13 0 -74.5 22t-105.5 22q-50 0 -83 -28.5t-33 -74.5q0 -51 36 -78.5t102 -27.5q67 0 112.5 33t45.5 90z" />
    <glyph glyph-name="b" unicode="b" horiz-adv-x="835" 
d="M431 626q152 0 245.5 -88.5t93.5 -234.5q0 -145 -93.5 -233t-245.5 -88q-61 0 -117.5 22.5t-93.5 66.5v-71h-130v866h130v-330q37 44 93.5 67t117.5 23zM417 96q96 0 157 55.5t61 151.5t-61 152.5t-157 56.5q-207 0 -207 -209q0 -207 207 -207z" />
    <glyph glyph-name="c" unicode="c" horiz-adv-x="689" 
d="M424 626q121 0 200 -49v-123q-35 25 -89.5 41.5t-110.5 16.5q-100 0 -162 -54.5t-62 -153.5q0 -98 63 -153t161 -55q106 0 200 58v-124q-84 -48 -200 -48q-159 0 -259 89t-100 233q0 150 97.5 236t261.5 86z" />
    <glyph glyph-name="d" unicode="d" horiz-adv-x="834" 
d="M65 303q0 146 93 234.5t245 88.5q60 0 116.5 -23.5t94.5 -66.5v330h130v-866h-130v71q-37 -44 -93.5 -66.5t-117.5 -22.5q-152 0 -245 88t-93 233zM200 303q0 -96 60.5 -151.5t156.5 -55.5q207 0 207 207q0 209 -207 209q-96 0 -156.5 -56.5t-60.5 -152.5z" />
    <glyph glyph-name="e" unicode="e" 
d="M685 291v-24h-492q12 -80 67.5 -127t137.5 -47q136 0 234 56v-118q-96 -49 -233 -49q-146 0 -240 92t-94 230q0 143 89 232.5t219 89.5q144 0 228 -86t84 -249zM198 370h360q-26 146 -185 146q-62 0 -109 -37.5t-66 -108.5z" />
    <glyph glyph-name="f" unicode="f" horiz-adv-x="567" 
d="M398 884q84 0 144 -31v-117q-70 34 -145 34q-62 0 -89 -35.5t-27 -112.5v-15h217v-112h-217v-495h-130v495h-121v112h121v16q0 129 66.5 195t180.5 66z" />
    <glyph glyph-name="g" unicode="g" horiz-adv-x="835" 
d="M615 607h130v-523q0 -163 -84.5 -252.5t-258.5 -89.5q-95 0 -155.5 14.5t-119.5 43.5v129q64 -38 125.5 -54.5t140.5 -16.5q116 0 169 49.5t53 155.5v23q-76 -86 -211 -86q-149 0 -244 83.5t-95 220.5q0 147 92 234.5t247 87.5q59 0 116 -23.5t95 -66.5v71zM418 112
q97 0 151.5 50t54.5 142q0 208 -206 208q-98 0 -158 -55.5t-60 -152.5q0 -88 63.5 -140t154.5 -52z" />
    <glyph glyph-name="h" unicode="h" horiz-adv-x="772" 
d="M682 0h-130v387q0 65 -28.5 95t-99.5 30q-96 0 -150 -44t-54 -121v-347h-130v866h130v-332q36 46 91.5 69t111.5 23q125 0 192 -59t67 -165v-402z" />
    <glyph glyph-name="i" unicode="i" horiz-adv-x="320" 
d="M238 781q0 -32 -23 -55t-55 -23q-33 0 -56 23t-23 55q0 33 23 56t56 23q32 0 55 -23t23 -56zM95 0v607h130v-607h-130z" />
    <glyph glyph-name="j" unicode="j" horiz-adv-x="430" 
d="M344 781q0 -32 -23 -55t-55 -23q-33 0 -56 23t-23 55q0 33 23 56t56 23q32 0 55 -23t23 -56zM60 607h280v-584q0 -281 -254 -281q-47 0 -79 10v114q36 -10 77 -10q126 0 126 163v476h-150v112z" />
    <glyph glyph-name="k" unicode="k" horiz-adv-x="729" 
d="M404 403l291 -403h-159l-230 332l-86 -63v-269h-130v866h130v-464l277 205h185z" />
    <glyph glyph-name="l" unicode="l" horiz-adv-x="320" 
d="M95 866h130v-866h-130v866z" />
    <glyph glyph-name="m" unicode="m" horiz-adv-x="1143" 
d="M1053 0h-130v387q0 64 -24 94.5t-76 30.5q-82 0 -134 -45.5t-52 -119.5v-347h-130v387q0 64 -22.5 94.5t-74.5 30.5q-82 0 -136 -46t-54 -119v-347h-130v607h130v-73q30 42 84 67t113 25q70 0 119 -31.5t71 -84.5q30 50 92 83t131 33q104 0 163.5 -61.5t59.5 -162.5v-402
z" />
    <glyph glyph-name="n" unicode="n" horiz-adv-x="772" 
d="M682 0h-130v387q0 65 -29 95t-100 30q-95 0 -149 -44t-54 -121v-347h-130v607h130v-73q36 46 91.5 69t111.5 23q125 0 192 -59t67 -165v-402z" />
    <glyph glyph-name="o" unicode="o" horiz-adv-x="842" 
d="M421 626q155 0 255.5 -89t100.5 -233t-101 -233t-255 -89q-155 0 -255.5 89t-100.5 233t100.5 233t255.5 89zM421 96q97 0 159 56t62 152t-62 152t-159 56t-159 -56t-62 -152t62 -152t159 -56z" />
    <glyph glyph-name="p" unicode="p" horiz-adv-x="835" 
d="M770 304q0 -144 -94.5 -233t-244.5 -89q-60 0 -116.5 23t-94.5 66v-311h-130v847h130v-71q38 44 94.5 67t116.5 23q155 0 247 -87.5t92 -234.5zM635 304q0 97 -60 152.5t-158 55.5q-207 0 -207 -208t207 -208q93 0 155.5 57t62.5 151z" />
    <glyph glyph-name="q" unicode="q" horiz-adv-x="834" 
d="M403 -18q-149 0 -243.5 89t-94.5 233q0 147 92 234.5t246 87.5q60 0 116.5 -23.5t94.5 -66.5v71h130v-847h-130v311q-37 -43 -93.5 -66t-117.5 -23zM417 512q-98 0 -157.5 -55.5t-59.5 -152.5q0 -94 62 -151t155 -57q207 0 207 208t-207 208z" />
    <glyph glyph-name="r" unicode="r" horiz-adv-x="543" 
d="M410 626q55 0 98 -19v-126q-44 25 -99 25q-93 0 -141 -48.5t-48 -134.5v-323h-130v607h130v-85q30 49 83 76.5t107 27.5z" />
    <glyph glyph-name="s" unicode="s" horiz-adv-x="659" 
d="M362 367q34 -10 48.5 -15t45 -16.5t45 -21t36 -26t31.5 -34t18 -42.5t8 -54q0 -176 -289 -176q-139 0 -235 49v121q106 -60 235 -60q84 0 120 16.5t36 49.5q0 37 -39.5 58t-133.5 47q-44 13 -77.5 27t-67.5 37t-52.5 57t-18.5 77q0 78 72 121.5t204 43.5q135 0 218 -47
v-122q-83 59 -216 59q-145 0 -145 -55q0 -29 32.5 -47.5t124.5 -46.5z" />
    <glyph glyph-name="t" unicode="t" horiz-adv-x="568" 
d="M379 96q81 0 154 49v-126q-74 -37 -166 -37q-216 0 -216 221v292h-121v112h121v141h130v-141h215v-112h-215v-298q0 -101 98 -101z" />
    <glyph glyph-name="u" unicode="u" horiz-adv-x="764" 
d="M544 607h130v-368q0 -122 -76.5 -189.5t-215.5 -67.5q-138 0 -215 67.5t-77 189.5v368h130v-364q0 -147 162 -147t162 147v364z" />
    <glyph glyph-name="v" unicode="v" horiz-adv-x="736" 
d="M567 607h139l-237 -607h-202l-237 607h139l199 -531z" />
    <glyph glyph-name="w" unicode="w" horiz-adv-x="1132" 
d="M1102 607l-200 -607h-202l-135 532l-142 -532h-202l-191 607h134l160 -530l138 530h210l130 -530l167 530h133z" />
    <glyph glyph-name="x" unicode="x" horiz-adv-x="701" 
d="M461 330l211 -330h-146l-175 282l-177 -282h-145l214 329l-187 278h146l150 -230l153 230h144z" />
    <glyph glyph-name="y" unicode="y" horiz-adv-x="751" 
d="M583 607h139l-391 -847h-139l153 325h-64l-252 522h144l208 -444z" />
    <glyph glyph-name="z" unicode="z" horiz-adv-x="638" 
d="M566 431l-410 -321h432v-110h-533v177l408 320h-389v110h492v-176z" />
    <glyph glyph-name="braceleft" unicode="{" horiz-adv-x="448" 
d="M249 510q0 -109 -60 -136q60 -27 60 -135v-162q0 -33 17 -55t47 -22h75v-105h-75q-88 0 -133.5 49t-45.5 130v137q0 26 -0.5 38.5t-4 29t-10 23.5t-18.5 12.5t-31 5.5v108q19 0 31 5.5t18.5 12.5t10 23.5t4 29t0.5 38.5v137q0 81 45.5 130t133.5 49h75v-105h-75
q-30 0 -47 -22t-17 -55v-161z" />
    <glyph glyph-name="bar" unicode="|" horiz-adv-x="300" 
d="M100 -135v1019h100v-1019h-100z" />
    <glyph glyph-name="braceright" unicode="}" horiz-adv-x="448" 
d="M199 510v161q0 33 -17 55t-47 22h-75v105h75q88 0 133.5 -49t45.5 -130v-137q0 -26 0.5 -38.5t4 -29t10 -23.5t18.5 -12.5t31 -5.5v-108q-19 0 -31 -5.5t-18.5 -12.5t-10 -23.5t-4 -29t-0.5 -38.5v-137q0 -81 -45.5 -130t-133.5 -49h-75v105h75q30 0 47 22t17 55v162
q0 108 60 135q-60 27 -60 136z" />
    <glyph glyph-name="asciitilde" unicode="~" horiz-adv-x="803" 
d="M283 388q-66 0 -83 -63h-135q10 88 72.5 129t144.5 41q60 0 129.5 -33t100.5 -33q35 0 59.5 16.5t31.5 46.5h135q-9 -82 -66.5 -125.5t-154.5 -43.5q-48 0 -90.5 16.5t-77.5 32.5t-66 16z" />
    <glyph glyph-name="exclamdown" unicode="&#xa1;" horiz-adv-x="371" 
d="M253 -201h-135v520h135v-520zM98 477q0 37 25 62.5t61 25.5t62.5 -26t26.5 -62t-26.5 -61.5t-62.5 -25.5t-61 25.5t-25 61.5z" />
    <glyph glyph-name="sterling" unicode="&#xa3;" horiz-adv-x="649" 
d="M230 120h369v-120h-539v120q26 0 43.5 20t17.5 46v138h-61v104h61v57q0 138 79.5 209.5t210.5 71.5q106 0 162 -33v-129q-67 39 -160 39q-68 0 -112.5 -37.5t-44.5 -116.5v-61h228v-104h-228v-137q0 -45 -26 -67z" />
    <glyph glyph-name="currency" unicode="&#xa4;" horiz-adv-x="767" 
d="M657 374q0 -88 -48 -155l94 -94l-71 -71l-93 94q-71 -48 -155 -48q-85 0 -155 48l-94 -94l-70 71l93 94q-48 70 -48 155q0 84 48 154l-93 94l70 71l94 -94q70 48 155 48q84 0 155 -48l93 94l71 -71l-94 -94q48 -68 48 -154zM384 215q65 0 111.5 46.5t46.5 112.5
q0 65 -46.5 111.5t-111.5 46.5q-66 0 -112.5 -46.5t-46.5 -111.5q0 -66 46.5 -112.5t112.5 -46.5z" />
    <glyph glyph-name="yen" unicode="&#xa5;" horiz-adv-x="813" 
d="M778 748l-227 -315h142v-98h-219v-95h219v-98h-219v-142h-135v142h-219v98h219v95h-219v98h142l-227 315h155l217 -310l216 310h155z" />
    <glyph glyph-name="brokenbar" unicode="&#xa6;" horiz-adv-x="300" 
d="M100 449v435h100v-435h-100zM100 -135v434h100v-434h-100z" />
    <glyph glyph-name="section" unicode="&#xa7;" horiz-adv-x="697" 
d="M535 213q87 -54 87 -135q0 -169 -276 -169q-144 0 -241 59v120q108 -74 245 -74q152 0 152 65q0 18 -14.5 34t-41.5 28.5t-50.5 21.5t-58 19.5t-46.5 14.5q-106 38 -145 64q-71 48 -71 122q0 43 21.5 72t65.5 53q-87 54 -87 135q0 89 75.5 129t200.5 40q68 0 134.5 -16.5
t106.5 -43.5v-120q-107 75 -245 75q-152 0 -152 -65q0 -18 14.5 -34.5t41.5 -29t50.5 -21t57.5 -19l47 -14.5q106 -38 145 -64q71 -48 71 -122q0 -43 -21.5 -72t-65.5 -53zM195 384q0 -16 11 -30t32.5 -24.5t37 -17t40.5 -14t27 -8.5q40 -12 96 -32q27 8 45 30t18 49
q0 13 -9 25.5t-21 21t-32 17t-32 12.5t-32 10t-22 7q-77 26 -96 33q-27 -8 -45 -30t-18 -49z" />
    <glyph glyph-name="dieresis" unicode="&#xa8;" horiz-adv-x="504" 
d="M187 908q0 -30 -21.5 -51.5t-52.5 -21.5q-30 0 -51.5 21.5t-21.5 51.5q0 31 21.5 52.5t51.5 21.5q31 0 52.5 -21.5t21.5 -52.5zM464 908q0 -30 -21.5 -51.5t-52.5 -21.5q-30 0 -51.5 21.5t-21.5 51.5q0 31 21.5 52.5t51.5 21.5q31 0 52.5 -21.5t21.5 -52.5z" />
    <glyph glyph-name="copyright" unicode="&#xa9;" horiz-adv-x="875" 
d="M437 693q-109 0 -186.5 -78t-77.5 -186q0 -110 77.5 -187t186.5 -77q110 0 187.5 78t77.5 186q0 109 -78 186.5t-187 77.5zM437 766q140 0 239 -98.5t99 -238.5t-99 -238.5t-239 -98.5q-139 0 -238 99t-99 238t99 238t238 99zM267 429q0 77 50 124t134 47q57 0 98 -24
v-86q-43 28 -98 28q-42 0 -67.5 -26t-25.5 -63q0 -36 25.5 -62t67.5 -26q56 0 98 31v-87q-39 -26 -98 -26q-84 0 -134 46t-50 124z" />
    <glyph glyph-name="guillemotleft" unicode="&#xab;" horiz-adv-x="664" 
d="M317 596v-141l-172 -153l172 -152v-141l-242 214v159zM589 596v-141l-172 -153l172 -152v-141l-242 214v159z" />
    <glyph glyph-name="logicalnot" unicode="&#xac;" horiz-adv-x="634" 
d="M559 216h-107v129h-377v107h484v-236z" />
    <glyph glyph-name="uni00AD" unicode="&#xad;" horiz-adv-x="396" 
 />
    <glyph glyph-name="registered" unicode="&#xae;" horiz-adv-x="874" 
d="M437 693q-109 0 -186.5 -78t-77.5 -186q0 -109 77.5 -186.5t186.5 -77.5q108 0 186 77t78 187q0 109 -78 186.5t-186 77.5zM437 766q139 0 238 -99t99 -238t-99 -238t-238 -99t-238 99t-99 238t99 238t238 99zM567 482q0 -52 -41 -86l55 -131h-93l-37 109h-53v-109h-83
v328h136q47 0 81.5 -32t34.5 -79zM445 442q13 0 23.5 12t10.5 29q0 14 -10.5 26.5t-23.5 12.5h-47v-80h47z" />
    <glyph glyph-name="macron" unicode="&#xaf;" horiz-adv-x="499" 
d="M50 835v90h399v-90h-399z" />
    <glyph glyph-name="degree" unicode="&#xb0;" horiz-adv-x="474" 
d="M237 681q-32 0 -54.5 -22.5t-22.5 -54.5t23 -54.5t54 -22.5t54 22.5t23 54.5t-22.5 54.5t-54.5 22.5zM237 766q67 0 114.5 -47.5t47.5 -114.5t-47.5 -114.5t-114.5 -47.5t-114.5 47.5t-47.5 114.5t47.5 114.5t114.5 47.5z" />
    <glyph glyph-name="plusminus" unicode="&#xb1;" horiz-adv-x="613" 
d="M528 190v-107h-443v107h443zM360 528h168v-107h-168v-155h-107v155h-168v107h168v172h107v-172z" />
    <glyph glyph-name="acute" unicode="&#xb4;" horiz-adv-x="358" 
d="M30 835l140 142h158l-151 -142h-147z" />
    <glyph glyph-name="mu" unicode="&#xb5;" horiz-adv-x="764" 
d="M544 607h130v-368q0 -122 -76.5 -189.5t-215.5 -67.5q-113 0 -162 64v-286h-130v847h130v-364q0 -147 162 -147t162 147v364z" />
    <glyph glyph-name="paragraph" unicode="&#xb6;" horiz-adv-x="583" 
d="M465 662v-662h-100v662h-84v-662h-91v438q-60 0 -100 48t-40 108q0 66 48.5 110t115.5 44h319v-86h-68z" />
    <glyph glyph-name="periodcentered" unicode="&#xb7;" horiz-adv-x="275" 
d="M225 373q0 -37 -25 -62.5t-61 -25.5t-62.5 26t-26.5 62t26.5 61.5t62.5 25.5t61 -25.5t25 -61.5z" />
    <glyph glyph-name="cedilla" unicode="&#xb8;" horiz-adv-x="316" 
d="M161 -66q48 -5 78.5 -31t30.5 -63q0 -62 -36.5 -87t-111.5 -25q-40 0 -69 9v81q27 -12 62 -12q67 0 67 32q0 45 -96 45v117h75v-66z" />
    <glyph glyph-name="guillemotright" unicode="&#xbb;" horiz-adv-x="664" 
d="M347 455v141l242 -214v-159l-242 -214v141l172 152zM75 455v141l242 -214v-159l-242 -214v141l172 152z" />
    <glyph glyph-name="onequarter" unicode="&#xbc;" horiz-adv-x="871" 
d="M632 748h108l-486 -748h-107zM142 748h138v-374h-92v301l-78 -78l-60 62zM776 145h55v-74h-55v-71h-85v71h-193v103l155 200h123v-229zM691 145v156l-121 -156h121z" />
    <glyph glyph-name="onehalf" unicode="&#xbd;" horiz-adv-x="903" 
d="M658 80h185v-80h-265v115l107 84l15 11.5l18.5 14.5t16.5 14t13.5 14t4.5 11q0 35 -60 35q-35 0 -58 -9.5t-54 -33.5v93q43 32 111 32q69 0 109.5 -30t40.5 -92q0 -12 -5.5 -24t-11.5 -21t-20.5 -22t-22 -19l-26 -20.5l-23.5 -18.5q-6 -5 -34 -24.5t-41 -29.5zM631 748
h108l-486 -748h-107zM141 748h138v-374h-92v301l-78 -78l-60 62z" />
    <glyph glyph-name="threequarters" unicode="&#xbe;" horiz-adv-x="844" 
d="M605 748h107l-485 -748h-108zM749 145h55v-74h-55v-71h-86v71h-192v103l154 200h124v-229zM663 145v156l-120 -156h120zM257 589q53 -29 53 -92q0 -62 -44 -90.5t-109 -28.5q-64 0 -110 23v92q56 -34 109 -34q13 0 26 2t26.5 11t13.5 24q0 48 -63 48h-29v75h24
q27 0 42.5 10t15.5 24q0 32 -55 32q-53 0 -107 -35v91q50 25 108 25q59 0 99 -27t40 -84q0 -40 -40 -66z" />
    <glyph glyph-name="questiondown" unicode="&#xbf;" horiz-adv-x="584" 
d="M264 319h135v-201q-84 0 -140 -30t-56 -88q0 -45 35.5 -70.5t97.5 -25.5q114 0 213 63v-132q-89 -54 -213 -54q-117 0 -194 58.5t-77 160.5q0 84 60 139.5t139 67.5v112zM245 477q0 37 25 62.5t61 25.5t62.5 -26t26.5 -62t-26.5 -61.5t-62.5 -25.5t-61 25.5t-25 61.5z
" />
    <glyph glyph-name="Agrave" unicode="&#xc0;" horiz-adv-x="933" 
d="M248 167l-72 -167h-144l332 748h203l334 -748h-146l-73 167h-434zM297 282h336l-168 380zM413 980l140 -142h-147l-151 142h158z" />
    <glyph glyph-name="Aacute" unicode="&#xc1;" horiz-adv-x="933" 
d="M248 167l-72 -167h-144l332 748h203l334 -748h-146l-73 167h-434zM297 282h336l-168 380zM377 838l140 142h158l-151 -142h-147z" />
    <glyph glyph-name="Acircumflex" unicode="&#xc2;" horiz-adv-x="933" 
d="M248 167l-72 -167h-144l332 748h203l334 -748h-146l-73 167h-434zM297 282h336l-168 380zM557 980l119 -142h-126l-86 87l-86 -87h-124l116 142h187z" />
    <glyph glyph-name="Atilde" unicode="&#xc3;" horiz-adv-x="933" 
d="M248 167l-72 -167h-144l332 748h203l334 -748h-146l-73 167h-434zM297 282h336l-168 380zM372 841h-102q0 66 39.5 98t92.5 32q32 0 69.5 -19t47.5 -19q19 0 28 8t11 27h102q0 -66 -37 -98t-98 -32q-32 0 -69.5 19t-47.5 19q-33 0 -36 -35z" />
    <glyph glyph-name="Adieresis" unicode="&#xc4;" horiz-adv-x="933" 
d="M400 911q0 -30 -21.5 -51.5t-52.5 -21.5q-30 0 -51.5 21.5t-21.5 51.5q0 31 21.5 52.5t51.5 21.5q31 0 52.5 -21.5t21.5 -52.5zM677 911q0 -30 -21.5 -51.5t-52.5 -21.5q-30 0 -51.5 21.5t-21.5 51.5q0 31 21.5 52.5t51.5 21.5q31 0 52.5 -21.5t21.5 -52.5zM248 167
l-72 -167h-144l332 748h203l334 -748h-146l-73 167h-434zM297 282h336l-168 380z" />
    <glyph glyph-name="Aring" unicode="&#xc5;" horiz-adv-x="933" 
d="M248 167l-72 -167h-144l332 748h203l334 -748h-146l-73 167h-434zM297 282h336l-168 380zM465 981q-20 0 -34 -14t-14 -34t14 -34.5t34 -14.5t34 14.5t14 34.5t-14 34t-34 14zM465 1051q49 0 83.5 -34.5t34.5 -83.5t-34.5 -84t-83.5 -35t-83.5 35t-34.5 84t34.5 83.5
t83.5 34.5z" />
    <glyph glyph-name="AE" unicode="&#xc6;" horiz-adv-x="1196" 
d="M723 117h398v-117h-533v167h-328l-83 -167h-146l382 748h702v-117h-392v-178h374v-115h-374v-221zM588 282v349h-91l-178 -349h269z" />
    <glyph glyph-name="Ccedilla" unicode="&#xc7;" horiz-adv-x="789" 
d="M493 643q-123 0 -200.5 -71.5t-77.5 -197.5q0 -123 79 -196t199 -73q117 0 221 68v-135q-81 -48 -194 -55v-49q48 -5 78.5 -31t30.5 -63q0 -62 -36.5 -87t-111.5 -25q-40 0 -69 9v81q27 -12 62 -12q67 0 67 32q0 45 -96 45v101q-164 15 -267 121.5t-103 268.5
q0 181 114.5 286.5t303.5 105.5q132 0 221 -58v-134q-40 30 -99.5 49.5t-121.5 19.5z" />
    <glyph glyph-name="Egrave" unicode="&#xc8;" horiz-adv-x="738" 
d="M235 117h428v-117h-563v748h557v-117h-422v-178h404v-115h-404v-221zM360 980l140 -142h-147l-151 142h158z" />
    <glyph glyph-name="Eacute" unicode="&#xc9;" horiz-adv-x="738" 
d="M235 117h428v-117h-563v748h557v-117h-422v-178h404v-115h-404v-221zM288 838l140 142h158l-151 -142h-147z" />
    <glyph glyph-name="Ecircumflex" unicode="&#xca;" horiz-adv-x="738" 
d="M235 117h428v-117h-563v748h557v-117h-422v-178h404v-115h-404v-221zM483 980l119 -142h-126l-86 87l-86 -87h-124l116 142h187z" />
    <glyph glyph-name="Edieresis" unicode="&#xcb;" horiz-adv-x="738" 
d="M235 117h428v-117h-563v748h557v-117h-422v-178h404v-115h-404v-221zM326 911q0 -30 -21.5 -51.5t-52.5 -21.5q-30 0 -51.5 21.5t-21.5 51.5q0 31 21.5 52.5t51.5 21.5q31 0 52.5 -21.5t21.5 -52.5zM603 911q0 -30 -21.5 -51.5t-52.5 -21.5q-30 0 -51.5 21.5t-21.5 51.5
q0 31 21.5 52.5t51.5 21.5q31 0 52.5 -21.5t21.5 -52.5z" />
    <glyph glyph-name="Igrave" unicode="&#xcc;" horiz-adv-x="345" 
d="M105 748h135v-748h-135v748zM158 980l140 -142h-147l-151 142h158z" />
    <glyph glyph-name="Iacute" unicode="&#xcd;" horiz-adv-x="345" 
d="M105 748h135v-748h-135v748zM47 838l140 142h158l-151 -142h-147z" />
    <glyph glyph-name="Icircumflex" unicode="&#xce;" horiz-adv-x="345" 
d="M105 748h135v-748h-135v748zM264 980l119 -142h-126l-86 87l-86 -87h-124l116 142h187z" />
    <glyph glyph-name="Idieresis" unicode="&#xcf;" horiz-adv-x="345" 
d="M105 748h135v-748h-135v748zM107 911q0 -30 -21.5 -51.5t-52.5 -21.5q-30 0 -51.5 21.5t-21.5 51.5q0 31 21.5 52.5t51.5 21.5q31 0 52.5 -21.5t21.5 -52.5zM384 911q0 -30 -21.5 -51.5t-52.5 -21.5q-30 0 -51.5 21.5t-21.5 51.5q0 31 21.5 52.5t51.5 21.5
q31 0 52.5 -21.5t21.5 -52.5z" />
    <glyph glyph-name="Eth" unicode="&#xd0;" horiz-adv-x="914" 
d="M427 748q192 0 302 -104.5t110 -267.5q0 -164 -112 -270t-312 -106h-273v338h-122v115h122v295h285zM414 117q134 0 209.5 70t75.5 190t-75.5 187t-211.5 67h-135v-178h187v-115h-187v-221h137z" />
    <glyph glyph-name="Ntilde" unicode="&#xd1;" horiz-adv-x="908" 
d="M676 748h132v-748h-230l-346 660v-660h-132v748h228l348 -661v661zM370 841h-102q0 66 39.5 98t92.5 32q32 0 69.5 -19t47.5 -19q19 0 28 8t11 27h102q0 -66 -37 -98t-98 -32q-32 0 -69.5 19t-47.5 19q-33 0 -36 -35z" />
    <glyph glyph-name="Ograve" unicode="&#xd2;" horiz-adv-x="993" 
d="M496 -18q-188 0 -304.5 107.5t-116.5 284.5q0 176 116.5 284t304.5 108q189 0 305.5 -108t116.5 -284q0 -177 -116.5 -284.5t-305.5 -107.5zM496 643q-124 0 -202.5 -72.5t-78.5 -196.5t78.5 -196.5t202.5 -72.5q125 0 203.5 72.5t78.5 196.5t-78.5 196.5t-203.5 72.5z
M445 980l140 -142h-147l-151 142h158z" />
    <glyph glyph-name="Oacute" unicode="&#xd3;" horiz-adv-x="993" 
d="M496 -18q-188 0 -304.5 107.5t-116.5 284.5q0 176 116.5 284t304.5 108q189 0 305.5 -108t116.5 -284q0 -177 -116.5 -284.5t-305.5 -107.5zM496 643q-124 0 -202.5 -72.5t-78.5 -196.5t78.5 -196.5t202.5 -72.5q125 0 203.5 72.5t78.5 196.5t-78.5 196.5t-203.5 72.5z
M385 838l140 142h158l-151 -142h-147z" />
    <glyph glyph-name="Ocircumflex" unicode="&#xd4;" horiz-adv-x="993" 
d="M496 -18q-188 0 -304.5 107.5t-116.5 284.5q0 176 116.5 284t304.5 108q189 0 305.5 -108t116.5 -284q0 -177 -116.5 -284.5t-305.5 -107.5zM496 643q-124 0 -202.5 -72.5t-78.5 -196.5t78.5 -196.5t202.5 -72.5q125 0 203.5 72.5t78.5 196.5t-78.5 196.5t-203.5 72.5z
M588 980l119 -142h-126l-86 87l-86 -87h-124l116 142h187z" />
    <glyph glyph-name="Otilde" unicode="&#xd5;" horiz-adv-x="993" 
d="M496 -18q-188 0 -304.5 107.5t-116.5 284.5q0 176 116.5 284t304.5 108q189 0 305.5 -108t116.5 -284q0 -177 -116.5 -284.5t-305.5 -107.5zM496 643q-124 0 -202.5 -72.5t-78.5 -196.5t78.5 -196.5t202.5 -72.5q125 0 203.5 72.5t78.5 196.5t-78.5 196.5t-203.5 72.5z
M403 841h-102q0 66 39.5 98t92.5 32q32 0 69.5 -19t47.5 -19q19 0 28 8t11 27h102q0 -66 -37 -98t-98 -32q-32 0 -69.5 19t-47.5 19q-33 0 -36 -35z" />
    <glyph glyph-name="Odieresis" unicode="&#xd6;" horiz-adv-x="993" 
d="M496 -18q-188 0 -304.5 107.5t-116.5 284.5q0 176 116.5 284t304.5 108q189 0 305.5 -108t116.5 -284q0 -177 -116.5 -284.5t-305.5 -107.5zM496 643q-124 0 -202.5 -72.5t-78.5 -196.5t78.5 -196.5t202.5 -72.5q125 0 203.5 72.5t78.5 196.5t-78.5 196.5t-203.5 72.5z
M431 911q0 -30 -21.5 -51.5t-52.5 -21.5q-30 0 -51.5 21.5t-21.5 51.5q0 31 21.5 52.5t51.5 21.5q31 0 52.5 -21.5t21.5 -52.5zM708 911q0 -30 -21.5 -51.5t-52.5 -21.5q-30 0 -51.5 21.5t-21.5 51.5q0 31 21.5 52.5t51.5 21.5q31 0 52.5 -21.5t21.5 -52.5z" />
    <glyph glyph-name="multiply" unicode="&#xd7;" horiz-adv-x="538" 
d="M404 583l74 -74l-135 -135l135 -135l-74 -74l-135 135l-134 -135l-75 74l135 135l-135 135l75 74l134 -135z" />
    <glyph glyph-name="Oslash" unicode="&#xd8;" horiz-adv-x="993" 
d="M817 643q101 -104 101 -269q0 -177 -116.5 -284.5t-305.5 -107.5q-134 0 -237 58l-93 -101l-77 71l87 95q-101 106 -101 269q0 176 116.5 284t304.5 108q136 0 238 -58l94 101l77 -71zM215 374q0 -99 54 -169l375 405q-63 33 -148 33q-124 0 -202.5 -72.5t-78.5 -196.5z
M496 105q125 0 203.5 72.5t78.5 196.5q0 100 -53 169l-375 -405q66 -33 146 -33z" />
    <glyph glyph-name="Ugrave" unicode="&#xd9;" horiz-adv-x="874" 
d="M639 748h135v-471q0 -145 -88 -220t-249 -75t-249 75t-88 220v471h135v-475q0 -168 202 -168t202 168v475zM402 980l140 -142h-147l-151 142h158z" />
    <glyph glyph-name="Uacute" unicode="&#xda;" horiz-adv-x="874" 
d="M639 748h135v-471q0 -145 -88 -220t-249 -75t-249 75t-88 220v471h135v-475q0 -168 202 -168t202 168v475zM334 838l140 142h158l-151 -142h-147z" />
    <glyph glyph-name="Ucircumflex" unicode="&#xdb;" horiz-adv-x="874" 
d="M639 748h135v-471q0 -145 -88 -220t-249 -75t-249 75t-88 220v471h135v-475q0 -168 202 -168t202 168v475zM530 980l119 -142h-126l-86 87l-86 -87h-124l116 142h187z" />
    <glyph glyph-name="Udieresis" unicode="&#xdc;" horiz-adv-x="874" 
d="M639 748h135v-471q0 -145 -88 -220t-249 -75t-249 75t-88 220v471h135v-475q0 -168 202 -168t202 168v475zM373 911q0 -30 -21.5 -51.5t-52.5 -21.5q-30 0 -51.5 21.5t-21.5 51.5q0 31 21.5 52.5t51.5 21.5q31 0 52.5 -21.5t21.5 -52.5zM650 911q0 -30 -21.5 -51.5
t-52.5 -21.5q-30 0 -51.5 21.5t-21.5 51.5q0 31 21.5 52.5t51.5 21.5q31 0 52.5 -21.5t21.5 -52.5z" />
    <glyph glyph-name="Yacute" unicode="&#xdd;" horiz-adv-x="807" 
d="M629 748h144l-388 -748h-144l132 255h-76l-263 493h150l224 -426zM314 838l140 142h158l-151 -142h-147z" />
    <glyph glyph-name="Thorn" unicode="&#xde;" horiz-adv-x="761" 
d="M428 639q115 0 191.5 -71t76.5 -188t-75 -185.5t-191 -68.5h-195v-126h-135v748h135v-109h193zM430 243q56 0 92 35.5t36 101.5t-37 104t-93 38h-193v-279h195z" />
    <glyph glyph-name="germandbls" unicode="&#xdf;" horiz-adv-x="777" 
d="M574 482q61 -25 102 -82t41 -141q0 -125 -72.5 -195.5t-208.5 -70.5q-68 0 -109 18v116q40 -20 101 -20q80 0 118 38.5t38 117.5q0 75 -47.5 113.5t-123.5 38.5h-17v109h20q56 0 89.5 30t33.5 84q0 69 -45 100.5t-115 31.5q-68 0 -113.5 -44t-45.5 -126v-600h-130v599
q0 131 82.5 208t204.5 77q127 0 209 -63t82 -173q0 -108 -94 -166z" />
    <glyph glyph-name="agrave" unicode="&#xe0;" horiz-adv-x="728" 
d="M683 102q6 0 15 3v-111q-18 -6 -41 -6q-95 0 -143 82q-27 -36 -77.5 -62t-113.5 -26q-117 0 -187.5 57.5t-70.5 155.5q0 88 75 147.5t169 59.5q55 0 116 -23.5t69 -23.5v44q0 56 -46.5 86t-119.5 30q-131 0 -224 -67v121q89 57 218 57q133 0 216.5 -61.5t83.5 -153.5
v-260q0 -49 61 -49zM494 212v42q-13 0 -74.5 22t-105.5 22q-50 0 -83 -28.5t-33 -74.5q0 -51 36 -78.5t102 -27.5q67 0 112.5 33t45.5 90zM307 845l140 -142h-147l-151 142h158z" />
    <glyph glyph-name="aacute" unicode="&#xe1;" horiz-adv-x="728" 
d="M683 102q6 0 15 3v-111q-18 -6 -41 -6q-95 0 -143 82q-27 -36 -77.5 -62t-113.5 -26q-117 0 -187.5 57.5t-70.5 155.5q0 88 75 147.5t169 59.5q55 0 116 -23.5t69 -23.5v44q0 56 -46.5 86t-119.5 30q-131 0 -224 -67v121q89 57 218 57q133 0 216.5 -61.5t83.5 -153.5
v-260q0 -49 61 -49zM494 212v42q-13 0 -74.5 22t-105.5 22q-50 0 -83 -28.5t-33 -74.5q0 -51 36 -78.5t102 -27.5q67 0 112.5 33t45.5 90zM237 703l140 142h158l-151 -142h-147z" />
    <glyph glyph-name="acircumflex" unicode="&#xe2;" horiz-adv-x="728" 
d="M683 102q6 0 15 3v-111q-18 -6 -41 -6q-95 0 -143 82q-27 -36 -77.5 -62t-113.5 -26q-117 0 -187.5 57.5t-70.5 155.5q0 88 75 147.5t169 59.5q55 0 116 -23.5t69 -23.5v44q0 56 -46.5 86t-119.5 30q-131 0 -224 -67v121q89 57 218 57q133 0 216.5 -61.5t83.5 -153.5
v-260q0 -49 61 -49zM494 212v42q-13 0 -74.5 22t-105.5 22q-50 0 -83 -28.5t-33 -74.5q0 -51 36 -78.5t102 -27.5q67 0 112.5 33t45.5 90zM425 845l119 -142h-126l-86 87l-86 -87h-124l116 142h187z" />
    <glyph glyph-name="atilde" unicode="&#xe3;" horiz-adv-x="728" 
d="M683 102q6 0 15 3v-111q-18 -6 -41 -6q-95 0 -143 82q-27 -36 -77.5 -62t-113.5 -26q-117 0 -187.5 57.5t-70.5 155.5q0 88 75 147.5t169 59.5q55 0 116 -23.5t69 -23.5v44q0 56 -46.5 86t-119.5 30q-131 0 -224 -67v121q89 57 218 57q133 0 216.5 -61.5t83.5 -153.5
v-260q0 -49 61 -49zM494 212v42q-13 0 -74.5 22t-105.5 22q-50 0 -83 -28.5t-33 -74.5q0 -51 36 -78.5t102 -27.5q67 0 112.5 33t45.5 90zM243 706h-102q0 66 39.5 98t92.5 32q32 0 69.5 -19t47.5 -19q19 0 28 8t11 27h102q0 -66 -37 -98t-98 -32q-32 0 -69.5 19t-47.5 19
q-33 0 -36 -35z" />
    <glyph glyph-name="adieresis" unicode="&#xe4;" horiz-adv-x="728" 
d="M683 102q6 0 15 3v-111q-18 -6 -41 -6q-95 0 -143 82q-27 -36 -77.5 -62t-113.5 -26q-117 0 -187.5 57.5t-70.5 155.5q0 88 75 147.5t169 59.5q55 0 116 -23.5t69 -23.5v44q0 56 -46.5 86t-119.5 30q-131 0 -224 -67v121q89 57 218 57q133 0 216.5 -61.5t83.5 -153.5
v-260q0 -49 61 -49zM494 212v42q-13 0 -74.5 22t-105.5 22q-50 0 -83 -28.5t-33 -74.5q0 -51 36 -78.5t102 -27.5q67 0 112.5 33t45.5 90zM265 776q0 -30 -21.5 -51.5t-52.5 -21.5q-30 0 -51.5 21.5t-21.5 51.5q0 31 21.5 52.5t51.5 21.5q31 0 52.5 -21.5t21.5 -52.5z
M542 776q0 -30 -21.5 -51.5t-52.5 -21.5q-30 0 -51.5 21.5t-21.5 51.5q0 31 21.5 52.5t51.5 21.5q31 0 52.5 -21.5t21.5 -52.5z" />
    <glyph glyph-name="aring" unicode="&#xe5;" horiz-adv-x="728" 
d="M683 102q6 0 15 3v-111q-18 -6 -41 -6q-95 0 -143 82q-27 -36 -77.5 -62t-113.5 -26q-117 0 -187.5 57.5t-70.5 155.5q0 88 75 147.5t169 59.5q55 0 116 -23.5t69 -23.5v44q0 56 -46.5 86t-119.5 30q-131 0 -224 -67v121q89 57 218 57q133 0 216.5 -61.5t83.5 -153.5
v-260q0 -49 61 -49zM494 212v42q-13 0 -74.5 22t-105.5 22q-50 0 -83 -28.5t-33 -74.5q0 -51 36 -78.5t102 -27.5q67 0 112.5 33t45.5 90zM328 869q-20 0 -34 -14t-14 -34t14 -34.5t34 -14.5t34 14.5t14 34.5t-14 34t-34 14zM328 939q49 0 83.5 -34.5t34.5 -83.5t-34.5 -84
t-83.5 -35t-83.5 35t-34.5 84t34.5 83.5t83.5 34.5z" />
    <glyph glyph-name="ae" unicode="&#xe6;" horiz-adv-x="1170" 
d="M1105 291v-24h-489q4 -76 62.5 -125.5t142.5 -49.5q135 0 228 56v-118q-95 -48 -227 -48q-81 0 -150.5 32t-115.5 87q-36 -61 -100.5 -90t-132.5 -29q-117 0 -187.5 57.5t-70.5 155.5q0 91 74.5 151.5t169.5 60.5q55 0 116 -18.5t69 -18.5v29q0 56 -46.5 86.5
t-119.5 30.5q-131 0 -224 -67v120q89 57 218 57q83 0 149.5 -27.5t101.5 -74.5q37 47 97 74.5t126 27.5q143 0 226 -86t83 -249zM494 212v55q-13 0 -74.5 18.5t-105.5 18.5q-51 0 -83.5 -29t-32.5 -80q0 -50 35.5 -76.5t102.5 -26.5q68 0 113 32t45 88zM621 370h357
q-26 146 -182 146q-64 0 -115 -39.5t-60 -106.5z" />
    <glyph glyph-name="ccedilla" unicode="&#xe7;" horiz-adv-x="689" 
d="M424 512q-100 0 -162 -54.5t-62 -153.5q0 -98 63 -153t161 -55q106 0 200 58v-124q-70 -40 -173 -47v-49q48 -5 78.5 -31t30.5 -63q0 -62 -36.5 -87t-111.5 -25q-40 0 -69 9v81q27 -12 62 -12q67 0 67 32q0 45 -96 45v102q-140 14 -225.5 100.5t-85.5 218.5
q0 150 97.5 236t261.5 86q121 0 200 -49v-123q-35 25 -89.5 41.5t-110.5 16.5z" />
    <glyph glyph-name="egrave" unicode="&#xe8;" 
d="M685 291v-24h-492q12 -80 67.5 -127t137.5 -47q136 0 234 56v-118q-96 -49 -233 -49q-146 0 -240 92t-94 230q0 143 89 232.5t219 89.5q144 0 228 -86t84 -249zM198 370h360q-26 146 -185 146q-62 0 -109 -37.5t-66 -108.5zM338 845l140 -142h-147l-151 142h158z" />
    <glyph glyph-name="eacute" unicode="&#xe9;" 
d="M685 291v-24h-492q12 -80 67.5 -127t137.5 -47q136 0 234 56v-118q-96 -49 -233 -49q-146 0 -240 92t-94 230q0 143 89 232.5t219 89.5q144 0 228 -86t84 -249zM198 370h360q-26 146 -185 146q-62 0 -109 -37.5t-66 -108.5zM270 703l140 142h158l-151 -142h-147z" />
    <glyph glyph-name="ecircumflex" unicode="&#xea;" 
d="M685 291v-24h-492q12 -80 67.5 -127t137.5 -47q136 0 234 56v-118q-96 -49 -233 -49q-146 0 -240 92t-94 230q0 143 89 232.5t219 89.5q144 0 228 -86t84 -249zM198 370h360q-26 146 -185 146q-62 0 -109 -37.5t-66 -108.5zM463 845l119 -142h-126l-86 87l-86 -87h-124
l116 142h187z" />
    <glyph glyph-name="edieresis" unicode="&#xeb;" 
d="M685 291v-24h-492q12 -80 67.5 -127t137.5 -47q136 0 234 56v-118q-96 -49 -233 -49q-146 0 -240 92t-94 230q0 143 89 232.5t219 89.5q144 0 228 -86t84 -249zM198 370h360q-26 146 -185 146q-62 0 -109 -37.5t-66 -108.5zM309 776q0 -30 -21.5 -51.5t-52.5 -21.5
q-30 0 -51.5 21.5t-21.5 51.5q0 31 21.5 52.5t51.5 21.5q31 0 52.5 -21.5t21.5 -52.5zM586 776q0 -30 -21.5 -51.5t-52.5 -21.5q-30 0 -51.5 21.5t-21.5 51.5q0 31 21.5 52.5t51.5 21.5q31 0 52.5 -21.5t21.5 -52.5z" />
    <glyph glyph-name="igrave" unicode="&#xec;" horiz-adv-x="320" 
d="M95 0v607h130v-607h-130zM169 845l140 -142h-147l-151 142h158z" />
    <glyph glyph-name="iacute" unicode="&#xed;" horiz-adv-x="320" 
d="M95 0v607h130v-607h-130zM11 703l140 142h158l-151 -142h-147z" />
    <glyph glyph-name="icircumflex" unicode="&#xee;" horiz-adv-x="320" 
d="M95 0v607h130v-607h-130zM252 845l119 -142h-126l-86 87l-86 -87h-124l116 142h187z" />
    <glyph glyph-name="idieresis" unicode="&#xef;" horiz-adv-x="320" 
d="M95 0v607h130v-607h-130zM90 776q0 -30 -21.5 -51.5t-52.5 -21.5q-30 0 -51.5 21.5t-21.5 51.5q0 31 21.5 52.5t51.5 21.5q31 0 52.5 -21.5t21.5 -52.5zM367 776q0 -30 -21.5 -51.5t-52.5 -21.5q-30 0 -51.5 21.5t-21.5 51.5q0 31 21.5 52.5t51.5 21.5q31 0 52.5 -21.5
t21.5 -52.5z" />
    <glyph glyph-name="eth" unicode="&#xf0;" horiz-adv-x="885" 
d="M855 775v-100h-111v-675h-130v72q-37 -44 -93.5 -67t-117.5 -23q-153 0 -245.5 82.5t-92.5 226.5q0 138 92.5 219.5t245.5 81.5q66 0 123.5 -26.5t87.5 -64.5v174h-276v100h276v91h130v-91h111zM417 96q207 0 207 193q0 90 -55.5 139.5t-151.5 49.5q-97 0 -157 -48.5
t-60 -138.5q0 -94 60 -144.5t157 -50.5z" />
    <glyph glyph-name="ntilde" unicode="&#xf1;" horiz-adv-x="772" 
d="M682 0h-130v387q0 65 -29 95t-100 30q-95 0 -149 -44t-54 -121v-347h-130v607h130v-73q36 46 91.5 69t111.5 23q125 0 192 -59t67 -165v-402zM320 706h-102q0 66 39.5 98t92.5 32q32 0 69.5 -19t47.5 -19q19 0 28 8t11 27h102q0 -66 -37 -98t-98 -32q-32 0 -69.5 19
t-47.5 19q-33 0 -36 -35z" />
    <glyph glyph-name="ograve" unicode="&#xf2;" horiz-adv-x="842" 
d="M421 626q155 0 255.5 -89t100.5 -233t-101 -233t-255 -89q-155 0 -255.5 89t-100.5 233t100.5 233t255.5 89zM421 96q97 0 159 56t62 152t-62 152t-159 56t-159 -56t-62 -152t62 -152t159 -56zM408 845l140 -142h-147l-151 142h158z" />
    <glyph glyph-name="oacute" unicode="&#xf3;" horiz-adv-x="842" 
d="M421 626q155 0 255.5 -89t100.5 -233t-101 -233t-255 -89q-155 0 -255.5 89t-100.5 233t100.5 233t255.5 89zM421 96q97 0 159 56t62 152t-62 152t-159 56t-159 -56t-62 -152t62 -152t159 -56zM294 703l140 142h158l-151 -142h-147z" />
    <glyph glyph-name="ocircumflex" unicode="&#xf4;" horiz-adv-x="842" 
d="M421 626q155 0 255.5 -89t100.5 -233t-101 -233t-255 -89q-155 0 -255.5 89t-100.5 233t100.5 233t255.5 89zM421 96q97 0 159 56t62 152t-62 152t-159 56t-159 -56t-62 -152t62 -152t159 -56zM515 845l119 -142h-126l-86 87l-86 -87h-124l116 142h187z" />
    <glyph glyph-name="otilde" unicode="&#xf5;" horiz-adv-x="842" 
d="M421 626q155 0 255.5 -89t100.5 -233t-101 -233t-255 -89q-155 0 -255.5 89t-100.5 233t100.5 233t255.5 89zM421 96q97 0 159 56t62 152t-62 152t-159 56t-159 -56t-62 -152t62 -152t159 -56zM336 706h-102q0 66 39.5 98t92.5 32q32 0 69.5 -19t47.5 -19q19 0 28 8
t11 27h102q0 -66 -37 -98t-98 -32q-32 0 -69.5 19t-47.5 19q-33 0 -36 -35z" />
    <glyph glyph-name="odieresis" unicode="&#xf6;" horiz-adv-x="842" 
d="M421 626q155 0 255.5 -89t100.5 -233t-101 -233t-255 -89q-155 0 -255.5 89t-100.5 233t100.5 233t255.5 89zM421 96q97 0 159 56t62 152t-62 152t-159 56t-159 -56t-62 -152t62 -152t159 -56zM357 776q0 -30 -21.5 -51.5t-52.5 -21.5q-30 0 -51.5 21.5t-21.5 51.5
q0 31 21.5 52.5t51.5 21.5q31 0 52.5 -21.5t21.5 -52.5zM634 776q0 -30 -21.5 -51.5t-52.5 -21.5q-30 0 -51.5 21.5t-21.5 51.5q0 31 21.5 52.5t51.5 21.5q31 0 52.5 -21.5t21.5 -52.5z" />
    <glyph glyph-name="divide" unicode="&#xf7;" horiz-adv-x="610" 
d="M384 579q0 -32 -23.5 -55t-55.5 -23t-55 23t-23 55t23 55t55 23t55.5 -23t23.5 -55zM384 177q0 -32 -23.5 -55t-55.5 -23t-55 23t-23 55t23 55t55 23t55.5 -23t23.5 -55zM540 432v-107h-470v107h470z" />
    <glyph glyph-name="oslash" unicode="&#xf8;" horiz-adv-x="842" 
d="M688 526q89 -89 89 -222q0 -144 -100.5 -233t-255.5 -89q-105 0 -190 44l-86 -94l-70 64l79 86q-89 87 -89 222q0 144 100.5 233t255.5 89q104 0 190 -44l85 94l70 -64zM200 304q0 -76 40 -128l287 314q-49 22 -106 22q-97 0 -159 -56t-62 -152zM421 96q97 0 159 56
t62 152q0 74 -40 127l-287 -313q49 -22 106 -22z" />
    <glyph glyph-name="ugrave" unicode="&#xf9;" horiz-adv-x="764" 
d="M544 607h130v-368q0 -122 -76.5 -189.5t-215.5 -67.5q-138 0 -215 67.5t-77 189.5v368h130v-364q0 -147 162 -147t162 147v364zM305 845l140 -142h-147l-151 142h158z" />
    <glyph glyph-name="uacute" unicode="&#xfa;" horiz-adv-x="764" 
d="M544 607h130v-368q0 -122 -76.5 -189.5t-215.5 -67.5q-138 0 -215 67.5t-77 189.5v368h130v-364q0 -147 162 -147t162 147v364zM298 703l140 142h158l-151 -142h-147z" />
    <glyph glyph-name="ucircumflex" unicode="&#xfb;" horiz-adv-x="764" 
d="M544 607h130v-368q0 -122 -76.5 -189.5t-215.5 -67.5q-138 0 -215 67.5t-77 189.5v368h130v-364q0 -147 162 -147t162 147v364zM476 845l119 -142h-126l-86 87l-86 -87h-124l116 142h187z" />
    <glyph glyph-name="udieresis" unicode="&#xfc;" horiz-adv-x="764" 
d="M544 607h130v-368q0 -122 -76.5 -189.5t-215.5 -67.5q-138 0 -215 67.5t-77 189.5v368h130v-364q0 -147 162 -147t162 147v364zM317 776q0 -30 -21.5 -51.5t-52.5 -21.5q-30 0 -51.5 21.5t-21.5 51.5q0 31 21.5 52.5t51.5 21.5q31 0 52.5 -21.5t21.5 -52.5zM594 776
q0 -30 -21.5 -51.5t-52.5 -21.5q-30 0 -51.5 21.5t-21.5 51.5q0 31 21.5 52.5t51.5 21.5q31 0 52.5 -21.5t21.5 -52.5z" />
    <glyph glyph-name="yacute" unicode="&#xfd;" horiz-adv-x="751" 
d="M583 607h139l-391 -847h-139l153 325h-64l-252 522h144l208 -444zM276 703l140 142h158l-151 -142h-147z" />
    <glyph glyph-name="thorn" unicode="&#xfe;" horiz-adv-x="834" 
d="M431 626q154 0 246 -87.5t92 -234.5q0 -144 -94 -233t-244 -89q-61 0 -117 22.5t-94 66.5v-311h-130v1106h130v-330q75 88 211 90zM417 96q93 0 155 57t62 151q0 97 -59.5 152.5t-157.5 55.5q-207 0 -207 -208t207 -208z" />
    <glyph glyph-name="ydieresis" unicode="&#xff;" horiz-adv-x="751" 
d="M583 607h139l-391 -847h-139l153 325h-64l-252 522h144l208 -444zM316 776q0 -30 -21.5 -51.5t-52.5 -21.5q-30 0 -51.5 21.5t-21.5 51.5q0 31 21.5 52.5t51.5 21.5q31 0 52.5 -21.5t21.5 -52.5zM593 776q0 -30 -21.5 -51.5t-52.5 -21.5q-30 0 -51.5 21.5t-21.5 51.5
q0 31 21.5 52.5t51.5 21.5q31 0 52.5 -21.5t21.5 -52.5z" />
    <glyph glyph-name="Amacron" unicode="&#x100;" horiz-adv-x="933" 
d="M248 167l-72 -167h-144l332 748h203l334 -748h-146l-73 167h-434zM297 282h336l-168 380zM266 838v90h399v-90h-399z" />
    <glyph glyph-name="amacron" unicode="&#x101;" horiz-adv-x="728" 
d="M683 102q6 0 15 3v-111q-18 -6 -41 -6q-95 0 -143 82q-27 -36 -77.5 -62t-113.5 -26q-117 0 -187.5 57.5t-70.5 155.5q0 88 75 147.5t169 59.5q55 0 116 -23.5t69 -23.5v44q0 56 -46.5 86t-119.5 30q-131 0 -224 -67v121q89 57 218 57q133 0 216.5 -61.5t83.5 -153.5
v-260q0 -49 61 -49zM494 212v42q-13 0 -74.5 22t-105.5 22q-50 0 -83 -28.5t-33 -74.5q0 -51 36 -78.5t102 -27.5q67 0 112.5 33t45.5 90zM140 703v90h399v-90h-399z" />
    <glyph glyph-name="Abreve" unicode="&#x102;" horiz-adv-x="933" 
d="M248 167l-72 -167h-144l332 748h203l334 -748h-146l-73 167h-434zM297 282h336l-168 380zM465 838q-151 0 -192 136h121q9 -17 30 -26.5t41 -9.5t41 9.5t30 26.5h122q-41 -136 -193 -136z" />
    <glyph glyph-name="abreve" unicode="&#x103;" horiz-adv-x="728" 
d="M683 102q6 0 15 3v-111q-18 -6 -41 -6q-95 0 -143 82q-27 -36 -77.5 -62t-113.5 -26q-117 0 -187.5 57.5t-70.5 155.5q0 88 75 147.5t169 59.5q55 0 116 -23.5t69 -23.5v44q0 56 -46.5 86t-119.5 30q-131 0 -224 -67v121q89 57 218 57q133 0 216.5 -61.5t83.5 -153.5
v-260q0 -49 61 -49zM494 212v42q-13 0 -74.5 22t-105.5 22q-50 0 -83 -28.5t-33 -74.5q0 -51 36 -78.5t102 -27.5q67 0 112.5 33t45.5 90zM327 703q-151 0 -192 136h121q9 -17 30 -26.5t41 -9.5t41 9.5t30 26.5h122q-41 -136 -193 -136z" />
    <glyph glyph-name="Aogonek" unicode="&#x104;" horiz-adv-x="933" 
d="M754 -112q0 -24 14.5 -35t32.5 -11q43 0 78 22v-89q-33 -15 -82 -15q-63 0 -99.5 31t-36.5 94q0 37 28.5 71t62.5 52l-70 159h-434l-72 -167h-144l332 748h203l334 -748h-61q-37 -26 -61.5 -56.5t-24.5 -55.5zM297 282h336l-168 380z" />
    <glyph glyph-name="aogonek" unicode="&#x105;" horiz-adv-x="728" 
d="M638 -11q-65 -53 -65 -96q0 -24 14.5 -35t32.5 -11q45 0 78 22v-89q-33 -15 -82 -15q-63 0 -99.5 31t-36.5 94q0 36 28.5 70t61.5 52q-35 22 -56 58q-27 -36 -77.5 -62t-113.5 -26q-117 0 -187.5 57.5t-70.5 155.5q0 88 75 147.5t169 59.5q55 0 116 -23.5t69 -23.5v44
q0 56 -46.5 86t-119.5 30q-131 0 -224 -67v121q89 57 218 57q133 0 216.5 -61.5t83.5 -153.5v-260q0 -49 61 -49q6 0 15 3v-111q-18 -6 -41 -6q-13 0 -19 1zM494 212v42q-13 0 -74.5 22t-105.5 22q-50 0 -83 -28.5t-33 -74.5q0 -51 36 -78.5t102 -27.5q67 0 112.5 33
t45.5 90z" />
    <glyph glyph-name="Cacute" unicode="&#x106;" horiz-adv-x="789" 
d="M493 766q132 0 221 -58v-134q-40 30 -99.5 49.5t-121.5 19.5q-123 0 -200.5 -71.5t-77.5 -197.5q0 -123 79 -196t199 -73q117 0 221 68v-135q-91 -56 -221 -56q-182 0 -300 108.5t-118 283.5q0 181 114.5 286.5t303.5 105.5zM372 838l140 142h158l-151 -142h-147z" />
    <glyph glyph-name="cacute" unicode="&#x107;" horiz-adv-x="689" 
d="M424 626q121 0 200 -49v-123q-35 25 -89.5 41.5t-110.5 16.5q-100 0 -162 -54.5t-62 -153.5q0 -98 63 -153t161 -55q106 0 200 58v-124q-84 -48 -200 -48q-159 0 -259 89t-100 233q0 150 97.5 236t261.5 86zM269 703l140 142h158l-151 -142h-147z" />
    <glyph glyph-name="Ccaron" unicode="&#x10c;" horiz-adv-x="789" 
d="M493 766q132 0 221 -58v-134q-40 30 -99.5 49.5t-121.5 19.5q-123 0 -200.5 -71.5t-77.5 -197.5q0 -123 79 -196t199 -73q117 0 221 68v-135q-91 -56 -221 -56q-182 0 -300 108.5t-118 283.5q0 181 114.5 286.5t303.5 105.5zM700 980l-119 -142h-187l-116 142h124l86 -87
l86 87h126z" />
    <glyph glyph-name="ccaron" unicode="&#x10d;" horiz-adv-x="689" 
d="M424 626q121 0 200 -49v-123q-35 25 -89.5 41.5t-110.5 16.5q-100 0 -162 -54.5t-62 -153.5q0 -98 63 -153t161 -55q106 0 200 58v-124q-84 -48 -200 -48q-159 0 -259 89t-100 233q0 150 97.5 236t261.5 86zM627 845l-119 -142h-187l-116 142h124l86 -87l86 87h126z" />
    <glyph glyph-name="Dcaron" unicode="&#x10e;" horiz-adv-x="873" 
d="M385 748q192 0 302.5 -105t110.5 -267q-1 -164 -113 -270t-311 -106h-274v748h285zM373 117q133 0 209 70t76 190t-76 187t-212 67h-135v-514h138zM568 980l-119 -142h-187l-116 142h124l86 -87l86 87h126z" />
    <glyph glyph-name="dcaron" unicode="&#x10f;" horiz-adv-x="1030" 
d="M1030 866l-119 -159h-103l86 159h136zM65 303q0 146 93 234.5t245 88.5q60 0 116.5 -23.5t94.5 -66.5v330h130v-866h-130v71q-37 -44 -93.5 -66.5t-117.5 -22.5q-152 0 -245 88t-93 233zM200 303q0 -96 60.5 -151.5t156.5 -55.5q207 0 207 207q0 209 -207 209
q-96 0 -156.5 -56.5t-60.5 -152.5z" />
    <glyph glyph-name="Dcroat" unicode="&#x110;" horiz-adv-x="914" 
d="M427 748q192 0 302 -104.5t110 -267.5q0 -164 -112 -270t-312 -106h-273v338h-122v115h122v295h285zM414 117q134 0 209.5 70t75.5 190t-75.5 187t-211.5 67h-135v-178h187v-115h-187v-221h137z" />
    <glyph glyph-name="dcroat" unicode="&#x111;" horiz-adv-x="880" 
d="M855 775v-100h-111v-675h-130v72q-37 -44 -93.5 -67t-117.5 -23q-153 0 -245.5 82.5t-92.5 226.5q0 138 92.5 219.5t245.5 81.5q66 0 123.5 -26.5t87.5 -64.5v174h-276v100h276v91h130v-91h111zM417 96q207 0 207 193q0 90 -55.5 139.5t-151.5 49.5q-97 0 -157 -48.5
t-60 -138.5q0 -94 60 -144.5t157 -50.5z" />
    <glyph glyph-name="Emacron" unicode="&#x112;" horiz-adv-x="738" 
d="M235 117h428v-117h-563v748h557v-117h-422v-178h404v-115h-404v-221zM186 838v90h399v-90h-399z" />
    <glyph glyph-name="emacron" unicode="&#x113;" 
d="M685 291v-24h-492q12 -80 67.5 -127t137.5 -47q136 0 234 56v-118q-96 -49 -233 -49q-146 0 -240 92t-94 230q0 143 89 232.5t219 89.5q144 0 228 -86t84 -249zM198 370h360q-26 146 -185 146q-62 0 -109 -37.5t-66 -108.5zM179 703v90h399v-90h-399z" />
    <glyph glyph-name="Edotaccent" unicode="&#x116;" horiz-adv-x="738" 
d="M235 117h428v-117h-563v748h557v-117h-422v-178h404v-115h-404v-221zM491 916q0 -32 -23 -55t-56 -23q-32 0 -55 23t-23 55q0 33 23 56t55 23q33 0 56 -23t23 -56z" />
    <glyph glyph-name="edotaccent" unicode="&#x117;" 
d="M685 291v-24h-492q12 -80 67.5 -127t137.5 -47q136 0 234 56v-118q-96 -49 -233 -49q-146 0 -240 92t-94 230q0 143 89 232.5t219 89.5q144 0 228 -86t84 -249zM198 370h360q-26 146 -185 146q-62 0 -109 -37.5t-66 -108.5zM455 781q0 -32 -23 -55t-56 -23q-32 0 -55 23
t-23 55q0 33 23 56t55 23q33 0 56 -23t23 -56z" />
    <glyph glyph-name="Eogonek" unicode="&#x118;" horiz-adv-x="738" 
d="M623 0q-85 -60 -85 -112q0 -24 14.5 -35t32.5 -11q43 0 78 22v-89q-33 -15 -82 -15q-63 0 -99.5 31t-36.5 94q0 33 23.5 64t54.5 51h-423v748h557v-117h-422v-178h404v-115h-404v-221h428v-117h-40z" />
    <glyph glyph-name="eogonek" unicode="&#x119;" horiz-adv-x="747" 
d="M682 291v-24h-489q12 -80 67.5 -127t137.5 -47q137 0 228 55v-118q-32 -15 -53 -22q-89 -63 -89 -115q0 -24 14.5 -35t32.5 -11q45 0 78 22v-89q-33 -15 -82 -15q-63 0 -99.5 31t-36.5 94q0 48 50 94q-30 -2 -42 -2q-146 0 -240 92t-94 230q0 143 89 232.5t219 89.5
q143 0 226 -86t83 -249zM198 370h357q-26 146 -182 146q-62 0 -109 -37.5t-66 -108.5z" />
    <glyph glyph-name="Ecaron" unicode="&#x11a;" horiz-adv-x="738" 
d="M235 117h428v-117h-563v748h557v-117h-422v-178h404v-115h-404v-221zM602 980l-119 -142h-187l-116 142h124l86 -87l86 87h126z" />
    <glyph glyph-name="ecaron" unicode="&#x11b;" 
d="M685 291v-24h-492q12 -80 67.5 -127t137.5 -47q136 0 234 56v-118q-96 -49 -233 -49q-146 0 -240 92t-94 230q0 143 89 232.5t219 89.5q144 0 228 -86t84 -249zM198 370h360q-26 146 -185 146q-62 0 -109 -37.5t-66 -108.5zM590 845l-119 -142h-187l-116 142h124l86 -87
l86 87h126z" />
    <glyph glyph-name="Gbreve" unicode="&#x11e;" horiz-adv-x="834" 
d="M622 383h132v-336q-51 -30 -124.5 -47.5t-142.5 -17.5q-181 0 -296.5 108.5t-115.5 283.5q0 180 115.5 286t304.5 106q132 0 229 -57v-135q-95 69 -229 69q-123 0 -201.5 -71.5t-78.5 -197.5q0 -123 78 -196t194 -73q73 0 135 24v254zM489 838q-151 0 -192 136h121
q9 -17 30 -26.5t41 -9.5t41 9.5t30 26.5h122q-41 -136 -193 -136z" />
    <glyph glyph-name="gbreve" unicode="&#x11f;" horiz-adv-x="835" 
d="M615 607h130v-523q0 -163 -84.5 -252.5t-258.5 -89.5q-95 0 -155.5 14.5t-119.5 43.5v129q64 -38 125.5 -54.5t140.5 -16.5q116 0 169 49.5t53 155.5v23q-76 -86 -211 -86q-149 0 -244 83.5t-95 220.5q0 147 92 234.5t247 87.5q59 0 116 -23.5t95 -66.5v71zM418 112
q97 0 151.5 50t54.5 142q0 208 -206 208q-98 0 -158 -55.5t-60 -152.5q0 -88 63.5 -140t154.5 -52zM408 703q-151 0 -192 136h121q9 -17 30 -26.5t41 -9.5t41 9.5t30 26.5h122q-41 -136 -193 -136z" />
    <glyph glyph-name="Gcommaaccent" unicode="&#x122;" horiz-adv-x="834" 
d="M544 -67l-139 -173h-105l115 173h129zM622 383h132v-336q-51 -30 -124.5 -47.5t-142.5 -17.5q-181 0 -296.5 108.5t-115.5 283.5q0 180 115.5 286t304.5 106q132 0 229 -57v-135q-95 69 -229 69q-123 0 -201.5 -71.5t-78.5 -197.5q0 -123 78 -196t194 -73q73 0 135 24
v254z" />
    <glyph glyph-name="gcommaaccent" unicode="&#x123;" horiz-adv-x="835" 
d="M348 703l139 173h105l-115 -173h-129zM615 607h130v-523q0 -163 -84.5 -252.5t-258.5 -89.5q-95 0 -155.5 14.5t-119.5 43.5v129q64 -38 125.5 -54.5t140.5 -16.5q116 0 169 49.5t53 155.5v23q-76 -86 -211 -86q-149 0 -244 83.5t-95 220.5q0 147 92 234.5t247 87.5
q59 0 116 -23.5t95 -66.5v71zM418 112q97 0 151.5 50t54.5 142q0 208 -206 208q-98 0 -158 -55.5t-60 -152.5q0 -88 63.5 -140t154.5 -52z" />
    <glyph glyph-name="Imacron" unicode="&#x12a;" horiz-adv-x="345" 
d="M105 748h135v-748h-135v748zM-27 838v90h399v-90h-399z" />
    <glyph glyph-name="imacron" unicode="&#x12b;" horiz-adv-x="320" 
d="M95 0v607h130v-607h-130zM-39 703v90h399v-90h-399z" />
    <glyph glyph-name="Iogonek" unicode="&#x12e;" horiz-adv-x="345" 
d="M166 -158q43 0 78 22v-89q-32 -15 -82 -15q-63 0 -99.5 31t-36.5 94q0 33 23.5 64t55.5 51v748h135v-748h-36q-85 -60 -85 -112q0 -24 14.5 -35t32.5 -11z" />
    <glyph glyph-name="iogonek" unicode="&#x12f;" horiz-adv-x="320" 
d="M160 703q-33 0 -56 23t-23 55q0 33 23 56t56 23q32 0 55 -23t23 -56q0 -32 -23 -55t-55 -23zM154 -153q45 0 78 22v-89q-32 -15 -82 -15q-63 0 -99.5 31t-36.5 94q0 34 24.5 66t56.5 51v600h130v-607h-39q-35 -25 -57 -54t-22 -53t14.5 -35t32.5 -11z" />
    <glyph glyph-name="Idotaccent" unicode="&#x130;" horiz-adv-x="345" 
d="M105 748h135v-748h-135v748zM251 916q0 -32 -23 -55t-56 -23q-32 0 -55 23t-23 55q0 33 23 56t55 23q33 0 56 -23t23 -56z" />
    <glyph glyph-name="dotlessi" unicode="&#x131;" horiz-adv-x="320" 
d="M95 0v607h130v-607h-130z" />
    <glyph glyph-name="Kcommaaccent" unicode="&#x136;" horiz-adv-x="839" 
d="M472 -67l-139 -173h-105l115 173h129zM795 748l-339 -263l349 -485h-164l-285 408l-121 -95v-313h-135v748h135v-284l364 284h196z" />
    <glyph glyph-name="kcommaaccent" unicode="&#x137;" horiz-adv-x="729" 
d="M439 -67l-139 -173h-105l115 173h129zM404 403l291 -403h-159l-230 332l-86 -63v-269h-130v866h130v-464l277 205h185z" />
    <glyph glyph-name="Lacute" unicode="&#x139;" horiz-adv-x="659" 
d="M235 120h394v-120h-529v748h135v-628zM232 838l140 142h158l-151 -142h-147z" />
    <glyph glyph-name="lacute" unicode="&#x13a;" horiz-adv-x="320" 
d="M95 866h130v-866h-130v866zM11 951l140 142h158l-151 -142h-147z" />
    <glyph glyph-name="Lcommaaccent" unicode="&#x13b;" horiz-adv-x="659" 
d="M491 -67l-139 -173h-105l115 173h129zM235 120h394v-120h-529v748h135v-628z" />
    <glyph glyph-name="lcommaaccent" unicode="&#x13c;" horiz-adv-x="320" 
d="M251 -67l-139 -173h-105l115 173h129zM95 866h130v-866h-130v866z" />
    <glyph glyph-name="Lcaron" unicode="&#x13d;" horiz-adv-x="659" 
d="M598 748l-119 -159h-103l86 159h136zM235 120h394v-120h-529v748h135v-628z" />
    <glyph glyph-name="lcaron" unicode="&#x13e;" horiz-adv-x="509" 
d="M510 866l-119 -159h-103l86 159h136zM95 866h130v-866h-130v866z" />
    <glyph glyph-name="Lslash" unicode="&#x141;" horiz-adv-x="696" 
d="M272 120h394v-120h-529v318l-122 -43v122l122 42v309h135v-262l214 75v-122l-214 -74v-245z" />
    <glyph glyph-name="lslash" unicode="&#x142;" horiz-adv-x="432" 
d="M407 612v-111l-126 -44v-457h-130v411l-126 -45v111l126 44v345h130v-298z" />
    <glyph glyph-name="Nacute" unicode="&#x143;" horiz-adv-x="908" 
d="M676 748h132v-748h-230l-346 660v-660h-132v748h228l348 -661v661zM391 838l140 142h158l-151 -142h-147z" />
    <glyph glyph-name="nacute" unicode="&#x144;" horiz-adv-x="772" 
d="M682 0h-130v387q0 65 -29 95t-100 30q-95 0 -149 -44t-54 -121v-347h-130v607h130v-73q36 46 91.5 69t111.5 23q125 0 192 -59t67 -165v-402zM306 703l140 142h158l-151 -142h-147z" />
    <glyph glyph-name="Ncommaaccent" unicode="&#x145;" horiz-adv-x="908" 
d="M475 -67l-139 -173h-105l115 173h129zM676 748h132v-748h-230l-346 660v-660h-132v748h228l348 -661v661z" />
    <glyph glyph-name="ncommaaccent" unicode="&#x146;" horiz-adv-x="772" 
d="M481 -67l-139 -173h-105l115 173h129zM682 0h-130v387q0 65 -29 95t-100 30q-95 0 -149 -44t-54 -121v-347h-130v607h130v-73q36 46 91.5 69t111.5 23q125 0 192 -59t67 -165v-402z" />
    <glyph glyph-name="Ncaron" unicode="&#x147;" horiz-adv-x="908" 
d="M676 748h132v-748h-230l-346 660v-660h-132v748h228l348 -661v661zM683 980l-119 -142h-187l-116 142h124l86 -87l86 87h126z" />
    <glyph glyph-name="ncaron" unicode="&#x148;" horiz-adv-x="772" 
d="M682 0h-130v387q0 65 -29 95t-100 30q-95 0 -149 -44t-54 -121v-347h-130v607h130v-73q36 46 91.5 69t111.5 23q125 0 192 -59t67 -165v-402zM626 845l-119 -142h-187l-116 142h124l86 -87l86 87h126z" />
    <glyph glyph-name="Ohungarumlaut" unicode="&#x150;" horiz-adv-x="993" 
d="M496 -18q-188 0 -304.5 107.5t-116.5 284.5q0 176 116.5 284t304.5 108q189 0 305.5 -108t116.5 -284q0 -177 -116.5 -284.5t-305.5 -107.5zM496 643q-124 0 -202.5 -72.5t-78.5 -196.5t78.5 -196.5t202.5 -72.5q125 0 203.5 72.5t78.5 196.5t-78.5 196.5t-203.5 72.5z
M554 838l140 142h158l-151 -142h-147zM285 838l140 142h158l-151 -142h-147z" />
    <glyph glyph-name="ohungarumlaut" unicode="&#x151;" horiz-adv-x="842" 
d="M421 626q155 0 255.5 -89t100.5 -233t-101 -233t-255 -89q-155 0 -255.5 89t-100.5 233t100.5 233t255.5 89zM421 96q97 0 159 56t62 152t-62 152t-159 56t-159 -56t-62 -152t62 -152t159 -56zM462 703l140 142h158l-151 -142h-147zM193 703l140 142h158l-151 -142h-147z
" />
    <glyph glyph-name="OE" unicode="&#x152;" horiz-adv-x="1224" 
d="M1149 117v-117h-517q-62 -18 -136 -18q-188 0 -304.5 107.5t-116.5 284.5q0 176 116.5 284t304.5 108q74 0 136 -18h511v-117h-386v-178h368v-115h-368v-221h392zM215 374q0 -124 78.5 -196.5t202.5 -72.5q72 0 126 27v484q-51 27 -126 27q-124 0 -202.5 -72.5
t-78.5 -196.5z" />
    <glyph glyph-name="oe" unicode="&#x153;" horiz-adv-x="1308" 
d="M1243 290v-24h-489q7 -77 64.5 -125t140.5 -48q137 0 228 55v-119q-93 -47 -227 -47q-83 0 -152 32.5t-112 89.5q-43 -58 -116 -90t-161 -32q-154 0 -254 89.5t-100 232.5q0 144 100.5 233t255.5 89q86 0 157.5 -31.5t114.5 -87.5q38 55 103 87t138 32q143 0 226 -86
t83 -250zM416 93q100 0 159.5 57t59.5 154q0 98 -58 154.5t-156 56.5t-159.5 -57t-61.5 -154q0 -96 60 -153.5t156 -57.5zM759 369h357q-26 146 -182 146q-64 0 -113 -37.5t-62 -108.5z" />
    <glyph glyph-name="Racute" unicode="&#x154;" horiz-adv-x="767" 
d="M540 325l210 -325h-158l-185 298h-172v-298h-135v748h328q106 0 177.5 -64t71.5 -159q0 -67 -38.5 -119.5t-98.5 -80.5zM401 412q57 0 98.5 28t41.5 79q0 55 -32 83t-87 28h-187v-218h166zM239 838l140 142h158l-151 -142h-147z" />
    <glyph glyph-name="racute" unicode="&#x155;" horiz-adv-x="543" 
d="M410 626q55 0 98 -19v-126q-44 25 -99 25q-93 0 -141 -48.5t-48 -134.5v-323h-130v607h130v-85q30 49 83 76.5t107 27.5zM212 703l140 142h158l-151 -142h-147z" />
    <glyph glyph-name="Rcaron" unicode="&#x158;" horiz-adv-x="767" 
d="M540 325l210 -325h-158l-185 298h-172v-298h-135v748h328q106 0 177.5 -64t71.5 -159q0 -67 -38.5 -119.5t-98.5 -80.5zM401 412q57 0 98.5 28t41.5 79q0 55 -32 83t-87 28h-187v-218h166zM580 980l-119 -142h-187l-116 142h124l86 -87l86 87h126z" />
    <glyph glyph-name="rcaron" unicode="&#x159;" horiz-adv-x="543" 
d="M410 626q55 0 98 -19v-126q-44 25 -99 25q-93 0 -141 -48.5t-48 -134.5v-323h-130v607h130v-85q30 49 83 76.5t107 27.5zM543 845l-119 -142h-187l-116 142h124l86 -87l86 87h126z" />
    <glyph glyph-name="Sacute" unicode="&#x15a;" 
d="M415 448q56 -18 95.5 -36t80.5 -47.5t62.5 -72t21.5 -96.5q0 -214 -327 -214q-167 0 -273 60v131q106 -70 273 -70q191 0 191 94q0 50 -51 80.5t-159 62.5q-43 13 -72.5 23.5t-66 30t-58.5 41.5t-37.5 56t-15.5 75q0 95 83 147.5t237 52.5q147 0 246 -57v-136
q-98 72 -244 72q-79 0 -132.5 -20t-53.5 -59q0 -10 2 -19t8 -16.5t12 -13.5t18 -12.5t21.5 -10.5t28 -10.5t31 -10.5l38 -12zM295 838l140 142h158l-151 -142h-147z" />
    <glyph glyph-name="sacute" unicode="&#x15b;" horiz-adv-x="659" 
d="M362 367q34 -10 48.5 -15t45 -16.5t45 -21t36 -26t31.5 -34t18 -42.5t8 -54q0 -176 -289 -176q-139 0 -235 49v121q106 -60 235 -60q84 0 120 16.5t36 49.5q0 37 -39.5 58t-133.5 47q-44 13 -77.5 27t-67.5 37t-52.5 57t-18.5 77q0 78 72 121.5t204 43.5q135 0 218 -47
v-122q-83 59 -216 59q-145 0 -145 -55q0 -29 32.5 -47.5t124.5 -46.5zM236 703l140 142h158l-151 -142h-147z" />
    <glyph glyph-name="Scedilla" unicode="&#x15e;" 
d="M675 196q0 -199 -285 -213v-49q48 -5 78.5 -31t30.5 -63q0 -62 -36.5 -87t-111.5 -25q-40 0 -69 9v81q27 -12 62 -12q67 0 67 32q0 45 -96 45v100q-144 5 -240 59v131q106 -70 273 -70q191 0 191 94q0 50 -51 80.5t-159 62.5q-43 13 -72.5 23.5t-66 30t-58.5 41.5
t-37.5 56t-15.5 75q0 95 83 147.5t237 52.5q147 0 246 -57v-136q-98 72 -244 72q-79 0 -132.5 -20t-53.5 -59q0 -10 2 -19t8 -16.5t12 -13.5t18 -12.5t21.5 -10.5t28 -10.5t31 -10.5l38 -12l41.5 -13q56 -18 95.5 -36t80.5 -47.5t62.5 -72t21.5 -96.5z" />
    <glyph glyph-name="scedilla" unicode="&#x15f;" horiz-adv-x="659" 
d="M594 158q0 -165 -255 -175v-49q48 -5 78.5 -31t30.5 -63q0 -62 -36.5 -87t-111.5 -25q-40 0 -69 9v81q27 -12 62 -12q67 0 67 32q0 45 -96 45v101q-115 6 -194 47v121q106 -60 235 -60q84 0 120 16.5t36 49.5q0 37 -39.5 58t-133.5 47q-44 13 -77.5 27t-67.5 37t-52.5 57
t-18.5 77q0 78 72 121.5t204 43.5q135 0 218 -47v-122q-83 59 -216 59q-145 0 -145 -55q0 -29 32.5 -47.5t124.5 -46.5q34 -10 48.5 -15t45 -16.5t45 -21t36 -26t31.5 -34t18 -42.5t8 -54z" />
    <glyph glyph-name="Scaron" unicode="&#x160;" 
d="M415 448q56 -18 95.5 -36t80.5 -47.5t62.5 -72t21.5 -96.5q0 -214 -327 -214q-167 0 -273 60v131q106 -70 273 -70q191 0 191 94q0 50 -51 80.5t-159 62.5q-43 13 -72.5 23.5t-66 30t-58.5 41.5t-37.5 56t-15.5 75q0 95 83 147.5t237 52.5q147 0 246 -57v-136
q-98 72 -244 72q-79 0 -132.5 -20t-53.5 -59q0 -10 2 -19t8 -16.5t12 -13.5t18 -12.5t21.5 -10.5t28 -10.5t31 -10.5l38 -12zM607 980l-119 -142h-187l-116 142h124l86 -87l86 87h126z" />
    <glyph glyph-name="scaron" unicode="&#x161;" horiz-adv-x="659" 
d="M362 367q34 -10 48.5 -15t45 -16.5t45 -21t36 -26t31.5 -34t18 -42.5t8 -54q0 -176 -289 -176q-139 0 -235 49v121q106 -60 235 -60q84 0 120 16.5t36 49.5q0 37 -39.5 58t-133.5 47q-44 13 -77.5 27t-67.5 37t-52.5 57t-18.5 77q0 78 72 121.5t204 43.5q135 0 218 -47
v-122q-83 59 -216 59q-145 0 -145 -55q0 -29 32.5 -47.5t124.5 -46.5zM550 845l-119 -142h-187l-116 142h124l86 -87l86 87h126z" />
    <glyph glyph-name="Tcommaaccent" unicode="&#x162;" horiz-adv-x="741" 
d="M438 -67l-139 -173h-105l115 173h129zM30 748h681v-120h-273v-628h-135v628h-273v120z" />
    <glyph glyph-name="tcommaaccent" unicode="&#x163;" horiz-adv-x="568" 
d="M422 -67l-139 -173h-105l115 173h129zM379 96q81 0 154 49v-126q-74 -37 -166 -37q-216 0 -216 221v292h-121v112h121v141h130v-141h215v-112h-215v-298q0 -101 98 -101z" />
    <glyph glyph-name="Tcaron" unicode="&#x164;" horiz-adv-x="741" 
d="M30 748h681v-120h-273v-628h-135v628h-273v120zM581 980l-119 -142h-187l-116 142h124l86 -87l86 87h126z" />
    <glyph glyph-name="tcaron" unicode="&#x165;" horiz-adv-x="617" 
d="M614 866l-119 -159h-103l86 159h136zM379 96q81 0 154 49v-126q-74 -37 -166 -37q-216 0 -216 221v292h-121v112h121v141h130v-141h215v-112h-215v-298q0 -101 98 -101z" />
    <glyph glyph-name="Umacron" unicode="&#x16a;" horiz-adv-x="874" 
d="M639 748h135v-471q0 -145 -88 -220t-249 -75t-249 75t-88 220v471h135v-475q0 -168 202 -168t202 168v475zM238 838v90h399v-90h-399z" />
    <glyph glyph-name="umacron" unicode="&#x16b;" horiz-adv-x="764" 
d="M544 607h130v-368q0 -122 -76.5 -189.5t-215.5 -67.5q-138 0 -215 67.5t-77 189.5v368h130v-364q0 -147 162 -147t162 147v364zM183 703v90h399v-90h-399z" />
    <glyph glyph-name="Uring" unicode="&#x16e;" horiz-adv-x="874" 
d="M639 748h135v-471q0 -145 -88 -220t-249 -75t-249 75t-88 220v471h135v-475q0 -168 202 -168t202 168v475zM437 981q-20 0 -34 -14t-14 -34t14 -34.5t34 -14.5t34 14.5t14 34.5t-14 34t-34 14zM437 1051q49 0 83.5 -34.5t34.5 -83.5t-34.5 -84t-83.5 -35t-83.5 35
t-34.5 84t34.5 83.5t83.5 34.5z" />
    <glyph glyph-name="uring" unicode="&#x16f;" horiz-adv-x="764" 
d="M544 607h130v-368q0 -122 -76.5 -189.5t-215.5 -67.5q-138 0 -215 67.5t-77 189.5v368h130v-364q0 -147 162 -147t162 147v364zM384 849q-20 0 -34 -14t-14 -34t14 -34.5t34 -14.5t34 14.5t14 34.5t-14 34t-34 14zM384 919q49 0 83.5 -34.5t34.5 -83.5t-34.5 -84
t-83.5 -35t-83.5 35t-34.5 84t34.5 83.5t83.5 34.5z" />
    <glyph glyph-name="Uhungarumlaut" unicode="&#x170;" horiz-adv-x="874" 
d="M639 748h135v-471q0 -145 -88 -220t-249 -75t-249 75t-88 220v471h135v-475q0 -168 202 -168t202 168v475zM474 838l140 142h158l-151 -142h-147zM205 838l140 142h158l-151 -142h-147z" />
    <glyph glyph-name="uhungarumlaut" unicode="&#x171;" horiz-adv-x="764" 
d="M544 607h130v-368q0 -122 -76.5 -189.5t-215.5 -67.5q-138 0 -215 67.5t-77 189.5v368h130v-364q0 -147 162 -147t162 147v364zM419 703l140 142h158l-151 -142h-147zM150 703l140 142h158l-151 -142h-147z" />
    <glyph glyph-name="Uogonek" unicode="&#x172;" horiz-adv-x="874" 
d="M639 748h135v-471q0 -119 -59.5 -191t-171.5 -94q-74 -56 -74 -104q0 -24 14.5 -35t32.5 -11q41 0 78 22v-89q-32 -15 -82 -15q-63 0 -99.5 31t-36.5 94q0 52 54 97q-158 2 -244 77t-86 218v471h135v-475q0 -168 202 -168t202 168v475z" />
    <glyph glyph-name="uogonek" unicode="&#x173;" horiz-adv-x="764" 
d="M544 607h130v-368q0 -93 -46 -155t-131 -87q-75 -57 -75 -104q0 -24 14.5 -35t32.5 -11q45 0 78 22v-89q-33 -15 -82 -15q-63 0 -99.5 31t-36.5 94q0 47 49 92q-137 2 -212.5 69t-75.5 188v368h130v-364q0 -147 162 -147t162 147v364z" />
    <glyph glyph-name="Wcircumflex" unicode="&#x174;" horiz-adv-x="1373" 
d="M1338 748l-257 -748h-216l-182 660l-183 -660h-218l-247 748h143l214 -662l180 662h226l174 -662l223 662h143zM775 980l119 -142h-126l-86 87l-86 -87h-124l116 142h187z" />
    <glyph glyph-name="wcircumflex" unicode="&#x175;" horiz-adv-x="1132" 
d="M1102 607l-200 -607h-202l-135 532l-142 -532h-202l-191 607h134l160 -530l138 530h210l130 -530l167 530h133zM657 845l119 -142h-126l-86 87l-86 -87h-124l116 142h187z" />
    <glyph glyph-name="Ycircumflex" unicode="&#x176;" horiz-adv-x="807" 
d="M629 748h144l-388 -748h-144l132 255h-76l-263 493h150l224 -426zM502 980l119 -142h-126l-86 87l-86 -87h-124l116 142h187z" />
    <glyph glyph-name="ycircumflex" unicode="&#x177;" horiz-adv-x="751" 
d="M583 607h139l-391 -847h-139l153 325h-64l-252 522h144l208 -444zM473 845l119 -142h-126l-86 87l-86 -87h-124l116 142h187z" />
    <glyph glyph-name="Ydieresis" unicode="&#x178;" horiz-adv-x="807" 
d="M629 748h144l-388 -748h-144l132 255h-76l-263 493h150l224 -426zM345 911q0 -30 -21.5 -51.5t-52.5 -21.5q-30 0 -51.5 21.5t-21.5 51.5q0 31 21.5 52.5t51.5 21.5q31 0 52.5 -21.5t21.5 -52.5zM622 911q0 -30 -21.5 -51.5t-52.5 -21.5q-30 0 -51.5 21.5t-21.5 51.5
q0 31 21.5 52.5t51.5 21.5q31 0 52.5 -21.5t21.5 -52.5z" />
    <glyph glyph-name="Zacute" unicode="&#x179;" horiz-adv-x="741" 
d="M165 118h521v-118h-626v189l495 441h-473v118h578v-189zM258 838l140 142h158l-151 -142h-147z" />
    <glyph glyph-name="zacute" unicode="&#x17a;" horiz-adv-x="638" 
d="M566 431l-410 -321h432v-110h-533v177l408 320h-389v110h492v-176zM205 703l140 142h158l-151 -142h-147z" />
    <glyph glyph-name="Zdotaccent" unicode="&#x17b;" horiz-adv-x="741" 
d="M165 118h521v-118h-626v189l495 441h-473v118h578v-189zM457 916q0 -32 -23 -55t-56 -23q-32 0 -55 23t-23 55q0 33 23 56t55 23q33 0 56 -23t23 -56z" />
    <glyph glyph-name="zdotaccent" unicode="&#x17c;" horiz-adv-x="638" 
d="M566 431l-410 -321h432v-110h-533v177l408 320h-389v110h492v-176zM407 781q0 -32 -23 -55t-56 -23q-32 0 -55 23t-23 55q0 33 23 56t55 23q33 0 56 -23t23 -56z" />
    <glyph glyph-name="Zcaron" unicode="&#x17d;" horiz-adv-x="741" 
d="M165 118h521v-118h-626v189l495 441h-473v118h578v-189zM591 980l-119 -142h-187l-116 142h124l86 -87l86 87h126z" />
    <glyph glyph-name="zcaron" unicode="&#x17e;" horiz-adv-x="638" 
d="M566 431l-410 -321h432v-110h-533v177l408 320h-389v110h492v-176zM533 845l-119 -142h-187l-116 142h124l86 -87l86 87h126z" />
    <glyph glyph-name="Scommaaccent" unicode="&#x218;" 
d="M420 -67l-139 -173h-105l115 173h129zM415 448q56 -18 95.5 -36t80.5 -47.5t62.5 -72t21.5 -96.5q0 -214 -327 -214q-167 0 -273 60v131q106 -70 273 -70q191 0 191 94q0 50 -51 80.5t-159 62.5q-43 13 -72.5 23.5t-66 30t-58.5 41.5t-37.5 56t-15.5 75q0 95 83 147.5
t237 52.5q147 0 246 -57v-136q-98 72 -244 72q-79 0 -132.5 -20t-53.5 -59q0 -10 2 -19t8 -16.5t12 -13.5t18 -12.5t21.5 -10.5t28 -10.5t31 -10.5l38 -12z" />
    <glyph glyph-name="scommaaccent" unicode="&#x219;" horiz-adv-x="659" 
d="M391 -67l-139 -173h-105l115 173h129zM362 367q34 -10 48.5 -15t45 -16.5t45 -21t36 -26t31.5 -34t18 -42.5t8 -54q0 -176 -289 -176q-139 0 -235 49v121q106 -60 235 -60q84 0 120 16.5t36 49.5q0 37 -39.5 58t-133.5 47q-44 13 -77.5 27t-67.5 37t-52.5 57t-18.5 77
q0 78 72 121.5t204 43.5q135 0 218 -47v-122q-83 59 -216 59q-145 0 -145 -55q0 -29 32.5 -47.5t124.5 -46.5z" />
    <glyph glyph-name="circumflex" unicode="&#x2c6;" horiz-adv-x="482" 
d="M333 977l119 -142h-126l-86 87l-86 -87h-124l116 142h187z" />
    <glyph glyph-name="caron" unicode="&#x2c7;" horiz-adv-x="482" 
d="M452 977l-119 -142h-187l-116 142h124l86 -87l86 87h126z" />
    <glyph glyph-name="breve" unicode="&#x2d8;" horiz-adv-x="465" 
d="M232 830q-151 0 -192 136h121q9 -17 30 -26.5t41 -9.5t41 9.5t30 26.5h122q-41 -136 -193 -136z" />
    <glyph glyph-name="dotaccent" unicode="&#x2d9;" horiz-adv-x="237" 
d="M197 913q0 -32 -23 -55t-56 -23q-32 0 -55 23t-23 55q0 33 23 56t55 23q33 0 56 -23t23 -56z" />
    <glyph glyph-name="ring" unicode="&#x2da;" horiz-adv-x="326" 
d="M163 981q-20 0 -34 -14t-14 -34t14 -34.5t34 -14.5t34 14.5t14 34.5t-14 34t-34 14zM163 1051q49 0 83.5 -34.5t34.5 -83.5t-34.5 -84t-83.5 -35t-83.5 35t-34.5 84t34.5 83.5t83.5 34.5z" />
    <glyph glyph-name="ogonek" unicode="&#x2db;" horiz-adv-x="318" 
d="M195 -158q43 0 78 22v-89q-33 -15 -82 -15q-63 0 -99.5 31t-36.5 94q0 37 30.5 72.5t63.5 51.5h98q-42 -27 -70.5 -60.5t-28.5 -60.5q0 -24 14.5 -35t32.5 -11z" />
    <glyph glyph-name="tilde" unicode="&#x2dc;" horiz-adv-x="470" 
d="M142 833h-102q0 66 39.5 98t92.5 32q32 0 69.5 -19t47.5 -19q19 0 28 8t11 27h102q0 -66 -37 -98t-98 -32q-32 0 -69.5 19t-47.5 19q-33 0 -36 -35z" />
    <glyph glyph-name="hungarumlaut" unicode="&#x2dd;" horiz-adv-x="627" 
d="M299 835l140 142h158l-151 -142h-147zM30 835l140 142h158l-151 -142h-147z" />
    <glyph glyph-name="uni0401" unicode="&#x401;" horiz-adv-x="738" 
d="M235 117h428v-117h-563v748h557v-117h-422v-178h404v-115h-404v-221zM320 911q0 -30 -21.5 -51.5t-52.5 -21.5q-30 0 -51.5 21.5t-21.5 51.5q0 31 21.5 52.5t51.5 21.5q31 0 52.5 -21.5t21.5 -52.5zM597 911q0 -30 -21.5 -51.5t-52.5 -21.5q-30 0 -51.5 21.5t-21.5 51.5
q0 31 21.5 52.5t51.5 21.5q31 0 52.5 -21.5t21.5 -52.5z" />
    <glyph glyph-name="uni0402" unicode="&#x402;" horiz-adv-x="867" 
d="M487 473q135 0 215 -59t80 -174q0 -122 -76.5 -184.5t-189.5 -62.5q-38 0 -61 7v118q23 -8 59 -8q58 0 94.5 33t36.5 97q0 57 -41 86.5t-119 29.5q-103 0 -163 -62v-294h-135v631h-157v117h469v-117h-177v-205q66 47 165 47z" />
    <glyph glyph-name="uni0403" unicode="&#x403;" horiz-adv-x="644" 
d="M291 838l140 142h158l-151 -142h-147zM100 748h514v-120h-379v-628h-135v748z" />
    <glyph glyph-name="uni0404" unicode="&#x404;" horiz-adv-x="788" 
d="M489 766q132 0 224 -58v-133q-40 31 -99.5 49.5t-124.5 18.5q-103 0 -176.5 -50t-96.5 -141h425v-115h-431q12 -107 91.5 -169.5t189.5 -62.5q125 0 222 67v-134q-91 -56 -222 -56q-185 0 -300.5 108t-115.5 284q0 181 113 286.5t301 105.5z" />
    <glyph glyph-name="uni0405" unicode="&#x405;" 
d="M415 448q56 -18 95.5 -36t80.5 -47.5t62.5 -72t21.5 -96.5q0 -214 -327 -214q-167 0 -273 60v131q106 -70 273 -70q191 0 191 94q0 50 -51 80.5t-159 62.5q-43 13 -72.5 23.5t-66 30t-58.5 41.5t-37.5 56t-15.5 75q0 95 83 147.5t237 52.5q147 0 246 -57v-136
q-98 72 -244 72q-79 0 -132.5 -20t-53.5 -59q0 -10 2 -19t8 -16.5t12 -13.5t18 -12.5t21.5 -10.5t28 -10.5t31 -10.5l38 -12z" />
    <glyph glyph-name="uni0406" unicode="&#x406;" horiz-adv-x="345" 
d="M105 748h135v-748h-135v748z" />
    <glyph glyph-name="uni0407" unicode="&#x407;" horiz-adv-x="345" 
d="M108 911q0 -30 -21.5 -51.5t-52.5 -21.5q-30 0 -51.5 21.5t-21.5 51.5q0 31 21.5 52.5t51.5 21.5q31 0 52.5 -21.5t21.5 -52.5zM385 911q0 -30 -21.5 -51.5t-52.5 -21.5q-30 0 -51.5 21.5t-21.5 51.5q0 31 21.5 52.5t51.5 21.5q31 0 52.5 -21.5t21.5 -52.5zM105 748h135
v-748h-135v748z" />
    <glyph glyph-name="uni0408" unicode="&#x408;" horiz-adv-x="597" 
d="M110 748h387v-485q0 -141 -73 -211t-207 -70q-48 0 -98 14t-74 32v130q69 -53 170 -53q147 0 147 154v369h-252v120z" />
    <glyph glyph-name="uni0409" unicode="&#x409;" horiz-adv-x="1307" 
d="M976 466q113 0 189.5 -61.5t76.5 -171.5t-76.5 -171.5t-189.5 -61.5h-331v628h-320v-296q0 -171 -50 -255t-181 -84q-37 0 -64 8v121q22 -7 54 -7q63 0 84.5 51t21.5 169v413h590v-282h196zM976 117q55 0 91.5 30.5t36.5 85.5t-36.5 85.5t-91.5 30.5h-196v-232h196z" />
    <glyph glyph-name="uni040A" unicode="&#x40a;" horiz-adv-x="1301" 
d="M971 466q113 0 189 -61.5t76 -171.5t-76 -171.5t-189 -61.5h-331v349h-405v-349h-135v748h135v-282h405v282h135v-282h196zM971 117q55 0 91.5 30.5t36.5 85.5t-36.5 85.5t-91.5 30.5h-196v-232h196z" />
    <glyph glyph-name="uni040B" unicode="&#x40b;" horiz-adv-x="870" 
d="M487 473q133 0 213 -56.5t80 -172.5v-244h-135v243q0 113 -160 113q-103 0 -163 -62v-294h-135v631h-157v117h469v-117h-177v-205q64 47 165 47z" />
    <glyph glyph-name="uni040C" unicode="&#x40c;" horiz-adv-x="839" 
d="M321 838l140 142h158l-151 -142h-147zM795 748l-339 -263l349 -485h-164l-285 408l-121 -95v-313h-135v748h135v-284l364 284h196z" />
    <glyph glyph-name="uni040E" unicode="&#x40e;" horiz-adv-x="807" 
d="M629 748h144l-388 -748h-144l132 255h-76l-263 493h150l224 -426zM408 838q-151 0 -192 136h121q9 -17 30 -26.5t41 -9.5t41 9.5t30 26.5h122q-41 -136 -193 -136z" />
    <glyph glyph-name="uni040F" unicode="&#x40f;" horiz-adv-x="903" 
d="M668 748h135v-748h-286v-184h-132v184h-285v748h135v-628h433v628z" />
    <glyph glyph-name="uni0410" unicode="&#x410;" horiz-adv-x="933" 
d="M248 167l-72 -167h-144l332 748h203l334 -748h-146l-73 167h-434zM297 282h336l-168 380z" />
    <glyph glyph-name="uni0411" unicode="&#x411;" horiz-adv-x="794" 
d="M470 453q116 0 187.5 -60t71.5 -164q0 -112 -70 -170.5t-189 -58.5h-370v748h569v-117h-434v-178h235zM470 117q56 0 88.5 28.5t32.5 83.5q0 51 -33 80t-88 29h-235v-221h235z" />
    <glyph glyph-name="uni0412" unicode="&#x412;" horiz-adv-x="780" 
d="M572 415q62 -22 100 -68t38 -116q0 -116 -71.5 -173.5t-186.5 -57.5h-352v748h297q119 0 187 -51t68 -147q0 -86 -80 -135zM233 634v-184h154q53 0 92.5 22.5t39.5 66.5q0 95 -121 95h-165zM425 115q148 0 148 116q0 35 -13.5 58t-39 33.5t-50 14t-58.5 3.5h-179v-225
h192z" />
    <glyph glyph-name="uni0413" unicode="&#x413;" horiz-adv-x="644" 
d="M100 748h514v-120h-379v-628h-135v748z" />
    <glyph glyph-name="uni0414" unicode="&#x414;" horiz-adv-x="980" 
d="M829 116h111v-300h-132v184h-636v-184h-132v300h85q42 52 65.5 132t23.5 168v332h615v-632zM694 116v516h-345v-216q0 -87 -18 -168t-51 -132h414z" />
    <glyph glyph-name="uni0415" unicode="&#x415;" horiz-adv-x="738" 
d="M235 117h428v-117h-563v748h557v-117h-422v-178h404v-115h-404v-221z" />
    <glyph glyph-name="uni0416" unicode="&#x416;" horiz-adv-x="1278" 
d="M911 481l333 -481h-158l-272 403l-109 -90v-313h-132v313l-109 90l-272 -403h-158l333 481l-327 267h187l346 -284v284h132v-284l346 284h187z" />
    <glyph glyph-name="uni0417" unicode="&#x417;" horiz-adv-x="727" 
d="M515 399q147 -47 147 -192q0 -64 -28 -109.5t-77.5 -70t-106.5 -35t-126 -10.5q-159 0 -259 62v133q111 -74 256 -74q205 0 205 104q0 74 -52.5 102.5t-170.5 28.5h-93v115h78q68 0 109.5 6.5t68 27t26.5 58.5q0 57 -46 78.5t-128 21.5q-143 0 -241 -72v133
q100 60 243 60q305 0 305 -213q0 -99 -110 -154z" />
    <glyph glyph-name="uni0418" unicode="&#x418;" horiz-adv-x="909" 
d="M579 748h230v-748h-135v661l-343 -661h-231v748h135v-661z" />
    <glyph glyph-name="uni0419" unicode="&#x419;" horiz-adv-x="909" 
d="M442 838q-151 0 -192 136h121q9 -17 30 -26.5t41 -9.5t41 9.5t30 26.5h122q-41 -136 -193 -136zM579 748h230v-748h-135v661l-343 -661h-231v748h135v-661z" />
    <glyph glyph-name="uni041A" unicode="&#x41a;" horiz-adv-x="839" 
d="M795 748l-339 -263l349 -485h-164l-285 408l-121 -95v-313h-135v748h135v-284l364 284h196z" />
    <glyph glyph-name="uni041B" unicode="&#x41b;" horiz-adv-x="909" 
d="M190 748h619v-748h-135v628h-349v-296q0 -171 -50 -255t-181 -84q-37 0 -64 8v121q22 -7 54 -7q63 0 84.5 51t21.5 169v413z" />
    <glyph glyph-name="uni041C" unicode="&#x41c;" horiz-adv-x="1181" 
d="M1081 748v-748h-132v661l-257 -661h-205l-255 661v-661h-132v748h235l254 -661l256 661h236z" />
    <glyph glyph-name="uni041D" unicode="&#x41d;" horiz-adv-x="903" 
d="M668 748h135v-748h-135v337h-433v-337h-135v748h135v-294h433v294z" />
    <glyph glyph-name="uni041E" unicode="&#x41e;" horiz-adv-x="993" 
d="M496 -18q-188 0 -304.5 107.5t-116.5 284.5q0 176 116.5 284t304.5 108q189 0 305.5 -108t116.5 -284q0 -177 -116.5 -284.5t-305.5 -107.5zM496 643q-124 0 -202.5 -72.5t-78.5 -196.5t78.5 -196.5t202.5 -72.5q125 0 203.5 72.5t78.5 196.5t-78.5 196.5t-203.5 72.5z
" />
    <glyph glyph-name="uni041F" unicode="&#x41f;" horiz-adv-x="903" 
d="M100 748h703v-748h-135v628h-433v-628h-135v748z" />
    <glyph glyph-name="uni0420" unicode="&#x420;" horiz-adv-x="751" 
d="M427 748q111 0 185 -64.5t74 -175.5t-73 -175.5t-184 -64.5h-194v-268h-135v748h327zM429 385q53 0 86 33.5t33 89.5q0 57 -33.5 89.5t-87.5 32.5h-192v-245h194z" />
    <glyph glyph-name="uni0421" unicode="&#x421;" horiz-adv-x="789" 
d="M493 766q132 0 221 -58v-134q-40 30 -99.5 49.5t-121.5 19.5q-123 0 -200.5 -71.5t-77.5 -197.5q0 -123 79 -196t199 -73q117 0 221 68v-135q-91 -56 -221 -56q-182 0 -300 108.5t-118 283.5q0 181 114.5 286.5t303.5 105.5z" />
    <glyph glyph-name="uni0422" unicode="&#x422;" horiz-adv-x="741" 
d="M30 748h681v-120h-273v-628h-135v628h-273v120z" />
    <glyph glyph-name="uni0423" unicode="&#x423;" horiz-adv-x="807" 
d="M629 748h144l-388 -748h-144l132 255h-76l-263 493h150l224 -426z" />
    <glyph glyph-name="uni0424" unicode="&#x424;" horiz-adv-x="1029" 
d="M587 672q175 0 271 -73t96 -217q0 -145 -96 -218t-271 -73h-7v-109h-132v109h-7q-175 0 -270.5 73t-95.5 218q0 144 95.5 217t270.5 73h7v94h132v-94h7zM448 204v355h-9q-229 0 -229 -177q0 -178 229 -178h9zM590 204q229 0 229 178q0 177 -229 177h-10v-355h10z" />
    <glyph glyph-name="uni0425" unicode="&#x425;" horiz-adv-x="848" 
d="M818 0h-159l-232 356l-237 -356h-159l276 403l-240 345h160l201 -298l202 298h156l-237 -345z" />
    <glyph glyph-name="uni0426" unicode="&#x426;" horiz-adv-x="919" 
d="M756 120h123v-304h-132v184h-647v748h135v-628h386v628h135v-628z" />
    <glyph glyph-name="uni0427" unicode="&#x427;" horiz-adv-x="804" 
d="M569 748h135v-748h-135v296q-120 -23 -243 -23q-106 0 -176 57t-70 164v254h135v-244q0 -56 36 -84.5t96 -28.5q113 0 222 24v333z" />
    <glyph glyph-name="uni0428" unicode="&#x428;" horiz-adv-x="1333" 
d="M100 748h135v-628h364v628h135v-628h364v628h135v-748h-1133v748z" />
    <glyph glyph-name="uni0429" unicode="&#x429;" horiz-adv-x="1396" 
d="M1233 120h123v-304h-132v184h-1124v748h135v-628h364v628h135v-628h364v628h135v-628z" />
    <glyph glyph-name="uni042A" unicode="&#x42a;" horiz-adv-x="894" 
d="M563 466q113 0 189.5 -61.5t76.5 -171.5t-76.5 -171.5t-189.5 -61.5h-345v631h-188v117h323v-282h210zM563 117q55 0 91.5 30.5t36.5 85.5t-36.5 85.5t-91.5 30.5h-210v-232h210z" />
    <glyph glyph-name="uni042B" unicode="&#x42b;" horiz-adv-x="1028" 
d="M793 748h135v-748h-135v748zM425 466q113 0 189.5 -61.5t76.5 -171.5t-76.5 -171.5t-189.5 -61.5h-325v748h135v-282h190zM425 117q55 0 91.5 30.5t36.5 85.5t-36.5 85.5t-91.5 30.5h-190v-232h190z" />
    <glyph glyph-name="uni042C" unicode="&#x42c;" horiz-adv-x="775" 
d="M444 466q113 0 189.5 -61.5t76.5 -171.5t-76.5 -171.5t-189.5 -61.5h-344v748h135v-282h209zM444 117q55 0 91.5 30.5t36.5 85.5t-36.5 85.5t-91.5 30.5h-209v-232h209z" />
    <glyph glyph-name="uni042D" unicode="&#x42d;" horiz-adv-x="796" 
d="M305 766q192 0 304 -105t112 -287q0 -176 -114.5 -284t-301.5 -108q-136 0 -230 57v134q105 -68 230 -68q112 0 190.5 61.5t91.5 170.5h-412v115h405q-21 90 -95.5 140.5t-179.5 50.5q-130 0 -230 -72v134q97 61 230 61z" />
    <glyph glyph-name="uni042E" unicode="&#x42e;" horiz-adv-x="1235" 
d="M755 766q176 -1 290.5 -109t114.5 -283t-114.5 -283.5t-290.5 -108.5q-163 0 -272.5 97t-122.5 258h-125v-337h-135v748h135v-294h131q25 142 131.5 226.5t257.5 85.5zM755 105q112 0 188.5 73t76.5 196q0 122 -77 195.5t-188 73.5q-108 0 -185 -73.5t-77 -195.5
t77 -195.5t185 -73.5z" />
    <glyph glyph-name="uni042F" unicode="&#x42f;" horiz-adv-x="768" 
d="M17 0l211 325q-61 28 -99.5 80.5t-38.5 119.5q0 95 71.5 159t177.5 64h329v-748h-135v298h-172l-186 -298h-158zM227 519q0 -51 41 -79t98 -28h167v218h-188q-55 0 -86.5 -28t-31.5 -83z" />
    <glyph glyph-name="uni0430" unicode="&#x430;" horiz-adv-x="728" 
d="M683 102q6 0 15 3v-111q-18 -6 -41 -6q-95 0 -143 82q-27 -36 -77.5 -62t-113.5 -26q-117 0 -187.5 57.5t-70.5 155.5q0 88 75 147.5t169 59.5q55 0 116 -23.5t69 -23.5v44q0 56 -46.5 86t-119.5 30q-131 0 -224 -67v121q89 57 218 57q133 0 216.5 -61.5t83.5 -153.5
v-260q0 -49 61 -49zM494 212v42q-13 0 -74.5 22t-105.5 22q-50 0 -83 -28.5t-33 -74.5q0 -51 36 -78.5t102 -27.5q67 0 112.5 33t45.5 90z" />
    <glyph glyph-name="uni0431" unicode="&#x431;" horiz-adv-x="827" 
d="M442 852l283 32v-120l-273 -27q-109 -12 -173.5 -79t-69.5 -177q83 109 234 109q137 0 228 -85t91 -215q0 -142 -100.5 -225t-247.5 -83q-195 0 -285 152q-54 93 -54 255q0 221 95 331.5t272 131.5zM420 476q-87 0 -149 -49.5t-62 -141.5q0 -80 59 -134.5t148 -54.5
q97 0 154 54.5t57 140.5q0 83 -55 134t-152 51z" />
    <glyph glyph-name="uni0432" unicode="&#x432;" horiz-adv-x="705" 
d="M536 337q43 -20 73.5 -59.5t30.5 -89.5q0 -94 -66.5 -141t-166.5 -47h-317v607h283q103 0 167 -41.5t64 -118.5q0 -34 -20 -63t-48 -47zM215 501v-129h170q94 0 94 66q0 63 -105 63h-159zM384 108q65 0 95.5 17.5t30.5 62.5q0 82 -120 82h-175v-162h169z" />
    <glyph glyph-name="uni0433" unicode="&#x433;" horiz-adv-x="559" 
d="M90 607h439v-112h-309v-495h-130v607z" />
    <glyph glyph-name="uni0434" unicode="&#x434;" horiz-adv-x="826" 
d="M693 109h93v-274h-125v165h-496v-165h-125v274h73q75 91 75 222v276h505v-498zM563 109v389h-245v-167q0 -131 -59 -222h304z" />
    <glyph glyph-name="uni0435" unicode="&#x435;" 
d="M685 291v-24h-492q12 -80 67.5 -127t137.5 -47q136 0 234 56v-118q-96 -49 -233 -49q-146 0 -240 92t-94 230q0 143 89 232.5t219 89.5q144 0 228 -86t84 -249zM198 370h360q-26 146 -185 146q-62 0 -109 -37.5t-66 -108.5z" />
    <glyph glyph-name="uni0436" unicode="&#x436;" horiz-adv-x="1087" 
d="M780 397l274 -397h-152l-215 326l-80 -64v-262h-127v262l-80 64l-215 -326h-152l274 397l-266 210h179l260 -217v217h127v-217l260 217h178z" />
    <glyph glyph-name="uni0437" unicode="&#x437;" horiz-adv-x="664" 
d="M491 330q49 -20 78.5 -61t29.5 -98q0 -103 -81 -146t-227 -43q-63 0 -125.5 13.5t-100.5 33.5v120q104 -56 223 -56q96 0 137 19.5t41 60.5q0 54 -41.5 75t-141.5 21h-101v106h102q82 0 121 15.5t39 54.5q0 70 -158 70q-116 0 -210 -57v121q93 47 212 47q130 0 208 -41.5
t78 -133.5q0 -74 -83 -121z" />
    <glyph glyph-name="uni0438" unicode="&#x438;" horiz-adv-x="782" 
d="M478 607h214v-607h-130v531l-254 -531h-218v607h130v-531z" />
    <glyph glyph-name="uni0439" unicode="&#x439;" horiz-adv-x="782" 
d="M381 703q-151 0 -192 136h121q9 -17 30 -26.5t41 -9.5t40.5 9.5t29.5 26.5h122q-41 -136 -192 -136zM478 607h214v-607h-130v531l-254 -531h-218v607h130v-531z" />
    <glyph glyph-name="uni043A" unicode="&#x43a;" horiz-adv-x="724" 
d="M691 0h-160l-226 321l-85 -66v-255h-130v607h130v-219l277 219h181l-276 -215z" />
    <glyph glyph-name="uni043B" unicode="&#x43b;" horiz-adv-x="764" 
d="M143 607h531v-607h-130v495h-271v-189q0 -319 -188 -319q-34 0 -55 4v111q18 -3 32 -3q48 0 64.5 52.5t16.5 151.5v304z" />
    <glyph glyph-name="uni043C" unicode="&#x43c;" horiz-adv-x="1029" 
d="M714 607h225v-607h-127v530l-201 -530h-194l-200 530v-530h-127v607h223l201 -531z" />
    <glyph glyph-name="uni043D" unicode="&#x43d;" horiz-adv-x="772" 
d="M552 607h130v-607h-130v268h-332v-268h-130v607h130v-230h332v230z" />
    <glyph glyph-name="uni043E" unicode="&#x43e;" horiz-adv-x="842" 
d="M421 626q155 0 255.5 -89t100.5 -233t-101 -233t-255 -89q-155 0 -255.5 89t-100.5 233t100.5 233t255.5 89zM421 96q97 0 159 56t62 152t-62 152t-159 56t-159 -56t-62 -152t62 -152t159 -56z" />
    <glyph glyph-name="uni043F" unicode="&#x43f;" horiz-adv-x="771" 
d="M90 607h591v-607h-130v495h-331v-495h-130v607z" />
    <glyph glyph-name="uni0440" unicode="&#x440;" horiz-adv-x="835" 
d="M770 304q0 -144 -94.5 -233t-244.5 -89q-60 0 -116.5 23t-94.5 66v-311h-130v847h130v-71q38 44 94.5 67t116.5 23q155 0 247 -87.5t92 -234.5zM635 304q0 97 -60 152.5t-158 55.5q-207 0 -207 -208t207 -208q93 0 155.5 57t62.5 151z" />
    <glyph glyph-name="uni0441" unicode="&#x441;" horiz-adv-x="689" 
d="M424 626q121 0 200 -49v-123q-35 25 -89.5 41.5t-110.5 16.5q-100 0 -162 -54.5t-62 -153.5q0 -98 63 -153t161 -55q106 0 200 58v-124q-84 -48 -200 -48q-159 0 -259 89t-100 233q0 150 97.5 236t261.5 86z" />
    <glyph glyph-name="uni0442" unicode="&#x442;" horiz-adv-x="651" 
d="M621 607v-112h-231v-495h-130v495h-230v112h591z" />
    <glyph glyph-name="uni0443" unicode="&#x443;" horiz-adv-x="751" 
d="M583 607h139l-391 -847h-139l153 325h-64l-252 522h144l208 -444z" />
    <glyph glyph-name="uni0444" unicode="&#x444;" horiz-adv-x="1131" 
d="M347 626q50 0 90.5 -18t63.5 -43v270h128v-270q59 61 154 61q114 0 198.5 -88.5t84.5 -233.5t-84.5 -233.5t-198.5 -88.5q-97 0 -154 59v-281h-128v281q-22 -24 -62.5 -41.5t-91.5 -17.5q-113 0 -197.5 88.5t-84.5 233.5t84.5 233.5t197.5 88.5zM769 95q74 0 119 54
t45 155t-45 155t-119 54q-79 0 -113 -43.5t-34 -166.5q0 -122 34 -165t113 -43zM361 95q79 0 113 42.5t34 165.5q0 85 -16.5 131t-47 62.5t-83.5 16.5q-74 0 -118.5 -54t-44.5 -155t44.5 -155t118.5 -54z" />
    <glyph glyph-name="uni0445" unicode="&#x445;" horiz-adv-x="701" 
d="M461 330l211 -330h-146l-175 282l-177 -282h-145l214 329l-187 278h146l150 -230l153 230h144z" />
    <glyph glyph-name="uni0446" unicode="&#x446;" horiz-adv-x="814" 
d="M669 112h105v-276h-125v164h-559v607h130v-495h319v495h130v-495z" />
    <glyph glyph-name="uni0447" unicode="&#x447;" horiz-adv-x="704" 
d="M614 607v-607h-130v221q-100 -19 -184 -19q-108 0 -169 49t-61 146v210h130v-205q0 -45 32.5 -68t84.5 -23q68 0 167 22v274h130z" />
    <glyph glyph-name="uni0448" unicode="&#x448;" horiz-adv-x="1163" 
d="M943 607h130v-607h-983v607h130v-495h296v495h130v-495h297v495z" />
    <glyph glyph-name="uni0449" unicode="&#x449;" horiz-adv-x="1219" 
d="M1074 112h105v-277h-125v165h-964v607h130v-495h297v495h130v-495h297v495h130v-495z" />
    <glyph glyph-name="uni044A" unicode="&#x44a;" horiz-adv-x="795" 
d="M495 395q111 0 175.5 -50t64.5 -147t-64.5 -147.5t-175.5 -50.5h-304v498h-161v109h291v-212h174zM495 109q45 0 76 22t31 67q0 46 -31 67t-76 21h-174v-177h174z" />
    <glyph glyph-name="uni044B" unicode="&#x44b;" horiz-adv-x="901" 
d="M681 0v607h130v-607h-130zM369 395q109 0 172 -50t63 -147t-63 -147.5t-172 -50.5h-279v607h130v-212h149zM369 109q45 0 73.5 21.5t28.5 67.5t-28.5 67t-73.5 21h-149v-177h149z" />
    <glyph glyph-name="uni044C" unicode="&#x44c;" horiz-adv-x="693" 
d="M393 395q111 0 175.5 -50t64.5 -147t-64.5 -147.5t-175.5 -50.5h-303v607h130v-212h173zM393 109q45 0 76 22t31 67q0 46 -31 67t-76 21h-173v-177h173z" />
    <glyph glyph-name="uni044D" unicode="&#x44d;" horiz-adv-x="687" 
d="M266 514q-57 0 -111 -17t-90 -42v121q80 50 201 50q164 0 260 -84.5t96 -237.5q0 -147 -98.5 -234.5t-257.5 -87.5q-119 0 -201 47v122q92 -57 201 -57q90 0 149.5 45.5t72.5 128.5h-320v106h315q-20 68 -77 104t-140 36z" />
    <glyph glyph-name="uni044E" unicode="&#x44e;" horiz-adv-x="1068" 
d="M663 626q147 -1 243.5 -90t96.5 -232q0 -144 -97 -233t-243 -89q-131 0 -222 78.5t-104 207.5h-117v-268h-130v607h130v-230h121q24 114 112.5 181t209.5 68zM663 96q90 0 147.5 56t57.5 152t-57.5 152t-147.5 56t-144.5 -56t-54.5 -152q0 -97 54.5 -152.5t144.5 -55.5z
" />
    <glyph glyph-name="uni044F" unicode="&#x44f;" horiz-adv-x="706" 
d="M328 607h288v-607h-130v233h-149l-153 -233h-152l176 255q-56 22 -92 65.5t-36 103.5q0 87 68 135t180 48zM486 336v165h-163q-110 0 -110 -84q0 -81 110 -81h163z" />
    <glyph glyph-name="uni0451" unicode="&#x451;" 
d="M317 776q0 -30 -21.5 -51.5t-52.5 -21.5q-30 0 -51.5 21.5t-21.5 51.5q0 31 21.5 52.5t51.5 21.5q31 0 52.5 -21.5t21.5 -52.5zM594 776q0 -30 -21.5 -51.5t-52.5 -21.5q-30 0 -51.5 21.5t-21.5 51.5q0 31 21.5 52.5t51.5 21.5q31 0 52.5 -21.5t21.5 -52.5zM685 291v-24
h-492q12 -80 67.5 -127t137.5 -47q136 0 234 56v-118q-96 -49 -233 -49q-146 0 -240 92t-94 230q0 143 89 232.5t219 89.5q144 0 228 -86t84 -249zM198 370h360q-26 146 -185 146q-62 0 -109 -37.5t-66 -108.5z" />
    <glyph glyph-name="uni0452" unicode="&#x452;" horiz-adv-x="822" 
d="M732 322v-50q0 -226 -61.5 -337t-166.5 -111q-43 0 -63 7v111q23 -6 40 -6q121 0 121 333v38q0 66 -28.5 96t-99.5 30q-95 0 -149 -44.5t-54 -121.5v-267h-130v666h-111v100h111v100h130v-100h276v-100h-276v-211q36 46 91.5 69t111.5 23q124 0 191 -59t67 -166z" />
    <glyph glyph-name="uni0453" unicode="&#x453;" horiz-adv-x="559" 
d="M213 703l140 142h158l-151 -142h-147zM90 607h439v-112h-309v-495h-130v607z" />
    <glyph glyph-name="uni0454" unicode="&#x454;" horiz-adv-x="692" 
d="M424 514q-83 0 -141.5 -36.5t-78.5 -103.5h340v-107h-345q13 -82 74 -127.5t151 -45.5q109 0 203 57v-122q-83 -47 -203 -47q-162 0 -260.5 87t-98.5 234q0 154 96 238.5t263 84.5q121 0 203 -50v-121q-35 25 -91 42t-112 17z" />
    <glyph glyph-name="uni0455" unicode="&#x455;" horiz-adv-x="659" 
d="M362 367q34 -10 48.5 -15t45 -16.5t45 -21t36 -26t31.5 -34t18 -42.5t8 -54q0 -176 -289 -176q-139 0 -235 49v121q106 -60 235 -60q84 0 120 16.5t36 49.5q0 37 -39.5 58t-133.5 47q-44 13 -77.5 27t-67.5 37t-52.5 57t-18.5 77q0 78 72 121.5t204 43.5q135 0 218 -47
v-122q-83 59 -216 59q-145 0 -145 -55q0 -29 32.5 -47.5t124.5 -46.5z" />
    <glyph glyph-name="uni0456" unicode="&#x456;" horiz-adv-x="320" 
d="M238 781q0 -32 -23 -55t-55 -23q-33 0 -56 23t-23 55q0 33 23 56t56 23q32 0 55 -23t23 -56zM95 0v607h130v-607h-130z" />
    <glyph glyph-name="uni0457" unicode="&#x457;" horiz-adv-x="320" 
d="M95 0v607h130v-607h-130zM95 776q0 -30 -21.5 -51.5t-52.5 -21.5q-30 0 -51.5 21.5t-21.5 51.5q0 31 21.5 52.5t51.5 21.5q31 0 52.5 -21.5t21.5 -52.5zM372 776q0 -30 -21.5 -51.5t-52.5 -21.5q-30 0 -51.5 21.5t-21.5 51.5q0 31 21.5 52.5t51.5 21.5q31 0 52.5 -21.5
t21.5 -52.5z" />
    <glyph glyph-name="uni0458" unicode="&#x458;" horiz-adv-x="430" 
d="M344 781q0 -32 -23 -55t-55 -23q-33 0 -56 23t-23 55q0 33 23 56t56 23q32 0 55 -23t23 -56zM60 607h280v-584q0 -281 -254 -281q-47 0 -79 10v114q36 -10 77 -10q126 0 126 163v476h-150v112z" />
    <glyph glyph-name="uni0459" unicode="&#x459;" horiz-adv-x="1106" 
d="M805 395q111 0 176 -50.5t65 -146.5q0 -97 -65 -147.5t-176 -50.5h-281v495h-251v-189q0 -319 -188 -319q-34 0 -55 4v111q18 -3 32 -3q48 0 64.5 52.5t16.5 151.5v304h511v-212h151zM805 109q45 0 76.5 21.5t31.5 67.5t-31.5 67t-76.5 21h-151v-177h151z" />
    <glyph glyph-name="uni045A" unicode="&#x45a;" horiz-adv-x="1115" 
d="M815 395q111 0 175.5 -50t64.5 -147t-64.5 -147.5t-175.5 -50.5h-281v286h-314v-286h-130v607h130v-212h315v212h129v-212h151zM815 109q45 0 76 22t31 67q0 46 -31 67t-76 21h-151v-177h151z" />
    <glyph glyph-name="uni045B" unicode="&#x45b;" horiz-adv-x="822" 
d="M732 0h-130v307q0 65 -28.5 95.5t-99.5 30.5q-96 0 -150 -44.5t-54 -121.5v-267h-130v666h-110v100h110v100h130v-100h276v-100h-276v-211q37 46 92 69t111 23q124 0 191.5 -59t67.5 -166v-322z" />
    <glyph glyph-name="uni045C" unicode="&#x45c;" horiz-adv-x="723" 
d="M274 703l140 142h158l-151 -142h-147zM691 0h-160l-226 321l-85 -66v-255h-130v607h130v-219l277 219h181l-276 -215z" />
    <glyph glyph-name="uni045E" unicode="&#x45e;" horiz-adv-x="751" 
d="M383 703q-151 0 -192 136h121q9 -17 30 -26.5t41 -9.5t40.5 9.5t29.5 26.5h122q-41 -136 -192 -136zM583 607h139l-391 -847h-139l153 325h-64l-252 522h144l208 -444z" />
    <glyph glyph-name="uni045F" unicode="&#x45f;" horiz-adv-x="772" 
d="M552 607h130v-607h-233v-165h-125v165h-234v607h130v-495h332v495z" />
    <glyph glyph-name="uni0490" unicode="&#x490;" horiz-adv-x="644" 
d="M485 895h129v-267h-379v-628h-135v748h385v147z" />
    <glyph glyph-name="uni0491" unicode="&#x491;" horiz-adv-x="558" 
d="M406 737h122v-242h-308v-495h-130v607h316v130z" />
    <glyph glyph-name="figuredash" unicode="&#x2012;" horiz-adv-x="951" 
d="M70 428h811v-100h-811v100z" />
    <glyph glyph-name="endash" unicode="&#x2013;" horiz-adv-x="951" 
d="M70 428h811v-100h-811v100z" />
    <glyph glyph-name="emdash" unicode="&#x2014;" horiz-adv-x="1238" 
d="M70 428h1098v-100h-1098v100z" />
    <glyph glyph-name="quoteleft" unicode="&#x2018;" horiz-adv-x="317" 
d="M30 523l154 243h103l-121 -243h-136z" />
    <glyph glyph-name="quoteright" unicode="&#x2019;" horiz-adv-x="316" 
d="M287 766l-154 -243h-103l121 243h136z" />
    <glyph glyph-name="quotesinglbase" unicode="&#x201a;" horiz-adv-x="316" 
d="M287 152l-154 -243h-103l121 243h136z" />
    <glyph glyph-name="quotedblleft" unicode="&#x201c;" horiz-adv-x="551" 
d="M30 523l154 243h103l-121 -243h-136zM264 523l154 243h103l-121 -243h-136z" />
    <glyph glyph-name="quotedblright" unicode="&#x201d;" horiz-adv-x="550" 
d="M521 766l-154 -243h-103l121 243h136zM287 766l-154 -243h-103l121 243h136z" />
    <glyph glyph-name="quotedblbase" unicode="&#x201e;" horiz-adv-x="550" 
d="M521 152l-154 -243h-103l121 243h136zM287 152l-154 -243h-103l121 243h136z" />
    <glyph glyph-name="bullet" unicode="&#x2022;" horiz-adv-x="436" 
d="M361 374q0 -59 -42 -101t-101 -42t-101 42t-42 101t42 101t101 42t101 -42t42 -101z" />
    <glyph glyph-name="ellipsis" unicode="&#x2026;" horiz-adv-x="825" 
d="M225 70q0 -37 -25 -62.5t-61 -25.5t-62.5 26t-26.5 62t26.5 61.5t62.5 25.5t61 -25.5t25 -61.5zM500 70q0 -37 -25 -62.5t-61 -25.5t-62.5 26t-26.5 62t26.5 61.5t62.5 25.5t61 -25.5t25 -61.5zM775 70q0 -37 -25 -62.5t-61 -25.5t-62.5 26t-26.5 62t26.5 61.5t62.5 25.5
t61 -25.5t25 -61.5z" />
    <glyph glyph-name="perthousand" unicode="&#x2030;" horiz-adv-x="1515" 
d="M1248 370q93 0 147.5 -56.5t54.5 -137.5q0 -82 -54.5 -138t-147.5 -56q-92 0 -146.5 56t-54.5 138q0 81 54.5 137.5t146.5 56.5zM1248 66q50 0 76 30.5t26 79.5t-26 79.5t-76 30.5t-75.5 -31t-25.5 -79t25.5 -79t75.5 -31zM715 748h108l-486 -748h-107zM267 766
q92 0 146.5 -56.5t54.5 -137.5q0 -82 -54.5 -138t-146.5 -56q-93 0 -147.5 56t-54.5 138q0 81 54.5 137.5t147.5 56.5zM267 462q50 0 75.5 31t25.5 79t-25.5 79t-75.5 31t-76 -30.5t-26 -79.5t26 -79.5t76 -30.5zM786 370q93 0 147.5 -56.5t54.5 -137.5q0 -82 -54.5 -138
t-147.5 -56q-92 0 -146.5 56t-54.5 138q0 81 54.5 137.5t146.5 56.5zM786 66q50 0 76 30.5t26 79.5t-26 79.5t-76 30.5t-75.5 -31t-25.5 -79t25.5 -79t75.5 -31z" />
    <glyph glyph-name="guilsinglleft" unicode="&#x2039;" horiz-adv-x="392" 
d="M317 668v-141l-172 -153l172 -152v-141l-242 214v159z" />
    <glyph glyph-name="guilsinglright" unicode="&#x203a;" horiz-adv-x="392" 
d="M75 527v141l242 -214v-159l-242 -214v141l172 152z" />
    <glyph glyph-name="zerosuperior" unicode="&#x2070;" horiz-adv-x="490" 
d="M425 572q0 -83 -49 -138.5t-131 -55.5t-131 55.5t-49 138.5t49 138.5t131 55.5t131 -55.5t49 -138.5zM166 572q0 -51 21.5 -80.5t57.5 -29.5t57.5 29.5t21.5 80.5t-21.5 80.5t-57.5 29.5t-57.5 -29.5t-21.5 -80.5z" />
    <glyph glyph-name="Euro" unicode="&#x20ac;" horiz-adv-x="747" 
d="M493 646q-66 0 -122 -36t-86 -96h310v-98h-332q-2 -28 -2 -42q0 -23 2 -34h332v-98h-310q30 -63 87 -101.5t121 -38.5q119 0 189 57v-140q-70 -37 -189 -37q-122 0 -217 72.5t-132 187.5h-114v98h97q-1 11 -1 34q0 14 2 42h-98v98h114q38 113 131.5 182.5t217.5 69.5
q109 0 189 -38v-137q-67 55 -189 55z" />
    <glyph glyph-name="rub" unicode="&#x20bd;" horiz-adv-x="787" 
d="M468 748q107 0 180.5 -61t73.5 -167q0 -105 -72 -163.5t-180 -58.5h-191v-77h333v-104h-333v-117h-135v117h-114v104h114v77h-114v111h114v339h324zM470 409q50 0 83 29.5t33 81.5t-34 82.5t-84 30.5h-189v-224h191z" />
    <glyph glyph-name="uni2116" unicode="&#x2116;" horiz-adv-x="1347" 
d="M1097 378q-82 0 -130.5 55.5t-48.5 138.5t48.5 138.5t130.5 55.5t131 -55.5t49 -138.5t-49 -138.5t-131 -55.5zM1097 682q-36 0 -57.5 -29.5t-21.5 -80.5t21.5 -80.5t57.5 -29.5t58 29.5t22 80.5t-22 80.5t-58 29.5zM912 292h370v-90h-370v90zM676 748h132v-748h-230
l-346 660v-660h-132v748h228l348 -661v661z" />
    <glyph glyph-name="trademark" unicode="&#x2122;" horiz-adv-x="961" 
d="M50 672v76h324v-76h-120v-277h-85v277h-119zM775 748h136v-353h-81v280l-105 -280h-108l-104 281v-281h-81v353h136l103 -284z" />
    <glyph glyph-name="minus" unicode="&#x2212;" horiz-adv-x="551" 
d="M70 440h411v-132h-411v132z" />
    <glyph glyph-name="notequal" unicode="&#x2260;" horiz-adv-x="624" 
d="M549 437h-140l-79 -122h219v-107h-289l-56 -86h-113l55 86h-71v107h141l79 122h-220v107h290l55 86h114l-56 -86h71v-107z" />
    </font>
</defs>
</svg>
