<svg xmlns="http://www.w3.org/2000/svg" width="126" height="22" viewBox="0 0 126 22"><g><g><path fill="#ccc" d="M124.18 12.207l-.015.006c-.277.867-1.455.771-1.76 1.623.347.926 1.526 1.098 1.799 2.052l.01.003c2.918-1.258 1.783-2.474-.023-3.684zm-3.136 1.293c-.012-1.059 2.036-.817 3.121-1.287a1.28 1.28 0 0 0 .004-.012c-3.445-3.614-7.532-6.495-11.295-9.737-1.235-1.069-2.517-3.785-4.416-1.695-2.105 2.327.94 3.23 2.187 4.358 2.981 2.698 6.127 5.22 9.608 8.154-1.946.59-3.24.986-4.545 1.335-4.616 1.216-9.243 2.391-13.847 3.637-1.176.307-2.352.797-2.029 2.362.323 1.565 1.346 1.547 2.705 1.18 7.209-2.013 14.447-3.938 21.668-5.904l-.001-.003c-1.404-.408-3.16-1.057-3.16-2.388zM32.079.87c-9.724.513-19.136 2.259-28.518 4.619-1.506.383-4.253-.03-3.4 2.743.676 2.19 2.817 1.015 4.288.62a145.857 145.857 0 0 1 34.965-4.814c5.745-.118 11.502.011 17.27.389a266.447 266.447 0 0 1 37 5.204c4.866.99 9.701 2.17 14.542 3.28 1.33.307 2.47.1 2.8-1.298.33-1.398-.965-1.829-1.965-2.118-1.682-.484-3.429-.75-5.123-1.18A254.908 254.908 0 0 0 44.873.368c-4.794.224-8.794.289-12.794.501z"/></g></g></svg>