<svg xmlns="http://www.w3.org/2000/svg" width="748" height="550" viewBox="0 0 748 550"><g><g><g><path fill="#f9f0f9" d="M129.981 316c-7.654-3.526-15.076-7.541-22.472-11.55-7.56-4.148-15.422-7.888-22.68-12.513-5.361-3.406-11.151-6.052-16.31-9.81-5.38-3.909-11.12-7.302-16.639-11.004a152.045 152.045 0 0 1-22.485-18.319c-12.417-12.292-22.163-26.337-26.321-43.626a107.617 107.617 0 0 1-2.948-23.176c-.298-10.401.182-20.81 1.436-31.14a95.234 95.234 0 0 1 12.442-35.82A144.304 144.304 0 0 1 42.625 84.37c7.888-7.07 16.078-13.826 24.986-19.733 6.76-4.48 13.52-8.962 20.52-13.028 11.598-6.724 23.448-12.977 35.689-18.57 11.869-5.436 23.851-10.608 36.231-14.642 10.294-3.356 20.368-7.447 31.166-9.333 7.447-1.32 14.937-2.633 22.302-4.298 8.82-1.999 17.816-1.76 26.624-3.406 2.205-.409 4.536-.24 6.804-.164 6.772.214 13.52-.39 20.311-.132 10.03.39 19.977 1.213 29.925 2.514 13.86 1.797 27.43 4.965 40.906 8.628 8.448 2.3 16.84 4.714 25.143 7.491 9.28 3.143 18.762 5.593 28.086 8.572 6.81 2.187 13.62 4.305 20.62 5.807 10.886 2.338 21.772 4.594 32.967 4.826 9.18.189 18.352.189 27.443-1.307 3.484-.572 6.836-1.885 10.44-1.847.45.876.287 1.942-.404 2.645-2.356 2.514-4.473 5.55-7.453 7.033a41.366 41.366 0 0 0-9.72 6.83c-7.85 7.26-16.463 13.581-24.961 19.972-8.033 6.04-15.568 12.695-23.833 18.451-4.41 3.08-8.19 7.095-12.531 10.42-.334.257.126 0-.227.22-7.251 4.443-13.079 10.784-20.305 15.24-2.305 1.413-3.358 3.977-5.714 5.303-2.079 1.176-3.962 2.703-5.915 4.06-3.97 2.759-7.308 6.234-11.208 9.075-2.715 1.98-5.317 4.242-7.913 6.435-2.955 2.514-5.91 5.166-9.085 7.177-3.937 2.513-7.339 5.53-10.766 8.509a131.863 131.863 0 0 1-10.906 8.17c-4.687 3.292-8.97 7.176-13.28 10.99-.514.521-1.08.989-1.688 1.396-6.3 3.613-11.19 9.056-17.01 13.228-6.71 4.814-12.79 10.426-19.7 14.957-3.598 2.357-6.244 5.901-9.847 8.27-3.988 2.615-6.892 6.674-11.491 8.472a4.467 4.467 0 0 0-1.815 1.225c-3.477 4.16-8.725 6.215-12.335 10.156-4.026 4.399-9.45 6.913-13.766 10.89a155.638 155.638 0 0 1-11.97 10.056c-4.914 3.682-9.765 7.484-14.773 11.066-4.454 3.193-9.223 6.165-12.707 10.508-1.493 1.854-3.604 2.444-5.412 3.638a77.262 77.262 0 0 0-12.115 9.91c-3.528 3.564-8.19 5.443-11.819 8.799a114.683 114.683 0 0 1-15.888 12.613c-2.136 1.426-3.377 4.116-6.25 4.537z"/></g><g><path fill="#f4f1fb" d="M129.04 315.15c3.595-2.73 6.622-6.048 10.722-8.345 3.784-2.123 6.9-5.49 10.046-8.57 3.828-3.757 8.937-5.685 12.759-9.523 3.601-3.624 7.41-7.305 12.058-9.584 5.128-2.504 8.622-6.974 12.942-10.374 4.982-3.919 10.16-7.737 15.23-11.493 9.133-6.755 17.546-14.4 26.71-21.104 5.24-3.85 10.816-7.688 15.262-12.665 1.262-1.396 3.097-2.034 4.724-2.948 3.645-2.054 6.256-5.534 9.763-7.725 4.352-2.717 7.619-6.636 11.882-9.522s8.199-6.292 12.222-9.528c5.809-4.664 11.46-9.585 17.451-13.917 3.784-2.748 7.512-5.76 11.384-8.458 3.5-2.441 6.206-6.26 10.09-8.1 4.882-2.354 8.2-6.386 12.186-9.685 5.77-4.808 11.982-9.053 17.848-13.685 5.77-4.539 11.352-9.334 17.129-13.892 3.715-2.942 8.59-4.564 11.213-9.171.953-1.684 3.784-2.673 5.74-4.02 5.297-3.655 9.983-8.044 15.42-11.575 5.676-3.687 10.317-8.87 15.729-13.002 3.115-2.385 6.571-4.414 9.46-7.093 6.817-6.392 15.136-10.862 21.973-17.26 2.951-2.754 6.704-4.764 9.844-7.475 3.785-3.255 7.442-6.673 11.548-9.44 2.889-1.947 5.758-3.719 8.268-6.223 1.501-1.496 3.04-2.754 3.646-4.84 16.025-4.688 31.18-11.725 46.922-17.171 13.471-4.664 27.043-9.046 41.114-11.832 5.487-1.09 10.942-2.573 16.473-3.475 6.47-1.051 12.998-1.771 19.507-2.566 10.116-1.24 20.409-.952 30.613-.514a124.604 124.604 0 0 1 29.232 4.783c9.977 2.874 19.69 6.217 28.488 11.7 4.913 3.062 10.154 5.785 14 10.318a1.899 1.899 0 0 1-.491 2.78c-2.889 1.708-4.465 4.939-7.713 6.222-2.056.808-3.658 2.504-5.26 3.869-2.58 2.241-5.5 4.032-7.82 6.692a34.615 34.615 0 0 1-12.614 9.078c-2.447 1.039-3.652 3.53-6.03 4.826-2.787 1.515-4.988 4.032-7.75 5.741-1.514.933-2.977 1.978-3.822 3.637a3.148 3.148 0 0 1-2.107 1.74c-1.659.389-2.523 1.497-3.481 2.868-1.659 2.404-4.844 3.08-6.812 5.258-.327.364-1.072.414-1.26.858-2.114 4.432-6.938 5.447-10.388 8.139-5.588 4.338-11.037 8.87-16.72 13.058-4.27 3.13-8.04 6.924-12.613 9.704-2.415 1.459-4.503 3.55-6.603 5.565-4.844 4.652-9.788 9.303-15.88 12.427-2.555 1.315-4.951 2.867-6.547 5.259-1.45 2.178-4.1 2.391-5.878 4.063-3.784 3.555-7.902 6.755-12.02 9.96-4.756 3.693-9.713 7.093-14.506 10.717-.46.263-.812.677-.997 1.171-.952 3.8-4.1 4.927-7.334 5.841-1.464.413-2.019 1.803-3.154 2.46-3.916 2.229-6.862 5.56-10.06 8.602-1.317 1.252-3.285.795-4.723 2.204-2.296 2.253-5.134 3.956-6.717 6.886-.25.471-.671.83-1.179 1.002-5.146 1.408-8.83 5.227-11.945 8.877-3.986 4.632-9.952 6.416-13.8 11.055-1.525 1.84-4.502 2.123-6.205 4.113-3.235 3.756-8.199 5.528-11.497 8.84-3.52 3.55-7.739 5.885-11.51 8.883-5.941 4.727-11.352 10.017-17.388 14.624-1.343 1.02-2.964 1.553-4.415 2.41a14.999 14.999 0 0 0-4.736 4.05c-1.053 1.46-2.296 2.712-4.169 3.131a3.73 3.73 0 0 0-1.942 1.515c-3.255 3.881-7.38 6.742-11.447 9.71-3.784 2.76-7.448 5.734-11.352 8.245-3.419 2.172-5.19 5.984-8.64 7.875-3.785 2.072-6.938 4.946-10.653 7.093-1.772 1.033-3.103 2.554-4.414 3.944-2.523 2.636-6.023 3.756-8.502 6.104-3.544 3.311-7.442 6.166-10.993 9.434-1.09 1.002-2.522 1.565-3.468 2.673-4.8 5.528-11.51 8.733-16.827 13.654-1.797 1.659-4.711 2.022-6.218 4.125-2.744 3.838-6.843 5.635-10.873 7.557-.5.173-.953.458-1.325.832-4.314 5.635-10.822 8.683-15.93 13.397-1.785 1.647-2.36 4.257-4.737 5.296-4.736 2.085-8.199 6.073-12.86 8.314a5.82 5.82 0 0 0-1.847 1.183c-6.66 7.413-15.061 12.79-22.818 18.888-3.784 2.973-6.856 7.061-11.788 8.514-.508.187-.886.619-1.002 1.145-1.142 3.913-4.61 4.67-7.865 5.716-.763-.701-1.71-1.252-2.258-2.116-8.59-13.003-19.053-24.371-30.726-34.644a241.075 241.075 0 0 0-27.265-20.816c-11.131-7.274-23.02-13.147-34.643-19.5-4.364-2.305-8.98-4.051-13.061-6.774z"/></g><g><path fill="#f1f2fc" d="M237.04 400.179c.46-1.395 2.13-.874 2.81-1.665 1.455-1.684 5.097-1.602 4.296-5.158-.031-.15.372-.527.63-.628 4.133-1.137 6.647-4.397 9.841-6.91 4.133-3.204 8.285-6.47 12.6-9.492 1.72-1.2 3.043-3.14 4.637-4.014 5.349-2.946 8.24-9.027 14.358-10.83 1.215-.358 1.65-1.527 2.463-2.3 1.512-1.438 3.402-2.248 5.336-3.052 3.087-1.288 3.616-5.101 6.54-6.785 2.368-1.363 4.44-3.31 6.476-5.176 2.476-2.268 5.62-3.606 7.635-6.634 1.701-2.557 5.242-3.323 8.014-4.586 2.665-1.212 3.213-4.077 5.6-5.283 4.41-2.205 7.832-5.729 11.794-8.53 2.098-1.483 5.248-1.703 5.992-5.152.334-1.558 2.999-1.552 4.151-3.06 1.437-1.884 4.41-2.361 4.732-5.27 4.504-.063 5.827-4.29 8.732-6.395 2.28-1.664 4.466-4.152 7.723-4.334.05-2.733 2.76-3.141 4.247-4.448 3.339-2.94 6.791-5.804 10.823-7.89 2.155-1.118 4.202-2.412 5.57-4.806 1.587-2.783 4.87-3.989 7.351-5.949 6.3-4.962 13.054-9.284 19.096-14.574 5.216-4.567 10.25-9.234 16.228-13.035 3.598-2.286 7.68-4.812 10.49-8.795a13.399 13.399 0 0 1 6.004-4.843c2.117-.779 3.78-3.06 5.853-4.397 1.203-.767 2.04-2.092 3.698-2.111.32-.021.61-.194.78-.465 1.98-4.586 6.767-5.61 10.396-8.066 1.5-1.018 1.777-2.776 3.427-3.838 5.04-3.229 9.513-7.237 14.528-10.466 3.433-2.211 5.386-5.974 8.713-7.928 2.74-1.614 3.887-5.653 7.95-5.233a2.237 2.237 0 0 0 1.796-1.111c1.468-3.726 5.254-5.202 7.617-8.041.264-.32.73-.886.888-.817 2.709 1.106 3.39-2.337 5.544-2.412a.63.63 0 0 0 .491-.34c1.204-4.855 7.277-4.623 9.198-8.744.145-.314.788-.741.99-.628 2.885 1.256 3.723-2.62 6.174-2.387.138 0 .415-.251.434-.409.63-5.214 5.72-5.848 8.82-8.512 4.832-4.14 10.162-7.664 15.013-11.747 1.701-1.432 3.78-2.783 4.99-4.88.05-.089.094-.233.17-.252 5.254-1.458 7.49-6.91 12.348-9.09 3.622-1.627 7.49-3.77 9.885-6.766 1.965-2.469 4.92-3.85 6.476-6.822.662-1.256 2.898-2.67 4.442-3.317 2.734-1.143 4.013-4.303 7.144-4.604a.82.82 0 0 0 .523-.327c4.132-5.823 11.49-7.966 15.75-13.67.175-.27.421-.487.712-.628 4.34-1.746 7.314-5.61 11.409-7.538 3.88-1.885 5.613-5.692 8.858-8.016a8.07 8.07 0 0 1 1.619-.917c.472-.189 1.386-.1 1.468-.34 1.172-3.523 5.166-4.07 7.075-6.765a12.955 12.955 0 0 1 3.78-3.241c2.746-1.772 4.92-4.913 7.56-5.918 3.263-1.256 4.53-4.29 7.761-5.578 5.04-1.998 9.287-5.786 12.783-10.265 1.632-2.092 4.586-2.997 6.42-5.151 2.52-2.99 6.986-3.418 9.242-7.18.964-1.609 4.158-1.885 4.372-4.668 4.41 3.53 8.19 7.708 11.97 11.936a4.97 4.97 0 0 0 1.89 1.884c.706 2.513 2.71 4.153 4.145 6.15 4.6 6.37 7.844 13.406 11.02 20.53 3.42 7.67 5.298 15.805 7.188 23.871 1.367 5.83 2.438 11.816 2.223 17.897.63 4.322.574 4.48-3.364 5.855-3.937 1.376-6.338 5.026-9.664 7.325-2.287 1.595-3.988 4.014-6.798 4.931-.405.13-.762.377-1.027.71-2.91 3.87-7.345 5.78-11.1 8.556-2.268 1.677-3.988 3.882-6.3 5.585-3.427 2.512-7.32 4.516-10.187 7.783a7.007 7.007 0 0 1-3.358 2.224 3.346 3.346 0 0 0-2.054 1.382c-2.52 4.165-6.798 6.439-10.231 9.617a4.314 4.314 0 0 1-1.26.962c-7.9 3.178-12.82 10.201-19.24 15.227-3.27 2.513-6.66 4.825-10.08 7.149-1.89 1.306-3.51 2.996-5.337 4.353-6.035 4.467-11.97 9.065-17.526 14.097-2.086 1.884-4.354 3.643-7.195 4.397a2.072 2.072 0 0 0-1.26.911c-2.57 3.99-5.865 7.463-10.08 9.473-6.187 2.96-10.2 8.406-15.542 12.25-5.23 3.77-10.414 7.608-15.404 11.647-5.67 4.604-11.8 8.625-17.4 13.361-2.558 2.155-5.11 4.46-8.102 6.245a45.572 45.572 0 0 0-9.885 8.38c-3.402 3.719-7.742 5.98-11.623 8.945-.246.189-.63.233-.813.465-3.51 4.492-8.984 6.628-12.877 10.736a40.939 40.939 0 0 1-9.772 7.4 28.145 28.145 0 0 0-6.489 4.705c-5.04 5.252-11.062 9.222-16.896 13.419-2.577 1.853-4.246 4.623-7.1 6.124-1.474.773-2.76 1.885-4.41 2.28-1.11.24-1.72 1.018-2.394 1.885-3.585 4.517-7.51 8.5-13.092 10.793-2.684 1.105-4.41 3.982-6.728 5.898-3.906 3.217-8.467 5.717-11.447 10.001-.296.427-.876.54-1.355.754-4.599 2.054-8.43 5.151-11.932 8.7a17.265 17.265 0 0 1-4.12 3.355c-5.204 2.758-9.33 6.91-13.86 10.554-3.352 2.67-6.88 5.126-9.998 8.072-5.4 5.101-11.97 8.75-17.508 13.544-5.985 5.157-12.877 9.278-18.037 15.397-1.165 1.382-3.074 1.715-4.586 2.645-4.41 2.707-7.623 6.866-11.914 9.599-2.652 1.69-4.857 3.888-7.465 5.565-3.358 2.161-5.324 5.874-9.06 7.67-1.663.798-3.049 2.187-4.996 2.513a2.47 2.47 0 0 0-1.789 1.15c-2.438 3.844-5.922 6.659-9.368 9.505a4 4 0 0 1-1.26.917c-6.388 1.884-9.72 7.902-15.088 11.175-4.914 3.003-8.739 7.413-13.508 10.592-2.287 1.52-4.088 3.6-6.413 5.025-.914.566-1.89 1.684-2.923.163-3.005-5.873-5.28-12.048-7.56-18.217-.53-.999-.687-2.155-1.26-3.141-2.23-3.97-3.54-8.305-5.04-12.564-.435-.83-.542-1.822-1.26-2.513-2.854-6.282-5.443-12.758-8.631-18.896-3.642-7.01-7.774-13.776-11.8-20.58-1.052-1.708-2.262-3.272-2.936-5.144z"/></g><g><path fill="#f1f2fd" d="M276.04 481.375c2.385.496 3.392-1.574 4.852-2.684 4.312-3.28 8.862-6.354 12.701-10.117 3.613-3.544 8.138-5.796 11.757-9.408 2.064-2.051 3.99-5.162 7.974-5.457 1.498-.113 4.015-1.813 4.764-4.271.309-1.029 1.932-.627 2.518-1.669.919-1.706 3.197-2.42 3.442-4.672a1.2 1.2 0 0 1 .881-.772c3.689.314 5.507-3.06 8.447-4.196 2.278-.878 2.857-3.412 4.77-4.767 4.406-3.098 8.811-6.272 12.934-9.659 2.889-2.364 5.557-5.419 8.81-7.112 6.232-3.255 10.07-9.233 15.98-12.757 4.205-2.51 7.616-6.078 11.33-9.202 1.422-1.198 3.253-1.398 4.594-2.59 3.53-3.136 7.005-6.322 10.649-9.314 3.644-2.992 7.949-5.1 10.844-8.549 4.405-5.28 11.995-6.479 15.501-12.67.05-.087.12-.2.208-.231 3.682-1.217 5.607-5.15 9.333-6.153a7.155 7.155 0 0 0 3.833-2.779c3.506-4.39 8.434-6.943 12.732-10.317a4.332 4.332 0 0 0 1.379-1.631c.73-1.63 2.07-2.133 3.675-2.879 2.354-1.098 4.985-2.038 6.753-4.447 1.769-2.408 4.683-4.096 5.923-7.094.234-.35.612-.58 1.032-.627 3.732-.445 6.11-2.79 8.56-5.394 2.032-2.157 4.852-3.562 7.168-5.482 4.487-3.7 9.251-7.03 13.644-10.894 2.19-1.938 4.261-5.413 8.182-5.087a.705.705 0 0 0 .504-.345c2.045-3.763 7.08-4.447 8.899-8.561.378-.866 1.813-1.317 2.82-1.882 4.739-2.508 7.703-7.332 12.449-9.772 4.015-2.063 6.457-6.002 9.944-8.266 3.87-2.509 6.149-7.2 11.12-8.06 1.008-3.28 4.733-3.556 6.672-6.046 1.831-2.365 4.94-3.726 7.414-5.645 4.802-3.694 9.44-7.595 14.368-11.133 2.24-1.612 4.255-4.359 6.212-5.017 5.08-1.775 7.074-6.987 11.75-8.888.73-.295 1.152-1.424 1.63-2.22.479-.797.806-1.493 1.788-1.58 3.455-.314 5.815-2.365 8.087-4.761 1.096-1.154 1.889-2.747 3.82-3.074.857-.144 1.26-1.16 1.26-1.988 0-1.65.925-1.881 2.334-2.239 3.972-1.041 6.974-3.882 9.642-6.692 2.417-2.547 5.532-4.209 7.817-7.031 1.064-1.33 4.066-2.007 5.664-3.763 2.99-3.243 7.276-4.774 10.278-7.972 1.083-1.16 3.216-.44 3.915-1.706 2.033-3.67 5.966-5.206 8.654-8.116a54.014 54.014 0 0 1 8.42-7.527c2.75-1.913 6.024-3.318 8.73-5.544 2.039-1.675 4.223-3.136 5.733-5.4 1.058-1.6 2.19-3.306 4.582-3.4 1.391-.05 1.762-1.656 2.732-2.427 3.7-2.948 7.747-5.463 11.385-8.411 2.7-2.19 4.966-5.093 8.094-6.655 4.09-2.044 6.696-5.82 10.699-8.04 3.707-2.058 7.024-5.125 9.837-8.336 1.429-1.63 3.556-2.986 4.708-2.98 4.179 0 3.568-2.583 3.625-5.017a56.629 56.629 0 0 1 1.196 14.143c-.491 8.154-1.108 16.264-3.028 24.26a108.692 108.692 0 0 1-11.504 28.633c-6.407 11.252-15.156 20.578-24.546 29.34-5.23 4.886-11.209 8.894-16.848 13.297-6.489 5.074-13.456 9.352-20.417 13.636-8.855 5.45-18.05 10.355-27.063 15.504-8.81 5.018-17.547 10.036-26.358 15.01a217.138 217.138 0 0 0-26.194 17.467 85.895 85.895 0 0 0-24.76 29.773c-2.039 4.082-4.076 8.167-6.11 12.256-2.518 1.725-4.966 3.462-6.66 6.065-1.157 1.769-3.385 1.995-4.87 3.337-6.345 5.751-13.28 10.8-20.14 15.906-5.829 4.346-11.424 9-17.384 13.171-4.607 3.237-8.81 7.044-13.128 10.663-3.65 3.06-7.49 5.914-11.147 8.969a100.173 100.173 0 0 1-8.993 6.767c-7.653 5.062-13.846 11.86-21.443 17.08a74.67 74.67 0 0 0-9.856 7.97c-2.618 2.56-6.067 4.391-8.943 6.812-6.105 5.143-12.688 9.684-18.881 14.72-7.339 5.966-14.476 12.231-21.959 17.977-5.796 4.434-11.253 9.408-17.37 13.29-4.998 3.136-8.988 7.37-13.935 10.525-5.507 3.506-10.101 8.43-15.344 12.324-6.186 4.591-11.593 10.123-18.145 14.263-6.362 4.014-11.655 9.44-17.59 14.037-1.568 1.21-2.92 2.716-4.746 3.562a9.827 9.827 0 0 0-3.738 3.243c-2.423-.878-4.104-2.766-5.954-4.39a75.82 75.82 0 0 1-15.206-18.553c-3.732-6.272-7.187-12.758-9.692-19.682z"/></g><g><path fill="#eef3fe" d="M305.238 524.869c-.792-2.035.973-2.512 2.091-3.215a85.233 85.233 0 0 0 15.145-12.283c1.953-2.034 4.554-3.284 6.834-4.866 3.329-2.318 6.23-5.206 9.767-7.203 2.06-1.168 2.808-3.636 4.962-4.647 5.597-2.63 9.542-7.472 14.171-11.303 4.786-3.93 10.107-7.158 14.667-11.485 3.568-3.385 8.166-5.89 12.142-9.042 5.873-4.666 12.129-8.892 17.87-13.665 3.97-3.296 8.059-6.474 11.934-9.814 3.77-3.228 8.28-5.652 11.307-9.765.224-.358.54-.649.917-.841 7.003-2.682 10.841-9.834 17.788-12.56 1.577-4.238 6.187-5.218 9.159-7.95a115.68 115.68 0 0 1 13.467-10.436c1.061-.716 2.16-1.256 2.443-2.662a2.386 2.386 0 0 1 1.325-1.677c5.126-2.373 9.02-6.417 13.518-9.645 7.537-5.407 14.233-11.774 21.633-17.313 3.31-2.511 6.375-5.287 10.012-7.296 1.752-.967 2.18-3.253 3.844-4.025 6.382-2.958 10.992-8.302 16.734-12.12 3.932-2.612 7.135-6.336 11.117-8.841 3.65-2.299 5.798-6.054 9.385-8.264.458-.283 1.036-1.99 1.57 0-2.203 6.48-4.403 12.97-6.602 19.466-2.512 7.29-4.145 14.807-5.873 22.292a473.528 473.528 0 0 0-4.346 21.05c-1.828 10.046-3.901 19.987-6.445 29.84-4.321 16.79-9.855 33.167-18.65 48.232a156.642 156.642 0 0 1-17.172 24.157c-11.47 13.15-24.63 24.34-38.913 34.16-12.807 8.792-26.633 15.912-41.494 20.597-10.308 3.253-20.96 4.81-31.796 5.84-15.597 1.482-30.596-1.156-45.225-5.501a109.992 109.992 0 0 1-34.014-16.841c-1.105-.836-2.657-.961-3.272-2.374z"/></g><g><path fill="#f1f2fd" d="M267.055 462c.704.74 1.067 1.863.97 3"/></g><g><path fill="#f4f1fb" d="M722.04 40.996A1.876 1.876 0 0 1 720.044 39a4.145 4.145 0 0 1 1.996 1.996z"/></g><g><path fill="#f1f2fd" d="M259.04 446c.907.375 1.04 1.14.991 2a2.789 2.789 0 0 1-.991-2z"/></g></g></g></svg>