<svg xmlns="http://www.w3.org/2000/svg" width="860" height="781" viewBox="-20 0 860 600"><g><g opacity=".6" transform="rotate(40 430 390.5)"><g opacity=".6"><path fill="#f9f0f9" d="M8.307 516.02c-9.841-4.544-19.383-9.72-28.893-14.888-9.72-5.345-19.828-10.165-29.16-16.126-6.893-4.39-14.337-7.8-20.97-12.644-6.918-5.038-14.297-9.412-21.393-14.183a195.58 195.58 0 0 1-28.908-23.611c-15.965-15.843-28.496-33.947-33.842-56.23a139.031 139.031 0 0 1-3.791-29.872 269.72 269.72 0 0 1 1.847-40.134 122.946 122.946 0 0 1 15.997-46.17 185.892 185.892 0 0 1 36.799-44.686c10.14-9.113 20.67-17.82 32.124-25.434 8.691-5.775 17.383-11.55 26.382-16.79 14.912-8.668 30.148-16.727 45.886-23.936 15.26-7.006 30.667-13.672 46.583-18.873 13.236-4.325 26.188-9.598 40.071-12.028 9.574-1.7 19.205-3.394 28.674-5.54 11.34-2.576 22.907-2.268 34.23-4.39 2.836-.527 5.833-.308 8.749-.21 8.707.275 17.382-.503 26.114-.17a421.652 421.652 0 0 1 38.475 3.239c17.82 2.317 35.267 6.399 52.593 11.121 10.862 2.965 21.652 6.075 32.327 9.655 11.932 4.05 24.122 7.209 36.11 11.048 8.756 2.82 17.512 5.549 26.511 7.485 13.997 3.013 27.994 5.92 42.388 6.22 11.801.243 23.595.243 35.283-1.684 4.48-.738 8.789-2.43 13.422-2.382.58 1.13.37 2.504-.518 3.41-3.03 3.24-5.751 7.152-9.583 9.064a53.185 53.185 0 0 0-12.498 8.804c-10.093 9.356-21.165 17.504-32.092 25.742-10.328 7.784-20.015 16.362-30.642 23.781-5.67 3.969-10.53 9.145-16.111 13.43-.43.332.162 0-.292.283-9.323 5.727-16.816 13.9-26.106 19.642-2.965 1.823-4.318 5.127-7.347 6.836-2.673 1.515-5.095 3.483-7.606 5.233-5.103 3.556-9.396 8.035-14.41 11.696-3.49 2.552-6.836 5.468-10.173 8.294-3.8 3.24-7.598 6.658-11.68 9.25-5.063 3.24-9.437 7.128-13.843 10.968a169.573 169.573 0 0 1-14.022 10.53c-6.026 4.244-11.534 9.25-17.074 14.166a14.013 14.013 0 0 1-2.171 1.798c-8.1 4.658-14.386 11.672-21.87 17.05-8.627 6.205-16.443 13.438-25.329 19.278-4.625 3.037-8.027 7.606-12.66 10.66-5.127 3.369-8.861 8.601-14.774 10.918a5.743 5.743 0 0 0-2.333 1.58c-4.471 5.362-11.219 8.01-15.86 13.089-5.176 5.67-12.15 8.91-17.699 14.037a200.224 200.224 0 0 1-15.39 12.96c-6.318 4.746-12.555 9.647-18.994 14.263-5.727 4.115-11.858 7.946-16.338 13.543-1.92 2.39-4.633 3.151-6.958 4.69-5.61 3.72-10.83 8-15.576 12.774-4.536 4.592-10.53 7.014-15.195 11.34a147.51 147.51 0 0 1-20.429 16.256c-2.746 1.839-4.341 5.305-8.035 5.848z"/></g><g opacity=".6"><path fill="#f4f1fb" d="M6.96 514.972c4.624-3.516 8.517-7.79 13.79-10.75 4.867-2.734 8.874-7.073 12.922-11.04 4.924-4.84 11.495-7.323 16.41-12.267 4.632-4.67 9.532-9.411 15.51-12.347 6.595-3.226 11.089-8.984 16.646-13.363 6.408-5.048 13.068-9.968 19.59-14.807 11.746-8.701 22.567-18.548 34.353-27.186 6.741-4.96 13.912-9.903 19.63-16.314 1.623-1.799 3.984-2.621 6.077-3.799 4.688-2.645 8.046-7.129 12.557-9.952 5.597-3.5 9.799-8.548 15.282-12.266 5.484-3.718 10.546-8.105 15.721-12.274 7.471-6.008 14.74-12.347 22.445-17.928 4.867-3.54 9.662-7.42 14.642-10.895 4.502-3.146 7.982-8.065 12.98-10.436 6.278-3.032 10.544-8.226 15.671-12.476 7.422-6.194 15.413-11.662 22.957-17.63 7.422-5.846 14.6-12.024 22.031-17.895 4.778-3.79 11.049-5.879 14.423-11.815 1.225-2.169 4.867-3.443 7.382-5.177 6.814-4.71 12.84-10.363 19.833-14.912 7.3-4.75 13.271-11.427 20.231-16.75 4.007-3.072 8.453-5.685 12.168-9.137 8.769-8.234 19.468-13.992 28.261-22.234 3.797-3.549 8.623-6.138 12.663-9.63 4.867-4.193 9.572-8.596 14.853-12.161 3.715-2.508 7.406-4.79 10.634-8.016 1.93-1.928 3.91-3.549 4.689-6.234 20.612-6.04 40.105-15.105 60.352-22.122 17.327-6.008 34.783-11.653 52.88-15.242 7.058-1.403 14.075-3.314 21.189-4.476 8.322-1.354 16.718-2.282 25.09-3.306 13.01-1.597 26.25-1.226 39.374-.661a160.038 160.038 0 0 1 37.599 6.161c12.832 3.702 25.325 8.008 36.64 15.073 6.32 3.943 13.06 7.452 18.009 13.29a2.449 2.449 0 0 1-.633 3.581c-3.715 2.202-5.743 6.363-9.92 8.016-2.645 1.04-4.705 3.226-6.766 4.984-3.318 2.887-7.073 5.194-10.059 8.621a44.524 44.524 0 0 1-16.223 11.694c-3.148 1.339-4.697 4.549-7.755 6.218-3.585 1.952-6.416 5.194-9.97 7.395-1.946 1.202-3.828 2.549-4.915 4.686a4.05 4.05 0 0 1-2.71 2.242c-2.133.5-3.244 1.927-4.477 3.693-2.134 3.097-6.23 3.968-8.761 6.775-.422.467-1.379.532-1.622 1.105-2.718 5.71-8.923 7.016-13.36 10.484-7.188 5.588-14.196 11.427-21.505 16.822-5.492 4.033-10.343 8.92-16.224 12.5-3.106 1.88-5.791 4.573-8.493 7.17-6.23 5.992-12.59 11.984-20.425 16.008-3.285 1.694-6.368 3.694-8.42 6.775-1.866 2.806-5.273 3.08-7.56 5.234-4.868 4.58-10.165 8.701-15.462 12.83-6.116 4.759-12.492 9.138-18.657 13.807a2.908 2.908 0 0 0-1.281 1.508c-1.225 4.896-5.273 6.347-9.434 7.525-1.882.532-2.596 2.322-4.056 3.169-5.038 2.871-8.826 7.161-12.939 11.08-1.695 1.614-4.226 1.025-6.075 2.84-2.953 2.903-6.604 5.096-8.64 8.87a2.697 2.697 0 0 1-1.516 1.291c-6.62 1.815-11.357 6.734-15.364 11.436-5.127 5.968-12.8 8.266-17.749 14.242-1.963 2.37-5.792 2.734-7.982 5.298-4.161 4.84-10.545 7.121-14.788 11.388-4.526 4.572-9.953 7.58-14.804 11.443-7.641 6.09-14.601 12.904-22.364 18.84-1.728 1.314-3.813 2-5.678 3.104a19.3 19.3 0 0 0-6.092 5.218c-1.355 1.88-2.953 3.492-5.362 4.032a4.798 4.798 0 0 0-2.499 1.952c-4.185 5-9.49 8.686-14.723 12.508-4.867 3.557-9.58 7.388-14.6 10.621-4.398 2.799-6.677 7.71-11.114 10.146-4.867 2.67-8.923 6.37-13.701 9.137-2.28 1.33-3.991 3.29-5.678 5.08-3.245 3.396-7.747 4.84-10.935 7.864-4.559 4.266-9.572 7.944-14.139 12.153-1.403 1.29-3.245 2.016-4.461 3.444-6.173 7.12-14.804 11.25-21.643 17.589-2.312 2.137-6.06 2.605-7.998 5.314-3.529 4.944-8.801 7.259-13.985 9.734a4.473 4.473 0 0 0-1.703 1.073c-5.549 7.258-13.92 11.186-20.49 17.258-2.296 2.121-3.034 5.484-6.093 6.823-6.092 2.686-10.545 7.823-16.54 10.71-.882.353-1.689.87-2.376 1.524-8.566 9.549-19.371 16.476-29.349 24.331-4.867 3.83-8.817 9.097-15.16 10.968a2.044 2.044 0 0 0-1.29 1.476c-1.469 5.04-5.93 6.016-10.116 7.363-.982-.903-2.198-1.613-2.904-2.726-11.048-16.75-24.506-31.396-39.52-44.63a310.124 310.124 0 0 0-35.068-26.815C54 539.45 38.71 531.884 23.76 523.7c-5.614-2.969-11.552-5.219-16.8-8.727z"/></g><g opacity=".6"><path fill="#f1f2fc" d="M146.4 623.741c.592-1.793 2.739-1.123 3.614-2.14 1.872-2.165 6.556-2.06 5.527-6.631-.04-.194.478-.679.81-.808 5.316-1.462 8.55-5.654 12.658-8.884 5.316-4.12 10.656-8.32 16.207-12.204 2.212-1.543 3.914-4.039 5.964-5.162 6.88-3.788 10.6-11.606 18.468-13.924 1.564-.46 2.123-1.963 3.169-2.956 1.945-1.85 4.376-2.891 6.863-3.925 3.971-1.656 4.652-6.559 8.412-8.723 3.047-1.753 5.713-4.257 8.33-6.655 3.185-2.916 7.229-4.637 9.822-8.53 2.188-3.287 6.742-4.272 10.307-5.896 3.428-1.558 4.133-5.241 7.205-6.792 5.672-2.835 10.072-7.366 15.17-10.968 2.698-1.907 6.75-2.19 7.706-6.623.43-2.003 3.857-1.995 5.34-3.934 1.848-2.423 5.673-3.037 6.086-6.776 5.794-.081 7.496-5.517 11.231-8.222 2.934-2.14 5.746-5.34 9.935-5.573.065-3.514 3.55-4.039 5.462-5.719 4.295-3.78 8.736-7.463 13.922-10.144 2.771-1.438 5.405-3.102 7.163-6.179 2.043-3.578 6.265-5.129 9.457-7.649 8.104-6.38 16.79-11.937 24.562-18.738 6.71-5.872 13.185-11.873 20.875-16.759 4.627-2.94 9.878-6.187 13.492-11.308a17.233 17.233 0 0 1 7.723-6.227c2.723-1.001 4.862-3.933 7.528-5.653 1.548-.986 2.626-2.69 4.757-2.714a1.29 1.29 0 0 0 1.005-.598c2.544-5.896 8.703-7.213 13.37-10.37 1.93-1.309 2.286-3.57 4.409-4.935 6.483-4.152 12.236-9.305 18.687-13.456 4.416-2.843 6.928-7.681 11.207-10.193 3.525-2.076 5-7.27 10.227-6.728a2.878 2.878 0 0 0 2.31-1.43c1.887-4.79 6.757-6.687 9.796-10.338.34-.412.94-1.139 1.143-1.05 3.484 1.421 4.36-3.005 7.131-3.102a.81.81 0 0 0 .632-.436c1.548-6.243 9.36-5.944 11.831-11.243.187-.403 1.013-.953 1.273-.807 3.711 1.615 4.789-3.368 7.941-3.07.178 0 .535-.322.56-.524.81-6.704 7.357-7.52 11.344-10.944 6.216-5.323 13.071-9.854 19.31-15.104 2.189-1.842 4.863-3.578 6.419-6.276.065-.113.121-.299.219-.323 6.758-1.874 9.635-8.884 15.883-11.687 4.66-2.092 9.635-4.846 12.714-8.699 2.528-3.174 6.329-4.95 8.33-8.77.851-1.616 3.728-3.434 5.714-4.265 3.516-1.47 5.161-5.533 9.189-5.92.27-.048.512-.199.673-.42 5.315-7.488 14.78-10.242 20.258-17.576.226-.347.543-.626.916-.807 5.583-2.246 9.408-7.213 14.676-9.693 4.991-2.423 7.22-7.317 11.393-10.306a10.382 10.382 0 0 1 2.083-1.179c.608-.242 1.783-.129 1.888-.436 1.507-4.531 6.645-5.234 9.1-8.699a16.662 16.662 0 0 1 4.862-4.167c3.533-2.278 6.33-6.316 9.725-7.609 4.197-1.615 5.826-5.516 9.983-7.172 6.483-2.568 11.945-7.438 16.442-13.197 2.1-2.69 5.9-3.853 8.258-6.623 3.241-3.845 8.987-4.394 11.888-9.232 1.24-2.068 5.348-2.423 5.624-6.001 5.672 4.54 10.534 9.91 15.396 15.346a6.391 6.391 0 0 0 2.431 2.423c.908 3.23 3.485 5.339 5.332 7.907 5.916 8.19 10.09 17.236 14.174 26.395 4.4 9.862 6.815 20.321 9.246 30.692 1.758 7.495 3.136 15.192 2.86 23.01.81 5.557.738 5.76-4.327 7.528-5.065 1.769-8.152 6.461-12.43 9.418-2.942 2.051-5.13 5.16-8.745 6.34-.52.167-.98.485-1.32.913-3.744 4.975-9.45 7.43-14.279 11-2.917 2.157-5.13 4.992-8.103 7.18-4.409 3.231-9.417 5.808-13.104 10.007a9.013 9.013 0 0 1-4.32 2.86 4.304 4.304 0 0 0-2.64 1.777c-3.242 5.354-8.745 8.278-13.161 12.365a5.549 5.549 0 0 1-1.62 1.236c-10.163 4.087-16.491 13.117-24.749 19.578-4.206 3.23-8.565 6.203-12.966 9.191-2.43 1.68-4.513 3.853-6.863 5.598-7.764 5.742-15.397 11.654-22.544 18.124-2.683 2.423-5.6 4.684-9.255 5.654a2.666 2.666 0 0 0-1.62 1.17c-3.307 5.13-7.545 9.596-12.966 12.18-7.958 3.805-13.12 10.807-19.991 15.75-6.726 4.846-13.396 9.781-19.814 14.975-7.293 5.92-15.178 11.089-22.382 17.179-3.29 2.77-6.572 5.734-10.42 8.028a58.611 58.611 0 0 0-12.715 10.775c-4.376 4.781-9.96 7.689-14.951 11.501-.316.242-.81.299-1.046.598-4.513 5.775-11.555 8.52-16.563 13.803a52.656 52.656 0 0 1-12.569 9.514 36.202 36.202 0 0 0-8.347 6.05c-6.482 6.752-14.23 11.857-21.733 17.252-3.315 2.382-5.462 5.944-9.133 7.875-1.896.993-3.55 2.423-5.672 2.932-1.427.306-2.213 1.308-3.08 2.423-4.61 5.807-9.66 10.927-16.839 13.875-3.452 1.422-5.672 5.121-8.654 7.585-5.025 4.135-10.892 7.35-14.725 12.858-.38.549-1.126.694-1.742.969-5.915 2.641-10.842 6.623-15.348 11.186a22.206 22.206 0 0 1-5.3 4.313c-6.693 3.546-12.001 8.885-17.828 13.57-4.31 3.432-8.849 6.59-12.86 10.378-6.945 6.558-15.397 11.251-22.52 17.414-7.698 6.63-16.563 11.929-23.2 19.796-1.5 1.777-3.955 2.205-5.9 3.4-5.672 3.481-9.805 8.828-15.323 12.341-3.412 2.173-6.248 5-9.603 7.156-4.32 2.779-6.847 7.552-11.653 9.862-2.14 1.026-3.922 2.81-6.426 3.23a3.177 3.177 0 0 0-2.301 1.479c-3.136 4.943-7.618 8.561-12.05 12.22a5.145 5.145 0 0 1-1.621 1.18c-8.217 2.422-12.504 10.16-19.408 14.368-6.32 3.86-11.24 9.53-17.374 13.617-2.942 1.955-5.26 4.628-8.25 6.462-1.174.727-2.43 2.164-3.76.21-3.865-7.552-6.79-15.491-9.724-23.423-.68-1.284-.883-2.77-1.62-4.038-2.87-5.105-4.555-10.678-6.483-16.154-.56-1.066-.697-2.342-1.621-3.23-3.67-8.077-7.001-16.404-11.102-24.296-4.684-9.013-10-17.712-15.178-26.459-1.353-2.197-2.909-4.208-3.776-6.615z"/></g><g opacity=".6"><path fill="#f1f2fd" d="M196.48 728.353c3.068.638 4.363-2.027 6.24-3.456 5.545-4.223 11.396-8.18 16.334-13.025 4.645-4.562 10.465-7.461 15.119-12.112 2.655-2.64 5.131-6.646 10.255-7.025 1.926-.146 5.164-2.334 6.127-5.5.396-1.324 2.484-.807 3.237-2.147 1.182-2.197 4.112-3.117 4.428-6.016.179-.505.608-.881 1.133-.993 4.743.403 7.082-3.94 10.862-5.402 2.93-1.131 3.674-4.393 6.135-6.137 5.665-3.99 11.33-8.075 16.632-12.436 3.715-3.044 7.147-6.976 11.332-9.157 8.013-4.19 12.95-11.886 20.55-16.424 5.407-3.23 9.793-7.825 14.569-11.846 1.829-1.542 4.184-1.8 5.908-3.335 4.54-4.037 9.009-8.14 13.695-11.991 4.686-3.852 10.222-6.565 13.945-11.006 5.666-6.8 15.427-8.342 19.936-16.311.064-.114.153-.259.267-.3 4.734-1.566 7.211-6.629 12.003-7.92a9.202 9.202 0 0 0 4.929-3.578c4.508-5.652 10.846-8.939 16.374-13.283a5.575 5.575 0 0 0 1.772-2.1c.939-2.1 2.663-2.745 4.727-3.706 3.027-1.413 6.41-2.624 8.685-5.725 2.274-3.1 6.021-5.273 7.616-9.133a1.846 1.846 0 0 1 1.327-.807c4.8-.574 7.86-3.594 11.008-6.945 2.614-2.777 6.24-4.586 9.219-7.057 5.77-4.764 11.898-9.052 17.547-14.026 2.817-2.495 5.48-6.969 10.522-6.549a.906.906 0 0 0 .647-.444c2.63-4.845 9.106-5.725 11.445-11.022.486-1.115 2.331-1.696 3.626-2.423 6.095-3.23 9.907-9.44 16.01-12.58 5.163-2.657 8.304-7.728 12.788-10.643 4.978-3.23 7.907-9.27 14.302-10.376 1.295-4.224 6.086-4.579 8.579-7.785 2.355-3.044 6.354-4.796 9.534-7.267 6.176-4.756 12.141-9.779 18.479-14.333 2.881-2.075 5.471-5.612 7.988-6.46 6.532-2.285 9.098-8.995 15.111-11.442.94-.38 1.482-1.833 2.097-2.859.615-1.025 1.036-1.921 2.298-2.034 4.444-.404 7.479-3.045 10.4-6.13 1.41-1.485 2.429-3.536 4.914-3.956 1.1-.186 1.619-1.494 1.619-2.56 0-2.123 1.19-2.422 3.002-2.883 5.107-1.34 8.968-4.998 12.4-8.615 3.108-3.279 7.114-5.419 10.053-9.052 1.367-1.712 5.228-2.584 7.284-4.845 3.844-4.175 9.356-6.145 13.217-10.264 1.392-1.493 4.136-.565 5.034-2.196 2.615-4.724 7.673-6.702 11.13-10.449a69.487 69.487 0 0 1 10.829-9.69c3.537-2.463 7.746-4.271 11.226-7.138 2.622-2.156 5.431-4.037 7.373-6.952 1.36-2.06 2.817-4.256 5.893-4.377 1.788-.065 2.266-2.132 3.512-3.125 4.76-3.795 9.964-7.033 14.642-10.828 3.472-2.819 6.386-6.557 10.409-8.568 5.26-2.632 8.612-7.493 13.76-10.352 4.766-2.649 9.032-6.597 12.65-10.731 1.837-2.1 4.573-3.844 6.054-3.836 5.374 0 4.59-3.327 4.662-6.46a72.985 72.985 0 0 1 1.538 18.209c-.631 10.497-1.425 20.938-3.893 31.234a140.023 140.023 0 0 1-14.796 36.862c-8.24 14.486-19.49 26.493-31.566 37.774-6.725 6.29-14.415 11.45-21.667 17.119-8.344 6.532-17.304 12.04-26.256 17.555-11.388 7.017-23.213 13.331-34.803 19.96-11.332 6.46-22.566 12.92-33.897 19.324a279.22 279.22 0 0 0-33.686 22.489 110.556 110.556 0 0 0-31.841 38.331c-2.623 5.254-5.243 10.514-7.86 15.778-3.237 2.221-6.386 4.458-8.563 7.809-1.49 2.277-4.354 2.568-6.264 4.296-8.159 7.404-17.078 13.905-25.9 20.478-7.495 5.596-14.69 11.587-22.356 16.957-5.924 4.167-11.331 9.068-16.883 13.727-4.695 3.94-9.632 7.615-14.334 11.547a128.835 128.835 0 0 1-11.566 8.713c-9.843 6.517-17.807 15.27-27.576 21.988a96.046 96.046 0 0 0-12.675 10.263c-3.367 3.295-7.802 5.653-11.501 8.77-7.851 6.621-16.317 12.467-24.282 18.952-9.437 7.679-18.615 15.746-28.239 23.142-7.454 5.71-14.472 12.113-22.339 17.11-6.426 4.038-11.558 9.489-17.92 13.55-7.082 4.514-12.99 10.853-19.732 15.868-7.956 5.91-14.909 13.033-23.335 18.362-8.182 5.168-14.99 12.153-22.622 18.072-2.015 1.558-3.755 3.496-6.102 4.586a12.642 12.642 0 0 0-4.808 4.175c-3.116-1.13-5.277-3.561-7.657-5.652a97.592 97.592 0 0 1-19.555-23.886c-4.8-8.075-9.243-16.424-12.464-25.339z"/></g><g opacity=".6"><path fill="#eef3fe" d="M234.494 784.552c-1.016-2.626 1.25-3.242 2.684-4.15a109.514 109.514 0 0 0 19.438-15.854c2.507-2.626 5.844-4.239 8.77-6.281 4.274-2.991 7.998-6.72 12.537-9.297 2.644-1.507 3.604-4.693 6.369-5.998 7.183-3.396 12.246-9.645 18.187-14.59 6.143-5.073 12.972-9.24 18.825-14.824 4.579-4.368 10.48-7.602 15.583-11.671 7.538-6.022 15.568-11.477 22.936-17.637 5.095-4.255 10.343-8.357 15.317-12.669 4.838-4.166 10.626-7.294 14.512-12.603a3.013 3.013 0 0 1 1.177-1.086c8.989-3.461 13.915-12.693 22.83-16.21 2.024-5.472 7.942-6.736 11.755-10.262a148.578 148.578 0 0 1 17.285-13.47c1.362-.925 2.773-1.622 3.136-3.437a3.077 3.077 0 0 1 1.7-2.164c6.58-3.064 11.577-8.284 17.35-12.45 9.674-6.979 18.268-15.197 27.765-22.346 4.248-3.242 8.182-6.825 12.85-9.418 2.25-1.249 2.798-4.199 4.934-5.196 8.19-3.817 14.108-10.715 21.477-15.643 5.046-3.372 9.158-8.178 14.27-11.412 4.683-2.967 7.44-7.814 12.044-10.667.588-.364 1.33-2.569 2.015 0-2.827 8.365-5.651 16.74-8.473 25.127-3.225 9.41-5.32 19.112-7.538 28.773a614.255 614.255 0 0 0-5.579 27.169c-2.346 12.968-5.006 25.799-8.271 38.516-5.547 21.673-12.649 42.812-23.936 62.256a202.18 202.18 0 0 1-22.04 31.18c-14.721 16.973-31.611 31.417-49.944 44.093-16.438 11.348-34.182 20.539-53.256 26.585-13.23 4.199-26.902 6.209-40.809 7.538-20.017 1.913-39.27-1.491-58.045-7.1a140.854 140.854 0 0 1-43.655-21.738c-1.419-1.078-3.41-1.24-4.2-3.064z"/></g><g opacity=".6"><path fill="#f1f2fd" d="M185.105 702.98c.704.987 1.067 2.484.97 4"/></g><g opacity=".6"><path fill="#f4f1fb" d="M770.13 160.876a1.876 1.876 0 0 1-1.996-1.996 4.145 4.145 0 0 1 1.996 1.996z"/></g><g opacity=".6"><path fill="#f1f2fd" d="M175.39 683.83c.907.375 1.04 1.14.991 2a2.789 2.789 0 0 1-.991-2z"/></g></g></g></svg>