<svg xmlns="http://www.w3.org/2000/svg" width="97" height="105" viewBox="0 0 97 105"><g><g><g><path fill="#e5fcfa" d="M55.827 0h4.885c8.98.487 14.732 5.91 19.516 12.746 7.311 10.448 10.79 22.394 13.623 34.613 1.906 8.225 2.4 16.602 3.149 24.959v1.39c-.564 1.391-.564 2.782 0 4.173v11.126c-.74 4.324-1.823 8.448-5.142 11.703-2.686 2.632-5.954 3.718-9.513 4.29h-9.77c-11.31-.993-21.192-6.544-31.74-9.955-8.956-2.895-17.672-6.508-26.762-9.019-1.456-.402-2.93-.818-4.25-1.556C4.699 81.604.44 78.055 0 71.623v-9.04c.825-10.08 7.42-14.505 16.39-16.576 3.055-.704 6.138-1.276 9.295-1.169 3.042.104 6.011-.358 8.954-1.052 5.335-1.258 6.768-2.979 6.846-8.385.063-4.39-.001-8.782.023-13.174.025-4.461 1.028-8.724 2.888-12.755C46.676 4.528 50.024.767 55.827 0"/></g><g><g><path fill="none" stroke="#54bbbf" stroke-miterlimit="50" stroke-width="3" d="M57.998 14c5.257 0 9.517 4.252 9.517 9.497 0 5.246-4.26 9.498-9.517 9.498s-9.518-4.252-9.518-9.498c0-5.245 4.261-9.497 9.518-9.497z"/></g><g><path fill="none" stroke="#54bbbf" stroke-miterlimit="50" stroke-width="3" d="M85.056 50.709a3.693 3.693 0 0 1-4.058 3.286c-7.052-.728-11.182-2.853-14.348-5.374l1.093 12.54c.16 1.855-.452 3.437-1.468 4.71 2.57 4.154 7.208 12.042 13.507 26.253a4.683 4.683 0 0 1-2.395 6.188 4.695 4.695 0 0 1-1.903.401 4.7 4.7 0 0 1-4.304-2.793c-5.341-12.044-9.552-19.584-12.023-23.681-3.083 5.317-10.11 19.463-12.805 24.123a4.705 4.705 0 0 1-6.423 1.723 4.69 4.69 0 0 1-1.724-6.409c2.892-5.004 10.903-19.734 13.88-25.12-.963-1.03-1.612-2.334-1.746-3.89l-1.155-13.24c-2.45 3.287-4.987 7.252-6.625 11.368a3.696 3.696 0 0 1-2.856 2.279l-5.747 9.94-4.637 8.245L22.7 92.845a3.626 3.626 0 0 1-.312 4.825 3.643 3.643 0 0 1-5.148-.042 3.621 3.621 0 0 1-.58-4.322l-4.848-2.721a1.583 1.583 0 0 1-.608-2.16l12.12-21.371a1.59 1.59 0 0 1 2.165-.603l6.404 3.59 4.545-8.083a3.677 3.677 0 0 1-.753-3.887c3.87-9.71 11.648-18.294 14.454-21.197.363-.436 1.515-1.437 1.679-1.537 2.254-1.678 3.794-1.73 4.807-1.842a7.539 7.539 0 0 1 2.083.096 9.998 9.998 0 0 1 4.219 1.741c2.075 1.272 10.322 10.456 18.827 11.33a3.696 3.696 0 0 1 3.302 4.047zm-63.959 44.49c0-.726-.596-1.313-1.33-1.313-.736 0-1.333.587-1.333 1.312 0 .725.597 1.314 1.332 1.314.735 0 1.33-.59 1.331-1.314z"/></g></g></g></g></svg>