<svg xmlns="http://www.w3.org/2000/svg" width="97" height="105" viewBox="0 0 97 105"><defs><clipPath id="i6lqa"><path d="M10 91.938h79.932V12.17H10z"/></clipPath></defs><g><g><g><path fill="#fcecf2" d="M55.827 0h4.885c8.98.487 14.732 5.91 19.516 12.746 7.311 10.448 10.79 22.394 13.623 34.613 1.906 8.225 2.4 16.602 3.149 24.959v1.39c-.564 1.391-.564 2.782 0 4.173v11.126c-.74 4.324-1.823 8.448-5.142 11.703-2.686 2.632-5.954 3.718-9.513 4.29h-9.77c-11.31-.993-21.192-6.544-31.74-9.955-8.956-2.895-17.672-6.508-26.762-9.019-1.456-.402-2.93-.818-4.25-1.556C4.699 81.604.44 78.055 0 71.623v-9.04c.825-10.08 7.42-14.505 16.39-16.576 3.055-.704 6.138-1.276 9.295-1.169 3.042.104 6.011-.358 8.954-1.052 5.335-1.258 6.768-2.979 6.846-8.385.063-4.39-.001-8.782.023-13.174.025-4.461 1.028-8.724 2.888-12.755C46.676 4.528 50.024.767 55.827 0"/></g><g><g><path fill="#f063a0" d="M55.098 76.139a3.977 3.977 0 0 1 2.849 3.796v10.623a1.33 1.33 0 0 1-1.331 1.328 1.33 1.33 0 0 1-1.33-1.328V79.935a1.33 1.33 0 0 0-1.33-1.327h-7.984a1.33 1.33 0 0 0-1.33 1.327v10.623a1.33 1.33 0 0 1-1.331 1.328 1.33 1.33 0 0 1-1.331-1.328V79.935a3.977 3.977 0 0 1 2.849-3.796 6.565 6.565 0 0 1-1.518-4.17c0-3.667 2.978-6.639 6.652-6.639s6.653 2.972 6.653 6.639a6.564 6.564 0 0 1-1.518 4.17m-5.13-8.155a3.99 3.99 0 0 0-3.996 3.982 3.99 3.99 0 0 0 3.996 3.982 3.99 3.99 0 0 0 3.997-3.982 3.99 3.99 0 0 0-3.997-3.982"/></g><g><path fill="none" stroke="#f063a0" stroke-miterlimit="50" stroke-width=".6" d="M57.947 79.935v10.623a1.33 1.33 0 0 1-1.331 1.328 1.33 1.33 0 0 1-1.33-1.328V79.935a1.33 1.33 0 0 0-1.33-1.327h-7.984a1.33 1.33 0 0 0-1.33 1.327v10.623a1.33 1.33 0 0 1-1.331 1.328 1.33 1.33 0 0 1-1.331-1.328V79.935a3.977 3.977 0 0 1 2.849-3.796 6.565 6.565 0 0 1-1.518-4.17c0-3.667 2.978-6.639 6.652-6.639s6.653 2.972 6.653 6.639a6.564 6.564 0 0 1-1.518 4.17 3.977 3.977 0 0 1 2.849 3.796zm-11.975-7.969a3.99 3.99 0 0 0 3.996 3.982 3.99 3.99 0 0 0 3.997-3.982 3.99 3.99 0 0 0-3.997-3.982 3.99 3.99 0 0 0-3.996 3.982z"/></g><g><path fill="#f063a0" d="M84.54 59.096a9.251 9.251 0 0 1-2.79 6.234h1.48c3.671.004 6.648 2.974 6.652 6.64v18.588a1.33 1.33 0 0 1-1.33 1.328 1.33 1.33 0 0 1-1.331-1.328V79.936H84.56v10.622a1.33 1.33 0 0 1-1.33 1.328 1.33 1.33 0 0 1-1.331-1.328v-11.95a1.33 1.33 0 0 1 1.33-1.328h3.992v-5.31c0-2.201-1.787-3.984-3.992-3.984h-2.66a5.317 5.317 0 0 1-5.323 5.31 5.317 5.317 0 0 1-5.322-5.31h-2.661a3.987 3.987 0 0 0-3.992 3.983v5.311h3.992c.735 0 1.33.595 1.33 1.328v11.95a1.33 1.33 0 0 1-1.33 1.328 1.33 1.33 0 0 1-1.33-1.328V79.936H63.27v10.622a1.33 1.33 0 0 1-1.33 1.328 1.33 1.33 0 0 1-1.331-1.328V71.97c.004-3.665 2.98-6.635 6.653-6.639h1.476a9.253 9.253 0 0 1-2.787-6.234 9.293 9.293 0 0 1-5.342-8.372v-6.638a2.658 2.658 0 0 1 2.661-2.656H83.23c3.672.004 6.649 2.974 6.653 6.639v2.655a9.293 9.293 0 0 1-5.342 8.372m-15.947-.401c0 3.667 2.978 6.64 6.653 6.64 3.674 0 6.653-2.973 6.653-6.64v-6.641h-1.33a1.33 1.33 0 0 1-1.331-1.328 1.33 1.33 0 0 1 1.33-1.328h2.661c.735 0 1.33.594 1.33 1.328v5.304a6.637 6.637 0 0 0 2.662-5.304V48.07a3.988 3.988 0 0 0-3.992-3.985H63.271v6.64a6.637 6.637 0 0 0 2.661 5.305v-5.304a1.33 1.33 0 0 1 1.33-1.328h7.984c.735 0 1.33.594 1.33 1.328a1.33 1.33 0 0 1-1.33 1.328h-6.653v6.64m6.658 11.941a2.66 2.66 0 0 0 2.666-2.655h-5.332a2.66 2.66 0 0 0 2.666 2.655"/></g><g><path fill="none" stroke="#f063a0" stroke-miterlimit="50" stroke-width=".6" d="M81.75 65.33h1.48c3.671.004 6.648 2.974 6.652 6.64v18.588a1.33 1.33 0 0 1-1.33 1.328 1.33 1.33 0 0 1-1.331-1.328V79.936H84.56v10.622a1.33 1.33 0 0 1-1.33 1.328 1.33 1.33 0 0 1-1.331-1.328v-11.95a1.33 1.33 0 0 1 1.33-1.328h3.992v-5.31c0-2.201-1.787-3.984-3.992-3.984h-2.66a5.317 5.317 0 0 1-5.323 5.31 5.317 5.317 0 0 1-5.322-5.31h-2.661a3.987 3.987 0 0 0-3.992 3.983v5.311h3.992c.735 0 1.33.595 1.33 1.328v11.95a1.33 1.33 0 0 1-1.33 1.328 1.33 1.33 0 0 1-1.33-1.328V79.936H63.27v10.622a1.33 1.33 0 0 1-1.33 1.328 1.33 1.33 0 0 1-1.331-1.328V71.97c.004-3.665 2.98-6.635 6.653-6.639h1.476a9.253 9.253 0 0 1-2.787-6.234 9.293 9.293 0 0 1-5.342-8.372v-6.638a2.658 2.658 0 0 1 2.661-2.656H83.23c3.672.004 6.649 2.974 6.653 6.639v2.655a9.293 9.293 0 0 1-5.342 8.372 9.251 9.251 0 0 1-2.79 6.234zm-6.504.006c3.674 0 6.653-2.974 6.653-6.641v-6.641h-1.33a1.33 1.33 0 0 1-1.331-1.328 1.33 1.33 0 0 1 1.33-1.328h2.661c.735 0 1.33.594 1.33 1.328v5.304a6.637 6.637 0 0 0 2.662-5.304V48.07a3.988 3.988 0 0 0-3.992-3.985H63.271v6.64a6.637 6.637 0 0 0 2.661 5.305v-5.304a1.33 1.33 0 0 1 1.33-1.328h7.984c.735 0 1.33.594 1.33 1.328a1.33 1.33 0 0 1-1.33 1.328h-6.653v6.64c0 3.668 2.978 6.642 6.653 6.642zm2.671 2.644h-5.332a2.66 2.66 0 0 0 2.666 2.655 2.66 2.66 0 0 0 2.666-2.655z"/></g><g><path fill="#f063a0" d="M32.67 65.323c3.671.004 6.648 2.974 6.652 6.64V90.55a1.33 1.33 0 0 1-1.33 1.328 1.33 1.33 0 0 1-1.331-1.328V79.93H34v10.622a1.33 1.33 0 0 1-1.33 1.328 1.33 1.33 0 0 1-1.331-1.328v-11.95a1.33 1.33 0 0 1 1.33-1.328h3.992v-5.31c0-2.201-1.787-3.984-3.992-3.984h-2.66v2.656c0 .352-.141.69-.39.94l-3.602 3.594v6.088a1.33 1.33 0 0 1-1.331 1.328 1.33 1.33 0 0 1-1.33-1.328v-6.088l-3.602-3.594c-.25-.25-.39-.588-.39-.94v-2.656h-2.661a3.987 3.987 0 0 0-3.992 3.983v5.311h3.992c.734 0 1.33.595 1.33 1.328v11.95a1.33 1.33 0 0 1-1.33 1.328 1.33 1.33 0 0 1-1.33-1.328V79.93H12.71v10.622a1.33 1.33 0 0 1-1.33 1.328 1.33 1.33 0 0 1-1.331-1.328V71.962c.004-3.665 2.98-6.635 6.653-6.639h1.476a9.252 9.252 0 0 1-2.807-6.639v-7.966a1.33 1.33 0 0 1 1.33-1.328h7.984c.735 0 1.33.595 1.33 1.328a1.33 1.33 0 0 1-1.33 1.328h-6.653v6.638c0 3.667 2.979 6.64 6.653 6.64 3.674 0 6.653-2.973 6.653-6.64v-6.638h-1.33a1.33 1.33 0 0 1-1.331-1.328 1.33 1.33 0 0 1 1.33-1.328h2.661c.735 0 1.33.595 1.33 1.328v7.966c.001 2.501-1.011 4.896-2.808 6.64zm-5.313 2.656h-5.332v2.106l2.666 2.655 2.666-2.655z"/></g><g><path fill="none" stroke="#f063a0" stroke-miterlimit="50" stroke-width=".6" d="M39.322 71.962v18.59a1.33 1.33 0 0 1-1.33 1.327 1.33 1.33 0 0 1-1.331-1.328V79.93H34v10.622a1.33 1.33 0 0 1-1.33 1.328 1.33 1.33 0 0 1-1.331-1.328v-11.95a1.33 1.33 0 0 1 1.33-1.328h3.992v-5.31c0-2.201-1.787-3.984-3.992-3.984h-2.66v2.656c0 .352-.141.69-.39.94l-3.602 3.594v6.088a1.33 1.33 0 0 1-1.331 1.328 1.33 1.33 0 0 1-1.33-1.328v-6.088l-3.602-3.594c-.25-.25-.39-.588-.39-.94v-2.656h-2.661a3.987 3.987 0 0 0-3.992 3.983v5.311h3.992c.734 0 1.33.595 1.33 1.328v11.95a1.33 1.33 0 0 1-1.33 1.328 1.33 1.33 0 0 1-1.33-1.328V79.93H12.71v10.622a1.33 1.33 0 0 1-1.33 1.328 1.33 1.33 0 0 1-1.331-1.328V71.962c.004-3.665 2.98-6.635 6.653-6.639h1.476a9.252 9.252 0 0 1-2.807-6.639v-7.966a1.33 1.33 0 0 1 1.33-1.328h7.984c.735 0 1.33.595 1.33 1.328a1.33 1.33 0 0 1-1.33 1.328h-6.653v6.638c0 3.667 2.979 6.64 6.653 6.64 3.674 0 6.653-2.973 6.653-6.64v-6.638h-1.33a1.33 1.33 0 0 1-1.331-1.328 1.33 1.33 0 0 1 1.33-1.328h2.661c.735 0 1.33.595 1.33 1.328v7.966c.001 2.501-1.011 4.896-2.808 6.64h1.478c3.672.003 6.649 2.973 6.653 6.638zM27.357 67.98h-5.332v2.106l2.666 2.655 2.666-2.655z"/></g><g><path fill="#f063a0" d="M24.686 38.77c-8.08.01-14.627 6.543-14.636 14.606v9.294a1.33 1.33 0 0 0 1.33 1.328 1.33 1.33 0 0 0 1.331-1.328v-9.294c0-6.6 5.361-11.95 11.975-11.95s11.975 5.35 11.975 11.95v9.294a1.33 1.33 0 0 0 1.33 1.328 1.33 1.33 0 0 0 1.331-1.328v-9.294c-.01-8.063-6.556-14.597-14.636-14.606"/></g><g><path fill="none" stroke="#f063a0" stroke-miterlimit="50" stroke-width=".6" d="M24.686 38.77c-8.08.01-14.627 6.543-14.636 14.606v9.294a1.33 1.33 0 0 0 1.33 1.328 1.33 1.33 0 0 0 1.331-1.328v-9.294c0-6.6 5.361-11.95 11.975-11.95s11.975 5.35 11.975 11.95v9.294a1.33 1.33 0 0 0 1.33 1.328 1.33 1.33 0 0 0 1.331-1.328v-9.294c-.01-8.063-6.556-14.597-14.636-14.606z"/></g><g><path fill="#f063a0" d="M16.805 35.684c-2 .927-4.374.06-5.303-1.936a3.98 3.98 0 0 1 1.94-5.29l33.702-15.616a6.704 6.704 0 0 1 5.641 0l33.701 15.616a3.98 3.98 0 0 1 1.94 5.29 3.996 3.996 0 0 1-5.302 1.936l-1.227-.568v1.005a1.33 1.33 0 0 1-1.33 1.328 1.33 1.33 0 0 1-1.33-1.328v-2.238L51.665 21.108a4.039 4.039 0 0 0-3.401 0L20.692 33.883v2.238a1.33 1.33 0 0 1-1.33 1.328 1.33 1.33 0 0 1-1.33-1.328v-1.005zm-2.931-4.068a1.327 1.327 0 0 0 .793 1.704c.33.122.697.106 1.017-.043l31.46-14.58a6.703 6.703 0 0 1 5.641 0l31.46 14.58c.666.31 1.458.02 1.768-.645.31-.666.02-1.456-.647-1.765L51.665 15.251a4.038 4.038 0 0 0-3.401 0L14.567 30.867c-.32.149-.569.418-.69.75z"/></g><g><path fill="none" stroke="#f063a0" stroke-miterlimit="50" stroke-width=".6" d="M11.502 33.748a3.98 3.98 0 0 1 1.94-5.29l33.702-15.616a6.704 6.704 0 0 1 5.641 0l33.701 15.616a3.98 3.98 0 0 1 1.94 5.29 3.996 3.996 0 0 1-5.302 1.936l-1.227-.568v1.005a1.33 1.33 0 0 1-1.33 1.328 1.33 1.33 0 0 1-1.33-1.328v-2.238L51.665 21.108a4.039 4.039 0 0 0-3.401 0L20.692 33.883v2.238a1.33 1.33 0 0 1-1.33 1.328 1.33 1.33 0 0 1-1.33-1.328v-1.005l-1.227.568c-2 .927-4.374.06-5.303-1.936zm2.372-2.132a1.327 1.327 0 0 0 .793 1.704c.33.122.697.106 1.017-.043l31.46-14.58a6.703 6.703 0 0 1 5.641 0l31.46 14.58c.666.31 1.458.02 1.768-.645.31-.666.02-1.456-.647-1.765L51.665 15.251a4.038 4.038 0 0 0-3.401 0L14.567 30.867c-.32.149-.569.418-.69.75z"/></g><g/><g clip-path="url(#i6lqa)"><path fill="#f063a0" d="M56.616 29.48c.735 0 1.33.595 1.33 1.328V41.43a1.33 1.33 0 0 1-1.33 1.328 1.33 1.33 0 0 1-1.33-1.328v-3.983h-3.992v3.983a1.33 1.33 0 0 1-1.33 1.328 1.33 1.33 0 0 1-1.331-1.328v-3.983H44.64v3.983a1.33 1.33 0 0 1-1.33 1.328 1.33 1.33 0 0 1-1.331-1.328V30.808a1.33 1.33 0 0 1 1.33-1.328zm-11.975 5.301h3.992v-2.645H44.64zm6.653 0h4.002v-2.645h-4.002z"/></g><g clip-path="url(#i6lqa)"><path fill="none" stroke="#f063a0" stroke-miterlimit="50" stroke-width=".6" d="M57.947 30.808V41.43a1.33 1.33 0 0 1-1.331 1.328 1.33 1.33 0 0 1-1.33-1.328v-3.983h-3.992v3.983a1.33 1.33 0 0 1-1.33 1.328 1.33 1.33 0 0 1-1.331-1.328v-3.983H44.64v3.983a1.33 1.33 0 0 1-1.33 1.328 1.33 1.33 0 0 1-1.331-1.328V30.808a1.33 1.33 0 0 1 1.33-1.328h13.306c.735 0 1.33.595 1.33 1.328zM44.64 34.78h3.992v-2.645H44.64zm6.653 0h4.002v-2.645h-4.002z"/></g></g><g><path fill="#fcecf2" d="M40 65h19v28H40z"/></g></g></g></svg>