<svg xmlns="http://www.w3.org/2000/svg" width="97" height="105" viewBox="0 0 97 105"><g><g><g><path fill="#fdf1e5" d="M55.827 0h4.885c8.98.487 14.732 5.91 19.516 12.746 7.311 10.448 10.79 22.394 13.623 34.613 1.906 8.225 2.4 16.602 3.149 24.959v1.39c-.564 1.391-.564 2.782 0 4.173v11.126c-.74 4.324-1.823 8.448-5.142 11.703-2.686 2.632-5.954 3.718-9.513 4.29h-9.77c-11.31-.993-21.192-6.544-31.74-9.955-8.956-2.895-17.672-6.508-26.762-9.019-1.456-.402-2.93-.818-4.25-1.556C4.699 81.604.44 78.055 0 71.623v-9.04c.825-10.08 7.42-14.505 16.39-16.576 3.055-.704 6.138-1.276 9.295-1.169 3.042.104 6.011-.358 8.954-1.052 5.335-1.258 6.768-2.979 6.846-8.385.063-4.39-.001-8.782.023-13.174.025-4.461 1.028-8.724 2.888-12.755C46.676 4.528 50.024.767 55.827 0"/></g><g><g><path fill="#f68b1f" d="M48.995 89.323c-20.583 0-37.328-16.745-37.328-37.328 0-20.583 16.745-37.328 37.328-37.328 20.583 0 37.328 16.745 37.328 37.328 0 20.583-16.745 37.328-37.328 37.328zM49 12C26.944 12 9 29.944 9 52s17.944 40 40 40 40-17.944 40-40-17.944-40-40-40z"/></g><g><path fill="#f68b1f" d="M49.005 54.517a2.674 2.674 0 0 1-2.672-2.672 2.674 2.674 0 0 1 2.672-2.672 2.674 2.674 0 0 1 2.672 2.672 2.674 2.674 0 0 1-2.672 2.672zm1.328-7.821V33.173a1.333 1.333 0 1 0-2.666 0v13.523a5.326 5.326 0 0 0-3.811 3.81h-9.523a1.333 1.333 0 1 0 0 2.667h9.523c.596 2.294 2.667 4 5.144 4a5.339 5.339 0 0 0 5.333-5.333c0-2.479-1.706-4.548-4-5.144z"/></g><g><path fill="#f68b1f" d="M49.003 25.17c.736 0 1.334-.596 1.334-1.333v-1.334a1.333 1.333 0 1 0-2.667 0v1.334c0 .737.597 1.333 1.333 1.333z"/></g><g><path fill="#f68b1f" d="M49.003 78.51c-.736 0-1.333.596-1.333 1.333v1.334a1.333 1.333 0 1 0 2.667 0v-1.334c0-.737-.598-1.333-1.334-1.333z"/></g><g><path fill="#f68b1f" d="M78.337 50.51h-1.334a1.333 1.333 0 1 0 0 2.667h1.334a1.333 1.333 0 1 0 0-2.667z"/></g><g><path fill="#f68b1f" d="M20.997 50.51h-1.334a1.333 1.333 0 1 0 0 2.667h1.334a1.333 1.333 0 1 0 0-2.667z"/></g><g><path fill="#f68b1f" d="M68.794 30.15l-.943.943a1.332 1.332 0 0 0 .943 2.276c.341 0 .682-.13.942-.39l.943-.943a1.333 1.333 0 1 0-1.885-1.885z"/></g><g><path fill="#f68b1f" d="M28.264 70.69l-.943.943a1.332 1.332 0 0 0 .943 2.276c.341 0 .682-.13.942-.39l.943-.943a1.333 1.333 0 1 0-1.885-1.885z"/></g><g><path fill="#f68b1f" d="M69.736 70.691a1.332 1.332 0 0 0-1.885 0 1.332 1.332 0 0 0 0 1.885l.943.943a1.33 1.33 0 0 0 1.885 0 1.332 1.332 0 0 0 0-1.885z"/></g><g><path fill="#f68b1f" d="M29.206 30.151a1.332 1.332 0 0 0-1.885 0 1.332 1.332 0 0 0 0 1.885l.943.943a1.33 1.33 0 0 0 1.885 0 1.332 1.332 0 0 0 0-1.885z"/></g></g></g></g></svg>