<svg xmlns="http://www.w3.org/2000/svg" width="217" height="78" viewBox="0 0 217 78"><g><g><g><path fill="#f0679e" d="M.146 24.024c.584-3.083 2.337-5.873 4.821-7.782a12.764 12.764 0 0 1 9.057-3.23c5.406 9.103 15.778 7.488 19.43.294 5.698-.734 11.249 2.496 13.44 7.782 2.338 5.432.877 12.186-3.506 15.563l-4.675-4.258c1.607-1.615 2.63-3.67 2.63-6.02 0-3.817-3.214-6.9-7.012-6.9-.877 0-1.753.146-2.63.587-3.214 1.321-5.843 3.524-7.743 6.46-1.753-2.643-4.236-4.845-7.158-6.167-2.922-1.468-6.282-.734-8.473 1.616a7.104 7.104 0 0 0-.438 8.809c2.775 3.964 6.282 7.341 10.226 9.984 2.045 1.468 2.63 3.23 1.46 4.845-1.168 1.615-2.921 1.909-5.112.44-4.383-2.936-8.181-6.606-11.395-10.717C1.607 33.42.584 31.365 0 29.016"/></g><g><path fill="#3bbfc0" d="M.237 48.34c.446-2.335 1.783-4.524 3.567-6.275.297-.292.594-.584 1.04-.73l4.607 4.378c-1.635 1.46-2.526 3.357-2.675 5.4-.149 3.795 2.824 7.006 6.688 7.443 1.189 0 2.229-.146 3.27-.583a17.902 17.902 0 0 0 7.727-6.276 17.902 17.902 0 0 0 7.728 6.276 7.282 7.282 0 0 0 9.511-3.357v-.146c1.04-2.481.744-5.254-.891-7.297-2.675-3.503-5.945-6.568-9.512-9.195-.594-.292-1.04-.583-1.486-1.021-1.486-1.022-1.932-3.065-.891-4.525 1.04-1.459 3.12-1.897 4.607-.875 5.498 3.648 10.551 7.88 13.82 13.719 3.568 6.421 1.19 14.594-5.498 18.097-2.23 1.167-4.607 1.75-7.133 1.605-4.905-8.61-15.605-8.027-19.766-.146-5.945.876-11.592-2.919-13.97-8.757-1.04-2.48-1.189-5.108-.743-7.735z"/></g><g><path fill="#b2d33e" d="M24.5 78a8.5 8.5 0 1 0 0-17 8.5 8.5 0 0 0 0 17z"/></g><g><path fill="#faa755" d="M24.5 17a8.5 8.5 0 1 0 0-17 8.5 8.5 0 0 0 0 17z"/></g><g><path fill="#4d4d4f" d="M213.734 40.21c.446 1.938.297 4.026-.593 5.965-.594 1.342-1.782 2.535-3.266 3.132-3.266 1.342-7.125-.15-8.46-3.43-1.04-2.387-.892-5.07.148-7.308.742-2.088 2.671-3.579 4.898-3.728l.89-.15a6.421 6.421 0 0 1 6.383 5.519zm3.266.447l-.148-.15a12.424 12.424 0 0 0-.891-3.13c-1.633-3.43-5.195-5.519-8.906-5.37-1.336 0-2.672.448-3.86 1.194l-2.375 1.938v-2.684H198V59h2.969v-9.843c1.039 1.343 2.523 2.387 4.156 2.983 1.188.298 2.523.447 3.86.298 1.187-.149 2.374-.447 3.413-1.044 2.227-1.342 3.711-3.43 4.305-5.965 0-.596.149-1.044.297-1.64z"/></g><g><path fill="#4d4d4f" d="M182.533 48.412c-.301-.145-.452-.435-.603-.724-1.056-1.737-.604-3.909 1.207-4.922 2.112-1.303 4.828-1.159 6.79.29.603.578 1.055 1.302 1.206 2.17v.29c0 2.172-1.66 3.91-3.922 4.054l-.906.145c-1.508 0-2.866-.435-3.772-1.303zm11.014 3.185V40.015c0-1.014 0-1.882-.15-2.896-.151-1.158-.604-2.316-1.51-3.185a6.76 6.76 0 0 0-4.676-1.882c-1.81-.145-3.621 0-5.281.58-1.207.289-2.263.723-3.168 1.447l1.207 2.172h.15l.604-.29c1.961-1.013 4.074-1.448 6.186-1.303 1.358.145 2.414.869 3.168 1.882.905 1.303.453 2.896.604 4.344-.453-.29-.755-.58-1.056-.724-1.962-.869-4.225-1.159-6.337-.58-3.169.58-5.432 3.33-5.28 6.37.15 2.027 1.206 3.765 3.017 4.778 1.056.724 2.263 1.014 3.62 1.158 1.51.29 3.018 0 4.376-.579.754-.29 1.358-.724 1.961-1.158.151.434.151.724.302 1.158.151.145.151.29.302.29z"/></g><g><path fill="#adafb1" d="M139.599 48.452a9.36 9.36 0 0 1-2.63.866c-3.796.578-7.155-2.02-7.74-5.772-.438-2.165 0-4.33 1.315-6.062 1.022-1.443 2.775-2.453 4.527-2.598h.146c3.797-.577 7.156 2.02 7.74 5.773.147.433.147.866.147 1.3.146 2.597-1.169 5.05-3.505 6.493zm-13.439-4.906c.147 2.02 1.17 4.04 2.631 5.484 2.192 2.453 5.7 3.463 8.915 2.742 3.215-.289 5.992-2.31 7.308-5.196.876-1.876 1.169-4.04.876-6.061-.438-4.474-3.946-7.938-8.476-8.37-.73-.145-1.462-.145-2.192-.145-5.262.289-9.5 4.763-9.208 10.102 0 .433.146 1.01.146 1.444z"/></g><g><path fill="#4d4d4f" d="M96 32.148h3v19.444h-2.857v-2.523c-.572.742-1.286 1.484-2.143 1.93-1.286.89-2.857 1.187-4.429.89-1.142-.149-2.142-.446-3-1.188-1.285-1.039-2.142-2.671-2.428-4.304C84 45.655 84 44.764 84 44.022V32h2.857v12.616c-.143 1.781.857 3.414 2.429 4.156 2.285 1.187 5.143.148 6.285-2.227L96 45.21c0-.446.143-.89.143-1.336z"/></g><g><path fill="#adafb1" d="M149 32.483h2.857v2.494l.286-.293c2.143-2.935 6.143-3.522 9.143-1.468a6.766 6.766 0 0 1 2.428 4.11c.143.88.286 1.613.286 2.494v11.887h-2.857V39.82c.143-2.495-1.714-4.696-4.143-4.843h-1c-2.429.294-4.286 2.642-4.143 5.136V52H149z"/></g><g><path fill="#4d4d4f" d="M55 26h17v2.807h-6.888V52h-3.078V28.807H55"/></g><g><path fill="#4d4d4f" d="M173.052 52h-3.104V28.807H163V26h17v2.807h-6.948z"/></g><g><path fill="#4d4d4f" d="M114.65 35.495l-2.012 1.165a8.292 8.292 0 0 0-1.582-1.602c-1.437-1.02-3.162-1.02-4.6-.146-1.006.728-1.293 2.184-.575 3.35.144.29.432.436.575.582.863.582 1.869 1.02 2.875 1.456 1.294.437 2.588 1.165 3.738 1.893 1.437 1.165 2.156 2.912 1.869 4.805-.432 2.476-2.3 4.369-4.744 4.805-1.869.437-3.881.146-5.463-.873-1.293-.728-2.156-1.893-2.731-3.204l2.013-1.31c.43.873 1.15 1.601 1.868 2.184 1.582 1.02 3.45 1.02 5.032.146 1.15-.729 1.58-2.476.718-3.64v-.146c-.143-.292-.431-.437-.575-.583-1.15-.728-2.3-1.31-3.593-1.747-1.294-.437-2.444-1.165-3.45-2.184-.72-.728-1.15-1.893-1.15-2.913-.144-1.31.287-2.475 1.006-3.494.862-1.02 2.156-1.748 3.45-1.893 1.437-.292 3.019-.146 4.456.436a5.649 5.649 0 0 1 2.875 2.913z"/></g><g><path fill="#4d4d4f" d="M125.846 32.19v2.544h-4.461V45.66c0 .598.153 1.047.307 1.646.308 1.197 1.539 2.095 2.77 1.945H126v2.544c-.154.15-.154.15-.308.15-1.384.15-2.923 0-4.307-.45-1.539-.598-2.616-1.945-2.77-3.59-.153-.749-.307-1.647-.307-2.395V34.585H116V32.04h2.308V28h3.077v4.04h4.461z"/></g><g><path fill="#4d4d4f" d="M72.153 32.593h2.898v2.814A6.962 6.962 0 0 1 81 32v2.963c-.61 0-1.22.148-1.83.296-1.984.593-3.356 2.074-3.662 4-.305 1.037-.457 2.222-.457 3.408V52H72z"/></g></g></g></svg>