<?xml version="1.0" encoding="UTF-8"?>
<svg width="97px" height="106px" viewBox="0 0 97 106" version="1.1" xmlns="http://www.w3.org/2000/svg" xmlns:xlink="http://www.w3.org/1999/xlink">
    <!-- Generator: Sketch 56.2 (81672) - https://sketch.com -->
    <title>Group 14</title>
    <desc>Created with Sketch.</desc>
    <defs>
        <polygon id="path-1" points="0 79.9334719 79.9334719 79.9334719 79.9334719 0 0 0"></polygon>
    </defs>
    <g id="Homepage-(not-for-development)" stroke="none" stroke-width="1" fill="none" fill-rule="evenodd">
        <g id="Home-Desktop" transform="translate(-676.000000, -2644.000000)">
            <g id="Group-14" transform="translate(676.000000, 2644.000000)">
                <path d="M55.8273381,0 L60.7122302,0 C69.6913597,0.491390728 75.4436691,5.96618543 80.2280719,12.8674172 C87.5393597,23.4147682 91.0187986,35.4749007 93.8506403,47.8102119 C95.7571439,56.1133113 96.2512158,64.5701457 97,73.0066225 L97,74.410596 C96.4361439,75.8145695 96.4361439,77.218543 97,78.6225166 L97,89.8543046 C96.2602878,94.2199603 95.1772374,98.3827417 91.8576043,101.668742 C89.1716115,104.326464 85.9043165,105.422265 82.3453237,106 L72.5755396,106 C61.264223,104.997563 51.383482,99.3936026 40.8342086,95.9503576 C31.8795036,93.0272848 23.1634604,89.3804636 14.0733741,86.8455894 C12.6169784,86.4398411 11.1431367,86.019351 9.82282014,85.274543 C4.69856835,82.3816556 0.441035971,78.7980132 0,72.3046358 L0,63.1788079 C0.824848921,53.0035099 7.42015108,48.5360662 16.3909065,46.4455497 C19.4453597,45.7344371 22.5277266,45.157404 25.6847626,45.2655099 C28.7273525,45.370106 31.6959712,44.9032848 34.6394676,44.202702 C39.9737698,42.9335099 41.4071367,41.1960927 41.4845971,35.7381457 C41.5481007,31.3058013 41.4838993,26.872053 41.5076259,22.4390066 C41.5327482,17.9350596 42.5362446,13.6318808 44.3959928,9.56176159 C46.6758417,4.57063576 50.0240863,0.774291391 55.8273381,0" id="Fill-1" fill="#E5FCFA"></path>
                <g id="Group-32" transform="translate(8.000000, 13.000000)">
                    <path d="M2.71101871,10.6944033 L2.71101871,4.04159667 C2.71101871,3.30978794 3.30977131,2.71103534 4.04158004,2.71103534 L75.8918919,2.71103534 C76.6237006,2.71103534 77.2224532,3.30978794 77.2224532,4.04159667 L77.2224532,10.6944033 L2.71101871,10.6944033 Z M77.2224532,75.8919085 C77.2224532,76.6235509 76.6237006,77.2224699 75.8918919,77.2224699 L4.04158004,77.2224699 C3.30977131,77.2224699 2.71101871,76.6235509 2.71101871,75.8919085 L2.71101871,13.355526 L77.2224532,13.355526 L77.2224532,75.8919085 Z M75.8918919,0.0499126819 L4.04158004,0.0499126819 C1.82952183,0.0499126819 0.0498960499,1.82953846 0.0498960499,4.04159667 L0.0498960499,75.8919085 C0.0498960499,78.1039667 1.82952183,79.8835925 4.04158004,79.8835925 L75.8918919,79.8835925 C78.1039501,79.8835925 79.8835759,78.1039667 79.8835759,75.8919085 L79.8835759,4.04159667 C79.8835759,1.82953846 78.1039501,0.0499126819 75.8918919,0.0499126819 L75.8918919,0.0499126819 Z" id="Fill-1" fill="#3BBFC0"></path>
                    <path d="M2.71101871,10.6944033 L2.71101871,4.04159667 C2.71101871,3.30978794 3.30977131,2.71103534 4.04158004,2.71103534 L75.8918919,2.71103534 C76.6237006,2.71103534 77.2224532,3.30978794 77.2224532,4.04159667 L77.2224532,10.6944033 L2.71101871,10.6944033 Z M77.2224532,75.8919085 C77.2224532,76.6235509 76.6237006,77.2224699 75.8918919,77.2224699 L4.04158004,77.2224699 C3.30977131,77.2224699 2.71101871,76.6235509 2.71101871,75.8919085 L2.71101871,13.355526 L77.2224532,13.355526 L77.2224532,75.8919085 Z M75.8918919,0.0499126819 L4.04158004,0.0499126819 C1.82952183,0.0499126819 0.0498960499,1.82953846 0.0498960499,4.04159667 L0.0498960499,75.8919085 C0.0498960499,78.1039667 1.82952183,79.8835925 4.04158004,79.8835925 L75.8918919,79.8835925 C78.1039501,79.8835925 79.8835759,78.1039667 79.8835759,75.8919085 L79.8835759,4.04159667 C79.8835759,1.82953846 78.1039501,0.0499126819 75.8918919,0.0499126819 Z" id="Stroke-3" stroke="#3BBFC0" stroke-width="0.6"></path>
                    <mask id="mask-2" fill="white">
                        <use xlink:href="#path-1"></use>
                    </mask>
                    <g id="Clip-6"></g>
                    <polygon id="Fill-5" fill="#3BBFC0" mask="url(#mask-2)" points="5.37214137 8.03326403 8.03326403 8.03326403 8.03326403 5.37214137 5.37214137 5.37214137"></polygon>
                    <polygon id="Stroke-7" stroke="#3BBFC0" stroke-width="0.6" mask="url(#mask-2)" points="5.37214137 8.03326403 8.03326403 8.03326403 8.03326403 5.37214137 5.37214137 5.37214137"></polygon>
                    <polygon id="Fill-8" fill="#3BBFC0" mask="url(#mask-2)" points="10.6943867 8.03326403 13.3555094 8.03326403 13.3555094 5.37214137 10.6943867 5.37214137"></polygon>
                    <polygon id="Stroke-9" stroke="#3BBFC0" stroke-width="0.6" mask="url(#mask-2)" points="10.6943867 8.03326403 13.3555094 8.03326403 13.3555094 5.37214137 10.6943867 5.37214137"></polygon>
                    <polygon id="Fill-10" fill="#3BBFC0" mask="url(#mask-2)" points="16.016632 8.03326403 18.6777547 8.03326403 18.6777547 5.37214137 16.016632 5.37214137"></polygon>
                    <polygon id="Stroke-11" stroke="#3BBFC0" stroke-width="0.6" mask="url(#mask-2)" points="16.016632 8.03326403 18.6777547 8.03326403 18.6777547 5.37214137 16.016632 5.37214137"></polygon>
                    <path d="M61.2557173,41.2973139 L61.2557173,38.6361913 L67.9085239,38.6361913 L67.9085239,37.405422 L71.1018711,39.9667526 L67.9085239,42.5279168 L67.9085239,41.2973139 L61.2557173,41.2973139 Z M65.2474012,48.0499127 L75.3596674,39.9667526 L65.2474012,31.8835925 L65.2474012,35.9750686 L58.5945946,35.9750686 L58.5945946,43.9584366 L65.2474012,43.9584366 L65.2474012,48.0499127 Z" id="Fill-12" fill="#3BBFC0" mask="url(#mask-2)"></path>
                    <path d="M61.2557173,41.2973139 L61.2557173,38.6361913 L67.9085239,38.6361913 L67.9085239,37.405422 L71.1018711,39.9667526 L67.9085239,42.5279168 L67.9085239,41.2973139 L61.2557173,41.2973139 Z M65.2474012,48.0499127 L75.3596674,39.9667526 L65.2474012,31.8835925 L65.2474012,35.9750686 L58.5945946,35.9750686 L58.5945946,43.9584366 L65.2474012,43.9584366 L65.2474012,48.0499127 Z" id="Stroke-13" stroke="#3BBFC0" stroke-width="0.6" mask="url(#mask-2)"></path>
                    <path d="M12.024948,42.5279834 L8.83160083,39.9668191 L12.024948,37.4054886 L12.024948,38.6362578 L18.6777547,38.6362578 L18.6777547,41.2973805 L12.024948,41.2973805 L12.024948,42.5279834 Z M14.6860707,43.9585031 L21.3388773,43.9585031 L21.3388773,35.9751351 L14.6860707,35.9751351 L14.6860707,31.883659 L4.57380457,39.9668191 L14.6860707,48.0498129 L14.6860707,43.9585031 Z" id="Fill-14" fill="#3BBFC0" mask="url(#mask-2)"></path>
                    <path d="M12.024948,42.5279834 L8.83160083,39.9668191 L12.024948,37.4054886 L12.024948,38.6362578 L18.6777547,38.6362578 L18.6777547,41.2973805 L12.024948,41.2973805 L12.024948,42.5279834 Z M14.6860707,43.9585031 L21.3388773,43.9585031 L21.3388773,35.9751351 L14.6860707,35.9751351 L14.6860707,31.883659 L4.57380457,39.9668191 L14.6860707,48.0498129 L14.6860707,43.9585031 Z" id="Stroke-15" stroke="#3BBFC0" stroke-width="0.6" mask="url(#mask-2)"></path>
                    <polygon id="Fill-16" fill="#3BBFC0" mask="url(#mask-2)" points="26.6611227 61.2557173 31.983368 61.2557173 31.983368 58.5945946 26.6611227 58.5945946"></polygon>
                    <polygon id="Stroke-17" stroke="#3BBFC0" stroke-width="0.6" mask="url(#mask-2)" points="26.6611227 61.2557173 31.983368 61.2557173 31.983368 58.5945946 26.6611227 58.5945946"></polygon>
                    <polygon id="Fill-18" fill="#3BBFC0" mask="url(#mask-2)" points="34.6444906 61.2557173 53.2723493 61.2557173 53.2723493 58.5945946 34.6444906 58.5945946"></polygon>
                    <polygon id="Stroke-19" stroke="#3BBFC0" stroke-width="0.6" mask="url(#mask-2)" points="34.6444906 61.2557173 53.2723493 61.2557173 53.2723493 58.5945946 34.6444906 58.5945946"></polygon>
                    <polygon id="Fill-20" fill="#3BBFC0" mask="url(#mask-2)" points="26.6611227 66.5779626 31.983368 66.5779626 31.983368 63.9168399 26.6611227 63.9168399"></polygon>
                    <polygon id="Stroke-21" stroke="#3BBFC0" stroke-width="0.6" mask="url(#mask-2)" points="26.6611227 66.5779626 31.983368 66.5779626 31.983368 63.9168399 26.6611227 63.9168399"></polygon>
                    <polygon id="Fill-22" fill="#3BBFC0" mask="url(#mask-2)" points="34.6444906 66.5779626 53.2723493 66.5779626 53.2723493 63.9168399 34.6444906 63.9168399"></polygon>
                    <polygon id="Stroke-23" stroke="#3BBFC0" stroke-width="0.6" mask="url(#mask-2)" points="34.6444906 66.5779626 53.2723493 66.5779626 53.2723493 63.9168399 34.6444906 63.9168399"></polygon>
                    <polygon id="Fill-24" fill="#3BBFC0" mask="url(#mask-2)" points="26.6611227 71.9002079 31.983368 71.9002079 31.983368 69.2390852 26.6611227 69.2390852"></polygon>
                    <polygon id="Stroke-25" stroke="#3BBFC0" stroke-width="0.6" mask="url(#mask-2)" points="26.6611227 71.9002079 31.983368 71.9002079 31.983368 69.2390852 26.6611227 69.2390852"></polygon>
                    <polygon id="Fill-26" fill="#3BBFC0" mask="url(#mask-2)" points="34.6444906 71.9002079 53.2723493 71.9002079 53.2723493 69.2390852 34.6444906 69.2390852"></polygon>
                    <polygon id="Stroke-27" stroke="#3BBFC0" stroke-width="0.6" mask="url(#mask-2)" points="34.6444906 71.9002079 53.2723493 71.9002079 53.2723493 69.2390852 34.6444906 69.2390852"></polygon>
                    <path d="M34.1122328,26.1455301 L34.1122328,26.0790021 C34.3617131,20.6070686 38.236973,20.024948 39.9001746,20.024948 L39.9334387,20.024948 L39.9999667,20.024948 C42.0623368,20.0748441 45.5550603,20.9064449 45.7879085,26.0790021 L45.7879085,26.1455301 C45.7879085,26.1954262 46.3367651,31.3846154 43.9084906,34.1122661 C42.944,35.1933472 41.6631684,35.7255717 39.9833347,35.7422037 L39.9500707,35.7422037 L39.9168067,35.7422037 C38.236973,35.7255717 36.9563077,35.1933472 35.9916507,34.1122661 C33.5800083,31.4012474 34.0956008,26.1954262 34.1122328,26.1455301 M39.8336466,37.8045738 L39.9500707,37.8045738 L39.9999667,37.8045738 L40.0831268,37.8045738 C42.311817,37.7713098 44.1247069,36.972973 45.4552682,35.4760915 C48.3825031,32.1663202 47.9001746,26.4948025 47.8504449,25.9459459 C47.6673264,21.8877339 45.7380125,19.9417879 44.1579709,19.027027 C42.9770977,18.3451143 41.5966403,17.97921 40.0498628,17.9459459 L39.9999667,17.9459459 L39.9667027,17.9459459 L39.9168067,17.9459459 C39.0685738,17.9459459 37.4053721,18.0790021 35.8086985,18.993763 C34.2120249,19.9085239 32.249447,21.8378378 32.0664948,25.9459459 C32.0165988,26.4948025 31.5176383,32.1663202 34.4615052,35.4760915 C35.7920665,36.989605 37.6049563,37.7713098 39.8336466,37.8045738" id="Fill-28" fill="#3BBFC0" mask="url(#mask-2)"></path>
                    <path d="M34.1122328,26.1455301 L34.1122328,26.0790021 C34.3617131,20.6070686 38.236973,20.024948 39.9001746,20.024948 L39.9334387,20.024948 L39.9999667,20.024948 C42.0623368,20.0748441 45.5550603,20.9064449 45.7879085,26.0790021 L45.7879085,26.1455301 C45.7879085,26.1954262 46.3367651,31.3846154 43.9084906,34.1122661 C42.944,35.1933472 41.6631684,35.7255717 39.9833347,35.7422037 L39.9500707,35.7422037 L39.9168067,35.7422037 C38.236973,35.7255717 36.9563077,35.1933472 35.9916507,34.1122661 C33.5800083,31.4012474 34.0956008,26.1954262 34.1122328,26.1455301 Z M39.8336466,37.8045738 L39.9500707,37.8045738 L39.9999667,37.8045738 L40.0831268,37.8045738 C42.311817,37.7713098 44.1247069,36.972973 45.4552682,35.4760915 C48.3825031,32.1663202 47.9001746,26.4948025 47.8504449,25.9459459 C47.6673264,21.8877339 45.7380125,19.9417879 44.1579709,19.027027 C42.9770977,18.3451143 41.5966403,17.97921 40.0498628,17.9459459 L39.9999667,17.9459459 L39.9667027,17.9459459 L39.9168067,17.9459459 C39.0685738,17.9459459 37.4053721,18.0790021 35.8086985,18.993763 C34.2120249,19.9085239 32.249447,21.8378378 32.0664948,25.9459459 C32.0165988,26.4948025 31.5176383,32.1663202 34.4615052,35.4760915 C35.7920665,36.989605 37.6049563,37.7713098 39.8336466,37.8045738 Z" id="Stroke-29" stroke="#3BBFC0" stroke-width="0.6" mask="url(#mask-2)"></path>
                    <path d="M55.6173971,47.2182453 L55.6173971,47.2016133 L55.6173971,47.0186611 C55.567501,45.5051476 55.4678753,41.9791601 52.1579376,40.848183 C52.1414719,40.848183 52.1080416,40.8317173 52.0747775,40.8317173 C48.6319501,39.9500541 45.7714096,37.9708441 45.7546112,37.9542121 C45.2889148,37.6215717 44.6570644,37.7379958 44.3244241,38.2036923 C43.9917838,38.6693888 44.1082079,39.3014054 44.5739044,39.6340457 C44.7067942,39.7338378 47.7339875,41.8296383 51.525921,42.8107609 C53.3057131,43.4427775 53.5052973,45.3388274 53.5551933,47.0851892 L53.5551933,47.2681414 C53.5551933,47.9500541 53.521763,49.0145031 53.3888732,49.6298877 C52.1579376,50.3284324 47.3181871,52.7567069 39.9500374,52.7567069 C32.6153181,52.7567069 27.7421372,50.3284324 26.494736,49.6298877 C26.3783119,49.0145031 26.3117838,47.9666861 26.3284158,47.2681414 L26.3284158,47.0851892 C26.3783119,45.3388274 26.577896,43.4427775 28.3576881,42.8107609 C32.1496216,41.8296383 35.1932807,39.7172058 35.3097048,39.6340457 C35.7754012,39.3014054 35.8918254,38.6693888 35.559185,38.2036923 C35.2265447,37.7379958 34.5946944,37.6215717 34.1288316,37.9542121 C34.0957339,37.9708441 31.251659,39.9666861 27.8086653,40.8317173 C27.7755676,40.8317173 27.7589356,40.848183 27.7255052,40.848183 C24.4157339,41.9791601 24.3159418,45.5217796 24.2661108,47.0186611 L24.2661108,47.2016133 L24.2661108,47.2182453 C24.2661108,47.6174137 24.2494137,49.6466861 24.6485821,50.6777048 C24.7317422,50.877289 24.8649647,51.0436091 25.0477505,51.1600333 C25.2807651,51.3098877 30.7526985,54.8026112 39.9334054,54.8026112 C49.1142786,54.8026112 54.5863784,51.3098877 54.8190603,51.1600333 C55.0021788,51.0436091 55.1352349,50.877289 55.218395,50.6777048 C55.6341954,49.6466861 55.6341954,47.6174137 55.6173971,47.2182453" id="Fill-30" fill="#3BBFC0" mask="url(#mask-2)"></path>
                    <path d="M55.6173971,47.2182453 L55.6173971,47.2016133 L55.6173971,47.0186611 C55.567501,45.5051476 55.4678753,41.9791601 52.1579376,40.848183 C52.1414719,40.848183 52.1080416,40.8317173 52.0747775,40.8317173 C48.6319501,39.9500541 45.7714096,37.9708441 45.7546112,37.9542121 C45.2889148,37.6215717 44.6570644,37.7379958 44.3244241,38.2036923 C43.9917838,38.6693888 44.1082079,39.3014054 44.5739044,39.6340457 C44.7067942,39.7338378 47.7339875,41.8296383 51.525921,42.8107609 C53.3057131,43.4427775 53.5052973,45.3388274 53.5551933,47.0851892 L53.5551933,47.2681414 C53.5551933,47.9500541 53.521763,49.0145031 53.3888732,49.6298877 C52.1579376,50.3284324 47.3181871,52.7567069 39.9500374,52.7567069 C32.6153181,52.7567069 27.7421372,50.3284324 26.494736,49.6298877 C26.3783119,49.0145031 26.3117838,47.9666861 26.3284158,47.2681414 L26.3284158,47.0851892 C26.3783119,45.3388274 26.577896,43.4427775 28.3576881,42.8107609 C32.1496216,41.8296383 35.1932807,39.7172058 35.3097048,39.6340457 C35.7754012,39.3014054 35.8918254,38.6693888 35.559185,38.2036923 C35.2265447,37.7379958 34.5946944,37.6215717 34.1288316,37.9542121 C34.0957339,37.9708441 31.251659,39.9666861 27.8086653,40.8317173 C27.7755676,40.8317173 27.7589356,40.848183 27.7255052,40.848183 C24.4157339,41.9791601 24.3159418,45.5217796 24.2661108,47.0186611 L24.2661108,47.2016133 L24.2661108,47.2182453 C24.2661108,47.6174137 24.2494137,49.6466861 24.6485821,50.6777048 C24.7317422,50.877289 24.8649647,51.0436091 25.0477505,51.1600333 C25.2807651,51.3098877 30.7526985,54.8026112 39.9334054,54.8026112 C49.1142786,54.8026112 54.5863784,51.3098877 54.8190603,51.1600333 C55.0021788,51.0436091 55.1352349,50.877289 55.218395,50.6777048 C55.6341954,49.6466861 55.6341954,47.6174137 55.6173971,47.2182453 Z" id="Stroke-31" stroke="#3BBFC0" stroke-width="0.6" mask="url(#mask-2)"></path>
                </g>
            </g>
        </g>
    </g>
</svg>