<?xml version="1.0" encoding="UTF-8"?>
<svg width="97px" height="105px" viewBox="0 0 97 105" version="1.1" xmlns="http://www.w3.org/2000/svg" xmlns:xlink="http://www.w3.org/1999/xlink">
    <!-- Generator: Sketch 56.2 (81672) - https://sketch.com -->
    <title>Group 15</title>
    <desc>Created with Sketch.</desc>
    <g id="Homepage-(not-for-development)" stroke="none" stroke-width="1" fill="none" fill-rule="evenodd">
        <g id="Home-Desktop" transform="translate(-1106.000000, -2644.000000)">
            <g id="Group-15" transform="translate(1106.000000, 2644.000000)">
                <path d="M55.8273381,0 L60.7122302,0 C69.6913597,0.486754967 75.4436691,5.90990066 80.2280719,12.7460265 C87.5393597,23.1938742 91.0187986,35.1402318 93.8506403,47.3591722 C95.7571439,55.5839404 96.2512158,63.9609934 97,72.3178808 L97,73.7086093 C96.4361439,75.0993377 96.4361439,76.4900662 97,77.8807947 L97,89.0066225 C96.2602878,93.3310927 95.1772374,97.4546026 91.8576043,100.709603 C89.1716115,103.342252 85.9043165,104.427715 82.3453237,105 L72.5755396,105 C61.264223,104.00702 51.383482,98.4559272 40.8342086,95.0451656 C31.8795036,92.1496689 23.1634604,88.5372517 14.0733741,86.0262914 C12.6169784,85.6243709 11.1431367,85.2078477 9.82282014,84.4700662 C4.69856835,81.6044702 0.441035971,78.0546358 0,71.6225166 L0,62.5827815 C0.824848921,52.5034768 7.42015108,48.0781788 16.3909065,46.0073841 C19.4453597,45.3029801 22.5277266,44.7313907 25.6847626,44.8384768 C28.7273525,44.9420861 31.6959712,44.4796689 34.6394676,43.7856954 C39.9737698,42.5284768 41.4071367,40.8074503 41.4845971,35.4009934 C41.5481007,31.0104636 41.4838993,26.618543 41.5076259,22.2273179 C41.5327482,17.7658609 42.5362446,13.5032781 44.3959928,9.47155629 C46.6758417,4.52751656 50.0240863,0.766986755 55.8273381,0" id="Fill-1" fill="#FDF1E5"></path>
                <g id="Group-5" transform="translate(5.000000, 13.000000)">
                    <path d="M83.4339836,55.7020085 L66.2186678,71.2420936 C64.7841006,72.409583 63.0632643,73.1816681 61.239317,73.4756255 L34.5774632,77.3329872 C34.5718667,77.3338383 34.5664398,77.3346894 34.5608433,77.3355404 L34.5423579,77.3382638 C33.7345977,77.4667745 32.8934281,77.4126468 32.0419135,77.1780936 L13.0662468,69.9658383 L13.0662468,46.5716255 L15.1869778,46.5716255 C16.9922702,46.5716255 18.785352,46.7809872 20.5314573,47.1872851 C20.5964105,47.2022638 20.6611942,47.2177532 20.7259778,47.233583 C20.9405099,47.2854979 21.1545333,47.3387745 21.3675392,47.396817 C21.3861942,47.4017532 21.4046795,47.4073702 21.4233345,47.4124766 C21.6368491,47.4710298 21.8495158,47.532817 22.0615041,47.5973277 C22.0994924,47.6089021 22.1376503,47.6203064 22.175469,47.6320511 C22.4010246,47.7020085 22.6255626,47.7750298 22.8489135,47.8516255 C22.8719778,47.8596255 22.8948725,47.8677957 22.9179368,47.8757957 C23.383124,48.0369872 23.8437322,48.212817 24.2985743,48.4031149 C24.3233345,48.4134979 24.3480947,48.4238809 24.372855,48.434434 C24.5995977,48.5299234 24.8249836,48.628817 25.0488433,48.7317957 C25.0547789,48.7343489 25.0608842,48.7374128 25.0668199,48.7403064 C25.2832175,48.8400511 25.4980889,48.9435404 25.7116035,49.0499234 C25.7367029,49.0623489 25.7619719,49.074434 25.7870713,49.0872 C25.9956678,49.1918809 26.2025684,49.3003064 26.4082819,49.4112851 C26.4471181,49.4322213 26.4857848,49.4536681 26.5246211,49.4747745 C26.7322,49.5883064 26.9385918,49.7040511 27.1429485,49.8240511 C30.0922994,51.5556255 33.3029895,52.6771574 36.6859836,53.1576681 C36.6966678,53.1592 36.7071825,53.1603915 36.7178667,53.161583 L50.6041181,54.7663489 C50.6809427,54.7772426 50.7572585,54.7901787 50.8332351,54.8044766 C52.8773111,55.1896681 54.4907965,56.7057532 55.0307731,58.6802213 C55.1106503,58.9726468 55.1669544,59.2752851 55.1978199,59.5854128 L55.2529368,60.1421787 L29.2275567,57.8536681 C28.5461415,57.7939234 27.9444339,58.299966 27.884738,58.9840511 C27.8248725,59.6686468 28.3294047,60.2720511 29.0111591,60.3317957 L56.5258842,62.7515404 C56.5324982,62.7520511 56.5389427,62.7518809 56.5453871,62.7523915 C56.5518316,62.7529021 56.5581064,62.7539234 56.5647205,62.754434 L61.7536854,63.0465191 C61.7769193,63.0478809 61.8001532,63.0485617 61.823048,63.0485617 C61.8476386,63.0485617 61.8718901,63.0446468 61.8963111,63.0431149 C61.9239544,63.0412426 61.9515977,63.0402213 61.9790713,63.0369872 C62.0160421,63.0320511 62.0521649,63.0242213 62.0884573,63.0162213 C62.1144047,63.010434 62.1405216,63.0060085 62.1659602,62.9985191 C62.2056444,62.9872851 62.2438023,62.9717957 62.2822994,62.9561362 C62.3029895,62.9477957 62.3243579,62.9414979 62.3447088,62.9321362 C62.4025392,62.9050723 62.4588433,62.8742638 62.5124339,62.8381787 L66.9170421,59.8797106 L66.9175509,59.8792 L79.925662,51.1418383 C81.2342234,50.2587745 83.0206912,50.6053277 83.9078199,51.9139234 C84.7188023,53.1098383 84.5176678,54.7362213 83.4339836,55.7020085 L83.4339836,55.7020085 Z M48.8798901,52.0626894 L38.513662,50.8649021 L37.5369895,50.7520511 L37.5169778,36.4693277 L48.8581825,36.4533277 L48.8798901,52.0626894 Z M43.1507789,10.5217532 L64.9496211,31.0174128 L64.9874398,58.1820085 L61.4784398,60.5392851 L57.7625392,60.3299234 L57.6643462,59.3394553 C57.3185509,55.850434 54.7523053,53.0437957 51.3589661,52.3738383 L51.3365801,36.2131574 C51.3350538,34.9729872 50.3288725,33.9651574 49.0934047,33.9651574 L49.090352,33.9651574 L37.2776854,33.9818383 C36.6785216,33.9826894 36.1154807,34.217583 35.6925216,34.6434553 C35.269393,35.0691574 35.0368842,35.6347745 35.0377322,36.2361362 L35.0574047,50.3265191 C32.7175626,49.7896681 30.4833754,48.9030298 28.3945275,47.6766468 C28.1338667,47.5236255 27.870662,47.3758809 27.6052526,47.2320511 C27.5018023,47.1762213 27.3966561,47.1236255 27.2923579,47.068817 C27.1309076,46.9843915 26.9697965,46.8992851 26.8066503,46.8180936 C26.6767439,46.7534128 26.5453111,46.691966 26.4143871,46.6296681 C26.2754924,46.5634553 26.1367673,46.4965617 25.996855,46.4327319 C25.8543988,46.3678809 25.7107556,46.3060936 25.5672819,46.2437957 C25.4361883,46.1869447 25.3050947,46.1297532 25.1731532,46.0749447 C25.0256094,46.0140085 24.8772175,45.9551149 24.7286561,45.8969021 C24.5968842,45.8451574 24.4649427,45.7937532 24.3324924,45.7440511 C24.1854573,45.6889021 24.0377439,45.6354553 23.8896912,45.5833702 C23.7507965,45.5341787 23.6117322,45.4860085 23.4719895,45.4393702 C23.3302117,45.3918809 23.1880947,45.3452426 23.0452994,45.3003064 C22.8931766,45.251966 22.7403754,45.2061787 22.5874047,45.1605617 C22.4559719,45.1219234 22.3247088,45.0829447 22.1925977,45.0461787 C22.020124,44.9980085 21.8468023,44.9530723 21.6733111,44.9084766 C21.5920772,44.8875404 21.511352,44.8638809 21.4296094,44.8436255 L21.4104456,31.0771574 L43.1507789,10.5217532 Z M27.700393,9.48788085 L27.7061591,12.9925617 L21.6158199,18.7508596 L21.6007263,9.49622128 L27.700393,9.48788085 Z M85.9573228,50.5142638 C84.3056795,48.0783489 80.9796678,47.433583 78.5450246,49.0756255 L67.4639719,56.5188596 L67.4319193,33.3512 L71.2814573,36.9707745 C72.1000713,37.7403064 73.1674749,38.1637957 74.2881298,38.1637957 L74.2947439,38.1637957 C75.5046035,38.1620936 76.6727439,37.6531574 77.4996678,36.7672 C78.3030187,35.906434 78.7244515,34.7833702 78.686124,33.6044766 C78.6477965,32.425583 78.1542877,31.3323064 77.2968374,30.5260085 L69.9983345,23.6640511 C69.4987205,23.1942638 68.7143637,23.219966 68.2464632,23.7214128 C67.7785626,24.2228596 67.8041708,25.0099234 68.3036152,25.4797106 L75.6019485,32.3416681 C75.9764047,32.6936681 76.1917848,33.1709447 76.2087439,33.6854979 C76.2251942,34.2000511 76.0413579,34.690434 75.6904749,35.0660936 C75.3243287,35.4586043 74.8272585,35.6751149 74.2910129,35.6757957 L74.2881298,35.6757957 C73.7992,35.6757957 73.3333345,35.4909447 72.976007,35.1549447 L72.9758374,35.1547745 L43.9958491,7.90728511 C43.5182819,7.45843404 42.7751357,7.45911489 42.2987556,7.90966809 L13.3940655,35.2386894 C13.0207965,35.5917106 12.5327146,35.7765617 12.0198725,35.7622638 C11.5070304,35.7469447 11.0309895,35.531966 10.6792585,35.1569872 C10.3275275,34.7823489 10.1421649,34.2924766 10.1575977,33.7779234 C10.1728608,33.2632 10.3870538,32.7854128 10.7603228,32.4323915 L41.8254281,3.06081702 C42.5617906,2.3644766 43.7172117,2.36277447 44.4552702,3.05724255 L62.6297906,20.1452426 C63.1292351,20.6148596 63.9135918,20.5893277 64.381662,20.0878809 C64.8495626,19.586434 64.8239544,18.7993702 64.3245099,18.329583 L46.1501591,1.24158298 C44.4588316,-0.348885106 41.8127088,-0.345310638 40.1257906,1.2499234 L30.1811649,10.6523064 L30.1784515,8.97537021 C30.1777731,8.44668936 29.9718901,7.95000851 29.5989602,7.57690213 C29.2267088,7.20430638 28.7325216,6.9992 28.2067906,6.9992 L28.2039076,6.9992 L21.0900889,7.00924255 C20.5633404,7.0099234 20.0686444,7.2165617 19.6967322,7.59085957 C19.3249895,7.96515745 19.1204632,8.46234894 19.1213111,8.9912 L19.1409836,21.0911149 L9.06068538,30.6218383 C8.20527018,31.4305191 7.71498363,32.5251574 7.67987836,33.7040511 C7.6447731,34.8829447 8.06925848,36.0049872 8.87498363,36.8632 C9.68053918,37.7217532 10.7711766,38.2140085 11.945931,38.2492426 C11.9908725,38.2506043 12.035814,38.2512851 12.0807556,38.2512851 C13.2059895,38.2512851 14.2715275,37.8274553 15.0938725,37.049583 L18.934931,33.4179234 L18.9501942,44.3610723 C17.7074339,44.1794553 16.4500889,44.0841362 15.1869778,44.0841362 L13.0662468,44.0841362 L13.0662468,43.3380936 C13.0662468,40.8340936 11.0364164,38.7969872 8.54156842,38.7969872 L4.57552164,38.7969872 C2.08067368,38.796817 0.0508432749,40.8337532 0.0508432749,43.3379234 L0.0508432749,62.8305191 C0.0508432749,63.5174979 0.60574386,64.074434 1.2902117,64.074434 C1.97467953,64.074434 2.52958012,63.5174979 2.52958012,62.8305191 L2.52958012,43.3379234 C2.52958012,42.2058383 3.44740468,41.2846468 4.57552164,41.2846468 L8.54139883,41.2846468 C9.66951579,41.2846468 10.5873404,42.2058383 10.5873404,43.3379234 L10.5873404,45.3278809 L10.5873404,70.8250723 L10.5873404,72.7952851 C10.5873404,73.9275404 9.66951579,74.8485617 8.54139883,74.8485617 L4.57552164,74.8485617 C3.44740468,74.8485617 2.52958012,73.9275404 2.52958012,72.7952851 L2.52958012,70.6186043 C2.52958012,69.9316255 1.97467953,69.3746894 1.2902117,69.3746894 C0.60574386,69.3746894 0.0508432749,69.9316255 0.0508432749,70.6186043 L0.0508432749,72.7952851 C0.0508432749,75.2992851 2.08067368,77.3365617 4.57552164,77.3365617 L8.54139883,77.3365617 C11.0362468,77.3365617 13.0660772,75.2994553 13.0660772,72.7952851 L13.0660772,72.6262638 L31.2163462,79.5246468 C31.2499251,79.5372426 31.2840129,79.5486468 31.3186094,79.5581787 C32.1077146,79.7820085 32.8964807,79.8941787 33.6752409,79.8941787 C34.0965041,79.8941787 34.5148842,79.8613277 34.9290246,79.7956255 L61.6025801,75.9365617 C61.6086854,75.9357106 61.6147906,75.9345191 61.6210655,75.9334979 C63.8888316,75.5702638 66.0282175,74.6078809 67.8077322,73.1513702 C67.8231649,73.1386043 67.8384281,73.1254979 67.8531825,73.1120511 L85.0854573,57.5566468 C87.0922234,55.7687319 87.4668491,52.7409872 85.9573228,50.5142638 L85.9573228,50.5142638 Z" id="Fill-1" fill="#54BBBF"></path>
                    <path d="M83.4339836,55.7020085 L66.2186678,71.2420936 C64.7841006,72.409583 63.0632643,73.1816681 61.239317,73.4756255 L34.5774632,77.3329872 C34.5718667,77.3338383 34.5664398,77.3346894 34.5608433,77.3355404 L34.5423579,77.3382638 C33.7345977,77.4667745 32.8934281,77.4126468 32.0419135,77.1780936 L13.0662468,69.9658383 L13.0662468,46.5716255 L15.1869778,46.5716255 C16.9922702,46.5716255 18.785352,46.7809872 20.5314573,47.1872851 C20.5964105,47.2022638 20.6611942,47.2177532 20.7259778,47.233583 C20.9405099,47.2854979 21.1545333,47.3387745 21.3675392,47.396817 C21.3861942,47.4017532 21.4046795,47.4073702 21.4233345,47.4124766 C21.6368491,47.4710298 21.8495158,47.532817 22.0615041,47.5973277 C22.0994924,47.6089021 22.1376503,47.6203064 22.175469,47.6320511 C22.4010246,47.7020085 22.6255626,47.7750298 22.8489135,47.8516255 C22.8719778,47.8596255 22.8948725,47.8677957 22.9179368,47.8757957 C23.383124,48.0369872 23.8437322,48.212817 24.2985743,48.4031149 C24.3233345,48.4134979 24.3480947,48.4238809 24.372855,48.434434 C24.5995977,48.5299234 24.8249836,48.628817 25.0488433,48.7317957 C25.0547789,48.7343489 25.0608842,48.7374128 25.0668199,48.7403064 C25.2832175,48.8400511 25.4980889,48.9435404 25.7116035,49.0499234 C25.7367029,49.0623489 25.7619719,49.074434 25.7870713,49.0872 C25.9956678,49.1918809 26.2025684,49.3003064 26.4082819,49.4112851 C26.4471181,49.4322213 26.4857848,49.4536681 26.5246211,49.4747745 C26.7322,49.5883064 26.9385918,49.7040511 27.1429485,49.8240511 C30.0922994,51.5556255 33.3029895,52.6771574 36.6859836,53.1576681 C36.6966678,53.1592 36.7071825,53.1603915 36.7178667,53.161583 L50.6041181,54.7663489 C50.6809427,54.7772426 50.7572585,54.7901787 50.8332351,54.8044766 C52.8773111,55.1896681 54.4907965,56.7057532 55.0307731,58.6802213 C55.1106503,58.9726468 55.1669544,59.2752851 55.1978199,59.5854128 L55.2529368,60.1421787 L29.2275567,57.8536681 C28.5461415,57.7939234 27.9444339,58.299966 27.884738,58.9840511 C27.8248725,59.6686468 28.3294047,60.2720511 29.0111591,60.3317957 L56.5258842,62.7515404 C56.5324982,62.7520511 56.5389427,62.7518809 56.5453871,62.7523915 C56.5518316,62.7529021 56.5581064,62.7539234 56.5647205,62.754434 L61.7536854,63.0465191 C61.7769193,63.0478809 61.8001532,63.0485617 61.823048,63.0485617 C61.8476386,63.0485617 61.8718901,63.0446468 61.8963111,63.0431149 C61.9239544,63.0412426 61.9515977,63.0402213 61.9790713,63.0369872 C62.0160421,63.0320511 62.0521649,63.0242213 62.0884573,63.0162213 C62.1144047,63.010434 62.1405216,63.0060085 62.1659602,62.9985191 C62.2056444,62.9872851 62.2438023,62.9717957 62.2822994,62.9561362 C62.3029895,62.9477957 62.3243579,62.9414979 62.3447088,62.9321362 C62.4025392,62.9050723 62.4588433,62.8742638 62.5124339,62.8381787 L66.9170421,59.8797106 L66.9175509,59.8792 L79.925662,51.1418383 C81.2342234,50.2587745 83.0206912,50.6053277 83.9078199,51.9139234 C84.7188023,53.1098383 84.5176678,54.7362213 83.4339836,55.7020085 Z M48.8798901,52.0626894 L38.513662,50.8649021 L37.5369895,50.7520511 L37.5169778,36.4693277 L48.8581825,36.4533277 L48.8798901,52.0626894 Z M43.1507789,10.5217532 L64.9496211,31.0174128 L64.9874398,58.1820085 L61.4784398,60.5392851 L57.7625392,60.3299234 L57.6643462,59.3394553 C57.3185509,55.850434 54.7523053,53.0437957 51.3589661,52.3738383 L51.3365801,36.2131574 C51.3350538,34.9729872 50.3288725,33.9651574 49.0934047,33.9651574 L49.090352,33.9651574 L37.2776854,33.9818383 C36.6785216,33.9826894 36.1154807,34.217583 35.6925216,34.6434553 C35.269393,35.0691574 35.0368842,35.6347745 35.0377322,36.2361362 L35.0574047,50.3265191 C32.7175626,49.7896681 30.4833754,48.9030298 28.3945275,47.6766468 C28.1338667,47.5236255 27.870662,47.3758809 27.6052526,47.2320511 C27.5018023,47.1762213 27.3966561,47.1236255 27.2923579,47.068817 C27.1309076,46.9843915 26.9697965,46.8992851 26.8066503,46.8180936 C26.6767439,46.7534128 26.5453111,46.691966 26.4143871,46.6296681 C26.2754924,46.5634553 26.1367673,46.4965617 25.996855,46.4327319 C25.8543988,46.3678809 25.7107556,46.3060936 25.5672819,46.2437957 C25.4361883,46.1869447 25.3050947,46.1297532 25.1731532,46.0749447 C25.0256094,46.0140085 24.8772175,45.9551149 24.7286561,45.8969021 C24.5968842,45.8451574 24.4649427,45.7937532 24.3324924,45.7440511 C24.1854573,45.6889021 24.0377439,45.6354553 23.8896912,45.5833702 C23.7507965,45.5341787 23.6117322,45.4860085 23.4719895,45.4393702 C23.3302117,45.3918809 23.1880947,45.3452426 23.0452994,45.3003064 C22.8931766,45.251966 22.7403754,45.2061787 22.5874047,45.1605617 C22.4559719,45.1219234 22.3247088,45.0829447 22.1925977,45.0461787 C22.020124,44.9980085 21.8468023,44.9530723 21.6733111,44.9084766 C21.5920772,44.8875404 21.511352,44.8638809 21.4296094,44.8436255 L21.4104456,31.0771574 L43.1507789,10.5217532 Z M27.700393,9.48788085 L27.7061591,12.9925617 L21.6158199,18.7508596 L21.6007263,9.49622128 L27.700393,9.48788085 Z M85.9573228,50.5142638 C84.3056795,48.0783489 80.9796678,47.433583 78.5450246,49.0756255 L67.4639719,56.5188596 L67.4319193,33.3512 L71.2814573,36.9707745 C72.1000713,37.7403064 73.1674749,38.1637957 74.2881298,38.1637957 L74.2947439,38.1637957 C75.5046035,38.1620936 76.6727439,37.6531574 77.4996678,36.7672 C78.3030187,35.906434 78.7244515,34.7833702 78.686124,33.6044766 C78.6477965,32.425583 78.1542877,31.3323064 77.2968374,30.5260085 L69.9983345,23.6640511 C69.4987205,23.1942638 68.7143637,23.219966 68.2464632,23.7214128 C67.7785626,24.2228596 67.8041708,25.0099234 68.3036152,25.4797106 L75.6019485,32.3416681 C75.9764047,32.6936681 76.1917848,33.1709447 76.2087439,33.6854979 C76.2251942,34.2000511 76.0413579,34.690434 75.6904749,35.0660936 C75.3243287,35.4586043 74.8272585,35.6751149 74.2910129,35.6757957 L74.2881298,35.6757957 C73.7992,35.6757957 73.3333345,35.4909447 72.976007,35.1549447 L72.9758374,35.1547745 L43.9958491,7.90728511 C43.5182819,7.45843404 42.7751357,7.45911489 42.2987556,7.90966809 L13.3940655,35.2386894 C13.0207965,35.5917106 12.5327146,35.7765617 12.0198725,35.7622638 C11.5070304,35.7469447 11.0309895,35.531966 10.6792585,35.1569872 C10.3275275,34.7823489 10.1421649,34.2924766 10.1575977,33.7779234 C10.1728608,33.2632 10.3870538,32.7854128 10.7603228,32.4323915 L41.8254281,3.06081702 C42.5617906,2.3644766 43.7172117,2.36277447 44.4552702,3.05724255 L62.6297906,20.1452426 C63.1292351,20.6148596 63.9135918,20.5893277 64.381662,20.0878809 C64.8495626,19.586434 64.8239544,18.7993702 64.3245099,18.329583 L46.1501591,1.24158298 C44.4588316,-0.348885106 41.8127088,-0.345310638 40.1257906,1.2499234 L30.1811649,10.6523064 L30.1784515,8.97537021 C30.1777731,8.44668936 29.9718901,7.95000851 29.5989602,7.57690213 C29.2267088,7.20430638 28.7325216,6.9992 28.2067906,6.9992 L28.2039076,6.9992 L21.0900889,7.00924255 C20.5633404,7.0099234 20.0686444,7.2165617 19.6967322,7.59085957 C19.3249895,7.96515745 19.1204632,8.46234894 19.1213111,8.9912 L19.1409836,21.0911149 L9.06068538,30.6218383 C8.20527018,31.4305191 7.71498363,32.5251574 7.67987836,33.7040511 C7.6447731,34.8829447 8.06925848,36.0049872 8.87498363,36.8632 C9.68053918,37.7217532 10.7711766,38.2140085 11.945931,38.2492426 C11.9908725,38.2506043 12.035814,38.2512851 12.0807556,38.2512851 C13.2059895,38.2512851 14.2715275,37.8274553 15.0938725,37.049583 L18.934931,33.4179234 L18.9501942,44.3610723 C17.7074339,44.1794553 16.4500889,44.0841362 15.1869778,44.0841362 L13.0662468,44.0841362 L13.0662468,43.3380936 C13.0662468,40.8340936 11.0364164,38.7969872 8.54156842,38.7969872 L4.57552164,38.7969872 C2.08067368,38.796817 0.0508432749,40.8337532 0.0508432749,43.3379234 L0.0508432749,62.8305191 C0.0508432749,63.5174979 0.60574386,64.074434 1.2902117,64.074434 C1.97467953,64.074434 2.52958012,63.5174979 2.52958012,62.8305191 L2.52958012,43.3379234 C2.52958012,42.2058383 3.44740468,41.2846468 4.57552164,41.2846468 L8.54139883,41.2846468 C9.66951579,41.2846468 10.5873404,42.2058383 10.5873404,43.3379234 L10.5873404,45.3278809 L10.5873404,70.8250723 L10.5873404,72.7952851 C10.5873404,73.9275404 9.66951579,74.8485617 8.54139883,74.8485617 L4.57552164,74.8485617 C3.44740468,74.8485617 2.52958012,73.9275404 2.52958012,72.7952851 L2.52958012,70.6186043 C2.52958012,69.9316255 1.97467953,69.3746894 1.2902117,69.3746894 C0.60574386,69.3746894 0.0508432749,69.9316255 0.0508432749,70.6186043 L0.0508432749,72.7952851 C0.0508432749,75.2992851 2.08067368,77.3365617 4.57552164,77.3365617 L8.54139883,77.3365617 C11.0362468,77.3365617 13.0660772,75.2994553 13.0660772,72.7952851 L13.0660772,72.6262638 L31.2163462,79.5246468 C31.2499251,79.5372426 31.2840129,79.5486468 31.3186094,79.5581787 C32.1077146,79.7820085 32.8964807,79.8941787 33.6752409,79.8941787 C34.0965041,79.8941787 34.5148842,79.8613277 34.9290246,79.7956255 L61.6025801,75.9365617 C61.6086854,75.9357106 61.6147906,75.9345191 61.6210655,75.9334979 C63.8888316,75.5702638 66.0282175,74.6078809 67.8077322,73.1513702 C67.8231649,73.1386043 67.8384281,73.1254979 67.8531825,73.1120511 L85.0854573,57.5566468 C87.0922234,55.7687319 87.4668491,52.7409872 85.9573228,50.5142638 Z" id="Stroke-3" stroke="#F68B1F" stroke-width="0.6" fill="#F68B1F"></path>
                </g>
            </g>
        </g>
    </g>
</svg>