<svg width="22" height="21" viewBox="0 0 22 21" fill="none" xmlns="http://www.w3.org/2000/svg">
<g clip-path="url(#clip0)">
<path d="M21.0479 10.5C21.0479 4.70039 16.3983 0 10.6614 0C4.92447 0 0.274902 4.70039 0.274902 10.5C0.274902 15.7418 4.07246 20.0854 9.03849 20.8729V13.5352H6.4013V10.5H9.03849V8.18672C9.03849 5.55557 10.5883 4.10156 12.9618 4.10156C14.0978 4.10156 15.2866 4.30664 15.2866 4.30664V6.89062H13.9761C12.6859 6.89062 12.2843 7.70068 12.2843 8.53125V10.5H15.1649L14.7044 13.5352H12.2843V20.8729C17.2503 20.0854 21.0479 15.7418 21.0479 10.5Z" fill="white"/>
</g>
<defs>
<clipPath id="clip0">
<rect width="20.7729" height="21" fill="white" transform="translate(0.274902)"/>
</clipPath>
</defs>
</svg>
