<svg width="22" height="21" viewBox="0 0 22 21" fill="none" xmlns="http://www.w3.org/2000/svg">
<path fill-rule="evenodd" clip-rule="evenodd" d="M10.904 0C5.16773 0 0.517578 4.70101 0.517578 10.5C0.517578 16.299 5.16773 21 10.904 21C16.6402 21 21.2904 16.299 21.2904 10.5C21.2904 4.70101 16.6402 0 10.904 0ZM8.6204 4.93383C9.21128 4.90664 9.40009 4.89999 10.9045 4.89999H10.9028C12.4077 4.89999 12.5958 4.90664 13.1867 4.93383C13.7764 4.96113 14.1792 5.05551 14.5323 5.19399C14.897 5.33691 15.2051 5.52825 15.5132 5.83975C15.8214 6.15102 16.0106 6.46346 16.1526 6.83178C16.2888 7.18785 16.3823 7.59479 16.41 8.19096C16.4365 8.7883 16.4434 8.97917 16.4434 10.5C16.4434 12.0209 16.4365 12.2113 16.41 12.8087C16.3823 13.4046 16.2888 13.8117 16.1526 14.1679C16.0106 14.5361 15.8214 14.8485 15.5132 15.1598C15.2055 15.4713 14.8969 15.6631 14.5326 15.8061C14.1802 15.9446 13.7772 16.039 13.1875 16.0663C12.5966 16.0935 12.4084 16.1001 10.9038 16.1001C9.39951 16.1001 9.21082 16.0935 8.61994 16.0663C8.03033 16.039 7.62768 15.9446 7.27523 15.8061C6.91113 15.6631 6.60207 15.4713 6.29428 15.1598C5.98627 14.8485 5.797 14.5361 5.6554 14.1677C5.51853 13.8117 5.42516 13.4047 5.39804 12.8086C5.37127 12.2112 5.36457 12.0209 5.36457 10.5C5.36457 8.97917 5.3715 8.78818 5.39793 8.19084C5.42447 7.5949 5.51795 7.18785 5.65528 6.83166C5.79723 6.46346 5.9865 6.15102 6.29463 5.83975C6.60253 5.52836 6.91159 5.33703 7.27593 5.19399C7.62814 5.05551 8.03068 4.96113 8.6204 4.93383Z" fill="white"/>
<path fill-rule="evenodd" clip-rule="evenodd" d="M10.4076 5.90911C10.5041 5.90896 10.6079 5.90901 10.7199 5.90906L10.9045 5.90911C12.3835 5.90911 12.5588 5.91448 13.1429 5.94132C13.683 5.96628 13.9761 6.05752 14.1714 6.13417C14.4299 6.23567 14.6142 6.357 14.808 6.553C15.0019 6.74901 15.1219 6.93568 15.2225 7.19701C15.2983 7.39418 15.3887 7.69052 15.4133 8.23652C15.4398 8.82686 15.4456 9.0042 15.4456 10.4987C15.4456 11.9932 15.4398 12.1706 15.4133 12.7609C15.3886 13.3069 15.2983 13.6032 15.2225 13.8004C15.1221 14.0617 15.0019 14.2478 14.808 14.4437C14.6141 14.6397 14.43 14.7611 14.1714 14.8626C13.9764 14.9396 13.683 15.0306 13.1429 15.0555C12.559 15.0824 12.3835 15.0882 10.9045 15.0882C9.42534 15.0882 9.25004 15.0824 8.66609 15.0555C8.12599 15.0303 7.83286 14.9391 7.63748 14.8624C7.37897 14.7609 7.19432 14.6396 7.00044 14.4436C6.80655 14.2476 6.68653 14.0614 6.5859 13.7999C6.51008 13.6028 6.41971 13.3064 6.39513 12.7604C6.36859 12.1701 6.36328 11.9928 6.36328 10.4973C6.36328 9.00186 6.36859 8.82546 6.39513 8.23512C6.41983 7.68912 6.51008 7.39278 6.5859 7.19538C6.6863 6.93404 6.80655 6.74737 7.00044 6.55137C7.19432 6.35537 7.37897 6.23403 7.63748 6.1323C7.83274 6.0553 8.12599 5.9643 8.66609 5.93922C9.17711 5.91588 9.37514 5.90888 10.4076 5.90771V5.90911ZM13.8614 6.83897C13.4944 6.83897 13.1967 7.13978 13.1967 7.5111C13.1967 7.8823 13.4944 8.18346 13.8614 8.18346C14.2284 8.18346 14.5262 7.8823 14.5262 7.5111C14.5262 7.1399 14.2284 6.83874 13.8614 6.83874V6.83897ZM8.05975 10.5009C8.05975 8.91269 9.33342 7.62505 10.9044 7.62499C12.4754 7.62499 13.7488 8.91265 13.7488 10.5009C13.7488 12.0891 12.4755 13.3761 10.9045 13.3761C9.33348 13.3761 8.05975 12.0891 8.05975 10.5009Z" fill="white"/>
<path d="M10.9046 8.6333C11.9243 8.6333 12.7511 9.46899 12.7511 10.5C12.7511 11.5309 11.9243 12.3667 10.9046 12.3667C9.88476 12.3667 9.05811 11.5309 9.05811 10.5C9.05811 9.46899 9.88476 8.6333 10.9046 8.6333Z" fill="white"/>
</svg>
