<svg width="22" height="21" viewBox="0 0 22 21" fill="none" xmlns="http://www.w3.org/2000/svg">
<path fill-rule="evenodd" clip-rule="evenodd" d="M11.283 0C5.54667 0 0.896484 4.70101 0.896484 10.5C0.896484 16.299 5.54667 21 11.283 21C17.0193 21 21.6694 16.299 21.6694 10.5C21.6694 4.70101 17.0193 0 11.283 0ZM10.9937 8.89786L10.9719 8.53454C10.9065 7.59286 11.4804 6.73275 12.3886 6.39908C12.7228 6.28045 13.2895 6.26562 13.66 6.36942C13.8053 6.41391 14.0814 6.56221 14.2775 6.69567L14.6335 6.94036L15.0258 6.81431C15.2438 6.74758 15.5344 6.63635 15.6652 6.56221C15.7887 6.49547 15.8976 6.4584 15.8976 6.48065C15.8976 6.6067 15.6288 7.03675 15.4036 7.27402C15.0985 7.60769 15.1857 7.63735 15.8032 7.41491C16.1737 7.28885 16.181 7.28885 16.1083 7.42974C16.0647 7.50388 15.8395 7.7634 15.5998 8.00067C15.1929 8.40848 15.1711 8.45297 15.1711 8.79405C15.1711 9.3205 14.9241 10.4179 14.6771 11.0185C14.2194 12.1455 13.2386 13.3096 12.2578 13.8954C10.8774 14.7185 9.03936 14.9261 7.49189 14.4441C6.97607 14.281 6.08972 13.8658 6.08972 13.7916C6.08972 13.7694 6.35853 13.7397 6.68546 13.7323C7.36838 13.7175 8.05131 13.5247 8.63251 13.1836L9.02483 12.9463L8.57439 12.7906C7.93506 12.5682 7.36112 12.0566 7.21582 11.5746C7.17222 11.4189 7.18676 11.4115 7.5936 11.4115L8.01498 11.4041L7.65899 11.2335C7.23761 11.0185 6.85256 10.6552 6.66367 10.2844C6.52563 10.0175 6.35127 9.34275 6.40212 9.29084C6.41665 9.2686 6.56922 9.31309 6.74358 9.37241C7.24488 9.55777 7.31026 9.51329 7.01966 9.20187C6.47477 8.63834 6.30768 7.80047 6.56922 7.00709L6.69273 6.65118L7.17222 7.13314C8.15302 8.10448 9.30817 8.68283 10.6304 8.85337L10.9937 8.89786Z" fill="white"/>
</svg>
