<svg width="30" height="30" viewBox="0 0 30 30" fill="none" xmlns="http://www.w3.org/2000/svg">
<circle cx="15" cy="15" r="15" fill="#56E164"/>
<path fill-rule="evenodd" clip-rule="evenodd" d="M13.1756 10.8889L11.022 13.0425C11.022 13.0425 10.8119 13.3052 11.1271 13.5678C12.8604 15.4062 14.6463 17.1396 16.4847 18.9255C16.7474 19.1881 17.01 18.978 17.01 18.978L19.1636 16.8769L22 19.7659C22 19.7659 21.5798 20.4487 20.5818 21.2892C19.5313 22.1296 18.4807 22.2872 16.5898 21.6043C13.4907 20.4487 9.55127 16.5618 8.44822 13.4102C7.76537 11.5193 7.87043 10.4687 8.71085 9.41821C9.55127 8.42021 10.2866 8 10.2866 8L13.1756 10.8889Z" fill="#F0F0F0"/>
</svg>
