<?xml version="1.0" standalone="no"?>
<!DOCTYPE svg PUBLIC "-//W3C//DTD SVG 1.1//EN" "http://www.w3.org/Graphics/SVG/1.1/DTD/svg11.dtd" >
<svg>
<metadata>
Created by FontForge 20090622 at Sat Dec 28 16:51:46 2019
 By deploy user
[c] Copyright 2003-2004, The Font Bureau, Inc. Designed by David Berlow. All rights reserved.
</metadata>
<defs>
<font id="TitlingGothicFBWide-Medium" horiz-adv-x="527" >
  <font-face 
    font-family="TitlingGothicFB Wide Medium"
    font-weight="500"
    font-stretch="normal"
    units-per-em="1000"
    panose-1="2 0 6 7 5 0 0 2 0 4"
    ascent="800"
    descent="-200"
    x-height="545"
    cap-height="785"
    bbox="-139 -212 1869 1008"
    underline-thickness="20"
    underline-position="-113"
    unicode-range="U+0020-U+FB02"
  />
<missing-glyph horiz-adv-x="500" 
 />
    <glyph glyph-name="fi" unicode="fi" horiz-adv-x="869" 
d="M591 405h-272v-405h-181v405h-120v140h120v69q0 86 51.5 137.5t158.5 51.5q113 0 169 -7v-135q-50 8 -96 6q-105 0 -105 -74v-48h456v-468q0 -43 2 -57.5t10 -19.5h-181q-12 6 -12 76v329z" />
    <glyph glyph-name="fl" unicode="fl" horiz-adv-x="865" 
d="M18 405v140h119v66q0 86 51 139t156 53q130 0 182 -7v-135q-53 8 -108 6q-103 0 -103 -71v-51h210v-140h-207v-405h-181v405h-119zM783 0h-180q-11 3 -11 55v666q0 51 -4 71h178q5 -22 5 -65v-669q0 -53 12 -58z" />
    <glyph glyph-name="f_f" unicode="ff" horiz-adv-x="994" 
d="M318 405v-405h-181v405h-119v140h119v66q0 85 54.5 138.5t160.5 53.5t162 -7v-136q-39 6 -96 6q-103 0 -103 -72v-49h276v56q0 87 53.5 144.5t157.5 57.5q109 0 165 -7v-136q-42 6 -96 6q-102 0 -102 -71v-50h201v-140h-198v-405h-181v405h-273z" />
    <glyph glyph-name="f_f_i" unicode="ffi" horiz-adv-x="1323" 
d="M1044 405h-272v-405h-181v405h-273v-405h-181v405h-119v140h119v66q0 86 51 139t156 53q114 0 170 -7v-136q-51 8 -96 6q-103 0 -103 -72v-49h276v56q0 87 51 144.5t155 57.5q114 0 170 -7v-136q-53 8 -96 6q-102 0 -102 -71v-50h455v-468q0 -68 14 -77h-180
q-14 3 -14 76v329z" />
    <glyph glyph-name="f_f_l" unicode="ffl" horiz-adv-x="1318" 
d="M318 405v-405h-181v405h-119v140h119v66q0 86 51 139t156 53q114 0 170 -7v-136q-51 8 -96 6q-60 0 -81.5 -18t-21.5 -54v-49h276v56q0 87 51 144.5t155 57.5q33 0 102.5 -4t80.5 -7v-132q-57 8 -115 6q-56 0 -76 -17t-20 -54v-50h228v-140h-225v-405h-181v405h-273z
M1236 0h-179q-12 3 -12 55v666q0 58 -4 71h179q4 -17 4 -65v-669q0 -53 12 -58z" />
    <glyph glyph-name=".notdef" horiz-adv-x="500" 
 />
    <glyph glyph-name=".null" horiz-adv-x="0" 
 />
    <glyph glyph-name="nonmarkingreturn" horiz-adv-x="333" 
 />
    <glyph glyph-name="space" unicode=" " horiz-adv-x="371" 
 />
    <glyph glyph-name="space" unicode="&#xa0;" horiz-adv-x="371" 
 />
    <glyph glyph-name="exclam" unicode="!" horiz-adv-x="384" 
d="M307 785l-27 -530h-177l-26 530h230zM289 0h-194v197h194v-197z" />
    <glyph glyph-name="quotedbl" unicode="&#x22;" horiz-adv-x="605" 
d="M549 785l-12 -397h-169l-11 397h192zM245 785l-12 -397h-167l-13 397h192z" />
    <glyph glyph-name="numbersign" unicode="#" horiz-adv-x="729" 
d="M708 579l-22 -132h-146l-28 -133h156l-21 -131h-157l-39 -213h-90l39 213h-152l-40 -213h-90l39 213h-137l22 131h137l27 133h-147l22 132h149l38 207h90l-38 -207h153l37 207h91q-27 -163 -38 -207h145zM449 447h-152l-27 -133h153q18 100 26 133z" />
    <glyph glyph-name="dollar" unicode="$" horiz-adv-x="915" 
d="M397 779v33h107v-35q79 -4 136.5 -18.5t93.5 -38t57 -49t36 -59.5q16 -34 19 -75h-179q-1 21 -13 42q-28 58 -150 68v-181l48 -9q175 -26 248 -76.5t73 -154.5q0 -105 -99.5 -162t-269.5 -63v-65h-107v66q-156 7 -241 51t-111 125q-10 36 -12 66h180q5 -30 14 -47
q24 -58 170 -67v209q-5 1 -24.5 4.5l-30.5 5.5q-148 22 -225 72.5t-77 147.5q0 89 88.5 146.5t268.5 63.5zM398 480v170q-103 -3 -142 -23t-39 -60q0 -34 37 -52t144 -35zM503 129q102 4 144.5 27t42.5 65q0 41 -36 64t-151 41v-197z" />
    <glyph glyph-name="percent" unicode="%" horiz-adv-x="1302" 
d="M623 572q0 -78 -79.5 -134.5t-208.5 -56.5q-131 0 -208 55.5t-77 135.5v37q0 78 76.5 135t209.5 57q136 0 211.5 -58.5t75.5 -133.5v-37zM1249 181q0 -81 -76 -136.5t-213 -55.5q-131 0 -207.5 56.5t-76.5 135.5v37q0 75 77.5 133t208.5 58q135 0 211 -59t76 -132v-37z
M996 780l-582 -780h-125l584 780h123zM476 578v21q0 32 -38 58t-101 26q-68 0 -104 -24.5t-36 -59.5v-20q0 -35 37.5 -58.5t103.5 -23.5q68 0 103 24.5t35 56.5zM1102 189v19q0 31 -36.5 57t-102.5 26q-68 0 -104 -25t-36 -57v-20q0 -33 37 -58.5t103 -25.5q72 0 105.5 25.5
t33.5 58.5z" />
    <glyph glyph-name="ampersand" unicode="&#x26;" horiz-adv-x="1094" 
d="M1012 394q-24 -160 -142 -263l241 -131h-306l-81 43q-131 -53 -310 -53q-69 0 -119.5 3.5t-102.5 15t-85 31.5t-54.5 54.5t-23.5 82.5v23q1 63 57 109t156 87q-76 91 -78 176v27q2 84 83.5 140.5t209.5 56.5q118 0 190.5 -53.5t76.5 -130.5v-8v-11v-7q-1 -77 -51 -130
t-156 -99q78 -60 210 -141q89 67 104 178h181zM448 652q-50 0 -76.5 -20.5t-28.5 -54.5v-16q3 -45 58 -103q76 29 110.5 53.5t35.5 59.5v14q-3 67 -99 67zM558 141q-122 79 -205 146q-72 -29 -98.5 -50t-26.5 -50q0 -30 42 -44t144 -14q79 0 144 12z" />
    <glyph glyph-name="quotesingle" unicode="'" horiz-adv-x="395" 
d="M298 785l-13 -407h-176l-12 407h201z" />
    <glyph glyph-name="parenleft" unicode="(" horiz-adv-x="466" 
d="M451 -68h-184q-83 48 -153 161.5t-70 264.5q0 138 70.5 257t152.5 170h184q-81 -63 -145.5 -184.5t-64.5 -243.5q0 -134 62 -250t148 -175z" />
    <glyph glyph-name="parenright" unicode=")" horiz-adv-x="466" 
d="M428 358q0 -148 -69 -261t-154 -165h-185q86 58 148.5 174.5t62.5 250.5q0 122 -64.5 243.5t-146.5 184.5h185q83 -51 153 -170t70 -257z" />
    <glyph glyph-name="asterisk" unicode="*" horiz-adv-x="694" 
d="M395 606l170 84l43 -133l-182 -58l135 -140l-105 -85l-113 160l-109 -159l-105 85l130 139l-185 58l43 133l173 -84l-13 194h131z" />
    <glyph glyph-name="plus" unicode="+" horiz-adv-x="782" 
d="M724 323h-254v-220h-154v220h-258v135h257v221h155v-221h254v-135z" />
    <glyph glyph-name="comma" unicode="," horiz-adv-x="404" 
d="M300 0l-82 -131l-126 9l60 128l-16 -6h-35v217h199v-217z" />
    <glyph glyph-name="hyphen" unicode="-" horiz-adv-x="589" 
d="M562 273h-533v169h533v-169z" />
    <glyph glyph-name="hyphen" unicode="&#xad;" horiz-adv-x="589" 
d="M562 273h-533v169h533v-169z" />
    <glyph glyph-name="period" unicode="." horiz-adv-x="404" 
d="M303 0h-203v217h203v-217z" />
    <glyph glyph-name="slash" unicode="/" horiz-adv-x="387" 
d="M416 795l-372 -954h-95l371 954h96z" />
    <glyph glyph-name="zero" unicode="0" horiz-adv-x="915" 
d="M458 797q158 0 262 -67.5t137 -178.5q18 -66 18 -159q0 -90 -19 -156q-35 -119 -139.5 -183t-258.5 -64q-166 0 -268 65.5t-134 192.5q-15 60 -15 146q0 85 14 146q30 119 132.5 188.5t270.5 69.5zM680 394q0 83 -16 130q-42 122 -205 122q-87 0 -141 -35t-71 -96
q-13 -49 -13 -122q0 -70 14 -124q36 -132 210 -132q86 0 139 35t71 98q12 48 12 124z" />
    <glyph glyph-name="one" unicode="1" horiz-adv-x="612" 
d="M475 0h-187v587l-239 -31v152q163 24 214 40t62 43h150v-791z" />
    <glyph glyph-name="two" unicode="2" horiz-adv-x="866" 
d="M840 0h-792v155q120 44 198.5 76t150.5 68t111.5 68.5t62.5 70t24 79.5v24q-1 48 -44 75t-128 27q-140 0 -167 -91q-6 -18 -8 -58h-193q6 68 15 100q25 93 114.5 148t253.5 55q80 0 143 -12.5t103.5 -33.5t66.5 -51t37.5 -61.5t12.5 -68.5q0 -32 -1 -42
q-4 -115 -108 -212t-287 -162h435v-154z" />
    <glyph glyph-name="three" unicode="3" horiz-adv-x="888" 
d="M649 419q84 -8 138.5 -49t61.5 -100q6 -31 2 -71q-22 -210 -407 -210q-167 0 -258 38.5t-127 116.5q-19 42 -21 111h195q2 -46 14 -65q39 -58 198 -58q99 0 145 21t54 62q3 28 -1 47q-9 39 -49.5 54t-126.5 15h-214v133h212q128 0 146 58q9 27 2 56q-17 74 -175 74
q-141 0 -172 -69q-9 -17 -11 -54h-184q2 63 19 103q68 165 364 165q321 0 352 -174q9 -39 2 -73q-10 -52 -49.5 -87.5t-109.5 -43.5z" />
    <glyph glyph-name="four" unicode="4" horiz-adv-x="855" 
d="M847 158h-141v-158h-185v158h-502v165l502 472h185v-484h141v-153zM523 311v279l-298 -279h298z" />
    <glyph glyph-name="five" unicode="5" horiz-adv-x="883" 
d="M849 220q-8 -110 -106 -170.5t-275 -60.5q-355 0 -411 202q-8 36 -9 67h189q2 -20 8 -39q19 -45 69 -64t137 -19q177 0 188 113q2 16 -1 56q-9 102 -193 102q-151 0 -186 -75h-184v453h722v-157h-551l-1 -167q28 43 102.5 66t166.5 23q161 0 243.5 -62.5t91.5 -175.5
q5 -35 0 -92z" />
    <glyph glyph-name="six" unicode="6" horiz-adv-x="886" 
d="M851 204q-17 -98 -115 -156.5t-274 -58.5q-302 0 -383 194q-38 92 -38 211q0 105 29 188q33 95 129 155t248 60q156 0 238 -42t114 -121q9 -28 13 -68h-177q-2 14 -9 25q-28 54 -177 54q-95 0 -148.5 -36t-62.5 -102q-5 -37 -6 -65q40 30 118 51t175 21
q149 0 229.5 -52.5t94.5 -145.5q4 -17 5 -53.5t-3 -58.5zM660 224q7 34 -1 70q-16 85 -183 85q-81 0 -148.5 -22.5t-92.5 -43.5q5 -45 14 -70q46 -111 216 -111q89 0 138.5 26t56.5 66z" />
    <glyph glyph-name="seven" unicode="7" horiz-adv-x="751" 
d="M741 640l-412 -640h-219l417 629h-522v156h736v-145z" />
    <glyph glyph-name="eight" unicode="8" horiz-adv-x="863" 
d="M827 188q-17 -99 -111.5 -148t-285.5 -49q-193 0 -286 48t-109 146q-9 47 0 99q12 55 71.5 97t125.5 47q-57 6 -99.5 45t-50.5 81q-7 45 -2 78q12 71 100.5 118.5t249.5 47.5q159 0 248.5 -46.5t101.5 -117.5q6 -35 -1 -80q-8 -48 -47 -85t-103 -41q76 -4 131 -45.5
t66 -101.5q11 -45 1 -93zM604 539q8 28 -1 61q-18 56 -172 56q-152 0 -172 -54q-10 -29 -2 -66q17 -48 173 -48q161 0 174 51zM649 207q10 37 0 71q-11 39 -61 58.5t-158 19.5q-97 0 -152.5 -20.5t-66.5 -56.5q-9 -35 1 -73q23 -78 218 -78t219 79z" />
    <glyph glyph-name="nine" unicode="9" horiz-adv-x="879" 
d="M795 177q-41 -85 -133.5 -136.5t-228.5 -51.5q-292 0 -358 161q-12 35 -15 70h183q2 -13 7 -23q35 -59 183 -59q93 0 146.5 39.5t59.5 101.5q0 1 2 24.5t2 37.5q-116 -67 -284 -67q-137 0 -220 52t-97 132q-12 65 -1 124q19 98 116 156.5t268 58.5q255 0 353 -157
q59 -91 59 -247q0 -133 -42 -216zM644 473q-2 29 -9 64q-13 56 -68 87t-139 31q-85 0 -138 -26.5t-60 -63.5t0 -71q17 -86 193 -86q75 0 138 23t83 42z" />
    <glyph glyph-name="colon" unicode=":" horiz-adv-x="410" 
d="M298 384h-188v188h188v-188zM298 0h-188v188h188v-188z" />
    <glyph glyph-name="semicolon" unicode=";" horiz-adv-x="410" 
d="M298 384h-187v188h187v-188zM299 1l-115 -138l-80 68l52 73l-22 -4h-23v190h188v-189z" />
    <glyph glyph-name="less" unicode="&#x3c;" horiz-adv-x="764" 
d="M686 37l-624 226v150l624 225v-154l-454 -146l454 -147v-154z" />
    <glyph glyph-name="equal" unicode="=" horiz-adv-x="762" 
d="M719 422h-677v128h677v-128zM719 222h-677v126h677v-126z" />
    <glyph glyph-name="greater" unicode="&#x3e;" horiz-adv-x="764" 
d="M688 263l-623 -225v152l454 148l-454 147v155l623 -227v-150z" />
    <glyph glyph-name="question" unicode="?" horiz-adv-x="813" 
d="M793 551q-4 -56 -41 -94t-87.5 -58t-100.5 -37.5t-85.5 -44.5t-36.5 -66h-180q1 53 24.5 93t57.5 61t74.5 39t75 29t58.5 28t26 39q3 19 1 30q-5 41 -47 61.5t-134 20.5q-151 0 -171 -75q-5 -30 -5 -42h-191q3 52 18 94q60 170 364 170q197 0 285 -48.5t95 -147.5
q2 -20 0 -52zM450 0h-195v197h195v-197z" />
    <glyph glyph-name="at" unicode="@" horiz-adv-x="1150" 
d="M1110 368q-4 -139 -81 -218.5t-202 -79.5q-57 0 -94 29.5t-42 74.5q-51 -99 -200 -99q-98 0 -159 58.5t-54 166.5q6 112 83 191t205 79q54 0 94 -23t52 -56l18 58h147q-9 -43 -30.5 -135t-31.5 -140q-28 -118 58 -118q68 0 110 58t45 157q5 152 -104 251.5t-323 99.5
q-221 0 -349.5 -111.5t-130.5 -294.5q-1 -103 36 -183t101.5 -127t144 -70.5t170.5 -23.5q219 0 345 102l37 -52q-148 -110 -386 -110q-232 0 -380.5 121t-146.5 341q2 213 156 341t411 128q122 0 220 -33t159.5 -90t93 -132t28.5 -160zM695 379q5 28 -24.5 56.5t-81.5 28.5
q-67 0 -117.5 -43.5t-59.5 -110.5q-8 -59 22.5 -94.5t88.5 -35.5q67 0 104 30t48 76q1 5 5.5 23.5t8.5 38t6 31.5z" />
    <glyph glyph-name="A" unicode="A" horiz-adv-x="1036" 
d="M285 173l-87 -173h-200l415 785h226l398 -785h-205l-84 173h-463zM670 325l-30 61l-58 120l-30 61l-31 71l-32 -71l-124 -242h305z" />
    <glyph glyph-name="B" unicode="B" horiz-adv-x="1049" 
d="M952 73q-68 -73 -229 -73h-622v785h592q137 0 203 -63q50 -50 50 -132t-42 -128q-36 -40 -86 -47q79 -6 136 -61q47 -44 47 -135t-49 -146zM749 553q0 37 -27 61q-26 23 -89 23h-347v-170h360q57 0 80 22q23 21 23 64zM784 178q20 19 20 57q0 40 -24 60q-31 26 -103 26
h-391v-172h387q82 0 111 29z" />
    <glyph glyph-name="C" unicode="C" horiz-adv-x="1047" 
d="M1009 306q-7 -84 -43 -141q-101 -177 -429 -177q-295 0 -413 149q-80 94 -80 257q0 156 72 243q127 163 419 163q322 0 438 -196q33 -59 35 -128h-197q-3 44 -32 79q-65 82 -246 82q-186 0 -255 -99q-37 -52 -37 -145q0 -98 38 -150q36 -48 105 -72t151 -24q92 0 150 18
t96 61q26 30 31 80h197z" />
    <glyph glyph-name="D" unicode="D" horiz-adv-x="1029" 
d="M934 151q-84 -151 -334 -151h-499v785h493q254 0 337 -140q50 -76 50 -241q0 -172 -47 -253zM763 232q30 43 30 168q-2 113 -31 153q-26 41 -72.5 59.5t-123.5 18.5h-277v-476h272q152 0 202 77z" />
    <glyph glyph-name="E" unicode="E" horiz-adv-x="935" 
d="M875 0h-774v785h767v-158h-581v-155h564v-157h-564v-157h588v-158z" />
    <glyph glyph-name="F" unicode="F" horiz-adv-x="887" 
d="M845 627h-555v-157h530v-163h-530v-307h-189v785h744v-158z" />
    <glyph glyph-name="G" unicode="G" horiz-adv-x="1038" 
d="M972 0h-162l-6 89q-103 -101 -315 -101q-118 0 -215 35.5t-153 104.5q-77 97 -77 264q0 158 77 255q122 151 402 151q314 0 411 -179q28 -50 32 -108h-184q-4 34 -38 68q-64 66 -215 66q-172 0 -242 -78q-50 -56 -50 -175q0 -112 48 -172q69 -79 234 -79q158 0 236 80
q14 13 25 39.5t14 46.5h-317v151h494v-226v-61.5t0.5 -62t0.5 -52.5v-39.5v-16.5z" />
    <glyph glyph-name="H" unicode="H" horiz-adv-x="1058" 
d="M957 0h-189v310h-479v-310h-188v785h188v-308h479v308h189v-785z" />
    <glyph glyph-name="I" unicode="I" horiz-adv-x="393" 
d="M294 0h-193v785h193v-785z" />
    <glyph glyph-name="J" unicode="J" horiz-adv-x="650" 
d="M564 269q0 -130 -87.5 -204t-238.5 -74q-150 0 -217 13v157q54 -10 180 -10q87 0 129.5 43t42.5 111v480h191v-516z" />
    <glyph glyph-name="K" unicode="K" horiz-adv-x="990" 
d="M371 343l-82 -63v-280h-188v785h188v-321l439 321h255l-467 -344l460 -441h-245z" />
    <glyph glyph-name="L" unicode="L" horiz-adv-x="833" 
d="M804 0h-703v785h190v-627h513v-158z" />
    <glyph glyph-name="M" unicode="M" horiz-adv-x="1227" 
d="M1131 0h-181v524l-245 -524h-186l-238 524v-524h-180v785h244l270 -598l276 598h240v-785z" />
    <glyph glyph-name="N" unicode="N" horiz-adv-x="1041" 
d="M942 0h-197l-461 539v-539h-183v785h208l452 -527v527h181v-785z" />
    <glyph glyph-name="O" unicode="O" horiz-adv-x="1072" 
d="M536 801q273 0 403 -136q89 -95 89 -268q0 -171 -90 -273q-116 -136 -402 -136q-267 0 -395 134q-97 102 -97 275q0 164 89 260q69 74 165.5 109t237.5 35zM536 142q164 0 245 79q55 54 55 173q0 123 -54 173q-43 39 -100 58.5t-147 19.5q-167 0 -244 -80
q-54 -59 -54 -171q0 -126 66 -182q82 -70 233 -70z" />
    <glyph glyph-name="P" unicode="P" horiz-adv-x="992" 
d="M949 509q0 -119 -50 -181q-71 -92 -252 -94l-357 1v-235h-189v785h546q175 0 243 -79q59 -66 59 -197zM758 510q0 52 -14 74q-31 47 -136 47h-319v-239h317q109 0 138 47q14 22 14 71z" />
    <glyph glyph-name="Q" unicode="Q" horiz-adv-x="1072" 
d="M726 17q12 -9 59 -29q45 -21 73 -26l-102 -132q-61 13 -143 62q-95 57 -131 98q-5 0 -32.5 3t-34.5 4q-171 17 -273 126q-52 57 -75 120.5t-23 153.5q0 159 90 259q126 145 402 145q273 0 403 -136q89 -89 89 -268q0 -83 -26 -156.5t-65 -114.5q-38 -40 -98.5 -70.5
t-112.5 -38.5zM536 140q168 0 247 79q55 55 55 175q0 119 -55 173q-86 79 -248 79q-164 0 -243 -79q-57 -57 -57 -174q0 -126 65 -182q85 -71 236 -71z" />
    <glyph glyph-name="R" unicode="R" horiz-adv-x="1037" 
d="M940 556q0 -87 -32 -136q-44 -72 -127 -85l235 -335h-214l-209 306h-305v-306h-187v785h559q171 0 238 -87q42 -52 42 -142zM755 541q0 36 -13 53q-25 37 -102 37h-351v-174h362q72 0 91 31q13 21 13 53z" />
    <glyph glyph-name="S" unicode="S" horiz-adv-x="1007" 
d="M953 236q0 -119 -109 -183.5t-328 -64.5q-128 0 -222 22.5t-145 61t-74.5 83.5t-23.5 98h202q0 -51 70 -82.5t202 -31.5q129 0 179.5 21t50.5 63q0 44 -39.5 62.5t-165.5 32.5q-75 7 -158 19q-177 20 -254.5 74t-77.5 151q0 106 108.5 170.5t319.5 64.5
q223 0 331.5 -73.5t108.5 -181.5h-200q0 104 -252 104q-89 0 -138 -8.5t-66 -24t-17 -41.5t19 -41t66.5 -26t147.5 -23q48 -7 169 -20q152 -16 224 -71.5t72 -154.5z" />
    <glyph glyph-name="T" unicode="T" horiz-adv-x="889" 
d="M885 628h-344v-628h-193v628h-344v157h881v-157z" />
    <glyph glyph-name="U" unicode="U" horiz-adv-x="1050" 
d="M959 291q0 -147 -113.5 -224.5t-324.5 -77.5q-202 0 -316.5 80.5t-114.5 239.5v476h191v-479q0 -77 63 -121t185 -44q113 0 177 44t64 121v479h189v-494z" />
    <glyph glyph-name="V" unicode="V" horiz-adv-x="1036" 
d="M1036 785l-403 -785h-230l-402 785h207l313 -623l323 623h192z" />
    <glyph glyph-name="W" unicode="W" horiz-adv-x="1384" 
d="M1383 785l-278 -785h-230l-176 575l-180 -575h-230l-289 785h203l206 -602l181 602h220l182 -602l204 602h187z" />
    <glyph glyph-name="X" unicode="X" horiz-adv-x="949" 
d="M472 275l-251 -275h-218l363 395l-342 390h232l228 -261l240 261h215l-349 -381l355 -404h-231z" />
    <glyph glyph-name="Y" unicode="Y" horiz-adv-x="1033" 
d="M1027 786l-420 -526v-260h-190v259l-415 526h217l295 -375l304 376h209z" />
    <glyph glyph-name="Z" unicode="Z" horiz-adv-x="912" 
d="M884 0h-847v148l556 479h-528v158h801v-145l-571 -484h589v-156z" />
    <glyph glyph-name="bracketleft" unicode="[" horiz-adv-x="544" 
d="M493 -180h-401v965h401v-134h-233v-698h233v-133z" />
    <glyph glyph-name="backslash" unicode="\" horiz-adv-x="387" 
d="M-33 795h96l371 -954h-95z" />
    <glyph glyph-name="bracketright" unicode="]" horiz-adv-x="547" 
d="M54 -180v133h232v699h-232v133h400v-965h-400z" />
    <glyph glyph-name="asciicircum" unicode="^" horiz-adv-x="757" 
d="M383 652l-234 -195l-115 111l263 229h172l262 -229l-114 -111z" />
    <glyph glyph-name="underscore" unicode="_" horiz-adv-x="571" 
d="M570 -212h-570v139h570v-139z" />
    <glyph glyph-name="grave" unicode="`" 
d="M376 598h-163l-130 167h185z" />
    <glyph glyph-name="a" unicode="a" horiz-adv-x="850" 
d="M788 0h-168q-2 0 -5 7.5t-5 21t-2 27.5q-29 -28 -104 -46.5t-186 -18.5q-137 0 -207.5 40t-70.5 127q0 32 9.5 58.5t34.5 51.5t64.5 42t103 27.5t146.5 11.5q111 0 210 -11q0 20 -5 39q-19 58 -175 58q-78 0 -120 -11t-52 -24.5t-10 -36.5h-173q0 92 85.5 147.5
t261.5 55.5q163 0 245.5 -40.5t100.5 -124.5q12 -48 10 -135q-2 -56 -2 -140q0 -98 14 -126zM610 227q-82 12 -183 12q-113 0 -158.5 -17.5t-45.5 -52.5q0 -56 150 -56q237 0 237 114z" />
    <glyph glyph-name="b" unicode="b" horiz-adv-x="908" 
d="M529 564q214 0 293 -122q46 -67 46 -161q0 -97 -52 -167q-39 -55 -115.5 -87.5t-171.5 -32.5q-85 0 -157.5 21t-109.5 61l-6 -76h-172v795h178v-322q30 39 98 65t169 26zM471 422q-145 0 -195 -74q-20 -29 -20 -73q0 -47 24 -77q50 -66 192 -66q141 0 192 65q23 32 23 80
q0 45 -24 78q-53 67 -192 67z" />
    <glyph glyph-name="c" unicode="c" horiz-adv-x="852" 
d="M816 326h-174q-3 21 -22 42q-51 56 -180 56q-138 0 -192 -58q-31 -33 -31 -91q0 -61 31 -93q49 -55 194 -55q122 0 171 40q23 19 29 47h176q-5 -74 -57 -126q-94 -99 -321 -99q-238 0 -336 104q-66 64 -66 184q0 107 63 175q102 114 336 114q269 0 350 -143
q26 -47 29 -97z" />
    <glyph glyph-name="d" unicode="d" horiz-adv-x="904" 
d="M383 563q198 0 267 -85v313h177v-721l6 -70h-170l-10 86q-25 -42 -98 -69t-164 -27q-213 0 -299 112q-54 70 -54 169q0 103 56 177q40 54 115 84.5t174 30.5zM437 419q-139 0 -190 -59q-29 -37 -29 -87q0 -48 20 -81q41 -68 204 -68q134 0 183 63q29 35 29 86
q0 58 -34 92q-51 54 -183 54z" />
    <glyph glyph-name="e" unicode="e" horiz-adv-x="856" 
d="M823 176q-18 -62 -67 -101q-101 -86 -317 -86q-261 0 -353 130q-47 71 -47 161q0 85 48 151q49 65 141 100.5t210 35.5q142 0 236 -47t130 -133q14 -30 22 -79.5t4 -86.5h-613q4 -32 42 -60q61 -44 186 -44q79 0 141 22q32 13 49 37h188zM652 328q0 35 -33 62
q-56 45 -182 45q-141 0 -191 -50q-26 -25 -30 -57h436z" />
    <glyph glyph-name="f" unicode="f" horiz-adv-x="565" 
d="M541 405h-212v-405h-181v405h-130v140h130v66q0 85 57 138t171 53q123 0 163 -8v-137q-45 6 -122 6q-91 0 -91 -71v-47h215v-140z" />
    <glyph glyph-name="g" unicode="g" horiz-adv-x="807" 
d="M382 570q160 0 245 -47q27 23 86.5 32t102.5 3v-106q-98 0 -118 -14q27 -29 31 -70q4 -27 -3 -54q-33 -149 -321 -149q-50 0 -103 8.5t-72 17.5q-28 -4 -28 -29q0 -10 7 -15.5t31.5 -10t70 -6t123.5 -1.5q139 1 220.5 -14.5t115.5 -47t34 -84.5q0 -174 -407 -174
q-141 0 -228 18t-120.5 47t-33.5 72q0 79 122 96q-42 10 -64.5 35.5t-22.5 58.5q0 32 25.5 58.5t66.5 30.5q-81 32 -94 125q-2 26 1 48q11 74 95.5 123t237.5 49zM390 444q-159 0 -169 -69q-3 -13 -1 -29q8 -69 167 -69t169 69q2 14 0 32q-12 66 -166 66zM387 -69
q90 0 143.5 6t72.5 15.5t20 23.5q0 12 -5.5 17.5t-28 9.5t-54.5 5.5t-99 3.5q-36 1 -117.5 1.5t-95.5 0.5q-43 -6 -43 -34q0 -15 15 -25t62.5 -17t129.5 -7z" />
    <glyph glyph-name="h" unicode="h" horiz-adv-x="865" 
d="M785 325q0 -117 0.5 -180t1.5 -96t3 -40.5t5 -8.5h-182q-5 5 -6 46.5t-1 242.5q0 127 -163 127q-76 0 -128 -37t-52 -95v-284h-179v795h174v-347q58 117 265 117q131 0 196.5 -62t65.5 -178z" />
    <glyph glyph-name="i" unicode="i" horiz-adv-x="371" 
d="M276 614h-185v155h185v-155zM286 0h-181q-11 3 -11 76v474h180v-473q0 -45 2 -59t10 -18z" />
    <glyph glyph-name="j" unicode="j" horiz-adv-x="386" 
d="M302 614h-185v154h185v-154zM300 31q0 -104 -62 -161.5t-158 -57.5q-95 0 -124 9v140q26 -4 59 -4q105 0 105 87v506h180v-519z" />
    <glyph glyph-name="k" unicode="k" horiz-adv-x="829" 
d="M835 0h-216l-35 42l-68.5 81l-77.5 91l-32 36l-143 -104v-146h-179v795h178v-477l315 232h228q-271 -208 -272 -208z" />
    <glyph glyph-name="l" unicode="l" horiz-adv-x="362" 
d="M280 0h-180q-8 3 -8 55v666q0 51 -4 71h178q5 -22 5 -65v-669q0 -54 9 -58z" />
    <glyph glyph-name="m" unicode="m" horiz-adv-x="1281" 
d="M1052 0q-9 0 -9 292q0 124 -147 124q-67 0 -111 -33t-44 -94v-289h-179v301q0 53 -38.5 84t-104.5 31q-71 0 -115 -37.5t-44 -89.5v-289h-176v550h170v-105q23 56 88.5 87t148.5 31q80 0 143.5 -30.5t86.5 -88.5q23 56 87.5 87.5t157.5 31.5q249 0 249 -229
q0 -327 7 -334h-170z" />
    <glyph glyph-name="n" unicode="n" horiz-adv-x="865" 
d="M792 0h-177q-3 0 -4.5 7.5t-2.5 37t-1.5 85t-0.5 155.5q0 131 -160 131q-77 0 -130 -36.5t-53 -94.5v-285h-179v550h173v-102q29 59 101 88t162 29q265 0 265 -243q0 -310 7 -322z" />
    <glyph glyph-name="o" unicode="o" horiz-adv-x="884" 
d="M846 278q0 -132 -103 -210.5t-302 -78.5q-187 0 -295 74.5t-108 214.5q0 127 103.5 207.5t300.5 80.5q198 0 301 -83.5t103 -204.5zM667 277q0 67 -56 107t-169 40q-115 0 -169.5 -39.5t-54.5 -107.5q0 -79 56 -114.5t168 -35.5t168.5 39t56.5 111z" />
    <glyph glyph-name="p" unicode="p" horiz-adv-x="902" 
d="M865 281q0 -105 -54 -174q-40 -53 -117 -83t-172 -30q-82 0 -154.5 19.5t-104.5 59.5v-253h-179v729h173l3 -79q24 39 98.5 66.5t168.5 27.5q101 0 175 -30t111 -84q52 -71 52 -169zM684 277q0 55 -34 89q-54 56 -184 56q-124 0 -173 -57q-36 -35 -36 -91q0 -50 29 -82
q51 -60 182 -60q145 0 193 68q23 32 23 77z" />
    <glyph glyph-name="q" unicode="q" horiz-adv-x="899" 
d="M829 -180h-171l-6 7v254q-35 -42 -105.5 -66.5t-165.5 -24.5q-197 0 -283 105q-60 71 -60 175q0 109 62 186q40 49 115.5 78t165.5 29q208 0 279 -94l1 79h163v-653q0 -57 5 -75zM654 274q0 58 -34 91q-54 54 -185 54q-141 0 -189 -60q-28 -35 -28 -86q0 -47 24 -80
q50 -66 198 -66q136 0 184 60q30 35 30 87z" />
    <glyph glyph-name="r" unicode="r" horiz-adv-x="622" 
d="M606 552v-163q-65 16 -150 16q-81 0 -136 -47t-55 -130v-228h-181v550h175v-109q14 46 75.5 80t136.5 38q65 3 135 -7z" />
    <glyph glyph-name="s" unicode="s" horiz-adv-x="791" 
d="M756 167q0 -90 -82 -134t-266 -44q-186 0 -270 33t-105 111q-6 25 -6 46h176q0 -16 9 -29q21 -31 195 -31q76 0 116 5.5t51.5 14.5t11.5 26q0 22 -29 30t-132 16l-140 14q-127 12 -186.5 53t-59.5 119q0 81 84 125.5t246 44.5q161 0 243.5 -31t108.5 -101q9 -29 9 -56
h-173q0 14 -8 25q-24 29 -171 29q-71 0 -108.5 -4.5t-48.5 -12t-11 -21.5t9 -20.5t39.5 -11.5t98.5 -11q58 -6 151 -14q133 -10 190.5 -50t57.5 -121z" />
    <glyph glyph-name="t" unicode="t" horiz-adv-x="546" 
d="M510 405h-199v-198q0 -44 20.5 -60.5t66.5 -16.5q58 0 107 9v-132q-59 -16 -170 -16q-204 0 -204 175v239h-124v140h123q2 12 3.5 44t1.5 58v26l174 3v-131h201v-140z" />
    <glyph glyph-name="u" unicode="u" horiz-adv-x="864" 
d="M781 0h-172l-4 84q-69 -96 -266 -96q-126 0 -194 48t-68 161q-1 344 -9 353v0v0h1v0h1v0h1v0h1h1h1h1h1h1h1h1h1h1h1h1h1h1h1h1h1h1h1h1h1h1h1h1h1h1h1h1h1h1h1h1h1h2h1h1h1h1h1h2h1h1h1h1h2h1h1h2h1h1h1h2h1h1h2h1h2h1h1h2h1h2h1h1h2h1h2h1h2h1h2h1h2h1h2h1h2h2h1h2h1h2
h2h1h2h1h2h2h1h2h2h2h1h2h2h1h2h2h2h1h2h2h2h2h1h2h2h2h2h2h1h2h2h2h2h2h2h2h2h2h2h8q6 0 6 -300q0 -122 159 -122q84 0 134 34.5t50 90.5v297h179v-454q0 -17 0.5 -32.5t1 -26.5t0.5 -19t0.5 -12.5t0.5 -5.5z" />
    <glyph glyph-name="v" unicode="v" horiz-adv-x="792" 
d="M807 550l-303 -550h-212l-308 550h192l223 -410l223 410h185z" />
    <glyph glyph-name="w" unicode="w" horiz-adv-x="1271" 
d="M1265 550l-262 -550h-206l-154 366l-8 42q-8 -38 -9 -41l-152 -367h-206l-258 550h186l182 -408l159 408h203l170 -408l180 408h175z" />
    <glyph glyph-name="x" unicode="x" horiz-adv-x="808" 
d="M411 387l173 163h211l-280 -265l290 -285h-222l-181 177l-187 -177h-210l294 279l-277 271h223z" />
    <glyph glyph-name="y" unicode="y" horiz-adv-x="843" 
d="M833 550l-410 -730h-198l106 180l-321 550h191q228 -396 228 -399l218 399h186z" />
    <glyph glyph-name="z" unicode="z" horiz-adv-x="759" 
d="M722 0h-679v121l381 285h-369v139h646v-123l-384 -284h405v-138z" />
    <glyph glyph-name="braceleft" unicode="{" horiz-adv-x="582" 
d="M528 -171h-151q-91 0 -136 39t-45 96q0 32 8 98.5t8 93.5q0 116 -155 116v133q83 1 119 26.5t36 75.5q0 28 -8.5 70t-8.5 71q0 57 49 97t132 40h152v-139q-94 7 -134 -15.5t-38 -67.5q0 -15 5 -48t5 -49q0 -48 -30.5 -79.5t-90.5 -36.5q121 -10 121 -126q0 -25 -6 -83.5
t-6 -80.5q-2 -48 38.5 -72t135.5 -18v-141z" />
    <glyph glyph-name="bar" unicode="|" horiz-adv-x="400" 
d="M271 -200h-139v1000h139v-1000z" />
    <glyph glyph-name="braceright" unicode="}" horiz-adv-x="582" 
d="M54 -171v141q95 -6 135.5 18t38.5 72q0 22 -6 80.5t-6 83.5q0 116 121 126q-60 5 -90.5 36.5t-30.5 79.5q0 16 5.5 49t5.5 48q2 45 -38.5 67.5t-134.5 15.5v139h152q83 0 132.5 -40t49.5 -97q0 -29 -9 -71t-9 -70q0 -50 36 -75.5t120 -26.5v-133q-155 0 -155 -116
q0 -27 7.5 -93.5t7.5 -98.5q0 -57 -45 -96t-136 -39h-151z" />
    <glyph glyph-name="asciitilde" unicode="~" horiz-adv-x="807" 
d="M405 271q-14 13 -38.5 40.5t-38.5 41t-35 25.5t-41 12q-90 0 -90 -150h-151q0 312 213 312q59 0 103.5 -27t89.5 -77l27.5 -31t29.5 -32t25.5 -23t31.5 -19.5t31 -5.5q42 0 66.5 35.5t24.5 99.5h136q2 -137 -49 -212t-152 -75q-100 0 -183 86z" />
    <glyph glyph-name="exclamdown" unicode="&#xa1;" horiz-adv-x="384" 
d="M94 794h194v-197h-194v197zM76 -3l27 542h177l26 -542h-230z" />
    <glyph glyph-name="cent" unicode="&#xa2;" horiz-adv-x="818" 
d="M376 108q-220 15 -300 124q-44 64 -44 161q0 96 47 163q81 110 297 124v85h113v-85q221 -13 294 -133q22 -40 31 -105h-170q-5 34 -13 49q-34 55 -142 64v-324q96 6 131 47q19 22 23 53h171q-8 -69 -40 -108q-83 -102 -285 -115v-117h-113v117zM376 553
q-44 -2 -80.5 -18.5t-53.5 -41.5q-28 -42 -28 -99q0 -59 22 -95q37 -54 140 -65v319z" />
    <glyph glyph-name="sterling" unicode="&#xa3;" horiz-adv-x="935" 
d="M155 402q-31 47 -43 100t1 105.5t51 94.5t115 68.5t183 26.5q103 0 176 -17.5t115 -51.5t63 -75t28 -96q2 -18 2 -59h-205q0 48 -2 60q-15 89 -164 89q-256 0 -114 -245h374v-108h-345q30 -118 -78 -150h550v-144h-787v151q85 23 110 51t5 92h-101v108h66z" />
    <glyph glyph-name="currency" unicode="&#xa4;" horiz-adv-x="984" 
d="M305 405v-21h366v-92h-357q1 -4 2.5 -11.5t2.5 -11.5q36 -132 210 -132q86 0 139 35t71 98q1 4 2.5 13.5t2.5 12.5h195q-5 -36 -12 -60q-35 -119 -139.5 -183t-258.5 -64q-166 0 -268 65.5t-134 192.5q-2 6 -9 45h-97v92h91v21h-91v91h97q2 10 8 43q30 119 132.5 188.5
t270.5 69.5q158 0 262 -67.5t137 -178.5q8 -30 13 -67h-197q-3 24 -9 40q-42 122 -205 122q-87 0 -141 -35t-71 -96q0 -3 -1.5 -9l-2.5 -10h357v-91h-366z" />
    <glyph glyph-name="yen" unicode="&#xa5;" horiz-adv-x="1048" 
d="M425 155h-356v91h356v23l-422 516h216q302 -353 302 -365q0 5 78 96.5l155 179.5l78 89h213l-431 -514v-25h354v-91h-354v-21h354v-92h-354v-42h-189v42h-356v92h356v21z" />
    <glyph glyph-name="brokenbar" unicode="&#xa6;" horiz-adv-x="400" 
d="M271 353h-140v447h140v-447zM271 -200h-140v441h140v-441z" />
    <glyph glyph-name="section" unicode="&#xa7;" horiz-adv-x="735" 
d="M62 485q20 38 82 60q-65 26 -70 94v22q2 67 77 100.5t208 33.5q131 0 200.5 -30.5t81.5 -107.5q4 -22 3 -38h-141q0 23 -2 30q-6 33 -38 45t-99 12q-72 0 -104 -10t-34 -34v-9q0 -10 3.5 -18t13.5 -15t19 -11t30.5 -9.5t36.5 -9t49 -10.5q86 -14 148 -32
q67 -14 95.5 -39.5t36.5 -59.5q4 -27 -5.5 -53.5t-29.5 -41.5q-32 -25 -62 -30q140 -35 151 -138q3 -18 1 -27q-2 -80 -83.5 -125t-249.5 -45q-154 0 -239.5 38t-105.5 126q-1 5 -4 38h195q0 -15 2 -31q7 -38 43.5 -53.5t116.5 -15.5q143 0 146 60v12q-1 23 -23 39.5
t-47 24.5t-70 19q-133 28 -220 52q-55 13 -86.5 43t-36.5 70q-6 46 11 74zM233 415q32 -15 234 -54q36 4 44 32q5 14 -3.5 29t-27.5 21q-68 26 -228 56q-35 -6 -44 -33q-4 -14 4 -29t21 -22z" />
    <glyph glyph-name="dieresis" unicode="&#xa8;" 
d="M456 600h-145v149h145v-149zM217 600h-146v149h146v-149z" />
    <glyph glyph-name="copyright" unicode="&#xa9;" horiz-adv-x="891" 
d="M850 369q-5 -124 -113 -199t-290 -75q-185 0 -293.5 74.5t-111.5 199.5q-4 84 0 158q6 127 116 200t289 73q176 0 286 -73.5t117 -200.5q3 -45 0 -157zM805 380q1 19 1 69.5t-1 65.5q-5 114 -103.5 177t-254.5 63q-102 0 -180 -24.5t-127.5 -79.5t-52.5 -134v-136
q2 -114 102 -178t258 -64q159 0 256.5 64.5t101.5 176.5zM727 406q-2 -36 -12 -62q-18 -54 -88 -90.5t-179 -36.5q-211 0 -265 116q-23 43 -23 114q0 69 20 110q54 117 269 117q121 0 185.5 -37t81.5 -94q10 -28 10 -57h-167q0 5 -7 25q-17 44 -99 44q-93 0 -110 -72
q-5 -18 -5 -37q0 -20 5 -37q7 -41 33 -57t76 -16q83 0 101 42q6 16 8 28h166z" />
    <glyph glyph-name="ordfeminine" unicode="&#xaa;" horiz-adv-x="715" 
d="M678 245h-160q-1 6 -3.5 14.5t-5.5 27t-2 26.5q-64 -72 -245 -72q-104 0 -168 33t-69 94q-3 39 2 62q9 57 80 93t206 43q95 5 183 2q2 46 -11 73q-13 28 -42 40t-86 12q-92 0 -122 -40q-14 -19 -16 -43h-163q3 39 21 74q65 126 291 126q258 0 290 -152q9 -40 5 -131
q-2 -50 -2 -147q0 -110 17 -135zM686 128h-653v82h653v-82zM496 479q-68 3 -122 3q-118 -1 -160 -28q-19 -14 -21 -36q0 -26 12 -38q27 -27 118 -27q94 0 132 23q40 25 41 60v43z" />
    <glyph glyph-name="guillemotleft" unicode="&#xab;" horiz-adv-x="823" 
d="M794 64l-370 220v116l370 219v-164l-210 -112l210 -114v-165zM410 64l-372 220v116l372 219v-164l-211 -112l211 -114v-165z" />
    <glyph glyph-name="logicalnot" unicode="&#xac;" horiz-adv-x="674" 
d="M534 608q29 24 36 32q14 13 22 7t-6 -15q-3 -2 -6 -3zM144 599l-46 21q-17 7 -13 16q3 9 19 -1l4 -4q7 -8 36 -32zM320 533l1 134h-316v128h664v-128h-316l2 -134q47 -8 79 -44.5t32 -84.5q0 -50 -32 -86.5t-80 -43.5l-2 -131h317v-138h-664v138h316l-3 131
q-46 8 -77.5 44t-31.5 86q0 48 32 84.5t79 44.5zM537 202l46 -21q17 -7 14 -16q-4 -9 -20 1l-4 4q-7 8 -36 32zM130 192q-6 -6 -19 -17t-17 -15q-14 -14 -21 -8q-8 6 5 16q3 1 6 3q25 9 46 21zM352 489v-47l-16 -34l-14 34v47q-30 -6 -50.5 -30t-20.5 -55t20 -54.5t50 -29.5
v47l15 33l15 -33v-47q30 5 51 29t21 55t-20.5 55t-50.5 30z" />
    <glyph glyph-name="registered" unicode="&#xae;" horiz-adv-x="891" 
d="M850 381q-5 -125 -114 -205.5t-289 -80.5q-183 0 -292.5 80t-112.5 206q-4 73 0 137q6 128 116.5 205t288.5 77q174 0 285 -77.5t118 -205.5q3 -39 0 -136zM805 392q1 19 1 59t-1 55q-5 114 -104.5 181.5t-253.5 67.5q-155 0 -255.5 -64t-104.5 -183v-37.5v-50v-27.5
q2 -115 103 -184.5t257 -69.5q158 0 256 70t102 183zM690 236h-158l-81 151h-80v-151h-149v421h286q85 0 134 -36q42 -31 42 -91q0 -58 -31 -91q-26 -24 -61 -32zM538 509q0 44 -53 44h-114v-87h113q54 0 54 43z" />
    <glyph glyph-name="macron" unicode="&#xaf;" 
d="M455 619h-384v102h384v-102z" />
    <glyph glyph-name="macron" unicode="&#x2c9;" 
d="M455 619h-384v102h384v-102z" />
    <glyph glyph-name="degree" unicode="&#xb0;" horiz-adv-x="414" 
d="M207 775q71 0 121.5 -50.5t50.5 -122.5q0 -73 -50 -123t-122 -50q-71 0 -121 50t-50 123q0 72 50 122.5t121 50.5zM207 671q-28 0 -49 -20.5t-21 -48.5q0 -29 20.5 -48.5t49.5 -19.5q30 0 50 19.5t20 48.5q0 28 -20 48.5t-50 20.5z" />
    <glyph glyph-name="plusminus" unicode="&#xb1;" horiz-adv-x="767" 
d="M709 419h-259v-170h-133v170h-259v110h258v170h135v-170h258v-110zM709 99h-650v114h650v-114z" />
    <glyph glyph-name="twosuperior" unicode="&#xb2;" horiz-adv-x="603" 
d="M553 388h-484v85q204 68 242 85q79 35 85 75q1 5 1 10v15q0 50 -97 50q-67 0 -89 -35q-7 -14 -9 -36h-129q0 36 13 57q40 97 226 97q226 0 228 -120v-23q-1 -54 -64 -93.5t-191 -77.5h268v-89z" />
    <glyph glyph-name="threesuperior" unicode="&#xb3;" horiz-adv-x="626" 
d="M449 598q60 -5 91 -27.5t32 -53.5v-16q-4 -118 -259 -118q-125 0 -182 26t-70 73q-5 32 -5 36h132q0 -16 1 -24q6 -40 119 -40q120 0 122 50v10q-1 21 -24.5 30.5t-79.5 9.5h-131v67h132q86 1 86 41v11q-2 41 -103 41q-98 0 -106 -40q-2 -14 -2 -18h-125q0 17 7 38
q32 97 237 97q211 0 225 -94q1 -6 1 -19q-2 -68 -98 -80z" />
    <glyph glyph-name="acute" unicode="&#xb4;" 
d="M154 598l108 167h185l-130 -167h-163z" />
    <glyph glyph-name="mu" unicode="&#xb5;" horiz-adv-x="866" 
d="M793 0h-172l-5 96q-52 -82 -186 -94q-108 -7 -164 41v-223h-184v730h180q6 0 6 -309q0 -129 158 -129q84 0 134.5 36t50.5 95v307h178v-451q0 -83 4 -99z" />
    <glyph glyph-name="mu" unicode="&#x3bc;" horiz-adv-x="866" 
d="M793 0h-172l-5 96q-52 -82 -186 -94q-108 -7 -164 41v-223h-184v730h180q6 0 6 -309q0 -129 158 -129q84 0 134.5 36t50.5 95v307h178v-451q0 -83 4 -99z" />
    <glyph glyph-name="paragraph" unicode="&#xb6;" horiz-adv-x="746" 
d="M684 791v-915h-59v816h-49v-816h-60v369q-22 -23 -77 -42t-107 -19q-197 0 -262 141q-32 66 -32 168t42 174q74 128 251 128q56 0 108.5 -15.5t75.5 -37.5l10 49h159zM513 497v44v42v18q-2 23 -38.5 39.5t-76.5 16.5q-93 0 -132 -44q-42 -50 -42 -122q0 -79 36 -121
q39 -46 134 -46q43 0 79.5 17t38.5 42q1 8 1 114z" />
    <glyph glyph-name="periodcentered" unicode="&#xb7;" horiz-adv-x="404" 
d="M306 287h-210v217h210v-217z" />
    <glyph glyph-name="periodcentered" unicode="&#x2219;" horiz-adv-x="404" 
d="M306 287h-210v217h210v-217z" />
    <glyph glyph-name="cedilla" unicode="&#xb8;" 
d="M294 -97q0 13 -12.5 21.5t-28 12.5t-30 12.5t-16.5 21.5q-4 19 -2 29h91q0 -10 3 -22q2 -9 30.5 -16t55.5 -25.5t27 -55.5q0 -59 -71.5 -77.5t-185.5 21.5v68q58 -26 98.5 -22.5t40.5 32.5z" />
    <glyph glyph-name="onesuperior" unicode="&#xb9;" horiz-adv-x="472" 
d="M344 388h-126v281l-181 -31v92q39 1 117 22t90 36h100v-400z" />
    <glyph glyph-name="ordmasculine" unicode="&#xba;" horiz-adv-x="736" 
d="M722 523q0 -113 -74 -189q-95 -98 -277 -98q-181 0 -276 98q-73 71 -73 189q0 116 79 192q95 95 271 95q182 0 276 -97q74 -71 74 -190zM714 128h-681v82h681v-82zM554 523q0 94 -45 132q-45 36 -138 36q-89 0 -134 -37q-47 -39 -47 -131q0 -95 46 -135q41 -34 137 -34
q94 0 135 37q46 42 46 132z" />
    <glyph glyph-name="guillemotright" unicode="&#xbb;" horiz-adv-x="823" 
d="M415 77v164l203 115l-203 112v164l371 -219v-117zM29 77v164l204 115l-204 112v164l372 -219v-117z" />
    <glyph glyph-name="onequarter" unicode="&#xbc;" horiz-adv-x="975" 
d="M319 388h-126v281l-182 -31v92q40 1 118 22t90 36h100v-400zM744 785l-258 -398l-244 -387h-87l268 415l233 370h88zM947 77h-88v-76h-122v80h-314v90l320 229h116v-234h88v-89zM737 166v128l-181 -128h181z" />
    <glyph glyph-name="onehalf" unicode="&#xbd;" horiz-adv-x="961" 
d="M317 388h-126v281l-181 -31v92q39 1 117 22t90 36h100v-400zM717 785l-259 -398l-243 -387h-87l268 415l233 370h88zM938 1h-484v85q204 69 232 80q85 36 94 76q2 6 2 13v15q0 50 -97 50q-66 0 -88 -35q-8 -13 -10 -36h-129q0 35 13 58q39 96 227 96q226 0 228 -120
q0 -3 -0.5 -11t-0.5 -12q-1 -53 -67 -93.5t-190 -76.5h270v-89z" />
    <glyph glyph-name="threequarters" unicode="&#xbe;" horiz-adv-x="1130" 
d="M409 598q60 -5 91 -27.5t32 -53.5v-16q-4 -118 -259 -118q-125 0 -182 26t-70 73q-5 22 -5 36h132q0 -16 1 -24q6 -40 119 -40q120 0 122 50v10q-1 21 -24.5 30.5t-79.5 9.5h-131v67h132q86 1 86 41v11q-2 41 -103 41q-98 0 -106 -40q-2 -14 -2 -18h-126q0 14 8 38
q32 97 237 97q211 0 225 -94q1 -6 1 -19q-2 -68 -98 -80zM894 785l-258 -398l-243 -387h-88l269 415l233 370h87zM1109 77h-88v-76h-121v80h-315v90l321 229h115v-234h88v-89zM900 166v129l-184 -129h184z" />
    <glyph glyph-name="questiondown" unicode="&#xbf;" horiz-adv-x="813" 
d="M379 795h194v-197h-194v197zM36 242q4 56 40 94t85.5 58t99 37.5t86 45t40.5 67.5h178q-1 -61 -33 -104.5t-77 -66t-90.5 -39t-79 -36t-35.5 -45.5q-1 -22 0 -30q5 -41 47 -61.5t134 -20.5q151 0 171 75q3 18 5 42h191q-3 -52 -18 -94q-60 -170 -364 -170
q-197 0 -285.5 48.5t-95.5 147.5q-2 24 1 52z" />
    <glyph glyph-name="Agrave" unicode="&#xc0;" horiz-adv-x="1036" 
d="M285 173l-87 -173h-200l415 785h226l398 -785h-205l-84 173h-463zM670 325l-30 61l-58 120l-30 61l-31 71l-32 -71l-124 -242h305zM607 838h-163l-130 167h185z" />
    <glyph glyph-name="Aacute" unicode="&#xc1;" horiz-adv-x="1036" 
d="M285 173l-87 -173h-200l415 785h226l398 -785h-205l-84 173h-463zM670 325l-30 61l-58 120l-30 61l-31 71l-32 -71l-124 -242h305zM432 838l108 167h185l-130 -167h-163z" />
    <glyph glyph-name="Acircumflex" unicode="&#xc2;" horiz-adv-x="1036" 
d="M285 173l-87 -173h-200l415 785h226l398 -785h-205l-84 173h-463zM670 325l-30 61l-58 120l-30 61l-31 71l-32 -71l-124 -242h305zM740 842h-137l-83 79l-84 -79h-137l133 164h175z" />
    <glyph glyph-name="Atilde" unicode="&#xc3;" horiz-adv-x="1036" 
d="M285 173l-87 -173h-200l415 785h226l398 -785h-205l-84 173h-463zM670 325l-30 61l-58 120l-30 61l-31 71l-32 -71l-124 -242h305zM533 864q-52 36 -77 34q-40 -3 -41 -54h-114q2 164 124 164q51 0 91 -29q44 -31 69 -29q21 2 30.5 12t10.5 39h113q0 -165 -115 -165
q-48 0 -91 28z" />
    <glyph glyph-name="Adieresis" unicode="&#xc4;" horiz-adv-x="1036" 
d="M285 173l-87 -173h-200l415 785h226l398 -785h-205l-84 173h-463zM670 325l-30 61l-58 120l-30 61l-31 71l-32 -71l-124 -242h305zM714 840h-145v149h145v-149zM475 840h-146v149h146v-149z" />
    <glyph glyph-name="Aring" unicode="&#xc5;" horiz-adv-x="1036" 
d="M410 779q-29 39 -29 86q0 59 42.5 100.5t102.5 41.5t102 -41.5t42 -100.5q0 -47 -28 -86l395 -779h-205l-84 173h-463l-87 -173h-200zM526 921q-23 0 -39.5 -16.5t-16.5 -39.5t16.5 -39.5t39.5 -16.5q22 0 38.5 16.5t16.5 39.5t-16 39.5t-39 16.5zM670 325l-30 61
l-58 120l-30 61l-31 71l-32 -71l-124 -242h305z" />
    <glyph glyph-name="AE" unicode="&#xc6;" horiz-adv-x="1446" 
d="M1404 785v-158h-570v-156h553v-156h-553v-157h576v-158h-759v162h-333l-125 -162h-210l629 785h792zM651 601q-50 -75 -53 -80l-176 -225h229v305z" />
    <glyph glyph-name="Ccedilla" unicode="&#xc7;" horiz-adv-x="1047" 
d="M489 -11q-259 13 -365 148q-80 94 -80 257q0 156 72 243q127 163 419 163q322 0 438 -196q33 -59 35 -128h-197q-3 44 -32 79q-65 82 -246 82q-186 0 -255 -99q-37 -52 -37 -145q0 -98 38 -150q36 -48 105 -72t151 -24q92 0 150 18t96 61q26 30 31 80h197
q-7 -84 -43 -141q-94 -165 -385 -176q0 -3 2 -11q2 -9 30.5 -16t55.5 -25.5t27 -55.5q0 -59 -71.5 -77.5t-185.5 21.5v68q58 -26 98.5 -22.5t40.5 32.5q0 13 -12.5 21.5t-28 12.5t-30 12.5t-16.5 21.5q-2 12 -2 18z" />
    <glyph glyph-name="Egrave" unicode="&#xc8;" horiz-adv-x="935" 
d="M875 0h-774v785h767v-158h-581v-155h564v-157h-564v-157h588v-158zM589 838h-163l-130 167h185z" />
    <glyph glyph-name="Eacute" unicode="&#xc9;" horiz-adv-x="935" 
d="M875 0h-774v785h767v-158h-581v-155h564v-157h-564v-157h588v-158zM387 839l108 167h185l-130 -167h-163z" />
    <glyph glyph-name="Ecircumflex" unicode="&#xca;" horiz-adv-x="935" 
d="M875 0h-774v785h767v-158h-581v-155h564v-157h-564v-157h588v-158zM712 842h-137l-83 79l-84 -79h-137l133 164h175z" />
    <glyph glyph-name="Edieresis" unicode="&#xcb;" horiz-adv-x="935" 
d="M875 0h-774v785h767v-158h-581v-155h564v-157h-564v-157h588v-158zM683 840h-145v149h145v-149zM444 840h-146v149h146v-149z" />
    <glyph glyph-name="Igrave" unicode="&#xcc;" horiz-adv-x="393" 
d="M294 0h-193v785h193v-785zM291 838h-163l-130 167h185z" />
    <glyph glyph-name="Iacute" unicode="&#xcd;" horiz-adv-x="393" 
d="M294 0h-193v785h193v-785zM108 838l108 167h185l-130 -167h-163z" />
    <glyph glyph-name="Icircumflex" unicode="&#xce;" horiz-adv-x="393" 
d="M294 0h-193v785h193v-785zM416 842h-137l-83 79l-84 -79h-137l133 164h175z" />
    <glyph glyph-name="Idieresis" unicode="&#xcf;" horiz-adv-x="393" 
d="M294 0h-193v785h193v-785zM388 840h-145v149h145v-149zM149 840h-146v149h146v-149z" />
    <glyph glyph-name="Eth" unicode="&#xd0;" horiz-adv-x="1027" 
d="M101 325h-72v131h72v329h493q254 0 337 -141q50 -76 50 -240q0 -173 -47 -252q-84 -152 -334 -152h-499v325zM289 456h236v-131h-236v-176h275q151 0 202 82q29 42 29 169q0 112 -30 155q-27 42 -73.5 61.5t-122.5 19.5h-280v-180z" />
    <glyph glyph-name="Ntilde" unicode="&#xd1;" horiz-adv-x="1041" 
d="M942 0h-197l-461 539v-539h-183v785h208l452 -527v527h181v-785zM557 864q-52 36 -77 34q-40 -3 -41 -54h-114q2 164 124 164q51 0 91 -29q44 -31 69 -29q21 2 30.5 12t10.5 39h113q0 -165 -115 -165q-48 0 -91 28z" />
    <glyph glyph-name="Ograve" unicode="&#xd2;" horiz-adv-x="1072" 
d="M536 801q273 0 403 -136q89 -95 89 -268q0 -171 -90 -273q-116 -136 -402 -136q-267 0 -395 134q-97 102 -97 275q0 164 89 260q69 74 165.5 109t237.5 35zM536 142q164 0 245 79q55 54 55 173q0 123 -54 173q-43 39 -100 58.5t-147 19.5q-167 0 -244 -80
q-54 -59 -54 -171q0 -126 66 -182q82 -70 233 -70zM638 838h-163l-130 167h185z" />
    <glyph glyph-name="Oacute" unicode="&#xd3;" horiz-adv-x="1072" 
d="M536 801q273 0 403 -136q89 -95 89 -268q0 -171 -90 -273q-116 -136 -402 -136q-267 0 -395 134q-97 102 -97 275q0 164 89 260q69 74 165.5 109t237.5 35zM536 142q164 0 245 79q55 54 55 173q0 123 -54 173q-43 39 -100 58.5t-147 19.5q-167 0 -244 -80
q-54 -59 -54 -171q0 -126 66 -182q82 -70 233 -70zM444 838l108 167h185l-130 -167h-163z" />
    <glyph glyph-name="Ocircumflex" unicode="&#xd4;" horiz-adv-x="1072" 
d="M536 801q273 0 403 -136q89 -95 89 -268q0 -171 -90 -273q-116 -136 -402 -136q-267 0 -395 134q-97 102 -97 275q0 164 89 260q69 74 165.5 109t237.5 35zM536 142q164 0 245 79q55 54 55 173q0 123 -54 173q-43 39 -100 58.5t-147 19.5q-167 0 -244 -80
q-54 -59 -54 -171q0 -126 66 -182q82 -70 233 -70zM758 842h-137l-83 79l-84 -79h-137l133 164h175z" />
    <glyph glyph-name="Otilde" unicode="&#xd5;" horiz-adv-x="1072" 
d="M536 801q273 0 403 -136q89 -95 89 -268q0 -171 -90 -273q-116 -136 -402 -136q-267 0 -395 134q-97 102 -97 275q0 164 89 260q69 74 165.5 109t237.5 35zM536 142q164 0 245 79q55 54 55 173q0 123 -54 173q-43 39 -100 58.5t-147 19.5q-167 0 -244 -80
q-54 -59 -54 -171q0 -126 66 -182q82 -70 233 -70zM553 863q-52 36 -77 34q-40 -3 -41 -54h-114q2 164 124 164q51 0 91 -29q44 -31 69 -29q21 2 30.5 12t10.5 39h113q0 -165 -115 -165q-48 0 -91 28z" />
    <glyph glyph-name="Odieresis" unicode="&#xd6;" horiz-adv-x="1072" 
d="M536 801q273 0 403 -136q89 -95 89 -268q0 -171 -90 -273q-116 -136 -402 -136q-267 0 -395 134q-97 102 -97 275q0 164 89 260q69 74 165.5 109t237.5 35zM536 142q164 0 245 79q55 54 55 173q0 123 -54 173q-43 39 -100 58.5t-147 19.5q-167 0 -244 -80
q-54 -59 -54 -171q0 -126 66 -182q82 -70 233 -70zM728 840h-145v149h145v-149zM489 840h-146v149h146v-149z" />
    <glyph glyph-name="multiply" unicode="&#xd7;" horiz-adv-x="741" 
d="M610 541l-149 -146l150 -148l-92 -98l-149 147l-149 -147l-92 99l150 147l-150 146l92 98l149 -145l149 146z" />
    <glyph glyph-name="Oslash" unicode="&#xd8;" horiz-adv-x="1072" 
d="M891 711q26 -19 49 -45q88 -94 88 -269q0 -173 -91 -273q-114 -136 -401 -136q-158 0 -271 45l-74 -74h-126q81 81 115 121q-23 17 -46 44q-90 101 -90 272q0 168 90 262q123 142 402 142q164 0 273 -44l45 44h122q-74 -82 -85 -89zM302 222l40 41l97 99l114 116l97 98
l39 41q-62 27 -154 27q-164 0 -240 -79q-58 -55 -58 -171q0 -68 40 -137q6 -7 15 -20t10 -15zM770 568l-387 -398q64 -27 153 -27q164 0 241 80q59 53 59 171q0 80 -37 136q-20 29 -29 38z" />
    <glyph glyph-name="Ugrave" unicode="&#xd9;" horiz-adv-x="1050" 
d="M959 291q0 -147 -113.5 -224.5t-324.5 -77.5q-202 0 -316.5 80.5t-114.5 239.5v476h191v-479q0 -77 63 -121t185 -44q113 0 177 44t64 121v479h189v-494zM623 839h-163l-130 167h185z" />
    <glyph glyph-name="Uacute" unicode="&#xda;" horiz-adv-x="1050" 
d="M959 291q0 -147 -113.5 -224.5t-324.5 -77.5q-202 0 -316.5 80.5t-114.5 239.5v476h191v-479q0 -77 63 -121t185 -44q113 0 177 44t64 121v479h189v-494zM427 838l108 167h185l-130 -167h-163z" />
    <glyph glyph-name="Ucircumflex" unicode="&#xdb;" horiz-adv-x="1050" 
d="M959 291q0 -147 -113.5 -224.5t-324.5 -77.5q-202 0 -316.5 80.5t-114.5 239.5v476h191v-479q0 -77 63 -121t185 -44q113 0 177 44t64 121v479h189v-494zM752 842h-137l-83 79l-84 -79h-137l133 164h175z" />
    <glyph glyph-name="Udieresis" unicode="&#xdc;" horiz-adv-x="1050" 
d="M959 291q0 -147 -113.5 -224.5t-324.5 -77.5q-202 0 -316.5 80.5t-114.5 239.5v476h191v-479q0 -77 63 -121t185 -44q113 0 177 44t64 121v479h189v-494zM724 840h-145v149h145v-149zM485 840h-146v149h146v-149z" />
    <glyph glyph-name="Yacute" unicode="&#xdd;" horiz-adv-x="1033" 
d="M1027 786l-420 -526v-260h-190v259l-415 526h217l295 -375l304 376h209zM431 837l108 167h185l-130 -167h-163z" />
    <glyph glyph-name="Thorn" unicode="&#xde;" horiz-adv-x="993" 
d="M292 785l1 -95h356q175 0 243 -77q59 -65 59 -193q0 -118 -48 -176q-70 -90 -254 -92h-358v-152h-190v785h191zM760 416q0 54 -15 76q-29 51 -136 51h-318v-252h316q108 0 139 51q14 24 14 74z" />
    <glyph glyph-name="germandbls" unicode="&#xdf;" horiz-adv-x="1162" 
d="M426 666q-106 -1 -106 -97v-569h-182v405h-120v140h120v53q0 99 76 152t227 53q119 0 194 -48.5t75 -126.5q0 -30 -12 -54t-29.5 -39.5t-35 -29.5t-29.5 -30t-12 -35q0 -13 3.5 -22.5t13.5 -16.5t19.5 -11.5t30.5 -8.5t37.5 -6t48.5 -5q72 -6 147 -15
q131 -13 190.5 -58.5t59.5 -125.5q0 -182 -353 -182q-172 0 -259.5 34.5t-113.5 110.5q-3 10 -8 51h185q0 -12 7 -29q12 -27 56 -37t132 -10q102 0 139.5 11.5t37.5 42.5t-32.5 44t-123.5 22q-5 1 -47 6l-59 7q-152 12 -218.5 48.5t-66.5 110.5q0 32 16.5 59t36.5 42.5
t36.5 39t16.5 49.5q0 32 -24.5 53.5t-73.5 21.5z" />
    <glyph glyph-name="agrave" unicode="&#xe0;" horiz-adv-x="850" 
d="M788 0h-168q-2 0 -5 7.5t-5 21t-2 27.5q-29 -28 -104 -46.5t-186 -18.5q-137 0 -207.5 40t-70.5 127q0 32 9.5 58.5t34.5 51.5t64.5 42t103 27.5t146.5 11.5q111 0 210 -11q0 20 -5 39q-19 58 -175 58q-78 0 -120 -11t-52 -24.5t-10 -36.5h-173q0 92 85.5 147.5
t261.5 55.5q163 0 245.5 -40.5t100.5 -124.5q12 -48 10 -135q-2 -56 -2 -140q0 -98 14 -126zM610 227q-82 12 -183 12q-113 0 -158.5 -17.5t-45.5 -52.5q0 -56 150 -56q237 0 237 114zM518 598h-163l-130 167h185z" />
    <glyph glyph-name="aacute" unicode="&#xe1;" horiz-adv-x="850" 
d="M788 0h-168q-2 0 -5 7.5t-5 21t-2 27.5q-29 -28 -104 -46.5t-186 -18.5q-137 0 -207.5 40t-70.5 127q0 32 9.5 58.5t34.5 51.5t64.5 42t103 27.5t146.5 11.5q111 0 210 -11q0 20 -5 39q-19 58 -175 58q-78 0 -120 -11t-52 -24.5t-10 -36.5h-173q0 92 85.5 147.5
t261.5 55.5q163 0 245.5 -40.5t100.5 -124.5q12 -48 10 -135q-2 -56 -2 -140q0 -98 14 -126zM610 227q-82 12 -183 12q-113 0 -158.5 -17.5t-45.5 -52.5q0 -56 150 -56q237 0 237 114zM332 598l108 167h185l-130 -167h-163z" />
    <glyph glyph-name="acircumflex" unicode="&#xe2;" horiz-adv-x="850" 
d="M788 0h-168q-2 0 -5 7.5t-5 21t-2 27.5q-29 -28 -104 -46.5t-186 -18.5q-137 0 -207.5 40t-70.5 127q0 32 9.5 58.5t34.5 51.5t64.5 42t103 27.5t146.5 11.5q111 0 210 -11q0 20 -5 39q-19 58 -175 58q-78 0 -120 -11t-52 -24.5t-10 -36.5h-173q0 92 85.5 147.5
t261.5 55.5q163 0 245.5 -40.5t100.5 -124.5q12 -48 10 -135q-2 -56 -2 -140q0 -98 14 -126zM610 227q-82 12 -183 12q-113 0 -158.5 -17.5t-45.5 -52.5q0 -56 150 -56q237 0 237 114zM641 602h-137l-83 79l-84 -79h-137l133 164h175z" />
    <glyph glyph-name="atilde" unicode="&#xe3;" horiz-adv-x="850" 
d="M788 0h-168q-2 0 -5 7.5t-5 21t-2 27.5q-29 -28 -104 -46.5t-186 -18.5q-137 0 -207.5 40t-70.5 127q0 32 9.5 58.5t34.5 51.5t64.5 42t103 27.5t146.5 11.5q111 0 210 -11q0 20 -5 39q-19 58 -175 58q-78 0 -120 -11t-52 -24.5t-10 -36.5h-173q0 92 85.5 147.5
t261.5 55.5q163 0 245.5 -40.5t100.5 -124.5q12 -48 10 -135q-2 -56 -2 -140q0 -98 14 -126zM610 227q-82 12 -183 12q-113 0 -158.5 -17.5t-45.5 -52.5q0 -56 150 -56q237 0 237 114zM434 623q-52 36 -77 34q-40 -3 -41 -54h-114q2 164 124 164q51 0 91 -29q44 -31 69 -29
q21 2 30.5 12t10.5 39h113q0 -165 -115 -165q-48 0 -91 28z" />
    <glyph glyph-name="adieresis" unicode="&#xe4;" horiz-adv-x="850" 
d="M788 0h-168q-2 0 -5 7.5t-5 21t-2 27.5q-29 -28 -104 -46.5t-186 -18.5q-137 0 -207.5 40t-70.5 127q0 32 9.5 58.5t34.5 51.5t64.5 42t103 27.5t146.5 11.5q111 0 210 -11q0 20 -5 39q-19 58 -175 58q-78 0 -120 -11t-52 -24.5t-10 -36.5h-173q0 92 85.5 147.5
t261.5 55.5q163 0 245.5 -40.5t100.5 -124.5q12 -48 10 -135q-2 -56 -2 -140q0 -98 14 -126zM610 227q-82 12 -183 12q-113 0 -158.5 -17.5t-45.5 -52.5q0 -56 150 -56q237 0 237 114zM617 600h-145v149h145v-149zM378 600h-146v149h146v-149z" />
    <glyph glyph-name="aring" unicode="&#xe5;" horiz-adv-x="850" 
d="M788 0h-168q-2 0 -5 7.5t-5 21t-2 27.5q-29 -28 -104 -46.5t-186 -18.5q-137 0 -207.5 40t-70.5 127q0 32 9.5 58.5t34.5 51.5t64.5 42t103 27.5t146.5 11.5q111 0 210 -11q0 20 -5 39q-19 58 -175 58q-78 0 -120 -11t-52 -24.5t-10 -36.5h-173q0 92 85.5 147.5
t261.5 55.5q163 0 245.5 -40.5t100.5 -124.5q12 -48 10 -135q-2 -56 -2 -140q0 -98 14 -126zM610 227q-82 12 -183 12q-113 0 -158.5 -17.5t-45.5 -52.5q0 -56 150 -56q237 0 237 114zM444 865q60 0 102 -41.5t42 -100.5t-42 -101.5t-102 -42.5t-102.5 42.5t-42.5 101.5
t42.5 100.5t102.5 41.5zM444 779q-23 0 -39.5 -16.5t-16.5 -39.5t16.5 -39.5t39.5 -16.5q22 0 38.5 16.5t16.5 39.5t-16 39.5t-39 16.5z" />
    <glyph glyph-name="ae" unicode="&#xe6;" horiz-adv-x="1420" 
d="M688 87q-55 -51 -136.5 -73.5t-208.5 -22.5q-279 0 -296 144q-2 17 0 34q9 78 93.5 126.5t264.5 50.5q94 0 204 -9q-1 28 -25 53q-35 44 -154 44q-105 0 -153 -31q-23 -18 -25 -41h-171q0 41 28 82q79 122 336 122q217 0 268 -101q22 42 100.5 72t191.5 30q140 0 233 -48
t130 -138q30 -66 23 -158h-612q3 -27 24 -49q23 -25 75.5 -41.5t121.5 -16.5q112 0 166 27q30 15 35 33h185q-17 -55 -61 -93q-104 -94 -325 -94q-120 0 -199 27.5t-113 70.5zM1216 325q-2 29 -25 53q-61 63 -192 63q-67 0 -117 -15.5t-74 -39.5q-31 -31 -31 -61h439z
M617 234q-108 8 -160 8q-150 0 -197 -26q-30 -17 -30 -43q0 -20 12 -32q29 -29 148 -29q90 0 145 24q13 6 16.5 7.5t15 8t16.5 11t11.5 12t10.5 15.5q8 17 12 44z" />
    <glyph glyph-name="ccedilla" unicode="&#xe7;" horiz-adv-x="852" 
d="M391 -10q-201 12 -287 103q-66 64 -66 184q0 107 63 175q102 114 336 114q269 0 350 -143q26 -47 29 -97h-174q-3 21 -22 42q-51 56 -180 56q-138 0 -192 -58q-31 -33 -31 -91q0 -61 31 -93q49 -55 194 -55q122 0 171 40q23 19 29 47h176q-5 -74 -57 -126
q-85 -90 -278 -98q0 -3 2 -11q2 -9 30.5 -16t55.5 -25.5t27 -55.5q0 -59 -71.5 -77.5t-185.5 21.5v68q58 -26 98.5 -22.5t40.5 32.5q0 13 -12.5 21.5t-28 12.5t-30 12.5t-16.5 21.5q-2 12 -2 18z" />
    <glyph glyph-name="egrave" unicode="&#xe8;" horiz-adv-x="856" 
d="M823 176q-18 -62 -67 -101q-101 -86 -317 -86q-261 0 -353 130q-47 71 -47 161q0 85 48 151q49 65 141 100.5t210 35.5q142 0 236 -47t130 -133q14 -30 22 -79.5t4 -86.5h-613q4 -32 42 -60q61 -44 186 -44q79 0 141 22q32 13 49 37h188zM652 328q0 35 -33 62
q-56 45 -182 45q-141 0 -191 -50q-26 -25 -30 -57h436zM529 598h-163l-130 167h185z" />
    <glyph glyph-name="eacute" unicode="&#xe9;" horiz-adv-x="856" 
d="M823 176q-18 -62 -67 -101q-101 -86 -317 -86q-261 0 -353 130q-47 71 -47 161q0 85 48 151q49 65 141 100.5t210 35.5q142 0 236 -47t130 -133q14 -30 22 -79.5t4 -86.5h-613q4 -32 42 -60q61 -44 186 -44q79 0 141 22q32 13 49 37h188zM652 328q0 35 -33 62
q-56 45 -182 45q-141 0 -191 -50q-26 -25 -30 -57h436zM341 598l108 167h185l-130 -167h-163z" />
    <glyph glyph-name="ecircumflex" unicode="&#xea;" horiz-adv-x="856" 
d="M823 176q-18 -62 -67 -101q-101 -86 -317 -86q-261 0 -353 130q-47 71 -47 161q0 85 48 151q49 65 141 100.5t210 35.5q142 0 236 -47t130 -133q14 -30 22 -79.5t4 -86.5h-613q4 -32 42 -60q61 -44 186 -44q79 0 141 22q32 13 49 37h188zM652 328q0 35 -33 62
q-56 45 -182 45q-141 0 -191 -50q-26 -25 -30 -57h436zM654 602h-137l-83 79l-84 -79h-137l133 164h175z" />
    <glyph glyph-name="edieresis" unicode="&#xeb;" horiz-adv-x="856" 
d="M823 176q-18 -62 -67 -101q-101 -86 -317 -86q-261 0 -353 130q-47 71 -47 161q0 85 48 151q49 65 141 100.5t210 35.5q142 0 236 -47t130 -133q14 -30 22 -79.5t4 -86.5h-613q4 -32 42 -60q61 -44 186 -44q79 0 141 22q32 13 49 37h188zM652 328q0 35 -33 62
q-56 45 -182 45q-141 0 -191 -50q-26 -25 -30 -57h436zM627 600h-145v149h145v-149zM388 600h-146v149h146v-149z" />
    <glyph glyph-name="igrave" unicode="&#xec;" horiz-adv-x="371" 
d="M286 0h-181q-11 3 -11 76v474h180v-473q0 -45 2 -59t10 -18zM270 598h-163l-130 167h185z" />
    <glyph glyph-name="iacute" unicode="&#xed;" horiz-adv-x="371" 
d="M286 0h-181q-11 3 -11 76v474h180v-473q0 -45 2 -59t10 -18zM96 598l108 167h185l-130 -167h-163z" />
    <glyph glyph-name="icircumflex" unicode="&#xee;" horiz-adv-x="371" 
d="M286 0h-181q-11 3 -11 76v474h180v-473q0 -45 2 -59t10 -18zM403 602h-137l-83 79l-84 -79h-137l133 164h175z" />
    <glyph glyph-name="idieresis" unicode="&#xef;" horiz-adv-x="371" 
d="M286 0h-181q-11 3 -11 76v474h180v-473q0 -45 2 -59t10 -18zM379 600h-145v149h145v-149zM140 600h-146v149h146v-149z" />
    <glyph glyph-name="eth" unicode="&#xf0;" horiz-adv-x="883" 
d="M634 532q-39 -22 -62 -22q-73 0 -79 79l37 7q3 -28 13.5 -38t30.5 -9q24 0 52 20q-8 20 -15 28q-51 66 -167 66q-134 0 -169 -55q-7 -8 -9 -22h-177q4 35 13 57q33 74 112.5 114.5t232.5 40.5q213 0 314 -124q19 -21 23 -28q37 25 65 25q35 -1 55.5 -23.5t24.5 -60.5
l-38 -8q-5 51 -46 51q-14 0 -43 -17q23 -41 36 -103t13 -118q0 -123 -38 -205q-84 -198 -378 -198q-347 0 -391 199q-15 62 1 122q22 87 98.5 133.5t229.5 46.5q184 0 284 -80q0 67 -23 122zM238 214q7 -42 58 -68.5t137 -26.5q83 0 139 29.5t72 80.5q9 37 12 77
q-84 71 -221 71q-172 0 -197 -87q-13 -48 0 -76z" />
    <glyph glyph-name="ntilde" unicode="&#xf1;" horiz-adv-x="865" 
d="M792 0h-177q-3 0 -4.5 7.5t-2.5 37t-1.5 85t-0.5 155.5q0 131 -160 131q-77 0 -130 -36.5t-53 -94.5v-285h-179v550h173v-102q29 59 101 88t162 29q265 0 265 -243q0 -310 7 -322zM453 623q-52 36 -77 34q-40 -3 -41 -54h-114q2 164 124 164q51 0 91 -29q44 -31 69 -29
q21 2 30.5 12t10.5 39h113q0 -165 -115 -165q-48 0 -91 28z" />
    <glyph glyph-name="ograve" unicode="&#xf2;" horiz-adv-x="884" 
d="M846 278q0 -132 -103 -210.5t-302 -78.5q-187 0 -295 74.5t-108 214.5q0 127 103.5 207.5t300.5 80.5q198 0 301 -83.5t103 -204.5zM667 277q0 67 -56 107t-169 40q-115 0 -169.5 -39.5t-54.5 -107.5q0 -79 56 -114.5t168 -35.5t168.5 39t56.5 111zM553 598h-163
l-130 167h185z" />
    <glyph glyph-name="oacute" unicode="&#xf3;" horiz-adv-x="884" 
d="M846 278q0 -132 -103 -210.5t-302 -78.5q-187 0 -295 74.5t-108 214.5q0 127 103.5 207.5t300.5 80.5q198 0 301 -83.5t103 -204.5zM667 277q0 67 -56 107t-169 40q-115 0 -169.5 -39.5t-54.5 -107.5q0 -79 56 -114.5t168 -35.5t168.5 39t56.5 111zM339 598l108 167h185
l-130 -167h-163z" />
    <glyph glyph-name="ocircumflex" unicode="&#xf4;" horiz-adv-x="884" 
d="M846 278q0 -132 -103 -210.5t-302 -78.5q-187 0 -295 74.5t-108 214.5q0 127 103.5 207.5t300.5 80.5q198 0 301 -83.5t103 -204.5zM667 277q0 67 -56 107t-169 40q-115 0 -169.5 -39.5t-54.5 -107.5q0 -79 56 -114.5t168 -35.5t168.5 39t56.5 111zM669 602h-137l-83 79
l-84 -79h-137l133 164h175z" />
    <glyph glyph-name="otilde" unicode="&#xf5;" horiz-adv-x="884" 
d="M846 278q0 -132 -103 -210.5t-302 -78.5q-187 0 -295 74.5t-108 214.5q0 127 103.5 207.5t300.5 80.5q198 0 301 -83.5t103 -204.5zM667 277q0 67 -56 107t-169 40q-115 0 -169.5 -39.5t-54.5 -107.5q0 -79 56 -114.5t168 -35.5t168.5 39t56.5 111zM455 623
q-52 36 -77 34q-40 -3 -41 -54h-114q2 164 124 164q51 0 91 -29q44 -31 69 -29q21 2 30.5 12t10.5 39h113q0 -165 -115 -165q-48 0 -91 28z" />
    <glyph glyph-name="odieresis" unicode="&#xf6;" horiz-adv-x="884" 
d="M846 278q0 -132 -103 -210.5t-302 -78.5q-187 0 -295 74.5t-108 214.5q0 127 103.5 207.5t300.5 80.5q198 0 301 -83.5t103 -204.5zM667 277q0 67 -56 107t-169 40q-115 0 -169.5 -39.5t-54.5 -107.5q0 -79 56 -114.5t168 -35.5t168.5 39t56.5 111zM631 600h-145v149h145
v-149zM392 600h-146v149h146v-149z" />
    <glyph glyph-name="divide" unicode="&#xf7;" horiz-adv-x="782" 
d="M470 553h-155v129h155v-129zM724 323h-666v135h666v-135zM470 100h-154v128h154v-128z" />
    <glyph glyph-name="oslash" unicode="&#xf8;" horiz-adv-x="883" 
d="M143 66q-39 28 -57 58q-48 63 -48 154q0 90 48 151q44 64 134.5 100.5t221.5 36.5q123 0 216 -36l48 42h130q-97 -84 -97 -85q34 -24 57 -55q50 -67 50 -154q0 -91 -49 -154q-92 -135 -356 -135q-125 0 -219 36q-4 -6 -17 -17.5t-23 -19.5l-11 -9h-126zM265 176l265 239
q-42 8 -88 8q-145 0 -202 -73q-22 -26 -22 -73q0 -33 10 -56q12 -26 37 -45zM617 377l-268 -239q39 -10 93 -10q156 0 203 73q22 29 22 76q0 30 -14 60q-14 26 -36 40z" />
    <glyph glyph-name="ugrave" unicode="&#xf9;" horiz-adv-x="864" 
d="M781 0h-172l-4 84q-69 -96 -266 -96q-126 0 -194 48t-68 161q-1 344 -9 353v0v0h1v0h1v0h1v0h1h1h1h1h1h1h1h1h1h1h1h1h1h1h1h1h1h1h1h1h1h1h1h1h1h1h1h1h1h1h1h1h1h2h1h1h1h1h1h2h1h1h1h1h2h1h1h2h1h1h1h2h1h1h2h1h2h1h1h2h1h2h1h1h2h1h2h1h2h1h2h1h2h1h2h1h2h2h1h2h1h2
h2h1h2h1h2h2h1h2h2h2h1h2h2h1h2h2h2h1h2h2h2h2h1h2h2h2h2h2h1h2h2h2h2h2h2h2h2h2h2h8q6 0 6 -300q0 -122 159 -122q84 0 134 34.5t50 90.5v297h179v-454q0 -17 0.5 -32.5t1 -26.5t0.5 -19t0.5 -12.5t0.5 -5.5zM528 598h-163l-130 167h185z" />
    <glyph glyph-name="uacute" unicode="&#xfa;" horiz-adv-x="864" 
d="M781 0h-172l-4 84q-69 -96 -266 -96q-126 0 -194 48t-68 161q-1 344 -9 353v0v0h1v0h1v0h1v0h1h1h1h1h1h1h1h1h1h1h1h1h1h1h1h1h1h1h1h1h1h1h1h1h1h1h1h1h1h1h1h1h1h2h1h1h1h1h1h2h1h1h1h1h2h1h1h2h1h1h1h2h1h1h2h1h2h1h1h2h1h2h1h1h2h1h2h1h2h1h2h1h2h1h2h1h2h2h1h2h1h2
h2h1h2h1h2h2h1h2h2h2h1h2h2h1h2h2h2h1h2h2h2h2h1h2h2h2h2h2h1h2h2h2h2h2h2h2h2h2h2h8q6 0 6 -300q0 -122 159 -122q84 0 134 34.5t50 90.5v297h179v-454q0 -17 0.5 -32.5t1 -26.5t0.5 -19t0.5 -12.5t0.5 -5.5zM330 598l108 167h185l-130 -167h-163z" />
    <glyph glyph-name="ucircumflex" unicode="&#xfb;" horiz-adv-x="864" 
d="M781 0h-172l-4 84q-69 -96 -266 -96q-126 0 -194 48t-68 161q-1 344 -9 353v0v0h1v0h1v0h1v0h1h1h1h1h1h1h1h1h1h1h1h1h1h1h1h1h1h1h1h1h1h1h1h1h1h1h1h1h1h1h1h1h1h2h1h1h1h1h1h2h1h1h1h1h2h1h1h2h1h1h1h2h1h1h2h1h2h1h1h2h1h2h1h1h2h1h2h1h2h1h2h1h2h1h2h1h2h2h1h2h1h2
h2h1h2h1h2h2h1h2h2h2h1h2h2h1h2h2h2h1h2h2h2h2h1h2h2h2h2h2h1h2h2h2h2h2h2h2h2h2h2h8q6 0 6 -300q0 -122 159 -122q84 0 134 34.5t50 90.5v297h179v-454q0 -17 0.5 -32.5t1 -26.5t0.5 -19t0.5 -12.5t0.5 -5.5zM645 602h-137l-83 79l-84 -79h-137l133 164h175z" />
    <glyph glyph-name="udieresis" unicode="&#xfc;" horiz-adv-x="864" 
d="M781 0h-172l-4 84q-69 -96 -266 -96q-126 0 -194 48t-68 161q-1 344 -9 353v0v0h1v0h1v0h1v0h1h1h1h1h1h1h1h1h1h1h1h1h1h1h1h1h1h1h1h1h1h1h1h1h1h1h1h1h1h1h1h1h1h2h1h1h1h1h1h2h1h1h1h1h2h1h1h2h1h1h1h2h1h1h2h1h2h1h1h2h1h2h1h1h2h1h2h1h2h1h2h1h2h1h2h1h2h2h1h2h1h2
h2h1h2h1h2h2h1h2h2h2h1h2h2h1h2h2h2h1h2h2h2h2h1h2h2h2h2h2h1h2h2h2h2h2h2h2h2h2h2h8q6 0 6 -300q0 -122 159 -122q84 0 134 34.5t50 90.5v297h179v-454q0 -17 0.5 -32.5t1 -26.5t0.5 -19t0.5 -12.5t0.5 -5.5zM616 600h-145v149h145v-149zM377 600h-146v149h146v-149z" />
    <glyph glyph-name="yacute" unicode="&#xfd;" horiz-adv-x="843" 
d="M833 550l-410 -730h-198l106 180l-321 550h191q228 -396 228 -399l218 399h186zM329 598l108 167h185l-130 -167h-163z" />
    <glyph glyph-name="thorn" unicode="&#xfe;" horiz-adv-x="895" 
d="M855 286q0 -79 -29 -140q-36 -73 -113 -112.5t-183 -39.5q-82 0 -154 21.5t-104 66.5v-262h-192v975h195v-323q21 43 89.5 73t167.5 30q220 0 295 -155q28 -59 28 -134zM653 282q0 57 -27 91q-46 58 -170 58q-118 0 -163 -63q-27 -39 -27 -88q0 -47 23 -82
q42 -64 168 -64q134 0 177 67q19 30 19 81z" />
    <glyph glyph-name="ydieresis" unicode="&#xff;" horiz-adv-x="843" 
d="M833 550l-410 -730h-198l106 180l-321 550h191q228 -396 228 -399l218 399h186zM617 600h-145v149h145v-149zM378 600h-146v149h146v-149z" />
    <glyph glyph-name="dotlessi" unicode="&#x131;" horiz-adv-x="371" 
d="M286 0h-181q-11 3 -11 76v474h180v-473q0 -45 2 -59t10 -18z" />
    <glyph glyph-name="Lslash" unicode="&#x141;" horiz-adv-x="833" 
d="M291 324v-164h513v-160h-703v283l-61 -17v124l61 16v379h190v-337l294 76v-124z" />
    <glyph glyph-name="lslash" unicode="&#x142;" horiz-adv-x="362" 
d="M270 293v-235q0 -54 9 -58h-180q-8 3 -8 55v189l-76 -23v137l76 23v340q0 51 -4 71h178q5 -22 5 -65v-297l78 24v-137z" />
    <glyph glyph-name="OE" unicode="&#x152;" horiz-adv-x="1558" 
d="M769 785h745v-157h-569v-157h552v-155h-552v-159h576v-157h-755l1 49q-78 -61 -253 -61q-128 0 -237.5 44.5t-167.5 128.5q-66 95 -66 235q0 155 84 253q69 80 164.5 115.5t224.5 35.5q149 0 253 -61v46zM538 144q90 0 149 18t76 44q6 11 6 191q0 162 -7 176
q-69 71 -225 71q-165 0 -247 -88q-53 -59 -53 -162q0 -106 60 -167q78 -83 241 -83z" />
    <glyph glyph-name="oe" unicode="&#x153;" horiz-adv-x="1483" 
d="M445 -11q-263 0 -359 135q-48 62 -48 154q0 88 49 152q43 63 134 99.5t225 36.5q122 0 202 -31t113 -76q29 45 110 76.5t193 31.5q142 0 235 -47t129 -133q15 -30 23 -79t4 -87h-612q7 -35 42 -60q61 -44 179 -44q89 0 148 21q40 15 50 38h186q-15 -58 -68 -98
q-102 -89 -316 -89q-233 0 -310 100q-85 -100 -309 -100zM1278 328q-9 37 -36 59q-59 52 -179 52q-130 0 -189 -52q-29 -26 -33 -59h437zM674 277q0 47 -22 76q-52 70 -206 70q-152 0 -206 -72q-24 -31 -24 -74q0 -46 22 -77q49 -72 208 -72t207 75q21 30 21 74z" />
    <glyph glyph-name="Scaron" unicode="&#x160;" horiz-adv-x="1007" 
d="M953 236q0 -119 -109 -183.5t-328 -64.5q-128 0 -222 22.5t-145 61t-74.5 83.5t-23.5 98h202q0 -51 70 -82.5t202 -31.5q129 0 179.5 21t50.5 63q0 44 -39.5 62.5t-165.5 32.5q-75 7 -158 19q-177 20 -254.5 74t-77.5 151q0 106 108.5 170.5t319.5 64.5
q223 0 331.5 -73.5t108.5 -181.5h-200q0 104 -252 104q-89 0 -138 -8.5t-66 -24t-17 -41.5t19 -41t66.5 -26t147.5 -23q48 -7 169 -20q152 -16 224 -71.5t72 -154.5zM271 1007h137l84 -89l84 89h137l-133 -164h-176z" />
    <glyph glyph-name="scaron" unicode="&#x161;" horiz-adv-x="791" 
d="M756 167q0 -90 -82 -134t-266 -44q-186 0 -270 33t-105 111q-6 25 -6 46h176q0 -16 9 -29q21 -31 195 -31q76 0 116 5.5t51.5 14.5t11.5 26q0 22 -29 30t-132 16l-140 14q-127 12 -186.5 53t-59.5 119q0 81 84 125.5t246 44.5q161 0 243.5 -31t108.5 -101q9 -29 9 -56
h-173q0 14 -8 25q-24 29 -171 29q-71 0 -108.5 -4.5t-48.5 -12t-11 -21.5t9 -20.5t39.5 -11.5t98.5 -11q58 -6 151 -14q133 -10 190.5 -50t57.5 -121zM171 767h137l84 -89l84 89h137l-133 -164h-176z" />
    <glyph glyph-name="Ydieresis" unicode="&#x178;" horiz-adv-x="1033" 
d="M1027 786l-420 -526v-260h-190v259l-415 526h217l295 -375l304 376h209zM716 840h-145v149h145v-149zM477 840h-146v149h146v-149z" />
    <glyph glyph-name="Zcaron" unicode="&#x17d;" horiz-adv-x="912" 
d="M884 0h-847v148l556 479h-528v158h801v-145l-571 -484h589v-156zM234 1007h137l84 -89l84 89h137l-133 -164h-176z" />
    <glyph glyph-name="zcaron" unicode="&#x17e;" horiz-adv-x="759" 
d="M722 0h-679v121l381 285h-369v139h646v-123l-384 -284h405v-138zM156 767h137l84 -89l84 89h137l-133 -164h-176z" />
    <glyph glyph-name="florin" unicode="&#x192;" horiz-adv-x="585" 
d="M288 -9q-11 -92 -68 -140t-155 -48q-76 0 -153 11l1 143q32 -6 87 -6q42 1 69.5 22t31.5 57q0 3 8.5 83l18.5 175.5t13 126.5h-109l1 144h127l9 80q20 170 254 170q62 0 155 -15l-1 -130q-76 12 -106 11q-112 -1 -119 -67l-6 -51h206v-142h-221q-2 -26 -22 -219.5
t-21 -204.5z" />
    <glyph glyph-name="circumflex" unicode="&#x2c6;" 
d="M484 602h-137l-83 79l-84 -79h-137l133 164h175z" />
    <glyph glyph-name="caron" unicode="&#x2c7;" 
d="M42 767h137l84 -89l84 89h137l-133 -164h-176z" />
    <glyph glyph-name="breve" unicode="&#x2d8;" 
d="M462 762q0 -68 -52 -118t-146 -50q-91 0 -145.5 50.5t-54.5 117.5h120q0 -36 21 -57.5t58 -21.5t58.5 21t21.5 58h119z" />
    <glyph glyph-name="dotaccent" unicode="&#x2d9;" 
d="M335 603h-142v143h142v-143z" />
    <glyph glyph-name="ring" unicode="&#x2da;" 
d="M264 849q60 0 102 -41.5t42 -100.5t-42 -101.5t-102 -42.5t-102.5 42.5t-42.5 101.5t42.5 100.5t102.5 41.5zM264 763q-23 0 -39.5 -16.5t-16.5 -39.5t16.5 -39.5t39.5 -16.5q22 0 38.5 16.5t16.5 39.5t-16 39.5t-39 16.5z" />
    <glyph glyph-name="ogonek" unicode="&#x2db;" horiz-adv-x="538" 
d="M249 -94q0 -17 25.5 -27.5t69.5 -11.5v-60q-194 6 -194 99q0 90 168 94l3 -53q-72 -5 -72 -41z" />
    <glyph glyph-name="tilde" unicode="&#x2dc;" 
d="M276 623q-52 36 -77 34q-40 -3 -41 -54h-114q2 164 124 164q51 0 91 -29q44 -31 69 -29q21 2 30.5 12t10.5 39h113q0 -165 -115 -165q-48 0 -91 28z" />
    <glyph glyph-name="hungarumlaut" unicode="&#x2dd;" 
d="M285 598l103 167h131l-124 -167h-110zM105 598l103 167h131l-124 -167h-110z" />
    <glyph glyph-name="Delta" unicode="&#x394;" horiz-adv-x="674" 
d="M534 608q29 24 36 32q14 13 22 7t-6 -15q-3 -2 -6 -3zM144 599l-46 21q-17 7 -13 16q3 9 19 -1l4 -4q7 -8 36 -32zM320 533l1 134h-316v128h664v-128h-316l2 -134q47 -8 79 -44.5t32 -84.5q0 -50 -32 -86.5t-80 -43.5l-2 -131h317v-138h-664v138h316l-3 131
q-46 8 -77.5 44t-31.5 86q0 48 32 84.5t79 44.5zM537 202l46 -21q17 -7 14 -16q-4 -9 -20 1l-4 4q-7 8 -36 32zM130 192q-6 -6 -19 -17t-17 -15q-14 -14 -21 -8q-8 6 5 16q3 1 6 3q25 9 46 21zM352 489v-47l-16 -34l-14 34v47q-30 -6 -50.5 -30t-20.5 -55t20 -54.5t50 -29.5
v47l15 33l15 -33v-47q30 5 51 29t21 55t-20.5 55t-50.5 30z" />
    <glyph glyph-name="Delta" unicode="&#x2206;" horiz-adv-x="674" 
d="M534 608q29 24 36 32q14 13 22 7t-6 -15q-3 -2 -6 -3zM144 599l-46 21q-17 7 -13 16q3 9 19 -1l4 -4q7 -8 36 -32zM320 533l1 134h-316v128h664v-128h-316l2 -134q47 -8 79 -44.5t32 -84.5q0 -50 -32 -86.5t-80 -43.5l-2 -131h317v-138h-664v138h316l-3 131
q-46 8 -77.5 44t-31.5 86q0 48 32 84.5t79 44.5zM537 202l46 -21q17 -7 14 -16q-4 -9 -20 1l-4 4q-7 8 -36 32zM130 192q-6 -6 -19 -17t-17 -15q-14 -14 -21 -8q-8 6 5 16q3 1 6 3q25 9 46 21zM352 489v-47l-16 -34l-14 34v47q-30 -6 -50.5 -30t-20.5 -55t20 -54.5t50 -29.5
v47l15 33l15 -33v-47q30 5 51 29t21 55t-20.5 55t-50.5 30z" />
    <glyph glyph-name="Omega" unicode="&#x3a9;" horiz-adv-x="674" 
d="M534 608q29 24 36 32q14 13 22 7t-6 -15q-3 -2 -6 -3zM144 599l-46 21q-17 7 -13 16q3 9 19 -1l4 -4q7 -8 36 -32zM320 533l1 134h-316v128h664v-128h-316l2 -134q47 -8 79 -44.5t32 -84.5q0 -50 -32 -86.5t-80 -43.5l-2 -131h317v-138h-664v138h316l-3 131
q-46 8 -77.5 44t-31.5 86q0 48 32 84.5t79 44.5zM537 202l46 -21q17 -7 14 -16q-4 -9 -20 1l-4 4q-7 8 -36 32zM130 192q-6 -6 -19 -17t-17 -15q-14 -14 -21 -8q-8 6 5 16q3 1 6 3q25 9 46 21zM352 489v-47l-16 -34l-14 34v47q-30 -6 -50.5 -30t-20.5 -55t20 -54.5t50 -29.5
v47l15 33l15 -33v-47q30 5 51 29t21 55t-20.5 55t-50.5 30z" />
    <glyph glyph-name="Omega" unicode="&#x2126;" horiz-adv-x="674" 
d="M534 608q29 24 36 32q14 13 22 7t-6 -15q-3 -2 -6 -3zM144 599l-46 21q-17 7 -13 16q3 9 19 -1l4 -4q7 -8 36 -32zM320 533l1 134h-316v128h664v-128h-316l2 -134q47 -8 79 -44.5t32 -84.5q0 -50 -32 -86.5t-80 -43.5l-2 -131h317v-138h-664v138h316l-3 131
q-46 8 -77.5 44t-31.5 86q0 48 32 84.5t79 44.5zM537 202l46 -21q17 -7 14 -16q-4 -9 -20 1l-4 4q-7 8 -36 32zM130 192q-6 -6 -19 -17t-17 -15q-14 -14 -21 -8q-8 6 5 16q3 1 6 3q25 9 46 21zM352 489v-47l-16 -34l-14 34v47q-30 -6 -50.5 -30t-20.5 -55t20 -54.5t50 -29.5
v47l15 33l15 -33v-47q30 5 51 29t21 55t-20.5 55t-50.5 30z" />
    <glyph glyph-name="pi" unicode="&#x3c0;" horiz-adv-x="891" 
d="M850 381q-5 -125 -114 -205.5t-289 -80.5q-183 0 -292.5 80t-112.5 206q-4 73 0 137q6 128 116.5 205t288.5 77q174 0 285 -77.5t118 -205.5q3 -39 0 -136zM805 392q1 19 1 59t-1 55q-5 114 -104.5 181.5t-253.5 67.5q-155 0 -255.5 -64t-104.5 -183v-37.5v-50v-27.5
q2 -115 103 -184.5t257 -69.5q158 0 256 70t102 183zM372 370v-134h-149v421h288q88 0 135 -39q41 -35 41 -103q0 -71 -34 -106q-18 -18 -53.5 -28.5t-69.5 -10.5h-158zM541 507q0 20 -13.5 33t-39.5 13h-116v-90h115q54 0 54 44z" />
    <glyph glyph-name="endash" unicode="&#x2013;" horiz-adv-x="665" 
d="M633 246h-600v167h600v-167z" />
    <glyph glyph-name="emdash" unicode="&#x2014;" horiz-adv-x="849" 
d="M806 247h-764v166h764v-166z" />
    <glyph glyph-name="quoteleft" unicode="&#x2018;" horiz-adv-x="327" 
d="M279 653v-232h-222v229l137 151l92 -69l-57 -81l14 2h36z" />
    <glyph glyph-name="quoteright" unicode="&#x2019;" horiz-adv-x="327" 
d="M49 562v233h223v-230l-138 -150l-91 68l56 81l-13 -2h-37z" />
    <glyph glyph-name="quotesinglbase" unicode="&#x201a;" horiz-adv-x="327" 
d="M49 0v233h223v-229l-138 -152l-91 68l56 82l-13 -2h-37z" />
    <glyph glyph-name="quotedblleft" unicode="&#x201c;" horiz-adv-x="612" 
d="M555 639v-218h-207v215l138 165l91 -69l-69 -95l12 2h35zM264 639v-218h-207v215l138 165l91 -69l-69 -95l12 2h35z" />
    <glyph glyph-name="quotedblright" unicode="&#x201d;" horiz-adv-x="612" 
d="M353 577v218h207v-216l-138 -164l-91 68l69 96l-13 -2h-34zM62 577v218h207v-216l-138 -164l-91 68l69 96l-13 -2h-34z" />
    <glyph glyph-name="quotedblbase" unicode="&#x201e;" horiz-adv-x="612" 
d="M353 0v218h207v-215l-138 -165l-91 68l69 96l-13 -2h-34zM62 0v218h207v-215l-138 -165l-91 68l69 96l-13 -2h-34z" />
    <glyph glyph-name="dagger" unicode="&#x2020;" horiz-adv-x="616" 
d="M600 373h-198v-359l-97 -145l-94 145v359h-196v161h196l-1 260h193q0 -200 -1 -260h198v-161z" />
    <glyph glyph-name="daggerdbl" unicode="&#x2021;" horiz-adv-x="616" 
d="M403 352h187v-133h-184v-207l-96 -143l-91 143v207h-193v133h196v91h-196v133h193l-1 218h189q0 -188 -1 -218h184v-133h-187v-91z" />
    <glyph glyph-name="bullet" unicode="&#x2022;" horiz-adv-x="496" 
d="M250 220q-60 0 -103 41t-43 101t43 101.5t103 41.5t103 -41.5t43 -101.5t-43 -101t-103 -41z" />
    <glyph glyph-name="ellipsis" unicode="&#x2026;" horiz-adv-x="1220" 
d="M1122 0h-213v217h213v-217zM716 0h-213v217h213v-217zM309 0h-212v217h212v-217z" />
    <glyph glyph-name="perthousand" unicode="&#x2030;" horiz-adv-x="1910" 
d="M623 572q0 -78 -79.5 -134.5t-208.5 -56.5q-131 0 -208 55.5t-77 135.5v37q0 78 76.5 135t209.5 57q136 0 211.5 -58.5t75.5 -133.5v-37zM1249 181q0 -81 -76 -136.5t-213 -55.5q-131 0 -207.5 56.5t-76.5 135.5v37q0 75 77.5 133t208.5 58q135 0 211 -59t76 -132v-37z
M1869 181q0 -80 -76.5 -136t-213.5 -56q-130 0 -206.5 56.5t-76.5 135.5v37q0 76 77 133.5t209 57.5q134 0 210.5 -59t76.5 -132v-37zM996 780l-607 -780h-100l609 780h98zM486 578v21q0 34 -40.5 61.5t-108.5 27.5q-73 0 -111.5 -25.5t-38.5 -62.5v-22q0 -36 40 -61
t111 -25q74 0 111 26t37 60zM1732 188v21q0 33 -39.5 60t-110.5 27q-73 0 -111 -26.5t-38 -60.5v-21q0 -35 39.5 -61.5t109.5 -26.5q78 0 114 26.5t36 61.5zM1112 188v21q0 33 -39 60t-110 27q-73 0 -111.5 -26.5t-38.5 -60.5v-21q0 -35 40 -61.5t110 -26.5q77 0 113 26.5
t36 61.5z" />
    <glyph glyph-name="guilsinglleft" unicode="&#x2039;" horiz-adv-x="426" 
d="M402 77l-371 219v117l371 219v-164l-213 -112l213 -115v-164z" />
    <glyph glyph-name="guilsinglright" unicode="&#x203a;" horiz-adv-x="426" 
d="M24 77v164l213 115l-213 112v164l371 -219v-117z" />
    <glyph glyph-name="fraction" unicode="&#x2044;" horiz-adv-x="287" 
d="M436 785l-502 -785h-73l500 785h75z" />
    <glyph glyph-name="fraction" unicode="&#x2215;" horiz-adv-x="287" 
d="M436 785l-502 -785h-73l500 785h75z" />
    <glyph glyph-name="Euro" unicode="&#x20ac;" horiz-adv-x="984" 
d="M305 405v-21h366v-92h-357q1 -4 2.5 -11.5t2.5 -11.5q36 -132 210 -132q86 0 139 35t71 98q1 4 2.5 13.5t2.5 12.5h195q-5 -36 -12 -60q-35 -119 -139.5 -183t-258.5 -64q-166 0 -268 65.5t-134 192.5q-2 6 -9 45h-97v92h91v21h-91v91h97q2 10 8 43q30 119 132.5 188.5
t270.5 69.5q158 0 262 -67.5t137 -178.5q8 -30 13 -67h-197q-3 24 -9 40q-42 122 -205 122q-87 0 -141 -35t-71 -96q0 -3 -1.5 -9l-2.5 -10h357v-91h-366z" />
    <glyph glyph-name="trademark" unicode="&#x2122;" horiz-adv-x="1070" 
d="M884 485v151q0 41 -42 41q-21 0 -33.5 -14.5t-12.5 -37.5v-140h-149v155q0 17 -11.5 27t-30.5 10q-20 0 -34 -15.5t-14 -36.5v-140h-149v307h149v-46q10 24 46 37.5t78 13.5q81 0 101 -53q24 53 123 53q65 0 99.5 -32t34.5 -76v-204h-155zM377 684h-127v-62q0 -38 53 -38
q43 0 49 1v-98q-23 -7 -102 -7q-61 0 -95 27t-34 76v101h-113v108h369v-108z" />
    <glyph glyph-name="partialdiff" unicode="&#x2202;" horiz-adv-x="674" 
d="M534 608q29 24 36 32q14 13 22 7t-6 -15q-3 -2 -6 -3zM144 599l-46 21q-17 7 -13 16q3 9 19 -1l4 -4q7 -8 36 -32zM320 533l1 134h-316v128h664v-128h-316l2 -134q47 -8 79 -44.5t32 -84.5q0 -50 -32 -86.5t-80 -43.5l-2 -131h317v-138h-664v138h316l-3 131
q-46 8 -77.5 44t-31.5 86q0 48 32 84.5t79 44.5zM537 202l46 -21q17 -7 14 -16q-4 -9 -20 1l-4 4q-7 8 -36 32zM130 192q-6 -6 -19 -17t-17 -15q-14 -14 -21 -8q-8 6 5 16q3 1 6 3q25 9 46 21zM352 489v-47l-16 -34l-14 34v47q-30 -6 -50.5 -30t-20.5 -55t20 -54.5t50 -29.5
v47l15 33l15 -33v-47q30 5 51 29t21 55t-20.5 55t-50.5 30z" />
    <glyph glyph-name="product" unicode="&#x220f;" horiz-adv-x="674" 
d="M534 608q29 24 36 32q14 13 22 7t-6 -15q-3 -2 -6 -3zM144 599l-46 21q-17 7 -13 16q3 9 19 -1l4 -4q7 -8 36 -32zM320 533l1 134h-316v128h664v-128h-316l2 -134q47 -8 79 -44.5t32 -84.5q0 -50 -32 -86.5t-80 -43.5l-2 -131h317v-138h-664v138h316l-3 131
q-46 8 -77.5 44t-31.5 86q0 48 32 84.5t79 44.5zM537 202l46 -21q17 -7 14 -16q-4 -9 -20 1l-4 4q-7 8 -36 32zM130 192q-6 -6 -19 -17t-17 -15q-14 -14 -21 -8q-8 6 5 16q3 1 6 3q25 9 46 21zM352 489v-47l-16 -34l-14 34v47q-30 -6 -50.5 -30t-20.5 -55t20 -54.5t50 -29.5
v47l15 33l15 -33v-47q30 5 51 29t21 55t-20.5 55t-50.5 30z" />
    <glyph glyph-name="summation" unicode="&#x2211;" horiz-adv-x="674" 
d="M534 608q29 24 36 32q14 13 22 7t-6 -15q-3 -2 -6 -3zM144 599l-46 21q-17 7 -13 16q3 9 19 -1l4 -4q7 -8 36 -32zM320 533l1 134h-316v128h664v-128h-316l2 -134q47 -8 79 -44.5t32 -84.5q0 -50 -32 -86.5t-80 -43.5l-2 -131h317v-138h-664v138h316l-3 131
q-46 8 -77.5 44t-31.5 86q0 48 32 84.5t79 44.5zM537 202l46 -21q17 -7 14 -16q-4 -9 -20 1l-4 4q-7 8 -36 32zM130 192q-6 -6 -19 -17t-17 -15q-14 -14 -21 -8q-8 6 5 16q3 1 6 3q25 9 46 21zM352 489v-47l-16 -34l-14 34v47q-30 -6 -50.5 -30t-20.5 -55t20 -54.5t50 -29.5
v47l15 33l15 -33v-47q30 5 51 29t21 55t-20.5 55t-50.5 30z" />
    <glyph glyph-name="minus" unicode="&#x2212;" horiz-adv-x="785" 
d="M724 303h-666v151h666v-151z" />
    <glyph glyph-name="radical" unicode="&#x221a;" horiz-adv-x="975" 
d="M965 787l-493 -814h-186l-274 349h203l161 -192l400 657h189z" />
    <glyph glyph-name="infinity" unicode="&#x221e;" horiz-adv-x="824" 
d="M782 376q0 -132 -207 -132q-114 0 -167 44q-55 -44 -169 -44q-108 0 -152.5 33.5t-44.5 93.5q0 131 196 131q118 0 166 -52q56 52 165 52q115 0 164 -31.5t49 -94.5zM658 376q0 53 -88 53q-25 0 -42.5 -5t-30.5 -18t-19.5 -22t-17.5 -29q31 -38 101 -38q97 0 97 59z
M245 317q41 0 62.5 16t41.5 48q-30 48 -100 48q-83 0 -83 -59q0 -27 18.5 -40t60.5 -13z" />
    <glyph glyph-name="integral" unicode="&#x222b;" horiz-adv-x="674" 
d="M534 608q29 24 36 32q14 13 22 7t-6 -15q-3 -2 -6 -3zM144 599l-46 21q-17 7 -13 16q3 9 19 -1l4 -4q7 -8 36 -32zM320 533l1 134h-316v128h664v-128h-316l2 -134q47 -8 79 -44.5t32 -84.5q0 -50 -32 -86.5t-80 -43.5l-2 -131h317v-138h-664v138h316l-3 131
q-46 8 -77.5 44t-31.5 86q0 48 32 84.5t79 44.5zM537 202l46 -21q17 -7 14 -16q-4 -9 -20 1l-4 4q-7 8 -36 32zM130 192q-6 -6 -19 -17t-17 -15q-14 -14 -21 -8q-8 6 5 16q3 1 6 3q25 9 46 21zM352 489v-47l-16 -34l-14 34v47q-30 -6 -50.5 -30t-20.5 -55t20 -54.5t50 -29.5
v47l15 33l15 -33v-47q30 5 51 29t21 55t-20.5 55t-50.5 30z" />
    <glyph glyph-name="approxequal" unicode="&#x2248;" horiz-adv-x="825" 
d="M783 591q3 -91 -46.5 -145t-141.5 -54q-84 0 -168 44l-31.5 15.5t-33.5 16t-29 12t-36 10t-35 2.5q-84 0 -84 -67h-136q-4 90 45 144t141 54q42 0 81 -10t59.5 -19.5t54.5 -27.5l45 -23.5t41.5 -15t52.5 -7.5q42 0 63.5 19.5t21.5 51.5h136zM783 363q3 -91 -46.5 -144.5
t-141.5 -53.5q-84 0 -168 44l-31.5 15.5t-33.5 16t-29 12t-36 10t-35 2.5q-84 0 -84 -68l-136 1q-4 89 45 143t141 54q42 0 81.5 -10t58.5 -18.5t55 -27.5l45 -23.5t41.5 -15t52.5 -7.5q42 0 63.5 19t21.5 51h136z" />
    <glyph glyph-name="notequal" unicode="&#x2260;" horiz-adv-x="761" 
d="M718 222h-412l-61 -92h-75l63 92h-191v126h277l51 74h-328v128h415l71 102h73l-71 -102h188v-128h-273l-52 -74h325v-126z" />
    <glyph glyph-name="lessequal" unicode="&#x2264;" horiz-adv-x="767" 
d="M708 245l-650 175v111l650 177v-117l-484 -115l484 -114v-117zM708 99h-650v114h650v-114z" />
    <glyph glyph-name="greaterequal" unicode="&#x2265;" horiz-adv-x="767" 
d="M708 420l-650 -175v117l485 114l-485 115v117l650 -177v-111zM708 99h-650v114h650v-114z" />
    <glyph glyph-name="lozenge" unicode="&#x25ca;" horiz-adv-x="982" 
d="M959 320l-381 -320h-174l-381 320l381 320h174zM741 320l-249 211l-251 -211l251 -215z" />
    <glyph glyph-name="apple" unicode="&#xf8ff;" horiz-adv-x="674" 
d="M534 608q29 24 36 32q14 13 22 7t-6 -15q-3 -2 -6 -3zM144 599l-46 21q-17 7 -13 16q3 9 19 -1l4 -4q7 -8 36 -32zM320 533l1 134h-316v128h664v-128h-316l2 -134q47 -8 79 -44.5t32 -84.5q0 -50 -32 -86.5t-80 -43.5l-2 -131h317v-138h-664v138h316l-3 131
q-46 8 -77.5 44t-31.5 86q0 48 32 84.5t79 44.5zM537 202l46 -21q17 -7 14 -16q-4 -9 -20 1l-4 4q-7 8 -36 32zM130 192q-6 -6 -19 -17t-17 -15q-14 -14 -21 -8q-8 6 5 16q3 1 6 3q25 9 46 21zM352 489v-47l-16 -34l-14 34v47q-30 -6 -50.5 -30t-20.5 -55t20 -54.5t50 -29.5
v47l15 33l15 -33v-47q30 5 51 29t21 55t-20.5 55t-50.5 30z" />
    <glyph glyph-name="NUL" horiz-adv-x="0" 
 />
    </font>
</defs>
</svg>
