<svg xmlns="http://www.w3.org/2000/svg" xmlns:xlink="http://www.w3.org/1999/xlink" width="24" height="24" viewBox="0 0 24 24"><defs><path id="8rhza" d="M1367.545 3092.005a3.54 3.54 0 1 1-7.08 0 3.54 3.54 0 0 1 7.08 0zm2.105-.005a5.65 5.65 0 1 0-11.3 0 5.65 5.65 0 0 0 11.3 0zm2.119-6.36a1.409 1.409 0 1 0-2.817-.001 1.409 1.409 0 0 0 2.817 0zm2.113 6.36c0 3.218-.012 3.6-.07 4.871-.054 1.175-.25 1.813-.415 2.238-.22.563-.48.964-.902 1.386a3.738 3.738 0 0 1-1.386.902c-.425.165-1.063.361-2.238.415-1.271.058-1.652.07-4.871.07-3.219 0-3.6-.012-4.87-.07-1.176-.054-1.814-.25-2.239-.415a3.738 3.738 0 0 1-1.386-.902 3.737 3.737 0 0 1-.902-1.386c-.165-.425-.361-1.063-.415-2.238-.058-1.272-.07-1.653-.07-4.871 0-3.218.012-3.6.07-4.87.054-1.176.25-1.814.415-2.239.22-.563.48-.964.902-1.386a3.738 3.738 0 0 1 1.386-.902c.425-.165 1.063-.361 2.238-.415 1.271-.058 1.652-.07 4.871-.07 3.218 0 3.6.012 4.87.07 1.176.054 1.814.25 2.239.415.563.22.964.48 1.386.902.422.422.683.823.902 1.386.165.425.361 1.063.415 2.238.058 1.272.07 1.653.07 4.871zm2.046 4.948c.059-1.28.072-1.689.072-4.948 0-3.26-.013-3.668-.072-4.948-.059-1.277-.261-2.149-.558-2.913a5.893 5.893 0 0 0-1.384-2.125 5.887 5.887 0 0 0-2.125-1.384c-.764-.297-1.637-.5-2.913-.557-1.28-.06-1.689-.073-4.948-.073-3.26 0-3.668.013-4.948.073-1.276.058-2.149.26-2.913.557a5.887 5.887 0 0 0-2.125 1.384 5.893 5.893 0 0 0-1.384 2.125c-.297.764-.5 1.636-.558 2.913-.059 1.28-.072 1.689-.072 4.948 0 3.26.013 3.668.072 4.948.059 1.276.261 2.149.558 2.913a5.893 5.893 0 0 0 1.384 2.125 5.887 5.887 0 0 0 2.125 1.384c.764.297 1.637.5 2.913.558 1.28.058 1.689.072 4.948.072 3.26 0 3.668-.014 4.948-.072 1.276-.059 2.149-.261 2.913-.558a5.887 5.887 0 0 0 2.125-1.384 5.893 5.893 0 0 0 1.384-2.125c.297-.764.5-1.637.558-2.913z"/></defs><g><g transform="translate(-1352 -3080)"><use fill="#53627c" xlink:href="#8rhza"/></g></g></svg>