<svg xmlns="http://www.w3.org/2000/svg" xmlns:xlink="http://www.w3.org/1999/xlink" width="76" height="68" viewBox="0 0 76 68"><defs><path id="2zxza" d="M729.9 3076.815s-7.206-14.577-24.847-8.76c-5.377 2.295-8.827 6.37-10.35 12.225-1.43 8.301-.264 14.57 3.499 18.805 5.644 6.354 7.528 8.663 20.907 8.865 4.727-.135 9.321-3.321 13.783-9.56l.618.22c-4.512 6.8-8.882 10.584-13.11 11.352-10.57 1.165-18.978-1.343-25.224-7.523-5.91-7.553-7.536-15.301-4.881-23.244 2.857-5.574 6.245-9.451 10.163-11.632 8.1-4.434 17.739-3.99 28.916 1.33"/><path id="2zxzb" d="M698.919 3065.853c12.116 24.803 19.175 39.69 21.176 44.659l15.57-35.054 4.91 31.112c2.957 7.539 9.362 11.509 19.212 11.91l.128-.867c-7.924-.37-12.8-4.353-14.628-11.948l-6.629-37.239-.834-3.85-16.6 36.781-17.759-36.122c-4.917-4.922-10.43-6.897-16.535-5.925-9.16 1.458 6.274-.232 11.989 6.543z"/><path id="2zxzc" d="M704.124 3075.195c-1.924 16.654-2.886 25.911-2.886 27.771 0 2.79-.103 5.224 2.886 5.756l-11.764-.139c3.233-.592 5.022-1.863 5.366-3.812.344-1.95 1.664-14.197 3.96-36.741z"/><path id="2zxzd" d="M755.756 3119.385c.22-.19.501-.286.846-.286.517 0 .92.183 1.208.548.288.366.54.81.756 1.334l.103.237c.009.025.034.031.078.019.043-.013.064-.031.064-.056v-1.833a.247.247 0 0 0-.039-.143.358.358 0 0 0-.155-.106c-.19-.075-.439-.14-.749-.194a5.337 5.337 0 0 0-.917-.08c-.457 0-.892.072-1.305.218-.414.145-.752.37-1.015.673-.262.303-.394.675-.394 1.116 0 .349.082.652.246.91.164.258.36.478.588.66.228.184.549.404.962.662.422.265.754.494.995.685.241.191.446.424.614.698.168.275.252.595.252.96 0 .433-.112.738-.336.917-.224.179-.508.268-.853.268-.379 0-.717-.12-1.014-.362a3.279 3.279 0 0 1-.737-.835c-.193-.316-.42-.727-.678-1.234-.008-.034-.034-.048-.077-.044-.043.004-.065.023-.065.056v.013l.039 1.982c0 .067.01.114.032.143.022.03.054.06.097.094.146.125.43.239.853.343a5.08 5.08 0 0 0 1.214.156c.526 0 1.002-.094 1.428-.28.426-.188.76-.45 1.001-.786a1.93 1.93 0 0 0 .362-1.154c0-.374-.09-.704-.271-.99-.181-.288-.4-.53-.66-.73-.258-.2-.602-.432-1.033-.698-.396-.25-.71-.462-.943-.636a2.59 2.59 0 0 1-.588-.611 1.379 1.379 0 0 1-.239-.798c0-.366.11-.644.33-.836zm-9.129.599c0-.25.022-.434.065-.555a.4.4 0 0 1 .258-.25c.13-.045.328-.068.595-.068.026 0 .038-.025.038-.075 0-.05-.012-.074-.038-.074l-.66.012c-.395.017-.723.025-.981.025-.259 0-.586-.008-.982-.025l-.66-.012c-.016 0-.025.025-.025.074 0 .05.009.075.026.075.267 0 .465.023.594.069.13.045.218.127.265.243.047.116.071.3.071.548v5.773c0 .25-.024.434-.07.555a.4.4 0 0 1-.26.243c-.124.042-.324.062-.6.062-.017 0-.026.025-.026.075 0 .05.009.075.026.075h6.098c.07 0 .119-.015.149-.044.03-.029.045-.077.045-.143 0-.549.039-1.234.116-2.057 0-.009-.01-.019-.032-.031a.119.119 0 0 0-.058-.02c-.035 0-.052.01-.052.026a2.467 2.467 0 0 1-.982 1.403c-.49.344-1.072.517-1.744.517h-.44c-.223 0-.385-.017-.484-.05a.305.305 0 0 1-.2-.193c-.034-.096-.052-.252-.052-.468zm-10.284.723l1.486 2.843h-2.817zm4.664 5.56c-.198-.224-.448-.63-.75-1.221l-3.23-6.134c-.008-.025-.047-.038-.116-.038-.06 0-.099.013-.116.038l-2.804 5.947a8.582 8.582 0 0 1-.581 1.09c-.164.246-.327.416-.491.512a1.187 1.187 0 0 1-.607.143c-.035 0-.052.025-.052.075 0 .05.017.075.052.075.18 0 .417-.008.71-.025.328-.017.608-.025.84-.025.241 0 .525.008.853.025.293.017.517.025.672.025.043 0 .064-.025.064-.075 0-.05-.021-.075-.064-.075-.37 0-.666-.083-.885-.249-.22-.166-.33-.399-.33-.698 0-.208.056-.432.168-.673l.504-1.085h3.178l.879 1.683c.172.333.258.57.258.71 0 .117-.05.198-.148.244-.1.046-.26.068-.485.068-.034 0-.051.025-.051.075 0 .05.017.075.051.075.173 0 .405-.008.698-.025.31-.017.573-.025.788-.025.164 0 .435.008.814.025.362.017.629.025.801.025.043 0 .065-.025.065-.075 0-.05-.022-.075-.065-.075-.215 0-.422-.112-.62-.336zm-14.962-6.869c.078.1.117.29.117.573v5.773c0 .25-.028.434-.084.555a.45.45 0 0 1-.31.243c-.151.042-.382.062-.692.062-.026 0-.038.025-.038.075 0 .05.012.075.038.075.319 0 .569-.004.75-.012l1.046-.013 1.073.013c.18.008.426.012.736.012.026 0 .039-.025.039-.075 0-.05-.013-.075-.039-.075-.319 0-.551-.02-.698-.062-.146-.041-.245-.12-.297-.237-.051-.116-.077-.303-.077-.56v-5.749c0-.29.04-.488.122-.592.082-.104.248-.156.498-.156.517 0 .952.16 1.305.48.353.32.594.8.723 1.44.009.025.035.038.078.038s.064-.013.064-.038c0-.332.016-.773.046-1.321.03-.549.058-.948.084-1.197 0-.033-.024-.05-.071-.05-.048 0-.076.017-.084.05-.043.125-.14.208-.291.25-.15.04-.39.062-.717.062l-.879.012c-.568.017-1.107.025-1.615.025-.99 0-1.856-.012-2.597-.037-.49 0-.736-.092-.736-.275 0-.041-.024-.062-.071-.062-.048 0-.071.02-.071.062 0 .266-.022.663-.065 1.191a61.76 61.76 0 0 1-.116 1.29c0 .025.021.04.064.044.043.004.07-.006.078-.031.448-1.289 1.184-1.933 2.21-1.933.24 0 .4.05.477.15zm-6.344-.424c-.31.017-.55.025-.723.025-.19 0-.422-.008-.698-.025l-.555-.012c-.018 0-.026.025-.026.074 0 .05.008.075.026.075.336 0 .598.13.788.387.19.258.284.612.284 1.061v4.033l-4.47-4.981a7.16 7.16 0 0 1-.31-.387 2.637 2.637 0 0 0-.181-.213c-.035-.033-.087-.05-.155-.05a6.53 6.53 0 0 0-.44.013l-.982.013c-.215 0-.379-.005-.49-.013l-.543-.012c-.017 0-.026.025-.026.074 0 .05.009.075.026.075.215 0 .424.057.626.169.203.112.446.318.73.618v5.28c0 .441-.11.79-.33 1.049-.219.258-.518.387-.897.387-.026 0-.039.025-.039.075 0 .05.013.075.039.075.276 0 .487-.004.633-.013l.801-.012.698.012c.129.009.314.013.555.013.018 0 .026-.025.026-.075 0-.05-.008-.075-.026-.075a.923.923 0 0 1-.788-.387c-.19-.258-.284-.608-.284-1.049v-4.856l6.06 6.666c.017.017.045.021.084.013.038-.008.058-.025.058-.05v-6.392c0-.44.099-.792.297-1.054a.965.965 0 0 1 .814-.394c.017 0 .026-.025.026-.075 0-.05-.009-.074-.026-.074zm-12.636 7.032c-.404.266-.943.399-1.615.399h-.426c-.207 0-.357-.058-.452-.175-.095-.116-.142-.295-.142-.536v-2.818h1.06c.507 0 .897.098 1.168.293a.937.937 0 0 1 .407.805c0 .016.026.025.078.025.052 0 .077-.009.077-.025 0-.167-.008-.391-.025-.674l-.013-.598.013-1.122c0-.025-.024-.038-.071-.038-.048 0-.072.013-.072.038 0 .3-.133.532-.4.698-.267.166-.65.25-1.15.25h-1.072v-2.544c0-.224.06-.39.18-.499.121-.108.31-.162.569-.162h.388c.534 0 .964.117 1.292.35.327.232.56.59.697 1.071.009.025.037.034.084.025.048-.008.071-.02.071-.037l-.025-1.658c0-.075-.043-.112-.13-.112h-5.478c-.026 0-.039.025-.039.074 0 .05.013.075.04.075.266 0 .464.023.593.069a.4.4 0 0 1 .259.243c.043.116.065.3.065.548v5.773c0 .25-.022.434-.065.555a.38.38 0 0 1-.252.243c-.125.042-.325.062-.6.062-.027 0-.04.025-.04.075 0 .05.013.075.04.075h5.71c.077 0 .13-.015.155-.044.026-.029.039-.077.039-.143 0-.532.043-1.122.129-1.77 0-.009-.01-.02-.032-.032a.14.14 0 0 0-.071-.018c-.035 0-.052.008-.052.025-.19.557-.487.968-.892 1.234zm-13.889-6.01c0-.29.073-.498.219-.623.145-.125.39-.187.733-.187.386 0 .681.129.887.386.206.258.309.728.309 1.41 0 .598-.11 1.032-.328 1.302-.219.27-.577.405-1.074.405-.291 0-.54-.016-.746-.05zm5.181 6.222c-.362-.258-.775-.67-1.24-1.234-.465-.566-1.042-1.347-1.732-2.344a2.83 2.83 0 0 0 1.034-.892c.258-.37.388-.783.388-1.24 0-.5-.216-.888-.646-1.166-.431-.279-1.038-.418-1.822-.418a11.462 11.462 0 0 0-.982.038c-.319.025-.625.037-.917.037-.233 0-.547-.008-.944-.025l-.684-.012c-.018 0-.026.025-.026.074 0 .05.008.075.026.075.267 0 .465.023.594.069a.4.4 0 0 1 .258.243c.043.116.065.3.065.548v5.773c0 .25-.024.434-.071.555a.4.4 0 0 1-.258.243c-.125.042-.326.062-.601.062-.026 0-.039.025-.039.075 0 .05.013.075.039.075.293 0 .525-.004.697-.012l.944-.013.982.013c.163.008.387.012.671.012.018 0 .026-.025.026-.075 0-.05-.008-.075-.026-.075-.275 0-.475-.02-.6-.062a.381.381 0 0 1-.252-.237c-.043-.116-.065-.303-.065-.56v-2.756c.138.008.375.012.71.012.13 0 .229-.004.298-.012.732 1.188 1.357 2.113 1.873 2.774.517.66.87.991 1.06.991h2.3c.017 0 .025-.025.025-.075 0-.05-.008-.075-.025-.075-.345 0-.698-.128-1.06-.386z"/></defs><g><g transform="translate(-684 -3059)"><g><g><use fill="#212529" xlink:href="#2zxza"/></g><g><use fill="#212529" xlink:href="#2zxzb"/></g><g><use fill="#212529" xlink:href="#2zxzc"/></g><g><use fill="#212529" xlink:href="#2zxzd"/></g></g></g></g></svg>