<svg xmlns="http://www.w3.org/2000/svg" xmlns:xlink="http://www.w3.org/1999/xlink" width="90" height="92" viewBox="0 0 90 92"><defs><path id="xgdha" d="M730.353 41.221s-8.533-17.363-29.424-10.434c-6.367 2.734-10.453 7.588-12.257 14.562-1.693 9.888-.312 17.355 4.144 22.4 6.683 7.569 8.914 10.319 24.759 10.56 5.597-.16 11.037-3.956 16.322-11.387l.73.262c-5.342 8.1-10.517 12.607-15.523 13.522-12.517 1.388-22.474-1.6-29.872-8.962-6.998-8.997-8.924-18.226-5.78-27.687 3.384-6.64 7.395-11.259 12.036-13.856 9.592-5.282 21.006-4.753 34.242 1.585"/><path id="xgdhb" d="M693.67 28.17c14.348 29.544 22.707 47.277 25.077 53.196l18.439-41.755L743 76.67c3.502 8.98 11.086 13.709 22.752 14.187l.15-1.033c-9.383-.441-15.157-5.185-17.322-14.233l-7.85-44.357-.987-4.586-19.658 43.813-21.03-43.029c-5.824-5.862-12.351-8.214-19.582-7.057-10.847 1.737 7.43-.276 14.197 7.794z"/><path id="xgdhc" d="M699.83 39.294c-2.277 19.84-3.416 30.866-3.416 33.081 0 3.323-.123 6.222 3.417 6.857l-13.931-.166c3.83-.705 5.947-2.219 6.354-4.541.408-2.322 1.97-16.91 4.69-43.765z"/><path id="xgdhd" d="M760.968 91.936c.26-.228.595-.342 1.003-.342.612 0 1.088.218 1.43.654.342.435.64.965.895 1.589l.123.282c.01.03.04.037.091.022s.077-.037.077-.067v-2.183a.295.295 0 0 0-.046-.17.424.424 0 0 0-.184-.127 4.64 4.64 0 0 0-.887-.23 6.285 6.285 0 0 0-1.086-.097c-.541 0-1.056.087-1.546.26-.49.174-.89.44-1.2.802-.312.362-.467.805-.467 1.33 0 .415.096.777.29 1.084.194.307.426.569.696.787.27.218.65.48 1.14.787.5.317.893.589 1.178.817.286.227.528.505.727.831.2.327.299.708.299 1.144 0 .515-.133.879-.398 1.092-.265.212-.602.319-1.01.319-.449 0-.85-.144-1.201-.43a3.898 3.898 0 0 1-.872-.996c-.23-.376-.498-.866-.804-1.47-.01-.04-.04-.057-.091-.052-.051.005-.077.027-.077.067v.014l.046 2.362c0 .08.013.136.038.17a.596.596 0 0 0 .115.112c.173.149.51.285 1.01.408.5.124.98.186 1.438.186.622 0 1.186-.111 1.69-.334.506-.223.901-.535 1.187-.936.285-.4.428-.859.428-1.373 0-.446-.107-.84-.321-1.181a3.325 3.325 0 0 0-.78-.869 14.694 14.694 0 0 0-1.225-.832c-.469-.297-.841-.55-1.117-.757a3.078 3.078 0 0 1-.696-.728 1.65 1.65 0 0 1-.283-.95c0-.436.13-.768.39-.995zm-10.81.713c0-.298.026-.518.077-.661a.474.474 0 0 1 .306-.297c.153-.055.388-.082.704-.082.03 0 .046-.03.046-.09 0-.059-.015-.088-.046-.088l-.78.015c-.47.02-.857.03-1.163.03-.306 0-.694-.01-1.163-.03l-.78-.015c-.02 0-.03.03-.03.089 0 .06.01.089.03.089.316 0 .55.027.704.082a.5.5 0 0 1 .313.29c.056.138.084.356.084.653v6.876c0 .297-.028.517-.084.66a.475.475 0 0 1-.306.29c-.148.05-.385.075-.711.075-.02 0-.03.03-.03.089 0 .06.01.089.03.089h7.221c.082 0 .14-.017.176-.052.036-.035.054-.092.054-.17 0-.654.046-1.471.138-2.451 0-.01-.013-.023-.039-.038a.14.14 0 0 0-.068-.022c-.041 0-.062.01-.062.03a2.939 2.939 0 0 1-1.162 1.67c-.582.412-1.27.617-2.066.617h-.52c-.265 0-.457-.02-.574-.06a.362.362 0 0 1-.237-.23c-.04-.113-.061-.3-.061-.557zm-12.178.86l1.76 3.387h-3.336zm5.523 6.615c-.235-.267-.53-.751-.887-1.454l-3.825-7.299c-.01-.03-.057-.044-.138-.044-.072 0-.117.015-.138.044l-3.32 7.077c-.265.574-.495 1.006-.689 1.298-.193.292-.387.495-.581.608-.194.114-.433.17-.72.17-.04 0-.06.03-.06.09s.02.089.06.089c.215 0 .496-.01.842-.03.388-.02.72-.03.995-.03.286 0 .622.01 1.01.03.347.02.612.03.795.03.051 0 .077-.03.077-.09 0-.058-.026-.088-.077-.088-.438 0-.788-.1-1.048-.297-.26-.198-.39-.475-.39-.83 0-.248.066-.515.199-.802l.597-1.29h3.764l1.04 2.002c.204.396.306.678.306.846 0 .138-.059.235-.176.29-.117.054-.308.08-.574.08-.04 0-.06.03-.06.09s.02.089.06.089c.204 0 .48-.01.827-.03.367-.02.678-.03.933-.03.194 0 .515.01.964.03.428.02.744.03.948.03.051 0 .077-.03.077-.09 0-.058-.026-.088-.077-.088-.255 0-.5-.134-.734-.4zm-17.718-8.173c.092.118.138.346.138.683v6.876c0 .297-.033.517-.1.66a.534.534 0 0 1-.367.29c-.178.05-.451.075-.818.075-.03 0-.046.03-.046.089 0 .06.015.089.046.089.377 0 .673-.005.887-.015l1.24-.015 1.27.015c.214.01.504.015.871.015.031 0 .046-.03.046-.09 0-.059-.015-.088-.046-.088-.377 0-.652-.025-.826-.075-.173-.05-.29-.143-.352-.282-.06-.138-.091-.361-.091-.668v-6.847c0-.346.048-.581.145-.705.097-.124.293-.186.589-.186.612 0 1.127.19 1.545.572.419.381.704.953.857 1.715.01.03.04.045.092.045.05 0 .076-.015.076-.045 0-.396.018-.92.054-1.574.036-.653.069-1.129.1-1.426 0-.04-.029-.059-.085-.059-.056 0-.089.02-.1.06-.05.148-.165.247-.343.296-.179.05-.462.075-.85.075l-1.04.015c-.673.02-1.31.03-1.913.03a92.29 92.29 0 0 1-3.075-.045c-.581 0-.872-.11-.872-.327 0-.05-.028-.074-.084-.074-.056 0-.084.024-.084.074 0 .317-.026.79-.077 1.418a73.943 73.943 0 0 1-.138 1.537c0 .03.026.047.077.052.05.005.082-.007.092-.037.53-1.534 1.402-2.302 2.616-2.302.286 0 .474.06.566.178zm-7.522-.505c-.366.02-.652.03-.856.03-.224 0-.499-.01-.825-.03l-.657-.015c-.02 0-.03.03-.03.089 0 .06.01.089.03.089.397 0 .708.153.932.46.224.307.336.728.336 1.263v4.797l-5.289-5.926a8.523 8.523 0 0 1-.366-.46 3.133 3.133 0 0 0-.214-.253c-.041-.04-.102-.06-.184-.06-.204 0-.377.006-.52.016l-1.161.014c-.255 0-.449-.005-.581-.014l-.642-.015c-.02 0-.03.03-.03.089 0 .06.01.089.03.089.254 0 .502.067.741.2.24.134.527.38.864.736v6.282c0 .524-.13.94-.39 1.247-.26.307-.614.46-1.062.46-.031 0-.046.03-.046.09s.015.089.046.089c.326 0 .575-.005.749-.015l.947-.015.826.015c.153.01.372.015.657.015.02 0 .03-.03.03-.09 0-.059-.01-.088-.03-.088-.397 0-.708-.154-.932-.46-.225-.308-.337-.724-.337-1.248V93.05l7.17 7.93c.02.02.053.025.099.015.046-.01.069-.03.069-.06v-7.603c0-.525.117-.943.351-1.255.235-.312.556-.468.963-.468.02 0 .03-.03.03-.09 0-.059-.01-.088-.03-.088zm-14.954 8.376c-.48.317-1.117.475-1.913.475h-.504c-.245 0-.424-.07-.536-.208-.112-.139-.168-.351-.168-.639v-3.356h1.254c.602 0 1.064.116 1.385.35.321.232.482.551.482.957 0 .02.03.03.092.03.061 0 .092-.01.092-.03 0-.198-.01-.465-.031-.802l-.015-.713.015-1.336c0-.03-.028-.045-.084-.045-.056 0-.084.015-.084.045 0 .356-.158.633-.475.831-.316.198-.77.297-1.361.297h-1.27v-3.03c0-.267.071-.465.214-.594.143-.128.367-.193.673-.193h.46c.632 0 1.142.139 1.53.416.387.277.662.703.825 1.277.01.03.044.04.1.03.056-.01.084-.025.084-.044l-.03-1.976c0-.089-.052-.133-.154-.133h-6.487c-.03 0-.046.03-.046.089 0 .06.016.089.046.089.316 0 .55.027.704.082a.475.475 0 0 1 .306.29c.05.138.076.356.076.653v6.876c0 .297-.025.517-.076.66a.452.452 0 0 1-.298.29c-.148.05-.385.075-.712.075-.03 0-.046.03-.046.089 0 .06.016.089.046.089h6.763c.092 0 .153-.017.183-.052.031-.035.046-.092.046-.17 0-.635.051-1.338.153-2.11 0-.01-.012-.022-.038-.037a.164.164 0 0 0-.084-.022c-.04 0-.061.01-.061.03-.225.663-.577 1.153-1.056 1.47zm-16.448-7.159c0-.346.087-.594.26-.742.174-.149.464-.223.872-.223.46 0 .811.153 1.056.46.245.307.367.867.367 1.679 0 .713-.13 1.23-.39 1.552-.26.321-.686.482-1.277.482a5.66 5.66 0 0 1-.888-.06zm6.136 7.402c-.429-.307-.918-.796-1.47-1.469-.55-.672-1.233-1.602-2.05-2.789.51-.267.919-.62 1.225-1.06.306-.44.459-.933.459-1.477 0-.593-.255-1.056-.765-1.387-.51-.331-1.23-.497-2.158-.497-.245 0-.466.005-.665.015-.2.01-.365.02-.498.03-.377.03-.74.044-1.086.044-.275 0-.648-.01-1.117-.03l-.81-.014c-.021 0-.031.03-.031.089s.01.089.03.089c.316 0 .551.027.704.081.153.055.255.151.306.29.051.138.077.356.077.652v6.87c0 .296-.029.516-.085.66a.475.475 0 0 1-.306.289c-.148.05-.385.074-.711.074-.03 0-.046.03-.046.089 0 .06.015.089.046.089.347 0 .622-.005.826-.015l1.117-.015 1.163.015c.194.01.459.015.795.015.02 0 .031-.03.031-.09 0-.059-.01-.088-.03-.088-.327 0-.564-.025-.712-.074a.452.452 0 0 1-.298-.282c-.051-.139-.077-.361-.077-.668v-3.278c.163.01.444.014.842.014.153 0 .27-.005.352-.014.867 1.414 1.606 2.514 2.218 3.3.612.787 1.03 1.18 1.255 1.18h2.723c.02 0 .03-.03.03-.09 0-.058-.01-.088-.03-.088-.408 0-.826-.153-1.254-.46z"/><path id="xgdhe" d="M753 111.94h-.39l-1.467-2.347v2.346h-.375v-2.878h.501l1.356 2.208v-2.208H753zm-6.242-1.442c0-.962.68-1.498 1.359-1.498.679 0 1.358.536 1.358 1.498s-.68 1.502-1.358 1.502c-.68 0-1.359-.54-1.359-1.502zm.383-.005c0 .748.475 1.132.98 1.132.506 0 .98-.384.98-1.132 0-.748-.474-1.128-.98-1.128-.505 0-.98.38-.98 1.128zm-1.655 1.446h-.393v-2.878h.393zm-1.542-2.509h-.908v2.51h-.375v-2.51h-.908v-.37h2.19zm-4.085.045l-.468 1.301h.944zm.895 2.464l-.295-.804h-1.202l-.287.804h-.402l1.08-2.878h.432l1.08 2.878zm-3.335 0h-.39l-1.467-2.346v2.346h-.376v-2.878h.502l1.356 2.208v-2.208h.375zm-3.688 0h-.383v-2.878h.383zm-1.727 0h-.302l-.035-.406c-.118.227-.413.467-.869.467-.682 0-1.317-.528-1.317-1.502s.674-1.498 1.344-1.498c.59 0 1.045.35 1.202.869l-.34.154c-.123-.414-.441-.658-.862-.658-.487 0-.961.37-.961 1.133s.46 1.14.945 1.14a.79.79 0 0 0 .84-.75h-.943v-.358h1.298zm-4.705-2.464l-.468 1.301h.944zm.895 2.464l-.295-.804h-1.202l-.287.804h-.402l1.08-2.878h.432l1.08 2.878zm-3.335 0h-.372v-2.24l-.926 2.24h-.345l-.919-2.24v2.24h-.371v-2.878h.509l.957 2.342.965-2.342h.502zm-4.389 0h-.382v-2.878h.383zm-4.587-1.23l-.957-1.648h.452l.704 1.283.705-1.283h.429l-.958 1.648v1.23h-.375zm-3.328.881h.521c.303 0 .51-.179.51-.459 0-.276-.165-.47-.494-.47h-.537zm0-1.27h.468c.302 0 .482-.191.482-.46 0-.271-.188-.45-.498-.45h-.452zm-.375-1.26h.885c.517 0 .82.326.82.78a.638.638 0 0 1-.407.621c.31.082.49.374.49.695 0 .454-.34.783-.838.783h-.95zm-3.178 2.88h-.39l-1.467-2.347v2.346h-.376v-2.878h.502l1.356 2.208v-2.208h.375zm-3.573 0h-1.65v-2.88h1.65v.37h-1.275v.885h1.156v.374h-1.156v.88h1.275zm-4.02-.512l.827-2.367h.394l-1.045 2.878h-.372l-1.022-2.878h.398zm-2.367.511h-.383v-2.878h.383zm-3.14-1.544h.574c.307 0 .514-.19.514-.483 0-.301-.207-.494-.514-.494h-.574zm1.034 1.544l-.624-1.177h-.408v1.177h-.381v-2.878h1.028c.516 0 .835.381.835.856 0 .415-.25.735-.662.816l.65 1.206zm-3.994 0H692v-2.878h.95c.689 0 1.29.5 1.29 1.445 0 .942-.609 1.433-1.298 1.433zm-.567-.343h.552c.498 0 .916-.359.916-1.085 0-.73-.41-1.097-.909-1.097h-.559z"/></defs><g><g transform="translate(-676 -20)"><g><g><use fill="#fff" xlink:href="#xgdha"/></g><g><use fill="#fff" xlink:href="#xgdhb"/></g><g><use fill="#fff" xlink:href="#xgdhc"/></g></g><g><use fill="#fff" xlink:href="#xgdhd"/></g><g><use fill="#fff" xlink:href="#xgdhe"/></g></g></g></svg>