<svg xmlns="http://www.w3.org/2000/svg" xmlns:xlink="http://www.w3.org/1999/xlink" width="18" height="18" viewBox="0 0 18 18"><defs><path id="fdhca" d="M84 403.5c-1.25 0-2.45-.2-3.57-.57a1.02 1.02 0 0 0-1.02.24l-2.2 2.2a15.074 15.074 0 0 1-6.59-6.58l2.2-2.21c.28-.27.36-.66.25-1.01a11.36 11.36 0 0 1-.57-3.57c0-.55-.45-1-1-1H68c-.55 0-1 .45-1 1 0 9.39 7.61 17 17 17 .55 0 1-.45 1-1v-3.5c0-.55-.45-1-1-1z"/></defs><g><g transform="translate(-67 -391)"><use fill="#53627c" xlink:href="#fdhca"/></g></g></svg>