<svg xmlns="http://www.w3.org/2000/svg" xmlns:xlink="http://www.w3.org/1999/xlink" width="54" height="50" viewBox="0 0 54 50"><defs><path id="323oa" d="M710.873 1852.983c0-3.299 2.68-5.983 5.976-5.983 1.124 0 2.214.318 3.151.9a5.974 5.974 0 0 1 3.151-.9c3.296 0 5.977 2.684 5.977 5.983 0 3.195-2.93 5.873-5.483 7.85-1.108.858-2.622 1.843-2.686 1.885l-.959.623-.959-.623c-.064-.042-1.578-1.027-2.686-1.885-2.553-1.977-5.483-4.655-5.482-7.85zm3.521 0c0 1.244 1.385 2.946 4.116 5.06.462.359 1.022.754 1.49 1.075a33.924 33.924 0 0 0 1.49-1.074c2.731-2.115 4.116-3.817 4.116-5.06a2.459 2.459 0 0 0-2.455-2.458c-.7 0-1.369.3-1.835.826l-1.316 1.482-1.316-1.482a2.457 2.457 0 0 0-1.835-.826 2.459 2.459 0 0 0-2.455 2.457zM747 1880.326c0 9.194-7.472 16.674-16.656 16.674-3.905 0-7.5-1.353-10.344-3.615a16.563 16.563 0 0 1-10.344 3.615c-9.184 0-16.656-7.48-16.656-16.674 0-9.194 7.472-16.674 16.656-16.674 3.905 0 7.5 1.353 10.344 3.615a16.563 16.563 0 0 1 10.344-3.615c9.184 0 16.656 7.48 16.656 16.674zm-29.533 10.563a16.608 16.608 0 0 1-3.778-10.563c0-4.006 1.418-7.686 3.778-10.564a13.056 13.056 0 0 0-7.811-2.585c-7.242 0-13.134 5.899-13.134 13.149 0 7.25 5.892 13.148 13.134 13.148 2.923 0 5.627-.961 7.811-2.585zm2.533-2.47a13.093 13.093 0 0 0 2.79-8.093c0-3.05-1.043-5.86-2.79-8.093a13.092 13.092 0 0 0-2.79 8.093c0 3.05 1.043 5.86 2.79 8.093zm23.478-8.093c0-7.25-5.892-13.149-13.134-13.149-2.923 0-5.626.962-7.811 2.585a16.607 16.607 0 0 1 3.778 10.564c0 4.005-1.418 7.685-3.778 10.563a13.055 13.055 0 0 0 7.811 2.585c7.242 0 13.134-5.898 13.134-13.148z"/></defs><g><g transform="translate(-693 -1847)"><use fill="#3540a2" xlink:href="#323oa"/></g></g></svg>