<svg width="14" height="20" viewBox="0 0 14 20" fill="none" xmlns="http://www.w3.org/2000/svg">
<path d="M12.9569 17.0563V18.861C12.9569 19.0298 12.8201 19.1665 12.6514 19.1665C12.4827 19.1665 12.3459 19.0298 12.3459 18.861V17.0563C12.3459 15.651 11.2087 14.5139 9.80341 14.5139C9.13848 14.5139 8.53515 14.1751 8.18956 13.6077C8.10176 13.4636 8.14744 13.2756 8.29157 13.1878C8.43558 13.1 8.62359 13.1457 8.71139 13.2898C8.9452 13.6737 9.35345 13.9028 9.80341 13.9028C11.5463 13.9028 12.9569 15.3132 12.9569 17.0563ZM7.26176 13.7602C6.62219 13.8996 5.97303 13.7581 5.45803 13.4045C5.54636 13.2091 5.60063 12.9988 5.61786 12.7808C8.23669 13.5517 10.8564 11.5752 10.8564 8.8601C10.8564 6.26888 10.8596 6.31013 10.8491 6.20388C10.8089 5.78275 10.2004 5.84004 10.241 6.2638C10.2478 6.33308 10.2454 6.39369 10.2454 8.86006C10.2454 10.7764 8.68638 12.3354 6.77006 12.3354C4.85374 12.3354 3.29473 10.7764 3.29473 8.86006C3.29473 8.17179 3.2874 7.63881 3.28499 7.23915C3.27881 6.23646 4.20603 5.47456 5.20941 5.71508C6.62452 6.0544 7.19485 6.93706 9.00867 6.85258C9.1772 6.84468 9.30743 6.70165 9.29953 6.53308C9.29162 6.36455 9.14948 6.2352 8.98003 6.24222C7.34486 6.3191 6.89162 5.49018 5.3519 5.12091C3.95978 4.78698 2.66543 5.84615 2.67395 7.24293C2.67601 7.56778 2.68029 7.92356 2.68243 8.36175C2.47902 8.2557 2.33993 8.04535 2.33993 7.80337C2.33993 7.79638 2.33997 6.21641 2.33986 6.20946C2.32454 5.51695 2.42319 3.77688 3.66713 2.57778C5.05692 1.23813 7.23136 1.23764 8.92205 1.82695L8.67782 1.92747C8.38624 2.04743 8.44719 2.48009 8.76158 2.51377L9.29861 2.57128C10.3322 2.68196 11.2462 3.22094 11.8319 4.05846C11.4475 4.52549 11.2383 5.10682 11.2383 5.71928V7.80333C11.2383 7.97206 11.3751 8.10886 11.5438 8.10886C11.7125 8.10886 11.8493 7.97206 11.8493 7.80333V5.71928C11.8493 5.18832 12.0544 4.68787 12.4267 4.31021C12.5304 4.20518 12.5431 4.0357 12.4708 3.91902C11.8616 2.94215 10.9552 2.31316 9.92077 2.06087C10.0881 1.91811 10.0552 1.65288 9.8615 1.55492C8.9733 1.1063 7.7063 0.791382 6.50055 0.837783C3.45021 0.956021 1.66461 3.23408 1.72896 6.21958V7.80341C1.72896 8.38791 2.13791 8.87912 2.68682 9.01103C2.74376 10.5715 3.67973 11.9115 5.01334 12.5491V12.6295C5.01334 13.3339 4.44258 13.9029 3.73675 13.9029C1.99019 13.9029 0.583252 15.3167 0.583252 17.0563V18.8611C0.583252 19.0298 0.72005 19.1666 0.888775 19.1666C1.0575 19.1666 1.1943 19.0298 1.1943 18.8611V17.0563C1.1943 15.6512 2.33142 14.5139 3.73675 14.5139C4.25702 14.5139 4.75246 14.3054 5.11894 13.9127C5.77027 14.3572 6.58808 14.5324 7.39188 14.3573C7.55675 14.3214 7.66127 14.1586 7.62534 13.9937C7.5894 13.8288 7.42652 13.7241 7.26176 13.7602ZM9.86348 17.6007H8.94691C8.77819 17.6007 8.64139 17.7375 8.64139 17.9063C8.64139 18.075 8.77819 18.2118 8.94691 18.2118H9.86348C10.0322 18.2118 10.169 18.075 10.169 17.9063C10.169 17.7375 10.0322 17.6007 9.86348 17.6007Z" fill="#4637A5" stroke="#4637A5" stroke-width="0.4"/>
</svg>
