<svg width="26" height="20" viewBox="0 0 26 20" fill="none" xmlns="http://www.w3.org/2000/svg">
<mask id="path-1-inside-1" fill="white">
<path d="M25.985 10.418C26.0488 10.1604 25.9035 9.89698 25.6514 9.81375C24.4485 9.41634 23.0145 8.52066 23.0145 6.51009V5.44348C23.0145 3.8357 22.7397 2.6488 22.1742 1.81492C21.4934 0.81098 20.3839 0.302002 18.8765 0.302002C17.3696 0.302002 16.2603 0.81098 15.5794 1.81487C15.0135 2.64905 14.7384 3.83601 14.7384 5.44348V6.51014C14.7384 8.52025 13.3052 9.41618 12.1029 9.81385C11.8509 9.89718 11.7056 10.1605 11.7694 10.4181C12.0311 11.4742 12.4334 12.0862 13.1635 12.4295C13.0114 12.5762 12.8741 12.7403 12.754 12.923C12.0096 11.7897 10.5778 11.4035 9.35747 11.0746C9.1316 11.0138 8.91375 10.9551 8.70377 10.8935V10.557C10.0607 9.81893 10.9838 8.37974 10.9838 6.72895V4.71223C10.9838 2.31136 9.03131 0.358115 6.63129 0.358115C4.23052 0.358115 2.27733 2.31136 2.27733 4.71223V6.7289C2.27733 8.37939 3.20037 9.81832 4.5574 10.5566V10.8935C4.34757 10.955 4.12982 11.0137 3.9041 11.0745C2.18409 11.5381 0.0435194 12.115 0.000253905 14.7398C0 14.7427 0 14.7454 0 14.7482V19.1904C0 19.4709 0.227347 19.6982 0.50781 19.6982H4.34823C4.62869 19.6982 4.85604 19.4709 4.85604 19.1904C4.85604 18.91 4.62869 18.6826 4.34823 18.6826H3.73327V16.6296C3.73327 16.3491 3.50592 16.1218 3.22546 16.1218C2.945 16.1218 2.71765 16.3491 2.71765 16.6296V18.6826H1.01562V14.7526C1.04604 13.0212 2.22721 12.5783 4.16826 12.0551C4.33167 12.0111 4.49768 11.9662 4.66287 11.9195C4.93688 12.7446 5.71541 13.3415 6.63119 13.3415C7.54637 13.3415 8.32433 12.7445 8.59815 11.9195C8.76344 11.9662 8.92954 12.0111 9.09311 12.0552C11.0346 12.5784 12.216 13.0211 12.2453 14.7524V18.6826H10.5433V16.6296C10.5433 16.3491 10.3159 16.1218 10.0355 16.1218C9.75499 16.1218 9.52764 16.3491 9.52764 16.6296V18.6826H8.90837C8.6279 18.6826 8.40056 18.91 8.40056 19.1904C8.40056 19.4709 8.6279 19.6982 8.90837 19.6982H16.5964C16.8769 19.6982 17.1042 19.4709 17.1042 19.1904C17.1042 18.91 16.8769 18.6826 16.5964 18.6826H15.98V16.6296C15.98 16.3491 15.7527 16.1218 15.4722 16.1218C15.1918 16.1218 14.9644 16.3491 14.9644 16.6296V18.6826H13.261V14.7526C13.2914 13.021 14.4731 12.5781 16.4149 12.055C16.5783 12.0109 16.7443 11.9661 16.9095 11.9194C17.1833 12.7445 17.9613 13.3415 18.8765 13.3415C19.7923 13.3415 20.5708 12.7445 20.8449 11.9195C21.01 11.9662 21.1761 12.011 21.3395 12.0551C23.2805 12.5783 24.4617 13.0212 24.4921 14.7526V18.6826H22.7901V16.6296C22.7901 16.3491 22.5627 16.1218 22.2823 16.1218C22.0018 16.1218 21.7745 16.3491 21.7745 16.6296V18.6826H21.1552C20.8747 18.6826 20.6474 18.91 20.6474 19.1904C20.6474 19.4709 20.8747 19.6982 21.1552 19.6982H24.9999C25.2804 19.6982 25.5077 19.4709 25.5077 19.1904V14.7482C25.5077 14.7454 25.5077 14.7426 25.5077 14.7398C25.4902 13.6765 25.1284 12.9493 24.5899 12.4296C25.3207 12.0863 25.7232 11.4743 25.985 10.418ZM3.2928 4.71223C3.2928 2.87142 4.79038 1.37374 6.63114 1.37374C8.47114 1.37374 9.96807 2.87137 9.96807 4.71223V5.23762C8.63329 5.28225 6.95101 5.12381 5.70997 4.27567C5.48689 4.12328 5.18342 4.17218 5.01961 4.38708C4.59015 4.9504 4.05086 5.09015 3.2928 5.18023V4.71223ZM7.68805 11.2676C7.68805 11.8511 7.21396 12.3259 6.63119 12.3259C6.04767 12.3259 5.57292 11.8511 5.57292 11.2676V10.9523C5.91188 11.0372 6.26628 11.083 6.63119 11.083C6.99565 11.083 7.34954 11.0373 7.68805 10.9525V11.2676ZM6.63114 10.0674C4.79033 10.0674 3.2928 8.56977 3.2928 6.7289V6.20235C4.10951 6.1111 4.87879 5.96206 5.51751 5.35096C6.90739 6.13685 8.60459 6.29528 9.96807 6.25379V6.72885C9.96807 8.56972 8.47114 10.0674 6.63114 10.0674ZM16.4198 2.38499C16.907 1.66674 17.7106 1.31757 18.8764 1.31757C20.0428 1.31757 20.8465 1.66669 21.3336 2.38489C21.7365 2.97903 21.9524 3.84982 21.9917 5.03678C21.0507 5.20054 19.9422 5.06963 19.3297 3.85825C19.1458 3.4945 18.6072 3.49456 18.4233 3.85825C17.8107 5.06963 16.7022 5.20049 15.7612 5.03678C15.8005 3.85012 16.0166 2.97933 16.4198 2.38499ZM16.804 10.8934C16.5941 10.9549 16.3764 11.0136 16.1506 11.0744C15.5356 11.2401 14.8669 11.4203 14.2594 11.7033C13.4648 11.568 13.1231 11.3138 12.8803 10.6072C13.7036 10.2642 14.7015 9.64343 15.2785 8.55032C15.6417 9.18843 16.1695 9.72072 16.804 10.0896V10.8934H16.804ZM19.9347 11.2676C19.9347 11.8511 19.46 12.3259 18.8764 12.3259C18.2937 12.3259 17.8196 11.8511 17.8196 11.2676V10.5109C18.1571 10.6001 18.5112 10.6482 18.8764 10.6482C19.2422 10.6482 19.5968 10.6 19.9347 10.5105V11.2676ZM18.8764 9.63266C17.1547 9.63266 15.754 8.23192 15.754 6.51014V6.06321C15.9701 6.09338 16.1804 6.10851 16.3841 6.10851C17.4079 6.10851 18.267 5.7307 18.8764 5.00773C19.4859 5.73075 20.3448 6.10851 21.3688 6.10851C21.5725 6.10851 21.7828 6.09333 21.9989 6.06321V6.51014C21.9989 8.23187 20.5982 9.63266 18.8764 9.63266ZM23.4938 11.7033C22.8866 11.4204 22.2183 11.2402 21.6037 11.0745C21.378 11.0137 21.1602 10.955 20.9504 10.8935V10.0888C21.5843 9.71996 22.1115 9.18797 22.4745 8.55032C23.0518 9.64373 24.0502 10.2644 24.874 10.6074C24.6311 11.3135 24.289 11.5679 23.4938 11.7033Z"/>
</mask>
<path d="M25.985 10.418C26.0488 10.1604 25.9035 9.89698 25.6514 9.81375C24.4485 9.41634 23.0145 8.52066 23.0145 6.51009V5.44348C23.0145 3.8357 22.7397 2.6488 22.1742 1.81492C21.4934 0.81098 20.3839 0.302002 18.8765 0.302002C17.3696 0.302002 16.2603 0.81098 15.5794 1.81487C15.0135 2.64905 14.7384 3.83601 14.7384 5.44348V6.51014C14.7384 8.52025 13.3052 9.41618 12.1029 9.81385C11.8509 9.89718 11.7056 10.1605 11.7694 10.4181C12.0311 11.4742 12.4334 12.0862 13.1635 12.4295C13.0114 12.5762 12.8741 12.7403 12.754 12.923C12.0096 11.7897 10.5778 11.4035 9.35747 11.0746C9.1316 11.0138 8.91375 10.9551 8.70377 10.8935V10.557C10.0607 9.81893 10.9838 8.37974 10.9838 6.72895V4.71223C10.9838 2.31136 9.03131 0.358115 6.63129 0.358115C4.23052 0.358115 2.27733 2.31136 2.27733 4.71223V6.7289C2.27733 8.37939 3.20037 9.81832 4.5574 10.5566V10.8935C4.34757 10.955 4.12982 11.0137 3.9041 11.0745C2.18409 11.5381 0.0435194 12.115 0.000253905 14.7398C0 14.7427 0 14.7454 0 14.7482V19.1904C0 19.4709 0.227347 19.6982 0.50781 19.6982H4.34823C4.62869 19.6982 4.85604 19.4709 4.85604 19.1904C4.85604 18.91 4.62869 18.6826 4.34823 18.6826H3.73327V16.6296C3.73327 16.3491 3.50592 16.1218 3.22546 16.1218C2.945 16.1218 2.71765 16.3491 2.71765 16.6296V18.6826H1.01562V14.7526C1.04604 13.0212 2.22721 12.5783 4.16826 12.0551C4.33167 12.0111 4.49768 11.9662 4.66287 11.9195C4.93688 12.7446 5.71541 13.3415 6.63119 13.3415C7.54637 13.3415 8.32433 12.7445 8.59815 11.9195C8.76344 11.9662 8.92954 12.0111 9.09311 12.0552C11.0346 12.5784 12.216 13.0211 12.2453 14.7524V18.6826H10.5433V16.6296C10.5433 16.3491 10.3159 16.1218 10.0355 16.1218C9.75499 16.1218 9.52764 16.3491 9.52764 16.6296V18.6826H8.90837C8.6279 18.6826 8.40056 18.91 8.40056 19.1904C8.40056 19.4709 8.6279 19.6982 8.90837 19.6982H16.5964C16.8769 19.6982 17.1042 19.4709 17.1042 19.1904C17.1042 18.91 16.8769 18.6826 16.5964 18.6826H15.98V16.6296C15.98 16.3491 15.7527 16.1218 15.4722 16.1218C15.1918 16.1218 14.9644 16.3491 14.9644 16.6296V18.6826H13.261V14.7526C13.2914 13.021 14.4731 12.5781 16.4149 12.055C16.5783 12.0109 16.7443 11.9661 16.9095 11.9194C17.1833 12.7445 17.9613 13.3415 18.8765 13.3415C19.7923 13.3415 20.5708 12.7445 20.8449 11.9195C21.01 11.9662 21.1761 12.011 21.3395 12.0551C23.2805 12.5783 24.4617 13.0212 24.4921 14.7526V18.6826H22.7901V16.6296C22.7901 16.3491 22.5627 16.1218 22.2823 16.1218C22.0018 16.1218 21.7745 16.3491 21.7745 16.6296V18.6826H21.1552C20.8747 18.6826 20.6474 18.91 20.6474 19.1904C20.6474 19.4709 20.8747 19.6982 21.1552 19.6982H24.9999C25.2804 19.6982 25.5077 19.4709 25.5077 19.1904V14.7482C25.5077 14.7454 25.5077 14.7426 25.5077 14.7398C25.4902 13.6765 25.1284 12.9493 24.5899 12.4296C25.3207 12.0863 25.7232 11.4743 25.985 10.418ZM3.2928 4.71223C3.2928 2.87142 4.79038 1.37374 6.63114 1.37374C8.47114 1.37374 9.96807 2.87137 9.96807 4.71223V5.23762C8.63329 5.28225 6.95101 5.12381 5.70997 4.27567C5.48689 4.12328 5.18342 4.17218 5.01961 4.38708C4.59015 4.9504 4.05086 5.09015 3.2928 5.18023V4.71223ZM7.68805 11.2676C7.68805 11.8511 7.21396 12.3259 6.63119 12.3259C6.04767 12.3259 5.57292 11.8511 5.57292 11.2676V10.9523C5.91188 11.0372 6.26628 11.083 6.63119 11.083C6.99565 11.083 7.34954 11.0373 7.68805 10.9525V11.2676ZM6.63114 10.0674C4.79033 10.0674 3.2928 8.56977 3.2928 6.7289V6.20235C4.10951 6.1111 4.87879 5.96206 5.51751 5.35096C6.90739 6.13685 8.60459 6.29528 9.96807 6.25379V6.72885C9.96807 8.56972 8.47114 10.0674 6.63114 10.0674ZM16.4198 2.38499C16.907 1.66674 17.7106 1.31757 18.8764 1.31757C20.0428 1.31757 20.8465 1.66669 21.3336 2.38489C21.7365 2.97903 21.9524 3.84982 21.9917 5.03678C21.0507 5.20054 19.9422 5.06963 19.3297 3.85825C19.1458 3.4945 18.6072 3.49456 18.4233 3.85825C17.8107 5.06963 16.7022 5.20049 15.7612 5.03678C15.8005 3.85012 16.0166 2.97933 16.4198 2.38499ZM16.804 10.8934C16.5941 10.9549 16.3764 11.0136 16.1506 11.0744C15.5356 11.2401 14.8669 11.4203 14.2594 11.7033C13.4648 11.568 13.1231 11.3138 12.8803 10.6072C13.7036 10.2642 14.7015 9.64343 15.2785 8.55032C15.6417 9.18843 16.1695 9.72072 16.804 10.0896V10.8934H16.804ZM19.9347 11.2676C19.9347 11.8511 19.46 12.3259 18.8764 12.3259C18.2937 12.3259 17.8196 11.8511 17.8196 11.2676V10.5109C18.1571 10.6001 18.5112 10.6482 18.8764 10.6482C19.2422 10.6482 19.5968 10.6 19.9347 10.5105V11.2676ZM18.8764 9.63266C17.1547 9.63266 15.754 8.23192 15.754 6.51014V6.06321C15.9701 6.09338 16.1804 6.10851 16.3841 6.10851C17.4079 6.10851 18.267 5.7307 18.8764 5.00773C19.4859 5.73075 20.3448 6.10851 21.3688 6.10851C21.5725 6.10851 21.7828 6.09333 21.9989 6.06321V6.51014C21.9989 8.23187 20.5982 9.63266 18.8764 9.63266ZM23.4938 11.7033C22.8866 11.4204 22.2183 11.2402 21.6037 11.0745C21.378 11.0137 21.1602 10.955 20.9504 10.8935V10.0888C21.5843 9.71996 22.1115 9.18797 22.4745 8.55032C23.0518 9.64373 24.0502 10.2644 24.874 10.6074C24.6311 11.3135 24.289 11.5679 23.4938 11.7033Z" fill="#4637A5" stroke="#4637A5" mask="url(#path-1-inside-1)"/>
</svg>
