<svg width="18" height="22" viewBox="0 0 18 22" fill="none" xmlns="http://www.w3.org/2000/svg">
<mask id="path-1-inside-1" fill="white">
<path d="M17.4787 9.03345C17.0235 8.13974 17.1084 7.32119 17.1982 6.45464C17.2646 5.81432 17.3333 5.15221 17.1835 4.44838C16.9911 3.54544 16.4979 2.684 15.7951 2.02275C15.0691 1.33964 14.2148 0.963445 13.3895 0.963445H11.9963C11.1515 0.357328 10.1167 0 9.00003 0C7.88331 0 6.84854 0.357328 6.00377 0.963402H4.61051C3.78526 0.963402 2.93095 1.33959 2.20491 2.02271C1.50211 2.684 1.009 3.54544 0.816503 4.44855C0.6668 5.15221 0.735421 5.81432 0.801808 6.45464C0.891698 7.32119 0.976519 8.13974 0.521394 9.03345C0.454577 9.16463 0.459605 9.32091 0.534714 9.44758C0.60978 9.57425 0.74453 9.65362 0.891698 9.65796C0.957784 9.65989 1.02288 9.66088 1.08721 9.66088C2.4381 9.66088 3.41401 9.23338 3.98944 8.38883C4.04844 8.30225 4.10125 8.21348 4.14946 8.12333C4.6042 9.39138 5.5422 10.4312 6.74103 11.0186V11.8024C6.45791 11.8879 6.16633 11.9796 5.856 12.0501C4.27806 12.4086 3.25743 12.9659 2.93331 13.1892C1.93266 13.8785 1.43564 14.8559 1.41373 16.1773C1.41368 16.1797 1.41368 16.182 1.41368 16.1844V21.5703C1.41368 21.8076 1.6061 22 1.84337 22H7.07082C7.30809 22 7.5005 21.8076 7.5005 21.5703C7.5005 21.333 7.30809 21.1406 7.07082 21.1406H4.59079V13.3238C4.95727 13.1916 5.34781 13.0791 5.74712 12.9699V15.6631C5.74712 15.9004 5.93954 16.0928 6.17681 16.0928H11.8232C12.0605 16.0928 12.2529 15.9004 12.2529 15.6631V12.9699C12.6522 13.0791 13.0428 13.1916 13.4093 13.3238V21.1406H10.9292C10.692 21.1406 10.4995 21.333 10.4995 21.5703C10.4995 21.8076 10.692 22 10.9292 22H16.1567C16.394 22 16.5864 21.8076 16.5864 21.5703V16.1844C16.5864 16.182 16.5864 16.1796 16.5863 16.1772C16.5644 14.8558 16.0674 13.8784 15.0667 13.1891C14.0596 12.6005 12.768 12.2182 12.144 12.05C11.8368 11.9672 11.5421 11.8878 11.259 11.8024V11.0186C12.4578 10.4311 13.3959 9.39129 13.8506 8.12324C13.8988 8.21335 13.9516 8.30216 14.0106 8.38875C14.5861 9.23338 15.5618 9.66084 16.9128 9.66079C16.9771 9.66079 17.0424 9.65985 17.1084 9.65787C17.2555 9.65353 17.3903 9.57417 17.4653 9.4475C17.5405 9.32091 17.5455 9.16463 17.4787 9.03345ZM3.84829 5.15182V6.02186C3.84825 6.02216 3.84825 6.02246 3.84825 6.02276C3.78917 6.60877 3.65712 7.35011 3.27917 7.90492C2.93026 8.41698 2.36089 8.70633 1.54783 8.78165C1.81651 7.90844 1.73251 7.09784 1.65658 6.36599C1.59432 5.76559 1.53554 5.19849 1.65701 4.62756C1.97554 3.13345 3.35565 1.82282 4.61047 1.82282H5.07174C4.30913 2.72134 3.84829 3.88369 3.84829 5.15182ZM3.73142 21.1406H2.27306V16.1879C2.29536 14.9023 2.88033 14.1825 3.73142 13.7062V21.1406ZM15.727 16.1879V21.1406H14.2687V13.7062C15.1197 14.1825 15.7047 14.9023 15.727 16.1879ZM11.3936 12.7359V15.2334H6.6065V12.7359C6.84334 12.6695 7.07894 12.6003 7.30543 12.5255C7.48147 12.4674 7.60036 12.3029 7.60036 12.1175V11.3478C8.04561 11.4737 8.51508 11.5411 9.00003 11.5411C9.48497 11.5411 9.95449 11.4737 10.3997 11.3478V12.1175C10.3997 12.3029 10.5186 12.4674 10.6946 12.5255C10.9211 12.6003 11.1567 12.6695 11.3936 12.7359ZM13.2924 6.38932C13.2924 8.75617 11.3669 10.6818 9.00003 10.6818C6.63318 10.6818 4.70766 8.75622 4.70766 6.38932V6.05284C4.75777 6.0546 4.80787 6.05567 4.85801 6.05567C6.38538 6.05567 7.91795 5.24691 9.00003 4.35123C10.0821 5.24691 11.6145 6.05567 13.142 6.05567C13.1922 6.05567 13.2423 6.0546 13.2924 6.05284V6.38932ZM13.2924 5.19196C11.8177 5.25594 10.2414 4.33202 9.28934 3.46513C9.1276 3.31792 8.87241 3.31792 8.71076 3.46513C7.75862 4.33207 6.18231 5.25589 4.70771 5.19196V5.15187C4.70767 2.78493 6.63322 0.859375 9.00003 0.859375C11.3668 0.859375 13.2924 2.78493 13.2924 5.15182V5.19196ZM14.7209 7.90492C14.3429 7.35015 14.2108 6.64164 14.1518 6.05563V5.15178C14.1518 3.88364 13.6909 2.7213 12.9283 1.82273H13.3896C14.6444 1.82273 16.0245 3.13337 16.343 4.62735C16.4645 5.19845 16.4057 5.76555 16.3435 6.36595C16.2675 7.09784 16.1835 7.9084 16.4522 8.78161C15.6393 8.70628 15.0697 8.41698 14.7209 7.90492Z"/>
</mask>
<path d="M17.4787 9.03345C17.0235 8.13974 17.1084 7.32119 17.1982 6.45464C17.2646 5.81432 17.3333 5.15221 17.1835 4.44838C16.9911 3.54544 16.4979 2.684 15.7951 2.02275C15.0691 1.33964 14.2148 0.963445 13.3895 0.963445H11.9963C11.1515 0.357328 10.1167 0 9.00003 0C7.88331 0 6.84854 0.357328 6.00377 0.963402H4.61051C3.78526 0.963402 2.93095 1.33959 2.20491 2.02271C1.50211 2.684 1.009 3.54544 0.816503 4.44855C0.6668 5.15221 0.735421 5.81432 0.801808 6.45464C0.891698 7.32119 0.976519 8.13974 0.521394 9.03345C0.454577 9.16463 0.459605 9.32091 0.534714 9.44758C0.60978 9.57425 0.74453 9.65362 0.891698 9.65796C0.957784 9.65989 1.02288 9.66088 1.08721 9.66088C2.4381 9.66088 3.41401 9.23338 3.98944 8.38883C4.04844 8.30225 4.10125 8.21348 4.14946 8.12333C4.6042 9.39138 5.5422 10.4312 6.74103 11.0186V11.8024C6.45791 11.8879 6.16633 11.9796 5.856 12.0501C4.27806 12.4086 3.25743 12.9659 2.93331 13.1892C1.93266 13.8785 1.43564 14.8559 1.41373 16.1773C1.41368 16.1797 1.41368 16.182 1.41368 16.1844V21.5703C1.41368 21.8076 1.6061 22 1.84337 22H7.07082C7.30809 22 7.5005 21.8076 7.5005 21.5703C7.5005 21.333 7.30809 21.1406 7.07082 21.1406H4.59079V13.3238C4.95727 13.1916 5.34781 13.0791 5.74712 12.9699V15.6631C5.74712 15.9004 5.93954 16.0928 6.17681 16.0928H11.8232C12.0605 16.0928 12.2529 15.9004 12.2529 15.6631V12.9699C12.6522 13.0791 13.0428 13.1916 13.4093 13.3238V21.1406H10.9292C10.692 21.1406 10.4995 21.333 10.4995 21.5703C10.4995 21.8076 10.692 22 10.9292 22H16.1567C16.394 22 16.5864 21.8076 16.5864 21.5703V16.1844C16.5864 16.182 16.5864 16.1796 16.5863 16.1772C16.5644 14.8558 16.0674 13.8784 15.0667 13.1891C14.0596 12.6005 12.768 12.2182 12.144 12.05C11.8368 11.9672 11.5421 11.8878 11.259 11.8024V11.0186C12.4578 10.4311 13.3959 9.39129 13.8506 8.12324C13.8988 8.21335 13.9516 8.30216 14.0106 8.38875C14.5861 9.23338 15.5618 9.66084 16.9128 9.66079C16.9771 9.66079 17.0424 9.65985 17.1084 9.65787C17.2555 9.65353 17.3903 9.57417 17.4653 9.4475C17.5405 9.32091 17.5455 9.16463 17.4787 9.03345ZM3.84829 5.15182V6.02186C3.84825 6.02216 3.84825 6.02246 3.84825 6.02276C3.78917 6.60877 3.65712 7.35011 3.27917 7.90492C2.93026 8.41698 2.36089 8.70633 1.54783 8.78165C1.81651 7.90844 1.73251 7.09784 1.65658 6.36599C1.59432 5.76559 1.53554 5.19849 1.65701 4.62756C1.97554 3.13345 3.35565 1.82282 4.61047 1.82282H5.07174C4.30913 2.72134 3.84829 3.88369 3.84829 5.15182ZM3.73142 21.1406H2.27306V16.1879C2.29536 14.9023 2.88033 14.1825 3.73142 13.7062V21.1406ZM15.727 16.1879V21.1406H14.2687V13.7062C15.1197 14.1825 15.7047 14.9023 15.727 16.1879ZM11.3936 12.7359V15.2334H6.6065V12.7359C6.84334 12.6695 7.07894 12.6003 7.30543 12.5255C7.48147 12.4674 7.60036 12.3029 7.60036 12.1175V11.3478C8.04561 11.4737 8.51508 11.5411 9.00003 11.5411C9.48497 11.5411 9.95449 11.4737 10.3997 11.3478V12.1175C10.3997 12.3029 10.5186 12.4674 10.6946 12.5255C10.9211 12.6003 11.1567 12.6695 11.3936 12.7359ZM13.2924 6.38932C13.2924 8.75617 11.3669 10.6818 9.00003 10.6818C6.63318 10.6818 4.70766 8.75622 4.70766 6.38932V6.05284C4.75777 6.0546 4.80787 6.05567 4.85801 6.05567C6.38538 6.05567 7.91795 5.24691 9.00003 4.35123C10.0821 5.24691 11.6145 6.05567 13.142 6.05567C13.1922 6.05567 13.2423 6.0546 13.2924 6.05284V6.38932ZM13.2924 5.19196C11.8177 5.25594 10.2414 4.33202 9.28934 3.46513C9.1276 3.31792 8.87241 3.31792 8.71076 3.46513C7.75862 4.33207 6.18231 5.25589 4.70771 5.19196V5.15187C4.70767 2.78493 6.63322 0.859375 9.00003 0.859375C11.3668 0.859375 13.2924 2.78493 13.2924 5.15182V5.19196ZM14.7209 7.90492C14.3429 7.35015 14.2108 6.64164 14.1518 6.05563V5.15178C14.1518 3.88364 13.6909 2.7213 12.9283 1.82273H13.3896C14.6444 1.82273 16.0245 3.13337 16.343 4.62735C16.4645 5.19845 16.4057 5.76555 16.3435 6.36595C16.2675 7.09784 16.1835 7.9084 16.4522 8.78161C15.6393 8.70628 15.0697 8.41698 14.7209 7.90492Z" fill="#4637A5" stroke="#4637A5" mask="url(#path-1-inside-1)"/>
</svg>
