<svg xmlns="http://www.w3.org/2000/svg" xmlns:xlink="http://www.w3.org/1999/xlink" width="345" height="700" viewBox="0 0 345 700"><defs><path id="lifla" d="M522.2 5760.74H302.35c-32.75 0-59.4-26.59-59.4-59.28v-581.14c0-32.69 26.65-59.28 59.4-59.28H522.2c32.75 0 59.4 26.6 59.4 59.28v581.14c0 32.7-26.65 59.28-59.4 59.28zm-219.85-699.03c-32.38 0-58.73 26.3-58.73 58.61v581.14c0 32.32 26.35 58.61 58.73 58.61H522.2c32.39 0 58.74-26.29 58.74-58.6v-581.15c0-32.32-26.35-58.61-58.74-58.61z"/><path id="liflb" d="M522.53 5757.29H302.02c-30.66 0-55.6-24.9-55.6-55.49V5120c0-30.6 24.94-55.49 55.6-55.49h220.5c30.66 0 55.6 24.9 55.6 55.48v581.81c0 30.6-24.94 55.49-55.6 55.49zm-220.51-692.11c-30.29 0-54.93 24.59-54.93 54.81v581.81c0 30.23 24.64 54.82 54.93 54.82h220.5c30.3 0 54.93-24.6 54.93-54.82V5120c0-30.23-24.64-54.82-54.92-54.82z"/><path id="liflc" d="M258 5682.28h309.26V5139H258zm.67-.67H566.6v-541.94H258.67z"/><path id="lifld" d="M412.27 5743.41a24.76 24.76 0 0 1-24.75-24.7 24.75 24.75 0 0 1 49.5 0c0 13.62-11.1 24.7-24.75 24.7zm0-48.73a24.08 24.08 0 0 0-24.08 24.03 24.09 24.09 0 0 0 48.16 0 24.08 24.08 0 0 0-24.08-24.03z"/><path id="lifle" d="M412.27 5742.45a23.8 23.8 0 0 1-23.79-23.74 23.8 23.8 0 0 1 47.58 0 23.8 23.8 0 0 1-23.79 23.74zm0-46.81a23.12 23.12 0 0 0-23.12 23.07 23.12 23.12 0 0 0 46.24 0 23.12 23.12 0 0 0-23.12-23.07z"/><path id="liflf" d="M412.27 5112c-4.93 0-8.94-4-8.94-8.92a8.94 8.94 0 0 1 17.88 0 8.94 8.94 0 0 1-8.94 8.93zm0-17.17a8.27 8.27 0 0 0-8.27 8.25 8.27 8.27 0 0 0 16.54 0 8.27 8.27 0 0 0-8.27-8.25z"/><path id="liflg" d="M243.62 5187.07h-.34a3.2 3.2 0 0 1-3.2-3.2v-25.16a3.2 3.2 0 0 1 3.2-3.2h.34v31.56zm-.66-30.87a2.54 2.54 0 0 0-2.2 2.5v25.17c0 1.28.95 2.34 2.2 2.5z"/><path id="liflh" d="M243.6 5282.8h-.33a3.2 3.2 0 0 1-3.2-3.19v-49.72a3.2 3.2 0 0 1 3.2-3.2h.34v56.12zm-.65-55.42a2.54 2.54 0 0 0-2.2 2.5v49.74c0 1.28.95 2.34 2.2 2.5z"/><path id="lifli" d="M581.27 5282.8h-.34v-56.11h.34a3.2 3.2 0 0 1 3.2 3.2v49.72a3.2 3.2 0 0 1-3.2 3.2zm.33-55.42v54.75a2.54 2.54 0 0 0 2.2-2.5v-49.74c0-1.28-.96-2.34-2.2-2.5z"/><path id="liflj" d="M243.62 5359.78h-.34a3.2 3.2 0 0 1-3.2-3.2v-49.73a3.2 3.2 0 0 1 3.2-3.19h.34v56.12zm-.66-55.43a2.54 2.54 0 0 0-2.21 2.5v49.74c0 1.28.96 2.34 2.2 2.5z"/></defs><g><g transform="translate(-240 -5061)"><g><use fill="#fff" xlink:href="#lifla"/></g><g><use fill="#fff" xlink:href="#liflb"/></g><g><use fill="#fff" xlink:href="#liflc"/></g><g><use fill="#fff" xlink:href="#lifld"/></g><g><use fill="#fff" xlink:href="#lifle"/></g><g><use fill="#fff" xlink:href="#liflf"/></g><g><use fill="#fff" xlink:href="#liflg"/></g><g><use fill="#fff" xlink:href="#liflh"/></g><g><use fill="#fff" xlink:href="#lifli"/></g><g><use fill="#fff" xlink:href="#liflj"/></g></g></g></svg>