<svg id="SVGDoc" width="16" height="20" xmlns="http://www.w3.org/2000/svg" version="1.1" xmlns:xlink="http://www.w3.org/1999/xlink" xmlns:avocode="https://avocode.com/" viewBox="0 0 16 20"><defs><path d="M763.02857,4851.52381c-2.05714,0 -5.02857,1.90476 -5.02857,5.47619c0,5 3.2,10 5.02857,10c1.37143,0 2.51429,-0.95238 3.42857,-0.95238c0.91429,0 1.82857,0.95238 3.2,0.95238c1.82857,0 3.88572,-2.85714 4.34286,-5.47619c-1.6,-1.19047 -2.74286,-1.90476 -2.74286,-4.04762c0,-1.42857 1.14286,-2.85714 2.51429,-4.04762c-0.68572,-0.95238 -2.05714,-1.90476 -3.42857,-1.90476c-1.37143,0 -2.84619,1.13026 -3.88572,1.19047c-0.91428,0 -2.05714,-1.19047 -3.42857,-1.19047zM769.81429,4847c-2.13661,0.75188 -3.80169,1.50376 -3.56429,4.7619c2.13661,-0.50125 4.03909,-1.75438 3.56429,-4.7619z" id="Path-0"/></defs><desc>Generated with Avocode.</desc><g transform="matrix(1,0,0,1,-758,-4847)"><g><title>Shape</title><use xlink:href="#Path-0" fill="#5153d4" fill-opacity="1"/></g></g></svg>