<svg id="SVGDoc" width="1440" height="762" xmlns="http://www.w3.org/2000/svg" version="1.1" xmlns:xlink="http://www.w3.org/1999/xlink" xmlns:avocode="https://avocode.com/" viewBox="0 0 1440 762"><defs><path d="M0,9299.76498c0,0 10.52982,138.23502 211.25486,138.23502c200.72504,0 467.53304,-91.35879 813.92689,-91.35879c213.74819,0 414.81825,52.0027 414.81825,52.0027v-667.64391h-1440z" id="Path-0"/><path d="M75,9355.76498c0,0 10.39088,138.23502 208.46747,138.23502c198.07659,0 461.3642,-91.35879 803.18758,-91.35879c210.92789,0 409.34495,52.0027 409.34495,52.0027v-667.64391h-1421z" id="Path-1"/><linearGradient id="LinearGradient1138" gradientUnits="userSpaceOnUse" x1="867.7736992131408" y1="8774.906222681599" x2="879.4317448371811" y2="9370.13764995205"><stop stop-opacity="1" stop-color="#ffffff" offset="0"></stop><stop stop-opacity="1" stop-color="#e3e3e3" offset="1"></stop></linearGradient><linearGradient id="LinearGradient1146" gradientUnits="userSpaceOnUse" x1="931.323907348523" y1="8830.906222681599" x2="942.8281315372461" y2="9426.13764995205"><stop stop-opacity="1" stop-color="#ffffff" offset="0"></stop><stop stop-opacity="1" stop-color="#e3e3e3" offset="1"></stop></linearGradient></defs><desc>Generated with Avocode.</desc><g transform="matrix(1,0,0,1,0,-8732)"><g opacity="0.2" clip-path="url(#clip-DD6E37A2-67C9-4C5C-8DCA-199088D8DF26)"><title>waves</title><use xlink:href="#Path-0" fill="url(#LinearGradient1138)"/></g><g opacity="0.2" clip-path="url(#clip-DD6E37A2-67C9-4C5C-8DCA-199088D8DF26)"><title>waves</title><use xlink:href="#Path-1" fill="url(#LinearGradient1146)"/></g></g></svg>