<svg id="SVGDoc" width="1477" height="786" xmlns="http://www.w3.org/2000/svg" version="1.1" xmlns:xlink="http://www.w3.org/1999/xlink" xmlns:avocode="https://avocode.com/" viewBox="0 0 1477 786"><defs><path d="M999,7828.76498c0,0 -9.05272,138.23502 -181.6205,138.23502c-172.56778,0 -401.94854,-91.35879 -699.75104,-91.35879c-183.76406,0 -356.62846,52.0027 -356.62846,52.0027v-667.64391h1238z" id="Path-0"/><path d="M1238,7761.76342c0,0 -9.05272,138.23658 -181.6205,138.23658c-172.56778,0 -401.94854,-91.35982 -699.75104,-91.35982c-183.76406,0 -356.62846,52.00329 -356.62846,52.00329v-667.65144l1238,-11.99203z" id="Path-1"/><linearGradient id="LinearGradient1118" gradientUnits="userSpaceOnUse" x1="517.3002807577857" y1="7319.964228402874" x2="517.3002807577857" y2="7912.991001964625"><stop stop-opacity="1" stop-color="#ffffff" offset="0"></stop><stop stop-opacity="1" stop-color="#e3e3e3" offset="1"></stop></linearGradient><linearGradient id="LinearGradient1126" gradientUnits="userSpaceOnUse" x1="756.3002807577857" y1="7241.982008800094" x2="756.3002807577857" y2="7845.0743004421"><stop stop-opacity="1" stop-color="#ffffff" offset="0"></stop><stop stop-opacity="1" stop-color="#e3e3e3" offset="1"></stop></linearGradient></defs><desc>Generated with Avocode.</desc><g transform="matrix(1,0,0,1,239,-7181)"><g opacity="0.2"><title>Path 5</title><use xlink:href="#Path-0" fill="url(#LinearGradient1118)"/></g><g opacity="0.2"><title>Path 5</title><use xlink:href="#Path-1" fill="url(#LinearGradient1126)"/></g></g></svg>