<svg id="SVGDoc" width="484" height="422" xmlns="http://www.w3.org/2000/svg" version="1.1" xmlns:xlink="http://www.w3.org/1999/xlink" xmlns:avocode="https://avocode.com/" viewBox="0 0 484 422"><defs><path d="M1214.52689,7657.29641h73.47311v189.70359h-190.20055v-147.02028c0,-155.32059 63.39955,-232.97972 190.20055,-232.97972v65.80343c-48.98232,0 -73.47311,35.17386 -73.47311,105.52262zM962.72744,7657.29641h73.47311v189.70359h-190.20055v-147.02028c0,-155.32059 63.39955,-232.97972 190.20055,-232.97972v65.80343c-48.98232,0 -73.47311,35.17386 -73.47311,105.52262z" id="Path-0"/><path d="M844,7849v-384h446v4c-126.801,0 -190.20055,77.65913 -190.20055,232.97972v147.02028h-61.5989v-189.70359h-73.47311v-18.97036c0,-70.34876 24.49079,-105.52262 73.47311,-105.52262v-65.80343c-126.801,0 -190.20055,77.65913 -190.20055,232.97972l0,147.02028zM1216.52689,7640.32605c0,-70.34876 24.49079,-105.52262 73.47311,-105.52262v124.49298h-73.47311z" id="Path-1"/><mask id="Mask1194" x="-1" y="-1" width="2" height="2"><rect width="442" height="380" x="846" y="7467" fill="#ffffff"></rect><use xlink:href="#Path-0" fill="#000000"/></mask><filter id="Filter1198" width="535" height="462" x="810" y="7431" filterUnits="userSpaceOnUse"><feOffset dx="21" dy="10" result="FeOffset1199Out" in="SourceGraphic"></feOffset><feGaussianBlur stdDeviation="10.4 10.4" result="FeGaussianBlur1200Out" in="FeOffset1199Out"></feGaussianBlur></filter><mask id="Mask1205" x="-1" y="-1" width="2" height="2"><rect width="442" height="380" x="846" y="7467" fill="#ffffff"></rect><use xlink:href="#Path-0" fill="#000000"/></mask><filter id="Filter1209" width="464" height="402" x="836" y="7457" filterUnits="userSpaceOnUse"><feOffset dx="2" dy="2" result="FeOffset1210Out" in="SourceGraphic"></feOffset><feGaussianBlur stdDeviation="0 0" result="FeGaussianBlur1211Out" in="FeOffset1210Out"></feGaussianBlur></filter><mask id="Mask1216" x="-1" y="-1" width="2" height="2"><rect width="442" height="380" x="846" y="7467" fill="#ffffff"></rect><use xlink:href="#Path-0" fill="#000000"/></mask><filter id="Filter1220" width="464" height="402" x="836" y="7457" filterUnits="userSpaceOnUse"><feOffset dx="2" dy="2" result="FeOffset1221Out" in="SourceGraphic"></feOffset><feGaussianBlur stdDeviation="0 0" result="FeGaussianBlur1222Out" in="FeOffset1221Out"></feGaussianBlur></filter><mask id="Mask1227" x="-1" y="-1" width="2" height="2"><rect width="442" height="380" x="846" y="7467" fill="#ffffff"></rect><use xlink:href="#Path-0" fill="#000000"/></mask><filter id="Filter1231" width="464" height="402" x="836" y="7457" filterUnits="userSpaceOnUse"><feOffset dx="2" dy="2" result="FeOffset1232Out" in="SourceGraphic"></feOffset><feGaussianBlur stdDeviation="0 0" result="FeGaussianBlur1233Out" in="FeOffset1232Out"></feGaussianBlur></filter><mask id="Mask1238" x="-1" y="-1" width="2" height="2"><rect width="442" height="380" x="846" y="7467" fill="#ffffff"></rect><use xlink:href="#Path-0" fill="#000000"/></mask><filter id="Filter1242" width="464" height="402" x="836" y="7457" filterUnits="userSpaceOnUse"><feOffset dx="2" dy="2" result="FeOffset1243Out" in="SourceGraphic"></feOffset><feGaussianBlur stdDeviation="0 0" result="FeGaussianBlur1244Out" in="FeOffset1243Out"></feGaussianBlur></filter><mask id="Mask1249" x="-1" y="-1" width="2" height="2"><rect width="442" height="380" x="846" y="7467" fill="#ffffff"></rect><use xlink:href="#Path-0" fill="#000000"/></mask><filter id="Filter1253" width="464" height="402" x="836" y="7457" filterUnits="userSpaceOnUse"><feOffset dx="2" dy="2" result="FeOffset1254Out" in="SourceGraphic"></feOffset><feGaussianBlur stdDeviation="0 0" result="FeGaussianBlur1255Out" in="FeOffset1254Out"></feGaussianBlur></filter><filter id="Filter1259" width="200%" height="200%" x="-50%" y="-50%"><feGaussianBlur stdDeviation="0 0" result="FeGaussianBlur1260Out" in="SourceGraphic"></feGaussianBlur></filter><mask id="Mask1261"><use xlink:href="#Path-0" fill="#ffffff"/></mask></defs><desc>Generated with Avocode.</desc><g transform="matrix(1,0,0,1,-846,-7456)"><g><title>‘‘</title><g filter="url(#Filter1198)"><use xlink:href="#Path-0" fill="none" stroke-opacity="0.26" stroke-width="0" mask="url(&quot;#Mask1194&quot;)"/><use xlink:href="#Path-0" fill="#223a34" fill-opacity="0.26"/></g><g filter="url(#Filter1209)"><use xlink:href="#Path-0" fill="none" stroke-opacity="1" stroke-width="0" mask="url(&quot;#Mask1205&quot;)"/><use xlink:href="#Path-0" fill="#1bb2ab" fill-opacity="1"/></g><g filter="url(#Filter1220)"><use xlink:href="#Path-0" fill="none" stroke-opacity="1" stroke-width="0" mask="url(&quot;#Mask1216&quot;)"/><use xlink:href="#Path-0" fill="#1bb2ab" fill-opacity="1"/></g><g filter="url(#Filter1231)"><use xlink:href="#Path-0" fill="none" stroke-opacity="1" stroke-width="0" mask="url(&quot;#Mask1227&quot;)"/><use xlink:href="#Path-0" fill="#1bb2ab" fill-opacity="1"/></g><g filter="url(#Filter1242)"><use xlink:href="#Path-0" fill="none" stroke-opacity="1" stroke-width="0" mask="url(&quot;#Mask1238&quot;)"/><use xlink:href="#Path-0" fill="#1bb2ab" fill-opacity="1"/></g><g filter="url(#Filter1253)"><use xlink:href="#Path-0" fill="none" stroke-opacity="1" stroke-width="0" mask="url(&quot;#Mask1249&quot;)"/><use xlink:href="#Path-0" fill="#1bb2ab" fill-opacity="1"/></g><use xlink:href="#Path-0" fill="#24dcd4" fill-opacity="1"/><use xlink:href="#Path-1" fill="#ffffff" fill-opacity="1" stroke-opacity="1" stroke-width="0" stroke="#ffffff" filter="url(#Filter1259)" mask="url(&quot;#Mask1261&quot;)"/></g></g></svg>