<svg xmlns="http://www.w3.org/2000/svg" xmlns:xlink="http://www.w3.org/1999/xlink" width="145" height="37" viewBox="0 0 145 37"><defs><path id="hb0ba" d="M398.72 8871.92v-7.03h-1.92v7.03zm-11.26 0v-7.03h-1.92v7.03zm-15.7-5.88h4.73v-1.15h-6.64v7.03h1.92v-2.9h4.48v-1.12h-4.48zm7.82 0h4.7v-1.15h-6.62v7.03h1.92v-2.9h4.45v-1.12h-4.45zm11.57 4.73v-5.88h-1.92v7.03h6.61v-1.15zm28.46-2.97v-1.76h4.97v-1.15h-6.89v7.03h6.92v-1.15h-5v-1.86h4.7v-1.11zm-5.62-1.76h2.95v-1.15h-7.84v1.15h2.94v5.88H414zm-33.9-30.57h-7.98v26.36h7.98zm45.58 34.23v.33c0 2 1.98 1.97 4.21 1.97 2.57 0 3.9-.17 3.9-2.17 0-1.8-.85-1.9-3.93-2.03-1.96-.1-2.2-.1-2.2-.98 0-.75.31-.88 2.23-.88 1.34 0 1.78.03 1.78.77v.24h1.92v-.24c0-1.82-1.68-1.9-3.7-1.9-2.43 0-4.18.08-4.18 2 0 2.07 1.72 2 3.9 2.1 1.48.04 2.27-.06 2.27.92 0 .81-.24 1.05-1.99 1.05-1.78 0-2.3-.07-2.3-.85v-.33zm-74.93 1.07h-3.17v-4.74h2.83c1.47 0 2.05.3 2.05 1.45v1.7c0 .78-.4 1.6-1.7 1.6zm-5.09-5.88v7.03h5.1c3.05 0 3.63-1.28 3.63-2.74v-1.69c0-1.9-1.2-2.6-3.97-2.6zm-3.67 0l.17 5.88-4.35-5.88h-3.18v7.03h1.92l-.07-5.88 4.24 5.88h3.22v-7.03zm64.11 4.66h-3.46l1.71-3.66h.04zm-3.91 1.06h4.35l.65 1.33h1.95l-3.39-7.05h-2.84l-3.36 7.05h2.02zm-39.55-1.06l1.71-3.66 1.75 3.66zm3.86 1.06l.69 1.33h1.95l-3.42-7.05h-2.81l-3.36 7.05h2.02l.62-1.33zm-35.73-1.06h-3.5l1.75-3.66zm-3.91 1.06h4.31l.65 1.33h1.95l-3.39-7.05h-2.84l-3.32 7.05h1.99zm14.24-35.15v26.23h28.18v-6h-20.1v-4.23h18.9v-5.66h-18.9v-4.34h19.97v-6zm73.7 9.53s1.1-9.76-6.89-9.76h-15.69c-7.4 0-9.62 4-9.76 7.86-.1 3.9 0 5.8 0 10.85s4.86 7.9 8.8 7.9h17.13c7.6 0 6.65-10.72 6.65-10.72h-8.09s.14 3.63-2.5 3.63h-10.82c-2.47 0-3.09-2.1-3.09-4v-5.42c0-2.34 1.54-3.39 3.7-3.39h9.29c3.9 0 3.56 3.05 3.56 3.05zm-75.13.25s1.3-9.67-8.9-9.67h-13.94c-8.56 0-10.82 3.77-10.82 7.77v9.66c0 7.05 4.76 9.29 9.76 9.29h15.82c5.48 0 7.98-4 7.98-6.68v-8.71h-17.84v5.39h9.62s.24 3.08-1.68 3.08h-12.7c-1.92 0-2.98-1.76-2.98-3.56v-5.76c0-3.53 3.08-4 4.42-4h9.14c4.38 0 4.52 3.19 4.52 3.19zm88.58-3.3h10.92c2.74 0 3.94 1.53 3.94 3.19v6.1c0 1.05-1.06 3.66-3.7 3.66h-10.44c-2.5 0-4.42-1.42-4.42-3.76v-5.8c0-1.76 1.06-3.39 3.7-3.39zm22.7-.6c-.1-4-4.14-6.34-7.84-6.34h-18.32c-3.67 0-8.19 2-8.19 7.66v10.33c0 4.71 3.09 8.71 6.75 8.71h19.62c3.94 0 7.98-2.23 7.98-8 0-4 .14-8.36 0-12.36z"/></defs><g><g opacity=".5" transform="translate(-306 -8835)"><g opacity=".5"><use xlink:href="#hb0ba"/></g></g></g></svg>