<svg xmlns="http://www.w3.org/2000/svg" xmlns:xlink="http://www.w3.org/1999/xlink" width="118" height="118" viewBox="0 0 118 118"><defs><path id="wk48a" d="M560.44 2312.75c-4.06 0-7.37 4.13-7.37 9.22 0 5.08 3.3 9.21 7.37 9.21s7.38-4.13 7.38-9.21c0-5.09-3.31-9.22-7.38-9.22zm0 22.12c-6.1 0-11.06-5.79-11.06-12.9 0-7.12 4.96-12.91 11.06-12.91 6.1 0 11.06 5.79 11.06 12.9 0 7.12-4.96 12.91-11.06 12.91z"/><path id="wk48b" d="M551.22 2357a1.84 1.84 0 0 1-1.84-1.84v-5.54a1.84 1.84 0 0 1 3.69 0v5.54c0 1.01-.83 1.84-1.85 1.84z"/><path id="wk48c" d="M569.65 2357a1.84 1.84 0 0 1-1.84-1.84v-5.54a1.84 1.84 0 0 1 3.69 0v5.54c0 1.01-.83 1.84-1.85 1.84z"/><path id="wk48d" d="M543.84 2357a1.84 1.84 0 0 1-1.84-1.84v-14.75a5.54 5.54 0 0 1 5.53-5.53h5.53c1.02 0 1.85-.83 1.85-1.84v-.93a1.84 1.84 0 0 1 3.68 0v.93a5.54 5.54 0 0 1-5.53 5.53h-5.53c-1.02 0-1.84.82-1.84 1.84v14.75c0 1.02-.83 1.84-1.85 1.84z"/><path id="wk48e" d="M577.03 2357a1.84 1.84 0 0 1-1.84-1.84v-14.75c0-1.02-.83-1.84-1.85-1.84h-5.53a5.54 5.54 0 0 1-5.53-5.53v-.93a1.84 1.84 0 0 1 3.69 0v.93c0 1.01.82 1.84 1.84 1.84h5.53a5.54 5.54 0 0 1 5.53 5.53v14.75c0 1.02-.82 1.84-1.84 1.84z"/><path id="wk48f" d="M601 2312.75c-4.06 0-7.37 4.13-7.37 9.22 0 5.08 3.3 9.21 7.37 9.21s7.38-4.13 7.38-9.21c0-5.09-3.31-9.22-7.38-9.22zm0 22.12c-6.1 0-11.06-5.79-11.06-12.9 0-7.12 4.96-12.91 11.06-12.91 6.1 0 11.07 5.79 11.07 12.9 0 7.12-4.97 12.91-11.07 12.91z"/><path id="wk48g" d="M591.78 2357a1.84 1.84 0 0 1-1.84-1.84v-5.54a1.84 1.84 0 0 1 3.69 0v5.54c0 1.01-.83 1.84-1.85 1.84z"/><path id="wk48h" d="M610.22 2357a1.84 1.84 0 0 1-1.84-1.84v-5.54a1.84 1.84 0 0 1 3.69 0v5.54c0 1.01-.83 1.84-1.85 1.84z"/><path id="wk48i" d="M584.4 2357a1.84 1.84 0 0 1-1.84-1.84v-14.75a5.54 5.54 0 0 1 5.53-5.53h5.53c1.02 0 1.85-.83 1.85-1.84v-.93a1.84 1.84 0 0 1 3.68 0v.93a5.54 5.54 0 0 1-5.53 5.53h-5.53c-1.02 0-1.84.82-1.84 1.84v14.75c0 1.02-.83 1.84-1.85 1.84z"/><path id="wk48j" d="M617.59 2357a1.84 1.84 0 0 1-1.84-1.84v-14.75c0-1.02-.83-1.84-1.85-1.84h-5.53a5.54 5.54 0 0 1-5.53-5.53v-.93a1.84 1.84 0 0 1 3.69 0v.93c0 1.01.82 1.84 1.84 1.84h5.53a5.54 5.54 0 0 1 5.53 5.53v14.75c0 1.02-.82 1.84-1.84 1.84z"/><path id="wk48k" d="M641.56 2312.75c-4.06 0-7.37 4.13-7.37 9.22 0 5.08 3.3 9.21 7.37 9.21s7.38-4.13 7.38-9.21c0-5.09-3.31-9.22-7.38-9.22zm0 22.12c-6.1 0-11.06-5.79-11.06-12.9 0-7.12 4.96-12.91 11.06-12.91 6.1 0 11.07 5.79 11.07 12.9 0 7.12-4.97 12.91-11.07 12.91z"/><path id="wk48l" d="M632.34 2357a1.84 1.84 0 0 1-1.84-1.84v-5.54a1.84 1.84 0 0 1 3.69 0v5.54c0 1.01-.83 1.84-1.85 1.84z"/><path id="wk48m" d="M650.78 2357a1.84 1.84 0 0 1-1.84-1.84v-5.54a1.84 1.84 0 0 1 3.69 0v5.54c0 1.01-.83 1.84-1.85 1.84z"/><path id="wk48n" d="M624.97 2357a1.84 1.84 0 0 1-1.84-1.84v-14.75a5.54 5.54 0 0 1 5.53-5.53h5.53c1.02 0 1.85-.83 1.85-1.84v-.93a1.84 1.84 0 0 1 3.68 0v.93a5.54 5.54 0 0 1-5.53 5.53h-5.53c-1.02 0-1.84.82-1.84 1.84v14.75c0 1.02-.83 1.84-1.85 1.84z"/><path id="wk48o" d="M658.16 2357a1.84 1.84 0 0 1-1.84-1.84v-14.75c0-1.02-.83-1.84-1.85-1.84h-5.53a5.54 5.54 0 0 1-5.53-5.53v-.93a1.84 1.84 0 0 1 3.69 0v.93c0 1.01.82 1.84 1.84 1.84h5.53a5.54 5.54 0 0 1 5.53 5.53v14.75c0 1.02-.82 1.84-1.84 1.84z"/><path id="wk48p" d="M601 2242.69a18.46 18.46 0 0 0-18.43 18.43c0 6.97 3.85 13.26 10.06 16.43.61.32 1 .95 1 1.64v9.6c0 1 .83 1.84 1.84 1.84h11.07c1.01 0 1.84-.83 1.84-1.85v-9.59c0-.69.39-1.32 1-1.64a18.53 18.53 0 0 0 9.84-19.37 18.56 18.56 0 0 0-18.22-15.5zm5.54 51.62h-11.07a5.54 5.54 0 0 1-5.53-5.53v-8.5a22.04 22.04 0 0 1-11.06-19.16 22.15 22.15 0 0 1 24.67-21.98 22.3 22.3 0 0 1 19.31 18.48 22.22 22.22 0 0 1-10.8 22.67v8.5a5.54 5.54 0 0 1-5.52 5.52z"/><path id="wk48q" d="M641.56 2307.22a1.84 1.84 0 0 1-1.84-1.84v-3.7h-77.44v3.7a1.84 1.84 0 0 1-3.69 0v-5.54c0-1.01.83-1.84 1.84-1.84h81.13c1.02 0 1.84.83 1.84 1.84v5.53c0 1.02-.82 1.85-1.84 1.85z"/><path id="wk48r" d="M601 2307.22a1.84 1.84 0 0 1-1.84-1.84v-31.35a1.84 1.84 0 0 1 3.69 0v31.35c0 1.02-.83 1.84-1.85 1.84z"/><path id="wk48s" d="M597.07 2264.82l3.93 5.9 3.93-5.9h-7.86zm3.93 11.06c-.62 0-1.2-.3-1.54-.82L592.1 2264a1.84 1.84 0 0 1 1.53-2.87h14.75a1.85 1.85 0 0 1 1.54 2.87l-7.38 11.06c-.34.51-.91.82-1.53.82z"/><path id="wk48t" d="M573.35 2262.97h-7.38a1.84 1.84 0 0 1 0-3.69h7.38a1.84 1.84 0 0 1 0 3.69z"/><path id="wk48u" d="M573.34 2253.75c-.15 0-.3-.02-.45-.05l-7.37-1.85a1.84 1.84 0 0 1 .9-3.58l7.37 1.85a1.84 1.84 0 0 1-.45 3.63z"/><path id="wk48v" d="M565.96 2274.03a1.84 1.84 0 0 1-.44-3.63l7.37-1.84a1.85 1.85 0 0 1 .9 3.57l-7.38 1.85c-.15.03-.3.05-.45.05z"/><path id="wk48w" d="M636.03 2262.97h-7.38a1.84 1.84 0 0 1 0-3.69h7.38a1.84 1.84 0 0 1 0 3.69z"/><path id="wk48x" d="M628.65 2253.75a1.84 1.84 0 0 1-.44-3.63l7.37-1.85a1.85 1.85 0 0 1 .9 3.58l-7.38 1.85c-.15.03-.3.05-.45.05z"/><path id="wk48y" d="M636.03 2274.03c-.15 0-.3-.02-.45-.05l-7.37-1.85a1.84 1.84 0 0 1 .9-3.57l7.37 1.84a1.84 1.84 0 0 1-.45 3.63z"/></defs><g><g transform="translate(-542 -2239)"><g><g><g><g><g><g><use fill="#26d7cf" xlink:href="#wk48a"/></g></g><g><g><use fill="#26d7cf" xlink:href="#wk48b"/></g></g><g><g><use fill="#26d7cf" xlink:href="#wk48c"/></g></g><g><g><use fill="#26d7cf" xlink:href="#wk48d"/></g></g><g><g><use fill="#26d7cf" xlink:href="#wk48e"/></g></g></g><g><g><g><use fill="#26d7cf" xlink:href="#wk48f"/></g></g><g><g><use fill="#26d7cf" xlink:href="#wk48g"/></g></g><g><g><use fill="#26d7cf" xlink:href="#wk48h"/></g></g><g><g><use fill="#26d7cf" xlink:href="#wk48i"/></g></g><g><g><use fill="#26d7cf" xlink:href="#wk48j"/></g></g></g><g><g><g><use fill="#26d7cf" xlink:href="#wk48k"/></g></g><g><g><use fill="#26d7cf" xlink:href="#wk48l"/></g></g><g><g><use fill="#26d7cf" xlink:href="#wk48m"/></g></g><g><g><use fill="#26d7cf" xlink:href="#wk48n"/></g></g><g><g><use fill="#26d7cf" xlink:href="#wk48o"/></g></g></g></g><g><g><use fill="#26d7cf" xlink:href="#wk48p"/></g></g><g><g><use fill="#26d7cf" xlink:href="#wk48q"/></g></g><g><g><use fill="#26d7cf" xlink:href="#wk48r"/></g></g><g><g><use fill="#26d7cf" xlink:href="#wk48s"/></g></g><g><g><use fill="#26d7cf" xlink:href="#wk48t"/></g></g><g><g><use fill="#26d7cf" xlink:href="#wk48u"/></g></g><g><g><use fill="#26d7cf" xlink:href="#wk48v"/></g></g><g><g><use fill="#26d7cf" xlink:href="#wk48w"/></g></g><g><g><use fill="#26d7cf" xlink:href="#wk48x"/></g></g><g><g><use fill="#26d7cf" xlink:href="#wk48y"/></g></g></g></g></g></g></svg>