<svg xmlns="http://www.w3.org/2000/svg" xmlns:xlink="http://www.w3.org/1999/xlink" width="88" height="88" viewBox="0 0 88 88"><defs><path id="z83ia" d="M1089.13 3586c-.36 0-.7-.14-.98-.4l-13.75-13.76a1.37 1.37 0 0 1 0-1.94l28.88-28.88a1.37 1.37 0 1 1 1.94 1.95l-27.9 27.9 11.8 11.8 27.9-27.9a1.37 1.37 0 1 1 1.95 1.95l-28.87 28.87c-.27.27-.62.4-.97.4z"/><path id="z83ib" d="M1131.76 3543.38a1.37 1.37 0 0 1-.98-2.35l27.9-27.9-11.8-11.81-27.9 27.9a1.37 1.37 0 1 1-1.95-1.94l28.88-28.88c.53-.53 1.4-.53 1.94 0l13.75 13.75c.54.54.54 1.41 0 1.95l-28.87 28.87c-.27.27-.62.4-.97.4z"/><path id="z83ic" d="M1082.24 3521.37a1.37 1.37 0 0 1-.97-2.35l13.75-13.75a1.37 1.37 0 1 1 1.95 1.95l-13.75 13.75c-.27.27-.62.4-.98.4z"/><path id="z83id" d="M1143.45 3579.25l15.35 3.54-3.55-15.35-65.48-65.48a4.23 4.23 0 0 0-5.85 0l-5.96 5.96a4.14 4.14 0 0 0 0 5.84l65.49 65.49zm17.18 6.75l-.31-.03-17.87-4.13a1.37 1.37 0 0 1-.67-.37l-65.76-65.76a6.9 6.9 0 0 1 0-9.73l5.96-5.97a6.86 6.86 0 0 1 9.73 0l65.77 65.77c.18.18.3.41.36.66l4.13 17.88a1.38 1.38 0 0 1-1.34 1.68z"/><path id="z83ie" d="M1085 3570.87c-.35 0-.7-.13-.97-.4l-4.13-4.12a1.37 1.37 0 1 1 1.95-1.95l4.12 4.13a1.37 1.37 0 0 1-.97 2.34z"/><path id="z83if" d="M1090.5 3565.37c-.35 0-.7-.13-.97-.4l-4.13-4.12a1.37 1.37 0 1 1 1.95-1.95l4.12 4.13a1.37 1.37 0 0 1-.97 2.34z"/><path id="z83ig" d="M1096 3559.87c-.35 0-.7-.13-.97-.4l-4.13-4.12a1.37 1.37 0 1 1 1.95-1.95l4.12 4.13a1.37 1.37 0 0 1-.97 2.34z"/><path id="z83ih" d="M1101.5 3554.37c-.35 0-.7-.13-.97-.4l-4.13-4.12a1.37 1.37 0 1 1 1.95-1.95l4.12 4.13a1.37 1.37 0 0 1-.97 2.34z"/><path id="z83ii" d="M1129 3526.87c-.35 0-.7-.13-.97-.4l-4.13-4.12a1.37 1.37 0 1 1 1.95-1.95l4.12 4.13a1.37 1.37 0 0 1-.97 2.34z"/><path id="z83ij" d="M1134.5 3521.37c-.35 0-.7-.13-.97-.4l-4.13-4.12a1.37 1.37 0 1 1 1.95-1.95l4.12 4.13a1.37 1.37 0 0 1-.97 2.34z"/><path id="z83ik" d="M1140 3515.87c-.35 0-.7-.13-.97-.4l-4.13-4.12a1.37 1.37 0 1 1 1.95-1.95l4.12 4.13a1.37 1.37 0 0 1-.97 2.34z"/><path id="z83il" d="M1145.5 3510.37c-.35 0-.7-.13-.97-.4l-4.13-4.12a1.37 1.37 0 1 1 1.95-1.95l4.12 4.13a1.37 1.37 0 0 1-.97 2.34z"/><path id="z83im" d="M1142.74 3581.87a1.37 1.37 0 0 1-.97-2.35l13.75-13.75a1.37 1.37 0 1 1 1.95 1.95l-13.75 13.75c-.27.27-.62.4-.98.4z"/><path id="z83in" d="M1151.68 3583.93a1.37 1.37 0 0 1-.97-2.34l6.88-6.88a1.37 1.37 0 1 1 1.94 1.95l-6.87 6.87c-.27.27-.62.4-.98.4z"/><path id="z83io" d="M1078.13 3517.25a1.37 1.37 0 0 1-.98-2.35l13.75-13.75a1.37 1.37 0 1 1 1.95 1.95l-13.75 13.75c-.27.27-.62.4-.97.4z"/><path id="z83ip" d="M1152.38 3572.25c-.36 0-.7-.13-.98-.4l-60.5-60.5a1.37 1.37 0 1 1 1.95-1.95l60.5 60.5a1.37 1.37 0 0 1-.97 2.35z"/><path id="z83iq" d="M1146.88 3577.75c-.36 0-.7-.13-.98-.4l-60.5-60.5a1.37 1.37 0 1 1 1.95-1.95l60.5 60.5a1.37 1.37 0 0 1-.97 2.35z"/><path id="z83ir" d="M1118 3521.38a1.38 1.38 0 0 1-.96-2.35c.48-.5 1.43-.51 1.94 0a1.4 1.4 0 0 1 0 1.95c-.26.25-.62.4-.98.4z"/><path id="z83is" d="M1118 3515.88a1.38 1.38 0 0 1-.96-2.35c.48-.5 1.42-.51 1.94 0 .25.26.4.6.4.97 0 .36-.15.72-.4.98-.26.25-.62.4-.98.4z"/><path id="z83it" d="M1118 3510.37c-.35 0-.71-.15-.97-.4-.25-.26-.4-.61-.4-.97s.15-.72.4-.98c.52-.5 1.43-.5 1.95 0 .25.26.4.62.4.98s-.15.71-.4.97c-.26.25-.62.4-.98.4z"/><path id="z83iu" d="M1118 3504.87c-.35 0-.71-.15-.97-.4-.25-.26-.4-.61-.4-.97s.15-.72.4-.98c.52-.5 1.44-.5 1.95 0 .25.26.4.62.4.98a1.4 1.4 0 0 1-1.38 1.37z"/><path id="z83iv" d="M1118 3581.87c-.35 0-.71-.15-.97-.4-.25-.26-.4-.61-.4-.97 0-.37.15-.72.4-.98.52-.5 1.43-.5 1.95 0 .25.26.4.6.4.98 0 .36-.15.71-.4.97-.26.25-.62.4-.98.4z"/><path id="z83iw" d="M1118 3576.37c-.35 0-.71-.15-.97-.4-.25-.26-.4-.61-.4-.97 0-.37.15-.72.4-.98.52-.5 1.44-.5 1.95 0 .25.26.4.62.4.98s-.15.71-.4.97c-.26.25-.62.4-.98.4z"/><path id="z83ix" d="M1118 3570.87c-.35 0-.71-.15-.97-.4-.25-.26-.4-.61-.4-.97 0-.37.15-.72.4-.98.5-.5 1.43-.5 1.95 0 .25.26.4.62.4.98s-.15.71-.4.97c-.26.25-.62.4-.98.4z"/><path id="z83iy" d="M1118 3565.37c-.35 0-.71-.15-.97-.4-.25-.26-.4-.61-.4-.97s.15-.72.4-.98c.5-.5 1.43-.5 1.95 0 .25.26.4.62.4.98s-.15.71-.4.97c-.26.25-.62.4-.98.4z"/><path id="z83iz" d="M1140 3543.37a1.38 1.38 0 0 1-1.37-1.37c0-.37.15-.72.4-.98.5-.5 1.44-.5 1.95 0 .25.26.4.6.4.98 0 .37-.15.71-.4.97-.26.25-.6.4-.98.4z"/><path id="z83iA" d="M1145.5 3543.37c-.35 0-.71-.15-.97-.4-.25-.26-.4-.61-.4-.97s.15-.72.4-.98c.52-.5 1.44-.5 1.95 0 .25.26.4.62.4.98s-.15.71-.41.97c-.25.25-.6.4-.97.4z"/><path id="z83iB" d="M1151 3543.37c-.35 0-.71-.15-.97-.4-.25-.26-.4-.61-.4-.97s.15-.72.4-.98c.52-.5 1.43-.5 1.95 0 .25.26.4.62.4.98s-.15.71-.4.97c-.26.25-.62.4-.98.4z"/><path id="z83iC" d="M1156.5 3543.37a1.4 1.4 0 0 1-.97-.4c-.25-.26-.4-.6-.4-.97s.15-.72.4-.98c.5-.5 1.43-.5 1.95 0 .25.26.4.62.4.98s-.15.71-.4.97c-.26.25-.62.4-.98.4z"/><path id="z83iD" d="M1079.5 3543.37c-.35 0-.71-.15-.97-.4-.25-.26-.4-.61-.4-.97s.15-.72.4-.98c.52-.5 1.44-.5 1.95 0a1.38 1.38 0 0 1-.98 2.35z"/><path id="z83iE" d="M1085 3543.37c-.35 0-.71-.15-.97-.4-.25-.26-.4-.61-.4-.97s.15-.72.4-.98c.52-.5 1.43-.5 1.95 0 .25.26.4.62.4.98s-.15.71-.4.97c-.26.25-.62.4-.98.4z"/><path id="z83iF" d="M1090.5 3543.37a1.4 1.4 0 0 1-.97-.4c-.25-.26-.4-.6-.4-.97s.15-.72.4-.98c.5-.5 1.43-.5 1.95 0 .25.26.4.62.4.98s-.15.71-.4.97c-.26.25-.62.4-.98.4z"/><path id="z83iG" d="M1096 3543.37a1.38 1.38 0 0 1-1.37-1.37c0-.37.15-.72.4-.98.5-.5 1.44-.5 1.95 0 .25.26.4.6.4.98 0 .37-.15.71-.4.97-.26.25-.62.4-.98.4z"/></defs><g><g transform="translate(-1074 -3498)"><g><g><g><g><use fill="#5153d4" xlink:href="#z83ia"/></g></g><g><g><use fill="#5153d4" xlink:href="#z83ib"/></g></g><g><g><use fill="#5153d4" xlink:href="#z83ic"/></g></g><g><g><use fill="#5153d4" xlink:href="#z83id"/></g></g><g><g><use fill="#5153d4" xlink:href="#z83ie"/></g></g><g><g><use fill="#5153d4" xlink:href="#z83if"/></g></g><g><g><use fill="#5153d4" xlink:href="#z83ig"/></g></g><g><g><use fill="#5153d4" xlink:href="#z83ih"/></g></g><g><g><use fill="#5153d4" xlink:href="#z83ii"/></g></g><g><g><use fill="#5153d4" xlink:href="#z83ij"/></g></g><g><g><use fill="#5153d4" xlink:href="#z83ik"/></g></g><g><g><use fill="#5153d4" xlink:href="#z83il"/></g></g><g><g><use fill="#5153d4" xlink:href="#z83im"/></g></g><g><g><use fill="#5153d4" xlink:href="#z83in"/></g></g><g><g><use fill="#5153d4" xlink:href="#z83io"/></g></g><g><g><use fill="#5153d4" xlink:href="#z83ip"/></g></g><g><g><use fill="#5153d4" xlink:href="#z83iq"/></g></g><g><g><g><use fill="#5153d4" xlink:href="#z83ir"/></g></g><g><g><use fill="#5153d4" xlink:href="#z83is"/></g></g><g><g><use fill="#5153d4" xlink:href="#z83it"/></g></g><g><g><use fill="#5153d4" xlink:href="#z83iu"/></g></g></g><g><g><g><use fill="#5153d4" xlink:href="#z83iv"/></g></g><g><g><use fill="#5153d4" xlink:href="#z83iw"/></g></g><g><g><use fill="#5153d4" xlink:href="#z83ix"/></g></g><g><g><use fill="#5153d4" xlink:href="#z83iy"/></g></g></g><g><g><g><use fill="#5153d4" xlink:href="#z83iz"/></g></g><g><g><use fill="#5153d4" xlink:href="#z83iA"/></g></g><g><g><use fill="#5153d4" xlink:href="#z83iB"/></g></g><g><g><use fill="#5153d4" xlink:href="#z83iC"/></g></g></g><g><g><g><use fill="#5153d4" xlink:href="#z83iD"/></g></g><g><g><use fill="#5153d4" xlink:href="#z83iE"/></g></g><g><g><use fill="#5153d4" xlink:href="#z83iF"/></g></g><g><g><use fill="#5153d4" xlink:href="#z83iG"/></g></g></g></g></g></g></g></svg>