<svg xmlns="http://www.w3.org/2000/svg" xmlns:xlink="http://www.w3.org/1999/xlink" width="123" height="118" viewBox="0 0 123 118"><defs><path id="ou2va" d="M543.84 1957.84v53.74h115.33v-53.74H543.84zm115.32 57.58H543.84a3.85 3.85 0 0 1-3.84-3.84v-53.74a3.85 3.85 0 0 1 3.84-3.84h115.32a3.85 3.85 0 0 1 3.84 3.84v53.74a3.85 3.85 0 0 1-3.84 3.84z"/><path id="ou2vb" d="M555.05 2003.9h92.9a5.79 5.79 0 0 1 3.52-3.5v-31.37a5.79 5.79 0 0 1-3.51-3.51h-92.91a5.79 5.79 0 0 1-3.52 3.5v31.38a5.79 5.79 0 0 1 3.52 3.5zm94.5 3.84h-96.1a1.92 1.92 0 0 1-1.92-1.91c0-1.06-.86-1.92-1.92-1.92a1.92 1.92 0 0 1-1.92-1.92v-34.55c0-1.06.86-1.92 1.92-1.92s1.92-.86 1.92-1.92.86-1.92 1.93-1.92h96.09c1.06 0 1.92.86 1.92 1.92s.86 1.92 1.92 1.92c1.07 0 1.93.86 1.93 1.92v34.55c0 1.06-.86 1.92-1.93 1.92-1.06 0-1.92.86-1.92 1.92s-.86 1.91-1.92 1.91z"/><path id="ou2vc" d="M601.5 1973.19c-5.3 0-9.6 5.16-9.6 11.51 0 6.36 4.3 11.52 9.6 11.52s9.61-5.16 9.61-11.52c0-6.35-4.3-11.51-9.6-11.51zm0 26.87c-7.41 0-13.45-6.89-13.45-15.36 0-8.46 6.04-15.35 13.45-15.35 7.42 0 13.46 6.89 13.46 15.35 0 8.47-6.04 15.36-13.46 15.36z"/><path id="ou2vd" d="M566.91 1982.79c-1.06 0-1.93.86-1.93 1.92a1.93 1.93 0 0 0 3.86 0c0-1.06-.87-1.92-1.93-1.92zm0 7.68a5.77 5.77 0 1 1 0-11.54 5.77 5.77 0 0 1 0 11.54z"/><path id="ou2ve" d="M636.1 1982.79c-1.06 0-1.93.86-1.93 1.92a1.93 1.93 0 0 0 3.86 0c0-1.06-.87-1.92-1.93-1.92zm0 7.68a5.77 5.77 0 1 1 0-11.54 5.77 5.77 0 0 1 0 11.54z"/><path id="ou2vf" d="M580.36 1986.62c-.5 0-1-.2-1.36-.55a2.01 2.01 0 0 1-.56-1.36c0-.5.21-1 .56-1.37a2.01 2.01 0 0 1 2.73 0c.34.37.55.87.55 1.37 0 .5-.2 1-.55 1.36-.37.34-.87.55-1.37.55z"/><path id="ou2vg" d="M622.64 1986.62c-.5 0-1-.2-1.36-.55a2.01 2.01 0 0 1-.56-1.36c0-.5.21-1 .56-1.37a2.01 2.01 0 0 1 2.73 0c.34.37.55.87.55 1.37 0 .5-.2 1-.55 1.36-.37.34-.87.55-1.37.55z"/><path id="ou2vh" d="M601.5 2073a1.92 1.92 0 0 1-1.92-1.92v-57.58a1.92 1.92 0 0 1 3.84 0v57.58c0 1.06-.86 1.92-1.92 1.92z"/><path id="ou2vi" d="M661.08 2073H541.92a1.92 1.92 0 1 1 0-3.84h119.16a1.92 1.92 0 1 1 0 3.84z"/><path id="ou2vj" d="M620.72 2073a1.92 1.92 0 0 1-1.92-1.92v-47.98a1.92 1.92 0 0 1 3.84 0v47.98c0 1.06-.86 1.92-1.92 1.92z"/><path id="ou2vk" d="M639.94 2073a1.92 1.92 0 0 1-1.92-1.92v-26.87a1.92 1.92 0 0 1 3.84 0v26.87c0 1.06-.86 1.92-1.92 1.92z"/><path id="ou2vl" d="M582.28 2073a1.92 1.92 0 0 1-1.92-1.92v-47.98a1.92 1.92 0 0 1 3.84 0v47.98c0 1.06-.86 1.92-1.92 1.92z"/><path id="ou2vm" d="M563.06 2073a1.92 1.92 0 0 1-1.92-1.92v-26.87a1.92 1.92 0 0 1 3.84 0v26.87c0 1.06-.86 1.92-1.92 1.92z"/><path id="ou2vn" d="M572.67 2055.73c-.5 0-.98-.2-1.36-.57l-8.25-8.24-8.25 8.24a1.92 1.92 0 0 1-2.72-2.71l9.61-9.6a1.92 1.92 0 0 1 2.72 0l9.6 9.6a1.92 1.92 0 0 1-1.35 3.28z"/><path id="ou2vo" d="M591.9 2034.62c-.5 0-1-.2-1.37-.57l-8.25-8.24-8.25 8.24a1.92 1.92 0 0 1-2.72-2.71l9.61-9.6a1.92 1.92 0 0 1 2.72 0l9.6 9.6a1.92 1.92 0 0 1-1.35 3.28z"/><path id="ou2vp" d="M649.55 2055.73c-.5 0-.98-.2-1.36-.57l-8.25-8.24-8.25 8.24a1.92 1.92 0 0 1-2.72-2.71l9.61-9.6a1.92 1.92 0 0 1 2.72 0l9.6 9.6a1.92 1.92 0 0 1-1.35 3.28z"/><path id="ou2vq" d="M630.33 2034.62c-.5 0-.98-.2-1.36-.57l-8.25-8.24-8.25 8.24a1.92 1.92 0 0 1-2.72-2.71l9.61-9.6a1.92 1.92 0 0 1 2.72 0l9.6 9.6a1.92 1.92 0 0 1-1.35 3.28z"/><path id="ou2vr" d="M639.94 2040.37c-.5 0-1-.2-1.36-.55a1.98 1.98 0 0 1-.56-1.36c0-.52.21-1 .56-1.37a2.01 2.01 0 0 1 2.73 0 1.93 1.93 0 0 1 0 2.73c-.37.34-.87.55-1.37.55z"/><path id="ou2vs" d="M639.94 2032.7c-.5 0-1-.22-1.36-.56a1.98 1.98 0 0 1-.56-1.36c0-.52.21-1 .56-1.37.73-.7 2-.7 2.73 0a1.93 1.93 0 0 1 0 2.73c-.37.34-.87.55-1.37.55z"/><path id="ou2vt" d="M639.94 2025.01c-.5 0-1-.2-1.36-.55a1.94 1.94 0 0 1 0-2.73c.73-.7 2-.7 2.73 0a1.93 1.93 0 0 1 0 2.73c-.37.34-.87.55-1.37.55z"/><path id="ou2vu" d="M563.06 2040.37c-.5 0-1-.2-1.36-.55a1.93 1.93 0 0 1 0-2.73 2.01 2.01 0 0 1 2.73 0c.34.37.55.87.55 1.37 0 .5-.2 1-.55 1.36-.37.34-.87.55-1.37.55z"/><path id="ou2vv" d="M563.06 2032.7c-.5 0-1-.22-1.36-.56a1.93 1.93 0 0 1 0-2.73c.73-.7 2-.7 2.73 0 .34.37.55.87.55 1.37 0 .5-.2 1-.55 1.36-.37.34-.87.55-1.37.55z"/><path id="ou2vw" d="M563.06 2025.01c-.5 0-1-.2-1.36-.55a1.93 1.93 0 0 1 0-2.73 2.01 2.01 0 0 1 2.73 0c.34.37.55.87.55 1.37 0 .5-.2 1-.55 1.36-.37.34-.87.55-1.37.55z"/></defs><g><g transform="translate(-540 -1955)"><g><g><g><g><g><use fill="#26d7cf" xlink:href="#ou2va"/></g></g><g><g><use fill="#26d7cf" xlink:href="#ou2vb"/></g></g><g><g><use fill="#26d7cf" xlink:href="#ou2vc"/></g></g><g><g><use fill="#26d7cf" xlink:href="#ou2vd"/></g></g><g><g><use fill="#26d7cf" xlink:href="#ou2ve"/></g></g><g><g><use fill="#26d7cf" xlink:href="#ou2vf"/></g></g><g><g><use fill="#26d7cf" xlink:href="#ou2vg"/></g></g></g><g><g><use fill="#26d7cf" xlink:href="#ou2vh"/></g></g><g><g><use fill="#26d7cf" xlink:href="#ou2vi"/></g></g><g><g><use fill="#26d7cf" xlink:href="#ou2vj"/></g></g><g><g><use fill="#26d7cf" xlink:href="#ou2vk"/></g></g><g><g><use fill="#26d7cf" xlink:href="#ou2vl"/></g></g><g><g><use fill="#26d7cf" xlink:href="#ou2vm"/></g></g><g><g><use fill="#26d7cf" xlink:href="#ou2vn"/></g></g><g><g><use fill="#26d7cf" xlink:href="#ou2vo"/></g></g><g><g><use fill="#26d7cf" xlink:href="#ou2vp"/></g></g><g><g><use fill="#26d7cf" xlink:href="#ou2vq"/></g></g><g><g><use fill="#26d7cf" xlink:href="#ou2vr"/></g></g><g><g><use fill="#26d7cf" xlink:href="#ou2vs"/></g></g><g><g><use fill="#26d7cf" xlink:href="#ou2vt"/></g></g><g><g><use fill="#26d7cf" xlink:href="#ou2vu"/></g></g><g><g><use fill="#26d7cf" xlink:href="#ou2vv"/></g></g><g><g><use fill="#26d7cf" xlink:href="#ou2vw"/></g></g></g></g></g></g></svg>