<svg xmlns="http://www.w3.org/2000/svg" xmlns:xlink="http://www.w3.org/1999/xlink" width="89" height="89" viewBox="0 0 70 89"><defs><path id="3unza" d="M1089.3 3830.93h2.78v-3.14c0-.64.43-1.19 1.04-1.35a9.67 9.67 0 0 0 2.5-1.03 1.4 1.4 0 0 1 1.7.21l2.22 2.22 1.96-1.96-2.22-2.23a1.4 1.4 0 0 1-.21-1.69c.46-.78.8-1.62 1.03-2.5a1.4 1.4 0 0 1 1.35-1.04h3.14v-2.78h-3.14a1.4 1.4 0 0 1-1.35-1.05 9.63 9.63 0 0 0-1.03-2.5 1.4 1.4 0 0 1 .21-1.69l2.22-2.22-1.96-1.97-2.23 2.23a1.4 1.4 0 0 1-1.69.21 9.67 9.67 0 0 0-2.5-1.04 1.39 1.39 0 0 1-1.04-1.34v-3.15h-2.78v3.15c0 .63-.43 1.18-1.05 1.34-.88.23-1.72.58-2.5 1.04a1.4 1.4 0 0 1-1.69-.21l-2.22-2.23-1.97 1.97 2.23 2.22c.44.45.53 1.15.21 1.7-.46.77-.81 1.61-1.04 2.5a1.39 1.39 0 0 1-1.34 1.04h-3.15v2.78h3.15c.63 0 1.18.43 1.34 1.04.23.88.58 1.72 1.04 2.5a1.4 1.4 0 0 1-.21 1.7l-2.23 2.22 1.97 1.96 2.22-2.22a1.4 1.4 0 0 1 1.7-.21c.77.46 1.61.8 2.5 1.03.6.16 1.04.71 1.04 1.35v3.14zm4.17 2.79h-5.56c-.77 0-1.4-.63-1.4-1.4v-3.5c-.4-.15-.81-.32-1.2-.5l-2.49 2.47c-.54.55-1.42.55-1.97 0l-3.93-3.93a1.39 1.39 0 0 1 0-1.97l2.48-2.48c-.19-.4-.35-.8-.5-1.21h-3.5c-.78 0-1.4-.62-1.4-1.4v-5.55c0-.77.62-1.4 1.4-1.4h3.5c.15-.4.31-.81.5-1.2l-2.48-2.49a1.39 1.39 0 0 1 0-1.97l3.93-3.93a1.39 1.39 0 0 1 1.97 0l2.48 2.48c.4-.19.8-.35 1.22-.5v-3.5c0-.78.62-1.4 1.39-1.4h5.56c.77 0 1.39.62 1.39 1.4v3.5c.41.15.82.31 1.21.5l2.48-2.48a1.39 1.39 0 0 1 1.97 0l3.93 3.93c.55.55.55 1.43 0 1.97l-2.48 2.48c.2.4.36.8.5 1.22h3.51c.77 0 1.4.62 1.4 1.39v5.56c0 .77-.63 1.39-1.4 1.39h-3.5c-.15.41-.32.82-.5 1.21l2.47 2.48c.55.55.55 1.43 0 1.97l-3.93 3.93c-.54.55-1.42.55-1.97 0l-2.48-2.48c-.4.2-.8.36-1.21.5v3.51c0 .77-.62 1.4-1.4 1.4z"/><path id="3unzb" d="M1114.33 3878.22h5.56v-6.1c0-.64.43-1.2 1.05-1.36 1.38-.35 2.7-.9 3.93-1.62a1.4 1.4 0 0 1 1.69.21l4.32 4.32 3.93-3.93-4.32-4.32a1.4 1.4 0 0 1-.21-1.7 15.15 15.15 0 0 0 1.62-3.92 1.4 1.4 0 0 1 1.35-1.05h6.11v-5.56h-6.1a1.4 1.4 0 0 1-1.36-1.04c-.35-1.39-.9-2.71-1.62-3.93a1.4 1.4 0 0 1 .21-1.7l4.32-4.32-3.93-3.93-4.32 4.32a1.4 1.4 0 0 1-1.7.22 15.15 15.15 0 0 0-3.92-1.63 1.4 1.4 0 0 1-1.05-1.35v-6.1h-5.56v6.1a1.4 1.4 0 0 1-1.04 1.35c-1.39.36-2.71.9-3.93 1.63a1.4 1.4 0 0 1-1.7-.22l-4.32-4.32-3.93 3.93 4.32 4.32c.45.45.54 1.15.22 1.7a15.15 15.15 0 0 0-1.63 3.93 1.4 1.4 0 0 1-1.35 1.04h-6.1v5.56h6.1c.64 0 1.19.43 1.35 1.05.36 1.38.9 2.7 1.63 3.93a1.4 1.4 0 0 1-.22 1.69l-4.32 4.32 3.93 3.93 4.32-4.32a1.4 1.4 0 0 1 1.7-.21c1.22.72 2.54 1.27 3.93 1.62a1.4 1.4 0 0 1 1.04 1.35v6.11zm6.95 2.78h-8.34c-.77 0-1.4-.62-1.4-1.39v-6.45c-.9-.3-1.8-.67-2.65-1.1l-4.56 4.56c-.52.52-1.45.52-1.97 0l-5.9-5.9a1.39 1.39 0 0 1 0-1.97l4.57-4.56c-.44-.85-.8-1.74-1.1-2.66h-6.46c-.77 0-1.39-.62-1.39-1.39v-8.34c0-.77.62-1.4 1.4-1.4h6.45c.3-.9.66-1.8 1.1-2.65l-4.57-4.56a1.39 1.39 0 0 1 0-1.97l5.9-5.9a1.43 1.43 0 0 1 1.97 0l4.56 4.57c.86-.44 1.74-.8 2.66-1.1v-6.46c0-.77.62-1.39 1.39-1.39h8.34c.77 0 1.4.62 1.4 1.4v6.45c.9.3 1.8.66 2.65 1.1l4.56-4.57a1.43 1.43 0 0 1 1.97 0l5.9 5.9a1.39 1.39 0 0 1 0 1.97l-4.56 4.56c.43.86.8 1.74 1.1 2.66h6.45c.77 0 1.4.62 1.4 1.39v8.34c0 .77-.63 1.4-1.4 1.4h-6.45c-.3.9-.67 1.8-1.1 2.65l4.56 4.56a1.39 1.39 0 0 1 0 1.97l-5.9 5.9c-.52.52-1.44.52-1.97 0l-4.56-4.56c-.85.43-1.74.8-2.66 1.1v6.45c0 .77-.62 1.4-1.39 1.4z"/><path id="3unzc" d="M1142.14 3828.16h2.78v-4.5c0-.65.45-1.2 1.08-1.35 1.22-.28 2.38-.76 3.44-1.43a1.39 1.39 0 0 1 1.73.2l3.18 3.17 1.96-1.96-3.18-3.18a1.4 1.4 0 0 1-.2-1.73 11.1 11.1 0 0 0 1.44-3.44c.14-.63.7-1.08 1.35-1.08h4.5v-2.78h-4.5c-.65 0-1.2-.45-1.35-1.08a11.06 11.06 0 0 0-1.43-3.44 1.4 1.4 0 0 1 .2-1.73l3.17-3.18-1.96-1.96-3.18 3.17c-.46.47-1.18.54-1.73.2a11.06 11.06 0 0 0-3.44-1.43 1.39 1.39 0 0 1-1.08-1.36v-4.49h-2.78v4.5c0 .64-.45 1.2-1.08 1.35-1.22.28-2.38.76-3.44 1.43-.55.34-1.27.27-1.73-.2l-3.18-3.17-1.96 1.96 3.17 3.18c.46.46.54 1.18.2 1.73a11.06 11.06 0 0 0-1.43 3.44c-.15.63-.7 1.08-1.36 1.08h-4.49v2.78h4.5c.64 0 1.2.45 1.35 1.08a11.1 11.1 0 0 0 1.43 3.44 1.4 1.4 0 0 1-.2 1.73l-3.17 3.18 1.96 1.96 3.18-3.18a1.39 1.39 0 0 1 1.73-.19c1.06.67 2.22 1.15 3.44 1.43.63.14 1.08.7 1.08 1.35v4.5zm4.17 2.78h-5.56c-.77 0-1.4-.62-1.4-1.4v-4.81a13.7 13.7 0 0 1-2.24-.94l-3.41 3.41c-.53.52-1.45.52-1.97 0l-3.93-3.93a1.39 1.39 0 0 1 0-1.97l3.4-3.4a13.8 13.8 0 0 1-.93-2.26h-4.82c-.77 0-1.39-.62-1.39-1.39v-5.56c0-.77.62-1.4 1.4-1.4h4.81c.24-.77.56-1.52.94-2.24l-3.41-3.41a1.39 1.39 0 0 1 0-1.97l3.93-3.93a1.43 1.43 0 0 1 1.97 0l3.4 3.4c.73-.37 1.48-.69 2.26-.93v-4.82c0-.77.62-1.39 1.39-1.39h5.56c.77 0 1.4.62 1.4 1.4v4.81c.77.24 1.52.56 2.24.94l3.41-3.41a1.43 1.43 0 0 1 1.97 0l3.93 3.93a1.39 1.39 0 0 1 0 1.97l-3.4 3.4c.37.73.68 1.48.93 2.26h4.82c.77 0 1.39.62 1.39 1.39v5.56c0 .77-.62 1.4-1.4 1.4h-4.81a13.8 13.8 0 0 1-.94 2.24l3.41 3.41a1.39 1.39 0 0 1 0 1.97l-3.93 3.93c-.52.52-1.45.52-1.97 0l-3.4-3.4c-.73.37-1.48.68-2.26.93v4.82c0 .77-.62 1.39-1.39 1.39z"/><path id="3unzd" d="M1143.53 3805.91a5.57 5.57 0 1 0 .02 11.14 5.57 5.57 0 0 0-.02-11.14zm0 13.9a8.35 8.35 0 0 1 0-16.68 8.35 8.35 0 0 1 0 16.69z"/><path id="3unze" d="M1090.69 3812.86a4.18 4.18 0 1 0 0 8.36 4.18 4.18 0 0 0 0-8.36zm0 11.13a6.96 6.96 0 1 1 0-13.93 6.96 6.96 0 0 1 0 13.93z"/><path id="3unzf" d="M1117.1 3846.23a9.75 9.75 0 0 0 0 19.47 9.75 9.75 0 0 0 0-19.47zm0 22.25c-6.9 0-12.51-5.61-12.51-12.51a12.53 12.53 0 0 1 25.03 0c0 6.9-5.61 12.51-12.51 12.51z"/><path id="3unzg" d="M1111.55 3857.36c-.36 0-.72-.15-.99-.4-.25-.26-.4-.61-.4-.99 0-.36.15-.72.4-.98a1.46 1.46 0 0 1 1.98 0c.25.26.4.62.4.98s-.15.73-.4 1c-.27.24-.63.4-.99.4z"/><path id="3unzh" d="M1117.11 3857.36c-.36 0-.72-.15-.99-.4-.25-.26-.4-.61-.4-.99 0-.36.15-.72.4-.98a1.46 1.46 0 0 1 1.98 0 1.4 1.4 0 0 1 0 1.97c-.27.25-.63.4-.99.4z"/><path id="3unzi" d="M1122.67 3857.36c-.36 0-.72-.15-.99-.4-.25-.26-.4-.61-.4-.99 0-.36.15-.72.4-.98a1.46 1.46 0 0 1 1.98 0c.25.26.4.62.4.98s-.15.73-.42 1c-.25.24-.6.4-.97.4z"/></defs><g><g transform="translate(-1083 -3792)"><g><g><g><g><g><use fill="#5153d4" xlink:href="#3unza"/></g></g><g><g><use fill="#5153d4" xlink:href="#3unzb"/></g></g></g><g><g><use fill="#5153d4" xlink:href="#3unzc"/></g></g><g><g><use fill="#5153d4" xlink:href="#3unzd"/></g></g><g><g><use fill="#5153d4" xlink:href="#3unze"/></g></g><g><g><use fill="#5153d4" xlink:href="#3unzf"/></g></g><g><g><use fill="#5153d4" xlink:href="#3unzg"/></g></g><g><g><use fill="#5153d4" xlink:href="#3unzh"/></g></g><g><g><use fill="#5153d4" xlink:href="#3unzi"/></g></g></g></g></g></g></svg>