<svg xmlns="http://www.w3.org/2000/svg" xmlns:xlink="http://www.w3.org/1999/xlink" width="87" height="87" viewBox="0 0 87 58"><defs><path id="9mtza" d="M336.1 3501.72a27.21 27.21 0 0 0-27.2 27.18 27.21 27.21 0 0 0 27.2 27.18 27.21 27.21 0 0 0 27.17-27.18 27.21 27.21 0 0 0-27.18-27.18zm0 57.1a29.94 29.94 0 0 1-29.91-29.91 29.94 29.94 0 0 1 29.9-29.91 29.94 29.94 0 0 1 29.91 29.9 29.94 29.94 0 0 1-29.9 29.91z"/><path id="9mtzb" d="M336.1 3507.16c-12 0-21.75 9.76-21.75 21.75 0 12 9.76 21.75 21.75 21.75 12 0 21.75-9.76 21.75-21.75 0-12-9.76-21.75-21.75-21.75zm0 46.22a24.5 24.5 0 0 1-24.47-24.47 24.5 24.5 0 0 1 24.47-24.47 24.5 24.5 0 0 1 24.47 24.47 24.5 24.5 0 0 1-24.47 24.47z"/><path id="9mtzc" d="M319.8 3523.4a1.36 1.36 0 0 1-1.24-1.9 19.03 19.03 0 0 1 6.9-8.37 1.36 1.36 0 1 1 1.52 2.26 16.5 16.5 0 0 0-5.92 7.18c-.22.52-.72.83-1.25.83z"/><path id="9mtzd" d="M285.92 3586a6.88 6.88 0 0 1-4.89-2.03 6.87 6.87 0 0 1 0-9.78l30.38-30.38a1.36 1.36 0 1 1 1.92 1.92l-30.38 30.38a4.17 4.17 0 0 0 0 5.94c.8.8 1.85 1.23 2.97 1.23h.01c1.12 0 2.17-.44 2.95-1.23l30.39-30.38a1.36 1.36 0 1 1 1.92 1.92l-30.38 30.38a6.84 6.84 0 0 1-4.88 2.03z"/><path id="9mtze" d="M336.09 3543.86c-.75 0-1.36-.61-1.36-1.36v-27.2a1.36 1.36 0 1 1 2.72 0v27.2c0 .75-.6 1.36-1.36 1.36z"/><path id="9mtzf" d="M349.69 3530.27h-27.2a1.36 1.36 0 1 1 0-2.72h27.2a1.36 1.36 0 1 1 0 2.72z"/><path id="9mtzg" d="M287.16 3579.2c-.37 0-.7-.15-.97-.4a1.38 1.38 0 0 1 0-1.92c.5-.5 1.4-.5 1.93 0 .25.26.4.6.4.96s-.15.7-.4.97c-.25.26-.6.4-.96.4z"/><path id="9mtzh" d="M291.24 3575.12c-.35 0-.7-.15-.97-.4-.24-.25-.39-.6-.39-.96 0-.35.15-.7.4-.96.51-.5 1.42-.5 1.92 0 .25.26.4.6.4.96a1.36 1.36 0 0 1-1.36 1.36z"/><path id="9mtzi" d="M295.3 3571.05c-.34 0-.7-.15-.96-.4-.25-.25-.39-.6-.39-.96 0-.35.14-.7.4-.96.51-.5 1.42-.5 1.92 0 .25.26.4.6.4.96s-.15.7-.4.97c-.25.24-.6.4-.96.4z"/><path id="9mtzj" d="M299.39 3566.97c-.35 0-.7-.15-.97-.4-.24-.25-.39-.6-.39-.96 0-.35.15-.7.4-.96.5-.5 1.42-.5 1.92 0 .25.26.4.6.4.96s-.15.7-.4.97c-.25.24-.6.4-.96.4z"/></defs><g><g transform="translate(-279 -3513)"><g><g><g><g><use fill="#5153d4" xlink:href="#9mtza"/></g></g><g><g><use fill="#5153d4" xlink:href="#9mtzb"/></g></g><g><g><use fill="#5153d4" xlink:href="#9mtzc"/></g></g><g><g><use fill="#5153d4" xlink:href="#9mtzd"/></g></g><g><g><use fill="#5153d4" xlink:href="#9mtze"/></g></g><g><g><use fill="#5153d4" xlink:href="#9mtzf"/></g></g><g><g><use fill="#5153d4" xlink:href="#9mtzg"/></g></g><g><g><use fill="#5153d4" xlink:href="#9mtzh"/></g></g><g><g><use fill="#5153d4" xlink:href="#9mtzi"/></g></g><g><g><use fill="#5153d4" xlink:href="#9mtzj"/></g></g></g></g></g></g></svg>