<svg xmlns="http://www.w3.org/2000/svg" xmlns:xlink="http://www.w3.org/1999/xlink" width="93" height="87" viewBox="0 0 93 87"><defs><path id="wocea" d="M366.35 3865.5h-22.68a1.45 1.45 0 1 1 0-2.9h21.23v-66.7h-87v66.7h18.33a1.45 1.45 0 1 1 0 2.9h-19.78c-.8 0-1.45-.65-1.45-1.45v-69.6c0-.8.65-1.45 1.45-1.45h89.9c.8 0 1.45.65 1.45 1.45v69.6c0 .8-.65 1.45-1.45 1.45z"/><path id="woceb" d="M366.35 3807.5h-89.9a1.45 1.45 0 1 1 0-2.9h89.9a1.45 1.45 0 1 1 0 2.9z"/><path id="wocec" d="M348.95 3801.7c-.38 0-.75-.14-1.03-.42a1.52 1.52 0 0 1-.42-1.03c0-.39.16-.75.42-1.03a1.52 1.52 0 0 1 2.06 0c.26.28.42.66.42 1.03 0 .38-.16.76-.42 1.03-.28.26-.65.42-1.03.42z"/><path id="woced" d="M354.75 3801.7c-.38 0-.75-.16-1.03-.42a1.5 1.5 0 0 1-.42-1.03c0-.38.16-.75.42-1.03a1.5 1.5 0 0 1 2.06.01c.26.27.42.64.42 1.02 0 .4-.16.75-.42 1.03-.28.26-.65.42-1.03.42z"/><path id="wocee" d="M360.55 3801.7c-.38 0-.75-.16-1.03-.42a1.52 1.52 0 0 1-.42-1.03c0-.37.16-.75.42-1.03a1.52 1.52 0 0 1 2.06 0c.26.28.42.66.42 1.03 0 .38-.16.76-.42 1.03-.28.26-.65.42-1.03.42z"/><path id="wocef" d="M343.15 3807.5c-.8 0-1.45-.65-1.45-1.45v-11.6a1.45 1.45 0 1 1 2.9 0v11.6c0 .8-.65 1.45-1.45 1.45z"/><path id="woceg" d="M321.4 3829.25a4.35 4.35 0 1 0 .01 8.71 4.35 4.35 0 0 0-.01-8.71zm0 11.6a7.26 7.26 0 1 1 .02-14.52 7.26 7.26 0 0 1-.02 14.52z"/><path id="woceh" d="M324.3 3830.03c-.8 0-1.45-.65-1.45-1.45v-5.13c0-.39-.15-.74-.42-1-.29-.3-.64-.45-1.03-.45-.8 0-1.45.65-1.45 1.45v5.13a1.45 1.45 0 1 1-2.9 0v-5.13a4.35 4.35 0 0 1 8.7 0v5.13c0 .8-.65 1.45-1.45 1.45z"/><path id="wocei" d="M321.4 3880a4.35 4.35 0 0 1-4.35-4.35v-37.03a1.45 1.45 0 1 1 2.9 0v37.03a1.45 1.45 0 0 0 2.9 0v-37.03a1.45 1.45 0 1 1 2.9 0v37.03c0 2.4-1.95 4.35-4.35 4.35z"/><path id="wocej" d="M306.9 3880a4.35 4.35 0 0 1-4.35-4.35v-6.58a1.45 1.45 0 1 1 2.9 0v6.58a1.45 1.45 0 0 0 2.9 0v-6.58a1.45 1.45 0 1 1 2.9 0v6.58c0 2.4-1.95 4.35-4.35 4.35z"/><path id="wocek" d="M309.8 3860.48c-.8 0-1.45-.65-1.45-1.45v-35.58c0-.39-.15-.74-.42-1-.29-.3-.64-.45-1.03-.45-.8 0-1.45.65-1.45 1.45v35.58a1.45 1.45 0 1 1-2.9 0v-35.58a4.35 4.35 0 0 1 8.7 0v35.58c0 .8-.65 1.45-1.45 1.45z"/><path id="wocel" d="M335.9 3842.3c.49 0 .97.05 1.45.15v-19c0-.39-.15-.74-.42-1-.29-.3-.64-.45-1.03-.45-.8 0-1.45.65-1.45 1.45v19c.48-.1.96-.15 1.45-.15zm2.9 3.68c-.25 0-.5-.06-.72-.2-1.36-.77-3-.77-4.36 0-.45.27-1 .27-1.45 0a1.45 1.45 0 0 1-.72-1.25v-21.08a4.35 4.35 0 0 1 8.7 0v21.08a1.45 1.45 0 0 1-1.45 1.45z"/><path id="wocem" d="M334.45 3856.65v19a1.45 1.45 0 0 0 2.9 0v-19c-.95.2-1.95.2-2.9 0zm1.45 23.35a4.35 4.35 0 0 1-4.35-4.35v-21.08a1.45 1.45 0 0 1 2.17-1.26c1.36.79 3 .79 4.36 0a1.45 1.45 0 0 1 2.17 1.26v21.08c0 2.4-1.95 4.35-4.35 4.35z"/><path id="wocen" d="M306.9 3859.7a4.35 4.35 0 1 0 .01 8.71 4.35 4.35 0 0 0-.01-8.71zm0 11.6a7.26 7.26 0 1 1 .02-14.52 7.26 7.26 0 0 1-.02 14.52z"/><path id="woceo" d="M333 3856.01c-.25 0-.5-.06-.72-.19a7.26 7.26 0 0 1 0-12.55 1.45 1.45 0 0 1 1.44 2.52 4.35 4.35 0 0 0 0 7.52 1.45 1.45 0 0 1-.72 2.7z"/><path id="wocep" d="M338.8 3856.01a1.45 1.45 0 0 1-.72-2.7 4.35 4.35 0 0 0 0-7.52 1.45 1.45 0 0 1 1.44-2.52 7.26 7.26 0 0 1 0 12.55c-.22.13-.47.2-.72.2z"/></defs><g><g transform="translate(-275 -3793)"><g><g><g><g><use fill="#5153d4" xlink:href="#wocea"/></g></g><g><g><use fill="#5153d4" xlink:href="#woceb"/></g></g><g><g><g><use fill="#5153d4" xlink:href="#wocec"/></g></g><g><g><use fill="#5153d4" xlink:href="#woced"/></g></g><g><g><use fill="#5153d4" xlink:href="#wocee"/></g></g></g><g><g><use fill="#5153d4" xlink:href="#wocef"/></g></g><g><g><use fill="#5153d4" xlink:href="#woceg"/></g></g><g><g><use fill="#5153d4" xlink:href="#woceh"/></g></g><g><g><use fill="#5153d4" xlink:href="#wocei"/></g></g><g><g><use fill="#5153d4" xlink:href="#wocej"/></g></g><g><g><use fill="#5153d4" xlink:href="#wocek"/></g></g><g><g><use fill="#5153d4" xlink:href="#wocel"/></g></g><g><g><use fill="#5153d4" xlink:href="#wocem"/></g></g><g><g><use fill="#5153d4" xlink:href="#wocen"/></g></g><g><g><use fill="#5153d4" xlink:href="#woceo"/></g></g><g><g><use fill="#5153d4" xlink:href="#wocep"/></g></g></g></g></g></g></svg>