<svg xmlns="http://www.w3.org/2000/svg" xmlns:xlink="http://www.w3.org/1999/xlink" width="115" height="124" viewBox="0 0 115 115"><defs><path id="mu58a" d="M601.5 1672.72a42.88 42.88 0 0 0-42.46 37.54 42.7 42.7 0 0 0 15.66 38.53c6.4 5.14 10.07 12.59 10.07 20.42v2.05c0 3.07 2.5 5.57 5.58 5.57h22.3c3.08 0 5.59-2.5 5.59-5.57v-1.76c0-8.02 3.6-15.64 9.64-20.38a42.5 42.5 0 0 0 16.39-33.64 42.81 42.81 0 0 0-42.77-42.76zm11.16 107.84h-22.31a9.3 9.3 0 0 1-9.3-9.3v-2.04c0-6.7-3.17-13.1-8.68-17.53a46.4 46.4 0 0 1-17.02-41.86c2.5-21.16 19.7-38.21 40.9-40.54a46.54 46.54 0 0 1 51.74 46.2 46.2 46.2 0 0 1-17.81 36.57c-5.15 4.03-8.22 10.56-8.22 17.45v1.76a9.3 9.3 0 0 1-9.3 9.3z"/><path id="mu58b" d="M605.22 1788h-7.44a5.58 5.58 0 0 1-5.58-5.58v-3.72a1.86 1.86 0 1 1 3.72 0v3.72c0 1.02.83 1.86 1.86 1.86h7.44c1.02 0 1.86-.84 1.86-1.86v-3.72a1.86 1.86 0 1 1 3.71 0v3.72c0 3.07-2.5 5.58-5.57 5.58z"/><path id="mu58c" d="M601.5 1729.23c.3 0 .6.07.88.22l12.74 6.8-2.44-14.44c-.1-.6.1-1.2.53-1.63l10.37-10.25-14.3-2.1a1.86 1.86 0 0 1-1.4-1.03l-6.38-13.1-6.37 13.1c-.27.55-.8.93-1.4 1.02l-14.3 2.11 10.36 10.25c.43.42.63 1.03.53 1.63l-2.44 14.44 12.75-6.8c.27-.15.57-.22.87-.22zm16.09 12.29c-.3 0-.6-.08-.88-.22l-15.2-8.11-15.22 8.1c-.63.34-1.39.29-1.96-.12a1.86 1.86 0 0 1-.75-1.82l2.91-17.21-12.33-12.19a1.86 1.86 0 0 1 1.04-3.16l17.01-2.5 7.62-15.65c.62-1.28 2.72-1.28 3.34 0l7.62 15.64 17.01 2.51a1.86 1.86 0 0 1 1.04 3.16l-12.33 12.19 2.91 17.2a1.86 1.86 0 0 1-1.83 2.18z"/><path id="mu58d" d="M620.1 1773.13h-20.46a1.86 1.86 0 1 1 0-3.72h20.45a1.86 1.86 0 1 1 0 3.72z"/><path id="mu58e" d="M620.77 1765.69h-11.83a1.86 1.86 0 1 1 0-3.72h11.83a1.86 1.86 0 1 1 0 3.72z"/><path id="mu58f" d="M594.06 1773.13c-.48 0-.97-.21-1.32-.54a1.92 1.92 0 0 1-.54-1.32c0-.5.2-.97.54-1.32a1.95 1.95 0 0 1 2.64 0c.33.35.54.83.54 1.32 0 .48-.2.96-.54 1.32-.35.33-.84.54-1.32.54z"/><path id="mu58g" d="M659.14 1717.35h-5.58a1.86 1.86 0 1 1 0-3.72h5.58a1.86 1.86 0 1 1 0 3.72z"/><path id="mu58h" d="M564.68 1680.53c-.47 0-.95-.18-1.31-.54l-3.95-3.95a1.86 1.86 0 1 1 2.63-2.63l3.95 3.95a1.86 1.86 0 0 1-1.32 3.17z"/><path id="mu58i" d="M642.25 1758.1c-.47 0-.95-.18-1.31-.54l-3.95-3.95a1.86 1.86 0 1 1 2.63-2.63l3.95 3.95a1.86 1.86 0 0 1-1.32 3.17z"/><path id="mu58j" d="M638.3 1680.53a1.85 1.85 0 0 1-1.3-3.17l3.94-3.95a1.86 1.86 0 1 1 2.63 2.63l-3.95 3.95c-.36.36-.83.54-1.31.54z"/><path id="mu58k" d="M560.74 1758.1a1.85 1.85 0 0 1-1.32-3.17l3.95-3.95a1.86 1.86 0 1 1 2.63 2.63l-3.95 3.95c-.36.36-.83.54-1.31.54z"/><path id="mu58l" d="M553.4 1697.42c-.23 0-.47-.04-.7-.14l-5.16-2.13a1.86 1.86 0 0 1 1.42-3.44l5.16 2.14a1.86 1.86 0 0 1-.72 3.57z"/><path id="mu58m" d="M654.75 1739.4c-.23 0-.47-.04-.7-.14l-5.16-2.13a1.86 1.86 0 0 1 1.42-3.44l5.16 2.14a1.86 1.86 0 0 1-.72 3.57z"/><path id="mu58n" d="M649.6 1697.42a1.86 1.86 0 0 1-.71-3.57l5.15-2.14a1.86 1.86 0 0 1 1.43 3.44l-5.16 2.13c-.23.1-.47.14-.71.14z"/><path id="mu58o" d="M548.25 1739.4a1.86 1.86 0 0 1-.71-3.57l5.15-2.14a1.86 1.86 0 0 1 1.43 3.44l-5.16 2.13c-.23.1-.47.14-.71.14z"/></defs><g><g transform="translate(-546 -1673)"><g><use fill="#26d7cf" xlink:href="#mu58a"/></g></g><g transform="translate(-546 -1673)"><g><use fill="#26d7cf" xlink:href="#mu58b"/></g></g><g transform="translate(-546 -1673)"><g><use fill="#26d7cf" xlink:href="#mu58c"/></g></g><g transform="translate(-546 -1673)"><g><use fill="#26d7cf" xlink:href="#mu58d"/></g></g><g transform="translate(-546 -1673)"><g><use fill="#26d7cf" xlink:href="#mu58e"/></g></g><g transform="translate(-546 -1673)"><g><use fill="#26d7cf" xlink:href="#mu58f"/></g></g><g transform="translate(-546 -1673)"><g><use fill="#26d7cf" xlink:href="#mu58g"/></g></g><g transform="translate(-546 -1673)"><g><g><use fill="#26d7cf" xlink:href="#mu58h"/></g></g><g><g><use fill="#26d7cf" xlink:href="#mu58i"/></g></g></g><g transform="translate(-546 -1673)"><g><g><use fill="#26d7cf" xlink:href="#mu58j"/></g></g><g><g><use fill="#26d7cf" xlink:href="#mu58k"/></g></g></g><g transform="translate(-546 -1673)"><use fill="#26d7cf" xlink:href="#mu58l"/></g><g transform="translate(-546 -1673)"><g><use fill="#26d7cf" xlink:href="#mu58m"/></g></g><g transform="translate(-546 -1673)"><g><use fill="#26d7cf" xlink:href="#mu58n"/></g></g><g transform="translate(-546 -1673)"><use fill="#26d7cf" xlink:href="#mu58o"/></g></g></svg>