<svg xmlns="http://www.w3.org/2000/svg" xmlns:xlink="http://www.w3.org/1999/xlink" width="14" height="13" viewBox="0 0 14 13"><defs><path id="uwyya" d="M1255.26 48.75c-1.6 0-1.8 0-2.42.04-.63.02-1.06.12-1.43.27-.39.15-.72.35-1.04.68-.33.32-.53.65-.68 1.04-.15.37-.25.8-.27 1.43-.03.62-.04.82-.04 2.42s0 1.8.04 2.43c.02.62.12 1.05.27 1.43.15.38.35.71.68 1.04.32.32.65.53 1.04.68.37.14.8.24 1.43.27.62.03.82.03 2.42.03s1.8 0 2.43-.03a4.32 4.32 0 0 0 1.43-.27c.38-.15.71-.36 1.04-.68.32-.33.53-.66.68-1.04.14-.38.24-.8.27-1.43.03-.63.03-.83.03-2.43s0-1.8-.03-2.42a4.32 4.32 0 0 0-.27-1.43 2.88 2.88 0 0 0-.68-1.04 2.88 2.88 0 0 0-1.04-.68c-.38-.15-.8-.25-1.43-.27-.63-.03-.83-.04-2.43-.04m0 1.06c1.57 0 1.76 0 2.38.03.57.03.88.13 1.1.2.27.11.46.24.67.45.2.2.33.4.44.67.08.21.17.52.2 1.1.03.62.03.8.03 2.37s0 1.76-.03 2.38c-.03.57-.12.88-.2 1.1-.1.27-.24.46-.44.67-.2.2-.4.33-.68.44-.2.08-.52.17-1.1.2-.61.03-.8.03-2.37.03s-1.75 0-2.37-.03a3.25 3.25 0 0 1-1.1-.2c-.27-.1-.47-.24-.67-.44-.2-.2-.34-.4-.44-.68-.08-.2-.18-.52-.2-1.1-.03-.61-.04-.8-.04-2.37s0-1.75.03-2.37c.03-.58.13-.89.2-1.1.11-.27.24-.47.45-.67.2-.2.4-.34.67-.44.21-.08.52-.18 1.1-.2.62-.03.8-.04 2.37-.04"/><path id="uwyyb" d="M1255.26 56.1a1.47 1.47 0 1 1 0-2.93 1.47 1.47 0 0 1 0 2.94zm0-3.67a2.2 2.2 0 1 0 0 4.41 2.2 2.2 0 0 0 0-4.41z"/><path id="uwyyc" d="M1258.93 52.43a.74.74 0 1 1-1.47 0 .74.74 0 0 1 1.47 0"/></defs><g><g transform="translate(-1248 -48)"><g><use fill="#fff" xlink:href="#uwyya"/><use fill="#fff" fill-opacity="0" stroke="#fff" stroke-miterlimit="50" stroke-width=".2" xlink:href="#uwyya"/></g><g><use fill="#fff" xlink:href="#uwyyb"/><use fill="#fff" fill-opacity="0" stroke="#fff" stroke-miterlimit="50" stroke-width=".6" xlink:href="#uwyyb"/></g><g><use fill="#fff" xlink:href="#uwyyc"/><use fill="#fff" fill-opacity="0" stroke="#fff" stroke-miterlimit="50" stroke-width=".6" xlink:href="#uwyyc"/></g></g></g></svg>