<svg xmlns="http://www.w3.org/2000/svg" xmlns:xlink="http://www.w3.org/1999/xlink" width="13" height="11" viewBox="0 0 13 11"><defs><path id="6u3ra" d="M1199.38 59.9h2.35v-7.85h-2.35zm1.58-11.77c-.96 0-1.58.5-1.58 1.18 0 .65.6 1.17 1.54 1.17h.02c.97 0 1.58-.52 1.58-1.17-.02-.67-.6-1.18-1.56-1.18zm7.23 3.92c-1.37 0-1.98.75-2.32 1.27v.02h-.02l.02-.02v-1.09h-2.57c.04.72 0 7.66 0 7.66h2.57v-4.28c0-.22.02-.45.09-.62.18-.45.6-.93 1.31-.93.93 0 1.3.7 1.3 1.73v4.1h2.57V55.5c0-2.35-1.26-3.45-2.95-3.45z"/></defs><g><g transform="translate(-1199 -49)"><use fill="#fff" xlink:href="#6u3ra"/></g></g></svg>