<svg xmlns="http://www.w3.org/2000/svg" xmlns:xlink="http://www.w3.org/1999/xlink" width="127" height="23" viewBox="0 0 127 23"><defs><path id="my2sa" d="M131.72 44.03a765.5 765.5 0 0 0 4.59 9.35l-1.74 3.64-1.32-2.75-4.53-9.49a6.69 6.69 0 0 1-.08-.18l-.02-.03a.39.39 0 0 1-.02-.14.4.4 0 0 1 .31-.39 3.94 3.94 0 0 1 .31 0m94.14 16.45c-1.14 2.66-3.25 4.33-5.94 5.38-1.63.64-3.32.96-5.08.96h-10.37a.4.4 0 0 1-.4-.39V44.43c0-.22.17-.4.4-.4h.05c3.69.04 7.38-.03 11.05.15 3.59.18 6.7 1.53 9.04 4.31a9.75 9.75 0 0 1 1.99 4.54c.5 2.56.3 5.05-.74 7.46m-2.6-8.14a6.17 6.17 0 0 0-4.12-4.36c-1.36-.5-2.77-.7-4.21-.72-2.35-.04-4.7-.05-7.06-.07-.7 0-.78.08-.78.76V63.1c0 .66.06.72.73.72h6.85c1.51 0 2.98-.28 4.38-.85a6.67 6.67 0 0 0 4.18-4.4c.61-2.07.6-4.14.03-6.22m-48.85 13.8c.02.04.03.09.03.14a.4.4 0 0 1-.4.4h-.01l-2.22-.01c-.38-.01-.59-.3-.74-.61-.8-1.7-1.62-3.4-2.43-5.09l-5.85-12.23-.15-.32a3.4 3.4 0 0 0-.13-.22.39.39 0 0 0-.66.07l-.08.15-.4.82-7.91 16.53c-.38.79-.68.93-1.55.93h-1.74a.4.4 0 0 1-.4-.4c0-.05.02-.1.04-.15l9.2-19.29c.4-.84 1.23-2.5 1.23-2.5.15-.28.45-.36.84-.36l2.06-.01c.56 0 .88.07 1.1.53l4.73 9.93 5.44 11.66v.02m75.09.43a.4.4 0 0 1-.4.4l-1.9-.01c-1.22 0-.96.17-1.65-.9-1.51-2.35-3.04-4.7-4.53-7.06a1.4 1.4 0 0 0-1.33-.72c-1.78.03-3.55 0-5.32 0-.6 0-.63.02-.64.61l-.02 7.25v.52a.4.4 0 0 1-.26.3 394.33 394.33 0 0 1-1.44.03l-.94-.01a.4.4 0 0 1-.4-.4v-21.9c0-.22.17-.4.4-.4h1.99l7.59-.04c1.41-.01 2.81.1 4.14.64a7.9 7.9 0 0 1 3.5 2.6 5.8 5.8 0 0 1 1.06 3.37c.07 3-1.36 5.14-4.18 6.34l-.56.24-.26.12a.39.39 0 0 0-.08.03.37.37 0 0 0-.17.46l.08.12.14.22 5.1 7.96.02.02c.04.06.06.13.06.2m-8.42-11.31c1.36 0 2.64-.34 3.75-1.13 1.14-.82 1.72-1.94 1.49-3.33-.3-1.74-1.49-2.74-3.14-3.26-.9-.28-1.83-.21-2.75-.22H231.63c-.24 0-.38.12-.38.37l-.02.36v6.73c0 .46.03.48.5.49h3.73v-.01h3.12m-41.59-11.19a.4.4 0 0 1 .4.39V66.3a.4.4 0 0 1-.37.4l-.08-.01-2.22-.02c-.33 0-.7-.28-.93-.53-2.92-3.06-5.81-6.15-8.72-9.22l-6.92-7.11-.04-.04-.09-.1a.4.4 0 0 0-.4-.03.38.38 0 0 0-.2.26v.25l-.02 15.95V66.3a.4.4 0 0 1-.43.38h-2.28a.4.4 0 0 1-.39-.36V44.45a.4.4 0 0 1 .38-.37h.05c.76 0 1.5-.02 2.25.01.18.01.37.2.52.35l4.32 4.52 8.22 8.68 3.52 3.73.1.11.04.04c.1.1.24.13.38.09a.38.38 0 0 0 .27-.32v-.16-15.6-1.07-.01a.4.4 0 0 1 .43-.39H197m-52.77-.04c.22 0 .4.18.4.4 0 .09-.03.13-.03.13L134.34 66.4c-.22.42-.49.6-.98.6h-1.9c-.49 0-.79-.18-1-.62l-3.93-8.22-6.43-13.42a3.9 3.9 0 0 1-.06-.15l-.01-.02a.39.39 0 0 1-.03-.14c0-.22.18-.4.4-.4h2.55c.27 0 .37.21.47.42L126 49.8l5.99 12.47.06.13.02.05a.39.39 0 0 0 .66.03l.05-.09.05-.12 6.93-14.44.05-.12c.05-.05.07-.1.08-.17.02-.09 0-.19-.06-.28a.38.38 0 0 0-.22-.15H134.07l-1.5-3.06 11.62-.03h.03m8.6.01c.23 0 .4.18.4.4 0 .06 0 .1-.02.15v.01l-.04.08-5.05 10.52-5.2 10.85c-.22.48-.55.7-1.09.7h-2.07c-.29 0-.47-.1-.59-.35-.62-1.3-1.44-2.94-2.06-4.24l1.7-3.62c.66 1.13 1.16 2.32 1.72 3.47l.07.13.03.06a.39.39 0 0 0 .67 0 .4.4 0 0 0 .02-.06l.07-.13.97-2.02 7.38-15.38c.2-.42.49-.58.96-.58l2.03.01h.1"/></defs><g><g clip-path="url(#clip-AA135523-1BA2-4763-B237-7684C8242444)" transform="translate(-120 -44)"><use fill="#fff" xlink:href="#my2sa"/></g></g></svg>