<svg xmlns="http://www.w3.org/2000/svg" xmlns:xlink="http://www.w3.org/1999/xlink" width="284" height="195" viewBox="0 0 111 194"><defs><path id="f0xua" d="M514 2078.02h-81.66l43.18-45.49c11.82-12.95 20.17-24.29 25.04-34.02 4.87-9.73 7.3-19.3 7.3-28.68 0-17.12-5.4-30.37-16.23-39.75-10.83-9.39-26.03-14.08-45.6-14.08-12.78 0-24.22 2.72-34.3 8.15-10.1 5.43-17.9 12.92-23.42 22.48-5.53 9.56-8.29 20.12-8.29 31.68h37.83c0-9.56 2.46-17.27 7.38-23.14 4.9-5.87 11.63-8.8 20.15-8.8 7.92 0 14 2.41 18.26 7.24 4.27 4.82 6.4 11.44 6.4 19.87 0 6.17-2.03 12.69-6.07 19.56-4.04 6.86-10.28 14.9-18.72 24.11l-61.44 65.43v25.81H514zm-193.32-41.32c-.18 14.86-2.3 25.9-6.4 33.11-4.09 7.21-10.74 10.82-19.96 10.82-9.3 0-16.07-3.76-20.29-11.28-4.22-7.51-6.33-19-6.33-34.47v-46.15c.26-14.5 2.5-25.17 6.72-32 4.22-6.82 10.77-10.23 19.64-10.23 9.13 0 15.85 3.59 20.16 10.76 4.3 7.16 6.46 18.61 6.46 34.34zm37.69-41.7c-.26-25.47-5.87-45-16.83-58.6-10.96-13.6-26.79-20.4-47.49-20.4-20.7 0-36.55 6.86-47.55 20.6-11 13.72-16.5 33.84-16.5 60.35v34.93c.26 25.46 5.87 45.01 16.83 58.66 10.96 13.64 26.79 20.46 47.48 20.46 20.96 0 36.88-6.95 47.75-20.86 10.87-13.9 16.3-33.97 16.3-60.22z"/></defs><g><g transform="translate(-318 -1917)"><use fill="#f4f4f4" xlink:href="#f0xua"/></g></g></svg>