<svg xmlns="http://www.w3.org/2000/svg" xmlns:xlink="http://www.w3.org/1999/xlink" width="376" height="499" viewBox="0 0 376 499"><defs><path id="su6ga" d="M173.21 1276v-36.76h24.24c20.04 0 35.06-2.32 45.08-6.95 10.02-4.64 15.03-15.68 15.03-33.12V947.5c0-23.84-4.69-38.64-14.06-44.38-9.37-5.74-35.87-8.6-79.5-8.6v-35.44c85-2.43 151.73-15.78 200.2-40.07h51.4v378.18c0 15.24 3.63 26.06 10.9 32.46 7.27 6.4 23.02 9.6 47.26 9.6H498V1276z"/><path id="su6gn" d="M162 1278V817h338v424.24h-24.24c-24.24 0-40-3.2-47.26-9.6-7.27-6.4-10.9-17.22-10.9-32.46V821h-51.4C317.74 845.29 251 858.64 166 861.07v35.43c43.63 0 70.13 2.87 79.5 8.61 9.37 5.74 14.06 20.54 14.06 44.38v251.68c0 17.44-5.01 28.48-15.03 33.12-10.02 4.63-25.04 6.95-45.08 6.95H175.2V1278z"/><mask id="su6gc" width="2" height="2" x="-1" y="-1"><path fill="#fff" d="M164 819h334v457H164z"/><use xlink:href="#su6ga"/></mask><filter id="su6gb" width="427" height="539" x="128" y="783" filterUnits="userSpaceOnUse"><feOffset dx="21" dy="10" in="SourceGraphic" result="FeOffset1023Out"/><feGaussianBlur in="FeOffset1023Out" result="FeGaussianBlur1024Out" stdDeviation="10.4 10.4"/></filter><mask id="su6ge" width="2" height="2" x="-1" y="-1"><path fill="#fff" d="M164 819h334v457H164z"/><use xlink:href="#su6ga"/></mask><filter id="su6gd" width="356" height="479" x="154" y="809" filterUnits="userSpaceOnUse"><feOffset dx="2" dy="2" in="SourceGraphic" result="FeOffset1034Out"/><feGaussianBlur in="FeOffset1034Out" result="FeGaussianBlur1035Out" stdDeviation="0 0"/></filter><mask id="su6gg" width="2" height="2" x="-1" y="-1"><path fill="#fff" d="M164 819h334v457H164z"/><use xlink:href="#su6ga"/></mask><filter id="su6gf" width="357" height="480" x="154" y="809" filterUnits="userSpaceOnUse"><feOffset dx="3" dy="3" in="SourceGraphic" result="FeOffset1045Out"/><feGaussianBlur in="FeOffset1045Out" result="FeGaussianBlur1046Out" stdDeviation="0 0"/></filter><mask id="su6gi" width="2" height="2" x="-1" y="-1"><path fill="#fff" d="M164 819h334v457H164z"/><use xlink:href="#su6ga"/></mask><filter id="su6gh" width="358" height="481" x="154" y="809" filterUnits="userSpaceOnUse"><feOffset dx="4" dy="4" in="SourceGraphic" result="FeOffset1056Out"/><feGaussianBlur in="FeOffset1056Out" result="FeGaussianBlur1057Out" stdDeviation="0 0"/></filter><mask id="su6gk" width="2" height="2" x="-1" y="-1"><path fill="#fff" d="M164 819h334v457H164z"/><use xlink:href="#su6ga"/></mask><filter id="su6gj" width="359" height="482" x="154" y="809" filterUnits="userSpaceOnUse"><feOffset dx="5" dy="5" in="SourceGraphic" result="FeOffset1067Out"/><feGaussianBlur in="FeOffset1067Out" result="FeGaussianBlur1068Out" stdDeviation="0 0"/></filter><mask id="su6gm" width="2" height="2" x="-1" y="-1"><path fill="#fff" d="M164 819h334v457H164z"/><use xlink:href="#su6ga"/></mask><filter id="su6gl" width="360" height="483" x="154" y="809" filterUnits="userSpaceOnUse"><feOffset dx="6" dy="6" in="SourceGraphic" result="FeOffset1078Out"/><feGaussianBlur in="FeOffset1078Out" result="FeGaussianBlur1079Out" stdDeviation="0 0"/></filter><filter id="su6go" width="200%" height="200%" x="-50%" y="-50%"><feGaussianBlur in="SourceGraphic" result="FeGaussianBlur1084Out" stdDeviation="0 0"/></filter><mask id="su6gp"><use fill="#fff" xlink:href="#su6ga"/></mask></defs><g><g clip-path="url(#clip-9307B901-B3CE-4E2F-BBB7-9D4E82BA1372)" transform="translate(-164 -808)"><g filter="url(#su6gb)"><use fill="none" stroke-opacity=".26" stroke-width="0" mask="url(&quot;#su6gc&quot;)" xlink:href="#su6ga"/><use fill="#223a34" fill-opacity=".26" xlink:href="#su6ga"/></g><g filter="url(#su6gd)"><use fill="none" stroke-width="0" mask="url(&quot;#su6ge&quot;)" xlink:href="#su6ga"/><use fill="#1bb2ab" xlink:href="#su6ga"/></g><g filter="url(#su6gf)"><use fill="none" stroke-width="0" mask="url(&quot;#su6gg&quot;)" xlink:href="#su6ga"/><use fill="#1bb2ab" xlink:href="#su6ga"/></g><g filter="url(#su6gh)"><use fill="none" stroke-width="0" mask="url(&quot;#su6gi&quot;)" xlink:href="#su6ga"/><use fill="#1bb2ab" xlink:href="#su6ga"/></g><g filter="url(#su6gj)"><use fill="none" stroke-width="0" mask="url(&quot;#su6gk&quot;)" xlink:href="#su6ga"/><use fill="#1bb2ab" xlink:href="#su6ga"/></g><g filter="url(#su6gl)"><use fill="none" stroke-width="0" mask="url(&quot;#su6gm&quot;)" xlink:href="#su6ga"/><use fill="#1bb2ab" xlink:href="#su6ga"/></g><use fill="#24e0d8" xlink:href="#su6ga"/><use fill="#fff" stroke="#fff" stroke-width="0" filter="url(#su6go)" mask="url(&quot;#su6gp&quot;)" xlink:href="#su6gn"/></g></g></svg>