<svg id="SVGDoc" width="229" height="260" xmlns="http://www.w3.org/2000/svg" version="1.1" xmlns:xlink="http://www.w3.org/1999/xlink" xmlns:avocode="https://avocode.com/" viewBox="0 0 229 240"><defs><path d="M258.42924,7061.15194c0,-32.90079 -5.43829,-135.24989 31.6843,-190.96194" id="Path-0"/><path d="M249.68812,6864.53c-8.2677,-14.32008 -11.27103,-28.0644 -6.70812,-30.6988c4.56291,-2.6344 14.96418,6.83872 23.23188,21.1588c8.2677,14.32008 11.27103,28.0644 6.70812,30.6988c-4.56291,2.6344 -14.96418,-6.83872 -23.23188,-21.1588z" id="Path-1"/><path d="M312.01706,6880.76581c16.52533,-0.57708 30.07082,3.22371 30.2547,8.4893c0.18388,5.26559 -13.06349,10.002 -29.58882,10.57908c-16.52533,0.57708 -30.07082,-3.22371 -30.2547,-8.4893c-0.18388,-5.26559 13.06349,-10.002 29.58882,-10.57908z" id="Path-2"/><path d="M294.74649,6924.19146c16.53289,0.28858 29.8609,4.79308 29.76894,10.06107c-0.09195,5.26799 -13.56905,9.3046 -30.10194,9.01602c-16.53289,-0.28858 -29.8609,-4.79308 -29.76894,-10.06107c0.09195,-5.26799 13.56905,-9.3046 30.10194,-9.01602z" id="Path-3"/><path d="M280.2765,6966.31145c16.53289,0.28858 29.8609,4.79308 29.76894,10.06107c-0.09195,5.26799 -13.56905,9.3046 -30.10194,9.01602c-16.53289,-0.28858 -29.8609,-4.79308 -29.76894,-10.06107c0.09195,-5.26799 13.56905,-9.3046 30.10194,-9.01602z" id="Path-4"/><path d="M301.55908,6833.61414c9.00583,-13.86776 19.88863,-22.78353 24.30741,-19.91394c4.41878,2.86959 0.70025,16.4379 -8.30558,30.30565c-9.00583,13.86776 -19.88863,22.78353 -24.30741,19.91394c-4.41878,-2.86959 -0.70025,-16.4379 8.30558,-30.30565z" id="Path-5"/><path d="M225.85668,6901.22124c7.7629,-14.5999 17.82723,-24.43024 22.4793,-21.95669c4.65207,2.47355 2.13024,16.31431 -5.63266,30.91421c-7.7629,14.5999 -17.82723,24.43024 -22.4793,21.95669c-4.65207,-2.47355 -2.13024,-16.31431 5.63266,-30.91421z" id="Path-6"/><path d="M230.01543,6964.31411c-9.74648,-9.08874 -15.29949,-18.97462 -12.403,-22.08073c2.89649,-3.10611 13.14565,1.74377 22.89213,10.83251c9.74648,9.08874 15.29949,18.97462 12.403,22.08073c-2.89649,3.10611 -13.14565,-1.74377 -22.89213,-10.83251z" id="Path-7"/><path d="M217.56,7113.39787c0,-32.09008 26.82445,-131.3986 63.03231,-185.73787" id="Path-8"/><path d="M241.16663,6922.1325c-8.06336,-13.96614 -10.99215,-27.37094 -6.54163,-29.94044c4.45051,-2.5695 14.59501,6.6693 22.65837,20.63544c8.06336,13.96614 10.99215,27.37094 6.54163,29.94044c-4.45051,2.5695 -14.59501,-6.6693 -22.65837,-20.63544z" id="Path-9"/><path d="M270.99739,7021.40642c16.12426,0.28145 29.12285,4.67497 29.03316,9.81319c-0.08969,5.13823 -13.23369,9.07542 -29.35795,8.79397c-16.12426,-0.28145 -29.12285,-4.67497 -29.03316,-9.81319c0.08969,-5.13823 13.23369,-9.07542 29.35795,-8.79397z" id="Path-10"/><path d="M291.76117,6891.98213c8.78324,-13.525 19.39735,-22.22022 23.70729,-19.42131c4.30994,2.79891 0.68361,16.03205 -8.09963,29.55705c-8.78324,13.525 -19.39735,22.22022 -23.70729,19.42131c-4.30994,-2.79891 -0.68361,-16.03205 8.09963,-29.55705z" id="Path-11"/><path d="M219.11243,6968.39463c-10.58008,-12.17099 -16.01281,-24.77065 -12.13435,-28.14215c3.87846,-3.37149 15.59942,3.76191 26.17949,15.93289c10.58008,12.17099 16.01281,24.77065 12.13435,28.14215c-3.87846,3.37149 -15.59942,-3.76191 -26.17949,-15.93289z" id="Path-12"/><path d="M202.46901,7014.02525c-11.79433,-10.99839 -18.51433,-22.96116 -15.00953,-26.7196c3.5048,-3.75843 15.90719,2.11071 27.70152,13.10911c11.79433,10.99839 18.51433,22.96116 15.00953,26.7196c-3.5048,3.75843 -15.90719,-2.11071 -27.70152,-13.10911z" id="Path-13"/></defs><desc>Generated with Avocode.</desc><g transform="matrix(1,0,0,1,-135,-6812)"><g><title>plants</title><g opacity="0.8" transform="matrix(0.7313537016191706,-0.6819983600624985,0.6819983600624985,0.7313537016191706,-4651.926403274374,2042.3968255422806)"><title>plant</title><g opacity="0.2"><title>stem</title><use xlink:href="#Path-0" fill-opacity="0" fill="#ffffff" stroke-linejoin="miter" stroke-linecap="round" stroke-opacity="1" stroke="#a1b8e3" stroke-miterlimit="50" stroke-width="6"/></g><g opacity="0.2"><title>leaf</title><use xlink:href="#Path-1" fill="#a1b8e3" fill-opacity="1"/></g><g opacity="0.2"><title>leaf</title><use xlink:href="#Path-2" fill="#a1b8e3" fill-opacity="1"/></g><g opacity="0.2"><title>leaf</title><use xlink:href="#Path-3" fill="#a1b8e3" fill-opacity="1"/></g><g opacity="0.2"><title>leaf</title><use xlink:href="#Path-4" fill="#a1b8e3" fill-opacity="1"/></g><g opacity="0.2"><title>leaf</title><use xlink:href="#Path-5" fill="#a1b8e3" fill-opacity="1"/></g><g opacity="0.2"><title>leaf</title><use xlink:href="#Path-6" fill="#a1b8e3" fill-opacity="1"/></g><g opacity="0.2"><title>leaf</title><use xlink:href="#Path-7" fill="#a1b8e3" fill-opacity="1"/></g></g><g opacity="0.8" transform="matrix(0.12186934340514749,-0.992546151641322,0.992546151641322,0.12186934340514749,-6707.198082722234,6387.891658882747)"><title>plant</title><g opacity="0.2"><title>stem</title><use xlink:href="#Path-8" fill-opacity="0" fill="#ffffff" stroke-linejoin="miter" stroke-linecap="round" stroke-opacity="1" stroke="#a1b8e3" stroke-miterlimit="50" stroke-width="6"/></g><g opacity="0.2"><title>leaf</title><use xlink:href="#Path-9" fill="#a1b8e3" fill-opacity="1"/></g><g opacity="0.2"><title>leaf</title><use xlink:href="#Path-10" fill="#a1b8e3" fill-opacity="1"/></g><g opacity="0.2"><title>leaf</title><use xlink:href="#Path-11" fill="#a1b8e3" fill-opacity="1"/></g><g opacity="0.2"><title>leaf</title><use xlink:href="#Path-12" fill="#a1b8e3" fill-opacity="1"/></g><g opacity="0.2"><title>leaf</title><use xlink:href="#Path-13" fill="#a1b8e3" fill-opacity="1"/></g></g></g></g></svg>