<svg xmlns="http://www.w3.org/2000/svg" xmlns:xlink="http://www.w3.org/1999/xlink" width="180" height="311" viewBox="0 0 180 288"><defs><path id="koaoa" d="M142.06 3966.93c0-40.36 33.8-165.28 79.4-233.63"/><path id="koaob" d="M171.8 3726.36c-10.14-17.57-13.82-34.43-8.21-37.67 5.6-3.24 18.38 8.38 28.52 25.95s13.82 34.43 8.21 37.67c-5.6 3.24-18.38-8.38-28.52-25.95z"/><path id="koaoc" d="M248.39 3746.25c20.27-.7 36.89 3.97 37.11 10.44.23 6.47-16.02 12.29-36.3 13-20.27.7-36.89-3.97-37.11-10.44-.23-6.47 16.02-12.29 36.3-13z"/><path id="koaod" d="M227.17 3799.53c20.28.35 36.63 5.89 36.52 12.36-.11 6.48-16.65 11.44-36.93 11.08-20.28-.35-36.63-5.89-36.52-12.36.11-6.48 16.65-11.44 36.93-11.08z"/><path id="koaoe" d="M209.38 3851.2c20.28.35 36.63 5.89 36.52 12.36-.11 6.48-16.65 11.44-36.93 11.08-20.28-.35-36.63-5.89-36.52-12.36.11-6.48 16.65-11.44 36.93-11.08z"/><path id="koaof" d="M235.53 3688.41c11.05-17 24.4-27.94 29.84-24.41 5.43 3.52.88 20.17-10.17 37.19-11.05 17-24.4 27.94-29.84 24.41-5.43-3.52-.88-20.17 10.17-37.19z"/><path id="koaog" d="M144.02 3784.55c-13.31-15.3-20.14-31.16-15.25-35.41 4.89-4.25 19.64 4.72 32.94 20.03 13.31 15.3 20.14 31.16 15.25 35.41-4.89 4.25-19.64-4.72-32.94-20.03z"/><path id="koaoh" d="M123.04 3841.95c-14.84-13.84-23.28-28.9-18.87-33.63 4.42-4.74 20.03 2.64 34.86 16.47 14.84 13.84 23.28 28.9 18.87 33.63-4.42 4.74-20.03-2.64-34.86-16.47z"/></defs><g><g clip-path="url(#clip-DB73F18B-C434-4659-99A6-424C5505B1D4)" opacity=".8" transform="rotate(-42 -4623.4 2094.62)"><g opacity=".2"><use fill="#fff" fill-opacity="0" stroke="#a1b8e3" stroke-linecap="round" stroke-miterlimit="50" stroke-width="6" xlink:href="#koaoa"/></g><g opacity=".2"><use fill="#a1b8e3" xlink:href="#koaob"/></g><g opacity=".2"><use fill="#a1b8e3" xlink:href="#koaoc"/></g><g opacity=".2"><use fill="#a1b8e3" xlink:href="#koaod"/></g><g opacity=".2"><use fill="#a1b8e3" xlink:href="#koaoe"/></g><g opacity=".2"><use fill="#a1b8e3" xlink:href="#koaof"/></g><g opacity=".2"><use fill="#a1b8e3" xlink:href="#koaog"/></g><g opacity=".2"><use fill="#a1b8e3" xlink:href="#koaoh"/></g></g></g></svg>