<svg xmlns="http://www.w3.org/2000/svg" xmlns:xlink="http://www.w3.org/1999/xlink" width="180" height="311" viewBox="0 0 180 311"><defs><path id="xbqga" d="M1181.06 3665.93c0-40.36 33.8-165.28 79.4-233.63"/><path id="xbqgb" d="M1210.8 3425.36c-10.14-17.57-13.82-34.43-8.21-37.67 5.6-3.24 18.38 8.38 28.52 25.95s13.82 34.43 8.21 37.67c-5.6 3.24-18.38-8.38-28.52-25.95z"/><path id="xbqgc" d="M1287.39 3445.25c20.27-.7 36.89 3.97 37.11 10.44.23 6.47-16.02 12.29-36.3 13-20.27.7-36.89-3.97-37.11-10.44-.23-6.47 16.02-12.29 36.3-13z"/><path id="xbqgd" d="M1266.17 3498.53c20.28.35 36.63 5.89 36.52 12.36-.11 6.48-16.65 11.44-36.93 11.08-20.28-.35-36.63-5.89-36.52-12.36.11-6.48 16.65-11.44 36.93-11.08z"/><path id="xbqge" d="M1248.38 3550.2c20.28.35 36.63 5.89 36.52 12.36-.11 6.48-16.65 11.44-36.93 11.08-20.28-.35-36.63-5.89-36.52-12.36.11-6.48 16.65-11.44 36.93-11.08z"/><path id="xbqgf" d="M1274.53 3387.41c11.05-17 24.4-27.94 29.84-24.41 5.43 3.52.88 20.17-10.17 37.19-11.05 17-24.4 27.94-29.84 24.41-5.43-3.52-.88-20.17 10.17-37.19z"/><path id="xbqgg" d="M1183.02 3483.55c-13.31-15.3-20.14-31.16-15.25-35.41 4.89-4.25 19.64 4.72 32.94 20.03 13.31 15.3 20.14 31.16 15.25 35.41-4.89 4.25-19.64-4.72-32.94-20.03z"/><path id="xbqgh" d="M1162.04 3540.95c-14.84-13.84-23.28-28.9-18.87-33.63 4.42-4.74 20.03 2.64 34.86 16.47 14.84 13.84 23.28 28.9 18.87 33.63-4.42 4.74-20.03-2.64-34.86-16.47z"/></defs><g><g clip-path="url(#clip-DB73F18B-C434-4659-99A6-424C5505B1D4)" opacity=".2" transform="scale(-1 1) rotate(42 4941.33 91.9)"><g opacity=".2"><use fill="#fff" fill-opacity="0" stroke="#a1b8e3" stroke-linecap="round" stroke-miterlimit="50" stroke-width="6" xlink:href="#xbqga"/></g><g opacity=".2"><use fill="#a1b8e3" xlink:href="#xbqgb"/></g><g opacity=".2"><use fill="#a1b8e3" xlink:href="#xbqgc"/></g><g opacity=".2"><use fill="#a1b8e3" xlink:href="#xbqgd"/></g><g opacity=".2"><use fill="#a1b8e3" xlink:href="#xbqge"/></g><g opacity=".2"><use fill="#a1b8e3" xlink:href="#xbqgf"/></g><g opacity=".2"><use fill="#a1b8e3" xlink:href="#xbqgg"/></g><g opacity=".2"><use fill="#a1b8e3" xlink:href="#xbqgh"/></g></g></g></svg>