<svg xmlns="http://www.w3.org/2000/svg" xmlns:xlink="http://www.w3.org/1999/xlink" width="12" height="11" viewBox="0 0 12 11"><defs><path id="tbsoa" d="M1311.88 51.22c-.46.2-.96.35-1.47.4a2.6 2.6 0 0 0 1.13-1.43c-.5.3-1.05.51-1.63.63a2.54 2.54 0 0 0-1.87-.82 2.58 2.58 0 0 0-2.5 3.2 7.27 7.27 0 0 1-5.29-2.72 2.62 2.62 0 0 0 .8 3.47 2.54 2.54 0 0 1-1.16-.33v.03c0 1.26.88 2.31 2.05 2.55a2.51 2.51 0 0 1-1.16.05 2.57 2.57 0 0 0 2.4 1.8 5.12 5.12 0 0 1-3.8 1.08 7.2 7.2 0 0 0 3.93 1.16c4.72 0 7.3-3.96 7.3-7.39l-.01-.33c.5-.38.94-.83 1.28-1.35z"/></defs><g><g transform="translate(-1300 -50)"><use fill="#fff" xlink:href="#tbsoa"/></g></g></svg>