<svg xmlns="http://www.w3.org/2000/svg" xmlns:xlink="http://www.w3.org/1999/xlink" width="100" height="144" viewBox="0 0 100 144"><defs><path id="ykbja" d="M371 3909h-97.18v-19.32l45.87-48.97c6.3-6.9 10.95-12.91 13.97-18.05 3.02-5.14 4.53-10.02 4.53-14.64 0-6.3-1.6-11.26-4.78-14.87-3.18-3.61-7.72-5.42-13.63-5.42-6.36 0-11.37 2.2-15.04 6.59s-5.5 10.16-5.5 17.31H271c0-8.65 2.06-16.55 6.18-23.7a43.62 43.62 0 0 1 17.48-16.83c7.53-4.07 16.07-6.1 25.61-6.1 14.6 0 25.95 3.51 34.03 10.54 8.08 7.02 12.12 16.94 12.12 29.75 0 7.03-1.81 14.18-5.45 21.47-3.63 7.28-9.87 15.77-18.7 25.46l-32.22 34.05H371z"/></defs><g><g opacity=".16" transform="translate(-271 -3765)"><use fill="#25d2cc" xlink:href="#ykbja"/></g></g></svg>