<svg xmlns="http://www.w3.org/2000/svg" xmlns:xlink="http://www.w3.org/1999/xlink" width="99" height="146" viewBox="0 0 99 146"><defs><path id="dw2da" d="M1101.22 3529.5h15.08c7.18 0 12.5-1.78 15.96-5.36 3.46-3.58 5.19-8.33 5.19-14.25 0-5.72-1.72-10.18-5.14-13.37-3.43-3.19-8.15-4.78-14.15-4.78-5.42 0-9.96 1.48-13.61 4.44a14.18 14.18 0 0 0-5.49 11.56h-28.3c0-7.41 2.01-14.07 6.02-19.95 4.02-5.9 9.63-10.5 16.85-13.81 7.21-3.32 15.16-4.98 23.84-4.98 15.08 0 26.9 3.6 35.45 10.78 8.55 7.2 12.83 17.1 12.83 29.72 0 6.5-2 12.5-5.98 17.96a38.78 38.78 0 0 1-15.66 12.59c8.03 2.86 14.02 7.15 17.97 12.88 3.95 5.73 5.92 12.5 5.92 20.3 0 12.62-4.62 22.74-13.86 30.35-9.23 7.61-21.46 11.42-36.67 11.42-14.23 0-25.87-3.74-34.9-11.22-9.05-7.49-13.57-17.37-13.57-29.67h28.3c0 5.33 2 9.7 6.02 13.08 4.02 3.38 8.96 5.07 14.84 5.07 6.72 0 12-1.77 15.81-5.32 3.82-3.54 5.73-8.24 5.73-14.1 0-14.18-7.83-21.28-23.5-21.28h-14.98z"/></defs><g><g opacity=".16" transform="translate(-1069 -3469)"><use fill="#25d2cc" xlink:href="#dw2da"/></g></g></svg>