<svg width="572" height="24" viewBox="0 0 572 24" fill="none" xmlns="http://www.w3.org/2000/svg">
<path d="M17.5986 22.7C16.7286 22.55 15.3786 22.31 14.7786 21.44C14.4786 21.02 14.4486 19.76 14.4486 18.65C14.4486 8.84 14.4486 4.22 14.4786 2.18C16.2486 2.18 16.4286 2.18 17.9586 2.21C19.4586 2.24 20.3586 2.45 21.1986 3.23C21.8286 3.83 23.1486 5.75 23.8386 7.19L24.1086 7.1L23.1186 1.1C22.1886 1.37 21.3486 1.58 20.0286 1.61C16.9986 1.64 15.5286 1.67 12.5586 1.67C9.58856 1.67 8.11856 1.67 5.08855 1.61C3.61855 1.58 2.89855 1.4 1.96855 1.16L0.978555 7.1L1.24855 7.19C1.90855 5.78 3.22855 3.92 3.85855 3.32C4.69855 2.54 5.59855 2.24 7.09855 2.21C8.62856 2.18 8.86855 2.18 10.5786 2.18V12.11C10.5786 14.39 10.5486 17.09 10.5186 18.2C10.4886 19.49 10.4886 20.99 10.0986 21.41C9.19856 22.43 8.17856 22.58 7.12855 22.7V23H17.5986V22.7ZM50.8798 23V22.7C49.8298 22.58 48.8398 22.31 48.3298 21.53C48.0898 21.17 48.0598 20.06 48.0598 18.92C48.0298 16.01 48.0298 14.36 48.0298 11.45V6.32C48.0298 5.12 48.0298 3.59 48.3298 3.02C48.7498 2.21 49.8598 1.82 50.8198 1.7V1.4H41.0698V1.7C41.9698 1.73 43.0198 1.85 43.7398 2.93C44.0698 3.44 44.0698 4.37 44.0998 5.12C44.1598 7.73 44.1298 9.14 44.1298 11.72H33.0298C33.0298 10.94 32.9998 6.89 33.0898 4.1C33.1498 2.24 34.7398 1.85 35.8798 1.7V1.4H26.2198V1.7C27.2698 1.82 28.1398 2.09 28.7098 2.75C29.1598 3.29 29.1598 4.85 29.1598 6.26V12.11C29.1598 14.33 29.1298 17.21 29.0998 18.32C29.0698 19.61 29.0098 21.2 28.6798 21.59C28.1998 22.16 27.1198 22.55 26.1298 22.7V23H35.6998V22.7C34.8598 22.64 33.8098 22.25 33.3298 21.59C33.0298 21.17 33.0298 19.88 33.0298 18.77V12.32H44.1298C44.1298 13.16 44.1598 16.49 44.0998 19.1C44.0698 20.06 44.0398 21.32 43.8598 21.59C43.5298 22.1 42.4198 22.58 40.9498 22.7V23H50.8798ZM74.9801 17.12L74.6501 17.03C72.6701 20.45 70.7501 22.04 68.2601 22.37C67.2701 22.49 66.1601 22.55 65.5001 22.55C63.9701 22.55 62.4401 22.31 62.0801 21.77C61.7201 21.23 61.6601 19.97 61.6301 18.68C61.6001 17.9 61.6001 16.19 61.6001 15.11C61.6001 13.94 61.6001 12.74 61.6601 12.2C62.9201 12.2 62.8901 12.2 64.0901 12.26C65.2901 12.32 66.1901 12.71 66.8201 13.28C67.5401 13.94 68.4101 15.74 68.7401 17H69.1001V7.13H68.7401C68.2601 9.38 67.5401 10.91 65.1101 11.48C64.0601 11.72 61.9901 11.72 61.6301 11.72C61.6301 11.51 61.6001 10.46 61.6001 7.43C61.6001 4.79 61.6901 2.6 61.7501 1.97C62.1401 1.88 63.1001 1.82 63.9401 1.82C66.5501 1.82 68.3801 2.12 68.9801 2.42C70.3601 3.11 72.0701 4.64 73.6901 6.65L73.9901 6.5L71.9501 1.4H54.8801V1.7C55.9601 1.85 56.6201 1.94 57.2201 2.57C57.7001 3.08 57.7301 4.82 57.7301 6.26V12.11C57.7301 14.42 57.7001 17.21 57.6701 18.32C57.6401 19.61 57.5201 21.08 57.1301 21.56C56.5901 22.19 55.6001 22.55 54.6101 22.7V23H73.4801L74.9801 17.12ZM110.136 23V22.7C109.086 22.58 108.096 22.31 107.586 21.53C107.346 21.17 107.316 20.06 107.316 18.92C107.286 16.01 107.286 14.36 107.286 11.45V6.32C107.286 5.12 107.286 3.59 107.586 3.02C108.006 2.21 109.116 1.82 110.076 1.7V1.4H100.326V1.7C101.226 1.73 102.276 1.85 102.996 2.93C103.326 3.44 103.326 4.37 103.356 5.12C103.416 7.73 103.386 9.14 103.386 11.72H92.2857C92.2857 10.94 92.2557 6.89 92.3457 4.1C92.4057 2.24 93.9957 1.85 95.1357 1.7V1.4H85.4757V1.7C86.5257 1.82 87.3957 2.09 87.9657 2.75C88.4157 3.29 88.4157 4.85 88.4157 6.26V12.11C88.4157 14.33 88.3857 17.21 88.3557 18.32C88.3257 19.61 88.2657 21.2 87.9357 21.59C87.4557 22.16 86.3757 22.55 85.3857 22.7V23H94.9557V22.7C94.1157 22.64 93.0657 22.25 92.5857 21.59C92.2857 21.17 92.2857 19.88 92.2857 18.77V12.32H103.386C103.386 13.16 103.416 16.49 103.356 19.1C103.326 20.06 103.296 21.32 103.116 21.59C102.786 22.1 101.676 22.58 100.206 22.7V23H110.136ZM125.446 14.15H118.216C119.956 9.83 121.366 6.47 121.936 5.18C122.686 7.07 124.156 10.82 125.446 14.15ZM135.076 23V22.64C133.246 22.58 132.376 21.14 132.196 20.78C131.716 19.76 131.386 19.07 130.936 17.84C129.976 15.29 125.866 4.31 124.636 0.979999H124.396C123.856 1.73 122.656 3.02 121.216 3.59L121.606 4.46C119.716 8.96 117.286 14.72 115.576 18.5C114.646 20.54 113.986 21.53 113.716 21.8C113.596 21.95 112.696 22.55 111.646 22.67V23H118.126V22.7C117.076 22.58 115.636 22.31 115.636 21.26C115.636 20.87 115.846 20.06 116.266 18.98C116.806 17.57 117.346 16.28 117.946 14.78H125.686C126.886 17.93 127.816 20.63 127.816 21.32C127.816 22.46 126.106 22.64 125.566 22.7V23H135.076ZM160.641 1.7V1.4H153.081V1.7C155.001 1.97 156.021 2.69 156.411 3.8C156.711 4.64 156.711 6.23 156.711 7.82V17.45L142.911 1.4H136.341V1.7C137.541 1.88 139.281 2.3 139.581 4.64C139.641 6.95 139.611 7.49 139.611 9.77C139.611 12.44 139.551 14.87 139.491 16.58C139.431 18.86 139.311 20.54 138.771 21.38C138.231 22.25 137.091 22.58 136.131 22.7V23H143.631V22.7C142.011 22.49 141.051 22.07 140.601 21.17C140.211 20.39 140.151 18.56 140.151 16.58V4.16C145.491 10.31 149.421 14.99 156.171 22.82C156.351 23.03 156.561 23.21 156.801 23.21C157.131 23.21 157.251 22.94 157.251 22.7C157.251 20.36 157.221 16.91 157.221 14.63C157.221 11.96 157.311 9.53 157.371 7.82C157.431 5.99 157.491 4.16 157.761 3.56C158.241 2.42 159.171 1.91 160.641 1.7ZM187.501 11.9C187.501 6.74 184.711 3.86 181.411 2.39C178.861 1.28 176.071 1.37 173.581 1.37C169.111 1.37 165.511 1.4 163.861 1.4V1.7C164.911 1.82 165.811 2.03 166.411 2.75C166.861 3.29 166.861 4.85 166.861 6.26V12.11C166.861 14.42 166.831 17.21 166.801 18.32C166.771 19.61 166.681 21.17 166.321 21.59C165.841 22.16 164.731 22.58 163.741 22.7V23H175.051C180.571 23 187.501 20.96 187.501 11.9ZM183.181 11.96C183.181 17.18 181.201 20.96 177.211 22.19C176.341 22.46 175.291 22.55 174.391 22.55C173.371 22.55 172.141 22.43 171.361 21.62C170.881 21.11 170.761 19.49 170.731 18.35V12.29C170.731 7.55 170.731 4.04 170.911 2.09C171.451 1.97 172.681 1.85 173.641 1.85C174.931 1.85 175.741 1.97 176.461 2.12C180.331 2.87 183.181 7.34 183.181 11.96ZM218.721 23V22.7C216.771 22.64 215.811 21.44 215.721 21.26C215.481 20.81 215.391 19.94 215.391 19.19C215.361 16.85 215.361 14.72 215.361 12.59C215.361 10.76 215.361 8.99 215.391 7.07C215.421 5.69 215.481 4.01 215.721 3.35C216.051 2.48 216.921 1.73 218.541 1.7V1.4H211.761C211.491 2 208.131 9.89 204.681 17.36L197.751 1.4H190.851V1.7C191.841 1.85 193.821 2.27 193.881 4.52C193.941 6.83 193.911 7.49 193.911 9.77C193.911 12.44 193.851 14.87 193.791 16.58C193.671 20.66 192.951 22.16 190.191 22.7V23H198.141V22.7C194.661 22.25 194.421 20.57 194.421 16.82C194.421 11.09 194.451 8.69 194.481 3.65C195.291 5.54 199.071 14 202.671 22.49H203.151C203.331 22.04 204.531 19.07 204.921 18.26C206.151 15.53 210.381 6.08 211.551 3.47V11.36C211.551 14.09 211.551 16.22 211.491 18.86C211.461 19.67 211.341 20.51 211.101 21.02C210.711 21.86 209.421 22.58 207.711 22.67V23H218.721ZM233.487 14.15H226.257C227.997 9.83 229.407 6.47 229.977 5.18C230.727 7.07 232.197 10.82 233.487 14.15ZM243.117 23V22.64C241.287 22.58 240.417 21.14 240.237 20.78C239.757 19.76 239.427 19.07 238.977 17.84C238.017 15.29 233.907 4.31 232.677 0.979999H232.437C231.897 1.73 230.697 3.02 229.257 3.59L229.647 4.46C227.757 8.96 225.327 14.72 223.617 18.5C222.687 20.54 222.027 21.53 221.757 21.8C221.637 21.95 220.737 22.55 219.687 22.67V23H226.167V22.7C225.117 22.58 223.677 22.31 223.677 21.26C223.677 20.87 223.887 20.06 224.307 18.98C224.847 17.57 225.387 16.28 225.987 14.78H233.727C234.927 17.93 235.857 20.63 235.857 21.32C235.857 22.46 234.147 22.64 233.607 22.7V23H243.117ZM268.202 11.9C268.202 6.74 265.412 3.86 262.112 2.39C259.562 1.28 256.772 1.37 254.282 1.37C249.812 1.37 246.212 1.4 244.562 1.4V1.7C245.612 1.82 246.512 2.03 247.112 2.75C247.562 3.29 247.562 4.85 247.562 6.26V12.11C247.562 14.42 247.532 17.21 247.502 18.32C247.472 19.61 247.382 21.17 247.022 21.59C246.542 22.16 245.432 22.58 244.442 22.7V23H255.752C261.272 23 268.202 20.96 268.202 11.9ZM263.882 11.96C263.882 17.18 261.902 20.96 257.912 22.19C257.042 22.46 255.992 22.55 255.092 22.55C254.072 22.55 252.842 22.43 252.062 21.62C251.582 21.11 251.462 19.49 251.432 18.35V12.29C251.432 7.55 251.432 4.04 251.612 2.09C252.152 1.97 253.382 1.85 254.342 1.85C255.632 1.85 256.442 1.97 257.162 2.12C261.032 2.87 263.882 7.34 263.882 11.96ZM291.742 17.12L291.412 17.03C289.432 20.45 287.512 22.04 285.022 22.37C284.032 22.49 282.922 22.55 282.262 22.55C280.732 22.55 279.202 22.31 278.842 21.77C278.482 21.23 278.422 19.97 278.392 18.68C278.362 17.9 278.362 16.19 278.362 15.11C278.362 13.94 278.362 12.74 278.422 12.2C279.682 12.2 279.652 12.2 280.852 12.26C282.052 12.32 282.952 12.71 283.582 13.28C284.302 13.94 285.172 15.74 285.502 17H285.862V7.13H285.502C285.022 9.38 284.302 10.91 281.872 11.48C280.822 11.72 278.752 11.72 278.392 11.72C278.392 11.51 278.362 10.46 278.362 7.43C278.362 4.79 278.452 2.6 278.512 1.97C278.902 1.88 279.862 1.82 280.702 1.82C283.312 1.82 285.142 2.12 285.742 2.42C287.122 3.11 288.832 4.64 290.452 6.65L290.752 6.5L288.712 1.4H271.642V1.7C272.722 1.85 273.382 1.94 273.982 2.57C274.462 3.08 274.492 4.82 274.492 6.26V12.11C274.492 14.42 274.462 17.21 274.432 18.32C274.402 19.61 274.282 21.08 273.892 21.56C273.352 22.19 272.362 22.55 271.372 22.7V23H290.242L291.742 17.12ZM322.877 8.54V1.61H322.547C322.067 2.3 321.287 3.11 321.137 3.11C320.957 3.11 318.617 0.95 313.787 0.95C308.477 0.95 305.237 3.35 303.527 6.08C302.027 8.39 301.727 10.73 301.727 12.14C301.727 18.59 306.377 23.18 313.937 23.18C318.587 23.18 320.927 21.11 321.077 21.11C321.257 21.11 321.887 21.83 322.397 22.52H322.757L322.847 15.71H322.487C321.707 19.1 318.407 22.64 314.447 22.64C309.257 22.64 306.047 18.08 306.047 12.29C306.047 6.89 308.957 1.46 314.357 1.46C318.197 1.46 321.377 4.76 322.517 8.57L322.877 8.54ZM351.454 23V22.7C350.404 22.58 349.414 22.31 348.904 21.53C348.664 21.17 348.634 20.06 348.634 18.92C348.604 16.01 348.604 14.36 348.604 11.45V6.32C348.604 5.12 348.604 3.59 348.904 3.02C349.324 2.21 350.434 1.82 351.394 1.7V1.4H341.644V1.7C342.544 1.73 343.594 1.85 344.314 2.93C344.644 3.44 344.644 4.37 344.674 5.12C344.734 7.73 344.704 9.14 344.704 11.72H333.604C333.604 10.94 333.574 6.89 333.664 4.1C333.724 2.24 335.314 1.85 336.454 1.7V1.4H326.794V1.7C327.844 1.82 328.714 2.09 329.284 2.75C329.734 3.29 329.734 4.85 329.734 6.26V12.11C329.734 14.33 329.704 17.21 329.674 18.32C329.644 19.61 329.584 21.2 329.254 21.59C328.774 22.16 327.694 22.55 326.704 22.7V23H336.274V22.7C335.434 22.64 334.384 22.25 333.904 21.59C333.604 21.17 333.604 19.88 333.604 18.77V12.32H344.704C344.704 13.16 344.734 16.49 344.674 19.1C344.644 20.06 344.614 21.32 344.434 21.59C344.104 22.1 342.994 22.58 341.524 22.7V23H351.454ZM369.494 6.98C369.494 9.14 368.564 11.09 366.194 11.9C364.874 12.35 363.674 12.44 362.174 12.44C362.174 11.81 362.144 7.01 362.234 4.22C362.264 2.42 362.294 2.39 362.384 1.91C362.624 1.88 363.104 1.82 363.884 1.82C364.934 1.82 365.924 2 366.824 2.45C368.594 3.35 369.494 5 369.494 6.98ZM378.524 23V22.7C376.634 22.43 375.374 21.62 373.904 19.52C372.944 18.17 371.624 16.22 370.574 14.72C369.974 13.88 369.284 13.1 368.624 12.74V12.68C371.324 11.84 373.604 10.07 373.604 7.13C373.604 4.73 372.374 3.2 370.634 2.3C368.924 1.4 366.854 1.37 364.184 1.37C362.024 1.37 355.994 1.4 355.364 1.4V1.7C356.444 1.85 357.194 2 357.794 2.63C358.274 3.14 358.304 4.82 358.304 6.26V12.11C358.304 14.42 358.274 17.21 358.244 18.32C358.214 19.61 358.184 21.11 357.764 21.62C357.254 22.25 356.174 22.55 355.184 22.7V23H365.504V22.7C363.884 22.64 362.924 21.95 362.594 21.44C362.204 20.84 362.234 19.94 362.204 18.65C362.174 17.33 362.174 15.41 362.174 12.83C362.534 12.86 362.684 12.83 363.134 12.92C364.154 13.13 365.144 14.12 365.924 15.02C367.844 17.24 368.504 18.5 370.004 20.72C371.264 22.58 371.054 22.28 371.744 23H378.524ZM389.701 23V22.7C388.861 22.64 387.571 22.25 387.091 21.59C386.791 21.17 386.791 19.88 386.791 18.77V11.99C386.791 9.53 386.791 7.79 386.821 5.75C386.851 4.85 386.791 3.68 387.151 2.99C387.661 2.03 388.831 1.82 389.671 1.7V1.4H379.981V1.7C381.031 1.82 381.901 2.09 382.471 2.75C382.921 3.29 382.921 4.85 382.921 6.26V12.11C382.921 14.3 382.891 17.21 382.861 18.32C382.831 19.61 382.831 21.08 382.441 21.53C381.841 22.22 380.881 22.55 379.891 22.7V23H389.701ZM409.568 16.91C409.568 13.97 407.978 12.2 405.128 11.12C403.658 10.58 402.398 10.16 401.018 9.62C399.098 8.9 397.538 7.73 397.538 5.66C397.538 3.2 399.458 1.55 401.948 1.55C404.888 1.55 407.168 4.67 408.158 7.37H408.488V1.43H408.158C407.858 1.91 407.378 2.57 407.258 2.57C407.048 2.57 405.458 1.07 401.798 1.07C397.988 1.07 394.298 3.14 394.298 7.46C394.298 10.1 396.038 12.05 398.288 12.95C399.968 13.61 401.048 13.94 402.638 14.51C404.588 15.23 406.118 16.22 406.118 18.38C406.118 21.08 404.168 22.79 401.348 22.79C400.238 22.79 399.038 22.28 398.378 21.89C396.968 21.05 395.168 18.71 394.448 16.58H394.148L394.238 22.97H394.508C394.838 22.52 395.318 21.86 395.438 21.86C395.648 21.86 397.508 23.27 401.468 23.27C406.028 23.27 409.568 20.87 409.568 16.91ZM427.802 22.7C426.932 22.55 425.582 22.31 424.982 21.44C424.682 21.02 424.652 19.76 424.652 18.65C424.652 8.84 424.652 4.22 424.682 2.18C426.452 2.18 426.632 2.18 428.162 2.21C429.662 2.24 430.562 2.45 431.402 3.23C432.032 3.83 433.352 5.75 434.042 7.19L434.312 7.1L433.322 1.1C432.392 1.37 431.552 1.58 430.232 1.61C427.202 1.64 425.732 1.67 422.762 1.67C419.792 1.67 418.322 1.67 415.292 1.61C413.822 1.58 413.102 1.4 412.172 1.16L411.182 7.1L411.452 7.19C412.112 5.78 413.432 3.92 414.062 3.32C414.902 2.54 415.802 2.24 417.302 2.21C418.832 2.18 419.072 2.18 420.782 2.18V12.11C420.782 14.39 420.752 17.09 420.722 18.2C420.692 19.49 420.692 20.99 420.302 21.41C419.402 22.43 418.382 22.58 417.332 22.7V23H427.802V22.7ZM464.293 23V22.7C462.343 22.64 461.383 21.44 461.293 21.26C461.053 20.81 460.963 19.94 460.963 19.19C460.933 16.85 460.933 14.72 460.933 12.59C460.933 10.76 460.933 8.99 460.963 7.07C460.993 5.69 461.053 4.01 461.293 3.35C461.623 2.48 462.493 1.73 464.113 1.7V1.4H457.333C457.063 2 453.703 9.89 450.253 17.36L443.323 1.4H436.423V1.7C437.413 1.85 439.393 2.27 439.453 4.52C439.513 6.83 439.483 7.49 439.483 9.77C439.483 12.44 439.423 14.87 439.363 16.58C439.243 20.66 438.523 22.16 435.763 22.7V23H443.713V22.7C440.233 22.25 439.993 20.57 439.993 16.82C439.993 11.09 440.023 8.69 440.053 3.65C440.863 5.54 444.643 14 448.243 22.49H448.723C448.903 22.04 450.103 19.07 450.493 18.26C451.723 15.53 455.953 6.08 457.123 3.47V11.36C457.123 14.09 457.123 16.22 457.063 18.86C457.033 19.67 456.913 20.51 456.673 21.02C456.283 21.86 454.993 22.58 453.283 22.67V23H464.293ZM479.059 14.15H471.829C473.569 9.83 474.979 6.47 475.549 5.18C476.299 7.07 477.769 10.82 479.059 14.15ZM488.689 23V22.64C486.859 22.58 485.989 21.14 485.809 20.78C485.329 19.76 484.999 19.07 484.549 17.84C483.589 15.29 479.479 4.31 478.249 0.979999H478.009C477.469 1.73 476.269 3.02 474.829 3.59L475.219 4.46C473.329 8.96 470.899 14.72 469.189 18.5C468.259 20.54 467.599 21.53 467.329 21.8C467.209 21.95 466.309 22.55 465.259 22.67V23H471.739V22.7C470.689 22.58 469.249 22.31 469.249 21.26C469.249 20.87 469.459 20.06 469.879 18.98C470.419 17.57 470.959 16.28 471.559 14.78H479.299C480.499 17.93 481.429 20.63 481.429 21.32C481.429 22.46 479.719 22.64 479.179 22.7V23H488.689ZM506.154 16.91C506.154 13.97 504.564 12.2 501.714 11.12C500.244 10.58 498.984 10.16 497.604 9.62C495.684 8.9 494.124 7.73 494.124 5.66C494.124 3.2 496.044 1.55 498.534 1.55C501.474 1.55 503.754 4.67 504.744 7.37H505.074V1.43H504.744C504.444 1.91 503.964 2.57 503.844 2.57C503.634 2.57 502.044 1.07 498.384 1.07C494.574 1.07 490.884 3.14 490.884 7.46C490.884 10.1 492.624 12.05 494.874 12.95C496.554 13.61 497.634 13.94 499.224 14.51C501.174 15.23 502.704 16.22 502.704 18.38C502.704 21.08 500.754 22.79 497.934 22.79C496.824 22.79 495.624 22.28 494.964 21.89C493.554 21.05 491.754 18.71 491.034 16.58H490.734L490.824 22.97H491.094C491.424 22.52 491.904 21.86 492.024 21.86C492.234 21.86 494.094 23.27 498.054 23.27C502.614 23.27 506.154 20.87 506.154 16.91ZM538.502 8.54V1.61H538.172C537.692 2.3 536.912 3.11 536.762 3.11C536.582 3.11 534.242 0.95 529.412 0.95C524.102 0.95 520.862 3.35 519.152 6.08C517.652 8.39 517.352 10.73 517.352 12.14C517.352 18.59 522.002 23.18 529.562 23.18C534.212 23.18 536.552 21.11 536.702 21.11C536.882 21.11 537.512 21.83 538.022 22.52H538.382L538.472 15.71H538.112C537.332 19.1 534.032 22.64 530.072 22.64C524.882 22.64 521.672 18.08 521.672 12.29C521.672 6.89 524.582 1.46 529.982 1.46C533.822 1.46 537.002 4.76 538.142 8.57L538.502 8.54ZM564.739 12.05C564.739 6.29 560.569 1.1 553.669 1.1C547.309 1.1 541.939 5.27 541.939 12.17C541.939 18.62 547.099 23.21 553.279 23.21C559.489 23.21 564.739 18.44 564.739 12.05ZM560.389 12.08C560.389 17.09 558.109 22.7 553.399 22.7C548.599 22.7 546.259 17.69 546.259 12.26C546.259 7.1 548.389 1.61 553.309 1.61C558.109 1.61 560.389 7.22 560.389 12.08ZM567.721 21.05C567.721 22.16 568.621 23.09 569.731 23.09C570.841 23.09 571.771 22.16 571.771 21.05C571.771 19.94 570.841 19.04 569.731 19.04C568.621 19.04 567.721 19.94 567.721 21.05Z" fill="#CEA572"/>
</svg>
