<svg width="189" height="189" viewBox="0 0 189 189" fill="none" xmlns="http://www.w3.org/2000/svg">
<path d="M50.125 77.4746L85.5696 42.5555L128.154 42.5555L50.125 119.725L50.125 77.4746Z" fill="#5D1324" fill-opacity="0.9"/>
<path d="M67.2808 74.6072L66.423 75.465L72.0899 81.1319L72.0196 81.2022L62.4154 79.4726L61.5717 80.3163L68.7713 87.5159L69.6432 86.6441L63.9903 80.9913L64.0606 80.921L73.6367 82.6506L74.4804 81.8069L67.2808 74.6072ZM77.2149 79.0724L81.6162 74.671L80.8428 73.8976L77.3133 77.4271L74.8666 74.9804L78.1149 71.7321L77.3415 70.9587L74.0932 74.207L71.6605 71.7743L75.1338 68.301L74.3604 67.5276L70.0153 71.8727L77.2149 79.0724ZM85.4291 70.8582L86.329 69.9582L82.1808 62.632L82.2371 62.5758L89.5633 66.724L90.4632 65.8241L85.2322 56.6558L84.3463 57.5417L88.7055 64.91L88.6352 64.9804L81.2387 60.6493L80.2544 61.6337L84.5854 69.0302L84.5151 69.1005L77.1467 64.7413L76.2608 65.6272L85.4291 70.8582Z" fill="white"/>
</svg>
