<svg xmlns="http://www.w3.org/2000/svg" width="15.622" height="14.908" viewBox="0 0 15.622 14.908">
  <path id="Контур_15616" data-name="Контур 15616" d="M619.07,222.811a1.419,1.419,0,0,0-.4-.987,1.424,1.424,0,0,0-.671-2.683l-3.782.035h-1.805l.665-1.185.008-.015a3.932,3.932,0,0,0,.443-1.9c0-.011,0-.021,0-.032-.01-.092-.25-2.241-1.688-2.241h-.178a.285.285,0,0,0-.041,0,1.34,1.34,0,0,0-1.14,1.383v.577c0,.04-.041.434-1.454,2.027-.571.643-1.148,1.237-1.4,1.488h-3.067a.758.758,0,0,0-.757.757v7.917a.758.758,0,0,0,.757.757h3.045a.308.308,0,0,0,.168-.05.74.74,0,0,0,.267.05h8.572a12.441,12.441,0,0,1,2.072-3.657,1.42,1.42,0,0,0-.39-.978A1.426,1.426,0,0,0,619.07,222.811ZM607.3,228.1h-2.736a.143.143,0,0,1-.141-.141v-7.917a.143.143,0,0,1,.141-.141H607.3v8.2Zm6.756-6.088h0l3.588-.005a.808.808,0,1,1,0,1.616l-3.589.012a.308.308,0,0,0,0,.617h3.206a.808.808,0,0,1,0,1.616h-3.206a.308.308,0,0,0,0,.617h2.559a.808.808,0,0,1,0,1.616h-8.572a.129.129,0,0,1-.127-.127V219.92a.125.125,0,0,1,.032-.083c.089-.09.818-.822,1.538-1.632,1.428-1.61,1.611-2.149,1.611-2.438V215.2a.729.729,0,0,1,.586-.779h.156c.829,0,1.052,1.515,1.073,1.675a3.279,3.279,0,0,1-.375,1.6l-.919,1.636a.308.308,0,0,0,.269.459h2.335l3.782-.035a.808.808,0,1,1,0,1.616l-3.947.017a.308.308,0,0,0,0,.617Z" transform="translate(-603.807 -213.804)" fill="#161615"/>
</svg>
