<svg xmlns="http://www.w3.org/2000/svg" width="14.681" height="14.642" viewBox="0 0 14.681 14.642">
  <path id="Контур_15617" data-name="Контур 15617" d="M611.741,349.031a2.817,2.817,0,0,0-2.561,1.641l-3.059-1.526a3.4,3.4,0,0,0,.145-3.526L609.5,343.8a2.382,2.382,0,1,0-.252-.452l-3.268,1.834a3.4,3.4,0,1,0-.185,4.375l3.211,1.6a2.819,2.819,0,1,0,2.734-2.133Zm-.284-8.486a1.878,1.878,0,1,1-1.878,1.878A1.88,1.88,0,0,1,611.457,340.544Zm-8.173,9.606a2.888,2.888,0,1,1,2.888-2.888,2.888,2.888,0,0,1-2.888,2.888Zm8.457,4a2.3,2.3,0,0,1-2.18-3.04h0a2.3,2.3,0,1,1,2.18,3.04Z" transform="translate(-599.879 -340.027)" fill="#161615"/>
</svg>
