<svg xmlns="http://www.w3.org/2000/svg" width="24" height="24" viewBox="0 0 24 24">
  <g id="Сгруппировать_11082" data-name="Сгруппировать 11082" transform="translate(-1119 -1282)">
    <g id="Эллипс_66" data-name="Эллипс 66" transform="translate(1119 1282)" fill="#fff" stroke="#fec25f" stroke-width="1">
      <circle cx="12" cy="12" r="12" stroke="none"/>
      <circle cx="12" cy="12" r="11.5" fill="none"/>
    </g>
    <path id="Контур_18710" data-name="Контур 18710" d="M1555.577,487.585l4.151-2.183,4.151,2.183a.252.252,0,0,0,.365-.266l-.792-4.622,3.358-3.273a.254.254,0,0,0,.064-.259.251.251,0,0,0-.2-.172l-4.641-.674-2.076-4.206a.253.253,0,0,0-.453,0l-2.075,4.206-4.641.674a.253.253,0,0,0-.14.431L1556,482.7l-.793,4.622a.252.252,0,0,0,.366.266Z" transform="translate(-428.568 812.311)" fill="#1e1e1e"/>
  </g>
</svg>
