<svg xmlns="http://www.w3.org/2000/svg" width="128" height="95" viewBox="0 0 128 95"><defs><clipPath id="wri4a"><path d="M25 85.95h80V10H25z"/></clipPath></defs><g><g><path fill="#fcecf2" d="M42.894 0h8.85c16.73 1.617 24.193 13.591 30.305 27.018.902 1.983.591 4.217.634 6.357.16 8.012 3.66 10.713 11.336 8.24 4.974-1.602 9.848-2.416 14.989-1.209 1.342.316 2.61.712 3.75 1.492 4.705 3.226 8.703 7.155 12.07 11.764 2.076 2.844 2.582 6.143 3.172 9.445v8.143c-.98 9.011-5.21 15.97-12.951 20.86-2.752 1.74-5.768 2.306-8.836 2.89h-8.17c-6.184-.589-11.048-3.674-15.232-8.025-3.358-3.492-7.604-5.293-12.235-6.228-7.193-1.453-14.215-.587-21.05 1.953-2.445.91-4.975 1.692-7.249 2.936-12.136 6.64-29.938 1.556-37.896-12.906C1.757 67.959.385 63.007 0 57.679v-9.5c1.788-17.84 12.577-30.466 25.039-41.86C29.273 2.45 34.972.55 40.958.343c.657-.023 1.365.185 1.936-.342"/></g><g><g><path fill="#f0679e" d="M101.048 43.877a3.947 3.947 0 0 1 3.95 3.945v2.628a3.947 3.947 0 0 1-3.95 3.944h-1.315v14.461A11.833 11.833 0 0 1 93.15 79.44v3.879a2.632 2.632 0 0 1-2.634 2.629h-2.633a2.631 2.631 0 0 1-2.633-2.63v-2.63H47.074v2.63a2.63 2.63 0 0 1-2.633 2.63h-2.634a2.63 2.63 0 0 1-2.632-2.63v-3.32a11.843 11.843 0 0 1-7.899-11.142v-14.46H29.96a3.947 3.947 0 0 1-3.949-3.945v-2.628a3.947 3.947 0 0 1 3.95-3.945h1.316V14.954a3.947 3.947 0 0 1 3.95-3.944h6.581a3.947 3.947 0 0 1 3.95 3.944v2.629h2.634a3.947 3.947 0 0 1 3.95 3.944 3.947 3.947 0 0 1-3.95 3.944h-7.899a3.947 3.947 0 0 1-3.95-3.944 3.947 3.947 0 0 1 3.95-3.944h2.632v-2.629c0-.727-.589-1.315-1.317-1.315h-6.581c-.728 0-1.316.588-1.316 1.315v28.923h27.644v-3.945h18.432v3.945h11.848v-9.203H89.2v3.944H81.3V30.73a3.947 3.947 0 0 1 3.95-3.944h6.583v-1.315a3.947 3.947 0 0 1 3.95-3.944 3.947 3.947 0 0 1 3.949 3.944v18.406zM40.492 20.212a1.316 1.316 0 0 0 0 2.63h7.899a1.315 1.315 0 1 0 0-2.63zm53.974 6.574H97.1v-1.315c0-.725-.588-1.314-1.316-1.314-.727 0-1.317.589-1.317 1.314zm-10.53 9.203h2.631v-1.315h-2.632zm13.163-3.944v-2.63H85.25c-.727 0-1.316.589-1.316 1.315v1.315zm-2.633 11.832H97.1v-9.201h-2.633zM64.188 62.282h13.155v-19.72H64.188zm-2.634-10.516v-5.26H29.96c-.726 0-1.315.589-1.315 1.316v2.628c0 .727.59 1.316 1.315 1.316zM41.81 83.318h2.632v-2.629H41.81zm46.075 0h2.643v-2.629h-2.643zM97.1 54.394H79.986v13.153h-2.634v-2.631h-2.633v2.631h-2.632v-2.631h-2.634v2.631h-2.632v-2.631h-2.633v2.631h-2.634V54.394H33.91v14.467c.005 5.083 4.127 9.202 9.214 9.208h44.76c5.086-.006 9.209-4.125 9.215-9.208zm5.256-6.572c0-.727-.59-1.316-1.316-1.316H79.986v5.26h21.053c.727 0 1.316-.589 1.316-1.316z"/></g><g><path fill="none" stroke="#f0679e" stroke-miterlimit="50" stroke-width=".6" d="M104.997 47.822v2.628a3.947 3.947 0 0 1-3.949 3.944h-1.315v14.461A11.833 11.833 0 0 1 93.15 79.44v3.879a2.632 2.632 0 0 1-2.634 2.629h-2.633a2.631 2.631 0 0 1-2.633-2.63v-2.63H47.074v2.63a2.63 2.63 0 0 1-2.633 2.63h-2.634a2.63 2.63 0 0 1-2.632-2.63v-3.32a11.843 11.843 0 0 1-7.899-11.142v-14.46H29.96a3.947 3.947 0 0 1-3.949-3.945v-2.628a3.947 3.947 0 0 1 3.95-3.945h1.316V14.954a3.947 3.947 0 0 1 3.95-3.944h6.581a3.947 3.947 0 0 1 3.95 3.944v2.629h2.634a3.947 3.947 0 0 1 3.95 3.944 3.947 3.947 0 0 1-3.95 3.944h-7.899a3.947 3.947 0 0 1-3.95-3.944 3.947 3.947 0 0 1 3.95-3.944h2.632v-2.629c0-.727-.589-1.315-1.317-1.315h-6.581c-.728 0-1.316.588-1.316 1.315v28.923h27.644v-3.945h18.432v3.945h11.848v-9.203H89.2v3.944H81.3V30.73a3.947 3.947 0 0 1 3.95-3.944h6.583v-1.315a3.947 3.947 0 0 1 3.95-3.944 3.947 3.947 0 0 1 3.949 3.944v18.406h1.315a3.947 3.947 0 0 1 3.95 3.945zm-64.505-27.61a1.316 1.316 0 0 0 0 2.63h7.899a1.315 1.315 0 1 0 0-2.63zm53.974 6.574H97.1v-1.315c0-.725-.588-1.314-1.316-1.314-.727 0-1.317.589-1.317 1.314zm-10.53 9.203h2.631v-1.315h-2.632zm13.163-3.944v-2.63H85.25c-.727 0-1.316.589-1.316 1.315v1.315zm-2.633 11.832H97.1v-9.201h-2.633zM64.188 62.282h13.155v-19.72H64.188zm-2.634-10.516v-5.26H29.96c-.726 0-1.315.589-1.315 1.316v2.628c0 .727.59 1.316 1.315 1.316zM41.81 83.318h2.632v-2.629H41.81zm46.075 0h2.643v-2.629h-2.643zM97.1 54.394H79.986v13.153h-2.634v-2.631h-2.633v2.631h-2.632v-2.631h-2.634v2.631h-2.632v-2.631h-2.633v2.631h-2.634V54.394H33.91v14.467c.005 5.083 4.127 9.202 9.214 9.208h44.76c5.086-.006 9.209-4.125 9.215-9.208zm5.256-6.572c0-.727-.59-1.316-1.316-1.316H79.986v5.26h21.053c.727 0 1.316-.589 1.316-1.316z"/></g><g/><g clip-path="url(#wri4a)"><path fill="#f0679e" d="M37.15 30.258h3.038V27.22H37.15z"/></g><g clip-path="url(#wri4a)"><path fill="none" stroke="#f0679e" stroke-miterlimit="50" stroke-width=".6" d="M37.15 30.258v0h3.038v0-3.038 0H37.15v0z"/></g><g clip-path="url(#wri4a)"><path fill="#f0679e" d="M42.22 30.258h3.038V27.22H42.22z"/></g><g clip-path="url(#wri4a)"><path fill="none" stroke="#f0679e" stroke-miterlimit="50" stroke-width=".6" d="M42.22 30.258v0h3.038v0-3.038 0H42.22v0z"/></g><g clip-path="url(#wri4a)"><path fill="#f0679e" d="M47.28 30.258h3.038V27.22H47.28z"/></g><g clip-path="url(#wri4a)"><path fill="none" stroke="#f0679e" stroke-miterlimit="50" stroke-width=".6" d="M47.28 30.258v0h3.038v0-3.038 0H47.28v0z"/></g><g clip-path="url(#wri4a)"><path fill="#f0679e" d="M37.15 41.388h3.038V38.35H37.15z"/></g><g clip-path="url(#wri4a)"><path fill="none" stroke="#f0679e" stroke-miterlimit="50" stroke-width=".6" d="M37.15 41.388v0h3.038v0-3.038 0H37.15v0z"/></g><g clip-path="url(#wri4a)"><path fill="#f0679e" d="M42.22 41.388h3.038V38.35H42.22z"/></g><g clip-path="url(#wri4a)"><path fill="none" stroke="#f0679e" stroke-miterlimit="50" stroke-width=".6" d="M42.22 41.388v0h3.038v0-3.038 0H42.22v0z"/></g><g clip-path="url(#wri4a)"><path fill="#f0679e" d="M47.28 41.388h3.038V38.35H47.28z"/></g><g clip-path="url(#wri4a)"><path fill="none" stroke="#f0679e" stroke-miterlimit="50" stroke-width=".6" d="M47.28 41.388v0h3.038v0-3.038 0H47.28v0z"/></g><g clip-path="url(#wri4a)"><path fill="#f0679e" d="M40.19 35.318h3.038V32.28H40.19z"/></g><g clip-path="url(#wri4a)"><path fill="none" stroke="#f0679e" stroke-miterlimit="50" stroke-width=".6" d="M40.19 35.318v0h3.038v0-3.038 0H40.19v0z"/></g><g clip-path="url(#wri4a)"><path fill="#f0679e" d="M45.25 35.318h3.038V32.28H45.25z"/></g><g clip-path="url(#wri4a)"><path fill="none" stroke="#f0679e" stroke-miterlimit="50" stroke-width=".6" d="M45.25 35.318v0h3.038v0-3.038 0H45.25v0z"/></g></g></g></svg>