<?xml version="1.0" encoding="UTF-8"?>
<svg width="97px" height="105px" viewBox="0 0 97 105" version="1.1" xmlns="http://www.w3.org/2000/svg" xmlns:xlink="http://www.w3.org/1999/xlink">
    <!-- Generator: Sketch 56.2 (81672) - https://sketch.com -->
    <title>Group 16</title>
    <desc>Created with Sketch.</desc>
    <g id="Homepage-(not-for-development)" stroke="none" stroke-width="1" fill="none" fill-rule="evenodd">
        <g id="Home-Tablet" transform="translate(-343.000000, -1206.000000)">
            <g id="Group-16" transform="translate(343.000000, 1206.000000)">
                <path d="M55.8273381,0 L60.7122302,0 C69.6913597,0.486754967 75.4436691,5.90990066 80.2280719,12.7460265 C87.5393597,23.1938742 91.0187986,35.1402318 93.8506403,47.3591722 C95.7571439,55.5839404 96.2512158,63.9609934 97,72.3178808 L97,73.7086093 C96.4361439,75.0993377 96.4361439,76.4900662 97,77.8807947 L97,89.0066225 C96.2602878,93.3310927 95.1772374,97.4546026 91.8576043,100.709603 C89.1716115,103.342252 85.9043165,104.427715 82.3453237,105 L72.5755396,105 C61.264223,104.00702 51.383482,98.4559272 40.8342086,95.0451656 C31.8795036,92.1496689 23.1634604,88.5372517 14.0733741,86.0262914 C12.6169784,85.6243709 11.1431367,85.2078477 9.82282014,84.4700662 C4.69856835,81.6044702 0.441035971,78.0546358 0,71.6225166 L0,62.5827815 C0.824848921,52.5034768 7.42015108,48.0781788 16.3909065,46.0073841 C19.4453597,45.3029801 22.5277266,44.7313907 25.6847626,44.8384768 C28.7273525,44.9420861 31.6959712,44.4796689 34.6394676,43.7856954 C39.9737698,42.5284768 41.4071367,40.8074503 41.4845971,35.4009934 C41.5481007,31.0104636 41.4838993,26.618543 41.5076259,22.2273179 C41.5327482,17.7658609 42.5362446,13.5032781 44.3959928,9.47155629 C46.6758417,4.52751656 50.0240863,0.766986755 55.8273381,0" id="Fill-1" fill="#E5FCFA" transform="translate(48.500000, 52.500000) scale(-1, 1) translate(-48.500000, -52.500000) "></path>
                <g id="Group-29" transform="translate(11.000000, 23.000000)">
                    <path d="M43.3468421,31.3102915 C43.8126316,34.9725766 45.7051754,38.1644872 48.4351462,40.331234 L44.8259357,40.331234 C42.7895322,40.331234 41.1329532,38.6676 41.1329532,36.6228511 L41.1329532,30.6409915 C41.7689181,31.0626255 42.5294444,31.3094106 43.3468421,31.3102915 L43.3468421,31.3102915 Z M43.3512281,24.0080362 L44.3297368,24.0080362 C44.9352924,24.0080362 45.4262281,23.5150532 45.4262281,22.9069723 L45.4262281,17.2902255 C46.8234503,17.4948766 48.2466959,17.5983766 49.6724269,17.5983766 C55.9985965,17.5983766 62.1811988,15.5200085 67.2203801,11.722366 C68.0018129,13.1845787 68.4102924,14.815034 68.4102924,16.4990745 L68.4102924,22.9071191 C68.4102924,23.5152 68.9010819,24.008183 69.5067836,24.008183 L70.4870468,24.008183 C71.5028363,24.008183 72.329152,24.8388255 72.329152,25.8598787 L72.329152,27.2566149 C72.329152,28.2776681 71.5029825,29.1083106 70.4870468,29.1083106 L69.4895322,29.1083106 C68.9060526,29.1083106 68.4247661,29.5670872 68.3945029,30.152266 C68.2417251,33.1057596 66.9804678,35.8591532 64.8437719,37.904783 C63.7860234,38.9165872 62.5649708,39.7031872 61.2442105,40.2418277 C61.2246199,40.2494617 61.2054678,40.257683 61.186462,40.2664915 C59.8446491,40.8051319 58.4003509,41.0874447 56.9183333,41.0874447 C55.4066374,41.0874447 53.961462,40.7933872 52.6366082,40.2594447 C52.6152632,40.2500489 52.5936257,40.2419745 52.5718421,40.2339 C48.5668713,38.5917 45.6801754,34.7448766 45.4439181,30.1525596 C45.4138012,29.5673809 44.9325146,29.1083106 44.3488889,29.1083106 L43.3513743,29.1083106 C42.3347076,29.1083106 41.5075146,28.2776681 41.5075146,27.2566149 L41.5075146,25.8597319 L41.5075146,25.8597319 C41.5075146,24.8386787 42.3345614,24.0080362 43.3512281,24.0080362 L43.3512281,24.0080362 Z M72.7047368,30.6408447 L72.7047368,36.6228511 C72.7047368,38.6677468 71.0485965,40.331234 69.0132164,40.331234 L65.4012281,40.331234 C65.7303216,40.0696213 66.0493275,39.7925936 66.3566374,39.4988298 C68.6475731,37.3058043 70.0930409,34.4290915 70.4912865,31.3102915 C71.3083918,31.3094106 72.0689181,31.0626255 72.7047368,30.6408447 L72.7047368,30.6408447 Z M60.5466959,46.8392553 C60.5466959,48.0598213 58.5734503,49.784234 56.9196491,50.8239319 C55.2645322,49.7839404 53.2909942,48.0596745 53.2909942,46.8392553 L53.2909942,42.7990851 C54.4475731,43.117366 55.6633626,43.2892787 56.9184795,43.2892787 C58.159269,43.2892787 59.3769591,43.1195681 60.5466959,42.7979106 L60.5466959,46.8392553 Z M34.1652632,53.0624681 L34.1652632,66.6980426 L31.0909942,66.6980426 L31.0909942,59.3209149 C31.0909942,58.712834 30.6002047,58.2198511 29.9945029,58.2198511 C29.3889474,58.2198511 28.8980117,58.712834 28.8980117,59.3209149 L28.8980117,66.6980426 L9.73397661,66.6980426 L9.73397661,59.3209149 C9.73397661,58.712834 9.24318713,58.2198511 8.63748538,58.2198511 C8.03192982,58.2198511 7.54099415,58.712834 7.54099415,59.3209149 L7.54099415,66.6980426 L4.46774854,66.6980426 L4.46774854,56.4141064 L6.54391813,56.4141064 C8.25576023,56.4141064 9.64815789,55.0156085 9.64815789,53.2966277 L9.64815789,46.4741426 C10.1567836,46.3528787 10.679883,46.2901915 11.2119006,46.2901915 L13.4953801,46.2901915 L13.4953801,46.8392553 C13.4953801,50.0618489 16.1064912,52.6837021 19.3157018,52.6837021 C20.8712573,52.6837021 22.3329532,52.0759149 23.4317836,50.9723553 C24.5307602,49.8687957 25.1358772,48.4010043 25.1358772,46.8392553 L25.1358772,46.2901915 L27.4208187,46.2901915 C31.1396784,46.2901915 34.1652632,49.3282468 34.1652632,53.0624681 L34.1652632,53.0624681 Z M2.23690058,52.5684574 L2.23690058,46.578083 C2.23690058,45.671834 2.97111111,44.9345617 3.87345029,44.9345617 L6.54391813,44.9345617 C7.04654971,44.9345617 7.45517544,45.3451851 7.45517544,45.8499128 L7.45517544,53.2966277 C7.45517544,53.8013553 7.04640351,54.2119787 6.54391813,54.2119787 L3.87345029,54.2119787 C2.97111111,54.2119787 2.23690058,53.4747064 2.23690058,52.5684574 L2.23690058,52.5684574 Z M22.9430409,42.7983511 L22.9430409,45.1891277 L22.9430409,46.8392553 C22.9430409,47.8127426 22.565848,48.7275064 21.8810526,49.4151574 C21.1964035,50.1028085 20.2854386,50.4814277 19.3157018,50.4814277 C17.3157018,50.4814277 15.6883626,48.8475957 15.6883626,46.8391085 L15.6883626,45.1891277 L15.6883626,42.7990851 C16.8453801,43.117366 18.0616082,43.2894255 19.3168713,43.2894255 C20.5569298,43.2894255 21.7737427,43.1198617 22.9430409,42.7983511 L22.9430409,42.7983511 Z M7.84055556,30.1524128 C7.8104386,29.567234 7.32915205,29.1081638 6.74538012,29.1081638 L5.74815789,29.1081638 C4.73222222,29.1081638 3.90590643,28.2775213 3.90590643,27.2564681 L3.90590643,25.8597319 C3.90590643,24.8386787 4.73207602,24.0080362 5.74815789,24.0080362 L6.72842105,24.0080362 C7.33412281,24.0080362 7.82491228,23.5150532 7.82491228,22.9069723 L7.82491228,19.2527617 C10.11,18.9252319 11.3961111,18.0313149 11.954883,16.2888447 C12.7361696,17.0469638 13.8066374,17.897866 15.2108772,18.6402766 C20.3307602,21.3469851 26.2918713,20.7412532 30.8088304,19.5496085 L30.8088304,22.9069723 C30.8088304,23.5150532 31.2996199,24.0080362 31.9053216,24.0080362 L32.8836842,24.0080362 C33.9003509,24.0080362 34.7273977,24.8386787 34.7273977,25.8597319 L34.7273977,27.2564681 C34.7273977,28.2775213 33.9003509,29.1081638 32.8836842,29.1081638 L31.8861696,29.1081638 C31.3028363,29.1081638 30.8215497,29.5669404 30.7912865,30.1521191 C30.6383626,33.1072277 29.3772515,35.8604745 27.2404094,37.9046362 C26.1775439,38.9214319 24.9502047,39.7111149 23.6221345,40.2499021 C23.6152632,40.2526915 23.608538,40.2556277 23.6015205,40.2587106 C22.2547368,40.8020489 20.804883,41.0872979 19.3167251,41.0872979 C17.8045906,41.0872979 16.3586842,40.7930936 15.0333918,40.2590043 C15.012924,40.2499021 14.9915789,40.2419745 14.9703801,40.2340468 C10.9642398,38.5919936 8.07681287,34.7448766 7.84055556,30.1524128 L7.84055556,30.1524128 Z M73.8012281,15.8861489 C74.4067836,15.8861489 74.8977193,15.393166 74.8977193,14.7850851 L74.8977193,11.73 C74.8977193,7.39019362 71.3816374,3.85959574 67.0598538,3.85959574 L65.585731,3.85959574 L65.4069298,3.44412766 C64.5164327,1.37867872 62.4928947,0.0440425532 60.2515205,0.0440425532 L52.9781287,0.0440425532 C45.2374854,0.0440425532 38.9398246,6.36767234 38.9398246,14.1405957 L38.9398246,36.6228511 C38.9398246,39.882 41.5804678,42.5333617 44.8257895,42.5333617 L51.0978655,42.5333617 L51.0978655,44.0880638 L27.4209649,44.0880638 L25.1360234,44.0880638 L25.1360234,41.9866468 C26.4521053,41.3649128 27.6741813,40.5311872 28.7529825,39.4991234 C31.0442105,37.3074191 32.4898246,34.4308532 32.8877778,31.3102915 C35.1120468,31.3080894 36.9205263,29.4904532 36.9205263,27.2564681 L36.9205263,25.8597319 C36.9205263,24.8712702 36.5657018,23.9650213 35.9782749,23.2607809 L38.5016667,13.2314106 C38.6502047,12.6418277 38.2943567,12.0431426 37.7072222,11.8941319 C37.1209649,11.7457085 36.5238889,12.1023064 36.3754971,12.6918894 L34.039386,21.9762064 C33.7091228,21.876817 33.3616082,21.8180936 33.0018129,21.8076702 L33.0018129,18.0915064 C33.0018129,17.7422489 32.8367544,17.4136915 32.557076,17.2061043 C32.2773977,16.998517 31.915848,16.9362702 31.5836842,17.0388894 C25.5746199,18.8899979 20.3083918,18.7922234 16.354152,16.7554021 C13.3917251,15.2294745 12.1630702,13.1257085 12.1538596,13.1095596 C11.9097076,12.6728043 11.4022515,12.4567021 10.9202339,12.5833979 C10.4374854,12.7100936 10.1010819,13.1478766 10.1010819,13.6486404 C10.1010819,16.3760489 9.52125731,16.9669532 6.65429825,17.1611809 C6.07856725,17.2002319 5.63178363,17.6804426 5.63178363,18.2597489 L5.63178363,21.807817 C5.23192982,21.8192681 4.84684211,21.8897362 4.48397661,22.010266 C4.0102924,20.2081915 3.7098538,18.8710596 3.62447368,18.1785638 C3.45385965,16.800766 3.5719883,12.6927702 3.63207602,11.2263 C3.63251462,11.2111787 3.63280702,11.1962043 3.63280702,11.181083 C3.63280702,9.37827447 5.09347953,7.91165745 6.88880117,7.91165745 L8.55122807,7.91165745 C8.84201754,7.91165745 9.12081871,7.79567872 9.32666667,7.58911915 L13.2487427,3.65024681 C14.0431871,2.85278298 15.214386,2.51996809 16.3061988,2.78158085 L30.0980117,6.07581702 C30.8249123,6.2496383 31.5722807,6.3377234 32.3200877,6.3377234 C34.4836842,6.3377234 36.6072222,5.5925234 38.2999123,4.23953617 C38.3272515,4.2176617 38.3611696,4.1900617 38.4276901,4.2332234 C38.4939181,4.27609149 38.4830994,4.31837234 38.4747661,4.35199149 L37.6442105,7.65224681 C37.4958187,8.24182979 37.8516667,8.84051489 38.4389474,8.98952553 C39.0257895,9.13853617 39.6222807,8.78135106 39.7705263,8.19176809 L40.6010819,4.89121915 C40.8465497,3.91376809 40.46,2.9291234 39.6161404,2.38270213 C38.7721345,1.83598723 37.7192105,1.8888383 36.9339766,2.51703191 C35.6279825,3.56098723 33.989386,4.13588936 32.3199415,4.13588936 C31.7430409,4.13588936 31.1664327,4.06791702 30.6057602,3.93388085 L16.814386,0.639204255 C14.9873392,0.201568085 13.0272515,0.758559574 11.6981579,2.09290213 L8.0971345,5.70938298 L6.88880117,5.70938298 C3.89230994,5.70938298 1.45283626,8.15110213 1.43982456,11.1573 C1.4228655,11.5845128 1.22535088,16.650434 1.44830409,18.4495723 C1.5605848,19.3612532 1.93923977,21.0129957 2.57403509,23.3607574 C2.0352924,24.0498766 1.71292398,24.9175149 1.71292398,25.8598787 L1.71292398,27.2566149 C1.71292398,29.4903064 3.52038012,31.3079426 5.74333333,31.3104383 C6.34888889,36.0695298 9.36263158,40.034534 13.4953801,41.985766 L13.4953801,44.0880638 L11.2120468,44.0880638 C10.5421637,44.0880638 9.88207602,44.1624957 9.23865497,44.3082766 C8.70342105,43.3685553 7.6971345,42.732434 6.54391813,42.732434 L3.87345029,42.732434 C1.76190058,42.732434 0.0439181287,44.4575809 0.0439181287,46.578083 L0.0439181287,52.5683106 C0.0439181287,54.115966 0.959561404,55.4520702 2.27476608,56.0614723 L2.27476608,67.7989596 C2.27476608,68.4070404 2.76570175,68.9001702 3.37125731,68.9001702 L35.2617544,68.9001702 C35.8674561,68.9001702 36.3582456,68.4070404 36.3582456,67.7989596 L36.3582456,53.0624681 C36.3582456,50.3611915 35.1619006,47.9367957 33.2753509,46.2901915 L51.0980117,46.2901915 L51.0980117,46.8392553 C51.0980117,50.015017 55.8446491,52.7626851 56.3860234,53.0655511 C56.5518129,53.158334 56.7358772,53.2048723 56.9196491,53.2048723 C57.1037135,53.2048723 57.2874854,53.1584809 57.4532749,53.0655511 C57.9943567,52.7626851 62.7395322,50.0148702 62.7395322,46.8392553 L62.7395322,46.2901915 L65.0233041,46.2901915 C68.7421637,46.2901915 71.7673099,49.3282468 71.7673099,53.0624681 L71.7673099,66.6980426 L68.6940643,66.6980426 L68.6940643,59.3209149 C68.6940643,58.712834 68.2032749,58.2198511 67.5975731,58.2198511 C66.9917251,58.2198511 66.5010819,58.712834 66.5010819,59.3209149 L66.5010819,66.6980426 L47.3377778,66.6980426 L47.3377778,54.0343404 C47.3377778,53.4262596 46.8468421,52.9332766 46.2412865,52.9332766 L39.6638012,52.9332766 C39.0580994,52.9332766 38.5673099,53.4262596 38.5673099,54.0343404 C38.5673099,54.6424213 39.0580994,55.1354043 39.6638012,55.1354043 L45.1447953,55.1354043 L45.1447953,67.7991064 C45.1447953,68.4071872 45.6354386,68.9001702 46.2412865,68.9001702 L72.8639474,68.9001702 C73.4697953,68.9001702 73.9604386,68.4071872 73.9604386,67.7991064 L73.9604386,53.0624681 C73.9604386,48.1139936 69.9513743,44.0880638 65.0234503,44.0880638 L62.7396784,44.0880638 L62.7396784,42.5333617 L69.0132164,42.5333617 C72.2579532,42.5333617 74.8977193,39.8818532 74.8977193,36.6228511 L74.8977193,19.9835745 C74.8977193,19.3754936 74.4067836,18.8825106 73.8012281,18.8825106 C73.1955263,18.8825106 72.7047368,19.3754936 72.7047368,19.9835745 L72.7047368,22.4756489 C72.0980117,22.0731 71.3779825,21.8296915 70.6034211,21.8075234 L70.6034211,16.4989277 C70.6034211,13.9683894 69.8450877,11.5363596 68.4104386,9.46562553 C68.235731,9.21340851 67.9640936,9.04604681 67.6611696,9.00376596 C67.3579532,8.9613383 67.0513743,9.04839574 66.8148246,9.24321064 C61.9993275,13.2110043 55.9113158,15.3961021 49.6725731,15.3961021 C47.9434795,15.3961021 46.2199415,15.2319702 44.5497661,14.9082574 C44.238655,14.848066 43.9157018,14.9260213 43.665848,15.1225979 C43.4159942,15.3191745 43.2632164,15.6148468 43.2468421,15.9331277 C43.2377778,16.112234 43.2333918,16.2973596 43.2333918,16.4989277 L43.2333918,21.8076702 C42.4591228,21.8301319 41.7395322,22.0735404 41.1329532,22.4757957 L41.1329532,14.1405957 C41.1329532,7.58207234 46.4468421,2.24617021 52.9782749,2.24617021 L60.2516667,2.24617021 C61.6180409,2.24617021 62.8516667,3.05978298 63.3943567,4.31881277 L63.859269,5.39785532 C64.032807,5.80084468 64.4282749,6.0617234 64.8655556,6.0617234 L67.06,6.0617234 C70.1725731,6.0617234 72.704883,8.60444681 72.704883,11.73 L72.704883,14.7850851 C72.7047368,15.393166 73.1955263,15.8861489 73.8012281,15.8861489 L73.8012281,15.8861489 Z" id="Fill-25" fill="#54BBBF"></path>
                    <path d="M43.3468421,31.3102915 C43.8126316,34.9725766 45.7051754,38.1644872 48.4351462,40.331234 L44.8259357,40.331234 C42.7895322,40.331234 41.1329532,38.6676 41.1329532,36.6228511 L41.1329532,30.6409915 C41.7689181,31.0626255 42.5294444,31.3094106 43.3468421,31.3102915 Z M43.3512281,24.0080362 L44.3297368,24.0080362 C44.9352924,24.0080362 45.4262281,23.5150532 45.4262281,22.9069723 L45.4262281,17.2902255 C46.8234503,17.4948766 48.2466959,17.5983766 49.6724269,17.5983766 C55.9985965,17.5983766 62.1811988,15.5200085 67.2203801,11.722366 C68.0018129,13.1845787 68.4102924,14.815034 68.4102924,16.4990745 L68.4102924,22.9071191 C68.4102924,23.5152 68.9010819,24.008183 69.5067836,24.008183 L70.4870468,24.008183 C71.5028363,24.008183 72.329152,24.8388255 72.329152,25.8598787 L72.329152,27.2566149 C72.329152,28.2776681 71.5029825,29.1083106 70.4870468,29.1083106 L69.4895322,29.1083106 C68.9060526,29.1083106 68.4247661,29.5670872 68.3945029,30.152266 C68.2417251,33.1057596 66.9804678,35.8591532 64.8437719,37.904783 C63.7860234,38.9165872 62.5649708,39.7031872 61.2442105,40.2418277 C61.2246199,40.2494617 61.2054678,40.257683 61.186462,40.2664915 C59.8446491,40.8051319 58.4003509,41.0874447 56.9183333,41.0874447 C55.4066374,41.0874447 53.961462,40.7933872 52.6366082,40.2594447 C52.6152632,40.2500489 52.5936257,40.2419745 52.5718421,40.2339 C48.5668713,38.5917 45.6801754,34.7448766 45.4439181,30.1525596 C45.4138012,29.5673809 44.9325146,29.1083106 44.3488889,29.1083106 L43.3513743,29.1083106 C42.3347076,29.1083106 41.5075146,28.2776681 41.5075146,27.2566149 L41.5075146,25.8597319 L41.5075146,25.8597319 C41.5075146,24.8386787 42.3345614,24.0080362 43.3512281,24.0080362 Z M72.7047368,30.6408447 L72.7047368,36.6228511 C72.7047368,38.6677468 71.0485965,40.331234 69.0132164,40.331234 L65.4012281,40.331234 C65.7303216,40.0696213 66.0493275,39.7925936 66.3566374,39.4988298 C68.6475731,37.3058043 70.0930409,34.4290915 70.4912865,31.3102915 C71.3083918,31.3094106 72.0689181,31.0626255 72.7047368,30.6408447 Z M60.5466959,46.8392553 C60.5466959,48.0598213 58.5734503,49.784234 56.9196491,50.8239319 C55.2645322,49.7839404 53.2909942,48.0596745 53.2909942,46.8392553 L53.2909942,42.7990851 C54.4475731,43.117366 55.6633626,43.2892787 56.9184795,43.2892787 C58.159269,43.2892787 59.3769591,43.1195681 60.5466959,42.7979106 L60.5466959,46.8392553 Z M34.1652632,53.0624681 L34.1652632,66.6980426 L31.0909942,66.6980426 L31.0909942,59.3209149 C31.0909942,58.712834 30.6002047,58.2198511 29.9945029,58.2198511 C29.3889474,58.2198511 28.8980117,58.712834 28.8980117,59.3209149 L28.8980117,66.6980426 L9.73397661,66.6980426 L9.73397661,59.3209149 C9.73397661,58.712834 9.24318713,58.2198511 8.63748538,58.2198511 C8.03192982,58.2198511 7.54099415,58.712834 7.54099415,59.3209149 L7.54099415,66.6980426 L4.46774854,66.6980426 L4.46774854,56.4141064 L6.54391813,56.4141064 C8.25576023,56.4141064 9.64815789,55.0156085 9.64815789,53.2966277 L9.64815789,46.4741426 C10.1567836,46.3528787 10.679883,46.2901915 11.2119006,46.2901915 L13.4953801,46.2901915 L13.4953801,46.8392553 C13.4953801,50.0618489 16.1064912,52.6837021 19.3157018,52.6837021 C20.8712573,52.6837021 22.3329532,52.0759149 23.4317836,50.9723553 C24.5307602,49.8687957 25.1358772,48.4010043 25.1358772,46.8392553 L25.1358772,46.2901915 L27.4208187,46.2901915 C31.1396784,46.2901915 34.1652632,49.3282468 34.1652632,53.0624681 Z M2.23690058,52.5684574 L2.23690058,46.578083 C2.23690058,45.671834 2.97111111,44.9345617 3.87345029,44.9345617 L6.54391813,44.9345617 C7.04654971,44.9345617 7.45517544,45.3451851 7.45517544,45.8499128 L7.45517544,53.2966277 C7.45517544,53.8013553 7.04640351,54.2119787 6.54391813,54.2119787 L3.87345029,54.2119787 C2.97111111,54.2119787 2.23690058,53.4747064 2.23690058,52.5684574 Z M22.9430409,42.7983511 L22.9430409,45.1891277 L22.9430409,46.8392553 C22.9430409,47.8127426 22.565848,48.7275064 21.8810526,49.4151574 C21.1964035,50.1028085 20.2854386,50.4814277 19.3157018,50.4814277 C17.3157018,50.4814277 15.6883626,48.8475957 15.6883626,46.8391085 L15.6883626,45.1891277 L15.6883626,42.7990851 C16.8453801,43.117366 18.0616082,43.2894255 19.3168713,43.2894255 C20.5569298,43.2894255 21.7737427,43.1198617 22.9430409,42.7983511 Z M7.84055556,30.1524128 C7.8104386,29.567234 7.32915205,29.1081638 6.74538012,29.1081638 L5.74815789,29.1081638 C4.73222222,29.1081638 3.90590643,28.2775213 3.90590643,27.2564681 L3.90590643,25.8597319 C3.90590643,24.8386787 4.73207602,24.0080362 5.74815789,24.0080362 L6.72842105,24.0080362 C7.33412281,24.0080362 7.82491228,23.5150532 7.82491228,22.9069723 L7.82491228,19.2527617 C10.11,18.9252319 11.3961111,18.0313149 11.954883,16.2888447 C12.7361696,17.0469638 13.8066374,17.897866 15.2108772,18.6402766 C20.3307602,21.3469851 26.2918713,20.7412532 30.8088304,19.5496085 L30.8088304,22.9069723 C30.8088304,23.5150532 31.2996199,24.0080362 31.9053216,24.0080362 L32.8836842,24.0080362 C33.9003509,24.0080362 34.7273977,24.8386787 34.7273977,25.8597319 L34.7273977,27.2564681 C34.7273977,28.2775213 33.9003509,29.1081638 32.8836842,29.1081638 L31.8861696,29.1081638 C31.3028363,29.1081638 30.8215497,29.5669404 30.7912865,30.1521191 C30.6383626,33.1072277 29.3772515,35.8604745 27.2404094,37.9046362 C26.1775439,38.9214319 24.9502047,39.7111149 23.6221345,40.2499021 C23.6152632,40.2526915 23.608538,40.2556277 23.6015205,40.2587106 C22.2547368,40.8020489 20.804883,41.0872979 19.3167251,41.0872979 C17.8045906,41.0872979 16.3586842,40.7930936 15.0333918,40.2590043 C15.012924,40.2499021 14.9915789,40.2419745 14.9703801,40.2340468 C10.9642398,38.5919936 8.07681287,34.7448766 7.84055556,30.1524128 Z M73.8012281,15.8861489 C74.4067836,15.8861489 74.8977193,15.393166 74.8977193,14.7850851 L74.8977193,11.73 C74.8977193,7.39019362 71.3816374,3.85959574 67.0598538,3.85959574 L65.585731,3.85959574 L65.4069298,3.44412766 C64.5164327,1.37867872 62.4928947,0.0440425532 60.2515205,0.0440425532 L52.9781287,0.0440425532 C45.2374854,0.0440425532 38.9398246,6.36767234 38.9398246,14.1405957 L38.9398246,36.6228511 C38.9398246,39.882 41.5804678,42.5333617 44.8257895,42.5333617 L51.0978655,42.5333617 L51.0978655,44.0880638 L27.4209649,44.0880638 L25.1360234,44.0880638 L25.1360234,41.9866468 C26.4521053,41.3649128 27.6741813,40.5311872 28.7529825,39.4991234 C31.0442105,37.3074191 32.4898246,34.4308532 32.8877778,31.3102915 C35.1120468,31.3080894 36.9205263,29.4904532 36.9205263,27.2564681 L36.9205263,25.8597319 C36.9205263,24.8712702 36.5657018,23.9650213 35.9782749,23.2607809 L38.5016667,13.2314106 C38.6502047,12.6418277 38.2943567,12.0431426 37.7072222,11.8941319 C37.1209649,11.7457085 36.5238889,12.1023064 36.3754971,12.6918894 L34.039386,21.9762064 C33.7091228,21.876817 33.3616082,21.8180936 33.0018129,21.8076702 L33.0018129,18.0915064 C33.0018129,17.7422489 32.8367544,17.4136915 32.557076,17.2061043 C32.2773977,16.998517 31.915848,16.9362702 31.5836842,17.0388894 C25.5746199,18.8899979 20.3083918,18.7922234 16.354152,16.7554021 C13.3917251,15.2294745 12.1630702,13.1257085 12.1538596,13.1095596 C11.9097076,12.6728043 11.4022515,12.4567021 10.9202339,12.5833979 C10.4374854,12.7100936 10.1010819,13.1478766 10.1010819,13.6486404 C10.1010819,16.3760489 9.52125731,16.9669532 6.65429825,17.1611809 C6.07856725,17.2002319 5.63178363,17.6804426 5.63178363,18.2597489 L5.63178363,21.807817 C5.23192982,21.8192681 4.84684211,21.8897362 4.48397661,22.010266 C4.0102924,20.2081915 3.7098538,18.8710596 3.62447368,18.1785638 C3.45385965,16.800766 3.5719883,12.6927702 3.63207602,11.2263 C3.63251462,11.2111787 3.63280702,11.1962043 3.63280702,11.181083 C3.63280702,9.37827447 5.09347953,7.91165745 6.88880117,7.91165745 L8.55122807,7.91165745 C8.84201754,7.91165745 9.12081871,7.79567872 9.32666667,7.58911915 L13.2487427,3.65024681 C14.0431871,2.85278298 15.214386,2.51996809 16.3061988,2.78158085 L30.0980117,6.07581702 C30.8249123,6.2496383 31.5722807,6.3377234 32.3200877,6.3377234 C34.4836842,6.3377234 36.6072222,5.5925234 38.2999123,4.23953617 C38.3272515,4.2176617 38.3611696,4.1900617 38.4276901,4.2332234 C38.4939181,4.27609149 38.4830994,4.31837234 38.4747661,4.35199149 L37.6442105,7.65224681 C37.4958187,8.24182979 37.8516667,8.84051489 38.4389474,8.98952553 C39.0257895,9.13853617 39.6222807,8.78135106 39.7705263,8.19176809 L40.6010819,4.89121915 C40.8465497,3.91376809 40.46,2.9291234 39.6161404,2.38270213 C38.7721345,1.83598723 37.7192105,1.8888383 36.9339766,2.51703191 C35.6279825,3.56098723 33.989386,4.13588936 32.3199415,4.13588936 C31.7430409,4.13588936 31.1664327,4.06791702 30.6057602,3.93388085 L16.814386,0.639204255 C14.9873392,0.201568085 13.0272515,0.758559574 11.6981579,2.09290213 L8.0971345,5.70938298 L6.88880117,5.70938298 C3.89230994,5.70938298 1.45283626,8.15110213 1.43982456,11.1573 C1.4228655,11.5845128 1.22535088,16.650434 1.44830409,18.4495723 C1.5605848,19.3612532 1.93923977,21.0129957 2.57403509,23.3607574 C2.0352924,24.0498766 1.71292398,24.9175149 1.71292398,25.8598787 L1.71292398,27.2566149 C1.71292398,29.4903064 3.52038012,31.3079426 5.74333333,31.3104383 C6.34888889,36.0695298 9.36263158,40.034534 13.4953801,41.985766 L13.4953801,44.0880638 L11.2120468,44.0880638 C10.5421637,44.0880638 9.88207602,44.1624957 9.23865497,44.3082766 C8.70342105,43.3685553 7.6971345,42.732434 6.54391813,42.732434 L3.87345029,42.732434 C1.76190058,42.732434 0.0439181287,44.4575809 0.0439181287,46.578083 L0.0439181287,52.5683106 C0.0439181287,54.115966 0.959561404,55.4520702 2.27476608,56.0614723 L2.27476608,67.7989596 C2.27476608,68.4070404 2.76570175,68.9001702 3.37125731,68.9001702 L35.2617544,68.9001702 C35.8674561,68.9001702 36.3582456,68.4070404 36.3582456,67.7989596 L36.3582456,53.0624681 C36.3582456,50.3611915 35.1619006,47.9367957 33.2753509,46.2901915 L51.0980117,46.2901915 L51.0980117,46.8392553 C51.0980117,50.015017 55.8446491,52.7626851 56.3860234,53.0655511 C56.5518129,53.158334 56.7358772,53.2048723 56.9196491,53.2048723 C57.1037135,53.2048723 57.2874854,53.1584809 57.4532749,53.0655511 C57.9943567,52.7626851 62.7395322,50.0148702 62.7395322,46.8392553 L62.7395322,46.2901915 L65.0233041,46.2901915 C68.7421637,46.2901915 71.7673099,49.3282468 71.7673099,53.0624681 L71.7673099,66.6980426 L68.6940643,66.6980426 L68.6940643,59.3209149 C68.6940643,58.712834 68.2032749,58.2198511 67.5975731,58.2198511 C66.9917251,58.2198511 66.5010819,58.712834 66.5010819,59.3209149 L66.5010819,66.6980426 L47.3377778,66.6980426 L47.3377778,54.0343404 C47.3377778,53.4262596 46.8468421,52.9332766 46.2412865,52.9332766 L39.6638012,52.9332766 C39.0580994,52.9332766 38.5673099,53.4262596 38.5673099,54.0343404 C38.5673099,54.6424213 39.0580994,55.1354043 39.6638012,55.1354043 L45.1447953,55.1354043 L45.1447953,67.7991064 C45.1447953,68.4071872 45.6354386,68.9001702 46.2412865,68.9001702 L72.8639474,68.9001702 C73.4697953,68.9001702 73.9604386,68.4071872 73.9604386,67.7991064 L73.9604386,53.0624681 C73.9604386,48.1139936 69.9513743,44.0880638 65.0234503,44.0880638 L62.7396784,44.0880638 L62.7396784,42.5333617 L69.0132164,42.5333617 C72.2579532,42.5333617 74.8977193,39.8818532 74.8977193,36.6228511 L74.8977193,19.9835745 C74.8977193,19.3754936 74.4067836,18.8825106 73.8012281,18.8825106 C73.1955263,18.8825106 72.7047368,19.3754936 72.7047368,19.9835745 L72.7047368,22.4756489 C72.0980117,22.0731 71.3779825,21.8296915 70.6034211,21.8075234 L70.6034211,16.4989277 C70.6034211,13.9683894 69.8450877,11.5363596 68.4104386,9.46562553 C68.235731,9.21340851 67.9640936,9.04604681 67.6611696,9.00376596 C67.3579532,8.9613383 67.0513743,9.04839574 66.8148246,9.24321064 C61.9993275,13.2110043 55.9113158,15.3961021 49.6725731,15.3961021 C47.9434795,15.3961021 46.2199415,15.2319702 44.5497661,14.9082574 C44.238655,14.848066 43.9157018,14.9260213 43.665848,15.1225979 C43.4159942,15.3191745 43.2632164,15.6148468 43.2468421,15.9331277 C43.2377778,16.112234 43.2333918,16.2973596 43.2333918,16.4989277 L43.2333918,21.8076702 C42.4591228,21.8301319 41.7395322,22.0735404 41.1329532,22.4757957 L41.1329532,14.1405957 C41.1329532,7.58207234 46.4468421,2.24617021 52.9782749,2.24617021 L60.2516667,2.24617021 C61.6180409,2.24617021 62.8516667,3.05978298 63.3943567,4.31881277 L63.859269,5.39785532 C64.032807,5.80084468 64.4282749,6.0617234 64.8655556,6.0617234 L67.06,6.0617234 C70.1725731,6.0617234 72.704883,8.60444681 72.704883,11.73 L72.704883,14.7850851 C72.7047368,15.393166 73.1955263,15.8861489 73.8012281,15.8861489 Z" id="Stroke-27" stroke="#54BBBF" stroke-width="0.6"></path>
                </g>
            </g>
        </g>
    </g>
</svg>