<svg xmlns="http://www.w3.org/2000/svg" width="97" height="105" viewBox="0 0 97 105"><g><g><path fill="#fcecf2" d="M55.827 0h4.885c8.98.487 14.732 5.91 19.516 12.746 7.311 10.448 10.79 22.394 13.623 34.613 1.906 8.225 2.4 16.602 3.149 24.959v1.39c-.564 1.391-.564 2.782 0 4.173v11.126c-.74 4.324-1.823 8.448-5.142 11.703-2.686 2.632-5.954 3.718-9.513 4.29h-9.77c-11.31-.993-21.192-6.544-31.74-9.955-8.956-2.895-17.672-6.508-26.762-9.019-1.456-.402-2.93-.818-4.25-1.556C4.699 81.604.44 78.055 0 71.623v-9.04c.825-10.08 7.42-14.505 16.39-16.576 3.055-.704 6.138-1.276 9.295-1.169 3.042.104 6.011-.358 8.954-1.052 5.335-1.258 6.768-2.979 6.846-8.385.063-4.39-.001-8.782.023-13.174.025-4.461 1.028-8.724 2.888-12.755C46.676 4.528 50.024.767 55.827 0"/></g><g><g><path fill="#f063a0" d="M73.922 80.327a6.195 6.195 0 0 1-.676 8.544l-4.42 3.949a6.17 6.17 0 0 1-4.668 1.535 6.178 6.178 0 0 1-4.3-2.381L48.355 76.99 36.853 91.973a6.173 6.173 0 0 1-4.87 2.409 6.16 6.16 0 0 1-4.098-1.563l-4.42-3.95a6.19 6.19 0 0 1-.676-8.542l14.475-17.78-9.59-12.492a1.267 1.267 0 0 1-.098-.148c-4.349-7.604 5.431-24.437 6.561-26.332l.005-.006c.074-.121.167-.232.275-.324.051-.042.112-.066.167-.1.063-.04.12-.087.19-.116a.019.019 0 0 0 .009-.002l.006-.003a36.257 36.257 0 0 1 27.134 0l.005.001.009.004c.086.034.158.09.233.14.04.029.088.044.123.076a1.285 1.285 0 0 1 .28.33c1.132 1.895 10.91 18.728 6.561 26.332a1.267 1.267 0 0 1-.098.148l-9.591 12.491zM48.356 48.922l6.732-8.261a20.096 20.096 0 0 0-13.466 0zm18.548-.4c2.314-4.225-1.33-13.461-4.369-19.525-1.05 7.832-5.101 12.936-5.306 13.189l-7.181 8.818 7.693 9.447zm-6.84-23.395a33.656 33.656 0 0 0-23.42-.001l.432 5.21c.011.059.02.12.034.179.057.272.122.537.186.801.048.196.095.394.148.584a26.365 26.365 0 0 0 .403 1.355 26.123 26.123 0 0 0 .48 1.357l.083.215a27.51 27.51 0 0 0 1.713 3.564 22.7 22.7 0 0 1 16.463 0 27.6 27.6 0 0 0 1.686-3.491l.13-.347c.092-.243.184-.493.274-.75.067-.193.133-.393.2-.594.06-.189.118-.38.177-.573.076-.251.15-.507.22-.768.041-.153.079-.31.118-.466.075-.299.147-.602.212-.912l.028-.144zM46.702 74.842l-5.064-6.595-2.73-3.554-14.092 17.304a3.555 3.555 0 0 0 .388 4.907l4.42 3.947a3.49 3.49 0 0 0 2.684.883 3.5 3.5 0 0 0 2.47-1.368zm24.805 12.06a3.558 3.558 0 0 0 .389-4.907L56.762 63.41c-.002 0-.003 0-.004-.003l-9.416-11.564v-.001l-7.857-9.649-.002-.004c-.205-.251-4.256-5.356-5.307-13.188-3.038 6.066-6.68 15.304-4.368 19.525l10.168 13.243 9.417 12.265 12.539 16.332a3.5 3.5 0 0 0 2.47 1.368 3.484 3.484 0 0 0 2.684-.883z"/></g><g><path fill="none" stroke="#f063a0" stroke-miterlimit="50" stroke-width=".6" d="M73.246 88.871l-4.42 3.949a6.17 6.17 0 0 1-4.668 1.535 6.178 6.178 0 0 1-4.3-2.381L48.355 76.99 36.853 91.973a6.173 6.173 0 0 1-4.87 2.409 6.16 6.16 0 0 1-4.098-1.563l-4.42-3.95a6.19 6.19 0 0 1-.676-8.542l14.475-17.78-9.59-12.492a1.267 1.267 0 0 1-.098-.148c-4.349-7.604 5.431-24.437 6.561-26.332l.005-.006c.074-.121.167-.232.275-.324.051-.042.112-.066.167-.1.063-.04.12-.087.19-.116a.019.019 0 0 0 .009-.002l.006-.003a36.257 36.257 0 0 1 27.134 0l.005.001.009.004c.086.034.158.09.233.14.04.029.088.044.123.076a1.285 1.285 0 0 1 .28.33c1.132 1.895 10.91 18.728 6.561 26.332a1.267 1.267 0 0 1-.098.148l-9.591 12.491 14.477 17.78a6.195 6.195 0 0 1-.676 8.545zm-24.89-39.95l6.732-8.26a20.096 20.096 0 0 0-13.466 0zm14.18-19.924c-1.05 7.832-5.102 12.936-5.307 13.189l-7.181 8.818 7.693 9.447 9.163-11.93c2.314-4.224-1.33-13.46-4.369-19.524zm-25.891-3.871l.43 5.21c.012.059.022.12.035.179.057.272.122.537.186.801.048.196.095.394.148.584a26.365 26.365 0 0 0 .403 1.355 26.123 26.123 0 0 0 .48 1.357l.083.215a27.51 27.51 0 0 0 1.713 3.564 22.7 22.7 0 0 1 16.463 0 27.6 27.6 0 0 0 1.686-3.491l.13-.347c.092-.243.184-.493.274-.75.067-.193.133-.393.2-.594.06-.189.118-.38.177-.573.076-.251.15-.507.22-.768.041-.153.079-.31.118-.466.075-.299.147-.602.212-.912l.028-.144.433-5.219a33.656 33.656 0 0 0-23.42-.001zm10.057 49.716l-5.064-6.595-2.73-3.554-14.092 17.304a3.555 3.555 0 0 0 .388 4.907l4.42 3.947a3.49 3.49 0 0 0 2.684.883 3.5 3.5 0 0 0 2.47-1.368zm25.194 7.153L56.762 63.41c-.002 0-.003 0-.004-.003l-9.416-11.564v-.001l-7.857-9.649-.002-.004c-.205-.251-4.256-5.356-5.307-13.188-3.038 6.066-6.68 15.304-4.368 19.525l10.168 13.243 9.417 12.265 12.539 16.332a3.5 3.5 0 0 0 2.47 1.368 3.484 3.484 0 0 0 2.684-.883l4.421-3.95a3.558 3.558 0 0 0 .389-4.906z"/></g></g></g></svg>