<?xml version="1.0" encoding="UTF-8"?>
<svg width="97px" height="105px" viewBox="0 0 97 105" version="1.1" xmlns="http://www.w3.org/2000/svg" xmlns:xlink="http://www.w3.org/1999/xlink">
    <!-- Generator: Sketch 56.2 (81672) - https://sketch.com -->
    <title>Group 7</title>
    <desc>Created with Sketch.</desc>
    <g id="Homepage-(not-for-development)" stroke="none" stroke-width="1" fill="none" fill-rule="evenodd">
        <g id="Home-Desktop" transform="translate(-833.000000, -1224.000000)">
            <g id="Group-7" transform="translate(833.000000, 1224.000000)">
                <path d="M55.8273381,0 L60.7122302,0 C69.6913597,0.486754967 75.4436691,5.90990066 80.2280719,12.7460265 C87.5393597,23.1938742 91.0187986,35.1402318 93.8506403,47.3591722 C95.7571439,55.5839404 96.2512158,63.9609934 97,72.3178808 L97,73.7086093 C96.4361439,75.0993377 96.4361439,76.4900662 97,77.8807947 L97,89.0066225 C96.2602878,93.3310927 95.1772374,97.4546026 91.8576043,100.709603 C89.1716115,103.342252 85.9043165,104.427715 82.3453237,105 L72.5755396,105 C61.264223,104.00702 51.383482,98.4559272 40.8342086,95.0451656 C31.8795036,92.1496689 23.1634604,88.5372517 14.0733741,86.0262914 C12.6169784,85.6243709 11.1431367,85.2078477 9.82282014,84.4700662 C4.69856835,81.6044702 0.441035971,78.0546358 0,71.6225166 L0,62.5827815 C0.824848921,52.5034768 7.42015108,48.0781788 16.3909065,46.0073841 C19.4453597,45.3029801 22.5277266,44.7313907 25.6847626,44.8384768 C28.7273525,44.9420861 31.6959712,44.4796689 34.6394676,43.7856954 C39.9737698,42.5284768 41.4071367,40.8074503 41.4845971,35.4009934 C41.5481007,31.0104636 41.4838993,26.618543 41.5076259,22.2273179 C41.5327482,17.7658609 42.5362446,13.5032781 44.3959928,9.47155629 C46.6758417,4.52751656 50.0240863,0.766986755 55.8273381,0" id="Fill-1" fill="#E5FCFA"></path>
                <g id="Group-21" transform="translate(12.000000, 24.000000)">
                    <path d="M55.1498886,19.6971343 C55.6976134,19.4416232 55.9363249,18.7892435 55.6811997,18.2397445 C54.3377449,15.339995 50.8082623,13.8433768 47.6284902,15.4424248 C45.3838527,11.8556513 40.7929471,10.3879659 36.8662367,12.2179509 C36.3179872,12.4731613 36.0803999,13.1252405 36.3340262,13.6749649 C36.5894512,14.2243888 37.2403804,14.462014 37.7881052,14.2077054 C40.7605693,12.8219339 44.1998886,14.0243387 45.8309215,16.7991132 C44.3078896,18.5252405 43.8453065,21.0553257 44.8742017,23.2757164 C45.0599995,23.6758166 45.4546792,23.9108116 45.8674964,23.9108116 C46.65798,23.9108116 47.1983599,23.0830311 46.8589923,22.3508417 C45.9826925,20.4604359 46.8034553,18.2081062 48.6886391,17.3298246 C50.5738978,16.4512425 52.8208588,17.2743637 53.6967089,19.1647695 C53.9516093,19.7144188 54.6019389,19.9518186 55.1498886,19.6971343" id="Fill-1" fill="#54BBBF"></path>
                    <path d="M55.1498886,19.6971343 C55.6976134,19.4416232 55.9363249,18.7892435 55.6811997,18.2397445 C54.3377449,15.339995 50.8082623,13.8433768 47.6284902,15.4424248 C45.3838527,11.8556513 40.7929471,10.3879659 36.8662367,12.2179509 C36.3179872,12.4731613 36.0803999,13.1252405 36.3340262,13.6749649 C36.5894512,14.2243888 37.2403804,14.462014 37.7881052,14.2077054 C40.7605693,12.8219339 44.1998886,14.0243387 45.8309215,16.7991132 C44.3078896,18.5252405 43.8453065,21.0553257 44.8742017,23.2757164 C45.0599995,23.6758166 45.4546792,23.9108116 45.8674964,23.9108116 C46.65798,23.9108116 47.1983599,23.0830311 46.8589923,22.3508417 C45.9826925,20.4604359 46.8034553,18.2081062 48.6886391,17.3298246 C50.5738978,16.4512425 52.8208588,17.2743637 53.6967089,19.1647695 C53.9516093,19.7144188 54.6019389,19.9518186 55.1498886,19.6971343 Z" id="Stroke-3" stroke="#54BBBF"></path>
                    <path d="M25.5674555,23.6685045 C26.1166044,23.9210847 26.76551,23.6791007 27.0177122,23.1284744 C27.2695397,22.5775476 27.0291044,21.9262951 26.479356,21.6734895 C23.3676373,20.2430787 19.5050079,21.3205085 17.7557061,24.7486398 C15.8195572,24.1578081 13.6771496,24.219732 11.7018026,25.1393462 C11.1531783,25.3948572 10.9159658,26.0470115 11.1704915,26.5973372 C11.4253169,27.146761 12.0759463,27.3846869 12.6235962,27.1297771 C15.7865048,25.65623 19.5541742,27.0370416 21.0236927,30.2078582 C21.2085911,30.6076578 21.6037954,30.8426528 22.0163128,30.8426528 C22.8070962,30.8426528 23.3474761,30.0156989 23.0081085,29.2826829 C22.2814063,27.7155736 21.1330428,26.4811548 19.7653796,25.6351127 C20.9982102,23.3801528 23.5209822,22.7274724 25.5674555,23.6685045" id="Fill-5" fill="#54BBBF"></path>
                    <path d="M25.5674555,23.6685045 C26.1166044,23.9210847 26.76551,23.6791007 27.0177122,23.1284744 C27.2695397,22.5775476 27.0291044,21.9262951 26.479356,21.6734895 C23.3676373,20.2430787 19.5050079,21.3205085 17.7557061,24.7486398 C15.8195572,24.1578081 13.6771496,24.219732 11.7018026,25.1393462 C11.1531783,25.3948572 10.9159658,26.0470115 11.1704915,26.5973372 C11.4253169,27.146761 12.0759463,27.3846869 12.6235962,27.1297771 C15.7865048,25.65623 19.5541742,27.0370416 21.0236927,30.2078582 C21.2085911,30.6076578 21.6037954,30.8426528 22.0163128,30.8426528 C22.8070962,30.8426528 23.3474761,30.0156989 23.0081085,29.2826829 C22.2814063,27.7155736 21.1330428,26.4811548 19.7653796,25.6351127 C20.9982102,23.3801528 23.5209822,22.7274724 25.5674555,23.6685045 Z" id="Stroke-7" stroke="#54BBBF"></path>
                    <path d="M44.5790539,32.785243 C44.0881401,33.1390506 43.9754923,33.8245716 44.3282757,34.3165055 C44.6803095,34.8084394 45.3642911,34.9216909 45.8546802,34.5678833 C47.8838403,33.1090656 50.7044584,33.5725927 52.1604861,35.6069113 C52.3740898,35.9058592 52.709635,36.0642761 53.0504266,36.0642761 C53.9270262,36.0639755 54.4629841,35.0601177 53.9384184,34.3274023 C51.7769738,31.3076378 47.5907161,30.6179835 44.5790539,32.785243" id="Fill-9" fill="#54BBBF"></path>
                    <path d="M44.5790539,32.785243 C44.0881401,33.1390506 43.9754923,33.8245716 44.3282757,34.3165055 C44.6803095,34.8084394 45.3642911,34.9216909 45.8546802,34.5678833 C47.8838403,33.1090656 50.7044584,33.5725927 52.1604861,35.6069113 C52.3740898,35.9058592 52.709635,36.0642761 53.0504266,36.0642761 C53.9270262,36.0639755 54.4629841,35.0601177 53.9384184,34.3274023 C51.7769738,31.3076378 47.5907161,30.6179835 44.5790539,32.785243 Z" id="Stroke-11" stroke="#54BBBF"></path>
                    <path d="M35.4075033,27.1329785 C35.0023308,29.6035446 32.6810957,31.2745115 30.2159591,30.8687751 C29.6191429,30.7701779 29.056878,31.1756137 28.9588452,31.773735 C28.8611121,32.3713302 29.2648606,32.9360095 29.8608524,33.0346067 C30.2291501,33.0950276 30.597223,33.1246368 30.9628975,33.1246368 C34.1351747,33.1246368 37.0189745,30.8324023 37.5666244,27.4885145 C37.6645823,26.8906939 37.260609,26.3259394 36.6646172,26.228244 C36.0684006,26.1288201 35.5055361,26.5350827 35.4075033,27.1329785" id="Fill-13" fill="#54BBBF"></path>
                    <path d="M35.4075033,27.1329785 C35.0023308,29.6035446 32.6810957,31.2745115 30.2159591,30.8687751 C29.6191429,30.7701779 29.056878,31.1756137 28.9588452,31.773735 C28.8611121,32.3713302 29.2648606,32.9360095 29.8608524,33.0346067 C30.2291501,33.0950276 30.597223,33.1246368 30.9628975,33.1246368 C34.1351747,33.1246368 37.0189745,30.8324023 37.5666244,27.4885145 C37.6645823,26.8906939 37.260609,26.3259394 36.6646172,26.228244 C36.0684006,26.1288201 35.5055361,26.5350827 35.4075033,27.1329785 Z" id="Stroke-15" stroke="#54BBBF"></path>
                    <path d="M65.4653582,17.0174399 C65.5876744,15.7404108 65.29485,14.3913126 64.605772,13.1234519 C64.3170697,12.5913878 63.6524249,12.3947946 63.1211139,12.6852505 C62.590927,12.9753307 62.3949362,13.6409369 62.684313,14.1730762 C63.2787309,15.2675651 63.4531364,16.4638076 63.1622607,17.4562425 C62.9850071,18.0596994 63.3498572,18.6863026 63.9569414,18.8320942 C66.9691282,19.5569188 69.1110112,23.0715481 68.3421878,25.8554158 C68.2143254,26.3206713 68.4038705,26.8155361 68.810542,27.0742786 C70.7703746,28.3230511 71.4377925,31.6737024 69.9298254,34.375506 C69.4553254,33.2707214 68.6496272,31.9139579 67.1810081,30.6335471 C66.7251703,30.2357014 66.0341436,30.2838727 65.6371406,30.7411623 C65.2409619,31.1982265 65.2889291,31.8908116 65.7450666,32.2888828 C67.1610718,33.5236022 68.0814414,35.022024 68.4430687,36.8648597 C68.4535615,36.9188176 68.4313767,36.9721743 68.4489896,37.025005 C69.8151539,41.0207465 65.7997792,45.913482 62.3823449,44.3710972 C62.3141416,44.3402856 62.2454137,44.3810922 62.1752617,44.3652355 C61.4157319,43.8978758 60.5801293,43.575481 59.6583356,43.575481 L54.2558859,43.575481 C53.6514249,43.575481 53.1616354,44.065987 53.1616354,44.6723747 C53.1616354,45.2777856 53.6514249,45.7691182 54.2558859,45.7691182 L59.6571364,45.7691182 C61.4338695,45.7691182 62.7366272,47.4471493 62.2981026,49.1756062 C62.2834876,49.2318938 62.2071149,49.6531112 61.897502,51.3193437 C61.3405584,53.4494038 59.4244958,54.9334719 57.2261765,54.9334719 L50.289003,54.9334719 C48.0903839,54.9334719 46.174696,53.4494038 45.6176775,51.3193437 C45.3081395,49.6531112 45.2323664,49.2318938 45.218351,49.1756062 C44.7791518,47.4491784 46.0792863,45.7691182 47.8577432,45.7691182 L49.5672473,45.7691182 C50.172233,45.7691182 50.6614229,45.2777856 50.6614229,44.6723747 C50.6614229,44.065987 50.172233,43.575481 49.5672473,43.575481 L47.8577432,43.575481 C44.6603582,43.575481 42.326082,46.5817936 43.0878603,49.6800902 C43.3848069,51.2753808 43.4746703,51.7737776 43.4889106,51.8277355 C44.2817925,54.9480511 47.0781272,57.1273347 50.289003,57.1273347 L56.5486406,57.1273347 L56.4063582,65.2952455 C56.5363192,65.8940431 56.3912186,66.5097495 56.0088305,66.9864279 C54.9292699,68.3293637 52.7338736,67.7816683 52.4626344,66.0206713 C51.8494044,62.0460471 48.192659,58.3906613 40.2344599,53.7985271 C34.844002,50.688507 36.2182155,51.2011323 36.8682453,47.3374299 C38.8633038,48.2523848 38.5282833,49.201007 39.5657227,49.201007 C40.4404486,49.201007 40.9788048,48.1978257 40.4533397,47.4650351 C39.5376169,46.1851503 38.2236919,45.4242535 36.8187792,45.0232515 C36.7131765,44.9207465 36.6479711,44.7826202 36.5016714,44.7280611 C36.2161919,44.6224749 35.9156477,44.6462224 35.6599978,44.7653357 C34.0941703,44.6095491 32.4704824,44.9325451 31.0945748,45.9228758 C30.6027617,46.2757816 30.4907134,46.9613778 30.8435718,47.4538377 C31.1957555,47.9454709 31.8795122,48.0584218 32.3701262,47.70499 C33.084312,47.1907365 33.899079,46.9977505 34.7178931,46.9466483 C34.5839599,47.7633818 34.5365923,48.8783868 34.6518633,50.1263327 C26.2151919,51.7796393 21.1659003,49.3688928 17.9643182,42.1008818 C17.7004239,41.0010571 17.4497206,39.2098497 17.6914301,38.4588727 C17.8765533,37.8821693 17.5603449,37.2638327 16.9860132,37.0772345 C16.4105574,36.8912375 15.7941046,37.2083717 15.6083818,37.7850752 C15.2558233,38.880992 15.4345759,40.4489279 15.6273438,41.5528858 C13.5616087,41.7085972 12.019465,40.5924649 11.7298633,39.8217986 C11.6195389,39.526984 11.3875728,39.2937174 11.093774,39.1825701 C10.474773,38.9479509 10.20181,39.3128056 9.57838696,39.4862525 C6.45729969,40.3582966 3.36551735,36.2549399 4.25748142,32.4704459 C4.52459846,31.3369539 3.1744732,31.3369539 2.45938799,28.7602004 C1.69581099,26.0079709 2.79380893,23.2842234 4.90930996,22.6896343 C5.52808614,22.5150601 5.86632947,21.8438928 5.63548758,21.2399098 C4.34232331,17.8607766 6.57519394,13.6007315 9.62575452,13.4792886 C10.1760276,13.4575701 10.6245204,13.028988 10.6727874,12.4795641 C10.9677104,9.12861222 14.4307884,6.30100701 17.2923284,7.12442886 C17.7668284,7.2609018 18.274156,7.06197896 18.5304054,6.63813126 C19.9037648,4.36430862 23.0651744,3.19474449 25.512773,4.03905812 C25.1022792,4.66152806 24.7357052,5.47908818 24.6736477,6.36232966 C24.4449044,6.41162826 24.1968243,6.44213928 23.9934886,6.50902305 C22.3770707,7.04026052 21.2939876,8.0963477 21.248044,8.14061122 C20.817389,8.56603707 20.8121426,9.2603507 21.2357525,9.69216433 C21.6594373,10.1251804 22.3521878,10.1304409 22.7828428,9.70539078 C22.9027607,9.58687876 25.7582299,6.83667836 28.6666128,9.70539078 C28.8801416,9.91573647 29.156927,10.0198196 29.4337124,10.0198196 C30.4061714,10.0198196 30.8991087,8.82973948 30.2013367,8.14061122 C29.0694619,7.02530561 27.931966,6.49932866 26.8813356,6.30160822 C27.0358048,5.55243487 27.7063705,4.71548597 27.9711642,4.45238477 C27.9869783,4.43652806 27.980233,4.41217936 27.9945482,4.39602204 C30.7432155,1.41503507 35.1690841,1.71278056 36.8027401,4.03492485 C36.9835163,4.29133768 37.2652484,4.45854709 37.5753859,4.49281563 C37.8869475,4.52655812 38.1979845,4.42683367 38.4305502,4.21678858 C40.9682371,1.91809118 45.8192145,2.63795591 47.2407658,5.56265531 C47.4698839,6.03527555 48.0023192,6.27786072 48.5081477,6.14176353 C51.4343685,5.35441383 54.9723202,7.30110721 55.6882299,10.1069188 C55.8231375,10.6346994 56.32312,10.985501 56.8620009,10.9262826 C57.7589866,10.8321192 58.7156313,10.9957966 59.6325533,11.3989028 C60.1849249,11.6426904 60.8306077,11.3904108 61.073966,10.8362525 C61.3165748,10.2806663 61.065197,9.63377255 60.5123007,9.38975952 C59.5406662,8.96200401 58.5228633,8.73144289 57.5249968,8.70829659 C56.1876128,5.43948397 52.3450697,3.32851202 48.7715174,3.85125752 C46.5181108,0.553737475 41.3491262,-0.354754509 37.8478243,1.91102705 C35.0461683,-0.746362725 29.9875081,-0.535791583 27.0033521,2.28211924 C23.7755379,0.693066132 19.3835461,1.85706914 17.1036077,4.8480511 C13.4261015,4.34116232 9.48297731,7.32515531 8.62489004,11.4032615 C4.85871961,12.2161623 2.30964055,16.7789128 3.2785769,20.9940932 C-0.445997023,22.9782866 -1.08613357,28.846999 2.01441776,32.547024 C1.17596704,37.8883317 5.71245986,42.9275351 10.2518007,41.575506 C11.4664937,43.0923397 14.0548459,44.1302405 16.3137237,43.7615531 C20.1845974,51.8365281 26.45158,53.9480261 35.0332771,52.2877305 C35.7811149,54.9028858 34.648311,53.106017 39.1434321,55.7000551 C46.3656354,59.8679659 49.8065286,63.1541383 50.3000656,66.3556914 C50.6200964,68.4264579 52.3634773,69.9296142 54.4462258,69.9296142 C57.1255656,69.9296142 59.1143284,67.4481513 58.545618,64.8288627 L58.733544,56.8730261 C61.649197,56.2203457 63.6383346,53.8987275 64.0420831,51.7579208 C64.2529886,49.8637575 64.9899588,48.9614279 64.1318716,46.7571944 C68.5709311,46.3842986 71.7306169,41.4228758 70.7145379,36.9997545 C73.6816806,33.82751 73.7259003,28.335977 70.6118582,25.686478 C71.1396467,22.1877054 68.8594085,18.3765331 65.4653582,17.0174399 Z" id="Fill-17" fill="#54BBBF"></path>
                    <path d="M70.6118582,25.686478 C71.1396467,22.1877054 68.8594085,18.3765331 65.4653582,17.0174399 C65.5876744,15.7404108 65.29485,14.3913126 64.605772,13.1234519 C64.3170697,12.5913878 63.6524249,12.3947946 63.1211139,12.6852505 C62.590927,12.9753307 62.3949362,13.6409369 62.684313,14.1730762 C63.2787309,15.2675651 63.4531364,16.4638076 63.1622607,17.4562425 C62.9850071,18.0596994 63.3498572,18.6863026 63.9569414,18.8320942 C66.9691282,19.5569188 69.1110112,23.0715481 68.3421878,25.8554158 C68.2143254,26.3206713 68.4038705,26.8155361 68.810542,27.0742786 C70.7703746,28.3230511 71.4377925,31.6737024 69.9298254,34.375506 C69.4553254,33.2707214 68.6496272,31.9139579 67.1810081,30.6335471 C66.7251703,30.2357014 66.0341436,30.2838727 65.6371406,30.7411623 C65.2409619,31.1982265 65.2889291,31.8908116 65.7450666,32.2888828 C67.1610718,33.5236022 68.0814414,35.022024 68.4430687,36.8648597 C68.4535615,36.9188176 68.4313767,36.9721743 68.4489896,37.025005 C69.8151539,41.0207465 65.7997792,45.913482 62.3823449,44.3710972 C62.3141416,44.3402856 62.2454137,44.3810922 62.1752617,44.3652355 C61.4157319,43.8978758 60.5801293,43.575481 59.6583356,43.575481 L54.2558859,43.575481 C53.6514249,43.575481 53.1616354,44.065987 53.1616354,44.6723747 C53.1616354,45.2777856 53.6514249,45.7691182 54.2558859,45.7691182 L59.6571364,45.7691182 C61.4338695,45.7691182 62.7366272,47.4471493 62.2981026,49.1756062 C62.2834876,49.2318938 62.2071149,49.6531112 61.897502,51.3193437 C61.3405584,53.4494038 59.4244958,54.9334719 57.2261765,54.9334719 L50.289003,54.9334719 C48.0903839,54.9334719 46.174696,53.4494038 45.6176775,51.3193437 C45.3081395,49.6531112 45.2323664,49.2318938 45.218351,49.1756062 C44.7791518,47.4491784 46.0792863,45.7691182 47.8577432,45.7691182 L49.5672473,45.7691182 C50.172233,45.7691182 50.6614229,45.2777856 50.6614229,44.6723747 C50.6614229,44.065987 50.172233,43.575481 49.5672473,43.575481 L47.8577432,43.575481 C44.6603582,43.575481 42.326082,46.5817936 43.0878603,49.6800902 C43.3848069,51.2753808 43.4746703,51.7737776 43.4889106,51.8277355 C44.2817925,54.9480511 47.0781272,57.1273347 50.289003,57.1273347 L56.5486406,57.1273347 L56.4063582,65.2952455 C56.5363192,65.8940431 56.3912186,66.5097495 56.0088305,66.9864279 C54.9292699,68.3293637 52.7338736,67.7816683 52.4626344,66.0206713 C51.8494044,62.0460471 51.192659,63.3906613 43.2344599,58.7985271 C37.844002,55.688507 36.2182155,51.2011323 36.8682453,47.3374299 C38.8633038,48.2523848 38.5282833,49.201007 39.5657227,49.201007 C40.4404486,49.201007 40.9788048,48.1978257 40.4533397,47.4650351 C39.5376169,46.1851503 38.2236919,45.4242535 36.8187792,45.0232515 C36.7131765,44.9207465 36.6479711,44.7826202 36.5016714,44.7280611 C36.2161919,44.6224749 35.9156477,44.6462224 35.6599978,44.7653357 C34.0941703,44.6095491 32.4704824,44.9325451 31.0945748,45.9228758 C30.6027617,46.2757816 30.4907134,46.9613778 30.8435718,47.4538377 C31.1957555,47.9454709 31.8795122,48.0584218 32.3701262,47.70499 C33.084312,47.1907365 33.899079,46.9977505 34.7178931,46.9466483 C34.5839599,47.7633818 34.5365923,48.8783868 34.6518633,50.1263327 C26.2151919,51.7796393 21.1659003,49.3688928 17.9643182,42.1008818 C17.7004239,41.0010571 17.4497206,39.2098497 17.6914301,38.4588727 C17.8765533,37.8821693 17.5603449,37.2638327 16.9860132,37.0772345 C16.4105574,36.8912375 15.7941046,37.2083717 15.6083818,37.7850752 C15.2558233,38.880992 15.4345759,40.4489279 15.6273438,41.5528858 C13.5616087,41.7085972 12.019465,40.5924649 11.7298633,39.8217986 C11.6195389,39.526984 11.3875728,39.2937174 11.093774,39.1825701 C10.474773,38.9479509 10.20181,39.3128056 9.57838696,39.4862525 C6.45729969,40.3582966 3.36551735,36.2549399 4.25748142,32.4704459 C4.52459846,31.3369539 3.1744732,31.3369539 2.45938799,28.7602004 C1.69581099,26.0079709 2.79380893,23.2842234 4.90930996,22.6896343 C5.52808614,22.5150601 5.86632947,21.8438928 5.63548758,21.2399098 C4.34232331,17.8607766 6.57519394,13.6007315 9.62575452,13.4792886 C10.1760276,13.4575701 10.6245204,13.028988 10.6727874,12.4795641 C10.9677104,9.12861222 14.4307884,6.30100701 17.2923284,7.12442886 C17.7668284,7.2609018 18.274156,7.06197896 18.5304054,6.63813126 C19.9037648,4.36430862 23.0651744,3.19474449 25.512773,4.03905812 C25.1022792,4.66152806 24.7357052,5.47908818 24.6736477,6.36232966 C24.4449044,6.41162826 24.1968243,6.44213928 23.9934886,6.50902305 C22.3770707,7.04026052 21.2939876,8.0963477 21.248044,8.14061122 C20.817389,8.56603707 20.8121426,9.2603507 21.2357525,9.69216433 C21.6594373,10.1251804 22.3521878,10.1304409 22.7828428,9.70539078 C22.9027607,9.58687876 25.7582299,6.83667836 28.6666128,9.70539078 C28.8801416,9.91573647 29.156927,10.0198196 29.4337124,10.0198196 C30.4061714,10.0198196 30.8991087,8.82973948 30.2013367,8.14061122 C29.0694619,7.02530561 27.931966,6.49932866 26.8813356,6.30160822 C27.0358048,5.55243487 27.7063705,4.71548597 27.9711642,4.45238477 C27.9869783,4.43652806 27.980233,4.41217936 27.9945482,4.39602204 C30.7432155,1.41503507 35.1690841,1.71278056 36.8027401,4.03492485 C36.9835163,4.29133768 37.2652484,4.45854709 37.5753859,4.49281563 C37.8869475,4.52655812 38.1979845,4.42683367 38.4305502,4.21678858 C40.9682371,1.91809118 45.8192145,2.63795591 47.2407658,5.56265531 C47.4698839,6.03527555 48.0023192,6.27786072 48.5081477,6.14176353 C51.4343685,5.35441383 54.9723202,7.30110721 55.6882299,10.1069188 C55.8231375,10.6346994 56.32312,10.985501 56.8620009,10.9262826 C57.7589866,10.8321192 58.7156313,10.9957966 59.6325533,11.3989028 C60.1849249,11.6426904 60.8306077,11.3904108 61.073966,10.8362525 C61.3165748,10.2806663 61.065197,9.63377255 60.5123007,9.38975952 C59.5406662,8.96200401 58.5228633,8.73144289 57.5249968,8.70829659 C56.1876128,5.43948397 52.3450697,3.32851202 48.7715174,3.85125752 C46.5181108,0.553737475 41.3491262,-0.354754509 37.8478243,1.91102705 C35.0461683,-0.746362725 29.9875081,-0.535791583 27.0033521,2.28211924 C23.7755379,0.693066132 19.3835461,1.85706914 17.1036077,4.8480511 C13.4261015,4.34116232 9.48297731,7.32515531 8.62489004,11.4032615 C4.85871961,12.2161623 2.30964055,16.7789128 3.2785769,20.9940932 C-0.445997023,22.9782866 -1.08613357,28.846999 2.01441776,32.547024 C1.17596704,37.8883317 5.71245986,42.9275351 10.2518007,41.575506 C11.4664937,43.0923397 14.0548459,44.1302405 16.3137237,43.7615531 C20.1845974,51.8365281 26.45158,53.9480261 35.0332771,52.2877305 C35.7811149,54.9028858 34.648311,53.106017 39.1434321,55.7000551 C46.3656354,59.8679659 49.8065286,63.1541383 50.3000656,66.3556914 C50.6200964,68.4264579 52.3634773,69.9296142 54.4462258,69.9296142 C57.1255656,69.9296142 59.1143284,67.4481513 58.545618,64.8288627 L58.733544,56.8730261 C61.649197,56.2203457 63.6383346,53.8987275 64.0420831,51.7579208 C64.2529886,49.8637575 64.9899588,48.9614279 64.1318716,46.7571944 C68.5709311,46.3842986 71.7306169,41.4228758 70.7145379,36.9997545 C73.6816806,33.82751 73.7259003,28.335977 70.6118582,25.686478 Z" id="Stroke-19" stroke="#54BBBF"></path>
                </g>
            </g>
        </g>
    </g>
</svg>