<?xml version="1.0" encoding="UTF-8"?>
<svg width="128px" height="95px" viewBox="0 0 128 95" version="1.1" xmlns="http://www.w3.org/2000/svg" xmlns:xlink="http://www.w3.org/1999/xlink">
    <!-- Generator: Sketch 56.2 (81672) - https://sketch.com -->
    <title>Group 4</title>
    <desc>Created with Sketch.</desc>
    <g id="Homepage-(not-for-development)" stroke="none" stroke-width="1" fill="none" fill-rule="evenodd">
        <g id="Home-Tablet" transform="translate(-569.000000, -1212.000000)">
            <g id="Group-4" transform="translate(569.000000, 1212.000000)">
                <path d="M42.893617,0 L51.7446809,0 C68.4745532,1.61703571 75.9366809,13.5911071 82.0486809,27.018 C82.9508085,29.0014643 82.6403404,31.2353214 82.683234,33.3748571 C82.8439149,41.38675 86.3421277,44.0881429 94.0194043,41.6154286 C98.9930213,40.0133214 103.867234,39.1990357 109.00766,40.4062143 C110.349617,40.72175 111.618723,41.1180357 112.757106,41.8983929 C117.463149,45.1243214 121.461106,49.0525714 124.827234,53.6621071 C126.90383,56.506 127.409702,59.8045357 128,63.1071429 L128,71.25 C127.020255,80.2614286 122.790809,87.2201786 115.048851,92.1106429 C112.296851,93.8498214 109.281362,94.4164286 106.212766,95 L98.0425532,95 C91.8590638,94.411 86.9950638,91.3255357 82.811234,86.9745357 C79.4532766,83.4832857 75.2068085,81.6816786 70.5756596,80.7466071 C63.3831489,79.2937857 56.3608511,80.1596429 49.5257872,82.7002143 C47.0808511,83.6095 44.5514894,84.3918929 42.2774468,85.6357143 C30.1412766,92.2755357 12.3390638,87.1923571 4.3812766,72.7299643 C1.75659574,67.9589286 0.385361702,63.0067143 0,57.6785714 L0,48.1785714 C1.78791489,30.33825 12.5773617,17.7134286 25.0389787,6.31953571 C29.2725106,2.44896429 34.9719149,0.550321429 40.9579574,0.342 C41.6149787,0.318928571 42.3230638,0.52725 42.893617,0" id="Fill-1" fill="#FEF2E6" transform="translate(64.000000, 47.500000) scale(-1, 1) translate(-64.000000, -47.500000) "></path>
                <g id="care-(1)" transform="translate(15.000000, 17.000000)" fill="#F68B1F" fill-rule="nonzero" stroke="#F68B1F" stroke-width="0.6">
                    <path d="M74.3435838,2.58358255 C72.0309987,0.893528104 69.3465983,0 66.580309,0 C62.2427251,0 58.4432692,2.66237252 56.3870747,6.62161644 C54.3308802,2.66237252 50.5316192,0 46.1938404,0 C41.3643374,0 36.8867624,2.73176904 34.2160102,7.3075301 C33.7689351,8.07357565 34.038194,9.050878 34.8173096,9.49064489 C35.5970102,9.93022008 36.591182,9.66586151 37.0380621,8.89943256 C39.121358,5.32972932 42.5443194,3.19875776 46.1940354,3.19875776 C50.9174725,3.19875776 54.7604076,7.77528564 54.7604076,13.4004294 C54.7604076,14.2837973 55.488635,15 56.3872696,15 C57.2859042,15 58.0141317,14.2837973 58.0141317,13.4004294 C58.0141317,7.77509393 61.8570668,3.19875776 66.5805039,3.19875776 C68.6423527,3.19875776 70.655458,3.87374434 72.4026189,5.15048693 C73.1236323,5.67747872 74.1427607,5.53005904 74.6787439,4.82094931 C75.2147271,4.1126064 75.0645972,3.11057434 74.3435838,2.58358255 Z" id="Path"></path>
                    <path d="M77.8751965,52.9021468 C77.5320432,52.091513 76.5871142,51.7087826 75.7642426,52.0467214 L61.6568498,57.84524 C58.8164534,59.0145882 55.6414147,59.1350492 52.7149397,58.184513 L19.6255975,47.4411857 C17.5423048,46.7637833 15.2878223,46.8693773 13.2799691,47.7377637 L11.9669338,48.3040446 C11.1502521,48.6564692 10.7784704,49.5940444 11.1359379,50.3985789 C11.4934054,51.2033039 12.4451046,51.5698331 13.2615928,51.2175991 L14.5759822,50.6507464 C15.8540059,50.097617 17.2883249,50.0303342 18.6147072,50.4616684 L51.7048233,61.2051863 C53.3379932,61.7356339 55.0330623,62 56.7254233,62 C58.8294135,62 60.9293416,61.5919194 62.9004421,60.7805232 L77.0070611,54.9821952 C77.8295459,54.6438752 78.2183498,53.7127805 77.8751965,52.9021468 Z" id="Path"></path>
                    <path d="M98.3940647,37.7983314 C98.3923245,37.7947404 98.3845901,37.7765961 98.3828498,37.7731941 L98.3706682,37.7454107 C96.9187311,34.4543083 93.2609479,32.6763608 89.7561121,33.415739 C90.2002591,32.0112607 90.1283293,30.513982 89.5387759,29.1420121 C88.8730389,27.5923797 87.6289634,26.3910792 86.0358738,25.7596215 C86.0321999,25.7581095 85.993528,25.7431783 85.9900475,25.7416662 C82.872511,24.5307265 79.2918783,25.8974044 77.8378142,28.8522711 L72.7557444,39.1678443 L64.5170793,41.9854952 C62.9794839,42.5101664 61.2873942,42.5101664 59.7534727,41.9856842 L59.5177673,41.9051691 C69.8922823,36.2545582 81.0669192,26.6401846 81.0669192,16.4461401 C81.0669192,12.8925131 80.0686037,9.5263767 78.1798673,6.71212791 C77.691441,5.98390087 76.6906118,5.78091207 75.9459841,6.25852165 C75.2007763,6.73632024 74.9931081,7.71365271 75.4817277,8.44206875 C77.0247372,10.7410964 77.8401346,13.5088506 77.8401346,16.4461401 C77.8401346,25.0958443 67.3451565,34.3186045 56.7059323,39.8087522 C53.852525,38.3371779 51.0176801,36.5898488 48.4618532,34.7247711 C46.2813372,33.1390392 44.308296,31.4680672 42.6092454,29.7783839 L59.0461633,35.2725006 C62.299825,36.3628567 65.9251238,34.8030181 67.2999104,31.7232207 C68.0346768,30.0832451 68.0387374,28.1958651 67.3107385,26.5451163 C66.5937612,24.9195049 65.2690547,23.6775688 63.583926,23.0491351 L34.4129261,12.1117433 C34.2029376,12.0302832 33.9734198,11.9480671 33.6916948,11.8539438 C27.9684446,9.93197629 21.4435255,10.8089484 16.2384789,14.1994661 L0.719052216,24.3050574 C-0.0224817784,24.7877701 -0.223189024,25.7669926 0.270844707,26.4918176 C0.764878437,27.2166426 1.76648107,27.4128273 2.50801506,26.9297366 L18.0274418,16.8241453 C22.4010422,13.97512 27.8649972,13.2325288 32.6452328,14.8373499 C32.8782311,14.915408 33.061536,14.9806139 33.2392334,15.0494108 L62.4307294,25.9945517 C63.2975604,26.3179352 63.9783795,26.956953 64.347503,27.7934785 C64.7284213,28.6568424 64.7272612,29.6028005 64.343249,30.4595493 C63.6349729,32.0466042 61.7673127,32.8498652 60.0912719,32.2881495 L41.5730314,26.0985032 C40.0934439,25.6033163 38.4873992,25.6645532 37.0503508,26.2701175 C35.264675,27.0229149 33.9560174,28.5062073 33.4602434,30.3399106 C32.6262835,33.4195191 34.3852757,36.6582677 37.4656872,37.7130913 L58.6884481,44.9622862 C60.9082161,45.7209427 63.3555683,45.7211317 65.5809437,44.9622862 L89.9129267,36.6401235 C92.0843548,35.8967762 94.4974824,36.9306205 95.4143935,39.0087041 L95.4219346,39.0260924 C95.8807769,40.086586 95.8881245,41.2580241 95.442624,42.3243768 C94.9963501,43.3922416 94.1502086,44.225365 93.0608207,44.6697102 L80.0678303,49.9672642 C79.2456653,50.3025548 78.8570126,51.2258325 79.2000325,52.0296606 C79.4583609,52.635036 80.057969,53 80.6896747,53 C80.8965695,53 81.1069447,52.9606875 81.3101656,52.8780933 L94.303156,47.5805393 C96.1909256,46.8105427 97.6563979,45.3676968 98.4298362,43.5171723 C99.2021144,41.6687268 99.189546,39.6375158 98.3940647,37.7983314 Z M38.5310984,34.7368672 C37.0306281,34.2229692 36.1732717,32.6463094 36.5793268,31.1471408 C36.7792606,30.4085186 37.2535717,29.789913 37.9040333,29.3897945 C40.1725279,32.0942328 43.0694412,34.7347882 46.5336714,37.2538149 C46.7252908,37.3936769 46.9221308,37.5308928 47.1166506,37.6694317 L38.5310984,34.7368672 Z M86.5728333,32.760467 L85.7464145,34.7247711 L77.0624423,37.694758 L80.7451689,30.220272 C81.4683337,28.7505877 83.2487888,28.0703673 84.7981791,28.6725296 C84.800306,28.6730966 84.8208022,28.6814128 84.8229291,28.6819798 C85.6147366,28.9959131 86.2329072,29.5929723 86.5639388,30.3633469 C86.8953571,31.1346666 86.8986442,31.9861233 86.5728333,32.760467 Z" id="Shape"></path>
                </g>
            </g>
        </g>
    </g>
</svg>