<svg xmlns="http://www.w3.org/2000/svg" width="128" height="95" viewBox="0 0 128 95"><g><g><path fill="#e5fcfa" d="M76.255 0c-16.73 1.617-24.192 13.591-30.304 27.018-.902 1.983-.591 4.217-.634 6.357-.16 8.012-3.66 10.713-11.336 8.24-4.974-1.602-9.848-2.416-14.989-1.209-1.342.316-2.61.712-3.75 1.492-4.705 3.226-8.703 7.155-12.07 11.764C1.097 56.506.59 59.805 0 63.107v8.143c.98 9.011 5.21 15.97 12.951 20.86 2.752 1.74 5.768 2.306 8.836 2.89h8.17c6.184-.589 11.048-3.674 15.232-8.025 3.358-3.492 7.604-5.293 12.235-6.228 7.193-1.453 14.215-.587 21.05 1.953 2.445.91 4.975 1.692 7.249 2.936 12.136 6.64 29.938 1.556 37.896-12.906 2.624-4.771 3.996-9.723 4.381-15.051v-9.5c-1.788-17.84-12.577-30.466-25.039-41.86C98.727 2.45 93.028.55 87.042.343 86.385.319 85.677.527 85.106 0z"/></g><g><g><path fill="#54bbbf" d="M89.617 13.536c2.4 0 4.35 1.965 4.35 4.379v62.684c0 2.415-1.95 4.38-4.35 4.38H39.371c-2.4 0-4.351-1.965-4.351-4.38V67.168c0-.606.488-1.098 1.09-1.098.603 0 1.092.492 1.092 1.098v13.43a2.18 2.18 0 0 0 2.169 2.184h50.246c1.196 0 2.17-.98 2.17-2.183V17.915a2.178 2.178 0 0 0-2.17-2.183H87.04v61.727c0 .607-.488 1.098-1.091 1.098H43.04c-.602 0-1.09-.491-1.09-1.098V15.732h-2.58c-1.195 0-2.168.98-2.168 2.183v44.078c0 .606-.49 1.098-1.091 1.098-.603 0-1.091-.492-1.091-1.098V17.915c0-2.414 1.952-4.379 4.35-4.379h9.302v-.048c0-1.913 1.545-3.468 3.445-3.468H76.87c1.9 0 3.446 1.555 3.446 3.468v4.738c0 1.912-1.546 3.467-3.446 3.467h-5.157c-.516 2.866-3.013 5.045-6.005 5.045h-2.43c-2.992 0-5.49-2.18-6.005-5.045h-5.157c-1.9 0-3.445-1.555-3.445-3.467v-2.494h-4.54v60.63h40.725v-60.63h-.674c-.602 0-1.09-.492-1.09-1.098 0-.606.488-1.098 1.09-1.098zm-38.763 4.685c0 .7.566 1.27 1.263 1.27h6.15c.603 0 1.09.492 1.09 1.098 0 2.174 1.76 3.943 3.922 3.943h2.43c2.162 0 3.921-1.769 3.921-3.943 0-.606.489-1.097 1.091-1.097h6.15c.697 0 1.264-.57 1.264-1.27v-4.735c0-.701-.567-1.27-1.264-1.27H52.117c-.697 0-1.263.569-1.263 1.27z"/></g><g><path fill="none" stroke="#54bbbf" stroke-miterlimit="50" stroke-width=".6" d="M93.968 17.915v62.684c0 2.415-1.951 4.38-4.35 4.38H39.37c-2.4 0-4.351-1.965-4.351-4.38V67.168c0-.606.488-1.098 1.09-1.098.603 0 1.092.492 1.092 1.098v13.43a2.18 2.18 0 0 0 2.169 2.184h50.246c1.196 0 2.17-.98 2.17-2.183V17.915a2.178 2.178 0 0 0-2.17-2.183H87.04v61.727c0 .607-.488 1.098-1.091 1.098H43.04c-.602 0-1.09-.491-1.09-1.098V15.732h-2.58c-1.195 0-2.168.98-2.168 2.183v44.078c0 .606-.49 1.098-1.091 1.098-.603 0-1.091-.492-1.091-1.098V17.915c0-2.414 1.952-4.379 4.35-4.379h9.302v-.048c0-1.913 1.545-3.468 3.445-3.468H76.87c1.9 0 3.446 1.555 3.446 3.468v4.738c0 1.912-1.546 3.467-3.446 3.467h-5.157c-.516 2.866-3.013 5.045-6.005 5.045h-2.43c-2.992 0-5.49-2.18-6.005-5.045h-5.157c-1.9 0-3.445-1.555-3.445-3.467v-2.494h-4.54v60.63h40.725v-60.63h-.674c-.602 0-1.09-.492-1.09-1.098 0-.606.488-1.098 1.09-1.098h5.434c2.4 0 4.35 1.965 4.35 4.379zm-43.114.306c0 .7.566 1.27 1.263 1.27h6.15c.603 0 1.09.492 1.09 1.098 0 2.174 1.76 3.943 3.922 3.943h2.43c2.162 0 3.921-1.769 3.921-3.943 0-.606.489-1.097 1.091-1.097h6.15c.697 0 1.264-.57 1.264-1.27v-4.735c0-.701-.567-1.27-1.264-1.27H52.117c-.697 0-1.263.569-1.263 1.27z"/></g><g><path fill="#54bbbf" d="M78.393 40.07h-5.768l-3.687-10.132c-.366-1.007-1.818-.94-2.081.107l-3.96 15.694-3.823-11.195c-.306-.894-1.523-1.005-1.983-.18l-3.18 5.707H50.6c-.603 0-1.091.492-1.091 1.098 0 .606.488 1.098 1.09 1.098h3.95c.394 0 .758-.214.951-.56l2.3-4.13 4.221 12.355c.351 1.03 1.823.969 2.09-.086l3.991-15.818 2.735 7.518c.157.433.566.72 1.025.72h6.53c.602 0 1.09-.49 1.09-1.097 0-.606-.488-1.098-1.09-1.098"/></g><g><path fill="none" stroke="#54bbbf" stroke-miterlimit="50" stroke-width=".6" d="M78.393 40.07h-5.768v0l-3.687-10.132c-.366-1.007-1.818-.94-2.081.107l-3.96 15.694v0l-3.823-11.195c-.306-.894-1.523-1.005-1.983-.18l-3.18 5.707v0H50.6c-.603 0-1.091.492-1.091 1.098 0 .606.488 1.098 1.09 1.098h3.95c.394 0 .758-.214.951-.56l2.3-4.13v0l4.221 12.355c.351 1.03 1.823.969 2.09-.086l3.991-15.818v0l2.735 7.518c.157.433.566.72 1.025.72h6.53c.602 0 1.09-.49 1.09-1.097 0-.606-.488-1.098-1.09-1.098z"/></g><g><path fill="#54bbbf" d="M78.393 58.17H50.6c-.603 0-1.091.491-1.091 1.098 0 .606.488 1.098 1.09 1.098h27.793c.602 0 1.09-.492 1.09-1.098 0-.607-.488-1.098-1.09-1.098"/></g><g><path fill="none" stroke="#54bbbf" stroke-miterlimit="50" stroke-width=".6" d="M78.393 58.17H50.6c-.603 0-1.091.491-1.091 1.098 0 .606.488 1.098 1.09 1.098h27.793c.602 0 1.09-.492 1.09-1.098 0-.607-.488-1.098-1.09-1.098z"/></g><g><path fill="#54bbbf" d="M78.393 67.85H50.6c-.603 0-1.091.492-1.091 1.098 0 .606.488 1.098 1.09 1.098h27.793c.602 0 1.09-.492 1.09-1.098 0-.606-.488-1.098-1.09-1.098"/></g><g><path fill="none" stroke="#54bbbf" stroke-miterlimit="50" stroke-width=".6" d="M78.393 67.85H50.6c-.603 0-1.091.492-1.091 1.098 0 .606.488 1.098 1.09 1.098h27.793c.602 0 1.09-.492 1.09-1.098 0-.606-.488-1.098-1.09-1.098z"/></g></g></g></svg>