<svg width="24" height="24" viewBox="0 0 24 24" fill="none" xmlns="http://www.w3.org/2000/svg">
<path d="M19.7073 23.5891C14.5743 24.137 9.42572 24.137 4.29272 23.5891C2.24597 23.3707 0.629333 21.754 0.410889 19.7071C-0.136963 14.5741 -0.136963 9.42572 0.410889 4.29272C0.629333 2.24597 2.24597 0.629333 4.29272 0.410889C9.42572 -0.136963 14.5741 -0.136963 19.7071 0.410889C21.754 0.629333 23.3707 2.24597 23.5891 4.29272C24.137 9.42572 24.137 14.5741 23.5891 19.7071C23.3707 21.754 21.7542 23.3707 19.7073 23.5891Z" fill="#0077B5"/>
<path d="M9.6835 8.75H7V17H9.6835V8.75Z" fill="white"/>
<path d="M16.993 8.84675C16.9645 8.83775 16.9375 8.828 16.9075 8.81975C16.8715 8.8115 16.8355 8.80475 16.7987 8.79875C16.6562 8.77025 16.5002 8.75 16.3173 8.75C14.7528 8.75 13.7605 9.88775 13.4335 10.3273V8.75H10.75V17H13.4335V12.5C13.4335 12.5 15.4615 9.6755 16.3173 11.75C16.3173 13.6018 16.3173 17 16.3173 17H19V11.4327C19 10.1862 18.1458 9.1475 16.993 8.84675Z" fill="white"/>
<path d="M8.3125 7.625C9.03737 7.625 9.625 7.03737 9.625 6.3125C9.625 5.58763 9.03737 5 8.3125 5C7.58763 5 7 5.58763 7 6.3125C7 7.03737 7.58763 7.625 8.3125 7.625Z" fill="white"/>
</svg>
