<svg width="166" height="50" viewBox="0 0 166 50" fill="none" xmlns="http://www.w3.org/2000/svg">
<path d="M12.4378 12.0356H6.5621L0 1.93213H5.43639L9.52741 8.61258L13.4811 1.93213H18.7802L12.4378 12.0356Z" fill="#F0F0F0"/>
<path d="M19.9884 12.0356C19.7138 12.008 19.6315 11.3455 19.6315 9.91002C19.6315 7.37035 19.6315 1.93213 19.6315 1.93213H24.7658C24.7658 1.93213 24.7658 8.28132 24.7658 9.85481C24.7658 11.4835 24.7933 11.8148 25.1777 12.0356H19.9884Z" fill="#F0F0F0"/>
<path d="M37.6429 6.12818C36.7643 5.87973 35.9681 5.74171 34.8698 5.74171C33.1126 5.74171 31.5201 6.62507 31.5201 8.72307V12.0357H26.3583V1.93219H31.3554V3.83695C31.7123 2.92598 33.14 2.15304 34.8149 1.90459C35.8857 1.73896 36.8192 1.71135 37.6429 1.76656V6.12818Z" fill="#F0F0F0"/>
<path d="M43.9853 5.41035C43.9853 5.41035 43.9853 7.53595 43.9853 7.72918C43.9853 8.55734 44.4795 8.861 45.8249 8.861C46.4564 8.861 47.8018 8.77818 48.2685 8.66776V11.7595C47.5272 12.0632 45.4954 12.284 43.6558 12.284C41.1573 12.284 38.851 11.5387 38.851 8.58495C38.851 8.28129 38.851 5.54838 38.851 5.54838V2.01492V0.0273438H43.9304C43.9304 0.0273438 43.9304 0.855499 43.9304 1.9321H48.3235V5.41035H43.9853Z" fill="#F0F0F0"/>
<path d="M65.8956 12.0356H61.0084L60.8711 10.2413C59.7454 11.87 57.6312 12.3117 55.1601 12.3117C52.1399 12.3117 49.6139 11.6215 49.6139 7.95006C49.6139 2.12536 49.5316 2.15297 49.3668 1.93213C49.3668 1.93213 54.7208 1.93213 54.5561 1.93213C54.7208 1.93213 54.7757 3.45041 54.7757 6.51459C54.7757 8.25371 56.2035 8.66779 57.5214 8.66779C59.4159 8.66779 60.7064 7.78442 60.7064 6.48698V1.93213H65.8407C65.8407 1.93213 65.8407 7.28753 65.8407 10.3517C65.8407 11.2351 65.8956 12.008 65.8956 12.0356Z" fill="#F0F0F0"/>
<path d="M79.4042 12.0359C79.4042 12.0359 79.3218 11.5114 79.2669 11.2077C78.4981 11.7322 76.1918 12.2567 72.8421 12.2567C69.108 12.2567 66.939 11.2905 66.939 9.41337C66.939 9.33056 66.939 9.27534 66.939 9.13732C66.939 7.09454 69.2728 5.87991 74.7366 5.87991C75.9721 5.87991 77.9216 5.99033 79.1296 6.12836C79.0473 5.43823 78.6354 4.72049 75.8074 4.72049C73.6109 4.72049 72.7872 5.07936 72.6224 5.57625C71.4967 5.57625 67.6528 5.57625 67.6528 5.57625C67.7077 5.21739 67.845 4.85852 68.0647 4.44444C68.9707 2.42926 71.7988 1.5459 75.9721 1.5459C80.475 1.5459 82.9735 2.6501 83.7423 4.69289C83.962 5.24499 84.1542 6.15596 84.0993 7.03933C84.0718 7.50861 84.0718 8.64043 84.0718 9.579C84.0718 10.628 84.1542 11.5942 84.3738 12.0359H79.4042V12.0359ZM75.8074 8.03311C73.0618 8.03311 72.293 8.25395 72.293 8.88887C72.293 9.35816 72.7872 9.63421 75.6701 9.63421C77.2077 9.63421 78.91 9.19253 79.2395 8.39198C78.4707 8.17114 76.7684 8.03311 75.8074 8.03311Z" fill="#F0F0F0"/>
<path d="M91.1006 12.0359H85.9114C85.7192 12.0082 85.5819 11.4561 85.5819 10.5176C85.5819 9.71702 85.5819 3.83712 85.5819 1.65631C85.5819 0.690129 85.527 0.193236 85.472 0H90.579C90.6613 0.386472 90.6888 0.966181 90.6888 1.6011C90.6888 3.78191 90.6888 7.81226 90.6888 10.8212C90.6888 11.3457 90.7711 11.953 91.1006 12.0359Z" fill="#F0F0F0"/>
<path d="M157.051 29.6755C151.175 29.6755 149.006 28.7369 148.21 26.5009C148.128 26.1972 148.073 26.0868 148.073 25.8384H153.317C153.345 26.0316 153.372 26.142 153.537 26.3077C153.894 26.6665 154.745 26.8046 156.996 26.8046C159.907 26.8046 160.126 26.6389 160.126 26.2248C160.126 25.866 159.742 25.7832 157.408 25.6451C156.804 25.6175 155.816 25.5347 155.019 25.4795C150.819 25.1758 148.32 24.4857 148.32 22.3049C148.32 20.0689 151.011 18.8267 156.035 18.8267C160.977 18.8267 163.476 19.5996 164.327 21.7252C164.464 22.0565 164.492 22.3049 164.519 22.5534H159.44C159.412 22.4153 159.358 22.3049 159.193 22.1669C158.836 21.8908 157.985 21.7528 156.31 21.7528C153.701 21.7528 153.399 21.8908 153.399 22.3049C153.399 22.719 153.756 22.719 156.255 22.857C157.188 22.9122 158.534 22.995 159.714 23.0779C163.421 23.2711 165.123 24.1269 165.123 26.1972C165.123 28.5713 162.79 29.6755 157.051 29.6755Z" fill="#F0F0F0"/>
<path d="M17.6544 26.9147C16.6935 28.2397 14.0302 29.62 9.22528 29.62C5.57357 29.62 2.69063 28.9299 1.18053 27.2735C0.384287 26.3902 0.0548096 25.4516 0.0548096 24.2922C0.0548096 23.2156 0.466657 22.2218 1.18053 21.4765C2.74555 19.7373 5.79322 18.9092 9.2802 18.9092C14.2498 18.9092 17.5446 20.7035 18.1487 23.7953C18.231 24.0437 18.2859 25.1479 18.2859 25.3964H5.13427C5.21663 25.7001 5.4912 25.9485 5.87559 26.2246C6.562 26.6662 7.77009 26.9423 9.33511 26.9423C10.4883 26.9423 11.614 26.749 12.1631 26.473C12.3828 26.3902 12.6299 26.2245 12.7946 26.0589H18.1761C18.0388 26.3626 17.9015 26.611 17.6544 26.9147ZM12.5475 22.415C11.9709 22.0286 10.7629 21.6973 9.17037 21.6973C7.52298 21.6973 6.17761 22.0562 5.62848 22.5255C5.35392 22.7463 5.18918 22.9947 5.16172 23.2432H13.0967C13.0967 22.9947 12.9045 22.6635 12.5475 22.415Z" fill="#F0F0F0"/>
<path d="M25.0677 29.427H19.8784C19.6862 29.3994 19.5489 28.8473 19.5489 27.9087C19.5489 27.1081 19.5489 21.2282 19.5489 19.0474C19.5489 18.0812 19.494 17.5843 19.4391 17.3911H24.546C24.6284 17.7776 24.6558 18.3573 24.6558 18.9922C24.6558 21.173 24.6558 25.2034 24.6558 28.2123C24.6833 28.7368 24.7656 29.3442 25.0677 29.427Z" fill="#F0F0F0"/>
<path d="M43.5734 26.9147C42.6124 28.2397 39.9491 29.62 35.1442 29.62C31.4925 29.62 28.6096 28.9299 27.0995 27.2735C26.3032 26.3902 25.9738 25.4516 25.9738 24.2922C25.9738 23.2156 26.3856 22.2218 27.0995 21.4765C28.6645 19.7373 31.7122 18.9092 35.1991 18.9092C40.1688 18.9092 43.4636 20.7035 44.0676 23.7953C44.15 24.0437 44.2049 25.1479 44.2049 25.3964H31.0532C31.1356 25.7001 31.4101 25.9485 31.7945 26.2246C32.481 26.6662 33.689 26.9423 35.2541 26.9423C36.4072 26.9423 37.5329 26.749 38.0821 26.473C38.3017 26.3902 38.5488 26.2245 38.7136 26.0589H44.0951C43.9578 26.3626 43.8205 26.611 43.5734 26.9147ZM38.4665 22.415C37.8899 22.0286 36.6818 21.6973 35.0893 21.6973C33.4419 21.6973 32.0966 22.0562 31.5474 22.5255C31.2729 22.7463 31.1081 22.9947 31.0807 23.2432H39.0156C39.0156 22.9947 38.8234 22.6635 38.4665 22.415Z" fill="#F0F0F0"/>
<path d="M57.8234 23.8229C57.7959 23.6848 57.741 23.4916 57.5763 23.2708C57.0546 22.5806 55.819 22.1942 54.1167 22.1942C52.3321 22.1942 51.0416 22.5806 50.3826 23.326C50.1904 23.5468 50.0257 23.9333 50.0257 24.3474C50.0257 24.7338 50.163 25.1203 50.3826 25.3964C50.9867 26.1141 52.3321 26.473 54.0618 26.473C55.7641 26.473 56.7251 26.2797 57.2742 25.838C57.4664 25.6724 57.6861 25.424 57.7685 25.2031H62.7381C62.6832 25.8656 62.4086 26.5558 61.8869 27.1631C60.6788 28.5986 58.2352 29.6752 54.2266 29.6752C50.0806 29.6752 47.2251 28.7642 45.8523 27.1631C45.2208 26.4454 44.8639 25.4792 44.8639 24.375C44.8639 23.2984 45.2483 22.3598 45.8798 21.5868C47.3075 19.9305 50.163 18.9644 54.0893 18.9644C58.3176 18.9644 60.7887 19.9857 61.9418 21.7801C62.2988 22.3598 62.6008 23.1051 62.7106 23.8505H57.8234V23.8229Z" fill="#F0F0F0"/>
<path d="M68.8883 22.8015C68.8883 22.8015 68.8883 24.9271 68.8883 25.1203C68.8883 25.9485 69.3825 26.2521 70.7279 26.2521C71.3594 26.2521 72.7047 26.1693 73.1715 26.0589V29.1507C72.4302 29.4543 70.3984 29.6752 68.5588 29.6752C66.0603 29.6752 63.7539 28.9298 63.7539 25.9761C63.7539 25.6724 63.7539 22.9395 63.7539 22.9395V19.406V17.4185H68.8334C68.8334 17.4185 68.8334 18.2466 68.8334 19.3232H73.2264V22.8015H68.8883V22.8015Z" fill="#F0F0F0"/>
<path d="M86.1309 23.5198C85.2523 23.2713 84.4561 23.1333 83.3578 23.1333C81.6006 23.1333 80.0081 24.0167 80.0081 26.1147V29.4273H74.8463V19.3238H79.8434V21.2286C80.2003 20.3176 81.6281 19.5446 83.3029 19.2962C84.3737 19.1306 85.3072 19.103 86.1309 19.1582V23.5198Z" fill="#F0F0F0"/>
<path d="M104.335 26.7217C102.989 28.6264 99.969 29.6202 95.7956 29.6202C91.3476 29.6202 88.4921 28.516 87.2291 26.6941C86.7349 26.0039 86.4878 25.1758 86.4878 24.2924C86.4878 23.4367 86.7349 22.6361 87.2291 21.946C88.4921 20.0964 91.3751 18.937 95.7681 18.937C100.051 18.937 102.962 20.0964 104.252 21.8632C104.774 22.5809 105.048 23.3814 105.048 24.32C105.048 25.2586 104.829 26.0591 104.335 26.7217ZM99.6669 23.4919C99.0903 22.7189 97.745 22.2496 95.823 22.2496C93.8461 22.2496 92.5831 22.7189 91.9242 23.4643C91.732 23.7127 91.6496 24.0164 91.6496 24.32C91.6496 24.6237 91.7045 24.8997 91.8967 25.1482C92.4459 25.9487 93.9011 26.3904 95.823 26.3904C97.7999 26.3904 99.1453 25.9763 99.6944 25.1758C99.8591 24.9273 99.9415 24.6237 99.9415 24.32C99.969 24.0164 99.8866 23.7679 99.6669 23.4919Z" fill="#F0F0F0"/>
<path d="M117.322 29.4269C117.212 29.4269 117.074 29.0681 117.074 25.0101C117.074 23.6575 116.196 22.8293 114.219 22.8293C112.407 22.8293 111.144 23.9611 111.144 25.0377V29.4269H106.037V19.3235H110.979V21.3938C111.913 19.5995 114.219 18.9922 116.635 18.9922C120.699 18.9922 122.236 21.3386 122.236 24.2096C122.236 29.2337 122.319 29.0957 122.429 29.4269H117.322Z" fill="#F0F0F0"/>
<path d="M124.103 29.4267C123.829 29.3991 123.746 28.7366 123.746 27.3011C123.746 24.7615 123.746 19.3232 123.746 19.3232H128.881C128.881 19.3232 128.881 25.6724 128.881 27.2459C128.881 28.8746 128.908 29.2059 129.293 29.4267H124.103V29.4267Z" fill="#F0F0F0"/>
<path d="M142.829 23.8229C142.801 23.6848 142.746 23.4916 142.581 23.2708C142.06 22.5806 140.824 22.1942 139.122 22.1942C137.337 22.1942 136.047 22.5806 135.388 23.326C135.196 23.5468 135.031 23.9333 135.031 24.3474C135.031 24.7338 135.168 25.1203 135.388 25.3964C135.992 26.1141 137.337 26.473 139.067 26.473C140.769 26.473 141.73 26.2797 142.279 25.838C142.472 25.6724 142.691 25.424 142.774 25.2031H147.743C147.688 25.8656 147.414 26.5558 146.892 27.1631C145.684 28.5986 143.24 29.6752 139.232 29.6752C135.086 29.6752 132.23 28.7642 130.858 27.1631C130.226 26.4454 129.869 25.4792 129.869 24.375C129.869 23.2984 130.254 22.3598 130.885 21.5868C132.313 19.9305 135.168 18.9644 139.095 18.9644C143.323 18.9644 145.794 19.9857 146.947 21.7801C147.304 22.3598 147.606 23.1051 147.716 23.8505H142.829V23.8229Z" fill="#F0F0F0"/>
<path d="M12.6026 46.1834C12.6026 46.1834 12.5202 45.6589 12.4653 45.3552C11.6965 45.8797 9.33523 46.4042 5.98553 46.4042C2.22399 46.4042 0.0274658 45.4104 0.0274658 43.5333C0.0274658 43.4505 0.0274658 43.3953 0.0274658 43.2572C0.0274658 41.1869 2.38873 39.9446 7.90749 39.9446C9.17049 39.9446 11.1474 40.055 12.328 40.1931C12.2456 39.4753 11.8338 38.7576 8.97829 38.7576C6.75431 38.7576 5.93062 39.1165 5.76588 39.641C4.6127 39.641 0.741335 39.641 0.741335 39.641C0.796248 39.2821 0.933531 38.9232 1.15318 38.5092C2.05925 36.4664 4.94218 35.583 9.14303 35.583C13.7008 35.583 16.2268 36.6872 16.9956 38.7576C17.2152 39.3097 17.4074 40.2207 17.3525 41.1316C17.3251 41.6009 17.3251 42.7604 17.3251 43.6989C17.3251 44.7479 17.4074 45.7417 17.6271 46.1834H12.6026V46.1834ZM8.92338 42.153C6.15027 42.153 5.38148 42.3739 5.38148 43.0088C5.38148 43.4781 5.8757 43.7817 8.7861 43.7817C10.3511 43.7817 12.0534 43.3401 12.3829 42.5119C11.6416 42.2911 9.91181 42.153 8.92338 42.153Z" fill="#F0F0F0"/>
<path d="M35.968 43.7819C34.705 45.4658 32.2065 46.294 29.2137 46.294C27.6213 46.294 24.8482 45.9627 23.9696 45.0794V49.6618H18.8077V35.9973H23.8048V37.2395C24.656 36.3561 27.0447 35.666 29.5707 35.666C32.8105 35.666 34.9247 36.5494 36.023 38.1229C36.5721 38.9234 36.8466 39.9172 36.8466 41.049C36.8466 42.098 36.5172 43.0366 35.968 43.7819ZM31.2455 40C30.6415 39.2823 29.351 38.8958 27.6762 38.8958C26.0013 38.8958 24.7109 39.3099 24.1343 40.0276C23.8872 40.3313 23.7774 40.6625 23.7774 41.0214C23.7774 41.3527 23.8597 41.6563 24.0794 41.9324C24.656 42.6501 25.9739 43.0642 27.6762 43.0642C29.4609 43.0642 30.7513 42.6777 31.273 41.9048C31.4652 41.6287 31.575 41.2975 31.575 40.9662C31.6025 40.5797 31.4652 40.2761 31.2455 40Z" fill="#F0F0F0"/>
<path d="M54.8307 43.7819C53.5677 45.4658 51.0692 46.294 48.0764 46.294C46.4839 46.294 43.7108 45.9627 42.8322 45.0794V49.6618H37.6704V35.9973H42.6675V37.2395C43.5186 36.3561 45.9074 35.666 48.4334 35.666C51.6732 35.666 53.7874 36.5494 54.8856 38.1229C55.4348 38.9234 55.7093 39.9172 55.7093 41.049C55.7093 42.098 55.4073 43.0366 54.8307 43.7819ZM50.1082 40C49.5042 39.2823 48.2137 38.8958 46.5389 38.8958C44.864 38.8958 43.5736 39.3099 42.997 40.0276C42.7499 40.3313 42.64 40.6625 42.64 41.0214C42.64 41.3527 42.7224 41.6563 42.9421 41.9324C43.5186 42.6501 44.8366 43.0642 46.5389 43.0642C48.3235 43.0642 49.614 42.6777 50.1357 41.9048C50.3279 41.6287 50.4377 41.2975 50.4377 40.9662C50.4651 40.5797 50.3553 40.2761 50.1082 40Z" fill="#F0F0F0"/>
<path d="M65.6759 46.3768C59.8552 46.3768 57.741 45.4659 56.9448 43.2298C56.8624 42.9262 56.8075 42.8158 56.8075 42.5949H61.9968C62.0242 42.7882 62.0517 42.8986 62.2164 43.0642C62.5734 43.4231 63.4245 43.5611 65.621 43.5611C68.4765 43.5611 68.7236 43.3955 68.7236 42.9814C68.7236 42.6225 68.3392 42.5397 66.0329 42.4017C65.4563 42.3741 64.4679 42.2913 63.6442 42.236C59.4708 41.9324 56.9997 41.2423 56.9997 39.0891C56.9997 36.8806 59.6355 35.666 64.6326 35.666C69.5199 35.666 71.991 36.439 72.8421 38.537C72.9794 38.8682 73.0068 39.1167 73.0343 39.3375H68.0098C67.9823 39.1995 67.9274 39.0891 67.7626 38.951C67.4057 38.675 66.5546 38.537 64.9072 38.537C62.3263 38.537 62.0242 38.675 62.0242 39.0615C62.0242 39.4479 62.3812 39.4755 64.8523 39.6136C65.7858 39.6688 67.1311 39.7516 68.2569 39.8344C71.936 40.0276 73.6109 40.8834 73.6109 42.9262C73.6933 45.2726 71.3595 46.3768 65.6759 46.3768Z" fill="#F0F0F0"/>
</svg>
