<svg width="13" height="24" viewBox="0 0 13 24" fill="none" xmlns="http://www.w3.org/2000/svg">
    <path d="M0.643189 1.8875e-07C0.727747 -6.47653e-05 0.811559 0.0166353 0.889649 0.0490725C0.967738 0.0815097 1.03864 0.129069 1.09827 0.189026L12.3653 11.457C12.4251 11.5167 12.4725 11.5877 12.5049 11.6657C12.5373 11.7438 12.554 11.8275 12.554 11.912C12.554 11.9965 12.5373 12.0802 12.5049 12.1583C12.4725 12.2364 12.4251 12.3072 12.3653 12.367L1.09827 23.635C1.03855 23.6948 0.9676 23.7422 0.889527 23.7746C0.811454 23.807 0.727708 23.8236 0.643189 23.8236C0.55867 23.8236 0.475046 23.807 0.396973 23.7746C0.3189 23.7422 0.247953 23.6948 0.188233 23.635C0.0676893 23.5142 0 23.3506 0 23.18C0 23.0094 0.0676893 22.8457 0.188233 22.725L11.0003 11.913L0.188233 1.10101C0.0676893 0.980271 0 0.816672 0 0.646057C0 0.475442 0.0676893 0.311783 0.188233 0.19104C0.247727 0.130766 0.318517 0.0828295 0.396607 0.0500491C0.474696 0.0172686 0.558498 0.00025198 0.643189 1.8875e-07Z" fill="white"/>
</svg>
