<svg width="13" height="24" viewBox="0 0 13 24" fill="none" xmlns="http://www.w3.org/2000/svg">
<path d="M11.9108 23.8237C11.8262 23.8237 11.7424 23.807 11.6643 23.7746C11.5862 23.7422 11.5153 23.6946 11.4557 23.6346L0.188721 12.3666C0.128914 12.3069 0.0814445 12.236 0.0490723 12.1579C0.0167 12.0798 0 11.9961 0 11.9116C0 11.8271 0.0167 11.7434 0.0490723 11.6653C0.0814445 11.5873 0.128914 11.5164 0.188721 11.4567L11.4557 0.18866C11.5154 0.128853 11.5864 0.0813835 11.6644 0.0490112C11.7425 0.016639 11.8262 0 11.9108 0C11.9953 0 12.0789 0.016639 12.157 0.0490112C12.2351 0.0813835 12.306 0.128853 12.3657 0.18866C12.4863 0.309402 12.554 0.473001 12.554 0.643616C12.554 0.814231 12.4863 0.97789 12.3657 1.09863L1.55371 11.9106L12.3657 22.7227C12.4863 22.8434 12.554 23.007 12.554 23.1776C12.554 23.3482 12.4863 23.5119 12.3657 23.6326C12.3062 23.6929 12.2354 23.7408 12.1573 23.7736C12.0793 23.8064 11.9955 23.8234 11.9108 23.8237V23.8237Z" fill="white"/>
</svg>
