<svg width="34" height="25" viewBox="0 0 34 25" fill="none" xmlns="http://www.w3.org/2000/svg">
<path d="M22.4814 12.79C23.0796 12.79 23.5644 12.3051 23.5644 11.707C23.5644 11.1089 23.0796 10.624 22.4814 10.624C21.8833 10.624 21.3984 11.1089 21.3984 11.707C21.3984 12.3051 21.8833 12.79 22.4814 12.79Z" fill="#1A1818"/>
<path d="M25.5205 12.79C26.1186 12.79 26.6035 12.3051 26.6035 11.707C26.6035 11.1089 26.1186 10.624 25.5205 10.624C24.9224 10.624 24.4375 11.1089 24.4375 11.707C24.4375 12.3051 24.9224 12.79 25.5205 12.79Z" fill="#1A1818"/>
<path d="M28.5596 12.79C29.1577 12.79 29.6426 12.3051 29.6426 11.707C29.6426 11.1089 29.1577 10.624 28.5596 10.624C27.9614 10.624 27.4766 11.1089 27.4766 11.707C27.4766 12.3051 27.9614 12.79 28.5596 12.79Z" fill="#1A1818"/>
<path d="M27.892 24.5841H5.19202C3.81532 24.582 2.49563 24.034 1.52234 23.0603C0.549051 22.0866 0.00158687 20.7667 0 19.39V5.19006C0.00264455 3.81406 0.550569 2.49514 1.52374 1.52234C2.49692 0.54954 3.81601 0.0021144 5.19202 0H27.892C29.2684 0.00158556 30.5879 0.548873 31.5616 1.52173C32.5352 2.49458 33.0834 3.81371 33.086 5.19006V19.39C33.0844 20.7671 32.5367 22.0873 31.563 23.061C30.5892 24.0348 29.269 24.5825 27.892 24.5841V24.5841ZM5.19202 2.24707C4.41084 2.24786 3.66187 2.55844 3.10941 3.11072C2.55694 3.663 2.24608 4.41194 2.24503 5.19312V19.3931C2.24556 20.1746 2.55618 20.924 3.1087 21.4767C3.66123 22.0294 4.41049 22.3403 5.19202 22.3411H27.892C28.6735 22.3403 29.4228 22.0294 29.9753 21.4767C30.5279 20.924 30.8385 20.1746 30.839 19.3931V5.19312C30.838 4.41194 30.5271 3.663 29.9746 3.11072C29.4222 2.55844 28.6732 2.24786 27.892 2.24707H5.19202Z" fill="#1A1818"/>
<path d="M31.9625 7.38013H0.105469V9.62613H31.9625V7.38013Z" fill="#1A1818"/>
</svg>
