<svg width="30" height="28" viewBox="0 0 30 28" fill="none" xmlns="http://www.w3.org/2000/svg">
    <path d="M23.6763 19.9099C22.9389 19.9093 22.2178 20.1275 21.6043 20.5367C20.9909 20.946 20.5126 21.528 20.23 22.2092C19.9473 22.8903 19.8731 23.64 20.0166 24.3634C20.1601 25.0867 20.5149 25.7513 21.0362 26.273C21.5574 26.7946 22.2217 27.15 22.9449 27.2941C23.6682 27.4382 24.4179 27.3645 25.0993 27.0824C25.7806 26.8004 26.3631 26.3225 26.7728 25.7094C27.1826 25.0963 27.4013 24.3754 27.4013 23.6379C27.4 22.6501 27.0072 21.7031 26.309 21.0043C25.6108 20.3056 24.6641 19.912 23.6763 19.9099V19.9099ZM23.6763 25.1299C23.3814 25.1299 23.0932 25.0425 22.848 24.8786C22.6028 24.7148 22.4117 24.4819 22.2988 24.2095C22.186 23.9371 22.1564 23.6372 22.214 23.348C22.2715 23.0588 22.4135 22.7931 22.622 22.5846C22.8305 22.3761 23.0962 22.2341 23.3854 22.1766C23.6747 22.119 23.9745 22.1486 24.2469 22.2614C24.5193 22.3743 24.7522 22.5654 24.916 22.8105C25.0799 23.0557 25.1673 23.344 25.1673 23.6389C25.1668 24.0342 25.0095 24.4131 24.73 24.6926C24.4505 24.9721 24.0716 25.1294 23.6763 25.1299V25.1299Z" fill="white"/>
    <path d="M29.6635 5.49512C29.5589 5.36135 29.4252 5.25319 29.2726 5.17885C29.1199 5.10452 28.9523 5.06596 28.7825 5.06612H6.8995L5.8995 0.859116C5.84195 0.613239 5.70294 0.394056 5.50504 0.237194C5.30715 0.0803327 5.06202 -0.00498253 4.8095 -0.00488273H1.1185C0.821855 -0.00488273 0.537361 0.112958 0.327601 0.322718C0.117842 0.532477 0 0.816972 0 1.11362C0 1.41026 0.117842 1.69476 0.327601 1.90452C0.537361 2.11428 0.821855 2.23212 1.1185 2.23212H3.9265L7.5615 17.4481C7.61994 17.6927 7.75907 17.9105 7.95647 18.0664C8.15386 18.2222 8.398 18.307 8.6495 18.3071H26.0615C26.3114 18.3073 26.5541 18.2238 26.7509 18.0699C26.9478 17.916 27.0874 17.7006 27.1475 17.4581L29.8695 6.45812C29.9108 6.29251 29.9137 6.11966 29.878 5.95276C29.8423 5.78586 29.7689 5.62933 29.6635 5.49512V5.49512ZM25.1865 16.0691H9.5325L7.4385 7.30812H27.3535L25.1865 16.0691Z" fill="white"/>
    <path d="M10.1421 19.9099C9.40473 19.9099 8.68397 20.1286 8.0709 20.5382C7.45784 20.9478 6.98 21.5301 6.69784 22.2113C6.41568 22.8925 6.34185 23.642 6.4857 24.3652C6.62954 25.0884 6.9846 25.7526 7.50597 26.274C8.02734 26.7954 8.69161 27.1504 9.41477 27.2943C10.1379 27.4381 10.8875 27.3643 11.5687 27.0821C12.2499 26.8 12.8321 26.3221 13.2418 25.7091C13.6514 25.096 13.8701 24.3752 13.8701 23.6379C13.8687 22.6496 13.4755 21.7021 12.7767 21.0033C12.0778 20.3044 11.1304 19.9112 10.1421 19.9099V19.9099ZM10.1421 25.1299C9.84717 25.1299 9.5589 25.0425 9.31371 24.8786C9.06851 24.7148 8.87741 24.4819 8.76456 24.2095C8.65171 23.9371 8.62218 23.6372 8.67971 23.348C8.73724 23.0588 8.87925 22.7931 9.08777 22.5846C9.29629 22.3761 9.56196 22.2341 9.85118 22.1766C10.1404 22.119 10.4402 22.1486 10.7126 22.2614C10.9851 22.3743 11.218 22.5654 11.3818 22.8105C11.5456 23.0557 11.6331 23.344 11.6331 23.6389C11.6325 24.0342 11.4753 24.4131 11.1958 24.6926C10.9163 24.9721 10.5373 25.1294 10.1421 25.1299Z" fill="white"/>
</svg>
