<svg width="33" height="33" viewBox="0 0 33 33" fill="none" xmlns="http://www.w3.org/2000/svg">
    <path d="M16.2267 0C16.2177 0.009 16.2007 0.009 16.1737 0.009C13.1342 0.0028162 10.1547 0.855223 7.57833 2.46807C5.00197 4.08091 2.9335 6.38861 1.61112 9.12544C0.288735 11.8623 -0.233796 14.9169 0.103694 17.9377C0.441184 20.9585 1.62497 23.8225 3.51874 26.2L1.16474 31.666C1.11877 31.7719 1.09414 31.8858 1.09229 32.0012C1.09043 32.1166 1.11138 32.2313 1.15393 32.3386C1.19648 32.4459 1.2598 32.5438 1.34025 32.6265C1.4207 32.7093 1.5167 32.7754 1.62275 32.821C1.78011 32.8888 1.95357 32.9104 2.12275 32.883L10.7507 31.367C12.4737 31.9928 14.2937 32.309 16.1267 32.301C18.2476 32.3076 20.349 31.8963 22.3109 31.0908C24.2728 30.2852 26.0569 29.1012 27.5612 27.6061C29.0655 26.1111 30.2606 24.3344 31.0783 22.3775C31.8959 20.4206 32.3202 18.3218 32.3267 16.201C32.3333 14.0802 31.9221 11.9788 31.1165 10.0169C30.311 8.05494 29.1269 6.27089 27.6319 4.76658C26.1369 3.26227 24.3602 2.06716 22.4033 1.24948C20.4464 0.4318 18.3476 0.00756609 16.2267 0.001V0ZM16.1357 30.547C14.4347 30.5462 12.7477 30.2386 11.1557 29.639C11.0074 29.5806 10.8454 29.5653 10.6887 29.595L3.42975 30.864L5.35174 26.4C5.4169 26.248 5.43823 26.0808 5.41331 25.9174C5.38839 25.7539 5.31822 25.6007 5.21074 25.475C4.16913 24.2653 3.34067 22.8873 2.76075 21.4C1.98987 19.4326 1.66172 17.3197 1.7996 15.2112C1.93748 13.1027 2.53801 11.0504 3.55852 9.20023C4.57903 7.35002 5.99448 5.74725 7.70431 4.5058C9.41414 3.26434 11.3764 2.41467 13.4516 2.01714C15.5269 1.6196 17.6642 1.68397 19.7118 2.20567C21.7594 2.72736 23.6669 3.69359 25.299 5.03568C26.931 6.37778 28.2474 8.06283 29.1547 9.9711C30.0621 11.8794 30.538 13.964 30.5487 16.077V16.13C30.5458 19.952 29.0265 23.6168 26.3243 26.3197C23.6221 29.0227 19.9578 30.543 16.1357 30.547V30.547Z" fill="black"/>
    <path d="M15.453 12.929H10.694C10.4602 12.929 10.236 13.0218 10.0707 13.1871C9.90537 13.3525 9.8125 13.5767 9.8125 13.8105C9.8125 14.0442 9.90537 14.2685 10.0707 14.4338C10.236 14.5991 10.4602 14.692 10.694 14.692H15.453C15.6868 14.692 15.911 14.5991 16.0763 14.4338C16.2416 14.2685 16.3345 14.0442 16.3345 13.8105C16.3345 13.5767 16.2416 13.3525 16.0763 13.1871C15.911 13.0218 15.6868 12.929 15.453 12.929V12.929Z" fill="black"/>
    <path d="M21.6191 17.3359H10.6901C10.4563 17.3359 10.2321 17.4288 10.0668 17.5941C9.90147 17.7594 9.80859 17.9836 9.80859 18.2174C9.80859 18.4512 9.90147 18.6754 10.0668 18.8408C10.2321 19.0061 10.4563 19.0989 10.6901 19.0989H21.6181C21.8519 19.0989 22.0761 19.0061 22.2414 18.8408C22.4067 18.6754 22.4996 18.4512 22.4996 18.2174C22.4996 17.9836 22.4067 17.7594 22.2414 17.5941C22.0761 17.4288 21.8519 17.3359 21.6181 17.3359H21.6191Z" fill="black"/>
</svg>
