<svg width="21" height="21" viewBox="0 0 21 21" fill="none" xmlns="http://www.w3.org/2000/svg">
<path d="M19.8463 20.3978C19.7738 20.3978 19.7019 20.3836 19.635 20.3558C19.5681 20.328 19.5074 20.2872 19.4563 20.2358L0.161255 0.940796C0.0579932 0.837473 0 0.697347 0 0.55127C0 0.405192 0.0579932 0.265127 0.161255 0.161804C0.212434 0.110524 0.273167 0.0698116 0.340088 0.0420532C0.407009 0.0142949 0.47882 0 0.55127 0C0.623719 0 0.695408 0.0142949 0.762329 0.0420532C0.82925 0.0698116 0.890105 0.110524 0.941284 0.161804L20.2352 19.4568C20.3385 19.5601 20.3965 19.7002 20.3965 19.8463C20.3965 19.9924 20.3385 20.1325 20.2352 20.2358C20.1843 20.2871 20.1236 20.3278 20.0569 20.3556C19.9901 20.3834 19.9186 20.3977 19.8463 20.3978V20.3978Z" fill="black"/>
<path d="M0.552246 20.3978C0.479764 20.3978 0.408002 20.3836 0.341064 20.3558C0.274127 20.328 0.213326 20.2872 0.162231 20.2358C0.0589697 20.1325 0.000976562 19.9924 0.000976562 19.8463C0.000976562 19.7002 0.0589697 19.5601 0.162231 19.4568L19.4573 0.161804C19.5085 0.110524 19.5692 0.0698116 19.6361 0.0420532C19.703 0.0142949 19.7748 0 19.8473 0C19.9197 0 19.9914 0.0142949 20.0583 0.0420532C20.1253 0.0698116 20.1861 0.110524 20.2373 0.161804C20.3406 0.265127 20.3986 0.405192 20.3986 0.55127C20.3986 0.697347 20.3406 0.837473 20.2373 0.940796L0.943237 20.2358C0.891991 20.2873 0.831026 20.3281 0.763916 20.3559C0.696806 20.3837 0.624888 20.3979 0.552246 20.3978V20.3978Z" fill="black"/>
</svg>
