<svg width="20" height="25" viewBox="0 0 20 25" fill="none" xmlns="http://www.w3.org/2000/svg">
<path d="M17.91 3.049H13.719V2.286C13.7182 1.67979 13.477 1.09864 13.0482 0.670078C12.6195 0.241513 12.0382 0.000529156 11.432 0L8.384 0C7.7783 0.00132254 7.19783 0.242657 6.76972 0.671136C6.34162 1.09961 6.10079 1.6803 6.1 2.286V3.048H1.905C1.39983 3.04879 0.9156 3.24989 0.558487 3.60719C0.201373 3.96449 0.000528902 4.44883 0 4.954V7.621C0 7.82309 0.0802838 8.01691 0.223186 8.15982C0.366089 8.30272 0.559906 8.383 0.762001 8.383H1.179L1.837 22.21C1.86428 22.7972 2.11691 23.3513 2.54232 23.7569C2.96773 24.1626 3.53317 24.3886 4.121 24.388H15.695C16.2828 24.3886 16.8483 24.1626 17.2737 23.7569C17.6991 23.3513 17.9517 22.7972 17.979 22.21L18.637 8.383H19.054C19.2561 8.383 19.4499 8.30272 19.5928 8.15982C19.7357 8.01691 19.816 7.82309 19.816 7.621V4.954C19.8152 4.44883 19.6141 3.9646 19.2568 3.60749C18.8995 3.25037 18.4152 3.04953 17.91 3.049V3.049ZM7.621 2.286C7.62126 2.08399 7.70163 1.89032 7.84448 1.74748C7.98732 1.60463 8.18099 1.52426 8.383 1.524H11.432C11.634 1.52426 11.8277 1.60463 11.9705 1.74748C12.1134 1.89032 12.1937 2.08399 12.194 2.286V3.048H7.621V2.286ZM1.521 4.954C1.52126 4.85303 1.56149 4.75628 1.63288 4.68488C1.70428 4.61349 1.80103 4.57326 1.902 4.573H17.91C18.011 4.57326 18.1077 4.61349 18.1791 4.68488C18.2505 4.75628 18.2907 4.85303 18.291 4.954V6.859H1.524L1.521 4.954ZM16.456 22.138C16.447 22.3337 16.3629 22.5184 16.2211 22.6536C16.0793 22.7889 15.8909 22.8642 15.695 22.864H4.121C3.92509 22.8642 3.73665 22.7889 3.5949 22.6536C3.45315 22.5184 3.36901 22.3337 3.36 22.138L2.7 8.384H17.111L16.456 22.138Z" fill="white"/>
<path d="M9.90652 21.3402C10.1086 21.3402 10.3024 21.2599 10.4453 21.117C10.5882 20.9741 10.6685 20.7803 10.6685 20.5782V10.6702C10.6685 10.4681 10.5882 10.2743 10.4453 10.1314C10.3024 9.98849 10.1086 9.9082 9.90652 9.9082C9.70443 9.9082 9.51062 9.98849 9.36772 10.1314C9.22482 10.2743 9.14453 10.4681 9.14453 10.6702V20.5782C9.14453 20.7803 9.22482 20.9741 9.36772 21.117C9.51062 21.2599 9.70443 21.3402 9.90652 21.3402V21.3402Z" fill="white"/>
<path d="M13.719 21.3402C13.9211 21.3402 14.1149 21.2599 14.2578 21.117C14.4007 20.9741 14.481 20.7803 14.481 20.5782V10.6702C14.481 10.4681 14.4007 10.2743 14.2578 10.1314C14.1149 9.98849 13.9211 9.9082 13.719 9.9082C13.5169 9.9082 13.3231 9.98849 13.1802 10.1314C13.0373 10.2743 12.957 10.4681 12.957 10.6702V20.5782C12.957 20.7803 13.0373 20.9741 13.1802 21.117C13.3231 21.2599 13.5169 21.3402 13.719 21.3402V21.3402Z" fill="white"/>
<path d="M6.09793 21.3402C6.30003 21.3402 6.49385 21.2599 6.63675 21.117C6.77965 20.9741 6.85994 20.7803 6.85994 20.5782V10.6702C6.85994 10.4681 6.77965 10.2743 6.63675 10.1314C6.49385 9.98849 6.30003 9.9082 6.09793 9.9082C5.89584 9.9082 5.70203 9.98849 5.55913 10.1314C5.41623 10.2743 5.33594 10.4681 5.33594 10.6702V20.5782C5.33594 20.7803 5.41623 20.9741 5.55913 21.117C5.70203 21.2599 5.89584 21.3402 6.09793 21.3402V21.3402Z" fill="white"/>
</svg>
