<svg width="72" height="55" viewBox="0 0 72 55" fill="none" xmlns="http://www.w3.org/2000/svg">
<path d="M65.2598 0H6.28775C5.35382 0.0049158 4.43301 0.220252 3.59375 0.630001L35.6338 32.67L42.8148 25.77L67.9548 0.631001C67.1153 0.220792 66.1941 0.00511149 65.2598 0V0Z" fill="#FEDD6A"/>
<path d="M70.9177 3.59521L47.2617 27.2502L70.9167 50.9052C71.3264 50.0659 71.5417 49.1451 71.5467 48.2112V6.28822C71.5419 5.3547 71.327 4.43425 70.9177 3.59521Z" fill="#FEDD6A"/>
<path d="M0.63 3.59424C0.220251 4.4335 0.0049158 5.35431 0 6.28824L0 48.2112C0.0051344 49.1448 0.220462 50.0653 0.63 50.9042L24.286 27.2492L0.63 3.59424Z" fill="#FEDD6A"/>
<path d="M44.2997 30.2139L37.1177 37.1139C36.7242 37.5059 36.1913 37.726 35.6357 37.726C35.0802 37.726 34.5473 37.5059 34.1537 37.1139L27.2537 30.2139L3.59375 53.8689C4.43476 54.2798 5.35772 54.4955 6.29375 54.4999H65.2607C66.1947 54.495 67.1155 54.2796 67.9547 53.8699L44.2997 30.2139Z" fill="#FEDD6A"/>
</svg>
