<svg width="19" height="15" viewBox="0 0 19 15" fill="none" xmlns="http://www.w3.org/2000/svg">
<path d="M9.31938 11.914C8.41414 11.914 7.5291 11.6456 6.77641 11.1426C6.02373 10.6397 5.43705 9.92489 5.09062 9.08855C4.7442 8.25221 4.65352 7.33199 4.83012 6.44414C5.00673 5.55629 5.44271 4.74074 6.08281 4.10063C6.72292 3.46053 7.53847 3.02455 8.42632 2.84795C9.31417 2.67134 10.2345 2.76202 11.0708 3.10845C11.9072 3.45487 12.6219 4.04143 13.1248 4.79411C13.6277 5.5468 13.8963 6.43172 13.8963 7.33696C13.895 8.55045 13.4123 9.71388 12.5542 10.5719C11.6962 11.43 10.5329 11.9127 9.31938 11.914ZM9.31938 3.55498C8.57157 3.55498 7.84033 3.77672 7.21855 4.19219C6.59677 4.60765 6.11215 5.1982 5.82597 5.88908C5.5398 6.57997 5.465 7.34021 5.61089 8.07366C5.75678 8.8071 6.11702 9.48079 6.6458 10.0096C7.17458 10.5384 7.84815 10.8985 8.58159 11.0444C9.31503 11.1902 10.0753 11.1153 10.7662 10.8291C11.457 10.543 12.0477 10.0584 12.4632 9.43657C12.8786 8.81479 13.1004 8.0838 13.1004 7.33598C13.0988 6.33387 12.6998 5.37326 11.991 4.66484C11.2822 3.95643 10.3215 3.55811 9.31938 3.55705V3.55498Z" fill="#707070"/>
<path d="M9.32397 13.8309C4.23797 13.8309 0.234186 7.81301 0.0651855 7.55701C0.0228013 7.49201 0 7.41609 0 7.3385C0 7.26091 0.0228013 7.18499 0.0651855 7.12C0.233186 6.864 4.23797 0.844971 9.32397 0.844971C14.41 0.844971 18.414 6.863 18.582 7.12C18.6244 7.18499 18.647 7.26091 18.647 7.3385C18.647 7.41609 18.6244 7.49201 18.582 7.55701C18.414 7.81301 14.41 13.8309 9.32397 13.8309ZM0.883057 7.33789C1.64606 8.40789 5.18297 13.038 9.32397 13.038C13.465 13.038 17.0021 8.41089 17.7651 7.33789C17.0021 6.26789 13.465 1.63794 9.32397 1.63794C5.18297 1.63794 1.64506 6.27399 0.883057 7.33899V7.33789Z" fill="#707070"/>
<path d="M16.2873 14.702C16.1819 14.7016 16.0809 14.6595 16.0063 14.5849L2.07543 0.653918C2.01235 0.577166 1.98001 0.47971 1.98485 0.380481C1.98969 0.281252 2.0313 0.187424 2.10155 0.117175C2.1718 0.0469262 2.26575 0.00531604 2.36498 0.000475896C2.46421 -0.00436425 2.56166 0.0278515 2.63841 0.09093L16.5693 14.022C16.6242 14.0779 16.6616 14.1488 16.6765 14.2257C16.6914 14.3026 16.6832 14.3823 16.6533 14.4547C16.6234 14.5271 16.5729 14.5892 16.508 14.6332C16.4431 14.6771 16.3667 14.7011 16.2883 14.702H16.2873Z" fill="#707070"/>
</svg>
