<svg width="24" height="24" viewBox="0 0 24 24" fill="none" xmlns="http://www.w3.org/2000/svg">
<path d="M0.644043 23.823C0.473244 23.823 0.309372 23.7552 0.188599 23.6344C0.0678252 23.5136 0 23.3498 0 23.179V0.644043C0 0.473244 0.0678252 0.309372 0.188599 0.188599C0.309372 0.0678252 0.473244 0 0.644043 0C0.814842 0 0.978592 0.0678252 1.09937 0.188599C1.22014 0.309372 1.28796 0.473244 1.28796 0.644043V23.179C1.28796 23.3498 1.22014 23.5136 1.09937 23.6344C0.978592 23.7552 0.814842 23.823 0.644043 23.823Z" fill="#707070"/>
<path d="M23.179 16.203H0.644043C0.473244 16.203 0.309372 16.1352 0.188599 16.0144C0.0678252 15.8936 0 15.7298 0 15.559V4.37305C4.44964e-05 4.2885 0.0167634 4.20478 0.0491943 4.12671C0.0816253 4.04863 0.129096 3.97766 0.188965 3.91797L3.91797 0.188965C3.97766 0.129096 4.04863 0.0816253 4.12671 0.0491943C4.20478 0.0167634 4.2885 4.44968e-05 4.37305 3.86308e-10H23.179C23.2856 -3.69446e-06 23.3907 0.0265302 23.4846 0.0771484C23.5785 0.127767 23.6584 0.200923 23.717 0.290039C23.7756 0.379213 23.8112 0.481468 23.8204 0.587769C23.8297 0.694069 23.8123 0.801092 23.77 0.899048L20.661 8.099L23.77 15.299C23.8124 15.3969 23.8298 15.5039 23.8206 15.6102C23.8113 15.7165 23.7757 15.8188 23.717 15.908C23.6589 15.9979 23.5793 16.072 23.4854 16.1235C23.3914 16.175 23.2861 16.2024 23.179 16.203ZM1.28796 14.915H22.2L19.368 8.35693C19.3333 8.27642 19.3153 8.18976 19.3153 8.10205C19.3153 8.01434 19.3333 7.92756 19.368 7.84705L22.2 1.28796H4.63904L1.28796 4.64001V14.915Z" fill="#707070"/>
</svg>
