<svg width="24" height="13" viewBox="0 0 24 13" fill="none" xmlns="http://www.w3.org/2000/svg">
<path d="M-0.000366211 6.2782C-0.000376342 6.19365 0.016333 6.10994 0.0487671 6.03186C0.0812012 5.95378 0.128747 5.8829 0.18866 5.82324L5.82263 0.189209C5.88237 0.129252 5.95339 0.0816553 6.03156 0.0491943C6.10972 0.0167334 6.1935 0 6.27814 0C6.36277 0 6.44661 0.0167334 6.52478 0.0491943C6.60295 0.0816553 6.6739 0.129252 6.73364 0.189209C6.85419 0.309952 6.92188 0.47355 6.92188 0.644165C6.92188 0.81478 6.85419 0.978501 6.73364 1.09924L1.55463 6.27722L6.73364 11.4562C6.85419 11.5769 6.92188 11.7405 6.92188 11.9111C6.92188 12.0817 6.85419 12.2455 6.73364 12.3662C6.67384 12.426 6.60281 12.4735 6.52466 12.5059C6.4465 12.5382 6.36274 12.5549 6.27814 12.5549C6.19354 12.5549 6.10977 12.5382 6.03162 12.5059C5.95346 12.4735 5.88244 12.426 5.82263 12.3662L0.18866 6.73218C0.128822 6.67267 0.0813226 6.60196 0.0488892 6.52405C0.0164557 6.44614 -0.00029938 6.36259 -0.000366211 6.2782V6.2782Z" />
<path d="M0.0012207 6.2793C0.0012207 6.1085 0.0691069 5.94463 0.18988 5.82385C0.310654 5.70308 0.474403 5.63525 0.645203 5.63525L23.1802 5.63525C23.351 5.63525 23.5148 5.70308 23.6356 5.82385C23.7564 5.94463 23.8242 6.1085 23.8242 6.2793C23.8242 6.4501 23.7564 6.61385 23.6356 6.73462C23.5148 6.85539 23.351 6.92322 23.1802 6.92322L0.645203 6.92322C0.474403 6.92322 0.310654 6.85539 0.18988 6.73462C0.0691069 6.61385 0.0012207 6.4501 0.0012207 6.2793V6.2793Z" />
</svg>
