<svg width="37" height="37" viewBox="0 0 37 37" fill="none" xmlns="http://www.w3.org/2000/svg">
<path d="M18.5 37C28.7173 37 37 28.7173 37 18.5C37 8.28273 28.7173 0 18.5 0C8.28273 0 0 8.28273 0 18.5C0 28.7173 8.28273 37 18.5 37Z" fill="white"/>
<path d="M18.5 34.5C27.3366 34.5 34.5 27.3366 34.5 18.5C34.5 9.66344 27.3366 2.5 18.5 2.5C9.66344 2.5 2.5 9.66344 2.5 18.5C2.5 27.3366 9.66344 34.5 18.5 34.5Z" stroke="#708A41" stroke-width="5"/>
<path d="M9.85192 17.4992L16.5853 25.0032L28.0418 14.0104" stroke="#708A41" stroke-width="5.00125"/>
</svg>
