<svg width="19" height="19" viewBox="0 0 19 19" fill="none" xmlns="http://www.w3.org/2000/svg">
<path d="M9.66125 18.01C8.53797 18.0065 7.42763 17.7701 6.40027 17.3159C5.37291 16.8617 4.45084 16.1994 3.69226 15.371C3.60625 15.2767 3.55859 15.1536 3.55859 15.026C3.55859 14.8984 3.60625 14.7753 3.69226 14.681C3.7333 14.6361 3.78329 14.6001 3.83899 14.5756C3.89469 14.551 3.95487 14.5383 4.01575 14.5383C4.07663 14.5383 4.1368 14.551 4.1925 14.5756C4.24821 14.6001 4.29819 14.6361 4.33923 14.681C5.01569 15.4198 5.83797 16.0103 6.75415 16.4153C7.67033 16.8203 8.66053 17.0309 9.66223 17.0339C11.7233 16.9624 13.6721 16.0776 15.0825 14.573C16.4929 13.0684 17.25 11.0664 17.1882 9.005C17.25 6.94362 16.4929 4.94165 15.0825 3.43701C13.6721 1.93237 11.7233 1.04747 9.66223 0.975952C9.53694 0.971777 9.41845 0.918041 9.33276 0.826538C9.24707 0.735035 9.20116 0.613334 9.2052 0.488037C9.20116 0.36274 9.24707 0.240917 9.33276 0.149414C9.41845 0.0579109 9.53694 0.0041753 9.66223 0C14.3162 0 18.1033 4.04 18.1033 9.005C18.1033 13.97 14.3163 18.01 9.66125 18.01Z" fill="#707070"/>
<path d="M5.94067 16.874C5.85222 16.8737 5.76463 16.8559 5.68311 16.8215C5.60158 16.7872 5.52763 16.7371 5.46558 16.6741C5.33996 16.5481 5.26953 16.3775 5.26953 16.1996C5.26953 16.0217 5.33996 15.8511 5.46558 15.7251L9.07666 12.114V4.00403C9.07666 3.8258 9.14741 3.65483 9.27344 3.52881C9.39946 3.40278 9.57043 3.33203 9.74866 3.33203C9.92688 3.33203 10.0977 3.40278 10.2238 3.52881C10.3498 3.65483 10.4207 3.8258 10.4207 4.00403V12.3931C10.4201 12.4813 10.4021 12.5686 10.3678 12.6499C10.3335 12.7312 10.2834 12.8051 10.2206 12.8671L6.4126 16.675C6.35088 16.7376 6.27741 16.7874 6.19641 16.8215C6.11542 16.8557 6.02857 16.8735 5.94067 16.874Z" fill="#707070"/>
<path d="M5.87024 0.596924C5.60317 0.596924 5.34705 0.702997 5.1582 0.891846C4.96935 1.0807 4.86328 1.33681 4.86328 1.60388C4.86355 1.87087 4.96966 2.12688 5.15845 2.31567C5.34724 2.50447 5.60325 2.61058 5.87024 2.61084C6.1374 2.61084 6.39363 2.50486 6.58264 2.31604C6.77165 2.12722 6.87803 1.87105 6.8783 1.60388C6.8783 1.47156 6.85218 1.3405 6.80151 1.21826C6.75084 1.09602 6.6765 0.985002 6.58289 0.89148C6.48927 0.797958 6.37815 0.723766 6.25586 0.673218C6.13357 0.622671 6.00256 0.596793 5.87024 0.596924Z" fill="#707070"/>
<path d="M3.42493 2.802C3.15785 2.802 2.90174 2.90807 2.71289 3.09692C2.52404 3.28577 2.41797 3.54201 2.41797 3.80908C2.41797 4.07616 2.52404 4.33227 2.71289 4.52112C2.90174 4.70997 3.15785 4.81604 3.42493 4.81604C3.692 4.81604 3.94824 4.70997 4.13708 4.52112C4.32593 4.33227 4.43201 4.07616 4.43201 3.80908C4.43201 3.54201 4.32593 3.28577 4.13708 3.09692C3.94824 2.90807 3.692 2.802 3.42493 2.802Z" fill="#707070"/>
<path d="M1.00708 6.38892C0.740007 6.38892 0.483771 6.49511 0.294922 6.68396C0.106073 6.87281 0 7.12892 0 7.396C0 7.66307 0.106073 7.91918 0.294922 8.10803C0.483771 8.29688 0.740007 8.40295 1.00708 8.40295C1.13932 8.40295 1.27016 8.3769 1.39233 8.32629C1.51451 8.27569 1.62561 8.20154 1.71912 8.10803C1.81262 8.01452 1.88677 7.90355 1.93738 7.78137C1.98798 7.6592 2.01404 7.52824 2.01404 7.396C2.01404 7.26375 1.98798 7.13279 1.93738 7.01062C1.88677 6.88845 1.81262 6.77747 1.71912 6.68396C1.62561 6.59045 1.51451 6.51618 1.39233 6.46558C1.27016 6.41497 1.13932 6.38892 1.00708 6.38892Z" fill="#707070"/>
<path d="M1.35852 10.5249C1.09153 10.5252 0.835643 10.6314 0.646852 10.8202C0.45806 11.009 0.351828 11.2649 0.351562 11.5319C0.351562 11.7989 0.457636 12.0552 0.646485 12.244C0.835335 12.4329 1.09145 12.5389 1.35852 12.5389C1.62559 12.5389 1.88183 12.4329 2.07068 12.244C2.25953 12.0552 2.3656 11.7989 2.3656 11.5319C2.3656 11.3996 2.33955 11.2688 2.28894 11.1466C2.23833 11.0244 2.16419 10.9133 2.07068 10.8198C1.97717 10.7263 1.86607 10.6522 1.7439 10.6016C1.62172 10.551 1.49076 10.5249 1.35852 10.5249Z" fill="#707070"/>
</svg>
