<svg width="23" height="23" viewBox="0 0 23 23" fill="none" xmlns="http://www.w3.org/2000/svg">
<path d="M21.891 11.912H0.644043C0.473244 11.912 0.309372 11.8442 0.188599 11.7234C0.0678252 11.6026 0 11.4388 0 11.268C0 11.0972 0.0678252 10.9334 0.188599 10.8126C0.309372 10.6918 0.473244 10.624 0.644043 10.624H21.891C21.9756 10.6239 22.0594 10.6405 22.1376 10.6728C22.2158 10.7051 22.2869 10.7525 22.3467 10.8123C22.4065 10.8721 22.4539 10.9432 22.4862 11.0214C22.5185 11.0996 22.5352 11.1834 22.535 11.268C22.5352 11.3526 22.5185 11.4365 22.4862 11.5146C22.4539 11.5928 22.4065 11.6639 22.3467 11.7237C22.2869 11.7835 22.2158 11.831 22.1376 11.8633C22.0594 11.8956 21.9756 11.9121 21.891 11.912V11.912Z" fill="white"/>
<path d="M11.269 22.535C11.0982 22.535 10.9344 22.4671 10.8136 22.3464C10.6928 22.2256 10.625 22.0618 10.625 21.891V0.643982C10.625 0.473183 10.6928 0.309372 10.8136 0.188599C10.9344 0.0678252 11.0982 0 11.269 0C11.4398 0 11.6036 0.0678252 11.7244 0.188599C11.8451 0.309372 11.913 0.473183 11.913 0.643982V21.891C11.913 22.0618 11.8451 22.2256 11.7244 22.3464C11.6036 22.4671 11.4398 22.535 11.269 22.535V22.535Z" fill="white"/>
</svg>
