<svg width="17" height="25" viewBox="0 0 17 25" fill="none" xmlns="http://www.w3.org/2000/svg">
<path d="M13.457 24.826H2.69116C1.97771 24.8252 1.29355 24.5414 0.789062 24.0369C0.284574 23.5324 0.000794051 22.8484 0 22.135V11.369C0.000529348 10.6554 0.284301 9.9711 0.788818 9.4664C1.29334 8.9617 1.97754 8.6778 2.69116 8.677H13.457C14.1703 8.67911 14.8538 8.96341 15.3582 9.4678C15.8625 9.9722 16.1471 10.6557 16.1492 11.369V22.133C16.1473 22.8465 15.8631 23.5302 15.3586 24.0348C14.8542 24.5394 14.1705 24.8239 13.457 24.826V24.826ZM2.69116 10.026C2.33426 10.0263 1.99187 10.1681 1.7395 10.4205C1.48714 10.6729 1.34524 11.0151 1.34497 11.372V22.133C1.34524 22.4899 1.48714 22.8321 1.7395 23.0845C1.99187 23.3368 2.33426 23.4787 2.69116 23.479H13.457C13.8139 23.4787 14.1561 23.3368 14.4084 23.0845C14.6608 22.8321 14.8027 22.4899 14.803 22.133V11.369C14.8027 11.0121 14.6608 10.6699 14.4084 10.4175C14.1561 10.1651 13.8139 10.0232 13.457 10.023L2.69116 10.026Z" />
<path d="M12.4473 10.0229H3.7002C3.61178 10.0231 3.52434 10.0058 3.44263 9.97198C3.36092 9.93821 3.28664 9.88866 3.22412 9.82614C3.1616 9.76362 3.11214 9.68938 3.07837 9.60767C3.0446 9.52595 3.02721 9.43836 3.02734 9.34995V4.97595C3.04601 3.64984 3.5859 2.38436 4.53027 1.45319C5.47465 0.522014 6.74749 0 8.07373 0C9.39997 0 10.6731 0.522014 11.6174 1.45319C12.5618 2.38436 13.1017 3.64984 13.1204 4.97595V9.34995C13.1205 9.43836 13.1031 9.52595 13.0693 9.60767C13.0356 9.68938 12.9861 9.76362 12.9236 9.82614C12.8611 9.88866 12.7868 9.93821 12.7051 9.97198C12.6234 10.0058 12.5357 10.0231 12.4473 10.0229V10.0229ZM4.37232 8.67694H11.7722V4.97696C11.7722 3.99566 11.3826 3.05454 10.6887 2.36066C9.99484 1.66677 9.05357 1.27695 8.07227 1.27695C7.09097 1.27695 6.14994 1.66677 5.45606 2.36066C4.76217 3.05454 4.37232 3.99566 4.37232 4.97696V8.67694Z"/>
</svg>
