<svg width="46" height="44" viewBox="0 0 46 44" fill="none" xmlns="http://www.w3.org/2000/svg">
<path d="M14.4137 42.1699C14.3156 41.9999 14.2497 41.8132 14.2194 41.6193L12.0565 27.805L1.17525 19.0242C0.931187 18.8272 0.750781 18.5625 0.65671 18.2633C0.56264 17.9641 0.559101 17.6437 0.646536 17.3425C0.73397 17.0413 0.908479 16.7727 1.14813 16.5704C1.38779 16.368 1.68189 16.2411 1.9935 16.2054L35.9182 12.3448C36.2174 12.3354 36.5135 12.4073 36.7751 12.5529C37.0366 12.6985 37.2537 12.9123 37.4034 13.1715C37.553 13.4307 37.6296 13.7256 37.6249 14.0249C37.6202 14.3242 37.5345 14.6166 37.3767 14.871L17.071 42.3204C16.9139 42.5324 16.7066 42.7021 16.4677 42.8141C16.2287 42.9262 15.9657 42.977 15.7022 42.9622C15.4388 42.9474 15.1831 42.8673 14.9583 42.7291C14.7335 42.5909 14.5465 42.3991 14.4142 42.1707L14.4137 42.1699ZM14.9117 26.1565C15.0097 26.3265 15.0756 26.5132 15.1061 26.7071L16.7757 37.3709L32.6393 15.9215L6.1327 18.9367L14.5326 25.7137C14.685 25.8368 14.8135 25.9869 14.9117 26.1565V26.1565Z" fill="#374163"/>
</svg>
