<svg class="sprite-icons" xmlns="http://www.w3.org/2000/svg">

    <symbol id="icon-search" viewBox="0 0 18 18">
        <title>Search</title>
        <!-- width="18" height="18" -->
        <path d="M4.053,14.567V9.62a4.842,4.842,0,0,1-1.912-.762A4.875,4.875,0,0,1,.829,7.551a4.833,4.833,0,0,1,.593-6.132A4.864,4.864,0,0,1,2.966.381a4.859,4.859,0,0,1,4.6.446A4.875,4.875,0,0,1,8.882,2.135,4.845,4.845,0,0,1,5.658,9.62v4.947ZM3.5,1.645a3.5,3.5,0,1,0,1.354-.273A3.468,3.468,0,0,0,3.5,1.645Z" transform="translate(0 6.867) rotate(-45)"/>
    </symbol>

    <symbol id="icon-send-message" viewBox="0 0 46 44">
        <title>send-message</title>
        <!-- width="46" height="44" -->
        <path d="M14.4137 42.1699C14.3156 41.9999 14.2497 41.8132 14.2194 41.6193L12.0565 27.805L1.17525 19.0242C0.931187 18.8272 0.750781 18.5625 0.65671 18.2633C0.56264 17.9641 0.559101 17.6437 0.646536 17.3425C0.73397 17.0413 0.908479 16.7727 1.14813 16.5704C1.38779 16.368 1.68189 16.2411 1.9935 16.2054L35.9182 12.3448C36.2174 12.3354 36.5135 12.4073 36.7751 12.5529C37.0366 12.6985 37.2537 12.9123 37.4034 13.1715C37.553 13.4307 37.6296 13.7256 37.6249 14.0249C37.6202 14.3242 37.5345 14.6166 37.3767 14.871L17.071 42.3204C16.9139 42.5324 16.7066 42.7021 16.4677 42.8141C16.2287 42.9262 15.9657 42.977 15.7022 42.9622C15.4388 42.9474 15.1831 42.8673 14.9583 42.7291C14.7335 42.5909 14.5465 42.3991 14.4142 42.1707L14.4137 42.1699ZM14.9117 26.1565C15.0097 26.3265 15.0756 26.5132 15.1061 26.7071L16.7757 37.3709L32.6393 15.9215L6.1327 18.9367L14.5326 25.7137C14.685 25.8368 14.8135 25.9869 14.9117 26.1565V26.1565Z" fill="#374163"/>
    </symbol>

    <symbol id="icon-star" viewBox="0 0 32 30">
        <title>Star</title>
        <!-- width="32" height="30" -->
        <path d="M15.51 0L20.303 9.71204L31.02 11.269L23.265 18.828L25.096 29.5021L15.51 24.462L5.92401 29.5021L7.755 18.828L0 11.269L10.717 9.71204L15.51 0Z" fill="white"/>
    </symbol>

    <symbol id="icon-checked" viewBox="0 0 28 20">
        <title>Checked</title>
        <!-- width="28" height="20" -->
        <path d="M9.69202 19.999L0 7.07495L5.60004 2.875L10.978 10.045L23.649 0L27.998 5.48401L9.69202 19.999Z" fill="white"/>
    </symbol>

    <symbol id="icon-back" viewBox="0 0 27 21">
        <title>Back</title>
        <!-- width="27" height="21" -->
        <path d="M26.1845 11.1001H4.26953" stroke="black" />
        <path d="M11.846 2L3 10.846L11.846 19.691" stroke="black" />
    </symbol>

    <symbol id="icon-check-small" viewBox="0 0 25 22">
        <title>Back</title>
        <!-- width="25" height="22" -->
        <path d="M4.08142 8.49917L10.8148 16.0032L22.2712 5.01042" stroke="#708A41" stroke-width="5.00125"/>
    </symbol>

    <symbol id="icon-back2" viewBox="0 0 24 13">
        <title>Back</title>
        <!-- width="24" height="13"  -->
        <path d="M-0.000366211 6.2782C-0.000376342 6.19365 0.016333 6.10994 0.0487671 6.03186C0.0812012 5.95378 0.128747 5.8829 0.18866 5.82324L5.82263 0.189209C5.88237 0.129252 5.95339 0.0816553 6.03156 0.0491943C6.10972 0.0167334 6.1935 0 6.27814 0C6.36277 0 6.44661 0.0167334 6.52478 0.0491943C6.60295 0.0816553 6.6739 0.129252 6.73364 0.189209C6.85419 0.309952 6.92188 0.47355 6.92188 0.644165C6.92188 0.81478 6.85419 0.978501 6.73364 1.09924L1.55463 6.27722L6.73364 11.4562C6.85419 11.5769 6.92188 11.7405 6.92188 11.9111C6.92188 12.0817 6.85419 12.2455 6.73364 12.3662C6.67384 12.426 6.60281 12.4735 6.52466 12.5059C6.4465 12.5382 6.36274 12.5549 6.27814 12.5549C6.19354 12.5549 6.10977 12.5382 6.03162 12.5059C5.95346 12.4735 5.88244 12.426 5.82263 12.3662L0.18866 6.73218C0.128822 6.67267 0.0813226 6.60196 0.0488892 6.52405C0.0164557 6.44614 -0.00029938 6.36259 -0.000366211 6.2782V6.2782Z" />
        <path d="M0.0012207 6.2793C0.0012207 6.1085 0.0691069 5.94463 0.18988 5.82385C0.310654 5.70308 0.474403 5.63525 0.645203 5.63525L23.1802 5.63525C23.351 5.63525 23.5148 5.70308 23.6356 5.82385C23.7564 5.94463 23.8242 6.1085 23.8242 6.2793C23.8242 6.4501 23.7564 6.61385 23.6356 6.73462C23.5148 6.85539 23.351 6.92322 23.1802 6.92322L0.645203 6.92322C0.474403 6.92322 0.310654 6.85539 0.18988 6.73462C0.0691069 6.61385 0.0012207 6.4501 0.0012207 6.2793V6.2793Z" />
    </symbol>

    <symbol id="icon-cart" viewBox="0 0 30 28">
        <title>Cart</title>
        <!-- width="30" height="28" -->
        <path d="M23.6763 19.9099C22.9389 19.9093 22.2178 20.1275 21.6043 20.5367C20.9909 20.946 20.5126 21.528 20.23 22.2092C19.9473 22.8903 19.8731 23.64 20.0166 24.3634C20.1601 25.0867 20.5149 25.7513 21.0362 26.273C21.5574 26.7946 22.2217 27.15 22.9449 27.2941C23.6682 27.4382 24.4179 27.3645 25.0993 27.0824C25.7806 26.8004 26.3631 26.3225 26.7728 25.7094C27.1826 25.0963 27.4013 24.3754 27.4013 23.6379C27.4 22.6501 27.0072 21.7031 26.309 21.0043C25.6108 20.3056 24.6641 19.912 23.6763 19.9099V19.9099ZM23.6763 25.1299C23.3814 25.1299 23.0932 25.0425 22.848 24.8786C22.6028 24.7148 22.4117 24.4819 22.2988 24.2095C22.186 23.9371 22.1564 23.6372 22.214 23.348C22.2715 23.0588 22.4135 22.7931 22.622 22.5846C22.8305 22.3761 23.0962 22.2341 23.3854 22.1766C23.6747 22.119 23.9745 22.1486 24.2469 22.2614C24.5193 22.3743 24.7522 22.5654 24.916 22.8105C25.0799 23.0557 25.1673 23.344 25.1673 23.6389C25.1668 24.0342 25.0095 24.4131 24.73 24.6926C24.4505 24.9721 24.0716 25.1294 23.6763 25.1299V25.1299Z"/>
        <path d="M29.6635 5.49512C29.5589 5.36135 29.4252 5.25319 29.2726 5.17885C29.1199 5.10452 28.9523 5.06596 28.7825 5.06612H6.8995L5.8995 0.859116C5.84195 0.613239 5.70294 0.394056 5.50504 0.237194C5.30715 0.0803327 5.06202 -0.00498253 4.8095 -0.00488273H1.1185C0.821855 -0.00488273 0.537361 0.112958 0.327601 0.322718C0.117842 0.532477 0 0.816972 0 1.11362C0 1.41026 0.117842 1.69476 0.327601 1.90452C0.537361 2.11428 0.821855 2.23212 1.1185 2.23212H3.9265L7.5615 17.4481C7.61994 17.6927 7.75907 17.9105 7.95647 18.0664C8.15386 18.2222 8.398 18.307 8.6495 18.3071H26.0615C26.3114 18.3073 26.5541 18.2238 26.7509 18.0699C26.9478 17.916 27.0874 17.7006 27.1475 17.4581L29.8695 6.45812C29.9108 6.29251 29.9137 6.11966 29.878 5.95276C29.8423 5.78586 29.7689 5.62933 29.6635 5.49512V5.49512ZM25.1865 16.0691H9.5325L7.4385 7.30812H27.3535L25.1865 16.0691Z"/>
        <path d="M10.1421 19.9099C9.40473 19.9099 8.68397 20.1286 8.0709 20.5382C7.45784 20.9478 6.98 21.5301 6.69784 22.2113C6.41568 22.8925 6.34185 23.642 6.4857 24.3652C6.62954 25.0884 6.9846 25.7526 7.50597 26.274C8.02734 26.7954 8.69161 27.1504 9.41477 27.2943C10.1379 27.4381 10.8875 27.3643 11.5687 27.0821C12.2499 26.8 12.8321 26.3221 13.2418 25.7091C13.6514 25.096 13.8701 24.3752 13.8701 23.6379C13.8687 22.6496 13.4755 21.7021 12.7767 21.0033C12.0778 20.3044 11.1304 19.9112 10.1421 19.9099V19.9099ZM10.1421 25.1299C9.84717 25.1299 9.5589 25.0425 9.31371 24.8786C9.06851 24.7148 8.87741 24.4819 8.76456 24.2095C8.65171 23.9371 8.62218 23.6372 8.67971 23.348C8.73724 23.0588 8.87925 22.7931 9.08777 22.5846C9.29629 22.3761 9.56196 22.2341 9.85118 22.1766C10.1404 22.119 10.4402 22.1486 10.7126 22.2614C10.9851 22.3743 11.218 22.5654 11.3818 22.8105C11.5456 23.0557 11.6331 23.344 11.6331 23.6389C11.6325 24.0342 11.4753 24.4131 11.1958 24.6926C10.9163 24.9721 10.5373 25.1294 10.1421 25.1299Z"/>
    </symbol>

    <symbol id="icon-time" viewBox="0 0 19 19">
        <title>Time</title>
        <!-- width="19" height="19" -->
        <path d="M9.66125 18.01C8.53797 18.0065 7.42763 17.7701 6.40027 17.3159C5.37291 16.8617 4.45084 16.1994 3.69226 15.371C3.60625 15.2767 3.55859 15.1536 3.55859 15.026C3.55859 14.8984 3.60625 14.7753 3.69226 14.681C3.7333 14.6361 3.78329 14.6001 3.83899 14.5756C3.89469 14.551 3.95487 14.5383 4.01575 14.5383C4.07663 14.5383 4.1368 14.551 4.1925 14.5756C4.24821 14.6001 4.29819 14.6361 4.33923 14.681C5.01569 15.4198 5.83797 16.0103 6.75415 16.4153C7.67033 16.8203 8.66053 17.0309 9.66223 17.0339C11.7233 16.9624 13.6721 16.0776 15.0825 14.573C16.4929 13.0684 17.25 11.0664 17.1882 9.005C17.25 6.94362 16.4929 4.94165 15.0825 3.43701C13.6721 1.93237 11.7233 1.04747 9.66223 0.975952C9.53694 0.971777 9.41845 0.918041 9.33276 0.826538C9.24707 0.735035 9.20116 0.613334 9.2052 0.488037C9.20116 0.36274 9.24707 0.240917 9.33276 0.149414C9.41845 0.0579109 9.53694 0.0041753 9.66223 0C14.3162 0 18.1033 4.04 18.1033 9.005C18.1033 13.97 14.3163 18.01 9.66125 18.01Z" />
        <path d="M5.94067 16.874C5.85222 16.8737 5.76463 16.8559 5.68311 16.8215C5.60158 16.7872 5.52763 16.7371 5.46558 16.6741C5.33996 16.5481 5.26953 16.3775 5.26953 16.1996C5.26953 16.0217 5.33996 15.8511 5.46558 15.7251L9.07666 12.114V4.00403C9.07666 3.8258 9.14741 3.65483 9.27344 3.52881C9.39946 3.40278 9.57043 3.33203 9.74866 3.33203C9.92688 3.33203 10.0977 3.40278 10.2238 3.52881C10.3498 3.65483 10.4207 3.8258 10.4207 4.00403V12.3931C10.4201 12.4813 10.4021 12.5686 10.3678 12.6499C10.3335 12.7312 10.2834 12.8051 10.2206 12.8671L6.4126 16.675C6.35088 16.7376 6.27741 16.7874 6.19641 16.8215C6.11542 16.8557 6.02857 16.8735 5.94067 16.874Z" />
        <path d="M5.87024 0.596924C5.60317 0.596924 5.34705 0.702997 5.1582 0.891846C4.96935 1.0807 4.86328 1.33681 4.86328 1.60388C4.86355 1.87087 4.96966 2.12688 5.15845 2.31567C5.34724 2.50447 5.60325 2.61058 5.87024 2.61084C6.1374 2.61084 6.39363 2.50486 6.58264 2.31604C6.77165 2.12722 6.87803 1.87105 6.8783 1.60388C6.8783 1.47156 6.85218 1.3405 6.80151 1.21826C6.75084 1.09602 6.6765 0.985002 6.58289 0.89148C6.48927 0.797958 6.37815 0.723766 6.25586 0.673218C6.13357 0.622671 6.00256 0.596793 5.87024 0.596924Z" />
        <path d="M3.42493 2.802C3.15785 2.802 2.90174 2.90807 2.71289 3.09692C2.52404 3.28577 2.41797 3.54201 2.41797 3.80908C2.41797 4.07616 2.52404 4.33227 2.71289 4.52112C2.90174 4.70997 3.15785 4.81604 3.42493 4.81604C3.692 4.81604 3.94824 4.70997 4.13708 4.52112C4.32593 4.33227 4.43201 4.07616 4.43201 3.80908C4.43201 3.54201 4.32593 3.28577 4.13708 3.09692C3.94824 2.90807 3.692 2.802 3.42493 2.802Z" />
        <path d="M1.00708 6.38892C0.740007 6.38892 0.483771 6.49511 0.294922 6.68396C0.106073 6.87281 0 7.12892 0 7.396C0 7.66307 0.106073 7.91918 0.294922 8.10803C0.483771 8.29688 0.740007 8.40295 1.00708 8.40295C1.13932 8.40295 1.27016 8.3769 1.39233 8.32629C1.51451 8.27569 1.62561 8.20154 1.71912 8.10803C1.81262 8.01452 1.88677 7.90355 1.93738 7.78137C1.98798 7.6592 2.01404 7.52824 2.01404 7.396C2.01404 7.26375 1.98798 7.13279 1.93738 7.01062C1.88677 6.88845 1.81262 6.77747 1.71912 6.68396C1.62561 6.59045 1.51451 6.51618 1.39233 6.46558C1.27016 6.41497 1.13932 6.38892 1.00708 6.38892Z" />
        <path d="M1.35852 10.5249C1.09153 10.5252 0.835643 10.6314 0.646852 10.8202C0.45806 11.009 0.351828 11.2649 0.351562 11.5319C0.351562 11.7989 0.457636 12.0552 0.646485 12.244C0.835335 12.4329 1.09145 12.5389 1.35852 12.5389C1.62559 12.5389 1.88183 12.4329 2.07068 12.244C2.25953 12.0552 2.3656 11.7989 2.3656 11.5319C2.3656 11.3996 2.33955 11.2688 2.28894 11.1466C2.23833 11.0244 2.16419 10.9133 2.07068 10.8198C1.97717 10.7263 1.86607 10.6522 1.7439 10.6016C1.62172 10.551 1.49076 10.5249 1.35852 10.5249Z" />
    </symbol>

    <symbol id="icon-location" viewBox="0 0 18 26">
        <title>Location</title>
        <!-- width="18" height="26" -->
        <path d="M96.6,4.452A8.823,8.823,0,0,0,89.107,0c-.133,0-.267,0-.4,0a8.823,8.823,0,0,0-7.5,4.45,9.052,9.052,0,0,0-.118,8.944l6.447,11.8.009.016a1.567,1.567,0,0,0,2.719,0l.009-.016,6.447-11.8A9.052,9.052,0,0,0,96.6,4.452Zm-7.7,7.329a3.656,3.656,0,1,1,3.656-3.656A3.66,3.66,0,0,1,88.907,11.781Z" transform="translate(-79.968 0)" />
    </symbol>

    <symbol id="icon-delete" viewBox="0 0 20 25">
        <title>Delete</title>
        <!-- width="20" height="25" -->
        <path d="M17.91 3.049H13.719V2.286C13.7182 1.67979 13.477 1.09864 13.0482 0.670078C12.6195 0.241513 12.0382 0.000529156 11.432 0L8.384 0C7.7783 0.00132254 7.19783 0.242657 6.76972 0.671136C6.34162 1.09961 6.10079 1.6803 6.1 2.286V3.048H1.905C1.39983 3.04879 0.9156 3.24989 0.558487 3.60719C0.201373 3.96449 0.000528902 4.44883 0 4.954V7.621C0 7.82309 0.0802838 8.01691 0.223186 8.15982C0.366089 8.30272 0.559906 8.383 0.762001 8.383H1.179L1.837 22.21C1.86428 22.7972 2.11691 23.3513 2.54232 23.7569C2.96773 24.1626 3.53317 24.3886 4.121 24.388H15.695C16.2828 24.3886 16.8483 24.1626 17.2737 23.7569C17.6991 23.3513 17.9517 22.7972 17.979 22.21L18.637 8.383H19.054C19.2561 8.383 19.4499 8.30272 19.5928 8.15982C19.7357 8.01691 19.816 7.82309 19.816 7.621V4.954C19.8152 4.44883 19.6141 3.9646 19.2568 3.60749C18.8995 3.25037 18.4152 3.04953 17.91 3.049V3.049ZM7.621 2.286C7.62126 2.08399 7.70163 1.89032 7.84448 1.74748C7.98732 1.60463 8.18099 1.52426 8.383 1.524H11.432C11.634 1.52426 11.8277 1.60463 11.9705 1.74748C12.1134 1.89032 12.1937 2.08399 12.194 2.286V3.048H7.621V2.286ZM1.521 4.954C1.52126 4.85303 1.56149 4.75628 1.63288 4.68488C1.70428 4.61349 1.80103 4.57326 1.902 4.573H17.91C18.011 4.57326 18.1077 4.61349 18.1791 4.68488C18.2505 4.75628 18.2907 4.85303 18.291 4.954V6.859H1.524L1.521 4.954ZM16.456 22.138C16.447 22.3337 16.3629 22.5184 16.2211 22.6536C16.0793 22.7889 15.8909 22.8642 15.695 22.864H4.121C3.92509 22.8642 3.73665 22.7889 3.5949 22.6536C3.45315 22.5184 3.36901 22.3337 3.36 22.138L2.7 8.384H17.111L16.456 22.138Z" />
        <path d="M9.90652 21.3402C10.1086 21.3402 10.3024 21.2599 10.4453 21.117C10.5882 20.9741 10.6685 20.7803 10.6685 20.5782V10.6702C10.6685 10.4681 10.5882 10.2743 10.4453 10.1314C10.3024 9.98849 10.1086 9.9082 9.90652 9.9082C9.70443 9.9082 9.51062 9.98849 9.36772 10.1314C9.22482 10.2743 9.14453 10.4681 9.14453 10.6702V20.5782C9.14453 20.7803 9.22482 20.9741 9.36772 21.117C9.51062 21.2599 9.70443 21.3402 9.90652 21.3402V21.3402Z" />
        <path d="M13.719 21.3402C13.9211 21.3402 14.1149 21.2599 14.2578 21.117C14.4007 20.9741 14.481 20.7803 14.481 20.5782V10.6702C14.481 10.4681 14.4007 10.2743 14.2578 10.1314C14.1149 9.98849 13.9211 9.9082 13.719 9.9082C13.5169 9.9082 13.3231 9.98849 13.1802 10.1314C13.0373 10.2743 12.957 10.4681 12.957 10.6702V20.5782C12.957 20.7803 13.0373 20.9741 13.1802 21.117C13.3231 21.2599 13.5169 21.3402 13.719 21.3402V21.3402Z" />
        <path d="M6.09793 21.3402C6.30003 21.3402 6.49385 21.2599 6.63675 21.117C6.77965 20.9741 6.85994 20.7803 6.85994 20.5782V10.6702C6.85994 10.4681 6.77965 10.2743 6.63675 10.1314C6.49385 9.98849 6.30003 9.9082 6.09793 9.9082C5.89584 9.9082 5.70203 9.98849 5.55913 10.1314C5.41623 10.2743 5.33594 10.4681 5.33594 10.6702V20.5782C5.33594 20.7803 5.41623 20.9741 5.55913 21.117C5.70203 21.2599 5.89584 21.3402 6.09793 21.3402V21.3402Z"/>
    </symbol>

    <symbol id="icon-email" viewBox="0 0 72 55">
        <title>Email</title>
        <!-- width="72" height="55" -->
        <path d="M65.2598 0H6.28775C5.35382 0.0049158 4.43301 0.220252 3.59375 0.630001L35.6338 32.67L42.8148 25.77L67.9548 0.631001C67.1153 0.220792 66.1941 0.00511149 65.2598 0V0Z"/>
        <path d="M70.9177 3.59521L47.2617 27.2502L70.9167 50.9052C71.3264 50.0659 71.5417 49.1451 71.5467 48.2112V6.28822C71.5419 5.3547 71.327 4.43425 70.9177 3.59521Z"/>
        <path d="M0.63 3.59424C0.220251 4.4335 0.0049158 5.35431 0 6.28824L0 48.2112C0.0051344 49.1448 0.220462 50.0653 0.63 50.9042L24.286 27.2492L0.63 3.59424Z"/>
        <path d="M44.2997 30.2139L37.1177 37.1139C36.7242 37.5059 36.1913 37.726 35.6357 37.726C35.0802 37.726 34.5473 37.5059 34.1537 37.1139L27.2537 30.2139L3.59375 53.8689C4.43476 54.2798 5.35772 54.4955 6.29375 54.4999H65.2607C66.1947 54.495 67.1155 54.2796 67.9547 53.8699L44.2997 30.2139Z"/>

    </symbol>

    <symbol id="icon-user" viewBox="0 0 24 25">
        <title>User</title>
        <!-- width="24" height="25" -->
        <path d="M11.7536 11.968C10.5701 11.968 9.413 11.617 8.42893 10.9595C7.44487 10.302 6.67799 9.36742 6.22508 8.27398C5.77216 7.18055 5.65361 5.97735 5.8845 4.81657C6.1154 3.65579 6.68532 2.58954 7.5222 1.75267C8.35907 0.915788 9.42538 0.34588 10.5862 0.114986C11.7469 -0.115908 12.95 0.00258619 14.0434 0.455501C15.1369 0.908416 16.0715 1.6754 16.729 2.65947C17.3865 3.64353 17.7375 4.80048 17.7375 5.984C17.7359 7.57057 17.105 9.0917 15.9831 10.2136C14.8613 11.3354 13.3402 11.9664 11.7536 11.968V11.968ZM11.7536 1.347C10.8363 1.347 9.93945 1.61901 9.17674 2.12864C8.41402 2.63827 7.81952 3.36263 7.46849 4.21011C7.11745 5.05759 7.02561 5.99014 7.20457 6.88983C7.38353 7.78951 7.82546 8.61592 8.4741 9.26455C9.12274 9.91319 9.94893 10.3549 10.8486 10.5339C11.7483 10.7128 12.6811 10.621 13.5285 10.27C14.376 9.91891 15.1002 9.32445 15.6098 8.56173C16.1195 7.79902 16.3916 6.90231 16.3916 5.985C16.3903 4.75533 15.9012 3.57641 15.0317 2.7069C14.1622 1.8374 12.9833 1.34832 11.7536 1.347V1.347Z"/>
        <path d="M22.8391 24.8949C22.6606 24.8949 22.4895 24.824 22.3633 24.6978C22.2371 24.5716 22.166 24.4004 22.166 24.2219C22.1623 21.7072 21.1617 19.2965 19.3835 17.5184C17.6054 15.7402 15.1949 14.7396 12.6802 14.7359H10.833C8.31813 14.7393 5.90729 15.7398 4.12891 17.518C2.35052 19.2962 1.3499 21.707 1.34619 24.2219C1.34619 24.4004 1.27514 24.5716 1.14893 24.6978C1.02271 24.824 0.851586 24.8949 0.673096 24.8949C0.494605 24.8949 0.323478 24.824 0.197266 24.6978C0.0710536 24.5716 0 24.4004 0 24.2219C0.00317671 21.3499 1.14559 18.5964 3.17651 16.5657C5.20744 14.5349 7.96098 13.3928 10.833 13.3899H12.6802C15.552 13.3931 18.3052 14.5353 20.3359 16.566C22.3666 18.5967 23.509 21.35 23.5122 24.2219C23.5122 24.4004 23.4412 24.5716 23.3149 24.6978C23.1887 24.824 23.0176 24.8949 22.8391 24.8949V24.8949Z"/>
    </symbol>

    <symbol id="icon-lock" viewBox="0 0 17 25">
        <title>Lock</title>
        <!-- width="17" height="25" -->
        <path d="M13.457 24.826H2.69116C1.97771 24.8252 1.29355 24.5414 0.789062 24.0369C0.284574 23.5324 0.000794051 22.8484 0 22.135V11.369C0.000529348 10.6554 0.284301 9.9711 0.788818 9.4664C1.29334 8.9617 1.97754 8.6778 2.69116 8.677H13.457C14.1703 8.67911 14.8538 8.96341 15.3582 9.4678C15.8625 9.9722 16.1471 10.6557 16.1492 11.369V22.133C16.1473 22.8465 15.8631 23.5302 15.3586 24.0348C14.8542 24.5394 14.1705 24.8239 13.457 24.826V24.826ZM2.69116 10.026C2.33426 10.0263 1.99187 10.1681 1.7395 10.4205C1.48714 10.6729 1.34524 11.0151 1.34497 11.372V22.133C1.34524 22.4899 1.48714 22.8321 1.7395 23.0845C1.99187 23.3368 2.33426 23.4787 2.69116 23.479H13.457C13.8139 23.4787 14.1561 23.3368 14.4084 23.0845C14.6608 22.8321 14.8027 22.4899 14.803 22.133V11.369C14.8027 11.0121 14.6608 10.6699 14.4084 10.4175C14.1561 10.1651 13.8139 10.0232 13.457 10.023L2.69116 10.026Z" />
        <path d="M12.4473 10.0229H3.7002C3.61178 10.0231 3.52434 10.0058 3.44263 9.97198C3.36092 9.93821 3.28664 9.88866 3.22412 9.82614C3.1616 9.76362 3.11214 9.68938 3.07837 9.60767C3.0446 9.52595 3.02721 9.43836 3.02734 9.34995V4.97595C3.04601 3.64984 3.5859 2.38436 4.53027 1.45319C5.47465 0.522014 6.74749 0 8.07373 0C9.39997 0 10.6731 0.522014 11.6174 1.45319C12.5618 2.38436 13.1017 3.64984 13.1204 4.97595V9.34995C13.1205 9.43836 13.1031 9.52595 13.0693 9.60767C13.0356 9.68938 12.9861 9.76362 12.9236 9.82614C12.8611 9.88866 12.7868 9.93821 12.7051 9.97198C12.6234 10.0058 12.5357 10.0231 12.4473 10.0229V10.0229ZM4.37232 8.67694H11.7722V4.97696C11.7722 3.99566 11.3826 3.05454 10.6887 2.36066C9.99484 1.66677 9.05357 1.27695 8.07227 1.27695C7.09097 1.27695 6.14994 1.66677 5.45606 2.36066C4.76217 3.05454 4.37232 3.99566 4.37232 4.97696V8.67694Z"/>
    </symbol>

    <symbol id="icon-chat" viewBox="0 0 33 33">
        <title>Chat</title>
        <!-- width="33" height="33" -->
        <path d="M16.2267 0C16.2177 0.009 16.2007 0.009 16.1737 0.009C13.1342 0.0028162 10.1547 0.855223 7.57833 2.46807C5.00197 4.08091 2.9335 6.38861 1.61112 9.12544C0.288735 11.8623 -0.233796 14.9169 0.103694 17.9377C0.441184 20.9585 1.62497 23.8225 3.51874 26.2L1.16474 31.666C1.11877 31.7719 1.09414 31.8858 1.09229 32.0012C1.09043 32.1166 1.11138 32.2313 1.15393 32.3386C1.19648 32.4459 1.2598 32.5438 1.34025 32.6265C1.4207 32.7093 1.5167 32.7754 1.62275 32.821C1.78011 32.8888 1.95357 32.9104 2.12275 32.883L10.7507 31.367C12.4737 31.9928 14.2937 32.309 16.1267 32.301C18.2476 32.3076 20.349 31.8963 22.3109 31.0908C24.2728 30.2852 26.0569 29.1012 27.5612 27.6061C29.0655 26.1111 30.2606 24.3344 31.0783 22.3775C31.8959 20.4206 32.3202 18.3218 32.3267 16.201C32.3333 14.0802 31.9221 11.9788 31.1165 10.0169C30.311 8.05494 29.1269 6.27089 27.6319 4.76658C26.1369 3.26227 24.3602 2.06716 22.4033 1.24948C20.4464 0.4318 18.3476 0.00756609 16.2267 0.001V0ZM16.1357 30.547C14.4347 30.5462 12.7477 30.2386 11.1557 29.639C11.0074 29.5806 10.8454 29.5653 10.6887 29.595L3.42975 30.864L5.35174 26.4C5.4169 26.248 5.43823 26.0808 5.41331 25.9174C5.38839 25.7539 5.31822 25.6007 5.21074 25.475C4.16913 24.2653 3.34067 22.8873 2.76075 21.4C1.98987 19.4326 1.66172 17.3197 1.7996 15.2112C1.93748 13.1027 2.53801 11.0504 3.55852 9.20023C4.57903 7.35002 5.99448 5.74725 7.70431 4.5058C9.41414 3.26434 11.3764 2.41467 13.4516 2.01714C15.5269 1.6196 17.6642 1.68397 19.7118 2.20567C21.7594 2.72736 23.6669 3.69359 25.299 5.03568C26.931 6.37778 28.2474 8.06283 29.1547 9.9711C30.0621 11.8794 30.538 13.964 30.5487 16.077V16.13C30.5458 19.952 29.0265 23.6168 26.3243 26.3197C23.6221 29.0227 19.9578 30.543 16.1357 30.547V30.547Z" />
        <path d="M15.453 12.929H10.694C10.4602 12.929 10.236 13.0218 10.0707 13.1871C9.90537 13.3525 9.8125 13.5767 9.8125 13.8105C9.8125 14.0442 9.90537 14.2685 10.0707 14.4338C10.236 14.5991 10.4602 14.692 10.694 14.692H15.453C15.6868 14.692 15.911 14.5991 16.0763 14.4338C16.2416 14.2685 16.3345 14.0442 16.3345 13.8105C16.3345 13.5767 16.2416 13.3525 16.0763 13.1871C15.911 13.0218 15.6868 12.929 15.453 12.929V12.929Z" />
        <path d="M21.6191 17.3359H10.6901C10.4563 17.3359 10.2321 17.4288 10.0668 17.5941C9.90147 17.7594 9.80859 17.9836 9.80859 18.2174C9.80859 18.4512 9.90147 18.6754 10.0668 18.8408C10.2321 19.0061 10.4563 19.0989 10.6901 19.0989H21.6181C21.8519 19.0989 22.0761 19.0061 22.2414 18.8408C22.4067 18.6754 22.4996 18.4512 22.4996 18.2174C22.4996 17.9836 22.4067 17.7594 22.2414 17.5941C22.0761 17.4288 21.8519 17.3359 21.6181 17.3359H21.6191Z"/>
    </symbol>

    <symbol id="icon-eye" viewBox="0 0 19 15">
        <title>Eye</title>
        <!-- width="19" height="15" -->
        <path d="M9.31938 11.914C8.41414 11.914 7.5291 11.6456 6.77641 11.1426C6.02373 10.6397 5.43705 9.92489 5.09062 9.08855C4.7442 8.25221 4.65352 7.33199 4.83012 6.44414C5.00673 5.55629 5.44271 4.74074 6.08281 4.10063C6.72292 3.46053 7.53847 3.02455 8.42632 2.84795C9.31417 2.67134 10.2345 2.76202 11.0708 3.10845C11.9072 3.45487 12.6219 4.04143 13.1248 4.79411C13.6277 5.5468 13.8963 6.43172 13.8963 7.33696C13.895 8.55045 13.4123 9.71388 12.5542 10.5719C11.6962 11.43 10.5329 11.9127 9.31938 11.914ZM9.31938 3.55498C8.57157 3.55498 7.84033 3.77672 7.21855 4.19219C6.59677 4.60765 6.11215 5.1982 5.82597 5.88908C5.5398 6.57997 5.465 7.34021 5.61089 8.07366C5.75678 8.8071 6.11702 9.48079 6.6458 10.0096C7.17458 10.5384 7.84815 10.8985 8.58159 11.0444C9.31503 11.1902 10.0753 11.1153 10.7662 10.8291C11.457 10.543 12.0477 10.0584 12.4632 9.43657C12.8786 8.81479 13.1004 8.0838 13.1004 7.33598C13.0988 6.33387 12.6998 5.37326 11.991 4.66484C11.2822 3.95643 10.3215 3.55811 9.31938 3.55705V3.55498Z"/>
        <path d="M9.32397 13.8309C4.23797 13.8309 0.234186 7.81301 0.0651855 7.55701C0.0228013 7.49201 0 7.41609 0 7.3385C0 7.26091 0.0228013 7.18499 0.0651855 7.12C0.233186 6.864 4.23797 0.844971 9.32397 0.844971C14.41 0.844971 18.414 6.863 18.582 7.12C18.6244 7.18499 18.647 7.26091 18.647 7.3385C18.647 7.41609 18.6244 7.49201 18.582 7.55701C18.414 7.81301 14.41 13.8309 9.32397 13.8309ZM0.883057 7.33789C1.64606 8.40789 5.18297 13.038 9.32397 13.038C13.465 13.038 17.0021 8.41089 17.7651 7.33789C17.0021 6.26789 13.465 1.63794 9.32397 1.63794C5.18297 1.63794 1.64506 6.27399 0.883057 7.33899V7.33789Z"/>
        <path d="M16.2873 14.702C16.1819 14.7016 16.0809 14.6595 16.0063 14.5849L2.07543 0.653918C2.01235 0.577166 1.98001 0.47971 1.98485 0.380481C1.98969 0.281252 2.0313 0.187424 2.10155 0.117175C2.1718 0.0469262 2.26575 0.00531604 2.36498 0.000475896C2.46421 -0.00436425 2.56166 0.0278515 2.63841 0.09093L16.5693 14.022C16.6242 14.0779 16.6616 14.1488 16.6765 14.2257C16.6914 14.3026 16.6832 14.3823 16.6533 14.4547C16.6234 14.5271 16.5729 14.5892 16.508 14.6332C16.4431 14.6771 16.3667 14.7011 16.2883 14.702H16.2873Z"/>
    </symbol>

<!--    <symbol id="icon-time" viewBox="0 0 15 15">-->
<!--        <title>Time</title>-->
<!--        &lt;!&ndash; width="15" height="15" &ndash;&gt;-->
<!--        <path fill-rule="evenodd" clip-rule="evenodd" d="M7.4925 0C3.3525 0 0 3.36 0 7.5C0 11.64 3.3525 15 7.4925 15C11.64 15 15 11.64 15 7.5C15 3.36 11.64 0 7.4925 0ZM7.49937 13.4999C4.18437 13.4999 1.49937 10.8149 1.49937 7.4999C1.49937 4.1849 4.18437 1.4999 7.49937 1.4999C10.8144 1.4999 13.4994 4.1849 13.4994 7.4999C13.4994 10.8149 10.8144 13.4999 7.49937 13.4999ZM6.74979 3.75H7.87479V7.62295L11.2498 9.59262L10.6873 10.5L6.74979 8.17623V3.75Z" fill="#7198CB"/>-->
<!--    </symbol>-->

    <symbol id="icon-star" viewBox="0 0 16 15">
        <title>Star</title>
        <path d="M15.4829 5.27849L10.6864 4.59458L8.54222 0.329912C8.48365 0.213148 8.38731 0.118624 8.26829 0.061169C7.96981 -0.0833961 7.6071 0.0370749 7.45786 0.329912L5.3137 4.59458L0.517213 5.27849C0.384974 5.29702 0.26407 5.35818 0.171503 5.45085C0.0595945 5.5637 -0.0020722 5.71552 5.31712e-05 5.87295C0.00217854 6.03038 0.0679221 6.18055 0.182838 6.29044L3.65316 9.60988L2.83328 14.2971C2.81405 14.4062 2.82635 14.5183 2.86878 14.6208C2.91121 14.7234 2.98207 14.8122 3.07333 14.8772C3.16459 14.9422 3.27259 14.9809 3.38509 14.9887C3.4976 14.9966 3.6101 14.9734 3.70983 14.9217L8.00004 12.7088L12.2902 14.9217C12.4074 14.9829 12.5434 15.0033 12.6737 14.981C13.0024 14.9254 13.2235 14.6196 13.1668 14.2971L12.3469 9.60988L15.8172 6.29044C15.9117 6.19963 15.974 6.08101 15.9929 5.95127C16.0439 5.62693 15.8135 5.32668 15.4829 5.27849Z"/>
    </symbol>

    <symbol id="icon-close" viewBox="0 0 21 21">
        <!-- width="21" height="21"-->
        <title>Close</title>
        <path d="M19.8463 20.3978C19.7738 20.3978 19.7019 20.3836 19.635 20.3558C19.5681 20.328 19.5074 20.2872 19.4563 20.2358L0.161255 0.940796C0.0579932 0.837473 0 0.697347 0 0.55127C0 0.405192 0.0579932 0.265127 0.161255 0.161804C0.212434 0.110524 0.273167 0.0698116 0.340088 0.0420532C0.407009 0.0142949 0.47882 0 0.55127 0C0.623719 0 0.695408 0.0142949 0.762329 0.0420532C0.82925 0.0698116 0.890105 0.110524 0.941284 0.161804L20.2352 19.4568C20.3385 19.5601 20.3965 19.7002 20.3965 19.8463C20.3965 19.9924 20.3385 20.1325 20.2352 20.2358C20.1843 20.2871 20.1236 20.3278 20.0569 20.3556C19.9901 20.3834 19.9186 20.3977 19.8463 20.3978V20.3978Z"/>
        <path d="M0.552246 20.3978C0.479764 20.3978 0.408002 20.3836 0.341064 20.3558C0.274127 20.328 0.213326 20.2872 0.162231 20.2358C0.0589697 20.1325 0.000976562 19.9924 0.000976562 19.8463C0.000976562 19.7002 0.0589697 19.5601 0.162231 19.4568L19.4573 0.161804C19.5085 0.110524 19.5692 0.0698116 19.6361 0.0420532C19.703 0.0142949 19.7748 0 19.8473 0C19.9197 0 19.9914 0.0142949 20.0583 0.0420532C20.1253 0.0698116 20.1861 0.110524 20.2373 0.161804C20.3406 0.265127 20.3986 0.405192 20.3986 0.55127C20.3986 0.697347 20.3406 0.837473 20.2373 0.940796L0.943237 20.2358C0.891991 20.2873 0.831026 20.3281 0.763916 20.3559C0.696806 20.3837 0.624888 20.3979 0.552246 20.3978V20.3978Z"/>
    </symbol>

    <symbol id="icon-arrow" viewBox="0 0 15 8">
        <title>Arrow</title>
        <!-- width="15" height="8" -->
        <path d="M7.27321 7.27753C7.03048 7.278 6.79525 7.19342 6.60835 7.03845L0.375285 1.84115C0.163135 1.66471 0.0297226 1.41117 0.00439587 1.13631C-0.0209309 0.861453 0.0639031 0.587782 0.240235 0.375507C0.416567 0.163232 0.669953 0.0297403 0.94465 0.0043985C1.21935 -0.0209433 1.49285 0.0639406 1.705 0.240377L7.27321 4.89716L12.8414 0.406692C12.9477 0.320348 13.0699 0.255868 13.2012 0.21696C13.3324 0.178051 13.4701 0.16548 13.6062 0.179969C13.7423 0.194458 13.8742 0.235721 13.9943 0.301388C14.1145 0.367055 14.2204 0.45583 14.3062 0.56261C14.4013 0.669489 14.4734 0.794876 14.5178 0.930914C14.5623 1.06695 14.5782 1.21071 14.5645 1.35318C14.5509 1.49565 14.508 1.63377 14.4385 1.75888C14.369 1.88398 14.2744 1.99338 14.1607 2.08022L7.92768 7.10082C7.7354 7.23129 7.50497 7.29351 7.27321 7.27753Z" />
    </symbol>

    <symbol id="icon-flag" viewBox="0 0 24 24">
        <title>Flag</title>
        <!-- width="24" height="24" -->
        <path d="M0.644043 23.823C0.473244 23.823 0.309372 23.7552 0.188599 23.6344C0.0678252 23.5136 0 23.3498 0 23.179V0.644043C0 0.473244 0.0678252 0.309372 0.188599 0.188599C0.309372 0.0678252 0.473244 0 0.644043 0C0.814842 0 0.978592 0.0678252 1.09937 0.188599C1.22014 0.309372 1.28796 0.473244 1.28796 0.644043V23.179C1.28796 23.3498 1.22014 23.5136 1.09937 23.6344C0.978592 23.7552 0.814842 23.823 0.644043 23.823Z" fill="#707070"/>
        <path d="M23.179 16.203H0.644043C0.473244 16.203 0.309372 16.1352 0.188599 16.0144C0.0678252 15.8936 0 15.7298 0 15.559V4.37305C4.44964e-05 4.2885 0.0167634 4.20478 0.0491943 4.12671C0.0816253 4.04863 0.129096 3.97766 0.188965 3.91797L3.91797 0.188965C3.97766 0.129096 4.04863 0.0816253 4.12671 0.0491943C4.20478 0.0167634 4.2885 4.44968e-05 4.37305 3.86308e-10H23.179C23.2856 -3.69446e-06 23.3907 0.0265302 23.4846 0.0771484C23.5785 0.127767 23.6584 0.200923 23.717 0.290039C23.7756 0.379213 23.8112 0.481468 23.8204 0.587769C23.8297 0.694069 23.8123 0.801092 23.77 0.899048L20.661 8.099L23.77 15.299C23.8124 15.3969 23.8298 15.5039 23.8206 15.6102C23.8113 15.7165 23.7757 15.8188 23.717 15.908C23.6589 15.9979 23.5793 16.072 23.4854 16.1235C23.3914 16.175 23.2861 16.2024 23.179 16.203ZM1.28796 14.915H22.2L19.368 8.35693C19.3333 8.27642 19.3153 8.18976 19.3153 8.10205C19.3153 8.01434 19.3333 7.92756 19.368 7.84705L22.2 1.28796H4.63904L1.28796 4.64001V14.915Z" fill="#707070"/>
    </symbol>

    <symbol id="icon-card" viewBox="0 0 34 25">
        <title>Back</title>
        <!-- width="34" height="25" -->
        <path d="M22.4814 12.79C23.0796 12.79 23.5644 12.3051 23.5644 11.707C23.5644 11.1089 23.0796 10.624 22.4814 10.624C21.8833 10.624 21.3984 11.1089 21.3984 11.707C21.3984 12.3051 21.8833 12.79 22.4814 12.79Z" fill="#1A1818"/>
        <path d="M25.5205 12.79C26.1186 12.79 26.6035 12.3051 26.6035 11.707C26.6035 11.1089 26.1186 10.624 25.5205 10.624C24.9224 10.624 24.4375 11.1089 24.4375 11.707C24.4375 12.3051 24.9224 12.79 25.5205 12.79Z" fill="#1A1818"/>
        <path d="M28.5596 12.79C29.1577 12.79 29.6426 12.3051 29.6426 11.707C29.6426 11.1089 29.1577 10.624 28.5596 10.624C27.9614 10.624 27.4766 11.1089 27.4766 11.707C27.4766 12.3051 27.9614 12.79 28.5596 12.79Z" fill="#1A1818"/>
        <path d="M27.892 24.5841H5.19202C3.81532 24.582 2.49563 24.034 1.52234 23.0603C0.549051 22.0866 0.00158687 20.7667 0 19.39V5.19006C0.00264455 3.81406 0.550569 2.49514 1.52374 1.52234C2.49692 0.54954 3.81601 0.0021144 5.19202 0H27.892C29.2684 0.00158556 30.5879 0.548873 31.5616 1.52173C32.5352 2.49458 33.0834 3.81371 33.086 5.19006V19.39C33.0844 20.7671 32.5367 22.0873 31.563 23.061C30.5892 24.0348 29.269 24.5825 27.892 24.5841V24.5841ZM5.19202 2.24707C4.41084 2.24786 3.66187 2.55844 3.10941 3.11072C2.55694 3.663 2.24608 4.41194 2.24503 5.19312V19.3931C2.24556 20.1746 2.55618 20.924 3.1087 21.4767C3.66123 22.0294 4.41049 22.3403 5.19202 22.3411H27.892C28.6735 22.3403 29.4228 22.0294 29.9753 21.4767C30.5279 20.924 30.8385 20.1746 30.839 19.3931V5.19312C30.838 4.41194 30.5271 3.663 29.9746 3.11072C29.4222 2.55844 28.6732 2.24786 27.892 2.24707H5.19202Z" fill="#1A1818"/>
        <path d="M31.9625 7.38013H0.105469V9.62613H31.9625V7.38013Z" fill="#1A1818"/>
    </symbol>

    <symbol id="icon-plus" viewBox="0 0 23 23">
        <title>Plus</title>
        <!-- width="23" height="23" -->
        <path d="M21.891 11.912H0.644043C0.473244 11.912 0.309372 11.8442 0.188599 11.7234C0.0678252 11.6026 0 11.4388 0 11.268C0 11.0972 0.0678252 10.9334 0.188599 10.8126C0.309372 10.6918 0.473244 10.624 0.644043 10.624H21.891C21.9756 10.6239 22.0594 10.6405 22.1376 10.6728C22.2158 10.7051 22.2869 10.7525 22.3467 10.8123C22.4065 10.8721 22.4539 10.9432 22.4862 11.0214C22.5185 11.0996 22.5352 11.1834 22.535 11.268C22.5352 11.3526 22.5185 11.4365 22.4862 11.5146C22.4539 11.5928 22.4065 11.6639 22.3467 11.7237C22.2869 11.7835 22.2158 11.831 22.1376 11.8633C22.0594 11.8956 21.9756 11.9121 21.891 11.912V11.912Z" />
        <path d="M11.269 22.535C11.0982 22.535 10.9344 22.4671 10.8136 22.3464C10.6928 22.2256 10.625 22.0618 10.625 21.891V0.643982C10.625 0.473183 10.6928 0.309372 10.8136 0.188599C10.9344 0.0678252 11.0982 0 11.269 0C11.4398 0 11.6036 0.0678252 11.7244 0.188599C11.8451 0.309372 11.913 0.473183 11.913 0.643982V21.891C11.913 22.0618 11.8451 22.2256 11.7244 22.3464C11.6036 22.4671 11.4398 22.535 11.269 22.535V22.535Z" />
    </symbol>

    <symbol id="icon-upload" viewBox="0 0 24 24">
        <title>Upload</title>
        <!-- width="24" height="24" -->
        <path d="M18.661 23.824H5.16101C3.79272 23.8224 2.48096 23.2782 1.51343 22.3107C0.545896 21.3431 0.00158796 20.0313 0 18.663V11.913C0 11.7422 0.0678252 11.5784 0.188599 11.4576C0.309372 11.3369 0.473244 11.269 0.644043 11.269C0.814842 11.269 0.978592 11.3369 1.09937 11.4576C1.22014 11.5784 1.28809 11.7422 1.28809 11.913V18.663C1.28914 19.6899 1.69749 20.6744 2.42358 21.4005C3.14968 22.1266 4.13415 22.535 5.16101 22.536H18.661C19.6878 22.5347 20.6722 22.1263 21.3982 21.4002C22.1242 20.6742 22.5327 19.6898 22.5341 18.663V11.913C22.5339 11.8284 22.5504 11.7446 22.5828 11.6664C22.6151 11.5883 22.6626 11.5172 22.7224 11.4573C22.7822 11.3975 22.8532 11.3501 22.9314 11.3178C23.0096 11.2855 23.0934 11.2689 23.178 11.269C23.2626 11.2689 23.3465 11.2855 23.4247 11.3178C23.5029 11.3501 23.5738 11.3975 23.6337 11.4573C23.6935 11.5172 23.741 11.5883 23.7733 11.6664C23.8056 11.7446 23.8222 11.8284 23.822 11.913V18.663C23.8204 20.0313 23.2762 21.3431 22.3087 22.3107C21.3412 23.2782 20.0293 23.8224 18.661 23.824Z"/>
        <path d="M16.7354 6.1181C16.6508 6.11811 16.5671 6.10146 16.489 6.06903C16.4109 6.0366 16.3401 5.98905 16.2804 5.92914L11.9064 1.55511L7.53235 5.92914C7.41161 6.04968 7.24801 6.11737 7.07739 6.11737C6.90678 6.11737 6.74318 6.04968 6.62244 5.92914C6.5626 5.86933 6.51505 5.79831 6.48267 5.72015C6.45028 5.642 6.43359 5.55823 6.43359 5.47363C6.43359 5.38903 6.45028 5.30527 6.48267 5.22711C6.51505 5.14896 6.5626 5.07793 6.62244 5.01813L11.4514 0.189148C11.5111 0.129341 11.5821 0.0818718 11.6602 0.0494995C11.7382 0.0171273 11.8219 0.000488281 11.9064 0.000488281C11.9909 0.000488281 12.0746 0.0171273 12.1527 0.0494995C12.2308 0.0818718 12.3017 0.129341 12.3615 0.189148L17.1904 5.01813C17.2503 5.07793 17.2977 5.14896 17.3301 5.22711C17.3625 5.30527 17.3792 5.38903 17.3792 5.47363C17.3792 5.55823 17.3625 5.642 17.3301 5.72015C17.2977 5.79831 17.2503 5.86933 17.1904 5.92914C17.1307 5.98901 17.0598 6.03648 16.9817 6.06891C16.9036 6.10134 16.8199 6.11806 16.7354 6.1181V6.1181Z" />
        <path d="M11.9097 15.748C11.7389 15.748 11.575 15.6802 11.4542 15.5594C11.3335 15.4386 11.2656 15.2748 11.2656 15.104V0.644043C11.2656 0.473244 11.3335 0.309433 11.4542 0.18866C11.575 0.0678862 11.7389 0 11.9097 0C12.0805 0 12.2442 0.0678862 12.365 0.18866C12.4858 0.309433 12.5536 0.473244 12.5536 0.644043V15.104C12.5536 15.2748 12.4858 15.4386 12.365 15.5594C12.2442 15.6802 12.0805 15.748 11.9097 15.748V15.748Z" />
    </symbol>

</svg>