<svg xmlns="http://www.w3.org/2000/svg" width="19.816" height="24.389" viewBox="0 0 19.816 24.389">
  <g id="trash" transform="translate(-48)">
    <path id="Контур_2308" data-name="Контур 2308" d="M65.91,3.049H61.719V2.286A2.289,2.289,0,0,0,59.432,0H56.384A2.289,2.289,0,0,0,54.1,2.286v.762H49.905A1.908,1.908,0,0,0,48,4.954V7.621a.762.762,0,0,0,.762.762h.417l.658,13.827a2.284,2.284,0,0,0,2.284,2.178H63.695a2.284,2.284,0,0,0,2.284-2.178l.658-13.827h.417a.762.762,0,0,0,.762-.762V4.954A1.908,1.908,0,0,0,65.91,3.049ZM55.621,2.286a.763.763,0,0,1,.762-.762h3.049a.763.763,0,0,1,.762.762v.762H55.621Zm-6.1,2.668a.382.382,0,0,1,.381-.381H65.91a.382.382,0,0,1,.381.381V6.859H49.524ZM64.456,22.138a.761.761,0,0,1-.761.726H52.121a.761.761,0,0,1-.761-.726L50.7,8.384H65.111Z" fill="#fff"/>
    <path id="Контур_2309" data-name="Контур 2309" d="M240.762,219.432a.762.762,0,0,0,.762-.762v-9.908a.762.762,0,0,0-1.524,0v9.908A.762.762,0,0,0,240.762,219.432Z" transform="translate(-182.854 -198.092)" fill="#fff"/>
    <path id="Контур_2310" data-name="Контур 2310" d="M320.762,219.432a.762.762,0,0,0,.762-.762v-9.908a.762.762,0,1,0-1.524,0v9.908A.762.762,0,0,0,320.762,219.432Z" transform="translate(-259.044 -198.092)" fill="#fff"/>
    <path id="Контур_2311" data-name="Контур 2311" d="M160.762,219.432a.762.762,0,0,0,.762-.762v-9.908a.762.762,0,0,0-1.524,0v9.908A.762.762,0,0,0,160.762,219.432Z" transform="translate(-106.665 -198.092)" fill="#fff"/>
  </g>
</svg>
