<svg width="24" height="25" viewBox="0 0 24 25" fill="none" xmlns="http://www.w3.org/2000/svg">
<path d="M11.7536 11.968C10.5701 11.968 9.413 11.617 8.42893 10.9595C7.44487 10.302 6.67799 9.36742 6.22508 8.27398C5.77216 7.18055 5.65361 5.97735 5.8845 4.81657C6.1154 3.65579 6.68532 2.58954 7.5222 1.75267C8.35907 0.915788 9.42538 0.34588 10.5862 0.114986C11.7469 -0.115908 12.95 0.00258619 14.0434 0.455501C15.1369 0.908416 16.0715 1.6754 16.729 2.65947C17.3865 3.64353 17.7375 4.80048 17.7375 5.984C17.7359 7.57057 17.105 9.0917 15.9831 10.2136C14.8613 11.3354 13.3402 11.9664 11.7536 11.968V11.968ZM11.7536 1.347C10.8363 1.347 9.93945 1.61901 9.17674 2.12864C8.41402 2.63827 7.81952 3.36263 7.46849 4.21011C7.11745 5.05759 7.02561 5.99014 7.20457 6.88983C7.38353 7.78951 7.82546 8.61592 8.4741 9.26455C9.12274 9.91319 9.94893 10.3549 10.8486 10.5339C11.7483 10.7128 12.6811 10.621 13.5285 10.27C14.376 9.91891 15.1002 9.32445 15.6098 8.56173C16.1195 7.79902 16.3916 6.90231 16.3916 5.985C16.3903 4.75533 15.9012 3.57641 15.0317 2.7069C14.1622 1.8374 12.9833 1.34832 11.7536 1.347V1.347Z" fill="#707070"/>
<path d="M22.8391 24.8949C22.6606 24.8949 22.4895 24.824 22.3633 24.6978C22.2371 24.5716 22.166 24.4004 22.166 24.2219C22.1623 21.7072 21.1617 19.2965 19.3835 17.5184C17.6054 15.7402 15.1949 14.7396 12.6802 14.7359H10.833C8.31813 14.7393 5.90729 15.7398 4.12891 17.518C2.35052 19.2962 1.3499 21.707 1.34619 24.2219C1.34619 24.4004 1.27514 24.5716 1.14893 24.6978C1.02271 24.824 0.851586 24.8949 0.673096 24.8949C0.494605 24.8949 0.323478 24.824 0.197266 24.6978C0.0710536 24.5716 0 24.4004 0 24.2219C0.00317671 21.3499 1.14559 18.5964 3.17651 16.5657C5.20744 14.5349 7.96098 13.3928 10.833 13.3899H12.6802C15.552 13.3931 18.3052 14.5353 20.3359 16.566C22.3666 18.5967 23.509 21.35 23.5122 24.2219C23.5122 24.4004 23.4412 24.5716 23.3149 24.6978C23.1887 24.824 23.0176 24.8949 22.8391 24.8949V24.8949Z" fill="#707070"/>
</svg>
