<svg id="whatsapp" xmlns="http://www.w3.org/2000/svg" width="81.104" height="81.104" viewBox="0 0 81.104 81.104">
  <path id="Контур_2635" data-name="Контур 2635" d="M40.562,0h-.02A40.527,40.527,0,0,0,7.72,64.32L2.666,79.385,18.253,74.4A40.545,40.545,0,1,0,40.562,0Z" fill="#4caf50"/>
  <path id="Контур_2636" data-name="Контур 2636" d="M154.431,155.8c-.978,2.763-4.861,5.054-7.958,5.723-2.119.451-4.887.811-14.2-3.052-11.917-4.937-19.592-17.047-20.19-17.833-.573-.786-4.816-6.412-4.816-12.231a12.946,12.946,0,0,1,4.146-9.869,5.892,5.892,0,0,1,4.146-1.455c.5,0,.953.025,1.358.046,1.191.051,1.789.122,2.575,2,.978,2.357,3.361,8.176,3.645,8.774a2.414,2.414,0,0,1,.172,2.195,7.008,7.008,0,0,1-1.313,1.86c-.6.689-1.166,1.217-1.764,1.957-.547.644-1.166,1.333-.476,2.524a35.993,35.993,0,0,0,6.58,8.176,29.813,29.813,0,0,0,9.509,5.865,2.564,2.564,0,0,0,2.859-.451,49.06,49.06,0,0,0,3.168-4.2,2.263,2.263,0,0,1,2.91-.882c1.095.38,6.889,3.244,8.08,3.837s1.977.882,2.266,1.384S155.409,153.037,154.431,155.8Z" transform="translate(-90.273 -98.541)" fill="#fafafa"/>
</svg>
