<svg xmlns="http://www.w3.org/2000/svg" width="45.008" height="43.549" viewBox="0 0 45.008 43.549">
  <g id="Сгруппировать_1396" data-name="Сгруппировать 1396" transform="translate(29.798 0) rotate(60)">
    <path id="Контур_2376" data-name="Контур 2376" d="M28.829,34.408a1.593,1.593,0,0,1-.574-.107L15.21,29.267,2.165,34.3A1.591,1.591,0,0,1,.133,32.182L13.752.872a1.655,1.655,0,0,1,2.917,0l13.619,31.31a1.592,1.592,0,0,1-1.458,2.226ZM15.21,25.97a1.6,1.6,0,0,1,.574.107l10.07,3.886L15.21,5.5,4.568,29.963l10.069-3.886A1.6,1.6,0,0,1,15.21,25.97Z" fill="#374163"/>
  </g>
</svg>
