<svg id="Сгруппировать_2171" data-name="Сгруппировать 2171" xmlns="http://www.w3.org/2000/svg" width="10.356" height="10.356" viewBox="0 0 10.356 10.356">
  <g id="Сгруппировать_200" data-name="Сгруппировать 200" transform="translate(0 4.882)">
    <path id="Контур_200" data-name="Контур 200" d="M-1336.82,780.748h-9.764a.3.3,0,0,1-.3-.3.3.3,0,0,1,.3-.3h9.764a.3.3,0,0,1,.3.3A.3.3,0,0,1-1336.82,780.748Z" transform="translate(1346.88 -780.156)" fill="#fff"/>
  </g>
  <g id="Сгруппировать_201" data-name="Сгруппировать 201" transform="translate(4.882 0)">
    <path id="Контур_201" data-name="Контур 201" d="M-1313.068,757a.3.3,0,0,1-.3-.3v-9.764a.3.3,0,0,1,.3-.3.3.3,0,0,1,.3.3V756.7A.3.3,0,0,1-1313.068,757Z" transform="translate(1313.364 -746.64)" fill="#fff"/>
  </g>
</svg>
