<svg id="Сгруппировать_1878" data-name="Сгруппировать 1878" xmlns="http://www.w3.org/2000/svg" width="23.823" height="23.823" viewBox="0 0 23.823 23.823">
  <g id="Сгруппировать_404" data-name="Сгруппировать 404" transform="translate(0 0)">
    <g id="Сгруппировать_401" data-name="Сгруппировать 401" transform="translate(0 11.268)">
      <g id="Сгруппировать_400" data-name="Сгруппировать 400">
        <path id="Контур_331" data-name="Контур 331" d="M-1330.249,630.211h-13.5a5.167,5.167,0,0,1-5.161-5.161V618.3a.644.644,0,0,1,.644-.644.644.644,0,0,1,.644.644v6.75a3.877,3.877,0,0,0,3.873,3.873h13.5a3.878,3.878,0,0,0,3.873-3.873V618.3a.643.643,0,0,1,.644-.644.643.643,0,0,1,.644.644v6.75A5.167,5.167,0,0,1-1330.249,630.211Z" transform="translate(1348.911 -617.656)" fill="#707070"/>
      </g>
    </g>
    <g id="Сгруппировать_402" data-name="Сгруппировать 402" transform="translate(6.439)">
      <path id="Контур_332" data-name="Контур 332" d="M-1318.3,588.225a.642.642,0,0,1-.455-.189l-4.374-4.374-4.374,4.374a.644.644,0,0,1-.91,0,.644.644,0,0,1,0-.911l4.829-4.829a.643.643,0,0,1,.91,0l4.829,4.829a.644.644,0,0,1,0,.911A.643.643,0,0,1-1318.3,588.225Z" transform="translate(1328.599 -582.108)" fill="#707070"/>
    </g>
    <g id="Сгруппировать_403" data-name="Сгруппировать 403" transform="translate(11.268 0)">
      <path id="Контур_333" data-name="Контур 333" d="M-1312.72,597.856a.644.644,0,0,1-.644-.644v-14.46a.644.644,0,0,1,.644-.644.644.644,0,0,1,.644.644v14.46A.644.644,0,0,1-1312.72,597.856Z" transform="translate(1313.364 -582.109)" fill="#707070"/>
    </g>
  </g>
</svg>
