<svg xmlns="http://www.w3.org/2000/svg" width="24" height="13" viewBox="0 0 24 13"><g><g><g><g><path fill="#fff" d="M20.516 11.651l-5.72-.023h-2.604l-.275-9.145c.664-.325 1.853-.667 2.598-.667a4.64 4.64 0 0 1 4.632 4.4l.018.32.315.062s.162.031.518.066c1.408.14 2.392 1.139 2.392 2.428 0 1.23-.718 2.56-1.874 2.56zm-.437-5.803l-.142-.015A5.46 5.46 0 0 0 14.515.996c-.988 0-2.517.472-3.225.894l-.207.124.313 10.433 9.119.024c1.686 0 2.694-1.718 2.694-3.38 0-1.726-1.287-3.059-3.13-3.243z"/><path fill="none" stroke="#f8f9ff" stroke-miterlimit="50" stroke-width=".35" d="M20.516 11.651l-5.72-.023h-2.604l-.275-9.145c.664-.325 1.853-.667 2.598-.667a4.64 4.64 0 0 1 4.632 4.4l.018.32.315.062s.162.031.518.066c1.408.14 2.392 1.139 2.392 2.428 0 1.23-.718 2.56-1.874 2.56zm-.437-5.803l-.142-.015A5.46 5.46 0 0 0 14.515.996c-.988 0-2.517.472-3.225.894l-.207.124.313 10.433 9.119.024c1.686 0 2.694-1.718 2.694-3.38 0-1.726-1.287-3.059-3.13-3.243z"/></g><g><path fill="#fff" d="M9.04 12.47V3.456h.82v9.016z"/><path fill="none" stroke="#f8f9ff" stroke-miterlimit="50" stroke-width=".35" d="M9.04 12.47v0-9.015 0h.82v9.016z"/></g><g><path fill="#fff" d="M6.992 12.47V4.276h.82v8.196z"/><path fill="none" stroke="#f8f9ff" stroke-miterlimit="50" stroke-width=".35" d="M6.992 12.47v0-8.195 0h.82v8.196z"/></g><g><path fill="#fff" d="M4.943 12.47V4.686h.82v7.786z"/><path fill="none" stroke="#f8f9ff" stroke-miterlimit="50" stroke-width=".35" d="M4.943 12.47v0-7.785 0h.82v7.786z"/></g><g><path fill="#fff" d="M2.894 12.47V6.325h.82v6.147z"/><path fill="none" stroke="#f8f9ff" stroke-miterlimit="50" stroke-width=".35" d="M2.894 12.47v0-6.146 0h.82v6.147z"/></g><g><path fill="#fff" d="M.845 11.241V7.553h.82v3.688z"/><path fill="none" stroke="#f8f9ff" stroke-miterlimit="50" stroke-width=".35" d="M.845 11.241v0-3.688 0h.82v3.688z"/></g></g></g></g></svg>