<svg xmlns="http://www.w3.org/2000/svg" width="16" height="15" viewBox="0 0 16 15"><g><g><g><g><path fill="#fff" d="M.633 15V5.098H3.93V15z"/></g><g><path fill="#fff" d="M14.751 6.003c-.693-.757-1.609-1.135-2.748-1.135-.42 0-.8.052-1.144.155a2.597 2.597 0 0 0-.87.435c-.236.186-.424.36-.564.52a4.287 4.287 0 0 0-.39.528V5.098H5.749l.01.48c.007.32.01 1.305.01 2.957s-.006 3.807-.02 6.465h3.288V9.474c0-.34.036-.609.11-.809.14-.34.35-.624.634-.854.283-.23.635-.345 1.054-.345.573 0 .995.198 1.264.594.27.397.405.945.405 1.644V15h3.287V9.325c0-1.46-.346-2.567-1.039-3.322z"/></g><g><path fill="#fff" d="M2.301.332c-.553 0-1 .162-1.344.485-.343.323-.514.73-.514 1.224 0 .486.166.892.5 1.219.332.326.772.49 1.318.49h.02c.56 0 1.011-.164 1.354-.49.343-.327.511-.733.505-1.22-.007-.492-.177-.9-.51-1.223C3.297.494 2.854.332 2.301.332z"/></g></g></g></g></svg>