<svg xmlns="http://www.w3.org/2000/svg" width="15" height="16" viewBox="0 0 15 16"><g><g><g><path fill="#fff" d="M7.5 10.49a2.491 2.491 0 0 1-2.48-2.48c0-1.361 1.12-2.48 2.481-2.48 1.361 0 2.48 1.119 2.48 2.48 0 1.36-1.119 2.48-2.48 2.48zm0-6.352A3.879 3.879 0 0 0 3.63 8.01 3.86 3.86 0 0 0 7.5 11.88a3.879 3.879 0 0 0 3.872-3.871c0-2.117-1.754-3.872-3.871-3.872z"/></g><g><path fill="#fff" d="M10.646 4.048a.877.877 0 1 1 1.755 0 .877.877 0 0 1-1.755 0z"/></g><g><path fill="#fff" d="M13.671 11.155c0 .938-.333 1.694-.877 2.208-.544.514-1.3.787-2.208.787h-6.17c-.907 0-1.664-.273-2.208-.787-.544-.544-.817-1.3-.817-2.238v-6.2c0-.908.273-1.664.817-2.208.514-.514 1.3-.787 2.208-.787h6.23c.908 0 1.664.273 2.208.817.515.544.817 1.3.817 2.178zm.121-9.376C13.006.963 11.887.54 10.616.54h-6.23C1.754.54 0 2.293 0 4.925v6.2c0 1.3.423 2.42 1.27 3.236.817.787 1.906 1.18 3.146 1.18h6.17c1.3 0 2.39-.423 3.176-1.18.816-.786 1.24-1.905 1.24-3.206v-6.23c0-1.27-.424-2.36-1.21-3.146z"/></g></g></g></svg>