<svg xmlns="http://www.w3.org/2000/svg" width="508" height="513" viewBox="0 0 508 513"><defs><mask id="6896b" width="2" height="2" x="-1" y="-1"><path fill="#fff" d="M59 58h388v386H59z"/><path d="M59 289.2L321.567 58l125.206 386z"/></mask><filter id="6896a" width="556" height="556" x="-25" y="-26" filterUnits="userSpaceOnUse"><feOffset dy="2" in="SourceGraphic" result="FeOffset1025Out"/><feGaussianBlur in="FeOffset1025Out" result="FeGaussianBlur1026Out" stdDeviation="29.6 29.6"/></filter><mask id="6896d" width="2" height="2" x="-1" y="-1"><path fill="#fff" d="M60 129h274v323H60z"/><path d="M60.74 198.85L333.916 129 282.71 452z"/></mask><filter id="6896c" width="442" height="493" x="-24" y="45" filterUnits="userSpaceOnUse"><feOffset dy="2" in="SourceGraphic" result="FeOffset1041Out"/><feGaussianBlur in="FeOffset1041Out" result="FeGaussianBlur1042Out" stdDeviation="29.6 29.6"/></filter></defs><g><g><g><g filter="url(#6896a)"><path fill="none" d="M59 289.2L321.567 58l125.206 386z" mask="url(&quot;#6896b&quot;)"/><path fill="#26d13d" fill-opacity=".05" d="M59 289.2L321.567 58l125.206 386z"/></g><path fill="none" stroke="#26d13d" stroke-miterlimit="50" stroke-width="5" d="M59 289.2v0L321.567 58v0l125.206 386v0z"/></g><g><g filter="url(#6896c)"><path fill="none" d="M60.74 198.85L333.916 129 282.71 452z" mask="url(&quot;#6896d&quot;)"/><path fill="#26d13d" fill-opacity=".05" d="M60.74 198.85L333.916 129 282.71 452z"/></g><path fill="none" stroke="#53ff6a" stroke-miterlimit="50" stroke-width="5" d="M60.74 198.85v0L333.916 129v0L282.71 452v0z"/></g></g></g></svg>