<svg class="sprite-icons" xmlns="http://www.w3.org/2000/svg">

    <symbol id="icon-location" viewBox="0 0 14 20">
        <title>Location</title>
        <!-- width="14" height="20" -->
        <path d="M7 0C3.13 0 0 3.128 0 6.99553C0 12.2422 7 19.9872 7 19.9872C7 19.9872 14 12.2422 14 6.99553C14 3.128 10.87 0 7 0Z" fill="#219653"/>
        <path d="M7 9.49388C5.62 9.49388 4.5 8.3746 4.5 6.99548C4.5 5.61636 5.62 4.49707 7 4.49707C8.38 4.49707 9.5 5.61636 9.5 6.99548C9.5 8.3746 8.38 9.49388 7 9.49388Z" fill="#FEFEFE"/>
    </symbol>

    <symbol id="icon-burger" viewBox="0 0 17 15">
        <title>Burger</title>
        <!-- width="17" height="15" -->
        <rect x="0.8" y="0.8" width="15.3999" height="1.55908" rx="0.779542" fill="#222222" stroke="#222222" stroke-width="0.4"/>
        <rect x="0.8" y="6.72041" width="15.3999" height="1.55908" rx="0.779542" fill="#222222" stroke="#222222" stroke-width="0.4"/>
        <rect x="0.8" y="12.6408" width="15.3999" height="1.55908" rx="0.779542" fill="#222222" stroke="#222222" stroke-width="0.4"/>
    </symbol>

    <symbol id="icon-telegram" viewBox="0 0 21 20">
        <title>Telegram</title>
        <!-- width="21" height="20" -->
        <path d="M20.2691 0.242683C20.1565 0.13075 20.0142 0.0532513 19.859 0.0192998C19.7038 -0.0146517 19.5422 -0.00364489 19.393 0.0510261L1.03842 6.71735C0.880125 6.77732 0.743843 6.88397 0.647674 7.02313C0.551505 7.16229 0.5 7.32738 0.5 7.49648C0.5 7.66557 0.551505 7.83066 0.647674 7.96982C0.743843 8.10899 0.880125 8.21563 1.03842 8.2756L8.20507 11.1338L13.4945 5.83406L14.6709 7.009L9.3564 12.3171L12.2264 19.475C12.2882 19.6301 12.3952 19.763 12.5336 19.8566C12.6719 19.9502 12.8352 20.0002 13.0023 20C13.1709 19.9965 13.3345 19.9421 13.4715 19.844C13.6085 19.7458 13.7126 19.6084 13.7699 19.45L20.4443 1.11764C20.5011 0.970209 20.5148 0.809679 20.4838 0.654765C20.4528 0.49985 20.3783 0.356935 20.2691 0.242683Z"/>
    </symbol>

    <symbol id="icon-close" viewBox="0 0 28 28">
        <title>Burger</title>
        <!-- width="28" height="28" -->
        <rect x="3.27405" y="0.717157" width="34.5104" height="3.03581" rx="1.2" transform="rotate(45 3.27405 0.717157)" fill="#219653" stroke="#219653" stroke-width="0.4"/>
        <path d="M1.56569 24.2711C1.09706 24.7397 1.09706 25.4995 1.56568 25.9682L2.01527 26.4177C2.4839 26.8864 3.2437 26.8864 3.71233 26.4177L26.4178 3.71229C26.8864 3.24366 26.8864 2.48387 26.4178 2.01524L25.9682 1.56565C25.4996 1.09702 24.7398 1.09702 24.2711 1.56565L1.56569 24.2711Z" fill="#219653" stroke="#219653" stroke-width="0.4"/>
    </symbol>

    <symbol id="icon-time" viewBox="0 0 15 15">
        <title>Time</title>
        <!-- width="15" height="15" -->
        <path fill-rule="evenodd" clip-rule="evenodd" d="M7.4925 0C3.3525 0 0 3.36 0 7.5C0 11.64 3.3525 15 7.4925 15C11.64 15 15 11.64 15 7.5C15 3.36 11.64 0 7.4925 0ZM7.49937 13.4999C4.18437 13.4999 1.49937 10.8149 1.49937 7.4999C1.49937 4.1849 4.18437 1.4999 7.49937 1.4999C10.8144 1.4999 13.4994 4.1849 13.4994 7.4999C13.4994 10.8149 10.8144 13.4999 7.49937 13.4999ZM6.74979 3.75H7.87479V7.62295L11.2498 9.59262L10.6873 10.5L6.74979 8.17623V3.75Z" fill="#7198CB"/>
    </symbol>

    <symbol id="icon-star" viewBox="0 0 16 15">
        <title>Star</title>
        <path d="M15.4829 5.27849L10.6864 4.59458L8.54222 0.329912C8.48365 0.213148 8.38731 0.118624 8.26829 0.061169C7.96981 -0.0833961 7.6071 0.0370749 7.45786 0.329912L5.3137 4.59458L0.517213 5.27849C0.384974 5.29702 0.26407 5.35818 0.171503 5.45085C0.0595945 5.5637 -0.0020722 5.71552 5.31712e-05 5.87295C0.00217854 6.03038 0.0679221 6.18055 0.182838 6.29044L3.65316 9.60988L2.83328 14.2971C2.81405 14.4062 2.82635 14.5183 2.86878 14.6208C2.91121 14.7234 2.98207 14.8122 3.07333 14.8772C3.16459 14.9422 3.27259 14.9809 3.38509 14.9887C3.4976 14.9966 3.6101 14.9734 3.70983 14.9217L8.00004 12.7088L12.2902 14.9217C12.4074 14.9829 12.5434 15.0033 12.6737 14.981C13.0024 14.9254 13.2235 14.6196 13.1668 14.2971L12.3469 9.60988L15.8172 6.29044C15.9117 6.19963 15.974 6.08101 15.9929 5.95127C16.0439 5.62693 15.8135 5.32668 15.4829 5.27849Z"/>
    </symbol>

    <symbol id="icon-arrow" viewBox="0 0 15 8">
        <title>Arrow</title>
        <!-- width="15" height="8" -->
        <path d="M7.27321 7.27753C7.03048 7.278 6.79525 7.19342 6.60835 7.03845L0.375285 1.84115C0.163135 1.66471 0.0297226 1.41117 0.00439587 1.13631C-0.0209309 0.861453 0.0639031 0.587782 0.240235 0.375507C0.416567 0.163232 0.669953 0.0297403 0.94465 0.0043985C1.21935 -0.0209433 1.49285 0.0639406 1.705 0.240377L7.27321 4.89716L12.8414 0.406692C12.9477 0.320348 13.0699 0.255868 13.2012 0.21696C13.3324 0.178051 13.4701 0.16548 13.6062 0.179969C13.7423 0.194458 13.8742 0.235721 13.9943 0.301388C14.1145 0.367055 14.2204 0.45583 14.3062 0.56261C14.4013 0.669489 14.4734 0.794876 14.5178 0.930914C14.5623 1.06695 14.5782 1.21071 14.5645 1.35318C14.5509 1.49565 14.508 1.63377 14.4385 1.75888C14.369 1.88398 14.2744 1.99338 14.1607 2.08022L7.92768 7.10082C7.7354 7.23129 7.50497 7.29351 7.27321 7.27753Z" />
    </symbol>

    <symbol id="icon-to-top" viewBox="0 0 50 50">
        <title>To Top</title>
        <!-- width="50" height="50" -->
        <rect width="50" height="50" rx="10" fill="#219653" fill-opacity="0.7"/>
        <path d="M25.4725 16.0057C24.8894 16.0046 24.3243 16.2022 23.8753 16.564L8.90155 28.7006C8.3919 29.1126 8.0714 29.7047 8.01056 30.3465C7.94972 30.9884 8.15352 31.6274 8.57712 32.1231C9.00073 32.6188 9.60944 32.9306 10.2693 32.9897C10.9293 33.0489 11.5863 32.8507 12.096 32.4387L25.4725 21.5643L38.8491 32.0503C39.1044 32.2519 39.3981 32.4025 39.7134 32.4934C40.0287 32.5842 40.3594 32.6136 40.6864 32.5797C41.0134 32.5459 41.3303 32.4496 41.6189 32.2962C41.9074 32.1429 42.162 31.9356 42.368 31.6862C42.5965 31.4366 42.7696 31.1438 42.8764 30.8262C42.9832 30.5085 43.0214 30.1728 42.9886 29.8401C42.9558 29.5074 42.8527 29.1849 42.6858 28.8927C42.5189 28.6006 42.2917 28.3451 42.0186 28.1423L27.0448 16.4184C26.5829 16.1137 26.0293 15.9684 25.4725 16.0057Z" fill="#FEFEFE"/>
    </symbol>

    <symbol id="icon-home" viewBox="0 0 12 10">
        <title>To Top</title>
        <!-- width="12" height="10" -->
        <path d="M4.8 10V6.47059H7.2V10H10.2V5.29412H12L6 0L0 5.29412H1.8V10H4.8Z" fill="#222222"/>
    </symbol>

</svg>