<svg width="96" height="96" viewBox="0 0 96 96" fill="none" xmlns="http://www.w3.org/2000/svg">
<path fill-rule="evenodd" clip-rule="evenodd" d="M48 0C21.504 0 0 21.504 0 48C0 74.496 21.504 96 48 96C74.496 96 96 74.496 96 48C96 21.504 74.496 0 48 0ZM48 86.4C26.832 86.4 9.6 69.168 9.6 48C9.6 26.832 26.832 9.6 48 9.6C69.168 9.6 86.4 26.832 86.4 48C86.4 69.168 69.168 86.4 48 86.4ZM35.5716 55.5989C37.1346 57.1558 39.663 57.1534 41.223 55.5934L67.1936 29.6228C68.7596 28.0568 71.2999 28.0613 72.8604 29.6328L73.9915 30.772C75.5442 32.3357 75.5397 34.8606 73.9815 36.4188L41.2284 69.1719C39.6663 70.734 37.1337 70.734 35.5716 69.1719L22.0284 55.6288C20.4663 54.0667 20.4663 51.534 22.0284 49.9719L23.145 48.8553C24.705 47.2954 27.2334 47.2929 28.7964 48.8499L35.5716 55.5989Z" fill="#219653"/>
</svg>
