<svg width="50" height="50" viewBox="0 0 50 50" fill="none" xmlns="http://www.w3.org/2000/svg">
<rect width="50" height="50" rx="10" fill="#219653" fill-opacity="0.7"/>
<path d="M25.4725 16.0057C24.8894 16.0046 24.3243 16.2022 23.8753 16.564L8.90155 28.7006C8.3919 29.1126 8.0714 29.7047 8.01056 30.3465C7.94972 30.9884 8.15352 31.6274 8.57712 32.1231C9.00073 32.6188 9.60944 32.9306 10.2693 32.9897C10.9293 33.0489 11.5863 32.8507 12.096 32.4387L25.4725 21.5643L38.8491 32.0503C39.1044 32.2519 39.3981 32.4025 39.7134 32.4934C40.0287 32.5842 40.3594 32.6136 40.6864 32.5797C41.0134 32.5459 41.3303 32.4496 41.6189 32.2962C41.9074 32.1429 42.162 31.9356 42.368 31.6862C42.5965 31.4366 42.7696 31.1438 42.8764 30.8262C42.9832 30.5085 43.0214 30.1728 42.9886 29.8401C42.9558 29.5074 42.8527 29.1849 42.6858 28.8927C42.5189 28.6006 42.2917 28.3451 42.0186 28.1423L27.0448 16.4184C26.5829 16.1137 26.0293 15.9684 25.4725 16.0057Z" fill="#FEFEFE"/>
</svg>
