<svg class="sprite-icons" xmlns="http://www.w3.org/2000/svg">

	<symbol id="icon-get">
		<!-- width="10" height="10" viewBox="0 0 10 10" -->
		<path d="M10 3.85542L7.10317 3.81526L8.57143 1.28514L6.50794 0.0401606L5.03968 2.57028L3.61111 0L1.50794 1.20482L2.93651 3.7751L0.0396825 3.73494L0 6.14458L2.89683 6.18474L1.42857 8.71486L3.49206 9.95984L4.96032 7.42972L6.38889 10L8.49206 8.79518L7.06349 6.2249L9.96032 6.26506L10 3.85542ZM5 6.34538C4.72222 6.34538 4.48413 6.26506 4.24603 6.10442C3.88889 5.86345 3.65079 5.46185 3.65079 4.97992C3.65079 4.93976 3.65079 4.8996 3.65079 4.8996C3.69048 4.41767 3.96825 3.9759 4.40476 3.7751C4.60317 3.69478 4.80159 3.61446 5 3.61446C5.2381 3.61446 5.43651 3.69478 5.63492 3.7751C6.07143 4.01606 6.34921 4.45783 6.34921 4.97992C6.34921 5.50201 6.03175 5.98394 5.59524 6.18474C5.43651 6.30522 5.19841 6.34538 5 6.34538Z" fill="white"/>
	</symbol>

	<symbol id="icon-plus">
		<!-- width="40" height="40" viewBox="0 0 40 40" -->
		<path d="M22 10H18V18H10V22H18V30H22V22H30V18H22V10ZM20 0C8.9 0 0 8.9 0 20C0 31.1 8.9 40 20 40C31.1 40 40 31 40 20C40 9 31 0 20 0ZM20 36C11.2 36 4 28.8 4 20C4 11.2 11.2 4 20 4C28.8 4 36 11.2 36 20C36 28.8 28.8 36 20 36Z"/>
	</symbol>

	<symbol id="icon-play">
		<!-- width="50" height="50" viewBox="0 0 50 50" -->
		<path fill-rule="evenodd" clip-rule="evenodd" d="M6 0C2.68629 0 0 2.68629 0 6V44C0 47.3137 2.68629 50 6 50H44C47.3137 50 50 47.3137 50 44V6C50 2.68629 47.3137 0 44 0H6ZM17.5 14.1747L36.25 25L17.5 35.8253L17.5 14.1747Z" fill="#F0F0F0"/>
	</symbol>
	
	<symbol id="icon-all">
		<!-- width="40" height="36" viewBox="0 0 40 36" -->
		<path d="M4 8H0V36H32V32H4V8Z" fill="#F0F0F0"/>
		<path d="M8 0V28H40V0H8ZM36 24H12V4H36V24Z" fill="#F0F0F0"/>
		<path d="M22 20H26V16H30V12H26V8H22V12H18V16H22V20Z" fill="#F0F0F0"/>
	</symbol>

	<symbol id="icon-people">
		<!-- width="40" height="36" viewBox="0 0 40 36" -->
		<path d="M26 18C29.4 18 32 15.4 32 12C32 8.6 29.4 6 26 6C22.6 6 20 8.6 20 12C20 15.4 22.6 18 26 18ZM26 10C27.2 10 28 10.8 28 12C28 13.2 27.2 14 26 14C24.8 14 24 13.2 24 12C24 10.8 24.8 10 26 10Z" fill="#F0F0F0"/>
		<path d="M26 20C24.8 20 23.8 20.2 22.6 20.4C20.6 16.4 16.6 14 12 14C5.4 14 0 19.4 0 26V28H13.4C12.4 29.8 12 31.8 12 34V36H40V34C40 26.2 33.8 20 26 20ZM12 18C14.8 18 17.4 19.6 18.8 22C17.8 22.6 17 23.2 16.2 24H4.2C5.2 20.6 8.2 18 12 18ZM16.2 32C17.2 27.4 21.2 24 26 24C30.8 24 34.8 27.4 35.8 32H16.2Z" fill="#F0F0F0"/>
		<path d="M12 12C15.4 12 18 9.4 18 6C18 2.6 15.4 0 12 0C8.6 0 6 2.6 6 6C6 9.4 8.6 12 12 12ZM12 4C13.2 4 14 4.8 14 6C14 7.2 13.2 8 12 8C10.8 8 10 7.2 10 6C10 4.8 10.8 4 12 4Z" fill="#F0F0F0"/>
	</symbol>

	<symbol id="icon-close-form">
		<!-- width="40" height="40" viewBox="0 0 40 40" -->
		<rect x="1.60449" width="53.8966" height="2.26933" transform="rotate(45 1.60449 0)" fill="#C4C4C4"/>
		<rect x="40" y="1.60468" width="53.8966" height="2.26933" transform="rotate(135 40 1.60468)" fill="#C4C4C4"/>
	</symbol>

	<symbol id="icon-phone">
		<!-- width="30" height="30" viewBox="0 0 30 30" -->
		<circle cx="15" cy="15" r="15" fill="#56E164"/>
		<path fill-rule="evenodd" clip-rule="evenodd" d="M13.1756 10.8889L11.022 13.0425C11.022 13.0425 10.8119 13.3052 11.1271 13.5678C12.8604 15.4062 14.6463 17.1396 16.4847 18.9255C16.7474 19.1881 17.01 18.978 17.01 18.978L19.1636 16.8769L22 19.7659C22 19.7659 21.5798 20.4487 20.5818 21.2892C19.5313 22.1296 18.4807 22.2872 16.5898 21.6043C13.4907 20.4487 9.55127 16.5618 8.44822 13.4102C7.76537 11.5193 7.87043 10.4687 8.71085 9.41821C9.55127 8.42021 10.2866 8 10.2866 8L13.1756 10.8889Z" fill="#F0F0F0"/>
	</symbol>

	<symbol id="icon-fb" fill="transparent">
		<!-- width="30" height="30" viewBox="0 0 30 30" -->
		<circle cx="15" cy="15" r="13.5" stroke="#434343" stroke-width="3"/>
		<path d="M17.5909 27V17.8235H20.5455L21 14.2941H17.5909V11.9412C17.5909 11 17.8182 10.2941 19.1818 10.2941H21V7.23529C20.7727 7 19.6364 7 18.2727 7C15.7727 7 13.9545 8.64706 13.9545 11.7059V14.2941H11V17.8235H13.9545V27H17.5909Z" fill="#434343"/>
	</symbol>
	
	<symbol id="icon-inst" fill="transparent">
		<!-- width="30" height="30" viewBox="0 0 30 30" -->
		<circle cx="15" cy="15" r="13.5" stroke="#434343" stroke-width="3"/>
		<circle cx="15" cy="15" r="5.75" stroke="#434343" stroke-width="2.5"/>
		<circle cx="21.5" cy="8.5" r="1.5" fill="#434343"/>
	</symbol>

	<symbol id="icon-error">
		<!-- width="14" height="15" viewBox="0 0 14 15" -->
		<path d="M11.4545 0L7 4.45545L2.54545 0L0 2.54545L4.45455 7.0009L0 11.4563L2.54545 14.0018L7 9.54636L11.4545 14.0018L14 11.4563L9.54545 7.0009L14 2.54545L11.4545 0Z" fill="#DD9049"/>
	</symbol>

	<symbol id="icon-arrow">
		<!-- width="70" height="24" viewBox="0 0 70 24" -->
		<path d="M58.0682 0L70 11.9318L58.0682 23.8636V15.9091H0V7.95455H58.0682V0Z" fill="#F0F0F0"/>
	</symbol>

</svg>