<svg width="15" height="12" viewBox="0 0 15 12" fill="none" xmlns="http://www.w3.org/2000/svg">
<path d="M5.27182 12C5.14327 11.9996 5.01618 11.971 4.89845 11.9162C4.78072 11.8614 4.67485 11.7815 4.58744 11.6813L0.209319 6.70215C0.0597239 6.50618 -0.0142723 6.25721 0.00228118 6.00553C0.0188347 5.75385 0.124703 5.51822 0.298498 5.34626C0.472293 5.17429 0.701057 5.07881 0.938571 5.0791C1.17609 5.07938 1.40464 5.17542 1.57807 5.34781L5.27182 9.54028L13.3343 0.368623C13.4153 0.262579 13.5159 0.175349 13.6299 0.112352C13.7439 0.0493547 13.8689 0.0119368 13.9972 0.00242163C14.1254 -0.00709357 14.2541 0.0114973 14.3752 0.0570401C14.4964 0.102583 14.6075 0.174104 14.7015 0.267161C14.7956 0.360218 14.8706 0.472823 14.9219 0.59798C14.9733 0.723137 14.9999 0.858175 15 0.994701C15.0001 1.13123 14.9739 1.26633 14.9228 1.39161C14.8717 1.51689 14.7969 1.62968 14.7031 1.72296L5.95619 11.6813C5.86878 11.7815 5.76292 11.8614 5.64519 11.9162C5.52745 11.971 5.40037 11.9996 5.27182 12Z" fill="#11AB59"/>
</svg>
