<svg class="sprite-icons" xmlns="http://www.w3.org/2000/svg">

	<!-- <symbol id="icon-star">
		 width="34" height="32" viewBox="0 0 34 32"
		<g>
			<g>
				<path d="M17 25.723L27.506 32l-2.78-11.838L34 12.2l-12.225-1.039L17 0l-4.775 11.161L0 12.201l9.274 7.96L6.494 32z"/>
			</g>
		</g>
	</symbol> -->

	<symbol id="icon-star">
		<!-- width="16" height="17" viewBox="0 0 16 17" -->
		<path d="M16 6.56836C16 6.71159 15.9167 6.86784 15.75 7.03711L12.2596 10.4941L13.0865 15.377C13.093 15.4225 13.0962 15.4876 13.0962 15.5723C13.0962 15.709 13.0625 15.8245 12.9952 15.9189C12.9279 16.0133 12.8301 16.0605 12.7019 16.0605C12.5801 16.0605 12.4519 16.0215 12.3173 15.9434L8 13.6387L3.68269 15.9434C3.54166 16.0215 3.41346 16.0605 3.29808 16.0605C3.16346 16.0605 3.0625 16.0133 2.99519 15.9189C2.92788 15.8245 2.89423 15.709 2.89423 15.5723C2.89423 15.5332 2.90064 15.4681 2.91346 15.377L3.74038 10.4941L0.240385 7.03711C0.080125 6.86133 0 6.70508 0 6.56836C0 6.32747 0.17949 6.17773 0.538462 6.11914L5.36538 5.40625L7.52885 0.962891C7.65064 0.695967 7.80769 0.5625 8 0.5625C8.19231 0.5625 8.34936 0.695967 8.47115 0.962891L10.6346 5.40625L15.4615 6.11914C15.8205 6.17773 16 6.32747 16 6.56836Z"/>
	</symbol>

	<symbol id="star-orange">
		<!-- width="16" height="17" viewBox="0 0 16 17" -->
		<path d="M16 6.56836C16 6.71159 15.9167 6.86784 15.75 7.03711L12.2596 10.4941L13.0865 15.377C13.093 15.4225 13.0962 15.4876 13.0962 15.5723C13.0962 15.709 13.0625 15.8245 12.9952 15.9189C12.9279 16.0133 12.8301 16.0605 12.7019 16.0605C12.5801 16.0605 12.4519 16.0215 12.3173 15.9434L8 13.6387L3.68269 15.9434C3.54166 16.0215 3.41346 16.0605 3.29808 16.0605C3.16346 16.0605 3.0625 16.0133 2.99519 15.9189C2.92788 15.8245 2.89423 15.709 2.89423 15.5723C2.89423 15.5332 2.90064 15.4681 2.91346 15.377L3.74038 10.4941L0.240385 7.03711C0.080125 6.86133 0 6.70508 0 6.56836C0 6.32747 0.17949 6.17773 0.538462 6.11914L5.36538 5.40625L7.52885 0.962891C7.65064 0.695967 7.80769 0.5625 8 0.5625C8.19231 0.5625 8.34936 0.695967 8.47115 0.962891L10.6346 5.40625L15.4615 6.11914C15.8205 6.17773 16 6.32747 16 6.56836Z" fill="#F7841F"/>
	</symbol>

	<symbol id="step-item">
		<!-- width="155" height="62" viewBox="0 0 155 62" -->
		<path d="M1.3879 6.1426C-0.392849 3.84247 1.24654 0.5 4.15543 0.5H130.038C131.121 0.5 132.143 1.00119 132.806 1.85739L153.709 28.8574C154.686 30.1189 154.686 31.8811 153.709 33.1426L132.806 60.1426C132.143 60.9988 131.121 61.5 130.038 61.5H4.15544C1.24654 61.5 -0.392848 58.1575 1.3879 55.8574L18.4996 33.7548C19.7553 32.1329 19.7553 29.8671 18.4996 28.2452L1.3879 6.1426Z" />
	</symbol>

	<symbol id="arrow-button">
		<!-- width="6" height="12" viewBox="0 0 6 12" -->
		<path d="M0.209609 1.39968L4.23177 6L0.209609 10.6003C0.0753555 10.7545 0 10.9631 0 11.1805C0 11.3979 0.0753555 11.6065 0.209609 11.7607C0.344663 11.914 0.527355 12 0.717785 12C0.908215 12 1.09091 11.914 1.22596 11.7607L5.81036 6.52669C5.93186 6.38649 6 6.19722 6 6C6 5.80278 5.93186 5.61351 5.81036 5.47331L1.22596 0.239309C1.09091 0.0860331 0.908215 0 0.717785 0C0.527355 0 0.344663 0.0860331 0.209609 0.239309C0.0753555 0.3935 0 0.60208 0 0.819493C0 1.03691 0.0753555 1.24549 0.209609 1.39968Z"/>
	</symbol>

	<symbol id="icon-link">
		<!-- width="12" height="12" viewBox="0 0 12 12" -->
		<path d="M9 6.5V9.5C9 9.76522 8.89464 10.0196 8.70711 10.2071C8.51957 10.3946 8.26522 10.5 8 10.5H2.5C2.23478 10.5 1.98043 10.3946 1.79289 10.2071C1.60536 10.0196 1.5 9.76522 1.5 9.5V4C1.5 3.73478 1.60536 3.48043 1.79289 3.29289C1.98043 3.10536 2.23478 3 2.5 3H5.5" fill="transparent" stroke="white" stroke-linecap="round" stroke-linejoin="round"/>
		<path d="M7.5 1.5H10.5V4.5" stroke="white" stroke-linecap="round" stroke-linejoin="round"/>
		<path d="M5 7L10.5 1.5" stroke="white" stroke-linecap="round" stroke-linejoin="round"/>
	</symbol>

	<symbol id="icon-link2">
		<!-- width="16" height="16" viewBox="0 0 16 16" -->
		<path d="M12 8.66667V12.6667C12 13.0203 11.8595 13.3594 11.6095 13.6095C11.3594 13.8595 11.0203 14 10.6667 14H3.33333C2.97971 14 2.64057 13.8595 2.39052 13.6095C2.14048 13.3594 2 13.0203 2 12.6667V5.33333C2 4.97971 2.14048 4.64057 2.39052 4.39052C2.64057 4.14048 2.97971 4 3.33333 4H7.33333" stroke="#0969BD" stroke-linecap="round" stroke-linejoin="round"/>
		<path d="M10 2H14V6" stroke="#0969BD" stroke-linecap="round" stroke-linejoin="round"/>
		<path d="M6.66699 9.33333L14.0003 2" stroke="#0969BD" stroke-linecap="round" stroke-linejoin="round"/>
	</symbol>
	
	<symbol id="link-style">
		<!-- width="12" height="12" viewBox="0 0 12 12" -->
		<path d="M9 6.5V9.5C9 9.76522 8.89464 10.0196 8.70711 10.2071C8.51957 10.3946 8.26522 10.5 8 10.5H2.5C2.23478 10.5 1.98043 10.3946 1.79289 10.2071C1.60536 10.0196 1.5 9.76522 1.5 9.5V4C1.5 3.73478 1.60536 3.48043 1.79289 3.29289C1.98043 3.10536 2.23478 3 2.5 3H5.5" stroke-linecap="round" stroke-linejoin="round"/>
		<path d="M7.5 1.5H10.5V4.5" stroke-linecap="round" stroke-linejoin="round"/>
		<path d="M5 7L10.5 1.5" stroke-linecap="round" stroke-linejoin="round"/>
	</symbol>
	
	<symbol id="icon-infog">
		<!-- width="15" height="15" viewBox="0 0 15 15" -->
		<path d="M7.5 1.5C10.8 1.5 13.5 4.2 13.5 7.5C13.5 10.8 10.8 13.5 7.5 13.5C4.2 13.5 1.5 10.8 1.5 7.5C1.5 4.2 4.2 1.5 7.5 1.5ZM7.5 0C3.375 0 0 3.375 0 7.5C0 11.625 3.375 15 7.5 15C11.625 15 15 11.625 15 7.5C15 3.375 11.625 0 7.5 0Z" />
		<path d="M8.25 11.25H6.75V9.75H8.25V11.25ZM8.25 8.25H6.75V3.75H8.25V8.25Z" />
	</symbol>

	<symbol id="icon-check">
		<!-- width="15" height="12" viewBox="0 0 15 12" -->
		<path d="M5.27182 12C5.14327 11.9996 5.01618 11.971 4.89845 11.9162C4.78072 11.8614 4.67485 11.7815 4.58744 11.6813L0.209319 6.70215C0.0597239 6.50618 -0.0142723 6.25721 0.00228118 6.00553C0.0188347 5.75385 0.124703 5.51822 0.298498 5.34626C0.472293 5.17429 0.701057 5.07881 0.938571 5.0791C1.17609 5.07938 1.40464 5.17542 1.57807 5.34781L5.27182 9.54028L13.3343 0.368623C13.4153 0.262579 13.5159 0.175349 13.6299 0.112352C13.7439 0.0493547 13.8689 0.0119368 13.9972 0.00242163C14.1254 -0.00709357 14.2541 0.0114973 14.3752 0.0570401C14.4964 0.102583 14.6075 0.174104 14.7015 0.267161C14.7956 0.360218 14.8706 0.472823 14.9219 0.59798C14.9733 0.723137 14.9999 0.858175 15 0.994701C15.0001 1.13123 14.9739 1.26633 14.9228 1.39161C14.8717 1.51689 14.7969 1.62968 14.7031 1.72296L5.95619 11.6813C5.86878 11.7815 5.76292 11.8614 5.64519 11.9162C5.52745 11.971 5.40037 11.9996 5.27182 12Z"/>
	</symbol>

	<symbol id="video-icon">
		<!-- width="68" height="48" viewBox="0 0 68 48" -->
		<path fill-rule="evenodd" clip-rule="evenodd" d="M64.0225 3.21286C62.6491 1.9616 60.9098 1.14099 59.0075 0.930035C54.873 0.465573 50.7009 0.231784 46.5151 0.114568C42.356 -0.00184321 38.1792 -0.00184307 34.0116 0.000568772C29.8447 -0.00184305 25.6681 -0.00184318 21.5085 0.114568C17.3221 0.231783 13.1489 0.46557 9.01195 0.930035C7.11152 1.1411 5.37295 1.96208 4.00085 3.21388C2.63747 4.45763 1.63577 6.12801 1.19757 8.04814C0.605993 10.622 0.306734 13.3074 0.155557 16.0095C0.00379117 18.723 0 21.4022 0 24.0031C0 26.6006 5.37485e-05 29.2763 0.148241 31.9914C0.295734 34.6923 0.591361 37.3776 1.18325 39.9519C1.62408 41.8729 2.62625 43.5437 3.98952 44.7874C5.36081 46.0385 7.09767 46.859 8.99755 47.0701C13.135 47.5345 17.3083 47.7683 21.4947 47.8854C25.6542 48.0018 29.8307 48.0018 33.9983 47.9994C38.1677 48.0018 42.3443 48.0018 46.5032 47.8854C50.689 47.7683 54.861 47.5345 58.998 47.0701C60.8975 46.859 62.634 46.0388 64.0059 44.788C65.3699 43.5445 66.3734 41.8734 66.8171 39.9519C67.4064 37.3775 67.7021 34.6922 67.8501 31.9914C67.9962 29.3281 67.9974 26.6262 67.9972 24.0031H68V23.8714H67.9972C67.9973 18.6598 67.9973 13.1399 66.8315 8.04819C66.3907 6.1272 65.3874 4.45647 64.0225 3.21286ZM24.6918 34.3659V12.2782V11.0834L25.7486 11.6373C28.9449 13.3122 32.132 14.9813 35.322 16.652C35.3269 16.6546 35.3318 16.6571 35.3367 16.6597C39.1802 18.6726 43.0282 20.6879 46.9022 22.7185L48.1306 23.3623L46.8994 24.0032L36.3226 29.5082C32.8021 31.3401 29.2815 33.1714 25.7458 35.0097L24.6918 35.5576V34.3659Z"/>
		<path fill-rule="evenodd" clip-rule="evenodd" d="M64.0225 3.21286C62.6491 1.9616 60.9098 1.14099 59.0075 0.930035C54.873 0.465573 50.7009 0.231784 46.5151 0.114568C42.356 -0.00184321 38.1792 -0.00184307 34.0116 0.000568772C29.8447 -0.00184305 25.6681 -0.00184318 21.5085 0.114568C17.3221 0.231783 13.1489 0.46557 9.01195 0.930035C7.11152 1.1411 5.37295 1.96208 4.00085 3.21388C2.63747 4.45763 1.63577 6.12801 1.19757 8.04814C0.605993 10.622 0.306734 13.3074 0.155557 16.0095C0.00379117 18.723 0 21.4022 0 24.0031C0 26.6006 5.37485e-05 29.2763 0.148241 31.9914C0.295734 34.6923 0.591361 37.3776 1.18325 39.9519C1.62408 41.8729 2.62625 43.5437 3.98952 44.7874C5.36081 46.0385 7.09767 46.859 8.99755 47.0701C13.135 47.5345 17.3083 47.7683 21.4947 47.8854C25.6542 48.0018 29.8307 48.0018 33.9983 47.9994C38.1677 48.0018 42.3443 48.0018 46.5032 47.8854C50.689 47.7683 54.861 47.5345 58.998 47.0701C60.8975 46.859 62.634 46.0388 64.0059 44.788C65.3699 43.5445 66.3734 41.8734 66.8171 39.9519C67.4064 37.3775 67.7021 34.6922 67.8501 31.9914C67.9962 29.3281 67.9974 26.6262 67.9972 24.0031H68V23.8714H67.9972C67.9973 18.6598 67.9973 13.1399 66.8315 8.04819C66.3907 6.1272 65.3874 4.45647 64.0225 3.21286ZM24.6918 34.3659V12.2782V11.0834L25.7486 11.6373C28.9449 13.3122 32.132 14.9813 35.322 16.652C35.3269 16.6546 35.3318 16.6571 35.3367 16.6597C39.1802 18.6726 43.0282 20.6879 46.9022 22.7185L48.1306 23.3623L46.8994 24.0032L36.3226 29.5082C32.8021 31.3401 29.2815 33.1714 25.7458 35.0097L24.6918 35.5576V34.3659Z"/>
		<path fill-rule="evenodd" clip-rule="evenodd" d="M24.6917 34.3659V12.2783V11.0835L25.7486 11.6373C28.9449 13.3122 32.132 14.9814 35.3219 16.652C35.3269 16.6546 35.3318 16.6572 35.3367 16.6598C39.1801 18.6726 43.0282 20.6879 46.9022 22.7185L48.1305 23.3624L46.8994 24.0033L36.3226 29.5082C32.8021 31.3401 29.2815 33.1715 25.7458 35.0097L24.6917 35.5577V34.3659Z" fill="white"/>
	</symbol>

</svg>