<svg width="16" height="17" viewBox="0 0 16 17" fill="none" xmlns="http://www.w3.org/2000/svg">
<path d="M16 6.56836C16 6.71159 15.9167 6.86784 15.75 7.03711L12.2596 10.4941L13.0865 15.377C13.093 15.4225 13.0962 15.4876 13.0962 15.5723C13.0962 15.709 13.0625 15.8245 12.9952 15.9189C12.9279 16.0133 12.8301 16.0605 12.7019 16.0605C12.5801 16.0605 12.4519 16.0215 12.3173 15.9434L8 13.6387L3.68269 15.9434C3.54166 16.0215 3.41346 16.0605 3.29808 16.0605C3.16346 16.0605 3.0625 16.0133 2.99519 15.9189C2.92788 15.8245 2.89423 15.709 2.89423 15.5723C2.89423 15.5332 2.90064 15.4681 2.91346 15.377L3.74038 10.4941L0.240385 7.03711C0.080125 6.86133 0 6.70508 0 6.56836C0 6.32747 0.17949 6.17773 0.538462 6.11914L5.36538 5.40625L7.52885 0.962891C7.65064 0.695967 7.80769 0.5625 8 0.5625C8.19231 0.5625 8.34936 0.695967 8.47115 0.962891L10.6346 5.40625L15.4615 6.11914C15.8205 6.17773 16 6.32747 16 6.56836Z" fill="white"/>
</svg>
