<svg width="46" height="46" viewBox="0 0 46 46" fill="none" xmlns="http://www.w3.org/2000/svg">
<path d="M37.9715 32.89L35.8943 30.8128C34.6268 32.8852 32.8851 34.6269 30.8127 35.8944L32.8899 37.9716L37.9715 32.89Z" fill="#C4A2FC"/>
<path d="M44.2318 39.1432L38.9849 33.9035L33.9033 38.9851L39.143 44.232C39.8178 44.9068 40.7331 45.2859 41.6874 45.2859C42.6417 45.2859 43.557 44.9068 44.2318 44.232C44.9066 43.5572 45.2857 42.6419 45.2857 41.6876C45.2857 40.7333 44.9066 39.818 44.2318 39.1432Z" fill="#C4A2FC"/>
<path d="M23 9.34375C20.2991 9.34375 17.6588 10.1447 15.413 11.6452C13.1672 13.1458 11.4169 15.2786 10.3833 17.774C9.34967 20.2693 9.07923 23.0151 9.60616 25.6642C10.1331 28.3133 11.4337 30.7466 13.3436 32.6564C15.2534 34.5663 17.6868 35.8669 20.3358 36.3939C22.9849 36.9208 25.7307 36.6503 28.226 35.6167C30.7214 34.5831 32.8542 32.8328 34.3548 30.587C35.8553 28.3412 36.6563 25.701 36.6563 23C36.6563 19.3781 35.2175 15.9046 32.6564 13.3436C30.0954 10.7825 26.6219 9.34375 23 9.34375ZM23 32.3438C21.152 32.3438 19.3455 31.7957 17.8089 30.769C16.2723 29.7423 15.0747 28.283 14.3675 26.5757C13.6603 24.8684 13.4753 22.9896 13.8358 21.1771C14.1963 19.3646 15.0862 17.6997 16.393 16.393C17.6997 15.0862 19.3646 14.1963 21.1771 13.8358C22.9896 13.4753 24.8684 13.6603 26.5757 14.3675C28.2831 15.0747 29.7423 16.2723 30.7691 17.8089C31.7958 19.3455 32.3438 21.152 32.3438 23C32.3438 25.4781 31.3593 27.8547 29.607 29.607C27.8547 31.3593 25.4781 32.3438 23 32.3438Z" fill="#C4A2FC"/>
<path d="M23 30.9062C20.9031 30.9062 18.8921 30.0733 17.4094 28.5906C15.9267 27.1079 15.0938 25.0969 15.0938 23C15.0938 22.8094 15.1695 22.6266 15.3043 22.4918C15.4391 22.357 15.6219 22.2812 15.8125 22.2812C16.0031 22.2812 16.1859 22.357 16.3207 22.4918C16.4555 22.6266 16.5312 22.8094 16.5312 23C16.5312 24.7156 17.2128 26.361 18.4259 27.5741C19.639 28.7872 21.2844 29.4688 23 29.4688C23.1906 29.4688 23.3734 29.5445 23.5082 29.6793C23.643 29.8141 23.7188 29.9969 23.7188 30.1875C23.7188 30.3781 23.643 30.5609 23.5082 30.6957C23.3734 30.8305 23.1906 30.9062 23 30.9062Z" fill="#C4A2FC"/>
<path d="M20.6353 19.8016C22.3216 18.8877 23.6551 17.4377 24.425 15.681C25.1949 13.9242 25.3573 11.961 24.8865 10.1017C24.4157 8.24231 23.3385 6.59294 21.8253 5.41433C20.3122 4.23572 18.4493 3.59512 16.5312 3.59382C15.7211 3.59401 14.9151 3.71019 14.1378 3.93882C13.9543 3.21718 13.5871 2.55534 13.072 2.01773C12.5568 1.48012 11.9112 1.08506 11.198 0.871011C10.4849 0.656958 9.72842 0.631205 9.00234 0.796259C8.27627 0.961314 7.6053 1.31155 7.05475 1.81288C6.50421 2.3142 6.09285 2.94954 5.86071 3.65703C5.62858 4.36452 5.58359 5.12006 5.73011 5.8501C5.87663 6.58014 6.20968 7.2598 6.69684 7.82292C7.18399 8.38605 7.80865 8.81344 8.51 9.06351C7.73975 11.023 7.71286 13.1966 8.43441 15.1746C9.15597 17.1526 10.5761 18.7983 12.4272 19.8016C9.10129 20.5671 6.13298 22.4371 4.00657 25.1065C1.88016 27.776 0.721187 31.0872 0.71875 34.5001C0.71875 34.6907 0.794475 34.8735 0.929267 35.0083C1.06406 35.1431 1.24688 35.2188 1.4375 35.2188H31.625C31.8156 35.2188 31.9984 35.1431 32.1332 35.0083C32.268 34.8735 32.3438 34.6907 32.3438 34.5001C32.3413 31.0872 31.1823 27.776 29.0559 25.1065C26.9295 22.4371 23.9612 20.5671 20.6353 19.8016ZM16.5312 5.03132C17.9291 5.03204 19.2965 5.44038 20.4659 6.20634C21.6352 6.9723 22.5558 8.06263 23.115 9.34382H15.8125C15.2205 9.34592 14.6341 9.23005 14.0874 9.00298C13.5407 8.77591 13.0447 8.4422 12.6284 8.02132L11.6078 7.00069C12.9343 5.73504 14.6978 5.02965 16.5312 5.03132ZM7.10125 5.03132C7.11772 4.33018 7.38992 3.65925 7.86659 3.14481C8.34326 2.63037 8.99153 2.30791 9.68938 2.23812C10.3872 2.16834 11.0865 2.35604 11.6556 2.7659C12.2247 3.17577 12.6244 3.77952 12.7794 4.46351C11.2912 5.19781 10.0443 6.34254 9.18563 7.76257C8.59046 7.59238 8.06612 7.23464 7.69058 6.74255C7.31503 6.25046 7.10835 5.6503 7.10125 5.03132ZM9.34375 12.2188C9.34335 10.7382 9.80297 9.29403 10.6591 8.08601L11.615 9.04194C12.1657 9.5939 12.82 10.0317 13.5403 10.3302C14.2606 10.6287 15.0328 10.782 15.8125 10.7813H23.575C23.6701 11.2546 23.7183 11.7361 23.7188 12.2188C23.7188 14.1251 22.9615 15.9532 21.6136 17.3011C20.2657 18.6491 18.4375 19.4063 16.5312 19.4063C14.625 19.4063 12.7968 18.6491 11.4489 17.3011C10.101 15.9532 9.34375 14.1251 9.34375 12.2188ZM2.15625 33.7813C2.34049 30.2855 3.86021 26.9939 6.40156 24.5863C8.94291 22.1787 12.3118 20.839 15.8125 20.8438H17.25C20.7507 20.839 24.1196 22.1787 26.6609 24.5863C29.2023 26.9939 30.722 30.2855 30.9062 33.7813H2.15625Z" fill="#151A6A"/>
</svg>
