<svg width="46" height="46" viewBox="0 0 46 46" fill="none" xmlns="http://www.w3.org/2000/svg">
<path d="M43.125 11.5H21.5625C20.3406 11.5 19.4062 12.4344 19.4062 13.6562V43.125C19.4062 44.3469 20.3406 45.2812 21.5625 45.2812H43.125C44.3469 45.2812 45.2812 44.3469 45.2812 43.125V13.6562C45.2812 12.4344 44.3469 11.5 43.125 11.5ZM24.4375 15.0938H40.25C40.6812 15.0938 40.9688 15.3812 40.9688 15.8125C40.9688 16.2438 40.6812 16.5312 40.25 16.5312H24.4375C24.0062 16.5312 23.7188 16.2438 23.7188 15.8125C23.7188 15.3812 24.0062 15.0938 24.4375 15.0938ZM24.4375 19.4062H40.25C40.6812 19.4062 40.9688 19.6938 40.9688 20.125C40.9688 20.5562 40.6812 20.8438 40.25 20.8438H24.4375C24.0062 20.8438 23.7188 20.5562 23.7188 20.125C23.7188 19.6938 24.0062 19.4062 24.4375 19.4062ZM24.4375 23.7188H40.25C40.6812 23.7188 40.9688 24.0063 40.9688 24.4375C40.9688 24.8687 40.6812 25.1562 40.25 25.1562H24.4375C24.0062 25.1562 23.7188 24.8687 23.7188 24.4375C23.7188 24.0063 24.0062 23.7188 24.4375 23.7188ZM24.4375 28.0312H40.25C40.6812 28.0312 40.9688 28.3188 40.9688 28.75C40.9688 29.1812 40.6812 29.4688 40.25 29.4688H24.4375C24.0062 29.4688 23.7188 29.1812 23.7188 28.75C23.7188 28.3188 24.0062 28.0312 24.4375 28.0312ZM24.4375 32.3438H40.25C40.6812 32.3438 40.9688 32.6313 40.9688 33.0625C40.9688 33.4937 40.6812 33.7812 40.25 33.7812H24.4375C24.0062 33.7812 23.7188 33.4937 23.7188 33.0625C23.7188 32.6313 24.0062 32.3438 24.4375 32.3438ZM41.4 37.95L37.0875 41.5437C36.6562 41.9031 35.9375 41.5438 35.9375 40.9688V38.8844L32.775 41.4719C32.3437 41.9031 31.625 41.5438 31.625 40.9688V38.8844L28.4625 41.4719C28.0312 41.9031 27.3125 41.5438 27.3125 40.9688V38.8844L24.15 41.4719C23.8625 41.7594 23.3594 41.6875 23.1438 41.4C22.8563 41.1125 22.9281 40.6094 23.2156 40.3938L27.5281 36.8C28.0312 36.4406 28.75 36.8 28.75 37.375V39.4594L31.9125 36.8719C32.3438 36.4406 33.0625 36.8 33.0625 37.375V39.4594L36.225 36.8719C36.6563 36.4406 37.375 36.8 37.375 37.375V39.4594L40.5375 36.8719C40.825 36.5844 41.3281 36.6563 41.5437 36.9438C41.7594 37.2313 41.7594 37.6625 41.4 37.95Z" fill="#FCE37D"/>
<path d="M30.2594 27.0969C31.5531 26.1625 32.3438 24.725 32.3438 23C32.3438 20.1969 30.1156 17.9688 27.3125 17.9688C24.5094 17.9688 22.2812 20.1969 22.2812 23C22.2812 24.6531 23.1438 26.1625 24.3656 27.0969C21.7781 27.9594 19.6938 29.9 18.6875 32.3438C17.6812 29.8281 15.5969 27.8875 13.0094 27.0969C14.3031 26.1625 15.0938 24.725 15.0938 23C15.0938 20.1969 12.8656 17.9688 10.0625 17.9688C7.25938 17.9688 5.03125 20.1969 5.03125 23C5.03125 24.6531 5.89375 26.1625 7.11562 27.0969C3.37812 28.3188 0.71875 31.8406 0.71875 35.9375C0.71875 36.3687 1.00625 36.6562 1.4375 36.6562H35.9375C36.3688 36.6562 36.6562 36.3687 36.6562 35.9375C36.6562 31.8406 33.9969 28.3188 30.2594 27.0969ZM6.46875 23C6.46875 20.9875 8.05 19.4062 10.0625 19.4062C12.075 19.4062 13.6562 20.9875 13.6562 23C13.6562 25.0125 12.075 26.5938 10.0625 26.5938C8.05 26.5938 6.46875 25.0125 6.46875 23ZM2.15625 35.2188C2.51562 31.1938 5.89375 28.0312 10.0625 28.0312C14.2312 28.0312 17.5375 31.1938 17.9688 35.2188H2.15625ZM23.7188 23C23.7188 20.9875 25.3 19.4062 27.3125 19.4062C29.325 19.4062 30.9062 20.9875 30.9062 23C30.9062 25.0125 29.325 26.5938 27.3125 26.5938C25.3 26.5938 23.7188 25.0125 23.7188 23ZM19.4062 35.2188C19.7656 31.1938 23.1437 28.0312 27.3125 28.0312C31.4813 28.0312 34.7875 31.1938 35.2188 35.2188H19.4062Z" fill="#153257"/>
<path d="M34.5 0.71875H2.875C1.65312 0.71875 0.71875 1.65312 0.71875 2.875V10.7812C0.71875 12.0031 1.65312 12.9375 2.875 12.9375H6.82812L9.4875 16.2438C9.775 16.6031 10.35 16.6031 10.6375 16.2438L13.2969 12.9375H24.0781L26.7375 16.2438C26.8813 16.3875 27.0969 16.5312 27.3125 16.5312C27.5281 16.5312 27.7437 16.4594 27.8875 16.2438L30.5469 12.9375H34.5C35.7219 12.9375 36.6562 12.0031 36.6562 10.7812V2.875C36.6562 1.65312 35.7219 0.71875 34.5 0.71875ZM35.2188 10.7812C35.2188 11.2125 34.9313 11.5 34.5 11.5H30.1875C29.9719 11.5 29.7563 11.5719 29.6125 11.7875L27.3125 14.6625L25.0125 11.7875C24.8687 11.5719 24.6531 11.5 24.4375 11.5H12.9375C12.7219 11.5 12.5063 11.5719 12.3625 11.7875L10.0625 14.6625L7.7625 11.7875C7.61875 11.5719 7.40312 11.5 7.1875 11.5H2.875C2.44375 11.5 2.15625 11.2125 2.15625 10.7812V2.875C2.15625 2.44375 2.44375 2.15625 2.875 2.15625H34.5C34.9313 2.15625 35.2188 2.44375 35.2188 2.875V10.7812Z" fill="#153257"/>
<path d="M32.3438 4.3125H5.03125C4.6 4.3125 4.3125 4.6 4.3125 5.03125C4.3125 5.4625 4.6 5.75 5.03125 5.75H32.3438C32.775 5.75 33.0625 5.4625 33.0625 5.03125C33.0625 4.6 32.775 4.3125 32.3438 4.3125Z" fill="#153257"/>
<path d="M32.3438 7.90625H5.03125C4.6 7.90625 4.3125 8.19375 4.3125 8.625C4.3125 9.05625 4.6 9.34375 5.03125 9.34375H32.3438C32.775 9.34375 33.0625 9.05625 33.0625 8.625C33.0625 8.19375 32.775 7.90625 32.3438 7.90625Z" fill="#153257"/>
</svg>
