<svg width="46" height="46" viewBox="0 0 46 46" fill="none" xmlns="http://www.w3.org/2000/svg">
<path d="M32.775 21.9937C29.4688 20.1968 25.7313 21.4906 23.1438 25.1562C20.5563 21.4187 16.8187 20.1968 13.5125 21.9937C10.925 23.3593 9.34375 26.0906 9.34375 29.1093V30.2593C9.34375 36.0812 15.1656 42.55 22.8563 45.2093C23 45.2812 23.1438 45.2812 23.3594 45.2093C31.05 42.55 36.8719 36.0812 36.8719 30.2593V29.1093C36.8719 26.0906 35.2906 23.3593 32.775 21.9937ZM23.3594 42.1906C23 42.3343 22.5688 42.1906 22.425 41.7593C22.2813 41.4 22.425 40.9687 22.8563 40.825C28.8938 38.3812 32.5594 33.4937 32.5594 30.2593C32.5594 29.8281 32.8469 29.5406 33.2781 29.5406C33.7094 29.5406 33.9969 29.8281 33.9969 30.2593C33.9969 34.0687 30.0438 39.4593 23.3594 42.1906Z" fill="#8FEAC4"/>
<path d="M45.0656 19.6219L41.4719 16.0281C41.1844 15.7406 40.7531 15.7406 40.4656 16.0281L36.8719 19.6219C36.5844 19.9094 36.5844 20.3406 36.8719 20.6281C37.1594 20.9156 37.5906 20.9156 37.8781 20.6281L40.25 18.2563V44.5625C40.25 44.9937 40.5375 45.2812 40.9688 45.2812C41.4 45.2812 41.6875 44.9937 41.6875 44.5625V18.2563L44.0594 20.6281C44.3469 20.9156 44.7781 20.9156 45.0656 20.6281C45.3531 20.3406 45.3531 19.9094 45.0656 19.6219Z" fill="#8FEAC4"/>
<path d="M13.0094 25.6594C14.3031 24.725 15.0938 23.2875 15.0938 21.5625C15.0938 18.7594 12.8656 16.5312 10.0625 16.5312C7.25938 16.5312 5.03125 18.7594 5.03125 21.5625C5.03125 23.2156 5.89375 24.725 7.11562 25.6594C3.37812 26.8813 0.71875 30.4031 0.71875 34.5C0.71875 34.9312 1.00625 35.2188 1.4375 35.2188H18.6875C19.1187 35.2188 19.4062 34.9312 19.4062 34.5C19.4062 30.4031 16.7469 26.8813 13.0094 25.6594ZM6.46875 21.5625C6.46875 19.55 8.05 17.9688 10.0625 17.9688C12.075 17.9688 13.6562 19.55 13.6562 21.5625C13.6562 23.575 12.075 25.1562 10.0625 25.1562C8.05 25.1562 6.46875 23.575 6.46875 21.5625ZM2.15625 33.7812C2.51562 29.7563 5.89375 26.5938 10.0625 26.5938C14.2312 26.5938 17.5375 29.7563 17.9688 33.7812H2.15625Z" fill="#153257"/>
<path d="M32.3438 0.71875H17.9688C15.5969 0.71875 13.6562 2.65938 13.6562 5.03125C13.6562 5.4625 13.9437 5.75 14.375 5.75H17.25V25.1562C17.25 26.3781 18.1844 27.3125 19.4062 27.3125H34.5C35.7219 27.3125 36.6562 26.3781 36.6562 25.1562V5.03125C36.6562 2.65938 34.7156 0.71875 32.3438 0.71875ZM15.1656 4.3125C15.4531 3.09063 16.6031 2.15625 17.9688 2.15625H29.1094C28.6062 2.73125 28.175 3.52187 28.1031 4.3125H15.1656ZM35.2188 25.1562C35.2188 25.5875 34.9312 25.875 34.5 25.875H19.4062C18.975 25.875 18.6875 25.5875 18.6875 25.1562V5.75H28.75C29.1812 5.75 29.4688 5.4625 29.4688 5.03125C29.4688 3.45 30.7625 2.15625 32.3438 2.15625C33.925 2.15625 35.2188 3.45 35.2188 5.03125V25.1562Z" fill="#153257"/>
<path d="M32.3438 9.34375H28.75C28.3187 9.34375 28.0312 9.63125 28.0312 10.0625V13.6562C28.0312 14.0875 28.3187 14.375 28.75 14.375H32.3438C32.775 14.375 33.0625 14.0875 33.0625 13.6562V10.0625C33.0625 9.63125 32.775 9.34375 32.3438 9.34375ZM31.625 12.9375H29.4688V10.7812H31.625V12.9375Z" fill="#153257"/>
<path d="M25.1562 9.34375H21.5625C21.1312 9.34375 20.8438 9.63125 20.8438 10.0625C20.8438 10.4937 21.1312 10.7812 21.5625 10.7812H25.1562C25.5875 10.7812 25.875 10.4937 25.875 10.0625C25.875 9.63125 25.5875 9.34375 25.1562 9.34375Z" fill="#153257"/>
<path d="M25.1562 12.9375H21.5625C21.1312 12.9375 20.8438 13.225 20.8438 13.6562C20.8438 14.0875 21.1312 14.375 21.5625 14.375H25.1562C25.5875 14.375 25.875 14.0875 25.875 13.6562C25.875 13.225 25.5875 12.9375 25.1562 12.9375Z" fill="#153257"/>
<path d="M32.3438 17.25H28.75C28.3187 17.25 28.0312 17.5375 28.0312 17.9688V21.5625C28.0312 21.9938 28.3187 22.2812 28.75 22.2812H32.3438C32.775 22.2812 33.0625 21.9938 33.0625 21.5625V17.9688C33.0625 17.5375 32.775 17.25 32.3438 17.25ZM31.625 20.8438H29.4688V18.6875H31.625V20.8438Z" fill="#153257"/>
<path d="M25.1562 17.25H21.5625C21.1312 17.25 20.8438 17.5375 20.8438 17.9688C20.8438 18.4 21.1312 18.6875 21.5625 18.6875H25.1562C25.5875 18.6875 25.875 18.4 25.875 17.9688C25.875 17.5375 25.5875 17.25 25.1562 17.25Z" fill="#153257"/>
<path d="M25.1562 20.8438H21.5625C21.1312 20.8438 20.8438 21.1312 20.8438 21.5625C20.8438 21.9937 21.1312 22.2812 21.5625 22.2812H25.1562C25.5875 22.2812 25.875 21.9937 25.875 21.5625C25.875 21.1312 25.5875 20.8438 25.1562 20.8438Z" fill="#153257"/>
</svg>
