<svg class="sprite-icons" xmlns="http://www.w3.org/2000/svg">

	<symbol id="icon-star">
		<!-- width="34" height="32" viewBox="0 0 34 32" -->
		<g>
			<g>
				<path d="M17 25.723L27.506 32l-2.78-11.838L34 12.2l-12.225-1.039L17 0l-4.775 11.161L0 12.201l9.274 7.96L6.494 32z"/>
			</g>
		</g>
	</symbol>

	<symbol id="video-icon">
		<!-- width="68" height="48" viewBox="0 0 68 48" -->
		<path fill-rule="evenodd" clip-rule="evenodd" d="M64.0225 3.21286C62.6491 1.9616 60.9098 1.14099 59.0075 0.930035C54.873 0.465573 50.7009 0.231784 46.5151 0.114568C42.356 -0.00184321 38.1792 -0.00184307 34.0116 0.000568772C29.8447 -0.00184305 25.6681 -0.00184318 21.5085 0.114568C17.3221 0.231783 13.1489 0.46557 9.01195 0.930035C7.11152 1.1411 5.37295 1.96208 4.00085 3.21388C2.63747 4.45763 1.63577 6.12801 1.19757 8.04814C0.605993 10.622 0.306734 13.3074 0.155557 16.0095C0.00379117 18.723 0 21.4022 0 24.0031C0 26.6006 5.37485e-05 29.2763 0.148241 31.9914C0.295734 34.6923 0.591361 37.3776 1.18325 39.9519C1.62408 41.8729 2.62625 43.5437 3.98952 44.7874C5.36081 46.0385 7.09767 46.859 8.99755 47.0701C13.135 47.5345 17.3083 47.7683 21.4947 47.8854C25.6542 48.0018 29.8307 48.0018 33.9983 47.9994C38.1677 48.0018 42.3443 48.0018 46.5032 47.8854C50.689 47.7683 54.861 47.5345 58.998 47.0701C60.8975 46.859 62.634 46.0388 64.0059 44.788C65.3699 43.5445 66.3734 41.8734 66.8171 39.9519C67.4064 37.3775 67.7021 34.6922 67.8501 31.9914C67.9962 29.3281 67.9974 26.6262 67.9972 24.0031H68V23.8714H67.9972C67.9973 18.6598 67.9973 13.1399 66.8315 8.04819C66.3907 6.1272 65.3874 4.45647 64.0225 3.21286ZM24.6918 34.3659V12.2782V11.0834L25.7486 11.6373C28.9449 13.3122 32.132 14.9813 35.322 16.652C35.3269 16.6546 35.3318 16.6571 35.3367 16.6597C39.1802 18.6726 43.0282 20.6879 46.9022 22.7185L48.1306 23.3623L46.8994 24.0032L36.3226 29.5082C32.8021 31.3401 29.2815 33.1714 25.7458 35.0097L24.6918 35.5576V34.3659Z"/>
		<path fill-rule="evenodd" clip-rule="evenodd" d="M64.0225 3.21286C62.6491 1.9616 60.9098 1.14099 59.0075 0.930035C54.873 0.465573 50.7009 0.231784 46.5151 0.114568C42.356 -0.00184321 38.1792 -0.00184307 34.0116 0.000568772C29.8447 -0.00184305 25.6681 -0.00184318 21.5085 0.114568C17.3221 0.231783 13.1489 0.46557 9.01195 0.930035C7.11152 1.1411 5.37295 1.96208 4.00085 3.21388C2.63747 4.45763 1.63577 6.12801 1.19757 8.04814C0.605993 10.622 0.306734 13.3074 0.155557 16.0095C0.00379117 18.723 0 21.4022 0 24.0031C0 26.6006 5.37485e-05 29.2763 0.148241 31.9914C0.295734 34.6923 0.591361 37.3776 1.18325 39.9519C1.62408 41.8729 2.62625 43.5437 3.98952 44.7874C5.36081 46.0385 7.09767 46.859 8.99755 47.0701C13.135 47.5345 17.3083 47.7683 21.4947 47.8854C25.6542 48.0018 29.8307 48.0018 33.9983 47.9994C38.1677 48.0018 42.3443 48.0018 46.5032 47.8854C50.689 47.7683 54.861 47.5345 58.998 47.0701C60.8975 46.859 62.634 46.0388 64.0059 44.788C65.3699 43.5445 66.3734 41.8734 66.8171 39.9519C67.4064 37.3775 67.7021 34.6922 67.8501 31.9914C67.9962 29.3281 67.9974 26.6262 67.9972 24.0031H68V23.8714H67.9972C67.9973 18.6598 67.9973 13.1399 66.8315 8.04819C66.3907 6.1272 65.3874 4.45647 64.0225 3.21286ZM24.6918 34.3659V12.2782V11.0834L25.7486 11.6373C28.9449 13.3122 32.132 14.9813 35.322 16.652C35.3269 16.6546 35.3318 16.6571 35.3367 16.6597C39.1802 18.6726 43.0282 20.6879 46.9022 22.7185L48.1306 23.3623L46.8994 24.0032L36.3226 29.5082C32.8021 31.3401 29.2815 33.1714 25.7458 35.0097L24.6918 35.5576V34.3659Z"/>
		<path fill-rule="evenodd" clip-rule="evenodd" d="M24.6917 34.3659V12.2783V11.0835L25.7486 11.6373C28.9449 13.3122 32.132 14.9814 35.3219 16.652C35.3269 16.6546 35.3318 16.6572 35.3367 16.6598C39.1801 18.6726 43.0282 20.6879 46.9022 22.7185L48.1305 23.3624L46.8994 24.0033L36.3226 29.5082C32.8021 31.3401 29.2815 33.1715 25.7458 35.0097L24.6917 35.5577V34.3659Z" fill="white"/>
	</symbol>

</svg>