<svg xmlns="http://www.w3.org/2000/svg" width="23" height="20" viewBox="0 0 23 20"><g><g><path fill="#fff" d="M19.978 17.787a3.027 3.027 0 0 1-3.023-3.031 3.027 3.027 0 0 1 3.023-3.031A3.027 3.027 0 0 1 23 14.755a3.027 3.027 0 0 1-3.022 3.032zM8.425 16.42a.756.756 0 0 1-.773.183c-.877-.292-1.73-.861-2.564-1.696-.834-.834-1.403-1.687-1.695-2.565a.757.757 0 0 1 .183-.774L14.916.222a.756.756 0 0 1 .774-.183c.877.292 1.73.861 2.564 1.695.834.835 1.402 1.688 1.695 2.565.09.272.02.572-.183.775zM3.43 14.74c.252.328.537.651.855.97.318.318.641.604.969.856l-3.209 3.212a.755.755 0 0 1-1.068 0l-.756-.756a.757.757 0 0 1 0-1.07z"/></g></g></svg>