<svg xmlns="http://www.w3.org/2000/svg" width="20" height="20" viewBox="0 0 20 20"><g><g><path fill="#f9f9f9" d="M16.564 13.93l-.505-2.655 1.412-3.55 1.247.29a8.978 8.978 0 0 1-.78 6.133zm-3.46 4.48l.751-1.755 2.252-1.752 1.255.2a9.01 9.01 0 0 1-4.255 3.307zm-5.921.085l-1.38-1.632.525-1.227 4.41-.395 1.972 1.508-.903 2.04a8.943 8.943 0 0 1-4.707-.294zM2.21 5.569c.783-.055 1.614-.11 2.18-.138l.824 2.124-1.497 3.938-2.49.37a8.938 8.938 0 0 1 .98-6.29zm5.207-4.148l-.193 1.038-2.448 1.93c-.345 0-.907.041-1.842.107a8.992 8.992 0 0 1 4.49-3.082zm7.42 1.034l-.262.945-4.2.317-2.072-1.341.225-1.214a8.946 8.946 0 0 1 6.32 1.297zm-8.63 12.152L4.61 12.05l1.48-3.899 2.979-.307 2.465 3.405-1.19 2.99zm9.096-4.193l-2.955.18-2.496-3.45.893-2.413 4.165-.32 1.749 2.627zM10 0C4.477 0 0 4.477 0 10s4.477 10 10 10 10-4.477 10-10A10 10 0 0 0 10 0z"/></g></g></svg>