<svg xmlns="http://www.w3.org/2000/svg" width="15" height="20" viewBox="0 0 15 20"><g><g><path fill="#fff" d="M15 7.143c0 3.938-3.365 7.143-7.5 7.143-4.136 0-7.5-3.205-7.5-7.143C0 3.204 3.365 0 7.5 0 11.636 0 15 3.204 15 7.143zM4.125 5.714c0-.591-.504-1.071-1.125-1.071s-1.125.48-1.125 1.071c0 .592.504 1.072 1.125 1.072s1.125-.48 1.125-1.072zm2.25-2.143c0-.591-.504-1.071-1.125-1.071s-1.125.48-1.125 1.071c0 .592.504 1.072 1.125 1.072s1.125-.48 1.125-1.072zm2.25 2.143c0-.591-.504-1.071-1.125-1.071s-1.125.48-1.125 1.071c0 .592.504 1.072 1.125 1.072s1.125-.48 1.125-1.072zm2.25-2.143c0-.591-.504-1.071-1.125-1.071s-1.125.48-1.125 1.071c0 .592.504 1.072 1.125 1.072s1.125-.48 1.125-1.072zm2.25 2.143c0-.591-.504-1.071-1.125-1.071s-1.125.48-1.125 1.071c0 .592.504 1.072 1.125 1.072s1.125-.48 1.125-1.072zm-2.625 10c0 .395-.336.715-.75.715-.829 0-1.5.64-1.5 1.428v1.429c0 .394-.336.714-.75.714s-.75-.32-.75-.714v-1.429c0-.789-.671-1.428-1.5-1.428-.414 0-.75-.32-.75-.715 0-.394.336-.714.75-.714h4.5c.414 0 .75.32.75.714z"/></g></g></svg>