<svg xmlns="http://www.w3.org/2000/svg" width="26" height="26" viewBox="0 0 26 26"><g><g><path fill="#f9f9f9" d="M3.015 15.844l.2-1.224c.018-.08.08-.139.153-.139h.97c.071 0 .117.06.099.139l-.136.859c-.027.158.072.286.217.286h.29c.145 0 .28-.128.308-.286l.271-1.709c.027-.158-.072-.286-.217-.286h-.715c-.58 0-.969-.514-.87-1.156l.354-2.172c.1-.642.66-1.156 1.24-1.156h1.095c.58 0 .978.514.879 1.156l-.118.73c-.018.08-.082.139-.154.139h-.969c-.072 0-.117-.06-.1-.139l.055-.326c.018-.158-.072-.286-.217-.286h-.245a.33.33 0 0 0-.307.286l-.227 1.403c-.027.158.064.286.208.286h.716c.58 0 .977.514.878 1.156l-.399 2.44c-.1.641-.66 1.155-1.24 1.155h-1.14c-.58 0-.978-.514-.879-1.156zm3.694.968L7.94 9.188c.018-.08.082-.139.154-.139h2.073c.58 0 .97.514.87 1.156l-.408 2.518c-.1.642-.67 1.156-1.25 1.156h-.977l-.47 2.933c-.01.08-.073.139-.146.139h-.968c-.073 0-.118-.06-.109-.139zm2.752-4.454l.29-1.748c.027-.158-.072-.287-.217-.287H8.98l-.38 2.321h.552a.33.33 0 0 0 .308-.286zm1.295 3.486l.923-5.688C11.78 9.514 12.34 9 12.92 9h1.16c.579 0 .977.514.878 1.156l-.924 5.688c-.1.642-.66 1.156-1.24 1.156h-1.159c-.58 0-.978-.514-.878-1.156zm2.118-.365l.797-4.919c.018-.158-.072-.286-.217-.286h-.308a.33.33 0 0 0-.308.286l-.797 4.919c-.027.158.073.286.218.286h.308c.144 0 .28-.128.307-.286zm1.73 1.333l1.23-7.624c.019-.08.082-.139.155-.139h2.073c.58 0 .969.514.87 1.156l-.408 2.518a1.452 1.452 0 0 1-.833 1.077l.235 3.012c.018.139-.081.139-.081.139h-1.041s-.1 0-.11-.139l-.235-2.933h-.162l-.471 2.933c-.01.08-.073.139-.145.139h-.969c-.072 0-.117-.06-.108-.139zm2.752-4.454l.29-1.748c.027-.158-.073-.287-.218-.287h-.552l-.38 2.321h.552a.33.33 0 0 0 .308-.286zm2.462-3.309h3.078c.073 0 .118.06.1.139l-.163.997c-.009.08-.072.138-.145.138h-.932l-1.05 6.49c-.01.078-.073.138-.145.138h-.97c-.071 0-.117-.06-.108-.139l1.05-6.489h-.923c-.072 0-.118-.059-.109-.138l.163-.997c.018-.08.082-.139.154-.139zM13 26c7.18 0 13-5.82 13-13S20.18 0 13 0 0 5.82 0 13s5.82 13 13 13z"/></g></g></svg>