<svg xmlns="http://www.w3.org/2000/svg" width="20" height="20" viewBox="0 0 20 20"><g><g><path fill="#fff" d="M17.071 17.077A10.01 10.01 0 0 1 10.443 20c0-2.5 1.04-4.962 2.813-6.73 1.773-1.77 4.2-2.77 6.744-2.808a10.007 10.007 0 0 1-2.929 6.615zM.04 11.347h.077c2.965 0 5.816-1.155 7.895-3.27 2.119-2.115 3.274-5 3.274-8 2.157.27 4.16 1.27 5.74 2.846 1.694 1.692 2.618 3.808 2.85 6a11.238 11.238 0 0 0-7.78 3.27 11.206 11.206 0 0 0-3.275 7.769c-2.272-.231-4.352-1.231-6.008-2.885-1.54-1.615-2.465-3.654-2.773-5.73zM2.89 2.922C4.74 1.077 7.168.077 9.788 0a9.75 9.75 0 0 1-2.813 7A9.7 9.7 0 0 1 0 9.808a9.993 9.993 0 0 1 2.89-6.885z"/></g></g></svg>