<svg width="29" height="19" viewBox="0 0 29 19" fill="none" xmlns="http://www.w3.org/2000/svg">
<g clip-path="url(#clip0)">
<path d="M26 18.7761H2.89099C2.12502 18.7753 1.39062 18.4706 0.848999 17.929C0.307378 17.3874 0.00274729 16.653 0.00195312 15.887V2.88702C0.00274729 2.12106 0.307378 1.38677 0.848999 0.845154C1.39062 0.303533 2.12502 -0.00115896 2.89099 -0.00195312H26C26.766 -0.00115896 27.5004 0.303533 28.042 0.845154C28.5836 1.38677 28.8882 2.12106 28.889 2.88702V15.887C28.8882 16.653 28.5836 17.3874 28.042 17.929C27.5004 18.4706 26.766 18.7753 26 18.7761V18.7761ZM2.89099 1.44403C2.50818 1.44456 2.14117 1.59693 1.87048 1.86761C1.5998 2.1383 1.44755 2.50519 1.44702 2.888V15.888C1.44755 16.2708 1.5998 16.6378 1.87048 16.9085C2.14117 17.1792 2.50818 17.3316 2.89099 17.3321H26C26.3828 17.3316 26.7498 17.1792 27.0205 16.9085C27.2912 16.6378 27.4434 16.2708 27.444 15.888V2.888C27.4434 2.50519 27.2912 2.1383 27.0205 1.86761C26.7498 1.59693 26.3828 1.44456 26 1.44403H2.89099Z" fill="#0E0E0E"/>
<path d="M28.1639 5.77698H0.722046C0.53056 5.77698 0.346827 5.70095 0.211426 5.56555C0.0760245 5.43015 0 5.24654 0 5.05505C0 4.86357 0.0760245 4.67983 0.211426 4.54443C0.346827 4.40903 0.53056 4.33301 0.722046 4.33301H28.1639C28.3554 4.33301 28.5392 4.40903 28.6746 4.54443C28.81 4.67983 28.886 4.86357 28.886 5.05505C28.886 5.24654 28.81 5.43015 28.6746 5.56555C28.5392 5.70095 28.3554 5.77698 28.1639 5.77698V5.77698Z" fill="#0E0E0E"/>
<path d="M28.1639 10.11H0.722046C0.53056 10.11 0.346827 10.034 0.211426 9.89856C0.0760246 9.76316 0 9.57955 0 9.38806C0 9.19658 0.0760246 9.01284 0.211426 8.87744C0.346827 8.74204 0.53056 8.66602 0.722046 8.66602H28.1639C28.3554 8.66602 28.5392 8.74204 28.6746 8.87744C28.81 9.01284 28.886 9.19658 28.886 9.38806C28.886 9.57955 28.81 9.76316 28.6746 9.89856C28.5392 10.034 28.3554 10.11 28.1639 10.11V10.11Z" fill="#0E0E0E"/>
<path d="M10.833 14.443H5.05603C4.86454 14.443 4.68093 14.367 4.54553 14.2316C4.41013 14.0962 4.33398 13.9126 4.33398 13.7211C4.33398 13.5296 4.41013 13.3459 4.54553 13.2104C4.68093 13.075 4.86454 12.999 5.05603 12.999H10.833C11.0245 12.999 11.2081 13.075 11.3435 13.2104C11.4789 13.3459 11.5551 13.5296 11.5551 13.7211C11.5551 13.9126 11.4789 14.0962 11.3435 14.2316C11.2081 14.367 11.0245 14.443 10.833 14.443V14.443Z" fill="#0E0E0E"/>
<path d="M22.3867 15.8881H16.6097C16.4183 15.8881 16.2346 15.812 16.0992 15.6766C15.9638 15.5412 15.8877 15.3575 15.8877 15.166V12.2771C15.8877 12.0856 15.9638 11.9019 16.0992 11.7665C16.2346 11.6311 16.4183 11.5551 16.6097 11.5551H22.3867C22.5782 11.5551 22.7618 11.6311 22.8972 11.7665C23.0326 11.9019 23.1088 12.0856 23.1088 12.2771V15.166C23.1088 15.3575 23.0326 15.5412 22.8972 15.6766C22.7618 15.812 22.5782 15.8881 22.3867 15.8881V15.8881ZM17.3317 14.4441H21.6647V13H17.3317V14.4441Z" fill="#0E0E0E"/>
</g>
<defs>
<clipPath id="clip0">
<rect width="28.886" height="18.776" fill="white"/>
</clipPath>
</defs>
</svg>
