<svg id="Сгруппировать_13950" data-name="Сгруппировать 13950" xmlns="http://www.w3.org/2000/svg" width="58.934" height="25" viewBox="0 0 58.934 25">
  <g id="Сгруппировать_13930" data-name="Сгруппировать 13930">
    <path id="Контур_45649" data-name="Контур 45649" d="M42.036,32.279a4.522,4.522,0,0,0,1.04-3.224A4.485,4.485,0,0,0,40.1,30.594a4.234,4.234,0,0,0-1.066,3.1,3.742,3.742,0,0,0,3-1.413" transform="translate(-30.897 -29.055)" fill="#f8f8f8"/>
    <path id="Контур_45650" data-name="Контур 45650" d="M34.6,38.976c-1.656-.1-3.064.94-3.854.94s-2-.89-3.312-.866a4.883,4.883,0,0,0-4.151,2.522c-1.779,3.067-.47,7.615,1.261,10.113.84,1.236,1.853,2.6,3.187,2.547,1.261-.049,1.755-.816,3.287-.816s1.976.816,3.311.792c1.384-.025,2.249-1.236,3.089-2.473A10.976,10.976,0,0,0,38.8,48.89a4.49,4.49,0,0,1-2.693-4.08,4.577,4.577,0,0,1,2.174-3.833,4.734,4.734,0,0,0-3.682-2" transform="translate(-22.435 -34.116)" fill="#f8f8f8"/>
  </g>
  <g id="Сгруппировать_13931" data-name="Сгруппировать 13931" transform="translate(19.629 1.414)">
    <path id="Контур_45651" data-name="Контур 45651" d="M69.484,31.944a5.819,5.819,0,0,1,6.1,6.092,5.884,5.884,0,0,1-6.2,6.118H65.409v6.337H62.53V31.944h6.954Zm-4.075,9.794h3.3c2.507,0,3.933-1.349,3.933-3.689s-1.427-3.676-3.92-3.676H65.409Z" transform="translate(-62.53 -31.944)" fill="#f8f8f8"/>
    <path id="Контур_45652" data-name="Контур 45652" d="M90.74,51.633c0-2.365,1.812-3.818,5.026-4l3.7-.218V46.376c0-1.5-1.015-2.4-2.712-2.4A2.589,2.589,0,0,0,93.9,45.952H91.28c.154-2.442,2.236-4.242,5.578-4.242,3.278,0,5.372,1.735,5.372,4.447v9.319H99.57V53.253h-.064a4.831,4.831,0,0,1-4.267,2.455C92.591,55.708,90.74,54.062,90.74,51.633Zm8.727-1.221V49.345l-3.329.206c-1.658.116-2.6.848-2.6,2.005,0,1.182.977,1.954,2.468,1.954A3.241,3.241,0,0,0,99.467,50.412Z" transform="translate(-76.929 -36.929)" fill="#f8f8f8"/>
    <path id="Контур_45653" data-name="Контур 45653" d="M117.948,60.705V58.456a5.138,5.138,0,0,0,.9.051,2.252,2.252,0,0,0,2.4-1.928c0-.026.244-.823.244-.836l-4.884-13.535h3.007l3.419,11h.051l3.419-11h2.93l-5.065,14.229c-1.156,3.278-2.493,4.332-5.3,4.332A10.737,10.737,0,0,1,117.948,60.705Z" transform="translate(-90.134 -37.183)" fill="#f8f8f8"/>
  </g>
</svg>
