<svg width="71" height="45" viewBox="0 0 71 45" fill="none" xmlns="http://www.w3.org/2000/svg">
<g clip-path="url(#clip0)">
<path d="M64 0H5.574C5.374 0 5.169 0 4.967 0.009C4.524 0.0150968 4.08208 0.0545417 3.645 0.127C3.20776 0.201779 2.7841 0.341312 2.388 0.541C1.59246 0.946268 0.945837 1.59324 0.541 2.389C0.341115 2.78467 0.20157 3.20802 0.127 3.645C0.0546574 4.08208 0.0155454 4.52401 0.01 4.967C0 5.169 0 5.372 0 5.574C0 5.814 0 6.055 0 6.295V38.705C0 38.946 0 39.186 0 39.427C0 39.627 0 39.827 0.009 40.034C0.0145805 40.4767 0.0536925 40.9183 0.126 41.355C0.200459 41.7923 0.340007 42.216 0.54 42.612C0.945008 43.4074 1.59162 44.054 2.387 44.459C2.78263 44.6592 3.20598 44.7991 3.643 44.874C4.08016 44.9455 4.52206 44.9843 4.965 44.99C5.165 44.9947 5.36733 44.9973 5.572 44.998C5.812 44.998 6.053 44.998 6.293 44.998H64C64.24 44.998 64.481 44.998 64.72 44.998C64.92 44.998 65.1227 44.9953 65.328 44.99C65.7709 44.9842 66.2128 44.9454 66.65 44.874C67.087 44.799 67.5103 44.6591 67.906 44.459C68.7014 44.054 69.348 43.4074 69.753 42.612C69.9534 42.2162 70.0929 41.7924 70.167 41.355C70.239 40.9182 70.2777 40.4766 70.283 40.034C70.2883 39.834 70.2913 39.6317 70.292 39.427C70.292 39.186 70.292 38.946 70.292 38.705V6.3C70.292 6.059 70.292 5.819 70.292 5.579C70.292 5.379 70.289 5.17667 70.283 4.972C70.2778 4.52904 70.239 4.0871 70.167 3.65C70.0929 3.21259 69.9533 2.78883 69.753 2.393C69.3473 1.59484 68.6984 0.946288 67.9 0.541C67.5051 0.341728 67.0829 0.202206 66.647 0.127C66.2099 0.0553017 65.7679 0.0165261 65.325 0.011C65.122 0.005 64.919 0 64.717 0H64Z" fill="black"/>
<path d="M63.9969 1.5H64.7069C64.8989 1.5 65.0919 1.5 65.2849 1.509C65.6534 1.51294 66.021 1.54402 66.3849 1.602C66.6781 1.65083 66.9623 1.74354 67.2279 1.877C67.7393 2.13883 68.1548 2.55572 68.4149 3.068C68.5485 3.33311 68.6409 3.61704 68.6889 3.91C68.747 4.27387 68.7781 4.64154 68.7819 5.01C68.7869 5.201 68.7899 5.392 68.7909 5.588C68.7909 5.824 68.7909 6.061 68.7909 6.298V38.708C68.7909 38.945 68.7909 39.181 68.7909 39.422C68.7909 39.613 68.7909 39.804 68.7819 39.995C68.7778 40.3635 68.7464 40.7312 68.6879 41.095C68.6397 41.387 68.5473 41.6699 68.4139 41.934C68.1524 42.4476 67.7347 42.8649 67.2209 43.126C66.9573 43.2589 66.6751 43.3513 66.3839 43.4C66.0223 43.4572 65.657 43.4883 65.2909 43.493C65.0969 43.493 64.9029 43.5 64.7049 43.501C64.4689 43.501 64.2319 43.501 63.9959 43.501H6.28591C6.05291 43.501 5.81891 43.501 5.58591 43.501C5.39191 43.501 5.19891 43.501 5.01191 43.493C4.64348 43.4886 4.27585 43.4575 3.91191 43.4C3.61859 43.3511 3.33437 43.258 3.06891 43.124C2.55691 42.8628 2.14071 42.4462 1.87991 41.934C1.74656 41.6684 1.65419 41.3842 1.60591 41.091C1.54788 40.7288 1.5168 40.3628 1.51291 39.996C1.50791 39.804 1.50591 39.612 1.50391 39.421V5.584C1.50391 5.392 1.50391 5.2 1.51291 5.008C1.5169 4.63951 1.54832 4.27183 1.60691 3.908C1.65446 3.61596 1.74582 3.33277 1.87791 3.068C2.13897 2.55563 2.55554 2.13906 3.06791 1.878C3.33285 1.74464 3.61636 1.65194 3.90891 1.603C4.27279 1.54498 4.64045 1.5139 5.00891 1.51C5.20091 1.505 5.39291 1.503 5.58391 1.501H63.9969" fill="white"/>
<path d="M19.1901 15.1361C19.8419 14.3548 20.1646 13.3508 20.0901 12.3361C19.0903 12.4315 18.1662 12.9098 17.5111 13.6711C17.1861 14.0352 16.9368 14.4604 16.778 14.9219C16.6192 15.3835 16.554 15.872 16.5861 16.3591C17.0845 16.3681 17.5783 16.2622 18.0292 16.0496C18.4801 15.8369 18.876 15.5233 19.1861 15.1331" fill="black"/>
<path d="M20.0811 16.5551C18.6451 16.4691 17.4241 17.3701 16.7381 17.3701C16.0521 17.3701 15.0011 16.5981 13.8651 16.6191C13.1264 16.638 12.4055 16.8498 11.774 17.2334C11.1425 17.6171 10.6223 18.1592 10.2651 18.8061C8.72212 21.4661 9.85812 25.4121 11.3581 27.5781C12.0871 28.6501 12.9651 29.8301 14.1221 29.7871C15.2151 29.7441 15.6441 29.0791 16.9731 29.0791C18.3021 29.0791 18.6871 29.7871 19.8451 29.7661C21.0451 29.7451 21.7961 28.6941 22.5251 27.6211C23.042 26.8613 23.4462 26.0307 23.7251 25.1551C23.0366 24.8528 22.4502 24.3579 22.0364 23.73C21.6227 23.1021 21.3993 22.368 21.3931 21.6161C21.4024 20.9481 21.5801 20.2933 21.9098 19.7122C22.2395 19.1312 22.7105 18.6427 23.2791 18.2921C22.9157 17.777 22.4386 17.3524 21.8847 17.0514C21.3308 16.7503 20.715 16.5809 20.0851 16.5561" fill="black"/>
<path d="M32.5868 13.566C33.291 13.53 33.995 13.6419 34.6533 13.8946C35.3116 14.1472 35.9097 14.535 36.409 15.0329C36.9084 15.5308 37.2978 16.1278 37.5524 16.7854C37.8069 17.4431 37.9208 18.1467 37.8868 18.851C37.9167 19.5617 37.7976 20.2707 37.5373 20.9326C37.2769 21.5945 36.8809 22.1947 36.3748 22.6944C35.8687 23.1942 35.2637 23.5826 34.5986 23.8347C33.9335 24.0867 33.223 24.1969 32.5128 24.158H29.0518V29.658H26.5518V13.566H32.5838H32.5868ZM29.0518 22.066H31.9168C34.0908 22.066 35.3288 20.895 35.3288 18.866C35.3288 16.837 34.0918 15.677 31.9288 15.677H29.0518V22.066Z" fill="black"/>
<path d="M38.5352 26.321C38.5352 24.269 40.1072 23.01 42.8952 22.853L46.1062 22.664V21.764C46.1062 20.464 45.2252 19.679 43.7542 19.679C43.2022 19.6077 42.6434 19.7439 42.1861 20.0611C41.7289 20.3784 41.4057 20.8541 41.2792 21.396H39.0032C39.1372 19.278 40.9432 17.717 43.8422 17.717C46.6852 17.717 48.5022 19.222 48.5022 21.575V29.658H46.1952V27.725H46.1402C45.7707 28.3789 45.2324 28.9214 44.5815 29.2959C43.9306 29.6705 43.1911 29.8632 42.4402 29.854C40.1412 29.855 38.5352 28.428 38.5352 26.321ZM46.1052 25.262V24.337L43.2172 24.515C41.7792 24.615 40.9652 25.251 40.9652 26.254C40.9652 27.28 41.8122 27.949 43.1062 27.949C43.4807 27.9745 43.8565 27.9246 44.2114 27.8025C44.5664 27.6803 44.8932 27.4883 45.1728 27.2377C45.4523 26.9872 45.6788 26.6832 45.8389 26.3437C45.9991 26.0042 46.0896 25.6361 46.1052 25.261V25.262Z" fill="black"/>
<path d="M50.6805 33.9691V32.0161C50.9387 32.0539 51.1997 32.0689 51.4605 32.0611C51.9555 32.0996 52.4465 31.9481 52.8338 31.6376C53.2211 31.327 53.4756 30.8806 53.5455 30.3891C53.5455 30.3671 53.7575 29.6751 53.7575 29.6641L49.5205 17.9241H52.1295L55.0955 27.4681H55.1395L58.1055 17.9241H60.6475L56.2545 30.2661C55.2545 33.1091 54.0915 34.0231 51.6615 34.0231C51.3338 34.0223 51.0063 34.0043 50.6805 33.9691Z" fill="black"/>
</g>
<defs>
<clipPath id="clip0">
<rect width="70.292" height="45" fill="white"/>
</clipPath>
</defs>
</svg>
