<svg xmlns="http://www.w3.org/2000/svg" width="23.685" height="17.958" viewBox="0 0 23.685 17.958">
  <g id="Сгруппировать_13783" data-name="Сгруппировать 13783" transform="translate(-300 -433.912)">
    <path id="Контур_45377" data-name="Контур 45377" d="M309.409,448.806h-7.447A1.951,1.951,0,0,1,300,446.87V435.848a1.951,1.951,0,0,1,1.962-1.936h16.99a1.951,1.951,0,0,1,1.963,1.936v5.78a.457.457,0,0,1-.914,0v-5.78a1.037,1.037,0,0,0-1.048-1.022h-16.99a1.037,1.037,0,0,0-1.048,1.022V446.87a1.037,1.037,0,0,0,1.048,1.022h7.447a.457.457,0,1,1,0,.914Z" fill="#777"/>
    <path id="Контур_45378" data-name="Контур 45378" d="M320.458,506.8h-20a.457.457,0,0,1,0-.914h20a.457.457,0,0,1,0,.914Z" transform="translate(0 -69.012)" fill="#777"/>
    <path id="Контур_45379" data-name="Контур 45379" d="M320.458,563.707h-20a.457.457,0,0,1,0-.914h20a.457.457,0,0,1,0,.914Z" transform="translate(0 -123.585)" fill="#777"/>
    <path id="Контур_45380" data-name="Контур 45380" d="M359.9,667.739h-5.135a.457.457,0,1,1,0-.914H359.9a.457.457,0,1,1,0,.914Z" transform="translate(-52.077 -223.343)" fill="#777"/>
    <path id="Контур_45381" data-name="Контур 45381" d="M357.32,716.807h-2.554a.457.457,0,1,1,0-.914h2.554a.457.457,0,0,1,0,.914Z" transform="translate(-52.077 -270.394)" fill="#777"/>
    <path id="Контур_45382" data-name="Контур 45382" d="M570.257,661.412h-8.011a2.5,2.5,0,0,1-2.5-2.5v-3.979a2.5,2.5,0,0,1,2.5-2.5h8.011a2.5,2.5,0,0,1,2.5,2.5v3.979A2.5,2.5,0,0,1,570.257,661.412Zm-8.011-8.065a1.607,1.607,0,0,0-1.586,1.586v3.979a1.607,1.607,0,0,0,1.586,1.586h8.011a1.588,1.588,0,0,0,1.586-1.586v-3.979a1.588,1.588,0,0,0-1.586-1.586Z" transform="translate(-249.073 -209.542)" fill="#777"/>
    <path id="Контур_45383" data-name="Контур 45383" d="M686.07,711.263a.457.457,0,0,1-.443-.345l-.914-3.6a.457.457,0,1,1,.886-.225l.914,3.6a.457.457,0,0,1-.331.556A.474.474,0,0,1,686.07,711.263Z" transform="translate(-368.892 -261.624)" fill="#777"/>
    <path id="Контур_45384" data-name="Контур 45384" d="M707.406,711.251a.451.451,0,0,1-.116-.015.457.457,0,0,1-.327-.558l.941-3.6a.457.457,0,0,1,.885.231l-.941,3.6A.457.457,0,0,1,707.406,711.251Z" transform="translate(-390.226 -261.612)" fill="#777"/>
    <path id="Контур_45385" data-name="Контур 45385" d="M609.532,711.247a1.386,1.386,0,0,1-1.371-1.4v-1.72a1.386,1.386,0,0,1,1.371-1.4,1.417,1.417,0,0,1,1.4,1.4.457.457,0,1,1-.914,0,.5.5,0,0,0-.484-.484.471.471,0,0,0-.457.484v1.72a.471.471,0,0,0,.457.484.5.5,0,0,0,.484-.484.457.457,0,1,1,.914,0A1.417,1.417,0,0,1,609.532,711.247Z" transform="translate(-295.499 -261.609)" fill="#777"/>
    <path id="Контур_45386" data-name="Контур 45386" d="M761.99,711.255a.457.457,0,0,1-.442-.342l-.941-3.6a.457.457,0,0,1,.884-.231l.941,3.6a.457.457,0,0,1-.327.558A.451.451,0,0,1,761.99,711.255Z" transform="translate(-441.666 -261.616)" fill="#777"/>
    <path id="Контур_45387" data-name="Контур 45387" d="M783.948,711.263a.474.474,0,0,1-.113-.014.457.457,0,0,1-.331-.556l.914-3.6a.457.457,0,1,1,.886.225l-.914,3.6A.457.457,0,0,1,783.948,711.263Z" transform="translate(-463.623 -261.624)" fill="#777"/>
  </g>
</svg>
