<svg width="71" height="45" viewBox="0 0 71 45" fill="none" xmlns="http://www.w3.org/2000/svg">
<g clip-path="url(#clip0)">
<path d="M64 0H5.574C5.374 0 5.169 0 4.967 0.009C4.524 0.0150968 4.08208 0.0545417 3.645 0.127C3.20776 0.201779 2.7841 0.341312 2.388 0.541C1.59246 0.946268 0.945837 1.59324 0.541 2.389C0.341115 2.78467 0.20157 3.20802 0.127 3.645C0.0546574 4.08208 0.0155454 4.52401 0.01 4.967C0 5.169 0 5.372 0 5.574C0 5.814 0 6.055 0 6.295V38.705C0 38.946 0 39.186 0 39.427C0 39.627 0 39.827 0.009 40.034C0.0145805 40.4767 0.0536925 40.9183 0.126 41.355C0.200459 41.7923 0.340007 42.216 0.54 42.612C0.945008 43.4074 1.59162 44.054 2.387 44.459C2.78263 44.6592 3.20598 44.7991 3.643 44.874C4.08016 44.9455 4.52206 44.9843 4.965 44.99C5.165 44.9947 5.36733 44.9973 5.572 44.998C5.812 44.998 6.053 44.998 6.293 44.998H64C64.24 44.998 64.481 44.998 64.72 44.998C64.92 44.998 65.1227 44.9953 65.328 44.99C65.7709 44.9842 66.2128 44.9454 66.65 44.874C67.087 44.799 67.5103 44.6591 67.906 44.459C68.7014 44.054 69.348 43.4074 69.753 42.612C69.9534 42.2162 70.0929 41.7924 70.167 41.355C70.239 40.9182 70.2777 40.4766 70.283 40.034C70.2883 39.834 70.2913 39.6317 70.292 39.427C70.292 39.186 70.292 38.946 70.292 38.705V6.3C70.292 6.059 70.292 5.819 70.292 5.579C70.292 5.379 70.289 5.17667 70.283 4.972C70.2778 4.52904 70.239 4.0871 70.167 3.65C70.0929 3.21259 69.9533 2.78883 69.753 2.393C69.3473 1.59484 68.6984 0.946288 67.9 0.541C67.5051 0.341728 67.0829 0.202206 66.647 0.127C66.2099 0.0553017 65.7679 0.0165261 65.325 0.011C65.122 0.005 64.919 0 64.717 0H64Z" fill="black"/>
<path d="M63.9969 1.5H64.7069C64.8989 1.5 65.0919 1.5 65.2849 1.509C65.6534 1.51294 66.021 1.54402 66.3849 1.602C66.6781 1.65083 66.9623 1.74354 67.2279 1.877C67.7393 2.13883 68.1548 2.55572 68.4149 3.068C68.5485 3.33311 68.6409 3.61704 68.6889 3.91C68.747 4.27387 68.7781 4.64154 68.7819 5.01C68.7869 5.201 68.7899 5.392 68.7909 5.588C68.7909 5.824 68.7909 6.061 68.7909 6.298V38.708C68.7909 38.945 68.7909 39.181 68.7909 39.422C68.7909 39.613 68.7909 39.804 68.7819 39.995C68.7778 40.3635 68.7464 40.7312 68.6879 41.095C68.6397 41.387 68.5473 41.6699 68.4139 41.934C68.1524 42.4476 67.7347 42.8649 67.2209 43.126C66.9573 43.2589 66.6751 43.3513 66.3839 43.4C66.0223 43.4572 65.657 43.4883 65.2909 43.493C65.0969 43.493 64.9029 43.5 64.7049 43.501C64.4689 43.501 64.2319 43.501 63.9959 43.501H6.28591C6.05291 43.501 5.81891 43.501 5.58591 43.501C5.39191 43.501 5.19891 43.501 5.01191 43.493C4.64348 43.4886 4.27585 43.4575 3.91191 43.4C3.61859 43.3511 3.33437 43.258 3.06891 43.124C2.55691 42.8628 2.14071 42.4462 1.87991 41.934C1.74656 41.6684 1.65419 41.3842 1.60591 41.091C1.54788 40.7288 1.5168 40.3628 1.51291 39.996C1.50791 39.804 1.50591 39.612 1.50391 39.421V5.584C1.50391 5.392 1.50391 5.2 1.51291 5.008C1.5169 4.63951 1.54832 4.27183 1.60691 3.908C1.65446 3.61596 1.74582 3.33277 1.87791 3.068C2.13897 2.55563 2.55554 2.13906 3.06791 1.878C3.33285 1.74464 3.61636 1.65194 3.90891 1.603C4.27279 1.54498 4.64045 1.5139 5.00891 1.51C5.20091 1.505 5.39291 1.503 5.58391 1.501H63.9969" fill="white"/>
<path d="M22.6813 38.957V36.884C22.6934 36.7096 22.6682 36.5346 22.6074 36.3707C22.5465 36.2067 22.4514 36.0577 22.3283 35.9334C22.2053 35.8092 22.0572 35.7126 21.8939 35.6501C21.7306 35.5876 21.5559 35.5606 21.3813 35.571C21.153 35.5559 20.9248 35.6025 20.7206 35.7057C20.5163 35.809 20.3436 35.9652 20.2203 36.158C20.108 35.9709 19.9473 35.8176 19.7551 35.7143C19.5629 35.611 19.3463 35.5615 19.1283 35.571C18.9383 35.5615 18.7492 35.6019 18.5796 35.688C18.41 35.7741 18.2658 35.903 18.1613 36.062V35.654H17.4443V38.954H18.1693V37.14C18.154 37.0271 18.1638 36.9123 18.198 36.8036C18.2322 36.695 18.2899 36.5952 18.3671 36.5115C18.4442 36.4277 18.539 36.362 18.6444 36.3191C18.7499 36.2761 18.8636 36.257 18.9773 36.263C19.4543 36.263 19.6963 36.574 19.6963 37.134V38.968H20.4213V37.14C20.4066 37.0272 20.4167 36.9126 20.4511 36.8042C20.4855 36.6958 20.5433 36.5963 20.6203 36.5126C20.6974 36.429 20.7919 36.3633 20.8971 36.3201C21.0023 36.277 21.1157 36.2575 21.2293 36.263C21.7203 36.263 21.9543 36.574 21.9543 37.133V38.968L22.6813 38.957ZM33.4143 35.657H32.2323V34.657H31.5073V35.657H30.8543V36.313H31.5243V37.833C31.5243 38.6 31.8243 39.056 32.6713 39.056C32.9895 39.0573 33.3015 38.9685 33.5713 38.8L33.3643 38.185C33.1716 38.3001 32.9527 38.3645 32.7283 38.372C32.3833 38.372 32.2513 38.151 32.2513 37.819V36.311H33.4253L33.4143 35.657ZM39.5423 35.574C39.367 35.5688 39.1936 35.611 39.0403 35.6962C38.887 35.7814 38.7595 35.9064 38.6713 36.058V35.658H37.9593V38.958H38.6783V37.105C38.6783 36.559 38.9133 36.255 39.3693 36.255C39.523 36.2529 39.6756 36.2811 39.8183 36.338L40.0393 35.647C39.8753 35.5883 39.7025 35.5578 39.5283 35.557L39.5423 35.574ZM30.2773 35.919C29.8706 35.6774 29.4031 35.5576 28.9303 35.574C28.0943 35.574 27.5483 35.974 27.5483 36.631C27.5483 37.17 27.9483 37.501 28.6883 37.605L29.0333 37.653C29.4273 37.708 29.6133 37.812 29.6133 37.998C29.6133 38.254 29.3503 38.398 28.8603 38.398C28.4653 38.4099 28.0778 38.2884 27.7603 38.053L27.4153 38.613C27.8339 38.9051 28.3351 39.0551 28.8453 39.041C29.7983 39.041 30.3513 38.592 30.3513 37.963C30.3513 37.334 29.9163 37.079 29.1973 36.975L28.8523 36.927C28.5413 36.886 28.2923 36.827 28.2923 36.602C28.2923 36.377 28.5273 36.215 28.9213 36.215C29.2852 36.2192 29.6419 36.3166 29.9573 36.498L30.2773 35.919ZM49.5213 35.568C49.346 35.5628 49.1726 35.605 49.0193 35.6902C48.866 35.7754 48.7385 35.9004 48.6503 36.052V35.652H47.9383V38.952H48.6543V37.105C48.6543 36.559 48.8893 36.255 49.3453 36.255C49.499 36.2529 49.6516 36.2811 49.7943 36.338L50.0153 35.647C49.8513 35.5883 49.6785 35.5578 49.5043 35.557L49.5213 35.568ZM40.2643 37.299C40.2557 37.5311 40.2957 37.7624 40.3817 37.9782C40.4677 38.1939 40.5978 38.3894 40.7636 38.5519C40.9295 38.7145 41.1275 38.8407 41.3449 38.9223C41.5624 39.0039 41.7945 39.0392 42.0263 39.026C42.4577 39.0478 42.8815 38.9073 43.2143 38.632L42.8693 38.052C42.6212 38.2425 42.3181 38.3478 42.0053 38.352C41.7388 38.3319 41.4896 38.2118 41.3078 38.0158C41.126 37.8198 41.025 37.5623 41.025 37.295C41.025 37.0277 41.126 36.7702 41.3078 36.5742C41.4896 36.3782 41.7388 36.2581 42.0053 36.238C42.3181 36.2422 42.6212 36.3475 42.8693 36.538L43.2143 35.958C42.8815 35.6827 42.4577 35.5422 42.0263 35.564C41.7945 35.5508 41.5624 35.5861 41.3449 35.6677C41.1275 35.7493 40.9295 35.8755 40.7636 36.0381C40.5978 36.2006 40.4677 36.3961 40.3817 36.6118C40.2957 36.8276 40.2557 37.0589 40.2643 37.291V37.299ZM46.9933 37.299V35.654H46.2743V36.054C46.1524 35.897 45.9948 35.7712 45.8147 35.687C45.6346 35.6029 45.437 35.5628 45.2383 35.57C45.0115 35.57 44.787 35.6147 44.5774 35.7015C44.3679 35.7883 44.1775 35.9155 44.0172 36.0758C43.8568 36.2362 43.7296 36.4266 43.6428 36.6361C43.556 36.8456 43.5113 37.0702 43.5113 37.297C43.5113 37.5238 43.556 37.7484 43.6428 37.9579C43.7296 38.1674 43.8568 38.3578 44.0172 38.5182C44.1775 38.6785 44.3679 38.8058 44.5774 38.8925C44.787 38.9793 45.0115 39.024 45.2383 39.024C45.437 39.0312 45.6346 38.9911 45.8147 38.907C45.9948 38.8228 46.1524 38.697 46.2743 38.54V38.94H46.9933V37.299ZM44.3193 37.299C44.3344 37.0719 44.4272 36.857 44.5821 36.6903C44.737 36.5236 44.9445 36.4152 45.1699 36.3835C45.3952 36.3517 45.6246 36.3985 45.8195 36.5159C46.0144 36.6334 46.163 36.8143 46.2403 37.0283C46.3175 37.2424 46.3188 37.4765 46.2438 37.6913C46.1688 37.9062 46.0222 38.0887 45.8285 38.2082C45.6349 38.3277 45.406 38.3769 45.1803 38.3475C44.9547 38.3182 44.746 38.2121 44.5893 38.047C44.4956 37.9474 44.4232 37.8297 44.3768 37.701C44.3303 37.5723 44.3108 37.4355 44.3193 37.299ZM35.6493 35.568C35.1913 35.5744 34.7546 35.7624 34.4352 36.0908C34.1158 36.4192 33.94 36.861 33.9463 37.319C33.9527 37.777 34.1408 38.2138 34.4691 38.5331C34.7975 38.8525 35.2393 39.0284 35.6973 39.022C36.1942 39.0474 36.6828 38.8874 37.0683 38.573L36.7233 38.041C36.4506 38.2595 36.1128 38.3809 35.7633 38.386C35.5258 38.4066 35.2897 38.3336 35.1052 38.1827C34.9207 38.0318 34.8023 37.8148 34.7753 37.578H37.2283V37.302C37.2499 37.0829 37.2252 36.8618 37.1558 36.6528C37.0864 36.4439 36.9738 36.252 36.8254 36.0894C36.6769 35.9268 36.496 35.7973 36.2942 35.7092C36.0925 35.6211 35.8745 35.5764 35.6543 35.578L35.6493 35.568ZM35.6493 36.211C35.8662 36.2064 36.0761 36.2881 36.2328 36.4381C36.3895 36.5881 36.4803 36.7941 36.4853 37.011H34.7543C34.7673 36.7896 34.8662 36.582 35.0301 36.4325C35.1939 36.2831 35.4097 36.2036 35.6313 36.211H35.6493ZM53.6493 37.303V34.328H52.9543V36.055C52.8324 35.898 52.6748 35.7722 52.4947 35.688C52.3146 35.6039 52.117 35.5638 51.9183 35.571C51.6915 35.571 51.467 35.6157 51.2574 35.7025C51.0479 35.7893 50.8575 35.9165 50.6972 36.0768C50.5368 36.2372 50.4096 36.4276 50.3228 36.6371C50.236 36.8466 50.1913 37.0712 50.1913 37.298C50.1913 37.5248 50.236 37.7494 50.3228 37.9589C50.4096 38.1684 50.5368 38.3588 50.6972 38.5192C50.8575 38.6795 51.0479 38.8067 51.2574 38.8935C51.467 38.9803 51.6915 39.025 51.9183 39.025C52.117 39.0322 52.3146 38.9921 52.4947 38.908C52.6748 38.8238 52.8324 38.698 52.9543 38.541V38.941H53.6543L53.6493 37.303ZM54.8493 38.474C54.9152 38.4727 54.9799 38.4911 55.0353 38.5267C55.0906 38.5623 55.1342 38.6136 55.1603 38.674C55.1779 38.7144 55.187 38.758 55.187 38.802C55.187 38.846 55.1779 38.8896 55.1603 38.93C55.1253 39.009 55.0607 39.0711 54.9803 39.103C54.9391 39.1213 54.8945 39.1309 54.8493 39.131C54.7839 39.1306 54.7199 39.1116 54.6648 39.0762C54.6097 39.0408 54.5659 38.9904 54.5383 38.931C54.521 38.8906 54.5121 38.847 54.5121 38.803C54.5121 38.759 54.521 38.7155 54.5383 38.675C54.5655 38.6132 54.6106 38.5611 54.6679 38.5254C54.7252 38.4897 54.7919 38.4721 54.8593 38.475L54.8493 38.474ZM54.8493 39.058C54.8838 39.0581 54.9178 39.051 54.9493 39.037C54.9789 39.0238 55.0057 39.0051 55.0283 38.982C55.056 38.9531 55.0763 38.918 55.0876 38.8796C55.0988 38.8412 55.1006 38.8007 55.0929 38.7615C55.0851 38.7222 55.068 38.6854 55.043 38.6542C55.0181 38.6229 54.9859 38.5982 54.9493 38.582C54.9178 38.5682 54.8838 38.561 54.8493 38.561C54.8149 38.5613 54.7809 38.5684 54.7493 38.582C54.7183 38.5946 54.6901 38.6133 54.6663 38.637C54.6328 38.6734 54.6107 38.7189 54.603 38.7678C54.5952 38.8167 54.6021 38.8667 54.6227 38.9117C54.6433 38.9567 54.6768 38.9946 54.7189 39.0207C54.761 39.0467 54.8099 39.0597 54.8593 39.058H54.8493ZM54.8703 38.647C54.9027 38.6455 54.9346 38.6554 54.9603 38.675C54.971 38.6838 54.9794 38.695 54.9848 38.7077C54.9902 38.7204 54.9924 38.7342 54.9913 38.748C54.9918 38.7594 54.9899 38.7708 54.9858 38.7815C54.9817 38.7922 54.9754 38.8019 54.9673 38.81C54.9472 38.8282 54.9215 38.8392 54.8943 38.841L54.9943 38.955H54.9143L54.8213 38.841H54.7903V38.955H54.7243V38.655L54.8703 38.647ZM54.7943 38.706V38.789H54.8703C54.8837 38.7929 54.898 38.7929 54.9113 38.789C54.9113 38.7683 54.9113 38.7477 54.9113 38.727C54.898 38.7231 54.8837 38.7231 54.8703 38.727L54.7943 38.706ZM50.9943 37.306C51.0094 37.0789 51.1022 36.864 51.2571 36.6973C51.412 36.5306 51.6195 36.4223 51.8449 36.3905C52.0702 36.3588 52.2996 36.4055 52.4945 36.5229C52.6895 36.6404 52.838 36.8213 52.9153 37.0353C52.9925 37.2494 52.9938 37.4835 52.9188 37.6983C52.8438 37.9132 52.6972 38.0957 52.5035 38.2152C52.3099 38.3347 52.081 38.3839 51.8553 38.3545C51.6297 38.3252 51.421 38.2191 51.2643 38.054C51.1704 37.9545 51.0979 37.8368 51.0512 37.7081C51.0046 37.5795 50.9849 37.4426 50.9933 37.306H50.9943ZM26.7343 37.306V35.654H26.0143V36.054C25.8924 35.897 25.7348 35.7712 25.5547 35.687C25.3746 35.6029 25.177 35.5628 24.9783 35.57C24.5203 35.57 24.081 35.752 23.7572 36.0758C23.4333 36.3997 23.2513 36.839 23.2513 37.297C23.2513 37.755 23.4333 38.1943 23.7572 38.5182C24.081 38.842 24.5203 39.024 24.9783 39.024C25.177 39.0312 25.3746 38.9911 25.5547 38.907C25.7348 38.8228 25.8924 38.697 26.0143 38.54V38.94H26.7333L26.7343 37.306ZM24.0603 37.306C24.1722 37.3069 24.2792 37.3521 24.3578 37.4317C24.4364 37.5113 24.4803 37.6189 24.4798 37.7307C24.4794 37.8426 24.4346 37.9498 24.3553 38.0287C24.276 38.1077 24.1687 38.152 24.0568 38.152C23.945 38.152 23.8376 38.1077 23.7583 38.0287C23.6791 37.9498 23.6343 37.8426 23.6338 37.7307C23.6334 37.6189 23.6773 37.5113 23.7559 37.4317C23.8345 37.3521 23.9415 37.3069 24.0533 37.306H24.0603Z" fill="#231F20"/>
<path d="M40.9191 10.49H30.0381V30.045H40.9191V10.49Z" fill="#FF5F00"/>
<path d="M30.7291 20.269C30.7272 18.3855 31.1538 16.5262 31.9768 14.832C32.7997 13.1377 33.9974 11.6529 35.4791 10.49C33.6445 9.04814 31.4413 8.15147 29.1212 7.90253C26.8011 7.65358 24.4577 8.06241 22.359 9.08227C20.2603 10.1021 18.4908 11.6919 17.2528 13.6698C16.0149 15.6478 15.3584 17.9341 15.3584 20.2675C15.3584 22.601 16.0149 24.8873 17.2528 26.8653C18.4908 28.8432 20.2603 30.433 22.359 31.4528C24.4577 32.4727 26.8011 32.8815 29.1212 32.6326C31.4413 32.3836 33.6445 31.487 35.4791 30.045C33.9978 28.8825 32.8004 27.3982 31.9774 25.7045C31.1545 24.0108 30.7276 22.1521 30.7291 20.269V20.269Z" fill="#EB001B"/>
<path d="M55.6015 20.269C55.6012 22.6024 54.9444 24.8887 53.7062 26.8665C52.468 28.8443 50.6984 30.4339 48.5995 31.4535C46.5006 32.4731 44.1572 32.8816 41.8371 32.6324C39.517 32.3831 37.3139 31.4862 35.4795 30.044C36.9601 28.8803 38.157 27.3956 38.9801 25.7019C39.8031 24.0082 40.2308 22.1496 40.2308 20.2665C40.2308 18.3834 39.8031 16.5248 38.9801 14.8311C38.157 13.1374 36.9601 11.6527 35.4795 10.489C37.314 9.04678 39.5172 8.14981 41.8374 7.9006C44.1575 7.65139 46.501 8.06 48.5999 9.07973C50.6988 10.0995 52.4685 11.6892 53.7066 13.6671C54.9448 15.6451 55.6014 17.9315 55.6015 20.265V20.269Z" fill="#F79E1B"/>
<path d="M54.4131 27.973V27.573H54.5751V27.489H54.1641V27.572H54.3401V27.972L54.4131 27.973ZM55.2131 27.973V27.489H55.0891L54.9441 27.834L54.7991 27.489H54.6881V27.973H54.7781V27.61L54.9131 27.924H55.0061L55.1411 27.61V27.976L55.2131 27.973Z" fill="#F79E1B"/>
</g>
<defs>
<clipPath id="clip0">
<rect width="70.292" height="45" fill="white"/>
</clipPath>
</defs>
</svg>
