<svg width="17" height="22" viewBox="0 0 17 22" fill="none" xmlns="http://www.w3.org/2000/svg">
<path d="M9.81201 13.894C9.80953 14.096 9.75407 14.2939 9.65125 14.4678C9.54842 14.6417 9.40183 14.7855 9.22601 14.885V17.4041H8.05402V14.881C7.87778 14.7815 7.73079 14.6373 7.62793 14.463C7.52507 14.2887 7.46995 14.0904 7.46802 13.888C7.46802 13.5772 7.59149 13.2791 7.81128 13.0593C8.03107 12.8395 8.32918 12.716 8.64001 12.716C8.95085 12.716 9.24896 12.8395 9.46875 13.0593C9.68854 13.2791 9.81201 13.5772 9.81201 13.888V13.894ZM16.212 10.951V19.251C16.2101 19.7156 16.0247 20.1605 15.6962 20.4889C15.3676 20.8173 14.9225 21.0024 14.458 21.004H2.758C2.29191 21.0035 1.84508 20.8181 1.5155 20.4885C1.18593 20.159 1.00053 19.7121 1 19.246V10.946C1.00053 10.48 1.18593 10.0331 1.5155 9.70349C1.84508 9.37392 2.29191 9.18858 2.758 9.18805H2.78601V6.85901C2.78601 5.30511 3.4033 3.81484 4.50208 2.71606C5.60085 1.61729 7.09112 1 8.64502 1C10.1989 1 11.6892 1.61729 12.788 2.71606C13.8867 3.81484 14.504 5.30511 14.504 6.85901V9.19305C14.962 9.2048 15.3974 9.39506 15.717 9.72333C16.0367 10.0516 16.2154 10.4918 16.215 10.95L16.212 10.951ZM3.94897 9.19305H13.323V6.86401C13.323 5.62094 12.8292 4.42879 11.9502 3.5498C11.0712 2.67082 9.87906 2.177 8.63599 2.177C7.39292 2.177 6.20076 2.67082 5.32178 3.5498C4.44279 4.42879 3.94897 5.62094 3.94897 6.86401V9.19305ZM15.04 10.951C15.0393 10.8036 14.9826 10.6619 14.8815 10.5546C14.7803 10.4473 14.6422 10.3824 14.495 10.373H2.78101V10.36H2.75299C2.59766 10.3603 2.44877 10.4221 2.33893 10.532C2.22909 10.6418 2.16726 10.7907 2.16699 10.946V19.246C2.16726 19.4014 2.22909 19.5503 2.33893 19.6601C2.44877 19.7699 2.59766 19.8318 2.75299 19.832H14.453C14.6083 19.8318 14.7572 19.7699 14.8671 19.6601C14.9769 19.5503 15.0387 19.4014 15.039 19.246L15.04 10.951Z" fill="#0E0E0E" stroke="#0E0E0E" stroke-width="0.5"/>
</svg>
