<svg width="98" height="33" viewBox="0 0 98 33" fill="none" xmlns="http://www.w3.org/2000/svg">
<g clip-path="url(#clip0)">
<path d="M21.6817 12.833H18.1947V10.17C18.1947 8.39875 17.4911 6.70005 16.2386 5.44759C14.9862 4.19512 13.2875 3.4915 11.5162 3.4915C9.74496 3.4915 8.04625 4.19512 6.79379 5.44759C5.54133 6.70005 4.8377 8.39875 4.8377 10.17V12.834H1.3457V10.17C1.3457 7.47275 2.41718 4.88597 4.32442 2.97872C6.23167 1.07148 8.81845 0 11.5157 0C14.213 0 16.7997 1.07148 18.707 2.97872C20.6142 4.88597 21.6857 7.47275 21.6857 10.17L21.6817 12.833Z" fill="#D5D5D9"/>
<path d="M1.195 12.7791H21.829C22.1459 12.7791 22.4499 12.905 22.674 13.1291C22.8981 13.3532 23.024 13.6571 23.024 13.9741V20.9441C23.024 23.9972 21.8111 26.9253 19.6522 29.0843C17.4933 31.2432 14.5652 32.4561 11.512 32.4561V32.4561C8.45883 32.4561 5.53071 31.2432 3.37179 29.0843C1.21287 26.9253 0 23.9972 0 20.9441L0 13.9741C0 13.6571 0.125901 13.3532 0.350007 13.1291C0.574113 12.905 0.878066 12.7791 1.195 12.7791V12.7791Z" fill="#8EBD00"/>
<g style="mix-blend-mode:multiply" opacity="0.1">
<path d="M23.0237 12.7791H11.5117V32.4561H23.0237V12.7791Z" fill="#134200"/>
</g>
<path d="M10.4871 26.529L5.08105 21.461L7.38705 19.299L10.4871 22.205L16.717 16.365L19.023 18.527L10.4871 26.529Z" fill="white"/>
<path d="M32.3902 13.143C31.9761 12.9872 31.5749 12.7993 31.1902 12.581C30.8496 12.389 30.5428 12.1424 30.2822 11.851C30.0238 11.5532 29.826 11.2077 29.7002 10.834C29.3819 9.78255 29.4306 8.65414 29.8382 7.634C30.0592 7.1331 30.3937 6.69045 30.8152 6.341C31.2635 5.97833 31.7805 5.70996 32.3352 5.552C32.9833 5.36627 33.655 5.27632 34.3292 5.285C34.9619 5.28133 35.5933 5.34096 36.2142 5.463C36.8403 5.59257 37.457 5.76395 38.0602 5.976C37.9762 6.75595 37.7626 7.51641 37.4282 8.226C37.2282 8.14733 37.0282 8.06833 36.8282 7.989C36.6162 7.9068 36.3987 7.83996 36.1772 7.78899C35.9197 7.73233 35.6593 7.6896 35.3972 7.661C35.0693 7.62648 34.7398 7.61012 34.4102 7.61199C34.1819 7.61219 33.9541 7.63194 33.7292 7.671C33.5106 7.70608 33.3001 7.77954 33.1072 7.88799C32.9171 7.99929 32.7603 8.15953 32.6532 8.352C32.5245 8.59838 32.4631 8.87432 32.4752 9.15199C32.4675 9.3802 32.5148 9.60691 32.6132 9.813C32.7041 9.98953 32.832 10.1444 32.9882 10.267C33.1511 10.3954 33.3303 10.5016 33.5212 10.583C33.7212 10.6683 33.9185 10.7507 34.1132 10.83L35.2982 11.284C35.7982 11.484 36.2522 11.688 36.6602 11.896C37.049 12.0925 37.3998 12.3566 37.6962 12.676C37.9896 13.003 38.2143 13.3855 38.3572 13.801C38.528 14.3263 38.6081 14.8768 38.5942 15.429C38.602 16.0599 38.4773 16.6853 38.2282 17.265C37.9883 17.8125 37.6272 18.2984 37.1722 18.686C36.669 19.1041 36.0887 19.4194 35.4642 19.614C34.7073 19.8495 33.9177 19.9629 33.1252 19.95C32.6905 19.95 32.3022 19.9367 31.9602 19.91C31.6323 19.8858 31.3062 19.843 30.9832 19.782C30.6733 19.7228 30.3669 19.647 30.0652 19.555C29.7625 19.463 29.4468 19.351 29.1182 19.219C29.1612 18.8162 29.2337 18.4171 29.3352 18.025C29.4398 17.6103 29.5648 17.1927 29.7102 16.772C30.2158 16.9796 30.7371 17.1468 31.2692 17.272C31.7808 17.3866 32.3038 17.443 32.8282 17.44C33.5106 17.4768 34.1891 17.3157 34.7822 16.976C35.0148 16.8246 35.2032 16.6143 35.3281 16.3665C35.453 16.1186 35.51 15.842 35.4932 15.565C35.5025 15.2919 35.4448 15.0207 35.3252 14.775C35.2177 14.57 35.0701 14.3888 34.8912 14.242C34.7083 14.0942 34.5065 13.9714 34.2912 13.877C34.0672 13.7783 33.8368 13.683 33.6002 13.591L32.3902 13.143Z" fill="#262626"/>
<path d="M40.6602 5.52405H48.7132C48.7922 5.91916 48.8321 6.32111 48.8322 6.72405C48.8336 7.14163 48.7938 7.55832 48.7132 7.96805H43.5412V11.0471H47.6462C47.7236 11.4505 47.7635 11.8602 47.7652 12.271C47.7654 12.6886 47.7255 13.1051 47.6462 13.5151H43.5412V17.2651H48.8512C48.9304 17.6601 48.9702 18.0621 48.9702 18.465C48.9718 18.8826 48.9319 19.2993 48.8512 19.7091H40.6592L40.6602 5.52405Z" fill="#262626"/>
<path d="M60.5176 17.032C60.6877 17.3989 60.8294 17.7784 60.9416 18.167C61.0529 18.5517 61.1355 18.9441 61.1886 19.341C60.592 19.5678 59.9738 19.7329 59.3436 19.834C58.7582 19.9158 58.1677 19.9556 57.5766 19.953C56.5695 19.974 55.5687 19.7893 54.6356 19.41C53.8229 19.0695 53.0975 18.5499 52.5136 17.89C51.9271 17.2145 51.4869 16.425 51.2206 15.571C50.9234 14.6261 50.777 13.6404 50.7866 12.65C50.7772 11.6541 50.9305 10.6634 51.2406 9.71698C51.5193 8.8582 51.9656 8.0632 52.5536 7.37799C53.1342 6.71415 53.8558 6.18835 54.6656 5.83899C55.5671 5.45724 56.5387 5.26885 57.5176 5.28598C58.102 5.28276 58.6859 5.32219 59.2646 5.40398C59.8576 5.50045 60.4373 5.66625 60.9916 5.89798C60.9651 6.29192 60.8854 6.68045 60.7546 7.05298C60.6213 7.42765 60.4766 7.80599 60.3206 8.18799C59.9212 8.04652 59.5122 7.93422 59.0966 7.85199C58.6791 7.78058 58.2561 7.74711 57.8326 7.75199C57.2851 7.71939 56.7374 7.81381 56.2325 8.02787C55.7275 8.24194 55.2789 8.56984 54.9216 8.98598C54.1698 10.0526 53.8105 11.3465 53.9046 12.648C53.9046 15.8587 55.2666 17.464 57.9906 17.464C58.4204 17.4682 58.8497 17.4347 59.2736 17.364C59.696 17.2848 60.1118 17.1738 60.5176 17.032V17.032Z" fill="#262626"/>
<path d="M63.2612 5.52297C63.5105 5.48364 63.7539 5.4573 63.9912 5.44397C64.2282 5.43097 64.4712 5.42497 64.7222 5.42497C64.9456 5.42497 65.1759 5.4313 65.4132 5.44397C65.6505 5.45664 65.8939 5.48297 66.1432 5.52297V12.886C66.1382 13.5747 66.1678 14.2632 66.2322 14.949C66.2704 15.4392 66.3908 15.9196 66.5882 16.37C66.7425 16.7198 67.0055 17.0105 67.3382 17.199C67.7269 17.3914 68.1578 17.4829 68.5912 17.465C69.0215 17.4838 69.4494 17.3922 69.8342 17.199C70.1624 17.0079 70.4215 16.7177 70.5742 16.37C70.7713 15.9195 70.8913 15.4392 70.9292 14.949C70.9938 14.2633 71.0235 13.5747 71.0182 12.886V5.52297C71.2815 5.48364 71.5316 5.4573 71.7682 5.44397C72.0049 5.43064 72.2352 5.42431 72.4592 5.42497C72.6962 5.42497 72.9362 5.43097 73.1802 5.44397C73.428 5.45781 73.675 5.48418 73.9202 5.52297V13.498C73.9274 14.3819 73.848 15.2645 73.6832 16.133C73.5512 16.8673 73.2616 17.5644 72.8342 18.176C72.4146 18.7514 71.8492 19.2046 71.1962 19.489C69.5143 20.1076 67.6671 20.1076 65.9852 19.489C65.3313 19.2052 64.7651 18.7519 64.3452 18.176C63.9179 17.5644 63.6282 16.8673 63.4962 16.133C63.3316 15.2645 63.2522 14.3819 63.2592 13.498L63.2612 5.52297Z" fill="#262626"/>
<path d="M76.7217 5.52399C77.3003 5.45732 77.843 5.40132 78.3497 5.35599C78.8563 5.31065 79.419 5.28765 80.0377 5.28699C80.7563 5.28734 81.4734 5.35429 82.1797 5.48698C82.8509 5.60654 83.4958 5.84351 84.0847 6.18699C84.6478 6.52027 85.1193 6.9883 85.4567 7.54899C85.8285 8.21394 86.0095 8.96869 85.9797 9.72999C85.9866 10.2013 85.9191 10.6707 85.7797 11.121C85.6624 11.4943 85.4942 11.8497 85.2797 12.177C85.0908 12.4621 84.869 12.724 84.6187 12.957C84.4114 13.1514 84.1868 13.3265 83.9477 13.48L83.6117 13.697L87.0667 19.697C86.8033 19.723 86.527 19.7493 86.2377 19.776C85.9483 19.8027 85.6523 19.816 85.3497 19.816C84.8539 19.8161 84.359 19.7763 83.8697 19.697L80.1587 13.104L80.6327 12.867C80.8167 12.775 81.0403 12.6567 81.3037 12.512C81.5767 12.3602 81.8316 12.178 82.0637 11.969C82.3142 11.7431 82.5245 11.4763 82.6857 11.18C82.9139 10.7042 82.9927 10.1705 82.9117 9.64909C82.8306 9.12767 82.5936 8.64303 82.2317 8.25899C81.7078 7.85398 81.0573 7.64777 80.3957 7.67699C80.1315 7.6751 79.8676 7.69483 79.6067 7.73598V19.717C79.37 19.743 79.133 19.766 78.8957 19.786C78.6584 19.806 78.428 19.816 78.2047 19.816C77.9807 19.816 77.7437 19.809 77.4937 19.796C77.2437 19.783 76.9877 19.756 76.7237 19.717L76.7217 5.52399Z" fill="#262626"/>
<path d="M88.6455 5.52405H96.6995C96.7785 5.91916 96.8184 6.32111 96.8185 6.72405C96.82 7.14163 96.7801 7.55832 96.6995 7.96805H91.5275V11.0471H95.6335C95.7109 11.4505 95.7508 11.8602 95.7525 12.271C95.7527 12.6886 95.7129 13.1051 95.6335 13.5151H91.5275V17.2651H96.8375C96.916 17.6602 96.9556 18.0622 96.9555 18.465C96.9571 18.8826 96.9176 19.2993 96.8375 19.7091H88.6455V5.52405Z" fill="#262626"/>
<path d="M30.5029 27.0111C30.3133 26.9396 30.1294 26.8537 29.9529 26.7541C29.7972 26.6662 29.657 26.5534 29.5379 26.4201C29.4199 26.2838 29.3296 26.1259 29.2719 25.9551C29.1264 25.4747 29.1486 24.9591 29.3349 24.4931C29.4359 24.2637 29.589 24.061 29.7819 23.9011C29.9869 23.7351 30.2233 23.6123 30.4769 23.5401C30.7734 23.4554 31.0806 23.4143 31.3889 23.4181C31.6782 23.4164 31.967 23.4435 32.2509 23.4991C32.5372 23.5584 32.8192 23.6369 33.0949 23.7341C33.0566 24.0908 32.9589 24.4386 32.8059 24.7631L32.5309 24.6541C32.4332 24.6169 32.3329 24.5868 32.2309 24.5641C32.1131 24.5379 31.9939 24.5182 31.8739 24.5051C31.7241 24.4891 31.5736 24.4815 31.4229 24.4821C31.3187 24.4825 31.2146 24.4915 31.1119 24.5091C31.0122 24.5257 30.9161 24.5595 30.8279 24.6091C30.7409 24.6599 30.669 24.7331 30.6199 24.8211C30.5612 24.9338 30.5333 25.0601 30.5389 25.1871C30.5358 25.2907 30.5574 25.3935 30.6019 25.4871C30.6437 25.5679 30.7023 25.6389 30.7739 25.6951C30.8485 25.7537 30.9306 25.8021 31.0179 25.8391C31.1079 25.8781 31.1989 25.9161 31.2889 25.9521L31.8309 26.1601C32.0596 26.2507 32.2673 26.3441 32.4539 26.4401C32.6318 26.53 32.7923 26.6509 32.9279 26.7971C33.0612 26.9467 33.1632 27.1214 33.2279 27.3111C33.3064 27.5514 33.3433 27.8034 33.3369 28.0561C33.3407 28.3447 33.2838 28.6309 33.1699 28.8961C33.0604 29.1466 32.8952 29.3689 32.6869 29.5461C32.4569 29.7372 32.1915 29.8813 31.9059 29.9701C31.5597 30.0777 31.1984 30.1293 30.8359 30.1231C30.6359 30.1231 30.4586 30.1171 30.3039 30.1051C30.1539 30.0939 30.0047 30.0742 29.8569 30.0461C29.7152 30.0202 29.575 29.9869 29.4369 29.9461C29.2983 29.9041 29.1539 29.8528 29.0039 29.7921C29.0239 29.6079 29.0573 29.4254 29.1039 29.2461C29.1519 29.0568 29.2092 28.8657 29.2759 28.6731C29.5071 28.7686 29.7455 28.8456 29.9889 28.9031C30.2229 28.9556 30.4621 28.9814 30.7019 28.9801C31.0141 28.997 31.3245 28.9233 31.5959 28.7681C31.7023 28.6987 31.7884 28.6024 31.8455 28.4889C31.9026 28.3755 31.9286 28.2489 31.9209 28.1221C31.9252 27.9973 31.8987 27.8733 31.8439 27.7611C31.7943 27.6672 31.7263 27.5842 31.6439 27.5171C31.56 27.4495 31.4675 27.3934 31.3689 27.3501C31.2662 27.3048 31.1609 27.2611 31.0529 27.2191L30.5029 27.0111Z" fill="#BABABD"/>
<path d="M35.2431 27.0111C35.0534 26.9398 34.8695 26.8539 34.6931 26.7541C34.5374 26.6662 34.3972 26.5534 34.2781 26.4201C34.1598 26.284 34.0694 26.126 34.0121 25.9551C33.8668 25.4747 33.889 24.9592 34.0751 24.4931C34.1761 24.2637 34.3291 24.061 34.5221 23.9011C34.7286 23.7347 34.9667 23.6118 35.2221 23.5401C35.5185 23.4553 35.8258 23.4142 36.1341 23.4181C36.4234 23.4164 36.7121 23.4435 36.9961 23.4991C37.2823 23.5584 37.5643 23.637 37.8401 23.7341C37.8018 24.0908 37.7041 24.4386 37.5511 24.7631L37.2761 24.6541C37.1783 24.6169 37.0781 24.5869 36.9761 24.5641C36.8586 24.5379 36.7397 24.5182 36.6201 24.5051C36.4699 24.4891 36.319 24.4814 36.1681 24.4821C36.0638 24.4825 35.9598 24.4915 35.8571 24.5091C35.7573 24.5257 35.6612 24.5595 35.5731 24.6091C35.4859 24.6597 35.4141 24.733 35.3651 24.8211C35.3062 24.9338 35.2783 25.0601 35.2841 25.1871C35.2811 25.2907 35.3027 25.3935 35.3471 25.4871C35.389 25.5679 35.4476 25.6388 35.5191 25.6951C35.5937 25.7536 35.6757 25.8021 35.7631 25.8391C35.8531 25.8784 35.9434 25.9161 36.0341 25.9521L36.5751 26.1601C36.8037 26.2508 37.0114 26.3441 37.1981 26.4401C37.376 26.5301 37.5365 26.651 37.6721 26.7971C37.8054 26.9467 37.9074 27.1214 37.9721 27.3111C38.0506 27.5514 38.0874 27.8034 38.0811 28.0561C38.0847 28.3447 38.0278 28.6308 37.9141 28.8961C37.8043 29.1465 37.6392 29.3688 37.4311 29.5461C37.201 29.7371 36.9356 29.8812 36.6501 29.9701C36.3038 30.0777 35.9426 30.1293 35.5801 30.1231C35.3801 30.1231 35.2024 30.1171 35.0471 30.1051C34.8971 30.0939 34.7478 30.0742 34.6001 30.0461C34.4584 30.0202 34.3182 29.9869 34.1801 29.9461C34.0414 29.9041 33.8971 29.8528 33.7471 29.7921C33.767 29.6079 33.8005 29.4254 33.8471 29.2461C33.8951 29.0568 33.9524 28.8658 34.0191 28.6731C34.2502 28.7687 34.4886 28.8456 34.7321 28.9031C34.9661 28.9556 35.2053 28.9814 35.4451 28.9801C35.7573 28.997 36.0677 28.9233 36.3391 28.7681C36.4455 28.6987 36.5316 28.6024 36.5887 28.4889C36.6458 28.3755 36.6718 28.2489 36.6641 28.1221C36.6682 27.9973 36.6417 27.8734 36.5871 27.7611C36.5374 27.6672 36.4694 27.5842 36.3871 27.5171C36.3032 27.4496 36.2107 27.3934 36.1121 27.3501C36.0094 27.3048 35.9041 27.2611 35.7961 27.2191L35.2431 27.0111Z" fill="#BABABD"/>
<path d="M39.0254 23.526C39.2373 23.4909 39.4516 23.4728 39.6664 23.472C39.8871 23.4728 40.1075 23.4909 40.3254 23.526V28.879H42.5734C42.5909 28.976 42.6029 29.0738 42.6094 29.172C42.6154 29.2654 42.6184 29.354 42.6184 29.438C42.6184 29.538 42.6184 29.629 42.6094 29.722C42.6029 29.8203 42.5909 29.9181 42.5734 30.015H39.0254V23.526Z" fill="#BABABD"/>
<path d="M45.4609 23.526H49.1439C49.18 23.7074 49.1981 23.892 49.1979 24.077C49.1987 24.2676 49.1806 24.4579 49.1439 24.645H46.7789V26.053H48.6569C48.6922 26.2373 48.7102 26.4244 48.7109 26.612C48.7112 26.803 48.6931 26.9935 48.6569 27.181H46.7789V28.896H49.2069C49.243 29.0771 49.2611 29.2613 49.2609 29.446C49.2617 29.637 49.2436 29.8276 49.2069 30.015H45.4609V23.526Z" fill="#BABABD"/>
<path d="M50.2539 23.5261C50.4291 23.4912 50.6073 23.4731 50.7859 23.4721C50.9738 23.4727 51.1613 23.4908 51.3459 23.5261L53.8549 27.6601V23.5261C54.0607 23.491 54.2691 23.4729 54.4779 23.4721C54.6596 23.4716 54.8409 23.4897 55.0189 23.5261V30.0161C54.8463 30.0501 54.6709 30.0681 54.4949 30.0701C54.3103 30.0685 54.1263 30.0504 53.9449 30.0161L51.4199 25.8911V30.0161C51.2263 30.0522 51.0298 30.0703 50.8329 30.0701C50.639 30.0705 50.4454 30.0525 50.2549 30.0161L50.2539 23.5261Z" fill="#BABABD"/>
<path d="M60.5713 28.789C60.6491 28.9568 60.714 29.1303 60.7653 29.308C60.8159 29.4841 60.8537 29.6635 60.8783 29.845C60.6054 29.9489 60.3226 30.0246 60.0343 30.071C59.7666 30.1083 59.4965 30.1263 59.2263 30.125C58.7657 30.1348 58.308 30.0504 57.8813 29.877C57.5092 29.72 57.1776 29.4806 56.9113 29.177C56.6429 28.8681 56.4417 28.5068 56.3203 28.116C56.1838 27.684 56.1163 27.2331 56.1203 26.78C56.1165 26.3247 56.1867 25.8718 56.3283 25.439C56.4557 25.0463 56.6596 24.6826 56.9283 24.369C57.1942 24.0667 57.5242 23.8276 57.8943 23.669C58.3053 23.4952 58.7481 23.409 59.1943 23.416C59.4619 23.4145 59.7293 23.4325 59.9943 23.47C60.2656 23.5141 60.5307 23.59 60.7843 23.696C60.7722 23.8761 60.7358 24.0537 60.6763 24.224C60.6163 24.3954 60.5496 24.5684 60.4763 24.743C60.2936 24.6783 60.1064 24.6268 59.9163 24.589C59.7257 24.5568 59.5326 24.5418 59.3393 24.544C59.0888 24.5291 58.8383 24.5723 58.6073 24.6701C58.3762 24.7679 58.1709 24.9178 58.0073 25.108C57.6638 25.5957 57.4995 26.1871 57.5423 26.782C57.5423 28.2487 58.1653 28.982 59.4113 28.982C59.6079 28.9843 59.8043 28.9692 59.9983 28.937C60.1928 28.9024 60.3843 28.8529 60.5713 28.789Z" fill="#BABABD"/>
<path d="M61.9258 23.526C62.1924 23.496 62.4408 23.4703 62.6708 23.449C62.9008 23.4277 63.1581 23.4173 63.4428 23.418C63.7715 23.4177 64.0996 23.4478 64.4228 23.508C64.7297 23.5625 65.0245 23.6708 65.2938 23.828C65.5513 23.9803 65.7668 24.1944 65.9208 24.451C66.0912 24.7559 66.174 25.102 66.1598 25.451C66.1635 25.6664 66.1331 25.8811 66.0698 26.087C66.0158 26.2579 65.9384 26.4204 65.8398 26.57C65.7543 26.7005 65.6536 26.8204 65.5398 26.927C65.4452 27.0158 65.3428 27.0958 65.2338 27.166L65.0798 27.266L66.6598 30.01L66.2808 30.046C66.1474 30.058 66.0121 30.064 65.8748 30.064C65.648 30.0642 65.4216 30.0461 65.1978 30.01L63.4978 26.995L63.7148 26.887C63.7988 26.845 63.9011 26.791 64.0218 26.725C64.1464 26.6556 64.2628 26.5724 64.3688 26.477C64.4834 26.3738 64.5795 26.2517 64.6528 26.116C64.7575 25.8985 64.7937 25.6544 64.7568 25.4158C64.7198 25.1773 64.6114 24.9556 64.4458 24.78C64.206 24.595 63.9084 24.5007 63.6058 24.514C63.4849 24.5131 63.3642 24.5221 63.2448 24.541V30.02C63.1368 30.032 63.0284 30.0423 62.9198 30.051C62.8118 30.06 62.7058 30.065 62.6038 30.065C62.5018 30.065 62.3928 30.065 62.2788 30.056C62.1648 30.047 62.0468 30.038 61.9268 30.02L61.9258 23.526Z" fill="#BABABD"/>
<path d="M68.6782 27.6961L66.6562 23.5261C66.9073 23.4901 67.1606 23.4721 67.4142 23.4721C67.644 23.4721 67.8733 23.4902 68.1003 23.5261L69.3812 26.4691L70.6452 23.5261C70.8721 23.4897 71.1015 23.4717 71.3312 23.4721C71.5639 23.4732 71.7962 23.4913 72.0262 23.5261L70.0042 27.6961V30.0251C69.8836 30.0431 69.7692 30.0551 69.6612 30.0611C69.5532 30.0671 69.4449 30.0701 69.3362 30.0701C69.2336 30.0701 69.1269 30.0671 69.0162 30.0611C68.9027 30.0548 68.7896 30.0428 68.6772 30.0251L68.6782 27.6961Z" fill="#BABABD"/>
<path d="M72.749 23.499C73.0257 23.475 73.3057 23.4553 73.589 23.44C73.8724 23.4247 74.1584 23.4173 74.447 23.418C74.7545 23.4186 75.0613 23.4487 75.363 23.508C75.6627 23.5636 75.9483 23.6786 76.203 23.846C76.4614 24.0212 76.6712 24.2589 76.813 24.537C76.9829 24.8944 77.0636 25.2876 77.048 25.683C77.064 26.0771 76.9833 26.4692 76.813 26.825C76.6719 27.1002 76.466 27.337 76.213 27.515C75.9641 27.6847 75.6829 27.8014 75.387 27.858C75.0907 27.9177 74.7893 27.9482 74.487 27.949C74.409 27.949 74.335 27.949 74.266 27.949C74.197 27.949 74.132 27.941 74.072 27.935V30.02C73.957 30.038 73.846 30.05 73.738 30.056C73.63 30.062 73.524 30.065 73.422 30.065C73.32 30.065 73.222 30.065 73.106 30.056C72.99 30.047 72.874 30.038 72.754 30.02L72.749 23.499ZM74.067 26.839C74.1331 26.8505 74.2 26.8566 74.267 26.857H74.497C74.6463 26.8575 74.7949 26.838 74.939 26.799C75.0792 26.7621 75.2101 26.696 75.323 26.605C75.4387 26.5088 75.5299 26.3864 75.589 26.248C75.6604 26.0751 75.6945 25.889 75.689 25.702C75.6943 25.5092 75.6603 25.3173 75.589 25.138C75.5306 24.9955 75.4395 24.8688 75.323 24.768C75.2112 24.6741 75.0801 24.6058 74.939 24.568C74.795 24.5287 74.6463 24.5089 74.497 24.509C74.43 24.509 74.369 24.509 74.312 24.509C74.255 24.509 74.172 24.52 74.064 24.532L74.067 26.839Z" fill="#BABABD"/>
<path d="M79.2745 24.645H77.6585C77.6219 24.4579 77.6038 24.2676 77.6045 24.077C77.6043 23.892 77.6223 23.7074 77.6585 23.526H82.2175C82.2536 23.7074 82.2717 23.892 82.2715 24.077C82.2722 24.2676 82.2541 24.4579 82.2175 24.645H80.6015V30.016C80.4935 30.028 80.3855 30.038 80.2765 30.047C80.1675 30.056 80.0625 30.061 79.9605 30.061C79.8585 30.061 79.7485 30.061 79.6315 30.052C79.5145 30.043 79.3955 30.034 79.2745 30.016V24.645Z" fill="#BABABD"/>
<path d="M83.1299 23.526C83.3477 23.4904 83.5681 23.4723 83.7889 23.472C84.0126 23.4726 84.236 23.4906 84.4569 23.526V30.0161C84.239 30.0512 84.0186 30.0693 83.7979 30.0701C83.5741 30.07 83.3507 30.0519 83.1299 30.0161V23.526Z" fill="#BABABD"/>
<path d="M88.3651 30.125C87.9302 30.1358 87.4984 30.0493 87.1011 29.872C86.757 29.7126 86.4564 29.4725 86.2251 29.172C85.9879 28.8566 85.8147 28.4979 85.7151 28.116C85.6001 27.6815 85.5439 27.2335 85.5481 26.784C85.5443 26.3316 85.6005 25.8807 85.7151 25.443C85.8139 25.0566 85.9871 24.6932 86.2251 24.373C86.4559 24.072 86.7566 23.8318 87.1011 23.673C87.5014 23.5063 87.9309 23.4204 88.3646 23.4204C88.7983 23.4204 89.2277 23.5063 89.6281 23.673C89.9726 23.8318 90.2733 24.072 90.5041 24.373C90.7422 24.6931 90.9154 25.0565 91.0141 25.443C91.1286 25.8807 91.1848 26.3316 91.1811 26.784C91.1853 27.2335 91.1291 27.6815 91.0141 28.116C90.9147 28.498 90.7414 28.8567 90.5041 29.172C90.2727 29.4725 89.9722 29.7126 89.6281 29.872C89.2311 30.0492 88.7997 30.1356 88.3651 30.125V30.125ZM88.3651 29.025C89.2984 29.025 89.7651 28.2787 89.7651 26.786C89.8018 26.2064 89.6852 25.6273 89.4271 25.107C89.3196 24.9266 89.1645 24.7792 88.9787 24.6811C88.7929 24.583 88.5837 24.538 88.3741 24.551C87.4294 24.551 86.9571 25.2974 86.9571 26.79C86.9571 28.2827 87.4264 29.027 88.3651 29.023V29.025Z" fill="#BABABD"/>
<path d="M92.2735 23.5261C92.449 23.4911 92.6275 23.473 92.8065 23.4721C92.9944 23.4727 93.1819 23.4908 93.3665 23.5261L95.8735 27.6601V23.5261C96.0793 23.491 96.2877 23.4729 96.4965 23.4721C96.6782 23.4716 96.8594 23.4897 97.0375 23.5261V30.0161C96.8652 30.05 96.6901 30.0681 96.5145 30.0701C96.3299 30.0685 96.1458 30.0505 95.9645 30.0161L93.4365 25.8911V30.0161C93.2429 30.0522 93.0464 30.0703 92.8495 30.0701C92.6555 30.0705 92.462 30.0525 92.2715 30.0161L92.2735 23.5261Z" fill="#BABABD"/>
</g>
<defs>
<clipPath id="clip0">
<rect width="97.04" height="32.457" fill="white"/>
</clipPath>
</defs>
</svg>
