<svg width="71" height="45" viewBox="0 0 71 45" fill="none" xmlns="http://www.w3.org/2000/svg">
<g clip-path="url(#clip0)">
<path d="M64 0H5.574C5.374 0 5.169 0 4.967 0.009C4.524 0.0150968 4.08208 0.0545417 3.645 0.127C3.20776 0.201779 2.7841 0.341312 2.388 0.541C1.59246 0.946268 0.945837 1.59324 0.541 2.389C0.341115 2.78467 0.20157 3.20802 0.127 3.645C0.0546574 4.08208 0.0155454 4.52401 0.01 4.967C0 5.169 0 5.372 0 5.574C0 5.814 0 6.055 0 6.295V38.705C0 38.946 0 39.186 0 39.427C0 39.627 0 39.827 0.009 40.034C0.0145805 40.4767 0.0536925 40.9183 0.126 41.355C0.200459 41.7923 0.340007 42.216 0.54 42.612C0.945008 43.4074 1.59162 44.054 2.387 44.459C2.78263 44.6592 3.20598 44.7991 3.643 44.874C4.08016 44.9455 4.52206 44.9843 4.965 44.99C5.165 44.9947 5.36733 44.9973 5.572 44.998C5.812 44.998 6.053 44.998 6.293 44.998H64C64.24 44.998 64.481 44.998 64.72 44.998C64.92 44.998 65.1227 44.9953 65.328 44.99C65.7709 44.9842 66.2128 44.9454 66.65 44.874C67.087 44.799 67.5103 44.6591 67.906 44.459C68.7014 44.054 69.348 43.4074 69.753 42.612C69.9534 42.2162 70.0929 41.7924 70.167 41.355C70.239 40.9182 70.2777 40.4766 70.283 40.034C70.2883 39.834 70.2913 39.6317 70.292 39.427C70.292 39.186 70.292 38.946 70.292 38.705V6.3C70.292 6.059 70.292 5.819 70.292 5.579C70.292 5.379 70.289 5.17667 70.283 4.972C70.2778 4.52904 70.239 4.0871 70.167 3.65C70.0929 3.21259 69.9533 2.78883 69.753 2.393C69.3473 1.59484 68.6984 0.946288 67.9 0.541C67.5051 0.341728 67.0829 0.202206 66.647 0.127C66.2099 0.0553017 65.7679 0.0165261 65.325 0.011C65.122 0.005 64.919 0 64.717 0H64Z" fill="black"/>
<path d="M63.9969 1.5H64.7069C64.8989 1.5 65.0919 1.5 65.2849 1.509C65.6534 1.51294 66.021 1.54402 66.3849 1.602C66.6781 1.65083 66.9623 1.74354 67.2279 1.877C67.7393 2.13883 68.1548 2.55572 68.4149 3.068C68.5485 3.33311 68.6409 3.61704 68.6889 3.91C68.747 4.27387 68.7781 4.64154 68.7819 5.01C68.7869 5.201 68.7899 5.392 68.7909 5.588C68.7909 5.824 68.7909 6.061 68.7909 6.298V38.708C68.7909 38.945 68.7909 39.181 68.7909 39.422C68.7909 39.613 68.7909 39.804 68.7819 39.995C68.7778 40.3635 68.7464 40.7312 68.6879 41.095C68.6397 41.387 68.5473 41.6699 68.4139 41.934C68.1524 42.4476 67.7347 42.8649 67.2209 43.126C66.9573 43.2589 66.6751 43.3513 66.3839 43.4C66.0223 43.4572 65.657 43.4883 65.2909 43.493C65.0969 43.493 64.9029 43.5 64.7049 43.501C64.4689 43.501 64.2319 43.501 63.9959 43.501H6.28591C6.05291 43.501 5.81891 43.501 5.58591 43.501C5.39191 43.501 5.19891 43.501 5.01191 43.493C4.64348 43.4886 4.27585 43.4575 3.91191 43.4C3.61859 43.3511 3.33437 43.258 3.06891 43.124C2.55691 42.8628 2.14071 42.4462 1.87991 41.934C1.74656 41.6684 1.65419 41.3842 1.60591 41.091C1.54788 40.7288 1.5168 40.3628 1.51291 39.996C1.50791 39.804 1.50591 39.612 1.50391 39.421V5.584C1.50391 5.392 1.50391 5.2 1.51291 5.008C1.5169 4.63951 1.54832 4.27183 1.60691 3.908C1.65446 3.61596 1.74582 3.33277 1.87791 3.068C2.13897 2.55563 2.55554 2.13906 3.06791 1.878C3.33285 1.74464 3.61636 1.65194 3.90891 1.603C4.27279 1.54498 4.64045 1.5139 5.00891 1.51C5.20091 1.505 5.39291 1.503 5.58391 1.501H63.9969" fill="white"/>
<path d="M25.6836 30.777L28.5436 14.009H33.1136L30.2526 30.777H25.6836Z" fill="#004790"/>
<path d="M46.8294 14.4219C45.5149 13.9477 44.1267 13.7107 42.7294 13.7219C38.2134 13.7219 35.0294 15.9959 35.0054 19.2549C34.9804 21.6639 37.2764 23.0089 39.0054 23.8109C40.7844 24.6329 41.3824 25.1569 41.3744 25.8909C41.3634 27.0149 39.9534 27.5279 38.6404 27.5279C37.1582 27.5713 35.6863 27.2701 34.3404 26.6479L33.7514 26.3809L33.1104 30.1349C34.7399 30.7364 36.4644 31.0396 38.2014 31.0299C43.0014 31.0299 46.1244 28.7819 46.1604 25.3009C46.1774 23.3939 44.9604 21.9419 42.3234 20.7449C40.7234 19.9689 39.7474 19.4519 39.7584 18.6659C39.7584 17.9659 40.5864 17.2239 42.3754 17.2239C43.5476 17.1977 44.7124 17.4164 45.7953 17.8659L46.2054 18.0599L46.8254 14.4259" fill="#004790"/>
<path d="M58.5489 14.0251H55.0169C54.5207 13.9612 54.0173 14.0628 53.5846 14.3141C53.152 14.5654 52.8143 14.9524 52.6239 15.4151L45.8359 30.7821H50.6359C50.6359 30.7821 51.4209 28.7161 51.5979 28.2621L57.4509 28.2691C57.5879 28.8561 58.0069 30.7821 58.0069 30.7821H62.2479L58.5479 14.0251H58.5489ZM52.9119 24.8331C53.2899 23.8671 54.7329 20.1461 54.7329 20.1461C54.7059 20.1911 55.1079 19.1751 55.3389 18.5461L55.6479 19.9921C55.6479 19.9921 56.5229 23.9921 56.7059 24.8341L52.9119 24.8331Z" fill="#004790"/>
<path d="M21.8513 14.0179L17.3773 25.4549L16.9003 23.1309C15.7418 20.0787 13.484 17.5698 10.5703 16.0969L14.6613 30.7609L19.4973 30.7549L26.6923 14.0179H21.8513Z" fill="#004790"/>
<path d="M13.2249 14.011H5.85487L5.79688 14.36C11.5309 15.748 15.3249 19.102 16.8969 23.132L15.2969 15.427C15.1802 14.9809 14.9062 14.5919 14.5255 14.3318C14.1448 14.0716 13.6829 13.9577 13.2249 14.011" fill="#FC9200"/>
</g>
<defs>
<clipPath id="clip0">
<rect width="70.292" height="45" fill="white"/>
</clipPath>
</defs>
</svg>
