<svg xmlns="http://www.w3.org/2000/svg" width="65.232" height="20" viewBox="0 0 65.232 20">
  <g id="Сгруппировать_13680" data-name="Сгруппировать 13680" transform="translate(-8.126 -69.058)">
    <path id="Контур_45280" data-name="Контур 45280" d="M70.04,89.341l3.3-19.376h5.281l-3.3,19.376Z" transform="translate(-38.934 -0.57)" fill="#004790"/>
    <path id="Контур_45281" data-name="Контур 45281" d="M109.021,69.872a13.637,13.637,0,0,0-4.733-.814c-5.218,0-8.895,2.628-8.926,6.394-.029,2.784,2.625,4.337,4.628,5.264,2.056.949,2.747,1.555,2.737,2.4-.013,1.3-1.642,1.892-3.16,1.892A11.071,11.071,0,0,1,94.6,83.995l-.681-.308-.741,4.337a16.721,16.721,0,0,0,5.883,1.034c5.552,0,9.156-2.6,9.2-6.62.02-2.2-1.387-3.882-4.434-5.264-1.846-.9-2.976-1.494-2.965-2.4,0-.805.957-1.667,3.025-1.667a9.74,9.74,0,0,1,3.953.742l.473.224.716-4.2" transform="translate(-53.481 0)" fill="#004790"/>
    <path id="Контур_45282" data-name="Контур 45282" d="M147.469,70.015h-4.081a2.627,2.627,0,0,0-2.766,1.607l-7.844,17.757h5.546s.907-2.388,1.112-2.912l6.764.008c.158.679.643,2.9.643,2.9h4.9l-4.275-19.364M140.957,82.5c.437-1.116,2.1-5.416,2.1-5.416-.031.052.434-1.122.7-1.849l.357,1.671s1.011,4.625,1.223,5.595Z" transform="translate(-78.386 -0.602)" fill="#004790"/>
    <path id="Контур_45283" data-name="Контур 45283" d="M36.02,70,30.849,83.216,30.3,80.531A15.119,15.119,0,0,0,22.984,72.4l4.728,16.945,5.588-.007L41.614,70H36.02" transform="translate(-9.343 -0.594)" fill="#004790"/>
    <path id="Контур_45284" data-name="Контур 45284" d="M16.71,69.971H8.194l-.068.4c6.626,1.6,11.01,5.48,12.829,10.137l-1.852-8.9a2.211,2.211,0,0,0-2.394-1.636" transform="translate(0 -0.574)" fill="#fc9200"/>
  </g>
</svg>
