<?xml version="1.0" encoding="utf-8"?>
<!-- Generator: Adobe Illustrator 19.0.1, SVG Export Plug-In . SVG Version: 6.00 Build 0)  -->
<svg version="1.1" id="Слой_1" xmlns="http://www.w3.org/2000/svg" xmlns:xlink="http://www.w3.org/1999/xlink" x="0px" y="0px"
	 viewBox="0 0 595.3 140.7" style="enable-background:new 0 0 595.3 140.7;" xml:space="preserve">
<style type="text/css">
	.st0{fill:url(#SVGID_1_);}
	.st1{opacity:0.8;}
	.st2{fill:url(#SVGID_2_);}
	.st3{opacity:0.9;}
	.st4{fill:url(#SVGID_3_);}
	.st5{opacity:0.7;}
	.st6{fill:url(#SVGID_4_);}
	.st7{opacity:0.5;}
	.st8{fill:url(#SVGID_5_);}
	.st9{opacity:0.6;}
	.st10{fill:url(#SVGID_6_);}
	.st11{opacity:0.3;}
	.st12{fill:url(#SVGID_7_);}
	.st13{opacity:0.4;}
	.st14{fill:url(#SVGID_8_);}
	.st15{opacity:0.29;}
	.st16{fill:url(#SVGID_9_);}
</style>
<g id="Arrows_under_SELL_SKINS_NOW">
	<g>
		<linearGradient id="SVGID_1_" gradientUnits="userSpaceOnUse" x1="5.017186e-006" y1="70.3302" x2="75.3019" y2="70.3302">
			<stop  offset="0" style="stop-color:#009F42"/>
			<stop  offset="1" style="stop-color:#009548"/>
		</linearGradient>
		<path class="st0" d="M8.5,139.2c-1,1-2.2,1.5-3.5,1.5s-2.5-0.5-3.5-1.5c-1.9-1.9-1.9-5.1,0-7l61.8-61.8L1.5,8.5
			c-1.9-1.9-1.9-5.1,0-7s5.1-1.9,7,0l65.4,65.4c1.9,1.9,1.9,5.1,0,7L8.5,139.2z"/>
	</g>
	<g class="st1">
		<linearGradient id="SVGID_2_" gradientUnits="userSpaceOnUse" x1="124.2335" y1="70.3302" x2="199.5353" y2="70.3302">
			<stop  offset="0" style="stop-color:#009F42"/>
			<stop  offset="1" style="stop-color:#009548"/>
		</linearGradient>
		<path class="st2" d="M132.7,139.2c-1,1-2.2,1.5-3.5,1.5c-1.3,0-2.5-0.5-3.5-1.5c-1.9-1.9-1.9-5.1,0-7l61.8-61.8L125.7,8.5
			c-1.9-1.9-1.9-5.1,0-7c1.9-1.9,5.1-1.9,7,0l65.4,65.4c1.9,1.9,1.9,5.1,0,7L132.7,139.2z"/>
	</g>
	<g class="st3">
		<linearGradient id="SVGID_3_" gradientUnits="userSpaceOnUse" x1="61.8232" y1="70.3302" x2="137.1251" y2="70.3302">
			<stop  offset="0" style="stop-color:#009F42"/>
			<stop  offset="1" style="stop-color:#009548"/>
		</linearGradient>
		<path class="st4" d="M70.3,139.2c-1,1-2.2,1.5-3.5,1.5c-1.3,0-2.5-0.5-3.5-1.5c-1.9-1.9-1.9-5.1,0-7l61.8-61.8L63.3,8.5
			c-1.9-1.9-1.9-5.1,0-7c1.9-1.9,5.1-1.9,7,0l65.4,65.4c1.9,1.9,1.9,5.1,0,7L70.3,139.2z"/>
	</g>
	<g class="st5">
		<linearGradient id="SVGID_4_" gradientUnits="userSpaceOnUse" x1="186.7941" y1="70.3302" x2="262.096" y2="70.3302">
			<stop  offset="0" style="stop-color:#009F42"/>
			<stop  offset="1" style="stop-color:#009548"/>
		</linearGradient>
		<path class="st6" d="M195.3,139.2c-1,1-2.2,1.5-3.5,1.5s-2.5-0.5-3.5-1.5c-1.9-1.9-1.9-5.1,0-7l61.8-61.8L188.2,8.5
			c-1.9-1.9-1.9-5.1,0-7c1.9-1.9,5.1-1.9,7,0l65.4,65.4c1.9,1.9,1.9,5.1,0,7L195.3,139.2z"/>
	</g>
	<g class="st7">
		<linearGradient id="SVGID_5_" gradientUnits="userSpaceOnUse" x1="320.2359" y1="70.3302" x2="395.5378" y2="70.3302">
			<stop  offset="0" style="stop-color:#009F42"/>
			<stop  offset="1" style="stop-color:#009548"/>
		</linearGradient>
		<path class="st8" d="M328.7,139.2c-1,1-2.2,1.5-3.5,1.5c-1.3,0-2.5-0.5-3.5-1.5c-1.9-1.9-1.9-5.1,0-7l61.8-61.8L321.7,8.5
			c-1.9-1.9-1.9-5.1,0-7c1.9-1.9,5.1-1.9,7,0l65.4,65.4c1.9,1.9,1.9,5.1,0,7L328.7,139.2z"/>
	</g>
	<g class="st9">
		<linearGradient id="SVGID_6_" gradientUnits="userSpaceOnUse" x1="252.3007" y1="70.3302" x2="327.6025" y2="70.3302">
			<stop  offset="0" style="stop-color:#009F42"/>
			<stop  offset="1" style="stop-color:#009548"/>
		</linearGradient>
		<path class="st10" d="M260.8,139.2c-1,1-2.2,1.5-3.5,1.5c-1.3,0-2.5-0.5-3.5-1.5c-1.9-1.9-1.9-5.1,0-7l61.8-61.8L253.8,8.5
			c-1.9-1.9-1.9-5.1,0-7c1.9-1.9,5.1-1.9,7,0l65.4,65.4c1.9,1.9,1.9,5.1,0,7L260.8,139.2z"/>
	</g>
	<g class="st11">
		<linearGradient id="SVGID_7_" gradientUnits="userSpaceOnUse" x1="449.4396" y1="70.3302" x2="524.7415" y2="70.3302">
			<stop  offset="0" style="stop-color:#009F42"/>
			<stop  offset="1" style="stop-color:#009548"/>
		</linearGradient>
		<path class="st12" d="M457.9,139.2c-1,1-2.2,1.5-3.5,1.5c-1.3,0-2.5-0.5-3.5-1.5c-1.9-1.9-1.9-5.1,0-7l61.8-61.8L450.9,8.5
			c-1.9-1.9-1.9-5.1,0-7s5.1-1.9,7,0l65.4,65.4c1.9,1.9,1.9,5.1,0,7L457.9,139.2z"/>
	</g>
	<g class="st13">
		<linearGradient id="SVGID_8_" gradientUnits="userSpaceOnUse" x1="385.1877" y1="70.3302" x2="460.4896" y2="70.3302">
			<stop  offset="0" style="stop-color:#009F42"/>
			<stop  offset="1" style="stop-color:#009548"/>
		</linearGradient>
		<path class="st14" d="M393.7,139.2c-1,1-2.2,1.5-3.5,1.5c-1.3,0-2.5-0.5-3.5-1.5c-1.9-1.9-1.9-5.1,0-7l61.8-61.8L386.6,8.5
			c-1.9-1.9-1.9-5.1,0-7c1.9-1.9,5.1-1.9,7,0L459,66.8c1.9,1.9,1.9,5.1,0,7L393.7,139.2z"/>
	</g>
	<g class="st15">
		<linearGradient id="SVGID_9_" gradientUnits="userSpaceOnUse" x1="520.1625" y1="70.3302" x2="595.28" y2="70.3302">
			<stop  offset="0" style="stop-color:#009F42"/>
			<stop  offset="1" style="stop-color:#009548"/>
		</linearGradient>
		<path class="st16" d="M528.6,139.2c-1,1-2.2,1.5-3.5,1.5c-1.2,0-2.2-0.4-3.1-1.1c-2.3-1.9-2.3-5.5-0.1-7.7l57.8-57.8
			c2.1-2.1,2.1-5.5,0-7.5L521.8,8.7C520,7,519.6,4.2,521,2.1c1.8-2.6,5.5-2.8,7.6-0.7l65.1,65.1c2.1,2.1,2.1,5.5,0,7.5L528.6,139.2z
			"/>
	</g>
</g>
</svg>
