<?xml version="1.0" encoding="utf-8"?>
<!-- Generator: Adobe Illustrator 19.0.1, SVG Export Plug-In . SVG Version: 6.00 Build 0)  -->
<svg version="1.1" id="Слой_1" xmlns="http://www.w3.org/2000/svg" xmlns:xlink="http://www.w3.org/1999/xlink" x="0px" y="0px"
	 viewBox="0 0 595.3 454.8" style="enable-background:new 0 0 595.3 454.8;" xml:space="preserve">
<style type="text/css">
	.st0{fill:url(#SVGID_1_);}
</style>
<g id="Arrow_between_cubes">
	<g>
		<linearGradient id="SVGID_1_" gradientUnits="userSpaceOnUse" x1="0.5572" y1="227.3802" x2="595.28" y2="227.3802">
			<stop  offset="0" style="stop-color:#009F42"/>
			<stop  offset="1" style="stop-color:#009548"/>
		</linearGradient>
		<path class="st0" d="M275.2,3.1c-5.4,21-1.9,46.5-1.5,68c0.4,26,1.9,52.5,7.3,78.1c0,0-0.1,0-0.1,0c-0.3,0.2-0.5,0.5-0.8,0.7
			c-37,2.7-74,3.2-111,3.4c-0.3-0.1-0.5,0-0.8,0c-53.1,0.2-106.2-0.5-159.3,2.5c-0.7,0-1.1,0.4-1.6,0.7c-2.2,0.5-4.1,2.2-4,5.2
			c1.7,49-1.7,98-0.6,147c-3.4,1.7-2.8,7.6,0.9,7.9c1.6,2.4,5.1,2.2,6.4-0.5c66.3-7.8,133.4,2.2,199.8,1.1c0.3,0.6,1.2,0.8,1.7,0.1
			c0-0.1,0.1-0.1,0.1-0.2c25-0.5,49.8-2.5,74.4-7.8c-0.1,0.3-0.4,0.5-0.4,0.8c0,0.5-0.1,1-0.2,1.6c0,0,0,0,0,0c-0.1,0.1,0,0.2,0,0.3
			c-4.2,44.1-22.6,97.4-8.6,140.6c0.6,1.9,2.9,2.5,4.4,1.2c0.2-0.2,0.4-0.4,0.6-0.6c0.4-0.3,0.6-0.8,0.6-1.3
			c0.7,0.5,1.6,0.8,2.7,0.2c108.4-61.1,215.5-141.7,308.3-224.7c2.9-2.6,1.6-6.2-0.9-7.9c-43.7-65.5-114.4-98.8-178-141.6
			C374.9,51.5,329.4,18,285,0.3c-1.2-0.5-2.2-0.2-3.1,0.4C279.7-0.8,276,0,275.2,3.1z M105.2,298c-8-0.2-16-0.2-24,0
			c47.4-35.5,78.6-91.1,120.1-133.1c8.5-0.3,17.1-0.3,25.6-0.7C180.7,201.2,144.5,253.7,105.2,298z M233.5,163.8
			c2.3-0.1,4.6-0.3,6.9-0.5C196,198.9,165.8,255.6,130,298.2c-0.2,0.3-0.2,0.5-0.3,0.8c-6.9-0.3-13.9-0.8-20.8-0.9
			C151.2,254.3,192.9,209.1,233.5,163.8z M150.9,214.3c-22.5,29.5-44,61-73.8,83.8c0,0,0,0.1-0.1,0.1c-5.5,0.2-11,0.4-16.5,0.8
			c46.4-38.2,85.5-85.3,120.9-133.8c4-0.1,8,0,11.9-0.1C176.3,177.6,163.2,198.1,150.9,214.3z M162.7,165.4c4.1,0,8.1,0,12.2-0.1
			c-36.5,47.4-73.8,93.5-117.9,134c-6.6,0.5-13.2,1.3-19.8,2.3C85.6,263.9,123.5,212.5,162.7,165.4z M35,301.9
			c-6.3,0.9-12.5,2.2-18.7,3.6c26.9-29,50.9-60.6,78.5-89c12.7-13,24.9-27.3,36.6-41.3c2.8-3.3,7.4-6.1,9.9-9.9
			c4.7,0,9.3,0.1,14,0.1C112.6,208.3,81.9,262.4,35,301.9z M132.8,299.2c40.1-44.2,72.8-93.7,114.8-136.3c6.1-0.4,12.3-0.7,18.4-1.3
			c-46.2,40.4-79.4,93.8-121.8,138.1C140.4,299.5,136.6,299.4,132.8,299.2z M14.7,163.4c5.5,0.1,11.1,0.2,16.6,0.3
			c-6.8,8.2-11.8,18.5-16.3,28.4C15,182.5,15,172.9,14.7,163.4z M14.9,200.4c0,0,0.1,0,0.1-0.1c6.7-12.8,14.6-24.4,22-36.6
			c3.1,0,6.2,0.1,9.3,0.2c-1.4,3.3-4.1,7.2-5,8.7c-3.6,6.2-7.6,12.3-11.6,18.2c-4.9,7.3-9.9,14.4-15,21.6
			C14.8,208.4,14.8,204.4,14.9,200.4z M13.9,244.3c0.1-0.1,0.2,0,0.3-0.1c7.5-14.8,17.4-28.3,27.2-41.6
			c8.3-11.4,19.3-22.8,24.8-35.9c0.6-1.6-1.8-3-2.9-1.7c-18.3,22.6-36.9,49.2-49.2,75.8c0.3-7.2,0.4-14.4,0.5-21.7
			c8.3-11.9,17-23.5,25.2-35.5C42.3,180,50,171,51.4,164c12.6,0.2,25.1,0.5,37.7,0.6c-30.2,26.6-57.4,65.5-76,100.5
			C13.4,258.2,13.6,251.2,13.9,244.3z M13,266.2c0.3,0.4,0.8,0.7,1.1,0.1c21.8-38.5,52.8-67.8,81.1-101c0.1-0.2,0.1-0.4,0.2-0.5
			c6.4,0.1,12.9,0.3,19.3,0.3c-3,7-12.8,16.5-15.9,20.6c-10.5,13.3-21.3,26.2-32.2,39.1C49.2,245.2,31.7,266,13,285.4
			c-0.7,0.7,0.4,1.7,1,1c22.9-22.8,44.3-47.3,65.6-71.6c10.3-11.7,20.6-23.6,30.1-36c2.7-3.5,7.7-8.7,9.4-13.8
			c5.1,0,10.2,0.1,15.3,0.2c-6.1,4-12.6,13.9-16.1,18.1c-11,12.9-22.3,25.8-34.1,38C58.7,247.9,38,278.7,13.4,306
			c-0.8,0.2-1.5,0.3-2.3,0.4C11.8,293.1,12.4,279.6,13,266.2z M585.5,220.6c-93.3,83-199.9,156.5-302.9,226.9
			c-0.6,0.4-0.8,0.9-1,1.4c-0.5-1.2-1-2.4-1.5-3.7c-0.1-0.2-0.2-0.2-0.4-0.3c3.5-1.6,4.5-4.5,3.2-8.7
			c52.2-41.9,110.9-74.9,162.4-117.7c43.5-36.3,76.5-84.6,127.9-111c0.1,0,0.1-0.2,0.2-0.2C577.4,211.9,581.6,216.1,585.5,220.6z
			 M570.7,204.7c-42.6,18-74.3,56.7-106.5,88.5c-54.5,53.9-122.6,91.3-181.8,139.6c0.1-5.5,0.3-11.1,0.8-16.6c0-0.8,0.2-1.5,0.3-2.3
			c102.8-57.8,183.1-148.1,273.1-223.1C561.2,195.4,566.1,199.9,570.7,204.7z M553.7,188.3c-93.8,70.2-170.7,159.4-270,222.5
			c0.5-5.7,1.4-11.4,2.2-17.1c47.6-23.3,85.2-61.4,122.6-98.2c42.2-41.5,86.5-81.1,132.7-118.1C545.4,181,549.7,184.5,553.7,188.3z
			 M537.8,174.4c-85.1,67.1-156.7,163.7-251.5,216c0.8-5.1,1.7-10.2,2.6-15.3c85.6-62.5,156.5-142.3,239.1-208.6
			C531.3,169.2,534.6,171.7,537.8,174.4z M524.6,163.8c-82.6,64.1-153.1,141.9-234.9,207c0.8-4.3,1.6-8.7,2.4-13.1
			c0.4,0.4,1,0.5,1.4,0c63.9-73.6,168.7-117.8,217.5-203.7C515.6,157.2,520.2,160.3,524.6,163.8z M507.8,151.4
			c-59.2,81.4-152.7,126-215.3,204c1.4-8,2.6-16,3.2-24.1c65.9-63.7,137.8-121.5,201.8-187.1C500.9,146.6,504.4,149,507.8,151.4z
			 M493.6,141.5c-65.8,61.9-135.4,120.5-197.8,186c0.3-5.8,0.3-11.5-0.4-17.3c-0.2-1.5-0.9-2.5-1.7-3.2
			c34-30.1,69.5-58.4,103.7-88.1c28.9-25.1,62.2-53.4,80.4-88.1C483.1,134.4,488.4,137.9,493.6,141.5z M473.4,127.9
			c-50.8,69.7-122.5,116.7-182,178c-0.7-0.1-1.3-0.1-2,0.1c0.1-2-1-4-3.3-3.7c-5.5,0.6-11.1,1.1-16.7,1.5
			c68.5-55,131.1-118.7,191.1-182.7c0.3-0.4,0.4-0.7,0.4-1.1C465.1,122.6,469.3,125.2,473.4,127.9z M457.9,118
			c-0.1,0.1-0.2,0-0.3,0.1c-65,61.4-125.6,126.7-192.9,185.8c-7.6,0.4-15.2,0.5-22.9,0.5c71-61,127.7-136.5,199.3-197.1
			C446.7,111,452.4,114.4,457.9,118z M436.9,104.8c-74.8,57.7-129.7,136.4-199.4,199.7c-5.2,0-10.5-0.1-15.7-0.3
			c35-44.2,78.2-80.3,117.1-121.1c21.3-22.4,39.2-47.6,60.3-70.2c3.4-3.6,7.3-6.9,10.9-10.3c3.1-2.9,6.2-5.8,9.4-8.7
			C425.2,97.6,431,101.1,436.9,104.8z M413,90c-31.4,18.3-56.3,63.9-78.4,88.8c-38,42.9-82.9,78.4-116.1,125.2
			c-8.1-0.3-16.3-0.7-24.4-1.2C278,247.1,339.1,161,397.8,80.7C402.9,83.8,408,86.9,413,90z M384,72.1c3.1,1.9,6.3,3.9,9.4,5.8
			c-61.6,79.2-120.3,165.9-203.3,224.5c-0.1,0-0.1,0.1-0.1,0.2c-4.7-0.3-9.3-0.6-14-0.9c44.4-43.7,85.9-90.3,127.3-136.7
			c25-28,64.3-58.6,79.7-93.2c0-0.1,0-0.1,0-0.2C383.4,71.8,383.7,71.9,384,72.1z M380,69.8c0,0-0.1,0-0.1,0.1
			c-26.7,36.9-61.8,69.5-91.8,103.8c-37.4,42.7-75.5,84.8-113.3,127.2c-0.2,0.3-0.1,0.6,0,0.8c-8.9-0.6-17.9-1.2-26.8-1.7
			c46.1-42,79.1-96.3,124.9-138.8c2.9-0.3,5.9-0.4,8.8-0.7c1.5-0.1,2.6-0.8,3.5-1.7c2.4,0.6,5.3-0.6,5-3.5c-0.3-2.7-0.5-5.4-0.8-8.1
			c23.8-28.1,51-56.1,69.2-88.2C366.5,62.8,374,66.4,380,69.8z M355.4,57.3c-12.4,18.1-25.6,35.4-39.6,52.4c-9,10.9-19,22-26.8,34.1
			c-0.7-6.6-1-13.3-1.5-19.9c23.2-20.5,43-44.7,60.8-70C350.7,55,353.1,56.2,355.4,57.3z M344.9,52.2c-18.3,24-36.2,47.9-57.6,69.3
			c-0.5-7.3-0.9-14.7-1.2-22c17.5-15.3,31-35.3,43.1-55.2C334.4,47,339.7,49.7,344.9,52.2z M325.5,42.3
			c-13,18.3-23.4,37.9-39.6,53.8c-0.3-6-0.4-12-0.5-18C292.8,71,300,63.8,306.6,56c4.3-5.1,9.2-11.1,12.1-17.5
			C321,39.8,323.2,41.1,325.5,42.3z M314.2,35.9c-4,6.6-7.7,13.4-12.6,19.6c-5.1,6.4-10.7,12.5-16.3,18.4c0-0.9-0.1-1.9-0.1-2.8
			c-0.1-5.7,0.1-11.7,0.4-17.8c7-7.1,13.7-15.1,19.2-23.4C307.8,32,310.9,34,314.2,35.9z M300.2,26.8c-4.9,6.6-9.5,13.4-14.4,20.1
			c0.5-11.1,1-22.4-0.3-33C289.5,18.3,294.5,22.6,300.2,26.8z"/>
	</g>
</g>
</svg>
