<?xml version="1.0" encoding="utf-8"?>
<!-- Generator: Adobe Illustrator 19.0.1, SVG Export Plug-In . SVG Version: 6.00 Build 0)  -->
<svg version="1.1" id="Слой_1" xmlns="http://www.w3.org/2000/svg" xmlns:xlink="http://www.w3.org/1999/xlink" x="0px" y="0px"
	 viewBox="0 0 595.3 592.7" style="enable-background:new 0 0 595.3 592.7;" xml:space="preserve">
<style type="text/css">
	.st0{fill:none;stroke:url(#SVGID_1_);stroke-miterlimit:10;}
	.st1{fill:none;stroke:url(#SVGID_2_);stroke-width:3;stroke-miterlimit:10;stroke-dasharray:11.9321,11.9321;}
	.st2{fill:url(#SVGID_3_);}
	.st3{fill:#272727;}
</style>
<g>
	<linearGradient id="SVGID_1_" gradientUnits="userSpaceOnUse" x1="25.2053" y1="298.2805" x2="571.6995" y2="298.2805">
		<stop  offset="0" style="stop-color:#009F42"/>
		<stop  offset="1" style="stop-color:#009548"/>
	</linearGradient>
	<path class="st0" d="M286.5,566.1L30.7,310.3c-6.6-6.6-6.6-17.3,0-24L286.5,30.5c6.6-6.6,17.3-6.6,24,0l255.8,255.8
		c6.6,6.6,6.6,17.3,0,24L310.4,566.1C303.8,572.7,293.1,572.7,286.5,566.1z"/>
	<g>
		<linearGradient id="SVGID_2_" gradientUnits="userSpaceOnUse" x1="8.0031" y1="298.2805" x2="589.4341" y2="298.2805">
			<stop  offset="0" style="stop-color:#009F42"/>
			<stop  offset="1" style="stop-color:#009548"/>
		</linearGradient>
		<path class="st1" d="M286.7,582.5L14.5,310.3c-6.6-6.6-6.6-17.3,0-24L286.7,14c6.6-6.6,17.3-6.6,24,0L583,286.3
			c6.6,6.6,6.6,17.3,0,24L310.7,582.5C304.1,589.2,293.4,589.2,286.7,582.5z"/>
	</g>
	
		<linearGradient id="SVGID_3_" gradientUnits="userSpaceOnUse" x1="42.1882" y1="292.0976" x2="619.6247" y2="292.0976" gradientTransform="matrix(0.9232 0 0 0.9232 -6.4959 28.521)">
		<stop  offset="0" style="stop-color:#009F42"/>
		<stop  offset="1" style="stop-color:#009548"/>
	</linearGradient>
	<path class="st2" d="M289.1,560.6L36.5,308c-5.4-5.4-5.4-14.3,0-19.7L289.1,35.7c5.4-5.4,14.3-5.4,19.7,0l252.6,252.6
		c5.4,5.4,5.4,14.3,0,19.7L308.8,560.6C303.4,566.1,294.6,566.1,289.1,560.6z"/>
	<path class="st3" d="M155.2,422.9L38.6,306.4c-5-5-5-13,0-17.9l116.6-116.6c5-5,13-5,17.9,0l116.6,116.6c5,5,5,13,0,17.9
		L173.1,422.9C168.2,427.9,160.1,427.9,155.2,422.9z"/>
	<path class="st3" d="M424.8,422.9L308.3,306.4c-5-5-5-13,0-17.9l116.6-116.6c5-5,13-5,17.9,0l116.6,116.6c5,5,5,13,0,17.9
		L442.8,422.9C437.8,427.9,429.8,427.9,424.8,422.9z"/>
	<path class="st3" d="M290,557.8L173.5,441.2c-5-5-5-13,0-17.9L290,306.7c5-5,13-5,17.9,0l116.6,116.6c5,5,5,13,0,17.9L308,557.8
		C303,562.7,295,562.7,290,557.8z"/>
	<path class="st3" d="M290,288.1L173.5,171.5c-5-5-5-13,0-17.9L290,37c5-5,13-5,17.9,0l116.6,116.6c5,5,5,13,0,17.9L308,288.1
		C303,293.1,295,293.1,290,288.1z"/>
</g>
</svg>
