<?xml version="1.0" encoding="utf-8"?>
<!-- Generator: Adobe Illustrator 19.0.1, SVG Export Plug-In . SVG Version: 6.00 Build 0)  -->
<svg version="1.1" id="Слой_1" xmlns="http://www.w3.org/2000/svg" xmlns:xlink="http://www.w3.org/1999/xlink" x="0px" y="0px"
	 viewBox="0 0 112.5 112.8" style="enable-background:new 0 0 112.5 112.8;" xml:space="preserve">
<style type="text/css">
	.st0{opacity:0.65;fill:#181819;stroke:url(#SVGID_1_);stroke-width:2;stroke-miterlimit:10;}
	.st1{fill:url(#SVGID_2_);}
</style>
<g id="Bitcoin">
	<linearGradient id="SVGID_1_" gradientUnits="userSpaceOnUse" x1="-7.262042e-006" y1="56.395" x2="112.5399" y2="56.395">
		<stop  offset="0" style="stop-color:#009F42"/>
		<stop  offset="1" style="stop-color:#009548"/>
	</linearGradient>
	<path class="st0" d="M56.3,111.7L56.3,111.7C25.8,111.7,1,86.9,1,56.4l0,0C1,25.9,25.8,1.1,56.3,1.1l0,0
		c30.5,0,55.3,24.8,55.3,55.3l0,0C111.5,86.9,86.8,111.7,56.3,111.7z"/>
	<linearGradient id="SVGID_2_" gradientUnits="userSpaceOnUse" x1="34.0018" y1="57.9524" x2="84.5381" y2="57.9524">
		<stop  offset="0" style="stop-color:#009F42"/>
		<stop  offset="1" style="stop-color:#009548"/>
	</linearGradient>
	<path class="st1" d="M84.3,64.3c-0.4-3.1-2-5.5-4.7-7.1c-1.2-0.7-2.7-1.2-4.1-1.8c0.2-0.1,0.3-0.3,0.3-0.3
		c6.8-3.5,6.2-14.1,1.3-17.7c-2-1.5-4.2-2.4-6.6-2.9c-1.7-0.3-3.4-0.6-5.2-0.9c0-3,0.1-7.3,0.1-10.7H59c0,3.3-0.1,7.5-0.1,10.4
		c-1.8,0-3.5,0-5.1,0c0-3,0-7.2,0.1-10.4h-6.4c0,3.5-0.1,7.6-0.1,10.6c-4.4,0-8.6-0.1-13-0.1c0,2.3,0,4.6-0.1,6.8c0.9,0,1.7,0,2.6,0
		c0.8,0,1.6,0,2.4,0.1c2.2,0.2,3.4,1.4,3.4,3.6c-0.1,9.2-0.2,18.4-0.3,27.5c0,2-0.9,2.8-2.8,2.8c-1.4,0-2.8,0-4.3,0
		C35,76.9,34.5,79.4,34,82c4.3,0.1,8.6,0.1,13,0.2c0,3.3,0,7.5-0.1,11h6.4c0-3.5,0.1-7.5,0.1-10.8c1.8,0.1,3.5,0.1,5.1,0.2
		c0,3.3-0.1,7.3-0.1,10.6h6.4c0-3.5,0.1-7.5,0.1-10.7c0.3,0,0.4-0.1,0.5-0.1c3-0.5,6.2-0.8,9.2-1.5c3.9-0.9,7-3.2,8.5-7.1
		C84.5,70.6,84.8,67.5,84.3,64.3z M53.9,40.9c4,0,7.9-0.3,11.6,1.3c2.4,1,3.6,3,3.5,5.4c-0.2,2.5-1.6,4.3-4.1,5.2
		c-3.5,1.1-7.2,1.1-11,0.9C53.8,49.4,53.9,45.3,53.9,40.9z M67.9,72.9c-3.5,1.6-7.3,1.6-11.1,1.6c-1,0-2.1-0.1-3.3-0.1
		c0.1-4.7,0.1-9.4,0.2-14.2c4.8,0,9.7-0.3,14.2,1.6c2.3,1,3.7,2.8,3.7,5.5C71.7,70.1,70.3,71.9,67.9,72.9z"/>
</g>
</svg>
