<?xml version="1.0" encoding="utf-8"?>
<!-- Generator: Adobe Illustrator 19.0.1, SVG Export Plug-In . SVG Version: 6.00 Build 0)  -->
<svg version="1.1" id="Слой_1" xmlns="http://www.w3.org/2000/svg" xmlns:xlink="http://www.w3.org/1999/xlink" x="0px" y="0px"
	 viewBox="0 0 112.5 112.8" style="enable-background:new 0 0 112.5 112.8;" xml:space="preserve">
<style type="text/css">
	.st0{opacity:0.65;fill:#181819;stroke:url(#SVGID_1_);stroke-width:2;stroke-miterlimit:10;}
	.st1{fill:url(#SVGID_2_);}
	.st2{fill:url(#SVGID_3_);}
	.st3{fill:url(#SVGID_4_);}
	.st4{fill:url(#SVGID_5_);}
	.st5{fill:url(#SVGID_6_);}
	.st6{fill:url(#SVGID_7_);}
	.st7{fill:url(#SVGID_8_);}
	.st8{fill:url(#SVGID_9_);}
	.st9{fill:url(#SVGID_10_);}
	.st10{fill:url(#SVGID_11_);}
	.st11{fill:url(#SVGID_12_);}
	.st12{fill:url(#SVGID_13_);}
	.st13{fill:url(#SVGID_14_);}
	.st14{fill:url(#SVGID_15_);}
</style>
<g id="Bank_Cards">
	<linearGradient id="SVGID_1_" gradientUnits="userSpaceOnUse" x1="0.75" y1="56.5544" x2="112.235" y2="56.5544">
		<stop  offset="0" style="stop-color:#009F42"/>
		<stop  offset="1" style="stop-color:#009548"/>
	</linearGradient>
	<path class="st0" d="M56.5,111.3L56.5,111.3c-30.2,0-54.7-24.5-54.7-54.7l0,0c0-30.2,24.5-54.7,54.7-54.7l0,0
		c30.2,0,54.7,24.5,54.7,54.7l0,0C111.2,86.7,86.7,111.3,56.5,111.3z"/>
	<g>
		<g>
			<linearGradient id="SVGID_2_" gradientUnits="userSpaceOnUse" x1="44.6406" y1="63.0505" x2="45.7068" y2="63.0505">
				<stop  offset="0" style="stop-color:#009F42"/>
				<stop  offset="1" style="stop-color:#009548"/>
			</linearGradient>
			<path class="st1" d="M45.2,61.7c-0.2,0-0.4,0.1-0.4,0.3c-0.1,0.2-0.1,0.5-0.1,1c0,0.4,0,0.8,0.1,1c0.1,0.2,0.2,0.3,0.4,0.3
				c0.2,0,0.4-0.1,0.4-0.3c0.1-0.2,0.1-0.6,0.1-1c0-0.4,0-0.8-0.1-1C45.5,61.8,45.4,61.7,45.2,61.7z"/>
			<linearGradient id="SVGID_3_" gradientUnits="userSpaceOnUse" x1="38.799" y1="63.0531" x2="39.8642" y2="63.0531">
				<stop  offset="0" style="stop-color:#009F42"/>
				<stop  offset="1" style="stop-color:#009548"/>
			</linearGradient>
			<path class="st2" d="M39.3,64.4c0.2,0,0.4-0.1,0.4-0.3c0.1-0.2,0.1-0.6,0.1-1c0-0.4,0-0.8-0.1-1c-0.1-0.2-0.2-0.3-0.4-0.3
				c-0.2,0-0.4,0.1-0.4,0.3c-0.1,0.2-0.1,0.5-0.1,1c0,0.4,0,0.8,0.1,1C39,64.3,39.1,64.4,39.3,64.4z"/>
			<linearGradient id="SVGID_4_" gradientUnits="userSpaceOnUse" x1="30.0329" y1="63.0531" x2="31.0982" y2="63.0531">
				<stop  offset="0" style="stop-color:#009F42"/>
				<stop  offset="1" style="stop-color:#009548"/>
			</linearGradient>
			<path class="st3" d="M30.6,64.4c0.2,0,0.4-0.1,0.4-0.3c0.1-0.2,0.1-0.6,0.1-1c0-0.4,0-0.8-0.1-1c-0.1-0.2-0.2-0.3-0.4-0.3
				c-0.2,0-0.4,0.1-0.4,0.3c-0.1,0.2-0.1,0.5-0.1,1c0,0.4,0,0.8,0.1,1C30.2,64.3,30.4,64.4,30.6,64.4z"/>
			<linearGradient id="SVGID_5_" gradientUnits="userSpaceOnUse" x1="32.9542" y1="63.0505" x2="34.0195" y2="63.0505">
				<stop  offset="0" style="stop-color:#009F42"/>
				<stop  offset="1" style="stop-color:#009548"/>
			</linearGradient>
			<path class="st4" d="M33.5,61.7c-0.2,0-0.4,0.1-0.4,0.3c-0.1,0.2-0.1,0.5-0.1,1c0,0.4,0,0.8,0.1,1c0.1,0.2,0.2,0.3,0.4,0.3
				c0.2,0,0.4-0.1,0.4-0.3c0.1-0.2,0.1-0.6,0.1-1c0-0.4,0-0.8-0.1-1C33.9,61.8,33.7,61.7,33.5,61.7z"/>
			<linearGradient id="SVGID_6_" gradientUnits="userSpaceOnUse" x1="50.4842" y1="63.0531" x2="51.5505" y2="63.0531">
				<stop  offset="0" style="stop-color:#009F42"/>
				<stop  offset="1" style="stop-color:#009548"/>
			</linearGradient>
			<path class="st5" d="M51,64.4c0.2,0,0.4-0.1,0.4-0.3c0.1-0.2,0.1-0.6,0.1-1c0-0.4,0-0.8-0.1-1c-0.1-0.2-0.2-0.3-0.4-0.3
				c-0.2,0-0.4,0.1-0.4,0.3c-0.1,0.2-0.1,0.5-0.1,1c0,0.4,0,0.8,0.1,1C50.7,64.3,50.8,64.4,51,64.4z"/>
			<linearGradient id="SVGID_7_" gradientUnits="userSpaceOnUse" x1="35.8766" y1="63.0531" x2="36.9429" y2="63.0531">
				<stop  offset="0" style="stop-color:#009F42"/>
				<stop  offset="1" style="stop-color:#009548"/>
			</linearGradient>
			<path class="st6" d="M36.4,64.4c0.2,0,0.4-0.1,0.4-0.3c0.1-0.2,0.1-0.6,0.1-1c0-0.4,0-0.8-0.1-1c-0.1-0.2-0.2-0.3-0.4-0.3
				c-0.2,0-0.4,0.1-0.4,0.3c-0.1,0.2-0.1,0.5-0.1,1c0,0.4,0,0.8,0.1,1C36.1,64.3,36.2,64.4,36.4,64.4z"/>
			<linearGradient id="SVGID_8_" gradientUnits="userSpaceOnUse" x1="53.3962" y1="69.5984" x2="54.4134" y2="69.5984">
				<stop  offset="0" style="stop-color:#009F42"/>
				<stop  offset="1" style="stop-color:#009548"/>
			</linearGradient>
			<path class="st7" d="M53.9,69.4c-0.2,0-0.3,0-0.4,0.1c-0.1,0.1-0.1,0.2-0.2,0.4h1c0-0.2-0.1-0.3-0.2-0.4
				C54.2,69.4,54,69.4,53.9,69.4z"/>
			<linearGradient id="SVGID_9_" gradientUnits="userSpaceOnUse" x1="47.5629" y1="63.0505" x2="48.6282" y2="63.0505">
				<stop  offset="0" style="stop-color:#009F42"/>
				<stop  offset="1" style="stop-color:#009548"/>
			</linearGradient>
			<path class="st8" d="M48.1,61.7c-0.2,0-0.4,0.1-0.4,0.3c-0.1,0.2-0.1,0.5-0.1,1c0,0.4,0,0.8,0.1,1c0.1,0.2,0.2,0.3,0.4,0.3
				c0.2,0,0.4-0.1,0.4-0.3c0.1-0.2,0.1-0.6,0.1-1c0-0.4,0-0.8-0.1-1C48.5,61.8,48.3,61.7,48.1,61.7z"/>
			<linearGradient id="SVGID_10_" gradientUnits="userSpaceOnUse" x1="53.4066" y1="63.0521" x2="54.4718" y2="63.0521">
				<stop  offset="0" style="stop-color:#009F42"/>
				<stop  offset="1" style="stop-color:#009548"/>
			</linearGradient>
			<path class="st9" d="M53.5,62.1c-0.1,0.2-0.1,0.5-0.1,1c0,0.4,0,0.8,0.1,1c0.1,0.2,0.2,0.3,0.4,0.3c0.2,0,0.4-0.1,0.4-0.3
				c0.1-0.2,0.1-0.6,0.1-1c0-0.4,0-0.8-0.1-1c-0.1-0.2-0.2-0.3-0.4-0.3C53.7,61.7,53.6,61.8,53.5,62.1z"/>
			<linearGradient id="SVGID_11_" gradientUnits="userSpaceOnUse" x1="24.6243" y1="56.8265" x2="87.2772" y2="56.8265">
				<stop  offset="0" style="stop-color:#009F42"/>
				<stop  offset="1" style="stop-color:#009548"/>
			</linearGradient>
			<path class="st10" d="M66.3,75.8c0-0.1-0.1-0.2-0.1-0.3l-0.3-0.8l-2.6-8.4l-1.6-4.9c-0.1-0.2-0.1-0.4-0.1-0.7l-0.4-1.2h-4.4
				c-1.3,0-2.4-1.1-2.4-2.4c0-1.3,1.1-2.4,2.4-2.4h6.2c1.1,0,2,0.7,2.3,1.7l0.3,0.9h19.6h1.1h1.1h0V41c0-2.3-1.9-4.2-4.2-4.2H28.8
				c-2.3,0-4.2,1.9-4.2,4.2v31.6c0,2.3,1.9,4.2,4.2,4.2h38.5C66.8,76.6,66.5,76.2,66.3,75.8z M48.1,65c-0.5,0-0.8-0.2-1-0.5
				c-0.2-0.3-0.3-0.8-0.3-1.4c0-0.6,0.1-1.1,0.3-1.4c0.2-0.3,0.5-0.5,1-0.5s0.8,0.2,1,0.5c0.2,0.3,0.3,0.8,0.3,1.4
				c0,0.6-0.1,1.1-0.3,1.4C48.9,64.8,48.6,65,48.1,65z M49.7,63.1c0-0.6,0.1-1.1,0.3-1.4c0.2-0.3,0.5-0.5,1-0.5c0.5,0,0.8,0.2,1,0.5
				c0.2,0.3,0.3,0.8,0.3,1.4c0,0.6-0.1,1.1-0.3,1.4c-0.2,0.3-0.5,0.5-1,0.5c-0.5,0-0.8-0.2-1-0.5C49.8,64.1,49.7,63.7,49.7,63.1z
				 M46.2,64.5c-0.2,0.3-0.5,0.5-1,0.5c-0.5,0-0.8-0.2-1-0.5c-0.2-0.3-0.3-0.8-0.3-1.4c0-0.6,0.1-1.1,0.3-1.4c0.2-0.3,0.5-0.5,1-0.5
				c0.5,0,0.8,0.2,1,0.5s0.3,0.8,0.3,1.4C46.5,63.7,46.4,64.1,46.2,64.5z M34.5,64.5c-0.2,0.3-0.5,0.5-1,0.5c-0.5,0-0.8-0.2-1-0.5
				c-0.2-0.3-0.3-0.8-0.3-1.4c0-0.6,0.1-1.1,0.3-1.4c0.2-0.3,0.5-0.5,1-0.5c0.5,0,0.8,0.2,1,0.5c0.2,0.3,0.3,0.8,0.3,1.4
				C34.8,63.7,34.7,64.1,34.5,64.5z M31.1,52.5v-2.2h2.2v2.2L31.1,52.5C31.1,52.5,31.1,52.5,31.1,52.5z M39.7,52.5
				C39.7,52.5,39.7,52.5,39.7,52.5l-2.2,0.1v-2.2h2.2L39.7,52.5L39.7,52.5z M37.5,53.7h2c-0.4,0.8-1.1,1.5-2,1.7V53.7z M36.9,49.1
				L36.9,49.1l-0.6,0v3.4h-1.9v-5.6h2.2c1.4,0,2.5,0.9,2.9,2.2L36.9,49.1L36.9,49.1z M33.3,49.1h-2.1c0.3-1,1.1-1.8,2.1-2.1V49.1z
				 M33.3,53.7v1.7c-0.9-0.3-1.6-0.9-2-1.7H33.3z M34.4,53.7h1.9v1.9h-1.9V53.7z M36.4,61.1c0.5,0,0.8,0.2,1,0.5
				c0.2,0.3,0.3,0.8,0.3,1.4c0,0.6-0.1,1.1-0.3,1.4c-0.2,0.3-0.5,0.5-1,0.5c-0.5,0-0.8-0.2-1-0.5c-0.2-0.3-0.3-0.8-0.3-1.4
				c0-0.6,0.1-1.1,0.3-1.4C35.6,61.3,35.9,61.1,36.4,61.1z M30.6,61.1c0.5,0,0.8,0.2,1,0.5c0.2,0.3,0.3,0.8,0.3,1.4
				c0,0.6-0.1,1.1-0.3,1.4c-0.2,0.3-0.5,0.5-1,0.5c-0.5,0-0.8-0.2-1-0.5c-0.2-0.3-0.3-0.8-0.3-1.4c0-0.6,0.1-1.1,0.3-1.4
				C29.8,61.3,30.1,61.1,30.6,61.1z M38.1,63.1c0-0.6,0.1-1.1,0.3-1.4c0.2-0.3,0.5-0.5,1-0.5s0.8,0.2,1,0.5c0.2,0.3,0.3,0.8,0.3,1.4
				c0,0.6-0.1,1.1-0.3,1.4c-0.2,0.3-0.5,0.5-1,0.5c-0.5,0-0.8-0.2-1-0.5C38.1,64.1,38.1,63.7,38.1,63.1z M54.9,61.6
				c0.2,0.3,0.3,0.8,0.3,1.4c0,0.6-0.1,1.1-0.3,1.4c-0.2,0.3-0.5,0.5-1,0.5c-0.5,0-0.8-0.2-1-0.5c-0.2-0.3-0.3-0.8-0.3-1.4
				c0-0.6,0.1-1.1,0.3-1.4c0.2-0.3,0.5-0.5,1-0.5S54.7,61.3,54.9,61.6z M75,53.2c-0.9,0-1.7-0.2-2.4-0.6c-0.9,0.6-1.9,0.9-3.1,0.9
				c-3.2,0-5.8-2.6-5.8-5.8c0-3.2,2.6-5.8,5.8-5.8c1,0,1.9,0.3,2.7,0.7C73.1,42.3,74,42,75,42c3.1,0,5.6,2.5,5.6,5.6
				C80.7,50.7,78.1,53.2,75,53.2z"/>
			<linearGradient id="SVGID_12_" gradientUnits="userSpaceOnUse" x1="64.8915" y1="47.7746" x2="73.7796" y2="47.7746">
				<stop  offset="0" style="stop-color:#009F42"/>
				<stop  offset="1" style="stop-color:#009548"/>
			</linearGradient>
			<path class="st11" d="M70.5,47.4H70h-0.5c0-0.2,0-0.5,0.1-0.7h0.5h0.5h3.1c-0.1-0.3-0.1-0.6-0.3-0.9h-2.6h-0.6h-0.6
				c0.1-0.3,0.2-0.5,0.3-0.8h0.6h0.6h1.8c-0.2-0.3-0.4-0.6-0.7-0.9h-0.3h-0.8h-0.7c0.2-0.3,0.4-0.5,0.7-0.8
				c-0.5-0.2-1.1-0.3-1.7-0.3c-2.6,0-4.7,2.1-4.7,4.7c0,2.6,2.1,4.7,4.7,4.7c0.7,0,1.4-0.2,2-0.5c-0.2-0.2-0.4-0.3-0.6-0.5h0.8h0.1
				c0.1-0.1,0.2-0.2,0.4-0.4c0.2-0.2,0.4-0.3,0.5-0.5h-1.1H71h-0.7c-0.1-0.2-0.3-0.4-0.4-0.7h0.6h0.6h2c0.1-0.3,0.3-0.6,0.4-0.9
				h-2.8h-0.6h-0.6c-0.1-0.2-0.1-0.5-0.1-0.8H70h0.5h3.1c0-0.2,0.1-0.4,0.1-0.7c0-0.1,0-0.1,0-0.2L70.5,47.4L70.5,47.4z"/>
			<linearGradient id="SVGID_13_" gradientUnits="userSpaceOnUse" x1="55.4035" y1="65.8884" x2="89.4258" y2="65.8884">
				<stop  offset="0" style="stop-color:#009F42"/>
				<stop  offset="1" style="stop-color:#009548"/>
			</linearGradient>
			<path class="st12" d="M87.3,58.3L87.3,58.3h-1.1h-1.1H64.8l-0.5-1.7c-0.2-0.6-0.7-0.9-1.3-0.9h-6.2c-0.7,0-1.4,0.6-1.4,1.3
				c0,0.7,0.6,1.4,1.4,1.4h5.2l0.7,2.1c0,0.2,0,0.4,0.1,0.6l1.6,4.9l2.8,8.8l0.2,0.5c0.1,0.2,0.2,0.4,0.4,0.6
				c0.2,0.2,0.5,0.3,0.9,0.3h16.4c0.7,0,1.4-0.6,1.4-1.3c0-0.3-0.1-0.6-0.3-0.9c-0.2-0.3-0.6-0.5-1-0.5c0,0,0,0,0,0H69.5L68.4,70
				h16.7h0.2c0.3,0,0.6-0.1,0.9-0.2c0.4-0.2,0.8-0.4,1.1-0.8c0.3-0.3,0.5-0.7,0.5-1.1l1.6-7.1c0.1-0.7,0-1.3-0.4-1.8
				C88.6,58.6,87.9,58.3,87.3,58.3z M85.2,67.3h-0.1l-17.4,0c0,0,0,0-0.1,0c0,0,0,0,0,0L67,65.5h18.1h0.5L85.2,67.3z M86.2,62.8
				L86.2,62.8h-1.1H66.2h0L65.5,61h0.1h19.5h1.1h0.4L86.2,62.8z"/>
			<linearGradient id="SVGID_14_" gradientUnits="userSpaceOnUse" x1="69.1702" y1="79.4881" x2="73.0222" y2="79.4881">
				<stop  offset="0" style="stop-color:#009F42"/>
				<stop  offset="1" style="stop-color:#009548"/>
			</linearGradient>
			<circle class="st13" cx="71.1" cy="79.5" r="1.9"/>
			<linearGradient id="SVGID_15_" gradientUnits="userSpaceOnUse" x1="81.0965" y1="79.4881" x2="84.9485" y2="79.4881">
				<stop  offset="0" style="stop-color:#009F42"/>
				<stop  offset="1" style="stop-color:#009548"/>
			</linearGradient>
			<circle class="st14" cx="83" cy="79.5" r="1.9"/>
		</g>
	</g>
</g>
</svg>
