<?xml version="1.0" encoding="utf-8"?>
<!-- Generator: Adobe Illustrator 19.0.1, SVG Export Plug-In . SVG Version: 6.00 Build 0)  -->
<svg version="1.1" id="Слой_1" xmlns="http://www.w3.org/2000/svg" xmlns:xlink="http://www.w3.org/1999/xlink" x="0px" y="0px"
	 viewBox="0 0 112.5 112.8" style="enable-background:new 0 0 112.5 112.8;" xml:space="preserve">
<style type="text/css">
	.st0{opacity:0.65;fill:#181819;stroke:url(#SVGID_1_);stroke-width:2;stroke-miterlimit:10;}
	.st1{fill:url(#SVGID_2_);}
	.st2{fill:url(#SVGID_3_);}
	.st3{fill:url(#SVGID_4_);}
	.st4{fill:url(#SVGID_5_);}
	.st5{fill:url(#SVGID_6_);}
	.st6{fill:url(#SVGID_7_);}
</style>
<g id="Etherium">
	<linearGradient id="SVGID_1_" gradientUnits="userSpaceOnUse" x1="0.6379" y1="56.375" x2="112.0529" y2="56.375">
		<stop  offset="0" style="stop-color:#009F42"/>
		<stop  offset="1" style="stop-color:#009548"/>
	</linearGradient>
	<path class="st0" d="M56.3,111.1L56.3,111.1c-30.2,0-54.7-24.5-54.7-54.7l0,0c0-30.2,24.5-54.7,54.7-54.7l0,0
		c30.2,0,54.7,24.5,54.7,54.7l0,0C111.1,86.5,86.5,111.1,56.3,111.1z"/>
	<g>
		<g>
			<linearGradient id="SVGID_2_" gradientUnits="userSpaceOnUse" x1="56.9092" y1="78.4096" x2="80.9292" y2="78.4096">
				<stop  offset="0" style="stop-color:#009F42"/>
				<stop  offset="1" style="stop-color:#009548"/>
			</linearGradient>
			<polygon class="st1" points="56.9,75.9 56.9,95.3 80.9,61.5 			"/>
		</g>
		<g>
			<linearGradient id="SVGID_3_" gradientUnits="userSpaceOnUse" x1="56.9092" y1="36.054" x2="80.0744" y2="36.054">
				<stop  offset="0" style="stop-color:#009F42"/>
				<stop  offset="1" style="stop-color:#009548"/>
			</linearGradient>
			<polygon class="st2" points="80.1,55.3 56.9,16.8 56.9,44.8 			"/>
			<linearGradient id="SVGID_4_" gradientUnits="userSpaceOnUse" x1="56.9092" y1="58.8773" x2="79.9034" y2="58.8773">
				<stop  offset="0" style="stop-color:#009F42"/>
				<stop  offset="1" style="stop-color:#009548"/>
			</linearGradient>
			<polygon class="st3" points="56.9,46.9 56.9,70.8 79.9,57.4 			"/>
		</g>
		<g>
			<linearGradient id="SVGID_5_" gradientUnits="userSpaceOnUse" x1="31.7779" y1="36.054" x2="54.8577" y2="36.054">
				<stop  offset="0" style="stop-color:#009F42"/>
				<stop  offset="1" style="stop-color:#009548"/>
			</linearGradient>
			<polygon class="st4" points="31.8,55.3 54.9,16.8 54.9,44.8 			"/>
			<linearGradient id="SVGID_6_" gradientUnits="userSpaceOnUse" x1="31.8634" y1="58.8773" x2="54.8577" y2="58.8773">
				<stop  offset="0" style="stop-color:#009F42"/>
				<stop  offset="1" style="stop-color:#009548"/>
			</linearGradient>
			<polygon class="st5" points="54.9,46.9 54.9,70.8 31.9,57.4 			"/>
		</g>
		<g>
			<linearGradient id="SVGID_7_" gradientUnits="userSpaceOnUse" x1="30.8377" y1="78.4096" x2="54.8577" y2="78.4096">
				<stop  offset="0" style="stop-color:#009F42"/>
				<stop  offset="1" style="stop-color:#009548"/>
			</linearGradient>
			<polygon class="st6" points="54.9,75.9 54.9,95.3 30.8,61.5 			"/>
		</g>
	</g>
</g>
</svg>
