<?xml version="1.0" encoding="utf-8"?>
<!-- Generator: Adobe Illustrator 19.0.1, SVG Export Plug-In . SVG Version: 6.00 Build 0)  -->
<svg version="1.1" id="Слой_1" xmlns="http://www.w3.org/2000/svg" xmlns:xlink="http://www.w3.org/1999/xlink" x="0px" y="0px"
	 viewBox="0 0 595.3 530.6" style="enable-background:new 0 0 595.3 530.6;" xml:space="preserve">
<style type="text/css">
	.st0{fill:#54B150;}
</style>
<g>
	<path class="st0" d="M572.6,77.8L208,0.6c-15.4-3.3-30.7,6.7-34,22.1l-6.9,44.5l420.7,89l6.9-44.5C597.9,96.3,588,81,572.6,77.8z"
		/>
	<path class="st0" d="M419.2,165.7c-4.3-15.3-20.3-24.4-35.6-20.1l-69.2,19.2l-163.2-34.5L133.3,215L21.2,246.1
		C5.9,250.4-3.2,266.4,1,281.8l63.2,227.7c4.3,15.3,20.3,24.4,35.6,20.1L462.3,429c15.3-4.3,24.4-20.3,20.1-35.6l-10.8-39.1
		l40.6,8.6c15.4,3.3,30.7-6.7,34-22.1l25.7-121.5l-146.4-31L419.2,165.7z M461.1,281.4l9-42.4c1.3-6.3,7.6-10.4,14-9.1l42.4,9
		c6.3,1.3,10.4,7.6,9.1,14l-9,42.4c-1.3,6.3-7.6,10.4-14,9.1l-42.4-9C463.8,294.1,459.7,287.8,461.1,281.4z M27.5,268.9L127.8,241
		l236.7-65.7l25.5-7.1c0.5-0.1,0.9-0.2,1.4-0.2c2,0,4.5,1.3,5.2,3.9l3,10.8l9.4,33.8L36.1,320l-12.4-44.5
		C23,272.7,24.7,269.6,27.5,268.9z M459.7,399.7c0.5,1.7,0,3.2-0.5,4.1c-0.5,0.9-1.5,2.1-3.2,2.5L93.5,506.8
		c-0.5,0.1-0.9,0.2-1.4,0.2c-2,0-4.5-1.3-5.2-3.9L50.1,370.3l372.7-103.4l22.7,81.9L459.7,399.7z"/>
	<path class="st0" d="M152.1,408.8c-1.7-6.3-8.3-9.9-14.5-8.2l-42.3,11.8c-6.2,1.7-9.9,8.3-8.2,14.5l11.7,42.3
		c1.7,6.3,8.3,9.9,14.5,8.2l42.3-11.7c6.3-1.7,9.9-8.3,8.2-14.5L152.1,408.8z"/>
</g>
</svg>
