<?xml version="1.0" encoding="utf-8"?>
<!-- Generator: Adobe Illustrator 19.0.1, SVG Export Plug-In . SVG Version: 6.00 Build 0)  -->
<svg version="1.1" id="Слой_1" xmlns="http://www.w3.org/2000/svg" xmlns:xlink="http://www.w3.org/1999/xlink" x="0px" y="0px"
	 viewBox="0 0 595.3 277" style="enable-background:new 0 0 595.3 277;" xml:space="preserve">
<style type="text/css">
	.st0{fill:#54B150;}
</style>
<path class="st0" d="M555.9,81c0,22.9-18.6,41.6-41.6,41.6c-22.9,0-41.6-18.7-41.6-41.6s18.7-41.6,41.6-41.6
	C537.2,39.4,555.9,58,555.9,81z M595.3,81c0,44.7-36.3,81.4-81.9,80.9L442.1,215l-0.1,0c-0.2,34-27.6,61.6-61.6,61.9
	c-30.8,0.2-56-21.6-61.6-50.1L96.4,133.3c-9.7,6.3-21.2,10.1-33.6,10.3C28.2,143.9,0.3,116.1,0,81.9c-0.3-34.6,27.6-62.9,62.3-62.9
	c30.1,0,55.3,21.4,61,49.9l222.5,93.6c10.3-6.7,22.2-10.4,35.4-10.1l52.2-73.1c0.8-44,36.7-79.4,80.9-79.4
	C559,0,595.3,36.2,595.3,81z M79.5,126.2l-30.4-12.8C31.4,106,23,85.6,30.5,67.8C38,50.1,58.4,41.7,76.1,49.2l30,12.6
	C98.7,45,81.8,33.2,62.3,33.2c-27.2,0.1-48.4,22.2-48.1,48.6c0.2,25.9,21.4,47.8,48.6,47.7C68.6,129.4,74.2,128.3,79.5,126.2z
	 M427.9,214.2c-0.2-26.3-21.8-47.7-48.1-47.7c-5.7,0-11.3,1-17,3.2l30.5,12.8c17.8,7.5,26.1,27.9,18.6,45.6
	c-7.5,17.7-27.9,26.1-45.7,18.6l-30.5-12.8c7.5,17,24.4,28.9,44.5,28.8C406.8,262.5,428.1,240.8,427.9,214.2z M569.3,81
	c0-30.4-24.7-55-55-55c-30.3,0-55,24.7-55,55c0,30.3,24.7,55,55,55C544.7,136,569.3,111.3,569.3,81z"/>
</svg>
