<?xml version="1.0" encoding="utf-8"?>
<!-- Generator: Adobe Illustrator 19.0.1, SVG Export Plug-In . SVG Version: 6.00 Build 0)  -->
<svg version="1.1" id="Слой_1" xmlns="http://www.w3.org/2000/svg" xmlns:xlink="http://www.w3.org/1999/xlink" x="0px" y="0px"
	 viewBox="0 0 595.3 595" style="enable-background:new 0 0 595.3 595;" xml:space="preserve">
<style type="text/css">
	.st0{fill:#54B150;}
</style>
<g id="Trade_offer_link">
	<g>
		<g>
			<path class="st0" d="M579.6,187.2c-20.4-20.4-53.6-20.4-74,0c-6.3,6.3-46.3,46.4-52.4,52.5V101.6c0-14-5.4-27.1-15.3-37
				l-49.3-49.3c-9.9-9.9-23-15.3-37-15.3H52.3C23.5,0,0,23.5,0,52.3v490.4C0,571.5,23.5,595,52.3,595h348.6
				c28.8,0,52.3-23.5,52.3-52.3v-155l126.4-126.5C600.1,240.8,600.1,207.7,579.6,187.2z M348.6,34.9c3.3,0,9.6-0.6,15.3,5.1
				l49.3,49.3c5.5,5.5,5.1,11.6,5.1,15.3h-69.7V34.9z M418.4,542.7c0,9.6-7.8,17.4-17.4,17.4H52.3c-9.6,0-17.4-7.8-17.4-17.4V52.3
				c0-9.6,7.8-17.4,17.4-17.4h261.5V122c0,9.6,7.8,17.4,17.4,17.4h87.2v135.2c0,0-51.4,51.5-51.4,51.5l-24.6,24.6
				c-1.9,1.9-3.4,4.2-4.2,6.8l-24.7,74c-2.1,6.3-0.5,13.2,4.2,17.8c4.7,4.7,11.6,6.3,17.8,4.2l74-24.7c2.6-0.9,4.9-2.3,6.8-4.2
				l2.1-2.1L418.4,542.7L418.4,542.7z M379.3,363.1l24.7,24.7l-9.4,9.4l-37,12.3l12.3-37L379.3,363.1z M428.6,363.1l-24.7-24.7
				c13.1-13.1,71.4-71.5,83.8-83.9l24.7,24.7L428.6,363.1z M555,236.6l-18,18l-24.7-24.7l18-18c6.8-6.8,17.9-6.8,24.7,0
				C561.8,218.7,561.8,229.7,555,236.6z"/>
		</g>
	</g>
	<g>
		<g>
			<path class="st0" d="M331.2,174.3h-244c-9.6,0-17.4,7.8-17.4,17.4s7.8,17.4,17.4,17.4h244c9.6,0,17.4-7.8,17.4-17.4
				S340.8,174.3,331.2,174.3z"/>
		</g>
	</g>
	<g>
		<g>
			<path class="st0" d="M261.5,244H87.2c-9.6,0-17.4,7.8-17.4,17.4c0,9.6,7.8,17.4,17.4,17.4h174.3c9.6,0,17.4-7.8,17.4-17.4
				C278.9,251.8,271.1,244,261.5,244z"/>
		</g>
	</g>
	<g>
		<g>
			<path class="st0" d="M261.5,313.8H87.2c-9.6,0-17.4,7.8-17.4,17.4s7.8,17.4,17.4,17.4h174.3c9.6,0,17.4-7.8,17.4-17.4
				S271.1,313.8,261.5,313.8z"/>
		</g>
	</g>
	<g>
		<g>
			<path class="st0" d="M261.5,383.5H87.2c-9.6,0-17.4,7.8-17.4,17.4s7.8,17.4,17.4,17.4h174.3c9.6,0,17.4-7.8,17.4-17.4
				S271.1,383.5,261.5,383.5z"/>
		</g>
	</g>
	<g>
		<g>
			<path class="st0" d="M318.5,477.7H213.9c-9.6,0-17.4,7.8-17.4,17.4s7.8,17.4,17.4,17.4h104.6c9.6,0,17.4-7.8,17.4-17.4
				S328.1,477.7,318.5,477.7z"/>
		</g>
	</g>
</g>
</svg>
