<?xml version="1.0" encoding="utf-8"?>
<!-- Generator: Adobe Illustrator 19.0.1, SVG Export Plug-In . SVG Version: 6.00 Build 0)  -->
<svg version="1.1" id="Слой_1" xmlns="http://www.w3.org/2000/svg" xmlns:xlink="http://www.w3.org/1999/xlink" x="0px" y="0px"
	 viewBox="0 0 247.1 265.8" style="enable-background:new 0 0 247.1 265.8;" xml:space="preserve">
<style type="text/css">
	.st0{fill:#54B150;}
</style>
<g id="Bitcoin_icon_1_">
	<g>
		<g>
			<path class="st0" d="M142.8,141.2h-7.7H92.6v41.5h50.2c10.6,0,19.3-9.3,19.3-20.8S153.5,141.2,142.8,141.2z"/>
		</g>
	</g>
	<g>
		<g>
			<path class="st0" d="M135.1,83.1H92.6v41.5h42.5c10.6,0,19.3-9.3,19.3-20.8S145.7,83.1,135.1,83.1z"/>
		</g>
	</g>
	<g>
		<g>
			<path class="st0" d="M123.5,0C55.3,0,0,59.5,0,132.9s55.3,132.9,123.5,132.9s123.5-59.5,123.5-132.9S191.7,0,123.5,0z
				 M142.8,199.4H139v8.3c0,4.6-3.5,8.3-7.7,8.3c-4.3,0-7.7-3.7-7.7-8.3v-8.3h-15.4v8.3c0,4.6-3.5,8.3-7.7,8.3s-7.7-3.7-7.7-8.3
				v-8.3h-7.7c-4.3,0-7.7-3.7-7.7-8.3V74.8c0-4.6,3.5-8.3,7.7-8.3h7.7v-8.3c0-4.6,3.5-8.3,7.7-8.3s7.7,3.7,7.7,8.3v8.3h15.4v-8.3
				c0-4.6,3.5-8.3,7.7-8.3c4.3,0,7.7,3.7,7.7,8.3v8.7c17.3,2.1,30.9,17.8,30.9,37c0,10.1-3.8,19.2-9.8,25.9
				c10.4,6.5,17.5,18.4,17.5,32.3C177.6,182.6,162,199.4,142.8,199.4z"/>
		</g>
	</g>
</g>
</svg>
