<?xml version="1.0" encoding="utf-8"?>
<!-- Generator: Adobe Illustrator 19.0.1, SVG Export Plug-In . SVG Version: 6.00 Build 0)  -->
<svg version="1.1" id="Слой_1" xmlns="http://www.w3.org/2000/svg" xmlns:xlink="http://www.w3.org/1999/xlink" x="0px" y="0px"
	 viewBox="0 0 595.3 453.4" style="enable-background:new 0 0 595.3 453.4;" xml:space="preserve">
<style type="text/css">
	.st0{fill:#FFFFFF;}
	.st1{fill:#009F41;}
</style>
<g id="_x30__x25_">
	<g>
		<path class="st0" d="M295.9,52.4c-135,0-244.4,109.4-244.4,244.4c0,52.7,16.7,101.6,45.1,141.5H15.4l9.8,15.1h83h3.2h16.2
			c-38.3-41.1-61.8-96.3-61.8-157C65.9,169.2,169,66.1,296.3,66.1c65.9,0,125.4,27.7,167.4,72.1h18.2
			C437,85.7,370.3,52.4,295.9,52.4z"/>
		<path class="st0" d="M579.5,438.3h-84.3c28.4-39.9,45.1-88.8,45.1-141.5c0-18-2-35.6-5.7-52.5h-13.9c3.9,16.7,5.9,34.2,5.9,52.1
			c0,60.7-23.5,115.9-61.8,157h11.7h7h3.8h84.5h1.7l9.8-15.1H579.5z"/>
	</g>
	<g>
		<path class="st1" d="M499.1,137.8h49.7C495.9,54.9,403.2,0,297.6,0C133.3,0,0,133.3,0,297.6c0,45,10,87.6,27.9,125.8h43.6
			C49.5,385.6,37,341.6,37,294.8C37,152.4,152.4,37.1,294.7,37.1C377.9,37.1,451.9,76.5,499.1,137.8z"/>
		<path class="st1" d="M547.5,244.3c3.2,16.3,4.9,33.2,4.9,50.4c0,46.9-12.5,90.8-34.4,128.7h49.4c17.9-38.2,27.9-80.9,27.9-125.8
			c0-18.2-1.6-36-4.8-53.3H547.5z"/>
	</g>
</g>
</svg>
