<?xml version="1.0" encoding="utf-8"?>
<!-- Generator: Adobe Illustrator 19.0.1, SVG Export Plug-In . SVG Version: 6.00 Build 0)  -->
<svg version="1.1" id="Слой_1" xmlns="http://www.w3.org/2000/svg" xmlns:xlink="http://www.w3.org/1999/xlink" x="0px" y="0px"
	 viewBox="0 0 595.3 582.3" style="enable-background:new 0 0 595.3 582.3;" xml:space="preserve">
<style type="text/css">
	.st0{fill:#FFFFFF;}
	.st1{fill:#009F41;}
</style>
<g id="_x31_5_x25__Bonus_ICON">
	<polygon class="st0" points="569,465 299.3,465 297.6,465 29.6,465 57.6,523.2 29.6,582.3 297.6,582.3 299.3,582.3 569,582.3 
		541,523.2 	"/>
	<g>
		<path class="st0" d="M295.8,52.4c-135,0-244.4,109.4-244.4,244.4c0,52.7,16.7,101.6,45.1,141.5H15.4l9.8,15.1h83h3.2h16.2
			c-38.3-41.1-61.8-96.3-61.8-157C65.9,169.2,169,66,296.2,66c65.9,0,125.4,27.7,167.4,72.1h18.2C436.9,85.6,370.3,52.4,295.8,52.4z
			"/>
		<path class="st0" d="M579.4,438.2h-84.3c28.4-39.9,45.1-88.7,45.1-141.5c0-18-2-35.6-5.7-52.5h-13.9c3.9,16.7,5.9,34.2,5.9,52.1
			c0,60.7-23.5,115.8-61.8,157h11.7h7h3.8h84.5h1.7l9.8-15.1H579.4z"/>
	</g>
	<g>
		<path class="st1" d="M498.9,137.7h49.7C495.8,54.9,403.1,0,297.6,0C133.2,0,0,133.2,0,297.6c0,45,10,87.6,27.8,125.8h43.6
			C49.5,385.5,37,341.6,37,294.7C37,152.4,152.4,37,294.6,37C377.9,37,451.8,76.5,498.9,137.7z"/>
		<path class="st1" d="M547.3,244.3c3.2,16.3,4.9,33.2,4.9,50.4c0,46.9-12.5,90.8-34.4,128.7h49.4c17.9-38.2,27.8-80.8,27.8-125.8
			c0-18.2-1.6-36-4.8-53.3H547.3z"/>
	</g>
</g>
</svg>
