<?xml version="1.0" encoding="utf-8"?>
<!-- Generator: Adobe Illustrator 19.0.1, SVG Export Plug-In . SVG Version: 6.00 Build 0)  -->
<svg version="1.1" id="Слой_1" xmlns="http://www.w3.org/2000/svg" xmlns:xlink="http://www.w3.org/1999/xlink" x="0px" y="0px"
	 viewBox="0 0 595.3 595" style="enable-background:new 0 0 595.3 595;" xml:space="preserve">
<style type="text/css">
	.st0{fill:#343434;}
	.st1{fill:#232323;}
</style>
<g id="Instagramm">
	<path class="st0" d="M434.2,595c88.6,0,160.8-72.1,160.8-160.8V160.8C595,72.1,522.9,0,434.2,0H160.8C72.1,0,0,72.1,0,160.8v273.5
		C0,522.9,72.1,595,160.8,595"/>
	<path class="st1" d="M546.9,434.2c0,62.1-50.6,112.7-112.7,112.7H160.8c-62.1,0-112.7-50.6-112.7-112.7V160.8
		c0-62.1,50.6-112.7,112.7-112.7h273.5c62.1,0,112.7,50.6,112.7,112.7V434.2z"/>
	<g>
		<g>
			<path class="st0" d="M430.7,276.7c-4.2-28.5-17.2-54.4-37.6-74.8c-20.4-20.4-46.2-33.4-74.8-37.6c-13-1.9-26.2-1.9-39.1,0
				c-35.3,5.2-66.4,23.9-87.6,52.5s-30,63.8-24.8,99.1c5.2,35.3,23.9,66.4,52.5,87.6c23.2,17.2,50.8,26.3,79.2,26.3
				c6.6,0,13.2-0.5,19.9-1.5c35.3-5.2,66.4-23.9,87.6-52.5C427.1,347.2,435.9,312,430.7,276.7z M311.2,380.7
				c-22.6,3.3-45.1-2.3-63.4-15.9c-18.3-13.6-30.2-33.5-33.6-56c-3.3-22.6,2.3-45.1,15.9-63.4c13.6-18.3,33.5-30.2,56-33.6
				c4.2-0.6,8.3-0.9,12.5-0.9c4.2,0,8.4,0.3,12.5,0.9c37.5,5.6,66.4,34.5,71.9,71.9C390,330.4,357.8,373.8,311.2,380.7z"/>
		</g>
	</g>
	<g>
		<g>
			<path class="st0" d="M464.9,130.1c-4.5-4.5-10.7-7-17-7c-6.3,0-12.5,2.6-17,7c-4.5,4.5-7,10.7-7,17s2.6,12.5,7,17
				c4.5,4.5,10.7,7,17,7c6.3,0,12.5-2.6,17-7c4.5-4.5,7-10.7,7-17C471.9,140.8,469.4,134.6,464.9,130.1z"/>
		</g>
	</g>
</g>
</svg>
