<?xml version="1.0" encoding="utf-8"?>
<!-- Generator: Adobe Illustrator 19.0.1, SVG Export Plug-In . SVG Version: 6.00 Build 0)  -->
<svg version="1.1" id="Слой_1" xmlns="http://www.w3.org/2000/svg" xmlns:xlink="http://www.w3.org/1999/xlink" x="0px" y="0px"
	 viewBox="0 0 112.5 112.8" style="enable-background:new 0 0 112.5 112.8;" xml:space="preserve">
<style type="text/css">
	.st0{opacity:0.65;fill:#181819;stroke:url(#SVGID_1_);stroke-width:2;stroke-miterlimit:10;}
	.st1{fill:url(#SVGID_2_);}
</style>
<g id="Litecoin">
	<linearGradient id="SVGID_1_" gradientUnits="userSpaceOnUse" x1="0.4275" y1="56.375" x2="112.1142" y2="56.375">
		<stop  offset="0" style="stop-color:#009F42"/>
		<stop  offset="1" style="stop-color:#009548"/>
	</linearGradient>
	<path class="st0" d="M56.3,111.2L56.3,111.2C26,111.2,1.4,86.6,1.4,56.4l0,0C1.4,26.1,26,1.5,56.3,1.5l0,0
		c30.2,0,54.8,24.6,54.8,54.8l0,0C111.1,86.6,86.5,111.2,56.3,111.2z"/>
	<linearGradient id="SVGID_2_" gradientUnits="userSpaceOnUse" x1="28.9125" y1="53.5419" x2="89.5829" y2="53.5419">
		<stop  offset="0" style="stop-color:#009F42"/>
		<stop  offset="1" style="stop-color:#009548"/>
	</linearGradient>
	<polygon class="st1" points="55.4,73.8 59.7,57.5 69.9,53.7 72.4,44.1 72.4,43.9 62.3,47.6 69.5,20.3 49,20.3 39.5,55.9 31.6,58.9 
		28.9,68.7 36.9,65.8 31.2,86.8 86.1,86.8 89.6,73.8 	"/>
</g>
</svg>
