<?xml version="1.0" encoding="utf-8"?>
<!-- Generator: Adobe Illustrator 19.0.1, SVG Export Plug-In . SVG Version: 6.00 Build 0)  -->
<svg version="1.1" id="Слой_1" xmlns="http://www.w3.org/2000/svg" xmlns:xlink="http://www.w3.org/1999/xlink" x="0px" y="0px"
	 viewBox="0 0 595.3 596" style="enable-background:new 0 0 595.3 596;" xml:space="preserve">
<style type="text/css">
	.st0{opacity:0.25;fill:#FFFFFF;}
	.st1{fill:#343434;}
</style>
<g id="Litecoin_not_selected">
	<path class="st0" d="M298,596L298,596C133.6,596,0,462.4,0,298l0,0C0,133.6,133.6,0,298,0l0,0c164.4,0,298,133.6,298,298l0,0
		C596,462.4,462.4,596,298,596z"/>
	<polygon class="st1" points="277,407.9 300.3,319.4 355.7,298.9 369.7,246.8 369.2,245.8 314.8,265.9 353.9,117.3 242.1,117.3 
		190.4,311 147.6,326.9 133.2,380.4 176.5,364.6 145.7,478.7 443.7,478.7 462.8,407.9 	"/>
</g>
</svg>
