<?xml version="1.0" encoding="utf-8"?>
<!-- Generator: Adobe Illustrator 19.0.1, SVG Export Plug-In . SVG Version: 6.00 Build 0)  -->
<svg version="1.1" id="Слой_1" xmlns="http://www.w3.org/2000/svg" xmlns:xlink="http://www.w3.org/1999/xlink" x="0px" y="0px"
	 viewBox="0 0 595.3 397.8" style="enable-background:new 0 0 595.3 397.8;" xml:space="preserve">
<style type="text/css">
	.st0{fill:url(#SVGID_1_);}
	
		.st1{fill:none;stroke:url(#SVGID_2_);stroke-width:3;stroke-linecap:round;stroke-linejoin:round;stroke-dasharray:11.9584,11.9584;}
	.st2{fill:#272727;}
</style>
<g id="Element__x23_4">
	<linearGradient id="SVGID_1_" gradientUnits="userSpaceOnUse" x1="10.467" y1="199.117" x2="584.4818" y2="199.117">
		<stop  offset="0" style="stop-color:#009F42"/>
		<stop  offset="1" style="stop-color:#009548"/>
	</linearGradient>
	<path class="st0" d="M569.5,388.7h-544c-8.3,0-15-6.7-15-15V24.6c0-8.3,6.7-15,15-15h544c8.3,0,15,6.7,15,15v349.1
		C584.5,382,577.8,388.7,569.5,388.7z"/>
	<g>
		<linearGradient id="SVGID_2_" gradientUnits="userSpaceOnUse" x1="0.4488" y1="199.1169" x2="594.5" y2="199.1169">
			<stop  offset="0" style="stop-color:#009F42"/>
			<stop  offset="1" style="stop-color:#009548"/>
		</linearGradient>
		<path class="st1" d="M574.1,396H20.8c-10.4,0-18.9-8.5-18.9-18.9v-356c0-10.4,8.5-18.9,18.9-18.9h553.3c10.4,0,18.9,8.5,18.9,18.9
			v356C593,387.6,584.5,396,574.1,396z"/>
	</g>
	<path class="st2" d="M565.2,382.2H30.1c-7.2,0-13-5.8-13-13V28.9c0-7.2,5.8-13,13-13h535.2c7.2,0,13,5.8,13,13v340.2
		C578.3,376.3,572.4,382.2,565.2,382.2z"/>
</g>
</svg>
