<?xml version="1.0" encoding="utf-8"?>
<!-- Generator: Adobe Illustrator 19.0.1, SVG Export Plug-In . SVG Version: 6.00 Build 0)  -->
<svg version="1.1" id="Слой_1" xmlns="http://www.w3.org/2000/svg" xmlns:xlink="http://www.w3.org/1999/xlink" x="0px" y="0px"
	 viewBox="0 0 595.3 595" style="enable-background:new 0 0 595.3 595;" xml:space="preserve">
<style type="text/css">
	.st0{fill:#54B150;}
</style>
<g id="Arrow_1">
	<g id="Right">
		<g>
			<path class="st0" d="M269.9,174.7L269.9,174.7c-5-4.5-11.6-7.3-18.9-7.3c-15.4,0-27.9,12.5-27.9,27.9c0,8.1,3.5,15.4,9.1,20.5
				l-0.1,0.1l89.1,81.7l-89.1,81.7l0.1,0.1c-5.6,5.1-9.1,12.3-9.1,20.5c0,15.4,12.5,27.9,27.9,27.9c7.3,0,13.8-2.8,18.8-7.4l0.1,0.1
				l111.6-102.3c5.7-5.3,9-12.7,9-20.6s-3.3-15.3-9-20.6L269.9,174.7z M297.5,0C133.2,0,0,133.2,0,297.5S133.2,595,297.5,595
				S595,461.8,595,297.5S461.8,0,297.5,0z M297.5,539.2c-133.3,0-241.7-108.4-241.7-241.7S164.2,55.8,297.5,55.8
				s241.7,108.4,241.7,241.7S430.8,539.2,297.5,539.2z"/>
		</g>
	</g>
</g>
</svg>
