<svg xmlns="http://www.w3.org/2000/svg" width="16" height="19" viewBox="0 0 16 19">
    <g fill="#FFF" fill-rule="nonzero">
        <path d="M15.329 15.668l-.845-10.692a1.333 1.333 0 0 0-1.32-1.228h-1.67v-.075C11.494 1.648 9.854 0 7.838 0 5.82 0 4.18 1.648 4.18 3.673v.075H2.512c-.688 0-1.268.54-1.32 1.227L.346 15.67c-.065.856.23 1.709.812 2.339.581.63 1.405.991 2.26.991h8.84c.854 0 1.678-.361 2.26-.991.58-.63.876-1.483.81-2.34zM5.289 3.673a2.557 2.557 0 0 1 2.549-2.56 2.557 2.557 0 0 1 2.548 2.56v.075H5.29v-.075zm8.415 13.58c-.377.409-.891.634-1.447.634h-8.84c-.555 0-1.069-.225-1.446-.635a1.965 1.965 0 0 1-.52-1.496l.845-10.694a.218.218 0 0 1 .216-.201h1.669v1.37a.555.555 0 1 0 1.108 0v-1.37h5.097v1.37a.555.555 0 1 0 1.108 0v-1.37h1.67c.111 0 .206.088.215.202l.845 10.692a1.966 1.966 0 0 1-.52 1.497z"/>
        <path d="M10.185 9.163a.497.497 0 0 0-.737 0l-2.326 2.49-.895-.957a.497.497 0 0 0-.737 0 .586.586 0 0 0 0 .789l1.263 1.352a.503.503 0 0 0 .369.163.502.502 0 0 0 .368-.163l2.695-2.885a.586.586 0 0 0 0-.789z"/>
    </g>
</svg>
