<svg xmlns="http://www.w3.org/2000/svg" width="22" height="18" viewBox="0 0 22 18"><defs><clipPath id="77gia"><path fill="#fff" d="M.77 2a2 2 0 0 1 2-2h16.536a2 2 0 0 1 2 2v14a2 2 0 0 1-2 2H2.77a2 2 0 0 1-2-2z"/></clipPath></defs><g><g><g><path fill="none" stroke="#788995" stroke-miterlimit="50" stroke-width="2" d="M.77 2a2 2 0 0 1 2-2h16.536a2 2 0 0 1 2 2v14a2 2 0 0 1-2 2H2.77a2 2 0 0 1-2-2z" clip-path="url(&quot;#77gia&quot;)"/></g><g><path fill="#788995" d="M4.88 6a1 1 0 0 1 1-1h1.423a1 1 0 0 1 1 1v1a1 1 0 0 1-1 1H5.88a1 1 0 0 1-1-1z"/></g><g><path fill="none" stroke="#788995" stroke-linecap="square" stroke-miterlimit="50" d="M4.88 12.5h12.322"/></g></g></g></svg>