<svg class="sprite-icons" xmlns="http://www.w3.org/2000/svg">

	<symbol id="icon-pallete">
		<!-- width="20" height="20" viewBox="0 0 20 20" -->
		<g fill="none" fill-rule="nonzero">
			<path fill="#83D9FF" d="M0 10C0 4.477 4.477 0 10 0s10 4.477 10 10-4.477 10-10 10S0 15.523 0 10zm10 5.98a5.98 5.98 0 1 0 0-11.96 5.98 5.98 0 0 0 0 11.96z"/>
			<path fill="#3FEFEF" d="M10 20v-4.02c.763 0 1.493-.143 2.164-.404l1.376 3.78A9.977 9.977 0 0 1 10 20z"/>
			<path fill="#1DD1D9" d="M12.164 15.576a5.984 5.984 0 0 0 1.86-1.152l2.585 3.081a10.001 10.001 0 0 1-3.07 1.85l-1.375-3.779z"/>
			<path fill="#17B5BA" d="M14.023 14.424a6.008 6.008 0 0 0 1.31-1.716l3.485 2.012a10.036 10.036 0 0 1-2.21 2.785l-2.585-3.08z"/>
			<path fill="#9BE058" d="M15.816 8.604l3.964-.699a10.008 10.008 0 0 1 .126 3.47l-3.964-.698a6.088 6.088 0 0 0-.126-2.073z"/>
			<path fill="#C0FF66" d="M15.012 6.736l3.485-2.012c.599.963 1.039 2.036 1.283 3.181l-3.964.699a5.951 5.951 0 0 0-.804-1.868z"/>
			<path fill="#FFDF46" d="M13.658 5.27l2.586-3.082c.887.71 1.65 1.568 2.253 2.536l-3.485 2.012a6.02 6.02 0 0 0-1.354-1.466z"/>
			<path fill="#FC3E81" d="M6.699.558A9.975 9.975 0 0 1 10 0v4.02c-.674 0-1.322.112-1.926.317L6.699.558z"/>
			<path fill="#F01054" d="M3.756 2.188A9.98 9.98 0 0 1 6.698.558l1.376 3.78a5.955 5.955 0 0 0-1.732.932L3.756 2.188z"/>
			<path fill="#7884EA" d="M1.503 4.724a10.056 10.056 0 0 1 2.253-2.536L6.342 5.27c-.529.409-.987.905-1.354 1.466L1.503 4.724z"/>
			<path fill="#1685FB" d="M.094 11.376l3.964-.699c.082.724.292 1.41.609 2.031L1.182 14.72a9.925 9.925 0 0 1-1.088-3.344z"/>
			<path fill="#43A3F9" d="M1.182 14.72l3.485-2.012c.33.65.776 1.23 1.31 1.716L3.39 17.505a10.041 10.041 0 0 1-2.209-2.785z"/>
			<path fill="#64BDFF" d="M3.391 17.505l2.586-3.08a5.98 5.98 0 0 0 1.859 1.151l-1.376 3.78a10.002 10.002 0 0 1-3.069-1.851z"/>
			<path fill="#4A5BE5" d="M.22 7.905a9.939 9.939 0 0 1 1.283-3.181l3.485 2.012a5.951 5.951 0 0 0-.804 1.868L.22 7.905z"/>
			<path fill="#1CC939" d="M15.333 12.708a5.95 5.95 0 0 0 .61-2.03l3.963.698a9.925 9.925 0 0 1-1.088 3.344l-3.485-2.012z"/>
			<path fill="#364EC6" d="M0 10c0-.719.076-1.42.22-2.095l3.964.699a5.995 5.995 0 0 0-.126 2.073l-3.964.699C.032 10.926 0 10.466 0 10z"/>
			<path fill="#F9B200" d="M11.926 4.337L13.302.558a9.976 9.976 0 0 1 2.942 1.63L13.658 5.27a5.96 5.96 0 0 0-1.732-.933z"/>
			<path fill="#FD6096" d="M10 4.02V0c1.157 0 2.268.196 3.302.558l-1.376 3.78A5.972 5.972 0 0 0 10 4.02z"/>
		</g>
	</symbol>

	<symbol id="icon-download">
		<!-- width="17" height="18" viewBox="0 0 17 18" -->
		<g>
				<path d="M12.95 8.508a.56.56 0 0 0-.512-.341h-2.25V.583A.573.573 0 0 0 9.625 0h-2.25a.573.573 0 0 0-.562.583v7.584h-2.25c-.22 0-.421.134-.512.342a.599.599 0 0 0 .089.625L8.077 13.8c.107.128.261.2.423.2a.556.556 0 0 0 .423-.2l3.938-4.666a.599.599 0 0 0 .089-.626z"/>
			</g>
			<g>
				<path d="M14.733 12v3.6H2.267V12H0v4.8c0 .664.508 1.2 1.133 1.2h14.734c.626 0 1.133-.536 1.133-1.2V12z"/>
			</g>
	</symbol>

	<symbol id="icon-close2">
		<!-- width="13" height="12" viewBox="0 0 13 12" -->
		<path d="M12.5 1.2L11.3 0 6.5 4.8 1.7 0 .5 1.2 5.3 6 .5 10.8 1.7 12l4.8-4.8 4.8 4.8 1.2-1.2L7.7 6z"/>
	</symbol>

	<symbol id="icon-card">
		<!-- width="22" height="18" viewBox="0 0 22 18" -->
		<defs><clipPath id="77gia"><path fill="#fff" d="M.77 2a2 2 0 0 1 2-2h16.536a2 2 0 0 1 2 2v14a2 2 0 0 1-2 2H2.77a2 2 0 0 1-2-2z"/></clipPath></defs><g><g><g><path fill="none" stroke="#788995" stroke-miterlimit="50" stroke-width="2" d="M.77 2a2 2 0 0 1 2-2h16.536a2 2 0 0 1 2 2v14a2 2 0 0 1-2 2H2.77a2 2 0 0 1-2-2z" clip-path="url(&quot;#77gia&quot;)"/></g><g><path fill="#788995" d="M4.88 6a1 1 0 0 1 1-1h1.423a1 1 0 0 1 1 1v1a1 1 0 0 1-1 1H5.88a1 1 0 0 1-1-1z"/></g><g><path fill="none" stroke="#788995" stroke-linecap="square" stroke-miterlimit="50" d="M4.88 12.5h12.322"/></g></g></g>
	</symbol>
	
	<symbol id="icon-star1">
		<!-- width="15" height="15" viewBox="0 0 15 15" -->
		<path d="M7.75 11.286a.595.595 0 0 0-.5 0l-3.297 1.523.42-3.626a.604.604 0 0 0-.153-.477L1.76 6.023l3.557-.72a.599.599 0 0 0 .403-.294L7.5 1.827l1.779 3.182c.085.153.232.26.403.294l3.557.72-2.459 2.683a.604.604 0 0 0-.154.477l.421 3.626zm4.476 2.9a.604.604 0 0 0 .134-.455l-.512-4.412 2.993-3.268a.604.604 0 0 0-.322-.998l-4.33-.875L8.021.307a.598.598 0 0 0-1.043 0L4.812 4.178l-4.33.875a.604.604 0 0 0-.322.998L3.15 9.319l-.512 4.412a.603.603 0 0 0 .242.558.596.596 0 0 0 .602.06L7.5 12.494l4.016 1.855a.595.595 0 0 0 .71-.163z"/>
	</symbol>
	
	<symbol id="icon-star2">
		<!-- width="16" height="15" viewBox="0 0 16 15" -->
		<path d="M12.055 14.701a.597.597 0 0 0 .554-.671l-.512-4.411L15.09 6.35a.604.604 0 0 0-.322-.998l-4.33-.874L8.27.607a.598.598 0 0 0-1.043 0L5.06 4.478l-4.33.874a.604.604 0 0 0-.322.998L3.4 9.62l-.511 4.41a.603.603 0 0 0 .242.559.595.595 0 0 0 .602.06l4.015-1.855 4.016 1.855c.09.042.19.06.29.053z"/>
	</symbol>

	<symbol id="icon-cart">
		<!-- width="16" height="19" viewBox="0 0 16 19" -->
		<g fill-rule="nonzero">
			<path class="hov-col" d="M15.329 15.668l-.845-10.692a1.333 1.333 0 0 0-1.32-1.228h-1.67v-.075C11.494 1.648 9.854 0 7.838 0 5.82 0 4.18 1.648 4.18 3.673v.075H2.512c-.688 0-1.268.54-1.32 1.227L.346 15.67c-.065.856.23 1.709.812 2.339.581.63 1.405.991 2.26.991h8.84c.854 0 1.678-.361 2.26-.991.58-.63.876-1.483.81-2.34zM5.289 3.673a2.557 2.557 0 0 1 2.549-2.56 2.557 2.557 0 0 1 2.548 2.56v.075H5.29v-.075zm8.415 13.58c-.377.409-.891.634-1.447.634h-8.84c-.555 0-1.069-.225-1.446-.635a1.965 1.965 0 0 1-.52-1.496l.845-10.694a.218.218 0 0 1 .216-.201h1.669v1.37a.555.555 0 1 0 1.108 0v-1.37h5.097v1.37a.555.555 0 1 0 1.108 0v-1.37h1.67c.111 0 .206.088.215.202l.845 10.692a1.966 1.966 0 0 1-.52 1.497z"/>
			<path fill="#fff" d="M10.185 9.163a.497.497 0 0 0-.737 0l-2.326 2.49-.895-.957a.497.497 0 0 0-.737 0 .586.586 0 0 0 0 .789l1.263 1.352a.503.503 0 0 0 .369.163.502.502 0 0 0 .368-.163l2.695-2.885a.586.586 0 0 0 0-.789z"/>
		</g>
	</symbol>

	<symbol id="icon-user">
		<!-- width="18" height="18" viewBox="0 0 18 18" -->
		<path fill="#FFF" fill-rule="nonzero" d="M15.364 11.636a8.965 8.965 0 0 0-3.42-2.145 5.201 5.201 0 0 0 2.26-4.288A5.209 5.209 0 0 0 9 0a5.209 5.209 0 0 0-5.203 5.203c0 1.777.896 3.349 2.26 4.288a8.965 8.965 0 0 0-3.42 2.145A8.941 8.941 0 0 0 0 18h1.406c0-4.187 3.407-7.594 7.594-7.594s7.594 3.407 7.594 7.594H18a8.941 8.941 0 0 0-2.636-6.364zM9 9a3.801 3.801 0 0 1-3.797-3.797A3.801 3.801 0 0 1 9 1.406a3.801 3.801 0 0 1 3.797 3.797A3.801 3.801 0 0 1 9 9z"/>
	</symbol>

	<symbol id="icon-close">
		<!-- width="13" height="13" viewBox="0 0 13 13" -->
		<path fill="#FFF" fill-rule="nonzero" d="M12.5 2.042l-1.2-1.2-4.8 4.8-4.8-4.8-1.2 1.2 4.8 4.8-4.8 4.8 1.2 1.2 4.8-4.8 4.8 4.8 1.2-1.2-4.8-4.8z" opacity=".305"/>
	</symbol>

	<symbol id="icon-arrow-right">
		<!-- width="12" height="20" viewBox="0 0 12 20" -->
		<path d="M11.674 9.22L2.584.32c-.21-.207-.49-.32-.79-.32-.299 0-.58.113-.79.32l-.67.655a1.08 1.08 0 0 0 0 1.547l7.634 7.474-7.642 7.482a1.076 1.076 0 0 0 0 1.547l.67.655c.21.206.49.32.79.32.3 0 .58-.114.79-.32l9.098-8.908c.21-.206.327-.482.326-.776 0-.294-.115-.57-.326-.776z"/>
	</symbol>

	<symbol id="icon-arrow-next">
		<!-- width="10" height="10" viewBox="0 0 10 10" -->
		<path d="M0 4.375h7.625l-3.5-3.5L5 0l5 5-5 5-.875-.875 3.5-3.5H0z"/>
	</symbol>

	<symbol id="icon-star">
		<!-- width="22" height="21" viewBox="0 0 22 21" -->
		<path d="M21.523 9.517c.433-.42.585-1.038.399-1.611a1.567 1.567 0 0 0-1.274-1.07l-5.327-.772a.696.696 0 0 1-.524-.38L12.415.877A1.569 1.569 0 0 0 11 0c-.604 0-1.147.336-1.414.876l-2.382 4.81a.696.696 0 0 1-.525.379l-5.327.771a1.567 1.567 0 0 0-1.274 1.07 1.558 1.558 0 0 0 .4 1.611l3.854 3.743c.164.16.24.39.2.615l-.909 5.285c-.08.465.042.918.344 1.275.47.556 1.29.725 1.945.382l4.764-2.496c.2-.104.45-.103.648 0l4.765 2.496c.231.122.479.183.734.183.465 0 .907-.206 1.21-.565.303-.357.425-.81.344-1.275l-.91-5.285a.693.693 0 0 1 .201-.615z"/>
	</symbol>

	<symbol id="icon-checked">
		<!-- width="24" height="20" viewBox="0 0 24 20" -->
		<path d="M23.566 3.31l-2.105-2.107A1.433 1.433 0 0 0 20.408.77c-.413 0-.764.145-1.053.433L9.197 11.376 4.645 6.81c-.289-.29-.64-.434-1.053-.434-.413 0-.764.145-1.053.434L.434 8.914c-.29.29-.434.64-.434 1.053 0 .413.144.765.434 1.053l5.605 5.605 2.106 2.106c.288.29.64.434 1.052.434.413 0 .764-.145 1.053-.434l2.106-2.106 11.21-11.21c.29-.289.434-.64.434-1.053 0-.413-.145-.764-.434-1.053z"/>
	</symbol>

	<symbol id="icon-facebook">
		<!-- width="96" height="96" viewBox="0 0 96 96" -->
		<g>
			<path d="M72.089,0.02L59.624,0C45.62,0,36.57,9.285,36.57,23.656v10.907H24.037c-1.083,0-1.96,0.878-1.96,1.961v15.803     c0,1.083,0.878,1.96,1.96,1.96h12.533v39.876c0,1.083,0.877,1.96,1.96,1.96h16.352c1.083,0,1.96-0.878,1.96-1.96V54.287h14.654     c1.083,0,1.96-0.877,1.96-1.96l0.006-15.803c0-0.52-0.207-1.018-0.574-1.386c-0.367-0.368-0.867-0.575-1.387-0.575H56.842v-9.246     c0-4.444,1.059-6.7,6.848-6.7l8.397-0.003c1.082,0,1.959-0.878,1.959-1.96V1.98C74.046,0.899,73.17,0.022,72.089,0.02z"></path>
		</g>
	</symbol>

	<symbol id="icon-twitter">
		<!-- width="543" height="543" viewBox="0 0 543 543" -->
		<g>
			<path d="M527.657,106.697c-2.681,0.783-5.361,1.512-8.041,2.191c-16.384,4.137-17.89-1.322-6.028-13.366     c5.312-5.397,10.006-11.267,14.082-17.607c9.137-14.217,1.212-20.417-14.333-13.776c-5.545,2.369-11.182,4.517-16.897,6.432     c-16.017,5.379-38.746-2.735-53.018-11.787c-18.018-11.426-38.495-17.136-61.438-17.136c-32.137,0-59.529,11.334-82.192,33.984     c-22.656,22.662-33.99,50.062-33.99,82.191c0,4.394,0.251,8.855,0.747,13.378c0.814,7.362-11.585,12.699-28.317,10.336     c-36.194-5.11-70.582-16.077-103.171-32.889c-32.32-16.671-60.845-37.65-85.57-62.938C37.672,73.624,21.687,74.665,17.274,90.98     c-2.644,9.78-3.959,19.951-3.959,30.515c0,19.908,4.675,38.372,14.027,55.392c4.651,8.47,10.098,16.138,16.353,22.999     c10.521,11.549,8.911,18.25-5.734,14.144c-14.639-4.106-25.367-10.202-25.367-9.804s0,0.722,0,0.722     c0,28.048,8.807,52.693,26.432,73.911c10.857,13.072,23.47,23.17,37.834,30.282c15.147,7.503,22.203,11.688,13.733,12.784     c-5.11,0.661-10.251,0.991-15.422,0.991c-3.5,0-7.172-0.159-11.003-0.483c-6.059-0.514-7.148,12.111,2.038,26.298     c7.301,11.273,16.646,21.193,28.03,29.762c11.579,8.721,24.058,14.981,37.417,18.794c16.255,4.633,19.517,13.073,5.024,21.763     c-35.863,21.519-75.551,32.277-119.058,32.277c-4.902,0-9.578-0.11-14.045-0.324c-7.754-0.373-2.552,6.456,12.417,14.296     c46.775,24.499,97.43,36.738,151.972,36.738c41.237,0,79.964-6.529,116.176-19.596c36.199-13.066,67.136-30.576,92.791-52.516     c25.655-21.94,47.779-47.173,66.365-75.711c18.581-28.537,32.424-58.33,41.543-89.376c9.106-31.053,13.666-62.167,13.666-93.342     c0-2.809-0.024-5.331-0.067-7.552c-0.086-4.174,10.955-15.472,23.28-27.032c5.563-5.22,10.869-10.698,15.937-16.444     C548.833,107.78,543.882,101.966,527.657,106.697z"></path>
			</g>
	</symbol>

	<symbol id="icon-github">
		<!-- width="438.549px" height="438.549px" viewBox="0 0 438.549 438.549" -->
		<path d="M409.132,114.573c-19.608-33.596-46.205-60.194-79.798-79.8C295.736,15.166,259.057,5.365,219.271,5.365
		c-39.781,0-76.472,9.804-110.063,29.408c-33.596,19.605-60.192,46.204-79.8,79.8C9.803,148.168,0,184.854,0,224.63
		c0,47.78,13.94,90.745,41.827,128.906c27.884,38.164,63.906,64.572,108.063,79.227c5.14,0.954,8.945,0.283,11.419-1.996
		c2.475-2.282,3.711-5.14,3.711-8.562c0-0.571-0.049-5.708-0.144-15.417c-0.098-9.709-0.144-18.179-0.144-25.406l-6.567,1.136
		c-4.187,0.767-9.469,1.092-15.846,1c-6.374-0.089-12.991-0.757-19.842-1.999c-6.854-1.231-13.229-4.086-19.13-8.559
		c-5.898-4.473-10.085-10.328-12.56-17.556l-2.855-6.57c-1.903-4.374-4.899-9.233-8.992-14.559
		c-4.093-5.331-8.232-8.945-12.419-10.848l-1.999-1.431c-1.332-0.951-2.568-2.098-3.711-3.429c-1.142-1.331-1.997-2.663-2.568-3.997
		c-0.572-1.335-0.098-2.43,1.427-3.289c1.525-0.859,4.281-1.276,8.28-1.276l5.708,0.853c3.807,0.763,8.516,3.042,14.133,6.851
		c5.614,3.806,10.229,8.754,13.846,14.842c4.38,7.806,9.657,13.754,15.846,17.847c6.184,4.093,12.419,6.136,18.699,6.136
		c6.28,0,11.704-0.476,16.274-1.423c4.565-0.952,8.848-2.383,12.847-4.285c1.713-12.758,6.377-22.559,13.988-29.41
		c-10.848-1.14-20.601-2.857-29.264-5.14c-8.658-2.286-17.605-5.996-26.835-11.14c-9.235-5.137-16.896-11.516-22.985-19.126
		c-6.09-7.614-11.088-17.61-14.987-29.979c-3.901-12.374-5.852-26.648-5.852-42.826c0-23.035,7.52-42.637,22.557-58.817
		c-7.044-17.318-6.379-36.732,1.997-58.24c5.52-1.715,13.706-0.428,24.554,3.853c10.85,4.283,18.794,7.952,23.84,10.994
		c5.046,3.041,9.089,5.618,12.135,7.708c17.705-4.947,35.976-7.421,54.818-7.421s37.117,2.474,54.823,7.421l10.849-6.849
		c7.419-4.57,16.18-8.758,26.262-12.565c10.088-3.805,17.802-4.853,23.134-3.138c8.562,21.509,9.325,40.922,2.279,58.24
		c15.036,16.18,22.559,35.787,22.559,58.817c0,16.178-1.958,30.497-5.853,42.966c-3.9,12.471-8.941,22.457-15.125,29.979
		c-6.191,7.521-13.901,13.85-23.131,18.986c-9.232,5.14-18.182,8.85-26.84,11.136c-8.662,2.286-18.415,4.004-29.263,5.146
		c9.894,8.562,14.842,22.077,14.842,40.539v60.237c0,3.422,1.19,6.279,3.572,8.562c2.379,2.279,6.136,2.95,11.276,1.995
		c44.163-14.653,80.185-41.062,108.068-79.226c27.88-38.161,41.825-81.126,41.825-128.906
		C438.536,184.851,428.728,148.168,409.132,114.573z"/>
	</symbol>


	<symbol id="icon-inst">
		<!-- width="169.063px" height="169.063px" viewBox="0 0 169.063 169.063" -->
		<path d="M122.406,0H46.654C20.929,0,0,20.93,0,46.655v75.752c0,25.726,20.929,46.655,46.654,46.655h75.752
		c25.727,0,46.656-20.93,46.656-46.655V46.655C169.063,20.93,148.133,0,122.406,0z M154.063,122.407
		c0,17.455-14.201,31.655-31.656,31.655H46.654C29.2,154.063,15,139.862,15,122.407V46.655C15,29.201,29.2,15,46.654,15h75.752
		c17.455,0,31.656,14.201,31.656,31.655V122.407z"/>
	<path d="M84.531,40.97c-24.021,0-43.563,19.542-43.563,43.563c0,24.02,19.542,43.561,43.563,43.561s43.563-19.541,43.563-43.561
		C128.094,60.512,108.552,40.97,84.531,40.97z M84.531,113.093c-15.749,0-28.563-12.812-28.563-28.561
		c0-15.75,12.813-28.563,28.563-28.563s28.563,12.813,28.563,28.563C113.094,100.281,100.28,113.093,84.531,113.093z"/>
	<path d="M129.921,28.251c-2.89,0-5.729,1.17-7.77,3.22c-2.051,2.04-3.23,4.88-3.23,7.78c0,2.891,1.18,5.73,3.23,7.78
		c2.04,2.04,4.88,3.22,7.77,3.22c2.9,0,5.73-1.18,7.78-3.22c2.05-2.05,3.22-4.89,3.22-7.78c0-2.9-1.17-5.74-3.22-7.78
		C135.661,29.421,132.821,28.251,129.921,28.251z"/>
	</symbol>

</svg>