<svg xmlns="http://www.w3.org/2000/svg" width="22" height="21" viewBox="0 0 22 21"><g><g><path fill="#f8e71c" d="M21.523 9.517c.433-.42.585-1.038.399-1.611a1.567 1.567 0 0 0-1.274-1.07l-5.327-.772a.696.696 0 0 1-.524-.38L12.415.877A1.569 1.569 0 0 0 11 0c-.604 0-1.147.336-1.414.876l-2.382 4.81a.696.696 0 0 1-.525.379l-5.327.771a1.567 1.567 0 0 0-1.274 1.07 1.558 1.558 0 0 0 .4 1.611l3.854 3.743c.164.16.24.39.2.615l-.909 5.285c-.08.465.042.918.344 1.275.47.556 1.29.725 1.945.382l4.764-2.496c.2-.104.45-.103.648 0l4.765 2.496c.231.122.479.183.734.183.465 0 .907-.206 1.21-.565.303-.357.425-.81.344-1.275l-.91-5.285a.693.693 0 0 1 .201-.615z"/></g></g></svg>