<svg xmlns="http://www.w3.org/2000/svg" width="15" height="15" viewBox="0 0 15 15"><g><g><path fill="#d6c925" d="M7.75 11.286a.595.595 0 0 0-.5 0l-3.297 1.523.42-3.626a.604.604 0 0 0-.153-.477L1.76 6.023l3.557-.72a.599.599 0 0 0 .403-.294L7.5 1.827l1.779 3.182c.085.153.232.26.403.294l3.557.72-2.459 2.683a.604.604 0 0 0-.154.477l.421 3.626zm4.476 2.9a.604.604 0 0 0 .134-.455l-.512-4.412 2.993-3.268a.604.604 0 0 0-.322-.998l-4.33-.875L8.021.307a.598.598 0 0 0-1.043 0L4.812 4.178l-4.33.875a.604.604 0 0 0-.322.998L3.15 9.319l-.512 4.412a.603.603 0 0 0 .242.558.596.596 0 0 0 .602.06L7.5 12.494l4.016 1.855a.595.595 0 0 0 .71-.163z"/></g></g></svg>