<svg xmlns="http://www.w3.org/2000/svg" viewBox="0 0 17 16">
  <defs>
    <style>
      .cls-1 {
        fill: #fff;
      }
    </style>
  </defs>
  <path id="Union_20" data-name="Union 20" class="cls-1" d="M23399-10904a2,2,0,0,1-1.992-2V-10908a1,1,0,0,1-1-1V-10913a1,1,0,0,1,1-1,6.01,6.01,0,0,1,6-6h3a6.017,6.017,0,0,1,6,6,1.007,1.007,0,0,1,1,1v4.008a1.007,1.007,0,0,1-1,1v1.991a2.01,2.01,0,0,1-2,2Zm0-2h11V-10908h-11ZM23398-10910h13v-2h-13Zm1-4.008h11a4.006,4.006,0,0,0-3.994-4h-3A4,4,0,0,0,23399-10914Zm7-1.5a.5.5,0,0,1,.5-.5.5.5,0,0,1,.5.5.5.5,0,0,1-.5.5A.5.5,0,0,1,23406-10915.5Zm-4,0a.5.5,0,0,1,.5-.5.5.5,0,0,1,.5.5.5.5,0,0,1-.5.5A.5.5,0,0,1,23402-10915.5Zm2-1a.5.5,0,0,1,.5-.5.5.5,0,0,1,.5.5.5.5,0,0,1-.5.5A.5.5,0,0,1,23404-10916.5Z" transform="translate(-23396.006 10920.001)"/>
</svg>
