<svg xmlns="http://www.w3.org/2000/svg" viewBox="0 0 11.998 15.988">
  <defs>
    <style>
      .cls-1 {
        fill: #fff;
      }
    </style>
  </defs>
  <path id="drink_round" class="cls-1" d="M1145.988,1516.006a2,2,0,0,0-2,2v3a5.848,5.848,0,0,0,5,5.906v3.087h-2a1,1,0,0,0-1,1h0a1,1,0,0,0,1,1h6a1,1,0,0,0,1-1h0a1,1,0,0,0-1-1h-2v-3.087a5.848,5.848,0,0,0,5-5.906v-3a2,2,0,0,0-2-2Zm8,5a4,4,0,0,1-4.392,3.979,4.114,4.114,0,0,1-3.606-4.151V1519a1,1,0,0,1,1-1h6a1,1,0,0,1,1,1Z" transform="translate(-1143.988 -1516.006)"/>
</svg>
