<svg xmlns="http://www.w3.org/2000/svg" viewBox="0 0 15.936 16">
  <defs>
    <style>
      .cls-1 {
        fill: #fff;
      }
    </style>
  </defs>
  <path id="pizza" class="cls-1" d="M39.034,576a2.988,2.988,0,0,0-2.916,3.639c0,.007-.009.012-.012.019l-3.984,11a1,1,0,0,0,.232,1.049.992.992,0,0,0,1.045.232l10.956-4c.007,0,.012-.009.019-.012a2.964,2.964,0,0,0,.637.072A3,3,0,0,0,48,585,8.992,8.992,0,0,0,39.034,576ZM36.3,584.982A3.529,3.529,0,0,0,39.034,586c1.992,0-1-1-1-2a1.977,1.977,0,0,0-.912-1.306l.4-1.117a2.945,2.945,0,0,0,1.5.423,2.94,2.94,0,0,1,1.371.35c-.232.037-.375.271-.375.65,0,.69,1.423,1.856,1.977,1.854,0,.049.015.1.015.146a2.975,2.975,0,0,0,.421,1.51l-3.455,1.261a.983.983,0,0,0-.95-.771,1,1,0,0,0-1,1,.98.98,0,0,0,.113.44l-2.431.888ZM45.009,586a1,1,0,0,1-1-1,5,5,0,0,0-4.98-5,1,1,0,0,1,0-2,6.994,6.994,0,0,1,6.972,7A1,1,0,0,1,45.009,586Z" transform="translate(-32.063 -576)"/>
</svg>
