<svg xmlns="http://www.w3.org/2000/svg" viewBox="0 0 16.016 16">
  <defs>
    <style>
      .cls-1 {
        fill: #fff;
      }
    </style>
  </defs>
  <path id="profile_close_2" class="cls-1" d="M431.9,365.343a8.091,8.091,0,0,0-4.441-4.614,4.879,4.879,0,0,0,1.783-3.73,5.061,5.061,0,0,0-4.619-4.962,4.957,4.957,0,0,0-1.23,0A5.061,5.061,0,0,0,418.779,357a4.879,4.879,0,0,0,1.783,3.73,8.09,8.09,0,0,0-4.441,4.614,1.926,1.926,0,0,0,.271,1.816A2.125,2.125,0,0,0,418.1,368h11.828a2.125,2.125,0,0,0,1.706-.841A1.926,1.926,0,0,0,431.9,365.343ZM420.872,357a3.043,3.043,0,0,1,2.816-2.98,2.644,2.644,0,0,1,.649,0,3.009,3.009,0,1,1-3.465,2.98Zm-2.774,9a6.372,6.372,0,0,1,11.828,0Z" transform="translate(-416.006 -352)"/>
</svg>
