<svg xmlns="http://www.w3.org/2000/svg" width="35" height="35" viewBox="0 0 35 35"><g><g><path fill="#ffc30a" d="M22.333 19.333a1.4 1.4 0 0 0 1.986 0 1.414 1.414 0 0 0 0-1.994 1.4 1.4 0 0 0-1.986 0c-.55.551-.55 1.444 0 1.994zm-21.24-2.405C.49 16.928 0 16.438 0 15.834V1.094C0 .49.49 0 1.094 0H15.77c.604 0 1.094.49 1.094 1.094v14.74c0 .604-.49 1.094-1.094 1.094zm7.34-9.874c-.777 0-1.405.63-1.405 1.41 0 .779.628 1.41 1.404 1.41.776 0 1.404-.631 1.404-1.41 0-.78-.628-1.41-1.404-1.41zm2.081 5.193c0 .778.63 1.41 1.405 1.41.776 0 1.405-.632 1.405-1.41 0-.779-.629-1.41-1.405-1.41s-1.405.631-1.405 1.41zm1.404-8.977c-.775 0-1.404.631-1.404 1.41 0 .779.628 1.41 1.404 1.41.777 0 1.406-.63 1.406-1.41 0-.779-.63-1.41-1.406-1.41zm-6.973 7.567c-.777 0-1.406.631-1.406 1.41 0 .779.63 1.41 1.406 1.41.775 0 1.404-.631 1.404-1.41 0-.779-.629-1.41-1.404-1.41zM4.944 3.27c-.777 0-1.405.631-1.405 1.41 0 .779.629 1.41 1.405 1.41s1.404-.63 1.404-1.41c0-.779-.628-1.41-1.404-1.41zm17.588 21.213a1.4 1.4 0 0 0 1.987 0 1.414 1.414 0 0 0 0-1.993 1.4 1.4 0 0 0-1.987 0 1.413 1.413 0 0 0 0 1.993zm.218-12.189a1.094 1.094 0 0 1 1.55 0l10.381 10.42a1.094 1.094 0 0 1 0 1.545l-10.38 10.42a1.094 1.094 0 0 1-1.55 0l-10.38-10.42a1.094 1.094 0 0 1 0-1.544zm4.914 12.39a1.4 1.4 0 0 0 1.986 0 1.414 1.414 0 0 0 0-1.995 1.4 1.4 0 0 0-1.986 0 1.414 1.414 0 0 0 0 1.994zM22.73 27.64a1.414 1.414 0 0 0 0 1.994 1.4 1.4 0 0 0 1.987 0 1.414 1.414 0 0 0 0-1.994 1.4 1.4 0 0 0-1.987 0zm-3.344-5.35a1.4 1.4 0 0 0-1.987 0 1.414 1.414 0 0 0 0 1.995c.55.55 1.438.55 1.987 0a1.414 1.414 0 0 0 0-1.995z"/></g></g></svg>