<?xml version="1.0" encoding="utf-8"?>
<svg viewBox="0 0 500 500" width="500" height="500" xmlns="http://www.w3.org/2000/svg">
  <g id="ruby" transform="matrix(2.430633068084717, 0, 0, 2.6442160606384277, 5.505443096160889, 4.714559078216553)">
    <path d="M33.525,0.097 C33.525,0.097 166.475,0.097 166.475,0.097 C166.475,0.097 199.713,47.183 199.713,47.183 C166.474,92.422 133.239,137.664 100,182.903 C66.762,137.664 33.526,92.422 0.287,47.183 C0.287,47.183 33.525,0.097 33.525,0.097 z" style="fill-rule: evenodd; fill: rgb(157, 213, 67);"/>
    <path d="M100,0.097 C112,15.794 124.008,31.485 136.007,47.183 C136.007,47.183 63.993,47.183 63.993,47.183 C75.961,31.533 87.928,15.882 99.897,0.232 z" style="fill-rule: evenodd; fill: rgb(151, 229, 88);"/>
    <path d="M33.515,0.097 C44.208,16.469 53.827,31.31 63.993,47.183 L0.287,47.183 C10.76,32.342 21.232,17.502 31.705,2.661 z" style="fill-rule: evenodd; fill: rgb(120, 182, 75);"/>
    <path d="M149.856,47.183 L149.856,115.043 L100,182.903 L50.144,115.043 L50.144,47.183 C50.144,47.183 149.856,47.183 149.856,47.183 z z" style="fill-rule: evenodd; fill: rgb(120, 182, 75);"/>
    <path d="M63.993,47.183 C75.995,92.423 87.998,137.663 100,182.903 C66.762,137.664 33.526,92.422 0.287,47.183 C0.287,47.183 63.993,47.183 63.993,47.183 z z z" style="fill-rule: evenodd; fill: rgb(152, 227, 91);"/>
    <path d="M199.713,47.183 C166.474,92.422 133.239,137.664 100,182.903 C112.007,137.664 123.997,92.421 136.007,47.183 C136.007,47.183 199.713,47.183 199.713,47.183 z z" style="fill-rule: evenodd; fill: rgb(97, 129, 74);"/>
    <path d="M166.485,0.097 C155.517,16.469 146.448,31.31 136.007,47.183 L199.713,47.183 C189.24,32.343 178.768,17.502 168.295,2.661 z" style="fill-rule: evenodd; fill: rgb(120, 182, 75);"/>
  </g>
</svg>