<svg xmlns="http://www.w3.org/2000/svg" width="46" height="30" viewBox="0 0 46 30"><g><g><g opacity=".73" transform="rotate(18 8 17)"><path fill="#aaee60" d="M8.338 24.93c2.225 0 4.91-3.36 4.028-7.768-.882-4.409-1.667-8.232-3.892-8.232-.876 0-2.217.554-2.877 1.47-1.018 1.41-1.287 4.16-1.287 6.762 0 4.29 1.803 7.768 4.028 7.768z"/></g><g opacity=".73" transform="rotate(-18 37 17.5)"><path fill="#aaee60" d="M37.283 25.95c-2.364 0-5.217-3.57-4.28-8.254.937-4.684 1.771-8.746 4.135-8.746.93 0 2.355.589 3.057 1.561 1.082 1.498 1.367 4.421 1.367 7.185 0 4.559-1.916 8.254-4.28 8.254z"/></g><g><path fill="#404259" d="M42.829 26.446c-.34.797-.794 1.252-1.361 1.423-.624.17-1.418.057-2.326-.285-1.985-.797-4.31-2.56-6.579-4.724-2.155-2.162-5.955-3.244-9.755-3.244-3.8 0-7.6 1.082-9.812 3.13-2.326 2.163-4.65 3.985-6.58 4.724-.907.342-1.7.513-2.325.285-.567-.17-1.02-.626-1.36-1.423-.455-1.081-.681-2.846-.568-5.464.113-2.447.51-5.236 1.191-7.854.624-2.447 1.418-4.724 2.382-6.431 3.12-5.635 6.75-4.724 11.06-3.586 1.758.456 3.573.911 5.558 1.082h.851c2.042-.171 3.857-.626 5.615-1.082 4.31-1.081 7.94-2.049 11.06 3.586.964 1.707 1.758 3.927 2.382 6.431.624 2.618 1.077 5.35 1.19 7.854.114 2.618-.113 4.383-.623 5.578zm2.722-5.699c-.113-2.617-.567-5.518-1.248-8.249-.68-2.617-1.53-5.063-2.552-6.94-3.97-6.999-8.28-5.918-13.442-4.552-1.644.398-3.403.853-5.218 1.024h-.567c-1.815-.17-3.573-.626-5.218-1.024-5.16-1.309-9.471-2.447-13.442 4.608-1.02 1.877-1.928 4.324-2.552 6.94-.68 2.732-1.134 5.633-1.248 8.25-.113 2.902.17 5.007.795 6.486.623 1.365 1.53 2.219 2.722 2.56 1.078.285 2.325.17 3.63-.398 2.212-.91 4.764-2.845 7.26-5.177 1.758-1.707 5.047-2.56 8.337-2.56s6.579.853 8.337 2.56c2.496 2.332 5.048 4.267 7.26 5.177 1.304.512 2.552.683 3.63.398 1.134-.341 2.098-1.138 2.722-2.617.624-1.422.908-3.527.794-6.486z"/></g></g></g></svg>