<svg xmlns="http://www.w3.org/2000/svg" width="51" height="38" viewBox="0 0 51 38"><g><g><g><path fill="#404259" d="M46.829 34.446c-.34.797-.794 1.252-1.361 1.423-.624.17-1.418.057-2.326-.285-1.985-.797-4.31-2.56-6.579-4.724-2.155-2.162-5.955-3.244-9.755-3.244-3.8 0-7.6 1.082-9.812 3.13-2.326 2.163-4.65 3.985-6.58 4.724-.907.342-1.7.513-2.325.285-.567-.17-1.02-.626-1.36-1.423-.455-1.081-.681-2.846-.568-5.464.113-2.447.51-5.236 1.191-7.854.624-2.447 1.418-4.724 2.382-6.431 3.12-5.635 6.75-4.724 11.06-3.586 1.758.456 3.573.911 5.558 1.082h.851c2.042-.171 3.857-.626 5.615-1.082 4.31-1.081 7.94-2.049 11.06 3.586.964 1.707 1.758 3.927 2.382 6.431.624 2.618 1.077 5.35 1.19 7.854.114 2.618-.113 4.383-.623 5.578zm2.722-5.699c-.113-2.617-.567-5.518-1.248-8.249-.68-2.617-1.53-5.063-2.552-6.94-3.97-6.999-8.28-5.918-13.442-4.552-1.644.398-3.403.853-5.218 1.024h-.567c-1.815-.17-3.573-.626-5.218-1.024-5.16-1.309-9.471-2.447-13.442 4.608-1.02 1.877-1.928 4.324-2.552 6.94-.68 2.732-1.134 5.633-1.248 8.25-.113 2.902.17 5.007.795 6.486.623 1.365 1.53 2.219 2.722 2.56 1.078.285 2.325.17 3.63-.398 2.212-.91 4.764-2.845 7.26-5.177 1.758-1.707 5.047-2.56 8.337-2.56s6.579.853 8.337 2.56c2.496 2.332 5.048 4.267 7.26 5.177 1.304.512 2.552.683 3.63.398 1.134-.341 2.098-1.138 2.722-2.617.624-1.422.908-3.527.794-6.486z"/></g><g><path fill="#404259" d="M16.321 22.463a4.821 4.821 0 1 0 0-9.643 4.821 4.821 0 0 0 0 9.643z"/></g><g><path fill="#aaee60" d="M39.5 7c-.828 0-1.5-.783-1.5-1.75v-3.5C38 .784 38.672 0 39.5 0c.829 0 1.5.784 1.5 1.75v3.5C41 6.217 40.329 7 39.5 7z"/></g><g><path fill="#aaee60" d="M46.502 10c-.696.002-1.301-.53-1.461-1.283-.161-.753.166-1.53.79-1.875l2.999-1.666c.74-.412 1.642-.077 2.011.747.37.823.07 1.825-.671 2.236L47.17 9.825a1.381 1.381 0 0 1-.669.175z"/></g><g><path fill="#aaee60" d="M11.5 7c-.828 0-1.5-.783-1.5-1.75v-3.5C10 .784 10.672 0 11.5 0c.829 0 1.5.784 1.5 1.75v3.5C13 6.217 12.329 7 11.5 7z"/></g><g transform="rotate(57 4 9.5)"><path fill="#aaee60" d="M2.502 12c-.696.002-1.301-.53-1.461-1.283-.161-.753.166-1.53.79-1.875L4.83 7.176c.74-.412 1.642-.077 2.011.747.37.823.07 1.825-.671 2.236L3.17 11.825a1.381 1.381 0 0 1-.669.175z"/></g><g><path fill="#404259" d="M37.525 16.04a1.875 1.875 0 1 0 0-3.75 1.875 1.875 0 0 0 0 3.75z"/></g><g><path fill="#404259" d="M37.525 23.54a1.875 1.875 0 1 0 0-3.75 1.875 1.875 0 0 0 0 3.75z"/></g><g><path fill="#404259" d="M33.775 19.79a1.875 1.875 0 1 0 0-3.75 1.875 1.875 0 0 0 0 3.75z"/></g><g><path fill="#404259" d="M41.805 19.79a1.875 1.875 0 1 0 0-3.75 1.875 1.875 0 0 0 0 3.75z"/></g><g><path fill="#4c4f6d" d="M20.872 30.504a3.482 3.482 0 1 0 0-6.964 3.482 3.482 0 0 0 0 6.964z"/></g><g><path fill="#4c4f6d" d="M30.872 30.504a3.482 3.482 0 1 0 0-6.964 3.482 3.482 0 0 0 0 6.964z"/></g></g></g></svg>