<svg xmlns="http://www.w3.org/2000/svg" width="26" height="25" viewBox="0 0 26 25"><g><g><path fill="#404259" d="M17.819 15.37l1.123 6.612-5.883-3.126-5.898 3.126 1.14-6.612-4.776-4.665 6.585-.973 2.95-6 2.948 6 6.586.973zm8.31-5.727c0-.387-.293-.627-.88-.721l-7.882-1.145L13.834.643C13.635.214 13.379 0 13.064 0c-.313 0-.57.214-.769.643L8.762 7.777.879 8.922C.293 9.016 0 9.256 0 9.643c0 .22.13.47.393.753l5.715 5.55-1.35 7.84c-.02.147-.031.252-.031.315 0 .22.055.405.164.556.11.152.275.228.495.228.189 0 .398-.063.628-.188l7.05-3.701 7.051 3.7c.22.126.43.189.628.189.43 0 .644-.261.644-.784 0-.136-.005-.24-.016-.314l-1.35-7.84 5.7-5.55c.272-.273.408-.524.408-.754z"/></g></g></svg>