<svg width="50" height="34" viewBox="0 0 50 34" fill="none" xmlns="http://www.w3.org/2000/svg">
<rect x="0.5" y="0.5" width="49" height="33" rx="3.5" fill="white" stroke="#EAEBEC"/>
<path d="M15 11C15 10.4477 15.4477 10 16 10H34C34.5523 10 35 10.4477 35 11C35 11.5523 34.5523 12 34 12H16C15.4477 12 15 11.5523 15 11Z" fill="#989CA4"/>
<path d="M15 17C15 16.4477 15.4477 16 16 16H34C34.5523 16 35 16.4477 35 17C35 17.5523 34.5523 18 34 18H16C15.4477 18 15 17.5523 15 17Z" fill="#989CA4"/>
<path d="M15 23C15 22.4477 15.4477 22 16 22H34C34.5523 22 35 22.4477 35 23C35 23.5523 34.5523 24 34 24H16C15.4477 24 15 23.5523 15 23Z" fill="#989CA4"/>
</svg>
