<svg width="24" height="24" viewBox="0 0 24 24" fill="none" xmlns="http://www.w3.org/2000/svg">
<path d="M19.7073 23.5891C14.5743 24.137 9.42572 24.137 4.29272 23.5891C2.24597 23.3707 0.629333 21.754 0.410889 19.7071C-0.136963 14.5741 -0.136963 9.42572 0.410889 4.29272C0.629333 2.24597 2.24597 0.629333 4.29272 0.410889C9.42572 -0.136963 14.5741 -0.136963 19.7071 0.410889C21.754 0.629333 23.3707 2.24597 23.5891 4.29272C24.137 9.42572 24.137 14.5741 23.5891 19.7071C23.3707 21.754 21.7542 23.3707 19.7073 23.5891Z" fill="#3B5998"/>
<path d="M14.3569 6.82271H16V4.11971C15.7165 4.08287 14.7416 4 13.6062 4C11.2371 4 9.61428 5.40746 9.61428 7.99429V10.375H7V13.3967H9.61428V21H12.8195V13.3975H15.3281L15.7263 10.3757H12.8188V8.29392C12.8195 7.42054 13.0685 6.82271 14.3569 6.82271Z" fill="white"/>
</svg>
