<svg width="149" height="24" viewBox="0 0 149 24" fill="none" xmlns="http://www.w3.org/2000/svg">
<path fill-rule="evenodd" clip-rule="evenodd" d="M42.1984 17.7333C46.3897 17.7333 49.0856 14.9287 49.0856 10.437C49.0856 5.94536 46.3897 3.14075 42.1984 3.14075C38.0072 3.14075 35.3113 5.94536 35.3113 10.437C35.3113 14.9089 38.0072 17.7333 42.1984 17.7333ZM42.1984 15.1444C40.0141 15.1444 38.7156 13.3594 38.7156 10.437C38.7156 7.49491 40.0141 5.72964 42.1984 5.72964C44.3827 5.72964 45.6617 7.49491 45.6617 10.437C45.6617 13.3791 44.3827 15.1444 42.1984 15.1444ZM52.9621 10.1233V7.59317H49.9906V17.3999H53.1587V13.3986C53.1587 12.3985 53.3162 11.5159 53.9459 10.9275C54.3787 10.5548 55.0085 10.3391 55.8546 10.3391C56.0908 10.3391 56.248 10.3391 56.4449 10.3585V7.35769H56.248C54.5558 7.35769 53.4737 8.35807 52.9621 10.1233ZM60.1835 17.6353C61.62 17.6353 62.8006 16.8899 63.2927 15.7131V17.3999H66.2837V3.17999H63.1352V8.90724C62.6434 7.8871 61.6594 7.35769 60.3608 7.35769C57.9009 7.35769 56.248 9.41717 56.248 12.5358C56.248 15.5953 57.8225 17.6353 60.1835 17.6353ZM61.4234 15.4581C60.2229 15.4581 59.4949 14.3205 59.4949 12.4767C59.4949 10.594 60.1835 9.53491 61.384 9.53491C62.5055 9.53491 63.1746 10.4565 63.1746 12.1238V12.9672C63.1746 14.497 62.5055 15.4581 61.4234 15.4581ZM77.1259 12.261C77.1259 9.14244 75.3943 7.35769 72.3049 7.35769C69.2351 7.35769 67.3069 9.37792 67.3069 12.5945C67.3069 15.7721 69.2745 17.6353 72.5213 17.6353C74.568 17.6353 76.2404 16.6742 77.0276 15.0659L74.7056 14.0068C74.253 14.9089 73.525 15.3796 72.5607 15.3796C71.2424 15.3796 70.3175 14.5362 70.298 13.2027H77.1259V12.261ZM74.0759 11.4374H70.298C70.3373 10.0448 71.026 9.22094 72.246 9.22094C73.4267 9.22094 74.0759 9.96635 74.0759 11.3589V11.4374ZM81.1007 10.1233V7.59317H78.1295V17.3999H81.2976V13.3986C81.2976 12.3985 81.4548 11.5159 82.0845 10.9275C82.5176 10.5548 83.1474 10.3391 83.9935 10.3391C84.2295 10.3391 84.3869 10.3391 84.5835 10.3585V7.35769H84.387C82.6947 7.35769 81.6123 8.35807 81.1007 10.1233ZM85.3906 17.3999H88.2241V7.90686C88.2241 7.35769 88.1847 6.82799 88.1454 6.35731H88.2043C88.2437 6.73002 88.3618 7.31844 88.4995 7.69115L91.4313 17.3999H94.2258L97.0395 7.69115C97.1576 7.31844 97.2953 6.73002 97.3347 6.33783H97.3936C97.3347 6.86724 97.3151 7.37717 97.3151 7.90686V17.3999H100.345V3.47421H95.7209L93.2615 11.9668C93.0646 12.6535 92.9663 13.2027 92.9071 13.6928H92.8678C92.8089 13.2027 92.7301 12.673 92.5335 12.0061L89.9558 3.47421H85.3906V17.3999ZM111.207 12.261C111.207 9.14244 109.476 7.35769 106.386 7.35769C103.317 7.35769 101.388 9.37792 101.388 12.5945C101.388 15.7721 103.356 17.6353 106.603 17.6353C108.649 17.6353 110.322 16.6742 111.109 15.0659L108.787 14.0068C108.334 14.9089 107.606 15.3796 106.642 15.3796C105.324 15.3796 104.399 14.5362 104.379 13.2027H111.207V12.261ZM108.157 11.4374H104.379C104.419 10.0448 105.107 9.22094 106.327 9.22094C107.508 9.22094 108.157 9.96635 108.157 11.3589V11.4374Z" fill="#4D4F56"/>
<path fill-rule="evenodd" clip-rule="evenodd" d="M110.814 9.69166H112.526V14.2618C112.526 16.3995 113.608 17.5961 116.225 17.5961C116.796 17.5961 117.288 17.5371 118.016 17.3999V14.909C117.72 14.968 117.484 15.007 117.111 15.007C116.166 15.007 115.674 14.497 115.674 13.5164V9.69166H118.016V7.59321H115.674V4.02343L112.526 5.23952V7.59321H110.814V9.69166ZM121.813 10.1234V7.59321H118.842V17.3999H122.01V13.3987C122.01 12.3986 122.167 11.5159 122.797 10.9275C123.23 10.5548 123.86 10.3391 124.706 10.3391C124.942 10.3391 125.1 10.3391 125.296 10.3586V7.35773H125.1C123.407 7.35773 122.325 8.35811 121.813 10.1234ZM125.926 6.18088H129.212V3.31726H125.926V6.18088ZM125.965 17.3999H129.133V7.59321H125.965V17.3999ZM135.214 17.6354C137.733 17.6354 139.563 16.2821 139.917 14.1246L136.965 13.4772C136.788 14.654 136.178 15.3012 135.194 15.3012C133.954 15.3012 133.246 14.2421 133.246 12.3986C133.246 10.692 133.974 9.67218 135.174 9.67218C136.139 9.67218 136.768 10.2801 136.945 11.4374L139.917 10.8293C139.543 8.61307 137.831 7.35773 135.253 7.35773C132.026 7.35773 130.039 9.29947 130.039 12.4966C130.039 15.6151 132.105 17.6354 135.214 17.6354Z" fill="#4D4F56"/>
<path fill-rule="evenodd" clip-rule="evenodd" d="M144.541 17.6353C147.296 17.6353 148.89 16.3995 148.89 14.399C148.89 12.7122 148.063 11.6726 145.958 11.3784L144.206 11.1039C143.34 10.9862 143.045 10.7312 143.045 10.2605C143.045 9.71136 143.478 9.4564 144.423 9.4564C145.643 9.4564 146.627 9.94656 147.355 10.7705L148.988 9.29941C148.181 8.08331 146.509 7.35767 144.521 7.35767C141.806 7.35767 140.192 8.554 140.192 10.4565C140.192 12.1238 141.196 13.1634 143.321 13.4771L144.738 13.6733C145.82 13.8303 146.135 14.046 146.135 14.6345C146.135 15.1836 145.623 15.4973 144.6 15.4973C143.242 15.4973 142.18 14.9679 141.491 13.9085L139.661 15.2816C140.606 16.8312 142.376 17.6353 144.541 17.6353Z" fill="#4D4F56"/>
<path fill-rule="evenodd" clip-rule="evenodd" d="M23.948 10.868L18.388 16.302H7.26703V5.434L12.827 0V10.868H23.948Z" fill="#737A81"/>
<path fill-rule="evenodd" clip-rule="evenodd" d="M7.26703 5.434L12.827 0H23.948V10.868L18.388 16.302V5.434H7.26703Z" fill="#4D4F56"/>
<path fill-rule="evenodd" clip-rule="evenodd" d="M6.436 17.623L1.609 19.196L0 23.913L4.827 22.341L6.436 17.623Z" fill="#E85A53"/>
<path fill-rule="evenodd" clip-rule="evenodd" d="M11.901 17.208H17.461L11.901 22.642V17.208Z" fill="#737A81"/>
<path fill-rule="evenodd" clip-rule="evenodd" d="M6.34101 11.774H0.781006L6.34101 6.33997V11.774Z" fill="#737A81"/>
</svg>
