<svg width="24" height="24" viewBox="0 0 24 24" fill="none" xmlns="http://www.w3.org/2000/svg">
<path d="M19.7073 23.5891C14.5743 24.137 9.42572 24.137 4.29272 23.5891C2.24597 23.3707 0.629333 21.754 0.410889 19.7071C-0.136963 14.5741 -0.136963 9.42572 0.410889 4.29272C0.629333 2.24597 2.24597 0.629333 4.29272 0.410889C9.42572 -0.136963 14.5741 -0.136963 19.7071 0.410889C21.754 0.629333 23.3707 2.24597 23.5891 4.29272C24.137 9.42572 24.137 14.5741 23.5891 19.7071C23.3707 21.754 21.7542 23.3707 19.7073 23.5891Z" fill="#00C3FF"/>
<path d="M19.4381 7.37659C18.9071 7.65436 18.1073 7.78271 17.8422 7.8197C17.84 7.80688 17.8378 7.79462 17.8356 7.78235C18.737 7.22479 19.0129 6.17505 19.0129 6.17505C18.4547 6.4942 17.9626 6.67126 17.592 6.76941C17.3837 6.82526 17.2136 6.85547 17.0912 6.87231C16.5295 6.29626 15.7451 5.93884 14.8768 5.93884C13.1684 5.93884 11.7832 7.32367 11.7832 9.03259C11.7832 9.09412 11.7849 9.15527 11.7889 9.21588C11.7971 9.36401 11.816 9.50958 11.8451 9.65112C11.0182 9.63885 8.03339 9.38525 5.56 6.51215C5.56 6.51215 4.18268 8.91522 6.49823 10.5568C6.49823 10.5568 5.56 10.5275 5.06195 10.1757C5.06195 10.1757 4.91547 12.4913 7.5824 13.2237C7.5824 13.2237 6.64471 13.4584 6.17542 13.2532C6.17542 13.2532 6.64453 15.2461 8.9892 15.3929C8.9892 15.3929 7.30756 16.9325 4.56152 16.7109C5.91211 17.566 7.51337 18.061 9.23016 18.061C14.0574 18.061 17.9707 14.1478 17.9707 9.32062C17.9707 9.26038 17.9702 9.20013 17.9689 9.13989C17.9702 9.10419 17.9707 9.06866 17.9707 9.03259C17.9707 9.00751 17.9702 8.98242 17.9698 8.95734C18.8622 8.36261 19.4381 7.37659 19.4381 7.37659Z" fill="white"/>
</svg>
