<svg width="13" height="14" viewBox="0 0 13 14" fill="none" xmlns="http://www.w3.org/2000/svg">
<path d="M12.967 3.82278C12.9365 3.1319 12.8248 2.65693 12.6647 2.24537C12.4996 1.8085 12.2456 1.41737 11.9128 1.09222C11.5877 0.762016 11.194 0.505431 10.7622 0.342907C10.3482 0.182864 9.87574 0.0711413 9.18486 0.0406805C8.48883 0.00763999 8.26787 0 6.50253 0C4.7372 0 4.51623 0.00763999 3.82278 0.0381008C3.1319 0.0685616 2.65693 0.180383 2.24546 0.340327C1.8085 0.505431 1.41737 0.759436 1.09222 1.09222C0.762015 1.41737 0.50553 1.81108 0.342907 2.24289C0.182864 2.65693 0.0711413 3.12932 0.0406805 3.8202C0.00763999 4.51623 0 4.7372 0 6.50253C0 8.26787 0.00763999 8.48884 0.0381008 9.18229C0.0685615 9.87316 0.180383 10.3481 0.340426 10.7597C0.50553 11.1966 0.762015 11.5877 1.09222 11.9128C1.41737 12.2431 1.81108 12.4996 2.24288 12.6622C2.65693 12.8222 3.12932 12.9339 3.8203 12.9644C4.51365 12.9949 4.73471 13.0025 6.50005 13.0025C8.26538 13.0025 8.48635 12.9949 9.1798 12.9644C9.87068 12.9339 10.3456 12.8222 10.7571 12.6622C11.631 12.3243 12.3218 11.6334 12.6597 10.7597C12.8196 10.3457 12.9314 9.87316 12.9619 9.18229C12.9924 8.48884 13 8.26787 13 6.50253C13 4.7372 12.9974 4.51623 12.967 3.82278ZM11.7961 9.13149C11.7681 9.7665 11.6614 10.1094 11.5725 10.338C11.354 10.9045 10.9045 11.354 10.338 11.5725C10.1094 11.6614 9.76402 11.7681 9.13148 11.796C8.44567 11.8265 8.23998 11.8341 6.50511 11.8341C4.77024 11.8341 4.56197 11.8265 3.87864 11.796C3.24363 11.7681 2.90072 11.6614 2.67211 11.5725C2.39023 11.4683 2.13364 11.3032 1.92538 11.0873C1.70947 10.8765 1.54437 10.6225 1.44019 10.3406C1.35129 10.112 1.24462 9.7665 1.21674 9.13407C1.18618 8.44825 1.17864 8.24247 1.17864 6.50759C1.17864 4.77272 1.18618 4.56445 1.21674 3.88122C1.24462 3.24621 1.35129 2.9033 1.44019 2.6747C1.54437 2.39271 1.70947 2.13622 1.92796 1.92786C2.1387 1.71196 2.39271 1.54685 2.67469 1.44277C2.9033 1.35387 3.24878 1.24721 3.88122 1.21923C4.56703 1.18876 4.77282 1.18112 6.50759 1.18112C8.24504 1.18112 8.45073 1.18876 9.13406 1.21923C9.76908 1.24721 10.112 1.35387 10.3406 1.44277C10.6225 1.54685 10.8791 1.71196 11.0873 1.92786C11.3032 2.1387 11.4683 2.39271 11.5725 2.6747C11.6614 2.9033 11.7681 3.24869 11.7961 3.88122C11.8265 4.56703 11.8342 4.77272 11.8342 6.50759C11.8342 8.24247 11.8265 8.44567 11.7961 9.13149Z" fill="white"/>
<path d="M6.5013 3.1626C4.65728 3.1626 3.16113 4.65865 3.16113 6.50277C3.16113 8.34688 4.65728 9.84293 6.5013 9.84293C8.34542 9.84293 9.84147 8.34688 9.84147 6.50277C9.84147 4.65865 8.34542 3.1626 6.5013 3.1626ZM6.5013 8.66945C5.305 8.66945 4.33462 7.69917 4.33462 6.50277C4.33462 5.30636 5.305 4.33608 6.5013 4.33608C7.69771 4.33608 8.66799 5.30636 8.66799 6.50277C8.66799 7.69917 7.69771 8.66945 6.5013 8.66945Z" fill="white"/>
<path d="M10.7535 3.03027C10.7535 3.46088 10.4043 3.81004 9.97363 3.81004C9.54301 3.81004 9.19385 3.46088 9.19385 3.03027C9.19385 2.59955 9.54301 2.25049 9.97363 2.25049C10.4043 2.25049 10.7535 2.59955 10.7535 3.03027Z" fill="white"/>
</svg>
