<svg width="16" height="13" viewBox="0 0 16 13" fill="none" xmlns="http://www.w3.org/2000/svg">
<path d="M15.3846 1.47981C14.8125 1.73077 14.2029 1.89712 13.5673 1.97788C14.2212 1.5875 14.7202 0.974038 14.9548 0.234615C14.3452 0.598077 13.6721 0.854808 12.9548 0.998077C12.376 0.381731 11.551 0 10.651 0C8.90481 0 7.49904 1.41731 7.49904 3.15481C7.49904 3.40481 7.52019 3.64519 7.57211 3.87404C4.95 3.74615 2.62981 2.48942 1.07115 0.575C0.799038 1.04712 0.639423 1.5875 0.639423 2.16923C0.639423 3.26154 1.20192 4.22981 2.04038 4.79038C1.53365 4.78077 1.03654 4.63365 0.615385 4.40192C0.615385 4.41154 0.615385 4.42404 0.615385 4.43654C0.615385 5.96923 1.70865 7.24231 3.14231 7.53558C2.88558 7.60577 2.60577 7.63942 2.31538 7.63942C2.11346 7.63942 1.90962 7.62788 1.71827 7.58558C2.12692 8.83461 3.28654 9.75288 4.66538 9.78269C3.59231 10.6221 2.22981 11.1279 0.754808 11.1279C0.496154 11.1279 0.248077 11.1163 0 11.0846C1.39712 11.9856 3.05288 12.5 4.83846 12.5C10.6423 12.5 13.8154 7.69231 13.8154 3.525C13.8154 3.38558 13.8106 3.25096 13.8038 3.11731C14.4298 2.67308 14.9558 2.11827 15.3846 1.47981Z" fill="white"/>
</svg>
