<svg width="15" height="11" viewBox="0 0 15 11" fill="none" xmlns="http://www.w3.org/2000/svg">
<path d="M14.6909 1.72124C14.5181 1.04818 14.0114 0.517618 13.3689 0.336384C12.1951 0 7.49983 0 7.49983 0C7.49983 0 2.80472 0 1.63092 0.323631C1.00076 0.504672 0.481751 1.04828 0.3089 1.72124C0 2.95056 0 5.5 0 5.5C0 5.5 0 8.06229 0.3089 9.27876C0.481935 9.95172 0.988405 10.4823 1.63102 10.6635C2.81708 11 7.50001 11 7.50001 11C7.50001 11 12.1951 11 13.3689 10.6764C14.0115 10.4952 14.5181 9.96467 14.6911 9.29171C14.9999 8.06229 14.9999 5.51295 14.9999 5.51295C14.9999 5.51295 15.0123 2.95056 14.6909 1.72124ZM6.00496 7.85527V3.14473L9.90932 5.5L6.00496 7.85527Z" fill="white"/>
</svg>
