<?xml version="1.0" encoding="utf-8"?>
<!-- Generator: Adobe Illustrator 19.0.1, SVG Export Plug-In . SVG Version: 6.00 Build 0)  -->
<svg version="1.1" id="icon1_1_" xmlns="http://www.w3.org/2000/svg" xmlns:xlink="http://www.w3.org/1999/xlink" x="0px" y="0px"
	 viewBox="0 0 40 40" style="enable-background:new 0 0 40 40;" xml:space="preserve">
<style type="text/css">
	.st0{fill-rule:evenodd;clip-rule:evenodd;fill:#0FA4E7;}
	.st1{opacity:0.2;}
	.st2{fill-rule:evenodd;clip-rule:evenodd;fill:#0D0E23;}
</style>
<g id="Ellipse_44">
	<g>
		<path class="st0" d="M19,36c-8.3,0-15-6.7-15-15C4,13.4,9.7,7.1,17,6.1v-4C7.4,3.1,0,11.2,0,21c0,10.5,8.5,19,19,19
			c9.8,0,17.9-7.4,18.9-17h-4C32.9,30.3,26.6,36,19,36z M19,0v21h21C40,9.4,30.6,0,19,0z"/>
	</g>
</g>
<g id="Rectangle_982" class="st1">
	<g>
		<path class="st2" d="M33.9,23c-0.1,0.5-0.2,1-0.3,1.5l3.8,1.1c0.2-0.8,0.4-1.7,0.5-2.6H33.9z"/>
	</g>
</g>
</svg>
