<?xml version="1.0" encoding="utf-8"?>
<!-- Generator: Adobe Illustrator 19.0.1, SVG Export Plug-In . SVG Version: 6.00 Build 0)  -->
<svg version="1.1" id="Icon_5_1_" xmlns="http://www.w3.org/2000/svg" xmlns:xlink="http://www.w3.org/1999/xlink" x="0px" y="0px"
	 viewBox="0 0 40 40" style="enable-background:new 0 0 40 40;" xml:space="preserve">
<style type="text/css">
	.st0{fill-rule:evenodd;clip-rule:evenodd;fill:#0FA4E7;}
	.st1{opacity:0.2;}
	.st2{fill-rule:evenodd;clip-rule:evenodd;fill:#0D0E23;}
</style>
<g id="Rectangle_971">
	<g>
		<path class="st0" d="M25,17c0-0.8-0.2-1.5-0.4-2.2l2.5-1.5l-1-1.7l-2.6,1.5C22.4,11.8,20.8,11,19,11c-1.8,0-3.4,0.8-4.5,2.1
			l-2.6-1.5l-1,1.7l2.5,1.5C13.2,15.5,13,16.2,13,17v1h-3v2h3v1c0,0.8,0.2,1.5,0.4,2.2l-2.5,1.5l1,1.7l2.6-1.5
			c1.1,1.3,2.7,2.1,4.5,2.1c1.8,0,3.4-0.8,4.5-2.1l2.6,1.5l1-1.7l-2.5-1.5c0.3-0.7,0.4-1.4,0.4-2.2v-1h3v-2h-3V17z M21,21
			c0,1.1-0.9,2-2,2c-1.1,0-2-0.9-2-2v-4c0-1.1,0.9-2,2-2c1.1,0,2,0.9,2,2V21z M33.8,30.9C36.4,27.7,38,23.5,38,19
			C38,8.5,29.5,0,19,0C8.5,0,0,8.5,0,19c0,10.5,8.5,19,19,19c4.5,0,8.7-1.6,11.9-4.2l6.2,6.2l2.8-2.8L33.8,30.9z M19,34
			c-8.3,0-15-6.7-15-15c0-8.3,6.7-15,15-15c8.3,0,15,6.7,15,15C34,27.3,27.3,34,19,34z"/>
	</g>
</g>
<g id="Rectangle_971_1_" class="st1">
	<g>
		<path class="st2" d="M33.8,30.9c-0.8,1-1.8,2-2.8,2.8l2.4,2.4c0.8-1.2,1.3-2.6,1.5-4.1L33.8,30.9z"/>
	</g>
</g>
</svg>
