<?xml version="1.0" encoding="utf-8"?>
<!-- Generator: Adobe Illustrator 19.0.1, SVG Export Plug-In . SVG Version: 6.00 Build 0)  -->
<svg version="1.1" id="icon_2_1_" xmlns="http://www.w3.org/2000/svg" xmlns:xlink="http://www.w3.org/1999/xlink" x="0px" y="0px"
	 viewBox="0 0 48 30" style="enable-background:new 0 0 48 30;" xml:space="preserve">
<style type="text/css">
	.st0{fill-rule:evenodd;clip-rule:evenodd;fill:#1BA9E8;}
	.st1{opacity:0.2;}
	.st2{fill-rule:evenodd;clip-rule:evenodd;fill:#0D0E23;}
</style>
<g id="Rounded_Rectangle_19">
	<g>
		<path class="st0" d="M8,4h14v11h-2l4,5l4-5h-2V4h14v22h4V3c0-1.7-1.3-3-3-3H7C5.3,0,4,1.3,4,3v23h4V4z M44,26L44,26l-4,0v0H8v0H4
			v0H0v1c0,1.7,1.3,3,3,3h42c1.7,0,3-1.3,3-3v-1H44z"/>
	</g>
</g>
<g id="Rectangle_984" class="st1">
	<g>
		<polygon class="st2" points="26,0 26,4 30,4 		"/>
	</g>
</g>
</svg>
