<?xml version="1.0" encoding="utf-8"?>
<!-- Generator: Adobe Illustrator 19.0.1, SVG Export Plug-In . SVG Version: 6.00 Build 0)  -->
<svg version="1.1" id="Icon_3_1_" xmlns="http://www.w3.org/2000/svg" xmlns:xlink="http://www.w3.org/1999/xlink" x="0px" y="0px"
	 viewBox="0 0 53 36" style="enable-background:new 0 0 53 36;" xml:space="preserve">
<style type="text/css">
	.st0{fill-rule:evenodd;clip-rule:evenodd;fill:#1BA9E8;}
	.st1{opacity:0.2;}
	.st2{fill-rule:evenodd;clip-rule:evenodd;fill:#0D0E23;}
</style>
<g id="Ellipse_41">
	<g>
		<path class="st0" d="M41.5,12C39.7,5.1,33.5,0,26,0c-8.2,0-14.9,6.1-15.9,14H10v0.1C4.4,14.6,0,19.3,0,25c0,5.4,3.9,9.9,9,10.8V36
			h32c6.6,0,12-5.4,12-12C53,17.5,47.9,12.3,41.5,12z M41,32H10v-0.1c-3.4-0.5-6-3.4-6-6.9s2.6-6.4,6-6.9V18h4v-2
			c0-6.6,5.4-12,12-12c5.4,0,10,3.6,11.5,8.5c-2.5,0.8-4.6,2.3-6.1,4.3l3.2,2.4c1.5-1.9,3.8-3.2,6.4-3.2c4.4,0,8,3.6,8,8
			C49,28.4,45.4,32,41,32z"/>
	</g>
</g>
<g id="Ellipse_41_1_" class="st1">
	<g>
		<path class="st2" d="M40.2,8.6c-1.3,0.5-2.4,1.2-3.4,2.2c0.3,0.6,0.5,1.1,0.7,1.8c1.1-0.3,2.3-0.5,3.5-0.5c0.2,0,0.3,0,0.5,0
			C41.2,10.8,40.7,9.7,40.2,8.6z"/>
	</g>
</g>
</svg>
