<svg width="371" height="354" viewBox="0 0 371 354" fill="none" xmlns="http://www.w3.org/2000/svg">
<g clip-path="url(#clip0)">
<path d="M224.555 19.8613L31.2676 61.4277L88.5691 329.093L281.856 287.526L224.555 19.8613Z" fill="#E0E0E0"/>
<g opacity="0.5">
<path opacity="0.5" d="M222.259 25.0884L35.5039 65.25L90.8685 323.868L277.623 283.706L222.259 25.0884Z" fill="url(#paint0_linear)"/>
</g>
<path d="M220.287 27.5044L38.2871 66.6436L92.4285 319.547L274.429 280.408L220.287 27.5044Z" fill="#FAFAFA"/>
<path d="M172.321 26.3502L82.0332 45.7666L86.7259 67.6871L177.014 48.2707L172.321 26.3502Z" fill="url(#paint1_linear)"/>
<path d="M122.592 14.6486C115.621 16.1493 111.21 23.163 112.744 30.3128C114.277 37.4625 121.167 42.0506 128.124 40.55C135.081 39.0493 139.505 32.0356 137.971 24.8859C136.438 17.7361 129.562 13.148 122.592 14.6486ZM126.966 35.0959C125.493 35.448 123.948 35.3525 122.529 34.8216C121.11 34.2907 119.881 33.3484 118.999 32.1148C118.116 30.8812 117.62 29.4121 117.573 27.8948C117.527 26.3775 117.932 24.8808 118.738 23.5953C119.543 22.3097 120.712 21.2937 122.096 20.6766C123.48 20.0596 125.016 19.8694 126.508 20.1304C128 20.3914 129.38 21.0917 130.474 22.1421C131.567 23.1925 132.324 24.5454 132.647 26.0284C132.871 26.9978 132.901 28.0018 132.736 28.983C132.571 29.9641 132.214 30.9029 131.687 31.7454C131.159 32.588 130.47 33.3177 129.66 33.8927C128.85 34.4677 127.934 34.8765 126.966 35.0959Z" fill="url(#paint2_linear)"/>
<path d="M171.169 25.6146L82.7832 44.6221L87.269 65.5762L175.655 46.5688L171.169 25.6146Z" fill="#007EFF"/>
<path d="M122.592 14.6482C120.149 15.1737 117.916 16.4136 116.176 18.2109C114.436 20.0083 113.267 22.2824 112.816 24.7458C112.366 27.2091 112.654 29.751 113.645 32.0501C114.636 34.3492 116.285 36.3022 118.383 37.6622C120.481 39.0221 122.935 39.7279 125.433 39.6903C127.932 39.6528 130.363 38.8735 132.419 37.4511C134.476 36.0286 136.066 34.0269 136.987 31.6991C137.909 29.3712 138.121 26.8218 137.597 24.3731C137.249 22.747 136.584 21.2056 135.642 19.8369C134.7 18.4681 133.497 17.2989 132.104 16.3958C130.711 15.4927 129.154 14.8736 127.522 14.5738C125.89 14.2739 124.215 14.2992 122.592 14.6482ZM126.772 34.1887C125.362 34.4919 123.894 34.3693 122.553 33.8362C121.212 33.3031 120.06 32.3835 119.24 31.1937C118.421 30.004 117.973 28.5975 117.951 27.1521C117.929 25.7067 118.336 24.2874 119.119 23.0737C119.903 21.8599 121.027 20.9062 122.352 20.3332C123.676 19.7602 125.14 19.5936 126.558 19.8545C127.977 20.1154 129.286 20.7921 130.321 21.7989C131.356 22.8058 132.07 24.0976 132.372 25.5111C132.777 27.4061 132.415 29.3848 131.365 31.0121C130.315 32.6394 128.663 33.7821 126.772 34.1887Z" fill="#007EFF"/>
<path d="M314.343 53.0039H116.656V326.761H314.343V53.0039Z" fill="#E0E0E0"/>
<g opacity="0.5">
<path opacity="0.5" d="M311.005 57.6328H120V322.137H311.005V57.6328Z" fill="url(#paint3_linear)"/>
</g>
<path d="M308.57 59.583H122.428V318.243H308.57V59.583Z" fill="white"/>
<path d="M261.915 48.3662H169.572V70.7856H261.915V48.3662Z" fill="url(#paint4_linear)"/>
<path d="M215.744 26.4814C208.615 26.4814 202.834 32.4116 202.834 39.7291C202.834 47.0466 208.615 52.9767 215.744 52.9767C222.873 52.9767 228.654 47.0466 228.654 39.7291C228.654 32.4116 222.873 26.4814 215.744 26.4814ZM215.744 47.373C214.228 47.409 212.737 46.9916 211.459 46.1738C210.181 45.3561 209.175 44.1753 208.57 42.7821C207.965 41.3889 207.788 39.8466 208.062 38.3521C208.335 36.8576 209.047 35.4787 210.106 34.3914C211.165 33.3042 212.523 32.558 214.007 32.248C215.492 31.9381 217.034 32.0785 218.438 32.6513C219.843 33.2242 221.045 34.2034 221.891 35.4641C222.737 36.7248 223.189 38.2096 223.19 39.7291C223.204 41.7261 222.429 43.6476 221.034 45.0733C219.638 46.499 217.737 47.3128 215.744 47.3367V47.373Z" fill="url(#paint5_linear)"/>
<path d="M260.943 47.4053H170.545V68.8363H260.943V47.4053Z" fill="#007EFF"/>
<path d="M215.744 26.4814C213.245 26.4814 210.802 27.2241 208.724 28.6155C206.647 30.0069 205.027 31.9846 204.071 34.2984C203.115 36.6122 202.865 39.1583 203.352 41.6146C203.84 44.0709 205.043 46.3272 206.81 48.0982C208.577 49.8691 210.828 51.0751 213.279 51.5637C215.73 52.0523 218.27 51.8015 220.578 50.8431C222.887 49.8847 224.86 48.2617 226.248 46.1793C227.637 44.0969 228.378 41.6487 228.378 39.1442C228.378 35.7858 227.047 32.565 224.677 30.1903C222.308 27.8156 219.094 26.4814 215.744 26.4814ZM215.744 46.4526C214.302 46.4508 212.894 46.0211 211.697 45.2178C210.499 44.4144 209.566 43.2735 209.015 41.9389C208.464 40.6044 208.32 39.1361 208.601 37.7195C208.882 36.3029 209.575 35.0015 210.593 33.9796C211.612 32.9577 212.909 32.2611 214.322 31.9778C215.735 31.6945 217.2 31.8372 218.533 32.3878C219.865 32.9384 221.004 33.8724 221.807 35.0716C222.61 36.2709 223.041 37.6818 223.044 39.1261C223.044 40.0862 222.855 41.0368 222.487 41.9236C222.12 42.8104 221.582 43.6159 220.904 44.2942C220.226 44.9725 219.421 45.5102 218.536 45.8767C217.65 46.2431 216.702 46.4312 215.744 46.43V46.4526Z" fill="#007EFF"/>
<g opacity="0.5">
<path opacity="0.5" d="M8.60904 334.16H6.9082V343.831H8.60904V334.16Z" fill="#47E6B1"/>
<path opacity="0.5" d="M12.584 339.85V338.146H2.93536V339.85H12.584Z" fill="#47E6B1"/>
</g>
<g opacity="0.5">
<path opacity="0.5" d="M205.933 0H204.232V9.6705H205.933V0Z" fill="#47E6B1"/>
<path opacity="0.5" d="M209.908 5.68514V3.98047L200.26 3.98047V5.68514L209.908 5.68514Z" fill="#47E6B1"/>
</g>
<path opacity="0.5" d="M348.798 350.259C348.329 350.055 347.952 349.684 347.737 349.219C347.523 348.753 347.487 348.225 347.636 347.734C347.66 347.659 347.675 347.581 347.681 347.503C347.695 347.278 347.636 347.055 347.513 346.867C347.39 346.679 347.21 346.535 346.999 346.457C346.789 346.379 346.559 346.372 346.344 346.435C346.128 346.498 345.939 346.63 345.804 346.809C345.757 346.872 345.717 346.941 345.686 347.013C345.482 347.483 345.112 347.862 344.648 348.077C344.183 348.292 343.656 348.328 343.167 348.178C343.092 348.154 343.014 348.139 342.936 348.133C342.712 348.12 342.489 348.179 342.302 348.302C342.114 348.425 341.97 348.605 341.893 348.816C341.815 349.027 341.807 349.258 341.87 349.474C341.934 349.689 342.065 349.879 342.244 350.015C342.307 350.062 342.375 350.101 342.447 350.132C342.917 350.337 343.294 350.707 343.509 351.173C343.723 351.639 343.759 352.167 343.61 352.658C343.586 352.733 343.571 352.81 343.565 352.889C343.551 353.113 343.61 353.336 343.733 353.525C343.856 353.713 344.036 353.857 344.246 353.935C344.457 354.012 344.687 354.02 344.902 353.957C345.118 353.893 345.307 353.762 345.442 353.583C345.489 353.519 345.528 353.451 345.56 353.379C345.764 352.908 346.133 352.53 346.598 352.315C347.063 352.1 347.59 352.064 348.079 352.213C348.154 352.238 348.231 352.253 348.31 352.259C348.534 352.272 348.756 352.213 348.944 352.09C349.132 351.967 349.275 351.787 349.353 351.576C349.431 351.365 349.439 351.134 349.375 350.918C349.312 350.702 349.181 350.513 349.002 350.377C348.939 350.33 348.871 350.291 348.798 350.259Z" fill="#4D8AF0"/>
<path opacity="0.5" d="M61.8218 257.291C61.3527 257.086 60.975 256.716 60.7606 256.25C60.5463 255.784 60.5102 255.256 60.6593 254.765C60.6833 254.69 60.6985 254.613 60.7045 254.534C60.718 254.31 60.659 254.087 60.5362 253.898C60.4135 253.71 60.2335 253.566 60.0229 253.488C59.8123 253.411 59.5823 253.403 59.367 253.466C59.1517 253.53 58.9624 253.661 58.8272 253.84C58.7802 253.904 58.7407 253.972 58.7096 254.044C58.5054 254.515 58.1358 254.893 57.6713 255.108C57.2067 255.323 56.6795 255.359 56.19 255.21C56.1152 255.186 56.0377 255.17 55.9593 255.164C55.7353 255.151 55.5129 255.21 55.325 255.333C55.1371 255.456 54.9937 255.636 54.9161 255.847C54.8384 256.058 54.8307 256.289 54.8939 256.505C54.9572 256.721 55.0881 256.91 55.2672 257.046C55.3303 257.093 55.3986 257.133 55.4708 257.164C55.9399 257.368 56.3176 257.739 56.532 258.204C56.7463 258.67 56.7824 259.198 56.6333 259.689C56.6093 259.764 56.5941 259.842 56.5881 259.92C56.5746 260.145 56.6336 260.368 56.7564 260.556C56.8791 260.744 57.0591 260.888 57.2697 260.966C57.4803 261.044 57.7103 261.051 57.9256 260.988C58.1409 260.925 58.3302 260.793 58.4654 260.614C58.5124 260.551 58.5519 260.482 58.583 260.41C58.7872 259.94 59.1568 259.561 59.6213 259.346C60.0859 259.131 60.6131 259.095 61.1026 259.245C61.1774 259.269 61.2549 259.284 61.3333 259.29C61.5573 259.304 61.7797 259.244 61.9676 259.121C62.1555 258.998 62.2989 258.818 62.3765 258.607C62.4542 258.396 62.4619 258.165 62.3987 257.949C62.3354 257.734 62.2045 257.544 62.0254 257.409C61.9623 257.361 61.894 257.322 61.8218 257.291Z" fill="#FDD835"/>
<path opacity="0.5" d="M300.849 30.9117C300.38 30.707 300.002 30.3366 299.788 29.871C299.574 29.4054 299.538 28.877 299.687 28.3864C299.711 28.3114 299.726 28.2338 299.732 28.1552C299.745 27.9307 299.686 27.7077 299.564 27.5194C299.441 27.3311 299.261 27.1874 299.05 27.1096C298.84 27.0318 298.61 27.024 298.394 27.0874C298.179 27.1508 297.99 27.282 297.855 27.4615C297.808 27.5247 297.768 27.5932 297.737 27.6656C297.533 28.1358 297.163 28.5143 296.699 28.7291C296.234 28.944 295.707 28.9801 295.217 28.8307C295.142 28.8066 295.065 28.7914 294.987 28.7854C294.763 28.7719 294.54 28.831 294.352 28.954C294.164 29.0771 294.021 29.2575 293.943 29.4685C293.866 29.6796 293.858 29.9101 293.921 30.1259C293.984 30.3417 294.115 30.5314 294.295 30.6669C294.358 30.714 294.426 30.7536 294.498 30.7848C294.967 30.9895 295.345 31.3599 295.559 31.8255C295.774 32.2911 295.81 32.8195 295.661 33.3101C295.637 33.3851 295.621 33.4627 295.615 33.5413C295.602 33.7658 295.661 33.9888 295.784 34.1771C295.906 34.3654 296.086 34.5091 296.297 34.5869C296.508 34.6647 296.738 34.6725 296.953 34.6091C297.168 34.5457 297.358 34.4146 297.493 34.235C297.54 34.1718 297.579 34.1033 297.61 34.0309C297.815 33.5607 298.184 33.1822 298.649 32.9674C299.113 32.7525 299.64 32.7164 300.13 32.8658C300.205 32.8899 300.282 32.9051 300.361 32.9111C300.585 32.9246 300.807 32.8655 300.995 32.7425C301.183 32.6194 301.326 32.439 301.404 32.228C301.481 32.0169 301.489 31.7864 301.426 31.5706C301.363 31.3548 301.232 31.1651 301.053 31.0296C300.99 30.9825 300.921 30.9429 300.849 30.9117Z" fill="#FDD835"/>
<path opacity="0.5" d="M367.6 145.987C369.481 145.987 371.006 144.459 371.006 142.573C371.006 140.688 369.481 139.159 367.6 139.159C365.718 139.159 364.193 140.688 364.193 142.573C364.193 144.459 365.718 145.987 367.6 145.987Z" fill="#F55F44"/>
<path opacity="0.5" d="M104.371 341.926C106.252 341.926 107.777 340.398 107.777 338.513C107.777 336.627 106.252 335.099 104.371 335.099C102.49 335.099 100.965 336.627 100.965 338.513C100.965 340.398 102.49 341.926 104.371 341.926Z" fill="#F55F44"/>
<path opacity="0.5" d="M332.619 219.778C334.5 219.778 336.025 218.25 336.025 216.364C336.025 214.479 334.5 212.95 332.619 212.95C330.738 212.95 329.213 214.479 329.213 216.364C329.213 218.25 330.738 219.778 332.619 219.778Z" fill="#F55F44"/>
<path opacity="0.5" d="M39.4179 47.0964C41.2991 47.0964 42.8241 45.5679 42.8241 43.6825C42.8241 41.797 41.2991 40.2686 39.4179 40.2686C37.5367 40.2686 36.0117 41.797 36.0117 43.6825C36.0117 45.5679 37.5367 47.0964 39.4179 47.0964Z" fill="#4D8AF0"/>
<path opacity="0.5" d="M3.4062 140.224C5.28739 140.224 6.8124 138.696 6.8124 136.81C6.8124 134.925 5.28739 133.396 3.4062 133.396C1.52501 133.396 0 134.925 0 136.81C0 138.696 1.52501 140.224 3.4062 140.224Z" fill="#47E6B1"/>
</g>
<defs>
<linearGradient id="paint0_linear" x1="184.244" y1="303.787" x2="128.639" y2="45.2213" gradientUnits="userSpaceOnUse">
<stop stop-color="#808080" stop-opacity="0.25"/>
<stop offset="0.54" stop-color="#808080" stop-opacity="0.12"/>
<stop offset="1" stop-color="#808080" stop-opacity="0.1"/>
</linearGradient>
<linearGradient id="paint1_linear" x1="49671" y1="-6482.77" x2="49437.9" y2="-7566.52" gradientUnits="userSpaceOnUse">
<stop stop-color="#808080" stop-opacity="0.25"/>
<stop offset="0.54" stop-color="#808080" stop-opacity="0.12"/>
<stop offset="1" stop-color="#808080" stop-opacity="0.1"/>
</linearGradient>
<linearGradient id="paint2_linear" x1="14504.1" y1="739.441" x2="14178.9" y2="-772.487" gradientUnits="userSpaceOnUse">
<stop stop-color="#808080" stop-opacity="0.25"/>
<stop offset="0.54" stop-color="#808080" stop-opacity="0.12"/>
<stop offset="1" stop-color="#808080" stop-opacity="0.1"/>
</linearGradient>
<linearGradient id="paint3_linear" x1="91114.8" y1="187995" x2="91114.8" y2="33681.3" gradientUnits="userSpaceOnUse">
<stop stop-color="#808080" stop-opacity="0.25"/>
<stop offset="0.54" stop-color="#808080" stop-opacity="0.12"/>
<stop offset="1" stop-color="#808080" stop-opacity="0.1"/>
</linearGradient>
<linearGradient id="paint4_linear" x1="44211.6" y1="3548.71" x2="44211.6" y2="2440.07" gradientUnits="userSpaceOnUse">
<stop stop-color="#808080" stop-opacity="0.25"/>
<stop offset="0.54" stop-color="#808080" stop-opacity="0.12"/>
<stop offset="1" stop-color="#808080" stop-opacity="0.1"/>
</linearGradient>
<linearGradient id="paint5_linear" x1="17421.3" y1="4699.98" x2="17421.3" y2="3151.6" gradientUnits="userSpaceOnUse">
<stop stop-color="#808080" stop-opacity="0.25"/>
<stop offset="0.54" stop-color="#808080" stop-opacity="0.12"/>
<stop offset="1" stop-color="#808080" stop-opacity="0.1"/>
</linearGradient>
<clipPath id="clip0">
<rect width="371" height="354" fill="white"/>
</clipPath>
</defs>
</svg>
