<svg width="255" height="190" viewBox="0 0 255 190" fill="none" xmlns="http://www.w3.org/2000/svg">
<g clip-path="url(#clip0)">
<path opacity="0.1" d="M25.6176 19.4871C24.0326 20.1447 22.4059 20.9887 21.5348 22.4682C20.6123 24.0312 20.7227 25.972 20.8945 27.7803C22.3911 43.4636 26.3341 60.1431 19.5253 74.3493C16.2204 81.2414 10.6924 86.7645 6.29561 93.0236C1.89878 99.2826 -1.42093 107.097 0.620457 114.461C3.1133 123.458 12.4173 128.446 18.6887 135.37C22.7935 139.897 25.6716 145.398 29.5016 150.16C33.3317 154.923 38.5799 159.118 44.6943 159.398C53.4879 159.803 60.6426 152.209 69.2645 150.45C78.0974 148.649 86.9916 153.232 94.1537 158.718C101.316 164.205 107.83 170.851 116.175 174.276C125.39 178.062 135.779 177.483 145.48 179.758C154.313 181.831 162.444 186.24 171.214 188.591C179.983 190.941 190.261 190.799 197.055 184.795C205.91 176.944 205.213 162.958 210.868 152.572C216.122 142.922 226.405 137.161 233.326 128.63C245.78 113.275 245.373 89.8069 234.798 73.1078C224.223 56.4087 205.068 46.2975 185.481 43.6648C176.648 42.4797 167.553 42.6416 159.061 39.9451C136.331 32.7316 122.804 6.88551 99.5982 1.50725C84.8472 -1.90569 70.5011 4.005 57.9363 11.2799C47.0301 17.5954 36.9679 14.7787 25.6176 19.4871Z" fill="#007EFF"/>
<path d="M128.063 183.65C177.116 183.65 216.882 143.884 216.882 94.8306C216.882 45.7767 177.116 6.01074 128.063 6.01074C79.0087 6.01074 39.2427 45.7767 39.2427 94.8306C39.2427 143.884 79.0087 183.65 128.063 183.65Z" fill="url(#paint0_linear)"/>
<path d="M128.063 182.178C176.303 182.178 215.41 143.071 215.41 94.8301C215.41 46.5893 176.303 7.48242 128.063 7.48242C79.8218 7.48242 40.7148 46.5893 40.7148 94.8301C40.7148 143.071 79.8218 182.178 128.063 182.178Z" fill="#007EFF"/>
<path d="M128.063 164.267C166.411 164.267 197.499 133.179 197.499 94.83C197.499 56.4813 166.411 25.3936 128.063 25.3936C89.7138 25.3936 58.626 56.4813 58.626 94.83C58.626 133.179 89.7138 164.267 128.063 164.267Z" fill="#DDE1EC"/>
<path opacity="0.3" d="M130.025 37.6611H126.1V99.0008H130.025V37.6611Z" fill="#535461"/>
<g opacity="0.1">
<path opacity="0.1" d="M187.685 93.3584H132.233V98.2656H187.685V93.3584Z" fill="black"/>
<path opacity="0.1" d="M93.0846 74.9985L90.8081 79.3457L125.698 97.617L127.975 93.2698L93.0846 74.9985Z" fill="black"/>
<path opacity="0.1" d="M128.062 103.172C132.128 103.172 135.423 99.8762 135.423 95.8109C135.423 91.7457 132.128 88.4502 128.062 88.4502C123.997 88.4502 120.702 91.7457 120.702 95.8109C120.702 99.8762 123.997 103.172 128.062 103.172Z" fill="black"/>
</g>
<path d="M187.685 92.376H132.234V97.2831H187.685V92.376Z" fill="#535461"/>
<path d="M127.991 92.2937L93.1006 74.0225L90.8241 78.3696L125.714 96.6409L127.991 92.2937Z" fill="#535461"/>
<path d="M128.062 102.191C132.128 102.191 135.423 98.8957 135.423 94.8305C135.423 90.7653 132.128 87.4697 128.062 87.4697C123.997 87.4697 120.702 90.7653 120.702 94.8305C120.702 98.8957 123.997 102.191 128.062 102.191Z" fill="#535461"/>
<g opacity="0.1">
<path opacity="0.1" d="M64.0191 103.172C64.0191 64.8227 95.106 33.7357 133.456 33.7357C144.219 33.7262 154.837 36.2231 164.469 41.0286C174.1 45.8341 182.481 52.8163 188.946 61.422C177.129 39.9482 154.311 25.3936 128.058 25.3936C89.7081 25.3936 58.6212 56.4805 58.6212 94.8301C58.5986 109.895 63.4983 124.556 72.5747 136.58C66.946 126.346 64.0025 114.852 64.0191 103.172Z" fill="black"/>
</g>
<path d="M192.219 43.7513C191.394 42.9588 184.455 48.1677 184.455 48.1677C184.455 48.1677 181.985 48.6192 182.574 50.3146C183.162 52.01 179.985 61.5054 179.985 61.5054L178.692 59.6971C178.817 57.5748 178.233 56.0707 177.664 55.1335C177.617 55.0574 177.571 54.9838 177.524 54.9151L177.75 54.8366C177.664 53.6785 175.811 51.9144 174.828 51.0507C174.828 50.9256 174.828 50.8053 174.828 50.6777C174.889 49.2939 175.443 47.834 174.828 46.5803C174.131 45.1498 172.092 44.4309 171.92 42.8606C171.817 41.9233 172.45 41.0769 172.73 40.1739C173.397 38.0148 172.011 35.8115 170.686 33.9516C170.237 33.2543 169.691 32.6248 169.064 32.082C168.467 31.6454 167.811 31.2952 167.116 31.0417C165.175 30.2565 163.19 29.8615 161.188 29.3242C159.267 28.8138 157.495 28.5709 155.545 29.2113C155.082 29.3361 154.659 29.5787 154.318 29.9155C153.854 30.4356 153.793 31.1766 153.489 31.7974C152.998 32.796 151.941 33.3922 151.006 34.0326C150.071 34.673 149.134 35.5514 149.129 36.6555C149.129 38.2233 150.92 39.2097 151.518 40.6696C152.078 42.0288 151.518 43.5427 151.207 44.9756C151.077 45.4387 151.064 45.927 151.17 46.3962C151.294 46.7459 151.48 47.0702 151.72 47.3531C152.09 47.8439 152.488 48.3002 152.883 48.7664L152.701 48.8376C149.408 48.499 147.291 52.6799 147.291 52.6799C147.443 52.7118 147.588 52.7486 147.73 52.7903L147.59 52.9719C146.595 54.264 145.782 55.6864 145.174 57.1994L142.475 60.816C142.475 60.816 141.886 51.772 143.299 49.738C144.712 47.704 142.006 46.46 142.006 46.46C142.006 46.46 136.117 39.904 135.3 40.4684C134.483 41.0327 137.3 48.1555 139.771 49.2866C139.771 49.2866 140.016 51.5463 139.525 53.016C139.228 53.9459 137.643 63.7554 137.643 63.7554C137.643 63.7554 136.233 72.0068 142.703 67.9265C146.906 65.2815 149.622 60.7276 151.006 57.8668C151.102 57.6656 151.193 57.4734 151.278 57.2902C151.342 57.5936 151.385 57.901 151.408 58.2103L151.653 67.6639C151.716 70.0022 151.205 72.3203 150.167 74.4162L147.284 80.2631L147.605 80.3612L147.411 80.641C145.512 83.4356 142.283 89.7192 148.93 92.9212L157.763 94.0523L157.292 96.312C157.292 96.312 153.646 103.207 152.586 107.954C151.927 110.862 150.899 113.673 149.526 116.319L149.799 116.463C149.742 116.527 149.683 116.593 149.627 116.662C149.091 117.264 148.737 118.006 148.606 118.802L147.409 120.499C147.409 120.499 146.938 127.507 147.88 129.205C148.395 130.132 150.105 130.721 151.56 131.065C153.719 131.577 155.461 129.347 154.316 127.509L154.301 127.485H154.279C154.033 126.344 153.283 122.803 153.528 121.459C153.597 121.076 153.66 120.696 153.692 120.308C153.751 119.799 153.906 119.305 154.149 118.853C154.188 118.777 154.23 118.703 154.271 118.63L154.399 118.684C154.794 118.853 155.184 119.013 155.555 119.152C154.981 119.675 154.573 120.757 155.064 122.983C155.064 122.983 155.111 128.55 155.535 129.426C155.959 130.302 160.71 131.46 161.534 130.557C162.358 129.654 161.004 126.543 161.004 126.543L160.962 126.572C160.69 124.769 160.354 121.54 161.181 120.269C161.514 119.756 161.838 119.226 162.128 118.73L162.307 118.424C163.843 119.189 165.467 119.766 166.355 119.366C166.355 119.366 170.237 110.322 170.001 109.193C169.766 108.065 176 95.2889 176 95.2889C176 95.2889 181.293 89.4003 174.825 85.342C172.771 84.049 171.275 83.1804 170.188 82.594L169.278 77.8341C168.81 75.3386 168.893 72.771 169.523 70.3114L170.504 66.5672L170.585 66.2482C170.585 66.2482 173.056 61.1619 172.938 58.7868C172.929 58.6024 172.95 58.4176 173 58.2397C173.027 58.3526 173.056 58.4703 173.088 58.593C173.737 61.0616 174.592 63.4713 175.645 65.7968C177.522 70.0316 180.306 69.6955 181.833 69.0944C182.159 68.9679 182.449 68.7623 182.677 68.4959C182.904 68.2295 183.062 67.9107 183.135 67.5682C183.685 64.9331 185.194 57.5502 185.29 55.5113C185.375 53.917 185.572 52.3306 185.879 50.7636C189.75 48.499 193.043 44.5438 192.219 43.7513Z" fill="url(#paint1_linear)"/>
<path d="M163.417 116.186C163.417 116.186 162.899 117.224 162.19 118.471C161.912 118.961 161.603 119.489 161.287 119.997C160.166 121.79 161.287 127.505 161.287 127.505L158.833 127.841L156.38 126.614L155.931 122.467V119.435L158.728 116.307L159.955 114.952L163.417 116.186Z" fill="#F8BDC5"/>
<g opacity="0.1">
<path opacity="0.1" d="M163.416 116.186C163.416 116.186 162.899 117.224 162.19 118.471C161.106 117.892 160.059 117.248 159.054 116.542L158.838 116.39L158.723 116.307L159.949 114.952L163.416 116.186Z" fill="black"/>
</g>
<path d="M175.412 95.228C175.412 95.228 169.471 107.891 169.697 109.012C169.923 110.134 166.223 119.099 166.223 119.099C165.379 119.496 163.828 118.925 162.366 118.167C161.263 117.579 160.198 116.923 159.176 116.204L158.96 116.052L158.83 115.958L168.581 88.9492L159.954 82.6214L159.316 82.1528L155.459 79.3066L167.236 81.4364C167.236 81.4364 167.646 81.3848 169.812 82.5969C170.853 83.1784 172.298 84.0494 174.295 85.3596C180.451 89.4007 175.412 95.228 175.412 95.228Z" fill="#575988"/>
<g opacity="0.03">
<path d="M175.412 95.228C175.412 95.228 169.471 107.891 169.697 109.012C169.923 110.134 166.223 119.099 166.223 119.099C165.379 119.496 163.828 118.925 162.366 118.167C161.263 117.579 160.198 116.923 159.176 116.204L158.96 116.052L158.83 115.958L168.581 88.9492L159.954 82.6214L159.316 82.1528L155.459 79.3066L167.236 81.4364C167.236 81.4364 167.646 81.3848 169.812 82.5969C170.853 83.1784 172.298 84.0494 174.295 85.3596C180.451 89.4007 175.412 95.228 175.412 95.228Z" fill="#575988"/>
</g>
<path d="M157.366 118.427C157.366 118.427 154.451 117.978 155.462 122.686C155.462 122.686 155.506 128.207 155.911 129.065C156.315 129.924 160.842 131.082 161.625 130.187C162.408 129.291 161.12 126.209 161.12 126.209C161.12 126.209 157.815 128.619 156.917 126.04C156.019 123.461 157.366 118.427 157.366 118.427Z" fill="#5D3E53"/>
<path d="M155.346 117.531C155.028 117.833 154.77 118.193 154.583 118.591C154.352 119.041 154.205 119.53 154.149 120.033C154.12 120.416 154.058 120.796 153.994 121.174C153.715 122.771 154.787 127.504 154.787 127.504L150.528 128.177L148.96 126.496L148.624 122.798C149.042 121.531 149.269 120.208 149.296 118.873C149.296 117.908 149.787 117.047 150.277 116.419C150.61 116 150.991 115.622 151.413 115.293C151.413 115.293 156.244 116.745 155.346 117.531Z" fill="#F8BDC5"/>
<g opacity="0.1">
<path opacity="0.1" d="M155.346 117.531C155.028 117.833 154.77 118.193 154.583 118.591C152.839 117.803 151.006 116.809 150.339 116.441L150.287 116.414C150.62 115.995 151.001 115.617 151.423 115.288C151.423 115.288 156.244 116.746 155.346 117.531Z" fill="black"/>
</g>
<path d="M169.133 91.8666C169.133 91.8666 166.333 97.1344 164.537 101.504C163.36 104.375 160.926 111.211 159.385 115.563L159.159 116.206C158.482 118.132 158.03 119.435 158.03 119.435C157.732 119.437 157.435 119.393 157.149 119.305C156.885 119.234 156.588 119.138 156.271 119.02L155.915 118.885C155.562 118.748 155.179 118.589 154.814 118.422C153.032 117.627 151.133 116.591 150.444 116.214L150.184 116.069C151.499 113.434 152.48 110.646 153.106 107.768C154.114 103.062 157.589 96.2364 157.589 96.2364L158.038 93.9938L149.632 92.8725C143.299 89.7074 146.376 83.4679 148.184 80.6978C148.492 80.217 148.826 79.7526 149.183 79.3066L155.908 80.7788C155.908 80.7788 156.968 81.1174 159.323 82.1602L160.405 82.6509C161.725 83.2569 163.35 84.0372 165.313 85.0382C171.932 88.3849 169.133 91.8666 169.133 91.8666Z" fill="#575988"/>
<path d="M154.746 127.169C154.985 127.573 155.1 128.039 155.076 128.508C155.051 128.977 154.888 129.429 154.607 129.805C154.327 130.182 153.941 130.468 153.498 130.625C153.055 130.783 152.576 130.806 152.12 130.692C150.744 130.351 149.112 129.767 148.621 128.847C147.726 127.166 148.172 120.218 148.172 120.218L149.35 118.48C149.35 118.48 148.734 126.158 150.192 126.823C151.649 127.488 154.731 127.134 154.731 127.134L154.746 127.169Z" fill="#5D3E53"/>
<path d="M155.938 29.7094C155.49 29.8339 155.084 30.0753 154.76 30.4086C154.318 30.9239 154.269 31.66 153.97 32.2758C153.504 33.2572 152.498 33.8584 151.605 34.484C150.711 35.1097 149.821 35.9905 149.816 37.0848C149.816 38.6404 151.533 39.6169 152.093 41.0621C152.625 42.4116 152.093 43.9107 151.796 45.3313C151.672 45.7913 151.66 46.2743 151.762 46.7397C151.879 47.085 152.056 47.4065 152.287 47.6892C153.369 49.1614 154.713 50.4667 155.437 52.1425C155.987 53.4159 156.139 54.8218 156.284 56.2032C156.492 58.1906 156.701 60.2148 156.323 62.1777C156.286 62.2951 156.286 62.4209 156.323 62.5383C156.387 62.6509 156.489 62.7377 156.61 62.7837C157.324 63.1306 158.101 63.3295 158.893 63.3686C159.686 63.4077 160.479 63.286 161.223 63.011C161.968 62.736 162.649 62.3133 163.227 61.7682C163.804 61.2232 164.265 60.5671 164.582 59.8394C165.072 58.7279 165.261 57.3858 166.233 56.6645C166.346 56.5707 166.483 56.5088 166.628 56.4853C166.857 56.4917 167.079 56.566 167.266 56.6988C168.527 57.3809 170.056 57.4005 171.462 57.1208C172.31 56.9515 173.179 56.6497 173.741 55.9873C174.847 54.6721 174.232 52.7068 174.305 50.9918C174.364 49.6202 174.892 48.1726 174.305 46.9311C173.643 45.5129 171.697 44.8014 171.535 43.2507C171.437 42.3232 172.041 41.4817 172.308 40.5886C172.943 38.4466 171.623 36.2629 170.362 34.4202C169.938 33.7329 169.418 33.1092 168.819 32.5678C168.253 32.137 167.629 31.79 166.964 31.5373C165.117 30.7595 163.232 30.3669 161.321 29.8369C159.49 29.3143 157.805 29.0714 155.938 29.7094Z" fill="#85555C"/>
<path d="M165.323 61.719H158.821V51.1833C159.014 50.1714 159.127 49.1459 159.159 48.1163C159.159 47.7703 159.159 47.417 159.159 47.0612C159.098 45.805 158.838 44.5512 158.156 43.7857C156.362 41.7688 163.983 42.105 163.983 42.105C164.217 43.0311 164.52 43.9383 164.891 44.8187C165.443 46.1924 166.177 47.4856 167.074 48.6634C167.864 49.7115 168.875 50.572 170.036 51.1833C174.511 53.4258 165.323 61.719 165.323 61.719Z" fill="#F8BDC5"/>
<g opacity="0.1">
<path opacity="0.1" d="M164.883 44.8187C164.223 45.6794 163.34 46.3433 162.33 46.7386C161.32 47.1339 160.221 47.2454 159.152 47.0612C159.09 45.805 158.83 44.5512 158.148 43.7857C156.355 41.7688 163.976 42.105 163.976 42.105C164.209 43.0311 164.513 43.9383 164.883 44.8187Z" fill="black"/>
</g>
<path d="M160.165 46.8158C163.446 46.8158 166.105 44.1563 166.105 40.8757C166.105 37.595 163.446 34.9355 160.165 34.9355C156.885 34.9355 154.225 37.595 154.225 40.8757C154.225 44.1563 156.885 46.8158 160.165 46.8158Z" fill="#F8BDC5"/>
<path d="M184.822 51.0724C184.53 52.6268 184.343 54.199 184.262 55.7784C184.172 57.7977 182.734 65.1192 182.209 67.7323C182.142 68.0674 181.994 68.3809 181.778 68.645C181.561 68.9091 181.283 69.1156 180.967 69.2462C179.51 69.8424 176.86 70.1761 175.078 65.978C174.074 63.668 173.259 61.2801 172.642 58.838C172.424 58.0172 172.26 57.1828 172.151 56.3403L176.077 54.2106C176.447 54.5563 176.76 54.9578 177.005 55.4006C177.547 56.3305 178.104 57.8223 177.986 59.925L179.213 61.7186C179.213 61.7186 182.238 52.3042 181.666 50.6234C181.095 48.9427 183.46 48.4937 183.46 48.4937C183.46 48.4937 190.072 43.3412 190.858 44.1239C191.643 44.9066 188.519 48.8299 184.822 51.0724Z" fill="#F8BDC5"/>
<path d="M152.657 55.556C152.351 56.4327 151.999 57.2926 151.602 58.1323C150.282 60.9711 147.696 65.493 143.692 68.1086C137.529 72.1423 138.873 63.962 138.873 63.962C138.873 63.962 140.382 54.236 140.667 53.3159C141.116 51.8585 140.89 49.6184 140.89 49.6184C138.537 48.4971 135.848 41.4381 136.631 40.8762C137.413 40.3144 143.01 46.8164 143.01 46.8164C143.01 46.8164 145.589 48.0431 144.237 50.0674C142.885 52.0916 143.452 61.0496 143.452 61.0496L146.045 57.4698C146.622 55.9761 147.397 54.5666 148.349 53.2791C148.84 52.6093 149.183 52.2044 149.183 52.2044L152.657 55.556Z" fill="#F8BDC5"/>
<g opacity="0.1">
<path opacity="0.1" d="M177.007 55.4014C176.182 55.7057 172.99 56.9938 172.637 58.8365C172.418 58.0156 172.254 57.1812 172.146 56.3387L176.072 54.209C176.444 54.5549 176.76 54.9573 177.007 55.4014Z" fill="black"/>
</g>
<g opacity="0.1">
<path opacity="0.1" d="M152.658 55.5553C152.351 56.4319 151.999 57.2919 151.603 58.1315C151.45 57.0225 150.825 54.1862 148.349 53.271C148.84 52.6011 149.183 52.1963 149.183 52.1963L152.658 55.5553Z" fill="black"/>
</g>
<g opacity="0.1">
<path opacity="0.1" d="M165.323 61.7189H158.821V51.1832C159.014 50.1713 159.127 49.1458 159.159 48.1162C160.497 49.4068 160.165 51.4065 160.165 51.4065L163.64 59.2579L165.323 52.3167L164.763 51.4212L167.07 48.6781C167.859 49.7261 168.87 50.5866 170.031 51.1979C174.511 53.4258 165.323 61.7189 165.323 61.7189Z" fill="black"/>
</g>
<g opacity="0.1">
<path opacity="0.1" d="M169.916 83.2324C169.916 83.2324 164.822 82.8276 160.403 82.6362L159.959 82.6165C159.331 82.592 158.733 82.5724 158.146 82.5577C153.857 82.4546 149.007 80.9555 148.182 80.6929C148.491 80.2137 148.826 79.751 149.183 79.3066L155.908 80.7788C155.908 80.7788 156.968 81.1174 159.324 82.1602L155.459 79.3066L167.237 81.4364C167.237 81.4364 167.646 81.3848 169.813 82.5969L169.916 83.2324Z" fill="black"/>
</g>
<path d="M165.322 52.7538L164.763 51.8583L167.251 48.8821C167.251 48.8821 172.381 51.397 173.726 50.845C173.726 50.845 176.977 53.5439 177.087 55.1044C177.087 55.1044 172.381 56.6722 172.492 59.0301C172.602 61.388 170.259 66.4252 170.259 66.4252L169.278 70.454C168.674 72.8956 168.59 75.4369 169.032 77.9129L169.928 82.9011C169.928 82.9011 162.866 82.3416 158.151 82.2288C153.435 82.1159 148.064 80.3248 148.064 80.3248L150.814 74.5368C151.806 72.448 152.292 70.1549 152.233 67.8434L151.987 58.4732C151.987 58.4732 151.764 53.7672 148.062 52.982C148.062 52.982 150.078 48.8355 153.214 49.1716C153.214 49.1716 157.783 47.2652 159.139 48.5533C160.496 49.8414 160.163 51.8607 160.163 51.8607L163.637 59.7122L165.322 52.7538Z" fill="#ED677B"/>
<g opacity="0.1">
<path opacity="0.1" d="M155.879 39.6515C156.779 39.6515 157.486 38.6971 158.386 38.7461C158.852 38.7707 159.252 39.0676 159.638 39.335C161.093 40.343 162.713 41.0902 164.424 41.5432C165.089 41.7199 165.794 41.8524 166.461 41.6904C167.128 41.5285 167.754 41.0034 167.83 40.3189C167.849 40.0172 167.809 39.7147 167.712 39.4282C166.957 36.7961 165.247 34.54 162.918 33.1004C161.986 32.5288 160.847 32.092 159.814 32.4502C158.882 32.7717 158.281 33.6451 157.606 34.364C157.097 34.9023 156.52 35.3709 155.888 35.7577C155.398 36.0546 154.662 36.2484 154.379 36.7931C153.847 37.8089 154.684 39.6417 155.879 39.6515Z" fill="black"/>
</g>
<path d="M155.879 39.4279C156.779 39.4279 157.486 38.4734 158.386 38.5225C158.852 38.547 159.252 38.8439 159.638 39.1114C161.093 40.1193 162.713 40.8665 164.424 41.3196C165.089 41.4963 165.794 41.6287 166.461 41.4668C167.128 41.3049 167.754 40.7798 167.83 40.0953C167.849 39.7936 167.809 39.4911 167.712 39.2046C166.957 36.5725 165.247 34.3164 162.918 32.8768C161.986 32.3051 160.847 31.8684 159.814 32.2266C158.882 32.548 158.281 33.4215 157.606 34.1404C157.097 34.6787 156.52 35.1473 155.888 35.534C155.398 35.8309 154.662 36.0248 154.379 36.5695C153.847 37.5951 154.684 39.4156 155.879 39.4279Z" fill="#85555C"/>
<path opacity="0.05" d="M153.163 65.0244C153.163 65.0244 158.654 67.0413 162.241 65.4734L164.034 65.5863C164.034 65.5863 167.016 67.6767 170.168 66.7419" fill="black"/>
<path opacity="0.05" d="M179.163 61.6621C179.163 61.6621 178.268 63.7918 178.714 64.4641L179.163 61.6621Z" fill="black"/>
<path opacity="0.05" d="M143.412 60.9902C143.412 60.9902 143.861 63.1199 143.412 63.7922V60.9902Z" fill="black"/>
</g>
<defs>
<linearGradient id="paint0_linear" x1="128.063" y1="183.65" x2="128.063" y2="6.01074" gradientUnits="userSpaceOnUse">
<stop stop-color="#808080" stop-opacity="0.25"/>
<stop offset="0.54" stop-color="#808080" stop-opacity="0.12"/>
<stop offset="1" stop-color="#808080" stop-opacity="0.1"/>
</linearGradient>
<linearGradient id="paint1_linear" x1="42938.4" y1="61036.1" x2="42938.4" y2="18369.5" gradientUnits="userSpaceOnUse">
<stop stop-color="#808080" stop-opacity="0.25"/>
<stop offset="0.54" stop-color="#808080" stop-opacity="0.12"/>
<stop offset="1" stop-color="#808080" stop-opacity="0.1"/>
</linearGradient>
<clipPath id="clip0">
<rect width="254.668" height="189.488" fill="white" transform="translate(0 0.511719)"/>
</clipPath>
</defs>
</svg>
