<svg width="254" height="190" viewBox="0 0 254 190" fill="none" xmlns="http://www.w3.org/2000/svg">
<g opacity="0.1">
<path opacity="0.1" d="M154.795 186.727C158.764 186.727 161.981 182.516 161.981 177.322C161.981 172.128 158.764 167.918 154.795 167.918C150.827 167.918 147.609 172.128 147.609 177.322C147.609 182.516 150.827 186.727 154.795 186.727Z" fill="#3F3D56"/>
<path opacity="0.1" d="M160.481 137.089C161.488 135.342 162.01 133.357 161.994 131.341C161.994 126.136 158.777 121.937 154.808 121.937C150.84 121.937 147.626 126.146 147.626 131.341C147.605 133.356 148.123 135.341 149.125 137.089C148.142 138.845 147.626 140.823 147.626 142.836C147.626 144.848 148.142 146.826 149.125 148.582C148.142 150.338 147.626 152.317 147.626 154.33C147.626 156.343 148.142 158.322 149.125 160.078C148.123 161.827 147.605 163.811 147.626 165.826C147.626 171.031 150.843 175.231 154.808 175.231C158.774 175.231 161.994 171.021 161.994 165.826C162.014 163.811 161.497 161.827 160.494 160.078C161.478 158.322 161.994 156.343 161.994 154.33C161.994 152.317 161.478 150.338 160.494 148.582C161.478 146.826 161.994 144.848 161.994 142.836C161.994 140.823 161.478 138.845 160.494 137.089H160.481Z" fill="#3F3D56"/>
<path opacity="0.1" d="M154.795 129.252C158.764 129.252 161.981 125.042 161.981 119.848C161.981 114.654 158.764 110.443 154.795 110.443C150.827 110.443 147.609 114.654 147.609 119.848C147.609 125.042 150.827 129.252 154.795 129.252Z" fill="#3F3D56"/>
<path opacity="0.1" d="M154.795 117.757C158.764 117.757 161.981 113.547 161.981 108.353C161.981 103.159 158.764 98.9482 154.795 98.9482C150.827 98.9482 147.609 103.159 147.609 108.353C147.609 113.547 150.827 117.757 154.795 117.757Z" fill="#3F3D56"/>
<path opacity="0.1" d="M120.229 50.9656C120.217 58.6844 122.812 66.181 127.593 72.2403C123.601 77.316 121.117 83.414 120.426 89.835C119.735 96.256 120.865 102.742 123.687 108.551C126.508 114.361 130.908 119.259 136.382 122.686C141.856 126.112 148.184 127.93 154.642 127.93C161.1 127.93 167.428 126.112 172.902 122.686C178.377 119.259 182.776 114.361 185.598 108.551C188.419 102.742 189.549 96.256 188.858 89.835C188.167 83.414 185.684 77.316 181.691 72.2403C186.304 66.3849 120.229 47.101 120.229 50.9656Z" fill="black"/>
</g>
<g opacity="0.1">
<path opacity="0.1" d="M51.8175 181.653C55.0496 181.653 57.6697 178.223 57.6697 173.992C57.6697 169.761 55.0496 166.331 51.8175 166.331C48.5854 166.331 45.9653 169.761 45.9653 173.992C45.9653 178.223 48.5854 181.653 51.8175 181.653Z" fill="#3F3D56"/>
</g>
<path d="M253.581 180.838C253.581 183.124 241.983 185.214 222.807 186.828C219.32 187.118 215.583 187.394 211.62 187.654C208.196 187.876 204.607 188.085 200.853 188.283C197.216 188.469 193.44 188.642 189.525 188.802C177.16 189.311 163.49 189.677 148.968 189.86C145.443 189.907 141.872 189.942 138.254 189.967C134.485 189.991 130.673 190.002 126.817 190C56.807 190 0.0556641 185.903 0.0556641 180.848C0.0556641 175.792 56.807 171.695 126.817 171.695C156.959 171.695 184.638 172.457 206.393 173.722L208.772 173.862H208.786C236.191 175.536 253.581 178.055 253.581 180.838Z" fill="#E1EEFA"/>
<path d="M103.638 90.334C92.5387 90.334 83.7907 85.929 77.3957 77.117C70.9997 68.306 67.8027 57.6318 67.8027 45.0947C67.8027 32.473 70.8947 21.8204 77.0797 13.1371C83.2647 4.45371 91.9897 0.116313 103.254 0.125013C115.199 0.125013 124.199 4.69981 130.254 13.8495C136.309 22.9991 139.338 33.5888 139.34 45.6184C139.34 57.5613 136.206 68.0013 129.939 76.938C123.671 85.876 114.904 90.341 103.638 90.334ZM103.963 80.422C111.265 80.422 116.723 77.24 120.336 70.8748C123.949 64.5097 125.755 56.4856 125.755 46.8025C125.755 36.0242 123.906 27.1988 120.209 20.3262C116.511 13.4537 110.84 10.0163 103.195 10.0142C88.6647 10.0142 81.3997 21.5559 81.3997 44.6392C81.3997 68.4968 88.9187 80.425 103.957 80.422H103.963ZM107.62 175.342H91.5657L196.664 1.89141H212.415L107.62 175.342ZM200.597 177.121C189.331 177.121 180.548 172.676 174.248 163.784C167.948 154.893 164.785 144.217 164.759 131.758C164.759 119.221 167.83 108.611 173.971 99.927C180.113 91.244 188.859 86.907 200.21 86.915C212.071 86.915 221.008 91.49 227.021 100.64C233.035 109.79 236.043 120.378 236.045 132.406C236.045 144.27 232.932 154.691 226.706 163.667C220.48 172.643 211.775 177.128 200.591 177.121H200.597ZM200.786 166.956C208.053 166.956 213.481 163.827 217.07 157.571C220.66 151.314 222.454 143.323 222.454 133.596C222.454 123.186 220.638 114.456 217.005 107.406C213.373 100.356 207.714 96.825 200.028 96.814C185.413 96.814 178.106 108.356 178.106 131.439C178.102 155.119 185.659 166.958 200.779 166.956H200.786Z" fill="#3F3D56"/>
<path d="M103.638 90.334C92.5387 90.334 83.7907 85.929 77.3957 77.117C70.9997 68.306 67.8027 57.6318 67.8027 45.0947C67.8027 32.473 70.8947 21.8204 77.0797 13.1371C83.2647 4.45371 91.9897 0.116313 103.254 0.125013C115.199 0.125013 124.199 4.69981 130.254 13.8495C136.309 22.9991 139.338 33.5888 139.34 45.6184C139.34 57.5613 136.206 68.0013 129.939 76.938C123.671 85.876 114.904 90.341 103.638 90.334ZM103.963 80.422C111.265 80.422 116.723 77.24 120.336 70.8748C123.949 64.5097 125.755 56.4856 125.755 46.8025C125.755 36.0242 123.906 27.1988 120.209 20.3262C116.511 13.4537 110.84 10.0163 103.195 10.0142C88.6647 10.0142 81.3997 21.5559 81.3997 44.6392C81.3997 68.4968 88.9187 80.425 103.957 80.422H103.963ZM107.62 175.342H91.5657L196.664 1.89141H212.415L107.62 175.342ZM200.597 177.121C189.331 177.121 180.548 172.676 174.248 163.784C167.948 154.893 164.785 144.217 164.759 131.758C164.759 119.221 167.83 108.611 173.971 99.927C180.113 91.244 188.859 86.907 200.21 86.915C212.071 86.915 221.008 91.49 227.021 100.64C233.035 109.79 236.043 120.378 236.045 132.406C236.045 144.27 232.932 154.691 226.706 163.667C220.48 172.643 211.775 177.128 200.591 177.121H200.597ZM200.786 166.956C208.053 166.956 213.481 163.827 217.07 157.571C220.66 151.314 222.454 143.323 222.454 133.596C222.454 123.186 220.638 114.456 217.005 107.406C213.373 100.356 207.714 96.825 200.028 96.814C185.413 96.814 178.106 108.356 178.106 131.439C178.102 155.119 185.659 166.958 200.779 166.956H200.786Z" fill="#3F3D56"/>
<path d="M103.638 90.334C92.5387 90.334 83.7907 85.929 77.3957 77.117C70.9997 68.306 67.8027 57.6318 67.8027 45.0947C67.8027 32.473 70.8947 21.8204 77.0797 13.1371C83.2647 4.45371 91.9897 0.116313 103.254 0.125013C115.199 0.125013 124.199 4.69981 130.254 13.8495C136.309 22.9991 139.338 33.5888 139.34 45.6184C139.34 57.5613 136.206 68.0013 129.939 76.938C123.671 85.876 114.904 90.341 103.638 90.334ZM103.963 80.422C111.265 80.422 116.723 77.24 120.336 70.8748C123.949 64.5097 125.755 56.4856 125.755 46.8025C125.755 36.0242 123.906 27.1988 120.209 20.3262C116.511 13.4537 110.84 10.0163 103.195 10.0142C88.6647 10.0142 81.3997 21.5559 81.3997 44.6392C81.3997 68.4968 88.9187 80.425 103.957 80.422H103.963ZM107.62 175.342H91.5657L196.664 1.89141H212.415L107.62 175.342ZM200.597 177.121C189.331 177.121 180.548 172.676 174.248 163.784C167.948 154.893 164.785 144.217 164.759 131.758C164.759 119.221 167.83 108.611 173.971 99.927C180.113 91.244 188.859 86.907 200.21 86.915C212.071 86.915 221.008 91.49 227.021 100.64C233.035 109.79 236.043 120.378 236.045 132.406C236.045 144.27 232.932 154.691 226.706 163.667C220.48 172.643 211.775 177.128 200.591 177.121H200.597ZM200.786 166.956C208.053 166.956 213.481 163.827 217.07 157.571C220.66 151.314 222.454 143.323 222.454 133.596C222.454 123.186 220.638 114.456 217.005 107.406C213.373 100.356 207.714 96.825 200.028 96.814C185.413 96.814 178.106 108.356 178.106 131.439C178.102 155.119 185.659 166.958 200.779 166.956H200.786Z" fill="#076ACF"/>
<path d="M93.553 90.334C82.454 90.334 73.707 85.929 67.311 77.117C60.916 68.306 57.7183 57.6318 57.7183 45.0947C57.7183 32.473 60.8108 21.8204 66.996 13.1371C73.181 4.45371 81.905 0.116313 93.17 0.125013C105.115 0.125013 114.115 4.69981 120.17 13.8495C126.225 22.9991 129.253 33.5888 129.255 45.6184C129.255 57.5613 126.122 68.0013 119.854 76.938C113.587 85.876 104.82 90.341 93.553 90.334ZM93.879 80.422C101.181 80.422 106.638 77.24 110.251 70.8748C113.864 64.5097 115.671 56.4856 115.671 46.8025C115.671 36.0242 113.822 27.1988 110.124 20.3262C106.427 13.4537 100.756 10.0163 93.111 10.0142C78.581 10.0142 71.316 21.5559 71.316 44.6392C71.316 68.4968 78.835 80.425 93.872 80.422H93.879ZM97.535 175.342H81.482L186.58 1.89141H202.331L97.535 175.342ZM190.513 177.121C179.246 177.121 170.463 172.676 164.163 163.784C157.863 154.893 154.7 144.217 154.674 131.758C154.674 119.221 157.745 108.611 163.887 99.927C170.028 91.244 178.775 86.907 190.126 86.915C201.986 86.915 210.923 91.49 216.937 100.64C222.951 109.79 225.959 120.378 225.961 132.406C225.961 144.27 222.848 154.691 216.621 163.667C210.395 172.643 201.69 177.128 190.506 177.121H190.513ZM190.701 166.956C197.969 166.956 203.397 163.827 206.986 157.571C210.575 151.314 212.37 143.323 212.37 133.596C212.37 123.186 210.553 114.456 206.921 107.406C203.288 100.356 197.627 96.825 189.937 96.814C175.322 96.814 168.015 108.356 168.015 131.439C168.015 155.119 175.575 166.958 190.695 166.956H190.701Z" fill="#007EFF"/>
<path d="M68.3169 151.328L69.4389 151.556L73.2609 157.203L71.5729 157.431L68.3169 151.328Z" fill="#2F2E41"/>
<path d="M41.1382 174.249C41.4408 175.25 41.8137 176.229 42.254 177.177C43.5205 176.912 44.7663 176.557 45.9819 176.113C45.7466 175.747 45.488 175.396 45.2077 175.063C44.9089 174.73 44.5516 174.456 44.1537 174.253C43.7666 174.083 43.2884 174.21 42.8753 174.233C42.2963 174.255 41.7172 174.26 41.1382 174.249Z" fill="#FBBEBE"/>
<path d="M44.1597 175.758C43.5286 175.56 43.1415 174.922 42.8845 174.307C42.6275 173.693 42.4193 173.022 41.9314 172.57C41.8385 172.585 41.7507 172.622 41.6758 172.679C41.6008 172.736 41.5411 172.81 41.502 172.896C41.4076 173.058 41.3523 173.244 41.245 173.4C41.0433 173.693 40.6855 173.836 40.4285 174.086C40.1715 174.337 40.0121 174.717 39.7356 174.968C39.352 175.244 38.9039 175.416 38.4344 175.469C37.7253 175.629 37.0406 175.883 36.398 176.223C36.1602 176.361 35.9068 176.47 35.6433 176.549C35.3527 176.604 35.0553 176.614 34.7617 176.578L32.7351 176.432C32.555 176.409 32.3723 176.418 32.1951 176.458C31.9887 176.53 31.8123 176.669 31.6944 176.853C31.5764 177.037 31.5236 177.255 31.5445 177.473C31.5714 177.689 31.6431 177.898 31.7551 178.086C31.8671 178.274 32.017 178.436 32.1951 178.562C32.5474 178.814 32.9356 179.012 33.3467 179.148C35.1124 179.812 36.9292 180.331 38.7792 180.7V181.1C40.0649 181.736 41.4792 182.07 42.9138 182.076C43.0252 182.085 43.1372 182.066 43.2391 182.02C43.3709 181.924 43.4633 181.783 43.4993 181.623C43.9856 180.202 44.2692 178.719 44.3419 177.219C44.3792 176.839 44.3506 176.456 44.2573 176.087C44.1467 175.722 44.524 175.875 44.1727 175.732" fill="#5D3E53"/>
<path d="M83.014 168.121C77.006 168.485 71.072 166.722 65.0544 166.533C64.3075 166.488 63.5578 166.536 62.8228 166.676C62.0566 166.882 61.3149 167.17 60.6108 167.535C57.387 169.035 54.0494 170.277 50.7151 171.52L46.8895 172.945C46.1218 173.228 45.3314 173.517 44.5149 173.469C44.1505 173.446 43.7049 173.391 43.4967 173.696C42.8753 174.617 43.1714 175.973 43.5812 177.008C43.7146 177.333 43.9391 177.707 44.2969 177.746C44.55 177.729 44.798 177.666 45.0288 177.561C45.725 177.375 46.4211 177.844 47.1368 177.919C48.0249 178.013 48.8479 177.509 49.6839 177.2C51.0697 176.689 52.5856 176.705 54.0429 176.461C56.4892 176.055 58.7533 174.919 60.8743 173.625C61.681 173.134 62.5008 172.607 63.4246 172.428C64.4883 172.219 65.5846 172.493 66.629 172.789C69.118 173.493 71.569 174.328 73.971 175.29C75.221 175.833 76.503 176.301 77.809 176.689C80.657 177.439 83.669 177.263 86.41 176.188C87.386 175.807 88.414 175.137 88.47 174.1C88.502 173.508 88.043 172.987 87.738 172.473C87.539 172.148 87.344 171.823 87.129 171.514C86.095 170.004 84.839 168.01 83.014 168.121Z" fill="#2F2E41"/>
<path d="M83.014 168.121C77.006 168.485 71.072 166.722 65.0544 166.533C64.3075 166.488 63.5578 166.536 62.8228 166.676C62.0566 166.882 61.3149 167.17 60.6108 167.535C57.387 169.035 54.0494 170.277 50.7151 171.52L46.8895 172.945C46.1218 173.228 45.3314 173.517 44.5149 173.469C44.1505 173.446 43.7049 173.391 43.4967 173.696C42.8753 174.617 43.1714 175.973 43.5812 177.008C43.7146 177.333 43.9391 177.707 44.2969 177.746C44.55 177.729 44.798 177.666 45.0288 177.561C45.725 177.375 46.4211 177.844 47.1368 177.919C48.0249 178.013 48.8479 177.509 49.6839 177.2C51.0697 176.689 52.5856 176.705 54.0429 176.461C56.4892 176.055 58.7533 174.919 60.8743 173.625C61.681 173.134 62.5008 172.607 63.4246 172.428C64.4883 172.219 65.5846 172.493 66.629 172.789C69.118 173.493 71.569 174.328 73.971 175.29C75.221 175.833 76.503 176.301 77.809 176.689C80.657 177.439 83.669 177.263 86.41 176.188C87.386 175.807 88.414 175.137 88.47 174.1C88.502 173.508 88.043 172.987 87.738 172.473C87.539 172.148 87.344 171.823 87.129 171.514C86.095 170.004 84.839 168.01 83.014 168.121Z" fill="#575988"/>
<path d="M52.6699 174.542C53.6111 174.86 54.5588 175.155 55.5131 175.427C56.0498 174.545 57.0517 173.933 57.2795 172.928C57.2924 172.885 57.2924 172.838 57.2795 172.795C57.2546 172.752 57.2171 172.718 57.1721 172.697C56.4863 172.319 55.7254 172.097 54.9438 172.047C54.3257 172.008 54.0459 172.652 53.7662 173.104C53.6686 173.286 52.9204 174.626 52.6699 174.542Z" fill="#FBBEBE"/>
<path d="M53.9938 173.897C53.7129 173.85 53.4448 173.746 53.2068 173.589C52.9687 173.433 52.7659 173.229 52.6113 172.99C52.4779 172.759 52.338 172.446 52.0713 172.463C51.8045 172.479 51.7134 172.772 51.6581 173.016C51.478 173.927 51.2178 174.821 50.8807 175.686C50.5406 176.554 49.9649 177.31 49.2184 177.869C48.8703 178.11 48.4832 178.292 48.1416 178.546C47.857 178.8 47.5524 179.03 47.2308 179.235C47.0043 179.339 46.7705 179.426 46.5314 179.496C46.1809 179.618 45.8457 179.781 45.5327 179.98C45.2583 180.141 45.0255 180.364 44.8528 180.631C44.7696 180.766 44.7207 180.92 44.7105 181.079C44.7003 181.238 44.7291 181.397 44.7943 181.542C44.8644 181.66 44.9586 181.761 45.0707 181.84C45.1828 181.919 45.3103 181.974 45.4449 182C45.7191 182.046 45.9984 182.052 46.2744 182.02C47.3707 181.939 48.4637 181.841 49.5567 181.743C50.0194 181.715 50.4794 181.652 50.9327 181.555C51.1735 181.496 51.4077 181.418 51.6451 181.356C52.0551 181.252 52.4748 181.191 52.8975 181.174C53.0201 181.165 53.1434 181.177 53.2619 181.21C53.5156 181.291 53.6945 181.535 53.9548 181.594C54.1224 181.611 54.2918 181.589 54.4492 181.529C55.2492 181.359 56.0648 181.274 56.8825 181.275C57.2403 181.255 57.6632 181.187 57.8259 180.865C58.0308 180.465 57.6925 180.016 57.5559 179.587C57.4884 179.312 57.4502 179.03 57.442 178.747C57.3804 178.048 57.1756 177.37 56.8402 176.753C56.5604 176.239 56.1896 175.673 56.375 175.127C56.4747 174.956 56.5379 174.767 56.5604 174.57C56.5149 173.689 54.4883 174.014 53.9938 173.897Z" fill="#5D3E53"/>
<path d="M74.0057 158.485C72.9417 158.016 72.0887 157.169 71.6117 156.107C71.5147 155.88 71.4297 155.642 71.3357 155.411C71.0187 154.648 70.5287 153.968 69.9037 153.427C69.8377 153.353 69.7557 153.295 69.6637 153.256C69.5717 153.218 69.4737 153.199 69.3737 153.203C69.2777 153.231 69.1907 153.285 69.1227 153.358C69.0537 153.431 69.0057 153.521 68.9837 153.619C68.9277 153.831 68.9137 154.052 68.9417 154.269C68.9967 154.774 69.0837 155.275 69.2017 155.769L69.4947 157.096C69.5307 157.3 69.5927 157.499 69.6767 157.688C69.8017 157.911 69.9667 158.108 70.1647 158.271C70.4307 158.518 70.7007 158.755 70.9747 158.986C71.1247 159.123 71.2897 159.243 71.4657 159.344C71.7537 159.481 72.0627 159.571 72.3797 159.611C73.5737 159.832 74.7867 160.151 75.7917 160.912C75.7917 160.912 75.7917 160.024 75.7697 159.936C75.7567 159.679 75.6687 159.431 75.5157 159.224C75.1377 158.817 74.4877 158.697 74.0057 158.485Z" fill="#FBBEBE"/>
<path opacity="0.1" d="M74.0057 158.485C72.9417 158.016 72.0887 157.169 71.6117 156.107C71.5147 155.88 71.4297 155.642 71.3357 155.411C71.0187 154.648 70.5287 153.968 69.9037 153.427C69.8377 153.353 69.7557 153.295 69.6637 153.256C69.5717 153.218 69.4737 153.199 69.3737 153.203C69.2777 153.231 69.1907 153.285 69.1227 153.358C69.0537 153.431 69.0057 153.521 68.9837 153.619C68.9277 153.831 68.9137 154.052 68.9417 154.269C68.9967 154.774 69.0837 155.275 69.2017 155.769L69.4947 157.096C69.5307 157.3 69.5927 157.499 69.6767 157.688C69.8017 157.911 69.9667 158.108 70.1647 158.271C70.4307 158.518 70.7007 158.755 70.9747 158.986C71.1247 159.123 71.2897 159.243 71.4657 159.344C71.7537 159.481 72.0627 159.571 72.3797 159.611C73.5737 159.832 74.7867 160.151 75.7917 160.912C75.7917 160.912 75.7917 160.024 75.7697 159.936C75.7567 159.679 75.6687 159.431 75.5157 159.224C75.1377 158.817 74.4877 158.697 74.0057 158.485Z" fill="black"/>
<path d="M86.2369 148.335C87.0439 148.335 87.6979 147.677 87.6979 146.865C87.6979 146.053 87.0439 145.395 86.2369 145.395C85.4309 145.395 84.7769 146.053 84.7769 146.865C84.7769 147.677 85.4309 148.335 86.2369 148.335Z" fill="#2F2E41"/>
<path d="M85.333 145.977C84.941 145.888 84.53 145.947 84.178 146.143C84.01 146.292 83.875 146.477 83.785 146.683C83.456 147.245 83.2 147.846 83.024 148.472C82.893 149.009 82.871 149.569 82.698 150.099C82.399 151.075 81.631 151.904 81.543 152.922C81.504 153.378 81.579 153.915 81.247 154.224C81.165 154.293 81.077 154.355 80.984 154.409C80.753 154.564 80.557 154.766 80.408 155.001C80.309 155.212 80.171 155.403 80.001 155.564C79.702 155.785 79.211 155.762 79.065 156.104C78.918 156.445 79.296 156.842 79.208 157.213C79.136 157.516 78.798 157.656 78.557 157.864C78.283 158.154 78.091 158.512 78.001 158.901C77.512 158.993 77.009 158.979 76.527 158.858C76.045 158.737 75.594 158.513 75.207 158.202C75.613 159.207 75.623 160.316 75.639 161.4C75.686 161.746 75.594 162.097 75.382 162.376C76.547 162.402 77.679 162.701 78.814 162.971C79.3 163.134 79.825 163.134 80.311 162.971C80.57 162.831 80.803 162.646 80.997 162.424C81.615 161.797 82.262 161.123 82.412 160.248C82.452 159.756 82.46 159.261 82.438 158.768C82.498 158.159 82.623 157.558 82.812 156.976C83.139 155.767 83.357 154.531 83.463 153.283C83.531 152.513 84.195 151.894 84.546 151.205C85.197 149.904 85.88 148.554 85.932 147.096C85.977 146.621 85.815 146.039 85.333 145.977Z" fill="#2F2E41"/>
<path d="M85.333 145.977C84.941 145.888 84.53 145.947 84.178 146.143C84.01 146.292 83.875 146.477 83.785 146.683C83.456 147.245 83.2 147.846 83.024 148.472C82.893 149.009 82.871 149.569 82.698 150.099C82.399 151.075 81.631 151.904 81.543 152.922C81.504 153.378 81.579 153.915 81.247 154.224C81.165 154.293 81.077 154.355 80.984 154.409C80.753 154.564 80.557 154.766 80.408 155.001C80.309 155.212 80.171 155.403 80.001 155.564C79.702 155.785 79.211 155.762 79.065 156.104C78.918 156.445 79.296 156.842 79.208 157.213C79.136 157.516 78.798 157.656 78.557 157.864C78.283 158.154 78.091 158.512 78.001 158.901C77.512 158.993 77.009 158.979 76.527 158.858C76.045 158.737 75.594 158.513 75.207 158.202C75.613 159.207 75.623 160.316 75.639 161.4C75.686 161.746 75.594 162.097 75.382 162.376C76.547 162.402 77.679 162.701 78.814 162.971C79.3 163.134 79.825 163.134 80.311 162.971C80.57 162.831 80.803 162.646 80.997 162.424C81.615 161.797 82.262 161.123 82.412 160.248C82.452 159.756 82.46 159.261 82.438 158.768C82.498 158.159 82.623 157.558 82.812 156.976C83.139 155.767 83.357 154.531 83.463 153.283C83.531 152.513 84.195 151.894 84.546 151.205C85.197 149.904 85.88 148.554 85.932 147.096C85.977 146.621 85.815 146.039 85.333 145.977Z" fill="#F47A8C"/>
<path d="M83.967 169.385C82.715 168.79 81.801 167.681 80.789 166.731C78.857 164.916 76.495 163.634 74.465 161.933C73.122 160.807 71.918 159.496 70.438 158.553C69.136 157.722 67.66 157.205 66.125 157.04C65.9492 157.01 65.7692 157.019 65.5976 157.066C65.4037 157.153 65.2348 157.287 65.1064 157.457C64.4506 158.196 63.8678 158.996 63.366 159.848C60.7929 164.213 57.1398 167.886 54.1112 171.949C54.0141 172.045 53.9565 172.173 53.9499 172.309C53.9432 172.446 53.9881 172.579 54.0754 172.684L54.6903 173.891C55.0351 174.564 55.5881 175.352 56.3168 175.218C56.6511 175.122 56.9504 174.931 57.1788 174.668L59.9439 172.024L62.8423 169.252C64.5404 167.626 66.268 165.967 67.377 163.891C68.242 165.391 69.778 166.373 70.832 167.749C71.232 168.27 71.557 168.845 71.915 169.398C72.491 170.287 73.141 171.119 73.792 171.949L77.12 176.194C77.54 176.799 78.06 177.327 78.658 177.755C79.446 178.253 80.405 178.387 81.332 178.468C82.581 178.582 83.836 178.627 85.09 178.605C86.046 178.588 87.041 178.526 87.887 178.1C88.733 177.674 89.452 176.799 89.406 175.846C89.355 175.347 89.191 174.865 88.928 174.437C87.754 172.258 86.199 170.436 83.967 169.385Z" fill="#575988"/>
<path d="M87.1352 149.012C87.7552 149.012 88.2582 148.507 88.2582 147.884C88.2582 147.26 87.7552 146.755 87.1352 146.755C86.5162 146.755 86.0132 147.26 86.0132 147.884C86.0132 148.507 86.5162 149.012 87.1352 149.012Z" fill="#E8E8F0"/>
<path d="M86.8881 147.034C87.1421 147.539 87.1861 148.123 87.0121 148.661C86.8381 149.189 86.5961 149.692 86.2901 150.157C86.0271 150.637 85.7111 151.086 85.3501 151.497C87.0831 151.582 88.7651 150.902 90.2941 150.076C91.5271 149.425 92.7571 148.596 93.4141 147.356C93.2181 147.403 93.0151 147.408 92.8171 147.372C92.6201 147.335 92.4321 147.258 92.2661 147.145C91.9351 146.914 91.6381 146.638 91.3841 146.325L90.5151 145.349C90.3101 145.135 90.1301 144.898 89.9791 144.643C89.7891 144.297 89.7081 143.901 89.7481 143.508C89.4021 143.87 89.0151 144.191 88.5961 144.464C87.9751 144.871 87.2951 145.164 86.6671 145.564C86.4461 145.707 85.9551 145.938 86.0821 146.214C86.2081 146.491 86.7131 146.722 86.8881 147.034Z" fill="#FBBEBE"/>
<path opacity="0.1" d="M86.8881 147.034C87.1421 147.539 87.1861 148.123 87.0121 148.661C86.8381 149.189 86.5961 149.692 86.2901 150.157C86.0271 150.637 85.7111 151.086 85.3501 151.497C87.0831 151.582 88.7651 150.902 90.2941 150.076C91.5271 149.425 92.7571 148.596 93.4141 147.356C93.2181 147.403 93.0151 147.408 92.8171 147.372C92.6201 147.335 92.4321 147.258 92.2661 147.145C91.9351 146.914 91.6381 146.638 91.3841 146.325L90.5151 145.349C90.3101 145.135 90.1301 144.898 89.9791 144.643C89.7891 144.297 89.7081 143.901 89.7481 143.508C89.4021 143.87 89.0151 144.191 88.5961 144.464C87.9751 144.871 87.2951 145.164 86.6671 145.564C86.4461 145.707 85.9551 145.938 86.0821 146.214C86.2081 146.491 86.7131 146.722 86.8881 147.034Z" fill="black"/>
<path d="M86.9109 147.203C86.7359 147.451 86.6419 147.747 86.6419 148.051C86.6419 148.354 86.7359 148.65 86.9109 148.898C86.9599 148.96 87.1449 149.347 87.2369 149.35C87.3129 149.344 87.3839 149.308 87.4349 149.25C87.8279 148.839 88.1949 148.404 88.5339 147.948C88.8769 147.486 89.3729 147.161 89.9329 147.031C90.6129 146.924 91.2669 147.285 91.8619 147.63C92.1179 147.757 92.3409 147.941 92.5129 148.17C92.6379 148.396 92.7129 148.647 92.7309 148.905C92.9019 150.456 92.9669 152.016 92.9259 153.576C92.9579 154.701 92.8839 155.826 92.7049 156.936C92.5939 157.509 92.4279 158.068 92.3499 158.647C92.2929 159.157 92.2699 159.67 92.2819 160.183V162.33C92.2679 162.723 92.2959 163.117 92.3669 163.504C92.5009 163.966 92.6579 164.421 92.8379 164.867C92.9969 165.398 93.1049 165.943 93.1629 166.494L93.4559 168.716C93.5509 169.418 93.6189 170.183 93.1929 170.745C93.0039 171.002 92.7499 171.204 92.5419 171.458C91.8099 172.388 92.0539 173.738 91.7289 174.893C91.4879 175.74 90.9959 176.495 90.3169 177.056C89.7999 177.495 89.1299 177.844 88.4599 177.707C87.5589 177.538 87.0149 176.598 86.7679 175.71C86.5209 174.821 86.4429 173.852 85.8999 173.107C85.4639 172.492 84.7899 172.108 84.1819 171.669C83.5739 171.23 82.9749 170.667 82.8419 169.926C82.7829 169.6 82.8189 169.275 82.7859 168.95C82.7379 168.535 82.5789 168.141 82.3259 167.809C82.0729 167.477 81.7349 167.22 81.3489 167.063C80.8869 166.884 80.3139 166.819 80.0469 166.412C80.7099 165.996 81.1919 165.348 81.4009 164.594C81.6019 163.851 81.7119 163.086 81.7259 162.317L81.8819 159.734C81.9499 158.579 81.9829 157.434 82.4899 156.396C82.7179 155.934 83.0009 155.499 83.2349 155.04C83.5489 154.396 83.8159 153.731 84.0359 153.049C84.4029 151.992 84.7739 150.931 85.1029 149.861C85.2339 149.343 85.4309 148.843 85.6879 148.374C85.9909 147.887 86.3909 147.301 86.9109 147.203Z" fill="#E8E8F0"/>
<path d="M81.1772 163.986L81.8602 164.008L82.0062 162.977C82.0252 162.771 82.0742 162.568 82.1492 162.375C82.2632 162.172 82.3942 161.979 82.5432 161.8C83.2162 160.85 83.1672 159.587 83.3332 158.433C83.5542 156.894 84.1992 155.45 84.8362 154.031L86.1632 151.074C86.2822 150.831 86.3762 150.577 86.4462 150.316C86.5042 150.028 86.5322 149.735 86.5282 149.441C86.5282 148.986 86.6772 147.324 86.6872 146.865C86.6872 146.696 86.3162 146.79 86.2382 146.64C86.0722 146.315 85.8452 147.2 85.5322 147.395C85.2382 147.62 85.0242 147.934 84.9212 148.29C84.6342 149.035 84.4592 149.819 84.1922 150.567C83.9582 151.333 83.5312 152.026 82.9532 152.58C82.6832 152.821 82.3672 153.01 82.1102 153.264C81.2842 154.08 81.2062 155.368 81.1772 156.517C81.1572 157.229 81.0242 163.986 81.1772 163.986Z" fill="#ED677B"/>
<path d="M91.017 145.97C90.366 146.23 89.989 146.946 89.804 147.642C89.618 148.338 89.54 149.073 89.182 149.691C88.349 151.142 86.225 151.565 85.636 153.133C85.487 153.663 85.407 154.209 85.399 154.76C85.295 155.882 84.924 156.968 84.813 158.091C84.756 158.964 84.777 159.84 84.875 160.709L85.62 169.567C85.765 170.872 85.689 172.192 85.396 173.471C86.16 173.581 86.939 173.453 87.627 173.103C88.327 172.778 88.964 172.349 89.634 171.978C90.789 171.327 92.064 170.888 93.073 170.026C93.256 169.883 93.413 169.711 93.538 169.515C93.7 169.143 93.809 168.75 93.863 168.347C93.949 168.034 94.058 167.727 94.189 167.43C94.562 166.537 94.888 165.625 95.165 164.698C95.354 164.082 95.503 163.455 95.61 162.821C95.692 162.316 95.734 161.806 95.779 161.298C95.831 160.5 95.99 159.712 96.251 158.956C96.896 157.152 97.262 155.259 97.334 153.345C97.357 153.068 97.338 152.789 97.279 152.518C97.167 152.189 97.016 151.875 96.83 151.581C96.521 150.999 96.336 150.358 96.043 149.769C95.392 148.436 94.224 147.424 93.005 146.575C92.38 146.162 91.694 145.713 91.017 145.97Z" fill="#ED677B"/>
<path d="M75.4869 160.423C74.9579 160.147 74.4799 159.784 74.0709 159.35C73.8859 159.132 73.7459 158.888 73.5439 158.673C73.0669 158.164 72.4469 157.81 71.7649 157.658C71.0879 157.509 70.3959 157.442 69.7029 157.46C69.2399 157.428 68.7749 157.484 68.3329 157.626C68.1109 157.698 67.9109 157.826 67.7519 157.996C67.5929 158.167 67.4789 158.375 67.4219 158.602C67.3209 159.155 67.6829 159.691 68.1149 160.043C68.5179 160.371 68.9909 160.602 69.4979 160.716C69.9109 160.788 70.3279 160.837 70.7469 160.863C73.2059 161.12 75.4019 162.456 77.5549 163.676C79.4489 164.746 81.3789 165.746 83.3459 166.679C83.4239 166.09 83.4559 165.496 83.4429 164.903C83.4429 164.46 83.4109 163.784 82.9909 163.523C82.5029 163.218 81.6899 163.149 81.1499 162.967C79.8819 162.554 78.6439 162.054 77.4449 161.471C76.7649 161.142 76.1139 160.794 75.4869 160.423Z" fill="#FBBEBE"/>
<path d="M86.237 146.529C88.657 146.529 90.619 144.556 90.619 142.122C90.619 139.687 88.657 137.714 86.237 137.714C83.817 137.714 81.855 139.687 81.855 142.122C81.855 144.556 83.817 146.529 86.237 146.529Z" fill="#FBBEBE"/>
<path d="M92.2691 150.968C91.9201 151.458 91.6351 151.99 91.4201 152.552C90.8771 153.668 90.0281 154.624 89.6051 155.805C89.1561 157.031 89.1721 158.492 88.3031 159.458C88.1291 159.604 87.9971 159.796 87.9231 160.011C87.9171 160.145 87.9021 160.279 87.8771 160.411C87.7541 160.762 87.1781 160.779 87.0711 161.136C87.0411 161.241 87.0711 161.354 87.0181 161.462C86.9311 161.693 86.6281 161.725 86.4231 161.865C85.9971 162.155 86.0981 162.825 85.7731 163.241C85.6401 163.396 85.4701 163.513 85.2781 163.58C85.0861 163.647 84.8791 163.663 84.6801 163.625C84.2811 163.541 83.8971 163.397 83.5411 163.199C83.4161 163.128 83.2771 163.085 83.1341 163.072C82.9651 163.076 82.8001 163.131 82.6631 163.231C81.8531 163.745 81.4721 164.767 81.4791 165.73C81.5361 166.693 81.7641 167.638 82.1521 168.521C82.1981 168.673 82.2741 168.815 82.3761 168.937C82.6431 169.22 83.1121 169.175 83.4691 169.015C83.8051 168.817 84.1621 168.657 84.5331 168.54C85.2101 168.417 85.8731 168.885 86.5601 168.846C87.0621 168.77 87.5351 168.561 87.9291 168.241C88.6261 167.818 89.2501 167.285 89.7771 166.663C90.0761 166.27 90.2981 165.821 90.5611 165.401C90.8981 164.886 91.2671 164.392 91.6671 163.924L94.1951 160.831C94.4481 160.538 94.6761 160.223 94.8741 159.891C95.1021 159.441 95.2801 158.967 95.4051 158.479C95.6761 157.663 95.8511 156.82 95.9281 155.964C95.9411 155.256 95.8791 154.548 95.7431 153.853C95.6581 153.162 95.4751 152.486 95.2001 151.846C94.6371 150.707 93.3001 149.764 92.2691 150.968Z" fill="#F47A8C"/>
<path d="M101.071 145.225C101.075 144.444 100.892 143.672 100.54 142.975C100.187 142.278 99.6731 141.674 99.0411 141.214C99.0221 139.827 98.5111 138.491 97.5991 137.446C96.6871 136.4 95.4331 135.712 94.0611 135.505C93.7961 134.191 93.0751 133.012 92.0261 132.177C90.9771 131.342 89.6671 130.904 88.3271 130.941C86.9871 130.977 85.7031 131.485 84.7001 132.375C83.6981 133.265 83.0421 134.481 82.8481 135.808C81.0261 135.398 79.3611 135.931 79.0581 137.053C78.7331 138.228 80.0341 139.601 81.9601 140.121C82.5631 140.292 83.1921 140.354 83.8171 140.307C84.2651 140.964 84.8451 141.521 85.5211 141.941C86.1971 142.361 86.9531 142.635 87.7401 142.746C87.9721 143.807 88.4951 144.783 89.2511 145.563C90.0061 146.343 90.9651 146.896 92.0181 147.161C92.3101 147.865 92.7621 148.491 93.3391 148.989C93.3391 149.125 93.3161 149.265 93.3161 149.408C93.2951 149.909 93.3761 150.408 93.5521 150.876C93.7291 151.344 93.9991 151.772 94.3461 152.133C94.6921 152.494 95.1081 152.782 95.5681 152.978C96.0291 153.174 96.5241 153.276 97.0251 153.276C97.5251 153.276 98.0201 153.174 98.4811 152.978C98.9411 152.782 99.3571 152.494 99.7031 152.133C100.05 151.772 100.32 151.344 100.497 150.876C100.674 150.408 100.754 149.909 100.733 149.408C100.733 148.847 100.612 148.292 100.378 147.782C100.836 147.008 101.075 146.124 101.071 145.225Z" fill="#85555C"/>
<path opacity="0.1" d="M80.2949 137.278C80.5969 136.156 82.2459 135.622 84.0839 136.032C84.2979 134.685 84.9809 133.457 86.0129 132.564C87.0439 131.671 88.3579 131.171 89.7219 131.153C89.8489 131.153 89.9759 131.153 90.0989 131.153C89.5719 130.992 89.0239 130.911 88.4729 130.912C87.1089 130.931 85.7949 131.43 84.7629 132.323C83.7319 133.216 83.0489 134.444 82.8349 135.792C81.0139 135.382 79.3479 135.915 79.0449 137.038C78.7199 138.212 80.0209 139.585 81.9469 140.105C82.3049 140.204 82.6729 140.268 83.0429 140.294C81.2149 139.76 79.9859 138.427 80.2949 137.278Z" fill="black"/>
<path opacity="0.1" d="M94.5529 149.636C94.5529 149.493 94.5529 149.353 94.5759 149.214C93.9979 148.717 93.5459 148.092 93.2549 147.389C92.2019 147.121 91.2449 146.567 90.4889 145.787C89.7339 145.006 89.2099 144.032 88.9769 142.971C88.1889 142.861 87.4329 142.587 86.7569 142.166C86.0819 141.746 85.5009 141.189 85.0539 140.531C84.6899 140.56 84.3229 140.55 83.9609 140.502C84.4109 141.108 84.9759 141.619 85.6249 142.004C86.2739 142.389 86.9929 142.642 87.7409 142.747C87.9719 143.808 88.4949 144.783 89.2509 145.563C90.0069 146.343 90.9649 146.896 92.0189 147.161C92.3099 147.865 92.7619 148.491 93.3389 148.989C93.3389 149.126 93.3169 149.266 93.3169 149.409C93.2999 150.406 93.6789 151.369 94.3699 152.089C95.0609 152.808 96.0079 153.224 97.0049 153.247C96.2779 152.967 95.6529 152.47 95.2149 151.825C94.7759 151.18 94.5449 150.416 94.5529 149.636Z" fill="black"/>
<path d="M88.2428 143.737C88.5398 143.511 88.5368 143.006 88.2358 142.61C87.9348 142.214 87.4498 142.076 87.1528 142.302C86.8548 142.528 86.8578 143.032 87.1588 143.428C87.4598 143.825 87.9448 143.963 88.2428 143.737Z" fill="#FBBEBE"/>
</svg>
