<svg width="247" height="207" viewBox="0 0 247 207" fill="none" xmlns="http://www.w3.org/2000/svg">
<path d="M244.772 137.359C247.108 125.931 218.511 110.436 180.9 102.751C143.289 95.0649 110.905 98.0989 108.569 109.527C106.234 120.955 134.83 136.45 172.442 144.136C210.053 151.821 242.436 148.787 244.772 137.359Z" fill="#E1EEFA"/>
<path d="M165.598 180.372C165.459 166.52 128.389 155.664 82.8009 156.125C37.2139 156.586 0.370172 168.188 0.509672 182.04C0.649072 195.892 37.7179 206.748 83.3059 206.287C128.894 205.826 165.738 194.224 165.598 180.372Z" fill="#E1EEFA"/>
<path d="M168.818 64.1326C168.818 64.1326 172.515 45.9876 186.63 47.6686C186.63 47.6686 196.385 48.3376 198.391 54.7236V68.8366L168.818 64.1326Z" fill="#007EFF"/>
<path d="M246.118 70.8565L120.422 60.4365L104.291 63.7975L105.299 86.3125L106.398 86.4455L107.65 120.256L230.992 142.433L244.102 131.343V94.6905L245.78 93.7055L246.118 70.8565Z" fill="#007EFF"/>
<path opacity="0.05" d="M246.287 70.8574L245.949 93.7074L232.338 100.093L232.168 76.2324L246.287 70.8574Z" fill="black"/>
<path opacity="0.05" d="M244.102 94.7139L244.268 130.672L231.161 141.762L232.003 100.091L244.102 94.7139Z" fill="black"/>
<path opacity="0.05" d="M106.566 87.7934L232.103 103.109L232.168 100.203L106.472 86.6484L106.566 87.7934Z" fill="black"/>
<path opacity="0.05" d="M244.102 96.0339V94.7139L231.665 100.202V103.115L244.102 96.0339Z" fill="black"/>
<path d="M104.122 63.7975L120.253 60.4365L245.949 70.8565L231.834 76.2305L104.122 63.7975Z" fill="#9ECAF2"/>
<path d="M151.129 71.774C150.427 65.603 147.647 59.715 147.647 59.715L147.858 57.634C147.858 57.634 147.904 56.594 147.836 55.033C147.843 54.059 147.971 53.089 148.216 52.146C148.785 50.342 147.504 48.124 147.361 47.92C147.218 47.715 147.432 43.758 146.151 41.817C144.87 39.876 136.338 36.2672 136.338 36.2672C136.338 36.2672 135.88 35.3081 135.233 34.1865L135.291 34.0727C134.762 33.1124 134.105 32.2277 133.34 31.4424C132.817 30.8832 132.313 30.5646 131.906 30.7206C131.741 30.181 131.615 29.6301 131.529 29.0723C131.614 29.095 131.701 29.1178 131.786 29.134C132.138 29.2157 132.503 29.2246 132.859 29.16C133.652 28.9812 134.179 28.2692 134.621 27.5995C136.826 24.2507 138.725 20.5768 139.112 16.6135C139.216 15.8046 139.177 14.9838 138.998 14.1881C138.815 13.5696 138.56 12.9748 138.237 12.4162C137.667 11.2701 136.945 10.206 136.091 9.2528C134.572 7.6531 132.478 6.67451 130.326 6.09581C127.901 5.44381 125.375 5.25511 122.88 5.53981C122.229 5.61461 121.579 5.7219 120.929 5.7642C120.104 5.8005 119.278 5.78641 118.454 5.72191L114.198 5.4748L114.179 5.4098L113.47 5.36751C113.19 5.92351 113.47 6.5835 113.818 7.1037C114.166 7.6239 114.566 8.16681 114.536 8.78131C114.507 9.39581 114.062 9.89 113.714 10.4069C113.366 10.9239 113.102 11.6001 113.45 12.1073C113.499 12.1775 113.557 12.2409 113.623 12.2959C113.99 12.6763 114.631 12.7186 115.187 12.7121H115.284C113.884 14.5561 113.127 16.8082 113.128 19.1235C113.138 21.1021 113.692 23.0399 114.729 24.7247C115.767 26.4096 117.248 27.7764 119.01 28.6756C119.072 28.8869 119.134 29.1048 119.192 29.3259C119.837 31.6095 120.068 33.99 119.875 36.355L119.801 36.5176L119.755 36.3453C119.755 36.3453 114.741 39.746 113.252 40.647C111.763 41.547 110.267 44.6 110.195 45.432C110.124 46.265 107.776 58.818 107.776 58.818C107.299 60.082 106.906 61.377 106.599 62.693L103.604 65.324C103.604 65.324 97.426 65.879 95.638 65.463L95.69 65.808C94.113 65.448 92.507 65.23 90.891 65.158C90.008 65.044 89.111 65.164 88.29 65.506L88.228 65.535L88.179 65.558C87.238 65.686 86.318 65.944 85.448 66.325C85.344 66.367 85.249 66.409 85.158 66.452L85.178 66.026L78.493 65.681L75.078 64.989C75.078 64.989 73.869 64.013 73.157 64.156C72.445 64.299 70.952 63.324 70.952 63.324C70.612 63.057 70.243 62.828 69.853 62.641C69.739 61.854 69.668 61.377 69.668 61.377C69.668 61.377 67.011 50.836 65.021 44.639C63.688 40.5 61.77 38.4618 60.638 37.5742C60.134 36.6964 59.803 36.1307 59.803 36.1307C59.585 35.3699 58.388 33.6565 58.082 33.6142C58.034 33.5362 57.998 33.4972 57.978 33.4972C57.913 33.4902 57.847 33.5003 57.787 33.5265C57.227 30.7434 56.902 27.2548 57.757 24.2149C58.928 23.253 59.871 22.0441 60.52 20.6749C61.169 19.3057 61.507 17.81 61.51 16.2949C61.51 16.2494 61.51 16.2039 61.51 16.1584C61.51 16.1129 61.51 16.0641 61.51 16.0186C61.509 13.6024 60.653 11.2643 59.094 9.41861L58.983 9.295C59.013 9.2741 59.041 9.2513 59.068 9.2267C59.312 9.0286 59.498 8.76801 59.606 8.47271C59.715 8.17731 59.741 7.85821 59.682 7.54911C59.536 6.92491 59.048 6.43391 58.798 5.84221C58.647 5.38671 58.527 4.9219 58.437 4.4507C58.245 3.7815 57.894 3.1689 57.413 2.6658L57.461 2.7958C56.187 1.362 53.995 0.650006 52.022 0.968606C50.555 1.20271 49.189 1.88551 47.716 2.09681C46.66 2.24631 45.583 2.1488 44.52 2.2561C43.534 2.3575 42.573 2.63501 41.685 3.07541C41.453 3.17411 41.247 3.32551 41.083 3.51761C40.932 3.77491 40.831 4.05831 40.784 4.35311C40.423 5.66991 39.279 6.6095 38.449 7.7084C37.502 8.9639 36.954 10.4749 36.876 12.0456C36.843 12.4447 36.882 12.8465 36.99 13.2323C37.061 13.4631 37.172 13.6809 37.224 13.915C37.386 14.6303 37.012 15.3423 36.83 16.0511C36.601 16.9552 36.682 17.9102 37.061 18.7626C38.345 21.6367 42.563 22.5958 43.441 25.6129C44.112 25.9217 44.822 26.1403 45.551 26.2632C45.609 26.5623 45.661 26.8647 45.704 27.1703C45.684 27.1786 45.665 27.1896 45.648 27.2028C44.51 28.3115 44.228 30.454 44.228 30.454L44.091 30.5646C43.626 30.9482 42.036 32.2357 40.599 33.2273C38.892 34.4075 36.047 38.361 34.057 39.541C32.067 40.721 30.428 47.994 30.857 50.638C31.286 53.281 33.062 60.694 32.35 63.399C31.637 66.104 33.416 78.449 33.416 78.449C34.61 78.676 35.777 79.022 36.902 79.483L36.866 80.022L36.759 81.648C36.759 81.648 33.536 93.3 34.769 102.271C36.001 111.241 34.2 112.164 34.2 112.164C34.2 112.164 34.577 116.14 33.631 117.529C32.684 118.917 32.493 121.966 32.493 121.966C32.493 121.966 32.398 128.81 32.587 130.745C32.776 132.679 32.87 136.204 32.206 137.036C31.543 137.868 30.311 143.321 30.405 144.985C30.499 146.65 28.035 150.444 29.361 155.344C30.688 160.243 25.459 160.338 25.459 160.338C25.459 160.338 26.126 167.815 27.547 169.955L27.755 170.26C27.719 170.384 27.684 170.514 27.645 170.654C27.108 172.604 26.373 175.683 26.884 176.428C27.641 177.54 28.022 177.351 28.022 177.351L28.305 182.345C28.305 182.345 33.995 187.154 38.358 186.972C42.722 186.79 41.867 182.345 41.867 182.345L38.15 172.708L38.024 172.383L42.153 164.58C42.153 164.58 43.291 161.16 43.574 159.957C43.857 158.754 45.401 154.492 45.401 154.492C45.401 154.492 49.303 145.245 49.385 144.133C49.466 143.021 49.765 137.016 50.523 135.81C51.28 134.604 53.368 127.682 53.368 127.682L53.42 127.728C53.774 128.076 54.027 128.513 54.152 128.993C54.277 129.474 54.269 129.979 54.129 130.455C53.651 132.211 53.937 135.817 53.937 135.817C53.937 135.817 53.748 138.87 53.368 140.443C52.987 142.017 52.896 154.869 53.56 157.919C54.09 160.36 54.073 164.932 54.047 166.661C53.602 168.498 53.212 170.78 53.937 171.05C55.172 171.515 61.432 171.421 61.432 171.421C61.432 171.421 64.085 170.494 67.691 173.733C71.297 176.971 82.388 172.809 82.388 172.809C82.388 172.809 85.802 171.883 79.068 169.204C74.37 167.334 71.336 166.089 69.352 164.756C69.398 164.668 69.447 164.58 69.489 164.486C69.489 164.486 66.738 161.885 69.014 157.275C71.29 152.665 71.196 148.766 71.196 148.766L71.576 133.229L70.438 112.603L69.557 90.956L69.713 90.904C69.863 94.884 70.64 104.358 74.708 102.521C79.829 100.209 75.465 94.198 75.465 94.198L73.167 89.717L73.853 89.483L71.281 81.173C71.034 79.551 71.001 77.904 71.183 76.274C71.234 75.32 71.214 74.364 71.125 73.413C74.493 72.824 77.719 72.2 78.297 72.343C78.98 72.509 82.801 72.541 84.303 72.548C83.812 72.931 83.419 73.312 83.419 73.312L89.535 77.428C89.535 77.428 91.609 76.293 92.042 75.09C92.467 74.983 92.86 74.773 93.186 74.479C93.251 75.9 93.629 77.438 94.942 77.473C95.271 77.48 95.597 77.416 95.898 77.285L105.9 75.305L105.042 80.666L105.64 81.729C105.338 86.252 104.99 91.054 104.684 95.277L104.544 96.2L104.616 96.217C104.141 102.719 103.761 107.645 103.761 107.645C104.321 106.577 105.19 105.704 106.255 105.138L106.32 114.788C106.32 114.788 106.82 130.046 106.82 132.127C106.82 134.207 106.889 138.853 106.889 138.853C106.889 138.853 107.958 144.54 108.596 146.412C109.233 148.285 109.734 156.816 109.734 156.816C109.734 156.816 111.229 159.174 110.589 160.068C109.948 160.962 113.08 162.909 113.08 162.909C113.08 162.909 111.086 165.614 110.943 167.419C110.927 167.627 111.132 167.848 111.503 168.069C111.385 168.163 111.265 168.258 111.132 168.349C110.208 168.966 108.856 169.395 106.82 169.22C101.27 168.732 97.358 173.866 100.772 174.906C104.186 175.947 114.429 176.155 114.429 176.155C114.429 176.155 117.531 174.22 119.957 175.092C119.921 177.127 120.022 178.993 120.038 179.24L120.009 179.263C118.558 180.563 115.782 182.8 113.07 183.714C109.168 185.031 108.303 190.372 113.353 191.065C118.402 191.757 125.8 190.233 125.8 190.233C125.8 190.233 129.64 187.391 132.556 186.767C135.473 186.143 137.964 184.754 137.466 183.09C137.141 182.026 136.306 179.24 135.74 177.367C135.707 177.255 135.675 177.146 135.642 177.042C135.73 176.847 135.818 176.646 135.899 176.438C135.899 176.438 134.407 168.67 135.616 166.729C136.826 164.788 136.185 145.366 136.185 145.366C136.185 145.366 134.12 140.443 135.19 137.462C136.26 134.48 133.483 130.247 133.483 130.247C133.483 130.247 133.786 121.765 134.598 117.038C134.635 116.836 134.671 116.641 134.706 116.452C136.067 116.048 137.393 115.536 138.673 114.921C138.673 114.921 139.385 104.237 139.811 101.812C139.853 101.584 139.912 101.217 139.983 100.739L140.308 99.026L140.692 97.075L141.993 90.426L144.34 87.39L150.388 81.212C150.388 81.212 151.842 77.948 151.129 71.774ZM57.861 33.6272L57.816 33.6597C57.809 33.6363 57.803 33.6124 57.8 33.5882C57.818 33.6038 57.839 33.6169 57.861 33.6272ZM117.615 41.199L117.381 41.71L118.237 40.858L117.076 42.158L117.466 41.339L117.615 41.199ZM111.841 53.131C111.616 53.726 111.376 54.37 111.125 55.04L111.584 53.671L111.841 53.131Z" fill="url(#paint0_linear)"/>
<path d="M93.1798 72.5831C93.1798 72.5831 92.3828 77.8861 94.7728 77.9541C97.1628 78.0221 98.7588 73.8641 98.7588 73.8641L97.7838 70.5381L93.1798 72.5831Z" fill="#585B8A"/>
<path opacity="0.2" d="M93.1798 72.5831C93.1798 72.5831 92.3828 77.8861 94.7728 77.9541C97.1628 78.0221 98.7588 73.8641 98.7588 73.8641L97.7838 70.5381L93.1798 72.5831Z" fill="black"/>
<path d="M39.6501 187.364C35.3971 187.549 29.8501 182.744 29.8501 182.744L29.5741 177.753C29.5741 177.753 29.2061 177.939 28.4651 176.83C27.9671 176.086 28.6831 173 29.2061 171.059C29.4601 170.11 29.6681 169.434 29.6681 169.434L39.0001 171.931L39.4451 173.111L43.0681 182.741C43.0681 182.741 43.9001 187.179 39.6501 187.364Z" fill="#636992"/>
<path d="M82.5282 173.229C82.5282 173.229 71.7162 177.388 68.2212 174.153C64.7252 170.918 62.1212 171.841 62.1212 171.841C62.1212 171.841 56.0212 171.935 54.8182 171.47C54.1092 171.201 54.4932 168.889 54.9352 167.049C55.2342 165.777 55.5592 164.727 55.5592 164.727C55.5592 164.727 66.1852 161.122 67.8502 163.339C68.3502 163.991 68.9482 164.561 69.6222 165.03C71.5472 166.421 74.5552 167.683 79.3122 169.624C85.8542 172.303 82.5282 173.229 82.5282 173.229Z" fill="#636992"/>
<path d="M72.8261 88.7646L75.7821 94.6786C75.7821 94.6786 80.0351 100.687 75.0431 102.995C70.0521 105.304 70.1471 89.6906 70.1471 89.6906L72.8261 88.7646Z" fill="#FFD6D6"/>
<path d="M60.4399 37.4805C60.4399 37.4805 63.6759 38.9598 65.6169 45.15C67.5579 51.34 70.1459 61.878 70.1459 61.878C70.1459 61.878 71.9019 73.797 71.6229 76.755C71.4449 78.385 71.4759 80.03 71.7169 81.652L74.2109 89.968L69.2199 91.724L61.5489 62.339L60.4399 37.4805Z" fill="#DCE6F2"/>
<path opacity="0.05" d="M60.4399 37.4805C60.4399 37.4805 63.6759 38.9598 65.6169 45.15C67.5579 51.34 70.1459 61.878 70.1459 61.878C70.1459 61.878 71.9019 73.797 71.6229 76.755C71.4449 78.385 71.4759 80.03 71.7169 81.652L74.2109 89.968L69.2199 91.724L61.5489 62.339L60.4399 37.4805Z" fill="black"/>
<path opacity="0.1" d="M38.9978 171.933L39.4438 173.113L38.8978 174.157C36.7708 175.08 31.5028 174.342 31.5028 174.342C31.5028 174.342 30.5278 173.104 29.1948 171.065C29.4478 170.116 29.6568 169.439 29.6568 169.439L38.9978 171.933Z" fill="black"/>
<path opacity="0.1" d="M69.9598 165.465C67.2648 171.571 58.1018 169.305 55.5558 168.541C55.1358 168.414 54.9048 168.33 54.9048 168.33C54.9048 168.33 54.9218 167.832 54.9278 167.049C55.2268 165.777 55.5518 164.727 55.5518 164.727C55.5518 164.727 66.1778 161.122 67.8428 163.339C68.3428 163.991 68.9408 164.561 69.6148 165.03C69.7168 165.185 69.8328 165.331 69.9598 165.465Z" fill="black"/>
<path d="M69.4968 157.704C67.2788 162.321 69.9618 164.912 69.9618 164.912C67.2658 171.015 58.1028 168.752 55.5568 167.984C55.1378 167.861 54.9068 167.776 54.9068 167.776C54.9068 167.776 55.0918 161.397 54.4448 158.348C53.7978 155.298 53.8888 142.456 54.2598 140.885C54.6308 139.315 54.8128 136.262 54.8128 136.262C54.8128 136.262 54.5358 132.66 54.9978 130.904C55.1368 130.43 55.1458 129.927 55.0248 129.448C54.9038 128.969 54.6568 128.531 54.3088 128.18L54.2598 128.131C54.2598 128.131 52.2278 135.063 51.4858 136.259C50.7448 137.455 50.4718 143.467 50.3778 144.576C50.2828 145.684 46.4948 154.928 46.4948 154.928C46.4948 154.928 45.0188 159.177 44.7428 160.377C44.4658 161.576 43.3538 165 43.3538 165L38.8998 173.596C36.7728 174.519 31.5048 173.781 31.5048 173.781C31.5048 173.781 30.4908 172.481 29.1028 170.361C27.7138 168.241 27.0698 160.754 27.0698 160.754C27.0698 160.754 32.1528 160.659 30.8578 155.763C29.5638 150.867 31.9668 147.076 31.8758 145.411C31.7848 143.747 32.9848 138.297 33.6318 137.465C34.2788 136.633 34.1848 133.122 33.9988 131.181C33.8138 129.24 33.9078 122.402 33.9078 122.402C33.9078 122.402 34.0938 119.353 35.0168 117.968C35.9408 116.582 35.5728 112.606 35.5728 112.606C35.5728 112.606 37.3258 111.683 36.1258 102.719C34.9258 93.7561 38.0768 82.1131 38.0768 82.1131L38.1838 80.4871L38.3528 77.8541C38.3528 77.8541 64.7848 76.1891 66.9118 78.2211C67.4678 78.7851 67.9238 79.4391 68.2608 80.1561C68.9888 81.7201 69.5028 83.3741 69.7888 85.0751L70.8978 113.074L72.0068 133.681L71.6358 149.205C71.6358 149.205 71.7178 153.081 69.4968 157.704Z" fill="#565988"/>
<path opacity="0.1" d="M61.6608 102.443L58.8868 162.507L55.5568 167.982C55.1378 167.858 54.9068 167.774 54.9068 167.774C54.9068 167.774 55.0918 161.395 54.4448 158.345C53.7978 155.295 53.8888 142.453 54.2598 140.883C54.6308 139.312 54.8128 136.259 54.8128 136.259C54.8128 136.259 54.5358 132.657 54.9978 130.901C55.1368 130.427 55.1458 129.924 55.0248 129.445C54.9038 128.966 54.6568 128.528 54.3088 128.177L54.3538 127.852L61.6608 102.443Z" fill="black"/>
<path opacity="0.1" d="M31.7899 166.944C31.7899 166.944 38.9989 164.08 40.1079 164.993C41.2159 165.907 31.6079 167.302 31.6079 167.302L31.7899 166.944Z" fill="black"/>
<path opacity="0.1" d="M67.3728 159.364C67.0958 159.459 60.0728 161.965 60.7198 164.631C61.3668 167.297 67.3728 159.364 67.3728 159.364Z" fill="black"/>
<path d="M45.4238 22.6509C45.4238 22.6509 47.7778 28.334 46.5328 31.2471C45.2868 34.1602 59.9778 39.148 59.9778 39.148C59.9778 39.148 55.6828 28.0577 59.8408 21.8186C63.9998 15.5794 45.4238 22.6509 45.4238 22.6509Z" fill="#FFD6D6"/>
<path d="M131.441 187.179C128.599 187.804 124.857 190.645 124.857 190.645C124.857 190.645 117.648 192.17 112.725 191.477C107.802 190.785 108.638 185.446 112.449 184.13C115.092 183.219 117.801 180.973 119.215 179.685C119.84 179.11 120.21 178.71 120.21 178.71L134.007 175.937C134.007 175.937 134.231 176.707 134.543 177.77C135.096 179.646 135.912 182.429 136.224 183.489C136.709 185.17 134.283 186.555 131.441 187.179Z" fill="#505484"/>
<path d="M127.907 176.507C127.907 176.507 122.083 177.131 119.657 175.746C117.232 174.361 113.766 176.578 113.766 176.578C113.766 176.578 103.783 176.37 100.457 175.33C97.1309 174.289 100.941 169.152 106.349 169.647C108.319 169.825 109.652 169.393 110.553 168.775C111.494 168.13 112.15 167.148 112.384 166.031L124.089 166.724L125.715 170.872L127.907 176.507Z" fill="#505484"/>
<path opacity="0.1" d="M125.894 172.765C125.894 172.765 112.289 170.541 110.553 168.775C111.494 168.13 112.149 167.148 112.383 166.031L124.089 166.724L125.715 170.872L125.894 172.765Z" fill="black"/>
<path d="M105.724 94.9352L105.864 115.239C105.864 115.239 106.348 130.487 106.348 132.568C106.348 134.649 106.417 139.288 106.417 139.288C106.417 139.288 107.457 144.971 108.082 146.844C108.706 148.717 109.19 157.248 109.19 157.248C109.19 157.248 110.647 159.605 110.023 160.499C109.398 161.393 112.448 163.341 112.448 163.341C112.448 163.341 110.497 166.046 110.371 167.847C110.244 169.648 125.894 172.207 125.894 172.207L119.797 109.695L114.942 94.0342L105.724 94.9352Z" fill="#575988"/>
<path opacity="0.1" d="M105.724 94.9352L105.864 115.239C105.864 115.239 106.348 130.487 106.348 132.568C106.348 134.649 106.417 139.288 106.417 139.288C106.417 139.288 107.457 144.971 108.082 146.844C108.706 148.717 109.19 157.248 109.19 157.248C109.19 157.248 110.647 159.605 110.023 160.499C109.398 161.393 112.448 163.341 112.448 163.341C112.448 163.341 110.497 166.046 110.371 167.847C110.244 169.648 125.894 172.207 125.894 172.207L119.797 109.695L114.942 94.0342L105.724 94.9352Z" fill="black"/>
<path opacity="0.1" d="M134.544 177.786C130.014 188.584 119.242 180.251 119.242 180.251C119.242 180.251 119.242 180.043 119.216 179.685C119.84 179.11 120.211 178.71 120.211 178.71L134.007 175.937C134.007 175.937 134.232 176.723 134.544 177.786Z" fill="black"/>
<path d="M134.699 176.853C130.261 188.233 119.241 179.695 119.241 179.695C119.241 179.695 118.893 173.804 119.589 171.102C120.285 168.4 118.825 160.288 118.825 160.288C118.825 160.288 117.992 153.08 117.232 151.419C116.471 149.757 116.539 146.428 116.539 146.152C116.539 145.876 116.815 143.655 116.191 142.13C115.567 140.605 115.216 136.863 115.216 136.863C115.216 136.863 115.216 131.596 114.591 128.478L112.442 117.749L108.56 95.7768L109.772 95.5688L131.503 91.7588C131.503 91.7588 135.593 112.567 134.205 114.699C133.906 115.168 133.642 116.192 133.424 117.512C132.631 122.233 132.335 130.709 132.335 130.709C132.335 130.709 135.037 134.935 134 137.917C132.963 140.898 134.975 145.817 134.975 145.817C134.975 145.817 135.6 165.224 134.419 167.165C133.239 169.106 134.699 176.853 134.699 176.853Z" fill="#575988"/>
<path d="M132.618 34.9846C132.618 34.9846 112.933 48.845 117.368 41.913C119.758 38.1805 119.319 33.4272 118.383 29.8379C117.909 28.0122 117.256 26.2381 116.432 24.5416C116.432 24.5416 133.158 17.4279 130.94 23.8036C130.42 25.2889 130.199 26.8623 130.29 28.4333C130.423 30.7949 131.231 33.0687 132.618 34.9846Z" fill="#FBBEBE"/>
<path d="M97.176 66.7282C97.176 66.7282 88.859 64.3252 87.474 66.6822C86.088 69.0402 87.89 74.2122 90.4 75.0452C92.91 75.8772 98.672 72.2262 98.672 72.2262L97.176 66.7282Z" fill="#FBBEBE"/>
<path d="M106.697 62.6406L103.231 65.8296C103.231 65.8296 97.199 66.3826 95.466 65.9666C95.466 65.9666 97.0629 76.6396 94.7729 77.9566L108.775 75.1156L106.697 62.6406Z" fill="#585B8A"/>
<path opacity="0.1" d="M106.697 62.6406L103.231 65.8296C103.231 65.8296 97.199 66.3826 95.466 65.9666C95.466 65.9666 97.0629 76.6396 94.7729 77.9566L108.775 75.1156L106.697 62.6406Z" fill="black"/>
<path opacity="0.1" d="M62.196 16.8288C62.196 19.5881 61.1 22.2344 59.149 24.1855C57.197 26.1366 54.551 27.2327 51.791 27.2327C46.452 24.6675 41.386 22.5802 41.386 16.8288C41.331 15.429 41.559 14.0325 42.056 12.7229C42.554 11.4133 43.311 10.2177 44.282 9.20777C45.252 8.19777 46.417 7.39427 47.706 6.84537C48.995 6.29657 50.382 6.01367 51.783 6.01367C53.184 6.01367 54.571 6.29657 55.86 6.84537C57.149 7.39427 58.313 8.19777 59.284 9.20777C60.255 10.2177 61.012 11.4133 61.51 12.7229C62.007 14.0325 62.235 15.429 62.18 16.8288H62.196Z" fill="black"/>
<path d="M62.1949 16.5468C62.1969 18.9936 61.3339 21.3623 59.7599 23.2353C58.1849 25.1083 55.9999 26.3652 53.5889 26.7843C51.1779 27.2035 48.6969 26.758 46.5819 25.5264C44.4679 24.2948 42.8559 22.3562 42.0319 20.0525C41.2069 17.7488 41.2229 15.228 42.0749 12.9346C42.9279 10.6412 44.5629 8.72248 46.6929 7.51688C48.8219 6.31138 51.3089 5.89638 53.7139 6.34508C56.1199 6.79378 58.2899 8.07737 59.8409 9.96957C61.3609 11.8252 62.1919 14.1486 62.1949 16.5468Z" fill="#FFD6D6"/>
<path opacity="0.1" d="M68.2599 80.1639C67.2309 80.8039 66.1539 81.3619 65.0379 81.8359C65.0379 81.8359 59.7709 81.0719 59.0099 81.9719C58.2489 82.8729 51.5309 83.2209 51.5309 83.2209C51.5309 83.2209 41.2719 82.7359 39.7469 81.4189C39.2759 81.0379 38.7509 80.7269 38.1899 80.4959L38.3589 77.8629C38.3589 77.8629 64.7909 76.1979 66.9179 78.2299C67.4709 78.7949 67.9249 79.4489 68.2599 80.1639Z" fill="black"/>
<path d="M69.5452 78.302C69.3362 79.479 65.0382 81.28 65.0382 81.28C65.0382 81.28 59.7703 80.519 59.0093 81.42C58.2493 82.32 51.5313 82.668 51.5313 82.668C51.5313 82.668 41.2722 82.18 39.7472 80.864C38.2222 79.547 34.8242 78.913 34.8242 78.913C34.8242 78.913 33.0912 66.578 33.7872 63.876C34.4832 61.174 32.7472 53.755 32.3302 51.121C31.9142 48.488 33.5072 41.212 35.4492 40.035C37.3902 38.8576 40.1632 34.9041 41.8252 33.7272C43.2262 32.7356 44.7742 31.4513 45.2262 31.0644L45.3592 30.9539C45.3592 30.9539 45.6392 28.8048 46.7482 27.7027C47.8572 26.6005 58.0443 34.7026 58.0443 34.7026C58.0443 34.7026 58.1152 35.3268 58.8082 34.1499C58.9642 33.8865 60.3072 35.8242 60.5412 36.6435C60.5412 36.6435 66.0852 46.348 66.4332 48.348C66.7812 50.347 68.2342 56.873 68.5112 58.466C68.5822 58.875 68.6992 60.313 68.8362 62.237C68.8622 62.614 68.8842 63.014 68.9142 63.43C69.1192 66.623 69.3403 70.7 69.4733 73.782C69.4733 74.133 69.5022 74.472 69.5122 74.797C69.5822 75.964 69.5932 77.134 69.5452 78.302Z" fill="#DCE6F2"/>
<path opacity="0.1" d="M34.3472 53.2803C34.3472 53.2803 38.1582 57.9233 39.4062 57.9233C40.6552 57.9233 34.3472 53.2803 34.3472 53.2803Z" fill="black"/>
<path opacity="0.1" d="M42.3742 63.2617C42.3742 63.2617 36.1342 70.0537 36.9672 71.3017C37.7992 72.5497 42.3742 63.2617 42.3742 63.2617Z" fill="black"/>
<path opacity="0.1" d="M37.7998 76.7772C37.7998 76.7772 44.9528 68.9452 45.2778 66.2432L37.7998 76.7772Z" fill="black"/>
<path opacity="0.1" d="M46.8101 77.3307C46.8101 77.3307 55.0591 72.9637 55.7511 69.4987C56.4441 66.0327 46.8101 77.3307 46.8101 77.3307Z" fill="black"/>
<path opacity="0.1" d="M57.2768 35.1949L56.1318 37.9649L58.0378 38.8655L59.9108 44.1C59.9108 44.1 65.0738 54.426 64.8658 59.797C64.6578 65.168 65.8018 73.241 65.8018 73.241L68.7808 72.688L67.3758 56.89C67.1578 54.444 66.5448 52.05 65.5618 49.799C63.1818 44.35 58.7528 34.291 58.4728 34.291C58.0928 34.291 58.3598 34.4308 58.3598 34.4308L57.2768 35.1949Z" fill="black"/>
<path d="M57.5532 34.9152L56.4092 37.6885L58.3172 38.5891L60.1872 43.824C60.1872 43.824 65.3502 54.15 65.1422 59.521C64.9342 64.892 66.0792 72.9641 66.0792 72.9641L69.0612 72.412L67.6532 56.614C67.4362 54.168 66.8252 51.773 65.8412 49.523C63.4612 44.071 59.0332 34.0146 58.7562 34.0146C58.3732 34.0146 58.6392 34.1544 58.6392 34.1544L57.5532 34.9152Z" fill="#575989"/>
<path d="M91.3071 75.647C89.8571 75.536 86.3781 73.778 84.9961 73.046L84.4111 72.721L84.4821 67.353C84.8241 67.152 85.1781 66.973 85.5421 66.817C87.3891 66.01 91.1771 64.915 93.0761 68.442C95.6381 73.173 93.1441 75.771 91.3071 75.647Z" fill="#FFD6D6"/>
<path opacity="0.1" d="M59.8412 9.97039C59.6932 10.0637 59.5292 10.1308 59.3572 10.1687C58.1512 10.4321 56.7792 9.39489 55.7452 10.0614C55.1142 10.4711 54.9672 11.3197 54.8832 12.0675C54.7352 13.368 54.5882 14.6598 54.4412 15.9429C54.4102 16.3997 54.3132 16.8498 54.1542 17.2792C53.6442 18.4464 52.2432 18.9958 50.9652 18.9763C50.4642 19.012 49.9702 18.8483 49.5892 18.5211C49.3652 18.2936 49.2452 17.975 48.9972 17.7669C47.3722 16.4046 46.8772 19.7436 47.3072 20.693C47.9962 22.2438 50.4442 23.7394 49.4172 25.7096C49.2442 26.0298 48.9822 26.293 48.6632 26.4672C47.1142 25.9823 45.7012 25.1421 44.5352 24.0136C43.3692 22.8851 42.4832 21.4997 41.9492 19.968C41.4142 18.4362 41.2452 16.8007 41.4552 15.192C41.6652 13.5832 42.2482 12.0459 43.1582 10.7028C44.0682 9.35969 45.2802 8.24799 46.6972 7.45659C48.1132 6.66519 49.6952 6.21589 51.3162 6.14479C52.9372 6.07359 54.5522 6.38249 56.0322 7.04679C57.5132 7.71099 58.8172 8.71219 59.8412 9.97039Z" fill="black"/>
<path d="M48.723 17.7549C48.966 17.9598 49.09 18.2784 49.314 18.506C49.695 18.8329 50.189 18.9964 50.69 18.9611C51.968 18.9806 53.369 18.4344 53.876 17.2607C54.038 16.8331 54.136 16.3839 54.166 15.9277L54.608 12.0523C54.692 11.3045 54.835 10.4559 55.47 10.0463C56.504 9.39602 57.876 10.4169 59.082 10.1536C59.517 10.043 59.893 9.77111 60.135 9.39311C60.376 9.01511 60.465 8.55932 60.383 8.11832C60.243 7.49732 59.768 7.00641 59.524 6.41461C59.376 5.96001 59.258 5.49621 59.17 5.02641C58.497 2.50341 55.535 1.08591 52.959 1.50851C51.529 1.74591 50.199 2.42861 48.765 2.63671C47.737 2.78631 46.687 2.68872 45.65 2.79932C44.686 2.89872 43.749 3.17542 42.886 3.61532C42.659 3.71562 42.459 3.86692 42.301 4.05752C42.153 4.31492 42.054 4.59692 42.008 4.88982C41.66 6.19032 40.542 7.14942 39.732 8.24512C38.806 9.50572 38.27 11.0103 38.191 12.5725C38.159 12.9715 38.196 13.3729 38.301 13.7592C38.37 13.9868 38.477 14.2078 38.529 14.4419C38.688 15.1539 38.324 15.866 38.145 16.5747C37.923 17.4792 38.003 18.4315 38.373 19.2863C39.621 22.1571 43.735 23.1162 44.59 26.1301C45.349 26.4942 46.169 26.7146 47.009 26.7804C47.848 26.7966 48.752 26.4357 49.142 25.6912C50.166 23.7404 47.721 22.2254 47.032 20.6778C46.599 19.7252 47.084 16.3894 48.723 17.7549Z" fill="#353045"/>
<path opacity="0.1" d="M130.957 23.8036C130.437 25.2889 130.216 26.8623 130.307 28.4333C129.806 28.8593 129.26 27.5848 128.681 27.9132C127.094 28.83 125.26 31.0116 123.296 31.0116C121.593 31.0127 119.914 30.6105 118.396 29.8379C117.923 28.0122 117.269 26.2381 116.445 24.5416C116.445 24.5416 133.175 17.4279 130.957 23.8036Z" fill="black"/>
<path d="M134.097 19.6456C134.097 21.7844 133.462 23.875 132.274 25.6533C131.086 27.4316 129.397 28.8176 127.421 29.6361C125.444 30.4545 123.27 30.6687 121.172 30.2514C119.074 29.8342 117.147 28.8043 115.635 27.292C114.122 25.7797 113.092 23.8529 112.675 21.7553C112.258 19.6576 112.472 17.4834 113.291 15.5074C114.109 13.5315 115.495 11.8427 117.274 10.6544C119.052 9.46623 121.143 8.83203 123.282 8.83203C124.702 8.83163 126.109 9.11103 127.421 9.65433C128.733 10.1976 129.926 10.9941 130.93 11.9983C131.934 13.0025 132.731 14.1948 133.274 15.5069C133.818 16.8191 134.097 18.2254 134.097 19.6456Z" fill="#FBBEBE"/>
<path d="M133.637 37.3884C133.637 37.3884 131.601 39.606 131.325 39.788C131.048 39.97 125.147 64.822 125.043 65.112C124.939 65.401 118.23 93.934 118.23 93.934L106.83 95.33L105.9 76.254L107.852 65.846L115.981 43.211C115.981 43.211 118.663 40.162 119.492 39.053C120.322 37.9443 130.675 31.2891 130.675 31.2891L132.443 34.9337L133.637 37.3884Z" fill="#F0F3F7"/>
<path opacity="0.1" d="M132.171 35.4903L119.419 44.62L119.214 39.606C120.046 38.4977 130.396 31.8457 130.396 31.8457L132.171 35.4903Z" fill="black"/>
<path d="M132.447 34.9337L119.694 44.063L119.496 39.053C120.328 37.9411 130.678 31.2891 130.678 31.2891L132.447 34.9337Z" fill="#F0F3F7"/>
<path d="M119.496 36.9381V39.052L116.644 41.949L118.92 36.8545C118.92 36.8545 114.043 40.252 112.58 41.153C111.116 42.053 109.653 45.103 109.598 45.935C109.543 46.767 107.24 59.311 107.24 59.311C107.24 59.311 105.507 63.954 105.995 65.27C106.483 66.587 103.361 108.102 103.361 108.102C103.779 107.296 104.368 106.591 105.089 106.039C105.809 105.487 106.643 105.1 107.53 104.906L106.418 80.372C106.418 80.372 109.088 65.062 109.157 64.854C109.225 64.646 111.419 54.29 111.419 54.29L119.496 36.9381Z" fill="#585B8A"/>
<path opacity="0.1" d="M119.776 39.3301L119.555 43.8821C119.555 43.8821 116.469 53.6191 115.432 55.2121C114.394 56.8051 112.181 66.7161 112.181 66.7161L109.458 82.7991L106.408 84.1871L104.906 81.4211L108.348 65.9041C108.348 65.9041 112.115 52.0461 112.811 50.6571L116.287 43.3361L119.776 39.3301Z" fill="black"/>
<path d="M119.495 39.0547L119.277 43.6057C119.277 43.6057 116.191 53.3437 115.151 54.9367C114.11 56.5297 111.948 66.2517 111.948 66.2517L109.191 82.5197L106.141 83.9047L104.616 81.1347L108.101 65.4287C108.101 65.4287 111.824 51.7567 112.517 50.3717L116.019 43.0597L119.495 39.0547Z" fill="#ED677B"/>
<path d="M83.5449 73.7952L89.5059 77.9212C89.5059 77.9212 93.7099 75.5642 91.2609 74.0392C88.8129 72.5142 86.6409 72.2832 85.8539 72.2832C85.0669 72.2832 83.5449 73.7952 83.5449 73.7952Z" fill="#FBBEBE"/>
<path d="M87.9979 66.1683C87.8649 66.2513 87.7549 66.3673 87.6799 66.5043C87.6039 66.6413 87.5649 66.7953 87.5649 66.9523C87.5649 68.2173 87.7089 71.5653 88.7689 70.0543C90.0689 68.2043 89.8319 66.5423 91.8179 67.7423C93.0529 68.5113 94.1339 69.5033 95.0049 70.6683L94.4519 66.6953C94.4519 66.6953 90.3679 64.6793 87.9979 66.1683Z" fill="#FBBEBE"/>
<path opacity="0.1" d="M134.212 114.688C133.913 115.156 133.649 116.18 133.432 117.5C121.277 121.145 112.384 113.439 112.384 113.439C111.308 109.794 110.429 106.093 109.75 102.353C109.533 101.072 109.581 98.5881 109.783 95.5581L131.513 91.7471C131.513 91.7471 135.6 112.539 134.212 114.688Z" fill="black"/>
<path d="M146.689 52.656C146.136 54.461 146.344 58.131 146.344 58.131L141.353 81.696C141.353 81.696 138.927 99.854 138.511 102.28C138.095 104.705 137.402 115.379 137.402 115.379C123.261 122.311 112.365 112.885 112.365 112.885C111.289 109.238 110.41 105.537 109.731 101.795C109.035 97.679 111.084 81.189 112.053 73.864C112.342 71.696 112.537 70.33 112.537 70.33L116.176 56.815C116.176 56.815 120.647 45.413 122.312 42.087C123.976 38.7605 130.662 31.2892 130.662 31.2892C131.491 30.7625 132.817 32.6222 133.803 34.3161C134.547 35.5971 135.103 36.787 135.103 36.787C135.103 36.787 143.421 40.389 144.666 42.314C145.911 44.239 145.707 48.205 145.846 48.413C145.986 48.622 147.245 50.855 146.689 52.656Z" fill="#585B8A"/>
<path opacity="0.1" d="M127.075 44.272C127.075 44.272 127.699 47.946 126.099 49.055C124.555 50.128 113.057 72.7341 112.342 74.1451C112.631 71.9731 112.826 70.607 112.826 70.607L116.465 57.095C116.465 57.095 120.939 45.693 122.601 42.364C124.262 39.035 130.954 31.5665 130.954 31.5665C131.783 31.0398 133.106 32.8996 134.092 34.5934C132.606 37.6789 129.507 43.512 127.075 44.272Z" fill="black"/>
<path d="M149.248 78.8383L145.336 99.1873V99.1903L144.962 101.138V101.141L144.12 105.521L140.527 104.76L138.853 104.405L115.679 99.4963L113.975 99.1353L110.086 98.3133L110.847 93.2603L111.162 91.1603L113.968 72.5303L149.248 78.8383Z" fill="#ED677B"/>
<path opacity="0.3" d="M115.85 99.4782L114.146 99.1182L110.785 93.4682L111.101 91.3682L115.85 99.4782Z" fill="black"/>
<path d="M126.799 43.995C126.799 43.995 127.42 47.669 125.824 48.778C124.227 49.886 112.785 72.453 112.06 73.864C112.349 71.696 112.545 70.33 112.545 70.33L116.183 56.815C116.183 56.815 120.654 45.413 122.319 42.087C123.984 38.7605 130.669 31.2892 130.669 31.2892C131.498 30.7625 132.825 32.6222 133.81 34.3161C132.33 37.3983 129.228 43.234 126.799 43.995Z" fill="#585B8A"/>
<path d="M121.667 93.8281C121.667 93.8281 112.449 97.1541 114.458 101.104C116.468 105.055 129.36 98.0551 129.36 98.0551L121.667 93.8281Z" fill="#FBBEBE"/>
<path opacity="0.1" d="M128.251 122.172C128.251 122.448 128.599 125.986 129.985 127.231C131.37 128.476 128.251 122.172 128.251 122.172Z" fill="black"/>
<path opacity="0.1" d="M118.964 134.714C118.964 134.714 120.626 139.288 127.21 141.161C133.795 143.034 118.964 134.714 118.964 134.714Z" fill="black"/>
<path opacity="0.1" d="M134.098 19.648C134.099 21.549 133.598 23.4165 132.646 25.0621C131.695 26.7078 130.326 28.0734 128.678 29.0213C128.057 28.6738 127.506 28.2141 127.052 27.6656C126.581 27.0934 126.213 26.3131 126.496 25.6303C126.724 25.0809 127.325 24.733 127.472 24.164C127.541 23.8161 127.523 23.4565 127.42 23.1171C127.299 22.5807 127.186 22.0442 127.069 21.511C126.968 21.0558 126.789 20.5194 126.337 20.4088C125.885 20.2983 125.508 20.6754 125.153 20.955C124.285 21.641 122.62 22.106 121.577 21.5435C120.533 20.981 120.826 19.0986 120.656 18.0809C120.654 17.9925 120.633 17.9057 120.594 17.8265C120.554 17.7473 120.498 17.6776 120.429 17.6225C120.277 17.5721 120.115 17.5609 119.957 17.59C119.395 17.59 118.943 17.0861 118.78 16.5464C118.665 15.9954 118.602 15.4348 118.592 14.872C118.53 14.3095 118.325 13.7145 117.844 13.4252C117.459 13.2462 117.033 13.1765 116.611 13.2236L114.573 13.2464C115.925 11.4181 117.82 10.0626 119.987 9.37278C122.154 8.68298 124.484 8.69387 126.644 9.40387C128.805 10.114 130.687 11.487 132.022 13.3279C133.357 15.1688 134.078 17.3837 134.082 19.6578L134.098 19.648Z" fill="black"/>
<path d="M125.442 20.9542C125.797 20.6746 126.187 20.3039 126.626 20.4112C127.065 20.5185 127.253 21.0615 127.354 21.5101L127.705 23.113C127.809 23.4533 127.828 23.8138 127.761 24.1631C127.595 24.7353 126.997 25.08 126.766 25.6294C126.483 26.3122 126.853 27.0925 127.322 27.6615C128.176 28.6906 129.357 29.3963 130.668 29.661C131.01 29.7432 131.366 29.751 131.711 29.6837C132.485 29.5049 133.012 28.7929 133.428 28.1264C135.577 24.7776 137.428 21.107 137.805 17.147C137.908 16.3393 137.871 15.5197 137.694 14.7248C137.518 14.1069 137.269 13.5122 136.953 12.9529C136.399 11.8103 135.696 10.7465 134.862 9.78941C133.383 8.19631 131.341 7.21771 129.243 6.63901C126.884 5.98451 124.421 5.79131 121.989 6.07001C121.339 6.14481 120.715 6.25212 120.074 6.29442C119.27 6.33182 118.464 6.31871 117.661 6.25531L112.875 5.96921C112.602 6.52521 112.875 7.18521 113.2 7.70541C113.525 8.22561 113.928 8.76532 113.902 9.38302C113.876 10.0008 113.437 10.4885 113.099 11.0086C112.761 11.5288 112.504 12.2019 112.842 12.709C113.181 13.2162 113.87 13.2487 114.468 13.2422L116.881 13.2162C117.301 13.173 117.725 13.2461 118.107 13.4276C118.588 13.7169 118.793 14.3151 118.855 14.8744C118.868 15.4369 118.931 15.9973 119.043 16.5488C119.209 17.0885 119.658 17.5989 120.22 17.5924C120.378 17.561 120.541 17.5733 120.692 17.6282C120.761 17.6826 120.817 17.7517 120.856 17.8303C120.896 17.909 120.917 17.9954 120.919 18.0833C121.088 19.101 120.776 20.9802 121.84 21.5459C122.903 22.1116 124.574 21.6402 125.442 20.9542Z" fill="#85555C"/>
<path opacity="0.1" d="M139.187 42.31C137.992 42.183 136.789 42.466 135.775 43.113C134.762 43.76 133.999 44.732 133.611 45.87C132.31 49.573 130.141 56.2539 130.684 58.8939C131.448 62.6369 132.349 68.876 132.349 68.876C132.349 68.876 136.3 71.152 134.3 73.447C132.3 75.742 131.735 78.994 131.735 78.994C131.735 78.994 129.169 80.102 128.616 82.459C128.064 84.817 124.318 88.071 124.318 88.071L118.706 93.686C118.706 93.686 127.992 103.114 129.865 103.596L135.617 96.8719L142.41 87.863L148.301 81.686C148.301 81.686 149.687 78.434 148.994 72.257C148.301 66.08 145.596 60.198 145.596 60.198L145.804 58.117C145.804 58.117 146.441 43.211 139.187 42.31Z" fill="black"/>
<path d="M139.74 42.311C138.545 42.186 137.343 42.47 136.332 43.117C135.32 43.763 134.557 44.7351 134.17 45.8711C132.869 49.5741 130.7 56.2561 131.243 58.8961C132.004 62.6381 132.905 68.877 132.905 68.877C132.905 68.877 136.855 71.153 134.856 73.448C132.856 75.744 132.294 78.995 132.294 78.995C132.294 78.995 129.728 80.104 129.172 82.461C128.616 84.818 124.877 88.0721 124.877 88.0721L119.261 93.687C119.261 93.687 128.548 103.116 130.421 103.597L136.173 96.8731L142.949 87.864L148.841 81.687C148.841 81.687 150.229 78.436 149.533 72.258C148.838 66.081 146.139 60.199 146.139 60.199L146.347 58.1191C146.347 58.1191 146.994 43.212 139.74 42.311Z" fill="#585B8A"/>
<path opacity="0.1" d="M133.936 63.4023C133.936 63.4023 139.827 70.6074 142.325 69.0144C144.822 67.4214 133.936 63.4023 133.936 63.4023Z" fill="black"/>
<path opacity="0.1" d="M136.153 57.8555C136.777 58.0645 141.908 65.2035 144.542 64.3585C147.176 63.5135 136.153 57.8555 136.153 57.8555Z" fill="black"/>
<path opacity="0.1" d="M137.609 70.1201C137.609 70.1201 137.957 74.2101 142.184 73.6541C146.411 73.0981 137.609 70.1201 137.609 70.1201Z" fill="black"/>
<path opacity="0.1" d="M118.93 37.1318L116.644 42.227L119.499 39.33L118.93 37.1318Z" fill="black"/>
<path d="M118.93 36.8545L116.644 41.949L119.499 39.052L118.93 36.8545Z" fill="#F0F3F7"/>
<path opacity="0.3" d="M145.417 99.0518L145.043 100.999V101.002L139.445 104.524L137.771 104.17L145.417 99.0518Z" fill="black"/>
<path opacity="0.1" d="M69.5021 74.8111C68.6441 74.9541 67.8111 75.0841 67.0501 75.1811C62.8231 75.7371 52.7701 70.7471 52.7701 70.7471C52.7701 70.7471 40.5011 60.4891 36.9671 50.7871C33.4321 41.0861 41.1941 39.6291 41.1941 39.6291C44.1201 37.9647 50.4841 42.6071 51.3841 43.3711C52.2851 44.1351 53.0491 46.0731 52.9781 47.3221C52.9061 48.5701 55.0591 50.1631 55.0591 50.1631C55.0591 50.1631 58.7331 56.5391 59.6341 57.2311C60.5341 57.9241 60.7421 58.5481 61.0191 59.7281C61.2951 60.9091 63.7211 61.8771 64.7611 61.8061C65.8021 61.7341 67.0371 62.1541 67.0371 62.7061C67.0371 63.1521 68.0551 63.3731 68.8911 63.4441C69.1381 66.9981 69.3821 71.6541 69.5021 74.8111Z" fill="black"/>
<path opacity="0.1" d="M69.4629 73.796C68.8129 73.9 68.1889 73.994 67.6029 74.072C63.3759 74.628 53.3259 69.637 53.3259 69.637C53.3259 69.637 41.0579 59.38 37.5229 49.678C33.9889 39.976 41.7499 38.5198 41.7499 38.5198C44.6769 36.8552 51.0369 41.498 51.9369 42.262C52.8379 43.026 53.6019 44.964 53.5339 46.212C53.4659 47.461 55.6119 49.054 55.6119 49.054C55.6119 49.054 59.2859 55.429 60.1869 56.122C61.0869 56.815 61.2949 57.439 61.5749 58.619C61.8549 59.799 64.2769 60.765 65.3179 60.696C66.3579 60.628 67.5939 61.044 67.5939 61.597C67.5939 61.922 68.1719 62.14 68.8159 62.247C68.8419 62.624 68.8649 63.024 68.8939 63.441C69.1089 66.636 69.3299 70.714 69.4629 73.796Z" fill="black"/>
<path opacity="0.1" d="M85.5421 66.8145L85.2791 73.0445H84.9961L84.4111 72.7194L84.4821 67.3514C84.8241 67.1504 85.1781 66.9715 85.5421 66.8145Z" fill="black"/>
<path d="M41.1941 39.0723C41.1941 39.0723 33.4321 40.5293 36.9671 50.2313C40.5011 59.9323 52.7701 70.1933 52.7701 70.1933C52.7701 70.1933 62.8201 75.1813 67.0501 74.6283C71.2811 74.0753 77.7221 72.6193 78.5551 72.8273C79.3871 73.0353 85.0021 73.0353 85.0021 73.0353L85.2791 66.5323L78.7761 66.1843L75.4491 65.4923C75.4491 65.4923 74.2691 64.5173 73.5761 64.6603C72.8841 64.8033 71.4301 63.8273 71.4301 63.8273C71.4301 63.8273 70.3181 62.9273 69.4791 62.9273C68.6401 62.9273 67.0541 62.7193 67.0541 62.1663C67.0541 61.6133 65.8051 61.1913 64.7781 61.2653C63.7501 61.3403 61.2951 60.3653 61.0091 59.1723C60.7231 57.9783 60.5251 57.3703 59.6241 56.6783C58.7231 55.9853 55.0491 49.6063 55.0491 49.6063C55.0491 49.6063 52.9001 48.0133 52.9681 46.7683C53.0361 45.5233 52.2751 43.5793 51.3751 42.8153C50.4741 42.0513 44.1011 37.4114 41.1941 39.0723Z" fill="#DCE6F2"/>
<path opacity="0.1" d="M61.1598 61.3887C61.1598 61.3887 58.1778 64.3697 58.9388 64.9227L61.1598 61.3887Z" fill="black"/>
<path opacity="0.1" d="M64.3462 63.7461C64.3462 63.7461 60.4642 66.7271 61.5042 66.9361C62.5452 67.1441 64.3462 63.7461 64.3462 63.7461Z" fill="black"/>
<path opacity="0.1" d="M57.7588 68.168C58.3148 68.448 66.5608 73.37 69.6818 73.298L57.7588 68.168Z" fill="black"/>
<path opacity="0.1" d="M58.317 35.2635C58.317 35.2635 56.861 40.046 56.304 40.046C55.869 40.046 48.553 34.1223 45.5 31.6319L45.633 31.5214C45.633 31.5214 45.909 29.3723 47.018 28.2701C48.127 27.168 58.317 35.2635 58.317 35.2635Z" fill="black"/>
<path d="M58.0382 34.7059C58.0382 34.7059 56.5842 39.488 56.0282 39.488C55.5892 39.488 48.2732 33.5647 45.2202 31.0743L45.3542 30.9637C45.3542 30.9637 45.6332 28.8147 46.7422 27.7125C47.8512 26.6103 58.0382 34.7059 58.0382 34.7059Z" fill="#DCE6F2"/>
<g opacity="0.15">
<path opacity="0.15" d="M38.4092 19.252C39.3842 21.479 42.0702 22.5585 43.6272 24.3336C42.7012 22.152 39.9922 21.0824 38.4092 19.252Z" fill="black"/>
<path opacity="0.15" d="M48.3482 24.3821C47.9612 25.1267 47.0472 25.4876 46.2152 25.4713C45.4752 25.4182 44.7502 25.2332 44.0752 24.9251C44.3202 25.286 44.5072 25.6832 44.6282 26.102C45.3872 26.4668 46.2072 26.6873 47.0472 26.7523C47.8892 26.7718 48.7932 26.4109 49.1802 25.6631C49.8012 24.4764 49.1542 23.462 48.3972 22.5029C48.5382 22.7977 48.6072 23.1217 48.5982 23.4484C48.5902 23.7751 48.5042 24.0951 48.3482 24.3821Z" fill="black"/>
<path opacity="0.15" d="M60.4152 8.08713C60.2762 7.46293 59.8012 6.97203 59.5572 6.38353C59.4082 5.92823 59.2892 5.46323 59.2032 4.99203C59.0182 4.32553 58.6752 3.71333 58.2042 3.20703C58.2702 3.36713 58.3252 3.53103 58.3702 3.69803C58.4612 4.17133 58.5832 4.63833 58.7342 5.09603C58.9782 5.68453 59.4532 6.17543 59.5932 6.79963C59.6752 7.24063 59.5872 7.69643 59.3452 8.07453C59.1032 8.45253 58.7272 8.72443 58.2922 8.83493C57.0892 9.09833 55.7172 8.05793 54.6832 8.72763C54.0492 9.13403 53.9032 9.98263 53.8182 10.7304C53.6732 12.0309 53.5252 13.3238 53.3762 14.6091C53.3462 15.0651 53.2502 15.5142 53.0902 15.9421C52.5792 17.1125 51.1782 17.662 49.9002 17.6425C49.4012 17.6758 48.9082 17.5125 48.5282 17.1873C48.3432 16.9255 48.1442 16.6738 47.9332 16.433C46.3072 15.0675 45.8132 18.4065 46.2422 19.3591C46.4572 19.7877 46.7232 20.1884 47.0352 20.5523C46.6782 19.4794 47.1782 16.3908 48.7652 17.714C48.9772 17.954 49.1742 18.2058 49.3572 18.4683C49.7392 18.793 50.2322 18.9563 50.7322 18.9235C52.0102 18.943 53.4122 18.3935 53.9222 17.2231C54.0832 16.7942 54.1792 16.3439 54.2082 15.8868C54.3562 14.5863 54.5032 13.2945 54.6502 12.0114C54.7352 11.2636 54.8812 10.415 55.5122 10.0086C56.5492 9.33893 57.9212 10.3792 59.1252 10.1126C59.5562 10.0008 59.9292 9.72973 60.1692 9.35383C60.4082 8.97803 60.4962 8.52543 60.4152 8.08713Z" fill="black"/>
</g>
<path opacity="0.1" d="M132.404 28.8544C132.058 28.9189 131.703 28.91 131.36 28.8284C130.051 28.5639 128.871 27.8595 128.018 26.8321C127.546 26.2599 127.176 25.4796 127.462 24.7969C127.689 24.2474 128.288 23.9028 128.437 23.3306C128.505 22.9813 128.486 22.6207 128.382 22.2804L128.031 20.6776C127.93 20.2224 127.754 19.6859 127.302 19.5786C126.85 19.4714 126.473 19.842 126.119 20.1216C125.251 20.8076 123.583 21.2758 122.542 20.7101C121.502 20.1444 121.791 18.2651 121.622 17.2475C121.619 17.1597 121.597 17.0735 121.558 16.995C121.519 16.9164 121.463 16.8473 121.394 16.7923C121.242 16.7393 121.078 16.727 120.92 16.7566C120.357 16.7566 119.908 16.2526 119.742 15.7129C119.63 15.1616 119.568 14.6012 119.557 14.0385C119.492 13.4793 119.29 12.8811 118.806 12.5917C118.424 12.4119 118 12.3389 117.58 12.3804L115.167 12.4064C114.572 12.4064 113.867 12.3674 113.542 11.8732C113.217 11.379 113.457 10.6768 113.799 10.1728C114.14 9.66886 114.572 9.16816 114.602 8.54716C114.631 7.92616 114.228 7.38976 113.899 6.86956C113.711 6.58506 113.573 6.27066 113.49 5.93966L112.797 5.89746C112.527 6.45016 112.797 7.11016 113.122 7.63356C113.447 8.15706 113.854 8.69346 113.825 9.30796C113.795 9.92246 113.363 10.4167 113.021 10.9336C112.68 11.4506 112.43 12.1268 112.768 12.634C113.106 13.1412 113.792 13.177 114.394 13.1705L116.806 13.1412C117.227 13.1005 117.65 13.1747 118.032 13.3558C118.517 13.6451 118.721 14.2434 118.783 14.8026C118.794 15.3654 118.857 15.926 118.972 16.477C119.134 17.0134 119.586 17.5271 120.149 17.5174C120.307 17.4895 120.469 17.5018 120.62 17.5531C120.689 17.6086 120.745 17.6782 120.784 17.7574C120.824 17.8365 120.845 17.9232 120.848 18.0116C121.017 19.0259 120.705 20.9084 121.768 21.4741C122.831 22.0398 124.49 21.5717 125.345 20.8856C125.699 20.606 126.093 20.2354 126.532 20.3394C126.971 20.4435 127.159 20.9897 127.257 21.4383L127.611 23.0445C127.714 23.385 127.732 23.7456 127.663 24.0946C127.501 24.6636 126.899 25.0115 126.672 25.5577C126.389 26.2404 126.756 27.024 127.228 27.5929C128.087 28.6247 129.275 29.3295 130.593 29.5892C130.935 29.6708 131.291 29.6797 131.637 29.6152C132.196 29.4449 132.675 29.0805 132.989 28.5878C132.812 28.7109 132.614 28.8012 132.404 28.8544Z" fill="black"/>
<defs>
<linearGradient id="paint0_linear" x1="88.4" y1="191.247" x2="88.4" y2="0.887303" gradientUnits="userSpaceOnUse">
<stop stop-color="#808080" stop-opacity="0.25"/>
<stop offset="0.54" stop-color="#808080" stop-opacity="0.12"/>
<stop offset="1" stop-color="#808080" stop-opacity="0.1"/>
</linearGradient>
</defs>
</svg>
