<svg width="14" height="14" viewBox="0 0 14 14" fill="none" xmlns="http://www.w3.org/2000/svg">
<rect width="14" height="14" fill="#E5E5E5"/>
<g clip-path="url(#clip0)">
<rect width="360" height="780" transform="translate(-21 -109)" fill="white"/>
<path d="M-1 13H15C15.55 13 16 12.55 16 12C16 11.45 15.55 11 15 11H-1C-1.55 11 -2 11.45 -2 12C-2 12.55 -1.55 13 -1 13ZM-1 8H15C15.55 8 16 7.55 16 7C16 6.45 15.55 6 15 6H-1C-1.55 6 -2 6.45 -2 7C-2 7.55 -1.55 8 -1 8ZM-2 2C-2 2.55 -1.55 3 -1 3H15C15.55 3 16 2.55 16 2C16 1.45 15.55 1 15 1H-1C-1.55 1 -2 1.45 -2 2Z" fill="white"/>
<g filter="url(#filter0_d)">
<rect width="360" height="72" transform="translate(-21 -29)" fill="white"/>
<path d="M-1 13H15C15.55 13 16 12.55 16 12C16 11.45 15.55 11 15 11H-1C-1.55 11 -2 11.45 -2 12C-2 12.55 -1.55 13 -1 13ZM-1 8H15C15.55 8 16 7.55 16 7C16 6.45 15.55 6 15 6H-1C-1.55 6 -2 6.45 -2 7C-2 7.55 -1.55 8 -1 8ZM-2 2C-2 2.55 -1.55 3 -1 3H15C15.55 3 16 2.55 16 2C16 1.45 15.55 1 15 1H-1C-1.55 1 -2 1.45 -2 2Z" fill="black"/>
</g>
<rect x="-21" y="-29" width="360" height="700" fill="white"/>
<path d="M13.3002 0.710215C12.9102 0.320215 12.2802 0.320215 11.8902 0.710215L7.00022 5.59022L2.11022 0.700215C1.72022 0.310215 1.09021 0.310215 0.700215 0.700215C0.310215 1.09021 0.310215 1.72022 0.700215 2.11022L5.59022 7.00022L0.700215 11.8902C0.310215 12.2802 0.310215 12.9102 0.700215 13.3002C1.09021 13.6902 1.72022 13.6902 2.11022 13.3002L7.00022 8.41021L11.8902 13.3002C12.2802 13.6902 12.9102 13.6902 13.3002 13.3002C13.6902 12.9102 13.6902 12.2802 13.3002 11.8902L8.41021 7.00022L13.3002 2.11022C13.6802 1.73022 13.6802 1.09022 13.3002 0.710215Z" fill="black"/>
</g>
<defs>
<filter id="filter0_d" x="-45" y="-51" width="408" height="120" filterUnits="userSpaceOnUse" color-interpolation-filters="sRGB">
<feFlood flood-opacity="0" result="BackgroundImageFix"/>
<feColorMatrix in="SourceAlpha" type="matrix" values="0 0 0 0 0 0 0 0 0 0 0 0 0 0 0 0 0 0 127 0"/>
<feOffset dy="2"/>
<feGaussianBlur stdDeviation="12"/>
<feColorMatrix type="matrix" values="0 0 0 0 0 0 0 0 0 0 0 0 0 0 0 0 0 0 0.14 0"/>
<feBlend mode="normal" in2="BackgroundImageFix" result="effect1_dropShadow"/>
<feBlend mode="normal" in="SourceGraphic" in2="effect1_dropShadow" result="shape"/>
</filter>
<clipPath id="clip0">
<rect width="360" height="780" fill="white" transform="translate(-21 -109)"/>
</clipPath>
</defs>
</svg>
