<svg width="46" height="46" viewBox="0 0 46 46" fill="none" xmlns="http://www.w3.org/2000/svg">
<path d="M27.2525 15.575L23 19.8275L18.7475 15.575C17.87 14.6975 16.4525 14.6975 15.575 15.575C14.6975 16.4525 14.6975 17.87 15.575 18.7475L19.8275 23L15.575 27.2525C14.6975 28.13 14.6975 29.5475 15.575 30.425C16.4525 31.3025 17.87 31.3025 18.7475 30.425L23 26.1725L27.2525 30.425C28.13 31.3025 29.5475 31.3025 30.425 30.425C31.3025 29.5475 31.3025 28.13 30.425 27.2525L26.1725 23L30.425 18.7475C31.3025 17.87 31.3025 16.4525 30.425 15.575C29.5475 14.72 28.1075 14.72 27.2525 15.575ZM23 0.5C10.5575 0.5 0.5 10.5575 0.5 23C0.5 35.4425 10.5575 45.5 23 45.5C35.4425 45.5 45.5 35.4425 45.5 23C45.5 10.5575 35.4425 0.5 23 0.5ZM23 41C13.0775 41 5 32.9225 5 23C5 13.0775 13.0775 5 23 5C32.9225 5 41 13.0775 41 23C41 32.9225 32.9225 41 23 41Z" fill="white"/>
</svg>
