<svg width="371" height="355" viewBox="0 0 371 355" fill="none" xmlns="http://www.w3.org/2000/svg">
<g clip-path="url(#clip0)">
<path d="M230.854 354.692H0V86.5829L34.8804 47.9014H230.854V354.692Z" fill="url(#paint0_linear)"/>
<path d="M227.289 346.539H4.07812V88.6755L37.8008 51.4707H227.289V346.539Z" fill="#FAFAFA"/>
<path d="M134.612 83.3203H25.8691V101.665H134.612V83.3203Z" fill="#E0E0E0"/>
<path d="M105.775 133.519H26.0879V151.863H105.775V133.519Z" fill="#E0E0E0"/>
<path d="M204.833 208.94H26.0879V276.208H204.833V208.94Z" fill="#007EFF"/>
<path d="M204.835 83.5752H164.33V101.92H204.835V83.5752Z" fill="#F5F5F5"/>
<path d="M204.835 112.116H164.33V130.461H204.835V112.116Z" fill="#F5F5F5"/>
<path d="M41.2784 51.4707V92.2397H4.07812V88.6755L37.7097 51.4707H41.2784Z" fill="url(#paint1_linear)"/>
<path d="M3.98828 88.6755L37.711 51.4707V88.6755H3.98828Z" fill="#EEEEEE"/>
<path d="M301.69 329.21H70.8359V61.1008L105.716 22.4238H301.69V329.21Z" fill="url(#paint2_linear)"/>
<path d="M298.127 321.056H74.916V63.1931L108.639 25.9883H298.127V321.056Z" fill="#FAFAFA"/>
<path d="M205.45 57.8418H96.707V76.1867H205.45V57.8418Z" fill="#E0E0E0"/>
<path d="M176.613 108.037H96.9258V126.382H176.613V108.037Z" fill="#E0E0E0"/>
<path d="M275.671 183.463H96.9258V250.731H275.671V183.463Z" fill="#007EFF"/>
<path d="M275.671 58.0977H235.166V76.4426H275.671V58.0977Z" fill="#F5F5F5"/>
<path d="M275.671 86.6338H235.166V104.979H275.671V86.6338Z" fill="#F5F5F5"/>
<path d="M112.116 25.9883V66.7573H74.916V63.1931L108.548 25.9883H112.116Z" fill="url(#paint3_linear)"/>
<path d="M74.8242 63.1931L108.547 25.9883V63.1931H74.8242Z" fill="#EEEEEE"/>
<path d="M371.001 306.791H140.146V38.6815L175.022 0H371.001V306.791Z" fill="url(#paint4_linear)"/>
<path d="M367.431 298.636H144.221V40.7686L177.948 3.56836H367.431V298.636Z" fill="white"/>
<path d="M274.759 35.418H166.016V53.7629H274.759V35.418Z" fill="#E0E0E0"/>
<path d="M245.922 85.6172H166.234V103.962H245.922V85.6172Z" fill="#E0E0E0"/>
<path d="M344.98 161.039H166.234V228.307H344.98V161.039Z" fill="#007EFF"/>
<path d="M344.979 35.6738H304.475V54.0187H344.979V35.6738Z" fill="#E0E0E0"/>
<path d="M344.979 64.209H304.475V82.5539H344.979V64.209Z" fill="#E0E0E0"/>
<path d="M344.979 92.75H304.475V111.095H344.979V92.75Z" fill="#E0E0E0"/>
<path d="M181.426 3.56836V44.3373H144.221V40.7686L177.857 3.56836H181.426Z" fill="url(#paint5_linear)"/>
<path d="M144.129 40.7686L177.856 3.56836V40.7686H144.129Z" fill="#EEEEEE"/>
</g>
<defs>
<linearGradient id="paint0_linear" x1="115.429" y1="354.692" x2="115.429" y2="47.9014" gradientUnits="userSpaceOnUse">
<stop offset="0.01" stop-color="#808080" stop-opacity="0.25"/>
<stop offset="0.54" stop-color="#808080" stop-opacity="0.12"/>
<stop offset="1" stop-color="#808080" stop-opacity="0.1"/>
</linearGradient>
<linearGradient id="paint1_linear" x1="22.6783" y1="92.2397" x2="22.6783" y2="51.4707" gradientUnits="userSpaceOnUse">
<stop stop-color="#B3B3B3" stop-opacity="0.25"/>
<stop offset="0.54" stop-color="#B3B3B3" stop-opacity="0.1"/>
<stop offset="1" stop-color="#B3B3B3" stop-opacity="0.05"/>
</linearGradient>
<linearGradient id="paint2_linear" x1="94416.3" y1="221617" x2="94416.3" y2="15116.3" gradientUnits="userSpaceOnUse">
<stop offset="0.01" stop-color="#808080" stop-opacity="0.25"/>
<stop offset="0.54" stop-color="#808080" stop-opacity="0.12"/>
<stop offset="1" stop-color="#808080" stop-opacity="0.1"/>
</linearGradient>
<linearGradient id="paint3_linear" x1="7707.67" y1="5997.83" x2="7707.67" y2="2350.64" gradientUnits="userSpaceOnUse">
<stop stop-color="#B3B3B3" stop-opacity="0.25"/>
<stop offset="0.54" stop-color="#B3B3B3" stop-opacity="0.1"/>
<stop offset="1" stop-color="#B3B3B3" stop-opacity="0.05"/>
</linearGradient>
<linearGradient id="paint4_linear" x1="129589" y1="206507" x2="129589" y2="0" gradientUnits="userSpaceOnUse">
<stop offset="0.01" stop-color="#808080" stop-opacity="0.25"/>
<stop offset="0.54" stop-color="#808080" stop-opacity="0.12"/>
<stop offset="1" stop-color="#808080" stop-opacity="0.1"/>
</linearGradient>
<linearGradient id="paint5_linear" x1="13435.3" y1="3969.57" x2="13435.3" y2="322.789" gradientUnits="userSpaceOnUse">
<stop stop-color="#B3B3B3" stop-opacity="0.25"/>
<stop offset="0.54" stop-color="#B3B3B3" stop-opacity="0.1"/>
<stop offset="1" stop-color="#B3B3B3" stop-opacity="0.05"/>
</linearGradient>
<clipPath id="clip0">
<rect width="371" height="354.692" fill="white"/>
</clipPath>
</defs>
</svg>
