<svg width="130" height="34" viewBox="0 0 130 34" fill="none" xmlns="http://www.w3.org/2000/svg">
<path fill-rule="evenodd" clip-rule="evenodd" d="M6.4996 0.5L11.8996 5.9C7.42609 10.3735 7.42609 17.6265 11.8996 22.1C16.3731 26.5735 23.6261 26.5735 28.0996 22.1C32.5731 17.6265 32.5731 10.3735 28.0996 5.9L33.4996 0.5C40.9554 7.95584 40.9554 20.0442 33.4996 27.5C26.0438 34.9558 13.9554 34.9558 6.4996 27.5C-0.956246 20.0442 -0.956246 7.95584 6.4996 0.5Z" fill="white"/>
<path d="M59.1563 16.7701H52.6875V20.8365H60.3281V24.0005H48.5742V6.93799H60.3516V10.1138H52.6875V13.7115H59.1563V16.7701Z" fill="white"/>
<path d="M66.5742 19.3013L68.5781 11.3208H72.7383L68.6016 24.0005H64.5703L60.4336 11.3208H64.6055L66.5742 19.3013Z" fill="white"/>
<path d="M79.8867 24.2348C77.9414 24.2348 76.3672 23.6567 75.1641 22.5004C73.961 21.3364 73.3594 19.8247 73.3594 17.9653V17.6372C73.3594 16.3403 73.5977 15.1957 74.0742 14.2036C74.5586 13.2114 75.2617 12.4457 76.1836 11.9067C77.1055 11.3598 78.1992 11.0864 79.4649 11.0864C81.2461 11.0864 82.6524 11.6411 83.6836 12.7504C84.7149 13.852 85.2305 15.3911 85.2305 17.3676V18.9028H77.3789C77.5195 19.6137 77.8281 20.1723 78.3047 20.5786C78.7813 20.9848 79.3985 21.1879 80.1563 21.1879C81.4063 21.1879 82.3828 20.7504 83.086 19.8754L84.8906 22.0082C84.3985 22.6879 83.6992 23.2309 82.793 23.6372C81.8945 24.0356 80.9258 24.2348 79.8867 24.2348ZM79.4414 14.1332C78.2852 14.1332 77.5977 14.8989 77.3789 16.4301H81.3633V16.1254C81.3789 15.4926 81.2188 15.0043 80.8828 14.6606C80.5469 14.309 80.0664 14.1332 79.4414 14.1332Z" fill="white"/>
<path d="M94.5 14.895L93.1992 14.8012C91.957 14.8012 91.1602 15.1918 90.8086 15.9731V24.0004H86.8594V11.3207H90.5625L90.6914 12.9497C91.3555 11.7075 92.2813 11.0864 93.4688 11.0864C93.8906 11.0864 94.2578 11.1332 94.5703 11.227L94.5 14.895Z" fill="white"/>
<path d="M95.2266 17.5668C95.2266 16.2856 95.4375 15.1528 95.8594 14.1684C96.2813 13.184 96.8867 12.4262 97.6758 11.895C98.4649 11.3559 99.3828 11.0864 100.43 11.0864C101.75 11.0864 102.781 11.5317 103.524 12.4223L103.664 11.3207H107.25V23.52C107.25 24.6372 106.988 25.6059 106.465 26.4262C105.949 27.2543 105.199 27.8872 104.215 28.3247C103.231 28.77 102.09 28.9926 100.793 28.9926C99.8633 28.9926 98.961 28.8168 98.086 28.4653C97.2188 28.1137 96.5547 27.6567 96.0938 27.0942L97.7461 24.7739C98.4805 25.6411 99.4492 26.0747 100.652 26.0747C102.402 26.0747 103.277 25.1762 103.277 23.3793V22.9809C102.52 23.8168 101.563 24.2348 100.406 24.2348C98.8594 24.2348 97.6094 23.645 96.6563 22.4653C95.7031 21.2778 95.2266 19.6918 95.2266 17.7075V17.5668ZM99.1875 17.8129C99.1875 18.852 99.3828 19.6762 99.7735 20.2856C100.164 20.8872 100.711 21.1879 101.414 21.1879C102.266 21.1879 102.887 20.9028 103.277 20.3325V15.0004C102.895 14.4223 102.281 14.1332 101.438 14.1332C100.734 14.1332 100.184 14.4497 99.7852 15.0825C99.3867 15.7075 99.1875 16.6176 99.1875 17.8129Z" fill="white"/>
<path d="M115.629 24.2348C113.684 24.2348 112.109 23.6567 110.906 22.5004C109.703 21.3364 109.102 19.8247 109.102 17.9653V17.6372C109.102 16.3403 109.34 15.1957 109.817 14.2036C110.301 13.2114 111.004 12.4457 111.926 11.9067C112.848 11.3598 113.942 11.0864 115.207 11.0864C116.988 11.0864 118.395 11.6411 119.426 12.7504C120.457 13.852 120.973 15.3911 120.973 17.3676V18.9028H113.121C113.262 19.6137 113.57 20.1723 114.047 20.5786C114.524 20.9848 115.141 21.1879 115.899 21.1879C117.149 21.1879 118.125 20.7504 118.828 19.8754L120.633 22.0082C120.141 22.6879 119.442 23.2309 118.535 23.6372C117.637 24.0356 116.668 24.2348 115.629 24.2348ZM115.184 14.1332C114.027 14.1332 113.34 14.8989 113.121 16.4301H117.106V16.1254C117.121 15.4926 116.961 15.0043 116.625 14.6606C116.289 14.309 115.809 14.1332 115.184 14.1332Z" fill="white"/>
<path d="M127.172 8.16846V11.3208H129.258V14.063H127.172V19.8638C127.172 20.3404 127.258 20.6724 127.43 20.8599C127.602 21.0474 127.942 21.1412 128.449 21.1412C128.84 21.1412 129.168 21.1177 129.434 21.0708V23.8951C128.723 24.1216 127.981 24.2349 127.207 24.2349C125.848 24.2349 124.844 23.9146 124.195 23.274C123.547 22.6333 123.223 21.6607 123.223 20.356V14.063H121.606V11.3208H123.223V8.16846H127.172Z" fill="white"/>
</svg>
