<svg width="130" height="34" viewBox="0 0 130 34" fill="none" xmlns="http://www.w3.org/2000/svg">
<path fill-rule="evenodd" clip-rule="evenodd" d="M6.50009 0.5L11.9001 5.9C7.42658 10.3735 7.42658 17.6265 11.9001 22.1C16.3736 26.5735 23.6266 26.5735 28.1001 22.1C32.5736 17.6265 32.5736 10.3735 28.1001 5.9L33.5001 0.5C40.9559 7.95585 40.9559 20.0442 33.5001 27.5C26.0442 34.9559 13.9559 34.9559 6.50009 27.5C-0.955759 20.0442 -0.955759 7.95585 6.50009 0.5Z" fill="black"/>
<path d="M59.1568 16.7696H52.6881V20.836H60.3287V24H48.5748V6.9375H60.3522V10.1133H52.6881V13.711H59.1568V16.7696Z" fill="black"/>
<path d="M66.5748 19.3007L68.5787 11.3203H72.7389L68.6022 23.9999H64.5709L60.4342 11.3203H64.6061L66.5748 19.3007Z" fill="black"/>
<path d="M79.8873 24.2343C77.942 24.2343 76.3678 23.6562 75.1647 22.4999C73.9615 21.3359 73.36 19.8242 73.36 17.9648V17.6367C73.36 16.3398 73.5983 15.1953 74.0748 14.2031C74.5592 13.2109 75.2623 12.4453 76.1842 11.9062C77.1061 11.3593 78.1998 11.0859 79.4654 11.0859C81.2467 11.0859 82.6529 11.6406 83.6842 12.7499C84.7154 13.8515 85.2311 15.3906 85.2311 17.3671V18.9023H77.3795C77.5201 19.6132 77.8287 20.1718 78.3053 20.5781C78.7819 20.9843 79.399 21.1874 80.1569 21.1874C81.4069 21.1874 82.3834 20.7499 83.0865 19.8749L84.8912 22.0078C84.399 22.6874 83.6998 23.2304 82.7936 23.6367C81.8951 24.0351 80.9264 24.2343 79.8873 24.2343ZM79.442 14.1328C78.2858 14.1328 77.5983 14.8984 77.3795 16.4296H81.3639V16.1249C81.3795 15.4921 81.2194 15.0039 80.8834 14.6601C80.5475 14.3085 80.067 14.1328 79.442 14.1328Z" fill="black"/>
<path d="M94.5006 14.8945L93.1998 14.8007C91.9576 14.8007 91.1608 15.1914 90.8092 15.9726V23.9999H86.86V11.3203H90.5631L90.692 12.9492C91.3561 11.707 92.2819 11.0859 93.4694 11.0859C93.8912 11.0859 94.2584 11.1328 94.5709 11.2265L94.5006 14.8945Z" fill="black"/>
<path d="M95.2272 17.5664C95.2272 16.2851 95.4381 15.1523 95.86 14.1679C96.2819 13.1835 96.8873 12.4257 97.6764 11.8945C98.4654 11.3554 99.3834 11.0859 100.43 11.0859C101.751 11.0859 102.782 11.5312 103.524 12.4218L103.665 11.3203H107.251V23.5195C107.251 24.6367 106.989 25.6054 106.465 26.4257C105.95 27.2539 105.2 27.8867 104.215 28.3242C103.231 28.7695 102.09 28.9921 100.794 28.9921C99.8639 28.9921 98.9615 28.8164 98.0865 28.4648C97.2194 28.1132 96.5553 27.6562 96.0944 27.0937L97.7467 24.7734C98.4811 25.6406 99.4498 26.0742 100.653 26.0742C102.403 26.0742 103.278 25.1757 103.278 23.3789V22.9804C102.52 23.8164 101.563 24.2343 100.407 24.2343C98.86 24.2343 97.61 23.6445 96.6569 22.4648C95.7037 21.2773 95.2272 19.6914 95.2272 17.707V17.5664ZM99.1881 17.8124C99.1881 18.8515 99.3834 19.6757 99.774 20.2851C100.165 20.8867 100.712 21.1874 101.415 21.1874C102.266 21.1874 102.887 20.9023 103.278 20.332V14.9999C102.895 14.4218 102.282 14.1328 101.438 14.1328C100.735 14.1328 100.184 14.4492 99.7858 15.082C99.3873 15.707 99.1881 16.6171 99.1881 17.8124Z" fill="black"/>
<path d="M115.63 24.2343C113.684 24.2343 112.11 23.6562 110.907 22.4999C109.704 21.3359 109.102 19.8242 109.102 17.9648V17.6367C109.102 16.3398 109.34 15.1953 109.817 14.2031C110.301 13.2109 111.005 12.4453 111.926 11.9062C112.848 11.3593 113.942 11.0859 115.208 11.0859C116.989 11.0859 118.395 11.6406 119.426 12.7499C120.458 13.8515 120.973 15.3906 120.973 17.3671V18.9023H113.122C113.262 19.6132 113.571 20.1718 114.047 20.5781C114.524 20.9843 115.141 21.1874 115.899 21.1874C117.149 21.1874 118.126 20.7499 118.829 19.8749L120.633 22.0078C120.141 22.6874 119.442 23.2304 118.536 23.6367C117.637 24.0351 116.669 24.2343 115.63 24.2343ZM115.184 14.1328C114.028 14.1328 113.34 14.8984 113.122 16.4296H117.106V16.1249C117.122 15.4921 116.962 15.0039 116.626 14.6601C116.29 14.3085 115.809 14.1328 115.184 14.1328Z" fill="black"/>
<path d="M127.172 8.16797V11.3204H129.258V14.0625H127.172V19.8633C127.172 20.3399 127.258 20.6719 127.43 20.8594C127.602 21.0469 127.942 21.1407 128.45 21.1407C128.84 21.1407 129.169 21.1172 129.434 21.0704V23.8946C128.723 24.1211 127.981 24.2344 127.208 24.2344C125.848 24.2344 124.844 23.9141 124.196 23.2735C123.547 22.6329 123.223 21.6602 123.223 20.3555V14.0625H121.606V11.3204H123.223V8.16797H127.172Z" fill="black"/>
</svg>
