<svg width="37" height="24" viewBox="0 0 37 24" fill="none" xmlns="http://www.w3.org/2000/svg">
<path d="M22.8658 20.7509H13.1289V3.25195H22.8658V20.7509Z" fill="#FF5F00"/>
<path d="M13.7546 12C13.7546 8.45022 15.4167 5.28821 18.0048 3.25049C16.1122 1.76041 13.7235 0.871025 11.1275 0.871025C4.98181 0.871025 0 5.85354 0 12C0 18.1464 4.98181 23.1289 11.1275 23.1289C13.7235 23.1289 16.1122 22.2395 18.0048 20.7494C15.4167 18.7117 13.7546 15.5497 13.7546 12Z" fill="#EB001B"/>
<path d="M36.0016 12C36.0016 18.1464 31.0198 23.1289 24.8741 23.1289C22.2781 23.1289 19.8895 22.2395 17.9961 20.7494C20.585 18.7117 22.247 15.5497 22.247 12C22.247 8.45022 20.585 5.28821 17.9961 3.25049C19.8895 1.76041 22.2781 0.871025 24.8741 0.871025C31.0198 0.871025 36.0016 5.85354 36.0016 12Z" fill="#F79E1B"/>
<path d="M8.37321 12.0701C8.37321 11.584 8.69176 11.1846 9.21231 11.1846C9.70968 11.1846 10.0455 11.5668 10.0455 12.0701C10.0455 12.5734 9.70968 12.9556 9.21231 12.9556C8.69176 12.9556 8.37321 12.5562 8.37321 12.0701ZM10.6124 12.0701V10.6873H10.011V11.023C9.82028 10.774 9.53087 10.6177 9.13748 10.6177C8.36195 10.6177 7.75398 11.2257 7.75398 12.0701C7.75398 12.9152 8.36195 13.5225 9.13748 13.5225C9.53087 13.5225 9.82028 13.3662 10.011 13.1171V13.4529H10.6124V12.0701ZM30.9336 12.0701C30.9336 11.584 31.2521 11.1846 31.7727 11.1846C32.2707 11.1846 32.6058 11.5668 32.6058 12.0701C32.6058 12.5734 32.2707 12.9556 31.7727 12.9556C31.2521 12.9556 30.9336 12.5562 30.9336 12.0701ZM33.1734 12.0701V9.57663H32.5714V11.023C32.3806 10.774 32.0912 10.6177 31.6978 10.6177C30.9223 10.6177 30.3143 11.2257 30.3143 12.0701C30.3143 12.9152 30.9223 13.5225 31.6978 13.5225C32.0912 13.5225 32.3806 13.3662 32.5714 13.1171V13.4529H33.1734V12.0701ZM18.0768 11.1562C18.4643 11.1562 18.7133 11.3992 18.7769 11.827H17.3417C17.406 11.4277 17.6484 11.1562 18.0768 11.1562ZM18.0888 10.6177C17.2781 10.6177 16.7112 11.2078 16.7112 12.0701C16.7112 12.9496 17.3013 13.5225 18.1292 13.5225C18.5457 13.5225 18.9272 13.4185 19.263 13.135L18.9683 12.6893C18.7365 12.8741 18.4411 12.9787 18.1636 12.9787C17.7762 12.9787 17.4232 12.7993 17.3364 12.3012H19.3901C19.3961 12.2264 19.4021 12.1509 19.4021 12.0701C19.3961 11.2078 18.8636 10.6177 18.0888 10.6177ZM25.3499 12.0701C25.3499 11.584 25.6685 11.1846 26.189 11.1846C26.6864 11.1846 27.0222 11.5668 27.0222 12.0701C27.0222 12.5734 26.6864 12.9556 26.189 12.9556C25.6685 12.9556 25.3499 12.5562 25.3499 12.0701ZM27.5891 12.0701V10.6873H26.9877V11.023C26.7964 10.774 26.5076 10.6177 26.1142 10.6177C25.3387 10.6177 24.7307 11.2257 24.7307 12.0701C24.7307 12.9152 25.3387 13.5225 26.1142 13.5225C26.5076 13.5225 26.7964 13.3662 26.9877 13.1171V13.4529H27.5891V12.0701ZM21.9538 12.0701C21.9538 12.9092 22.5379 13.5225 23.4293 13.5225C23.8459 13.5225 24.1234 13.4297 24.4241 13.1926L24.1353 12.7065C23.9095 12.8688 23.6724 12.9556 23.4115 12.9556C22.9313 12.9496 22.5783 12.6026 22.5783 12.0701C22.5783 11.5376 22.9313 11.1906 23.4115 11.1846C23.6724 11.1846 23.9095 11.2714 24.1353 11.4336L24.4241 10.9475C24.1234 10.7104 23.8459 10.6177 23.4293 10.6177C22.5379 10.6177 21.9538 11.231 21.9538 12.0701ZM29.707 10.6177C29.36 10.6177 29.1342 10.78 28.9779 11.023V10.6873H28.3818V13.4529H28.9838V11.9025C28.9838 11.4449 29.1805 11.1906 29.5739 11.1906C29.6958 11.1906 29.8229 11.2078 29.9501 11.2601L30.1355 10.6932C30.0024 10.6409 29.8289 10.6177 29.707 10.6177ZM13.5866 10.9071C13.2972 10.7164 12.8985 10.6177 12.4588 10.6177C11.7581 10.6177 11.3071 10.9535 11.3071 11.5032C11.3071 11.9542 11.6429 12.2324 12.2614 12.3191L12.5455 12.3595C12.8753 12.4059 13.031 12.4926 13.031 12.6489C13.031 12.8628 12.8111 12.9847 12.4005 12.9847C11.9839 12.9847 11.6833 12.8516 11.4806 12.6953L11.1971 13.1635C11.527 13.4066 11.9435 13.5225 12.3945 13.5225C13.1932 13.5225 13.6562 13.1463 13.6562 12.6198C13.6562 12.1337 13.2919 11.8794 12.6899 11.7926L12.4065 11.7515C12.1462 11.7171 11.9376 11.6654 11.9376 11.48C11.9376 11.2774 12.1343 11.1562 12.4641 11.1562C12.8171 11.1562 13.1588 11.2893 13.3264 11.3932L13.5866 10.9071ZM21.3458 10.6177C20.9988 10.6177 20.773 10.78 20.6173 11.023V10.6873H20.0213V13.4529H20.6226V11.9025C20.6226 11.4449 20.8193 11.1906 21.2127 11.1906C21.3346 11.1906 21.4617 11.2078 21.5889 11.2601L21.7743 10.6932C21.6412 10.6409 21.4677 10.6177 21.3458 10.6177ZM16.2139 10.6873H15.2304V9.84816H14.6224V10.6873H14.0615V11.237H14.6224V12.4986C14.6224 13.1403 14.8714 13.5225 15.5827 13.5225C15.8437 13.5225 16.1443 13.4417 16.3351 13.3085L16.1616 12.7933C15.9821 12.8973 15.7854 12.9496 15.6291 12.9496C15.3284 12.9496 15.2304 12.7642 15.2304 12.4867V11.237H16.2139V10.6873ZM7.22218 13.4529V11.7171C7.22218 11.0634 6.80561 10.6237 6.13406 10.6177C5.78107 10.6118 5.41682 10.7217 5.16184 11.1098C4.97111 10.8032 4.67044 10.6177 4.24791 10.6177C3.95253 10.6177 3.66378 10.7045 3.43794 11.0283V10.6873H2.83594V13.4529H3.44324V11.9198C3.44324 11.4396 3.70948 11.1846 4.12075 11.1846C4.5201 11.1846 4.72209 11.4449 4.72209 11.9138V13.4529H5.33006V11.9198C5.33006 11.4396 5.60755 11.1846 6.0069 11.1846C6.41751 11.1846 6.61421 11.4449 6.61421 11.9138V13.4529H7.22218Z" fill="white"/>
</svg>
