<svg width="590" height="280" viewBox="0 0 590 280" fill="none" xmlns="http://www.w3.org/2000/svg">
<g clip-path="url(#clip0)">
<path d="M571.81 20.2949V242.029C571.81 244.726 571.279 247.397 570.248 249.888C569.218 252.38 567.707 254.644 565.802 256.551C563.897 258.458 561.636 259.97 559.148 261.002C556.659 262.034 553.992 262.565 551.298 262.565H83.6483C78.2083 262.565 72.9911 260.402 69.1444 256.551C65.2978 252.699 63.1367 247.476 63.1367 242.029V20.2949C63.2034 14.8914 65.3934 9.73159 69.2325 5.93303C73.0716 2.13447 78.2508 0.00292395 83.6483 0H551.298C556.696 0.00292395 561.875 2.13447 565.714 5.93303C569.553 9.73159 571.743 14.8914 571.81 20.2949Z" fill="#F2F2F2"/>
<path opacity="0.3" d="M181.964 48.2002H102.046C99.7083 48.2019 97.4671 49.1327 95.8148 50.7882C94.1625 52.4436 93.2344 54.6882 93.2344 57.0285V165.587C93.2361 167.928 94.1658 170.171 95.8193 171.826C97.4728 173.48 99.7147 174.409 102.052 174.409H181.964C183.122 174.41 184.269 174.182 185.339 173.74C186.409 173.297 187.382 172.647 188.201 171.828C189.02 171.009 189.671 170.036 190.114 168.965C190.558 167.894 190.787 166.747 190.788 165.587V57.0285C190.788 55.8686 190.56 54.7201 190.116 53.6486C189.673 52.5771 189.023 51.6036 188.203 50.7837C187.384 49.9638 186.411 49.3137 185.34 48.8704C184.27 48.4271 183.122 48.1994 181.964 48.2002Z" fill="#007EFF"/>
<path d="M571.81 20.2949H63.1367C63.2034 14.8914 65.3934 9.73159 69.2325 5.93303C73.0716 2.13447 78.2508 0.00292395 83.6483 0H551.298C556.696 0.00292395 561.875 2.13447 565.714 5.93303C569.553 9.73159 571.743 14.8914 571.81 20.2949Z" fill="#E6E6E6"/>
<path d="M82.7761 14.587C85.225 14.587 87.2103 12.5994 87.2103 10.1475C87.2103 7.69565 85.225 5.70801 82.7761 5.70801C80.3271 5.70801 78.3418 7.69565 78.3418 10.1475C78.3418 12.5994 80.3271 14.587 82.7761 14.587Z" fill="#F2F2F2"/>
<path d="M96.0788 14.587C98.5278 14.587 100.513 12.5994 100.513 10.1475C100.513 7.69565 98.5278 5.70801 96.0788 5.70801C93.6298 5.70801 91.6445 7.69565 91.6445 10.1475C91.6445 12.5994 93.6298 14.587 96.0788 14.587Z" fill="#F2F2F2"/>
<path d="M109.38 14.587C111.829 14.587 113.814 12.5994 113.814 10.1475C113.814 7.69565 111.829 5.70801 109.38 5.70801C106.931 5.70801 104.945 7.69565 104.945 10.1475C104.945 12.5994 106.931 14.587 109.38 14.587Z" fill="#F2F2F2"/>
<path d="M327.775 41.2236H229.892C228.058 41.2236 226.572 42.7115 226.572 44.5469V58.8295C226.572 60.6649 228.058 62.1528 229.892 62.1528H327.775C329.608 62.1528 331.094 60.6649 331.094 58.8295V44.5469C331.094 42.7115 329.608 41.2236 327.775 41.2236Z" fill="#E6E6E6"/>
<path d="M536.818 41.2236H438.935C437.101 41.2236 435.615 42.7115 435.615 44.5469V58.8295C435.615 60.6649 437.101 62.1528 438.935 62.1528H536.818C538.651 62.1528 540.137 60.6649 540.137 58.8295V44.5469C540.137 42.7115 538.651 41.2236 536.818 41.2236Z" fill="#E6E6E6"/>
<path d="M535.697 83.082H231.013C228.56 83.082 226.572 85.0725 226.572 87.5279V214.358C226.572 216.814 228.56 218.804 231.013 218.804H535.697C538.15 218.804 540.138 216.814 540.138 214.358V87.5279C540.138 85.0725 538.15 83.082 535.697 83.082Z" fill="#E6E6E6"/>
<path d="M513.519 98.9375H253.189C252.658 98.9375 252.227 99.3691 252.227 99.9015V104.316C252.227 104.848 252.658 105.28 253.189 105.28H513.519C514.05 105.28 514.481 104.848 514.481 104.316V99.9015C514.481 99.3691 514.05 98.9375 513.519 98.9375Z" fill="#F2F2F2"/>
<path d="M513.519 116.695H253.189C252.658 116.695 252.227 117.127 252.227 117.659V122.073C252.227 122.606 252.658 123.037 253.189 123.037H513.519C514.05 123.037 514.481 122.606 514.481 122.073V117.659C514.481 117.127 514.05 116.695 513.519 116.695Z" fill="#F2F2F2"/>
<path d="M513.519 134.454H253.189C252.658 134.454 252.227 134.886 252.227 135.418V139.832C252.227 140.365 252.658 140.796 253.189 140.796H513.519C514.05 140.796 514.481 140.365 514.481 139.832V135.418C514.481 134.886 514.05 134.454 513.519 134.454Z" fill="#F2F2F2"/>
<path d="M513.519 152.212H253.189C252.658 152.212 252.227 152.644 252.227 153.176V157.59C252.227 158.122 252.658 158.554 253.189 158.554H513.519C514.05 158.554 514.481 158.122 514.481 157.59V153.176C514.481 152.644 514.05 152.212 513.519 152.212Z" fill="#F2F2F2"/>
<path d="M513.519 169.97H253.189C252.658 169.97 252.227 170.401 252.227 170.934V175.348C252.227 175.88 252.658 176.312 253.189 176.312H513.519C514.05 176.312 514.481 175.88 514.481 175.348V170.934C514.481 170.401 514.05 169.97 513.519 169.97Z" fill="#F2F2F2"/>
<path d="M513.519 187.728H253.189C252.658 187.728 252.227 188.159 252.227 188.692V193.106C252.227 193.638 252.658 194.07 253.189 194.07H513.519C514.05 194.07 514.481 193.638 514.481 193.106V188.692C514.481 188.159 514.05 187.728 513.519 187.728Z" fill="#F2F2F2"/>
<path d="M99.4407 129.634C96.2037 130.864 88.6718 131.003 85.3081 130.997C84.2946 130.997 83.6611 130.997 83.6611 130.997L81.5137 126.621L83.6611 122.968C83.6611 122.968 85.6312 122.429 88.2474 121.953C92.1116 121.256 97.3946 120.685 99.9158 122.277C104.141 124.89 103.666 128.029 99.4407 129.634Z" fill="#FEC2BE"/>
<path opacity="0.1" d="M85.3081 130.997C84.2946 130.997 83.6611 130.997 83.6611 130.997L81.5137 126.621L83.6611 122.968C83.6611 122.968 85.6312 122.429 88.2474 121.953C86.1253 123.513 81.0196 126.9 85.3081 130.997Z" fill="black"/>
<path d="M49.7385 77.2476L50.6887 76.1504C50.6887 76.1504 55.5664 83.8878 56.0795 86.8052C56.5926 89.7226 57.2451 93.0776 57.2451 93.0776C57.2451 93.0776 58.512 96.8829 59.2848 98.5509C60.0577 100.219 60.8178 101.836 60.8875 102.565C60.9572 103.295 60.5961 104.899 62.1544 105.92C63.7128 106.942 64.0548 109.726 64.0548 109.726C64.0548 109.726 69.5913 115.129 72.5053 115.275C75.4192 115.421 83.8063 116.88 83.5149 118.338C83.2235 119.797 87.0116 120.672 88.5383 121.034C90.0649 121.395 78.7006 125.778 85.3329 131.397C85.3329 131.397 81.1077 132.272 80.6706 133.3C80.2336 134.327 75.7866 132.716 75.7866 132.716C75.7866 132.716 74.8427 130.458 71.5614 130.312C68.28 130.167 66.6077 128.702 66.6077 128.486C66.6077 128.27 63.3263 126.444 61.502 125.949C59.6776 125.454 57.2767 125.22 57.2007 124.712C57.1247 124.205 46.2734 77.2856 46.2734 77.2856L49.7385 77.2476Z" fill="#4C4981"/>
<path d="M49.7385 77.2476L50.6887 76.1504C50.6887 76.1504 55.5664 83.8878 56.0795 86.8052C56.5926 89.7226 57.2451 93.0776 57.2451 93.0776C57.2451 93.0776 58.512 96.8829 59.2848 98.5509C60.0577 100.219 60.8178 101.836 60.8875 102.565C60.9572 103.295 60.5961 104.899 62.1544 105.92C63.7128 106.942 64.0548 109.726 64.0548 109.726C64.0548 109.726 69.5913 115.129 72.5053 115.275C75.4192 115.421 83.8063 116.88 83.5149 118.338C83.2235 119.797 87.0116 120.672 88.5383 121.034C90.0649 121.395 78.7006 125.778 85.3329 131.397C85.3329 131.397 81.1077 132.272 80.6706 133.3C80.2336 134.327 75.7866 132.716 75.7866 132.716C75.7866 132.716 74.8427 130.458 71.5614 130.312C68.28 130.167 66.6077 128.702 66.6077 128.486C66.6077 128.27 63.3263 126.444 61.502 125.949C59.6776 125.454 57.2767 125.22 57.2007 124.712C57.1247 124.205 46.2734 77.2856 46.2734 77.2856L49.7385 77.2476Z" fill="#192534"/>
<path d="M38.3874 279.721C28.7713 281.528 27.0166 274.14 27.0166 274.14C27.0166 274.14 25.8194 267.569 25.3823 267.081C25.326 266.986 25.2902 266.881 25.2771 266.772C25.264 266.663 25.2739 266.552 25.3063 266.447C25.5656 265.333 26.046 264.282 26.7189 263.358C27.3207 262.648 26.8266 259.692 26.8266 259.692L37.9756 256.845C38.4501 257.9 38.8173 259.001 39.0715 260.13C39.1792 261.17 40.8199 265.876 40.6552 266.529C40.4905 267.182 41.3646 269.212 41.4723 270.252C41.58 271.292 42.9483 272.827 43.0623 273.372C43.2441 273.865 43.4556 274.346 43.6958 274.812C43.9905 275.534 44.2278 276.279 44.4053 277.038C44.8931 279.334 38.3874 279.721 38.3874 279.721Z" fill="#3F3D56"/>
<path opacity="0.1" d="M38.3874 279.72C28.7713 281.528 27.0166 274.139 27.0166 274.139C27.0166 274.139 25.8194 267.569 25.3823 267.081C25.326 266.986 25.2902 266.881 25.2771 266.771C25.264 266.662 25.2739 266.551 25.3063 266.446L27.6184 273.093C27.6184 273.093 29.5188 277.088 36.639 276.486C40.6805 276.143 42.6759 275.395 43.6388 274.805C43.9335 275.527 44.1708 276.272 44.3483 277.031C44.8931 279.334 38.3874 279.72 38.3874 279.72Z" fill="black"/>
<path opacity="0.1" d="M30.9004 269.32C30.9004 269.32 33.3076 269.377 33.4723 267.417L30.9004 269.32Z" fill="black"/>
<path d="M72.7153 204.643C71.5117 206.444 70.1435 214.327 70.1435 214.327C69.6204 215.365 69.3225 216.502 69.2693 217.663C69.3263 219.198 68.3951 221.989 68.3951 221.989L65.3608 233.316C65.3608 233.316 65.6902 236.328 64.5436 238.459C63.397 240.59 63.5047 239.937 64.0495 243.66C64.5943 247.383 63.416 250.826 61.427 251.905C59.4379 252.983 62.3011 255.57 62.3011 255.57C62.3011 255.57 49.7268 258.963 47.098 256.883C44.4691 254.803 48.4663 244.516 48.4663 244.516C48.4663 244.516 47.8328 235.865 48.2445 234.609C48.6563 233.354 50.544 222.623 50.544 222.623C50.544 222.623 51.6906 217.752 51.2535 216.915C50.8164 216.078 51.5259 213.744 51.5259 213.744C51.5259 213.744 53.382 211.112 53.2172 210.294C53.0525 209.475 53.7684 207.998 53.7684 207.998C53.7684 207.998 48.1939 199.461 48.7006 197.85C49.2074 196.239 48.4853 193.696 48.4853 193.696C48.4853 193.696 47.7821 192.485 46.9333 191.039C45.8944 189.263 44.6401 187.132 44.222 186.472C43.6836 185.623 42.3913 182.033 41.6882 179.965C41.3841 179.084 41.1814 178.481 41.1814 178.481C41.1814 178.481 40.3009 194.571 39.5407 196.239C38.7806 197.907 37.6403 210.826 37.6403 210.826C37.2152 211.982 37.0278 213.211 37.0892 214.441C37.2032 216.465 35.3408 225.274 35.3408 225.274C35.3408 225.274 34.5237 231.514 35.0684 233.157C35.6132 234.8 35.1761 246.888 35.1761 246.888C35.1761 246.888 38.1851 249.241 38.9769 251.048C39.7688 252.856 38.8692 257.777 38.8692 257.777C38.8692 257.777 30.1211 262.16 26.2379 261.012C22.3548 259.864 23.9448 253.236 23.9448 253.236C23.9448 253.236 21.3222 248.86 21.3222 247.167C21.1285 244.853 20.8177 242.55 20.391 240.267C17.059 234.14 18.3703 219.255 17.8255 218.069C17.2807 216.883 18.9721 212.361 20.3594 210.357C21.7467 208.353 21.1829 202.861 20.3594 201.269C19.5359 199.677 21.1829 194.21 21.1829 194.21C21.1829 194.21 19.5992 183.593 19.6499 181.951C19.7006 180.308 18.2879 175.443 18.2879 175.443C18.2879 175.443 16.8626 172.907 17.192 172.158C17.5214 171.41 16.0961 169.425 16.4826 168.55C16.869 167.674 16.1532 164.992 15.4437 163.4C14.9141 161.757 14.5242 160.072 14.2781 158.364C13.9424 156.461 13.6953 154.812 13.6953 154.812L22.7159 147.532L45.0899 141.652L53.5657 138.919L61.8007 151.939C61.8007 151.939 62.6496 153.303 63.4034 154.876C64.0368 156.227 64.6323 157.736 64.5309 158.681C64.3945 159.866 64.6648 161.063 65.2974 162.074C65.2974 162.074 70.2195 177.67 70.1055 182.153C69.9914 186.637 71.8538 196.493 71.8538 196.493C71.8538 196.493 73.9189 202.835 72.7153 204.643Z" fill="#192534"/>
<path d="M39.4211 77.7933C39.0727 77.6474 15.2924 67.8171 18.5674 65.8637C20.5121 64.7031 22.9066 59.7879 24.541 55.9382C25.6876 53.2555 26.4414 51.0864 26.4414 51.0864C26.4414 51.0864 45.5277 47.6934 38.6989 59.4074C37.6212 61.2018 36.8103 63.1439 36.2918 65.1724C34.3597 73.1508 39.2564 77.6474 39.4211 77.7933Z" fill="#FEC2BE"/>
<path opacity="0.1" d="M38.718 59.4074C37.6403 61.2018 36.8294 63.1439 36.3108 65.1724C33.8887 65.0063 31.5581 64.1798 29.5716 62.7824C27.5851 61.3849 26.0185 59.4699 25.0415 57.2447C24.8512 56.8185 24.6841 56.3824 24.541 55.9382C25.6876 53.2555 26.4414 51.0864 26.4414 51.0864C26.4414 51.0864 45.5467 47.6934 38.718 59.4074Z" fill="black"/>
<path d="M50.5752 51.4165C50.576 54.4794 49.5248 57.4495 47.5979 59.8286C45.671 62.2077 42.9856 63.851 39.992 64.483C36.9985 65.115 33.879 64.6972 31.1566 63.2996C28.4343 61.9021 26.2748 59.6098 25.0402 56.8073C24.2877 55.1102 23.9013 53.2733 23.9063 51.4165C23.9045 48.1979 25.0641 45.087 27.1717 42.6566C29.2792 40.2262 32.1928 38.6399 35.376 38.1898C38.5592 37.7397 41.7976 38.4561 44.495 40.2071C47.1925 41.9581 49.1672 44.6258 50.0558 47.719C50.4032 48.9206 50.5781 50.1655 50.5752 51.4165Z" fill="#FEC2BE"/>
<path opacity="0.1" d="M63.4602 154.876C62.0666 156.144 61.5281 158.567 61.5281 158.567C61.5281 158.567 54.9717 163.051 55.4088 160.203C55.8459 157.356 52.0198 145.87 52.0198 145.87L52.4569 161.516C52.4569 161.516 31.4638 160.533 29.9372 158.979C28.4105 157.425 19.4406 154.489 19.4406 154.489C19.4406 154.489 16.6977 156.696 14.1765 158.37C13.8408 156.468 13.5938 154.819 13.5938 154.819L22.6143 147.538L45.0897 141.652L53.5654 138.919L61.8005 151.939C61.8005 151.939 62.6874 153.322 63.4602 154.876Z" fill="black"/>
<path d="M64.1314 153.639C62.3831 154.736 61.7243 157.685 61.7243 157.685C61.7243 157.685 55.1679 162.176 55.605 159.328C56.0421 156.48 52.2159 144.995 52.2159 144.995L52.653 160.641C52.653 160.641 31.6663 159.658 30.1333 158.104C28.6003 156.55 19.6431 153.62 19.6431 153.62C19.6431 153.62 11.8768 159.861 10.4579 159.328C9.03889 158.795 12.9917 148.166 12.9917 148.166L17.0332 86.0125C17.0332 86.0125 15.9437 67.5188 17.5843 66.8592C17.8363 66.7575 18.068 66.6114 18.2685 66.4279C19.3517 65.4576 19.6748 63.4852 19.7698 61.8235C19.8775 59.8575 22.5 60.8405 22.5 60.8405L20.9734 62.8129L34.5169 71.0577L34.6373 71.1275C35.1653 70.8511 35.7089 70.6054 36.2653 70.3918C37.4625 69.9288 39.0588 69.4912 40.1041 69.9225C40.6834 70.2134 41.1768 70.6506 41.5357 71.1909C42.3086 72.3535 42.9282 73.6112 43.3791 74.9328L48.2568 83.2664C48.2568 83.2664 50.7906 94.3208 50.7906 94.7584C50.7906 95.196 51.5571 105.261 52.4313 106.358C53.3055 107.455 54.1797 112.922 53.8503 114.565C53.5209 116.208 54.3951 122.34 54.3951 122.34C58.0058 125.29 59.8619 135.361 59.8619 135.361C59.8619 135.361 65.5631 146.637 65.9811 147.95C66.3992 149.263 65.8798 152.542 64.1314 153.639Z" fill="white"/>
<path opacity="0.1" d="M34.4984 71.5081C33.1681 73.4805 29.3357 76.252 29.3357 76.252L18.25 66.8783C19.3332 65.908 19.6563 63.9355 19.7513 62.2802C19.859 60.3078 22.4815 61.2909 22.4815 61.2909L22.1648 61.7031C22.0126 61.8993 21.9035 62.1254 21.8447 62.3668C21.7859 62.6081 21.7787 62.8591 21.8236 63.1034C21.8684 63.3477 21.9643 63.5798 22.105 63.7844C22.2457 63.989 22.428 64.1615 22.6399 64.2907L34.4984 71.5081Z" fill="black"/>
<path d="M34.4984 71.0445C33.1681 73.0169 29.3357 75.7821 29.3357 75.7821L18.25 66.4338C19.3332 65.4634 19.6563 63.491 19.7513 61.8294C19.859 59.8633 22.4815 60.8463 22.4815 60.8463L22.1648 61.2586C22.0126 61.4548 21.9035 61.6809 21.8447 61.9222C21.7859 62.1636 21.7787 62.4146 21.8236 62.6589C21.8684 62.9032 21.9643 63.1353 22.105 63.3399C22.2457 63.5445 22.428 63.717 22.6399 63.8462L34.4984 71.0445Z" fill="white"/>
<path opacity="0.1" d="M39.6227 72.5223C38.1911 74.2347 36.164 76.1754 36.259 75.205C36.354 74.2347 35.0491 72.0784 34.2129 71.1144C35.5117 70.7021 36.9117 70.7423 38.1847 71.2285C38.773 71.5204 39.2702 71.9678 39.6227 72.5223Z" fill="black"/>
<path d="M39.8383 71.8633C38.4067 73.5756 36.3796 75.5227 36.4746 74.546C36.5696 73.5693 35.3977 72.0091 34.5742 71.0324C35.7715 70.5695 37.3678 70.1382 38.413 70.5694C38.9943 70.8666 39.4862 71.3131 39.8383 71.8633Z" fill="white"/>
<path d="M36.2531 80.9643C36.7359 80.9643 37.1273 80.5725 37.1273 80.0891C37.1273 79.6057 36.7359 79.2139 36.2531 79.2139C35.7703 79.2139 35.3789 79.6057 35.3789 80.0891C35.3789 80.5725 35.7703 80.9643 36.2531 80.9643Z" fill="#192534"/>
<path d="M42.8859 104.608C43.3687 104.608 43.7601 104.216 43.7601 103.733C43.7601 103.249 43.3687 102.857 42.8859 102.857C42.4031 102.857 42.0117 103.249 42.0117 103.733C42.0117 104.216 42.4031 104.608 42.8859 104.608Z" fill="#192534"/>
<path d="M50.3918 128.537C50.8746 128.537 51.2659 128.145 51.2659 127.661C51.2659 127.178 50.8746 126.786 50.3918 126.786C49.909 126.786 49.5176 127.178 49.5176 127.661C49.5176 128.145 49.909 128.537 50.3918 128.537Z" fill="#192534"/>
<path d="M50.6144 154.583C51.0972 154.583 51.4886 154.192 51.4886 153.708C51.4886 153.225 51.0972 152.833 50.6144 152.833C50.1316 152.833 49.7402 153.225 49.7402 153.708C49.7402 154.192 50.1316 154.583 50.6144 154.583Z" fill="#192534"/>
<path d="M40.1183 92.1264C40.6011 92.1264 40.9925 91.7346 40.9925 91.2512C40.9925 90.7678 40.6011 90.376 40.1183 90.376C39.6355 90.376 39.2441 90.7678 39.2441 91.2512C39.2441 91.7346 39.6355 92.1264 40.1183 92.1264Z" fill="#192534"/>
<path d="M46.0207 116.423C46.5035 116.423 46.8949 116.031 46.8949 115.548C46.8949 115.065 46.5035 114.673 46.0207 114.673C45.5379 114.673 45.1465 115.065 45.1465 115.548C45.1465 116.031 45.5379 116.423 46.0207 116.423Z" fill="#192534"/>
<path d="M51.7804 140.283C52.2632 140.283 52.6546 139.891 52.6546 139.407C52.6546 138.924 52.2632 138.532 51.7804 138.532C51.2976 138.532 50.9062 138.924 50.9062 139.407C50.9062 139.891 51.2976 140.283 51.7804 140.283Z" fill="#192534"/>
<path d="M50.4679 157.501C50.9507 157.501 51.3421 157.11 51.3421 156.626C51.3421 156.143 50.9507 155.751 50.4679 155.751C49.9851 155.751 49.5938 156.143 49.5938 156.626C49.5938 157.11 49.9851 157.501 50.4679 157.501Z" fill="#192534"/>
<path opacity="0.1" d="M18.2576 66.9602C18.2576 66.9602 18.4033 65.641 16.5093 67.9052C14.6152 70.1693 11.0425 72.1354 11.0425 72.1354C11.0425 72.1354 2.95309 77.8433 2.516 80.4563C2.07891 83.0693 -0.543638 94.4661 0.837318 98.2587C2.21827 102.051 12.7845 120.222 12.7845 120.222C12.7845 120.222 10.0162 123.507 10.675 127.369C11.3338 131.232 12.132 136.565 11.7646 137.732C11.3972 138.899 12.2017 141.817 10.9664 142.838C9.73118 143.859 8.43257 145.609 12.2777 147.95C12.2777 147.95 13.0062 149.916 12.3474 150.353C11.6886 150.791 22.0394 155.319 26.1189 152.89C30.1985 150.461 37.5657 131.219 37.7114 126.887C37.8571 122.556 35.4499 108.355 34.1386 105C32.8274 101.645 28.8935 88.5806 27.2148 85.6632C25.5362 82.7458 18.2576 66.9602 18.2576 66.9602Z" fill="black"/>
<path d="M17.8514 66.9602C17.8514 66.9602 17.9971 65.641 16.103 67.9052C14.209 70.1693 10.6362 72.1354 10.6362 72.1354C10.6362 72.1354 2.54684 77.8433 2.10975 80.4563C1.67266 83.0693 -0.949888 94.4661 0.431068 98.2587C1.81202 102.051 12.3846 120.222 12.3846 120.222C12.3846 120.222 9.61633 123.513 10.2498 127.369C10.8833 131.225 11.7131 136.565 11.3457 137.732C10.9783 138.899 11.7828 141.817 10.5475 142.838C9.31226 143.859 8.01365 145.609 11.8588 147.95C11.8588 147.95 12.5873 149.916 11.9285 150.353C11.2697 150.791 21.6205 155.319 25.7 152.89C29.7795 150.461 37.1468 131.219 37.2925 126.887C37.4382 122.556 35.031 108.355 33.7197 105C32.4084 101.645 28.4619 88.6314 26.7833 85.7076C25.1046 82.7839 17.8514 66.9602 17.8514 66.9602Z" fill="#192534"/>
<path opacity="0.1" d="M14.9062 79.3594C14.9062 79.3594 21.1712 86.2913 20.9558 90.8894C20.9558 90.8894 21.0192 83.4501 14.9062 79.3594Z" fill="black"/>
<path opacity="0.1" d="M23.5527 90.7432C23.5527 90.9651 27.778 106.725 27.5626 108.691C27.3472 110.658 28.7978 116.499 28.7978 116.499L30.7679 115.991C30.7679 115.991 29.2349 107.892 28.9435 104.899C28.6521 101.905 23.5527 90.7432 23.5527 90.7432Z" fill="black"/>
<path opacity="0.1" d="M25.249 135.69C25.1033 135.906 15.2656 147.075 18.0338 147.874C20.802 148.673 25.249 135.69 25.249 135.69Z" fill="black"/>
<path opacity="0.1" d="M17.1611 132.843C16.9458 132.989 13.2273 140.872 12.7902 138.754C12.3531 136.635 15.9955 144.519 16.591 138.684L17.1611 132.843Z" fill="black"/>
<path opacity="0.1" d="M36.0568 69.4404C36.0568 69.4404 40.1173 66.9606 45.2231 73.3028C45.2231 73.3028 48.9352 75.4211 50.0311 75.9348C51.127 76.4485 52.3622 90.0144 52.3622 90.0144C52.3622 90.0144 54.7694 95.8492 54.1106 99.2105C53.4518 102.572 56.011 114.089 56.011 114.089C56.011 114.089 60.2425 134.815 60.0968 135.399C59.9511 135.982 55.7893 128.905 55.8589 125.416C55.9286 121.928 52.3622 110.969 51.8554 110.309C51.3487 109.65 47.8456 90.9023 47.8456 90.9023C47.8456 90.9023 45.0013 82.9239 43.1896 80.3109C41.3779 77.6979 39.1038 72.7003 38.1599 71.8441C37.478 71.2543 36.7167 70.7633 35.8984 70.3854L36.0568 69.4404Z" fill="black"/>
<path d="M35.9998 69.4404C35.9998 69.4404 40.5544 66.9606 45.6601 73.3028C45.6601 73.3028 49.3723 75.4211 50.4682 75.9348C51.5641 76.4485 52.7993 90.0144 52.7993 90.0144C52.7993 90.0144 55.2065 95.8492 54.5477 99.2105C53.8889 102.572 56.4481 114.089 56.4481 114.089C56.4481 114.089 60.6796 134.815 60.5339 135.399C60.3882 135.982 56.2327 128.905 56.3024 125.404C56.3721 121.903 52.8056 110.956 52.2989 110.297C51.7921 109.637 48.289 90.8896 48.289 90.8896C48.289 90.8896 45.4448 82.9366 43.6267 80.3109C41.8087 77.6853 39.5409 72.7003 38.597 71.8441C37.7873 71.2071 36.8746 70.7138 35.8984 70.3854L35.9998 69.4404Z" fill="#192534"/>
<path opacity="0.1" d="M49.9741 169.944C48.7072 172.722 47.624 186.669 46.8955 191.095C45.8566 189.32 44.6023 187.189 44.1843 186.529C43.6458 185.679 42.3535 182.09 41.6504 180.022C42.4739 178.018 44.748 172.272 44.748 170.166C44.748 167.591 48.9036 164.363 48.9036 164.363C49.6488 165.061 50.154 165.976 50.3463 166.979C50.5387 167.982 50.4084 169.02 49.9741 169.944Z" fill="black"/>
<path opacity="0.1" d="M22.1016 212.793C22.1016 212.793 31.7176 208.689 34.5618 211.588C37.4061 214.486 22.1016 212.793 22.1016 212.793Z" fill="black"/>
<path opacity="0.1" d="M27.511 214.435C27.511 214.435 17.781 219.908 21.1193 220.84C24.4577 221.773 27.511 214.435 27.511 214.435Z" fill="black"/>
<path opacity="0.1" d="M56.588 209.672C56.588 209.672 52.4388 209.951 54.0225 210.769C55.6061 211.587 56.588 209.672 56.588 209.672Z" fill="black"/>
<path opacity="0.1" d="M61.7826 210.934C61.7256 211.206 49.7024 215.094 52.0526 216.844C54.4027 218.595 61.7826 210.934 61.7826 210.934Z" fill="black"/>
<path opacity="0.1" d="M23.5527 244.427C25.3581 244.148 35.4176 239.499 31.4774 242.835C30.4256 243.796 29.1321 244.452 27.7359 244.733C26.3396 245.013 24.8934 244.907 23.5527 244.427Z" fill="black"/>
<path opacity="0.1" d="M28.4922 248.093C28.4922 248.093 29.3664 251.486 32.7047 251.048C36.0431 250.611 28.4922 248.093 28.4922 248.093Z" fill="black"/>
<path opacity="0.1" d="M25.7051 254.987C26.3069 254.822 33.4714 251.537 33.6297 253.084C33.7881 254.632 26.801 257.295 26.2562 256.477C25.9389 256.041 25.7481 255.525 25.7051 254.987Z" fill="black"/>
<path opacity="0.1" d="M48.8906 251.048C49.7648 250.991 57.9619 248.365 59.6025 250.718L48.8906 251.048Z" fill="black"/>
<path opacity="0.1" d="M56.3145 252.576C56.3145 252.576 57.7398 251.308 59.1587 251.942C60.5777 252.576 56.3145 252.576 56.3145 252.576Z" fill="black"/>
<path opacity="0.1" d="M38.1738 266.148C38.2672 266.611 38.492 267.037 38.8213 267.374C39.1506 267.712 39.5703 267.947 40.0299 268.051L38.1738 266.148Z" fill="black"/>
<path d="M79.8733 271.286C79.3286 273.531 71.6763 273.746 68.0149 273.144C64.3534 272.541 56.7518 270.353 56.7518 270.353C56.7518 270.353 48.7765 269.592 46.4264 268.603C44.0762 267.614 45.9323 265.102 45.9323 265.102V264.867C45.8752 263.954 45.7169 260.631 46.2807 259.737C46.9141 258.703 46.553 255.297 46.553 255.297C46.553 255.297 57.8667 257.485 58.0821 256.445C58.2975 255.405 60.0522 253.908 60.8694 253.597C61.6865 253.287 62.2947 256.337 62.2947 256.337C62.2947 256.337 67.4321 260.713 67.7615 262.299C68.0909 263.884 71.6953 264.709 71.6953 264.709C71.6953 264.709 77.1621 266.237 78.5811 267.005C78.9935 267.199 79.3489 267.497 79.6129 267.869C79.877 268.241 80.0409 268.675 80.0887 269.129C80.1503 269.855 80.0773 270.586 79.8733 271.286Z" fill="#3F3D56"/>
<path opacity="0.1" d="M79.8734 271.285C79.3286 273.531 71.6763 273.746 68.0149 273.144C64.3534 272.541 56.7519 270.353 56.7519 270.353C56.7519 270.353 48.7765 269.592 46.4264 268.603C44.0762 267.613 45.9323 265.102 45.9323 265.102V264.867L57.3726 267.404C57.3726 267.404 63.0042 269.814 66.6086 269.814C69.7759 269.814 76.8137 271.082 80.0887 269.18C80.1441 269.889 80.0711 270.602 79.8734 271.285Z" fill="black"/>
<path opacity="0.1" d="M64.4041 262.647C64.4041 262.647 63.8593 266.256 61.6738 267.461L64.4041 262.647Z" fill="black"/>
<path opacity="0.1" d="M50.0568 47.7185C49.8541 47.8281 49.6421 47.9194 49.4233 47.9912C48.3971 48.2639 47.3962 47.5726 46.484 47.0209C45.5718 46.4691 44.3176 46.0568 43.5257 46.7735C42.4995 47.7058 43.247 49.7099 42.1891 50.6105C41.5177 51.1813 40.4534 50.9847 39.7059 51.454C38.9585 51.9233 38.7367 52.9508 38.5467 53.8387C38.3567 54.7266 37.9829 55.7413 37.1151 56.0013C36.2472 56.2614 35.4364 55.6906 34.5812 55.7223C34.4038 55.7223 34.2011 55.754 34.0808 55.6208C34.0409 55.5643 34.0125 55.5005 33.9973 55.433C33.9821 55.3656 33.9803 55.2958 33.9921 55.2276C34.1037 54.1628 34.0113 53.0865 33.7197 52.0565C33.5652 51.5436 33.2783 51.0806 32.8879 50.7142C32.4975 50.3479 32.0174 50.0911 31.4962 49.97C29.9632 49.7353 28.671 51.0798 27.7651 52.3483C26.8172 53.6816 25.954 55.0732 25.1806 56.5151C25.1327 56.6076 25.0904 56.7029 25.0539 56.8005C24.3013 55.1034 23.915 53.2664 23.92 51.4096C23.9181 48.191 25.0778 45.0802 27.1853 42.6498C29.2929 40.2193 32.2065 38.6331 35.3897 38.183C38.5729 37.7329 41.8113 38.4493 44.5087 40.2003C47.2061 41.9513 49.1809 44.619 50.0694 47.7122L50.0568 47.7185Z" fill="black"/>
<path d="M27.7521 52.1333C28.658 50.8649 29.9439 49.5267 31.4833 49.7613C32.0026 49.8819 32.4806 50.1387 32.868 50.5054C33.2555 50.8721 33.5384 51.3355 33.6877 51.8479C33.9842 52.877 34.0789 53.9539 33.9664 55.019C33.9424 55.1587 33.9742 55.3022 34.0551 55.4186C34.1755 55.5454 34.3782 55.5264 34.5556 55.52C35.4107 55.52 36.2659 56.0464 37.0894 55.7991C37.9129 55.5517 38.3564 54.5307 38.5274 53.6364C38.6984 52.7422 38.9138 51.7338 39.6866 51.2518C40.4595 50.7697 41.492 50.979 42.1698 50.4019C43.2214 49.5013 42.4802 47.5035 43.5064 46.5649C44.2983 45.8546 45.5589 46.2605 46.4647 46.8122C47.3706 47.364 48.3651 48.0807 49.404 47.7826C49.7431 47.6594 50.0751 47.5176 50.3985 47.3577C52.0202 46.7235 54.1233 47.7889 55.4663 46.6791C55.9517 46.1957 56.2994 45.5915 56.4735 44.9286C56.8419 44.0351 57.0911 43.0968 57.2146 42.1381C57.3291 41.1712 57.0633 40.1977 56.4735 39.4236C55.6056 38.3962 54.1423 38.1552 53.0338 37.3878C52.1329 36.6813 51.3851 35.7988 50.8356 34.7938C50.2865 33.7887 49.5637 32.889 48.7009 32.1365C48.2627 31.7665 47.7315 31.5241 47.1651 31.4357C46.5987 31.3474 46.019 31.4165 45.4892 31.6355C45.169 31.8584 44.8135 32.0257 44.4376 32.1301C44.0289 32.1371 43.6268 32.027 43.2784 31.813C39.4776 30.0245 35.075 30.3416 30.9195 30.8744C29.2443 31.0119 27.6008 31.4099 26.0481 32.054C25.2747 32.3831 24.5813 32.8753 24.015 33.4969C23.4488 34.1186 23.023 34.8551 22.7668 35.6564C22.4247 36.9248 22.6844 38.3391 22.279 39.6012C22.0003 40.4637 21.4302 41.1994 21.1071 42.0429C20.2266 44.3515 21.2845 46.8884 21.7405 49.3174C22.2283 51.9748 21.9813 54.8478 23.1088 57.3593C23.3306 57.8539 23.5776 58.7165 24.135 58.393C24.5468 58.152 24.9459 56.7504 25.1803 56.3128C25.9506 54.8678 26.8095 53.472 27.7521 52.1333Z" fill="#192534"/>
<path opacity="0.1" d="M3.75719 94.9048L1.78711 100.524C1.78711 100.524 6.44942 117.889 8.63487 121.536C10.8203 125.182 14.051 129.856 14.051 129.856C17.7022 131.502 21.7626 132.012 25.7068 131.321C31.9781 130.053 50.2663 126.793 50.2663 126.793C50.6985 126.872 51.1438 126.832 51.5553 126.678C51.9667 126.524 52.329 126.261 52.6037 125.918C53.4019 124.751 57.5574 124.168 57.5574 124.168C57.5574 124.168 62.3655 117.191 56.4615 114.248C56.4615 114.248 55.7331 115.853 52.6037 114.756C49.4744 113.659 48.5179 115.631 48.5179 115.631C48.5179 115.631 43.4502 116.652 40.5742 116.265C37.6983 115.878 30.6668 115.751 29.9383 115.168C29.8454 115.088 29.7374 115.026 29.6207 114.988C29.504 114.95 29.3809 114.935 29.2584 114.944C29.136 114.954 29.0166 114.987 28.9071 115.043C28.7977 115.099 28.7003 115.176 28.6207 115.269C27.7732 114.964 26.983 114.518 26.2832 113.95C25.7004 113.316 24.9023 114.686 24.9023 114.686C24.9023 114.686 23.8824 114.096 24.1738 113.367C24.4652 112.637 23.2236 109.866 23.2236 109.866C22.8949 108.805 22.8211 107.682 23.0082 106.587C23.3693 105.122 21.1838 99.8707 21.1838 99.8707C21.1561 98.9861 21.2542 98.102 21.4752 97.245C21.8426 95.9322 18.707 93.3066 18.707 93.3066C18.707 93.3066 15.6473 78.4215 9.16065 83.3113C2.67396 88.2011 3.75719 94.9048 3.75719 94.9048Z" fill="black"/>
<path opacity="0.1" d="M50.69 118.396C50.614 118.909 49.0113 120.932 49.5941 121.313C50.1769 121.693 51.1271 121.459 50.2276 122.632C49.3281 123.805 49.4294 125.549 50.0122 125.327C50.595 125.106 51.5452 122.486 51.5452 121.459C51.4036 120.403 51.1157 119.372 50.69 118.396Z" fill="black"/>
<g opacity="0.1">
<path opacity="0.1" d="M33.687 50.5782C33.5333 50.0666 33.2473 49.6048 32.858 49.2395C32.4686 48.8742 31.9898 48.6184 31.4699 48.498C29.9306 48.2633 28.6447 49.6079 27.7388 50.8763C26.7909 52.2096 25.9277 53.6013 25.1543 55.0431C24.9199 55.4807 24.5208 56.876 24.109 57.117C23.5516 57.4468 23.3045 56.5779 23.0828 56.0832C21.9553 53.5781 22.2023 50.6987 21.7145 48.0414C21.32 46.4966 21.0071 44.9322 20.777 43.3545C20.606 45.2571 21.3535 47.2676 21.7145 49.2083C22.2023 51.8657 21.9553 54.745 23.0828 57.2565C23.3045 57.7449 23.5516 58.6137 24.109 58.2839C24.5208 58.0429 24.9199 56.6477 25.1543 56.2101C25.9277 54.7682 26.7909 53.3766 27.7388 52.0433C28.6447 50.7748 29.9306 49.4303 31.4699 49.6649C31.9898 49.7854 32.4686 50.0412 32.858 50.4065C33.2473 50.7718 33.5333 51.2336 33.687 51.7452C33.8647 52.2755 33.965 52.8288 33.9848 53.3878C34.0616 52.4409 33.9606 51.4879 33.687 50.5782Z" fill="black"/>
<path opacity="0.1" d="M56.4913 43.6716C56.3172 44.3344 55.9695 44.9387 55.4841 45.422C54.1538 46.5383 52.0507 45.4855 50.4164 46.107C50.0929 46.2649 49.7608 46.4046 49.4218 46.5256C48.3956 46.8046 47.3947 46.1133 46.4826 45.5616C45.5704 45.0098 44.3161 44.5976 43.5243 45.3142C42.4981 46.2465 43.2455 48.2443 42.1877 49.1512C41.5098 49.722 40.452 49.5254 39.7045 49.9947C38.957 50.464 38.7353 51.4915 38.5452 52.3794C38.3552 53.2673 37.9814 54.282 37.1073 54.5421C36.2331 54.8021 35.4349 54.2313 34.5734 54.263C34.396 54.263 34.1933 54.2947 34.073 54.1615C34.0459 54.1294 34.0245 54.093 34.0096 54.0537C34.0096 54.3455 34.0096 54.6435 34.0096 54.9353C33.9979 55.0034 33.9996 55.0732 34.0149 55.1407C34.0301 55.2082 34.0584 55.272 34.0983 55.3285C34.2187 55.4617 34.4214 55.4363 34.5987 55.43C35.4539 55.43 36.3091 55.9564 37.1326 55.709C37.9561 55.4617 38.3995 54.4406 38.5706 53.5527C38.7416 52.6648 38.957 51.65 39.7298 51.1617C40.5026 50.6734 41.5352 50.889 42.213 50.3182C43.2709 49.4176 42.5234 47.4135 43.5496 46.5129C44.3414 45.7962 45.602 46.2085 46.5079 46.7602C47.4138 47.312 48.4083 48.0287 49.4472 47.7306C49.7956 47.6355 50.0806 47.4325 50.4417 47.3057C52.0634 46.6714 54.1665 47.7369 55.5094 46.6207C55.9856 46.1344 56.3244 45.5304 56.4913 44.8703C56.8589 43.9786 57.1081 43.0426 57.2325 42.0861C57.2673 41.7614 57.2673 41.434 57.2325 41.1094C57.0869 41.9897 56.8381 42.8497 56.4913 43.6716Z" fill="black"/>
</g>
<path d="M156.308 39.3213H76.3901C71.5201 39.3213 67.5723 43.2738 67.5723 48.1496V156.702C67.5723 161.578 71.5201 165.53 76.3901 165.53H156.308C161.178 165.53 165.126 161.578 165.126 156.702V48.1496C165.126 43.2738 161.178 39.3213 156.308 39.3213Z" fill="#007EFF"/>
<path d="M116.343 138.259C129.287 138.259 139.781 127.753 139.781 114.793C139.781 101.833 129.287 91.3271 116.343 91.3271C103.398 91.3271 92.9043 101.833 92.9043 114.793C92.9043 127.753 103.398 138.259 116.343 138.259Z" fill="#F2F2F2"/>
<path d="M151.171 165.531H81.5273C81.7638 160.238 84.03 155.24 87.8543 151.578C91.6785 147.916 96.766 145.871 102.058 145.87H130.64C135.932 145.871 141.019 147.916 144.844 151.578C148.668 155.24 150.934 160.238 151.171 165.531Z" fill="#F2F2F2"/>
<path d="M56.0059 115.04C56.0059 115.04 64.678 109.332 68.8716 112.161C73.0651 114.989 79.9129 118.947 73.1728 121.826C66.4327 124.706 57.1271 124.147 57.1271 124.147L56.0059 115.04Z" fill="#FEC2BE"/>
<path d="M3.31926 94.9043L1.38086 100.523C1.38086 100.523 6.04317 117.888 8.22862 121.535C10.4141 125.182 13.5941 129.856 13.5941 129.856C17.2452 131.501 21.3057 132.012 25.2499 131.321C31.5212 130.053 49.8093 126.793 49.8093 126.793C50.2416 126.871 50.6869 126.831 51.0984 126.677C51.5098 126.523 51.872 126.261 52.1468 125.917C52.945 124.744 57.1259 124.148 57.1259 124.148C57.1259 124.148 61.9339 117.172 56.03 114.229C56.03 114.229 55.3015 115.833 52.1722 114.736C49.0428 113.639 48.0863 115.611 48.0863 115.611C48.0863 115.611 42.9869 116.632 40.1426 116.246C37.2984 115.859 30.2352 115.732 29.5067 115.148C29.3225 114.985 29.0811 114.901 28.8354 114.916C28.5897 114.93 28.3596 115.041 28.1955 115.225C27.3479 114.919 26.5578 114.473 25.858 113.905C25.2752 113.271 24.477 114.641 24.477 114.641C24.477 114.641 23.4571 114.051 23.7485 113.322C24.0399 112.593 22.7983 109.821 22.7983 109.821C22.4697 108.76 22.3959 107.637 22.583 106.542C22.944 105.077 20.7586 99.8258 20.7586 99.8258C20.7308 98.9411 20.8289 98.0571 21.05 97.2001C21.4174 95.8873 18.2817 93.2616 18.2817 93.2616C18.2817 93.2616 15.2221 78.3766 8.7354 83.2664C2.24871 88.1562 3.31926 94.9043 3.31926 94.9043Z" fill="#192534"/>
</g>
<defs>
<clipPath id="clip0">
<rect width="589.345" height="280" fill="white"/>
</clipPath>
</defs>
</svg>
