<svg width="22" height="19" viewBox="0 0 22 19" fill="none" xmlns="http://www.w3.org/2000/svg">
<path d="M5.5 1V3M16.5 1V3M21 7V5C21 3.34315 19.6569 2 18 2H4C2.34315 2 1 3.34315 1 5V7M21 7V15C21 16.6569 19.6569 18 18 18H4C2.34315 18 1 16.6569 1 15V7M21 7H1" stroke="#353132" stroke-linecap="round" stroke-linejoin="round"/>
<mask id="path-2-inside-1" fill="white">
<rect x="4" y="9" width="2" height="2" rx="0.5"/>
</mask>
<rect x="4" y="9" width="2" height="2" rx="0.5" fill="#333333" stroke="#353132" stroke-width="2" mask="url(#path-2-inside-1)"/>
<mask id="path-3-inside-2" fill="white">
<rect x="4" y="13" width="2" height="2" rx="0.5"/>
</mask>
<rect x="4" y="13" width="2" height="2" rx="0.5" fill="#333333" stroke="#353132" stroke-width="2" mask="url(#path-3-inside-2)"/>
<mask id="path-4-inside-3" fill="white">
<rect x="8" y="9" width="2" height="2" rx="0.5"/>
</mask>
<rect x="8" y="9" width="2" height="2" rx="0.5" fill="#333333" stroke="#353132" stroke-width="2" mask="url(#path-4-inside-3)"/>
<mask id="path-5-inside-4" fill="white">
<rect x="8" y="13" width="2" height="2" rx="0.5"/>
</mask>
<rect x="8" y="13" width="2" height="2" rx="0.5" fill="#333333" stroke="#353132" stroke-width="2" mask="url(#path-5-inside-4)"/>
<mask id="path-6-inside-5" fill="white">
<rect x="12" y="9" width="2" height="2" rx="0.5"/>
</mask>
<rect x="12" y="9" width="2" height="2" rx="0.5" fill="#333333" stroke="#353132" stroke-width="2" mask="url(#path-6-inside-5)"/>
<mask id="path-7-inside-6" fill="white">
<rect x="12" y="13" width="2" height="2" rx="0.5"/>
</mask>
<rect x="12" y="13" width="2" height="2" rx="0.5" fill="#333333" stroke="#353132" stroke-width="2" mask="url(#path-7-inside-6)"/>
<mask id="path-8-inside-7" fill="white">
<rect x="16" y="9" width="2" height="2" rx="0.5"/>
</mask>
<rect x="16" y="9" width="2" height="2" rx="0.5" fill="#333333" stroke="#353132" stroke-width="2" mask="url(#path-8-inside-7)"/>
</svg>
