<?xml version="1.0" standalone="no"?>
<!DOCTYPE svg PUBLIC "-//W3C//DTD SVG 1.1//EN" "http://www.w3.org/Graphics/SVG/1.1/DTD/svg11.dtd" >
<svg>
<metadata>
Created by FontForge 20090622 at Fri Nov 15 13:11:30 2019
 By deploy user
Generated by Fontographer 4.0.4D2
</metadata>
<defs>
<font id="Balaram" horiz-adv-x="519" >
  <font-face 
    font-family="Balaram"
    font-weight="400"
    font-stretch="normal"
    units-per-em="1000"
    panose-1="0 0 4 0 0 0 0 0 0 0"
    ascent="800"
    descent="-200"
    x-height="426"
    cap-height="635"
    bbox="-93 -255 1083 928"
    underline-thickness="50"
    underline-position="-75"
    unicode-range="U+0020-U+F002"
  />
<missing-glyph horiz-adv-x="500" 
d="M63 0v928h375v-928h-375zM125 63h250v803h-250v-803z" />
    <glyph glyph-name=".notdef" horiz-adv-x="500" 
d="M63 0v928h375v-928h-375zM125 63h250v803h-250v-803z" />
    <glyph glyph-name=".null" horiz-adv-x="0" 
 />
    <glyph glyph-name="nonmarkingreturn" horiz-adv-x="259" 
 />
    <glyph glyph-name="space" unicode=" " horiz-adv-x="259" 
 />
    <glyph glyph-name="exclam" unicode="!" horiz-adv-x="352" 
d="M179 -13q-49 0 -49 47t49 47t49 -47t-49 -47zM189 164h-29l-36 471h45q30 0 39 -15q7 -11 7 -51q0 -24 -11 -172q-12 -155 -15 -233z" />
    <glyph glyph-name="quotedbl" unicode="&#x22;" horiz-adv-x="426" 
d="M286 654q33 0 33 -49q0 -20 -18 -204q-3 -27 -15 -27q-13 0 -15 27l-18 204q0 49 33 49zM141 654q33 0 33 -49q0 -20 -18 -204q-3 -27 -15 -27q-13 0 -15 27l-18 204q0 49 33 49z" />
    <glyph glyph-name="numbersign" unicode="#" 
d="M324 243l34 149h-162l-34 -149h162zM49 392l32 67h90l34 149h40l-34 -149h162l34 149h40l-34 -149h107l-32 -67h-90l-34 -149h107l-33 -67h-90l-34 -149h-40l34 149h-161l-34 -149h-40l34 149h-107l32 67h90l34 149h-107z" />
    <glyph glyph-name="dollar" unicode="$" 
d="M236 705h30v-70q66 0 112 -25t46 -57q0 -22 -25 -22q-48 0 -75 65q-20 12 -58 12v-245q84 -27 116 -48q68 -45 68 -124q0 -72 -49 -121.5t-135 -65.5v-74h-30v70q-78 0 -129.5 25.5t-51.5 60.5q0 25 29 25q45 0 73 -71q19 -13 79 -13v267q-95 31 -135.5 69.5t-40.5 97.5
q0 68 47.5 114t128.5 58v72zM236 373v234q-49 -7 -80 -38t-31 -74q0 -89 111 -122zM266 285v-255q51 8 85 45.5t34 87.5q0 84 -119 122z" />
    <glyph glyph-name="percent" unicode="%" horiz-adv-x="759" 
d="M175 308q-67 0 -106 43t-39 113q0 83 49 136.5t126 53.5q67 0 106 -43.5t39 -112.5q0 -83 -49 -136.5t-126 -53.5zM194 338q93 0 93 127q0 67 -28 113t-73 46q-93 0 -93 -128q0 -68 28 -113t73 -45zM542 -19q-67 0 -106 43t-39 113q0 83 49 136.5t126 53.5
q67 0 106 -43.5t39 -112.5q0 -83 -49 -136.5t-126 -53.5zM561 11q93 0 93 127q0 67 -28 113t-73 46q-93 0 -93 -128q0 -68 28 -113t73 -45zM564 679h39q-87 -114 -186 -312q-116 -232 -148 -392l-58 -20q28 150 157 397q102 195 196 327z" />
    <glyph glyph-name="ampersand" unicode="&#x26;" horiz-adv-x="870" 
d="M234 367q-43 1 -71.5 -36.5t-28.5 -92.5q0 -95 69 -156.5t180 -61.5q82 0 145 40q-151 125 -294 307zM831 482v-61q0 -22 -21.5 -35t-52.5 -13q-37 0 -107 20l-1 -2q49 -48 49 -122q0 -97 -77 -174q62 -49 108 -49q36 0 68 26l15 -20q-99 -71 -130 -71q-42 0 -126 58
q-89 -58 -213 -58q-129 0 -208 60t-79 162q0 70 44.5 123t115.5 69q-46 66 -46 112q0 60 51.5 103.5t119.5 43.5q62 0 99 -27q-10 -56 -13.5 -67.5t-11.5 -11.5q-9 0 -10 13q-2 21 -27.5 35t-58.5 14q-39 0 -62.5 -19t-23.5 -51q0 -67 150 -230q134 -145 212 -195
q51 47 51 141q0 62 -39.5 108.5t-95.5 46.5q-30 0 -57 -21l-14 18q34 45 110 45q6 0 79 -10t82 -10q41 0 67 17q17 11 30 32q11 17 13 17q10 0 10 -17z" />
    <glyph glyph-name="quotesingle" unicode="'" horiz-adv-x="185" 
d="M93 654q33 0 33 -49q0 -20 -18 -204q-3 -27 -15 -27q-13 0 -15 27l-18 204q0 49 33 49z" />
    <glyph glyph-name="parenleft" unicode="(" horiz-adv-x="389" 
d="M325 712l12 -28q-97 -57 -147 -176q-40 -96 -40 -198q0 -113 35 -214q51 -147 164 -199l-13 -27q-145 63 -209 217q-40 97 -40 198q0 122 54 233q64 133 184 194z" />
    <glyph glyph-name="parenright" unicode=")" horiz-adv-x="389" 
d="M64 -130l-12 28q97 57 147 176q40 96 40 198q0 113 -35 214q-51 147 -164 199l13 27q145 -63 209 -217q40 -97 40 -198q0 -122 -54 -233q-64 -133 -184 -194z" />
    <glyph glyph-name="asterisk" unicode="*" horiz-adv-x="500" 
d="M113 499h-35q5 44 26 78q14 -14 60 -42.5t60 -28.5q16 0 16 16q0 42 -32 128q17 4 42 4t42 -4q-32 -86 -32 -128q0 -16 16 -16q15 0 62 29q42 26 58 42q21 -34 26 -78h-35q-108 0 -108 -24q0 -16 44 -53q35 -30 62 -45q-28 -32 -68 -49q-24 75 -32 94q-16 36 -35 36
q-18 0 -35 -36q-10 -20 -32 -94q-40 17 -68 49q27 15 62 45q44 37 44 53q0 24 -108 24z" />
    <glyph glyph-name="plus" unicode="+" 
d="M472 183h-182v-183h-60v183h-183v60h183v183h60v-183h182v-60z" />
    <glyph glyph-name="comma" unicode="," horiz-adv-x="259" 
d="M120 -162l-15 16q61 49 61 105q0 28 -19 33q-13 -5 -22 -5q-42 0 -42 43q0 42 46 42q33 0 55 -28.5t22 -70.5q0 -84 -86 -135z" />
    <glyph glyph-name="hyphen" unicode="-" horiz-adv-x="333" 
d="M64 247h136q31 0 59 2q21 1 33.5 3t6.5 2q3 -1 3 -3t-32 -64h-136q-31 0 -59 -2q-21 -1 -33.5 -3t-6.5 -2q-3 1 -3 3q5 11 32 64z" />
    <glyph glyph-name="period" unicode="." horiz-adv-x="259" 
d="M130 -13q-49 0 -49 47t49 47t49 -47t-49 -47z" />
    <glyph glyph-name="slash" unicode="/" horiz-adv-x="278" 
d="M306 654l-267 -673h-65l267 673h65z" />
    <glyph glyph-name="zero" unicode="0" 
d="M279 654q107 0 161 -112q41 -85 41 -208q0 -138 -60 -239q-68 -114 -180 -114q-107 0 -161 112q-41 85 -41 208q0 138 60 239q68 114 180 114zM246 615q-59 0 -93 -65q-36 -68 -36 -186q0 -113 29 -208q41 -136 128 -136q59 0 94 66.5t35 184.5q0 113 -29 208
q-41 136 -128 136z" />
    <glyph glyph-name="one" unicode="1" 
d="M305 654v-446q0 -124 5 -151t32 -27h86v-30h-318v30h90q24 0 24 18v395v-56t1 21q0 24 1 97q1 100 -46 100h-70v30q60 0 129 10z" />
    <glyph glyph-name="two" unicode="2" 
d="M450 0h-395q-9 0 -9 8l95 99q101 109 132 154q66 97 66 190q0 72 -36.5 112.5t-105.5 40.5t-126 -44l-15 21q78 73 183 73q83 0 134 -49t51 -131q0 -90 -58 -173q-30 -43 -125 -138l-92 -92l181 4q81 2 112 9q11 2 22 13.5t13 11.5q11 0 11 -11q0 4 -38 -98z" />
    <glyph glyph-name="three" unicode="3" 
d="M176 345v30q68 0 110 34t42 93q0 47 -33.5 74.5t-83.5 27.5q-83 0 -149 -59l-16 20q36 41 90 65t108 24q73 0 119 -36.5t46 -95.5q0 -94 -118 -148v-2q79 -7 124.5 -52t45.5 -116q0 -92 -79 -157.5t-194 -65.5q-94 0 -160 44l12 29q72 -37 137 -37q79 0 136 53t57 131
q0 88 -66 124q-37 20 -85 20h-43z" />
    <glyph glyph-name="four" unicode="4" 
d="M375 654v-349h20q65 0 83 18q7 7 11 7q8 0 8 -12q0 -4 -27 -72h-95v-244q-54 -28 -68 -28q-10 0 -10 13q0 -15 4 46t4 106v107h-287v13q142 185 340 395h17zM305 305v251q-139 -147 -210 -251h210z" />
    <glyph glyph-name="five" unicode="5" 
d="M321 543q-85 0 -171 39l-35 -151q56 9 94 9q116 0 183 -53.5t67 -144.5q0 -110 -85.5 -185.5t-206.5 -75.5q-65 0 -122 27l9 30q60 -21 99 -21q89 0 152 61t63 148q0 170 -196 170q-27 0 -61.5 -4.5t-27.5 -4.5q-9 0 -9 9q0 4 56 238q105 -23 167 -23q107 0 121 24
q5 9 14 9t9 -11q-2 -10 -15 -63q-31 -27 -105 -27z" />
    <glyph glyph-name="six" unicode="6" 
d="M437 654v-27q-116 0 -200.5 -73t-99.5 -188q52 37 75 49q44 23 85 23q81 0 132.5 -62.5t51.5 -157.5q0 -98 -65 -167.5t-156 -69.5q-97 0 -154.5 75.5t-57.5 206.5q0 172 108 281.5t281 109.5zM129 273q0 -90 31 -165q40 -97 117 -97q56 0 91 48.5t35 129.5
q0 86 -40 140.5t-105 54.5q-58 0 -124 -53q-5 -32 -5 -58z" />
    <glyph glyph-name="seven" unicode="7" 
d="M243 621q144 0 230 30l12 3q6 0 6 -5q0 -3 -14 -22q-89 -118 -158 -302q-74 -197 -74 -337q0 -14 -12 -14q-13 0 -74 27q56 293 250 582q-122 -30 -221 -30q-122 0 -122 22q0 17 13 70q71 -24 164 -24z" />
    <glyph glyph-name="eight" unicode="8" 
d="M269 297l-68 20q-89 -26 -89 -141q0 -70 43.5 -117.5t110.5 -47.5q63 0 102.5 38t39.5 100q0 58 -30 91.5t-109 56.5zM253 381l52 -12q80 36 80 115q0 61 -37.5 100.5t-96.5 39.5q-53 0 -88 -32.5t-35 -83.5q0 -52 39 -84q28 -23 86 -43zM37 166q0 112 129 166
q-48 20 -78.5 58.5t-30.5 85.5q0 75 61.5 126.5t148.5 51.5q82 0 135.5 -43.5t53.5 -113.5q0 -95 -120 -144q79 -27 113 -67t34 -104q0 -84 -67.5 -142.5t-162.5 -58.5t-155.5 51t-60.5 134z" />
    <glyph glyph-name="nine" unicode="9" 
d="M82 -19v27q116 0 200.5 73t99.5 188q-52 -37 -75 -49q-44 -23 -85 -23q-81 0 -132.5 62.5t-51.5 157.5q0 98 65 167.5t156 69.5q97 0 154.5 -75.5t57.5 -206.5q0 -173 -108.5 -282t-280.5 -109zM390 362q0 90 -31 165q-40 97 -117 97q-56 0 -91 -48.5t-35 -129.5
q0 -85 39.5 -140t105.5 -55q58 0 124 53q5 32 5 58z" />
    <glyph glyph-name="colon" unicode=":" horiz-adv-x="259" 
d="M130 348q-49 0 -49 47t49 47t49 -47t-49 -47zM130 -13q-49 0 -49 47t49 47t49 -47t-49 -47z" />
    <glyph glyph-name="semicolon" unicode=";" horiz-adv-x="259" 
d="M120 -162l-15 16q61 49 61 105q0 28 -19 33q-13 -5 -22 -5q-42 0 -42 43q0 42 46 42q33 0 55 -28.5t22 -70.5q0 -84 -86 -135zM130 348q-49 0 -49 47t49 47t49 -47t-49 -47z" />
    <glyph glyph-name="less" unicode="&#x3c;" 
d="M42 241l415 185v-61l-339 -152l339 -152v-61l-415 185v56z" />
    <glyph glyph-name="equal" unicode="=" 
d="M472 262h-425v60h425v-60zM472 104h-425v60h425v-60z" />
    <glyph glyph-name="greater" unicode="&#x3e;" 
d="M62 426l415 -185v-56l-415 -185v61l339 152l-339 152v61z" />
    <glyph glyph-name="question" unicode="?" horiz-adv-x="444" 
d="M361 497q0 -52 -34 -94q-20 -25 -92 -87q-28 -24 -28 -29q0 -13 30 -56q4 -5 15.5 -12t11.5 -10q0 -7 -63 -47q-43 42 -62 112q83 67 105 93q40 47 40 107q0 57 -36.5 91t-95.5 34q-48 0 -63 -24q-7 -11 -13 -11q-9 0 -9 10q0 7 26 61q44 19 90 19q77 0 127.5 -43
t50.5 -114zM203 -13q-49 0 -49 47t49 47t49 -47t-49 -47z" />
    <glyph glyph-name="at" unicode="@" horiz-adv-x="746" 
d="M173 276q0 103 76.5 185.5t180.5 82.5q4 0 18 -1t18 -1q17 0 32 9t16 9q10 0 10 -7q0 12 -20.5 -96.5t-20.5 -154.5q0 -58 12 -78t43 -20q57 0 96 62t39 160q0 119 -64.5 183t-187.5 64q-129 0 -233 -90q-119 -103 -119 -264q0 -102 48 -176q79 -122 272 -120
q111 1 186 43l87 54l14 -33q-149 -103 -294 -103q-181 0 -286 107q-92 93 -92 220q0 168 122 284.5t295 116.5q161 0 246 -93q71 -77 71 -192q0 -111 -75 -192q-78 -84 -187 -84q-42 0 -53 32q-8 23 -8 116l-2 2q-69 -141 -152 -141q-41 0 -64.5 31.5t-23.5 84.5zM446 517
h-35q-71 0 -119 -76q-42 -66 -42 -136q0 -83 53 -83q47 0 92 93t51 202z" />
    <glyph glyph-name="A" unicode="A" horiz-adv-x="648" 
d="M406 238h-227q-58 -148 -58 -182q0 -26 25 -26h63v-30h-202v30h20q29 0 36 16l253 599q54 13 59 13q10 0 10 -10q0 -3 -9 -13.5t-9 -17.5q0 -38 173 -510q17 -47 29 -62t32 -15h30v-30h-224v30h54q14 0 14 10q0 -6 -69 198zM392 274l-88 266l-111 -266h199z" />
    <glyph glyph-name="B" unicode="B" horiz-adv-x="549" 
d="M238 342h-55v-182q0 -87 9 -108q7 -16 32 -16h63q68 0 107.5 38.5t39.5 102.5q0 58 -36 102q-51 63 -160 63zM98 46v418q0 86 -4 109q-6 32 -24 32h-59v30h300q75 0 121.5 -38.5t46.5 -102.5q0 -93 -119 -138v-2q72 -15 115.5 -60.5t43.5 -109.5q0 -85 -67 -134.5
t-186 -49.5h-230v30h47q15 0 15 16zM325 364q76 41 76 114q0 53 -34.5 87t-84.5 34h-79q-13 0 -16.5 -3t-3.5 -15v-209q107 0 142 -8z" />
    <glyph glyph-name="C" unicode="C" horiz-adv-x="685" 
d="M630 620q-5 -60 -7.5 -72t-10.5 -12q-9 0 -12 19q-4 25 -51 44t-97 19q-130 0 -210 -87.5t-80 -226.5q0 -130 86 -213q77 -74 178 -74q72 0 131.5 28.5t64.5 68.5q2 18 13 18q10 0 10 -13q0 8 -6 -87q-104 -51 -230 -51q-158 0 -248 82t-90 230q0 154 111.5 257.5
t275.5 103.5q85 0 172 -34z" />
    <glyph glyph-name="D" unicode="D" horiz-adv-x="704" 
d="M206 581v-421q0 -87 9 -108q7 -16 32 -16h80q109 0 174 70.5t65 183.5q0 144 -76 226.5t-206 82.5q-53 0 -65.5 -2.5t-12.5 -15.5zM34 605v30h294q184 0 270 -118q59 -81 59 -187q0 -145 -91.5 -237.5t-236.5 -92.5h-270v30h47q15 0 15 16v418q0 86 -4 109q-6 32 -24 32
h-59z" />
    <glyph glyph-name="E" unicode="E" horiz-adv-x="593" 
d="M121 46v418q0 86 -4 109q-6 32 -24 32h-59v30h501q-9 -89 -21 -93q-8 0 -12 18q-9 39 -178 39h-98q-20 0 -20 -18v-217h116q83 0 108.5 6t25.5 28v39h27v-169h-27v35q0 20 -18.5 24t-105.5 4h-126v-171q0 -87 9 -108q7 -16 32 -16h67q194 0 226 53q7 11 12 11q8 0 8 -11
q0 -6 -25 -89h-476v30h47q15 0 15 16z" />
    <glyph glyph-name="F" unicode="F" horiz-adv-x="574" 
d="M34 605v30h501q-9 -89 -21 -93q-8 0 -12 18q-9 39 -178 39h-98q-20 0 -20 -18v-217h116q83 0 108.5 6t25.5 28v39h27v-169h-27v35q0 20 -18.5 24t-105.5 4h-126v-160q0 -86 4 -109q6 -32 24 -32h57v-30h-232v30h47q15 0 15 16v418q0 86 -4 109q-6 32 -24 32h-59z" />
    <glyph glyph-name="G" unicode="G" horiz-adv-x="722" 
d="M619 250v-164q0 -14 6 -25.5l6 -11.5q0 -8 -16 -16q-46 -22 -120.5 -37t-132.5 -15q-141 0 -225.5 87.5t-84.5 233.5q0 155 112 253.5t284 98.5q107 0 180 -38q-11 -62 -14 -71q-3 -12 -9 -12q-12 0 -12 18q0 25 -48 46t-110 21q-99 0 -176 -52q-116 -79 -116 -254
q0 -132 71.5 -213.5t189.5 -81.5q75 0 130 29v150q-5 67 -26 67h-72v30h245v-30h-44q-18 0 -18 -13z" />
    <glyph glyph-name="H" unicode="H" horiz-adv-x="722" 
d="M527 328h-329v-157q0 -86 4 -109q6 -32 24 -32h57v-30h-232v30h47q15 0 15 16v418q0 86 -4 109q-6 32 -24 32h-59v30h232v-30h-45q-15 0 -15 -16v-225h329v100q0 86 -4 109q-6 32 -24 32h-59v30h232v-30h-45q-15 0 -15 -16v-418q0 -86 4 -109q6 -32 24 -32h57v-30h-232
v30h47q15 0 15 16v282z" />
    <glyph glyph-name="I" unicode="I" horiz-adv-x="333" 
d="M210 589v-418q0 -86 4 -109q6 -32 24 -32h57v-30h-232v30h47q15 0 15 16v418q0 86 -4 109q-6 32 -24 32h-59v30h232v-30h-45q-15 0 -15 -16z" />
    <glyph glyph-name="J" unicode="J" horiz-adv-x="333" 
d="M-7 -187q-46 0 -73 7q-13 65 -13 70q0 10 11 10q8 0 15 -14q9 -18 13 -21q26 -19 55 -19q64 0 98.5 46.5t34.5 127.5v444q0 86 -4 109q-6 32 -24 32h-59v30h232v-30h-45q-15 0 -15 -16v-558q0 -101 -61 -159.5t-165 -58.5z" />
    <glyph glyph-name="K" unicode="K" horiz-adv-x="667" 
d="M210 243v-72q0 -86 4 -109q6 -32 24 -32h57v-30h-232v30h47q15 0 15 16v418q0 86 -4 109q-6 32 -24 32h-59v30h232v-30h-45q-15 0 -15 -16v-301q92 81 190 180q109 111 109 128q0 9 -16 9h-69v30h209v-30h-34q-14 0 -32 -18l-233 -234l177 -217q64 -80 86 -97
q13 -10 58 -10v-29h-132q-11 0 -49 47q-32 39 -195 254z" />
    <glyph glyph-name="L" unicode="L" horiz-adv-x="556" 
d="M259 635v-30h-45q-15 0 -15 -16v-429q0 -87 9 -108q7 -16 32 -16h67q194 0 226 53q7 11 12 11q8 0 8 -11q0 -6 -25 -89h-476v30h47q15 0 15 16v418q0 86 -4 109q-6 32 -24 32h-59v30h232z" />
    <glyph glyph-name="M" unicode="M" horiz-adv-x="852" 
d="M791 635v-30h-45q-15 0 -15 -16v-418q0 -86 4 -109q6 -32 24 -32h57v-30h-232v30h47q15 0 15 16l-2 494l-224 -530q-3 -7 -18 -7q-3 0 -15 25l-235 499l-2 -2v-390q0 -105 32 -105h53v-30h-183v30h37q23 0 23 20v440q0 56 -5 74q-11 41 -51 41h-31v30h160l242 -499
l221 499h143z" />
    <glyph glyph-name="N" unicode="N" horiz-adv-x="741" 
d="M178 635l409 -495h2v360q0 105 -32 105h-53v30h183v-30h-37q-23 0 -23 -20v-578q0 -16 -8 -16q-5 0 -14 11l-12 14l-433 522h-2v-403q0 -105 32 -105h53v-30h-183v30h37q23 0 23 20v440q0 56 -5 74q-11 41 -51 41h-31v30h145z" />
    <glyph glyph-name="O" unicode="O" horiz-adv-x="741" 
d="M362 -19q-147 0 -231 88.5t-84 238.5q0 147 94 246.5t239 99.5q146 0 230.5 -88t84.5 -239q0 -148 -95 -247t-238 -99zM358 621q-105 0 -165.5 -76.5t-60.5 -208.5q0 -144 71 -233t181 -89q104 0 165 76t61 209q0 144 -71 233t-181 89z" />
    <glyph glyph-name="P" unicode="P" horiz-adv-x="556" 
d="M38 605v30h280q88 0 143.5 -47t55.5 -125q0 -74 -63 -124.5t-156 -50.5q-56 0 -88 13v-130q0 -86 4 -109q6 -32 24 -32h57v-30h-232v30h47q15 0 15 16v418q0 86 -4 109q-6 32 -24 32h-59zM210 583v-252q33 -13 75 -13q65 0 106 35.5t41 96.5q0 149 -184 149
q-25 0 -32 -2.5t-6 -13.5z" />
    <glyph glyph-name="Q" unicode="Q" horiz-adv-x="741" 
d="M132 336q0 -134 58.5 -219t164.5 -103q37 6 61 25l19 -21q175 45 175 281q0 144 -71 233t-181 89q-105 0 -165.5 -76.5t-60.5 -208.5zM726 -119l10 -22q-101 -48 -150 -48q-72 0 -216 170q-153 0 -238 86t-85 241q0 147 94 246.5t239 99.5q146 0 230.5 -88t84.5 -239
q0 -155 -103 -254q-70 -67 -133 -78v-1q63 -63 93 -85q61 -45 114 -45q19 0 60 17z" />
    <glyph glyph-name="R" unicode="R" horiz-adv-x="611" 
d="M210 318h50q82 0 128 33.5t46 95.5q0 67 -43.5 109.5t-106.5 42.5h-51q-23 0 -23 -14v-267zM125 46v418q0 86 -4 109q-6 32 -24 32h-59v30h280q79 0 134 -38q67 -46 67 -134q0 -63 -42.5 -105.5t-113.5 -55.5q120 -173 165 -226q40 -46 63 -46h25v-30h-115q-20 0 -48 36
q-45 57 -169 252h-74v-117q0 -86 4 -109q6 -32 24 -32h57v-30h-232v30h47q15 0 15 16z" />
    <glyph glyph-name="S" unicode="S" horiz-adv-x="478" 
d="M257 618q-57 0 -96.5 -32.5t-39.5 -82.5q0 -54 45 -87q26 -19 93 -44q103 -38 142 -75q47 -44 47 -120q0 -81 -68 -138.5t-173 -57.5q-84 0 -156 28q-15 85 -15 92q0 12 12 12q10 0 15 -19q9 -38 65 -60q44 -17 91 -17q71 0 116.5 35.5t45.5 94.5q0 50 -33.5 82.5
t-123.5 64.5q-67 24 -100 49q-67 51 -67 128q0 85 73 137q65 46 154 46q72 0 113 -19l3 -73q0 -13 -11 -13q-10 0 -12 15q-4 23 -39.5 38.5t-80.5 15.5z" />
    <glyph glyph-name="T" unicode="T" horiz-adv-x="611" 
d="M348 599v-428q0 -86 4 -109q6 -32 24 -32h77v-30h-280v30h75q15 0 15 16v553h-25q-167 0 -184 -51q-5 -14 -14 -14q-11 0 -11 10q0 9 28 91h497q28 -82 28 -91q0 -10 -11 -10q-9 0 -14 14q-17 51 -184 51h-25z" />
    <glyph glyph-name="U" unicode="U" horiz-adv-x="704" 
d="M16 605v30h232v-30h-45q-15 0 -15 -16v-379q0 -88 46.5 -138t123.5 -50q135 0 183 89q27 50 27 149v240q0 105 -32 105h-53v30h183v-30h-37q-23 0 -23 -20v-356q0 -115 -68 -181.5t-185 -66.5q-158 0 -215 91q-35 56 -35 170v222q0 86 -4 109q-6 32 -24 32h-59z" />
    <glyph glyph-name="V" unicode="V" horiz-adv-x="648" 
d="M640 635v-30h-44q-8 0 -12 -11l-228 -578q-14 -35 -22 -35q-6 0 -17 26l-212 513q-24 59 -35.5 72t-37.5 13h-24v30h216v-30h-54q-10 0 -10 -6q0 -4 51 -124l147 -351q174 423 174 464q0 17 -25 17h-57v30h190z" />
    <glyph glyph-name="W" unicode="W" horiz-adv-x="963" 
d="M-4 605v30h216v-30h-54q-10 0 -10 -6q0 -4 190 -463l131 350q-40 119 -75 119h-34v30h216v-30h-54q-10 0 -10 -6q0 -3 63 -160l122 -310q161 416 161 459q0 17 -25 17h-57v30h190v-30h-46q-8 0 -12 -11l-214 -578q-13 -35 -22 -35q-7 0 -17 26l-168 433l-153 -424
q-13 -35 -22 -35q-7 0 -17 26l-202 513q-23 58 -35 71.5t-38 13.5h-24z" />
    <glyph glyph-name="X" unicode="X" horiz-adv-x="648" 
d="M226 0h-193v30q35 0 44.5 3t17.5 17l7 12q95 163 184 266l-166 247q-15 22 -26 26t-52 4v30h228v-30h-58q-10 0 -10 -6q0 -5 51 -79l92 -135q95 114 124.5 154.5t29.5 56.5q0 9 -17 9h-59v30h185v-30h-34q-12 0 -43.5 -37t-168.5 -209q161 -240 191 -281q35 -48 49 -48
h36v-30h-229v30h48q22 0 22 7q0 5 -174 265q-52 -56 -104.5 -141.5t-52.5 -116.5q0 -14 14 -14h64v-30z" />
    <glyph glyph-name="Y" unicode="Y" horiz-adv-x="574" 
d="M342 276v-105q0 -86 4 -109q6 -32 24 -32h57v-30h-232v30h47q15 0 15 16v227l-122 216q-40 71 -64 101q-12 15 -33 15h-34v30h225v-30h-46q-16 0 -16 -4t161 -287q137 257 137 279q0 12 -20 12h-58v30h182v-30h-35q-12 0 -28 -30z" />
    <glyph glyph-name="Z" unicode="Z" horiz-adv-x="593" 
d="M537 0h-481q-18 0 -18 7q0 3 19 32l364 560q-139 0 -203 -7q-111 -12 -126 -49q-6 -14 -14 -14q-10 0 -10 11q0 9 24 95h430q8 0 8 -6q0 -3 -7 -14l-373 -579h27q338 0 362 58q8 20 17 20q10 0 10 -9q0 -3 -29 -105z" />
    <glyph glyph-name="bracketleft" unicode="[" horiz-adv-x="389" 
d="M139 705h160v-30h-56q-31 0 -31 -18v-690q6 -60 42 -60h45v-30h-150v633q0 133 -10 195z" />
    <glyph glyph-name="backslash" unicode="\" horiz-adv-x="278" 
d="M38 654l266 -673h-65l-266 673h65z" />
    <glyph glyph-name="bracketright" unicode="]" horiz-adv-x="389" 
d="M250 -123h-160v30h56q31 0 31 18v690q-6 60 -42 60h-45v30h150v-633q0 -133 10 -195z" />
    <glyph glyph-name="asciicircum" unicode="^" 
d="M119 270h-68l176 365h66l176 -365h-68l-141 298z" />
    <glyph glyph-name="underscore" unicode="_" horiz-adv-x="500" 
d="M500 -125h-500v50h500v-50z" />
    <glyph glyph-name="grave" unicode="`" horiz-adv-x="278" 
d="M182 507l-18 -20q-84 57 -148 88q17 31 34 31q11 0 64 -40t68 -59z" />
    <glyph glyph-name="a" unicode="a" horiz-adv-x="444" 
d="M280 109v129q-95 -37 -130 -67.5t-35 -73.5q0 -54 52 -54q64 0 113 66zM244 254l36 15v51q0 43 -10 58q-16 24 -64 24q-49 0 -81 -24q0 -41 -15.5 -67t-40.5 -26q-27 0 -27 27q0 51 65 90.5t147 39.5q68 0 89 -34q15 -24 15 -95v-153q0 -70 12.5 -92t53.5 -33l-30 -51
q-36 0 -67.5 26t-40.5 65q-91 -91 -162 -91q-42 0 -66 26t-24 68q0 59 58 101q38 28 152 75z" />
    <glyph glyph-name="b" unicode="b" 
d="M165 338v-291q44 -33 96 -33q69 0 107 50t38 139q0 87 -34.5 136t-97.5 49q-46 0 -109 -50zM87 120v491q-5 46 -41 46h-38v27q36 0 157 21v-333q50 36 72 47q43 23 82 23q75 0 121.5 -60.5t46.5 -153.5q0 -108 -61.5 -176t-161.5 -68q-75 0 -142 47l-19 -47h-21
q5 77 5 136z" />
    <glyph glyph-name="c" unicode="c" horiz-adv-x="444" 
d="M408 75l14 -18q-66 -73 -174 -73q-93 0 -148 61.5t-55 158.5q0 81 48 149q63 89 179 89q50 0 92.5 -30t42.5 -64q0 -29 -31 -29q-24 0 -44.5 25.5t-24.5 59.5q-16 11 -43 11q-63 0 -102 -52.5t-39 -133.5q0 -91 45.5 -144.5t124.5 -53.5q65 0 115 44z" />
    <glyph glyph-name="d" unicode="d" horiz-adv-x="537" 
d="M368 93v281q-48 38 -99 38q-70 0 -109.5 -50.5t-39.5 -137.5q0 -186 138 -186q60 0 110 55zM446 705v-521q0 -93 4 -119q6 -38 27 -38h48v-27q-53 -2 -157 -16v74q-47 -36 -73 -51q-41 -23 -79 -23q-81 0 -129 59t-48 154q0 107 61.5 176t150.5 69q59 0 117 -36v205
q-5 46 -41 46h-38v27q36 0 157 21z" />
    <glyph glyph-name="e" unicode="e" horiz-adv-x="444" 
d="M410 81l14 -18q-77 -79 -188 -79q-87 0 -139 59.5t-52 156.5q0 103 54.5 172.5t139.5 69.5q58 0 99.5 -32.5t77.5 -109.5l-293 -79q10 -190 161 -190q68 0 126 50zM123 251l204 54q-39 107 -103 107q-42 0 -71.5 -49t-29.5 -112z" />
    <glyph glyph-name="f" unicode="f" horiz-adv-x="296" 
d="M178 399v-215q0 -93 4 -119q6 -38 27 -38h54v-27h-219v27h35q21 0 21 16v356h-60v27h60v135q0 69 39 110t103 41q44 0 76 -16t32 -40q0 -23 -27 -23q-41 0 -69 47q-8 2 -14 2q-34 0 -48 -28t-14 -93v-135h82v-27h-82z" />
    <glyph glyph-name="g" unicode="g" horiz-adv-x="481" 
d="M243 -220q61 0 107 22q59 28 59 82q0 42 -36 61q-23 12 -82 19l-98 11q-43 -8 -72 -35t-29 -62q0 -44 42 -71t109 -27zM63 271q0 73 50 122t123 49q13 0 67.5 -9t87.5 -9q25 0 41 11.5t13 11.5q9 0 9 -9q0 2 -7 -31q-5 -23 -24 -23q-23 0 -56 5q35 -42 35 -97
q0 -70 -49.5 -117.5t-119.5 -47.5q-33 0 -61 7q-32 -32 -32 -55q0 -19 18.5 -26t87.5 -12l56 -4q170 -12 170 -130q0 -81 -89 -124q-69 -33 -160 -33t-142.5 32.5t-51.5 87.5q0 77 109 117q-57 21 -57 59q0 30 63 98q-81 41 -81 127zM326 263q0 64 -28.5 106.5t-76.5 42.5
q-82 0 -82 -109q0 -63 30 -104.5t72 -41.5q40 0 62.5 28.5t22.5 77.5z" />
    <glyph glyph-name="h" unicode="h" horiz-adv-x="556" 
d="M467 300v-116q0 -93 4 -119q6 -38 27 -38h44v-27h-209v27h35q21 0 21 16v236q0 112 -79 112q-62 0 -128 -57v-150q0 -93 4 -119q6 -38 27 -38h42v-27h-207v27h35q21 0 21 16v568q-5 46 -41 46h-38v27q36 0 157 21v-338q55 41 76 52q43 23 88 23q63 0 92 -33t29 -109z" />
    <glyph glyph-name="i" unicode="i" horiz-adv-x="278" 
d="M261 27v-27h-213v27h35q21 0 21 16v310q-5 46 -41 46h-38v27q17 0 78.5 8t78.5 8v-258q0 -93 4 -119q6 -38 27 -38h48zM136 630q19 0 32 -13t13 -32t-13 -32t-32 -13t-32 13t-13 32t13 32t32 13z" />
    <glyph glyph-name="j" unicode="j" horiz-adv-x="278" 
d="M35 399v27q17 0 78.5 8t78.5 8v-512q0 -85 -45 -132.5t-121 -47.5q-35 0 -62 14q-30 14 -30 35q0 25 32 25q40 0 65 -47h13q70 0 70 152v424q-5 46 -41 46h-38zM146 540q-19 0 -32 13t-13 32t13 32t32 13t32 -13t13 -32t-13 -32t-32 -13z" />
    <glyph glyph-name="k" unicode="k" horiz-adv-x="537" 
d="M182 705v-498q82 54 143 113q53 52 53 68q0 11 -18 11h-57v27h189v-27q-38 0 -59 -19l-126 -114q161 -239 204 -239h22v-27h-115q-8 0 -57 60q-56 69 -111 159l-68 -48q0 -83 4 -108q6 -36 27 -36h48v-27h-213v27h35q21 0 21 16v568q-5 46 -41 46h-38v27q36 0 157 21z
" />
    <glyph glyph-name="l" unicode="l" horiz-adv-x="278" 
d="M182 705v-521q0 -93 4 -119q6 -38 27 -38h48v-27h-213v27h35q21 0 21 16v568q-5 46 -41 46h-38v27q36 0 157 21z" />
    <glyph glyph-name="m" unicode="m" horiz-adv-x="815" 
d="M182 334v-150q0 -93 4 -119q6 -38 27 -38h44v-27h-209v27h35q21 0 21 16v310q-5 46 -41 46h-38v27q17 0 78.5 8t78.5 8v-82q56 46 74 56q43 25 91 25q88 0 103 -79q58 45 72 54q43 26 83 26q63 0 92 -33t29 -109v-116q0 -93 4 -119q6 -38 27 -38h44v-27h-209v27h35
q21 0 21 16v236q0 115 -79 112q-55 -2 -115 -57v-150q0 -93 4 -119q6 -38 27 -38h44v-27h-209v27h35q21 0 21 16v236q0 114 -79 112q-33 -1 -63 -19q-3 -2 -52 -38z" />
    <glyph glyph-name="n" unicode="n" horiz-adv-x="556" 
d="M467 300v-116q0 -93 4 -119q6 -38 27 -38h44v-27h-209v27h35q21 0 21 16v236q0 112 -79 112q-62 0 -128 -57v-150q0 -93 4 -119q6 -38 27 -38h44v-27h-209v27h35q21 0 21 16v310q-5 46 -41 46h-38v27q17 0 78.5 8t78.5 8v-75q55 41 76 52q43 23 88 23q63 0 92 -33
t29 -109z" />
    <glyph glyph-name="o" unicode="o" 
d="M272 442q92 0 147.5 -61t55.5 -159q0 -81 -48 -149q-63 -89 -179 -89q-93 0 -148 61.5t-55 158.5q0 81 48 149q63 89 179 89zM271 14q59 0 91 48.5t32 134.5q0 80 -32 140q-40 75 -113 75q-59 0 -91 -48.5t-32 -135.5q0 -80 32 -140q39 -74 113 -74z" />
    <glyph glyph-name="p" unicode="p" horiz-adv-x="537" 
d="M97 -203v556q-5 46 -41 46h-38v27q17 0 78.5 8t78.5 8v-72q61 42 75 49q42 23 83 23q75 0 121.5 -60.5t46.5 -153.5q0 -109 -61.5 -177t-161.5 -67q-46 0 -103 31v-77q0 -93 4 -119q6 -38 27 -38h54v-27h-219v27h35q21 0 21 16zM175 336v-285q53 -37 100 -37q69 0 107 50
t38 139q0 87 -34.5 136t-97.5 49q-57 0 -113 -52z" />
    <glyph glyph-name="q" unicode="q" 
d="M365 -255v306q-63 -42 -70 -46q-39 -21 -79 -21q-81 0 -129 59t-48 154q0 116 69 185q60 60 143 60q81 0 160 -40l16 43h23q-7 -142 -7 -183v-313q0 -93 4 -119q6 -38 27 -38q-11 0 49 6v-27zM365 82v302q-44 28 -96 28q-70 0 -109.5 -50.5t-39.5 -137.5q0 -185 138 -186
q54 0 107 44z" />
    <glyph glyph-name="r" unicode="r" horiz-adv-x="370" 
d="M182 320v-136q0 -93 4 -119q6 -38 27 -38h48v-27h-213v27h35q21 0 21 16v310q-5 46 -41 46h-38v27q17 0 78.5 8t78.5 8v-87q83 87 129 87q31 0 49 -21q-10 -57 -13 -67.5t-10 -10.5q3 0 -15.5 16t-43.5 16q-45 0 -96 -55z" />
    <glyph glyph-name="s" unicode="s" horiz-adv-x="389" 
d="M360 129q0 -65 -57.5 -105t-143.5 -40q-65 0 -119 20q-12 75 -12 81q0 15 11 15q10 0 14 -16q8 -28 45 -47.5t77 -19.5q52 0 84.5 25t32.5 67q0 34 -62 60q-10 4 -125 40q-65 32 -65 99q0 57 50 95.5t130 38.5q59 0 106 -22l6 -64q0 -14 -9 -14q-8 0 -13 11
q-11 24 -41.5 40t-65.5 16q-41 0 -71 -21t-30 -53q0 -33 63 -61q17 -7 128 -43q67 -34 67 -102z" />
    <glyph glyph-name="t" unicode="t" horiz-adv-x="315" 
d="M174 426h106q-5 -27 -20 -27h-86v-263q0 -59 9 -79q14 -31 57 -31q29 0 66 16l10 -22q-63 -36 -115 -36q-105 0 -105 99v316q-50 0 -50 7q0 6 112 121h16v-101z" />
    <glyph glyph-name="u" unicode="u" horiz-adv-x="556" 
d="M522 35l-30 -51q-90 14 -107 82q-98 -82 -153 -82q-71 0 -102 40t-31 135v194q-5 46 -41 46h-38v27q17 0 78.5 8t78.5 8v-282q0 -70 17.5 -96t60.5 -26q68 0 123 55v260q-5 46 -41 46h-38v27q17 0 78.5 8t78.5 8v-282q0 -70 12.5 -92t53.5 -33z" />
    <glyph glyph-name="v" unicode="v" horiz-adv-x="481" 
d="M474 426v-27q-30 0 -37 -2q-10 -3 -15 -15l-170 -389q-5 -12 -12 -12t-13 14q-114 272 -153 353q-25 51 -38 51h-29v27h201v-27h-45q-16 0 -16 -9t120 -294q105 240 105 285q0 18 -21 18h-47v27h170z" />
    <glyph glyph-name="w" unicode="w" horiz-adv-x="722" 
d="M267 426h194v-27h-45q-16 0 -16 -9l112 -292q108 258 108 283q0 18 -21 18h-47v27h164v-27q-39 0 -43 -4q-7 -9 -171 -402q-5 -12 -14 -12q-10 0 -15 14l-110 281l-118 -283q-5 -12 -14 -12q-10 0 -15 14q-110 282 -143 353q-24 51 -40 51h-27v27h195v-27h-45
q-16 0 -16 -9q0 -3 112 -292l95 215q-26 61 -33.5 73.5t-18.5 12.5h-28v27z" />
    <glyph glyph-name="x" unicode="x" 
d="M245 426v-27h-40q-16 0 -16 -8q0 -5 93 -127q107 104 107 126q0 9 -12 9h-55v27h166v-27q-35 0 -46 -12q-82 -89 -142 -147q111 -149 137.5 -181t37.5 -32h31v-27h-206v27h45q9 0 9 5q0 6 -112 158q-22 -16 -65 -73q-47 -62 -47 -81q0 -9 13 -9h56v-27h-172v27h32
q6 0 52 59q60 77 114 129q-88 120 -121 155q-27 29 -42 29h-27v27h210z" />
    <glyph glyph-name="y" unicode="y" horiz-adv-x="481" 
d="M202 426v-27h-51q-8 0 -8 -6q0 -8 126 -298q109 230 109 290q0 14 -25 14h-45v27h171v-27h-35q-13 0 -20 -19q-48 -125 -275 -614q-53 -14 -107 -14q-12 0 -12 11q0 8 25 19q33 15 53 35q55 55 118 190l-158 354q-12 27 -22 32.5t-41 5.5v27h197z" />
    <glyph glyph-name="z" unicode="z" horiz-adv-x="444" 
d="M381 0h-348q-14 0 -14 11q0 4 112 137l181 217l-110 -2q-83 -2 -103 -6q-13 -3 -26 -16t-17 -13q-9 0 -9 9l25 89h318q14 0 14 -9q0 -4 -121 -147l-172 -206l253 8q14 0 26.5 12.5t15.5 12.5q9 0 9 -9q0 -6 -34 -88z" />
    <glyph glyph-name="braceleft" unicode="{" horiz-adv-x="389" 
d="M149 404v163q0 77 28 107.5t103 30.5v-16q-68 -20 -68 -122v-149q0 -61 -15.5 -88t-55.5 -38v-2q40 -11 55.5 -38t15.5 -88v-149q0 -102 68 -122v-16q-75 0 -103 30.5t-28 107.5v163q0 51 -14.5 75.5t-54.5 37.5q40 13 54.5 37.5t14.5 75.5z" />
    <glyph glyph-name="bar" unicode="|" horiz-adv-x="222" 
d="M81 -100v805h60v-805h-60z" />
    <glyph glyph-name="braceright" unicode="}" horiz-adv-x="389" 
d="M240 178v-163q0 -77 -28 -107.5t-103 -30.5v16q68 20 68 122v149q0 61 15.5 88t55.5 38v2q-40 11 -55.5 38t-15.5 88v149q0 102 -68 122v16q75 0 103 -30.5t28 -107.5v-163q0 -51 14.5 -75.5t54.5 -37.5q-40 -13 -54.5 -37.5t-14.5 -75.5z" />
    <glyph glyph-name="asciitilde" unicode="~" 
d="M84 157l-33 41q55 77 113 77q33 0 93 -27q86 -39 108 -39q40 0 71 60l33 -41q-55 -77 -113 -77q-33 0 -93 27q-86 39 -108 39q-40 0 -71 -60z" />
    <glyph glyph-name="dagger" unicode="&#x2020;" horiz-adv-x="500" 
d="M441 464q-25 -16 -35 -49q-65 34 -144 37q3 -113 41 -200q-45 -76 -41 -214l3 -99h-30l3 99q4 138 -41 214q38 87 41 200q-79 -3 -144 -37q-10 33 -35 49q25 16 35 49q65 -34 144 -37q0 82 -36 137q29 13 48 41q19 -28 48 -41q-36 -55 -36 -137q79 3 144 37
q10 -33 35 -49z" />
    <glyph glyph-name="cent" unicode="&#xa2;" 
d="M285 519v-380l31 -3q70 0 119 43l14 -18q-65 -72 -164 -72v-108h-30v108q-85 7 -134.5 66.5t-49.5 154.5q0 88 50.5 152t133.5 80v112h30v-108q61 0 105 -29t44 -65q0 -29 -31 -29q-24 0 -45 26.5t-24 58.5q-18 11 -49 11zM255 146v367q-50 -15 -78 -63.5t-28 -116.5
q0 -67 29 -118.5t77 -68.5z" />
    <glyph glyph-name="sterling" unicode="&#xa3;" 
d="M36 364h81v56q0 100 54.5 167t131.5 67q36 0 65.5 -18.5t29.5 -44.5q0 -25 -29 -25q-48 0 -67 58h-11q-96 0 -96 -180q0 -4 2 -36t2 -44h93v-30h-91l4 -66q8 -126 -94 -206l2 -2q50 24 97 24q42 0 119 -23q54 -16 73 -16q25 0 42.5 13.5t17.5 35.5q0 16 -15.5 26t-15.5 9
q0 14 41 14q17 0 29.5 -19.5t12.5 -42.5q0 -40 -36 -70t-90 -30q-39 0 -135 35q-77 28 -106 28q-59 0 -136 -55l-14 24q68 36 97 95t26 161l-2 65h-82v30z" />
    <glyph glyph-name="section" unicode="&#xa7;" horiz-adv-x="500" 
d="M268 395q-52 1 -92.5 -28t-40.5 -69q0 -67 102 -99q54 2 90.5 30t36.5 70q0 43 -34 68q-13 10 -62 28zM382 513h-33q10 18 10 34q0 34 -29 55.5t-72 21.5q-45 0 -75 -19.5t-30 -51.5q0 -39 66 -74q15 -7 136 -57q71 -40 71 -107q0 -48 -37.5 -84t-99.5 -49v-2
q72 -22 101.5 -50.5t29.5 -73.5q0 -56 -53 -95t-124 -39q-65 0 -109.5 30.5t-44.5 77.5q0 33 28 47h31q-13 -19 -13 -42q0 -35 32 -59t76 -24q47 0 81 25t34 64q0 51 -74 79q-20 8 -137 50q-74 37 -74 107q0 99 140 137v2q-122 44 -122 121q0 51 48 84t118 33
q64 0 106.5 -27.5t42.5 -66.5q0 -29 -24 -47z" />
    <glyph glyph-name="bullet" unicode="&#x2022;" horiz-adv-x="500" 
d="M250 172q-61 0 -103 42.5t-42 102.5t42 102.5t103 42.5t103 -42.5t42 -102.5t-42 -102.5t-103 -42.5z" />
    <glyph glyph-name="paragraph" unicode="&#xb6;" horiz-adv-x="500" 
d="M-8 476q0 68 49.5 113.5t126.5 45.5h303v-30h-45q-15 0 -15 -16v-490q0 -86 4 -109q6 -32 24 -32h57v-30h-139v677h-43v-677h-116v30h47q15 0 15 16v368q-48 -29 -97 -29q-76 0 -123.5 44t-47.5 119zM260 375v230h-50q-152 0 -152 -143q0 -51 30 -83.5t79 -32.5
q45 0 93 29z" />
    <glyph glyph-name="germandbls" unicode="&#xdf;" horiz-adv-x="556" 
d="M259 635v-30h-45q-15 0 -15 -16v-429q0 -87 9 -108q7 -16 32 -16h67q194 0 226 53q7 11 12 11q8 0 8 -11q0 -6 -25 -89h-476v30h47q15 0 15 16v418q0 86 -4 109q-6 32 -24 32h-59v30h232zM289 -173q-37 0 -37 37t37 37t37 -37t-37 -37z" />
    <glyph glyph-name="acute" unicode="&#xb4;" horiz-adv-x="278" 
d="M114 487l-18 20q15 19 68 59t64 40q17 0 34 -31q-64 -31 -148 -88z" />
    <glyph glyph-name="dieresis" unicode="&#xa8;" horiz-adv-x="278" 
d="M82 507q-37 0 -37 37t37 37t37 -37t-37 -37zM197 507q-37 0 -37 37t37 37t37 -37t-37 -37z" />
    <glyph glyph-name="AE" unicode="&#xc6;" horiz-adv-x="889" 
d="M396 605l-152 -248h173v105q0 143 -19 143h-2zM502 581v-217h116q83 0 108.5 6t25.5 28v39h27v-169h-27v35q0 20 -18.5 24t-105.5 4h-126v-171q0 -87 9 -108q7 -16 32 -16h67q194 0 226 53q7 11 12 11q8 0 8 -11q0 -6 -25 -89h-476v30h47q15 0 15 16v278h-192
q-154 -242 -154 -281q0 -13 15 -13h72v-30h-206v30h47q6 0 22 26l336 549h-77v30h551q-9 -89 -21 -93q-8 0 -12 18q-9 39 -178 39h-98q-20 0 -20 -18z" />
    <glyph glyph-name="Oslash" unicode="&#xd8;" horiz-adv-x="741" 
d="M224 81l269 495q-61 45 -135 45q-105 0 -165.5 -76.5t-60.5 -208.5q0 -170 92 -255zM521 627l42 78h39l-50 -93q143 -83 143 -285q0 -148 -95 -247t-238 -99q-79 0 -139 26l-42 -77h-39l50 92q-145 83 -145 286q0 147 94 246.5t239 99.5q81 0 141 -27zM520 553l-269 -495
q60 -44 133 -44q104 0 165 76t61 209q0 166 -90 254z" />
    <glyph glyph-name="yen" unicode="&#xa5;" 
d="M309 222h164v-30h-164v-21q0 -86 4 -109q6 -32 24 -32h57v-30h-220v30h47q15 0 15 16v146h-164v30h164v80h-164v30h142l-164 258q-12 15 -33 15h-34v30h213v-30h-46q-16 0 -16 -4q0 -8 52 -94q56 -93 109 -168q137 229 137 254q0 12 -20 12h-58v30h182v-30h-35
q-10 0 -28 -30l-145 -243h145v-30h-164v-80z" />
    <glyph glyph-name="ordfeminine" unicode="&#xaa;" horiz-adv-x="325" 
d="M202 452v75q-59 -23 -81 -42t-22 -47t30 -28q42 0 73 42zM263 576v-97q0 -41 9.5 -54t38.5 -20l-28 -40q-22 0 -46 18t-31 41q-57 -59 -105 -59q-65 0 -65 61q0 36 42 63q20 13 101 48l23 10v30q0 30 -10 40t-38 10q-34 0 -52 -14q0 -58 -37 -58q-17 0 -17 17
q0 33 42 57.5t96 24.5q41 0 59 -17.5t18 -60.5z" />
    <glyph glyph-name="ordmasculine" unicode="&#xba;" horiz-adv-x="350" 
d="M183 654q65 0 103.5 -38t38.5 -100q0 -51 -34 -95q-44 -56 -124 -56q-65 0 -103.5 39t-38.5 101q0 50 34 93q44 56 124 56zM182 391q37 0 57.5 30t19.5 78q-1 55 -26 92t-65 37q-77 0 -77 -109q0 -52 25.5 -90t65.5 -38z" />
    <glyph glyph-name="ae" unicode="&#xe6;" horiz-adv-x="685" 
d="M465 412q-42 0 -71.5 -49t-29.5 -112l204 54q-39 107 -103 107zM40 78q0 59 58 101q38 28 152 75l36 15v51q0 43 -10 58q-16 24 -64 24q-49 0 -81 -24q0 -41 -15.5 -67t-40.5 -26q-27 0 -27 27q0 52 65 91.5t147 38.5q95 -1 95 -62h2q45 61 123 62q58 0 99.5 -32.5
t77.5 -109.5l-293 -79q10 -190 161 -190q68 0 126 50l14 -18q-77 -79 -188 -79q-117 0 -167 107q-107 -107 -180 -107q-42 0 -66 26t-24 68zM286 109v129q-95 -37 -130 -67.5t-35 -73.5q0 -54 52 -54q64 0 113 66z" />
    <glyph glyph-name="oslash" unicode="&#xf8;" 
d="M357 346l-175 -291q36 -41 89 -41q59 0 91 48.5t32 134.5q0 88 -37 149zM370 420l34 57h31l-42 -71q82 -60 82 -184q0 -81 -48 -149q-63 -89 -179 -89q-54 0 -96 22l-34 -57h-31l42 71q-84 59 -84 184q0 81 48 149q63 89 179 89q56 0 98 -22zM165 79l175 291
q-37 42 -91 42q-59 0 -91 -48.5t-32 -135.5q0 -88 39 -149z" />
    <glyph glyph-name="questiondown" unicode="&#xbf;" horiz-adv-x="444" 
d="M83 -68q0 52 34 94q20 25 92 87q28 24 28 29q0 13 -30 56q-4 6 -15.5 13t-11.5 9q0 7 63 47q43 -42 62 -112q-83 -67 -105 -93q-40 -47 -40 -107q0 -57 36.5 -91t95.5 -34q48 0 64 26q6 9 12 9q9 0 9 -10q0 -7 -26 -61q-44 -19 -90 -19q-78 0 -128 43.5t-50 113.5z
M241 442q49 0 49 -47t-49 -47t-49 47t49 47z" />
    <glyph glyph-name="exclamdown" unicode="&#xa1;" horiz-adv-x="352" 
d="M173 442q49 0 49 -47t-49 -47t-49 47t49 47zM163 263h29l36 -471h-45q-30 0 -39 15q-7 11 -7 51q0 25 11 173q12 157 15 232z" />
    <glyph glyph-name="florin" unicode="&#x192;" 
d="M377 426v-30h-81l-64 -375q-21 -121 -88.5 -195t-159.5 -74q-61 0 -61 37q0 29 36 29q33 0 55 -36q57 7 91 67q32 57 53 181l61 366h-62v30h67q20 131 77 202t142 71q64 0 64 -35q0 -25 -33 -25q-34 0 -53 30q-52 -10 -75 -56t-45 -187h76z" />
    <glyph glyph-name="guillemotleft" unicode="&#xab;" 
d="M422 41l-28 -14q-47 123 -155 190q108 67 155 190l28 -14q-20 -102 -88 -176q68 -73 88 -176zM261 41l-28 -14q-47 123 -155 190q108 67 155 190l28 -14q-20 -102 -88 -176q68 -73 88 -176z" />
    <glyph glyph-name="guillemotright" unicode="&#xbb;" 
d="M97 393l28 14q47 -123 155 -190q-108 -67 -155 -190l-28 14q21 103 88 176q-67 74 -88 176zM258 393l28 14q47 -123 155 -190q-108 -67 -155 -190l-28 14q21 103 88 176q-67 74 -88 176z" />
    <glyph glyph-name="ellipsis" unicode="&#x2026;" horiz-adv-x="1000" 
d="M167 -13q-49 0 -49 47t49 47t49 -47t-49 -47zM500 -13q-49 0 -49 47t49 47t49 -47t-49 -47zM833 -13q-49 0 -49 47t49 47t49 -47t-49 -47z" />
    <glyph glyph-name="OE" unicode="&#x152;" horiz-adv-x="1000" 
d="M525 51v502q0 35 -25 43q-9 3 -54 3q-143 0 -226.5 -74.5t-83.5 -199.5q0 -106 55 -186q74 -107 222 -107q112 0 112 19zM887 437v-169h-27v35q0 20 -18.5 24t-105.5 4h-126v-171q0 -87 9 -108q7 -16 32 -16h67q194 0 226 53q7 11 12 11q8 0 8 -11q0 -6 -25 -89h-452
q-7 0 -44 -2t-51 -2q-201 0 -287 122q-54 77 -54 181q0 149 113.5 242.5t288.5 93.5h486q-9 -89 -21 -93q-8 0 -12 18q-9 39 -178 39h-98q-20 0 -20 -18v-217h116q83 0 108.5 6t25.5 28v39h27z" />
    <glyph glyph-name="oe" unicode="&#x153;" horiz-adv-x="796" 
d="M274 14q59 0 91 48.5t32 134.5q0 80 -32 140q-40 75 -113 75q-59 0 -91 -48.5t-32 -135.5q0 -80 32 -140q39 -74 113 -74zM472 251l204 54q-39 107 -103 107q-42 0 -71.5 -49t-29.5 -112zM765 300l-293 -79q10 -190 161 -190q68 0 126 50l14 -18q-78 -80 -188 -79
q-108 1 -159 87q-65 -86 -175 -87q-92 0 -147.5 60t-55.5 160q0 82 48 150q63 89 179 88q104 -1 161 -86q24 39 65.5 62.5t86.5 23.5q58 0 99.5 -32.5t77.5 -109.5z" />
    <glyph glyph-name="endash" unicode="&#x2013;" horiz-adv-x="500" 
d="M0 187v60h500v-60h-500z" />
    <glyph glyph-name="emdash" unicode="&#x2014;" horiz-adv-x="1000" 
d="M0 187v60h1000v-60h-1000z" />
    <glyph glyph-name="quotedblleft" unicode="&#x201c;" horiz-adv-x="426" 
d="M327 654l15 -18q-61 -48 -61 -100q0 -28 20 -36q12 5 22 5q40 0 40 -40q0 -18 -12.5 -29.5t-30.5 -11.5q-30 0 -51.5 28.5t-21.5 65.5q0 82 80 136zM161 654l15 -18q-61 -48 -61 -100q0 -28 20 -36q12 5 22 5q40 0 40 -40q0 -18 -12.5 -29.5t-30.5 -11.5
q-30 0 -51.5 28.5t-21.5 65.5q0 82 80 136z" />
    <glyph glyph-name="quotedblright" unicode="&#x201d;" horiz-adv-x="426" 
d="M99 424l-15 18q61 48 61 100q0 28 -20 36q-12 -5 -22 -5q-40 0 -40 40q0 18 12.5 29.5t30.5 11.5q30 0 51.5 -28.5t21.5 -65.5q0 -82 -80 -136zM265 424l-15 18q61 48 61 100q0 28 -20 36q-12 -5 -22 -5q-40 0 -40 40q0 18 12.5 29.5t30.5 11.5q30 0 51.5 -28.5
t21.5 -65.5q0 -82 -80 -136z" />
    <glyph glyph-name="quoteleft" unicode="&#x2018;" horiz-adv-x="185" 
d="M121 654l15 -18q-61 -48 -61 -100q0 -28 20 -36q12 5 22 5q40 0 40 -40q0 -18 -12.5 -29.5t-30.5 -11.5q-30 0 -51.5 28.5t-21.5 65.5q0 82 80 136z" />
    <glyph glyph-name="quoteright" unicode="&#x2019;" horiz-adv-x="185" 
d="M64 424l-15 18q61 48 61 100q0 28 -20 36q-12 -5 -22 -5q-40 0 -40 40q0 18 12.5 29.5t30.5 11.5q30 0 51.5 -28.5t21.5 -65.5q0 -82 -80 -136z" />
    <glyph glyph-name="fraction" unicode="&#x2215;" horiz-adv-x="167" 
d="M267 679h39q-87 -114 -186 -312q-116 -232 -148 -392l-58 -20q28 150 157 397q102 195 196 327z" />
    <glyph glyph-name="currency" unicode="&#xa4;" 
d="M18 514l43 43l55 -52q57 48 144 48t144 -48l55 52l43 -43l-54 -55q50 -51 50 -142t-50 -142l54 -55l-43 -43l-55 52q-57 -48 -144 -48t-144 48l-55 -52l-43 43l54 55q-50 51 -50 142t50 142zM88 317q0 -76 50 -128t122 -52t122 52t50 128t-50 128t-122 52t-122 -52
t-50 -128z" />
    <glyph glyph-name="guilsinglleft" unicode="&#x2039;" horiz-adv-x="333" 
d="M235 41l-28 -14q-47 123 -155 190q108 67 155 190l28 -14q-20 -102 -88 -176q68 -73 88 -176z" />
    <glyph glyph-name="guilsinglright" unicode="&#x203a;" horiz-adv-x="333" 
d="M98 393l28 14q47 -123 155 -190q-108 -67 -155 -190l-28 14q21 103 88 176q-67 74 -88 176z" />
    <glyph glyph-name="fi" unicode="&#xf001;" horiz-adv-x="556" 
d="M178 426h125q13 0 79 8q71 8 78 8v-258q0 -93 4 -119q6 -38 27 -38h48v-27h-213v27h35q21 0 21 16v310q-5 46 -41 46h-163v-215q0 -93 4 -119q6 -38 27 -38h54v-27h-219v27h35q21 0 21 16v356h-60v27h60v113q0 76 56.5 124.5t150.5 48.5q76 0 115 -29q27 -20 27 -39
q0 -31 -29 -31q-40 0 -68 65q-15 4 -41 4q-64 0 -98.5 -36.5t-34.5 -102.5v-117z" />
    <glyph glyph-name="fl" unicode="&#xf002;" horiz-adv-x="556" 
d="M178 593v-167h82v-27h-82v-215q0 -93 4 -119q6 -38 27 -38h54v-27h-219v27h35q21 0 21 16v356h-60v27h60v135q0 151 172 151q81 0 129 -35l59 28v-521q0 -93 4 -119q6 -38 27 -38h48v-27h-213v27h35q21 0 21 16v543q0 96 -99 96q-105 0 -105 -89z" />
    <glyph glyph-name="daggerdbl" unicode="&#x2021;" horiz-adv-x="500" 
d="M69 502q22 18 29 42q66 -30 140 -30q-1 48 -32 99q28 15 44 38q16 -23 44 -38q-31 -51 -32 -99q74 0 140 30q7 -24 29 -42q-22 -18 -29 -42q-66 30 -140 30q0 -55 34 -100q-36 -48 -34 -116q74 0 140 30q7 -24 29 -42q-22 -18 -29 -42q-66 30 -140 30q-6 -65 34 -96
q-34 -62 -34 -182q0 -20 4 -36h-32q4 16 4 36q0 120 -34 182q40 31 34 96q-74 0 -140 -30q-7 24 -29 42q22 18 29 42q66 -30 140 -30q2 68 -34 116q34 45 34 100q-74 0 -140 -30q-7 24 -29 42z" />
    <glyph glyph-name="periodcentered" unicode="&#x2219;" horiz-adv-x="259" 
d="M81 213q0 47 49 47t49 -47t-49 -47t-49 47z" />
    <glyph glyph-name="quotesinglbase" unicode="&#x201a;" horiz-adv-x="185" 
d="M64 -162l-15 18q61 48 61 100q0 28 -20 36q-12 -5 -22 -5q-40 0 -40 40q0 18 12.5 29.5t30.5 11.5q30 0 51.5 -28.5t21.5 -65.5q0 -82 -80 -136z" />
    <glyph glyph-name="quotedblbase" unicode="&#x201e;" horiz-adv-x="426" 
d="M99 -162l-15 18q61 48 61 100q0 28 -20 36q-12 -5 -22 -5q-40 0 -40 40q0 18 12.5 29.5t30.5 11.5q30 0 51.5 -28.5t21.5 -65.5q0 -82 -80 -136zM265 -162l-15 18q61 48 61 100q0 28 -20 36q-12 -5 -22 -5q-40 0 -40 40q0 18 12.5 29.5t30.5 11.5q30 0 51.5 -28.5
t21.5 -65.5q0 -82 -80 -136z" />
    <glyph glyph-name="perthousand" unicode="&#x2030;" horiz-adv-x="1111" 
d="M165 308q-67 0 -106 43t-39 113q0 83 49 136.5t126 53.5q67 0 106 -43.5t39 -112.5q0 -83 -49 -136.5t-126 -53.5zM184 338q93 0 93 127q0 67 -28 113t-73 46q-93 0 -93 -128q0 -68 28 -113t73 -45zM532 -19q-67 0 -106 43t-39 113q0 83 49 136.5t126 53.5
q67 0 106 -43.5t39 -112.5q0 -83 -49 -136.5t-126 -53.5zM551 11q93 0 93 127q0 67 -28 113t-73 46q-93 0 -93 -128q0 -68 28 -113t73 -45zM908 -19q-67 0 -106 43t-39 113q0 83 49 136.5t126 53.5q67 0 106 -43.5t39 -112.5q0 -83 -49 -136.5t-126 -53.5zM927 11
q93 0 93 127q0 67 -28 113t-73 46q-93 0 -93 -128q0 -68 28 -113t73 -45zM554 679h39q-87 -114 -186 -312q-116 -232 -148 -392l-58 -20q28 150 157 397q102 195 196 327z" />
    <glyph glyph-name="dotlessi" unicode="&#x131;" horiz-adv-x="278" 
d="M182 442v-258q0 -93 4 -119q6 -38 27 -38h48v-27h-213v27h35q21 0 21 16v310q-5 46 -41 46h-38v27q17 0 78.5 8t78.5 8z" />
    <glyph glyph-name="circumflex" unicode="&#x2c6;" horiz-adv-x="278" 
d="M-1 510q91 33 140 97q49 -64 140 -97q-22 -22 -31 -22q-19 0 -55.5 19t-53.5 37q-17 -18 -53 -37t-56 -19q-9 0 -31 22z" />
    <glyph glyph-name="tilde" unicode="&#x2dc;" horiz-adv-x="278" 
d="M84 581q16 0 61 -15t56 -15q27 0 42 33l20 -9q-13 -70 -71 -70q-22 0 -62 15l-16 6q-32 12 -38 12q-23 0 -41 -29l-19 9q11 63 68 63z" />
    <glyph glyph-name="macron" unicode="&#xaf;" horiz-adv-x="278" 
d="M255 568v-45h-231v45h231z" />
    <glyph glyph-name="breve" unicode="&#x2d8;" horiz-adv-x="278" 
d="M25 600h29q-1 -30 22.5 -48.5t62.5 -18.5t62.5 18.5t22.5 48.5h29q3 -49 -29.5 -79t-84.5 -30t-84.5 30t-29.5 79z" />
    <glyph glyph-name="dotaccent" unicode="&#x2d9;" horiz-adv-x="278" 
d="M139 507q-37 0 -37 37t37 37t37 -37t-37 -37z" />
    <glyph glyph-name="ring" unicode="&#x2da;" horiz-adv-x="278" 
d="M139 471q-35 0 -60.5 25t-25.5 61t25.5 61t60.5 25q36 0 61.5 -25.5t25.5 -60.5q0 -36 -25.5 -61t-61.5 -25zM140 502q23 0 39 16t16 39t-16 39t-39 16t-39.5 -16t-16.5 -39t16.5 -39t39.5 -16z" />
    <glyph glyph-name="cedilla" unicode="&#xb8;" horiz-adv-x="278" 
d="M116 0h30q-31 -40 -31 -44q0 -7 27 -13q38 -8 50 -14q27 -13 27 -36q0 -26 -29 -43.5t-67 -17.5q-25 0 -44.5 9t-19.5 22q0 15 18 15q22 0 37 -25q9 -3 17 -3q19 0 33.5 9t14.5 24q0 14 -53 30t-53 25q0 15 43 62z" />
    <glyph glyph-name="hungarumlaut" unicode="&#x2dd;" horiz-adv-x="278" 
d="M82 475l-23 12q8 24 42 79q38 61 51 61q11 0 39 -19q-48 -48 -109 -133zM191 475l-23 12q8 24 42 79q38 61 51 61q11 0 39 -19q-48 -48 -109 -133z" />
    <glyph glyph-name="ogonek" unicode="&#x2db;" horiz-adv-x="278" 
d="M163 0h41q-47 -25 -57 -32q-30 -23 -30 -54q0 -44 45 -44q20 0 47 11l-10 -22q-24 -10 -53 -10q-34 0 -55.5 16.5t-21.5 43.5q0 63 94 91z" />
    <glyph glyph-name="caron" unicode="&#x2c7;" horiz-adv-x="278" 
d="M279 585q-91 -33 -140 -97q-49 64 -140 97q22 22 31 22q20 0 56 -19t53 -37q17 18 53.5 37t55.5 19q9 0 31 -22z" />
    <glyph glyph-name="Lslash" unicode="&#x141;" horiz-adv-x="556" 
d="M199 589v-240l153 115v-42l-153 -115v-147q0 -87 9 -108q7 -16 32 -16h67q194 0 226 53q7 11 12 11q8 0 8 -11q0 -6 -25 -89h-476v30h47q15 0 15 16v207l-84 -63v43l84 63v168q0 86 -4 109q-6 32 -24 32h-59v30h232v-30h-45q-15 0 -15 -16z" />
    <glyph glyph-name="lslash" unicode="&#x142;" horiz-adv-x="278" 
d="M182 382v-198q0 -93 4 -119q6 -38 27 -38h48v-27h-213v27h35q21 0 21 16v287l-73 -59v42l73 58v240q-5 46 -41 46h-38v27q36 0 157 21v-282l71 56v-40z" />
    <glyph glyph-name="Eth" unicode="&#xd0;" horiz-adv-x="704" 
d="M22 364h99v100q0 86 -4 109q-6 32 -24 32h-59v30h294q184 0 270 -118q59 -81 59 -187q0 -145 -91.5 -237.5t-236.5 -92.5h-270v30h47q15 0 15 16v282h-99v36zM206 364h162v-36h-162v-168q0 -87 9 -108q7 -16 32 -16h80q109 0 174 70.5t65 183.5q0 144 -76 226.5
t-206 82.5q-53 0 -65.5 -2.5t-12.5 -15.5v-217z" />
    <glyph glyph-name="eth" unicode="&#xf0;" 
d="M126 228q0 -80 32 -140q39 -74 113 -74q51 0 87 53.5t36 129.5q0 80 -32 140q-40 75 -113 75q-59 0 -91 -48.5t-32 -135.5zM406 712l24 -26l-92 -72q137 -140 137 -344q0 -94 -38 -170q-58 -116 -189 -116q-93 0 -148 61.5t-55 158.5q0 81 48 149q63 89 179 89
q75 0 112 -54l2 2q-32 117 -96 187l-101 -78l-23 27l101 78q-48 51 -110 82l39 26q67 -28 116 -73z" />
    <glyph glyph-name="Scaron" unicode="&#x160;" horiz-adv-x="478" 
d="M257 618q-57 0 -96.5 -32.5t-39.5 -82.5q0 -54 45 -87q26 -19 93 -44q103 -38 142 -75q47 -44 47 -120q0 -81 -68 -138.5t-173 -57.5q-84 0 -156 28q-15 85 -15 92q0 12 12 12q10 0 15 -19q9 -38 65 -60q44 -17 91 -17q71 0 116.5 35.5t45.5 94.5q0 50 -33.5 82.5
t-123.5 64.5q-67 24 -100 49q-67 51 -67 128q0 85 73 137q65 46 154 46q72 0 113 -19l3 -73q0 -13 -11 -13q-10 0 -12 15q-4 23 -39.5 38.5t-80.5 15.5zM389 794q-91 -33 -140 -97q-49 64 -140 97q22 22 31 22q20 0 56 -19t53 -37q17 18 53.5 37t55.5 19q9 0 31 -22z" />
    <glyph glyph-name="scaron" unicode="&#x161;" horiz-adv-x="389" 
d="M360 129q0 -65 -57.5 -105t-143.5 -40q-65 0 -119 20q-12 75 -12 81q0 15 11 15q10 0 14 -16q8 -28 45 -47.5t77 -19.5q52 0 84.5 25t32.5 67q0 34 -62 60q-10 4 -125 40q-65 32 -65 99q0 57 50 95.5t130 38.5q59 0 106 -22l6 -64q0 -14 -9 -14q-8 0 -13 11
q-11 24 -41.5 40t-65.5 16q-41 0 -71 -21t-30 -53q0 -33 63 -61q17 -7 128 -43q67 -34 67 -102zM335 585q-91 -33 -140 -97q-49 64 -140 97q22 22 31 22q20 0 56 -19t53 -37q17 18 53.5 37t55.5 19q9 0 31 -22z" />
    <glyph glyph-name="Yacute" unicode="&#xdd;" horiz-adv-x="574" 
d="M342 276v-105q0 -86 4 -109q6 -32 24 -32h57v-30h-232v30h47q15 0 15 16v227l-122 216q-40 71 -64 101q-12 15 -33 15h-34v30h225v-30h-46q-16 0 -16 -4t161 -287q137 257 137 279q0 12 -20 12h-58v30h182v-30h-35q-12 0 -28 -30zM302 696l-18 20q15 19 68 59t64 40
q17 0 34 -31q-64 -31 -148 -88z" />
    <glyph glyph-name="yacute" unicode="&#xfd;" horiz-adv-x="481" 
d="M202 426v-27h-51q-8 0 -8 -6q0 -8 126 -298q109 230 109 290q0 14 -25 14h-45v27h171v-27h-35q-13 0 -20 -19q-48 -125 -275 -614q-53 -14 -107 -14q-12 0 -12 11q0 8 25 19q33 15 53 35q55 55 118 190l-158 354q-12 27 -22 32.5t-41 5.5v27h197zM236 487l-18 20
q15 19 68 59t64 40q17 0 34 -31q-64 -31 -148 -88z" />
    <glyph glyph-name="Thorn" unicode="&#xde;" horiz-adv-x="556" 
d="M210 589v-54h108q88 0 143.5 -47t55.5 -125q0 -74 -63 -124.5t-156 -50.5q-56 0 -88 13v-30q0 -86 4 -109q6 -32 24 -32h57v-30h-232v30h47q15 0 15 16v418q0 86 -4 109q-6 32 -24 32h-59v30h232v-30h-45q-15 0 -15 -16zM210 483v-252q33 -13 75 -13q65 0 106 35.5
t41 96.5q0 149 -184 149q-25 0 -32 -2.5t-6 -13.5z" />
    <glyph glyph-name="thorn" unicode="&#xfe;" horiz-adv-x="537" 
d="M97 -203v814q-5 46 -41 46h-38v27q36 0 157 21v-336q59 41 75 50q43 23 83 23q75 0 121.5 -60.5t46.5 -153.5q0 -109 -61.5 -177t-161.5 -67q-46 0 -103 31v-77q0 -93 4 -119q6 -38 27 -38h54v-27h-219v27h35q21 0 21 16zM175 336v-285q53 -37 100 -37q69 0 107 50
t38 139q0 87 -34.5 136t-97.5 49q-57 0 -113 -52z" />
    <glyph glyph-name="Zcaron" unicode="&#x17d;" horiz-adv-x="593" 
d="M537 0h-481q-18 0 -18 7q0 3 19 32l364 560q-139 0 -203 -7q-111 -12 -126 -49q-6 -14 -14 -14q-10 0 -10 11q0 9 24 95h430q8 0 8 -6q0 -3 -7 -14l-373 -579h27q338 0 362 58q8 20 17 20q10 0 10 -9q0 -3 -29 -105zM447 794q-91 -33 -140 -97q-49 64 -140 97
q22 22 31 22q20 0 56 -19t53 -37q17 18 53.5 37t55.5 19q9 0 31 -22z" />
    <glyph glyph-name="zcaron" unicode="&#x17e;" horiz-adv-x="444" 
d="M381 0h-348q-14 0 -14 11q0 4 112 137l181 217l-110 -2q-83 -2 -103 -6q-13 -3 -26 -16t-17 -13q-9 0 -9 9l25 89h318q14 0 14 -9q0 -4 -121 -147l-172 -206l253 8q14 0 26.5 12.5t15.5 12.5q9 0 9 -9q0 -6 -34 -88zM352 585q-91 -33 -140 -97q-49 64 -140 97
q22 22 31 22q20 0 56 -19t53 -37q17 18 53.5 37t55.5 19q9 0 31 -22z" />
    <glyph glyph-name="onehalf" unicode="&#xbd;" horiz-adv-x="781" 
d="M185 654v-264q0 -72 3.5 -86.5t20.5 -14.5h55v-27h-216v27h59q15 0 15 11v204q0 74 -3.5 93t-17.5 19h-53v26q31 0 137 12zM467 326l-10 19q54 47 119 47q57 0 91.5 -29.5t34.5 -78.5q0 -54 -38 -105q-22 -30 -78 -81l-46 -42v-2h130q23 0 40 5q12 4 19 10t5 6q7 0 7 -8
l-24 -67h-256q-10 0 -10 10l55 53q60 57 85 93q41 58 41 114q0 36 -23 59.5t-60 23.5q-43 0 -82 -27zM568 679h39q-87 -114 -186 -312q-116 -232 -148 -392l-58 -20q28 150 157 397q102 195 196 327z" />
    <glyph glyph-name="onequarter" unicode="&#xbc;" horiz-adv-x="781" 
d="M658 385v-211q24 0 42 4q13 3 19.5 7t3.5 4q6 0 6 -5q0 -1 -7.5 -22t-10.5 -31h-53v-139q-22 -6 -35 -10t-17.5 -6t-0.5 -2q-8 0 -8 9q2 46 2 74v74h-183v15q85 104 222 239h20zM599 174v133q-53 -39 -126 -133h126zM578 679h39q-87 -114 -186 -312q-116 -232 -148 -392
l-58 -20q28 150 157 397q102 195 196 327zM185 654v-264q0 -72 3.5 -86.5t20.5 -14.5h55v-27h-216v27h59q15 0 15 11v204q0 74 -3.5 93t-17.5 19h-53v26q31 0 137 12z" />
    <glyph glyph-name="onesuperior" unicode="&#xb9;" horiz-adv-x="312" 
d="M190 654v-264q0 -72 3.5 -86.5t20.5 -14.5h55v-27h-216v27h59q15 0 15 11v204q0 74 -3.5 93t-17.5 19h-53v26q31 0 137 12z" />
    <glyph glyph-name="threequarters" unicode="&#xbe;" horiz-adv-x="781" 
d="M658 385v-211q24 0 42 4q13 3 19.5 7t3.5 4q6 0 6 -5q0 -1 -7.5 -22t-10.5 -31h-53v-139q-22 -6 -35 -10t-17.5 -6t-0.5 -2q-8 0 -8 9q2 46 2 74v74h-183v15q85 104 222 239h20zM599 174v133q-53 -39 -126 -133h126zM597 679h39q-87 -114 -186 -312q-116 -232 -148 -392
l-58 -20q28 150 157 397q102 195 196 327zM68 585l-11 16q51 53 129 53q50 0 81.5 -20.5t31.5 -58.5q0 -58 -78 -88v-2q112 -9 112 -100q0 -55 -51.5 -94t-127.5 -39q-71 0 -108 30l7 24q47 -22 99 -22q45 0 76.5 28t31.5 71q0 82 -122 82v26q93 0 93 71q0 25 -19.5 40.5
t-46.5 15.5q-58 0 -97 -33z" />
    <glyph glyph-name="threesuperior" unicode="&#xb3;" horiz-adv-x="312" 
d="M36 585l-11 16q51 53 129 53q50 0 81.5 -20.5t31.5 -58.5q0 -58 -78 -88v-2q112 -9 112 -100q0 -55 -51.5 -94t-127.5 -39q-71 0 -108 30l7 24q47 -22 99 -22q45 0 76.5 28t31.5 71q0 82 -122 82v26q93 0 93 71q0 25 -19.5 40.5t-46.5 15.5q-58 0 -97 -33z" />
    <glyph glyph-name="twosuperior" unicode="&#xb2;" horiz-adv-x="312" 
d="M27 588l-10 19q54 47 119 47q57 0 91.5 -29.5t34.5 -78.5q0 -54 -38 -105q-22 -30 -78 -81l-46 -42v-2h130q23 0 40 5q12 4 19 10t5 6q7 0 7 -8l-24 -67h-256q-10 0 -10 10l55 53q60 57 85 93q41 58 41 114q0 36 -23 59.5t-60 23.5q-43 0 -82 -27z" />
    <glyph glyph-name="brokenbar" unicode="&#xa6;" horiz-adv-x="222" 
d="M81 -100v322h60v-322h-60zM81 383v322h60v-322h-60z" />
    <glyph glyph-name="minus" unicode="&#xad;" 
d="M472 183h-425v60h425v-60z" />
    <glyph glyph-name="multiply" unicode="&#xd7;" 
d="M472 383l-170 -170l170 -170l-42 -43l-171 171l-170 -171l-42 43l170 170l-170 170l42 43l170 -171l170 170z" />
    <glyph glyph-name="Adieresis" unicode="&#xc4;" horiz-adv-x="648" 
d="M406 238h-227q-58 -148 -58 -182q0 -26 25 -26h63v-30h-202v30h20q29 0 36 16l253 599q54 13 59 13q10 0 10 -10q0 -3 -9 -13.5t-9 -17.5q0 -38 173 -510q17 -47 29 -62t32 -15h30v-30h-224v30h54q14 0 14 10q0 -6 -69 198zM392 274l-88 266l-111 -266h199zM478 777v-45
h-277v45h277z" />
    <glyph glyph-name="Aring" unicode="&#xc5;" horiz-adv-x="611" 
d="M210 318h50q82 0 128 33.5t46 95.5q0 67 -43.5 109.5t-106.5 42.5h-51q-23 0 -23 -14v-267zM125 46v418q0 86 -4 109q-6 32 -24 32h-59v30h280q79 0 134 -38q67 -46 67 -134q0 -63 -42.5 -105.5t-113.5 -55.5q120 -173 165 -226q40 -46 63 -46h25v-30h-115q-20 0 -48 36
q-45 57 -169 252h-74v-117q0 -86 4 -109q6 -32 24 -32h57v-30h-232v30h47q15 0 15 16zM349 -173q-37 0 -37 37t37 37t37 -37t-37 -37z" />
    <glyph glyph-name="Ccedilla" unicode="&#xc7;" horiz-adv-x="478" 
d="M257 618q-57 0 -96.5 -32.5t-39.5 -82.5q0 -54 45 -87q26 -19 93 -44q103 -38 142 -75q47 -44 47 -120q0 -81 -68 -138.5t-173 -57.5q-84 0 -156 28q-15 85 -15 92q0 12 12 12q10 0 15 -19q9 -38 65 -60q44 -17 91 -17q71 0 116.5 35.5t45.5 94.5q0 50 -33.5 82.5
t-123.5 64.5q-67 24 -100 49q-67 51 -67 128q0 85 73 137q65 46 154 46q72 0 113 -19l3 -73q0 -13 -11 -13q-10 0 -12 15q-4 23 -39.5 38.5t-80.5 15.5zM224 696l-18 20q15 19 68 59t64 40q17 0 34 -31q-64 -31 -148 -88z" />
    <glyph glyph-name="Eacute" unicode="&#xc9;" horiz-adv-x="333" 
d="M210 589v-418q0 -86 4 -109q6 -32 24 -32h57v-30h-232v30h47q15 0 15 16v418q0 86 -4 109q-6 32 -24 32h-59v30h232v-30h-45q-15 0 -15 -16zM275 777v-45h-231v45h231z" />
    <glyph glyph-name="Ntilde" unicode="&#xd1;" horiz-adv-x="478" 
d="M257 618q-57 0 -96.5 -32.5t-39.5 -82.5q0 -54 45 -87q26 -19 93 -44q103 -38 142 -75q47 -44 47 -120q0 -81 -68 -138.5t-173 -57.5q-84 0 -156 28q-15 85 -15 92q0 12 12 12q10 0 15 -19q9 -38 65 -60q44 -17 91 -17q71 0 116.5 35.5t45.5 94.5q0 50 -33.5 82.5
t-123.5 64.5q-67 24 -100 49q-67 51 -67 128q0 85 73 137q65 46 154 46q72 0 113 -19l3 -73q0 -13 -11 -13q-10 0 -12 15q-4 23 -39.5 38.5t-80.5 15.5zM239 -173q-37 0 -37 37t37 37t37 -37t-37 -37z" />
    <glyph glyph-name="Odieresis" unicode="&#xd6;" horiz-adv-x="611" 
d="M348 599v-428q0 -86 4 -109q6 -32 24 -32h77v-30h-280v30h75q15 0 15 16v553h-25q-167 0 -184 -51q-5 -14 -14 -14q-11 0 -11 10q0 9 28 91h497q28 -82 28 -91q0 -10 -11 -10q-9 0 -14 14q-17 51 -184 51h-25zM309 -173q-37 0 -37 37t37 37t37 -37t-37 -37z" />
    <glyph glyph-name="Udieresis" unicode="&#xdc;" horiz-adv-x="704" 
d="M16 605v30h232v-30h-45q-15 0 -15 -16v-379q0 -88 46.5 -138t123.5 -50q135 0 183 89q27 50 27 149v240q0 105 -32 105h-53v30h183v-30h-37q-23 0 -23 -20v-356q0 -115 -68 -181.5t-185 -66.5q-158 0 -215 91q-35 56 -35 170v222q0 86 -4 109q-6 32 -24 32h-59zM508 777
v-45h-277v45h277z" />
    <glyph glyph-name="aacute" unicode="&#xe1;" horiz-adv-x="444" 
d="M280 109v129q-95 -37 -130 -67.5t-35 -73.5q0 -54 52 -54q64 0 113 66zM244 254l36 15v51q0 43 -10 58q-16 24 -64 24q-49 0 -81 -24q0 -41 -15.5 -67t-40.5 -26q-27 0 -27 27q0 51 65 90.5t147 39.5q68 0 89 -34q15 -24 15 -95v-153q0 -70 12.5 -92t53.5 -33l-30 -51
q-36 0 -67.5 26t-40.5 65q-91 -91 -162 -91q-42 0 -66 26t-24 68q0 59 58 101q38 28 152 75zM207 487l-18 20q15 19 68 59t64 40q17 0 34 -31q-64 -31 -148 -88z" />
    <glyph glyph-name="agrave" unicode="&#xe0;" horiz-adv-x="815" 
d="M182 334v-150q0 -93 4 -119q6 -38 27 -38h44v-27h-209v27h35q21 0 21 16v310q-5 46 -41 46h-38v27q17 0 78.5 8t78.5 8v-82q56 46 74 56q43 25 91 25q88 0 103 -79q58 45 72 54q43 26 83 26q63 0 92 -33t29 -109v-116q0 -93 4 -119q6 -38 27 -38h44v-27h-209v27h35
q21 0 21 16v236q0 115 -79 112q-55 -2 -115 -57v-150q0 -93 4 -119q6 -38 27 -38h44v-27h-209v27h35q21 0 21 16v236q0 114 -79 112q-33 -1 -63 -19q-3 -2 -52 -38zM409 507q-37 0 -37 37t37 37t37 -37t-37 -37z" />
    <glyph glyph-name="acircumflex" unicode="&#xe2;" horiz-adv-x="444" 
d="M280 109v129q-95 -37 -130 -67.5t-35 -73.5q0 -54 52 -54q64 0 113 66zM244 254l36 15v51q0 43 -10 58q-16 24 -64 24q-49 0 -81 -24q0 -41 -15.5 -67t-40.5 -26q-27 0 -27 27q0 51 65 90.5t147 39.5q68 0 89 -34q15 -24 15 -95v-153q0 -70 12.5 -92t53.5 -33l-30 -51
q-36 0 -67.5 26t-40.5 65q-91 -91 -162 -91q-42 0 -66 26t-24 68q0 59 58 101q38 28 152 75zM82 510q91 33 140 97q49 -64 140 -97q-22 -22 -31 -22q-19 0 -55.5 19t-53.5 37q-17 -18 -53 -37t-56 -19q-9 0 -31 22z" />
    <glyph glyph-name="adieresis" unicode="&#xe4;" horiz-adv-x="444" 
d="M280 109v129q-95 -37 -130 -67.5t-35 -73.5q0 -54 52 -54q64 0 113 66zM244 254l36 15v51q0 43 -10 58q-16 24 -64 24q-49 0 -81 -24q0 -41 -15.5 -67t-40.5 -26q-27 0 -27 27q0 51 65 90.5t147 39.5q68 0 89 -34q15 -24 15 -95v-153q0 -70 12.5 -92t53.5 -33l-30 -51
q-36 0 -67.5 26t-40.5 65q-91 -91 -162 -91q-42 0 -66 26t-24 68q0 59 58 101q38 28 152 75zM345 568v-45h-231v45h231z" />
    <glyph glyph-name="atilde" unicode="&#xe3;" horiz-adv-x="444" 
d="M280 109v129q-95 -37 -130 -67.5t-35 -73.5q0 -54 52 -54q64 0 113 66zM244 254l36 15v51q0 43 -10 58q-16 24 -64 24q-49 0 -81 -24q0 -41 -15.5 -67t-40.5 -26q-27 0 -27 27q0 51 65 90.5t147 39.5q68 0 89 -34q15 -24 15 -95v-153q0 -70 12.5 -92t53.5 -33l-30 -51
q-36 0 -67.5 26t-40.5 65q-91 -91 -162 -91q-42 0 -66 26t-24 68q0 59 58 101q38 28 152 75zM167 581q16 0 61 -15t56 -15q27 0 42 33l20 -9q-13 -70 -71 -70q-22 0 -62 15l-16 6q-32 12 -38 12q-23 0 -41 -29l-19 9q11 63 68 63z" />
    <glyph glyph-name="aring" unicode="&#xe5;" horiz-adv-x="370" 
d="M182 320v-136q0 -93 4 -119q6 -38 27 -38h48v-27h-213v27h35q21 0 21 16v310q-5 46 -41 46h-38v27q17 0 78.5 8t78.5 8v-87q83 87 129 87q31 0 49 -21q-10 -57 -13 -67.5t-10 -10.5q3 0 -15.5 16t-43.5 16q-45 0 -96 -55zM149 -173q-37 0 -37 37t37 37t37 -37t-37 -37z
" />
    <glyph glyph-name="ccedilla" unicode="&#xe7;" horiz-adv-x="389" 
d="M360 129q0 -65 -57.5 -105t-143.5 -40q-65 0 -119 20q-12 75 -12 81q0 15 11 15q10 0 14 -16q8 -28 45 -47.5t77 -19.5q52 0 84.5 25t32.5 67q0 34 -62 60q-10 4 -125 40q-65 32 -65 99q0 57 50 95.5t130 38.5q59 0 106 -22l6 -64q0 -14 -9 -14q-8 0 -13 11
q-11 24 -41.5 40t-65.5 16q-41 0 -71 -21t-30 -53q0 -33 63 -61q17 -7 128 -43q67 -34 67 -102zM144 487l-18 20q15 19 68 59t64 40q17 0 34 -31q-64 -31 -148 -88z" />
    <glyph glyph-name="eacute" unicode="&#xe9;" horiz-adv-x="278" 
d="M182 442v-258q0 -93 4 -119q6 -38 27 -38h48v-27h-213v27h35q21 0 21 16v310q-5 46 -41 46h-38v27q17 0 78.5 8t78.5 8zM245 568v-45h-231v45h231z" />
    <glyph glyph-name="egrave" unicode="&#xe8;" horiz-adv-x="370" 
d="M182 320v-136q0 -93 4 -119q6 -38 27 -38h48v-27h-213v27h35q21 0 21 16v310q-5 46 -41 46h-38v27q17 0 78.5 8t78.5 8v-87q83 87 129 87q31 0 49 -21q-10 -57 -13 -67.5t-10 -10.5q3 0 -15.5 16t-43.5 16q-45 0 -96 -55zM149 -173q-37 0 -37 37t37 37t37 -37t-37 -37z
M315 568v-45h-231v45h231z" />
    <glyph glyph-name="ecircumflex" unicode="&#xea;" horiz-adv-x="444" 
d="M410 81l14 -18q-77 -79 -188 -79q-87 0 -139 59.5t-52 156.5q0 103 54.5 172.5t139.5 69.5q58 0 99.5 -32.5t77.5 -109.5l-293 -79q10 -190 161 -190q68 0 126 50zM123 251l204 54q-39 107 -103 107q-42 0 -71.5 -49t-29.5 -112zM92 510q91 33 140 97q49 -64 140 -97
q-22 -22 -31 -22q-19 0 -55.5 19t-53.5 37q-17 -18 -53 -37t-56 -19q-9 0 -31 22z" />
    <glyph glyph-name="edieresis" unicode="&#xeb;" horiz-adv-x="556" 
d="M467 300v-116q0 -93 4 -119q6 -38 27 -38h44v-27h-209v27h35q21 0 21 16v236q0 112 -79 112q-62 0 -128 -57v-150q0 -93 4 -119q6 -38 27 -38h44v-27h-209v27h35q21 0 21 16v310q-5 46 -41 46h-38v27q17 0 78.5 8t78.5 8v-75q55 41 76 52q43 23 88 23q63 0 92 -33
t29 -109zM299 -173q-37 0 -37 37t37 37t37 -37t-37 -37z" />
    <glyph glyph-name="iacute" unicode="&#xed;" horiz-adv-x="278" 
d="M182 442v-258q0 -93 4 -119q6 -38 27 -38h48v-27h-213v27h35q21 0 21 16v310q-5 46 -41 46h-38v27q17 0 78.5 8t78.5 8zM124 487l-18 20q15 19 68 59t64 40q17 0 34 -31q-64 -31 -148 -88z" />
    <glyph glyph-name="igrave" unicode="&#xec;" horiz-adv-x="556" 
d="M467 300v-116q0 -93 4 -119q6 -38 27 -38h44v-27h-209v27h35q21 0 21 16v236q0 112 -79 112q-62 0 -128 -57v-150q0 -93 4 -119q6 -38 27 -38h44v-27h-209v27h35q21 0 21 16v310q-5 46 -41 46h-38v27q17 0 78.5 8t78.5 8v-75q55 41 76 52q43 23 88 23q63 0 92 -33
t29 -109zM289 507q-37 0 -37 37t37 37t37 -37t-37 -37z" />
    <glyph glyph-name="icircumflex" unicode="&#xee;" horiz-adv-x="278" 
d="M182 442v-258q0 -93 4 -119q6 -38 27 -38h48v-27h-213v27h35q21 0 21 16v310q-5 46 -41 46h-38v27q17 0 78.5 8t78.5 8zM-11 510q91 33 140 97q49 -64 140 -97q-22 -22 -31 -22q-19 0 -55.5 19t-53.5 37q-17 -18 -53 -37t-56 -19q-9 0 -31 22z" />
    <glyph glyph-name="idieresis" unicode="&#xef;" horiz-adv-x="556" 
d="M467 300v-116q0 -93 4 -119q6 -38 27 -38h44v-27h-209v27h35q21 0 21 16v236q0 112 -79 112q-62 0 -128 -57v-150q0 -93 4 -119q6 -38 27 -38h44v-27h-209v27h35q21 0 21 16v310q-5 46 -41 46h-38v27q17 0 78.5 8t78.5 8v-75q55 41 76 52q43 23 88 23q63 0 92 -33
t29 -109zM234 581q16 0 61 -15t56 -15q27 0 42 33l20 -9q-13 -70 -71 -70q-22 0 -62 15l-16 6q-32 12 -38 12q-23 0 -41 -29l-19 9q11 63 68 63z" />
    <glyph glyph-name="ntilde" unicode="&#xf1;" horiz-adv-x="389" 
d="M360 129q0 -65 -57.5 -105t-143.5 -40q-65 0 -119 20q-12 75 -12 81q0 15 11 15q10 0 14 -16q8 -28 45 -47.5t77 -19.5q52 0 84.5 25t32.5 67q0 34 -62 60q-10 4 -125 40q-65 32 -65 99q0 57 50 95.5t130 38.5q59 0 106 -22l6 -64q0 -14 -9 -14q-8 0 -13 11
q-11 24 -41.5 40t-65.5 16q-41 0 -71 -21t-30 -53q0 -33 63 -61q17 -7 128 -43q67 -34 67 -102zM189 -173q-37 0 -37 37t37 37t37 -37t-37 -37z" />
    <glyph glyph-name="oacute" unicode="&#xf3;" 
d="M272 442q92 0 147.5 -61t55.5 -159q0 -81 -48 -149q-63 -89 -179 -89q-93 0 -148 61.5t-55 158.5q0 81 48 149q63 89 179 89zM271 14q59 0 91 48.5t32 134.5q0 80 -32 140q-40 75 -113 75q-59 0 -91 -48.5t-32 -135.5q0 -80 32 -140q39 -74 113 -74zM235 487l-18 20
q15 19 68 59t64 40q17 0 34 -31q-64 -31 -148 -88z" />
    <glyph glyph-name="ograve" unicode="&#xf2;" horiz-adv-x="537" 
d="M368 93v281q-48 38 -99 38q-70 0 -109.5 -50.5t-39.5 -137.5q0 -186 138 -186q60 0 110 55zM446 705v-521q0 -93 4 -119q6 -38 27 -38h48v-27q-53 -2 -157 -16v74q-47 -36 -73 -51q-41 -23 -79 -23q-81 0 -129 59t-48 154q0 107 61.5 176t150.5 69q59 0 117 -36v205
q-5 46 -41 46h-38v27q36 0 157 21zM269 -173q-37 0 -37 37t37 37t37 -37t-37 -37z" />
    <glyph glyph-name="ocircumflex" unicode="&#xf4;" 
d="M272 442q92 0 147.5 -61t55.5 -159q0 -81 -48 -149q-63 -89 -179 -89q-93 0 -148 61.5t-55 158.5q0 81 48 149q63 89 179 89zM271 14q59 0 91 48.5t32 134.5q0 80 -32 140q-40 75 -113 75q-59 0 -91 -48.5t-32 -135.5q0 -80 32 -140q39 -74 113 -74zM120 510
q91 33 140 97q49 -64 140 -97q-22 -22 -31 -22q-19 0 -55.5 19t-53.5 37q-17 -18 -53 -37t-56 -19q-9 0 -31 22z" />
    <glyph glyph-name="odieresis" unicode="&#xf6;" horiz-adv-x="315" 
d="M174 426h106q-5 -27 -20 -27h-86v-263q0 -59 9 -79q14 -31 57 -31q29 0 66 16l10 -22q-63 -36 -115 -36q-105 0 -105 99v316q-50 0 -50 7q0 6 112 121h16v-101zM179 -173q-37 0 -37 37t37 37t37 -37t-37 -37z" />
    <glyph glyph-name="otilde" unicode="&#xf5;" 
d="M272 442q92 0 147.5 -61t55.5 -159q0 -81 -48 -149q-63 -89 -179 -89q-93 0 -148 61.5t-55 158.5q0 81 48 149q63 89 179 89zM271 14q59 0 91 48.5t32 134.5q0 80 -32 140q-40 75 -113 75q-59 0 -91 -48.5t-32 -135.5q0 -80 32 -140q39 -74 113 -74zM205 581q16 0 61 -15
t56 -15q27 0 42 33l20 -9q-13 -70 -71 -70q-22 0 -62 15l-16 6q-32 12 -38 12q-23 0 -41 -29l-19 9q11 63 68 63z" />
    <glyph glyph-name="uacute" unicode="&#xfa;" horiz-adv-x="556" 
d="M522 35l-30 -51q-90 14 -107 82q-98 -82 -153 -82q-71 0 -102 40t-31 135v194q-5 46 -41 46h-38v27q17 0 78.5 8t78.5 8v-282q0 -70 17.5 -96t60.5 -26q68 0 123 55v260q-5 46 -41 46h-38v27q17 0 78.5 8t78.5 8v-282q0 -70 12.5 -92t53.5 -33zM253 487l-18 20
q15 19 68 59t64 40q17 0 34 -31q-64 -31 -148 -88z" />
    <glyph glyph-name="ugrave" unicode="&#xf9;" horiz-adv-x="556" 
d="M467 300v-116q0 -93 4 -119q6 -38 27 -38h44v-27h-209v27h35q21 0 21 16v236q0 112 -79 112q-62 0 -128 -57v-150q0 -93 4 -119q6 -38 27 -38h42v-27h-207v27h35q21 0 21 16v568q-5 46 -41 46h-38v27q36 0 157 21v-338q55 41 76 52q43 23 88 23q63 0 92 -33t29 -109z
M289 -173q-37 0 -37 37t37 37t37 -37t-37 -37z" />
    <glyph glyph-name="ucircumflex" unicode="&#xfb;" horiz-adv-x="278" 
d="M182 705v-521q0 -93 4 -119q6 -38 27 -38h48v-27h-213v27h35q21 0 21 16v568q-5 46 -41 46h-38v27q36 0 157 21zM35 847h31q-1 -49 61 -49t61 49h31q3 -43 -22 -67t-70 -24t-70 24t-22 67zM129 826q-23 0 -39 14t-16 37t16 37t39 14t38.5 -14.5t15.5 -36.5t-15.5 -36.5
t-38.5 -14.5z" />
    <glyph glyph-name="udieresis" unicode="&#xfc;" horiz-adv-x="556" 
d="M522 35l-30 -51q-90 14 -107 82q-98 -82 -153 -82q-71 0 -102 40t-31 135v194q-5 46 -41 46h-38v27q17 0 78.5 8t78.5 8v-282q0 -70 17.5 -96t60.5 -26q68 0 123 55v260q-5 46 -41 46h-38v27q17 0 78.5 8t78.5 8v-282q0 -70 12.5 -92t53.5 -33zM375 568v-45h-231v45h231z
" />
    <glyph glyph-name="degree" unicode="&#xb0;" horiz-adv-x="350" 
d="M175 401q42 0 72 32t30 75t-30 75t-72 32t-72 -32t-30 -75t30 -75t72 -32zM29 508q0 61 42.5 103.5t103.5 42.5t103.5 -42.5t42.5 -103.5t-42.5 -103.5t-103.5 -42.5t-103.5 42.5t-42.5 103.5z" />
    <glyph glyph-name="registered" unicode="&#xae;" horiz-adv-x="800" 
d="M471 406q0 34 -23 60q-26 27 -63 27q-25 0 -25 -10v-151h27q37 0 60.5 20t23.5 54zM408 144h-147v22h26q10 0 10 9v286q-3 32 -23 32h-26v22h165q56 0 89.5 -28t33.5 -73q0 -75 -79 -92q78 -127 111 -156h19v-22h-82q-12 0 -53 70q-33 56 -53 96h-39v-66q0 -56 3 -67
t18 -11h27v-22zM400 608q-119 0 -203 -85.5t-84 -205.5t84 -205.5t203 -85.5t203 85.5t84 205.5t-84 205.5t-203 85.5zM400 -20q-140 0 -241 99t-101 238t101 238t241 99t241 -99t101 -238t-101 -238t-241 -99z" />
    <glyph glyph-name="copyright" unicode="&#xa9;" horiz-adv-x="800" 
d="M413 131q-92 0 -145 49t-53 136q0 85 61 143.5t146 58.5q70 0 127 -22q-4 -54 -12 -54q-2 0 -9.5 14t-24.5 22q-28 13 -68 13q-62 0 -102 -49.5t-40 -121.5q0 -68 39 -115t98 -47q37 0 72 17.5t40 41.5q2 10 9 10t7 -6q0 -1 -2 -23l-3 -38q-61 -29 -140 -29zM400 608
q-119 0 -203 -85.5t-84 -205.5t84 -205.5t203 -85.5t203 85.5t84 205.5t-84 205.5t-203 85.5zM400 -20q-140 0 -241 99t-101 238t101 238t241 99t241 -99t101 -238t-101 -238t-241 -99z" />
    <glyph glyph-name="trademark" unicode="&#x2122;" horiz-adv-x="990" 
d="M231 608v-246q0 -56 3 -67t18 -11h40v-22h-184v22h42q10 0 10 9v315q-107 0 -125 -33q-6 -11 -12 -11q-8 0 -8 7q1 10 20 64h321q19 -54 20 -64q0 -7 -8 -7q-6 0 -12 11q-18 33 -125 33zM534 635l129 -264l111 264h115v-22h-29q-10 0 -10 -10v-238q0 -58 3 -69.5
t18 -11.5h33v-22h-164v22h29q10 0 10 19v273h-2l-131 -310h-5l-148 299h-1v-163q0 -82 4 -100t21 -18h31v-22h-120v22h28q11 0 11 7v248q0 39 -5 52q-9 22 -35 22h-18v22h125z" />
    <glyph glyph-name="plusminus" unicode="&#xb1;" 
d="M472 0h-425v60h425v-60zM472 233h-182v-133h-60v133h-183v60h183v133h60v-133h182v-60z" />
    <glyph glyph-name="mu" unicode="&#xb5;" horiz-adv-x="556" 
d="M378 93v260q-5 46 -41 46h-38v27q17 0 78.5 8t78.5 8v-282q0 -70 12.5 -92t53.5 -33l-30 -51q-90 14 -107 82q-98 -82 -153 -82q-35 0 -65 14l-13 6v-59q0 -14 19.5 -55.5t19.5 -51.5q0 -56 -41 -56q-53 0 -53 76v495q-5 46 -41 46h-38v27q17 0 78.5 8t78.5 8v-282
q0 -70 17.5 -96t60.5 -26q68 0 123 55z" />
    <glyph glyph-name="logicalnot" unicode="&#xac;" 
d="M412 55v207h-365v60h425v-267h-60z" />
    <glyph glyph-name="Agrave" unicode="&#xc0;" horiz-adv-x="852" 
d="M791 635v-30h-45q-15 0 -15 -16v-418q0 -86 4 -109q6 -32 24 -32h57v-30h-232v30h47q15 0 15 16l-2 494l-224 -530q-3 -7 -18 -7q-3 0 -15 25l-235 499l-2 -2v-390q0 -105 32 -105h53v-30h-183v30h37q23 0 23 20v440q0 56 -5 74q-11 41 -51 41h-31v30h160l242 -499
l221 499h143zM419 716q-37 0 -37 37t37 37t37 -37t-37 -37z" />
    <glyph glyph-name="Atilde" unicode="&#xc3;" horiz-adv-x="648" 
d="M406 238h-227q-58 -148 -58 -182q0 -26 25 -26h63v-30h-202v30h20q29 0 36 16l253 599q54 13 59 13q10 0 10 -10q0 -3 -9 -13.5t-9 -17.5q0 -38 173 -510q17 -47 29 -62t32 -15h30v-30h-224v30h54q14 0 14 10q0 -6 -69 198zM392 274l-88 266l-111 -266h199zM289 790
q16 0 61 -15t56 -15q27 0 42 33l20 -9q-13 -70 -71 -70q-22 0 -62 15l-16 6q-32 12 -38 12q-23 0 -41 -29l-19 9q11 63 68 63z" />
    <glyph glyph-name="Otilde" unicode="&#xd5;" horiz-adv-x="741" 
d="M362 -19q-147 0 -231 88.5t-84 238.5q0 147 94 246.5t239 99.5q146 0 230.5 -88t84.5 -239q0 -148 -95 -247t-238 -99zM358 621q-105 0 -165.5 -76.5t-60.5 -208.5q0 -144 71 -233t181 -89q104 0 165 76t61 209q0 144 -71 233t-181 89zM316 790q16 0 61 -15t56 -15
q27 0 42 33l20 -9q-13 -70 -71 -70q-22 0 -62 15l-16 6q-32 12 -38 12q-23 0 -41 -29l-19 9q11 63 68 63z" />
    <glyph glyph-name="divide" unicode="&#xf7;" 
d="M260 309q-49 0 -49 47t49 47t49 -47t-49 -47zM260 117q49 0 49 -47t-49 -47t-49 47t49 47zM472 183h-425v60h425v-60z" />
    <glyph glyph-name="ydieresis" unicode="&#xff;" horiz-adv-x="278" 
d="M182 705v-521q0 -93 4 -119q6 -38 27 -38h48v-27h-213v27h35q21 0 21 16v568q-5 46 -41 46h-38v27q36 0 157 21zM159 -173q-37 0 -37 37t37 37t37 -37t-37 -37z" />
    <glyph glyph-name="Ydieresis" unicode="&#x178;" horiz-adv-x="574" 
d="M342 276v-105q0 -86 4 -109q6 -32 24 -32h57v-30h-232v30h47q15 0 15 16v227l-122 216q-40 71 -64 101q-12 15 -33 15h-34v30h225v-30h-46q-16 0 -16 -4t161 -287q137 257 137 279q0 12 -20 12h-58v30h182v-30h-35q-12 0 -28 -30zM250 716q-37 0 -37 37t37 37t37 -37
t-37 -37zM365 716q-37 0 -37 37t37 37t37 -37t-37 -37z" />
    <glyph glyph-name="Acircumflex" unicode="&#xc2;" horiz-adv-x="648" 
d="M406 238h-227q-58 -148 -58 -182q0 -26 25 -26h63v-30h-202v30h20q29 0 36 16l253 599q54 13 59 13q10 0 10 -10q0 -3 -9 -13.5t-9 -17.5q0 -38 173 -510q17 -47 29 -62t32 -15h30v-30h-224v30h54q14 0 14 10q0 -6 -69 198zM392 274l-88 266l-111 -266h199zM194 719
q91 33 140 97q49 -64 140 -97q-22 -22 -31 -22q-19 0 -55.5 19t-53.5 37q-17 -18 -53 -37t-56 -19q-9 0 -31 22z" />
    <glyph glyph-name="Ecircumflex" unicode="&#xca;" horiz-adv-x="593" 
d="M121 46v418q0 86 -4 109q-6 32 -24 32h-59v30h501q-9 -89 -21 -93q-8 0 -12 18q-9 39 -178 39h-98q-20 0 -20 -18v-217h116q83 0 108.5 6t25.5 28v39h27v-169h-27v35q0 20 -18.5 24t-105.5 4h-126v-171q0 -87 9 -108q7 -16 32 -16h67q194 0 226 53q7 11 12 11q8 0 8 -11
q0 -6 -25 -89h-476v30h47q15 0 15 16zM177 719q91 33 140 97q49 -64 140 -97q-22 -22 -31 -22q-19 0 -55.5 19t-53.5 37q-17 -18 -53 -37t-56 -19q-9 0 -31 22z" />
    <glyph glyph-name="Aacute" unicode="&#xc1;" horiz-adv-x="648" 
d="M406 238h-227q-58 -148 -58 -182q0 -26 25 -26h63v-30h-202v30h20q29 0 36 16l253 599q54 13 59 13q10 0 10 -10q0 -3 -9 -13.5t-9 -17.5q0 -38 173 -510q17 -47 29 -62t32 -15h30v-30h-224v30h54q14 0 14 10q0 -6 -69 198zM392 274l-88 266l-111 -266h199zM329 696
l-18 20q15 19 68 59t64 40q17 0 34 -31q-64 -31 -148 -88z" />
    <glyph glyph-name="Edieresis" unicode="&#xcb;" horiz-adv-x="741" 
d="M178 635l409 -495h2v360q0 105 -32 105h-53v30h183v-30h-37q-23 0 -23 -20v-578q0 -16 -8 -16q-5 0 -14 11l-12 14l-433 522h-2v-403q0 -105 32 -105h53v-30h-183v30h37q23 0 23 20v440q0 56 -5 74q-11 41 -51 41h-31v30h145zM399 -173q-37 0 -37 37t37 37t37 -37
t-37 -37z" />
    <glyph glyph-name="Egrave" unicode="&#xc8;" horiz-adv-x="611" 
d="M210 318h50q82 0 128 33.5t46 95.5q0 67 -43.5 109.5t-106.5 42.5h-51q-23 0 -23 -14v-267zM125 46v418q0 86 -4 109q-6 32 -24 32h-59v30h280q79 0 134 -38q67 -46 67 -134q0 -63 -42.5 -105.5t-113.5 -55.5q120 -173 165 -226q40 -46 63 -46h25v-30h-115q-20 0 -48 36
q-45 57 -169 252h-74v-117q0 -86 4 -109q6 -32 24 -32h57v-30h-232v30h47q15 0 15 16zM349 -173q-37 0 -37 37t37 37t37 -37t-37 -37zM418 777v-45h-277v45h277z" />
    <glyph glyph-name="Iacute" unicode="&#xcd;" horiz-adv-x="333" 
d="M210 589v-418q0 -86 4 -109q6 -32 24 -32h57v-30h-232v30h47q15 0 15 16v418q0 86 -4 109q-6 32 -24 32h-59v30h232v-30h-45q-15 0 -15 -16zM162 696l-18 20q15 19 68 59t64 40q17 0 34 -31q-64 -31 -148 -88z" />
    <glyph glyph-name="Icircumflex" unicode="&#xce;" horiz-adv-x="333" 
d="M210 589v-418q0 -86 4 -109q6 -32 24 -32h57v-30h-232v30h47q15 0 15 16v418q0 86 -4 109q-6 32 -24 32h-59v30h232v-30h-45q-15 0 -15 -16zM27 719q91 33 140 97q49 -64 140 -97q-22 -22 -31 -22q-19 0 -55.5 19t-53.5 37q-17 -18 -53 -37t-56 -19q-9 0 -31 22z" />
    <glyph glyph-name="Idieresis" unicode="&#xcf;" horiz-adv-x="741" 
d="M178 635l409 -495h2v360q0 105 -32 105h-53v30h183v-30h-37q-23 0 -23 -20v-578q0 -16 -8 -16q-5 0 -14 11l-12 14l-433 522h-2v-403q0 -105 32 -105h53v-30h-183v30h37q23 0 23 20v440q0 56 -5 74q-11 41 -51 41h-31v30h145zM284 790q16 0 61 -15t56 -15q27 0 42 33
l20 -9q-13 -70 -71 -70q-22 0 -62 15l-16 6q-32 12 -38 12q-23 0 -41 -29l-19 9q11 63 68 63z" />
    <glyph glyph-name="Igrave" unicode="&#xcc;" horiz-adv-x="741" 
d="M178 635l409 -495h2v360q0 105 -32 105h-53v30h183v-30h-37q-23 0 -23 -20v-578q0 -16 -8 -16q-5 0 -14 11l-12 14l-433 522h-2v-403q0 -105 32 -105h53v-30h-183v30h37q23 0 23 20v440q0 56 -5 74q-11 41 -51 41h-31v30h145zM369 716q-37 0 -37 37t37 37t37 -37t-37 -37
z" />
    <glyph glyph-name="Oacute" unicode="&#xd3;" horiz-adv-x="741" 
d="M362 -19q-147 0 -231 88.5t-84 238.5q0 147 94 246.5t239 99.5q146 0 230.5 -88t84.5 -239q0 -148 -95 -247t-238 -99zM358 621q-105 0 -165.5 -76.5t-60.5 -208.5q0 -144 71 -233t181 -89q104 0 165 76t61 209q0 144 -71 233t-181 89zM356 696l-18 20q15 19 68 59t64 40
q17 0 34 -31q-64 -31 -148 -88z" />
    <glyph glyph-name="Ocircumflex" unicode="&#xd4;" horiz-adv-x="741" 
d="M362 -19q-147 0 -231 88.5t-84 238.5q0 147 94 246.5t239 99.5q146 0 230.5 -88t84.5 -239q0 -148 -95 -247t-238 -99zM358 621q-105 0 -165.5 -76.5t-60.5 -208.5q0 -144 71 -233t181 -89q104 0 165 76t61 209q0 144 -71 233t-181 89zM231 719q91 33 140 97
q49 -64 140 -97q-22 -22 -31 -22q-19 0 -55.5 19t-53.5 37q-17 -18 -53 -37t-56 -19q-9 0 -31 22z" />
    <glyph glyph-name="Ograve" unicode="&#xd2;" horiz-adv-x="704" 
d="M206 581v-421q0 -87 9 -108q7 -16 32 -16h80q109 0 174 70.5t65 183.5q0 144 -76 226.5t-206 82.5q-53 0 -65.5 -2.5t-12.5 -15.5zM34 605v30h294q184 0 270 -118q59 -81 59 -187q0 -145 -91.5 -237.5t-236.5 -92.5h-270v30h47q15 0 15 16v418q0 86 -4 109q-6 32 -24 32
h-59zM309 -173q-37 0 -37 37t37 37t37 -37t-37 -37z" />
    <glyph glyph-name="Uacute" unicode="&#xda;" horiz-adv-x="704" 
d="M16 605v30h232v-30h-45q-15 0 -15 -16v-379q0 -88 46.5 -138t123.5 -50q135 0 183 89q27 50 27 149v240q0 105 -32 105h-53v30h183v-30h-37q-23 0 -23 -20v-356q0 -115 -68 -181.5t-185 -66.5q-158 0 -215 91q-35 56 -35 170v222q0 86 -4 109q-6 32 -24 32h-59zM357 696
l-18 20q15 19 68 59t64 40q17 0 34 -31q-64 -31 -148 -88z" />
    <glyph glyph-name="Ucircumflex" unicode="&#xdb;" horiz-adv-x="704" 
d="M16 605v30h232v-30h-45q-15 0 -15 -16v-379q0 -88 46.5 -138t123.5 -50q135 0 183 89q27 50 27 149v240q0 105 -32 105h-53v30h183v-30h-37q-23 0 -23 -20v-356q0 -115 -68 -181.5t-185 -66.5q-158 0 -215 91q-35 56 -35 170v222q0 86 -4 109q-6 32 -24 32h-59zM222 719
q91 33 140 97q49 -64 140 -97q-22 -22 -31 -22q-19 0 -55.5 19t-53.5 37q-17 -18 -53 -37t-56 -19q-9 0 -31 22z" />
    <glyph glyph-name="Ugrave" unicode="&#xd9;" horiz-adv-x="722" 
d="M527 328h-329v-157q0 -86 4 -109q6 -32 24 -32h57v-30h-232v30h47q15 0 15 16v418q0 86 -4 109q-6 32 -24 32h-59v30h232v-30h-45q-15 0 -15 -16v-225h329v100q0 86 -4 109q-6 32 -24 32h-59v30h232v-30h-45q-15 0 -15 -16v-418q0 -86 4 -109q6 -32 24 -32h57v-30h-232
v30h47q15 0 15 16v282zM379 -173q-37 0 -37 37t37 37t37 -37t-37 -37z" />
    <glyph glyph-name="glyph231" horiz-adv-x="333" 
 />
    </font>
</defs>
</svg>
