<svg xmlns="http://www.w3.org/2000/svg" width="15" height="15" viewBox="0 0 15 15"><g><g><path fill="#fff" d="M11.936 7.012a8.588 8.588 0 0 0-1.035-.504 11.016 11.016 0 0 0-2.197-.609 13.951 13.951 0 0 0-1.58-.185 14.83 14.83 0 0 0-1.655-.008c-.633.032-1.26.102-1.88.235-.228.05-.453.112-.68.172a.721.721 0 0 1-.932-.674.705.705 0 0 1 .48-.692c.219-.072.443-.129.667-.18a12.476 12.476 0 0 1 1.686-.26 15.198 15.198 0 0 1 1.81-.056c1.49.043 2.95.26 4.362.748.576.199 1.13.446 1.657.753.188.11.314.264.362.478.012.05.014.103.021.155a.72.72 0 0 1-1.086.627zm-.092 2.198a.604.604 0 0 1-.825.202c-.167-.095-.332-.193-.503-.28a9.16 9.16 0 0 0-2.479-.822 11.14 11.14 0 0 0-2.047-.19 9.579 9.579 0 0 0-2.684.377.637.637 0 0 1-.431-.012.599.599 0 0 1-.373-.569.585.585 0 0 1 .41-.552 10.19 10.19 0 0 1 2.67-.438 11.74 11.74 0 0 1 4.06.55 9.215 9.215 0 0 1 1.91.854l.09.054c.315.192.352.579.202.826zm-.95 2.113a.477.477 0 0 1-.603.19c-.045-.02-.086-.046-.129-.071a7.318 7.318 0 0 0-2.652-.933 9.129 9.129 0 0 0-1.745-.097 12.65 12.65 0 0 0-2.24.298 1.1 1.1 0 0 1-.228.033.464.464 0 0 1-.461-.38.474.474 0 0 1 .286-.537.925.925 0 0 1 .14-.04 13.63 13.63 0 0 1 1.831-.29c.345-.03.69-.041 1.036-.06 1.021.01 2.02.148 2.99.475.535.18 1.046.414 1.53.703.043.025.085.05.124.08a.479.479 0 0 1 .12.629zM7.5 0a7.5 7.5 0 1 0 0 15 7.5 7.5 0 0 0 0-15z"/></g></g></svg>