<svg xmlns="http://www.w3.org/2000/svg" width="19" height="16" viewBox="0 0 19 16"><g><g><path fill="#fff" d="M18.46 2.315a7.536 7.536 0 0 1-2.175.596A3.794 3.794 0 0 0 17.95.815a7.581 7.581 0 0 1-2.405.92 3.787 3.787 0 0 0-6.453 3.454 10.753 10.753 0 0 1-7.807-3.957 3.768 3.768 0 0 0-.513 1.905c0 1.313.669 2.473 1.685 3.152a3.777 3.777 0 0 1-1.715-.474v.048A3.79 3.79 0 0 0 3.78 9.576a3.808 3.808 0 0 1-1.711.065 3.791 3.791 0 0 0 3.538 2.63A7.598 7.598 0 0 1 0 13.839a10.717 10.717 0 0 0 5.805 1.702c6.967 0 10.776-5.771 10.776-10.776 0-.164-.003-.328-.01-.49a7.67 7.67 0 0 0 1.889-1.96z"/></g></g></svg>