<svg width="512" height="512" viewBox="0 0 512 512" fill="none" xmlns="http://www.w3.org/2000/svg">
<path d="M246.3 91.1999L133.5 204C130.5 207 130.5 211.7 133.5 214.6C136.5 217.6 141.2 217.6 144.1 214.6L244.1 114.6V442.4C244 446.6 247.4 449.9 251.6 449.9C255.8 449.9 259.1 446.5 259.1 442.4V114.6L359.1 214.6C362.1 217.6 366.8 217.6 369.7 214.6C371.2 213.1 371.9 211.2 371.9 209.3C371.9 207.4 371.2 205.4 369.7 204L257 91.1999C254 88.2999 249.2 88.2999 246.3 91.1999Z" fill="#27AEC2"/>
<path d="M455.7 512H56.3C25.3 512 0 486.7 0 455.7V56.3C0 25.3 25.3 0 56.3 0H455.7C486.7 0 512 25.3 512 56.3V455.7C512 486.7 486.7 512 455.7 512ZM56.3 9.8C30.7 9.8 9.8 30.7 9.8 56.3V455.7C9.8 481.3 30.7 502.2 56.3 502.2H455.7C481.3 502.2 502.2 481.3 502.2 455.7V56.3C502.2 30.7 481.3 9.8 455.7 9.8H56.3V9.8Z" fill="#24AEC2"/>
</svg>
