<svg width="512" height="512" viewBox="0 0 512 512" fill="none" xmlns="http://www.w3.org/2000/svg">
<path d="M256 512C114.8 512 0 397.2 0 256C0 114.8 114.8 0 256 0C397.2 0 512 114.8 512 256C512 397.2 397.2 512 256 512ZM256 32C132.5 32 32 132.5 32 256C32 379.5 132.5 480 256 480C379.5 480 480 379.5 480 256C480 132.5 379.5 32 256 32Z" fill="#6E6E6E"/>
<path d="M368 394.7C363.9 394.7 359.8 393.1 356.7 390L244.7 278C241.7 275 240 270.9 240 266.7V117.3C240 108.5 247.2 101.3 256 101.3C264.8 101.3 272 108.5 272 117.3V260L379.3 367.3C385.5 373.5 385.5 383.7 379.3 389.9C376.2 393.1 372.1 394.7 368 394.7Z" fill="#6E6E6E"/>
</svg>
