<svg width="512" height="512" viewBox="0 0 512 512" fill="none" xmlns="http://www.w3.org/2000/svg">
<path d="M486.4 59.7002H25.6C11.5 59.7002 0 71.2002 0 85.3002V426.6C0 440.7 11.5 452.2 25.6 452.2H486.4C500.5 452.2 512 440.7 512 426.6V85.3002C512 71.2002 500.5 59.7002 486.4 59.7002ZM494.9 426.7C494.9 431.4 491.1 435.2 486.4 435.2H25.6C20.9 435.2 17.1 431.4 17.1 426.7V85.3002C17.1 80.6002 20.9 76.8002 25.6 76.8002H486.4C491.1 76.8002 494.9 80.6002 494.9 85.3002V426.7Z" fill="#27AEC2"/>
<path d="M470.1 93.9002C467.8 93.7002 465.6 94.4002 463.9 95.9002L267 261.2C260.7 266.5 251.4 266.5 245 261.2L48.1999 95.9002C45.8999 93.9002 42.6999 93.4002 39.7999 94.4002C36.8999 95.4002 34.7999 97.9002 34.2999 100.9C33.7999 103.9 34.8999 107 37.1999 108.9L234 274.3C246.7 285 265.2 285 277.9 274.3L474.8 108.9C476.5 107.4 477.6 105.4 477.8 103.1C478 100.8 477.3 98.6002 475.8 96.9002C474.4 95.2002 472.3 94.1002 470.1 93.9002Z" fill="#27AEC2"/>
<path d="M164.1 273.1C161.1 272.4 157.9 273.4 155.9 275.7L36.4001 403.7C34.2001 405.9 33.4001 409.1 34.3001 412.1C35.2001 415.1 37.6001 417.3 40.6001 418C43.6001 418.7 46.8001 417.7 48.8001 415.4L168.3 287.4C170.5 285.2 171.3 282 170.4 279C169.5 276 167.1 273.8 164.1 273.1Z" fill="#27AEC2"/>
<path d="M356.1 275.8C354 273.5 350.9 272.5 347.9 273.2C344.9 273.9 342.5 276.1 341.6 279.1C340.7 282.1 341.5 285.3 343.7 287.5L463.2 415.5C466.4 418.8 471.7 418.9 475.1 415.8C478.5 412.6 478.7 407.3 475.6 403.9L356.1 275.8Z" fill="#27AEC2"/>
</svg>
