<svg width="512" height="512" viewBox="0 0 512 512" fill="none" xmlns="http://www.w3.org/2000/svg">
<path d="M427.2 206L465 111.6C466.8 107 466.3 101.7 463.5 97.6C460.6 93.5 456 91 451 91H261C252.7 91 246 97.7 246 106V241H211C202.7 241 196 247.7 196 256V306C196 314.3 202.7 321 211 321H451C456 321 460.6 318.5 463.4 314.4C466.2 310.3 466.8 305 464.9 300.4L427.2 206Z" fill="#27AEC2"/>
<path d="M211 321C209.1 321 207.1 320.6 205.3 319.9C199.7 317.6 196 312.1 196 306V256C196 247.7 202.7 241 211 241H261C267.1 241 272.5 244.7 274.9 250.3C277.2 255.9 275.9 262.4 271.6 266.6L221.6 316.6C218.7 319.5 214.9 321 211 321Z" fill="#27AEC2"/>
<path d="M261 41H61C52.7 41 46 47.7 46 56V256C46 264.3 52.7 271 61 271H261C269.3 271 276 264.3 276 256V56C276 47.7 269.3 41 261 41Z" fill="#3FCDD8"/>
<path d="M61 512C52.7 512 46 505.3 46 497V15C46 6.7 52.7 0 61 0C69.3 0 76 6.7 76 15V497C76 505.3 69.3 512 61 512Z" fill="#A4B0BE"/>
</svg>
