<svg width="512" height="512" viewBox="0 0 512 512" fill="none" xmlns="http://www.w3.org/2000/svg">
<g clip-path="url(#clip0)">
<path d="M512 167.7H414.9V370.7H512V167.7Z" fill="#3FCDD8"/>
<path d="M194.2 391.5C184 381.9 172.4 371 160.7 360C124.8 326.1 88.2002 291.3 88.2002 291.3L132.3 247.2L194.1 308.2L255.9 369.2V370.8H406L450.1 414.9L406.1 459L370.8 423.7H229.5C228.8 423.7 214 410 194.2 391.5Z" fill="#F5D0C7"/>
<path d="M414.9 167.7V370.8H406.1H353.1V167.7H414.9Z" fill="#A4B0BE"/>
<path d="M353.1 167.7V370.8H257.6L256 369.2V167.7H353.1Z" fill="#3FCDD8"/>
<path d="M194.2 441.4H158.9V512H194.2V441.4Z" fill="#3FCDD8"/>
<path d="M194.2 391.5V441.4H158.9V512H53V467.9L158.9 397.3V362L160.8 360.1C172.4 371 184 381.9 194.2 391.5Z" fill="#A4B0BE"/>
<path d="M194.2 282.5V308.2L132.4 247.2H53V211.9H123.6C162.6 211.9 194.2 243.5 194.2 282.5Z" fill="#A4B0BE"/>
<path d="M194.2 61.7998V113.5C193.9 148.6 165.1 176.8 130 176.5H53V61.7998H194.2Z" fill="#F5D0C7"/>
<path d="M194.2 53.0001V61.8001H53V50.4001C53 48.3001 53.1 46.3001 53.4 44.2001C56.8 18.8001 78.6 -0.199901 104.3 9.94693e-05H141.2C170.5 9.94693e-05 194.2 23.7001 194.2 53.0001Z" fill="#27AEC2"/>
<path d="M160.8 360L158.9 361.9V397.2L53 467.9V247.2H132.4L88.3 291.3C88.3 291.3 124.8 326.1 160.8 360Z" fill="#3FCDD8"/>
<path d="M53 44.1001L53.4 44.2001C53.1 46.2001 52.9 48.3001 53 50.4001V60.3001H0L53 44.1001Z" fill="#A4B0BE"/>
<path d="M485.5 194.2H441.4V211.9H485.5V194.2Z" fill="#A4B0BE"/>
<path d="M300.2 326.6H282.5V344.3H300.2V326.6Z" fill="#A4B0BE"/>
</g>
<defs>
<clipPath id="clip0">
<rect width="512" height="512" fill="white"/>
</clipPath>
</defs>
</svg>
