<svg width="512" height="512" viewBox="0 0 512 512" fill="none" xmlns="http://www.w3.org/2000/svg">
<path d="M315.099 148.1C315.099 115.5 288.599 89 255.999 89C223.399 89 196.899 115.5 196.899 148.1C196.899 180.7 223.399 207.2 255.999 207.2C288.599 207.2 315.099 180.7 315.099 148.1ZM210.899 148.1C210.899 123.2 231.099 103 255.999 103C280.899 103 301.099 123.2 301.099 148.1C301.099 173 280.899 193.2 255.999 193.2C231.099 193.2 210.899 173 210.899 148.1Z" fill="#27AEC2"/>
<path d="M493.3 484.3L436.2 334.7C435.2 332 432.6 330.2 429.7 330.2H321.7C322.4 329.1 323 328.1 323.7 327C365.3 258.2 386.2 198 385.9 148.1C385.9 76.4002 327.8 18.2002 256.1 18.2002C184.4 18.2002 126.2 76.3002 126.2 148C125.9 197.9 146.8 258.1 188.4 326.9C189.1 328 189.7 329 190.4 330.1H82.3998C79.4998 330.1 76.8998 331.9 75.8998 334.6L18.6998 484.3C17.2998 487.9 19.0998 491.9 22.6998 493.3C23.4998 493.6 24.3998 493.8 25.1998 493.8H486.7C490.6 493.8 493.7 490.7 493.7 486.8C493.8 485.9 493.6 485.1 493.3 484.3ZM140.1 148.1C140.1 84.1002 192 32.3002 256 32.3002C320 32.3002 371.8 84.2002 371.8 148.2C372.4 247.6 279.4 370.3 255.9 399.7C232.5 370.2 139.5 247.6 140.1 148.1ZM250.7 415.2C253.2 418.1 257.6 418.5 260.6 416C260.9 415.8 261.2 415.5 261.4 415.2C280 392.6 297.2 368.8 313 344.2H424.9L433.9 367.7L215.1 445.5L137.1 344.2H199.1C214.8 368.8 232.1 392.6 250.7 415.2ZM214.8 460.4L345.4 414L396 479.8H160.4L214.8 460.4ZM87.0998 344.2H119.4L201.2 450.4L118.6 479.8H35.3998L87.0998 344.2ZM413.7 479.8L359.2 409L438.8 380.7L476.6 479.7H413.7V479.8Z" fill="#27AEC2"/>
</svg>
