<svg width="512" height="512" viewBox="0 0 512 512" fill="none" xmlns="http://www.w3.org/2000/svg">
<g clip-path="url(#clip0)">
<path d="M425.9 459.9V503.2C425.9 508.1 422 512 417.1 512H94.9001C90.0001 512 86.1001 508.1 86.1001 503.2V459.9C86.1001 414.5 122.9 377.6 168.4 377.6C184.5 377.6 198.6 369.3 206.8 356.8C215 344.2 214.1 333.3 214.1 324.5L214.3 324.1C174.7 307.7 146.8 268.7 146.8 223.1V219.6C131.1 219.6 119.2 207.2 119.2 192.5V146.6C118.8 130.6 119.6 74.3001 160.2 35.1001C207.5 -10.4999 282.4 -6.69994 336.7 17.6001C338.5 18.4001 338.4 20.9001 336.6 21.7001L322.4 27.5001C320.3 28.4001 320.7 31.5001 323 31.7001L329.9 32.4001C366.9 36.3001 397.7 58.4001 413 84.6001C413.1 84.9001 413.1 85.2001 412.9 85.4001C400.7 97.9001 393.8 114.6 393.8 132.1V190.7C393.8 206.5 381 219.4 365.1 219.4V222.9C365.1 268.4 337.2 307.5 297.6 323.9L297.8 324.3C297.8 332.9 296.9 344 305.1 356.6C313.2 369.1 327.4 377.4 343.5 377.4C389.1 377.6 425.9 414.4 425.9 459.9Z" fill="#F5D0C7"/>
<path d="M413.1 84.8002C413.2 85.1002 413.2 85.4002 413 85.6002C400.8 98.1002 393.9 114.9 393.9 132.3V190.9C393.9 206.7 381.1 219.6 365.2 219.6C365.2 186.2 365.2 168.8 365.2 159.4C365.2 153.5 359.5 149.2 353.8 151C336 156.5 315.3 159.3 293.5 154.6C255.1 146.3 244.3 131.2 213 123.7C178 115.3 146.3 142.1 146.5 176.4C146.6 187.7 146.8 201.7 146.8 219.7C131.1 219.7 119.2 207.3 119.2 192.6V146.7C118.8 130.7 119.6 74.4002 160.2 35.2002C207.5 -10.3998 282.4 -6.59984 336.7 17.7002C338.5 18.5002 338.4 21.0002 336.6 21.8002L322.4 27.6002C320.3 28.5002 320.7 31.6002 323 31.8002L329.9 32.5002C367 36.6002 397.7 58.6002 413.1 84.8002Z" fill="#A4B0BE"/>
<path d="M353.9 151C359.6 149.3 365.3 153.5 365.3 159.4C365.3 169.1 365.3 187.4 365.3 223.1C365.3 268.6 337.4 307.7 297.8 324.1C226.2 353.8 146.8 301 146.8 223.1C146.8 203 146.6 188.7 146.5 176.3C146.3 142 178 115.2 213 123.6C244.3 131.1 255.2 146.2 293.5 154.5C315.3 159.3 336.1 156.4 353.9 151Z" fill="#F5D0C7"/>
<path d="M425.9 459.9V503.2C425.9 508.1 421.9 512 417.1 512H94.9001C90.0001 512 86.1001 508 86.1001 503.2V459.9C86.1001 414.5 122.9 377.6 168.4 377.6C184.5 377.6 198.6 369.3 206.8 356.8C235.2 381.1 276.9 381.1 305.3 356.8C313.4 369.3 327.6 377.6 343.7 377.6C389.1 377.6 425.9 414.4 425.9 459.9Z" fill="#3FCDD8"/>
<path d="M345.4 493.2H318.9C314 493.2 310.1 489.2 310.1 484.4C310.1 479.6 314.1 475.6 318.9 475.6H345.4C350.3 475.6 354.2 479.6 354.2 484.4C354.2 489.2 350.2 493.2 345.4 493.2Z" fill="#27AEC2"/>
<path d="M212.8 404.2C208.7 405.5 204.3 406.2 199.7 406.2C154.1 406.6 117 442.6 117 488.2V496.5C117 505 110.1 511.9 101.6 511.9H95.0002C90.1002 511.9 86.2002 507.9 86.2002 503.1V459.8C86.2002 414.4 123 377.5 168.5 377.5C184.6 377.5 198.7 369.2 206.9 356.7C210.2 359.5 213.7 362 217.4 364.2C233.5 374 230.9 398.6 212.8 404.2Z" fill="#4EDADD"/>
<path d="M299.2 404.2C303.3 405.5 307.7 406.2 312.3 406.2C357.9 406.6 395 442.6 395 488.2V496.5C395 505 401.9 511.9 410.4 511.9H417C421.9 511.9 425.8 507.9 425.8 503.1V459.8C425.8 414.4 389 377.5 343.5 377.5C327.4 377.5 313.3 369.2 305.1 356.7C301.8 359.5 298.3 362 294.6 364.2C278.5 374 281.1 398.6 299.2 404.2Z" fill="#27AEC2"/>
<path d="M299.2 342.6C272 354 242.1 354.9 212.9 342.6C214.4 336.4 214.1 332.4 214.1 324.5L214.3 324.1C240.9 335.1 271.2 335.2 297.8 324.1L298 324.5C297.9 332.3 297.7 336.3 299.2 342.6Z" fill="#EAC5BE"/>
<path d="M336.7 21.8002C326.3 26.1002 324 27.6002 319.2 26.8002C231.7 12.4002 162.7 58.2002 153.3 147.6C153.1 149.2 152.7 150.7 152 152.1C145.3 165.8 146.5 175.9 146.6 192.7C146.7 210.4 120.1 211.5 119.2 193.9C119.1 192.8 119.2 195.7 119.2 146.7C118.8 130.7 119.6 74.4002 160.2 35.2002C207.5 -10.3998 282.4 -6.59984 336.7 17.7002C338.5 18.6002 338.5 21.1002 336.7 21.8002Z" fill="#8E9AA5"/>
<path d="M231.3 293.6C249.3 304.8 235.1 332.4 215.4 324.5C175 308.3 146.8 269 146.8 223.1C146.8 202.9 146.6 188.7 146.5 176.3C146.4 165.2 149.7 154.9 155.3 146.3C162.4 135.5 179.5 140.2 179.6 154.2C179.7 166.6 179.9 180.8 179.9 201C179.9 241.3 201 274.7 231.3 293.6Z" fill="#EAC5BE"/>
</g>
<defs>
<clipPath id="clip0">
<rect width="512" height="512" fill="white"/>
</clipPath>
</defs>
</svg>
