<svg width="41" height="41" viewBox="0 0 41 41" fill="none" xmlns="http://www.w3.org/2000/svg">
<path d="M20.5003 0C12.3163 0 5.65381 6.6625 5.65381 14.8465C5.65381 25.0084 18.9388 39.927 19.5073 40.5516C20.0358 41.1441 20.9647 41.1441 21.4933 40.5516C22.0618 39.9189 35.3468 25.0084 35.3468 14.8465C35.3468 6.6625 28.6843 0 20.5003 0ZM20.5003 22.3178C16.3843 22.3178 13.029 18.9625 13.029 14.8465C13.029 10.7305 16.3843 7.3752 20.5003 7.3752C24.6163 7.3752 27.9716 10.7305 27.9716 14.8465C27.9716 18.9625 24.6163 22.3178 20.5003 22.3178Z" fill="#27AEC2"/>
</svg>
