<svg width="512" height="512" viewBox="0 0 512 512" fill="none" xmlns="http://www.w3.org/2000/svg">
<path d="M74.5 481.4H38.3L64 455.7C77.8 441.9 86.5 423.9 88.8 404.4C29.5 365.5 0 309.2 0 250.2C0 141.3 100.1 30.6001 256.9 30.6001C423 30.6001 512 132.4 512 240.6C512 349.5 422 451.3 256.9 451.3C228 451.3 197.8 447.4 170.8 440.4C145.3 466.6 110.7 481.4 74.5 481.4Z" fill="#3FCDD8"/>
<path d="M512 240.7C512 132.5 422.9 30.7002 256.9 30.7002V451.4C422 451.3 512 349.6 512 240.7Z" fill="#27AEC2"/>
<path d="M138.5 278.5C160.868 278.5 179 260.368 179 238C179 215.632 160.868 197.5 138.5 197.5C116.132 197.5 98 215.632 98 238C98 260.368 116.132 278.5 138.5 278.5Z" fill="white"/>
<path d="M256.9 278.5C279.267 278.5 297.4 260.368 297.4 238C297.4 215.632 279.267 197.5 256.9 197.5C234.532 197.5 216.4 215.632 216.4 238C216.4 260.368 234.532 278.5 256.9 278.5Z" fill="white"/>
<path d="M374 278.5C396.368 278.5 414.5 260.368 414.5 238C414.5 215.632 396.368 197.5 374 197.5C351.632 197.5 333.5 215.632 333.5 238C333.5 260.368 351.632 278.5 374 278.5Z" fill="white"/>
</svg>
