<svg width="305" height="302" viewBox="0 0 305 302" fill="none" xmlns="http://www.w3.org/2000/svg">
<path d="M296.6 223.7L248.6 175.9C237.7 165 220 165 209.1 175.9L181.6 203.4C179.5 205.5 176.2 205.8 173.8 204.1C158.8 193.6 144.7 181.8 131.7 168.8C120.1 157.2 109.4 144.8 99.8 131.5C98.1 129.1 98.3 125.8 100.4 123.7L128.6 95.4999C139.5 84.5999 139.5 66.9999 128.6 56.0999L80.6 8.0999C69.5 -2.5001 52.1 -2.5001 41.1 8.0999L25.9 23.2999C2.99997 45.9999 -5.20004 79.6999 4.69996 110.3C12.1 132.7 22.6 154.1 35.9 173.6C47.9 191.5 61.6 208.2 76.9 223.4C93.5 240.1 111.9 255 131.8 267.7C153.6 281.9 177.6 292.6 202.8 299.3C209.3 300.9 215.9 301.7 222.6 301.7C245.5 301.6 267.4 292.4 283.4 276.1L296.5 263C307.5 252.3 307.5 234.6 296.6 223.7ZM284.6 251.5C284.5 251.5 284.5 251.5 284.6 251.5L284.7 251.3L271.6 264.4C254.8 281.4 230.4 288.4 207.2 282.8C183.8 276.5 161.6 266.6 141.3 253.3C122.5 241.3 105.1 227.2 89.3 211.4C74.8 197 61.8 181.2 50.5 164.3C38.1 146.1 28.3 126.2 21.3 105.2C13.3 80.5999 19.9 53.5999 38.4 35.4999L53.6 20.2999C57.8 16.0999 64.7 15.9999 68.9 20.2999L116.9 68.2999C121.1 72.4999 121.2 79.3999 116.9 83.5999L88.7 111.8C80.6 119.8 79.6 132.5 86.3 141.7C96.5 155.7 107.8 168.8 120 181C133.7 194.7 148.5 207.2 164.4 218.3C173.6 224.7 186 223.6 193.9 215.7L221.1 188.1C225.3 183.9 232.2 183.8 236.4 188.1L284.4 236.2C288.8 240.4 288.8 247.3 284.6 251.5Z" fill="#27AEC2"/>
</svg>
