<svg width="512" height="512" viewBox="0 0 512 512" fill="none" xmlns="http://www.w3.org/2000/svg">
<path d="M512 367.6C512 391.8 506.3 414.8 495 435.9C484.4 455.6 469 472.9 450.5 485.9C432.1 498.8 410.7 507.3 388.7 510.6C381.8 511.6 374.9 512.1 368 512.1C351.5 512.1 335.1 509.2 319.1 503.4C248.5 477.8 183 436 129.6 382.6C76.2 329.2 34.4 263.6 8.69996 193C0.499958 170.3 -2.00004 146.9 1.49996 123.4C4.69996 101.4 13.2 80.0001 26.2 61.6001C39.2 43.1001 56.4 27.7001 76.2 17.1001C97.2 5.8001 120.2 0.100098 144.5 0.100098C152 0.100098 158.6 5.4001 160.1 12.7001L185.2 129.9C186.3 135.2 184.7 140.7 180.9 144.6L138 187.5C178.5 268 244.2 333.7 324.6 374.1L367.5 331.2C371.3 327.4 376.9 325.7 382.2 326.9L499.4 352C506.7 353.5 512 360 512 367.6Z" fill="#3FCDD8"/>
<path d="M107.4 37C83.1999 37 60.1999 42.7 39.0999 54C34.4999 56.5 29.8999 59.3 25.5999 62.3C25.7999 62 25.9999 61.8 26.0999 61.5C39.0999 43 56.2999 27.6 76.0999 17C97.0999 5.7 120.1 0 144.4 0C151.9 0 158.5 5.3 160 12.6L185.1 129.8C186.2 135.1 184.6 140.6 180.8 144.5L143.8 181.5C147.6 177.7 149.3 172.1 148.1 166.8L123.1 49.6C121.5 42.3 115 37 107.4 37Z" fill="#27AEC2"/>
<path d="M324.6 374.1L303.4 395.3C293.8 404.9 278.9 406.8 267.1 400C202.7 363 149 309.3 112 244.9C105.2 233.1 107.1 218.2 116.7 208.6L137.9 187.4C178.4 267.9 244.1 333.6 324.6 374.1Z" fill="#27AEC2"/>
<path d="M512 367.6C512 391.8 506.3 414.8 495 435.9C484.4 455.6 469 472.9 450.5 485.9C450.2 486.1 450 486.3 449.7 486.4C452.7 482.1 455.5 477.5 458 472.9C469.3 451.9 475 428.9 475 404.6C475 397.1 469.7 390.5 462.4 389L345.2 363.9C339.9 362.8 334.4 364.4 330.5 368.2L367.5 331.2C371.3 327.4 376.9 325.7 382.2 326.9L499.4 352C506.7 353.5 512 360 512 367.6Z" fill="#27AEC2"/>
</svg>
