<svg width="506" height="506" viewBox="0 0 506 506" fill="none" xmlns="http://www.w3.org/2000/svg">
<g clip-path="url(#clip0)">
<path d="M427.6 71.9001C328.3 -23.9999 171.1 -23.9999 71.9002 71.9001C-26.2998 173.6 -23.4998 335.7 78.2002 433.9C177.4 529.7 334.7 529.7 433.9 433.9C532.1 332.1 529.3 170.1 427.6 71.9001ZM421.8 421.8C328.4 515 177.1 514.9 83.8002 421.6C-9.49984 328.3 -9.39984 176.9 84.0002 83.7001C177.4 -9.4999 328.6 -9.4999 421.9 83.9001C466.7 128.7 491.8 189.5 491.8 252.9C491.8 316.2 466.6 377 421.8 421.8Z" fill="#27AEC2"/>
<path d="M396.6 325.7L348.6 277.9C337.7 267 320 267 309.1 277.9L281.6 305.4C279.5 307.5 276.2 307.8 273.8 306.1C258.8 295.6 244.7 283.8 231.7 270.8C220.1 259.2 209.4 246.8 199.8 233.5C198.1 231.1 198.3 227.8 200.4 225.7L228.6 197.5C239.5 186.6 239.5 169 228.6 158.1L180.6 110.1C169.5 99.4999 152.1 99.4999 141.1 110.1L125.9 125.3C103 148 94.8 181.7 104.7 212.3C112.1 234.7 122.6 256.1 135.9 275.6C147.9 293.5 161.6 310.2 176.9 325.4C193.5 342.1 211.9 357 231.8 369.7C253.6 383.9 277.6 394.6 302.8 401.3C309.3 402.9 315.9 403.7 322.6 403.7C345.5 403.6 367.4 394.4 383.4 378.1L396.5 365C407.5 354.3 407.5 336.6 396.6 325.7ZM384.6 353.5C384.5 353.5 384.5 353.5 384.6 353.5L384.7 353.3L371.6 366.4C354.8 383.4 330.4 390.4 307.2 384.8C283.8 378.5 261.6 368.6 241.3 355.3C222.5 343.3 205.1 329.2 189.3 313.4C174.8 299 161.8 283.2 150.5 266.3C138.1 248.1 128.3 228.2 121.3 207.2C113.3 182.6 119.9 155.6 138.4 137.5L153.6 122.3C157.8 118.1 164.7 118 168.9 122.3L216.9 170.3C221.1 174.5 221.2 181.4 216.9 185.6L188.7 213.8C180.6 221.8 179.6 234.5 186.3 243.7C196.5 257.7 207.8 270.8 220 283C233.7 296.7 248.5 309.2 264.4 320.3C273.6 326.7 286 325.6 293.9 317.7L321.1 290.1C325.3 285.9 332.2 285.8 336.4 290.1L384.4 338.2C388.8 342.4 388.8 349.3 384.6 353.5Z" fill="#27AEC2"/>
</g>
<defs>
<clipPath id="clip0">
<rect width="505.7" height="505.7" fill="white"/>
</clipPath>
</defs>
</svg>
