<svg class="sprite-icons" xmlns="http://www.w3.org/2000/svg">

	<symbol id="icon-star">
		<!-- width="34" height="32" viewBox="0 0 34 32" -->
		<g>
			<g>
				<path d="M17 25.723L27.506 32l-2.78-11.838L34 12.2l-12.225-1.039L17 0l-4.775 11.161L0 12.201l9.274 7.96L6.494 32z"/>
			</g>
		</g>
	</symbol>

	<symbol id="clock-icon">
		<!-- width="512" height="512" viewBox="0 0 512 512" -->
		<path d="M256 512C114.8 512 0 397.2 0 256C0 114.8 114.8 0 256 0C397.2 0 512 114.8 512 256C512 397.2 397.2 512 256 512ZM256 32C132.5 32 32 132.5 32 256C32 379.5 132.5 480 256 480C379.5 480 480 379.5 480 256C480 132.5 379.5 32 256 32Z" fill="#6E6E6E"/>
		<path d="M368 394.7C363.9 394.7 359.8 393.1 356.7 390L244.7 278C241.7 275 240 270.9 240 266.7V117.3C240 108.5 247.2 101.3 256 101.3C264.8 101.3 272 108.5 272 117.3V260L379.3 367.3C385.5 373.5 385.5 383.7 379.3 389.9C376.2 393.1 372.1 394.7 368 394.7Z" fill="#6E6E6E"/>
	</symbol>

	<symbol id="icon-phone2">
		<!-- width="305" height="302" viewBox="0 0 305 302" -->
		<path d="M296.6 223.7L248.6 175.9C237.7 165 220 165 209.1 175.9L181.6 203.4C179.5 205.5 176.2 205.8 173.8 204.1C158.8 193.6 144.7 181.8 131.7 168.8C120.1 157.2 109.4 144.8 99.8 131.5C98.1 129.1 98.3 125.8 100.4 123.7L128.6 95.4999C139.5 84.5999 139.5 66.9999 128.6 56.0999L80.6 8.0999C69.5 -2.5001 52.1 -2.5001 41.1 8.0999L25.9 23.2999C2.99997 45.9999 -5.20004 79.6999 4.69996 110.3C12.1 132.7 22.6 154.1 35.9 173.6C47.9 191.5 61.6 208.2 76.9 223.4C93.5 240.1 111.9 255 131.8 267.7C153.6 281.9 177.6 292.6 202.8 299.3C209.3 300.9 215.9 301.7 222.6 301.7C245.5 301.6 267.4 292.4 283.4 276.1L296.5 263C307.5 252.3 307.5 234.6 296.6 223.7ZM284.6 251.5C284.5 251.5 284.5 251.5 284.6 251.5L284.7 251.3L271.6 264.4C254.8 281.4 230.4 288.4 207.2 282.8C183.8 276.5 161.6 266.6 141.3 253.3C122.5 241.3 105.1 227.2 89.3 211.4C74.8 197 61.8 181.2 50.5 164.3C38.1 146.1 28.3 126.2 21.3 105.2C13.3 80.5999 19.9 53.5999 38.4 35.4999L53.6 20.2999C57.8 16.0999 64.7 15.9999 68.9 20.2999L116.9 68.2999C121.1 72.4999 121.2 79.3999 116.9 83.5999L88.7 111.8C80.6 119.8 79.6 132.5 86.3 141.7C96.5 155.7 107.8 168.8 120 181C133.7 194.7 148.5 207.2 164.4 218.3C173.6 224.7 186 223.6 193.9 215.7L221.1 188.1C225.3 183.9 232.2 183.8 236.4 188.1L284.4 236.2C288.8 240.4 288.8 247.3 284.6 251.5Z" fill="#27AEC2"/>
	</symbol>

	<symbol id="icon-to-top">
		<!-- width="512" height="512" viewBox="0 0 512 512" -->
		<path d="M246.3 91.1999L133.5 204C130.5 207 130.5 211.7 133.5 214.6C136.5 217.6 141.2 217.6 144.1 214.6L244.1 114.6V442.4C244 446.6 247.4 449.9 251.6 449.9C255.8 449.9 259.1 446.5 259.1 442.4V114.6L359.1 214.6C362.1 217.6 366.8 217.6 369.7 214.6C371.2 213.1 371.9 211.2 371.9 209.3C371.9 207.4 371.2 205.4 369.7 204L257 91.1999C254 88.2999 249.2 88.2999 246.3 91.1999Z" fill="#27AEC2"/>
		<path d="M455.7 512H56.3C25.3 512 0 486.7 0 455.7V56.3C0 25.3 25.3 0 56.3 0H455.7C486.7 0 512 25.3 512 56.3V455.7C512 486.7 486.7 512 455.7 512ZM56.3 9.8C30.7 9.8 9.8 30.7 9.8 56.3V455.7C9.8 481.3 30.7 502.2 56.3 502.2H455.7C481.3 502.2 502.2 481.3 502.2 455.7V56.3C502.2 30.7 481.3 9.8 455.7 9.8H56.3V9.8Z" fill="#24AEC2"/>
	</symbol>

	<symbol id="icon-right">
		<!-- width="512" height="512" viewBox="0 0 512 512" -->
		<path d="M508.9 248.5L348.9 88.5001C344.7 84.3001 338 84.3001 333.8 88.5001C329.6 92.7001 329.6 99.4001 333.8 103.6L475.6 245.4H10.7C4.8 245.3 0 250.1 0 256C0 261.9 4.8 266.7 10.7 266.7H475.6L333.8 408.5C329.6 412.7 329.6 419.4 333.8 423.6C335.9 425.7 338.6 426.7 341.3 426.7C344 426.7 346.8 425.7 348.8 423.6L508.8 263.6C513 259.4 513 252.6 508.9 248.5Z"/>
	</symbol>

	<symbol id="icon-location">
		<!-- width="512" height="512" viewBox="0 0 512 512" -->
		<path d="M315.099 148.1C315.099 115.5 288.599 89 255.999 89C223.399 89 196.899 115.5 196.899 148.1C196.899 180.7 223.399 207.2 255.999 207.2C288.599 207.2 315.099 180.7 315.099 148.1ZM210.899 148.1C210.899 123.2 231.099 103 255.999 103C280.899 103 301.099 123.2 301.099 148.1C301.099 173 280.899 193.2 255.999 193.2C231.099 193.2 210.899 173 210.899 148.1Z" fill="#27AEC2"/>
		<path d="M493.3 484.3L436.2 334.7C435.2 332 432.6 330.2 429.7 330.2H321.7C322.4 329.1 323 328.1 323.7 327C365.3 258.2 386.2 198 385.9 148.1C385.9 76.4002 327.8 18.2002 256.1 18.2002C184.4 18.2002 126.2 76.3002 126.2 148C125.9 197.9 146.8 258.1 188.4 326.9C189.1 328 189.7 329 190.4 330.1H82.3998C79.4998 330.1 76.8998 331.9 75.8998 334.6L18.6998 484.3C17.2998 487.9 19.0998 491.9 22.6998 493.3C23.4998 493.6 24.3998 493.8 25.1998 493.8H486.7C490.6 493.8 493.7 490.7 493.7 486.8C493.8 485.9 493.6 485.1 493.3 484.3ZM140.1 148.1C140.1 84.1002 192 32.3002 256 32.3002C320 32.3002 371.8 84.2002 371.8 148.2C372.4 247.6 279.4 370.3 255.9 399.7C232.5 370.2 139.5 247.6 140.1 148.1ZM250.7 415.2C253.2 418.1 257.6 418.5 260.6 416C260.9 415.8 261.2 415.5 261.4 415.2C280 392.6 297.2 368.8 313 344.2H424.9L433.9 367.7L215.1 445.5L137.1 344.2H199.1C214.8 368.8 232.1 392.6 250.7 415.2ZM214.8 460.4L345.4 414L396 479.8H160.4L214.8 460.4ZM87.0998 344.2H119.4L201.2 450.4L118.6 479.8H35.3998L87.0998 344.2ZM413.7 479.8L359.2 409L438.8 380.7L476.6 479.7H413.7V479.8Z" fill="#27AEC2"/>
	</symbol>

	<symbol id="icon-email">
		<!-- width="512" height="512" viewBox="0 0 512 512" -->
		<path d="M486.4 59.7002H25.6C11.5 59.7002 0 71.2002 0 85.3002V426.6C0 440.7 11.5 452.2 25.6 452.2H486.4C500.5 452.2 512 440.7 512 426.6V85.3002C512 71.2002 500.5 59.7002 486.4 59.7002ZM494.9 426.7C494.9 431.4 491.1 435.2 486.4 435.2H25.6C20.9 435.2 17.1 431.4 17.1 426.7V85.3002C17.1 80.6002 20.9 76.8002 25.6 76.8002H486.4C491.1 76.8002 494.9 80.6002 494.9 85.3002V426.7Z" fill="#27AEC2"/>
		<path d="M470.1 93.9002C467.8 93.7002 465.6 94.4002 463.9 95.9002L267 261.2C260.7 266.5 251.4 266.5 245 261.2L48.1999 95.9002C45.8999 93.9002 42.6999 93.4002 39.7999 94.4002C36.8999 95.4002 34.7999 97.9002 34.2999 100.9C33.7999 103.9 34.8999 107 37.1999 108.9L234 274.3C246.7 285 265.2 285 277.9 274.3L474.8 108.9C476.5 107.4 477.6 105.4 477.8 103.1C478 100.8 477.3 98.6002 475.8 96.9002C474.4 95.2002 472.3 94.1002 470.1 93.9002Z" fill="#27AEC2"/>
		<path d="M164.1 273.1C161.1 272.4 157.9 273.4 155.9 275.7L36.4001 403.7C34.2001 405.9 33.4001 409.1 34.3001 412.1C35.2001 415.1 37.6001 417.3 40.6001 418C43.6001 418.7 46.8001 417.7 48.8001 415.4L168.3 287.4C170.5 285.2 171.3 282 170.4 279C169.5 276 167.1 273.8 164.1 273.1Z" fill="#27AEC2"/>
		<path d="M356.1 275.8C354 273.5 350.9 272.5 347.9 273.2C344.9 273.9 342.5 276.1 341.6 279.1C340.7 282.1 341.5 285.3 343.7 287.5L463.2 415.5C466.4 418.8 471.7 418.9 475.1 415.8C478.5 412.6 478.7 407.3 475.6 403.9L356.1 275.8Z" fill="#27AEC2"/>
	</symbol>

	<symbol id="icon-flag">
		<!-- width="512" height="512" viewBox="0 0 512 512" -->
		<path d="M427.2 206L465 111.6C466.8 107 466.3 101.7 463.5 97.6C460.6 93.5 456 91 451 91H261C252.7 91 246 97.7 246 106V241H211C202.7 241 196 247.7 196 256V306C196 314.3 202.7 321 211 321H451C456 321 460.6 318.5 463.4 314.4C466.2 310.3 466.8 305 464.9 300.4L427.2 206Z" fill="#27AEC2"/>
		<path d="M211 321C209.1 321 207.1 320.6 205.3 319.9C199.7 317.6 196 312.1 196 306V256C196 247.7 202.7 241 211 241H261C267.1 241 272.5 244.7 274.9 250.3C277.2 255.9 275.9 262.4 271.6 266.6L221.6 316.6C218.7 319.5 214.9 321 211 321Z" fill="#27AEC2"/>
		<path d="M261 41H61C52.7 41 46 47.7 46 56V256C46 264.3 52.7 271 61 271H261C269.3 271 276 264.3 276 256V56C276 47.7 269.3 41 261 41Z" fill="#3FCDD8"/>
		<path d="M61 512C52.7 512 46 505.3 46 497V15C46 6.7 52.7 0 61 0C69.3 0 76 6.7 76 15V497C76 505.3 69.3 512 61 512Z" fill="#A4B0BE"/>
	</symbol>

	<symbol id="icon-man">
		<!-- width="512" height="512" viewBox="0 0 512 512" -->
		<g clip-path="url(#clip0)">
		<path d="M425.9 459.9V503.2C425.9 508.1 422 512 417.1 512H94.9001C90.0001 512 86.1001 508.1 86.1001 503.2V459.9C86.1001 414.5 122.9 377.6 168.4 377.6C184.5 377.6 198.6 369.3 206.8 356.8C215 344.2 214.1 333.3 214.1 324.5L214.3 324.1C174.7 307.7 146.8 268.7 146.8 223.1V219.6C131.1 219.6 119.2 207.2 119.2 192.5V146.6C118.8 130.6 119.6 74.3001 160.2 35.1001C207.5 -10.4999 282.4 -6.69994 336.7 17.6001C338.5 18.4001 338.4 20.9001 336.6 21.7001L322.4 27.5001C320.3 28.4001 320.7 31.5001 323 31.7001L329.9 32.4001C366.9 36.3001 397.7 58.4001 413 84.6001C413.1 84.9001 413.1 85.2001 412.9 85.4001C400.7 97.9001 393.8 114.6 393.8 132.1V190.7C393.8 206.5 381 219.4 365.1 219.4V222.9C365.1 268.4 337.2 307.5 297.6 323.9L297.8 324.3C297.8 332.9 296.9 344 305.1 356.6C313.2 369.1 327.4 377.4 343.5 377.4C389.1 377.6 425.9 414.4 425.9 459.9Z" fill="#F5D0C7"/>
		<path d="M413.1 84.8002C413.2 85.1002 413.2 85.4002 413 85.6002C400.8 98.1002 393.9 114.9 393.9 132.3V190.9C393.9 206.7 381.1 219.6 365.2 219.6C365.2 186.2 365.2 168.8 365.2 159.4C365.2 153.5 359.5 149.2 353.8 151C336 156.5 315.3 159.3 293.5 154.6C255.1 146.3 244.3 131.2 213 123.7C178 115.3 146.3 142.1 146.5 176.4C146.6 187.7 146.8 201.7 146.8 219.7C131.1 219.7 119.2 207.3 119.2 192.6V146.7C118.8 130.7 119.6 74.4002 160.2 35.2002C207.5 -10.3998 282.4 -6.59984 336.7 17.7002C338.5 18.5002 338.4 21.0002 336.6 21.8002L322.4 27.6002C320.3 28.5002 320.7 31.6002 323 31.8002L329.9 32.5002C367 36.6002 397.7 58.6002 413.1 84.8002Z" fill="#A4B0BE"/>
		<path d="M353.9 151C359.6 149.3 365.3 153.5 365.3 159.4C365.3 169.1 365.3 187.4 365.3 223.1C365.3 268.6 337.4 307.7 297.8 324.1C226.2 353.8 146.8 301 146.8 223.1C146.8 203 146.6 188.7 146.5 176.3C146.3 142 178 115.2 213 123.6C244.3 131.1 255.2 146.2 293.5 154.5C315.3 159.3 336.1 156.4 353.9 151Z" fill="#F5D0C7"/>
		<path d="M425.9 459.9V503.2C425.9 508.1 421.9 512 417.1 512H94.9001C90.0001 512 86.1001 508 86.1001 503.2V459.9C86.1001 414.5 122.9 377.6 168.4 377.6C184.5 377.6 198.6 369.3 206.8 356.8C235.2 381.1 276.9 381.1 305.3 356.8C313.4 369.3 327.6 377.6 343.7 377.6C389.1 377.6 425.9 414.4 425.9 459.9Z" fill="#3FCDD8"/>
		<path d="M345.4 493.2H318.9C314 493.2 310.1 489.2 310.1 484.4C310.1 479.6 314.1 475.6 318.9 475.6H345.4C350.3 475.6 354.2 479.6 354.2 484.4C354.2 489.2 350.2 493.2 345.4 493.2Z" fill="#27AEC2"/>
		<path d="M212.8 404.2C208.7 405.5 204.3 406.2 199.7 406.2C154.1 406.6 117 442.6 117 488.2V496.5C117 505 110.1 511.9 101.6 511.9H95.0002C90.1002 511.9 86.2002 507.9 86.2002 503.1V459.8C86.2002 414.4 123 377.5 168.5 377.5C184.6 377.5 198.7 369.2 206.9 356.7C210.2 359.5 213.7 362 217.4 364.2C233.5 374 230.9 398.6 212.8 404.2Z" fill="#4EDADD"/>
		<path d="M299.2 404.2C303.3 405.5 307.7 406.2 312.3 406.2C357.9 406.6 395 442.6 395 488.2V496.5C395 505 401.9 511.9 410.4 511.9H417C421.9 511.9 425.8 507.9 425.8 503.1V459.8C425.8 414.4 389 377.5 343.5 377.5C327.4 377.5 313.3 369.2 305.1 356.7C301.8 359.5 298.3 362 294.6 364.2C278.5 374 281.1 398.6 299.2 404.2Z" fill="#27AEC2"/>
		<path d="M299.2 342.6C272 354 242.1 354.9 212.9 342.6C214.4 336.4 214.1 332.4 214.1 324.5L214.3 324.1C240.9 335.1 271.2 335.2 297.8 324.1L298 324.5C297.9 332.3 297.7 336.3 299.2 342.6Z" fill="#EAC5BE"/>
		<path d="M336.7 21.8002C326.3 26.1002 324 27.6002 319.2 26.8002C231.7 12.4002 162.7 58.2002 153.3 147.6C153.1 149.2 152.7 150.7 152 152.1C145.3 165.8 146.5 175.9 146.6 192.7C146.7 210.4 120.1 211.5 119.2 193.9C119.1 192.8 119.2 195.7 119.2 146.7C118.8 130.7 119.6 74.4002 160.2 35.2002C207.5 -10.3998 282.4 -6.59984 336.7 17.7002C338.5 18.6002 338.5 21.1002 336.7 21.8002Z" fill="#8E9AA5"/>
		<path d="M231.3 293.6C249.3 304.8 235.1 332.4 215.4 324.5C175 308.3 146.8 269 146.8 223.1C146.8 202.9 146.6 188.7 146.5 176.3C146.4 165.2 149.7 154.9 155.3 146.3C162.4 135.5 179.5 140.2 179.6 154.2C179.7 166.6 179.9 180.8 179.9 201C179.9 241.3 201 274.7 231.3 293.6Z" fill="#EAC5BE"/>
		</g>
		<defs>
		<clipPath id="clip0">
		<rect width="512" height="512" fill="white"/>
		</clipPath>
		</defs>
	</symbol>

	<symbol id="icon-phone-big">
		<path d="M512 367.6C512 391.8 506.3 414.8 495 435.9C484.4 455.6 469 472.9 450.5 485.9C432.1 498.8 410.7 507.3 388.7 510.6C381.8 511.6 374.9 512.1 368 512.1C351.5 512.1 335.1 509.2 319.1 503.4C248.5 477.8 183 436 129.6 382.6C76.2 329.2 34.4 263.6 8.69996 193C0.499958 170.3 -2.00004 146.9 1.49996 123.4C4.69996 101.4 13.2 80.0001 26.2 61.6001C39.2 43.1001 56.4 27.7001 76.2 17.1001C97.2 5.8001 120.2 0.100098 144.5 0.100098C152 0.100098 158.6 5.4001 160.1 12.7001L185.2 129.9C186.3 135.2 184.7 140.7 180.9 144.6L138 187.5C178.5 268 244.2 333.7 324.6 374.1L367.5 331.2C371.3 327.4 376.9 325.7 382.2 326.9L499.4 352C506.7 353.5 512 360 512 367.6Z" fill="#3FCDD8"/>
		<path d="M107.4 37C83.1999 37 60.1999 42.7 39.0999 54C34.4999 56.5 29.8999 59.3 25.5999 62.3C25.7999 62 25.9999 61.8 26.0999 61.5C39.0999 43 56.2999 27.6 76.0999 17C97.0999 5.7 120.1 0 144.4 0C151.9 0 158.5 5.3 160 12.6L185.1 129.8C186.2 135.1 184.6 140.6 180.8 144.5L143.8 181.5C147.6 177.7 149.3 172.1 148.1 166.8L123.1 49.6C121.5 42.3 115 37 107.4 37Z" fill="#27AEC2"/>
		<path d="M324.6 374.1L303.4 395.3C293.8 404.9 278.9 406.8 267.1 400C202.7 363 149 309.3 112 244.9C105.2 233.1 107.1 218.2 116.7 208.6L137.9 187.4C178.4 267.9 244.1 333.6 324.6 374.1Z" fill="#27AEC2"/>
		<path d="M512 367.6C512 391.8 506.3 414.8 495 435.9C484.4 455.6 469 472.9 450.5 485.9C450.2 486.1 450 486.3 449.7 486.4C452.7 482.1 455.5 477.5 458 472.9C469.3 451.9 475 428.9 475 404.6C475 397.1 469.7 390.5 462.4 389L345.2 363.9C339.9 362.8 334.4 364.4 330.5 368.2L367.5 331.2C371.3 327.4 376.9 325.7 382.2 326.9L499.4 352C506.7 353.5 512 360 512 367.6Z" fill="#27AEC2"/>
	</symbol>

	<symbol id="icon-message">
		<path d="M74.5 481.4H38.3L64 455.7C77.8 441.9 86.5 423.9 88.8 404.4C29.5 365.5 0 309.2 0 250.2C0 141.3 100.1 30.6001 256.9 30.6001C423 30.6001 512 132.4 512 240.6C512 349.5 422 451.3 256.9 451.3C228 451.3 197.8 447.4 170.8 440.4C145.3 466.6 110.7 481.4 74.5 481.4Z" fill="#3FCDD8"/>
		<path d="M512 240.7C512 132.5 422.9 30.7002 256.9 30.7002V451.4C422 451.3 512 349.6 512 240.7Z" fill="#27AEC2"/>
		<path d="M138.5 278.5C160.868 278.5 179 260.368 179 238C179 215.632 160.868 197.5 138.5 197.5C116.132 197.5 98 215.632 98 238C98 260.368 116.132 278.5 138.5 278.5Z" fill="white"/>
		<path d="M256.9 278.5C279.267 278.5 297.4 260.368 297.4 238C297.4 215.632 279.267 197.5 256.9 197.5C234.532 197.5 216.4 215.632 216.4 238C216.4 260.368 234.532 278.5 256.9 278.5Z" fill="white"/>
		<path d="M374 278.5C396.368 278.5 414.5 260.368 414.5 238C414.5 215.632 396.368 197.5 374 197.5C351.632 197.5 333.5 215.632 333.5 238C333.5 260.368 351.632 278.5 374 278.5Z" fill="white"/>
	</symbol>

	<symbol id="icon-loader">
		<!-- width="512" height="512" viewBox="0 0 512 512" -->
		<g clip-path="url(#clip0)">
		<path d="M512 167.7H414.9V370.7H512V167.7Z" fill="#3FCDD8"/>
		<path d="M194.2 391.5C184 381.9 172.4 371 160.7 360C124.8 326.1 88.2002 291.3 88.2002 291.3L132.3 247.2L194.1 308.2L255.9 369.2V370.8H406L450.1 414.9L406.1 459L370.8 423.7H229.5C228.8 423.7 214 410 194.2 391.5Z" fill="#F5D0C7"/>
		<path d="M414.9 167.7V370.8H406.1H353.1V167.7H414.9Z" fill="#A4B0BE"/>
		<path d="M353.1 167.7V370.8H257.6L256 369.2V167.7H353.1Z" fill="#3FCDD8"/>
		<path d="M194.2 441.4H158.9V512H194.2V441.4Z" fill="#3FCDD8"/>
		<path d="M194.2 391.5V441.4H158.9V512H53V467.9L158.9 397.3V362L160.8 360.1C172.4 371 184 381.9 194.2 391.5Z" fill="#A4B0BE"/>
		<path d="M194.2 282.5V308.2L132.4 247.2H53V211.9H123.6C162.6 211.9 194.2 243.5 194.2 282.5Z" fill="#A4B0BE"/>
		<path d="M194.2 61.7998V113.5C193.9 148.6 165.1 176.8 130 176.5H53V61.7998H194.2Z" fill="#F5D0C7"/>
		<path d="M194.2 53.0001V61.8001H53V50.4001C53 48.3001 53.1 46.3001 53.4 44.2001C56.8 18.8001 78.6 -0.199901 104.3 9.94693e-05H141.2C170.5 9.94693e-05 194.2 23.7001 194.2 53.0001Z" fill="#27AEC2"/>
		<path d="M160.8 360L158.9 361.9V397.2L53 467.9V247.2H132.4L88.3 291.3C88.3 291.3 124.8 326.1 160.8 360Z" fill="#3FCDD8"/>
		<path d="M53 44.1001L53.4 44.2001C53.1 46.2001 52.9 48.3001 53 50.4001V60.3001H0L53 44.1001Z" fill="#A4B0BE"/>
		<path d="M485.5 194.2H441.4V211.9H485.5V194.2Z" fill="#A4B0BE"/>
		<path d="M300.2 326.6H282.5V344.3H300.2V326.6Z" fill="#A4B0BE"/>
		</g>
		<defs>
		<clipPath id="clip0">
		<rect width="512" height="512" fill="white"/>
		</clipPath>
		</defs>
	</symbol>

	<symbol id="icon-phone">
		<!-- width="506" height="506" viewBox="0 0 506 506" -->
		<path d="M427.6 71.9001C328.3 -23.9999 171.1 -23.9999 71.9002 71.9001C-26.2998 173.6 -23.4998 335.7 78.2002 433.9C177.4 529.7 334.7 529.7 433.9 433.9C532.1 332.1 529.3 170.1 427.6 71.9001ZM421.8 421.8C328.4 515 177.1 514.9 83.8002 421.6C-9.49984 328.3 -9.39984 176.9 84.0002 83.7001C177.4 -9.4999 328.6 -9.4999 421.9 83.9001C466.7 128.7 491.8 189.5 491.8 252.9C491.8 316.2 466.6 377 421.8 421.8Z" fill="#27AEC2"/>
		<path d="M396.6 325.7L348.6 277.9C337.7 267 320 267 309.1 277.9L281.6 305.4C279.5 307.5 276.2 307.8 273.8 306.1C258.8 295.6 244.7 283.8 231.7 270.8C220.1 259.2 209.4 246.8 199.8 233.5C198.1 231.1 198.3 227.8 200.4 225.7L228.6 197.5C239.5 186.6 239.5 169 228.6 158.1L180.6 110.1C169.5 99.4999 152.1 99.4999 141.1 110.1L125.9 125.3C103 148 94.8 181.7 104.7 212.3C112.1 234.7 122.6 256.1 135.9 275.6C147.9 293.5 161.6 310.2 176.9 325.4C193.5 342.1 211.9 357 231.8 369.7C253.6 383.9 277.6 394.6 302.8 401.3C309.3 402.9 315.9 403.7 322.6 403.7C345.5 403.6 367.4 394.4 383.4 378.1L396.5 365C407.5 354.3 407.5 336.6 396.6 325.7ZM384.6 353.5C384.5 353.5 384.5 353.5 384.6 353.5L384.7 353.3L371.6 366.4C354.8 383.4 330.4 390.4 307.2 384.8C283.8 378.5 261.6 368.6 241.3 355.3C222.5 343.3 205.1 329.2 189.3 313.4C174.8 299 161.8 283.2 150.5 266.3C138.1 248.1 128.3 228.2 121.3 207.2C113.3 182.6 119.9 155.6 138.4 137.5L153.6 122.3C157.8 118.1 164.7 118 168.9 122.3L216.9 170.3C221.1 174.5 221.2 181.4 216.9 185.6L188.7 213.8C180.6 221.8 179.6 234.5 186.3 243.7C196.5 257.7 207.8 270.8 220 283C233.7 296.7 248.5 309.2 264.4 320.3C273.6 326.7 286 325.6 293.9 317.7L321.1 290.1C325.3 285.9 332.2 285.8 336.4 290.1L384.4 338.2C388.8 342.4 388.8 349.3 384.6 353.5Z" fill="#27AEC2"/>
		</g>
		<defs>
		<clipPath id="clip0">
		<rect width="505.7" height="505.7" fill="white"/>
		</clipPath>
		</defs>
	</symbol>

</svg>