<svg width="27" height="26" viewBox="0 0 27 26" fill="none" xmlns="http://www.w3.org/2000/svg">
<path fill-rule="evenodd" clip-rule="evenodd" d="M25.983 7.64407C25.9221 6.26259 25.6986 5.31284 25.3785 4.48986C25.0483 3.61629 24.5403 2.83419 23.8748 2.18402C23.2245 1.52373 22.437 1.01066 21.5734 0.685681C20.7455 0.365657 19.8005 0.142255 18.4188 0.0813452C17.0267 0.015277 16.5848 0 13.0541 0C9.52346 0 9.08153 0.015277 7.69463 0.0761867C6.31288 0.137096 5.36294 0.360697 4.54 0.680522C3.66607 1.01066 2.88381 1.51858 2.23352 2.18402C1.5731 2.83419 1.06013 3.62145 0.734886 4.4849C0.4148 5.31284 0.191355 6.25743 0.130433 7.63891C0.0643522 9.03071 0.0490723 9.47255 0.0490723 13.0025C0.0490723 16.5325 0.0643522 16.9744 0.125274 18.361C0.186195 19.7425 0.409839 20.6922 0.729925 21.5152C1.06013 22.3888 1.5731 23.1709 2.23352 23.8211C2.88381 24.4813 3.67122 24.9944 4.53484 25.3194C5.36294 25.6394 6.30772 25.8628 7.68966 25.9237C9.07637 25.9848 9.5185 25.9999 13.0492 25.9999C16.5798 25.9999 17.0218 25.9848 18.4087 25.9237C19.7904 25.8628 20.7404 25.6394 21.5633 25.3194C23.311 24.6438 24.6927 23.2624 25.3684 21.5152C25.6883 20.6873 25.912 19.7425 25.9729 18.361C26.0338 16.9744 26.0491 16.5325 26.0491 13.0025C26.0491 9.47255 26.0439 9.03071 25.983 7.64407ZM13.0542 6.32341C9.36621 6.32341 6.37391 9.31493 6.37391 13.0024C6.37391 16.69 9.36621 19.6815 13.0542 19.6815C16.7425 19.6815 19.7346 16.69 19.7346 13.0024C19.7346 9.31493 16.7425 6.32341 13.0542 6.32341ZM13.0542 17.335C10.6616 17.335 8.72088 15.3948 8.72088 13.0024C8.72088 10.6101 10.6616 8.66992 13.0542 8.66992C15.4471 8.66992 17.3876 10.6101 17.3876 13.0024C17.3876 15.3948 15.4471 17.335 13.0542 17.335ZM19.9985 7.61861C20.8598 7.61861 21.558 6.92043 21.558 6.05936C21.558 5.19809 20.8598 4.50011 19.9985 4.50011C19.1374 4.50011 18.4392 5.19809 18.4392 6.05936C18.4392 6.92043 19.1374 7.61861 19.9985 7.61861Z" fill="#353132"/>
</svg>
