<svg class="sprite-icons" xmlns="http://www.w3.org/2000/svg">

    <symbol id="icon-exemple">

        <!-- width="16" height="16" viewBox="0 0 16 16" -->
        <path d="M15.6413 12.6552L13.1704 10.1784C12.6782 9.6871 11.8632 9.70203 11.3538 10.2127L10.109 11.4601C10.0303 11.4167 9.94891 11.3713 9.86332 11.3231C9.07719 10.8866 8.00124 10.2882 6.86903 9.15259C5.73347 8.01458 5.1359 6.93454 4.69898 6.14613C4.65288 6.0626 4.6087 5.98207 4.56508 5.90559L5.40057 5.06945L5.81134 4.65725C6.32143 4.14586 6.33549 3.32921 5.84448 2.83648L3.37353 0.359373C2.88251 -0.132666 2.0671 -0.117739 1.55701 0.39365L0.860608 1.09563L0.879638 1.11457C0.646127 1.4132 0.450997 1.75763 0.305788 2.12905C0.171932 2.4826 0.0885942 2.81998 0.0504876 3.15805C-0.275785 5.86906 0.960265 8.34671 4.31474 11.7088C8.95166 16.3559 12.6884 16.0049 12.8496 15.9877C13.2007 15.9457 13.5372 15.8616 13.8791 15.7285C14.2465 15.5847 14.5899 15.3894 14.8877 15.1558L14.9029 15.1694L15.6084 14.477C16.1174 13.9657 16.1321 13.1487 15.6413 12.6552Z" fill="white"/>

    </symbol>

    <symbol id="icon-facebook">

        <!-- width="14" height="28" viewBox="0 0 14 28" -->
        <path d="M8.75 9.625V6.125C8.75 5.159 9.534 4.375 10.5 4.375H12.25V0H8.75C5.85025 0 3.5 2.35025 3.5 5.25V9.625H0V14H3.5V28H8.75V14H12.25L14 9.625H8.75Z"/>

    </symbol>

    <symbol id="icon-pinterest">
        <!-- width="20" height="26" viewBox="0 0 20 26" -->
        <path d="M3.13258 14.1283C3.1655 14.0472 3.49498 12.7963 3.51807 12.7116C3.00368 11.9469 2.43227 9.44273 2.87056 7.4101C3.34339 4.42769 6.54237 2.96158 9.56265 2.96158V2.95602C13.3441 2.9584 16.1746 5.03706 16.1776 8.61694C16.18 11.419 14.4714 15.1229 11.554 15.1229H11.5517C10.5105 15.1229 9.19222 14.6563 8.84648 14.1981C8.44754 13.6701 8.34956 13.0184 8.56037 12.3222C9.07697 10.693 9.73572 8.74152 9.81262 7.44025C9.88389 6.21217 9.00188 5.41316 7.85806 5.41316C6.99733 5.41316 5.8794 5.90709 5.32225 7.29504C4.86207 8.44814 4.8719 9.65538 5.35236 10.9854C5.53969 11.5053 4.52195 14.8948 4.19589 15.9985C3.38575 18.7403 2.27666 22.2093 2.51378 24.1411L2.74267 26L3.89231 24.5115C5.48327 22.4538 7.12823 17.1313 7.56653 15.8362C8.86234 17.4941 11.5608 17.5417 11.8754 17.5417C15.7397 17.5417 20.1217 13.7506 19.9974 8.47412C19.8884 3.84688 16.4607 0 10.3019 0V0.00595095C4.44365 0.00595095 1.02442 3.09528 0.187382 6.99869C-0.579184 10.618 1.12561 13.3727 3.13258 14.1283Z" />
    </symbol>

    <symbol id="icon-twitter">
        <!-- width="27" height="22" viewBox="0 0 27 22" -->
        <path d="M27 2.60446C25.9959 3.04615 24.9261 3.33892 23.8106 3.48108C24.9581 2.794 25.8339 1.71431 26.2457 0.412923C25.1758 1.05262 23.9946 1.50446 22.7357 1.75662C21.7198 0.671846 20.2719 0 18.6924 0C15.6279 0 13.1608 2.49446 13.1608 5.55246C13.1608 5.99246 13.1979 6.41554 13.2891 6.81831C8.68725 6.59323 4.61531 4.38138 1.87987 1.012C1.40231 1.84292 1.12219 2.794 1.12219 3.81785C1.12219 5.74031 2.10938 7.44446 3.58087 8.43108C2.69156 8.41415 1.81912 8.15523 1.08 7.74738C1.08 7.76431 1.08 7.78631 1.08 7.80831C1.08 10.5058 2.99869 12.7465 5.51475 13.2626C5.06419 13.3862 4.57313 13.4454 4.0635 13.4454C3.70913 13.4454 3.35137 13.4251 3.01556 13.3506C3.73275 15.5489 5.76788 17.1651 8.18775 17.2175C6.3045 18.6949 3.91331 19.5851 1.32469 19.5851C0.87075 19.5851 0.435375 19.5648 0 19.5089C2.45194 21.0946 5.35781 22 8.4915 22C18.6773 22 24.246 13.5385 24.246 6.204C24.246 5.95861 24.2376 5.72169 24.2258 5.48646C25.3243 4.70462 26.2474 3.72815 27 2.60446Z"/>
    </symbol>

    <symbol id="icon-instagram">
        <!-- width="27" height="26" viewBox="0 0 27 26" -->
        <path fill-rule="evenodd" clip-rule="evenodd" d="M25.983 7.64407C25.9221 6.26259 25.6986 5.31284 25.3785 4.48986C25.0483 3.61629 24.5403 2.83419 23.8748 2.18402C23.2245 1.52373 22.437 1.01066 21.5734 0.685681C20.7455 0.365657 19.8005 0.142255 18.4188 0.0813452C17.0267 0.015277 16.5848 0 13.0541 0C9.52346 0 9.08153 0.015277 7.69463 0.0761867C6.31288 0.137096 5.36294 0.360697 4.54 0.680522C3.66607 1.01066 2.88381 1.51858 2.23352 2.18402C1.5731 2.83419 1.06013 3.62145 0.734886 4.4849C0.4148 5.31284 0.191355 6.25743 0.130433 7.63891C0.0643522 9.03071 0.0490723 9.47255 0.0490723 13.0025C0.0490723 16.5325 0.0643522 16.9744 0.125274 18.361C0.186195 19.7425 0.409839 20.6922 0.729925 21.5152C1.06013 22.3888 1.5731 23.1709 2.23352 23.8211C2.88381 24.4813 3.67122 24.9944 4.53484 25.3194C5.36294 25.6394 6.30772 25.8628 7.68966 25.9237C9.07637 25.9848 9.5185 25.9999 13.0492 25.9999C16.5798 25.9999 17.0218 25.9848 18.4087 25.9237C19.7904 25.8628 20.7404 25.6394 21.5633 25.3194C23.311 24.6438 24.6927 23.2624 25.3684 21.5152C25.6883 20.6873 25.912 19.7425 25.9729 18.361C26.0338 16.9744 26.0491 16.5325 26.0491 13.0025C26.0491 9.47255 26.0439 9.03071 25.983 7.64407ZM13.0542 6.32341C9.36621 6.32341 6.37391 9.31493 6.37391 13.0024C6.37391 16.69 9.36621 19.6815 13.0542 19.6815C16.7425 19.6815 19.7346 16.69 19.7346 13.0024C19.7346 9.31493 16.7425 6.32341 13.0542 6.32341ZM13.0542 17.335C10.6616 17.335 8.72088 15.3948 8.72088 13.0024C8.72088 10.6101 10.6616 8.66992 13.0542 8.66992C15.4471 8.66992 17.3876 10.6101 17.3876 13.0024C17.3876 15.3948 15.4471 17.335 13.0542 17.335ZM19.9985 7.61861C20.8598 7.61861 21.558 6.92043 21.558 6.05936C21.558 5.19809 20.8598 4.50011 19.9985 4.50011C19.1374 4.50011 18.4392 5.19809 18.4392 6.05936C18.4392 6.92043 19.1374 7.61861 19.9985 7.61861Z"/>

    </symbol>

</svg>