<svg width="61" height="61" viewBox="0 0 61 61" fill="none" xmlns="http://www.w3.org/2000/svg">
<path d="M49.3837 22.461H45.5434L46.7005 9.17572C46.7026 9.15165 46.7029 9.12794 46.7031 9.10423C46.7031 9.10221 46.7033 9.1003 46.7033 9.09827C46.7033 9.09792 46.7033 9.09768 46.7033 9.09732C46.7033 8.73573 46.4852 8.41702 46.1646 8.27846C46.1618 8.27727 46.1592 8.27584 46.1565 8.27465C46.1366 8.26631 46.1159 8.25916 46.0952 8.25225C46.0875 8.24975 46.0801 8.24665 46.0723 8.24427C46.0554 8.23915 46.038 8.2351 46.0207 8.23093C46.0086 8.22807 45.9969 8.22461 45.9846 8.22223C45.9695 8.21925 45.9538 8.21734 45.9383 8.21508C45.9238 8.21294 45.9095 8.21043 45.8948 8.20912C45.8923 8.20889 45.8901 8.20841 45.8876 8.20817C45.8718 8.20674 45.8563 8.20698 45.8407 8.20638C45.8302 8.20603 45.82 8.20483 45.8095 8.20483H45.7983C45.7974 8.20483 45.7964 8.20483 45.7956 8.20483H27.5228C27.0295 8.20483 26.6292 8.60515 26.6292 9.09839C26.6292 9.59045 27.0295 9.99195 27.5228 9.99195H44.8355L43.0572 30.4098C43.057 30.4113 43.057 30.4129 43.0568 30.4144L42.6081 35.5662H11.5588L12.0782 30.2051H17.9901C18.4837 30.2051 18.8836 29.805 18.8836 29.3115C18.8836 28.818 18.4837 28.418 17.9901 28.418H12.2514L13.348 17.1001H22.7571C23.2507 17.1001 23.6507 16.7001 23.6507 16.2066C23.6507 15.7131 23.2507 15.313 22.7571 15.313H13.5212L14.0368 9.99195H23.9486C24.4406 9.99195 24.8421 9.59045 24.8421 9.09839C24.8421 8.60515 24.4406 8.20483 23.9486 8.20483H13.2259C13.2254 8.20483 13.225 8.20495 13.2245 8.20495C12.8048 8.20483 12.4407 8.5003 12.3527 8.90991C12.3521 8.91289 12.351 8.91575 12.3504 8.91873C12.3459 8.94101 12.3429 8.96376 12.3399 8.98664C12.3391 8.99391 12.3375 9.00082 12.3368 9.00808C12.3367 9.00951 12.3363 9.01082 12.3362 9.01225L11.7257 15.313H0.893558C0.399957 15.313 0 15.7131 0 16.2066C0 16.7001 0.399957 17.1001 0.893558 17.1001H11.5525L10.4559 28.418H7.26784C6.77424 28.418 6.37429 28.818 6.37429 29.3115C6.37429 29.805 6.77424 30.2051 7.26784 30.2051H10.2828L9.68569 36.3672C9.68557 36.3681 9.68558 36.3691 9.68546 36.3699L8.76223 45.8987C8.76211 45.8998 8.76199 45.901 8.76187 45.9019L8.76152 45.9054C8.76033 45.9178 8.76044 45.9299 8.75973 45.9423C8.7589 45.9587 8.75723 45.9748 8.75723 45.9915C8.75723 45.9922 8.75735 45.9929 8.75735 45.9938C8.75735 46.0168 8.75902 46.0394 8.76068 46.062C8.7614 46.0693 8.76116 46.0767 8.76199 46.0838C8.76438 46.107 8.76831 46.1297 8.77248 46.1524C8.77367 46.159 8.77426 46.1658 8.77558 46.1724C8.77903 46.1895 8.78392 46.2061 8.78844 46.2229C8.79154 46.2347 8.79404 46.2467 8.79762 46.2583C8.79869 46.2615 8.80012 46.2646 8.80107 46.2679C8.84432 46.4009 8.91771 46.5203 9.0135 46.6177C9.01529 46.6195 9.01672 46.6215 9.0185 46.6232C9.02804 46.6327 9.0384 46.6413 9.04841 46.6504C9.11 46.7068 9.17958 46.7547 9.25571 46.7923C9.27156 46.8001 9.28717 46.8083 9.30337 46.8151C9.30826 46.8173 9.3135 46.8187 9.3185 46.8206C9.3409 46.8295 9.36342 46.8381 9.38665 46.8454C9.38879 46.846 9.39082 46.8463 9.39296 46.8471C9.41941 46.8549 9.4461 46.8618 9.47338 46.8674C9.47696 46.8681 9.48065 46.8684 9.48411 46.8691C9.51008 46.874 9.53617 46.8782 9.56274 46.8808C9.56334 46.8808 9.56381 46.8809 9.56441 46.881C9.59372 46.8839 9.62279 46.8853 9.65162 46.8853C9.65198 46.8853 9.65245 46.8852 9.65293 46.8852H13.6308C14.0701 50.2155 16.9253 52.7949 20.3738 52.7949C23.8221 52.7949 26.6774 50.2155 27.1166 46.8852H41.4492C41.8886 50.2155 44.7437 52.7949 48.1921 52.7949C51.6404 52.7949 54.4958 50.2155 54.9352 46.8852H58.9141C58.9147 46.8852 58.9154 46.8853 58.916 46.8853C58.9458 46.8853 58.9751 46.8835 59.0042 46.8807C59.0094 46.8802 59.0144 46.8791 59.0196 46.8785C59.0429 46.8758 59.066 46.8726 59.0886 46.868C59.0984 46.8661 59.1078 46.8635 59.1175 46.8612C59.135 46.8572 59.1526 46.8529 59.1698 46.8478C59.1814 46.8443 59.1927 46.8403 59.2042 46.8363C59.2188 46.8313 59.2335 46.8261 59.2479 46.8203C59.2603 46.8154 59.2721 46.81 59.2841 46.8046C59.2972 46.7986 59.3103 46.7924 59.3231 46.7858C59.3352 46.7796 59.3469 46.7732 59.3586 46.7665C59.3709 46.7594 59.383 46.752 59.3951 46.7444C59.4063 46.7372 59.4174 46.7299 59.4282 46.7223C59.4403 46.7139 59.4519 46.7049 59.4637 46.6959C59.4734 46.6881 59.4833 46.6805 59.4929 46.6724C59.5051 46.662 59.5167 46.6512 59.5284 46.6401C59.5365 46.6324 59.5449 46.6247 59.5528 46.6166C59.5652 46.604 59.577 46.5907 59.5888 46.5772C59.5951 46.5699 59.6016 46.5629 59.6077 46.5555C59.6208 46.5393 59.6327 46.5226 59.6447 46.5058C59.6487 46.5 59.6532 46.4945 59.6572 46.4886C59.6717 46.4668 59.6854 46.4444 59.698 46.4213C59.699 46.4198 59.6999 46.4185 59.7005 46.417C59.714 46.3922 59.7264 46.3668 59.7375 46.3406C59.7406 46.3331 59.7429 46.3253 59.7459 46.3178C59.7532 46.2994 59.7603 46.2809 59.7664 46.2617C59.7703 46.2493 59.7732 46.2366 59.7767 46.2241C59.7806 46.2092 59.7848 46.1944 59.7881 46.1793C59.7911 46.1658 59.793 46.152 59.7952 46.1383C59.7973 46.1263 59.7999 46.1145 59.8014 46.1022C59.8393 45.7986 60.539 40.1848 60.8516 36.5548C60.8519 36.5514 60.852 36.5478 60.8524 36.5443C60.9423 35.4979 61 34.6168 61 34.0773C61 27.6721 55.789 22.461 49.3837 22.461ZM45.3876 24.2484H49.0432L48.5763 29.6093H44.9207L45.3876 24.2484ZM20.3741 51.0077C17.608 51.0077 15.3576 48.7574 15.3576 45.9914C15.3576 43.2254 17.6081 40.9751 20.3741 40.9751C23.1401 40.9751 25.3904 43.2254 25.3904 45.9914C25.3904 48.7574 23.1401 51.0077 20.3741 51.0077ZM48.1921 51.0077C45.4261 51.0077 43.1759 48.7574 43.1759 45.9914C43.1759 43.2254 45.4262 40.9751 48.1921 40.9751C50.9582 40.9751 53.2085 43.2254 53.2085 45.9914C53.2085 48.7574 50.9582 51.0077 48.1921 51.0077ZM58.1245 45.0975H54.9355C54.4963 41.7669 51.641 39.1874 48.1923 39.1874C44.7439 39.1874 41.8886 41.767 41.4494 45.0975H27.117C26.6778 41.7669 23.8226 39.1874 20.3741 39.1874C16.9255 39.1874 14.0701 41.767 13.6309 45.0975H10.6352L11.3857 37.3528H43.4269V37.3533C43.4274 37.3533 43.4278 37.3533 43.4282 37.3533C43.4581 37.3533 43.4878 37.3516 43.5171 37.3487C43.5226 37.3482 43.528 37.347 43.5334 37.3463C43.5568 37.3435 43.58 37.3402 43.6029 37.3357C43.6128 37.3336 43.6224 37.3309 43.6322 37.3285C43.6501 37.3242 43.668 37.3201 43.6853 37.3148C43.6973 37.3112 43.7086 37.307 43.7201 37.3029C43.7351 37.2977 43.7502 37.2925 43.7647 37.2866C43.7772 37.2815 43.7892 37.2757 43.8014 37.27C43.8146 37.2639 43.8278 37.2579 43.8406 37.2512C43.8527 37.2448 43.8647 37.2379 43.8767 37.2309C43.889 37.2238 43.9011 37.2165 43.913 37.2089C43.9246 37.2014 43.9355 37.1935 43.9466 37.1857C43.9584 37.1773 43.9699 37.1688 43.9813 37.1598C43.9915 37.1516 44.0017 37.1431 44.0117 37.1344C44.023 37.1247 44.0341 37.1147 44.0448 37.1043C44.0538 37.0956 44.0629 37.0867 44.0717 37.0775C44.0824 37.0663 44.0928 37.0547 44.1031 37.0429C44.111 37.0336 44.1189 37.0244 44.1265 37.0148C44.1364 37.0023 44.1458 36.9894 44.1551 36.9765C44.1621 36.9667 44.1689 36.9569 44.1756 36.9469C44.1843 36.9334 44.1926 36.9196 44.2006 36.9056C44.2067 36.8951 44.2129 36.8846 44.2184 36.8739C44.2259 36.8598 44.2323 36.8455 44.2391 36.8311C44.2444 36.8196 44.2497 36.8082 44.2545 36.7963C44.2603 36.7823 44.2652 36.7678 44.2703 36.7534C44.2747 36.7407 44.2794 36.7279 44.2833 36.7148C44.2872 36.701 44.2905 36.6868 44.294 36.6728C44.2975 36.6586 44.3013 36.6445 44.304 36.6301C44.3068 36.6161 44.3085 36.6018 44.3106 36.5875C44.3127 36.5727 44.3152 36.5582 44.3167 36.5431C44.3169 36.541 44.3174 36.539 44.3175 36.5368L44.7654 31.3959H49.3835C52.1213 31.3959 53.356 32.8144 54.6631 34.3163C55.7417 35.5555 56.9459 36.9381 58.9927 37.2754C58.7327 40.024 58.3125 43.5525 58.1245 45.0975ZM59.1455 35.4847C57.8176 35.214 57.0007 34.2805 56.011 33.1435C54.7732 31.7215 53.2621 29.9862 50.3655 29.6629L50.8277 24.3554C55.5653 25.056 59.2129 29.1483 59.2129 34.0775C59.2129 34.4124 59.1879 34.899 59.1455 35.4847Z" fill="black"/>
<path d="M20.3741 42.7148C18.5676 42.7148 17.0977 44.1846 17.0977 45.9912C17.0977 47.7979 18.5676 49.2676 20.3741 49.2676C22.1806 49.2676 23.6505 47.7979 23.6505 45.9912C23.6505 44.1847 22.1806 42.7148 20.3741 42.7148ZM20.3741 47.4805C19.5529 47.4805 18.8848 46.8125 18.8848 45.9912C18.8848 45.17 19.5529 44.502 20.3741 44.502C21.1953 44.502 21.8634 45.17 21.8634 45.9912C21.8634 46.8125 21.1952 47.4805 20.3741 47.4805Z" fill="#FFD027"/>
<path d="M48.1921 42.7148C46.3856 42.7148 44.9157 44.1846 44.9157 45.9912C44.9157 47.7979 46.3856 49.2676 48.1921 49.2676C49.9986 49.2676 51.4685 47.7979 51.4685 45.9912C51.4685 44.1847 49.9986 42.7148 48.1921 42.7148ZM48.1921 47.4805C47.3708 47.4805 46.7028 46.8125 46.7028 45.9912C46.7028 45.17 47.3708 44.502 48.1921 44.502C49.0133 44.502 49.6814 45.17 49.6814 45.9912C49.6814 46.8125 49.0133 47.4805 48.1921 47.4805Z" fill="#FFD027"/>
<path d="M8.45901 22.4612H4.09058C3.59698 22.4612 3.19702 22.8613 3.19702 23.3547C3.19702 23.8482 3.59698 24.2483 4.09058 24.2483H8.45901C8.95261 24.2483 9.35257 23.8482 9.35257 23.3547C9.35257 22.8613 8.95261 22.4612 8.45901 22.4612Z" fill="#FFD027"/>
</svg>
