<svg class="sprite-icons" xmlns="http://www.w3.org/2000/svg">

	<symbol id="icon-star">
		<!-- width="34" height="32" viewBox="0 0 34 32" -->
		<g>
			<g>
				<path d="M17 25.723L27.506 32l-2.78-11.838L34 12.2l-12.225-1.039L17 0l-4.775 11.161L0 12.201l9.274 7.96L6.494 32z"/>
			</g>
		</g>
	</symbol>

	<symbol id="icon-button">
		<!-- width="14" height="22" viewBox="0 0 14 22" -->
		<path d="M3 2L10 11L3 20" stroke="black" stroke-width="6"/>
	</symbol>

	<symbol id="icon-phone">
		<!-- width="15" height="15" viewBox="0 0 15 15" -->
		<path d="M15 12.6417L12.6431 14.9986C9.40722 14.9993 6.17113 13.7652 3.70225 11.2963C1.23481 8.82887 0.000725824 5.59509 0 2.36109L2.35971 0.00137329L5.57923 3.22089L3.47987 5.32024C3.48023 6.9068 4.08566 8.49327 5.29618 9.7038C6.5074 10.915 8.09499 11.5204 9.68249 11.5201L11.7805 9.42215L15 12.6417Z" fill="#FFD027"/>
	</symbol>

	<symbol id="icon-check">
		<!-- width="68" height="68" viewBox="0 0 68 68" -->
		<path d="M49.0296 23.2116C50.0672 24.2492 50.0672 25.9311 49.0296 26.9682L31.2099 44.7884C30.1723 45.8255 28.4909 45.8255 27.4533 44.7884L18.9704 36.305C17.9328 35.2679 17.9328 33.586 18.9704 32.5489C20.0075 31.5113 21.6894 31.5113 22.7265 32.5489L29.3313 39.1537L45.273 23.2116C46.3106 22.1745 47.9925 22.1745 49.0296 23.2116ZM68 34C68 52.7935 52.7909 68 34 68C15.2065 68 0 52.7909 0 34C0 15.2065 15.2091 0 34 0C52.7935 0 68 15.2091 68 34ZM62.6875 34C62.6875 18.1429 49.855 5.3125 34 5.3125C18.1429 5.3125 5.3125 18.145 5.3125 34C5.3125 49.8571 18.145 62.6875 34 62.6875C49.8571 62.6875 62.6875 49.855 62.6875 34Z"/>
	</symbol>

	<symbol id="icon-marker">
		<!-- width="13" height="15" viewBox="0 0 13 15" -->
		<path d="M6.5 0C3.20177 0 0.527428 2.6739 0.527428 5.97212C0.527428 10.9363 6.5 15 6.5 15C6.5 15 12.4726 10.6373 12.4726 5.97167C12.4726 2.67345 9.79822 0 6.5 0ZM6.5 8.81857C4.92685 8.81857 3.6522 7.54392 3.6522 5.97167C3.6522 4.39943 4.92685 3.12478 6.5 3.12478C8.07225 3.12433 9.3469 4.39987 9.3469 5.97212C9.34645 7.54437 8.07225 8.81857 6.5 8.81857Z" fill="#FFD027"/>
	</symbol>

	<symbol id="icon-arrow-boot">
		<!-- width="14" height="22" viewBox="0 0 14 22" -->
		<path d="M3 2L10 11L3 20" stroke="black" stroke-width="6"/>
	</symbol>

	<symbol id="icon-www">
		<!-- width="12" height="16" viewBox="0 0 12 16" -->
		<path d="M2 2L8 8L2 14" stroke="#101010" stroke-width="5"/>
	</symbol>

	<symbol id="icon-square">
		<!-- width="16" height="16" viewBox="0 0 16 16" -->
		<path d="M0 0H7V7H0V0Z" fill="#202020"/>
		<path d="M0 9H7V16H0V9Z" fill="#202020"/>
		<path d="M9 0H16V7H9V0Z" fill="#202020"/>
		<path d="M9 9H16V16H9V9Z" fill="#202020"/>
	</symbol>

	<symbol id="icon-search">
		<!-- width="10" height="10" viewBox="0 0 10 10" -->
		<g clip-path="url(#clip0)">
		<path d="M4.40379 0C1.97561 0 0 1.97561 0 4.40379C0 6.83211 1.97561 8.80758 4.40379 8.80758C6.83211 8.80758 8.80758 6.83211 8.80758 4.40379C8.80758 1.97561 6.83211 0 4.40379 0ZM4.40379 7.99459C2.42385 7.99459 0.813008 6.38375 0.813008 4.40381C0.813008 2.42387 2.42385 0.813008 4.40379 0.813008C6.38373 0.813008 7.99457 2.42385 7.99457 4.40379C7.99457 6.38373 6.38373 7.99459 4.40379 7.99459Z" fill="black"/>
		<path d="M9.88092 9.3057L7.55027 6.97506C7.39146 6.81625 7.13427 6.81625 6.97546 6.97506C6.81665 7.13374 6.81665 7.3912 6.97546 7.54987L9.30611 9.88051C9.38551 9.95991 9.48946 9.99961 9.59352 9.99961C9.69745 9.99961 9.80151 9.95991 9.88092 9.88051C10.0397 9.72184 10.0397 9.46438 9.88092 9.3057Z" fill="black"/>
		</g>
		<defs>
		<clipPath id="clip0">
		<rect width="10" height="10" fill="white"/>
		</clipPath>
		</defs>
	</symbol>

	
</svg>