<svg xmlns="http://www.w3.org/2000/svg" width="34" height="40" viewBox="0 0 34 40"><g><g><path fill="#ffc30a" d="M34 13.356c0 11.018-8.05 17.362-8.05 21.302 0 2.604 2.684 5.342 2.684 5.342H9.852s1.341-2.47 1.341-4.007c0-1.536-.067-2.67-1.61-2.67H6.431c-2.952 0-1.476-2.805-2.281-3.473-.805-.668-.067-1.536-.872-1.803-.805-.267-.269-1.269-.403-2.137-.134-.868-.402-.735-1.81-1.135-1.41-.401-1.208-1.47-.605-2.07a13.333 13.333 0 0 0 2.684-5.343v-6.678C3.144 3.472 9.852 0 19.243 0 25.95 0 34 2.805 34 13.356zm-10.733 5.342c2.946.332 5.603-1.776 5.937-4.708.333-2.932-1.784-5.578-4.73-5.91a7.39 7.39 0 0 0-5.752-2.799 7.392 7.392 0 0 0-5.785 2.732c-2.784.44-4.753 2.95-4.505 5.745.247 2.796 2.625 4.925 5.444 4.873h.47a7.338 7.338 0 0 0 8.653 0zm-5.5-7.346h6.708l-4.763 7.079a1.351 1.351 0 0 1-2.328-.198 1.338 1.338 0 0 1 .115-1.338l1.945-2.872h-6.708L17.7 6.611a1.342 1.342 0 0 1 2.43.05 1.33 1.33 0 0 1-.217 1.42z"/></g></g></svg>