<svg xmlns="http://www.w3.org/2000/svg" width="38" height="38" viewBox="0 0 38 38"><g><g><path fill="#ffc30a" d="M27.869 12.921A12.668 12.668 0 1 1 12.92 27.869a15.138 15.138 0 0 0 9.31-3.357c-.078.498.146.996.57 1.267.691.39 1.44.668 2.218.823 2.153.443 2.153.507 2.153 1.647 0 1.14-1.013 1.647-1.9 1.647a1.9 1.9 0 0 1-1.9-1.9 1.267 1.267 0 1 0-2.534 0 4.434 4.434 0 0 0 3.167 4.243v.697a1.267 1.267 0 0 0 2.534 0v-.697a4.117 4.117 0 0 0 3.167-3.99c0-1.204-.507-3.294-4.117-4.117a5.004 5.004 0 0 1-1.457-.57 1.267 1.267 0 0 0-.697-.19A15.138 15.138 0 0 0 27.87 12.92zm.823 10.514a1.267 1.267 0 0 0 1.077-1.457 4.434 4.434 0 0 0-1.393-2.533 1.267 1.267 0 0 0-1.71 1.837 1.9 1.9 0 0 1 .57 1.076 1.267 1.267 0 0 0 1.266 1.077zM21.625 3.71a12.668 12.668 0 0 1 3.71 8.958c0 6.996-5.671 12.667-12.667 12.667C5.67 25.335 0 19.664 0 12.668 0 5.67 5.671 0 12.668 0c3.36 0 6.581 1.335 8.957 3.71zm-4.524 11.808c0-1.204-.506-3.294-4.117-4.117-2.153-.507-2.153-.507-2.153-1.647 0-1.14 1.013-1.647 1.9-1.647a1.9 1.9 0 0 1 1.9 1.584 1.267 1.267 0 0 0 2.47-.444 4.434 4.434 0 0 0-3.103-3.483v-.697a1.267 1.267 0 0 0-2.534 0v.76a4.117 4.117 0 0 0-3.167 3.99c0 1.14.507 3.294 4.117 4.117 2.154.444 2.154.507 2.154 1.647 0 1.14-1.014 1.647-1.9 1.647a1.9 1.9 0 0 1-1.9-1.9 1.267 1.267 0 0 0-2.534 0 4.434 4.434 0 0 0 3.167 4.244v.696a1.267 1.267 0 0 0 2.533 0v-.697a4.117 4.117 0 0 0 3.167-4.053z"/></g></g></svg>