<svg xmlns="http://www.w3.org/2000/svg" width="41" height="42" viewBox="0 0 41 42"><g><g><path fill="#ffc30a" d="M10.299 20.334l-.914 8.792-2.86-4.727-1.974 7.34-2.065-4.147L0 42l3.171-7.784 1.668 3.025 2.456-7.11 1.957 4.022 5.41-8.555zm30.223-7.125l-10.014 3.446L16.418.572C15.765-.164 14.26-.19 13.47.5c-.228.2-.297.595-.409.852l7.776 8.772-.828.718-7.176-8.094c.001.006 0 .01.002.016l-1.427-1.61C10.752.416 9.276.419 8.484 1.11c-.792.692-.76 2.054-.106 2.793l.94 1.06c.866-.323 1.7-.283 2.44.54l6.32 7.13-.761.683-6.12-6.937c-.513-.58-1.756-.852-2.451-.203-.604.564-.54 1.819-.026 2.399l9.191 10.402-.82.722-2.994-3.388c-.604-.68-1.69-.711-2.423-.079a1.824 1.824 0 0 0-.61 1.544c.047.318.178.605.388.838l5.398 6.131s1.003 1.007 1.532 1.362c2.256 2.019 5.076 1.532 5.076 1.532l17.128-5.175C40.858 21.017 41 19.525 41 18c0-1.64-.165-3.243-.478-4.791z"/></g></g></svg>