<svg xmlns="http://www.w3.org/2000/svg" width="42" height="41" viewBox="0 0 42 41"><g><g><path fill="#ffc30a" d="M38.063 35.459a3.173 3.173 0 0 0-.703-1.037l-5.218-5.108a24.59 24.59 0 0 1-2.248 3.674l4.387 4.53c.293.302.644.543 1.03.707L41.004 41zm-25.95-2.47a24.573 24.573 0 0 1-2.248-3.676l-5.218 5.109c-.301.295-.54.647-.704 1.037L1.003 41l5.691-2.775a3.155 3.155 0 0 0 1.031-.708zm16.33-21.891c1.171.046 2.465-.044 3.89-.298l1.576-.281.864-.892 2.894 1.651a.206.206 0 0 0 .249-.034l.479-.481a.21.21 0 0 0 0-.296l-2.64-2.653 3.659-4.1c.666.23 1.432.085 1.964-.449a1.92 1.92 0 0 0 0-2.705 1.895 1.895 0 0 0-2.69 0 1.916 1.916 0 0 0-.433 2.022l-4.06 3.662-2.64-2.653a.207.207 0 0 0-.293 0l-.48.481a.21.21 0 0 0-.033.25l1.642 2.91zM2.593 3.716l3.658 4.1-2.64 2.653a.21.21 0 0 0 0 .295l.48.482c.066.066.168.08.25.034l2.893-1.651.862.89 1.578.28c1.425.255 2.717.345 3.886.3L9.613 7.235l1.643-2.91a.21.21 0 0 0-.034-.25l-.479-.481a.207.207 0 0 0-.294 0L7.81 6.247 3.75 2.585A1.917 1.917 0 0 0 3.318.563a1.895 1.895 0 0 0-2.69 0 1.92 1.92 0 0 0 0 2.705 1.894 1.894 0 0 0 1.964.448zm30.269 9.456C26.301 14.324 22.5 12.162 21.003 11c-1.495 1.163-5.29 3.326-11.858 2.172-.058 1.555-.139 4.005-.142 4.192.13 8.063 3.64 15.077 9.63 19.212.726.501 1.513.978 2.338 1.417.019.01.045.01.064 0 .828-.44 1.615-.917 2.337-1.417 5.99-4.135 9.5-11.148 9.63-19.243-.002-.165-.083-2.608-.141-4.16z"/></g></g></svg>