<svg xmlns="http://www.w3.org/2000/svg" width="44" height="48" viewBox="0 0 44 48"><g><g><path fill="#ffc30a" d="M35.364 26.863v-2.075h-1.212v.141c0 .018-.009.033-.01.05-.163 6.55-3.307 9.322-5.856 11.552-1.543 1.35-2.876 2.516-3.365 4.257-.768 2.734.336 4.333 1.38 5.193a1.694 1.694 0 0 1 1.663-1.347 1.69 1.69 0 0 1 1.697 1.683 1.69 1.69 0 0 1-2.392 1.532l-.045-.017a4.907 4.907 0 0 0-.259-.07c-.969-.25-3.462-.904-4.546-3.889L5.662 24.788h-.901l-.7 1.2H0l1.09-2.042L0 21.905h4.06l.7 1.2h.77L22.376 4.138C23.368 1.25 25.66.48 26.754.186a1.69 1.69 0 0 1 2.457 1.497c0 .93-.76 1.683-1.696 1.683a1.692 1.692 0 0 1-1.59-1.113c-.907.92-1.681 2.447-1.006 4.851.49 1.742 1.822 2.907 3.366 4.258 2.527 2.21 5.638 4.951 5.852 11.381.003.024.014.046.014.07v.292h1.212v-2.368L44 23.78zM21.898 7.29c0-.338.016-.655.04-.96l-14.9 16.774h21.515v-.035c-.076-5.583-2.076-7.813-3.85-9.778-1.443-1.599-2.805-3.11-2.805-6.001zm.042 34.328c-.027-.322-.042-.66-.042-1.017 0-2.893 1.362-4.403 2.805-6.002 1.773-1.965 3.773-4.196 3.85-9.778v-.034H7.163z"/></g></g></svg>