<svg xmlns="http://www.w3.org/2000/svg" width="42" height="41" viewBox="0 0 42 41"><g><g><path fill="#ffc30a" d="M6.054 34.988c1.818.509 3.7.765 5.59.761a14.043 14.043 0 0 0 5.588-1.463s4.579 5.031 14.126 4.727c0 .014-16.302 6.494-25.304-4.025zm17.308-3.356l-4.578.688c-2.017-1.68-3.493-4.727-3.493-4.727 3.432.993 6.755 2.59 8.071 4.04zM0 18.676s5.354-7.626 13.895-5.032l1.631 4.025C11.883 16.183 3.413 17.457 0 18.676zm12.34 8.991c1.31 2.442 1.823 3.471 3.807 5.793-4.522-.125-11.023-1.846-14.13 1.145 1.396-4.118 6.6-6.869 10.322-6.938zm3.416-2.972a32.52 32.52 0 0 0-15.29 4.27c1.654-3.961 5.504-8.259 10.867-9.694 1.862 1.31 3.225 3.328 4.423 5.424zM42 26.513c0 .11-.244 2.036-.244 2.147a2.59 2.59 0 0 0-3.16-.61 8.226 8.226 0 0 0-.55-1.288 11.42 11.42 0 0 1-1.931 1.159 2.981 2.981 0 0 0 .672-1.805c0-.234-.031-.467-.094-.692a9.648 9.648 0 0 1-3.215.89 3.145 3.145 0 0 0 .982-1.975c.005-.08.005-.16 0-.24a13.466 13.466 0 0 1-3.977.886c-.14 0-.282-.008-.423-.023a4.57 4.57 0 0 0 1.787-1.5c-1.373-.872-3.253-1.482-4.47-2.068a4.372 4.372 0 0 0-.386 1.787c0 2.132 1.593 4.13 4.075 5.363a9.636 9.636 0 0 1-2.303-.383 12.578 12.578 0 0 0 3.808 1.98c-.447.046-.898.046-1.335.046-.438 0-.908-.018-1.378-.055.752.89 1.993 1.223 2.82 1.639 1.401-.153 1.519-.684 2.562-1.45.18.6.285 1.22.31 1.847-.06 2.118-1.198 2.667-1.198 2.667l-.545-.84c-6.52-.761-5.523-3.881-10.224-4.21a12.933 12.933 0 0 1 2.275-1.112c-3.737-1.047-5.138-2.497-7.723-2.497h-.075a12.817 12.817 0 0 1 2.35-1.283c-4.818-1.999-3.869-4.219-6.58-6.388 1.712.14 3.412.392 5.09.757-.837-1.625-1.706-3.328-1.777-5.036C12.964 10.86 4.89 6.628.95 5.562c8.77.61 13.434 2.137 19.545 5.077 1.332.277 2.686.442 4.047.494a6.203 6.203 0 0 1-.207-1.449 2.348 2.348 0 0 1 0-.323c.848.38 1.715.717 2.6 1.006-1.11-2.566-7.174-8.3-9.472-10.367 2.59 1.182 11.723 5.793 14.61 12.864 1.546.24 2.194.614 3.426 1.385a3.411 3.411 0 0 0-.667 1.994 4.942 4.942 0 0 0 2.12 3.928 7.418 7.418 0 0 1 1.795-1.717c-.775 1.44.47 2.862 1.058 3.923.714-.392.963-.872 1.88-1.112-.926 1.999.32 3.125.315 5.248zm-11.08-6.822c-1.18-2.202-1.34-3.36-4.47-3.896"/></g></g></svg>