<svg width="50" height="50" viewBox="0 0 50 50" fill="none" xmlns="http://www.w3.org/2000/svg">
<path d="M42.1875 15.625H38.9844C38.8051 14.742 38.326 13.9481 37.6283 13.3778C36.9307 12.8076 36.0573 12.4961 35.1562 12.4961C34.2552 12.4961 33.3818 12.8076 32.6842 13.3778C31.9865 13.9481 31.5074 14.742 31.3281 15.625H28.125C27.9178 15.625 27.7191 15.7073 27.5726 15.8538C27.4261 16.0003 27.3438 16.1991 27.3438 16.4063V20.3125C27.3438 20.5197 27.4261 20.7184 27.5726 20.8649C27.7191 21.0114 27.9178 21.0938 28.125 21.0938H42.1875C42.3947 21.0938 42.5934 21.0114 42.7399 20.8649C42.8864 20.7184 42.9688 20.5197 42.9688 20.3125V16.4063C42.9688 16.1991 42.8864 16.0003 42.7399 15.8538C42.5934 15.7073 42.3947 15.625 42.1875 15.625Z" fill="#FCE37D"/>
<path d="M46.0938 17.1875H44.5312V20.3125C44.5312 20.9341 44.2843 21.5302 43.8448 21.9698C43.4052 22.4093 42.8091 22.6562 42.1875 22.6562H28.125C27.5034 22.6562 26.9073 22.4093 26.4677 21.9698C26.0282 21.5302 25.7812 20.9341 25.7812 20.3125V17.1875H24.2188C23.5971 17.1875 23.001 17.4344 22.5615 17.874C22.1219 18.3135 21.875 18.9096 21.875 19.5312V46.875C21.875 47.4966 22.1219 48.0927 22.5615 48.5323C23.001 48.9718 23.5971 49.2188 24.2188 49.2188H46.0938C46.7154 49.2188 47.3115 48.9718 47.751 48.5323C48.1906 48.0927 48.4375 47.4966 48.4375 46.875V19.5312C48.4375 18.9096 48.1906 18.3135 47.751 17.874C47.3115 17.4344 46.7154 17.1875 46.0938 17.1875ZM28.9062 46.0938H26.5625C26.3553 46.0938 26.1566 46.0114 26.0101 45.8649C25.8636 45.7184 25.7812 45.5197 25.7812 45.3125C25.7812 45.1053 25.8636 44.9066 26.0101 44.7601C26.1566 44.6136 26.3553 44.5312 26.5625 44.5312H28.9062C29.1135 44.5312 29.3122 44.6136 29.4587 44.7601C29.6052 44.9066 29.6875 45.1053 29.6875 45.3125C29.6875 45.5197 29.6052 45.7184 29.4587 45.8649C29.3122 46.0114 29.1135 46.0938 28.9062 46.0938ZM28.9062 41.4062H26.5625C26.3553 41.4062 26.1566 41.3239 26.0101 41.1774C25.8636 41.0309 25.7812 40.8322 25.7812 40.625C25.7812 40.4178 25.8636 40.2191 26.0101 40.0726C26.1566 39.9261 26.3553 39.8438 26.5625 39.8438H28.9062C29.1135 39.8438 29.3122 39.9261 29.4587 40.0726C29.6052 40.2191 29.6875 40.4178 29.6875 40.625C29.6875 40.8322 29.6052 41.0309 29.4587 41.1774C29.3122 41.3239 29.1135 41.4062 28.9062 41.4062ZM28.9062 36.7188H26.5625C26.3553 36.7188 26.1566 36.6364 26.0101 36.4899C25.8636 36.3434 25.7812 36.1447 25.7812 35.9375C25.7812 35.7303 25.8636 35.5316 26.0101 35.3851C26.1566 35.2386 26.3553 35.1562 26.5625 35.1562H28.9062C29.1135 35.1562 29.3122 35.2386 29.4587 35.3851C29.6052 35.5316 29.6875 35.7303 29.6875 35.9375C29.6875 36.1447 29.6052 36.3434 29.4587 36.4899C29.3122 36.6364 29.1135 36.7188 28.9062 36.7188ZM28.9062 32.0312H26.5625C26.3553 32.0312 26.1566 31.9489 26.0101 31.8024C25.8636 31.6559 25.7812 31.4572 25.7812 31.25C25.7812 31.0428 25.8636 30.8441 26.0101 30.6976C26.1566 30.5511 26.3553 30.4688 26.5625 30.4688H28.9062C29.1135 30.4688 29.3122 30.5511 29.4587 30.6976C29.6052 30.8441 29.6875 31.0428 29.6875 31.25C29.6875 31.4572 29.6052 31.6559 29.4587 31.8024C29.3122 31.9489 29.1135 32.0312 28.9062 32.0312ZM28.9062 27.3438H26.5625C26.3553 27.3438 26.1566 27.2614 26.0101 27.1149C25.8636 26.9684 25.7812 26.7697 25.7812 26.5625C25.7812 26.3553 25.8636 26.1566 26.0101 26.0101C26.1566 25.8636 26.3553 25.7812 26.5625 25.7812H28.9062C29.1135 25.7812 29.3122 25.8636 29.4587 26.0101C29.6052 26.1566 29.6875 26.3553 29.6875 26.5625C29.6875 26.7697 29.6052 26.9684 29.4587 27.1149C29.3122 27.2614 29.1135 27.3438 28.9062 27.3438ZM43.75 46.0938H32.8125C32.6053 46.0938 32.4066 46.0114 32.2601 45.8649C32.1136 45.7184 32.0312 45.5197 32.0312 45.3125C32.0312 45.1053 32.1136 44.9066 32.2601 44.7601C32.4066 44.6136 32.6053 44.5312 32.8125 44.5312H43.75C43.9572 44.5312 44.1559 44.6136 44.3024 44.7601C44.4489 44.9066 44.5312 45.1053 44.5312 45.3125C44.5312 45.5197 44.4489 45.7184 44.3024 45.8649C44.1559 46.0114 43.9572 46.0938 43.75 46.0938ZM43.75 41.4062H32.8125C32.6053 41.4062 32.4066 41.3239 32.2601 41.1774C32.1136 41.0309 32.0312 40.8322 32.0312 40.625C32.0312 40.4178 32.1136 40.2191 32.2601 40.0726C32.4066 39.9261 32.6053 39.8438 32.8125 39.8438H43.75C43.9572 39.8438 44.1559 39.9261 44.3024 40.0726C44.4489 40.2191 44.5312 40.4178 44.5312 40.625C44.5312 40.8322 44.4489 41.0309 44.3024 41.1774C44.1559 41.3239 43.9572 41.4062 43.75 41.4062ZM43.75 36.7188H32.8125C32.6053 36.7188 32.4066 36.6364 32.2601 36.4899C32.1136 36.3434 32.0312 36.1447 32.0312 35.9375C32.0312 35.7303 32.1136 35.5316 32.2601 35.3851C32.4066 35.2386 32.6053 35.1562 32.8125 35.1562H43.75C43.9572 35.1562 44.1559 35.2386 44.3024 35.3851C44.4489 35.5316 44.5312 35.7303 44.5312 35.9375C44.5312 36.1447 44.4489 36.3434 44.3024 36.4899C44.1559 36.6364 43.9572 36.7188 43.75 36.7188ZM43.75 32.0312H32.8125C32.6053 32.0312 32.4066 31.9489 32.2601 31.8024C32.1136 31.6559 32.0312 31.4572 32.0312 31.25C32.0312 31.0428 32.1136 30.8441 32.2601 30.6976C32.4066 30.5511 32.6053 30.4688 32.8125 30.4688H43.75C43.9572 30.4688 44.1559 30.5511 44.3024 30.6976C44.4489 30.8441 44.5312 31.0428 44.5312 31.25C44.5312 31.4572 44.4489 31.6559 44.3024 31.8024C44.1559 31.9489 43.9572 32.0312 43.75 32.0312ZM43.75 27.3438H32.8125C32.6053 27.3438 32.4066 27.2614 32.2601 27.1149C32.1136 26.9684 32.0312 26.7697 32.0312 26.5625C32.0312 26.3553 32.1136 26.1566 32.2601 26.0101C32.4066 25.8636 32.6053 25.7812 32.8125 25.7812H43.75C43.9572 25.7812 44.1559 25.8636 44.3024 26.0101C44.4489 26.1566 44.5312 26.3553 44.5312 26.5625C44.5312 26.7697 44.4489 26.9684 44.3024 27.1149C44.1559 27.2614 43.9572 27.3438 43.75 27.3438Z" fill="#FCE37D"/>
<path d="M27.625 23.0235C28.3385 21.9623 28.7787 20.7412 28.9062 19.4688C29.999 19.2841 30.991 18.7182 31.7061 17.8715C32.4212 17.0248 32.8132 15.9521 32.8125 14.8438V11.7188C32.8132 10.6106 32.4212 9.53788 31.7061 8.69119C30.991 7.84449 29.999 7.27856 28.9062 7.09385C28.7277 5.35626 27.9088 3.74734 26.6091 2.58044C25.3093 1.41353 23.6217 0.772199 21.875 0.781347H17.1875C15.4475 0.781898 13.7695 1.42759 12.478 2.59356C11.1865 3.75954 10.3732 5.36298 10.1953 7.09385C9.09539 7.27023 8.09423 7.83256 7.37126 8.68008C6.6483 9.52759 6.2508 10.6049 6.25 11.7188V14.8438C6.25 16.087 6.74386 17.2793 7.62294 18.1584C8.50201 19.0375 9.6943 19.5313 10.9375 19.5313C11.1447 19.5313 11.3434 19.449 11.4899 19.3025C11.6364 19.156 11.7188 18.9573 11.7188 18.7501V18.4532C12.6104 19.7787 13.8259 20.8544 15.25 21.5782C11.3434 22.5451 7.87308 24.7921 5.39233 27.961C2.91159 31.1299 1.56331 35.0382 1.5625 39.0626C1.5625 39.2698 1.64481 39.4685 1.79132 39.615C1.93784 39.7615 2.13655 39.8438 2.34375 39.8438H36.7188C36.9259 39.8438 37.1247 39.7615 37.2712 39.615C37.4177 39.4685 37.5 39.2698 37.5 39.0626C37.4993 35.7372 36.5759 32.4772 34.8324 29.6455C33.089 26.8138 30.5939 24.5214 27.625 23.0235ZM28.9062 8.69541C29.5767 8.86851 30.1706 9.25936 30.5948 9.80659C31.019 10.3538 31.2495 11.0264 31.25 11.7188V14.8438C31.2495 15.5362 31.019 16.2089 30.5948 16.7561C30.1706 17.3033 29.5767 17.6942 28.9062 17.8673V8.69541ZM10.1562 17.8673C9.48584 17.6942 8.89189 17.3033 8.46768 16.7561C8.04347 16.2089 7.81302 15.5362 7.8125 14.8438V11.7188C7.81302 11.0264 8.04347 10.3538 8.46768 9.80659C8.89189 9.25936 9.48584 8.86851 10.1562 8.69541V17.8673ZM11.7188 7.8126C11.7188 6.36219 12.2949 4.9712 13.3205 3.94561C14.3461 2.92002 15.7371 2.34385 17.1875 2.34385H21.875C23.3254 2.34385 24.7164 2.92002 25.742 3.94561C26.7676 4.9712 27.3438 6.36219 27.3438 7.8126V8.10947C26.4886 6.82025 25.3277 5.7627 23.9645 5.03113C22.6013 4.29956 21.0783 3.9167 19.5312 3.9167C17.9842 3.9167 16.4612 4.29956 15.098 5.03113C13.7348 5.7627 12.5739 6.82025 11.7188 8.10947V7.8126ZM11.7188 13.2813C11.7188 11.7362 12.1769 10.2257 13.0354 8.94095C13.8938 7.6562 15.114 6.65485 16.5415 6.06354C17.9691 5.47223 19.5399 5.31751 21.0554 5.61896C22.5709 5.92041 23.9629 6.66448 25.0555 7.75708C26.1481 8.84967 26.8922 10.2417 27.1936 11.7572C27.4951 13.2727 27.3404 14.8435 26.7491 16.2711C26.1577 17.6986 25.1564 18.9188 23.8716 19.7772C22.5869 20.6357 21.0764 21.0938 19.5312 21.0938C17.4592 21.0938 15.4721 20.2707 14.007 18.8056C12.5419 17.3405 11.7188 15.3534 11.7188 13.2813ZM27.3438 18.4532V18.7501C27.3422 20.0501 26.9353 21.3172 26.1797 22.3751C25.4166 22.063 24.6336 21.802 23.8359 21.5938C25.2533 20.8624 26.4607 19.7814 27.3438 18.4532ZM3.125 38.2813C3.23959 35.7215 3.9539 33.2244 5.21038 30.9912C6.46685 28.7579 8.23035 26.8511 10.3588 25.4243C12.4872 23.9975 14.921 23.0906 17.4641 22.7768C20.0073 22.4629 22.5885 22.7508 25 23.6173C23.893 24.509 22.5152 24.9968 21.0938 25.0001H19.5312C19.324 25.0001 19.1253 25.0824 18.9788 25.2289C18.8323 25.3754 18.75 25.5741 18.75 25.7813C18.75 25.9885 18.8323 26.1873 18.9788 26.3338C19.1253 26.4803 19.324 26.5626 19.5312 26.5626H21.0938C23.1618 26.5622 25.1452 25.7418 26.6094 24.2813C29.2832 25.5556 31.5621 27.5299 33.2044 29.9947C34.8468 32.4596 35.7912 35.3231 35.9375 38.2813H3.125Z" fill="#153257"/>
<path d="M19.5312 29.6875C19.9627 29.6875 20.3125 29.3377 20.3125 28.9062C20.3125 28.4748 19.9627 28.125 19.5312 28.125C19.0998 28.125 18.75 28.4748 18.75 28.9062C18.75 29.3377 19.0998 29.6875 19.5312 29.6875Z" fill="#153257"/>
<path d="M19.5312 32.8125C19.9627 32.8125 20.3125 32.4627 20.3125 32.0312C20.3125 31.5998 19.9627 31.25 19.5312 31.25C19.0998 31.25 18.75 31.5998 18.75 32.0312C18.75 32.4627 19.0998 32.8125 19.5312 32.8125Z" fill="#153257"/>
<path d="M19.5312 35.9375C19.9627 35.9375 20.3125 35.5877 20.3125 35.1562C20.3125 34.7248 19.9627 34.375 19.5312 34.375C19.0998 34.375 18.75 34.7248 18.75 35.1562C18.75 35.5877 19.0998 35.9375 19.5312 35.9375Z" fill="#153257"/>
</svg>
