<svg width="50" height="50" viewBox="0 0 50 50" fill="none" xmlns="http://www.w3.org/2000/svg">
<path d="M29.6875 10.1562C25.8246 10.1563 22.0484 11.3017 18.8365 13.4479C15.6246 15.594 13.1213 18.6443 11.643 22.2132C10.1647 25.7821 9.77793 29.7092 10.5315 33.4979C11.2852 37.2865 13.1453 40.7667 15.8768 43.4982C18.6083 46.2297 22.0885 48.0898 25.8772 48.8435C29.6658 49.5971 33.5929 49.2103 37.1618 47.732C40.7307 46.2537 43.781 43.7504 45.9272 40.5385C48.0733 37.3266 49.2188 33.5504 49.2188 29.6875C49.2188 24.5075 47.161 19.5396 43.4982 15.8768C39.8354 12.214 34.8675 10.1563 29.6875 10.1562ZM29.6875 45.3125C27.2011 45.3125 24.8165 44.3248 23.0584 42.5666C21.3002 40.8085 20.3125 38.4239 20.3125 35.9375C20.3125 35.7303 20.3948 35.5316 20.5413 35.3851C20.6878 35.2386 20.8866 35.1562 21.0938 35.1562H38.2813C38.4885 35.1562 38.6872 35.2386 38.8337 35.3851C38.9802 35.5316 39.0625 35.7303 39.0625 35.9375C39.0625 38.4239 38.0748 40.8085 36.3166 42.5666C34.5585 44.3248 32.1739 45.3125 29.6875 45.3125ZM45.3125 30.4688C45.1053 30.4688 44.9066 30.3864 44.7601 30.2399C44.6136 30.0934 44.5313 29.8947 44.5313 29.6875C44.5313 25.7507 42.9674 21.9751 40.1836 19.1914C37.3999 16.4076 33.6243 14.8438 29.6875 14.8438C29.4803 14.8438 29.2816 14.7614 29.1351 14.6149C28.9886 14.4684 28.9063 14.2697 28.9063 14.0625C28.9063 13.8553 28.9886 13.6566 29.1351 13.5101C29.2816 13.3636 29.4803 13.2812 29.6875 13.2812C34.0387 13.2812 38.2117 15.0098 41.2885 18.0865C44.3652 21.1633 46.0938 25.3363 46.0938 29.6875C46.0938 29.8947 46.0114 30.0934 45.8649 30.2399C45.7184 30.3864 45.5197 30.4688 45.3125 30.4688Z" fill="#FFCEE6"/>
<path d="M27.1342 10.6017C24.5092 9.1955 21.6185 10.1017 19.5326 12.9064C17.4467 10.1017 14.556 9.1955 11.931 10.6017C10.9067 11.1686 10.0554 12.0028 9.46796 13.0154C8.88047 14.0281 8.5788 15.1812 8.59511 16.3517V17.2424C8.59511 21.8752 13.1889 26.9611 19.2748 29.0705C19.441 29.1328 19.6242 29.1328 19.7904 29.0705C25.8763 26.9611 30.4701 21.8752 30.4701 17.2424V16.3517C30.4864 15.1812 30.1847 14.0281 29.5972 13.0154C29.0098 12.0028 28.1585 11.1686 27.1342 10.6017ZM28.9076 17.2424C28.9076 20.6408 25.4076 25.3674 19.5326 27.508C13.6576 25.3674 10.1576 20.6408 10.1576 17.2424V16.3517C10.1411 15.465 10.3656 14.5903 10.8073 13.8212C11.249 13.0521 11.8912 12.4173 12.6654 11.9846C15.1654 10.6408 17.431 12.2736 18.8607 14.7189C18.9299 14.8355 19.0282 14.9321 19.146 14.9992C19.2638 15.0662 19.397 15.1015 19.5326 15.1015C19.6682 15.1015 19.8014 15.0662 19.9192 14.9992C20.037 14.9321 20.1353 14.8355 20.2045 14.7189C21.8998 11.8361 24.2123 10.8127 26.3998 11.9846C27.174 12.4173 27.8162 13.0521 28.2579 13.8212C28.6996 14.5903 28.9241 15.465 28.9076 16.3517V17.2424Z" fill="#153257"/>
<path d="M19.5313 0.78125C15.8229 0.78125 12.1977 1.88092 9.11432 3.9412C6.03089 6.00147 3.62766 8.92982 2.20852 12.3559C0.789374 15.7821 0.418062 19.552 1.14153 23.1892C1.86501 26.8263 3.65077 30.1673 6.27301 32.7895C8.89524 35.4117 12.2362 37.1975 15.8733 37.921C19.5105 38.6444 23.2805 38.2731 26.7066 36.854C30.1327 35.4348 33.061 33.0316 35.1213 29.9482C37.1816 26.8648 38.2813 23.2397 38.2813 19.5313C38.2813 14.5584 36.3058 9.78931 32.7895 6.273C29.2732 2.75669 24.5041 0.78125 19.5313 0.78125ZM19.5313 36.7188C16.1319 36.7188 12.8089 35.7107 9.9824 33.8221C7.15593 31.9335 4.95296 29.2492 3.65208 26.1086C2.3512 22.968 2.01083 19.5122 2.67401 16.1781C3.33719 12.8441 4.97415 9.78157 7.37786 7.37785C9.78158 4.97414 12.8441 3.33719 16.1781 2.674C19.5122 2.01082 22.968 2.35119 26.1086 3.65207C29.2492 4.95295 31.9336 7.15592 33.8221 9.98239C35.7107 12.8089 36.7188 16.1319 36.7188 19.5313C36.7188 24.0897 34.9079 28.4614 31.6847 31.6847C28.4614 34.9079 24.0897 36.7188 19.5313 36.7188Z" fill="#153257"/>
</svg>
