<svg width="18" height="22" viewBox="0 0 18 22" fill="none" xmlns="http://www.w3.org/2000/svg">
<path d="M17.8003 19.0172L16.5406 4.8319C16.5136 4.51697 16.2482 4.27853 15.9377 4.27853H13.3463C13.3103 1.91207 11.3758 0 9.0003 0C6.62484 0 4.69028 1.91207 4.65429 4.27853H2.06288C1.74795 4.27853 1.48701 4.51697 1.46001 4.8319L0.2003 19.0172C0.2003 19.0352 0.195801 19.0532 0.195801 19.0712C0.195801 20.6863 1.67596 22 3.49805 22H14.5025C16.3246 22 17.8048 20.6863 17.8048 19.0712C17.8048 19.0532 17.8048 19.0352 17.8003 19.0172ZM9.0003 1.21472C10.7054 1.21472 12.0956 2.58241 12.1316 4.27853H5.86901C5.905 2.58241 7.29519 1.21472 9.0003 1.21472ZM14.5025 20.7853H3.49805C2.35531 20.7853 1.42852 20.0294 1.41052 19.0982L2.61625 5.49775H4.64979V7.34233C4.64979 7.67975 4.91973 7.94969 5.25715 7.94969C5.59457 7.94969 5.86451 7.67975 5.86451 7.34233V5.49775H12.1316V7.34233C12.1316 7.67975 12.4015 7.94969 12.7389 7.94969C13.0764 7.94969 13.3463 7.67975 13.3463 7.34233V5.49775H15.3798L16.5901 19.0982C16.5721 20.0294 15.6408 20.7853 14.5025 20.7853Z" fill="black"/>
</svg>
