<svg width="25" height="25" viewBox="0 0 25 25" fill="none" xmlns="http://www.w3.org/2000/svg">
<path d="M10.1233 16.8877C9.83043 17.1805 9.83043 17.6554 10.1233 17.9483C10.4162 18.2412 10.8911 18.2412 11.184 17.9483L10.1233 16.8877ZM4.51621 10.638C4.22332 10.9309 4.22332 11.4057 4.51621 11.6986C4.80911 11.9915 5.28398 11.9915 5.57687 11.6986L4.51621 10.638ZM11.492 22.508L12.0224 23.0383L11.492 22.508ZM5.56366 16.5796L5.0362 16.0464L5.03333 16.0492L5.56366 16.5796ZM12.7674 9.45345L13.2948 9.98665L13.2977 9.98378L12.7674 9.45345ZM11.184 17.9483L16.2231 12.9092L15.1624 11.8485L10.1233 16.8877L11.184 17.9483ZM5.57687 11.6986L12.6661 4.60943L11.6054 3.54877L4.51621 10.638L5.57687 11.6986ZM12.0224 23.0383L21.5587 13.502L20.498 12.4413L10.9617 21.9776L12.0224 23.0383ZM6.09111 17.1128L13.2948 9.98664L12.2399 8.92025L5.03621 16.0464L6.09111 17.1128ZM13.2977 9.98378C13.8419 9.43956 14.655 9.43758 15.1624 9.945L16.2231 8.88434C15.0934 7.75467 13.3299 7.83026 12.237 8.92312L13.2977 9.98378ZM15.1624 9.945C15.6881 10.4706 15.6881 11.3229 15.1624 11.8485L16.2231 12.9092C17.3345 11.7978 17.3345 9.99577 16.2231 8.88434L15.1624 9.945ZM12.6661 4.60943C14.8288 2.44671 18.3353 2.44671 20.498 4.60943L21.5587 3.54877C18.8101 0.80026 14.3539 0.80026 11.6054 3.54877L12.6661 4.60943ZM20.498 4.60943C22.6607 6.77216 22.6607 10.2786 20.498 12.4413L21.5587 13.502C24.3072 10.7535 24.3072 6.29728 21.5587 3.54877L20.498 4.60943ZM10.9617 21.9776C9.61753 23.3218 7.43818 23.3218 6.09399 21.9776L5.03333 23.0383C6.9633 24.9683 10.0924 24.9683 12.0224 23.0383L10.9617 21.9776ZM6.09399 21.9776C4.74981 20.6334 4.74981 18.4541 6.09399 17.1099L5.03333 16.0492C3.10336 17.9792 3.10336 21.1083 5.03333 23.0383L6.09399 21.9776Z" fill="#5D1324"/>
</svg>
