<svg width="46" height="40" viewBox="0 0 46 40" fill="none" xmlns="http://www.w3.org/2000/svg">
<path d="M36.9449 40C41.661 40 45.4839 35.9297 45.4839 30.9091C45.4839 25.8879 41.661 21.8182 36.9449 21.8182C28.4065 21.8182 34.099 4.24243 45.4839 4.24243L45.4839 3.8147e-06C25.1658 5.62266e-06 17.2026 40 36.9449 40ZM12.3453 40C17.0614 40 20.8843 35.9297 20.8843 30.9091C20.8843 25.8879 17.0614 21.8182 12.3453 21.8182C3.80695 21.8182 9.49941 4.24243 20.8843 4.24243L20.8843 6.00364e-06C0.56625 7.81161e-06 -7.39698 40 12.3453 40Z" fill="#5D1324"/>
</svg>
