<svg class="sprite-icons" xmlns="http://www.w3.org/2000/svg">

	<symbol id="icon-star">
		<!-- width="34" height="32" viewBox="0 0 34 32" -->
		<g>
			<g>
				<path d="M17 25.723L27.506 32l-2.78-11.838L34 12.2l-12.225-1.039L17 0l-4.775 11.161L0 12.201l9.274 7.96L6.494 32z"/>
			</g>
		</g>
	</symbol>

	<symbol id="upload-icon">
		<!-- width="25" height="25" viewBox="0 0 25 25" -->
		<path d="M10.1233 16.8877C9.83043 17.1805 9.83043 17.6554 10.1233 17.9483C10.4162 18.2412 10.8911 18.2412 11.184 17.9483L10.1233 16.8877ZM4.51621 10.638C4.22332 10.9309 4.22332 11.4057 4.51621 11.6986C4.80911 11.9915 5.28398 11.9915 5.57687 11.6986L4.51621 10.638ZM11.492 22.508L12.0224 23.0383L11.492 22.508ZM5.56366 16.5796L5.0362 16.0464L5.03333 16.0492L5.56366 16.5796ZM12.7674 9.45345L13.2948 9.98665L13.2977 9.98378L12.7674 9.45345ZM11.184 17.9483L16.2231 12.9092L15.1624 11.8485L10.1233 16.8877L11.184 17.9483ZM5.57687 11.6986L12.6661 4.60943L11.6054 3.54877L4.51621 10.638L5.57687 11.6986ZM12.0224 23.0383L21.5587 13.502L20.498 12.4413L10.9617 21.9776L12.0224 23.0383ZM6.09111 17.1128L13.2948 9.98664L12.2399 8.92025L5.03621 16.0464L6.09111 17.1128ZM13.2977 9.98378C13.8419 9.43956 14.655 9.43758 15.1624 9.945L16.2231 8.88434C15.0934 7.75467 13.3299 7.83026 12.237 8.92312L13.2977 9.98378ZM15.1624 9.945C15.6881 10.4706 15.6881 11.3229 15.1624 11.8485L16.2231 12.9092C17.3345 11.7978 17.3345 9.99577 16.2231 8.88434L15.1624 9.945ZM12.6661 4.60943C14.8288 2.44671 18.3353 2.44671 20.498 4.60943L21.5587 3.54877C18.8101 0.80026 14.3539 0.80026 11.6054 3.54877L12.6661 4.60943ZM20.498 4.60943C22.6607 6.77216 22.6607 10.2786 20.498 12.4413L21.5587 13.502C24.3072 10.7535 24.3072 6.29728 21.5587 3.54877L20.498 4.60943ZM10.9617 21.9776C9.61753 23.3218 7.43818 23.3218 6.09399 21.9776L5.03333 23.0383C6.9633 24.9683 10.0924 24.9683 12.0224 23.0383L10.9617 21.9776ZM6.09399 21.9776C4.74981 20.6334 4.74981 18.4541 6.09399 17.1099L5.03333 16.0492C3.10336 17.9792 3.10336 21.1083 5.03333 23.0383L6.09399 21.9776Z"/>
	</symbol>

	<symbol id="icon-step1">
		<!-- width="25" height="25" viewBox="0 0 25 25" -->
		<path d="M5.35048 17.9023C4.68467 17.9023 4.14307 18.444 4.14307 19.1098C4.14307 19.7756 4.68471 20.3172 5.35048 20.3172C6.01625 20.3172 6.55795 19.7756 6.55795 19.1098C6.55795 18.444 6.01625 17.9023 5.35048 17.9023ZM5.35048 19.4818C5.14536 19.4818 4.97851 19.3149 4.97851 19.1098C4.97851 18.9047 5.14541 18.7378 5.35048 18.7378C5.55556 18.7378 5.7225 18.9047 5.7225 19.1098C5.7225 19.3149 5.55556 19.4818 5.35048 19.4818Z" fill="#9B907E"/>
		<path d="M4.81763 16.0278C5.04833 16.0278 5.23535 15.8408 5.23535 15.6101C5.23535 15.3794 5.04833 15.1924 4.81763 15.1924C4.58692 15.1924 4.3999 15.3794 4.3999 15.6101C4.3999 15.8408 4.58692 16.0278 4.81763 16.0278Z" fill="#9B907E"/>
		<path d="M6.25171 16.0278C6.48241 16.0278 6.66943 15.8408 6.66943 15.6101C6.66943 15.3794 6.48241 15.1924 6.25171 15.1924C6.02101 15.1924 5.83398 15.3794 5.83398 15.6101C5.83398 15.8408 6.02101 16.0278 6.25171 16.0278Z" fill="#9B907E"/>
		<path d="M10.3616 3.91162C10.5923 3.91162 10.7793 3.7246 10.7793 3.49389C10.7793 3.26319 10.5923 3.07617 10.3616 3.07617C10.1309 3.07617 9.94385 3.26319 9.94385 3.49389C9.94385 3.7246 10.1309 3.91162 10.3616 3.91162Z" fill="#9B907E"/>
		<path d="M16.3635 7.979C16.5942 7.979 16.7812 7.79198 16.7812 7.56128C16.7812 7.33058 16.5942 7.14355 16.3635 7.14355C16.1328 7.14355 15.9458 7.33058 15.9458 7.56128C15.9458 7.79198 16.1328 7.979 16.3635 7.979Z" fill="#9B907E"/>
		<path d="M7.65844 16.0278C7.88915 16.0278 8.07617 15.8408 8.07617 15.6101C8.07617 15.3794 7.88915 15.1924 7.65844 15.1924C7.42774 15.1924 7.24072 15.3794 7.24072 15.6101C7.24072 15.8408 7.42774 16.0278 7.65844 16.0278Z" fill="#9B907E"/>
		<path d="M21.7342 9.34425L18.7732 6.37248C18.5369 6.13538 18.2224 6.00447 17.8877 6.00388C17.8869 6.00388 17.8861 6.00388 17.8853 6.00388C17.5515 6.00388 17.2374 6.13362 17.0008 6.36931C16.8374 6.53215 16.837 6.79665 16.9997 6.96013C17.1627 7.1236 17.4271 7.12395 17.5906 6.9612C17.6694 6.88259 17.7741 6.83938 17.8854 6.83938C17.8857 6.83938 17.8859 6.83938 17.8862 6.83938C17.9977 6.83952 18.1026 6.88322 18.1813 6.96223L21.1424 9.93394C21.305 10.0971 21.3045 10.3622 21.1413 10.5247L18.7477 12.9097L14.9021 9.05021C14.8942 9.04225 14.8858 9.03502 14.8774 9.0278L15.1988 8.27048C15.1989 8.27033 15.1989 8.27013 15.199 8.26999L16.6819 4.77547C16.8126 4.46727 16.8156 4.12669 16.6902 3.81634C16.5647 3.50599 16.326 3.26302 16.0178 3.13226L12.156 1.49355C11.8479 1.36279 11.5073 1.35986 11.1968 1.48525C10.8865 1.61069 10.6435 1.8495 10.5128 2.15766C10.4227 2.37006 10.5218 2.61527 10.7342 2.70541C10.9466 2.7955 11.1918 2.69633 11.2819 2.48402C11.3255 2.38129 11.4065 2.3017 11.51 2.2599C11.6134 2.21811 11.7269 2.21908 11.8297 2.26269L15.6915 3.9014C15.7942 3.945 15.8738 4.02596 15.9156 4.12943C15.9574 4.23284 15.9564 4.34642 15.9128 4.44915L14.5928 7.55969L9.60285 5.44217V5.05003V1.25322C9.60285 0.562156 9.0407 0 8.34964 0H4.15458C3.46352 0 2.90137 0.562156 2.90137 1.25322V5.04998V9.61246V14.1749V20.405C2.90137 20.6582 2.97705 20.8939 3.10669 21.0912C3.16221 21.3056 3.27231 21.5004 3.43095 21.6596L6.39203 24.6313C6.62831 24.8685 6.94276 24.9994 7.27752 24.9999C7.2783 24.9999 7.27908 24.9999 7.27986 24.9999C7.6137 24.9999 7.92776 24.8702 8.16438 24.6345L12.5775 20.2373C12.5775 20.2373 12.5776 20.2372 12.5777 20.2372L15.4426 17.3825L17.9912 14.8432L19.0416 13.7966L21.7312 11.1168C22.2205 10.6288 22.2219 9.83375 21.7342 9.34425ZM9.6029 9.61241V6.44075L9.63567 6.36355L14.2665 8.32868L13.6704 9.73341C13.6701 9.73419 13.6697 9.73492 13.6695 9.7357L12.8107 11.7596L9.6029 10.3983V9.61241ZM9.6029 14.1749V11.306L12.4842 12.5287L12.0736 13.4964C12.0734 13.4969 12.0732 13.4974 12.0731 13.4978L11.0284 15.9596L9.60295 15.3547V14.1749H9.6029ZM9.6029 16.2622L10.702 16.7286L10.198 17.9164C10.1494 17.9772 10.1205 18.0485 10.1109 18.1219L9.60295 19.3188V16.2622H9.6029ZM3.73681 1.25322C3.73681 1.0229 3.92426 0.835495 4.15454 0.835495H8.34959C8.57996 0.835495 8.76731 1.02295 8.76731 1.25322V4.63221H3.73681V1.25322ZM3.73681 5.4677H8.76736V6.35305C8.76736 6.35452 8.76736 6.35593 8.76736 6.35735V9.19469H3.73681V5.4677ZM3.73681 10.0302H8.76736V10.6666C8.76726 10.6718 8.76726 10.6769 8.76736 10.682V13.7572H3.73681V10.0302ZM7.57459 24.0426C7.49573 24.1212 7.39105 24.1645 7.27977 24.1645C7.27947 24.1645 7.27928 24.1645 7.27899 24.1645C7.16741 24.1643 7.06258 24.1206 6.98382 24.0416L4.88573 21.9359L7.55745 23.0696C7.71673 23.1372 7.8823 23.1692 8.04534 23.1692C8.22552 23.1692 8.40247 23.1298 8.56428 23.0565L7.57459 24.0426ZM8.43157 22.0791C8.38797 22.1818 8.30696 22.2614 8.20354 22.3032C8.09998 22.345 7.98655 22.344 7.88382 22.3004L6.37025 21.6581H8.34969V21.6582C8.44358 21.6582 8.53499 21.6475 8.62307 21.6277L8.43157 22.0791ZM8.76741 15.6283C8.76741 15.6298 8.76741 15.6312 8.76741 15.6326V20.4049C8.76741 20.6353 8.58006 20.8226 8.34969 20.8226C8.34969 20.8226 5.34096 20.8403 4.18325 20.8327C3.93691 20.8311 3.73842 20.6308 3.73882 20.3843C3.74087 18.966 3.73686 14.5925 3.73686 14.5925H8.76741V15.6283ZM9.18572 22.4372C9.1906 22.4266 9.19602 22.4163 9.20066 22.4055L10.6784 18.923L11.6919 19.9401L9.18572 22.4372ZM12.2838 19.3504L11.0307 18.0928L11.6342 16.6706C11.6342 16.6706 11.6343 16.6705 11.6343 16.6704L12.6022 14.3896L14.9239 16.7197L12.2838 19.3504ZM15.5157 16.13L12.9544 13.5595L13.4166 12.4705L14.4093 10.131L14.6052 9.9359L18.1558 13.4995L15.5157 16.13Z" fill="#9B907E"/>
		<path d="M5.35048 17.9023C4.68467 17.9023 4.14307 18.444 4.14307 19.1098C4.14307 19.7756 4.68471 20.3172 5.35048 20.3172C6.01625 20.3172 6.55795 19.7756 6.55795 19.1098C6.55795 18.444 6.01625 17.9023 5.35048 17.9023ZM5.35048 19.4818C5.14536 19.4818 4.97851 19.3149 4.97851 19.1098C4.97851 18.9047 5.14541 18.7378 5.35048 18.7378C5.55556 18.7378 5.7225 18.9047 5.7225 19.1098C5.7225 19.3149 5.55556 19.4818 5.35048 19.4818Z" fill="#9B907E"/>
		<path d="M10.3616 3.91162C10.5923 3.91162 10.7793 3.7246 10.7793 3.49389C10.7793 3.26319 10.5923 3.07617 10.3616 3.07617C10.1309 3.07617 9.94385 3.26319 9.94385 3.49389C9.94385 3.7246 10.1309 3.91162 10.3616 3.91162Z" fill="#9B907E"/>
		<path d="M16.3635 7.979C16.5942 7.979 16.7812 7.79198 16.7812 7.56128C16.7812 7.33058 16.5942 7.14355 16.3635 7.14355C16.1328 7.14355 15.9458 7.33058 15.9458 7.56128C15.9458 7.79198 16.1328 7.979 16.3635 7.979Z" fill="#9B907E"/>
	</symbol>

	<symbol id="icon-step2">
		<!-- width="25" height="25" viewBox="0 0 25 25" -->
		<g clip-path="url(#clip0)">
			<path d="M11.2483 16.327C11.4388 16.136 11.4388 15.8269 11.2483 15.6359C11.0574 15.4456 10.7484 15.4456 10.5575 15.6359C10.3669 15.8269 10.3669 16.136 10.5575 16.327C10.7484 16.5173 11.0574 16.5173 11.2483 16.327Z" fill="#9B907E"/>
			<path d="M11.4258 4.83398V5.81055C11.4258 7.42912 12.7369 8.74023 14.3555 8.74023C15.971 8.74023 17.2853 7.42607 17.2853 5.81055V4.83398C17.555 4.83398 17.7736 4.6154 17.7736 4.3457C17.7736 4.076 17.555 3.85742 17.2853 3.85742H16.3088C16.0391 3.85742 15.8205 4.076 15.8205 4.3457C15.8205 4.6154 16.0391 4.83398 16.3088 4.83398V5.81055C16.3088 6.88744 15.4325 7.76367 14.3555 7.76367C13.2769 7.76367 12.4023 6.88953 12.4023 5.81055V4.83398C12.672 4.83398 12.8906 4.6154 12.8906 4.3457C12.8906 4.076 12.672 3.85742 12.4023 3.85742H11.4258C11.1561 3.85742 10.9375 4.076 10.9375 4.3457C10.9375 4.6154 11.1561 4.83398 11.4258 4.83398Z" fill="#9B907E"/>
			<path d="M5.67474 23.9717C5.77011 24.0669 5.89485 24.1144 6.01978 24.1144C6.14471 24.1144 6.26964 24.0667 6.36501 23.9716L7.86437 22.4722C8.35285 21.9841 8.58802 21.3156 8.52012 20.64L9.0578 20.1208C9.48447 19.7096 10.0454 19.483 10.6371 19.483H17.066C18.2176 19.483 19.3062 19.0407 20.1309 18.2375C20.1431 18.2257 20.1546 18.2133 20.1654 18.2001L24.5397 12.9473C25.2348 12.1248 25.1308 10.89 24.3076 10.1942C23.4897 9.50489 22.2641 9.60407 21.5669 10.4128L21.0945 10.9015V1.36719C21.0945 1.09749 20.8757 0.878906 20.6062 0.878906H8.05683C7.78732 0.878906 7.56854 1.09749 7.56854 1.36719V12.3072C5.6776 12.7041 4.17785 13.8779 3.37009 15.5937C2.73304 15.5607 2.11182 15.7949 1.65081 16.2565L0.143814 17.7561C0.0518804 17.8476 0.000191261 17.972 5.25996e-07 18.1017C-0.000190209 18.2316 0.0514989 18.3559 0.143242 18.4477L5.67474 23.9717ZM20.1179 1.85547V11.9112L18.7048 13.3722C18.341 12.9253 17.7868 12.6469 17.1881 12.6469H11.5267C11.4954 12.6469 11.4614 12.6396 11.4273 12.6259C10.6666 12.3158 9.86118 12.1586 9.03358 12.1586C8.87012 12.1586 8.70723 12.1645 8.5453 12.1752V1.85547H20.1179ZM8.12683 13.1994C9.11464 13.0566 10.1025 13.1405 11.0605 13.5309C11.2127 13.5923 11.3697 13.6236 11.5267 13.6236H17.1881C17.7175 13.6236 18.1646 14.0554 18.1646 14.6002C18.1646 15.1386 17.7265 15.5767 17.1881 15.5767H12.9398C12.6703 15.5767 12.4515 15.7953 12.4515 16.065C12.4515 16.3347 12.6703 16.5533 12.9398 16.5533H17.1881C18.2651 16.5533 19.1412 15.6771 19.1412 14.6002C19.1412 14.514 19.1349 14.4283 19.1238 14.3438C19.2257 14.2395 22.1771 11.187 22.2793 11.0811C22.2868 11.0733 22.2942 11.0653 22.3011 11.0571C22.649 10.6462 23.2668 10.5944 23.6778 10.9407C24.0892 11.2885 24.1413 11.9059 23.7915 12.3198L19.4319 17.555C18.7927 18.1688 17.9535 18.5064 17.066 18.5064H10.6371C9.79118 18.5064 8.98971 18.8299 8.37974 19.418L8.1644 19.6259C8.07819 19.4933 7.97786 19.3695 7.86456 19.2564L4.86545 16.2573C4.70524 16.0971 4.52346 15.9639 4.32682 15.8588C5.07278 14.3875 6.40525 13.4497 8.12683 13.1994ZM2.3407 16.9477C2.85377 16.4339 3.67374 16.4465 4.1748 16.9479L7.1743 19.9472C7.67707 20.4491 7.68604 21.27 7.17411 21.7813L6.0194 22.9359L1.17989 18.1028L2.3407 16.9477Z" fill="#9B907E"/>
		</g>
		<defs>
			<clipPath id="clip0">
				<rect width="25" height="25" fill="white"/>
			</clipPath>
		</defs>
	</symbol>

	<symbol id="icon-step3">
		<!-- width="25" height="25" viewBox="0 0 25 25" -->
		<path d="M22.8589 7.70758H21.8063V7.03067L22.4631 6.30733C22.804 5.93184 22.9918 5.44576 22.9918 4.93853V3.22315C22.9918 2.02368 22.0159 1.04785 20.8164 1.04785H19.8159C18.6164 1.04785 17.6406 2.02373 17.6406 3.22315V4.93853C17.6406 5.44576 17.8284 5.93189 18.1692 6.30733L18.8261 7.03077V7.70758H17.7735C16.7508 7.70758 15.8937 8.42848 15.6826 9.38873C15.5751 9.3737 15.4656 9.36539 15.354 9.36539H14.121V8.53737L14.8732 7.70909C15.2492 7.29493 15.4563 6.75875 15.4563 6.19933V4.26724C15.4563 2.94243 14.3785 1.86475 13.0538 1.86475C12.8462 1.86475 12.678 2.03296 12.678 2.24058C12.678 2.4482 12.8462 2.61641 13.0538 2.61641C13.9641 2.61641 14.7047 3.35694 14.7047 4.26724V6.19928C14.7047 6.57149 14.5669 6.92818 14.3167 7.20372L13.5422 8.0567C13.4383 8.12355 13.3695 8.2402 13.3695 8.37301V9.74127C13.3695 9.94889 13.5377 10.1171 13.7453 10.1171H15.3541C16.2431 10.1171 16.9665 10.8404 16.9665 11.7295V14.0878H8.01418V11.7295C8.01418 11.0363 8.45392 10.444 9.06896 10.2166C9.09787 10.2105 9.12541 10.2009 9.15143 10.1886C9.30168 10.1422 9.46125 10.1171 9.62648 10.1171H11.2353C11.4429 10.1171 11.6112 9.94884 11.6112 9.74123V8.37296C11.6112 8.2402 11.5423 8.1235 11.4384 8.05665L10.6639 7.20367C10.4137 6.92813 10.2759 6.5714 10.2759 6.19923V4.26724C10.2759 3.35699 11.0164 2.61641 11.9267 2.61641C12.1343 2.61641 12.3026 2.4482 12.3026 2.24058C12.3026 2.03296 12.1343 1.86475 11.9267 1.86475C10.6019 1.86475 9.52419 2.94248 9.52419 4.26724V6.19928C9.52419 6.75865 9.73132 7.29484 10.1073 7.70904L10.8594 8.53727V9.36535H9.62639C9.52136 9.36535 9.41813 9.37292 9.31672 9.38629C9.10471 8.42726 8.24831 7.70758 7.22648 7.70758H6.17384V7.03067L6.83063 6.30733C7.1716 5.93184 7.35934 5.44576 7.35934 4.93853V3.22315C7.35934 2.02368 6.38346 1.04785 5.18399 1.04785H4.1835C2.98404 1.04785 2.00821 2.02373 2.00821 3.22315V4.93853C2.00821 5.44576 2.19595 5.93189 2.53692 6.30733L3.19376 7.03072V7.70758H2.14112C0.9605 7.70758 0 8.66808 0 9.8487V12.2762C0 12.4839 0.168262 12.6521 0.375831 12.6521H6.2234C6.43097 12.6521 6.59923 12.4839 6.59923 12.2762C6.59923 12.0686 6.43097 11.9004 6.2234 11.9004H0.751662V9.8487C0.751662 9.08258 1.37495 8.45924 2.14112 8.45924H3.56959C3.77716 8.45924 3.94542 8.29103 3.94542 8.08341V6.86856C3.94542 6.73785 3.87867 6.62271 3.7774 6.55538L3.09337 5.80206C2.87828 5.56519 2.75982 5.25855 2.75982 4.93858V3.22315C2.75982 2.43814 3.39844 1.79951 4.18346 1.79951H5.18404C5.96905 1.79951 6.60773 2.43814 6.60773 3.22315V4.93853C6.60773 5.2585 6.48927 5.56519 6.27418 5.80201L5.5901 6.55538C5.48888 6.62271 5.42218 6.73785 5.42218 6.86852V8.08336C5.42218 8.29098 5.59044 8.45919 5.79801 8.45919H7.22648C7.90885 8.45919 8.47751 8.95377 8.59377 9.60324C7.80631 9.98722 7.26247 10.7958 7.26247 11.7293V14.4634C7.26247 14.6711 7.43073 14.8393 7.6383 14.8393H17.3422C17.5498 14.8393 17.7181 14.6711 17.7181 14.4634V11.7293C17.7181 10.803 17.1823 9.99987 16.4045 9.61237C16.5171 8.95846 17.0879 8.45919 17.7735 8.45919H19.2019C19.4096 8.45919 19.5778 8.29098 19.5778 8.08336V6.86852C19.5778 6.73775 19.511 6.62262 19.4097 6.55528L18.7257 5.80201C18.5106 5.56519 18.3922 5.2585 18.3922 4.93853V3.22315C18.3922 2.43814 19.0308 1.79951 19.8159 1.79951H20.8164C21.6015 1.79951 22.2401 2.43814 22.2401 3.22315V4.93853C22.2401 5.2585 22.1217 5.56519 21.9066 5.80201L21.2226 6.55538C21.1213 6.62271 21.0546 6.73785 21.0546 6.86852V8.08336C21.0546 8.29098 21.2228 8.45919 21.4304 8.45919H22.8589C23.625 8.45919 24.2483 9.08248 24.2483 9.84865V11.9004H18.8412C18.6336 11.9004 18.4654 12.0686 18.4654 12.2762C18.4654 12.4838 18.6336 12.652 18.8412 12.652H24.6242C24.8318 12.652 25 12.4838 25 12.2762V9.84865C25 8.66808 24.0395 7.70758 22.8589 7.70758Z" fill="#9B907E"/>
		<path d="M16.2796 19.6026C16.2363 19.4689 16.1218 19.3706 15.9831 19.3478L13.93 19.0108L12.9751 17.1624C12.9106 17.0375 12.7818 16.959 12.6412 16.959C12.5006 16.959 12.3718 17.0374 12.3073 17.1624L11.3524 19.0108L9.29937 19.3478C9.16065 19.3706 9.04625 19.4689 9.00279 19.6026C8.95933 19.7363 8.99415 19.883 9.09297 19.983L10.5558 21.4624L10.2419 23.519C10.2207 23.658 10.2787 23.7972 10.3925 23.8797C10.4579 23.9273 10.5355 23.9516 10.6134 23.9516C10.671 23.9516 10.7288 23.9383 10.7821 23.9115L12.6411 22.9775L14.5002 23.9115C14.6258 23.9747 14.7761 23.9625 14.8898 23.8797C15.0035 23.7972 15.0616 23.658 15.0404 23.519L14.7264 21.4624L16.1892 19.983C16.2883 19.883 16.3231 19.7363 16.2796 19.6026ZM14.0594 21.0681C13.9758 21.1526 13.9372 21.2716 13.9551 21.389L14.1878 22.9131L12.81 22.221C12.7038 22.1676 12.5787 22.1676 12.4726 22.221L11.0948 22.9131L11.3275 21.389C11.3454 21.2715 11.3067 21.1525 11.2232 21.0681L10.139 19.9717L11.6605 19.722C11.7777 19.7027 11.879 19.6291 11.9335 19.5236L12.6412 18.1537L13.3488 19.5236C13.4034 19.6291 13.5046 19.7027 13.6218 19.722L15.1433 19.9717L14.0594 21.0681Z" fill="#9B907E"/>
		<path d="M24.5062 16.8399C24.4627 16.7062 24.3484 16.6079 24.2097 16.5851L22.1567 16.2481L21.2017 14.3997C21.1372 14.2748 21.0084 14.1963 20.8678 14.1963C20.7272 14.1963 20.5985 14.2747 20.534 14.3997L19.579 16.2481L17.5259 16.5851C17.3872 16.6079 17.2728 16.7062 17.2294 16.8399C17.1859 16.9736 17.2207 17.1204 17.3195 17.2203L18.7824 18.6997L18.4684 20.7564C18.4472 20.8953 18.5053 21.0345 18.6191 21.1171C18.7328 21.1997 18.8831 21.2121 19.0087 21.1489L20.8677 20.2148L22.7267 21.1489C22.78 21.1757 22.8379 21.1889 22.8954 21.1889C22.9734 21.1889 23.0509 21.1647 23.1163 21.1171C23.2301 21.0345 23.2882 20.8953 23.267 20.7564L22.953 18.6997L24.4158 17.2203C24.5149 17.1204 24.5496 16.9736 24.5062 16.8399ZM22.286 18.3054C22.2024 18.3899 22.1638 18.509 22.1817 18.6264L22.4143 20.1505L21.0366 19.4584C20.9835 19.4317 20.9257 19.4183 20.8678 19.4183C20.81 19.4183 20.7522 19.4317 20.6991 19.4584L19.3214 20.1505L19.554 18.6264C19.5719 18.5089 19.5333 18.3898 19.4497 18.3054L18.3656 17.2091L19.8871 16.9594C20.0044 16.9401 20.1056 16.8665 20.1601 16.761L20.8677 15.3911L21.5755 16.761C21.63 16.8665 21.7312 16.9401 21.8485 16.9594L23.3699 17.2091L22.286 18.3054Z" fill="#9B907E"/>
		<path d="M8.0531 16.8399C8.00969 16.7062 7.89523 16.6079 7.75651 16.5851L5.70348 16.2481L4.74855 14.3997C4.684 14.2748 4.55524 14.1963 4.41461 14.1963C4.27399 14.1963 4.14523 14.2747 4.08068 14.3997L3.12584 16.2481L1.07281 16.5852C0.934087 16.608 0.819683 16.7062 0.776226 16.8399C0.732768 16.9736 0.767583 17.1204 0.866411 17.2204L2.32926 18.6997L2.01534 20.7564C1.99415 20.8954 2.0522 21.0346 2.16597 21.1172C2.2797 21.1998 2.42999 21.2121 2.55557 21.1489L4.41461 20.2149L6.2736 21.1489C6.32692 21.1757 6.38473 21.189 6.44225 21.189C6.52023 21.189 6.59782 21.1648 6.6632 21.1172C6.77697 21.0346 6.83503 20.8954 6.81383 20.7564L6.49992 18.6997L7.96271 17.2204C8.06169 17.1204 8.09655 16.9736 8.0531 16.8399ZM5.83278 18.3054C5.74923 18.3899 5.71056 18.509 5.72848 18.6264L5.9611 20.1505L4.58341 19.4584C4.53033 19.4316 4.47252 19.4183 4.41466 19.4183C4.3568 19.4183 4.29899 19.4317 4.24591 19.4584L2.86817 20.1505L3.10084 18.6264C3.11876 18.5089 3.08009 18.3899 2.99654 18.3054L1.91256 17.2091L3.43404 16.9594C3.55128 16.9401 3.65255 16.8665 3.70709 16.761L4.41476 15.3911L5.12243 16.761C5.17697 16.8665 5.27824 16.9401 5.39547 16.9594L6.91696 17.2091L5.83278 18.3054Z" fill="#9B907E"/>
	</symbol>

	<symbol id="icon-step4">
		<!-- width="25" height="25" viewBox="0 0 25 25" -->
		<path d="M21.0938 17.8711C20.5542 17.8711 20.1172 18.3081 20.1172 18.8477C20.1172 19.3872 20.5542 19.8242 21.0938 19.8242C21.6333 19.8242 22.0703 19.3872 22.0703 18.8477C22.0703 18.3081 21.6333 17.8711 21.0938 17.8711Z" fill="#9B907E"/>
		<path d="M20.6055 13.9648C20.336 13.9648 20.1172 14.1836 20.1172 14.4531C20.1172 14.7226 20.336 14.9414 20.6055 14.9414C20.875 14.9414 21.0938 14.7226 21.0938 14.4531C21.0938 14.1836 20.875 13.9648 20.6055 13.9648Z" fill="#9B907E"/>
		<path d="M6.15234 17.8711C5.61275 17.8711 5.17578 18.3081 5.17578 18.8477C5.17578 19.3872 5.61275 19.8242 6.15234 19.8242C6.69193 19.8242 7.12891 19.3872 7.12891 18.8477C7.12891 18.3081 6.69193 17.8711 6.15234 17.8711Z" fill="#9B907E"/>
		<path d="M22.9477 12.043L22.1058 8.67538C22.4051 8.38909 22.5586 8.00934 22.5586 7.61719C22.5586 6.80943 21.9015 6.15234 21.0938 6.15234H17.1875V4.6875C17.1875 3.87974 16.5304 3.22266 15.7227 3.22266H1.46484C0.657082 3.22266 0 3.87974 0 4.6875V17.3828C0 18.1906 0.657082 18.8477 1.46484 18.8477H3.22266C3.22266 20.4632 4.53682 21.7773 6.15234 21.7773C7.76787 21.7773 9.08203 20.4632 9.08203 18.8477H18.1641C18.1641 20.4632 19.4782 21.7773 21.0938 21.7773C22.7093 21.7773 24.0234 20.4632 24.0234 18.8477C24.0234 18.8198 24.0221 18.7922 24.0213 18.7643C24.5907 18.5635 25 18.0201 25 17.3828V14.4531C25 13.2393 24.1096 12.2299 22.9477 12.043ZM21.2008 9.08203L21.9332 12.0117H17.878L18.9976 10.8921C19.1883 10.7014 19.1883 10.3924 18.9976 10.2016C18.8068 10.0109 18.4978 10.0109 18.3071 10.2016L17.1875 11.3211V9.08203H21.2008ZM21.582 7.61719C21.582 7.8867 21.3633 8.10547 21.0938 8.10547H17.1875V7.12891H21.0938C21.3631 7.12891 21.582 7.34787 21.582 7.61719ZM6.15234 20.8008C5.07545 20.8008 4.19922 19.9245 4.19922 18.8477C4.19922 17.7561 5.09129 16.8945 6.15234 16.8945C7.21588 16.8945 8.10547 17.7584 8.10547 18.8477C8.10547 19.9245 7.22923 20.8008 6.15234 20.8008ZM8.91438 17.8711C8.50658 16.7189 7.4028 15.918 6.15234 15.918C4.90131 15.918 3.79715 16.7194 3.39012 17.8711H1.46484C1.19553 17.8711 0.976562 17.6521 0.976562 17.3828V4.6875C0.976562 4.41818 1.19553 4.19922 1.46484 4.19922H15.7227C15.992 4.19922 16.2109 4.41818 16.2109 4.6875V17.8711H8.91438ZM21.0938 20.8008C20.0169 20.8008 19.1406 19.9245 19.1406 18.8477C19.1406 17.7561 20.0327 16.8945 21.0938 16.8945C22.1573 16.8945 23.0469 17.7584 23.0469 18.8477C23.0469 19.9245 22.1706 20.8008 21.0938 20.8008ZM23.8211 17.7778C23.3879 16.6758 22.3103 15.918 21.0938 15.918C19.8427 15.918 18.7386 16.7194 18.3315 17.8711H17.1875V12.9883H22.5586C23.1951 12.9883 23.7379 13.3965 23.9395 13.9648H22.5586C22.2889 13.9648 22.0703 14.1834 22.0703 14.4531C22.0703 14.7228 22.2889 14.9414 22.5586 14.9414H24.0234V17.3828C24.0234 17.5451 23.9433 17.6889 23.8211 17.7778Z" fill="#9B907E"/>
		<path d="M8.59375 6.15234C6.17065 6.15234 4.19922 8.12378 4.19922 10.5469C4.19922 12.97 6.17065 14.9414 8.59375 14.9414C11.0168 14.9414 12.9883 12.97 12.9883 10.5469C12.9883 8.12378 11.0168 6.15234 8.59375 6.15234ZM8.59375 13.9648C6.7091 13.9648 5.17578 12.4315 5.17578 10.5469C5.17578 8.66222 6.7091 7.12891 8.59375 7.12891C10.4784 7.12891 12.0117 8.66222 12.0117 10.5469C12.0117 12.4315 10.4784 13.9648 8.59375 13.9648Z" fill="#9B907E"/>
		<path d="M10.5469 10.0586H9.08203V8.59375C9.08203 8.32405 8.86345 8.10547 8.59375 8.10547C8.32405 8.10547 8.10547 8.32405 8.10547 8.59375V10.5469C8.10547 10.8166 8.32405 11.0352 8.59375 11.0352H10.5469C10.8166 11.0352 11.0352 10.8166 11.0352 10.5469C11.0352 10.2772 10.8166 10.0586 10.5469 10.0586Z" fill="#9B907E"/>
	</symbol>

	<symbol id="icon-step5">
		<!-- width="25" height="25" viewBox="0 0 25 25" -->
		<g cip-path="url(#clip0)">
			<path d="M11.7784 12.58C11.5875 12.7707 11.5875 13.0805 11.7784 13.2718C11.9694 13.4631 12.2784 13.4631 12.4689 13.2718C12.6598 13.0805 12.6598 12.7707 12.4689 12.58C12.2784 12.3887 11.9694 12.3887 11.7784 12.58Z" fill="#9B907E"/>
			<path d="M19.5429 1.45559C18.705 2.10555 18.4767 2.44057 15.505 5.38726L13.7235 5.09659L14.541 4.2775C15.1136 3.70379 15.1138 2.77558 14.541 2.20187C13.9686 1.62836 13.0417 1.62817 12.4693 2.20187L10.1602 4.51543L2.08489 3.19812C1.56304 3.11327 1.02917 3.28622 0.655711 3.66041C-0.0624064 4.37993 0.0350592 5.57034 0.854267 6.16431L8.90157 12.0034L7.39496 13.5132C6.87864 14.0305 6.33523 14.742 5.77676 15.6305L2.02385 14.5247C1.46996 14.3617 0.871814 14.5144 0.462687 14.9236C-0.233877 15.6215 -0.128591 16.7806 0.680507 17.342L3.75706 19.4759C3.22148 20.6602 2.8959 21.5166 2.88083 21.5562C2.81254 21.7362 2.85622 21.9397 2.99203 22.0758C3.12859 22.2126 3.33192 22.2552 3.51063 22.1872C3.55012 22.1723 4.4048 21.8459 5.58679 21.3092L7.71673 24.392C8.27806 25.204 9.43487 25.3068 10.1307 24.6097C10.5388 24.2001 10.6912 23.6008 10.5284 23.0458L9.42495 19.2858C10.3122 18.7258 11.022 18.1814 11.5381 17.6644L13.0449 16.1547L18.8724 24.2177C19.4662 25.0399 20.6543 25.1354 21.3716 24.4167C21.7449 24.0427 21.9175 23.5074 21.833 22.9843L20.5183 14.8937L22.8271 12.5804C23.3997 12.0067 23.3997 11.0779 22.8271 10.5044C22.2547 9.93067 21.3283 9.93067 20.7558 10.5044L19.9381 11.3235L19.6482 9.53851C22.5922 6.55799 22.9212 6.33458 23.5702 5.49505C23.571 5.49409 23.572 5.49294 23.5727 5.4918C25.0788 3.53619 25.4312 1.56109 24.4492 0.576688C23.4669 -0.406945 21.4954 -0.0541594 19.5429 1.45559ZM13.1597 2.89387C13.3505 2.70257 13.6597 2.70257 13.8506 2.89387C14.0415 3.08517 14.0413 3.3942 13.8506 3.58549L12.5356 4.9028L11.3479 4.70902L13.1597 2.89387ZM1.42685 5.37159C1.09269 5.12946 1.05435 4.64462 1.34636 4.35222C1.49838 4.19972 1.7162 4.1292 1.9283 4.16379L14.6541 6.23979L9.601 11.3026L1.42685 5.37159ZM1.15315 15.6157C1.30917 15.4596 1.53729 15.4011 1.74843 15.4634L5.25853 16.4977C4.89957 17.1276 4.53736 17.8234 4.17611 18.5766L1.2365 16.5377C0.928081 16.3236 0.887645 15.8816 1.15315 15.6157ZM9.43983 23.9182C9.17661 24.182 8.73487 24.1464 8.51953 23.8349L6.48458 20.8894C7.23684 20.527 7.93149 20.1639 8.55939 19.805L9.59146 23.3218C9.65364 23.5335 9.59547 23.7621 9.43983 23.9182ZM21.4464 11.1962C21.6371 11.0051 21.9458 11.0049 22.1367 11.1962C22.3276 11.3875 22.3274 11.6971 22.1367 11.8884L20.3249 13.7035L20.1317 12.5135L21.4464 11.1962ZM20.8691 23.1412C20.9036 23.3543 20.8332 23.5725 20.6812 23.7248C20.3907 24.0159 19.9064 23.9804 19.6636 23.644L13.7441 15.4541L18.7973 10.391L20.8691 23.1412ZM10.8476 16.9724C10.3103 17.511 9.52394 18.0923 8.51037 18.7006C7.19278 19.4912 5.63352 20.24 4.22704 20.8385C4.84063 19.3911 5.60205 17.8036 6.40809 16.4683C6.99765 15.491 7.56204 14.7294 8.08561 14.205C20.013 2.2829 19.3064 2.89789 20.0302 2.31787C20.8332 2.26647 21.5401 2.50535 22.0322 2.99841C22.5243 3.49147 22.7629 4.19991 22.7116 5.00428C22.1313 5.73126 22.7379 5.03008 10.8476 16.9724ZM23.5472 3.7187C23.3911 3.17939 23.114 2.69856 22.7228 2.3066C22.3316 1.91483 21.8517 1.63696 21.3137 1.48063C22.0203 1.12154 23.2103 0.719446 23.7587 1.2685C24.1917 1.70251 24.0841 2.65786 23.5472 3.7187Z" fill="#9B907E"/>
			<path d="M14.5406 9.81325L13.1597 11.1967C12.9689 11.3878 12.9689 11.6976 13.1597 11.8887C13.3504 12.0798 13.6594 12.0796 13.8503 11.8887L15.231 10.5051C15.4218 10.3141 15.4218 10.0044 15.231 9.81325C15.0403 9.62214 14.7313 9.62214 14.5406 9.81325Z" fill="#9B907E"/>
			<path d="M17.3027 7.0447L15.9212 8.4287C15.7307 8.61981 15.7307 8.9296 15.9212 9.1207C16.1122 9.31162 16.4211 9.31162 16.6119 9.1207L17.9932 7.7367C18.1839 7.54559 18.1839 7.23581 17.9932 7.0447C17.8024 6.85359 17.4935 6.85359 17.3027 7.0447Z" fill="#9B907E"/>
		</g>
		<defs>
			<clipPath id="clip0">
				<rect width="25" height="25" fill="white"/>
			</clipPath>
		</defs>
	</symbol>

	<symbol id="icon-facebook">
		<!-- width="22" height="21" viewBox="0 0 22 21" -->
		<g clip-path="url(#clip0)">
			<path d="M21.0479 10.5C21.0479 4.70039 16.3983 0 10.6614 0C4.92447 0 0.274902 4.70039 0.274902 10.5C0.274902 15.7418 4.07246 20.0854 9.03849 20.8729V13.5352H6.4013V10.5H9.03849V8.18672C9.03849 5.55557 10.5883 4.10156 12.9618 4.10156C14.0978 4.10156 15.2866 4.30664 15.2866 4.30664V6.89062H13.9761C12.6859 6.89062 12.2843 7.70068 12.2843 8.53125V10.5H15.1649L14.7044 13.5352H12.2843V20.8729C17.2503 20.0854 21.0479 15.7418 21.0479 10.5Z"/>
		</g>
		<defs>
			<clipPath id="clip0">
				<rect width="20.7729" height="21" fill="white" transform="translate(0.274902)"/>
			</clipPath>
		</defs>
	</symbol>

	<symbol id="icon-twitter">
		<!-- width="22" height="21" viewBox="0 0 22 21" -->
		<path fill-rule="evenodd" clip-rule="evenodd" d="M11.283 0C5.54667 0 0.896484 4.70101 0.896484 10.5C0.896484 16.299 5.54667 21 11.283 21C17.0193 21 21.6694 16.299 21.6694 10.5C21.6694 4.70101 17.0193 0 11.283 0ZM10.9937 8.89786L10.9719 8.53454C10.9065 7.59286 11.4804 6.73275 12.3886 6.39908C12.7228 6.28045 13.2895 6.26562 13.66 6.36942C13.8053 6.41391 14.0814 6.56221 14.2775 6.69567L14.6335 6.94036L15.0258 6.81431C15.2438 6.74758 15.5344 6.63635 15.6652 6.56221C15.7887 6.49547 15.8976 6.4584 15.8976 6.48065C15.8976 6.6067 15.6288 7.03675 15.4036 7.27402C15.0985 7.60769 15.1857 7.63735 15.8032 7.41491C16.1737 7.28885 16.181 7.28885 16.1083 7.42974C16.0647 7.50388 15.8395 7.7634 15.5998 8.00067C15.1929 8.40848 15.1711 8.45297 15.1711 8.79405C15.1711 9.3205 14.9241 10.4179 14.6771 11.0185C14.2194 12.1455 13.2386 13.3096 12.2578 13.8954C10.8774 14.7185 9.03936 14.9261 7.49189 14.4441C6.97607 14.281 6.08972 13.8658 6.08972 13.7916C6.08972 13.7694 6.35853 13.7397 6.68546 13.7323C7.36838 13.7175 8.05131 13.5247 8.63251 13.1836L9.02483 12.9463L8.57439 12.7906C7.93506 12.5682 7.36112 12.0566 7.21582 11.5746C7.17222 11.4189 7.18676 11.4115 7.5936 11.4115L8.01498 11.4041L7.65899 11.2335C7.23761 11.0185 6.85256 10.6552 6.66367 10.2844C6.52563 10.0175 6.35127 9.34275 6.40212 9.29084C6.41665 9.2686 6.56922 9.31309 6.74358 9.37241C7.24488 9.55777 7.31026 9.51329 7.01966 9.20187C6.47477 8.63834 6.30768 7.80047 6.56922 7.00709L6.69273 6.65118L7.17222 7.13314C8.15302 8.10448 9.30817 8.68283 10.6304 8.85337L10.9937 8.89786Z"/>
	</symbol>

	<symbol id="icon-inst">
		<!-- width="22" height="21" viewBox="0 0 22 21" -->
		<path fill-rule="evenodd" clip-rule="evenodd" d="M10.904 0C5.16773 0 0.517578 4.70101 0.517578 10.5C0.517578 16.299 5.16773 21 10.904 21C16.6402 21 21.2904 16.299 21.2904 10.5C21.2904 4.70101 16.6402 0 10.904 0ZM8.6204 4.93383C9.21128 4.90664 9.40009 4.89999 10.9045 4.89999H10.9028C12.4077 4.89999 12.5958 4.90664 13.1867 4.93383C13.7764 4.96113 14.1792 5.05551 14.5323 5.19399C14.897 5.33691 15.2051 5.52825 15.5132 5.83975C15.8214 6.15102 16.0106 6.46346 16.1526 6.83178C16.2888 7.18785 16.3823 7.59479 16.41 8.19096C16.4365 8.7883 16.4434 8.97917 16.4434 10.5C16.4434 12.0209 16.4365 12.2113 16.41 12.8087C16.3823 13.4046 16.2888 13.8117 16.1526 14.1679C16.0106 14.5361 15.8214 14.8485 15.5132 15.1598C15.2055 15.4713 14.8969 15.6631 14.5326 15.8061C14.1802 15.9446 13.7772 16.039 13.1875 16.0663C12.5966 16.0935 12.4084 16.1001 10.9038 16.1001C9.39951 16.1001 9.21082 16.0935 8.61994 16.0663C8.03033 16.039 7.62768 15.9446 7.27523 15.8061C6.91113 15.6631 6.60207 15.4713 6.29428 15.1598C5.98627 14.8485 5.797 14.5361 5.6554 14.1677C5.51853 13.8117 5.42516 13.4047 5.39804 12.8086C5.37127 12.2112 5.36457 12.0209 5.36457 10.5C5.36457 8.97917 5.3715 8.78818 5.39793 8.19084C5.42447 7.5949 5.51795 7.18785 5.65528 6.83166C5.79723 6.46346 5.9865 6.15102 6.29463 5.83975C6.60253 5.52836 6.91159 5.33703 7.27593 5.19399C7.62814 5.05551 8.03068 4.96113 8.6204 4.93383Z"/>
		<path fill-rule="evenodd" clip-rule="evenodd" d="M10.4076 5.90911C10.5041 5.90896 10.6079 5.90901 10.7199 5.90906L10.9045 5.90911C12.3835 5.90911 12.5588 5.91448 13.1429 5.94132C13.683 5.96628 13.9761 6.05752 14.1714 6.13417C14.4299 6.23567 14.6142 6.357 14.808 6.553C15.0019 6.74901 15.1219 6.93568 15.2225 7.19701C15.2983 7.39418 15.3887 7.69052 15.4133 8.23652C15.4398 8.82686 15.4456 9.0042 15.4456 10.4987C15.4456 11.9932 15.4398 12.1706 15.4133 12.7609C15.3886 13.3069 15.2983 13.6032 15.2225 13.8004C15.1221 14.0617 15.0019 14.2478 14.808 14.4437C14.6141 14.6397 14.43 14.7611 14.1714 14.8626C13.9764 14.9396 13.683 15.0306 13.1429 15.0555C12.559 15.0824 12.3835 15.0882 10.9045 15.0882C9.42534 15.0882 9.25004 15.0824 8.66609 15.0555C8.12599 15.0303 7.83286 14.9391 7.63748 14.8624C7.37897 14.7609 7.19432 14.6396 7.00044 14.4436C6.80655 14.2476 6.68653 14.0614 6.5859 13.7999C6.51008 13.6028 6.41971 13.3064 6.39513 12.7604C6.36859 12.1701 6.36328 11.9928 6.36328 10.4973C6.36328 9.00186 6.36859 8.82546 6.39513 8.23512C6.41983 7.68912 6.51008 7.39278 6.5859 7.19538C6.6863 6.93404 6.80655 6.74737 7.00044 6.55137C7.19432 6.35537 7.37897 6.23403 7.63748 6.1323C7.83274 6.0553 8.12599 5.9643 8.66609 5.93922C9.17711 5.91588 9.37514 5.90888 10.4076 5.90771V5.90911ZM13.8614 6.83897C13.4944 6.83897 13.1967 7.13978 13.1967 7.5111C13.1967 7.8823 13.4944 8.18346 13.8614 8.18346C14.2284 8.18346 14.5262 7.8823 14.5262 7.5111C14.5262 7.1399 14.2284 6.83874 13.8614 6.83874V6.83897ZM8.05975 10.5009C8.05975 8.91269 9.33342 7.62505 10.9044 7.62499C12.4754 7.62499 13.7488 8.91265 13.7488 10.5009C13.7488 12.0891 12.4755 13.3761 10.9045 13.3761C9.33348 13.3761 8.05975 12.0891 8.05975 10.5009Z"/>
		<path d="M10.9046 8.6333C11.9243 8.6333 12.7511 9.46899 12.7511 10.5C12.7511 11.5309 11.9243 12.3667 10.9046 12.3667C9.88476 12.3667 9.05811 11.5309 9.05811 10.5C9.05811 9.46899 9.88476 8.6333 10.9046 8.6333Z"/>
	</symbol>

	<symbol id="icon-more">
		<!-- width="41" height="8" viewBox="0 0 41 8" -->
		<path d="M40.3536 4.35356C40.5488 4.15829 40.5488 3.84171 40.3536 3.64645L37.1716 0.464469C36.9763 0.269207 36.6597 0.269207 36.4645 0.464469C36.2692 0.659731 36.2692 0.976314 36.4645 1.17158L39.2929 4L36.4645 6.82843C36.2692 7.02369 36.2692 7.34027 36.4645 7.53554C36.6597 7.7308 36.9763 7.7308 37.1716 7.53554L40.3536 4.35356ZM-4.37114e-08 4.5L40 4.5L40 3.5L4.37114e-08 3.5L-4.37114e-08 4.5Z"/>
	</symbol>

	<symbol id="icon-small-more">
		<!-- width="21" height="8" viewBox="0 0 21 8" -->
		<path d="M20.3536 4.35355C20.5488 4.15829 20.5488 3.84171 20.3536 3.64644L17.1716 0.464465C16.9763 0.269202 16.6597 0.269202 16.4645 0.464465C16.2692 0.659727 16.2692 0.976309 16.4645 1.17157L19.2929 4L16.4645 6.82843C16.2692 7.02369 16.2692 7.34027 16.4645 7.53553C16.6597 7.73079 16.9763 7.73079 17.1716 7.53553L20.3536 4.35355ZM4.37114e-08 4.5L20 4.5L20 3.5L-4.37114e-08 3.5L4.37114e-08 4.5Z" fill="#5D1324"/>
	</symbol>

	<symbol id="icon-quote">
		<!-- width="46" height="40" viewBox="0 0 46 40" -->
		<path d="M36.9449 40C41.661 40 45.4839 35.9297 45.4839 30.9091C45.4839 25.8879 41.661 21.8182 36.9449 21.8182C28.4065 21.8182 34.099 4.24243 45.4839 4.24243L45.4839 3.8147e-06C25.1658 5.62266e-06 17.2026 40 36.9449 40ZM12.3453 40C17.0614 40 20.8843 35.9297 20.8843 30.9091C20.8843 25.8879 17.0614 21.8182 12.3453 21.8182C3.80695 21.8182 9.49941 4.24243 20.8843 4.24243L20.8843 6.00364e-06C0.56625 7.81161e-06 -7.39698 40 12.3453 40Z" fill="#5D1324"/>
	</symbol>

	<symbol id="icon-dispatch">
		<!-- width="41" height="41" viewBox="0 0 41 41" -->
		<path d="M33.6187 13.6615L35.3426 11.9373C36.2791 11.001 36.2791 9.47706 35.3426 8.54021C34.4061 7.60367 32.8821 7.60367 31.9455 8.54021L30.105 10.3808C28.185 9.04351 25.9963 8.11792 23.7031 7.67374V5.28516H25.3047C25.747 5.28516 26.1055 4.92668 26.1055 4.48438V2.40234C26.1055 1.07761 25.0279 0 23.7031 0H17.2969C15.9721 0 14.8945 1.07761 14.8945 2.40234V4.48438C14.8945 4.92668 15.253 5.28516 15.6953 5.28516H17.2969V7.67374C15.004 8.11761 12.815 9.04351 10.895 10.3808L9.05446 8.54021C8.11823 7.60367 6.59425 7.60367 5.65739 8.54021C4.72086 9.47675 4.72086 11.0007 5.65739 11.9373L7.38126 13.6615C4.99174 16.6378 3.68359 20.3452 3.68359 24.1836C3.68359 33.4561 11.2275 41 20.5 41C29.7725 41 37.3164 33.4561 37.3164 24.1836C37.3164 20.3452 36.0083 16.6378 33.6187 13.6615ZM33.0779 9.67256C33.3904 9.36038 33.8981 9.36069 34.2103 9.67256C34.5221 9.98474 34.5221 10.4927 34.2103 10.8049L32.5555 12.4593C32.1826 12.0765 31.7916 11.7114 31.385 11.3658L33.0779 9.67256ZM16.4961 2.40234C16.4961 1.96066 16.8552 1.60156 17.2969 1.60156H23.7031C24.1448 1.60156 24.5039 1.96066 24.5039 2.40234V3.68359H16.4961V2.40234ZM22.1016 5.28516V7.44289C21.0402 7.34341 19.9601 7.34341 18.8984 7.44289V5.28516H22.1016ZM6.78975 9.67256C7.10193 9.36069 7.60992 9.36038 7.9221 9.67256L9.61501 11.3658C9.20836 11.7114 8.81735 12.0765 8.44449 12.4593L6.78975 10.8049C6.47788 10.4927 6.47788 9.98474 6.78975 9.67256ZM20.5 39.3984C12.1106 39.3984 5.28516 32.573 5.28516 24.1836C5.28516 20.4828 6.62865 16.9171 9.06791 14.1429C9.73981 13.3787 10.4896 12.6805 11.2963 12.0668C13.318 10.5284 15.711 9.51585 18.2165 9.13829C18.9663 9.02599 19.7346 8.96875 20.5 8.96875C21.2654 8.96875 22.0337 9.02599 22.7832 9.13829C25.289 9.51585 27.682 10.5284 29.704 12.0668C30.5104 12.6805 31.2602 13.3787 31.9321 14.1429C34.3713 16.9171 35.7148 20.4828 35.7148 24.1836C35.7148 32.573 28.8894 39.3984 20.5 39.3984Z" fill="#5D1324"/>
		<path d="M20.5 26.5859C21.8247 26.5859 22.9023 25.5083 22.9023 24.1836C22.9023 23.1398 22.2329 22.2495 21.3008 21.9189V16.1758C21.3008 15.7335 20.9423 15.375 20.5 15.375C20.0577 15.375 19.6992 15.7335 19.6992 16.1758V21.9189C18.7671 22.2495 18.0977 23.1398 18.0977 24.1836C18.0977 25.5083 19.1753 26.5859 20.5 26.5859ZM20.5 23.3828C20.9417 23.3828 21.3008 23.7419 21.3008 24.1836C21.3008 24.6253 20.9417 24.9844 20.5 24.9844C20.0583 24.9844 19.6992 24.6253 19.6992 24.1836C19.6992 23.7419 20.0583 23.3828 20.5 23.3828Z" fill="#5D1324"/>
		<path d="M29.0305 15.7342C29.018 15.7195 29.0055 15.7048 28.9914 15.691C28.9764 15.6757 28.9604 15.6619 28.9445 15.6481C27.5331 14.2518 25.7895 13.2186 23.8974 12.6599C23.4729 12.5348 23.0278 12.7769 22.9027 13.2011C22.7775 13.6252 23.0196 14.0707 23.4438 14.1958C24.8458 14.6099 26.1536 15.3256 27.2685 16.2813L26.7283 16.8215C26.4158 17.1343 26.4158 17.6413 26.7283 17.9541C26.8847 18.1105 27.0896 18.1887 27.2948 18.1887C27.4996 18.1887 27.7045 18.1105 27.8609 17.9541L28.4024 17.4127C29.8513 19.0974 30.7118 21.1713 30.8795 23.3816H30.1094C29.6671 23.3816 29.3086 23.7404 29.3086 24.1824C29.3086 24.6247 29.6671 24.9832 30.1094 24.9832H30.8795C30.7118 27.1938 29.8513 29.2674 28.4024 30.9521L27.8609 30.4107C27.5481 30.0982 27.0411 30.0982 26.7283 30.4107C26.4155 30.7235 26.4155 31.2305 26.7283 31.5433L27.2697 32.0848C25.585 33.5337 23.5111 34.3942 21.3008 34.5622V33.7918C21.3008 33.3495 20.9423 32.991 20.5 32.991C20.0577 32.991 19.6992 33.3495 19.6992 33.7918V34.5619C17.4889 34.3942 15.415 33.5337 13.7303 32.0848L14.2717 31.5433C14.5845 31.2305 14.5845 30.7235 14.2717 30.4107C13.9589 30.0982 13.4519 30.0982 13.1391 30.4107L12.5976 30.9521C11.1487 29.2674 10.2882 27.1935 10.1205 24.9832H10.8906C11.3329 24.9832 11.6914 24.6247 11.6914 24.1824C11.6914 23.7401 11.3329 23.3816 10.8906 23.3816H10.1205C10.2882 21.1713 11.1487 19.0974 12.5976 17.4127L13.1391 17.9541C13.2955 18.1105 13.5004 18.1887 13.7052 18.1887C13.9104 18.1887 14.1153 18.1105 14.2717 17.9541C14.5842 17.6413 14.5842 17.1343 14.2717 16.8215L13.7315 16.2813C14.8464 15.3253 16.1542 14.6099 17.5562 14.1958C17.9804 14.0707 18.2225 13.6252 18.0973 13.2011C17.9722 12.7769 17.5274 12.5351 17.1026 12.6599C15.2108 13.2183 13.4678 14.2511 12.0568 15.6469C12.0402 15.661 12.0239 15.6753 12.0086 15.6907C11.9948 15.7044 11.9826 15.7188 11.9701 15.7332C9.72449 17.9998 8.48828 20.9977 8.48828 24.1824C8.48828 27.3668 9.72449 30.3644 11.9695 32.6306C11.982 32.6453 11.9945 32.66 12.0086 32.6738C12.0224 32.6879 12.0367 32.7001 12.0511 32.7126C14.3177 34.9579 17.3153 36.1941 20.5 36.1941C23.6844 36.1941 26.682 34.9582 28.9482 32.7132C28.9629 32.7004 28.9776 32.6879 28.9914 32.6738C29.0052 32.6604 29.0174 32.6457 29.0299 32.6316C31.2755 30.365 32.5117 27.3671 32.5117 24.1824C32.5117 20.998 31.2755 18.0004 29.0305 15.7342Z" fill="#5D1324"/>
		<path d="M20.5 13.7734C20.942 13.7734 21.3008 13.4146 21.3008 12.9727C21.3008 12.5307 20.942 12.1719 20.5 12.1719C20.058 12.1719 19.6992 12.5307 19.6992 12.9727C19.6992 13.4146 20.058 13.7734 20.5 13.7734Z" fill="#5D1324"/>
	</symbol>

	<symbol id="icon-arrows">
		<!-- width="13" height="7" viewBox="0 0 13 7" -->
		<path d="M1.17187 1L6.08671 6L11.0016 1" fill="none" stroke-width="2" stroke-linecap="round" stroke-linejoin="round"/>
	</symbol>

	<symbol id="icon-checked">
		<!-- width="13" height="7" viewBox="0 0 13 7" -->
		<path d="M1.17187 1L6.08671 6L11.0016 1" stroke="white" stroke-width="2" stroke-linecap="round" stroke-linejoin="round"/>
	</symbol>

	<symbol id="icon-service1">
		<!-- width="50" height="58" viewBox="0 0 50 58" -->
		<path d="M49.9872 50.1362L46.4103 12.7387C46.3337 11.9084 45.58 11.2798 44.6985 11.2798H37.3403C37.2381 5.0409 31.745 0 25 0C18.255 0 12.7619 5.0409 12.6597 11.2798H5.30148C4.40726 11.2798 3.66633 11.9084 3.58968 12.7387L0.0127749 50.1362C0.0127749 50.1836 0 50.2311 0 50.2785C0 54.5366 4.20286 58 9.3766 58H40.6234C45.7971 58 50 54.5366 50 50.2785C50 50.2311 50 50.1836 49.9872 50.1362ZM25 3.20245C29.8416 3.20245 33.789 6.80818 33.8912 11.2798H16.1088C16.211 6.80818 20.1584 3.20245 25 3.20245ZM40.6234 54.7975H9.3766C6.13183 54.7975 3.50026 52.8049 3.44916 50.3497L6.87276 14.4941H12.6469V19.3571C12.6469 20.2466 13.4134 20.9583 14.3715 20.9583C15.3296 20.9583 16.0961 20.2466 16.0961 19.3571V14.4941H33.8912V19.3571C33.8912 20.2466 34.6576 20.9583 35.6157 20.9583C36.5738 20.9583 37.3403 20.2466 37.3403 19.3571V14.4941H43.1145L46.5508 50.3497C46.4997 52.8049 43.8554 54.7975 40.6234 54.7975Z" fill="black"/>
	</symbol>

	<symbol id="icon-service2">
		<!-- width="54" height="58" viewBox="0 0 54 58" -->
		<path d="M15.4122 38.1886H47.3703C50.994 38.1886 53.9502 35.2324 53.9502 31.6087V18.1627C53.9502 18.1507 53.9502 18.1269 53.9502 18.115C53.9502 18.0792 53.9502 18.0554 53.9502 18.0196C53.9502 17.9958 53.9502 17.9719 53.9383 17.9481C53.9383 17.9243 53.9264 17.8885 53.9264 17.8647C53.9264 17.8408 53.9144 17.817 53.9144 17.7931C53.9025 17.7693 53.9025 17.7455 53.8906 17.7097C53.8787 17.6859 53.8787 17.662 53.8668 17.6382C53.8548 17.6143 53.8548 17.5905 53.8429 17.5667C53.831 17.5428 53.8191 17.519 53.8072 17.4832C53.7952 17.4594 53.7833 17.4355 53.7714 17.4236C53.7595 17.3998 53.7476 17.3759 53.7356 17.3521C53.7237 17.3282 53.7118 17.3163 53.6999 17.2925C53.688 17.2686 53.6641 17.2448 53.6522 17.221C53.6403 17.1971 53.6284 17.1852 53.6045 17.1614C53.5926 17.1375 53.5688 17.1256 53.5568 17.1018C53.5449 17.0779 53.5211 17.066 53.5092 17.0422C53.4972 17.0183 53.4734 17.0064 53.4615 16.9945C53.4376 16.9706 53.4257 16.9587 53.4019 16.9349C53.378 16.923 53.3661 16.8991 53.3423 16.8872C53.3184 16.8753 53.2946 16.8514 53.2708 16.8395C53.2469 16.8276 53.235 16.8157 53.2112 16.8038C53.1873 16.7918 53.1635 16.7799 53.1396 16.7561C53.1158 16.7442 53.0919 16.7322 53.0681 16.7203C53.0443 16.7084 53.0204 16.6965 52.9966 16.6846C52.9727 16.6726 52.9489 16.6607 52.9251 16.6488C52.9012 16.6369 52.8774 16.6369 52.8535 16.625C52.8297 16.613 52.7939 16.6011 52.7701 16.6011C52.7463 16.6011 52.7224 16.5892 52.7105 16.5892C52.6747 16.5773 52.6509 16.5773 52.6151 16.5773C52.6032 16.5773 52.5913 16.5654 52.5675 16.5654L12.0626 10.9748V5.3246C12.0626 5.265 12.0626 5.2054 12.0507 5.15772C12.0507 5.1458 12.0507 5.13388 12.0388 5.11004C12.0388 5.07428 12.0269 5.03852 12.0269 5.00276C12.0149 4.967 12.0149 4.94316 12.003 4.9074C12.003 4.88356 11.9911 4.87164 11.9911 4.8478C11.9792 4.81204 11.9673 4.77628 11.9553 4.74052C11.9553 4.72859 11.9434 4.70475 11.9434 4.69283C11.9315 4.65707 11.9196 4.63323 11.8957 4.59747C11.8838 4.58555 11.8838 4.56171 11.8719 4.54979C11.86 4.52595 11.8481 4.50211 11.8242 4.47827C11.8123 4.45443 11.8004 4.44251 11.7885 4.41867C11.7765 4.39483 11.7646 4.38291 11.7527 4.35907C11.7408 4.33523 11.7169 4.31139 11.705 4.28755C11.6931 4.27563 11.6812 4.26371 11.6693 4.25179C11.6454 4.22795 11.6216 4.20411 11.5977 4.18027C11.5858 4.16835 11.5739 4.15643 11.562 4.14451C11.5381 4.12066 11.5143 4.09682 11.4785 4.07298C11.4666 4.06106 11.4428 4.04914 11.4308 4.03722C11.407 4.01338 11.3832 4.00146 11.3593 3.97762C11.3236 3.95378 11.2878 3.92994 11.264 3.91802C11.252 3.9061 11.2401 3.9061 11.2282 3.89418C11.1805 3.87034 11.1209 3.8465 11.0732 3.82266L2.28805 0.127397C1.46556 -0.218289 0.523864 0.163158 0.178178 0.985652C-0.167507 1.80815 0.213939 2.74984 1.03643 3.09553L8.83224 6.3855V13.6807V14.8369V23.7056V31.6325V41.6455C8.83224 44.9831 11.3355 47.7486 14.5659 48.1658C13.9818 49.1433 13.6361 50.2876 13.6361 51.5035C13.6361 55.0914 16.5565 58 20.1326 58C23.7087 58 26.6291 55.0795 26.6291 51.5035C26.6291 50.3114 26.3073 49.179 25.7351 48.2254H40.2062C39.634 49.1909 39.3122 50.3114 39.3122 51.5035C39.3122 55.0914 42.2326 58 45.8087 58C49.3848 58 52.3052 55.0795 52.3052 51.5035C52.3052 47.9274 49.3848 45.007 45.8087 45.007H15.4122C13.5526 45.007 12.0507 43.4931 12.0507 41.6455V37.2827C13.0282 37.8548 14.1844 38.1886 15.4122 38.1886ZM23.4226 51.4915C23.4226 53.3034 21.9445 54.7696 20.1445 54.7696C18.3446 54.7696 16.8665 53.2915 16.8665 51.4915C16.8665 49.6916 18.3446 48.2135 20.1445 48.2135C21.9445 48.2135 23.4226 49.6797 23.4226 51.4915ZM49.0987 51.4915C49.0987 53.3034 47.6206 54.7696 45.8206 54.7696C44.0207 54.7696 42.5426 53.2915 42.5426 51.4915C42.5426 49.6916 44.0207 48.2135 45.8206 48.2135C47.6206 48.2135 49.0987 49.6797 49.0987 51.4915ZM47.3703 34.9701H15.4122C13.5526 34.9701 12.0507 33.4563 12.0507 31.6087V23.6817V14.8131V14.2171L50.7318 19.5454V31.5967C50.7318 33.4682 49.2179 34.9701 47.3703 34.9701Z" fill="black"/>
	</symbol>

	<symbol id="icon-service3">
		<!-- width="58" height="58" viewBox="0 0 58 58" -->
		<path d="M55.0312 22.9134L50.9602 22.2228C50.5361 20.8537 49.9909 19.5331 49.3245 18.273L51.7235 14.9168C52.7413 13.4871 52.5838 11.5365 51.3358 10.3006L47.7252 6.69002C47.0467 6.01152 46.1501 5.63593 45.1929 5.63593C44.4417 5.63593 43.7269 5.86613 43.1211 6.30231L39.7528 8.70129C38.4443 8.01068 37.0752 7.44122 35.6576 7.01716L34.9791 2.99462C34.6883 1.26202 33.198 0.00195312 31.4412 0.00195312H26.3403C24.5835 0.00195312 23.0932 1.26202 22.8024 2.99462L22.0997 7.11409C20.7427 7.53815 19.4221 8.09549 18.162 8.77399L14.8301 6.37501C14.2243 5.93883 13.4973 5.70862 12.7461 5.70862C11.7889 5.70862 10.8802 6.08422 10.2138 6.76272L6.59114 10.3733C5.3553 11.6091 5.18568 13.5598 6.20343 14.9895L8.62664 18.3941C7.96026 19.6663 7.42715 20.987 7.01521 22.3561L2.99267 23.0346C1.26007 23.3254 0 24.8157 0 26.5725V31.6734C0 33.4302 1.26007 34.9205 2.99267 35.2113L7.11213 35.914C7.5362 37.271 8.09354 38.5916 8.77204 39.8517L6.38517 43.1715C5.36742 44.6012 5.52493 46.5519 6.77288 47.7877L10.3835 51.3983C11.062 52.0768 11.9586 52.4524 12.9157 52.4524C13.6669 52.4524 14.3818 52.2222 14.9876 51.786L18.3922 49.3628C19.6159 50.005 20.9002 50.526 22.2209 50.9379L22.8994 55.0089C23.1902 56.7415 24.6804 58.0016 26.4373 58.0016H31.5502C33.3071 58.0016 34.7974 56.7415 35.0881 55.0089L35.7788 50.9379C37.1479 50.5139 38.4685 49.9686 39.7286 49.3022L43.0848 51.7012C43.6906 52.1374 44.4175 52.3676 45.1687 52.3676C46.1259 52.3676 47.0225 51.992 47.701 51.3135L51.3116 47.7029C52.5474 46.4671 52.717 44.5164 51.6993 43.0867L49.3003 39.7184C49.9667 38.4462 50.524 37.1256 50.936 35.7686L55.007 35.0901C56.7396 34.7993 57.9996 33.309 57.9996 31.5522V26.4513C58.0239 24.6945 56.7638 23.2042 55.0312 22.9134ZM54.7525 31.5522C54.7525 31.7097 54.6435 31.843 54.486 31.8672L49.3972 32.7153C48.7551 32.8244 48.2462 33.2969 48.0887 33.9148C47.6283 35.6959 46.9255 37.4043 45.9805 38.9915C45.6534 39.5488 45.6776 40.2394 46.0532 40.7725L49.0459 44.9889C49.1307 45.1101 49.1186 45.2918 49.0095 45.4009L45.3989 49.0115C45.3141 49.0963 45.2293 49.1084 45.1687 49.1084C45.096 49.1084 45.0354 49.0842 44.987 49.0478L40.7827 46.0551C40.2617 45.6795 39.559 45.6553 39.0016 45.9824C37.4144 46.9275 35.7061 47.6302 33.925 48.0906C33.295 48.2481 32.8224 48.7691 32.7255 49.3992L31.8653 54.4879C31.841 54.6454 31.7078 54.7545 31.5502 54.7545H26.4494C26.2919 54.7545 26.1586 54.6454 26.1344 54.4879L25.2862 49.3992C25.1772 48.757 24.7047 48.2481 24.0868 48.0906C22.3542 47.6423 20.6821 46.9517 19.1192 46.0551C18.8647 45.9097 18.5739 45.837 18.2953 45.837C17.9681 45.837 17.6289 45.934 17.3502 46.1399L13.1096 49.1568C13.049 49.1932 12.9884 49.2174 12.9278 49.2174C12.8794 49.2174 12.7825 49.2053 12.6976 49.1205L9.08705 45.5099C8.97801 45.4009 8.96589 45.2312 9.0507 45.098L12.0313 40.9179C12.4069 40.3848 12.4311 39.6821 12.104 39.1247C11.1589 37.5497 10.4319 35.8413 9.97153 34.0602C9.8019 33.4423 9.29303 32.9698 8.66299 32.8607L3.53789 31.9884C3.38038 31.9641 3.27134 31.8309 3.27134 31.6734V26.5725C3.27134 26.415 3.38038 26.2817 3.53789 26.2575L8.59029 25.4094C9.23245 25.3003 9.75344 24.8278 9.91095 24.1977C10.3592 22.4167 11.0499 20.6962 11.9828 19.109C12.3099 18.5517 12.2736 17.861 11.898 17.34L8.88108 13.0994C8.79627 12.9783 8.80838 12.7965 8.91743 12.6875L12.528 9.07689C12.6128 8.99208 12.6976 8.97996 12.7582 8.97996C12.8309 8.97996 12.8915 9.00419 12.94 9.04054L17.12 12.0211C17.6531 12.3967 18.3558 12.4209 18.9132 12.0938C20.4883 11.1487 22.1966 10.4218 23.9777 9.96136C24.5956 9.79174 25.0682 9.28286 25.1772 8.65283L26.0496 3.52773C26.0738 3.37022 26.2071 3.26118 26.3646 3.26118H31.4654C31.6229 3.26118 31.7562 3.37022 31.7805 3.52773L32.6286 8.58013C32.7376 9.22228 33.2102 9.74327 33.8402 9.90078C35.6697 10.3612 37.4144 11.076 39.038 12.0332C39.5953 12.3603 40.2859 12.3361 40.819 11.9605L44.9991 8.95573C45.0597 8.91938 45.1203 8.89515 45.1808 8.89515C45.2293 8.89515 45.3262 8.90726 45.411 8.99208L49.0216 12.6027C49.1307 12.7117 49.1428 12.8813 49.058 13.0146L46.0653 17.2189C45.6897 17.7399 45.6655 18.4426 45.9926 19C46.9377 20.5872 47.6404 22.2955 48.1008 24.0766C48.2583 24.7066 48.7793 25.1791 49.4093 25.2761L54.4981 26.1363C54.6556 26.1605 54.7646 26.2938 54.7646 26.4513V31.5522H54.7525Z" fill="black"/>
		<path d="M29.0047 16.4785C22.0985 16.4785 16.4888 22.0883 16.4888 28.9944C16.4888 35.9006 22.0985 41.5103 29.0047 41.5103C35.9108 41.5103 41.5206 35.9006 41.5206 28.9944C41.5206 22.0883 35.9108 16.4785 29.0047 16.4785ZM29.0047 38.239C23.9038 38.239 19.7601 34.0953 19.7601 28.9944C19.7601 23.8936 23.9038 19.7499 29.0047 19.7499C34.1055 19.7499 38.2492 23.8936 38.2492 28.9944C38.2492 34.0953 34.1055 38.239 29.0047 38.239Z" fill="black"/>
	</symbol>

	<symbol id="icon-service4">
		<!-- width="58" height="58" viewBox="0 0 58 58" -->
		<path d="M49.4985 8.50084C44.0215 3.02387 36.7472 0 28.9993 0C21.2514 0 13.9771 3.02387 8.50016 8.50084C-2.06517 19.0662 -2.83025 35.9464 6.5814 47.3861C5.28198 50.0456 3.75183 51.8187 2.01523 52.6688C0.9587 53.191 0.363641 54.3325 0.533658 55.4983C0.715819 56.6763 1.61448 57.5871 2.79245 57.7693C3.43609 57.8664 4.1283 57.9271 4.8448 57.9271C8.403 57.9271 12.1434 56.7006 15.2644 54.5511C19.4662 56.8099 24.1903 58 28.9993 58C36.7472 58 44.0215 54.9883 49.4985 49.5113C54.9754 44.0343 57.9872 36.7479 57.9872 29.0121C57.9872 21.2764 54.9754 13.9778 49.4985 8.50084ZM47.179 47.1796C42.3213 52.0373 35.8607 54.709 28.9993 54.709C24.4089 54.709 19.9034 53.4824 15.9809 51.175C15.7259 51.0293 15.4344 50.9443 15.1551 50.9443C14.8029 50.9443 14.4386 51.0657 14.1471 51.2843C10.4311 54.1625 6.69069 54.5875 5.05125 54.624C7.00644 53.1667 8.64588 50.9079 10.0182 47.7626C10.2732 47.1796 10.1639 46.4996 9.73885 46.0138C0.75225 35.8614 1.22587 20.3899 10.8197 10.7961C15.6773 5.93844 22.1379 3.26675 28.9993 3.26675C35.8607 3.26675 42.3213 5.93844 47.179 10.7961C57.21 20.8392 57.21 37.1608 47.179 47.1796Z" fill="black"/>
		<path d="M41.1463 19.4297H16.8582C15.9474 19.4297 15.2188 20.1583 15.2188 21.0691C15.2188 21.9799 15.9474 22.7086 16.8582 22.7086H41.1463C42.0571 22.7086 42.7858 21.9799 42.7858 21.0691C42.7858 20.1583 42.045 19.4297 41.1463 19.4297Z" fill="black"/>
		<path d="M41.1463 27.3594H16.8582C15.9474 27.3594 15.2188 28.088 15.2188 28.9988C15.2188 29.9096 15.9474 30.6383 16.8582 30.6383H41.1463C42.0571 30.6383 42.7858 29.9096 42.7858 28.9988C42.7858 28.088 42.045 27.3594 41.1463 27.3594Z" fill="black"/>
		<path d="M41.1463 35.291H16.8582C15.9474 35.291 15.2188 36.0197 15.2188 36.9305C15.2188 37.8413 15.9474 38.5699 16.8582 38.5699H41.1463C42.0571 38.5699 42.7858 37.8413 42.7858 36.9305C42.7858 36.0197 42.045 35.291 41.1463 35.291Z" fill="black"/>
	</symbol>

</svg>