<svg width="41" height="41" viewBox="0 0 41 41" fill="none" xmlns="http://www.w3.org/2000/svg">
<path d="M33.6187 13.6615L35.3426 11.9373C36.2791 11.001 36.2791 9.47706 35.3426 8.54021C34.4061 7.60367 32.8821 7.60367 31.9455 8.54021L30.105 10.3808C28.185 9.04351 25.9963 8.11792 23.7031 7.67374V5.28516H25.3047C25.747 5.28516 26.1055 4.92668 26.1055 4.48438V2.40234C26.1055 1.07761 25.0279 0 23.7031 0H17.2969C15.9721 0 14.8945 1.07761 14.8945 2.40234V4.48438C14.8945 4.92668 15.253 5.28516 15.6953 5.28516H17.2969V7.67374C15.004 8.11761 12.815 9.04351 10.895 10.3808L9.05446 8.54021C8.11823 7.60367 6.59425 7.60367 5.65739 8.54021C4.72086 9.47675 4.72086 11.0007 5.65739 11.9373L7.38126 13.6615C4.99174 16.6378 3.68359 20.3452 3.68359 24.1836C3.68359 33.4561 11.2275 41 20.5 41C29.7725 41 37.3164 33.4561 37.3164 24.1836C37.3164 20.3452 36.0083 16.6378 33.6187 13.6615ZM33.0779 9.67256C33.3904 9.36038 33.8981 9.36069 34.2103 9.67256C34.5221 9.98474 34.5221 10.4927 34.2103 10.8049L32.5555 12.4593C32.1826 12.0765 31.7916 11.7114 31.385 11.3658L33.0779 9.67256ZM16.4961 2.40234C16.4961 1.96066 16.8552 1.60156 17.2969 1.60156H23.7031C24.1448 1.60156 24.5039 1.96066 24.5039 2.40234V3.68359H16.4961V2.40234ZM22.1016 5.28516V7.44289C21.0402 7.34341 19.9601 7.34341 18.8984 7.44289V5.28516H22.1016ZM6.78975 9.67256C7.10193 9.36069 7.60992 9.36038 7.9221 9.67256L9.61501 11.3658C9.20836 11.7114 8.81735 12.0765 8.44449 12.4593L6.78975 10.8049C6.47788 10.4927 6.47788 9.98474 6.78975 9.67256ZM20.5 39.3984C12.1106 39.3984 5.28516 32.573 5.28516 24.1836C5.28516 20.4828 6.62865 16.9171 9.06791 14.1429C9.73981 13.3787 10.4896 12.6805 11.2963 12.0668C13.318 10.5284 15.711 9.51585 18.2165 9.13829C18.9663 9.02599 19.7346 8.96875 20.5 8.96875C21.2654 8.96875 22.0337 9.02599 22.7832 9.13829C25.289 9.51585 27.682 10.5284 29.704 12.0668C30.5104 12.6805 31.2602 13.3787 31.9321 14.1429C34.3713 16.9171 35.7148 20.4828 35.7148 24.1836C35.7148 32.573 28.8894 39.3984 20.5 39.3984Z" fill="#5D1324"/>
<path d="M20.5 26.5859C21.8247 26.5859 22.9023 25.5083 22.9023 24.1836C22.9023 23.1398 22.2329 22.2495 21.3008 21.9189V16.1758C21.3008 15.7335 20.9423 15.375 20.5 15.375C20.0577 15.375 19.6992 15.7335 19.6992 16.1758V21.9189C18.7671 22.2495 18.0977 23.1398 18.0977 24.1836C18.0977 25.5083 19.1753 26.5859 20.5 26.5859ZM20.5 23.3828C20.9417 23.3828 21.3008 23.7419 21.3008 24.1836C21.3008 24.6253 20.9417 24.9844 20.5 24.9844C20.0583 24.9844 19.6992 24.6253 19.6992 24.1836C19.6992 23.7419 20.0583 23.3828 20.5 23.3828Z" fill="#5D1324"/>
<path d="M29.0305 15.7342C29.018 15.7195 29.0055 15.7048 28.9914 15.691C28.9764 15.6757 28.9604 15.6619 28.9445 15.6481C27.5331 14.2518 25.7895 13.2186 23.8974 12.6599C23.4729 12.5348 23.0278 12.7769 22.9027 13.2011C22.7775 13.6252 23.0196 14.0707 23.4438 14.1958C24.8458 14.6099 26.1536 15.3256 27.2685 16.2813L26.7283 16.8215C26.4158 17.1343 26.4158 17.6413 26.7283 17.9541C26.8847 18.1105 27.0896 18.1887 27.2948 18.1887C27.4996 18.1887 27.7045 18.1105 27.8609 17.9541L28.4024 17.4127C29.8513 19.0974 30.7118 21.1713 30.8795 23.3816H30.1094C29.6671 23.3816 29.3086 23.7404 29.3086 24.1824C29.3086 24.6247 29.6671 24.9832 30.1094 24.9832H30.8795C30.7118 27.1938 29.8513 29.2674 28.4024 30.9521L27.8609 30.4107C27.5481 30.0982 27.0411 30.0982 26.7283 30.4107C26.4155 30.7235 26.4155 31.2305 26.7283 31.5433L27.2697 32.0848C25.585 33.5337 23.5111 34.3942 21.3008 34.5622V33.7918C21.3008 33.3495 20.9423 32.991 20.5 32.991C20.0577 32.991 19.6992 33.3495 19.6992 33.7918V34.5619C17.4889 34.3942 15.415 33.5337 13.7303 32.0848L14.2717 31.5433C14.5845 31.2305 14.5845 30.7235 14.2717 30.4107C13.9589 30.0982 13.4519 30.0982 13.1391 30.4107L12.5976 30.9521C11.1487 29.2674 10.2882 27.1935 10.1205 24.9832H10.8906C11.3329 24.9832 11.6914 24.6247 11.6914 24.1824C11.6914 23.7401 11.3329 23.3816 10.8906 23.3816H10.1205C10.2882 21.1713 11.1487 19.0974 12.5976 17.4127L13.1391 17.9541C13.2955 18.1105 13.5004 18.1887 13.7052 18.1887C13.9104 18.1887 14.1153 18.1105 14.2717 17.9541C14.5842 17.6413 14.5842 17.1343 14.2717 16.8215L13.7315 16.2813C14.8464 15.3253 16.1542 14.6099 17.5562 14.1958C17.9804 14.0707 18.2225 13.6252 18.0973 13.2011C17.9722 12.7769 17.5274 12.5351 17.1026 12.6599C15.2108 13.2183 13.4678 14.2511 12.0568 15.6469C12.0402 15.661 12.0239 15.6753 12.0086 15.6907C11.9948 15.7044 11.9826 15.7188 11.9701 15.7332C9.72449 17.9998 8.48828 20.9977 8.48828 24.1824C8.48828 27.3668 9.72449 30.3644 11.9695 32.6306C11.982 32.6453 11.9945 32.66 12.0086 32.6738C12.0224 32.6879 12.0367 32.7001 12.0511 32.7126C14.3177 34.9579 17.3153 36.1941 20.5 36.1941C23.6844 36.1941 26.682 34.9582 28.9482 32.7132C28.9629 32.7004 28.9776 32.6879 28.9914 32.6738C29.0052 32.6604 29.0174 32.6457 29.0299 32.6316C31.2755 30.365 32.5117 27.3671 32.5117 24.1824C32.5117 20.998 31.2755 18.0004 29.0305 15.7342Z" fill="#5D1324"/>
<path d="M20.5 13.7734C20.942 13.7734 21.3008 13.4146 21.3008 12.9727C21.3008 12.5307 20.942 12.1719 20.5 12.1719C20.058 12.1719 19.6992 12.5307 19.6992 12.9727C19.6992 13.4146 20.058 13.7734 20.5 13.7734Z" fill="#5D1324"/>
</svg>
