<svg width="74" height="17" viewBox="0 0 74 17" fill="none" xmlns="http://www.w3.org/2000/svg">
<path d="M0.994297 15H5.4143L6.0543 12.96H10.5943L11.1943 15H15.7543L10.5543 0.719999H6.2543L0.994297 15ZM7.0143 9.9L8.3943 5.5H8.4343L9.7143 9.9H7.0143ZM30.8279 14.6L29.1279 12.86C30.1879 11.56 30.7879 9.86 30.7879 7.86C30.7879 3.5 27.8879 0.38 23.5479 0.38C19.2079 0.38 16.3079 3.5 16.3079 7.86C16.3079 12.22 19.2079 15.34 23.5479 15.34C24.8879 15.34 26.1279 15.08 26.9279 14.58L28.8479 16.56L30.8279 14.6ZM22.9279 10.46L24.1279 11.7C23.9279 11.76 23.7279 11.78 23.5479 11.78C22.4279 11.78 20.7079 11.04 20.7079 7.86C20.7079 4.68 22.4279 3.94 23.5479 3.94C24.6679 3.94 26.3879 4.68 26.3879 7.86C26.3879 8.6 26.2879 9.24 26.1079 9.76L24.9079 8.54L22.9279 10.46ZM32.6459 15H44.6859V11.34H37.0459V9.56H43.7859V6.16H37.0459V4.38H44.4659V0.719999H32.6459V15ZM46.7479 15H50.9079V7.2H50.9479L55.3279 15H59.6079V0.719999H55.4479V8.36H55.4079L51.2479 0.719999H46.7479V15ZM61.9037 15H73.9437V11.34H66.3037V9.56H73.0437V6.16H66.3037V4.38H73.7237V0.719999H61.9037V15Z" fill="white"/>
</svg>
