<svg xmlns="http://www.w3.org/2000/svg" width="55" height="60" viewBox="0 0 55 60"><g><g><path fill="#e5fcfa" d="M31.655 0h2.77c5.09.278 8.352 3.377 11.065 7.283 4.146 5.97 6.119 12.797 7.724 19.78 1.081 4.7 1.361 9.486 1.786 14.261v.795c-.32.795-.32 1.59 0 2.384v6.358c-.42 2.471-1.034 4.827-2.916 6.687-1.523 1.505-3.375 2.125-5.393 2.452h-5.54c-6.414-.567-12.016-3.74-17.998-5.688-5.077-1.655-10.02-3.72-15.173-5.154-.826-.23-1.662-.468-2.41-.89C2.664 46.632.25 44.604 0 40.929v-5.166c.468-5.76 4.207-8.289 9.294-9.472 1.732-.403 3.48-.73 5.27-.668 1.725.06 3.408-.205 5.077-.602 3.025-.718 3.837-1.701 3.881-4.79.036-2.51 0-5.02.013-7.529.014-2.55.583-4.985 1.638-7.289C26.466 2.587 28.364.438 31.655 0"/></g><g><g><path fill="none" stroke="#54bbbf" stroke-miterlimit="50" stroke-width="3" d="M33.574 5a5.585 5.585 0 0 1 5.583 5.586 5.585 5.585 0 1 1-11.167 0C27.99 7.501 30.49 5 33.574 5z"/></g><g><path fill="none" stroke="#54bbbf" stroke-miterlimit="50" stroke-width="3" d="M49.446 26.596a2.169 2.169 0 0 1-2.38 1.933c-4.137-.428-6.56-1.678-8.418-3.16l.641 7.376c.094 1.091-.265 2.021-.86 2.77 1.507 2.444 4.228 7.084 7.923 15.443a2.758 2.758 0 0 1-2.521 3.876c-1.06 0-2.07-.611-2.526-1.643-3.133-7.084-5.603-11.52-7.053-13.93-1.808 3.128-5.931 11.449-7.512 14.19a2.755 2.755 0 0 1-3.768 1.014 2.762 2.762 0 0 1-1.012-3.77c1.697-2.944 6.396-11.608 8.143-14.777a3.78 3.78 0 0 1-1.024-2.288l-.677-7.788c-1.438 1.933-2.926 4.266-3.887 6.687a2.17 2.17 0 0 1-1.676 1.34l-3.372 5.848-2.72 4.85-3.883 6.815a2.137 2.137 0 0 1-.183 2.839 2.133 2.133 0 0 1-3.02-.025 2.135 2.135 0 0 1-.34-2.543l-2.845-1.6a.933.933 0 0 1-.356-1.27l7.11-12.572a.931.931 0 0 1 1.27-.354l3.757 2.112 2.667-4.755a2.167 2.167 0 0 1-.442-2.287c2.27-5.712 6.833-10.761 8.48-12.469.213-.256.888-.845.984-.904 1.323-.987 2.226-1.017 2.82-1.083a4.411 4.411 0 0 1 1.222.056 5.857 5.857 0 0 1 2.476 1.024c1.217.749 6.056 6.15 11.045 6.664a2.173 2.173 0 0 1 1.937 2.381zM11.918 52.767a.778.778 0 1 0-1.556 0 .778.778 0 0 0 1.556 0z"/></g></g></g></svg>