<svg xmlns="http://www.w3.org/2000/svg" width="55" height="60" viewBox="0 0 55 60"><defs><clipPath id="c89oa"><path d="M3 54.955h49.958V5.1H3z"/></clipPath></defs><g><g><path fill="#fcecf2" d="M31.655 0h2.77c5.09.278 8.352 3.377 11.065 7.283 4.146 5.97 6.119 12.797 7.724 19.78 1.081 4.7 1.361 9.486 1.786 14.261v.795c-.32.795-.32 1.59 0 2.384v6.358c-.42 2.471-1.034 4.827-2.916 6.687-1.523 1.505-3.375 2.125-5.393 2.452h-5.54c-6.414-.567-12.016-3.74-17.998-5.688-5.077-1.655-10.02-3.72-15.173-5.154-.826-.23-1.662-.468-2.41-.89C2.664 46.632.25 44.604 0 40.929v-5.166c.468-5.76 4.207-8.289 9.294-9.472 1.732-.403 3.48-.73 5.27-.668 1.725.06 3.408-.205 5.077-.602 3.025-.718 3.837-1.701 3.881-4.79.036-2.51 0-5.02.013-7.529.014-2.55.583-4.985 1.638-7.289C26.466 2.587 28.364.438 31.655 0"/></g><g><g><path fill="#f063a0" d="M31.189 45.086a2.486 2.486 0 0 1 1.78 2.372v6.64a.83.83 0 0 1-1.663 0v-6.64a.83.83 0 0 0-.832-.83h-4.99a.83.83 0 0 0-.83.83v6.64a.83.83 0 0 1-1.664 0v-6.64a2.486 2.486 0 0 1 1.78-2.372 4.103 4.103 0 0 1-.948-2.607 4.153 4.153 0 0 1 4.158-4.149 4.153 4.153 0 0 1 4.158 4.15 4.103 4.103 0 0 1-.95 2.606M27.98 39.99a2.492 2.492 0 0 0-2.495 2.49 2.492 2.492 0 0 0 2.495 2.489 2.492 2.492 0 0 0 2.494-2.49 2.492 2.492 0 0 0-2.494-2.49"/></g><g><path fill="none" stroke="#f063a0" stroke-miterlimit="50" stroke-width=".6" d="M32.97 47.458v6.64a.83.83 0 0 1-1.664 0v-6.64a.83.83 0 0 0-.832-.83h-4.99a.83.83 0 0 0-.83.83v6.64a.83.83 0 0 1-1.664 0v-6.64a2.486 2.486 0 0 1 1.78-2.372 4.103 4.103 0 0 1-.948-2.607 4.153 4.153 0 0 1 4.158-4.149 4.153 4.153 0 0 1 4.158 4.15 4.103 4.103 0 0 1-.95 2.606 2.486 2.486 0 0 1 1.781 2.372zm-7.485-4.979a2.492 2.492 0 0 0 2.495 2.49 2.492 2.492 0 0 0 2.494-2.49 2.492 2.492 0 0 0-2.494-2.49 2.492 2.492 0 0 0-2.495 2.49z"/></g><g><path fill="#f063a0" d="M49.586 34.431a5.782 5.782 0 0 1-1.743 3.897h.924a4.158 4.158 0 0 1 4.158 4.149v11.618a.83.83 0 0 1-1.663 0v-6.639h-1.663v6.64a.83.83 0 0 1-1.664 0v-7.47a.83.83 0 0 1 .832-.83h2.495v-3.32a2.492 2.492 0 0 0-2.495-2.489h-1.663c0 1.834-1.49 3.32-3.326 3.32a3.323 3.323 0 0 1-3.327-3.32h-1.663a2.492 2.492 0 0 0-2.495 2.49v3.32h2.495a.83.83 0 0 1 .831.83v7.468a.83.83 0 0 1-1.663 0v-6.639h-1.663v6.64a.83.83 0 0 1-1.663 0v-11.62a4.158 4.158 0 0 1 4.158-4.148h.923a5.783 5.783 0 0 1-1.742-3.897A5.808 5.808 0 0 1 34.63 29.2v-4.15c0-.916.745-1.659 1.663-1.659h12.474a4.159 4.159 0 0 1 4.158 4.15v1.659a5.808 5.808 0 0 1-3.339 5.232m-9.966-.256a4.153 4.153 0 0 0 4.158 4.147 4.153 4.153 0 0 0 4.157-4.147v-4.148h-.831a.83.83 0 1 1 0-1.659h1.663a.83.83 0 0 1 .832.83v3.313a4.144 4.144 0 0 0 1.663-3.313v-1.66a2.492 2.492 0 0 0-2.495-2.488H36.293v4.148a4.144 4.144 0 0 0 1.663 3.313v-3.313a.83.83 0 0 1 .832-.83h4.99a.83.83 0 1 1 0 1.66H39.62v4.147m4.158 7.468c.918 0 1.663-.74 1.663-1.65h-3.327c0 .911.745 1.65 1.664 1.65"/></g><g><path fill="none" stroke="#f063a0" stroke-miterlimit="50" stroke-width=".6" d="M47.843 38.328h.924a4.158 4.158 0 0 1 4.158 4.149v11.618a.83.83 0 0 1-1.663 0v-6.639h-1.663v6.64a.83.83 0 0 1-1.664 0v-7.47a.83.83 0 0 1 .832-.83h2.495v-3.32a2.492 2.492 0 0 0-2.495-2.489h-1.663c0 1.834-1.49 3.32-3.326 3.32a3.323 3.323 0 0 1-3.327-3.32h-1.663a2.492 2.492 0 0 0-2.495 2.49v3.32h2.495a.83.83 0 0 1 .831.83v7.468a.83.83 0 0 1-1.663 0v-6.639h-1.663v6.64a.83.83 0 0 1-1.663 0v-11.62a4.158 4.158 0 0 1 4.158-4.148h.923a5.783 5.783 0 0 1-1.742-3.897A5.808 5.808 0 0 1 34.63 29.2v-4.15c0-.916.745-1.659 1.663-1.659h12.474a4.159 4.159 0 0 1 4.158 4.15v1.659a5.808 5.808 0 0 1-3.339 5.232 5.782 5.782 0 0 1-1.743 3.897zm-4.066-.006a4.153 4.153 0 0 0 4.158-4.147v-4.148h-.831a.83.83 0 1 1 0-1.659h1.663a.83.83 0 0 1 .832.83v3.313a4.144 4.144 0 0 0 1.663-3.313v-1.66a2.492 2.492 0 0 0-2.495-2.488H36.293v4.148a4.144 4.144 0 0 0 1.663 3.313v-3.313a.83.83 0 0 1 .832-.83h4.99a.83.83 0 1 1 0 1.66H39.62v4.147a4.153 4.153 0 0 0 4.158 4.147zm1.664 1.67h-3.327c0 .912.745 1.65 1.664 1.65.918 0 1.663-.738 1.663-1.65z"/></g><g><path fill="#f063a0" d="M17.167 38.328a4.159 4.159 0 0 1 4.158 4.15v11.618a.83.83 0 0 1-1.663 0v-6.64h-1.663v6.64a.83.83 0 0 1-1.663 0v-7.469a.83.83 0 0 1 .831-.83h2.495v-3.32a2.492 2.492 0 0 0-2.495-2.489h-1.663v1.66c0 .22-.088.431-.244.587l-2.25 2.247v3.805a.83.83 0 0 1-1.664 0v-3.805l-2.251-2.247a.829.829 0 0 1-.244-.587v-1.66H7.188a2.492 2.492 0 0 0-2.495 2.49v3.32h2.495a.83.83 0 0 1 .831.829v7.469a.83.83 0 0 1-1.663 0v-6.64H4.693v6.64a.83.83 0 0 1-1.663 0V42.478a4.158 4.158 0 0 1 4.158-4.15h.923a5.782 5.782 0 0 1-1.755-4.149v-4.98a.83.83 0 0 1 .832-.829h4.99a.83.83 0 1 1 0 1.66H8.019v4.149a4.154 4.154 0 0 0 4.159 4.15 4.154 4.154 0 0 0 4.158-4.15v-4.15h-.832a.83.83 0 1 1 0-1.659h1.663a.83.83 0 0 1 .832.83v4.979a5.78 5.78 0 0 1-1.756 4.15zm-3.326 1.66h-3.327V41.3l1.664 1.654L13.84 41.3z"/></g><g><path fill="none" stroke="#f063a0" stroke-miterlimit="50" stroke-width=".6" d="M21.325 42.478v11.618a.83.83 0 0 1-1.663 0v-6.64h-1.663v6.64a.83.83 0 0 1-1.663 0v-7.469a.83.83 0 0 1 .831-.83h2.495v-3.32a2.492 2.492 0 0 0-2.495-2.489h-1.663v1.66c0 .22-.088.431-.244.587l-2.25 2.247v3.805a.83.83 0 0 1-1.664 0v-3.805l-2.251-2.247a.829.829 0 0 1-.244-.587v-1.66H7.188a2.492 2.492 0 0 0-2.495 2.49v3.32h2.495a.83.83 0 0 1 .831.829v7.469a.83.83 0 0 1-1.663 0v-6.64H4.693v6.64a.83.83 0 0 1-1.663 0V42.478a4.158 4.158 0 0 1 4.158-4.15h.923a5.782 5.782 0 0 1-1.755-4.149v-4.98a.83.83 0 0 1 .832-.829h4.99a.83.83 0 1 1 0 1.66H8.019v4.149a4.154 4.154 0 0 0 4.159 4.15 4.154 4.154 0 0 0 4.158-4.15v-4.15h-.832a.83.83 0 1 1 0-1.659h1.663a.83.83 0 0 1 .832.83v4.979a5.78 5.78 0 0 1-1.756 4.15h.924a4.159 4.159 0 0 1 4.158 4.149zm-7.484-2.49h-3.327V41.3l1.664 1.654L13.84 41.3z"/></g><g><path fill="#f063a0" d="M12.178 21.73c-5.05.006-9.142 4.09-9.148 9.129v5.809a.83.83 0 0 0 1.663 0v-5.81c0-4.124 3.35-7.468 7.485-7.468 4.133 0 7.484 3.344 7.484 7.469v5.809a.83.83 0 0 0 1.663 0v-5.81c-.006-5.039-4.098-9.122-9.147-9.128"/></g><g><path fill="none" stroke="#f063a0" stroke-miterlimit="50" stroke-width=".6" d="M12.178 21.73c-5.05.006-9.142 4.09-9.148 9.129v5.809a.83.83 0 0 0 1.663 0v-5.81c0-4.124 3.35-7.468 7.485-7.468 4.133 0 7.484 3.344 7.484 7.469v5.809a.83.83 0 0 0 1.663 0v-5.81c-.006-5.039-4.098-9.122-9.147-9.128z"/></g><g><path fill="#f063a0" d="M7.257 19.795a2.498 2.498 0 0 1-3.314-1.21 2.488 2.488 0 0 1 1.212-3.307L26.218 5.52a4.19 4.19 0 0 1 3.527 0l21.063 9.76a2.487 2.487 0 0 1 1.212 3.306 2.497 2.497 0 0 1-3.314 1.21l-.766-.355v.628a.83.83 0 0 1-1.663 0V18.67l-17.233-7.984a2.524 2.524 0 0 0-2.126 0L9.687 18.669v1.4a.83.83 0 0 1-1.664 0v-.63zm-1.832-2.543a.83.83 0 0 0 1.132 1.038l19.661-9.111a4.19 4.19 0 0 1 3.527 0l19.661 9.11a.833.833 0 0 0 1.106-.403.83.83 0 0 0-.404-1.102L29.044 7.025a2.524 2.524 0 0 0-2.126 0l-21.06 9.759a.83.83 0 0 0-.43.468z"/></g><g><path fill="none" stroke="#f063a0" stroke-miterlimit="50" stroke-width=".6" d="M3.943 18.585a2.488 2.488 0 0 1 1.212-3.307L26.218 5.52a4.19 4.19 0 0 1 3.527 0l21.063 9.76a2.487 2.487 0 0 1 1.212 3.306 2.497 2.497 0 0 1-3.314 1.21l-.766-.355v.628a.83.83 0 0 1-1.663 0V18.67l-17.233-7.984a2.524 2.524 0 0 0-2.126 0L9.687 18.669v1.4a.83.83 0 0 1-1.664 0v-.63l-.766.356a2.498 2.498 0 0 1-3.314-1.21zm1.482-1.333a.83.83 0 0 0 1.132 1.038l19.661-9.111a4.19 4.19 0 0 1 3.527 0l19.661 9.11a.833.833 0 0 0 1.106-.403.83.83 0 0 0-.404-1.102L29.044 7.025a2.524 2.524 0 0 0-2.126 0l-21.06 9.759a.83.83 0 0 0-.43.468z"/></g><g/><g clip-path="url(#c89oa)"><path fill="#f063a0" d="M32.138 15.92a.83.83 0 0 1 .831.83v6.639a.83.83 0 0 1-1.663 0v-2.49h-2.495v2.49a.83.83 0 0 1-1.663 0v-2.49h-2.495v2.49a.83.83 0 0 1-1.663 0v-6.64a.83.83 0 0 1 .832-.829zm-7.485 3.32h2.505v-1.66h-2.505zm4.158 0h2.505v-1.66h-2.505z"/></g><g clip-path="url(#c89oa)"><path fill="none" stroke="#f063a0" stroke-miterlimit="50" stroke-width=".6" d="M32.97 16.75v6.639a.83.83 0 0 1-1.664 0v-2.49h-2.495v2.49a.83.83 0 0 1-1.663 0v-2.49h-2.495v2.49a.83.83 0 0 1-1.663 0v-6.64a.83.83 0 0 1 .832-.829h8.316a.83.83 0 0 1 .831.83zm-8.317 2.49h2.505v-1.66h-2.505zm4.158 0h2.505v-1.66h-2.505z"/></g></g></g></svg>