<svg xmlns="http://www.w3.org/2000/svg" width="80" height="59" viewBox="0 0 80 59"><g><g><path fill="#eee" d="M26.809 0h5.531c10.457 1.004 15.12 8.44 18.94 16.78.564 1.231.37 2.619.397 3.948.1 4.975 2.287 6.653 7.085 5.117 3.109-.995 6.155-1.5 9.368-.75.839.195 1.632.441 2.343.926 2.941 2.004 5.44 4.443 7.544 7.306 1.298 1.766 1.614 3.815 1.983 5.866v5.057c-.612 5.597-3.256 9.918-8.094 12.956-1.72 1.08-3.605 1.432-5.523 1.794h-5.106c-3.865-.366-6.905-2.282-9.52-4.984-2.099-2.168-4.753-3.287-7.647-3.868-4.496-.902-8.884-.365-13.156 1.213-1.528.565-3.11 1.05-4.53 1.823-7.586 4.124-18.712.967-23.686-8.015C1.098 42.206.241 39.13 0 35.821v-5.9c1.117-11.08 7.86-18.92 15.65-25.996C18.294 1.52 21.856.342 25.598.212c.41-.014.853.115 1.21-.212"/></g><g><g><path fill="#4a4a4a" d="M41.162 16.76c-1.763-.587-3.82 0-5.29 1.176-1.47 1.176-2.352 2.94-2.352 4.997 0 .882.588 1.47 1.47 1.47s1.47-.588 1.47-1.47.293-2.057 1.175-2.645c.882-.588 1.764-.882 2.94-.588 1.47.294 2.351 1.47 2.645 2.645.294 1.47 0 2.646-1.176 3.528a8.766 8.766 0 0 0-3.527 7.054c0 .882.588 1.47 1.47 1.47.881 0 1.47-.588 1.175-1.47 0-1.763 1.176-3.527 2.646-4.703 2.057-1.763 2.94-4.115 2.351-6.466-.588-2.646-2.645-4.41-4.997-4.997z"/></g><g><path fill="#4a4a4a" d="M38.814 40.571c-.294.294-.294.882-.294 1.176 0 .294 0 .588.294.881.294.294.882.588 1.176.588.294 0 .881-.294.881-.588.294 0 .588-.587.588-.881 0-.588-.294-.882-.588-1.176-.588-.588-1.47-.588-2.057 0z"/></g><g><path fill="#4a4a4a" d="M39.985 52.03c-12.052 0-22.046-9.994-22.046-22.045 0-12.052 9.994-22.046 22.046-22.046 12.051 0 22.045 9.994 22.045 22.046 0 12.051-9.994 22.045-22.045 22.045zm0-47.03C26.17 5 15 16.17 15 29.985S26.17 54.97 39.985 54.97 64.97 43.8 64.97 29.985 53.8 5 39.985 5z"/></g></g></g></svg>