<svg xmlns="http://www.w3.org/2000/svg" width="62" height="60" viewBox="0 0 62 60"><g><g><path fill="#fdf1e5" d="M31.655 0h2.77c5.09.278 8.352 3.377 11.065 7.283 4.146 5.97 6.119 12.797 7.724 19.78 1.081 4.7 1.361 9.486 1.786 14.261v.795c-.32.795-.32 1.59 0 2.384v6.358c-.42 2.471-1.034 4.827-2.916 6.687-1.523 1.505-3.375 2.125-5.393 2.452h-5.54c-6.414-.567-12.016-3.74-17.998-5.688-5.077-1.655-10.02-3.72-15.173-5.154-.826-.23-1.662-.468-2.41-.89C2.664 46.632.25 44.604 0 40.929v-5.166c.468-5.76 4.207-8.289 9.294-9.472 1.732-.403 3.48-.73 5.27-.668 1.725.06 3.408-.205 5.077-.602 3.025-.718 3.837-1.701 3.881-4.79.036-2.51 0-5.02.013-7.529.014-2.55.583-4.985 1.638-7.289C26.466 2.587 28.364.438 31.655 0"/></g><g><g><path fill="#f68b1f" d="M35.532 56.323c-13.14 0-23.83-10.465-23.83-23.328s10.69-23.328 23.83-23.328c13.14 0 23.83 10.465 23.83 23.328s-10.69 23.328-23.83 23.328zm0-48.323C21.454 8 10 19.215 10 33s11.454 25 25.532 25 25.532-11.215 25.532-25S49.61 8 35.532 8z"/><path fill="none" stroke="#f68b1f" stroke-miterlimit="50" d="M35.532 56.323c-13.14 0-23.83-10.465-23.83-23.328s10.69-23.328 23.83-23.328c13.14 0 23.83 10.465 23.83 23.328s-10.69 23.328-23.83 23.328zm0-48.323C21.454 8 10 19.215 10 33s11.454 25 25.532 25 25.532-11.215 25.532-25S49.61 8 35.532 8z"/></g><g><path fill="#f68b1f" d="M35.262 35.049c-.953 0-1.728-.755-1.728-1.684 0-.928.775-1.684 1.728-1.684.954 0 1.73.756 1.73 1.684 0 .929-.776 1.684-1.73 1.684zm.865-4.921V21.61a.852.852 0 0 0-.865-.84.852.852 0 0 0-.864.84v8.518c-1.21.305-2.156 1.225-2.47 2.4h-6.174a.852.852 0 0 0-.864.84c0 .464.387.84.864.84h6.174c.386 1.444 1.728 2.52 3.334 2.52 1.907 0 3.458-1.507 3.458-3.36 0-1.561-1.107-2.865-2.593-3.24z"/><path fill="none" stroke="#f68b1f" stroke-miterlimit="50" d="M35.262 35.049c-.953 0-1.728-.755-1.728-1.684 0-.928.775-1.684 1.728-1.684.954 0 1.73.756 1.73 1.684 0 .929-.776 1.684-1.73 1.684zm.865-4.921V21.61a.852.852 0 0 0-.865-.84.852.852 0 0 0-.864.84v8.518c-1.21.305-2.156 1.225-2.47 2.4h-6.174a.852.852 0 0 0-.864.84c0 .464.387.84.864.84h6.174c.386 1.444 1.728 2.52 3.334 2.52 1.907 0 3.458-1.507 3.458-3.36 0-1.561-1.107-2.865-2.593-3.24z"/></g><g><path fill="#f68b1f" d="M35.534 16.508c.587 0 1.064-.317 1.064-.71v-.709c0-.392-.477-.709-1.064-.709-.587 0-1.064.317-1.064.71v.708c0 .393.477.71 1.064.71z"/><path fill="none" stroke="#f68b1f" stroke-miterlimit="50" d="M35.534 16.508c.587 0 1.064-.317 1.064-.71v-.709c0-.392-.477-.709-1.064-.709-.587 0-1.064.317-1.064.71v.708c0 .393.477.71 1.064.71z"/></g><g><path fill="#f68b1f" d="M35.534 49.49c-.587 0-1.064.317-1.064.71v.708c0 .393.477.71 1.064.71.587 0 1.064-.317 1.064-.71V50.2c0-.392-.477-.709-1.064-.709z"/><path fill="none" stroke="#f68b1f" stroke-miterlimit="50" d="M35.534 49.49c-.587 0-1.064.317-1.064.71v.708c0 .393.477.71 1.064.71.587 0 1.064-.317 1.064-.71V50.2c0-.392-.477-.709-1.064-.709z"/></g><g><path fill="#f68b1f" d="M53.968 31.4h-.709c-.391 0-.709.476-.709 1.064 0 .588.318 1.064.71 1.064h.708c.392 0 .71-.476.71-1.064 0-.588-.318-1.064-.71-1.064z"/><path fill="none" stroke="#f68b1f" stroke-miterlimit="50" d="M53.968 31.4h-.709c-.391 0-.709.476-.709 1.064 0 .588.318 1.064.71 1.064h.708c.392 0 .71-.476.71-1.064 0-.588-.318-1.064-.71-1.064z"/></g><g><path fill="#f68b1f" d="M17.798 31.4h-.709c-.391 0-.709.476-.709 1.064 0 .588.318 1.064.71 1.064h.708c.392 0 .71-.476.71-1.064 0-.588-.318-1.064-.71-1.064z"/><path fill="none" stroke="#f68b1f" stroke-miterlimit="50" d="M17.798 31.4h-.709c-.391 0-.709.476-.709 1.064 0 .588.318 1.064.71 1.064h.708c.392 0 .71-.476.71-1.064 0-.588-.318-1.064-.71-1.064z"/></g><g><path fill="#f68b1f" d="M48.016 18.87l-.556.556a.785.785 0 1 0 1.112 1.111l.555-.555a.785.785 0 1 0-1.111-1.112z"/><path fill="none" stroke="#f68b1f" stroke-miterlimit="50" d="M48.016 18.87l-.556.556a.785.785 0 1 0 1.112 1.111l.555-.555a.785.785 0 1 0-1.111-1.112z"/></g><g><path fill="#f68b1f" d="M22.486 44.4l-.556.556a.785.785 0 1 0 1.112 1.111l.555-.555a.785.785 0 1 0-1.111-1.112z"/><path fill="none" stroke="#f68b1f" stroke-miterlimit="50" d="M22.486 44.4l-.556.556a.785.785 0 1 0 1.112 1.111l.555-.555a.785.785 0 1 0-1.111-1.112z"/></g><g><path fill="#f68b1f" d="M48.572 44.4a.785.785 0 1 0-1.112 1.112l.556.555a.784.784 0 0 0 1.111 0 .785.785 0 0 0 0-1.11z"/><path fill="none" stroke="#f68b1f" stroke-miterlimit="50" d="M48.572 44.4a.785.785 0 1 0-1.112 1.112l.556.555a.784.784 0 0 0 1.111 0 .785.785 0 0 0 0-1.11z"/></g><g><path fill="#f68b1f" d="M23.042 18.87a.785.785 0 1 0-1.112 1.112l.556.555a.784.784 0 0 0 1.111 0 .785.785 0 0 0 0-1.11z"/><path fill="none" stroke="#f68b1f" stroke-miterlimit="50" d="M23.042 18.87a.785.785 0 1 0-1.112 1.112l.556.555a.784.784 0 0 0 1.111 0 .785.785 0 0 0 0-1.11z"/></g></g></g></svg>