<svg xmlns="http://www.w3.org/2000/svg" width="80" height="61" viewBox="0 0 80 61"><g><g><path fill="#fcecf2" d="M26.809 2h5.531c10.457 1.004 15.12 8.44 18.94 16.78.564 1.231.37 2.619.397 3.948.1 4.975 2.287 6.653 7.085 5.117 3.109-.995 6.155-1.5 9.368-.75.839.195 1.632.441 2.343.926 2.941 2.004 5.44 4.443 7.544 7.306 1.298 1.766 1.614 3.815 1.983 5.866v5.057c-.612 5.597-3.256 9.918-8.094 12.956-1.72 1.08-3.605 1.432-5.523 1.794h-5.106c-3.865-.366-6.905-2.282-9.52-4.984-2.099-2.168-4.753-3.287-7.647-3.868-4.496-.902-8.884-.365-13.156 1.213-1.528.565-3.11 1.05-4.53 1.823-7.586 4.124-18.712.967-23.686-8.015C1.098 44.206.241 41.13 0 37.821v-5.9c1.117-11.08 7.86-18.92 15.65-25.996 2.645-2.404 6.207-3.583 9.949-3.713.41-.014.853.115 1.21-.212"/></g><g><g><path fill="#f063a0" d="M65.747 15.794l-8.156 8.434c-.57.49-1.423.49-1.897 0l-5.027-5.198a.896.896 0 0 0-1.328 0l-7.587 7.846a.905.905 0 0 0-.285.686c0 .294.095.49.38.785l8.156 8.433-2.845 15.79c-.19.49-.57.98-1.043 1.274-.474.196-1.043.294-1.613 0-.853-.392-1.233-1.373-1.043-2.452l1.802-11.964c0-.294-.095-.588-.284-.784l-6.734-7.257c-.19-.197-.38-.295-.664-.295-.285 0-.57.099-.664.295l-7.208 7.943H16.808c-.569 0-1.043-.196-1.422-.588a2.463 2.463 0 0 1-.475-1.471c0-1.08.949-1.864 2.087-1.864h9.295c.284 0 .474-.098.663-.098L43.08 16.677c.284-.295.284-.687.19-1.08-.095-.391-.475-.588-.854-.588h-4.742c-.19 0-.474.099-.664.295l-6.45 7.06c-.19.295-.569.49-.948.49-.38 0-.759-.195-1.043-.49a1.554 1.554 0 0 1 .095-2.059l8.44-8.336h10.054c.38 0 .854.197 1.138.49l6.924 6.67c1.043.98 2.655.882 3.604-.099l4.932-5.197c.474-.49 1.422-.49 1.897 0l.095.098c.474.49.474 1.373 0 1.863zm1.328-3.334l-.095-.098c-1.233-1.275-3.414-1.275-4.647 0l-4.932 5.197c-.284.294-.664.294-.948 0l-6.924-6.668c-.664-.589-1.517-.981-2.466-.981H36.725c-.284 0-.474.098-.569.196l-8.726 8.63c-1.233 1.373-1.327 3.53-.19 4.805.57.687 1.423 1.079 2.372 1.079.948 0 1.802-.392 2.37-1.079l6.166-6.766h2.181L25.913 33.446h-8.915c-2.182 0-3.889 1.667-3.984 3.727a3.767 3.767 0 0 0 1.044 2.942c.758.686 1.707 1.176 2.75 1.176h13.278c.285 0 .474-.098.664-.294l6.829-7.55 5.69 6.177L41.562 51c-.474 1.961.474 3.825 2.087 4.61.569.293 1.043.392 1.612.392.57 0 1.138-.099 1.707-.393.949-.49 1.708-1.47 1.992-2.648l2.94-16.377c0-.294-.095-.686-.284-.882l-7.872-8.14 6.26-6.472 4.362 4.51c1.233 1.276 3.32 1.276 4.553 0l8.156-8.433c1.233-1.275 1.233-3.432 0-4.707z"/><path fill="none" stroke="#f063a0" stroke-miterlimit="50" stroke-width=".6" d="M65.747 15.794l-8.156 8.434c-.57.49-1.423.49-1.897 0l-5.027-5.198a.896.896 0 0 0-1.328 0l-7.587 7.846a.905.905 0 0 0-.285.686c0 .294.095.49.38.785l8.156 8.433-2.845 15.79c-.19.49-.57.98-1.043 1.274-.474.196-1.043.294-1.613 0-.853-.392-1.233-1.373-1.043-2.452l1.802-11.964c0-.294-.095-.588-.284-.784l-6.734-7.257c-.19-.197-.38-.295-.664-.295-.285 0-.57.099-.664.295l-7.208 7.943H16.808c-.569 0-1.043-.196-1.422-.588a2.463 2.463 0 0 1-.475-1.471c0-1.08.949-1.864 2.087-1.864h9.295c.284 0 .474-.098.663-.098L43.08 16.677c.284-.295.284-.687.19-1.08-.095-.391-.475-.588-.854-.588h-4.742c-.19 0-.474.099-.664.295l-6.45 7.06c-.19.295-.569.49-.948.49-.38 0-.759-.195-1.043-.49a1.554 1.554 0 0 1 .095-2.059l8.44-8.336h10.054c.38 0 .854.197 1.138.49l6.924 6.67c1.043.98 2.655.882 3.604-.099l4.932-5.197c.474-.49 1.422-.49 1.897 0l.095.098c.474.49.474 1.373 0 1.863zm1.328-3.334l-.095-.098c-1.233-1.275-3.414-1.275-4.647 0l-4.932 5.197c-.284.294-.664.294-.948 0l-6.924-6.668c-.664-.589-1.517-.981-2.466-.981H36.725c-.284 0-.474.098-.569.196l-8.726 8.63c-1.233 1.373-1.327 3.53-.19 4.805.57.687 1.423 1.079 2.372 1.079.948 0 1.802-.392 2.37-1.079l6.166-6.766h2.181L25.913 33.446h-8.915c-2.182 0-3.889 1.667-3.984 3.727a3.767 3.767 0 0 0 1.044 2.942c.758.686 1.707 1.176 2.75 1.176h13.278c.285 0 .474-.098.664-.294l6.829-7.55 5.69 6.177L41.562 51c-.474 1.961.474 3.825 2.087 4.61.569.293 1.043.392 1.612.392.57 0 1.138-.099 1.707-.393.949-.49 1.708-1.47 1.992-2.648l2.94-16.377c0-.294-.095-.686-.284-.882l-7.872-8.14 6.26-6.472 4.362 4.51c1.233 1.276 3.32 1.276 4.553 0l8.156-8.433c1.233-1.275 1.233-3.432 0-4.707z"/></g><g><path fill="#f063a0" d="M56.772 2.937c2.057 0 3.74 1.74 3.74 3.868 0 2.127-1.683 3.868-3.74 3.868-2.057 0-3.74-1.74-3.74-3.868s1.683-3.868 3.74-3.868zm0 9.683c3.087 0 5.612-2.615 5.612-5.81 0-3.196-2.525-5.81-5.612-5.81-3.086 0-5.612 2.614-5.612 5.81 0 3.195 2.526 5.81 5.612 5.81z"/><path fill="none" stroke="#f063a0" stroke-miterlimit="50" stroke-width=".6" d="M56.772 2.937c2.057 0 3.74 1.74 3.74 3.868 0 2.127-1.683 3.868-3.74 3.868-2.057 0-3.74-1.74-3.74-3.868s1.683-3.868 3.74-3.868zm0 9.683c3.087 0 5.612-2.615 5.612-5.81 0-3.196-2.525-5.81-5.612-5.81-3.086 0-5.612 2.614-5.612 5.81 0 3.195 2.526 5.81 5.612 5.81z"/></g></g></g></svg>