<svg xmlns="http://www.w3.org/2000/svg" width="80" height="59" viewBox="0 0 80 59"><g><g><path fill="#fcecf2" d="M26.809 0h5.531c10.457 1.004 15.12 8.44 18.94 16.78.564 1.231.37 2.619.397 3.948.1 4.975 2.287 6.653 7.085 5.117 3.109-.995 6.155-1.5 9.368-.75.839.195 1.632.441 2.343.926 2.941 2.004 5.44 4.443 7.544 7.306 1.298 1.766 1.614 3.815 1.983 5.866v5.057c-.612 5.597-3.256 9.918-8.094 12.956-1.72 1.08-3.605 1.432-5.523 1.794h-5.106c-3.865-.366-6.905-2.282-9.52-4.984-2.099-2.168-4.753-3.287-7.647-3.868-4.496-.902-8.884-.365-13.156 1.213-1.528.565-3.11 1.05-4.53 1.823-7.586 4.124-18.712.967-23.686-8.015C1.098 42.206.241 39.13 0 35.821v-5.9c1.117-11.08 7.86-18.92 15.65-25.996C18.294 1.52 21.856.342 25.598.212c.41-.014.853.115 1.21-.212"/></g><g><g><path fill="#f063a0" d="M61.419 49.05l-4.224-9.234a1.083 1.083 0 0 0-.986-.63h-1.062a14.246 14.246 0 0 0-1.858-4.304h1.6a4.535 4.535 0 0 1 4.254 2.888l3.396 8.663c.162.413.563.685 1.009.685a2.28 2.28 0 0 1 2.257 1.933zm.088 5.802c-1.015 0-1.84-.82-1.84-1.827 0-1.007.825-1.826 1.84-1.826 1.014 0 1.84.82 1.84 1.826a1.835 1.835 0 0 1-1.84 1.827zm-6.001-13.517h.006l3.53 7.716h-5.013a14.214 14.214 0 0 0 1.477-7.716zM41.068 54.852c-6.799 0-12.33-5.49-12.33-12.24 0-6.748 5.531-12.239 12.33-12.239 6.8 0 12.331 5.49 12.331 12.24 0 6.748-5.531 12.239-12.33 12.239zm-12.647-33.53a1.088 1.088 0 0 0-1.18-.233 1.075 1.075 0 0 0-.668.993v5.27h-6.409V15.965c0-1.754 1.438-3.18 3.205-3.18 1.134 0 2.161.576 2.747 1.542.023.037.047.073.074.107l5.827 7.408c.028.035.057.068.088.099.205.203.317.473.317.76a1.08 1.08 0 0 1-1.082 1.074 1.08 1.08 0 0 1-.765-.315zm-5.66 33.53v-2.149h2.73c1.411 0 2.615.898 3.062 2.149zm-1.244-20.058a8.296 8.296 0 0 1-1.353-4.544v-.75h6.41v21.055h-3.812V37.02c0-.208-.06-.41-.174-.584zm2.755-30.646c1.8 0 3.263 1.456 3.263 3.244 0 1.788-1.464 3.244-3.263 3.244S21.01 9.18 21.01 7.392c0-1.788 1.464-3.244 3.263-3.244zm9.522 20.661h1.955v4.42a14.555 14.555 0 0 0-7.011 5.828V24.675l.306.304a3.239 3.239 0 0 0 2.296.944 3.238 3.238 0 0 0 2.454-1.114zm8.161.006c0-1.895 1.553-3.437 3.461-3.437 1.909 0 3.461 1.542 3.461 3.437v.972c0 .593.484 1.074 1.082 1.074h5.73a1.08 1.08 0 0 1 1.082 1.074c0 .593-.485 1.074-1.082 1.074h-5.73c-.598 0-1.082.481-1.082 1.075v.415a14.463 14.463 0 0 0-6.922-2.247zm6.731-8.83c0 1.79-1.465 3.244-3.267 3.244-1.802 0-3.268-1.455-3.268-3.243 0-1.789 1.466-3.244 3.268-3.244 1.802 0 3.267 1.455 3.267 3.244zM61.16 36.992c-1.014-2.586-3.475-4.257-6.27-4.257h-3.172c-.038 0-.077.002-.115.006-.18-.19-.366-.374-.557-.554v-1.028h4.652c1.79 0 3.247-1.446 3.247-3.223s-1.456-3.222-3.247-3.222h-4.653A5.569 5.569 0 0 0 48.7 20.28a5.374 5.374 0 0 0 2.152-4.294c0-2.974-2.437-5.392-5.432-5.392-2.996 0-5.432 2.418-5.432 5.392 0 1.75.845 3.308 2.152 4.294a5.57 5.57 0 0 0-2.348 4.535v3.466c-.638.056-1.265.152-1.878.288v-4.834c0-.593-.484-1.074-1.082-1.074h-2.247a3.197 3.197 0 0 0-.897-2.188l-5.753-7.314a5.31 5.31 0 0 0-.928-1.108 5.386 5.386 0 0 0 2.703-4.66C29.71 4.42 27.273 2 24.277 2c-2.996 0-5.432 2.42-5.432 5.392 0 1.58.689 3.005 1.784 3.992A5.323 5.323 0 0 0 18 15.964V30.25c0 2.031.588 4.006 1.7 5.712l.897 1.375v18.589c0 .593.485 1.074 1.083 1.074h8.14c.598 0 1.082-.48 1.082-1.074a5.352 5.352 0 0 0-2.164-4.294V50.167A14.523 14.523 0 0 0 41.068 57c4.753 0 8.979-2.282 11.624-5.8h5.26a3.924 3.924 0 0 0-.45 1.825c0 2.192 1.796 3.975 4.004 3.975 2.209 0 4.005-1.783 4.005-3.975 0-.658-.163-1.279-.45-1.826h1.85c.598 0 1.083-.48 1.083-1.074v-.743c0-2.174-1.592-3.986-3.68-4.348z"/></g><g><path fill="#f063a0" d="M38.685 42.612c0-1.304 1.07-2.364 2.385-2.364 1.316 0 2.386 1.06 2.386 2.364 0 1.303-1.07 2.363-2.386 2.363-1.315 0-2.385-1.06-2.385-2.363zm6.926 0c0-2.488-2.039-4.512-4.546-4.512-2.506 0-4.545 2.024-4.545 4.512 0 2.487 2.04 4.511 4.545 4.511 2.507 0 4.546-2.024 4.546-4.511z"/></g><g><path fill="#f063a0" d="M50.07 41.54c-.597 0-1.081.48-1.081 1.074a7.843 7.843 0 0 1-4.223 6.954 1.07 1.07 0 0 0-.45 1.452 1.084 1.084 0 0 0 1.463.447c3.315-1.741 5.374-5.133 5.374-8.853 0-.593-.484-1.074-1.082-1.074z"/></g><g><path fill="#f063a0" d="M41.082 50.47h-.001a1.077 1.077 0 0 0-1.091 1.073c0 .592.486 1.073 1.083 1.075h.027a1.074 1.074 0 0 0 1.07-1.08 1.083 1.083 0 0 0-1.088-1.068z"/></g></g></g></svg>