<svg xmlns="http://www.w3.org/2000/svg" width="80" height="59" viewBox="0 0 80 59"><g><g><path fill="#fcecf2" d="M26.809 0h5.531c10.457 1.004 15.12 8.44 18.94 16.78.564 1.231.37 2.619.397 3.948.1 4.975 2.287 6.653 7.085 5.117 3.109-.995 6.155-1.5 9.368-.75.839.195 1.632.441 2.343.926 2.941 2.004 5.44 4.443 7.544 7.306 1.298 1.766 1.614 3.815 1.983 5.866v5.057c-.612 5.597-3.256 9.918-8.094 12.956-1.72 1.08-3.605 1.432-5.523 1.794h-5.106c-3.865-.366-6.905-2.282-9.52-4.984-2.099-2.168-4.753-3.287-7.647-3.868-4.496-.902-8.884-.365-13.156 1.213-1.528.565-3.11 1.05-4.53 1.823-7.586 4.124-18.712.967-23.686-8.015C1.098 42.206.241 39.13 0 35.821v-5.9c1.117-11.08 7.86-18.92 15.65-25.996C18.294 1.52 21.856.342 25.598.212c.41-.014.853.115 1.21-.212"/></g><g><g><path fill="#f063a0" d="M63.323 44.667H16.667v-10h46.656zm-1.656 5.01H60v-3.344h1.667zm-41.667 0h-1.667v-3.344H20zM18.333 30.5a2.5 2.5 0 0 1 2.5-2.5h38.343a2.5 2.5 0 0 1 2.5 2.5V33H18.334zm18.334-8.337v1.664a2.498 2.498 0 0 1-2.5 2.496H27.5c-1.38 0-2.5-1.117-2.5-2.496v-1.664a2.498 2.498 0 0 1 2.5-2.496h6.667c1.38 0 2.5 1.117 2.5 2.496zm18.333 0v1.664a2.498 2.498 0 0 1-2.5 2.496h-6.667c-1.38 0-2.5-1.117-2.5-2.496v-1.664a2.498 2.498 0 0 1 2.5-2.496H52.5c1.38 0 2.5 1.117 2.5 2.496zm-34.167-7.496h38.344v11.656H55.82a4.117 4.117 0 0 0 .855-2.498V22.16a4.17 4.17 0 0 0-4.168-4.163H45.84a4.17 4.17 0 0 0-4.168 4.163v1.665c.003.904.304 1.782.855 2.498h-5.044a4.117 4.117 0 0 0 .855-2.498V22.16a4.17 4.17 0 0 0-4.168-4.163h-6.668a4.17 4.17 0 0 0-4.168 4.163v1.665c.003.904.304 1.782.855 2.498h-3.356zm1.672-5a1.67 1.67 0 0 1 1.672 1.666A1.67 1.67 0 0 1 22.505 13a1.67 1.67 0 0 1-1.672-1.667c0-.92.749-1.666 1.672-1.666zm35 0a1.67 1.67 0 0 1 1.672 1.666A1.67 1.67 0 0 1 57.505 13a1.67 1.67 0 0 1-1.672-1.667c0-.92.749-1.666 1.672-1.666zM64.167 33h-.834v-2.5a4.167 4.167 0 0 0-2.5-3.813V13.833a.833.833 0 0 0-.5-.763 3.299 3.299 0 0 0 .5-1.737 3.333 3.333 0 0 0-6.666 0A3.3 3.3 0 0 0 54.63 13H25.37a3.3 3.3 0 0 0 .463-1.667 3.333 3.333 0 0 0-6.666 0c.001.614.175 1.216.5 1.737a.833.833 0 0 0-.5.763v12.854a4.167 4.167 0 0 0-2.5 3.813V33h-.834a.833.833 0 0 0-.833.833V45.5c0 .46.373.833.833.833h.834V50.5c0 .46.373.833.833.833h3.333c.46 0 .834-.373.834-.833v-4.167h36.666V50.5c0 .46.373.833.834.833H62.5c.46 0 .833-.373.833-.833v-4.167h.834c.46 0 .833-.373.833-.833V33.833a.833.833 0 0 0-.833-.833z"/><path fill="none" stroke="#f063a0" stroke-miterlimit="50" stroke-width=".6" d="M63.323 44.667H16.667v-10h46.656zm-1.656 5.01H60v-3.344h1.667zm-41.667 0h-1.667v-3.344H20zM18.333 30.5a2.5 2.5 0 0 1 2.5-2.5h38.343a2.5 2.5 0 0 1 2.5 2.5V33H18.334zm18.334-8.337v1.664a2.498 2.498 0 0 1-2.5 2.496H27.5c-1.38 0-2.5-1.117-2.5-2.496v-1.664a2.498 2.498 0 0 1 2.5-2.496h6.667c1.38 0 2.5 1.117 2.5 2.496zm18.333 0v1.664a2.498 2.498 0 0 1-2.5 2.496h-6.667c-1.38 0-2.5-1.117-2.5-2.496v-1.664a2.498 2.498 0 0 1 2.5-2.496H52.5c1.38 0 2.5 1.117 2.5 2.496zm-34.167-7.496h38.344v11.656H55.82a4.117 4.117 0 0 0 .855-2.498V22.16a4.17 4.17 0 0 0-4.168-4.163H45.84a4.17 4.17 0 0 0-4.168 4.163v1.665c.003.904.304 1.782.855 2.498h-5.044a4.117 4.117 0 0 0 .855-2.498V22.16a4.17 4.17 0 0 0-4.168-4.163h-6.668a4.17 4.17 0 0 0-4.168 4.163v1.665c.003.904.304 1.782.855 2.498h-3.356zm1.672-5a1.67 1.67 0 0 1 1.672 1.666A1.67 1.67 0 0 1 22.505 13a1.67 1.67 0 0 1-1.672-1.667c0-.92.749-1.666 1.672-1.666zm35 0a1.67 1.67 0 0 1 1.672 1.666A1.67 1.67 0 0 1 57.505 13a1.67 1.67 0 0 1-1.672-1.667c0-.92.749-1.666 1.672-1.666zM64.167 33h-.834v-2.5a4.167 4.167 0 0 0-2.5-3.813V13.833a.833.833 0 0 0-.5-.763 3.299 3.299 0 0 0 .5-1.737 3.333 3.333 0 0 0-6.666 0A3.3 3.3 0 0 0 54.63 13H25.37a3.3 3.3 0 0 0 .463-1.667 3.333 3.333 0 0 0-6.666 0c.001.614.175 1.216.5 1.737a.833.833 0 0 0-.5.763v12.854a4.167 4.167 0 0 0-2.5 3.813V33h-.834a.833.833 0 0 0-.833.833V45.5c0 .46.373.833.833.833h.834V50.5c0 .46.373.833.833.833h3.333c.46 0 .834-.373.834-.833v-4.167h36.666V50.5c0 .46.373.833.834.833H62.5c.46 0 .833-.373.833-.833v-4.167h.834c.46 0 .833-.373.833-.833V33.833a.833.833 0 0 0-.833-.833z"/></g><g><path fill="#f063a0" d="M22.497 41.33h-3.334a.833.833 0 0 0 0 1.667h3.334a.833.833 0 0 0 0-1.667z"/></g><g><path fill="#f063a0" d="M60.833 41.33h-35a.833.833 0 0 0 0 1.667h35a.833.833 0 0 0 0-1.667z"/></g></g></g></svg>