<svg xmlns="http://www.w3.org/2000/svg" width="80" height="60" viewBox="0 0 80 60"><g><g><path fill="#fcecf2" d="M26.809 1h5.531c10.457 1.004 15.12 8.44 18.94 16.78.564 1.231.37 2.619.397 3.948.1 4.975 2.287 6.653 7.085 5.117 3.109-.995 6.155-1.5 9.368-.75.839.195 1.632.441 2.343.926 2.941 2.004 5.44 4.443 7.544 7.306 1.298 1.766 1.614 3.815 1.983 5.866v5.057c-.612 5.597-3.256 9.918-8.094 12.956-1.72 1.08-3.605 1.432-5.523 1.794h-5.106c-3.865-.366-6.905-2.282-9.52-4.984-2.099-2.168-4.753-3.287-7.647-3.868-4.496-.902-8.884-.365-13.156 1.213-1.528.565-3.11 1.05-4.53 1.823-7.586 4.124-18.712.967-23.686-8.015C1.098 43.206.241 40.13 0 36.821v-5.9c1.117-11.08 7.86-18.92 15.65-25.996 2.645-2.404 6.207-3.583 9.949-3.713.41-.014.853.115 1.21-.212"/></g><g><g><path fill="none" stroke="#f063a0" stroke-miterlimit="50" stroke-width="2.5" d="M54.159 30.287l-6.583-4.176c-.423-.269-.92-.955-1.042-1.44l-1.818-7.185-.014-.042A1.796 1.796 0 0 0 42.942 16h-8.865c-.434 0-.828.16-1.138.417-.041.025-.085.046-.123.073l-6.314 4.465c-.721.51-1.16 1.59-.996 2.458l1.953 10.405c.168.893 1.016 1.593 1.934 1.593l1.002-.054a1.677 1.677 0 0 0 1.218-.615c.293-.365.413-.846.333-1.322l-1.364-8.025c-.071-.42.183-1.028.533-1.274l1.169-.82V35.35l-.237 6.554c-.028.754-.386 1.934-.783 2.577l-5.969 9.666c-.312.506-.38 1.085-.186 1.586.194.503.633.887 1.205 1.052l1.869.542c.21.062.431.092.66.092.93 0 1.854-.512 2.295-1.274l5.69-9.822c.473-.815.914-2.187 1.006-3.124l.525-5.37v0h1.329v0l2.035 5.195c.275.7.41 1.922.292 2.665L40.4 55.98c-.086.552.046 1.067.373 1.448.318.37.782.573 1.309.573.094 0 .19-.007.291-.02l1.927-.266c1.118-.156 2.104-1.151 2.245-2.267l1.303-10.315c.12-.936-.019-2.372-.312-3.27l-2.8-8.544v0-3.215 0l7.079 4.063a1.831 1.831 0 0 0 2.463-.637l.465-.77a1.828 1.828 0 0 0-.584-2.472z"/></g><g><path fill="none" stroke="#f063a0" stroke-miterlimit="50" stroke-width="2.5" d="M37.5 15c3.584 0 6.5-2.916 6.5-6.5S41.084 2 37.5 2A6.507 6.507 0 0 0 31 8.5c0 3.584 2.916 6.5 6.5 6.5z"/></g></g></g></svg>