<svg xmlns="http://www.w3.org/2000/svg" width="80" height="59" viewBox="0 0 80 59"><defs><clipPath id="jmala"><path d="M25 4.11h29.919v54.485H25z"/></clipPath></defs><g><g><path fill="#fcecf2" d="M26.809 0h5.531c10.457 1.004 15.12 8.44 18.94 16.78.564 1.231.37 2.619.397 3.948.1 4.975 2.287 6.653 7.085 5.117 3.109-.995 6.155-1.5 9.368-.75.839.195 1.632.441 2.343.926 2.941 2.004 5.44 4.443 7.544 7.306 1.298 1.766 1.614 3.815 1.983 5.866v5.057c-.612 5.597-3.256 9.918-8.094 12.956-1.72 1.08-3.605 1.432-5.523 1.794h-5.106c-3.865-.366-6.905-2.282-9.52-4.984-2.099-2.168-4.753-3.287-7.647-3.868-4.496-.902-8.884-.365-13.156 1.213-1.528.565-3.11 1.05-4.53 1.823-7.586 4.124-18.712.967-23.686-8.015C1.098 42.206.241 39.13 0 35.821v-5.9c1.117-11.08 7.86-18.92 15.65-25.996C18.294 1.52 21.856.342 25.598.212c.41-.014.853.115 1.21-.212"/></g><g><g><g><g/><g clip-path="url(#jmala)"><path fill="#f063a0" d="M27.851 37.468V57.15c0 .819-.627 1.446-1.442 1.445a1.418 1.418 0 0 1-1.408-1.4v-3.664c0-5.166-.003-10.333.002-15.5.002-1.508.586-2.769 1.703-3.784.067-.06.106-.118.112-.215.069-1.266.546-2.36 1.442-3.257 2.188-2.19 4.385-4.372 6.579-6.557.049-.049.092-.1.124-.163 1.22-2.435 2.442-4.87 3.664-7.305l.026-.053c-.055-.012-.09.021-.13.038-.565.247-1.11.543-1.709.708-2.463.676-4.67.185-6.578-1.506-1.228-1.088-1.954-2.474-2.16-4.1-.279-2.184.36-4.09 1.895-5.679a6.513 6.513 0 0 1 3.84-1.967c2.163-.31 4.072.277 5.685 1.747a6.54 6.54 0 0 1 2.102 3.911c.274 1.742-.089 3.356-1.056 4.834-.172.264-.342.529-.513.793-.004.007-.003.016-.006.038.363-.122.718-.25 1.078-.36 1.633-.502 3.17-.288 4.543.725 2.84 2.095 5.05 4.732 6.677 7.855a22.971 22.971 0 0 1 2.17 6.18c.23 1.16.368 2.333.409 3.515.013.375.018.75.018 1.126 0 6.298.002 12.595 0 18.893-.001 1.394-.493 2.6-1.49 3.577-1.174 1.15-2.597 1.628-4.232 1.413a5.02 5.02 0 0 1-4.283-4.172 5.384 5.384 0 0 1-.063-.85c0-6.337-.002-12.673.003-19.01a13.207 13.207 0 0 0-.865-4.727l-.231-.615c-.178.284-.345.56-.52.83-.174.269-.38.513-.607.74l-7.26 7.232c-.016.016-.029.035-.047.046-.239.143-.263.36-.26.617.013 1.014.007 2.029.005 3.043a1.421 1.421 0 0 1-1.124 1.412c-.85.194-1.702-.456-1.719-1.324a83.375 83.375 0 0 1-.003-2.214c0-.121-.036-.142-.146-.138a5.118 5.118 0 0 1-2.439-.5c-.568-.273-1.047-.666-1.505-1.09-.085-.078-.172-.154-.28-.25"/></g></g><g><path fill="#fefefe" d="M52.067 43.251c0 3.406-.002 6.811.001 10.217a2.184 2.184 0 1 1-4.367-.025c-.001-6.405.008-12.81-.005-19.215-.006-3.1-.884-5.95-2.574-8.553-.102-.155-.205-.309-.312-.46a1.421 1.421 0 0 0-2.45.177c-.444.88-.885 1.761-1.326 2.642a2.384 2.384 0 0 1-.451.628c-2.393 2.384-4.784 4.768-7.177 7.15a2.19 2.19 0 0 1-3.498-.495c-.465-.85-.291-1.892.44-2.621l6.7-6.675c.143-.142.257-.3.347-.48a7900.13 7900.13 0 0 1 3.297-6.57c.635-1.263 2.185-1.632 3.314-.781a20.063 20.063 0 0 1 5.759 6.787 20.08 20.08 0 0 1 1.995 5.828c.173.968.293 1.945.295 2.93.008 3.172.003 6.344.003 9.516z"/></g><g><path fill="#fefefe" d="M30.86 10.908c.003-2.239 1.867-4.017 4.081-3.967 2.089.047 3.9 1.743 3.897 3.982-.002 2.24-1.85 4.016-4.08 3.967-2.151-.048-3.902-1.803-3.898-3.982"/></g></g></g></g></svg>