<svg xmlns="http://www.w3.org/2000/svg" width="62" height="60" viewBox="0 0 62 60"><g><g><path fill="#e5fcfa" d="M31.901 0h2.792c5.13.278 8.418 3.377 11.152 7.283 4.177 5.97 6.166 12.797 7.784 19.78 1.09 4.7 1.372 9.486 1.8 14.261v.795a3.061 3.061 0 0 0 0 2.384v6.358c-.423 2.471-1.042 4.827-2.939 6.687-1.535 1.505-3.402 2.125-5.436 2.452h-5.582c-6.464-.567-12.11-3.74-18.138-5.688-5.117-1.655-10.098-3.72-15.292-5.154-.832-.23-1.674-.468-2.429-.89C2.685 46.632.252 44.604 0 40.929v-5.166c.471-5.76 4.24-8.289 9.366-9.472 1.746-.403 3.507-.73 5.311-.668 1.739.06 3.435-.205 5.117-.602 3.048-.718 3.867-1.701 3.911-4.79.037-2.51 0-5.02.014-7.529.014-2.55.587-4.985 1.65-7.289C26.672 2.587 28.585.438 31.901 0"/></g><g><g><path fill="#54bbbf" d="M26.318 18.97c4.372 0 7.93 3.57 7.93 7.957v8.842c0 2.926-2.37 5.305-5.287 5.305v16.799H11.337v-16.8c-2.916 0-5.287-2.379-5.287-5.304v-8.842c0-4.387 3.558-7.957 7.931-7.957zm-2.279 1.768l-1.625 1.623.846.564.875-2.187zm-2.492 0h-2.795l.881.884h1.033zm-5.287 0h-.097l.881 2.197.851-.566zm-4.913 16.8H8.302a3.525 3.525 0 0 0 3.045 1.767zm7.921 18.556v-1.758H13.1v1.758zm7.93 0v-1.758H21.03v1.758zm.001-16.789H13.1v13.263h6.17v-9.726h1.761v9.726h6.17zm1.762 0a3.525 3.525 0 0 0 3.045-1.768h-3.045zm-8.74-16.37l-4.007 2.68-1.946-4.877h-.285c-3.402 0-6.17 2.777-6.17 6.19v8.84h3.526v-10.61h1.763v12.379h14.105V25.159h1.763v10.61h3.526v-8.842c0-3.412-2.768-6.189-6.17-6.189h-.285l-1.946 4.877z"/></g><g><path fill="none" stroke="#54bbbf" stroke-miterlimit="50" stroke-width=".2" d="M26.318 18.97c4.372 0 7.93 3.57 7.93 7.957v8.842c0 2.926-2.37 5.305-5.287 5.305v16.799H11.337v-16.8c-2.916 0-5.287-2.379-5.287-5.304v-8.842c0-4.387 3.558-7.957 7.931-7.957zm-2.279 1.768l-1.625 1.623.846.564.875-2.187zm-2.492 0h-2.795l.881.884h1.033zm-5.287 0h-.097l.881 2.197.851-.566zm-4.913 16.8H8.302a3.525 3.525 0 0 0 3.045 1.767zm7.921 18.556v-1.758H13.1v1.758zm7.93 0v-1.758H21.03v1.758zm.001-16.789H13.1v13.263h6.17v-9.726h1.761v9.726h6.17zm4.807-1.768h-3.045v1.768a3.525 3.525 0 0 0 3.045-1.768zM20.221 22.935l-4.007 2.68-1.946-4.877h-.285c-3.402 0-6.17 2.777-6.17 6.19v8.84h3.526v-10.61h1.763v12.379h14.105V25.159h1.763v10.61h3.526v-8.842c0-3.412-2.768-6.189-6.17-6.189h-.285l-1.946 4.877z"/></g><g><path fill="#54bbbf" d="M60.686 3.05v47.744h-8.812v4.421a2.651 2.651 0 0 1-2.644 2.652h-7.05a2.651 2.651 0 0 1-2.643-2.652v-4.998a4.412 4.412 0 0 1-3.525-4.313V31.622c0-4.673 2.88-8.918 7.186-10.657l.11-.446-1.335-.67h-4.198a3.534 3.534 0 0 1-3.525-3.537c0-1.95 1.58-3.536 3.525-3.536h5.287v2.652h1.515l2.25-9.03A4.403 4.403 0 0 1 51.1 3.05zM41.3 14.544h-3.525c-.972 0-1.763.793-1.763 1.768 0 .976.79 1.769 1.763 1.769H41.3zm2.452 4.207l.394-1.555h-1.084v1.214zm-.69 31.851a64.946 64.946 0 0 1-1.762-.155v4.768c0 .487.395.884.88.884h.882zM49.23 56.1a.884.884 0 0 0 .882-.884v-4.421h-1.763v2.653h-1.762v-2.674a65.209 65.209 0 0 1-1.762-.062V56.1h1.762v-.884h1.762v.884zm9.694-14.146h-14.1c-.971 0-1.762.793-1.762 1.768s.79 1.768 1.763 1.768h14.099zm0-19.452h-14.82l-.039.014c-3.762 1.416-6.29 5.077-6.29 9.11v14.288c0 1.335.996 2.467 2.316 2.633 2.59.324 5.23.49 7.844.49h10.989v-1.77h-14.1A3.535 3.535 0 0 1 41.3 43.73a3.535 3.535 0 0 1 3.525-3.538h14.099zm0-17.683h-7.823c-1.215 0-2.27.827-2.564 2.01l-3.465 13.905h13.852z"/></g><g><path fill="none" stroke="#54bbbf" stroke-miterlimit="50" stroke-width=".6" d="M60.686 3.05v47.744h-8.812v4.421a2.651 2.651 0 0 1-2.644 2.652h-7.05a2.651 2.651 0 0 1-2.643-2.652v-4.998a4.412 4.412 0 0 1-3.525-4.313V31.622c0-4.673 2.88-8.918 7.186-10.657l.11-.446-1.335-.67h-4.198a3.534 3.534 0 0 1-3.525-3.537c0-1.95 1.58-3.536 3.525-3.536h5.287v2.652h1.515l2.25-9.03A4.403 4.403 0 0 1 51.1 3.05zM41.3 14.544h-3.525c-.972 0-1.763.793-1.763 1.768 0 .976.79 1.769 1.763 1.769H41.3zm2.452 4.207l.394-1.555h-1.084v1.214zm-.69 31.851a64.946 64.946 0 0 1-1.762-.155v4.768c0 .487.395.884.88.884h.882zm7.05 4.613h0v-4.421h-1.763v2.653h-1.762v-2.674a65.209 65.209 0 0 1-1.762-.062V56.1h1.762v-.884h1.762v.884h.881a.884.884 0 0 0 .882-.884zm8.812-13.262h-14.1c-.971 0-1.762.793-1.762 1.768s.79 1.768 1.763 1.768h14.099zm0-19.452h-14.82l-.039.014c-3.762 1.416-6.29 5.077-6.29 9.11v14.288c0 1.335.996 2.467 2.316 2.633 2.59.324 5.23.49 7.844.49h10.989v-1.77h-14.1A3.535 3.535 0 0 1 41.3 43.73a3.535 3.535 0 0 1 3.525-3.538h14.099zm0-17.683h-7.823c-1.215 0-2.27.827-2.564 2.01l-3.465 13.905h13.852z"/></g><g><path fill="#54bbbf" d="M40.42 30.465c0-2.926 2.371-5.305 5.287-5.305s5.287 2.38 5.287 5.305-2.37 5.305-5.287 5.305c-2.916 0-5.287-2.38-5.287-5.305m5.287-3.537a3.533 3.533 0 0 0-3.523 3.537c0 1.95 1.58 3.536 3.523 3.536a3.533 3.533 0 0 0 3.523-3.536c0-1.95-1.58-3.537-3.523-3.537"/></g><g><path fill="none" stroke="#54bbbf" stroke-miterlimit="50" stroke-width=".6" d="M45.707 25.16c2.916 0 5.287 2.38 5.287 5.305s-2.37 5.305-5.287 5.305c-2.916 0-5.287-2.38-5.287-5.305 0-2.926 2.371-5.305 5.287-5.305zm-3.523 5.305c0 1.95 1.58 3.536 3.523 3.536a3.533 3.533 0 0 0 3.523-3.536c0-1.95-1.58-3.537-3.523-3.537a3.533 3.533 0 0 0-3.523 3.537z"/></g><g><path fill="#54bbbf" d="M20.159 18.77c3.435 0 6.229-2.804 6.229-6.25 0-3.447-2.794-6.25-6.23-6.25-3.434 0-6.228 2.803-6.228 6.25"/></g><g><path fill="#54bbbf" d="M13.93 12.52c0 3.447 2.794 6.25 6.229 6.25"/></g><g><path fill="#fff" d="M16 12.516c0-2.297 1.862-4.166 4.152-4.166s4.153 1.869 4.153 4.166c0 2.298-1.862 4.167-4.153 4.167-2.29 0-4.152-1.869-4.152-4.167"/></g></g></g></svg>