<svg xmlns="http://www.w3.org/2000/svg" width="60" height="60" viewBox="0 0 60 60"><g><g><path fill="#fdf1e5" d="M26.527 0h-2.791c-5.131.278-8.418 3.377-11.152 7.283-4.178 5.97-6.166 12.797-7.784 19.78-1.09 4.7-1.372 9.486-1.8 14.261v.795c.322.795.322 1.59 0 2.384v6.358c.423 2.471 1.042 4.827 2.939 6.687C7.473 59.053 9.34 59.673 11.374 60h5.583c6.463-.567 12.11-3.74 18.138-5.688 5.117-1.655 10.097-3.72 15.292-5.154.832-.23 1.674-.468 2.429-.89 2.928-1.637 5.36-3.665 5.613-7.34v-5.166c-.472-5.76-4.24-8.289-9.367-9.472-1.745-.403-3.506-.73-5.31-.668-1.74.06-3.435-.205-5.117-.602-3.049-.718-3.868-1.701-3.912-4.79-.036-2.51 0-5.02-.013-7.529-.014-2.55-.588-4.985-1.65-7.289C31.756 2.587 29.842.438 26.526 0"/></g><g><g><path fill="#f68b1f" d="M54.3 10.862a1.145 1.145 0 0 0-1.608 0c-.211.21-.332.501-.332.8 0 .298.12.59.332.8.213.211.505.332.805.332a1.137 1.137 0 0 0 1.136-1.132c0-.299-.12-.59-.332-.8"/></g><g><path fill="none" stroke="#f68b1f" stroke-miterlimit="50" stroke-width=".6" d="M54.3 10.862a1.145 1.145 0 0 0-1.608 0c-.211.21-.332.501-.332.8 0 .298.12.59.332.8.213.211.505.332.805.332a1.137 1.137 0 0 0 1.136-1.132c0-.299-.12-.59-.332-.8z"/></g><g><path fill="#f68b1f" d="M27.94 37.582a1.145 1.145 0 0 0-1.608 0c-.211.21-.332.501-.332.8 0 .298.12.59.332.8.213.211.505.332.805.332a1.137 1.137 0 0 0 1.136-1.132c0-.299-.12-.59-.332-.8"/></g><g><path fill="none" stroke="#f68b1f" stroke-miterlimit="50" stroke-width=".6" d="M27.94 37.582a1.145 1.145 0 0 0-1.608 0c-.211.21-.332.501-.332.8 0 .298.12.59.332.8.213.211.505.332.805.332a1.137 1.137 0 0 0 1.136-1.132c0-.299-.12-.59-.332-.8z"/></g><g><path fill="#f68b1f" d="M56.907 14.806c3.88 6.773 2.71 15.356-2.848 20.872l-2.203 2.188a1.137 1.137 0 0 1-.307.216 4.27 4.27 0 0 1-4.13 2.623 4.224 4.224 0 0 1-1.248 3.175 4.27 4.27 0 0 1-3.2 1.241 4.222 4.222 0 0 1-1.25 3.176 4.285 4.285 0 0 1-3.242 1.238 4.225 4.225 0 0 1-1.247 3.22A4.27 4.27 0 0 1 34.204 54a4.27 4.27 0 0 1-3.028-1.245l-2.145-2.13-1.589 1.577a4.27 4.27 0 0 1-3.028 1.245 4.27 4.27 0 0 1-3.028-1.245 4.224 4.224 0 0 1-1.248-3.178 4.285 4.285 0 0 1-3.201-1.24 4.208 4.208 0 0 1-1.25-3.177 4.285 4.285 0 0 1-3.2-1.239 4.209 4.209 0 0 1-1.25-3.178 4.285 4.285 0 0 1-3.199-1.24A4.218 4.218 0 0 1 6.8 36.276c-.087-.05-.17-.11-.245-.184l-.428-.425C2.82 32.384 1 28.02 1 23.378s1.82-9.006 5.127-12.288C9.433 7.808 13.829 6 18.505 6c4.315 0 8.392 1.541 11.594 4.36a17.378 17.378 0 0 1 9.26-4.196 17.74 17.74 0 0 1 10.809 2.021c.549.302.747.99.443 1.534a1.141 1.141 0 0 1-1.546.44C43.16 6.906 35.694 7.95 30.912 12.697l-7.824 7.768a2.58 2.58 0 0 0 0 3.665 2.627 2.627 0 0 0 3.691 0l3.427-3.403c.214-.211.503-.33.804-.33h4.477a5.555 5.555 0 0 0 3.939-1.62l2.24-2.223a1.143 1.143 0 0 1 1.607 0c.443.44.443 1.155 0 1.595l-2.24 2.224a7.855 7.855 0 0 1-2.088 1.485L50.62 33.451c.44.436.762.945.97 1.487l.862-.856c4.835-4.8 5.854-12.268 2.478-18.161-.31-.542-.12-1.23.426-1.539a1.141 1.141 0 0 1 1.55.424M11.063 37.949c.536 0 1.04-.208 1.419-.585l1.955-1.947a1.995 1.995 0 0 0 0-2.827 1.997 1.997 0 0 0-1.419-.585c-.536 0-1.04.208-1.419.585l-1.955 1.948c-.379.377-.587.88-.587 1.413 0 .534.208 1.035.587 1.413.38.378.883.585 1.42.585m3.03 3.832c.782.78 2.055.78 2.837 0l1.955-1.947a1.995 1.995 0 0 0 0-2.827 1.997 1.997 0 0 0-1.418-.585c-.536 0-1.04.208-1.419.585l-1.955 1.948c-.38.377-.588.88-.588 1.413 0 .534.209 1.036.588 1.413m4.45 4.408a2.017 2.017 0 0 0 2.836 0l1.956-1.944a1.99 1.99 0 0 0 0-2.822 1.998 1.998 0 0 0-1.419-.584c-.536 0-1.04.208-1.419.584l-1.955 1.945c-.379.377-.587.877-.587 1.41 0 .533.208 1.034.587 1.411m9.242 2.473c.379-.377.588-.878.588-1.41 0-.534-.209-1.035-.588-1.411a2 2 0 0 0-1.419-.585 2 2 0 0 0-1.418.585l-1.956 1.944a1.99 1.99 0 0 0 0 2.822c.38.377.883.584 1.419.584s1.04-.208 1.419-.584l1.955-1.945m21.23-10.801a1.988 1.988 0 0 0 0-2.821L36.469 22.588c-.323.04-.65.062-.981.062h-4.006l-3.095 3.071a4.887 4.887 0 0 1-3.453 1.418 4.888 4.888 0 0 1-3.453-1.418 4.798 4.798 0 0 1-1.43-3.427c0-1.294.508-2.511 1.43-3.427l6.984-6.932a15.184 15.184 0 0 0-9.96-3.679 15.19 15.19 0 0 0-10.77 4.428c-2.877 2.856-4.462 6.652-4.462 10.69 0 3.883 1.466 7.541 4.135 10.356.174-.284.384-.553.63-.798l1.959-1.944a4.311 4.311 0 0 1 6.057 0 4.223 4.223 0 0 1 1.248 3.176 4.271 4.271 0 0 1 3.201 1.24 4.221 4.221 0 0 1 1.248 3.176 4.271 4.271 0 0 1 3.201 1.24 4.222 4.222 0 0 1 1.248 3.176c.058-.002.115-.004.173-.004 1.144 0 2.22.442 3.028 1.245a4.208 4.208 0 0 1 1.255 3.005c0 .527-.097 1.039-.28 1.517l2.408 2.39c.38.377.884.584 1.42.584.537 0 1.042-.207 1.422-.584a1.986 1.986 0 0 0 0-2.82l-6.33-6.283a1.122 1.122 0 0 1 0-1.595 1.143 1.143 0 0 1 1.607 0l1.35 1.339c.104.052.202.121.29.208l4.73 4.695a2.023 2.023 0 0 0 2.843 0 1.986 1.986 0 0 0 0-2.82l-4.731-4.696-.001-.001-4.448-4.415a1.122 1.122 0 0 1 0-1.595 1.143 1.143 0 0 1 1.607 0l9.18 9.11c.38.378.884.585 1.42.585.537 0 1.042-.207 1.422-.584a1.986 1.986 0 0 0 0-2.821l-9.18-9.111a1.122 1.122 0 0 1 0-1.595 1.143 1.143 0 0 1 1.607 0l4.449 4.415 4.73 4.696c.38.377.885.584 1.422.584.537 0 1.041-.207 1.421-.584"/></g><g><path fill="none" stroke="#f68b1f" stroke-miterlimit="50" stroke-width=".6" d="M54.06 35.678l-2.204 2.188a1.137 1.137 0 0 1-.307.216 4.27 4.27 0 0 1-4.13 2.623 4.224 4.224 0 0 1-1.248 3.175 4.27 4.27 0 0 1-3.2 1.241 4.222 4.222 0 0 1-1.25 3.176 4.285 4.285 0 0 1-3.242 1.238 4.225 4.225 0 0 1-1.247 3.22A4.27 4.27 0 0 1 34.204 54a4.27 4.27 0 0 1-3.028-1.245l-2.145-2.13-1.589 1.577a4.27 4.27 0 0 1-3.028 1.245 4.27 4.27 0 0 1-3.028-1.245 4.224 4.224 0 0 1-1.248-3.178 4.285 4.285 0 0 1-3.201-1.24 4.208 4.208 0 0 1-1.25-3.177 4.285 4.285 0 0 1-3.2-1.239 4.209 4.209 0 0 1-1.25-3.178 4.285 4.285 0 0 1-3.199-1.24A4.218 4.218 0 0 1 6.8 36.276c-.087-.05-.17-.11-.245-.184l-.428-.425C2.82 32.384 1 28.02 1 23.378s1.82-9.006 5.127-12.288C9.433 7.808 13.829 6 18.505 6c4.315 0 8.392 1.541 11.594 4.36a17.378 17.378 0 0 1 9.26-4.196 17.74 17.74 0 0 1 10.809 2.021c.549.302.747.99.443 1.534a1.141 1.141 0 0 1-1.546.44C43.16 6.906 35.694 7.95 30.912 12.697l-7.824 7.768a2.58 2.58 0 0 0 0 3.665 2.627 2.627 0 0 0 3.691 0l3.427-3.403c.214-.211.503-.33.804-.33h4.477a5.555 5.555 0 0 0 3.939-1.62l2.24-2.223a1.143 1.143 0 0 1 1.607 0c.443.44.443 1.155 0 1.595l-2.24 2.224a7.855 7.855 0 0 1-2.088 1.485L50.62 33.451c.44.436.762.945.97 1.487l.862-.856c4.835-4.8 5.854-12.268 2.478-18.161-.31-.542-.12-1.23.426-1.539a1.141 1.141 0 0 1 1.55.424c3.88 6.773 2.71 15.356-2.848 20.872zm-41.578 1.686l1.955-1.947a1.995 1.995 0 0 0 0-2.827 1.997 1.997 0 0 0-1.419-.585c-.536 0-1.04.208-1.418.585l-1.956 1.948c-.379.377-.587.88-.587 1.413 0 .534.208 1.035.587 1.413.38.378.883.585 1.42.585.535 0 1.039-.208 1.418-.585zm4.45 4.417l1.954-1.947a1.995 1.995 0 0 0 0-2.827 1.997 1.997 0 0 0-1.418-.585c-.536 0-1.04.208-1.419.585v0l-1.955 1.948c-.38.377-.588.88-.588 1.413 0 .534.209 1.036.588 1.413.782.78 2.055.78 2.837 0zm4.448 4.408l1.956-1.944a1.99 1.99 0 0 0 0-2.822 1.998 1.998 0 0 0-1.419-.584c-.536 0-1.04.208-1.419.584v0l-1.955 1.945c-.379.377-.587.877-.587 1.41 0 .533.208 1.034.587 1.411a2.017 2.017 0 0 0 2.837 0zm6.993 1.062c0-.533-.209-1.034-.588-1.41a2 2 0 0 0-1.419-.585 2 2 0 0 0-1.418.585v0l-1.956 1.944a1.99 1.99 0 0 0 0 2.822c.38.377.883.584 1.419.584s1.04-.208 1.419-.584l1.955-1.945c.379-.377.588-.878.588-1.41zM49.015 35.04L36.469 22.588c-.323.04-.65.062-.981.062h-4.006l-3.095 3.071a4.887 4.887 0 0 1-3.453 1.418 4.888 4.888 0 0 1-3.453-1.418 4.798 4.798 0 0 1-1.43-3.427c0-1.294.508-2.512 1.43-3.427l6.984-6.932a15.184 15.184 0 0 0-9.96-3.679 15.19 15.19 0 0 0-10.77 4.428c-2.877 2.856-4.462 6.652-4.462 10.69 0 3.883 1.466 7.541 4.135 10.356.174-.284.384-.553.63-.798l1.959-1.944a4.311 4.311 0 0 1 6.057 0 4.223 4.223 0 0 1 1.248 3.176 4.271 4.271 0 0 1 3.201 1.24 4.221 4.221 0 0 1 1.248 3.176 4.271 4.271 0 0 1 3.201 1.24 4.222 4.222 0 0 1 1.248 3.176c.058-.002.115-.004.173-.004 1.144 0 2.22.442 3.028 1.245a4.208 4.208 0 0 1 1.255 3.005c0 .527-.097 1.039-.28 1.517l2.408 2.39c.38.377.884.584 1.42.584.537 0 1.042-.207 1.422-.584a1.986 1.986 0 0 0 0-2.82l-6.33-6.283a1.122 1.122 0 0 1 0-1.595 1.143 1.143 0 0 1 1.607 0l1.35 1.339c.104.052.202.121.29.208l4.73 4.695a2.023 2.023 0 0 0 2.843 0 1.986 1.986 0 0 0 0-2.82l-4.731-4.696-.001-.001-4.448-4.415a1.122 1.122 0 0 1 0-1.595 1.143 1.143 0 0 1 1.607 0l9.18 9.11c.38.378.884.585 1.42.585.537 0 1.042-.207 1.422-.584a1.986 1.986 0 0 0 0-2.821l-9.18-9.111a1.122 1.122 0 0 1 0-1.595 1.143 1.143 0 0 1 1.607 0l4.449 4.415s0 0 0 0l4.73 4.696c.38.377.885.584 1.422.584.537 0 1.041-.207 1.421-.584a1.988 1.988 0 0 0 0-2.821z"/></g></g></g></svg>