<svg xmlns="http://www.w3.org/2000/svg" width="80" height="59" viewBox="0 0 80 59"><g><g><path fill="#fcecf2" d="M26.809 0h5.531c10.457 1.004 15.12 8.44 18.94 16.78.564 1.231.37 2.619.397 3.948.1 4.975 2.287 6.653 7.085 5.117 3.109-.995 6.155-1.5 9.368-.75.839.195 1.632.441 2.343.926 2.941 2.004 5.44 4.443 7.544 7.306 1.298 1.766 1.614 3.815 1.983 5.866v5.057c-.612 5.597-3.256 9.918-8.094 12.956-1.72 1.08-3.605 1.432-5.523 1.794h-5.106c-3.865-.366-6.905-2.282-9.52-4.984-2.099-2.168-4.753-3.287-7.647-3.868-4.496-.902-8.884-.365-13.156 1.213-1.528.565-3.11 1.05-4.53 1.823-7.586 4.124-18.712.967-23.686-8.015C1.098 42.206.241 39.13 0 35.821v-5.9c1.117-11.08 7.86-18.92 15.65-25.996C18.294 1.52 21.856.342 25.598.212c.41-.014.853.115 1.21-.212"/></g><g><g><path fill="#f063a0" d="M64.202 17.591a.732.732 0 0 1-.731-.734v-2.036c0-2.084-1.689-3.78-3.764-3.78h-1.463a.73.73 0 0 1-.67-.442l-.31-.72a2.281 2.281 0 0 0-2.096-1.38H50.32c-4.355 0-7.897 3.556-7.897 7.929v5.557c.404-.269.884-.43 1.4-.446V18c0-.133.003-.257.009-.376a.73.73 0 0 1 .869-.683 17.99 17.99 0 0 0 14.843-3.777.728.728 0 0 1 1.064.148A8.195 8.195 0 0 1 62.07 18v3.539c.516.015.996.177 1.4.445v-1.661a.733.733 0 0 1 1.462 0v11.093c0 2.173-1.76 3.94-3.922 3.94h-4.183v1.037h1.523c3.285 0 5.958 2.684 5.958 5.983V52.2a.732.732 0 0 1-.731.734H45.828a.732.732 0 0 1-.73-.734v-8.442h-3.655a.732.732 0 0 1-.73-.734c0-.406.326-.735.73-.735h4.385c.404 0 .731.33.731.735v8.442h12.776v-4.918c0-.405.327-.734.73-.734.405 0 .732.329.732.734v4.918h2.049v-9.09c0-2.49-2.017-4.515-4.496-4.515h-1.523v.366c0 2.117-3.163 3.949-3.524 4.15a.727.727 0 0 1-.712 0c-.36-.201-3.525-2.033-3.525-4.15v-.366H37.184a5.98 5.98 0 0 1 2.056 4.515V52.2a.732.732 0 0 1-.731.734h-21.26a.733.733 0 0 1-.732-.734v-7.825a2.567 2.567 0 0 1-1.487-2.329v-3.993a2.561 2.561 0 0 1 2.553-2.564h1.78c.77 0 1.44.424 1.797 1.05a5.946 5.946 0 0 1 1.315-.146h1.523V34.99a9.15 9.15 0 0 1-5.168-7.117 2.7 2.7 0 0 1-2.687-2.702v-.931c0-.629.215-1.207.574-1.667-.423-1.565-.676-2.666-.75-3.274-.15-1.2-.018-4.576-.006-4.861.008-2.004 1.635-3.632 3.632-3.632h.806l2.4-2.411a3.646 3.646 0 0 1 3.411-.97l9.195 2.197a4.92 4.92 0 0 0 4.218-.944 1.51 1.51 0 0 1 1.788-.09c.563.364.82 1.02.657 1.672l-.554 2.2a.73.73 0 1 1-1.417-.359l.554-2.2c.005-.022.012-.05-.032-.08-.044-.028-.067-.01-.085.005a6.376 6.376 0 0 1-5.468 1.224l-9.194-2.196a2.178 2.178 0 0 0-2.039.58l-2.615 2.625a.73.73 0 0 1-.516.215h-1.109a2.178 2.178 0 0 0-2.17 2.21c-.041.977-.12 3.716-.006 4.635.057.461.257 1.353.573 2.554.242-.08.499-.127.765-.135v-2.365c0-.386.298-.707.682-.733 1.911-.13 2.298-.523 2.298-2.341a.73.73 0 1 1 1.369-.36c.005.011.825 1.414 2.8 2.43 2.636 1.359 6.146 1.424 10.153.19a.728.728 0 0 1 .648.111.735.735 0 0 1 .297.59v2.478c.24.007.471.046.692.112l1.557-6.19a.731.731 0 1 1 1.417.36l-1.682 6.687c.392.47.628 1.073.628 1.732v.932a2.7 2.7 0 0 1-2.688 2.702 9.132 9.132 0 0 1-2.757 5.46 9.12 9.12 0 0 1-2.41 1.658v1.4h17.307v-1.036h-4.181c-2.164 0-3.924-1.767-3.924-3.94V16.428c0-5.182 4.198-9.398 9.358-9.398h4.85c1.494 0 2.843.89 3.436 2.267l.12.277h.982c2.881 0 5.226 2.353 5.226 5.247v2.036a.733.733 0 0 1-.731.734zm-43.974 9.511a7.683 7.683 0 0 0 4.753 6.721c.014.006.028.01.042.017a7.623 7.623 0 0 0 2.856.552 7.624 7.624 0 0 0 5.282-2.122 7.674 7.674 0 0 0 2.367-5.168.732.732 0 0 1 .73-.696h.665c.678 0 1.23-.554 1.23-1.234v-.932c0-.68-.552-1.234-1.23-1.234h-.652a.732.732 0 0 1-.731-.734v-2.238c-3.011.794-6.985 1.198-10.399-.607a9.464 9.464 0 0 1-2.17-1.567c-.373 1.162-1.23 1.757-2.754 1.976v2.436a.732.732 0 0 1-.73.734h-.654c-.678 0-1.228.554-1.228 1.234v.932c0 .68.55 1.234 1.228 1.234h.665c.389 0 .71.306.73.696zm10.068 8.43a9.11 9.11 0 0 1-4.836.001v2.694a2.426 2.426 0 0 0 2.418 2.428c.646 0 1.254-.252 1.71-.71a2.418 2.418 0 0 0 .708-1.718zm-13.804 6.514c0 .604.49 1.096 1.091 1.096h1.78a.61.61 0 0 0 .608-.61v-4.965a.61.61 0 0 0-.608-.61h-1.78c-.602 0-1.091.492-1.091 1.096zm21.286.33c0-2.49-2.017-4.515-4.497-4.515h-1.523v.366a3.88 3.88 0 0 1-1.136 2.755 3.847 3.847 0 0 1-2.744 1.141c-2.14 0-3.88-1.748-3.88-3.896v-.366h-1.523c-.354 0-.703.042-1.042.122v4.549a2.076 2.076 0 0 1-2.07 2.078H17.98v6.856h2.049v-4.918c0-.405.327-.734.731-.734.404 0 .731.329.731.734v4.918h12.776v-4.918c0-.405.327-.734.731-.734.404 0 .731.329.731.734v4.918h2.05zm17.587-6.843a9.115 9.115 0 0 1-4.837 0v2.694c0 .813 1.316 1.963 2.42 2.656 1.102-.693 2.417-1.842 2.417-2.656zm8.106-8.105c-.424.281-.931.446-1.476.446a9.139 9.139 0 0 1-3.393 6.014h2.408a2.47 2.47 0 0 0 2.46-2.472zM43.9 23.002c-.677 0-1.229.553-1.229 1.234v.93c0 .68.552 1.234 1.23 1.234h.665c.389 0 .71.306.73.696a7.679 7.679 0 0 0 4.795 6.735 7.623 7.623 0 0 0 2.854.551 7.63 7.63 0 0 0 2.884-.563 7.646 7.646 0 0 0 2.4-1.557 7.673 7.673 0 0 0 2.367-5.166.732.732 0 0 1 .73-.696h.665c.677 0 1.228-.553 1.228-1.234v-.93c0-.68-.55-1.234-1.228-1.234h-.653a.732.732 0 0 1-.731-.734v-4.27a6.728 6.728 0 0 0-.794-3.182 19.487 19.487 0 0 1-14.53 3.71v3.742a.732.732 0 0 1-.73.734zm-.002 4.872a2.667 2.667 0 0 1-1.476-.446v3.988a2.47 2.47 0 0 0 2.462 2.472h2.406a9.143 9.143 0 0 1-3.392-6.014z"/></g><g><path fill="none" stroke="#f063a0" stroke-miterlimit="50" stroke-width=".6" d="M63.47 16.857v-2.036c0-2.084-1.688-3.78-3.763-3.78h-1.463a.73.73 0 0 1-.67-.442l-.31-.72a2.281 2.281 0 0 0-2.095-1.38h-4.85c-4.354 0-7.896 3.556-7.896 7.929v5.557c.404-.269.884-.43 1.4-.446V18c0-.133.003-.257.009-.376a.73.73 0 0 1 .869-.683 17.99 17.99 0 0 0 14.843-3.777.728.728 0 0 1 1.064.148A8.195 8.195 0 0 1 62.07 18v3.539c.516.015.996.177 1.4.445v-1.661a.733.733 0 0 1 1.462 0v11.093c0 2.173-1.76 3.94-3.922 3.94h-4.183v1.037h1.523c3.285 0 5.958 2.684 5.958 5.983V52.2a.732.732 0 0 1-.731.734H45.828a.732.732 0 0 1-.73-.734v-8.442h-3.655a.732.732 0 0 1-.73-.734c0-.406.326-.735.73-.735h4.385c.404 0 .731.33.731.735v8.442h12.776v-4.918c0-.405.327-.734.73-.734.405 0 .732.329.732.734v4.918h2.049v-9.09c0-2.49-2.017-4.515-4.496-4.515h-1.523v.366c0 2.117-3.163 3.949-3.524 4.15a.727.727 0 0 1-.712 0c-.36-.201-3.525-2.033-3.525-4.15v-.366H37.184a5.98 5.98 0 0 1 2.056 4.515V52.2a.732.732 0 0 1-.731.734h-21.26a.733.733 0 0 1-.732-.734v-7.825a2.567 2.567 0 0 1-1.487-2.329v-3.993a2.561 2.561 0 0 1 2.553-2.564h1.78c.77 0 1.44.424 1.797 1.05a5.946 5.946 0 0 1 1.315-.146h1.523V34.99a9.15 9.15 0 0 1-5.168-7.117 2.7 2.7 0 0 1-2.687-2.702v-.931c0-.629.215-1.207.574-1.667-.423-1.565-.676-2.666-.75-3.274-.15-1.2-.018-4.576-.006-4.861.008-2.004 1.635-3.632 3.632-3.632h.806l2.4-2.411a3.646 3.646 0 0 1 3.411-.97l9.195 2.197a4.92 4.92 0 0 0 4.218-.944 1.51 1.51 0 0 1 1.788-.09c.563.364.82 1.02.657 1.672l-.554 2.2a.73.73 0 1 1-1.417-.359l.554-2.2c.005-.022.012-.05-.032-.08-.044-.028-.067-.01-.085.005a6.376 6.376 0 0 1-5.468 1.224l-9.194-2.196a2.178 2.178 0 0 0-2.039.58L21.22 12.06a.73.73 0 0 1-.517.215h-1.109a2.178 2.178 0 0 0-2.17 2.21c-.04.977-.12 3.716-.006 4.635.057.461.257 1.353.573 2.554.242-.08.499-.127.765-.135v-2.365c0-.386.298-.707.682-.733 1.911-.13 2.298-.523 2.298-2.341a.73.73 0 1 1 1.369-.36c.005.011.825 1.414 2.8 2.43 2.636 1.359 6.146 1.424 10.153.19a.728.728 0 0 1 .648.111.735.735 0 0 1 .297.59v2.478c.24.007.471.046.692.112l1.557-6.19a.731.731 0 1 1 1.417.36l-1.682 6.687c.392.47.628 1.073.628 1.732v.932a2.7 2.7 0 0 1-2.688 2.702 9.132 9.132 0 0 1-2.757 5.46 9.12 9.12 0 0 1-2.41 1.658v1.4h17.307v-1.036h-4.181c-2.164 0-3.924-1.767-3.924-3.94V16.428c0-5.182 4.198-9.398 9.358-9.398h4.85c1.494 0 2.843.89 3.436 2.267l.12.277h.982c2.881 0 5.226 2.353 5.226 5.247v2.036a.733.733 0 0 1-.731.734.732.732 0 0 1-.731-.734zM24.982 33.823c.014.006.028.01.042.017a7.623 7.623 0 0 0 2.856.552 7.624 7.624 0 0 0 5.282-2.122 7.674 7.674 0 0 0 2.367-5.168.732.732 0 0 1 .73-.696h.665c.678 0 1.23-.554 1.23-1.234v-.932c0-.68-.552-1.234-1.23-1.234h-.652a.732.732 0 0 1-.731-.734v-2.238c-3.011.794-6.985 1.198-10.399-.607a9.464 9.464 0 0 1-2.17-1.567c-.373 1.162-1.23 1.757-2.754 1.976v2.436a.732.732 0 0 1-.73.734h-.654c-.678 0-1.228.554-1.228 1.234v.932c0 .68.55 1.234 1.228 1.234h.665c.389 0 .71.306.73.696a7.683 7.683 0 0 0 4.753 6.721zm2.898 2.037a9.107 9.107 0 0 1-2.42-.327v2.694a2.426 2.426 0 0 0 2.419 2.428c.646 0 1.254-.252 1.71-.71a2.418 2.418 0 0 0 .708-1.718v-2.694a9.11 9.11 0 0 1-2.417.327zm-10.296 7.282h1.78a.61.61 0 0 0 .608-.61v-4.965a.61.61 0 0 0-.608-.61h-1.78c-.602 0-1.091.492-1.091 1.096v3.993c0 .604.49 1.096 1.091 1.096zm15.698-5.281h-1.523v.366a3.88 3.88 0 0 1-1.136 2.755 3.847 3.847 0 0 1-2.744 1.141c-2.14 0-3.88-1.748-3.88-3.896v-.366h-1.523c-.354 0-.703.042-1.042.122v4.549a2.076 2.076 0 0 1-2.07 2.078H17.98v6.856h2.049v-4.918c0-.405.327-.734.731-.734.404 0 .731.329.731.734v4.918h12.776v-4.918c0-.405.327-.734.731-.734.404 0 .731.329.731.734v4.918h2.05v-9.09c0-2.49-2.017-4.515-4.497-4.515zm22.084-2.328a9.115 9.115 0 0 1-4.837 0v2.694c0 .813 1.316 1.963 2.42 2.656 1.102-.693 2.417-1.842 2.417-2.656zm6.63-7.659a9.139 9.139 0 0 1-3.393 6.014h2.408a2.47 2.47 0 0 0 2.46-2.472v-3.988c-.423.281-.93.446-1.475.446zm-19.323-3.638h0v.93c0 .68.552 1.234 1.23 1.234h.665c.389 0 .71.306.73.696a7.679 7.679 0 0 0 4.795 6.735 7.623 7.623 0 0 0 2.854.551 7.63 7.63 0 0 0 2.884-.563 7.646 7.646 0 0 0 2.4-1.557 7.673 7.673 0 0 0 2.367-5.166.732.732 0 0 1 .73-.696h.665c.677 0 1.228-.553 1.228-1.234v-.93c0-.68-.55-1.234-1.228-1.234h-.653a.732.732 0 0 1-.731-.734v-4.27a6.728 6.728 0 0 0-.794-3.182 19.487 19.487 0 0 1-14.53 3.71v3.742a.732.732 0 0 1-.73.734h-.652c-.678 0-1.23.553-1.23 1.234zm-.25 3.192v3.988a2.47 2.47 0 0 0 2.463 2.472h2.406a9.143 9.143 0 0 1-3.392-6.014 2.667 2.667 0 0 1-1.476-.446z"/></g></g></g></svg>