<svg xmlns="http://www.w3.org/2000/svg" width="56" height="60" viewBox="0 0 56 60"><g><g><path fill="#fdf1e5" d="M23.527 0h-2.791c-5.131.278-8.418 3.377-11.152 7.283-4.178 5.97-6.166 12.797-7.784 19.78C.71 31.762.428 36.548 0 41.323v.795c.322.795.322 1.59 0 2.384v6.358c.423 2.471 1.042 4.827 2.939 6.687C4.473 59.053 6.34 59.673 8.374 60h5.583c6.463-.567 12.11-3.74 18.138-5.688 5.117-1.655 10.097-3.72 15.292-5.154.832-.23 1.674-.468 2.429-.89 2.928-1.637 5.36-3.665 5.613-7.34v-5.166c-.472-5.76-4.24-8.289-9.367-9.472-1.745-.403-3.506-.73-5.31-.668-1.74.06-3.435-.205-5.117-.602-3.049-.718-3.868-1.701-3.912-4.79-.036-2.51 0-5.02-.013-7.529-.014-2.55-.588-4.985-1.65-7.289C28.756 2.587 26.842.438 23.526 0"/></g><g><g><path fill="#f68b1f" d="M51.424 21.24l-5.459 17.347-4.397-1.439 5.459-17.27c.303-.834 1.213-1.364 2.046-1.061l1.213.379c.91.227 1.44 1.212 1.138 2.045zm-9.931 23.786l-.152-6.287 3.797 1.212zM8.094 52.373V8.515h22.802v11.362c0 .455.303.758.758.758H43.47v5.68l-3.56 11.212v.227l.152 9.62c0 .303.227.606.53.682.303.075.682 0 .833-.303l2.045-2.727v7.347zm-3.56 3.106V11.621H6.58v41.51c0 .454.303.757.757.757h32.5v1.591zm27.87-45.904l9.932 9.545h-9.932zm18.413 8.181l-1.212-.378c-.303-.076-.606-.152-.984-.152-1.364 0-2.576.909-3.03 2.197l-.682 2.045v-1.59c0-.228-.152-.455-.303-.607L32.183 7.227a.818.818 0 0 0-.53-.227H7.338c-.455 0-.758.303-.758.757v2.349H3.777c-.454 0-.757.303-.757.757v45.374c0 .454.303.757.757.757h36.814c.455 0 .758-.303.758-.757v-2.349h2.802c.455 0 .758-.303.758-.757V42.905l2.12-2.879.077-.227 5.68-18.104c.607-1.666-.302-3.408-1.969-3.939z"/><path fill="none" stroke="#f68b1f" stroke-miterlimit="50" stroke-width=".6" d="M51.424 21.24l-5.459 17.347-4.397-1.439 5.459-17.27c.303-.834 1.213-1.364 2.046-1.061l1.213.379c.91.227 1.44 1.212 1.138 2.045zm-9.931 23.786l-.152-6.287 3.797 1.212zM8.094 52.373V8.515h22.802v11.362c0 .455.303.758.758.758H43.47v5.68l-3.56 11.212v.227l.152 9.62c0 .303.227.606.53.682.303.075.682 0 .833-.303l2.045-2.727v7.347zm-3.56 3.106V11.621H6.58v41.51c0 .454.303.757.757.757h32.5v1.591zm27.87-45.904l9.932 9.545h-9.932zm18.413 8.181l-1.212-.378c-.303-.076-.606-.152-.984-.152-1.364 0-2.576.909-3.03 2.197l-.682 2.045v-1.59c0-.228-.152-.455-.303-.607L32.183 7.227a.818.818 0 0 0-.53-.227H7.338c-.455 0-.758.303-.758.757v2.349H3.777c-.454 0-.757.303-.757.757v45.374c0 .454.303.757.757.757h36.814c.455 0 .758-.303.758-.757v-2.349h2.802c.455 0 .758-.303.758-.757V42.905l2.12-2.879.077-.227 5.68-18.104c.607-1.666-.302-3.408-1.969-3.939z"/></g><g><path fill="#f68b1f" d="M14.005 12.905h9.403v6.221h-9.403zm-.758 7.726h10.908c.455 0 .758-.303.758-.757v-7.727c0-.454-.303-.757-.758-.757H13.247c-.454 0-.757.303-.757.757v7.727c0 .379.379.757.757.757z"/><path fill="none" stroke="#f68b1f" stroke-miterlimit="50" stroke-width=".6" d="M14.005 12.905h9.403v6.221h-9.403zm-.758 7.726h10.908c.455 0 .758-.303.758-.757v-7.727c0-.454-.303-.757-.758-.757H13.247c-.454 0-.757.303-.757.757v7.727c0 .379.379.757.757.757z"/></g><g><path fill="#f68b1f" d="M11.727 27.755h23.028c.455 0 .757-.303.757-.758 0-.454-.303-.757-.757-.757H11.727c-.454 0-.757.303-.757.757 0 .455.303.758.757.758z"/><path fill="none" stroke="#f68b1f" stroke-miterlimit="50" stroke-width=".6" d="M11.727 27.755h23.028c.455 0 .757-.303.757-.758 0-.454-.303-.757-.757-.757H11.727c-.454 0-.757.303-.757.757 0 .455.303.758.757.758z"/></g><g><path fill="#f68b1f" d="M11.727 33.285h23.028c.455 0 .757-.303.757-.758 0-.454-.303-.757-.757-.757H11.727c-.454 0-.757.303-.757.757 0 .455.303.758.757.758z"/><path fill="none" stroke="#f68b1f" stroke-miterlimit="50" stroke-width=".6" d="M11.727 33.285h23.028c.455 0 .757-.303.757-.758 0-.454-.303-.757-.757-.757H11.727c-.454 0-.757.303-.757.757 0 .455.303.758.757.758z"/></g><g><path fill="#f68b1f" d="M11.727 38.815h23.028c.455 0 .757-.303.757-.758 0-.454-.303-.757-.757-.757H11.727c-.454 0-.757.303-.757.757 0 .455.303.758.757.758z"/><path fill="none" stroke="#f68b1f" stroke-miterlimit="50" stroke-width=".6" d="M11.727 38.815h23.028c.455 0 .757-.303.757-.758 0-.454-.303-.757-.757-.757H11.727c-.454 0-.757.303-.757.757 0 .455.303.758.757.758z"/></g><g><path fill="#f68b1f" d="M35.437 43.587c0-.454-.303-.757-.758-.757H11.727c-.454 0-.757.303-.757.757 0 .455.303.758.757.758h23.028c.379 0 .682-.379.682-.758z"/><path fill="none" stroke="#f68b1f" stroke-miterlimit="50" stroke-width=".6" d="M35.437 43.587c0-.454-.303-.757-.758-.757H11.727c-.454 0-.757.303-.757.757 0 .455.303.758.757.758h23.028c.379 0 .682-.379.682-.758z"/></g><g><path fill="#f68b1f" d="M37.935 48.36H26.497c-.454 0-.757.303-.757.757 0 .455.303.758.757.758H37.86c.454 0 .757-.303.757-.758 0-.454-.303-.757-.682-.757z"/><path fill="none" stroke="#f68b1f" stroke-miterlimit="50" stroke-width=".6" d="M37.935 48.36H26.497c-.454 0-.757.303-.757.757 0 .455.303.758.757.758H37.86c.454 0 .757-.303.757-.758 0-.454-.303-.757-.682-.757z"/></g></g></g></svg>