<svg xmlns="http://www.w3.org/2000/svg" width="80" height="59" viewBox="0 0 80 59"><defs><clipPath id="st5oa"><path d="M15 53.468h50V6H15z"/></clipPath></defs><g><g><path fill="#fcecf2" d="M26.809 0h5.531c10.457 1.004 15.12 8.44 18.94 16.78.564 1.231.37 2.619.397 3.948.1 4.975 2.287 6.653 7.085 5.117 3.109-.995 6.155-1.5 9.368-.75.839.195 1.632.441 2.343.926 2.941 2.004 5.44 4.443 7.544 7.306 1.298 1.766 1.614 3.815 1.983 5.866v5.057c-.612 5.597-3.256 9.918-8.094 12.956-1.72 1.08-3.605 1.432-5.523 1.794h-5.106c-3.865-.366-6.905-2.282-9.52-4.984-2.099-2.168-4.753-3.287-7.647-3.868-4.496-.902-8.884-.365-13.156 1.213-1.528.565-3.11 1.05-4.53 1.823-7.586 4.124-18.712.967-23.686-8.015C1.098 42.206.241 39.13 0 35.821v-5.9c1.117-11.08 7.86-18.92 15.65-25.996C18.294 1.52 21.856.342 25.598.212c.41-.014.853.115 1.21-.212"/></g><g><g><path fill="#f0679e" d="M62.529 27.172a2.467 2.467 0 0 1 2.468 2.465v1.643a2.467 2.467 0 0 1-2.468 2.465h-.822v9.038a7.396 7.396 0 0 1-4.114 6.615v2.424c0 .908-.738 1.643-1.646 1.643h-1.645c-.91 0-1.647-.735-1.647-1.643v-1.644h-23.86v1.644c0 .908-.737 1.643-1.645 1.643h-1.647a1.644 1.644 0 0 1-1.645-1.643v-2.075a7.402 7.402 0 0 1-4.937-6.964v-9.038h-.823a2.467 2.467 0 0 1-2.468-2.465v-1.643a2.467 2.467 0 0 1 2.468-2.465h.823V9.095A2.467 2.467 0 0 1 21.39 6.63h4.113a2.467 2.467 0 0 1 2.469 2.465v1.643h1.646a2.467 2.467 0 0 1 2.468 2.465 2.467 2.467 0 0 1-2.468 2.465h-4.937a2.467 2.467 0 0 1-2.468-2.465 2.467 2.467 0 0 1 2.468-2.465h1.646V9.095a.822.822 0 0 0-.824-.822H21.39a.822.822 0 0 0-.822.822v18.077h17.277v-2.466h11.52v2.466h7.405V21.42h-1.646v2.465h-4.937v-4.93a2.467 2.467 0 0 1 2.468-2.465h4.115v-.822a2.467 2.467 0 0 1 2.468-2.465 2.467 2.467 0 0 1 2.469 2.465v11.504zM24.68 12.382a.825.825 0 0 0-.823.826c0 .457.369.827.823.827h4.937c.454 0 .822-.37.822-.827a.825.825 0 0 0-.822-.827zm33.734 4.108h1.635v-.822a.819.819 0 1 0-1.635 0zm-6.582 5.752h1.645v-.822h-1.645zm8.227-2.455v-1.654h-7.405a.825.825 0 0 0-.822.827v.827zm-1.645 7.385h1.635v-5.75h-1.635zM39.491 38.675h8.229V26.35H39.49zm-1.646-6.583v-3.277H18.098a.82.82 0 0 0-.822.82v1.638c0 .453.369.82.822.82zm-12.34 19.73h1.645V50.18h-1.646zm28.797 0h1.645V50.18h-1.645zm5.758-18.077H49.365v8.217h-1.646v-1.644h-1.646v1.644h-1.645v-1.644h-1.646v1.644h-1.645v-1.644H39.49v1.644h-1.646v-8.217H20.568v9.038a5.761 5.761 0 0 0 5.759 5.752h27.975a5.763 5.763 0 0 0 5.758-5.752zm3.292-4.11a.821.821 0 0 0-.823-.82H49.365v3.277h13.164a.821.821 0 0 0 .823-.82z"/></g><g><path fill="none" stroke="#f0679e" stroke-miterlimit="50" stroke-width=".6" d="M64.997 29.637v1.643a2.467 2.467 0 0 1-2.468 2.465h-.822v9.038a7.396 7.396 0 0 1-4.114 6.615v2.424c0 .908-.738 1.643-1.646 1.643h-1.645c-.91 0-1.647-.735-1.647-1.643v-1.644h-23.86v1.644c0 .908-.737 1.643-1.645 1.643h-1.647a1.644 1.644 0 0 1-1.645-1.643v-2.075a7.402 7.402 0 0 1-4.937-6.964v-9.038h-.823a2.467 2.467 0 0 1-2.468-2.465v-1.643a2.467 2.467 0 0 1 2.468-2.465h.823V9.095A2.467 2.467 0 0 1 21.39 6.63h4.113a2.467 2.467 0 0 1 2.469 2.465v1.643h1.646a2.467 2.467 0 0 1 2.468 2.465 2.467 2.467 0 0 1-2.468 2.465h-4.937a2.467 2.467 0 0 1-2.468-2.465 2.467 2.467 0 0 1 2.468-2.465h1.646V9.095a.822.822 0 0 0-.824-.822H21.39a.822.822 0 0 0-.822.822v18.077h17.277v-2.466h11.52v2.466h7.405V21.42h-1.646v2.465h-4.937v-4.93a2.467 2.467 0 0 1 2.468-2.465h4.115v-.822a2.467 2.467 0 0 1 2.468-2.465 2.467 2.467 0 0 1 2.469 2.465v11.504h.822a2.467 2.467 0 0 1 2.468 2.465zM24.681 12.381a.825.825 0 0 0-.823.827c0 .457.369.827.823.827h4.937c.454 0 .822-.37.822-.827a.825.825 0 0 0-.822-.827zm33.734 4.11h1.635v-.823a.819.819 0 1 0-1.635 0zm-6.582 5.751h1.645v-.822h-1.645zm8.227-2.455v-1.654h-7.405a.825.825 0 0 0-.822.827v.827zm-1.645 7.385h1.635v-5.75h-1.635zM39.491 38.675h8.229V26.35H39.49zm-1.646-6.583v-3.277H18.098a.82.82 0 0 0-.822.82v1.638c0 .453.369.82.822.82zm-12.34 19.73h1.645V50.18h-1.646zm28.797 0h1.645V50.18h-1.645zm5.758-18.077H49.365v8.217h-1.646v-1.644h-1.646v1.644h-1.645v-1.644h-1.646v1.644h-1.645v-1.644H39.49v1.644h-1.646v-8.217H20.568v9.038a5.761 5.761 0 0 0 5.759 5.752h27.975a5.763 5.763 0 0 0 5.758-5.752zm3.292-4.11a.821.821 0 0 0-.823-.82H49.365v3.277h13.164a.821.821 0 0 0 .823-.82z"/></g><g/><g clip-path="url(#st5oa)"><path fill="#f0679e" d="M22.59 18.659h1.899V16.76H22.59z"/></g><g clip-path="url(#st5oa)"><path fill="none" stroke="#f0679e" stroke-miterlimit="50" stroke-width=".6" d="M22.59 18.659v0h1.899v0-1.899 0H22.59v0z"/></g><g clip-path="url(#st5oa)"><path fill="#f0679e" d="M25.76 18.659h1.899V16.76H25.76z"/></g><g clip-path="url(#st5oa)"><path fill="none" stroke="#f0679e" stroke-miterlimit="50" stroke-width=".6" d="M25.76 18.659v0h1.899v0-1.899 0H25.76v0z"/></g><g clip-path="url(#st5oa)"><path fill="#f0679e" d="M28.92 18.659h1.899V16.76H28.92z"/></g><g clip-path="url(#st5oa)"><path fill="none" stroke="#f0679e" stroke-miterlimit="50" stroke-width=".6" d="M28.92 18.659v0h1.899v0-1.899 0H28.92v0z"/></g><g clip-path="url(#st5oa)"><path fill="#f0679e" d="M22.59 25.619h1.899V23.72H22.59z"/></g><g clip-path="url(#st5oa)"><path fill="none" stroke="#f0679e" stroke-miterlimit="50" stroke-width=".6" d="M22.59 25.619v0h1.899v0-1.899 0H22.59v0z"/></g><g clip-path="url(#st5oa)"><path fill="#f0679e" d="M25.76 25.619h1.899V23.72H25.76z"/></g><g clip-path="url(#st5oa)"><path fill="none" stroke="#f0679e" stroke-miterlimit="50" stroke-width=".6" d="M25.76 25.619v0h1.899v0-1.899 0H25.76v0z"/></g><g clip-path="url(#st5oa)"><path fill="#f0679e" d="M28.92 25.619h1.899V23.72H28.92z"/></g><g clip-path="url(#st5oa)"><path fill="none" stroke="#f0679e" stroke-miterlimit="50" stroke-width=".6" d="M28.92 25.619v0h1.899v0-1.899 0H28.92v0z"/></g><g clip-path="url(#st5oa)"><path fill="#f0679e" d="M24.49 21.819h1.899V19.92H24.49z"/></g><g clip-path="url(#st5oa)"><path fill="none" stroke="#f0679e" stroke-miterlimit="50" stroke-width=".6" d="M24.49 21.819v0h1.899v0-1.899 0H24.49v0z"/></g><g clip-path="url(#st5oa)"><path fill="#f0679e" d="M27.66 21.819h1.899V19.92H27.66z"/></g><g clip-path="url(#st5oa)"><path fill="none" stroke="#f0679e" stroke-miterlimit="50" stroke-width=".6" d="M27.66 21.819v0h1.899v0-1.899 0H27.66v0z"/></g></g></g></svg>