<svg xmlns="http://www.w3.org/2000/svg" width="62" height="60" viewBox="0 0 62 60"><g><g><path fill="#e5fcfa" d="M37.901 0h2.792c5.13.278 8.418 3.377 11.152 7.283 4.177 5.97 6.166 12.797 7.784 19.78 1.09 4.7 1.372 9.486 1.8 14.261v.795a3.061 3.061 0 0 0 0 2.384v6.358c-.423 2.471-1.042 4.827-2.939 6.687-1.535 1.505-3.402 2.125-5.436 2.452h-5.582c-6.464-.567-12.11-3.74-18.138-5.688-5.117-1.655-10.098-3.72-15.292-5.154-.832-.23-1.674-.468-2.429-.89-2.928-1.637-5.361-3.665-5.613-7.34v-5.166c.471-5.76 4.24-8.289 9.366-9.472 1.746-.403 3.507-.73 5.311-.668 1.739.06 3.435-.205 5.117-.602 3.048-.718 3.867-1.701 3.911-4.79.037-2.51 0-5.02.014-7.529.014-2.55.587-4.985 1.65-7.289C32.672 2.587 34.585.438 37.901 0"/></g><g><g><path fill="#54bbbf" d="M56.804 51.036H41.176v-13.5a.969.969 0 0 0-.968-.97h-6.2a.969.969 0 0 0-.968.97v13.5h-4.262V20.874L42.79 9.83l14.013 11.044zm-17.561-7.223c-.022-.001-.043-.003-.065-.003a.972.972 0 0 0-.969.969.973.973 0 0 0 .97.97c.02 0 .042-.003.064-.004v5.301h-4.264V38.512h4.264zM11.207 48.85h9.431v2.186h-9.431zm9.431-6.084h-9.431v-2.187h9.431zm-9.431 1.948h9.431v2.177h-9.431zm-6.202-5.233l10.917-8.6 10.918 8.6v11.556h-4.264V39.606a.969.969 0 0 0-.969-.969h-11.37a.969.969 0 0 0-.968.969v11.43H5.005zm10.238-13.233c.4-.315.96-.315 1.36 0L26.84 34.31v2.7l-10.318-8.125a.97.97 0 0 0-1.2 0L2.939 38.636v-2.699zm11.468-8.92L42.116 5.196c.4-.315.96-.315 1.36 0L58.88 17.328v2.7L43.396 7.833a.967.967 0 0 0-1.2 0L26.711 20.028zm4.134-9.83h2.196v2.376l-2.196 1.727zM59.25 22.793a.968.968 0 0 0 1.57-.761v-5.168a.969.969 0 0 0-.37-.761L44.675 3.673a3.027 3.027 0 0 0-3.758 0l-5.938 4.679V6.528a.969.969 0 0 0-.969-.97h-4.134a.969.969 0 0 0-.969.97v6.608l-3.765 2.967a.969.969 0 0 0-.37.76v5.169a.969.969 0 0 0 1.57.76l.498-.392v9.443L17.8 24.722a3.027 3.027 0 0 0-3.758 0L1.37 34.707a.969.969 0 0 0-.369.761v5.168a.969.969 0 0 0 1.569.761l.498-.392v10.032H1.97a.969.969 0 0 0 0 1.938H59.85a.969.969 0 0 0 0-1.938h-1.098V22.4z"/><path fill="none" stroke="#54bbbf" stroke-miterlimit="50" stroke-width=".4" d="M56.804 51.036H41.176v-13.5a.969.969 0 0 0-.968-.97h-6.2a.969.969 0 0 0-.968.97v13.5h-4.262V20.874L42.79 9.83l14.013 11.044zm-17.561-7.223c-.022-.001-.043-.003-.065-.003a.972.972 0 0 0-.969.969.973.973 0 0 0 .97.97c.02 0 .042-.003.064-.004v5.301h-4.264V38.512h4.264zM11.207 48.85h9.431v2.186h-9.431zm9.431-6.084h-9.431v-2.187h9.431zm-9.431 1.948h9.431v2.177h-9.431zm-6.202-5.233l10.917-8.6 10.918 8.6v11.556h-4.264V39.606a.969.969 0 0 0-.969-.969h-11.37a.969.969 0 0 0-.968.969v11.43H5.005zm10.238-13.233c.4-.315.96-.315 1.36 0L26.84 34.31v2.7l-10.318-8.125a.97.97 0 0 0-1.2 0L2.939 38.636v-2.699zm11.468-8.92L42.116 5.196c.4-.315.96-.315 1.36 0L58.88 17.328v2.7L43.396 7.833a.967.967 0 0 0-1.2 0L26.711 20.028zm4.134-9.83h2.196v2.376l-2.196 1.727zM59.25 22.793a.968.968 0 0 0 1.57-.761v-5.168a.969.969 0 0 0-.37-.761L44.675 3.673a3.027 3.027 0 0 0-3.758 0l-5.938 4.679V6.528a.969.969 0 0 0-.969-.97h-4.134a.969.969 0 0 0-.969.97v6.608l-3.765 2.967a.969.969 0 0 0-.37.76v5.169a.969.969 0 0 0 1.57.76l.498-.392v9.443L17.8 24.722a3.027 3.027 0 0 0-3.758 0L1.37 34.707a.969.969 0 0 0-.369.761v5.168a.969.969 0 0 0 1.569.761l.498-.392v10.032H1.97a.969.969 0 0 0 0 1.938H59.85a.969.969 0 0 0 0-1.938h-1.098V22.4z"/></g><g><path fill="#54bbbf" d="M50.612 38.508v1.163h-4.264v-1.163zm-4.264 6.33v-3.23h4.264v3.23zm-.969 1.939h6.202a.969.969 0 0 0 .969-.97V37.54a.969.969 0 0 0-.97-.969H45.38a.969.969 0 0 0-.969.969v8.269c0 .535.434.969.969.969z"/><path fill="none" stroke="#54bbbf" stroke-miterlimit="50" stroke-width=".4" d="M50.612 38.508v1.163h-4.264v-1.163zm-4.264 6.33v-3.23h4.264v3.23zm-.969 1.939h6.202a.969.969 0 0 0 .969-.97V37.54a.969.969 0 0 0-.97-.969H45.38a.969.969 0 0 0-.969.969v8.269c0 .535.434.969.969.969z"/></g><g><path fill="#54bbbf" d="M50.612 24.038v1.163h-4.264v-1.163zm-4.264 6.33v-3.23h4.264v3.23zm-.969 1.939h6.202a.969.969 0 0 0 .969-.97V23.07a.969.969 0 0 0-.97-.969H45.38a.969.969 0 0 0-.969.969v8.269c0 .535.434.969.969.969z"/><path fill="none" stroke="#54bbbf" stroke-miterlimit="50" stroke-width=".4" d="M50.612 24.038v1.163h-4.264v-1.163zm-4.264 6.33v-3.23h4.264v3.23zm-.969 1.939h6.202a.969.969 0 0 0 .969-.97V23.07a.969.969 0 0 0-.97-.969H45.38a.969.969 0 0 0-.969.969v8.269c0 .535.434.969.969.969z"/></g><g><path fill="#54bbbf" d="M34.978 30.369v-3.23h4.264v3.23zm4.264-6.331v1.163h-4.264v-1.163zm.969-1.938h-6.202a.969.969 0 0 0-.969.969v8.269c0 .535.434.969.969.969h6.202a.969.969 0 0 0 .969-.97V23.07a.969.969 0 0 0-.97-.969z"/><path fill="none" stroke="#54bbbf" stroke-miterlimit="50" stroke-width=".4" d="M34.978 30.369v-3.23h4.264v3.23zm4.264-6.331v1.163h-4.264v-1.163zm.969-1.938h-6.202a.969.969 0 0 0-.969.969v8.269c0 .535.434.969.969.969h6.202a.969.969 0 0 0 .969-.97V23.07a.969.969 0 0 0-.97-.969z"/></g></g></g></svg>