<svg xmlns="http://www.w3.org/2000/svg" width="56" height="61" viewBox="0 0 56 61"><g><g><path fill="#fdf1e5" d="M23.527 0h-2.791c-5.131.278-8.418 3.377-11.152 7.283-4.178 5.97-6.166 12.797-7.784 19.78C.71 31.762.428 36.548 0 41.323v.795c.322.795.322 1.59 0 2.384v6.358c.423 2.471 1.042 4.827 2.939 6.687C4.473 59.053 6.34 59.673 8.374 60h5.583c6.463-.567 12.11-3.74 18.138-5.688 5.117-1.655 10.097-3.72 15.292-5.154.832-.23 1.674-.468 2.429-.89 2.928-1.637 5.36-3.665 5.613-7.34v-5.166c-.472-5.76-4.24-8.289-9.367-9.472-1.745-.403-3.506-.73-5.31-.668-1.74.06-3.435-.205-5.117-.602-3.049-.718-3.868-1.701-3.912-4.79-.036-2.51 0-5.02-.013-7.529-.014-2.55-.588-4.985-1.65-7.289C28.756 2.587 26.842.438 23.526 0"/></g><g><g><g><path fill="#f68b1f" d="M25.623 32.998a1.226 1.226 0 0 1-1.226-1.227c0-1.267-.562-1.855-1.34-2.67-.898-.942-2.017-2.114-2.017-4.363 0-2.25 1.119-3.423 2.018-4.364.777-.815 1.339-1.403 1.339-2.67 0-1.268-.562-1.856-1.34-2.67-.898-.943-2.017-2.115-2.017-4.364 0-2.25 1.119-3.422 2.018-4.364.777-.814 1.339-1.403 1.339-2.67a1.226 1.226 0 1 1 2.452 0c0 2.25-1.118 3.422-2.017 4.363-.778.815-1.34 1.403-1.34 2.67 0 1.268.562 1.856 1.34 2.67.898.943 2.017 2.115 2.017 4.364 0 2.25-1.118 3.422-2.017 4.364-.778.814-1.34 1.403-1.34 2.67 0 1.268.562 1.856 1.34 2.67.898.942 2.017 2.115 2.017 4.364 0 .678-.549 1.227-1.226 1.227z"/></g><g><path fill="#f68b1f" d="M31.903 31.588a1.226 1.226 0 0 1-1.226-1.227c0-1.267-.562-1.856-1.34-2.67-.898-.942-2.017-2.114-2.017-4.364s1.119-3.421 2.017-4.363c.778-.815 1.34-1.403 1.34-2.67 0-1.268-.562-1.857-1.34-2.671-.898-.942-2.017-2.114-2.017-4.363 0-2.25 1.119-3.422 2.018-4.364.777-.814 1.339-1.403 1.339-2.67a1.226 1.226 0 1 1 2.452 0c0 2.25-1.119 3.422-2.018 4.363-.777.815-1.339 1.403-1.339 2.67 0 1.268.562 1.856 1.34 2.67.898.942 2.017 2.115 2.017 4.364 0 2.25-1.119 3.422-2.018 4.364-.777.815-1.339 1.403-1.339 2.67 0 1.268.562 1.856 1.34 2.67.898.942 2.017 2.115 2.017 4.364 0 .678-.549 1.227-1.226 1.227z"/></g></g><g><g><path fill="#f68b1f" d="M17.94 51.728c-.22 0-.443-.06-.644-.183-3.438-2.126-5.808-5.529-6.851-9.84a1.226 1.226 0 1 1 2.383-.577c.889 3.67 2.88 6.551 5.758 8.33a1.226 1.226 0 0 1-.646 2.27z"/></g><g><path fill="#f68b1f" d="M35.665 54.6H19.154C12.175 52.158 7.887 45.766 7.51 37.332h39.8c-.378 8.434-4.666 14.826-11.645 17.268zm-15.397 3.809v-1.357H34.55v1.357zM48.563 34.88H6.256c-.677 0-1.226.549-1.226 1.226 0 4.834 1.18 9.289 3.412 12.884a18.827 18.827 0 0 0 9.373 7.73v2.915c0 .677.55 1.226 1.227 1.226h16.736c.677 0 1.226-.549 1.226-1.226V56.72a18.826 18.826 0 0 0 9.373-7.73c2.232-3.595 3.412-8.05 3.412-12.884 0-.677-.549-1.226-1.226-1.226z"/></g></g></g></g></svg>