<svg xmlns="http://www.w3.org/2000/svg" width="80" height="64" viewBox="0 0 80 64"><g><g><path fill="#fcecf2" d="M26.809 0h5.531c10.457 1.004 15.12 8.44 18.94 16.78.564 1.231.37 2.619.397 3.948.1 4.975 2.287 6.653 7.085 5.117 3.109-.995 6.155-1.5 9.368-.75.839.195 1.632.441 2.343.926 2.941 2.004 5.44 4.443 7.544 7.306 1.298 1.766 1.614 3.815 1.983 5.866v5.057c-.612 5.597-3.256 9.918-8.094 12.956-1.72 1.08-3.605 1.432-5.523 1.794h-5.106c-3.865-.366-6.905-2.282-9.52-4.984-2.099-2.168-4.753-3.287-7.647-3.868-4.496-.902-8.884-.365-13.156 1.213-1.528.565-3.11 1.05-4.53 1.823-7.586 4.124-18.712.967-23.686-8.015C1.098 42.206.241 39.13 0 35.821v-5.9c1.117-11.08 7.86-18.92 15.65-25.996C18.294 1.52 21.856.342 25.598.212c.41-.014.853.115 1.21-.212"/></g><g><g><path fill="#f063a0" d="M44.907 19.871l-1.455.812-5.554-9.945 1.455-.812 5.554 9.945zm19.582 2.113l-4.5-8.066a3.713 3.713 0 0 0-5.036-1.43l-3.078 1.717-1.819-2.782a1.866 1.866 0 0 0-1.602-.948c-.77 0-.802.278-5.386 2.76-2.803-4.858-2.602-5.041-3.176-5.204a.816.816 0 0 0-.62.072L36.39 9.711a.816.816 0 0 0-.316 1.109l2.688 4.816-4.565 2.548c-.542.3-.878.89-.878 1.538 0 .683.143.626 2.383 5.497.14.295.433.47.739.47.589 0 .994-.618.738-1.163-2.299-4.896-2.168-4.621-2.19-4.662-.064-.117-.037-.234.002-.256l4.565-2.547c3.005 5.218 2.78 5.36 3.356 5.527.569.16.713-.216 3.501-1.68a.816.816 0 0 0 .316-1.11l-2.867-5.138 4.565-2.548c.077-.026.175.054.22.133a.37.37 0 0 0 .029.049l6.731 10.3a.816.816 0 0 0 1.365-.894l-2.472-3.783 1.89-1.054a.2.2 0 0 1 .268.076l.626 1.122a.815.815 0 1 0 1.424-.795l-.625-1.122a1.832 1.832 0 0 0-1.6-.936c-.772 0-1.08.402-2.878 1.34l-.636-.974 2.978-1.66a2.08 2.08 0 0 1 2.817.799c4.576 8.382 4.76 8.128 4.76 9.067 0 .33-.08.66-.23.956a.815.815 0 1 0 1.452.741 3.75 3.75 0 0 0 .409-1.697c0-.627-.16-1.248-.467-1.796z"/><path fill="none" stroke="#f063a0" stroke-miterlimit="50" stroke-width=".6" d="M44.907 19.871l-1.455.812-5.554-9.945 1.455-.812 5.554 9.945zm19.582 2.113l-4.5-8.066a3.713 3.713 0 0 0-5.036-1.43l-3.078 1.717-1.819-2.782a1.866 1.866 0 0 0-1.602-.948c-.77 0-.802.278-5.386 2.76-2.803-4.858-2.602-5.041-3.176-5.204a.816.816 0 0 0-.62.072L36.39 9.711a.816.816 0 0 0-.316 1.109l2.688 4.816-4.565 2.548c-.542.3-.878.89-.878 1.538 0 .683.143.626 2.383 5.497.14.295.433.47.739.47.589 0 .994-.618.738-1.163-2.299-4.896-2.168-4.621-2.19-4.662-.064-.117-.037-.234.002-.256l4.565-2.547c3.005 5.218 2.78 5.36 3.356 5.527.569.16.713-.216 3.501-1.68a.816.816 0 0 0 .316-1.11l-2.867-5.138 4.565-2.548c.077-.026.175.054.22.133a.37.37 0 0 0 .029.049l6.731 10.3a.816.816 0 0 0 1.365-.894l-2.472-3.783 1.89-1.054a.2.2 0 0 1 .268.076l.626 1.122a.815.815 0 1 0 1.424-.795l-.625-1.122a1.832 1.832 0 0 0-1.6-.936c-.772 0-1.08.402-2.878 1.34l-.636-.974 2.978-1.66a2.08 2.08 0 0 1 2.817.799c4.576 8.382 4.76 8.128 4.76 9.067 0 .33-.08.66-.23.956a.815.815 0 1 0 1.452.741 3.75 3.75 0 0 0 .409-1.697c0-.627-.16-1.248-.467-1.796z"/></g><g><path fill="#f063a0" d="M43.61 19.91a.66.66 0 1 0 0-1.32.66.66 0 0 0 0 1.32z"/><path fill="none" stroke="#f063a0" stroke-miterlimit="50" stroke-width=".6" d="M43.61 19.91a.66.66 0 1 0 0-1.32.66.66 0 0 0 0 1.32z"/></g><g><path fill="#f063a0" d="M31.73 33.332c.253-.681.27-1.188.33-1.541 1.798.45 5.157 1.285 7.628 1.893l1.233 2.625zm-1.26-1.939c-.101.612-.082 1.86-1.336 2.821a3.216 3.216 0 0 1-2.422.64c-1.221-.206-1.39-.108-1.567-.342-.195-.26-.061-.134.804-6.652a.415.415 0 0 1 .41-.36c.051 0-.029-.006 1.351.186a3.24 3.24 0 0 1 2.548 1.97c.366.873.212 1.588.211 1.737zm32.798.236l-2.257-3.457.687-.383a.816.816 0 0 0-.794-1.425l-.788.44-.637-.975 1.313-.732c.578-.322.936-.935.936-1.6 0-.786-.375-1.02-1.62-3.378a.815.815 0 1 0-1.425.795c1.445 2.606 1.414 2.49 1.414 2.583 0 .227-.215.186-1.513.964l-.016-.026a.816.816 0 0 0-1.408.82c.053.11 4.706 7.172 4.706 7.26 0 .07-.039.172-.146.233-16.933 9.431-16.282 9.227-16.472 8.954l-6.674-14.218a.815.815 0 1 0-1.476.693l1.694 3.607c-2.413-.597-4.796-1.188-6.717-1.673a4.882 4.882 0 0 0-4.138-4.041l-1.291-.18a2.047 2.047 0 0 0-2.313 1.745l-.883 6.333a2.05 2.05 0 0 0 1.746 2.312c1.173.153 3.694.86 5.695-1.505l10.973 3.557c2.067 4.402 1.935 4.124 1.95 4.15.5.896 1.652 1.202 2.56.695l16.14-9.004c.913-.51 1.25-1.65.754-2.544z"/><path fill="none" stroke="#f063a0" stroke-miterlimit="50" stroke-width=".6" d="M31.73 33.332c.253-.681.27-1.188.33-1.541 1.798.45 5.157 1.285 7.628 1.893l1.233 2.625zm-1.26-1.939c-.101.612-.082 1.86-1.336 2.821a3.216 3.216 0 0 1-2.422.64c-1.221-.206-1.39-.108-1.567-.342-.195-.26-.061-.134.804-6.652a.415.415 0 0 1 .41-.36c.051 0-.029-.006 1.351.186a3.24 3.24 0 0 1 2.548 1.97c.366.873.212 1.588.211 1.737zm32.798.236l-2.257-3.457.687-.383a.816.816 0 0 0-.794-1.425l-.788.44-.637-.975 1.313-.732c.578-.322.936-.935.936-1.6 0-.786-.375-1.02-1.62-3.378a.815.815 0 1 0-1.425.795c1.445 2.606 1.414 2.49 1.414 2.583 0 .227-.215.186-1.513.964l-.016-.026a.816.816 0 0 0-1.408.82c.053.11 4.706 7.172 4.706 7.26 0 .07-.039.172-.146.233-16.933 9.431-16.282 9.227-16.472 8.954l-6.674-14.218a.815.815 0 1 0-1.476.693l1.694 3.607c-2.413-.597-4.796-1.188-6.717-1.673a4.882 4.882 0 0 0-4.138-4.041l-1.291-.18a2.047 2.047 0 0 0-2.313 1.745l-.883 6.333a2.05 2.05 0 0 0 1.746 2.312c1.173.153 3.694.86 5.695-1.505l10.973 3.557c2.067 4.402 1.935 4.124 1.95 4.15.5.896 1.652 1.202 2.56.695l16.14-9.004c.913-.51 1.25-1.65.754-2.544z"/></g><g><path fill="#f063a0" d="M18.437 46.936c-.277-.6-.584-1.218-.921-1.853l.504-2.762c.051.165 2.142 1.702.417 4.615zm-4.69-1.717l2.25.487c.39.726.736 1.429 1.045 2.105-2.565-.134-3.194-2.484-3.295-2.592zm-.503-1.777a15.508 15.508 0 0 1-.23-2.483c1.056 1.461 1.635 2.434 1.895 2.842zm3.328-2.271l-.314 1.712c-.212-.332-.803-1.326-1.888-2.834a14.4 14.4 0 0 1 2.202 1.122zm4.793 11.452h-.89a30.17 30.17 0 0 0-1.271-3.923c1.442-1.894 1.887-3.711 1.32-5.405-1.318-3.943-7.757-5.517-8.03-5.583a.816.816 0 0 0-.999.69c-.034.272-.819 6.692 2.155 9.62 1.122 1.106 2.553 1.516 4.094 1.414a28.926 28.926 0 0 1 1.05 3.187c-.227.013-1.29-.076-2.67.317a.816.816 0 0 0 .446 1.57c1.084-.311 1.566-.255 4.795-.255a6.735 6.735 0 0 1 6.728 6.727c0 .212-.18.392-.391.392H12.063a.397.397 0 0 1-.391-.392c0-1.957.859-3.817 2.357-5.103a.816.816 0 1 0-1.063-1.238 8.358 8.358 0 0 0-2.926 6.341c0 1.115.908 2.023 2.023 2.023h15.639a2.026 2.026 0 0 0 2.023-2.023c0-4.61-3.75-8.359-8.36-8.359z"/><path fill="none" stroke="#f063a0" stroke-miterlimit="50" stroke-width=".6" d="M18.437 46.936c-.277-.6-.584-1.218-.921-1.853l.504-2.762c.051.165 2.142 1.702.417 4.615zm-4.69-1.717l2.25.487c.39.726.736 1.429 1.045 2.105-2.565-.134-3.194-2.484-3.295-2.592zm-.503-1.777a15.508 15.508 0 0 1-.23-2.483c1.056 1.461 1.635 2.434 1.895 2.842zm3.328-2.271l-.314 1.712c-.212-.332-.803-1.326-1.888-2.834a14.4 14.4 0 0 1 2.202 1.122zm4.793 11.452h-.89a30.17 30.17 0 0 0-1.271-3.923c1.442-1.894 1.887-3.711 1.32-5.405-1.318-3.943-7.757-5.517-8.03-5.583a.816.816 0 0 0-.999.69c-.034.272-.819 6.692 2.155 9.62 1.122 1.106 2.553 1.516 4.094 1.414a28.926 28.926 0 0 1 1.05 3.187c-.227.013-1.29-.076-2.67.317a.816.816 0 0 0 .446 1.57c1.084-.311 1.566-.255 4.795-.255a6.735 6.735 0 0 1 6.728 6.727c0 .212-.18.392-.391.392H12.063a.397.397 0 0 1-.391-.392c0-1.957.859-3.817 2.357-5.103a.816.816 0 1 0-1.063-1.238 8.358 8.358 0 0 0-2.926 6.341c0 1.115.908 2.023 2.023 2.023h15.639a2.026 2.026 0 0 0 2.023-2.023c0-4.61-3.75-8.359-8.36-8.359z"/></g><g><path fill="#f063a0" d="M22.106 27.15c-.063.001-1.586.03-3.478.985a.816.816 0 1 0 .736 1.457c1.521-.768 2.735-.81 2.766-.81a.815.815 0 0 0-.024-1.632z"/><path fill="none" stroke="#f063a0" stroke-miterlimit="50" stroke-width=".6" d="M22.106 27.15c-.063.001-1.586.03-3.478.985a.816.816 0 1 0 .736 1.457c1.521-.768 2.735-.81 2.766-.81a.815.815 0 0 0-.024-1.632z"/></g><g><path fill="#f063a0" d="M16.949 30.205a.817.817 0 0 0-1.154.007 13.216 13.216 0 0 0-2.078 2.773.817.817 0 0 0 .71 1.219c.894 0 .667-.963 2.527-2.845a.816.816 0 0 0-.005-1.154z"/><path fill="none" stroke="#f063a0" stroke-miterlimit="50" stroke-width=".6" d="M16.949 30.205a.817.817 0 0 0-1.154.007 13.216 13.216 0 0 0-2.078 2.773.817.817 0 0 0 .71 1.219c.894 0 .667-.963 2.527-2.845a.816.816 0 0 0-.005-1.154z"/></g><g><path fill="#f063a0" d="M18.698 34.721a.814.814 0 0 0-1.077.413 14.573 14.573 0 0 0-.869 2.581.815.815 0 1 0 1.588.375 13 13 0 0 1 .771-2.292.816.816 0 0 0-.413-1.077z"/><path fill="none" stroke="#f063a0" stroke-miterlimit="50" stroke-width=".6" d="M18.698 34.721a.814.814 0 0 0-1.077.413 14.573 14.573 0 0 0-.869 2.581.815.815 0 1 0 1.588.375 13 13 0 0 1 .771-2.292.816.816 0 0 0-.413-1.077z"/></g><g><path fill="#f063a0" d="M23.095 29.996a.814.814 0 0 0-1.123-.263c-.05.032-1.275.8-2.566 2.432a.815.815 0 1 0 1.28 1.012c1.1-1.391 2.136-2.052 2.148-2.06a.815.815 0 0 0 .26-1.12z"/><path fill="none" stroke="#f063a0" stroke-miterlimit="50" stroke-width=".6" d="M23.095 29.996a.814.814 0 0 0-1.123-.263c-.05.032-1.275.8-2.566 2.432a.815.815 0 1 0 1.28 1.012c1.1-1.391 2.136-2.052 2.148-2.06a.815.815 0 0 0 .26-1.12z"/></g></g></g></svg>