<svg width="28" height="28" viewBox="0 0 28 28" fill="none" xmlns="http://www.w3.org/2000/svg">
<path d="M1.66602 1.6665H3.88861C4.53209 1.6665 5.08376 2.12607 5.20001 2.75896L5.79526 5.99982L1.66602 1.6665ZM5.79526 5.99982L7.81109 16.9749C7.9217 17.5771 8.42823 18.0266 9.03929 18.0648L22.8712 18.9293C23.5221 18.97 24.1069 18.5338 24.2535 17.8983L26.6225 7.63294C26.8153 6.79748 26.1807 5.99982 25.3233 5.99982H5.79526Z" stroke="#D57792" stroke-width="2" stroke-linecap="round" stroke-linejoin="round"/>
<path d="M10.334 26.3335C11.4386 26.3335 12.334 25.4381 12.334 24.3335C12.334 23.2289 11.4386 22.3335 10.334 22.3335C9.22941 22.3335 8.33398 23.2289 8.33398 24.3335C8.33398 25.4381 9.22941 26.3335 10.334 26.3335Z" stroke="#D57792" stroke-width="2"/>
<path d="M21 26.3335C22.1046 26.3335 23 25.4381 23 24.3335C23 23.2289 22.1046 22.3335 21 22.3335C19.8954 22.3335 19 23.2289 19 24.3335C19 25.4381 19.8954 26.3335 21 26.3335Z" stroke="#D57792" stroke-width="2"/>
</svg>
