<svg width="18" height="23" viewBox="0 0 18 23" fill="none" xmlns="http://www.w3.org/2000/svg">
<path fill-rule="evenodd" clip-rule="evenodd" d="M9.71606 21.2041C11.6789 18.976 17 12.6034 17 9C17 4.58172 13.4183 1 9 1C4.58172 1 1 4.58172 1 9C1 12.6034 6.32107 18.976 8.28394 21.2041C8.66725 21.6393 9.33275 21.6393 9.71606 21.2041ZM9 13C11.2091 13 13 11.2091 13 9C13 6.79086 11.2091 5 9 5C6.79086 5 5 6.79086 5 9C5 11.2091 6.79086 13 9 13Z" fill="#D57792"/>
<path d="M9.71606 21.2041L9.34088 20.8736V20.8736L9.71606 21.2041ZM8.28394 21.2041L7.90875 21.5347L8.28394 21.2041ZM16.5 9C16.5 9.79249 16.2031 10.7876 15.6845 11.9029C15.1704 13.0087 14.4598 14.1883 13.6804 15.337C12.1219 17.6339 10.3166 19.7661 9.34088 20.8736L10.0912 21.5347C11.0784 20.4141 12.9151 18.2458 14.5078 15.8985C15.3041 14.7251 16.0464 13.4967 16.5913 12.3245C17.1318 11.1619 17.5 10.0092 17.5 9H16.5ZM9 1.5C13.1421 1.5 16.5 4.85786 16.5 9H17.5C17.5 4.30558 13.6944 0.5 9 0.5V1.5ZM1.5 9C1.5 4.85786 4.85786 1.5 9 1.5V0.5C4.30558 0.5 0.5 4.30558 0.5 9H1.5ZM8.65912 20.8736C7.68343 19.7661 5.87814 17.6339 4.31964 15.337C3.54022 14.1883 2.82958 13.0087 2.31548 11.9029C1.79695 10.7876 1.5 9.79249 1.5 9H0.5C0.5 10.0092 0.868187 11.1619 1.40869 12.3245C1.95363 13.4967 2.69595 14.7251 3.49215 15.8985C5.0849 18.2458 6.92158 20.4141 7.90875 21.5347L8.65912 20.8736ZM9.34088 20.8736C9.15665 21.0828 8.84335 21.0828 8.65912 20.8736L7.90875 21.5347C8.49114 22.1958 9.50886 22.1958 10.0912 21.5347L9.34088 20.8736ZM12.5 9C12.5 10.933 10.933 12.5 9 12.5V13.5C11.4853 13.5 13.5 11.4853 13.5 9H12.5ZM9 5.5C10.933 5.5 12.5 7.067 12.5 9H13.5C13.5 6.51472 11.4853 4.5 9 4.5V5.5ZM5.5 9C5.5 7.067 7.067 5.5 9 5.5V4.5C6.51472 4.5 4.5 6.51472 4.5 9H5.5ZM9 12.5C7.067 12.5 5.5 10.933 5.5 9H4.5C4.5 11.4853 6.51472 13.5 9 13.5V12.5Z" fill="#D57792"/>
</svg>
