<svg class="sprite-icons" xmlns="http://www.w3.org/2000/svg">

    <symbol id="icon-exemple">

        <!-- width="16" height="16" viewBox="0 0 16 16" -->
        <path d="M15.6413 12.6552L13.1704 10.1784C12.6782 9.6871 11.8632 9.70203 11.3538 10.2127L10.109 11.4601C10.0303 11.4167 9.94891 11.3713 9.86332 11.3231C9.07719 10.8866 8.00124 10.2882 6.86903 9.15259C5.73347 8.01458 5.1359 6.93454 4.69898 6.14613C4.65288 6.0626 4.6087 5.98207 4.56508 5.90559L5.40057 5.06945L5.81134 4.65725C6.32143 4.14586 6.33549 3.32921 5.84448 2.83648L3.37353 0.359373C2.88251 -0.132666 2.0671 -0.117739 1.55701 0.39365L0.860608 1.09563L0.879638 1.11457C0.646127 1.4132 0.450997 1.75763 0.305788 2.12905C0.171932 2.4826 0.0885942 2.81998 0.0504876 3.15805C-0.275785 5.86906 0.960265 8.34671 4.31474 11.7088C8.95166 16.3559 12.6884 16.0049 12.8496 15.9877C13.2007 15.9457 13.5372 15.8616 13.8791 15.7285C14.2465 15.5847 14.5899 15.3894 14.8877 15.1558L14.9029 15.1694L15.6084 14.477C16.1174 13.9657 16.1321 13.1487 15.6413 12.6552Z" fill="white"/>

    </symbol>

    <symbol id="icon-search">
        <!-- width="28" height="28" viewBox="0 0 28 28" -->
        <path d="M19.7782 19.7782C24.0739 15.4824 24.0739 8.51759 19.7782 4.22183C15.4824 -0.0739417 8.51759 -0.0739417 4.22183 4.22183C-0.0739417 8.51759 -0.0739417 15.4824 4.22183 19.7782C8.51759 24.0739 15.4824 24.0739 19.7782 19.7782ZM19.7782 19.7782L26.5 26.5" stroke="white" stroke-width="2" stroke-linecap="round" stroke-linejoin="round" fill="transparent"/>
        <path d="M13 6H11V11H6V13H11V18H13V13H18V11H13V6Z" fill="white"/>
    </symbol>

    <symbol id="icon-plus">
        <!-- width="22" height="22" viewBox="0 0 22 22" -->
        <circle cx="11" cy="11" r="10" stroke="#353132" fill="transparent"/>
        <path fill-rule="evenodd" clip-rule="evenodd" d="M11.8333 6H10.1667V10.1667H6V11.8333H10.1667V16H11.8333V11.8333H16V10.1667H11.8333V6Z" fill="#353132"/>

    </symbol>

    <symbol id="icon-minus">
        <!-- width="22" height="22" viewBox="0 0 22 22" -->
        <circle cx="11" cy="11" r="10" stroke="#353132" fill="transparent"/>
        <rect x="16" y="10.1667" width="1.66667" height="10" transform="rotate(90 16 10.1667)" fill="#353132"/>
    </symbol>

    <symbol id="icon-star">
        <!-- width="16" height="16" viewBox="0 0 16 16" -->
        <path d="M8 0L9.79611 5.52786H15.6085L10.9062 8.94427L12.7023 14.4721L8 11.0557L3.29772 14.4721L5.09383 8.94427L0.391548 5.52786H6.20389L8 0Z" fill="#ECCD5E"/>
    </symbol>

    <symbol id="icon-arrow">
        <!-- width="14" height="10" viewBox="0 0 14 10" -->
        <path d="M9 1L13 5M13 5L9 9M13 5L1 5" stroke="#B53057" stroke-linecap="round" stroke-linejoin="round"/>
    </symbol>

    <symbol id="icon-arrow__bottom">
        <!-- width="14" height="8" viewBox="0 0 14 8" -->
        <path d="M13 1.5L7 6.5L1 1.5" fill="transparent" stroke-width="1.5" stroke-linecap="round" stroke-linejoin="round"/>
    </symbol>

    <symbol id="icon-inst">
        <!-- width="32" height="32" viewBox="0 0 32 32" -->
            <g clip-path="url(#clip0)">
                <path d="M31.9689 9.40809C31.8939 7.7078 31.6189 6.53888 31.2251 5.52598C30.8187 4.45082 30.1936 3.48823 29.3746 2.68802C28.5744 1.87537 27.6055 1.2439 26.5428 0.843915C25.524 0.450039 24.3612 0.175083 22.6609 0.100117C20.9479 0.0188025 20.4041 0 16.0595 0C11.7149 0 11.1711 0.0188025 9.46448 0.0937683C7.7642 0.168734 6.59527 0.443934 5.58262 0.837566C4.50721 1.2439 3.54462 1.86902 2.74442 2.68802C1.93176 3.48823 1.30054 4.45717 0.900311 5.51988C0.506435 6.53888 0.231479 7.70146 0.156514 9.40174C0.075199 11.1147 0.0563965 11.6585 0.0563965 16.0031C0.0563965 20.3477 0.075199 20.8915 0.150165 22.5982C0.225131 24.2984 0.500331 25.4674 0.894206 26.4803C1.30054 27.5554 1.93176 28.518 2.74442 29.3182C3.54462 30.1309 4.51356 30.7624 5.57627 31.1623C6.59527 31.5562 7.75785 31.8312 9.45837 31.9061C11.1648 31.9813 11.7088 31.9999 16.0534 31.9999C20.398 31.9999 20.9418 31.9813 22.6484 31.9061C24.3487 31.8312 25.5177 31.5562 26.5303 31.1623C28.6809 30.3309 30.3811 28.6306 31.2126 26.4803C31.6062 25.4613 31.8814 24.2984 31.9564 22.5982C32.0314 20.8915 32.0502 20.3477 32.0502 16.0031C32.0502 11.6585 32.0438 11.1147 31.9689 9.40809ZM29.0872 22.4731C29.0183 24.0359 28.7558 24.8799 28.537 25.4425C27.9993 26.8365 26.8929 27.943 25.4989 28.4807C24.9362 28.6995 24.0862 28.962 22.5295 29.0306C20.8417 29.1058 20.3355 29.1243 16.0659 29.1243C11.7962 29.1243 11.2837 29.1058 9.60196 29.0306C8.03915 28.962 7.19524 28.6995 6.63263 28.4807C5.93889 28.2243 5.30742 27.8179 4.79487 27.2866C4.26351 26.7677 3.85719 26.1426 3.60079 25.4488C3.382 24.8862 3.11949 24.0359 3.05088 22.4795C2.97567 20.7917 2.95711 20.2852 2.95711 16.0156C2.95711 11.7459 2.97567 11.2334 3.05088 9.55192C3.11949 7.98911 3.382 7.14519 3.60079 6.58258C3.85719 5.8886 4.26351 5.25737 4.80122 4.74458C5.31987 4.21323 5.94499 3.8069 6.63898 3.55074C7.20159 3.33195 8.05185 3.06945 9.60831 3.00059C11.2961 2.92562 11.8026 2.90682 16.072 2.90682C20.3479 2.90682 20.8541 2.92562 22.5359 3.00059C24.0987 3.06945 24.9426 3.33195 25.5052 3.55074C26.1989 3.8069 26.8304 4.21323 27.343 4.74458C27.8743 5.26348 28.2806 5.8886 28.537 6.58258C28.7558 7.14519 29.0183 7.99521 29.0872 9.55192C29.1622 11.2397 29.181 11.7459 29.181 16.0156C29.181 20.2852 29.1622 20.7853 29.0872 22.4731Z" fill="white"/>
                <path d="M16.0595 7.78271C11.5212 7.78271 7.83911 11.4646 7.83911 16.0031C7.83911 20.5416 11.5212 24.2234 16.0595 24.2234C20.598 24.2234 24.2798 20.5416 24.2798 16.0031C24.2798 11.4646 20.598 7.78271 16.0595 7.78271ZM16.0595 21.3354C13.1153 21.3354 10.7271 18.9475 10.7271 16.0031C10.7271 13.0586 13.1153 10.6707 16.0595 10.6707C19.0039 10.6707 21.3918 13.0586 21.3918 16.0031C21.3918 18.9475 19.0039 21.3354 16.0595 21.3354Z" fill="white"/>
                <path d="M26.5245 7.45814C26.5245 8.51792 25.6651 9.37722 24.6051 9.37722C23.5453 9.37722 22.686 8.51792 22.686 7.45814C22.686 6.39812 23.5453 5.53906 24.6051 5.53906C25.6651 5.53906 26.5245 6.39812 26.5245 7.45814Z" fill="white"/>
            </g>
    </symbol>


    <symbol id="icon-phone">

        <!-- width="16" height="16" viewBox="0 0 16 16" -->
        <path d="M15.6413 12.6552L13.1704 10.1784C12.6782 9.6871 11.8632 9.70203 11.3538 10.2127L10.109 11.4601C10.0303 11.4167 9.94891 11.3713 9.86332 11.3231C9.07719 10.8866 8.00124 10.2882 6.86903 9.15259C5.73347 8.01458 5.1359 6.93454 4.69898 6.14613C4.65288 6.0626 4.6087 5.98207 4.56508 5.90559L5.40057 5.06945L5.81134 4.65725C6.32143 4.14586 6.33549 3.32921 5.84448 2.83648L3.37353 0.359373C2.88251 -0.132666 2.0671 -0.117739 1.55701 0.39365L0.860608 1.09563L0.879638 1.11457C0.646127 1.4132 0.450997 1.75763 0.305788 2.12905C0.171932 2.4826 0.0885942 2.81998 0.0504876 3.15805C-0.275785 5.86906 0.960265 8.34671 4.31474 11.7088C8.95166 16.3559 12.6884 16.0049 12.8496 15.9877C13.2007 15.9457 13.5372 15.8616 13.8791 15.7285C14.2465 15.5847 14.5899 15.3894 14.8877 15.1558L14.9029 15.1694L15.6084 14.477C16.1174 13.9657 16.1321 13.1487 15.6413 12.6552Z"/>

    </symbol>


    <symbol id="icon-card">

        <!-- width="28" height="28" viewBox="0 0 28 28" -->
        <path fill="transparent" d="M1.66602 1.6665H3.88861C4.53209 1.6665 5.08376 2.12607 5.20001 2.75896L5.79526 5.99982L1.66602 1.6665ZM5.79526 5.99982L7.81109 16.9749C7.9217 17.5771 8.42823 18.0266 9.03929 18.0648L22.8712 18.9293C23.5221 18.97 24.1069 18.5338 24.2535 17.8983L26.6225 7.63294C26.8153 6.79748 26.1807 5.99982 25.3233 5.99982H5.79526Z" stroke="#D57792" stroke-width="2" stroke-linecap="round" stroke-linejoin="round"/>
        <path d="M10.334 26.3335C11.4386 26.3335 12.334 25.4381 12.334 24.3335C12.334 23.2289 11.4386 22.3335 10.334 22.3335C9.22941 22.3335 8.33398 23.2289 8.33398 24.3335C8.33398 25.4381 9.22941 26.3335 10.334 26.3335Z" stroke="#D57792" stroke-width="2"/>
        <path d="M21 26.3335C22.1046 26.3335 23 25.4381 23 24.3335C23 23.2289 22.1046 22.3335 21 22.3335C19.8954 22.3335 19 23.2289 19 24.3335C19 25.4381 19.8954 26.3335 21 26.3335Z" stroke="#D57792" stroke-width="2"/>

    </symbol>

</svg>