<svg width="20" height="20" viewBox="0 0 20 20" fill="none" xmlns="http://www.w3.org/2000/svg">
<path fill-rule="evenodd" clip-rule="evenodd" d="M10 20C15.5228 20 20 15.5228 20 10C20 4.47715 15.5228 0 10 0C4.47715 0 0 4.47715 0 10C0 15.5228 4.47715 20 10 20ZM11 3.5C11 2.94772 10.5523 2.5 10 2.5C9.44771 2.5 9 2.94772 9 3.5V11C9 11.3788 9.214 11.725 9.55279 11.8944L13.5528 13.8944C14.0468 14.1414 14.6474 13.9412 14.8944 13.4472C15.1414 12.9532 14.9412 12.3526 14.4472 12.1056L11 10.382V3.5Z" fill="#D57792"/>
</svg>
